<svg width="600" height="400" viewBox="0 0 600 400" fill="none" xmlns="http://www.w3.org/2000/svg" xmlns:cgf="https://coding.garden/flags"><metadata id="cgf-metadata">

<cgf:flag>
  <cgf:name>Alphen-Chaam</cgf:name>
  <cgf:route>nl/nb/alphen_chaam</cgf:route>
  <cgf:aspect-ratio>1.5</cgf:aspect-ratio>
</cgf:flag>

</metadata><g clip-path="url(#clip0_1_4566)">
<path d="M0.862305 -7.99609V410.64L307.317 408.148L307.013 -7.99609H0.862305V-7.99609Z" fill="#008000"/>
<path d="M304.732 -7.99023V410.634L615.079 408.142L614.771 -7.99023H304.732V-7.99023Z" fill="white"/>
<path d="M147.637 49.6221L81.915 175.784L213.359 176.054L147.637 49.6221Z" fill="white"/>
<path d="M125.613 274.885C124.011 285.975 118.554 304.808 104.678 317.742C101.342 326.757 112.695 331.132 115.951 328.111C122.129 316.096 128.516 297.359 130.905 281.106C131.418 281.594 132.439 280.94 132.176 283.18C128.377 299.286 124.379 315.172 117.561 330.415C117.199 340.244 126.911 341.568 130.675 337.097C136.216 318.894 139.509 300.691 139.417 282.488C139.954 281.667 140.491 281.573 141.027 282.488C140.123 301.309 137.747 319.834 132.515 337.788C132.691 349.86 148.54 347.916 148.389 341.705C142.499 329.248 142.645 317.093 145.399 305.069C146.697 304.003 146.998 304.685 147.469 305.069C142.451 319.547 144.717 336.254 152.991 345.161C157.968 349.23 165.643 344.574 166.334 338.018C154.353 324.174 155.188 306.051 152.991 288.94C153.604 288.038 154.218 287.481 154.831 288.94C154.95 304.843 155.683 320.768 167.714 337.097C178.712 340.252 181.349 330.918 179.678 329.032C167.558 315.28 164.833 301.033 160.583 286.866C161.043 286.342 161.503 285.516 161.963 286.866C164.92 300.143 170.733 319.259 180.598 325.806C190.983 327.323 186.433 314.852 185.659 312.903C173.934 301.952 166.22 289.54 164.034 275.115C161.049 254.707 134.111 245.842 125.613 274.885Z" fill="white"/>
<path d="M128.766 264.361C126.436 268.4 124.435 272.988 123.398 279.187C120.021 277.994 115.313 273.327 117.542 265.583C119.27 261.528 125.503 261.137 128.766 264.361Z" fill="#F9F9F9"/>
<path d="M158.98 262.423C162.204 265.567 164.401 269.959 165.08 276.516C168.457 275.322 173.165 270.655 170.937 262.912C169.209 258.856 162.243 259.199 158.98 262.423Z" fill="#F9F9F9"/>
<path d="M433.788 268.271L417.845 284.401L442.572 308.84L417.845 332.791L433.462 348.106L458.515 323.667L482.754 348.432L498.371 333.117L473.481 308.515L498.208 284.401L482.591 268.434L457.701 293.037L433.788 268.271Z" fill="#008000"/>
<path d="M395.245 102.995L394.785 173.733H406.058L413.65 120.737L421.012 173.733H428.374L435.966 120.737L443.328 173.733H450.92L458.282 120.737L465.414 173.733H473.236L480.138 120.737L487.96 173.733H495.552L502.224 120.737L510.276 173.733H520.629L520.169 102.765C475.184 86.4343 434.106 89.2717 395.245 102.995Z" fill="#008000"/>
</g>
<defs>
<clipPath id="clip0_1_4566">
<rect width="600" height="400" fill="white"/>
</clipPath>
</defs>
</svg>
