<svg width="600" height="400" viewBox="0 0 600 400" fill="none" xmlns="http://www.w3.org/2000/svg" xmlns:cgf="https://coding.garden/flags"><metadata id="cgf-metadata">

<cgf:flag>
  <cgf:name>Altena</cgf:name>
  <cgf:route>nl/nb/altena</cgf:route>
  <cgf:aspect-ratio>1.5</cgf:aspect-ratio>
</cgf:flag>

</metadata><g clip-path="url(#clip0_1_4575)">
<path d="M600 0H0V400H600V0Z" fill="white"/>
<path d="M225.9 265.764L209.11 256.337C168.474 233.7 167.869 264.668 144.882 251.877L96.2366 224.444C95.4953 224.006 94.8833 223.388 94.4607 222.65C94.038 221.913 93.819 221.081 93.8252 220.237C93.8252 218.469 94.7723 216.787 96.2366 216.03L112.509 206.856L81.2559 220.319L70.0635 230.839C72.4153 236.008 76.3961 240.312 81.4283 243.127L112.597 260.714C148.153 280.574 151.684 251.794 173.639 264.079L225.383 293.28C233.736 297.993 244.409 297.908 253.018 293.029C256.258 291.268 259.054 288.824 261.201 285.876L225.9 265.764Z" fill="url(#paint0_linear_1_4575)"/>
<path d="M214.448 155.186C214.708 200.967 242.515 185.904 242.602 211.82V266.689C242.599 267.54 242.357 268.375 241.901 269.101C241.446 269.828 240.795 270.419 240.019 270.811C238.469 271.738 236.49 271.738 235.026 270.896L225.813 265.761L247.855 281.078L261.199 285.706C264.642 281.163 266.364 275.692 266.364 269.886V234.798C266.194 194.739 238.899 206.186 238.814 181.446V123.125C238.814 113.7 233.389 104.78 224.778 99.8158C221.425 97.9631 217.894 96.7871 214.363 96.4487V132.296L214.45 155.186H214.448Z" fill="url(#paint1_linear_1_4575)"/>
<path d="M122.237 201.303C162.619 178.245 135.496 162.171 158.313 149.129L206.871 121.696C208.336 120.853 210.23 120.853 211.867 121.779C213.416 122.704 214.448 124.303 214.448 125.903V132.213L216.859 109.408L214.448 96.366C208.766 95.6917 202.998 96.9528 197.833 99.8159L166.665 117.404C131.278 137.596 154.955 154.935 133.172 167.386L81.5135 196.589C73.1623 201.303 67.9121 210.391 67.9121 220.152C67.9121 223.937 68.6868 227.475 70.1486 230.671L112.597 206.688L122.237 201.303Z" fill="url(#paint2_linear_1_4575)"/>
</g>
<defs>
<linearGradient id="paint0_linear_1_4575" x1="202.797" y1="321.142" x2="185.203" y2="186.489" gradientUnits="userSpaceOnUse">
<stop offset="0.2" stop-color="#13A538"/>
<stop offset="1" stop-color="#312783"/>
</linearGradient>
<linearGradient id="paint1_linear_1_4575" x1="240.439" y1="285.666" x2="240.439" y2="96.3938" gradientUnits="userSpaceOnUse">
<stop stop-color="#13A538"/>
<stop offset="0.8521" stop-color="#00A7E7"/>
</linearGradient>
<linearGradient id="paint2_linear_1_4575" x1="67.9359" y1="163.457" x2="216.841" y2="163.457" gradientUnits="userSpaceOnUse">
<stop offset="0.2" stop-color="#312783"/>
<stop offset="1" stop-color="#00A7E7"/>
</linearGradient>
<clipPath id="clip0_1_4575">
<rect width="600" height="400" fill="white"/>
</clipPath>
</defs>
</svg>
