<svg width="600" height="400" viewBox="0 0 600 400" fill="none" xmlns="http://www.w3.org/2000/svg" xmlns:cgf="https://coding.garden/flags"><metadata id="cgf-metadata">

<cgf:flag>
  <cgf:name>Asten</cgf:name>
  <cgf:route>nl/nb/asten</cgf:route>
  <cgf:aspect-ratio>1.5</cgf:aspect-ratio>
</cgf:flag>

</metadata><g clip-path="url(#clip0_1_4581)">
<path d="M600 0H0V133.333H600V0Z" fill="white"/>
<path d="M600 133.333H0V266.667H600V133.333Z" fill="#CC112F"/>
<path d="M600 266.667H0V400H600V266.667Z" fill="#FCCC00"/>
<path d="M330.667 200C345.333 202.667 360 217.334 360 236C360 254.667 346.667 266.667 333.333 266.667C320 266.667 312 258.667 312 258.667C321.333 262.667 333.333 257.334 333.333 248C333.333 238.667 328 230 309.333 230H200V186.667L330.667 200Z" fill="black"/>
<path d="M330.667 200C345.333 197.333 360 182.667 360 164C360 145.333 346.667 133.333 333.333 133.333C320 133.333 312 141.333 312 141.333C321.333 137.333 333.333 142.667 333.333 152C333.333 161.333 328 170 309.333 170H200V213.333L330.667 200Z" fill="black"/>
<path d="M69.3333 200C54.6667 202.667 40 217.334 40 236C40 254.667 53.3333 266.667 66.6667 266.667C80 266.667 88 258.667 88 258.667C78.6667 262.667 66.6667 257.334 66.6667 248C66.6667 238.667 72 230 90.6667 230H200V186.667L69.3333 200Z" fill="black"/>
<path d="M69.3333 200C54.6667 197.333 40 182.667 40 164C40 145.333 53.3333 133.333 66.6667 133.333C80 133.333 88 141.333 88 141.333C78.6667 137.333 66.6667 142.667 66.6667 152C66.6667 161.333 72 170 90.6667 170H200V213.333L69.3333 200Z" fill="black"/>
<path d="M200 330.667C197.333 345.333 182.666 360 164 360C145.333 360 133.333 346.667 133.333 333.333C133.333 320 141.333 312 141.333 312C137.333 321.333 142.666 333.333 152 333.333C161.333 333.333 170 328 170 309.333V200H213.333L200 330.667Z" fill="black"/>
<path d="M200 330.667C202.667 345.333 217.333 360 236 360C254.667 360 266.667 346.667 266.667 333.333C266.667 320 258.667 312 258.667 312C262.667 321.333 257.333 333.333 248 333.333C238.667 333.333 230 328 230 309.333V200H186.667L200 330.667Z" fill="black"/>
<path d="M200 69.3333C197.333 54.6667 182.666 40 164 40C145.333 40 133.333 53.3333 133.333 66.6667C133.333 80 141.333 88 141.333 88C137.333 78.6667 142.666 66.6667 152 66.6667C161.333 66.6667 170 72 170 90.6667V200H213.333L200 69.3333Z" fill="black"/>
<path d="M200 69.3333C202.667 54.6667 217.333 40 236 40C254.667 40 266.667 53.3333 266.667 66.6667C266.667 80 258.667 88 258.667 88C262.667 78.6667 257.333 66.6667 248 66.6667C238.667 66.6667 230 72 230 90.6667V200H186.667L200 69.3333Z" fill="black"/>
</g>
<defs>
<clipPath id="clip0_1_4581">
<rect width="600" height="400" fill="white"/>
</clipPath>
</defs>
</svg>
