<svg width="600" height="400" viewBox="0 0 600 400" fill="none" xmlns="http://www.w3.org/2000/svg" xmlns:cgf="https://coding.garden/flags"><metadata id="cgf-metadata">

<cgf:flag>
  <cgf:name>Baarle-Nassau</cgf:name>
  <cgf:route>nl/nb/baarle_nassau</cgf:route>
  <cgf:aspect-ratio>1.5</cgf:aspect-ratio>
</cgf:flag>

</metadata><g clip-path="url(#clip0_1_4595)">
<path d="M600 0H0V406.78H600V0Z" fill="white"/>
<path d="M0 0H229.333L242.667 27.1186L229.333 54.2373H176V115.254H229.333L242.667 142.373L229.333 169.492H176V230.508H229.333L242.667 257.627L229.333 284.746H176V345.763H229.333L242.667 372.881L229.333 400H0V0Z" fill="#0039A6"/>
<path d="M132 56.9492H44V112.542H132V56.9492Z" fill="#FCCC00"/>
<path d="M600 0H229.333V54.2373H600V0Z" fill="#CC112F"/>
<path d="M600 115.254H229.333V169.492H600V115.254Z" fill="#CC112F"/>
<path d="M600 230.508H229.333V284.746H600V230.508Z" fill="#CC112F"/>
<path d="M600 345.763H229.333V400H600V345.763Z" fill="#CC112F"/>
</g>
<defs>
<clipPath id="clip0_1_4595">
<rect width="600" height="400" fill="white"/>
</clipPath>
</defs>
</svg>
