<svg width="600" height="400" viewBox="0 0 600 400" fill="none" xmlns="http://www.w3.org/2000/svg" xmlns:cgf="https://coding.garden/flags"><metadata id="cgf-metadata">

<cgf:flag>
  <cgf:name>Bergeijk</cgf:name>
  <cgf:route>nl/nb/bergeijk</cgf:route>
  <cgf:aspect-ratio>1.5</cgf:aspect-ratio>
</cgf:flag>

</metadata><g clip-path="url(#clip0_1_4603)">
<path d="M0 0H600V400H0V0Z" fill="#0039A7"/>
<path d="M199.062 133.781L196.281 136.5L193.531 139.781L191.25 143.031L188.938 146.312L187.094 150.125L185.719 153.938L185.25 158.312L184.812 163.219L185.25 170.281L186.188 176.844L187.562 183.938L188.938 190.469L190.781 197.562L191.25 200H206.844L207.312 197.562L209.156 190.469L210.531 183.938L211.938 176.844L212.844 170.281L213.312 163.219L212.844 158.312L212.375 153.938L211 150.125L209.156 146.312L206.875 143.031L204.562 139.781L201.812 136.5L199.062 133.781ZM206.844 200L205.938 204.625L204.125 212.25L203.188 219.906H206.875L209.625 207.344L212.562 200H206.844ZM212.562 200H250.438L251 197V192.656L250.094 188.812L248.688 185.562L246.406 183.375L242.719 181.75L237.219 181.188L231.688 182.281L225.25 185L219.281 189.906L213.75 197L212.562 200ZM250.438 200L250.094 201.906L247.312 206.281L243.656 210.094L237.656 213.906L238.594 208.438L237.219 204.094L234 201.375L229.406 200.281L226.188 200.812L223.875 201.906L221.594 203.531L219.75 206.281L218.375 209L216.969 212.812L216.062 216.062L215.156 219.906H222.031V227.531H176.531V219.906H183.438L182.969 216.625L182.031 212.812L180.656 209.531L179.281 206.281L177.438 203.531L175.156 201.906L172.375 200.812L169.625 200.281L165.031 201.375L161.812 204.094L160.438 208.438L160.906 213.906L154.906 210.094L151.25 206.281L148.5 201.906L148.125 200H0V400H600V200H250.438ZM148.125 200H186L184.812 197L179.75 189.906L173.781 185L167.344 181.75L161.344 181.188L156.312 181.75L152.625 183.375L150.312 185.562L148.5 188.812L147.562 192.656V197L148.125 200ZM186 200L188.938 207.344L191.25 219.906H194.906L194 212.25L192.156 204.625L191.25 200H186ZM183.875 230.781H191.688L191.25 235.156L190.312 238.969L188.938 241.688L187.094 243.875L184.344 245.5H181.125L177 244.406L172.375 242.25L177 241.688L180.219 238.969L182.5 235.688L183.875 230.781ZM195.375 230.781H202.281L202.719 232.969V235.156L203.188 237.344L204.125 239.5L204.562 241.688L205.031 243.875V245.5L205.5 247.688V250.406L205.031 253.125L204.562 255.312L204.125 257.5L203.188 259.688L202.281 261.844L200.906 264.031L199.062 266.219L197.219 264.031L195.844 261.844L194.906 259.688L194 257.5L193.531 255.312L193.062 253.125L192.625 250.406V247.688L193.062 245.5V243.875L193.531 241.688L194 239.5L194.469 237.344L194.906 235.156V232.969L195.375 230.781ZM206.875 230.781H214.688L215.594 235.688L217.906 238.969L221.125 241.688L226.188 242.25L221.594 244.406L217.438 245.5H214.219L211.469 243.875L209.625 241.688L207.781 238.969L207.312 235.156L206.875 230.781Z" fill="#FDC72C"/>
<path d="M600 300H200V400H600V300Z" fill="#F32737"/>
<path d="M600 0H200V100H600V0Z" fill="white"/>
<path fill-rule="evenodd" clip-rule="evenodd" d="M85.1318 331.293H77.3168L75.9377 336.198L73.6391 339.468L70.4212 342.193L65.8241 342.738L70.4212 344.918L74.5586 346.008H77.7765L80.5347 344.373L82.3736 342.193L83.7527 339.468L84.6721 335.653L85.1318 331.293ZM95.705 331.293H88.8095L88.3497 333.473V335.653L87.89 337.833L87.4303 340.013L86.9706 342.193L86.5109 344.373V346.008L86.0512 348.189V350.914L86.5109 353.639L86.9706 355.819L87.4303 357.999L88.3497 360.179L89.2692 362.359L90.6483 364.539L92.4871 366.719L94.3259 364.539L95.705 362.359L96.6245 360.179L97.5439 357.999L98.0036 355.819L98.4633 353.639L98.923 350.914V348.189L98.4633 346.008V344.373L98.0036 342.193L97.5439 340.013L96.6245 337.833L96.1648 335.653V333.473L95.705 331.293ZM108.117 331.293H100.302L100.762 335.653L101.222 339.468L103.06 342.193L104.899 344.373L107.657 346.008H110.875L115.013 344.918L119.61 342.738L114.553 342.193L111.335 339.468L109.037 336.198L108.117 331.293ZM69.9615 328.023H115.472V320.393H108.577L109.496 316.578L110.416 313.308L111.795 309.493L113.174 306.768L115.013 304.042L117.311 302.407L119.61 301.317L122.828 300.772L127.425 301.862L130.643 304.587L132.022 308.948L131.102 314.398L137.079 310.583L140.756 306.768L143.514 302.407L144.434 297.502V293.142L143.514 289.327L142.135 286.057L139.837 283.877L136.159 282.242L130.643 281.697L125.126 282.787L118.69 285.512L112.714 290.417L107.198 297.502L103.06 307.858L100.302 320.393H96.6245L97.5439 312.763L99.3827 305.132L100.762 298.047L102.601 290.962L103.98 284.422L105.359 277.337L106.278 270.797L106.738 263.711L106.278 258.806L105.819 254.446L104.439 250.631L102.601 246.816L100.302 243.546L98.0036 240.276L95.2453 237.006L92.4871 234.281L89.7289 237.006L86.9706 240.276L84.6721 243.546L82.3736 246.816L80.5347 250.631L79.1556 254.446L78.6959 258.806L78.2362 263.711L78.6959 270.797L79.6153 277.337L80.9944 284.422L82.3736 290.962L84.2124 298.047L85.5915 305.132L87.4303 312.763L88.3497 320.393H84.6721L82.3736 307.858L78.2362 297.502L73.1794 290.417L67.2033 285.512L60.7674 282.242L54.7912 281.697L49.7344 282.242L46.0568 283.877L43.7582 286.057L41.9194 289.327L41 293.142V297.502L41.9194 302.407L44.6777 306.768L48.3553 310.583L54.3315 314.398L53.8718 308.948L55.2509 304.587L58.4688 301.862L63.0659 300.772L65.8241 301.317L68.5824 302.407L70.8809 304.042L72.7197 306.768L74.0989 310.038L75.478 313.308L76.3974 317.123L76.8571 320.393H69.9615V328.023Z" fill="#F32737"/>
<path fill-rule="evenodd" clip-rule="evenodd" d="M85.1318 130.574H77.3168L75.9377 135.479L73.6391 138.75L70.4212 141.475L65.8241 142.02L70.4212 144.2L74.5586 145.29H77.7765L80.5347 143.655L82.3736 141.475L83.7527 138.75L84.6721 134.934L85.1318 130.574ZM95.705 130.574H88.8094L88.3497 132.754V134.934L87.89 137.115L87.4303 139.295L86.9706 141.475L86.5109 143.655V145.29L86.0512 147.47V150.195L86.5109 152.92L86.9706 155.1L87.4303 157.28L88.3497 159.46L89.2692 161.64L90.6483 163.82L92.4871 166L94.3259 163.82L95.705 161.64L96.6245 159.46L97.5439 157.28L98.0036 155.1L98.4633 152.92L98.923 150.195V147.47L98.4633 145.29V143.655L98.0036 141.475L97.5439 139.295L96.6245 137.115L96.1648 134.934V132.754L95.705 130.574ZM108.117 130.574H100.302L100.762 134.934L101.222 138.75L103.06 141.475L104.899 143.655L107.657 145.29H110.875L115.013 144.2L119.61 142.02L114.553 141.475L111.335 138.75L109.037 135.479L108.117 130.574ZM69.9615 127.304H115.472V119.674H108.577L109.496 115.859L110.416 112.589L111.795 108.774L113.174 106.049L115.013 103.324L117.311 101.689L119.61 100.599L122.828 100.054L127.425 101.144L130.643 103.869L132.022 108.229L131.102 113.679L137.079 109.864L140.756 106.049L143.514 101.689L144.434 96.7836V92.4234L143.514 88.6084L142.135 85.3383L139.837 83.1582L136.159 81.5232L130.643 80.9781L125.126 82.0682L118.69 84.7932L112.714 89.6984L107.198 96.7836L103.06 107.139L100.302 119.674H96.6245L97.5439 112.044L99.3827 104.414L100.762 97.3286L102.601 90.2434L103.98 83.7032L105.359 76.6181L106.278 70.0779L106.738 62.9927L106.278 58.0876L105.819 53.7275L104.439 49.9124L102.601 46.0973L100.302 42.8272L98.0036 39.5572L95.2453 36.2871L92.4871 33.562L89.7289 36.2871L86.9706 39.5572L84.6721 42.8272L82.3736 46.0973L80.5347 49.9124L79.1556 53.7275L78.6959 58.0876L78.2362 62.9927L78.6959 70.0779L79.6153 76.6181L80.9944 83.7032L82.3736 90.2434L84.2124 97.3286L85.5915 104.414L87.4303 112.044L88.3497 119.674H84.6721L82.3736 107.139L78.2362 96.7836L73.1794 89.6984L67.2033 84.7932L60.7674 81.5232L54.7912 80.9781L49.7344 81.5232L46.0568 83.1582L43.7582 85.3383L41.9194 88.6084L41 92.4234V96.7836L41.9194 101.689L44.6777 106.049L48.3553 109.864L54.3315 113.679L53.8718 108.229L55.2509 103.869L58.4688 101.144L63.0659 100.054L65.8241 100.599L68.5824 101.689L70.8809 103.324L72.7197 106.049L74.0988 109.319L75.478 112.589L76.3974 116.404L76.8571 119.674H69.9615V127.304Z" fill="white"/>
</g>
<defs>
<clipPath id="clip0_1_4603">
<rect width="600" height="400" fill="white"/>
</clipPath>
</defs>
</svg>
