<svg width="600" height="400" viewBox="0 0 600 400" fill="none" xmlns="http://www.w3.org/2000/svg" xmlns:cgf="https://coding.garden/flags"><metadata id="cgf-metadata">

<cgf:flag>
  <cgf:name>Bernheze</cgf:name>
  <cgf:route>nl/nb/bernheze</cgf:route>
  <cgf:aspect-ratio>1.5</cgf:aspect-ratio>
</cgf:flag>

</metadata><g clip-path="url(#clip0_1_4809)">
<path d="M200 0H0V400H200V0Z" fill="white"/>
<path d="M600 0H200V400H600V0Z" fill="#F32737"/>
<path d="M200 41.7582C230.769 75.989 231.257 162.829 228.571 182.418C262.866 138.229 300.031 149.42 315.495 200C222.971 131.53 280.22 334.598 212.732 332.892C208.791 351.648 206.593 356.044 200 361.758M277.802 107.692C268.132 116.044 257.853 131.576 257.56 152.481C249.602 155.385 240.319 161.538 234.022 169.231C234.725 161.064 234.167 145.275 233.626 135.809C243.956 120.879 259.341 107.692 277.802 107.692ZM200 0V200H600V0" fill="white"/>
<path d="M200 41.7582C169.231 75.989 168.743 162.829 171.429 182.418C137.134 138.229 99.9692 149.42 84.5055 200C177.029 131.53 119.78 334.598 187.268 332.892C191.209 351.648 193.407 356.044 200 361.758M122.198 107.692C131.868 116.044 142.147 131.576 142.44 152.481C150.398 155.385 159.681 161.538 165.978 169.231C165.275 161.064 165.833 145.275 166.374 135.809C156.044 120.879 140.659 107.692 122.198 107.692ZM200 0V200H-200V0" fill="#F32737"/>
</g>
<defs>
<clipPath id="clip0_1_4809">
<rect width="600" height="400" fill="white"/>
</clipPath>
</defs>
</svg>
