<svg width="600" height="400" viewBox="0 0 600 400" fill="none" xmlns="http://www.w3.org/2000/svg" xmlns:cgf="https://coding.garden/flags"><metadata id="cgf-metadata">

<cgf:flag>
  <cgf:name>Best</cgf:name>
  <cgf:route>nl/nb/best</cgf:route>
  <cgf:aspect-ratio>1.5</cgf:aspect-ratio>
</cgf:flag>

</metadata><g clip-path="url(#clip0_1_4814)">
<path d="M600 0H0V400H600V0Z" fill="#FCDD09"/>
<path d="M600 200H0V400H600V200Z" fill="black"/>
<path d="M200.531 199.69L299.498 58.8696L399.594 199.69L299.498 340.509L200.531 199.69Z" fill="#DA121A"/>
<path d="M242.66 184.591C260.993 187.448 281.015 188.6 285.84 184.46C291.321 179.756 291.32 149.324 284.702 133.87C287.866 135.874 289.497 138.317 299.336 138.408L304.392 195.27L299.336 299.917C295.166 298.885 288.093 301.029 284.702 303.921C290.635 272.181 290.651 212.751 281.799 207.469C279.642 206.182 262.05 204.952 241.33 208.884C246.775 202.738 246.223 194.252 242.66 184.591V184.591Z" fill="white"/>
<path d="M355.979 184.591C337.646 187.448 317.624 188.6 312.799 184.46C307.317 179.756 307.319 149.324 313.937 133.87C310.773 135.874 309.142 138.317 299.303 138.408L294.247 195.27L299.303 299.917C303.473 298.885 310.545 301.029 313.937 303.921C308.004 272.181 307.988 212.751 316.84 207.469C318.997 206.182 336.588 204.952 357.309 208.884C351.864 202.738 352.416 194.252 355.979 184.591V184.591Z" fill="white"/>
<path d="M335.146 180.148C330.558 179.374 326.471 176.315 324.528 172.2C322.735 168.402 322.699 163.942 324.433 160.254C325.913 157.103 327.506 155.582 330.242 154.709C331.72 154.236 333.829 154.431 335.142 155.162C335.381 155.295 335.592 155.382 335.609 155.357C335.636 155.331 335.712 154.804 335.797 154.186C335.992 152.775 336.387 151.496 336.977 150.354C337.417 149.503 337.462 149.463 338.066 149.374C338.413 149.323 338.876 149.281 339.095 149.281H339.493L338.932 149.966C338.624 150.343 338.163 151.117 337.908 151.686C337.456 152.697 336.79 155.309 336.943 155.473C336.983 155.519 337.403 155.392 337.873 155.192C339.136 154.655 340.188 154.454 341.699 154.461C344.445 154.473 346.984 155.649 348.996 157.838C351.077 160.104 352.198 164.028 351.784 167.6C351.415 170.776 350.288 173.271 348.163 175.613C344.877 179.235 339.939 180.956 335.147 180.148L335.146 180.148Z" fill="#FFFF00"/>
<path d="M261.973 180.681C257.384 179.908 253.297 176.849 251.355 172.734C249.561 168.936 249.526 164.476 251.259 160.788C252.74 157.637 254.333 156.116 257.069 155.242C258.546 154.77 260.656 154.965 261.969 155.695C262.208 155.829 262.418 155.916 262.436 155.89C262.463 155.865 262.538 155.338 262.623 154.72C262.819 153.309 263.213 152.03 263.804 150.888C264.243 150.037 264.288 149.997 264.893 149.907C265.24 149.856 265.703 149.814 265.922 149.814H266.32L265.759 150.5C265.45 150.876 264.99 151.651 264.735 152.22C264.283 153.231 263.617 155.843 263.769 156.007C263.81 156.052 264.23 155.926 264.7 155.726C265.963 155.189 267.015 154.988 268.526 154.995C271.272 155.009 273.811 156.183 275.822 158.372C277.904 160.638 279.025 164.562 278.61 168.134C278.241 171.31 277.114 173.804 274.989 176.147C271.704 179.769 266.765 181.489 261.973 180.681H261.973Z" fill="#FFFF00"/>
<path d="M297.362 129.159C292.774 128.385 288.687 125.326 286.744 121.211C284.951 117.414 284.915 112.954 286.648 109.265C288.129 106.114 289.722 104.594 292.458 103.72C293.936 103.248 296.045 103.443 297.358 104.173C297.597 104.306 297.807 104.394 297.825 104.368C297.852 104.342 297.928 103.815 298.012 103.197C298.208 101.786 298.603 100.507 299.193 99.3655C299.633 98.5146 299.677 98.474 300.282 98.3849C300.629 98.3339 301.092 98.292 301.311 98.292H301.709L301.148 98.9772C300.839 99.354 300.379 100.128 300.124 100.698C299.672 101.708 299.006 104.32 299.158 104.484C299.199 104.53 299.619 104.404 300.089 104.204C301.352 103.667 302.404 103.466 303.915 103.472C306.661 103.487 309.2 104.66 311.211 106.849C313.293 109.115 314.414 113.039 313.999 116.611C313.631 119.787 312.504 122.282 310.378 124.624C307.093 128.247 302.155 129.967 297.362 129.159H297.362Z" fill="#FFFF00"/>
</g>
<defs>
<clipPath id="clip0_1_4814">
<rect width="600" height="400" fill="white"/>
</clipPath>
</defs>
</svg>
