<svg width="600" height="400" viewBox="0 0 600 400" fill="none" xmlns="http://www.w3.org/2000/svg" xmlns:cgf="https://coding.garden/flags"><metadata id="cgf-metadata">

<cgf:flag>
  <cgf:name>Bladel</cgf:name>
  <cgf:route>nl/nb/bladel</cgf:route>
  <cgf:aspect-ratio>1.5</cgf:aspect-ratio>
</cgf:flag>

</metadata><g clip-path="url(#clip0_1_4824)">
<path d="M600 0H0V400H600V0Z" fill="#FF0000"/>
<path d="M461.04 0L600 200L461.04 400H300.92V0H461.04Z" fill="#FFFF00"/>
<path d="M360.74 0L499.69 200L360.74 400H200.61V0H360.74Z" fill="#FF0000"/>
<path d="M258.59 0L397.55 200L258.59 400H98.4658V0H258.59Z" fill="#FFFF00"/>
<path d="M160.12 0L299.08 200L160.12 400H0V0H160.12Z" fill="black"/>
<path d="M102.15 22.1201C96.1281 22.1201 96.4041 27.6501 97.5461 27.6501C97.5461 27.6501 92.0241 28.1881 92.0241 32.8341C92.0241 37.5621 95.7061 35.8251 95.7061 40.5531H82.8221V57.1431H73.6201V40.5531H42.3311V48.8481H50.6141V56.2211H42.3311V77.4201H55.2151V68.0881C54.9191 68.1491 54.6081 68.2031 54.2941 68.2031C51.7531 68.2031 49.6931 66.1401 49.6931 63.5951C49.6931 61.1691 51.5751 59.2261 53.9491 59.0441C53.8811 58.7281 53.8341 58.4031 53.8341 58.0651C53.8341 55.5201 55.8941 53.4561 58.4361 53.4561C60.9771 53.4561 63.0371 55.5201 63.0371 58.0651C63.0371 58.4031 62.9921 58.7281 62.9221 59.0441C65.2981 59.2261 67.1781 61.1691 67.1781 63.5951C67.1781 66.1401 65.1181 68.2031 62.5771 68.2031C62.2631 68.2031 61.9521 68.1491 61.6561 68.0881V77.4201H70.0541C69.9931 77.1241 69.9391 76.8121 69.9391 76.4981C69.9391 73.9521 71.9991 71.8901 74.5401 71.8901C76.9611 71.8901 78.9011 73.7741 79.0841 76.1521C79.4001 76.0841 79.7241 76.0371 80.0611 76.0371C82.6021 76.0371 84.6621 78.1001 84.6621 80.6451C84.6621 83.1911 82.6021 85.2541 80.0611 85.2541C79.7241 85.2541 79.4001 85.2081 79.0841 85.1381C78.9011 87.5181 76.9611 89.4011 74.5401 89.4011C71.9991 89.4011 69.9391 87.3381 69.9391 84.7931C69.9391 84.4791 69.9931 84.1671 70.0541 83.8711H61.6561V92.2811C61.9521 92.2201 62.2631 92.1661 62.5771 92.1661C65.1181 92.1661 67.1781 94.2291 67.1781 96.7741C67.1781 99.2001 65.2961 101.14 62.9221 101.32C62.9901 101.64 63.0371 101.97 63.0371 102.3C63.0371 104.85 60.9771 106.91 58.4361 106.91C55.8941 106.91 53.8341 104.85 53.8341 102.3C53.8341 101.97 53.8791 101.64 53.9491 101.32C51.5731 101.14 49.6931 99.2001 49.6931 96.7741C49.6931 94.2291 51.7531 92.1661 54.2941 92.1661C54.6081 92.1661 54.9191 92.2201 55.2151 92.2811V83.8711H42.3311V104.15H50.6141V111.52H42.3311V119.82H73.6201V105.07H82.8221V119.82H95.7061V266.82C90.4171 267.8 86.5031 270.94 86.5031 274.71C86.5031 276 86.9661 277.2 87.7681 278.28C84.7361 280.14 82.8221 282.79 82.8221 285.72C82.8221 286.33 82.8911 286.91 83.0521 287.5C80.9121 289.08 79.5051 291.1 79.1981 293.32C72.6641 295.28 68.0981 299.59 68.0981 304.61C68.0981 307.59 69.684 310.3 72.354 312.44C62.141 316.18 55.2151 323.36 55.2151 331.57C55.2151 341.71 65.7691 350.24 80.0611 352.71C79.4611 354.07 79.1411 355.48 79.1411 356.97C79.1411 365.21 89.7501 371.96 102.18 372.35L102.15 359.45C97.9291 359.23 93.8651 357.24 93.8651 354.84C93.8651 352.44 97.9291 350.44 102.15 350.23V341.94C87.7601 341.78 75.4601 337.3 75.4601 331.8C75.4601 326.3 87.7881 321.82 102.15 321.66V22.1201ZM85.5831 299.54C88.6321 299.54 91.104 302.02 91.104 305.07C91.104 308.12 88.6321 310.6 85.5831 310.6C82.5331 310.6 80.0611 308.12 80.0611 305.07C80.0611 302.02 82.5331 299.54 85.5831 299.54Z" fill="#FFFF00"/>
<path d="M102.18 22.1201C108.2 22.1201 107.92 27.6501 106.78 27.6501C106.78 27.6501 112.3 28.1881 112.3 32.8341C112.3 37.5621 108.62 35.8251 108.62 40.5531H121.5V57.1431H130.7V40.5531H161.99V48.8481H153.71V56.2211H161.99V77.4201H149.11V68.0881C149.4 68.1491 149.72 68.2031 150.03 68.2031C152.57 68.2031 154.63 66.1401 154.63 63.5951C154.63 61.1691 152.75 59.2261 150.37 59.0441C150.44 58.7281 150.49 58.4031 150.49 58.0651C150.49 55.5201 148.43 53.4561 145.89 53.4561C143.35 53.4561 141.29 55.5201 141.29 58.0651C141.29 58.4031 141.33 58.7281 141.4 59.0441C139.02 59.2261 137.14 61.1691 137.14 63.5951C137.14 66.1401 139.2 68.2031 141.75 68.2031C142.06 68.2031 142.37 68.1491 142.67 68.0881V77.4201H134.27C134.33 77.1241 134.38 76.8121 134.38 76.4981C134.38 73.9521 132.32 71.8901 129.78 71.8901C127.36 71.8901 125.42 73.7741 125.24 76.1521C124.92 76.0841 124.6 76.0371 124.26 76.0371C121.72 76.0371 119.66 78.1001 119.66 80.6451C119.66 83.1911 121.72 85.2541 124.26 85.2541C124.6 85.2541 124.92 85.2081 125.24 85.1381C125.42 87.5181 127.36 89.4011 129.78 89.4011C132.32 89.4011 134.38 87.3381 134.38 84.7931C134.38 84.4791 134.33 84.1671 134.27 83.8711H142.67V92.2811C142.37 92.2201 142.06 92.1661 141.75 92.1661C139.2 92.1661 137.14 94.2291 137.14 96.7741C137.14 99.2001 139.03 101.14 141.4 101.32C141.33 101.64 141.29 101.97 141.29 102.3C141.29 104.85 143.35 106.91 145.89 106.91C148.43 106.91 150.49 104.85 150.49 102.3C150.49 101.97 150.44 101.64 150.37 101.32C152.75 101.14 154.63 99.2001 154.63 96.7741C154.63 94.2291 152.57 92.1661 150.03 92.1661C149.72 92.1661 149.4 92.2201 149.11 92.2811V83.8711H161.99V104.15H153.71V111.52H161.99V119.82H130.7V105.07H121.5V119.82H108.62V266.82C113.91 267.8 117.82 270.94 117.82 274.71C117.82 276 117.36 277.2 116.56 278.28C119.59 280.14 121.5 282.79 121.5 285.72C121.5 286.33 121.43 286.91 121.27 287.5C123.41 289.08 124.82 291.1 125.12 293.32C131.66 295.28 136.22 299.59 136.22 304.61C136.22 307.59 134.64 310.3 131.97 312.44C142.18 316.18 149.11 323.36 149.11 331.57C149.11 341.71 138.55 350.24 124.26 352.71C124.86 354.07 125.18 355.48 125.18 356.97C125.18 365.21 114.57 371.96 102.15 372.35V359.45C106.36 359.23 110.46 357.24 110.46 354.84C110.46 352.44 106.36 350.44 102.15 350.23V341.94C116.53 341.78 128.86 337.3 128.86 331.8C128.86 326.3 116.54 321.82 102.18 321.66V22.1201ZM118.74 299.54C115.69 299.54 113.22 302.02 113.22 305.07C113.22 308.12 115.69 310.6 118.74 310.6C121.79 310.6 124.26 308.12 124.26 305.07C124.26 302.02 121.79 299.54 118.74 299.54Z" fill="white"/>
<path d="M89.4941 278.22C93.7881 276.88 109.62 277.12 114.22 278.22" stroke="#CCCCCC" stroke-width="1.8419"/>
<path d="M85.583 286.29C90.255 284.7 114.46 285.43 118.83 286.29" stroke="#CCCCCC" stroke-width="1.8419"/>
<path d="M81.6719 293.43C95.2069 292.21 108.74 292.51 122.28 293.43" stroke="#CCCCCC" stroke-width="1.8419"/>
<path d="M102.15 22.1631V321.66" stroke="#CCCCCC" stroke-width="1.8419"/>
<path d="M102.15 372.35V359.45" stroke="#CCCCCC" stroke-width="1.8419"/>
<path d="M102.15 350.23V341.94" stroke="#CCCCCC" stroke-width="1.8419"/>
</g>
<defs>
<clipPath id="clip0_1_4824">
<rect width="600" height="400" fill="white"/>
</clipPath>
</defs>
</svg>
