<svg width="600" height="400" viewBox="0 0 600 400" fill="none" xmlns="http://www.w3.org/2000/svg" xmlns:cgf="https://coding.garden/flags"><metadata id="cgf-metadata">

<cgf:flag>
  <cgf:name>Name</cgf:name>
  <cgf:route>nl/nb/boxtel</cgf:route>
  <cgf:aspect-ratio>1.5</cgf:aspect-ratio>
</cgf:flag>

</metadata><g clip-path="url(#clip0_1_4841)">
<path d="M-0.00945919 -0.0883789L-0.860352 401.607H604.132V-0.0883789H-0.00945919V-0.0883789Z" fill="white"/>
<path d="M1.10676 0.204102L0.255859 59.132H605.248V0.204102H1.10676V0.204102Z" fill="#D40000"/>
<path d="M1.10676 172.786L0.255859 231.714H605.248V172.786H1.10676V172.786Z" fill="#D40000"/>
<path d="M-0.0900223 342.971L-0.940918 401.899H604.051V342.971H-0.0900223V342.971Z" fill="#D40000"/>
<path d="M-0.964979 -0.650391L-1.26367 227.769H211.111V-0.650391H-0.964979V-0.650391Z" fill="#D40000"/>
<path d="M124.005 147.509H185.352V206.407H124.005V147.509Z" fill="white"/>
<path d="M20.6237 24.3119L147.815 167.332L140.233 174.095L13.0414 31.0757L20.6237 24.3119Z" fill="white"/>
<path d="M25.9921 44.4001L74.4849 99.6904L58.8849 114.513L10.3922 59.2228L25.9921 44.4001Z" fill="white"/>
<path d="M25.2007 54.6415L64.415 99.1006L58.232 104.571L19.0176 60.1119L25.2007 54.6415Z" fill="#D40000"/>
<path d="M28.5361 88.2189L47.2661 70.1304L52.9927 76.0783L34.2627 94.1668L28.5361 88.2189Z" fill="#D40000"/>
<path d="M133.836 156.159H177.514V198.705H133.836V156.159Z" fill="#D40000"/>
<path d="M87.7048 147.403H26.3584V206.302H87.7048V147.403Z" fill="#FFC700"/>
<path d="M191.087 24.2068L63.8955 167.227L71.4778 173.99L198.669 30.9707L191.087 24.2068Z" fill="#FFC700"/>
<path d="M185.718 44.2947L137.225 99.585L152.825 114.408L201.318 59.1173L185.718 44.2947Z" fill="#FFC700"/>
<path d="M186.51 54.536L147.295 98.9951L153.478 104.466L192.693 60.0064L186.51 54.536Z" fill="#D40000"/>
<path d="M183.174 88.1134L164.444 70.0249L158.718 75.9728L177.448 94.0614L183.174 88.1134Z" fill="#D40000"/>
<path d="M77.8744 156.054H34.1968V198.6H77.8744V156.054Z" fill="#D40000"/>
<path d="M136.02 100.212L144.059 98.5172L158.549 80.1909L158.866 73.5172L166.376 68.9621L186.366 46.2926L186.155 42.6909L179.174 45.657L136.337 96.0807L136.02 100.212V100.212Z" fill="#FFC700"/>
<path d="M75.7316 100.375L67.6931 98.6803L53.2027 80.354L52.8854 73.6803L45.3757 69.1252L25.3853 46.4557L25.5968 42.854L32.5776 45.8201L75.4143 96.2438L75.7316 100.375V100.375Z" fill="white"/>
</g>
<defs>
<clipPath id="clip0_1_4841">
<rect width="600" height="400" fill="white"/>
</clipPath>
</defs>
</svg>
