<svg width="600" height="400" viewBox="0 0 600 400" fill="none" xmlns="http://www.w3.org/2000/svg" xmlns:cgf="https://coding.garden/flags"><metadata id="cgf-metadata">

<cgf:flag>
  <cgf:name>Cranendonck</cgf:name>
  <cgf:route>nl/nb/cranendonck</cgf:route>
  <cgf:aspect-ratio>1.5</cgf:aspect-ratio>
</cgf:flag>

</metadata><g clip-path="url(#clip0_1_4872)">
<path d="M198.239 0.361328L199.175 201.059H603.778L603.466 0.982683L198.239 0.361328Z" fill="white"/>
<path d="M199.255 201.031L200.191 401.729H604.795L604.483 201.653L199.255 201.031Z" fill="#D90D15"/>
<path d="M-3.56201 -0.386719L-3.09381 201.048H199.324L199.168 0.236919L-3.562 -0.386719H-3.56201Z" fill="#D90D15"/>
<path d="M-3.39051 200.406L-2.92231 401.841H199.495L199.339 201.03L-3.39062 200.406H-3.39051Z" fill="#F9F9F9"/>
<path d="M199.015 200.546L199.897 89.6067L195.706 126.294C194.769 113.688 194.658 100.992 188.647 88.9477L186 128.051C184.799 113.979 184.421 99.7026 178.721 86.7508V129.809C176.494 109.278 169.806 92.301 161.736 76.4258L172.103 134.642L172.324 185.168C172.383 190.294 174.178 195.42 177.177 200.546H199.015H199.015V200.546Z" fill="white"/>
<path d="M199.346 200.656L199.015 274.359C194.307 272.687 189.199 273.002 183.905 274.249C155.355 282.064 135.762 280.569 120.707 274.359L110.671 273.81C102.793 277.174 94.9161 280.44 87.0388 274.074L72.689 273.919V271.899L84.6992 269.258C92.2656 258.861 103.325 262.877 114.959 269.258L129.62 269.103C151.525 261.463 175.596 249.866 194.351 247.977L177.232 200.546L199.346 200.656V200.656Z" fill="#D90D15"/>
<path d="M199.456 200.765L308.866 200.546L309.307 164.737C315.413 159.781 318.549 153.134 320.557 145.845L307.763 155.291C310.999 147.692 316.838 140.669 315.263 132.005L305.337 142.33C307.881 136.398 311.409 130.467 310.631 124.536L299.16 135.52C302.607 129.149 305.718 122.778 305.116 116.407C300.101 119.159 295.579 122.814 292.322 128.49L292.102 105.863C288.425 112.453 286.513 119.629 286.366 127.391C283.473 121.652 281.436 114.889 275.778 112.453L264.087 160.783V117.066C258.602 123.984 257.427 132.332 255.264 140.353L254.602 104.545L248.205 130.467L245.999 91.8029C240.598 104.984 238.735 118.165 237.397 131.346C237.688 117.066 236.873 102.787 233.647 88.5077L229.014 132.005L225.706 92.9014C221.583 105.936 220.592 118.97 219.309 132.005L217.985 92.0226C214.487 99.8127 212.52 108.474 213.132 118.604L210.044 88.0684C206.405 100.737 206.784 113.405 206.515 126.073C204.771 114.137 204.145 102.201 199.677 90.2652L199.456 200.765H199.456V200.765Z" fill="#D90D15"/>
<path d="M199.456 200.766L199.235 274.14C222.766 278.937 247.319 288.393 266.955 275.458L290.337 277.435C308.41 291.067 318.648 290.802 317.91 271.064C302.229 262.547 287.399 265.027 272.249 263.375L272.69 261.837L304.013 262.496L332.027 273.48L400.629 272.821C407.209 276.042 413.384 276.028 419.379 274.579V263.814C413.014 264.575 406.6 265.255 401.952 268.867L332.027 269.746L307.322 258.762L272.911 258.542V254.588C283.999 255.036 291.911 252.772 306.66 256.345L318.351 262.277L318.792 258.981C312.142 256.35 307.754 253.397 297.395 251.292L272.911 251.732V249.315H299.16L325.63 259.201L397.761 254.807C404.085 257.478 410.408 256.669 416.732 256.565V246.46C409.158 246.438 401.585 246.632 394.011 250.633L325.189 255.906L299.16 246.02H273.131V244.263H303.572L318.13 249.315C320.067 240.07 313.336 237.299 303.572 236.793L286.587 236.134V234.597C308.881 230.154 308.984 215.51 308.866 200.766L273.131 200.985C273.704 211.858 274.154 222.715 279.307 234.157H275.558C271.625 223.027 271.199 211.896 270.705 200.766H199.456H199.456V200.766Z" fill="white"/>
</g>
<defs>
<clipPath id="clip0_1_4872">
<rect width="600" height="400" fill="white"/>
</clipPath>
</defs>
</svg>
