<svg width="600" height="400" viewBox="0 0 600 400" fill="none" xmlns="http://www.w3.org/2000/svg" xmlns:cgf="https://coding.garden/flags"><metadata id="cgf-metadata">

<cgf:flag>
  <cgf:name>Deurne</cgf:name>
  <cgf:route>nl/nb/deurne</cgf:route>
  <cgf:aspect-ratio>1.5</cgf:aspect-ratio>
</cgf:flag>

</metadata><g clip-path="url(#clip0_1_4881)">
<path d="M0 128V264H600V128H0V128Z" fill="#FFDF00"/>
<path d="M0 0V128H600V0H0V0Z" fill="#D40000"/>
<path d="M326.5 138.295L321.645 142.475L326.624 146.498L321.645 150.677L326.313 154.596L331.542 150.207L337.081 154.857L341.625 150.938L336.085 146.289L341.065 142.266L336.21 138.19L331.168 142.266L326.5 138.295V138.295Z" fill="#D40000"/>
<path d="M299.456 138.008L294.601 142.187L299.58 146.21L294.601 150.39L299.269 154.309L304.497 149.92L310.037 154.57L314.581 150.651L309.041 146.001L314.02 141.979L309.165 137.903L304.124 141.979L299.456 138.008V138.008Z" fill="#D40000"/>
<path d="M272.566 138.008L267.711 142.187L272.691 146.21L267.711 150.39L272.38 154.309L277.608 149.92L283.148 154.57L287.691 150.651L282.152 146.001L287.131 141.979L282.276 137.903L277.235 141.979L272.566 138.008V138.008Z" fill="#D40000"/>
<path d="M0 264V400H600V264H0V264Z" fill="black"/>
<path d="M256.971 136.295L256.409 211.99L256.373 216.893C261.889 276.175 348.519 271.193 353.6 216.593L353.899 135.695L256.971 136.295H256.971V136.295Z" stroke="black"/>
<path d="M353.613 156.929H257.025V166.8H353.613V156.929Z" fill="black"/>
<path d="M353.824 189.132H257.237V199.003H353.824V189.132Z" fill="black"/>
<path d="M256.453 219.386L353.444 219.492C352.737 223.023 352.47 226.978 350.165 230.509L259.415 230.509C257.82 226.801 256.921 223.093 256.453 219.386V219.386Z" fill="black"/>
<path d="M255.924 205.402L353.973 205.19" stroke="black"/>
<path d="M255.977 212.606L354.026 212.395" stroke="black"/>
<path d="M256.718 181.886L354.766 181.674" stroke="black"/>
<path d="M255.977 174.047L354.026 173.835" stroke="black"/>
<path d="M262.416 237.195L347.269 236.957" stroke="black" stroke-width="0.985857"/>
<path d="M267.269 244.306L341.465 244.042" stroke="black" stroke-width="0.971566"/>
<path d="M275.174 251.483L333.03 251.589C324.855 256.592 315.151 259.298 304.155 260.064C293.331 259.536 283.464 257.089 275.174 251.483V251.483V251.483Z" fill="black"/>
</g>
<defs>
<clipPath id="clip0_1_4881">
<rect width="600" height="400" fill="white"/>
</clipPath>
</defs>
</svg>
