<svg width="600" height="400" viewBox="0 0 600 400" fill="none" xmlns="http://www.w3.org/2000/svg" xmlns:cgf="https://coding.garden/flags"><metadata id="cgf-metadata">

<cgf:flag>
  <cgf:name>Drimmelen</cgf:name>
  <cgf:route>nl/nb/drimmelen</cgf:route>
  <cgf:aspect-ratio>1.5</cgf:aspect-ratio>
</cgf:flag>

</metadata><g clip-path="url(#clip0_1_4933)">
<path d="M-0.00945919 -0.0878906L-0.860352 401.607H604.132V-0.0878906H-0.00945919V-0.0878906Z" fill="white"/>
<path d="M299.808 146.126C303.425 140.733 301.003 135.34 299.206 129.947C295.596 123.555 295.997 117.163 300.41 110.771C305.554 103.98 306.897 97.1882 304.02 90.3968C299.055 79.0526 304.229 69.3914 313.647 60.4347C322.871 52.5008 328.985 35.3175 325.079 25.0793C318.968 9.14363 318.891 5.03756 319.062 -0.0888672L402.094 0.510376C386.78 11.6801 366.27 17.3702 363.586 41.8581C363.883 52.6023 361.752 62.6351 348.544 69.4233C341.159 72.8629 334.053 76.5047 335.307 86.2021C334.404 94.4916 332.289 102.452 322.672 108.374C311.511 111.475 306.758 119.256 307.63 131.145C312.177 125.074 313.699 117.194 325.68 115.565C333.589 115.241 341.372 114.447 346.137 102.382C348.319 92.3783 360.077 82.1147 369.001 83.2059C383.112 85.3065 394.384 73.8342 404.5 56.8392C410.777 40.1883 426.556 34.3608 440.601 33.4687C465.266 32.4832 479.506 20.6642 485.727 0.510376L605.461 -0.0888672V46.0528C585.116 45.2309 565.172 45.1182 551.912 56.8392C539.779 69.3788 525.073 78.3701 502.574 76.6142C484.739 74.1375 468.137 74.2526 457.448 86.8014C444.382 98.8211 430.958 108.886 414.729 103.58C401.321 99.76 389.246 103.911 377.425 109.573C357.103 128.63 354.453 121.874 344.934 125.153C319.132 124.843 317.799 133.11 313.647 137.138C322.583 135.904 326.138 131.544 343.731 135.34C357.308 140.737 367.851 136.244 372.611 134.142C386.951 123.858 400.577 125.662 414.127 128.748C428.367 134.962 442.607 130.37 456.846 123.954C479.404 106.422 504.907 107.668 531.455 115.565C564.642 130.073 581.336 125.001 605.461 119.16V185.676C586.207 187.565 566.954 193.862 547.7 181.482C531.346 169.906 514.413 159.993 491.744 166.501C475.539 170.379 459.336 174.262 439.999 164.104C423.747 154.201 407.917 151.036 392.467 153.917C374.58 160.782 360.216 160.628 350.349 151.52C336.105 142.378 318.859 141.705 299.808 146.126V146.126Z" fill="#106B9C"/>
<path d="M184.887 119.76C208.34 252.54 392.66 300.422 536.87 288.746L606.063 265.975V221.032C585.405 228.956 564.146 230.651 543.488 221.032C524.836 208.273 506.184 200.561 487.532 208.448C466.784 215.726 442.624 211.347 432.177 203.055C416.734 186.329 401.291 185.859 385.848 188.074C370.004 189.876 354.16 187.844 338.315 178.486C325.48 168.636 312.644 168.166 299.808 165.902C266.78 167.839 259.012 152.36 245.657 140.733C228.53 114.952 207.75 118.213 184.887 119.76V119.76Z" fill="#B1D6B2"/>
<path d="M606.063 264.477L591.623 267.773L553.717 248.298L561.539 275.563L537.472 288.747L574.174 300.132L592.525 330.094L605.762 311.218L606.063 264.477V264.477Z" fill="#319C31"/>
<path d="M441.836 297.246L443.325 319.492L420.989 324.365L448.856 338.983L456.94 364.407L472.256 349.365L500.761 360.382L482.892 336.653L491.402 319.068L465.236 318.644L441.836 297.246Z" fill="#319C31"/>
<path d="M335.007 307.323L317.558 318.709L291.385 316.012L304.622 330.394L292.588 342.679L318.46 339.982L335.307 351.368L339.519 335.488L361.781 330.094L338.015 323.203L335.007 307.323V307.323Z" fill="#319C31"/>
<path d="M214.671 274.664L200.23 282.754L180.676 274.964L186.693 288.147L175.862 297.136L195.718 299.233L205.645 311.518L211.963 299.533L230.615 298.634L215.272 289.046L214.671 274.664V274.664Z" fill="#319C31"/>
<path d="M126.825 225.226L114.792 228.822L99.1482 219.833L103.059 231.219C103.059 231.219 89.8222 237.211 91.0256 237.211C92.2289 237.211 107.271 239.308 107.271 239.308L114.491 253.99L121.41 243.503L136.152 246.499L123.817 235.713L126.825 225.226V225.226Z" fill="#319C31"/>
<path d="M45.5283 160.275L45.4219 169.703L35.9556 171.716L48.8255 178.814L51.0591 189.301L58.1854 182.309L68.8217 186.123L62.0145 176.695L65.4181 169.491L54.8882 169.809L45.5282 160.275H45.5283Z" fill="#319C31"/>
</g>
<defs>
<clipPath id="clip0_1_4933">
<rect width="600" height="400" fill="white"/>
</clipPath>
</defs>
</svg>
