<svg width="600" height="400" viewBox="0 0 600 400" fill="none" xmlns="http://www.w3.org/2000/svg" xmlns:cgf="https://coding.garden/flags"><metadata id="cgf-metadata">

<cgf:flag>
  <cgf:name>Eersel</cgf:name>
  <cgf:route>nl/nb/eersel</cgf:route>
  <cgf:aspect-ratio>1.5</cgf:aspect-ratio>
</cgf:flag>

</metadata><g clip-path="url(#clip0_1_4946)">
<rect width="600" height="400" fill="white"/>
<path d="M0 117L600 118V400H0V117Z" fill="black"/>
<rect y="145" width="600" height="10" fill="#FCDD09"/>
<rect y="229" width="600" height="10" fill="#FCDD09"/>
<rect y="313" width="600" height="10" fill="#FCDD09"/>
<rect y="167" width="600" height="10" fill="#FCDD09"/>
<rect y="251" width="600" height="10" fill="#FCDD09"/>
<rect y="335" width="600" height="10" fill="#FCDD09"/>
<rect y="190" width="600" height="10" fill="#FCDD09"/>
<rect y="274" width="600" height="10" fill="#FCDD09"/>
<rect y="358" width="600" height="10" fill="#FCDD09"/>
<path d="M130.259 74.1482C127.349 76.602 125.621 79.5897 129.345 85.0388C130.177 82.1355 131.316 79.4358 135.742 78.9128C136.206 82.8455 136.238 86.7782 139.626 90.7109C140.634 85.2834 145.135 83.3249 150.364 82.0892C152.657 85.3372 155.253 88.4345 165.899 87.5345C162.285 84.1261 160.984 80.4305 162.244 76.4171C167.118 81.2854 171.992 78.8361 176.866 76.644C172.51 73.6741 171.971 69.441 171.154 65.2997C173.972 65.185 176.789 67.6127 179.607 63.7115C173.429 59.9596 174.579 55.298 172.753 51.0059" stroke="#FAFAFA"/>
<path d="M119.978 90.4834C116.399 92.7279 112.82 93.074 109.241 90.4834C112.935 99.1909 116.803 107.602 133.001 95.0211C132.639 98.7269 131.978 102.433 126.832 106.139C134.789 106.96 136.698 103.277 140.083 100.693C142.394 105.48 141.219 110.652 153.791 114.306C152.147 109.291 153.914 104.953 158.36 101.147C161.441 104.138 165.447 106.209 165.671 112.038C169.361 107.954 171.956 103.87 173.21 99.7857C175.376 103.21 181.91 105.927 185.903 106.327" stroke="#F8F8F8"/>
<path d="M183.034 23.7787C182.654 23.7787 182.273 23.7787 181.892 23.7787C181.816 23.7787 181.74 23.7787 181.664 23.7787C181.587 23.7787 181.503 23.7449 181.435 23.7787C181.339 23.8266 181.303 23.9578 181.207 24.0056C181.138 24.0393 181.054 24.0056 180.978 24.0056C180.902 24.0056 180.826 24.0056 180.75 24.0056C180.674 24.0056 180.575 23.952 180.521 24.0056C180.467 24.0591 180.555 24.1647 180.521 24.2324C180.473 24.3281 180.341 24.3637 180.293 24.4593C180.259 24.527 180.347 24.6327 180.293 24.6862C180.239 24.7398 180.118 24.6327 180.064 24.6862C180.01 24.7398 180.098 24.8454 180.064 24.9131C180.016 25.0088 179.884 25.0443 179.836 25.14C179.802 25.2077 179.87 25.2992 179.836 25.3669C179.74 25.5582 179.475 25.6293 179.379 25.8207C179.345 25.8884 179.413 25.9798 179.379 26.0475C179.331 26.1432 179.199 26.1788 179.151 26.2744C179.117 26.3421 179.151 26.4256 179.151 26.5013C179.074 26.577 178.97 26.6325 178.922 26.7282C178.888 26.7959 178.976 26.9015 178.922 26.9551C178.868 27.0086 178.747 26.9015 178.694 26.9551C178.64 27.0086 178.728 27.1143 178.694 27.182C178.646 27.2776 178.541 27.3332 178.465 27.4089C178.389 27.4845 178.333 27.588 178.237 27.6357C178.168 27.6695 178.062 27.5822 178.008 27.6357C177.954 27.6893 178.062 27.8091 178.008 27.8626C177.954 27.9162 177.856 27.8626 177.78 27.8626C177.704 27.8626 177.551 27.9383 177.551 27.8626C177.551 27.7869 177.704 27.8626 177.78 27.8626" stroke="#FBFBFB"/>
<path d="M154.32 28.2295L158.278 28.3899L158.197 32.2403" stroke="#FAFAFA"/>
<path d="M153.674 29.9941H156.986" stroke="black"/>
<path d="M150.92 26.5801C152.436 32.2952 155.669 33.3266 162.629 32.2522C156.775 37.3114 142.298 28.68 150.92 26.5801V26.5801Z" fill="#DA121A"/>
<path fill-rule="evenodd" clip-rule="evenodd" d="M155.754 28.6966C155.754 28.8097 155.732 28.9217 155.69 29.0262C155.647 29.1308 155.585 29.2257 155.506 29.3058C155.428 29.3858 155.334 29.4492 155.232 29.4926C155.129 29.5359 155.019 29.5582 154.908 29.5582C154.796 29.5582 154.686 29.5359 154.583 29.4926C154.481 29.4492 154.387 29.3858 154.309 29.3058C154.23 29.2257 154.168 29.1308 154.125 29.0262C154.083 28.9217 154.061 28.8097 154.061 28.6966C154.061 28.5834 154.083 28.4714 154.125 28.3669C154.168 28.2624 154.23 28.1674 154.309 28.0874C154.387 28.0073 154.481 27.9439 154.583 27.9006C154.686 27.8573 154.796 27.835 154.908 27.835C155.019 27.835 155.129 27.8573 155.232 27.9006C155.334 27.9439 155.428 28.0073 155.506 28.0874C155.585 28.1674 155.647 28.2624 155.69 28.3669C155.732 28.4714 155.754 28.5834 155.754 28.6966Z" fill="white"/>
<path d="M141.532 113.728C139.36 111.72 137.575 110.056 137.566 110.03C137.557 110.004 137.84 109.837 138.195 109.658C138.983 109.263 139.882 108.612 140.528 107.97L141.011 107.49L142.475 108.921C146.438 112.793 148.844 114.352 152.704 115.546C153.267 115.72 153.737 115.854 153.748 115.844C153.759 115.835 153.697 115.192 153.61 114.419C153.426 112.79 153.392 110.611 153.533 109.55C153.892 106.847 155.056 104.716 156.969 103.259C157.238 103.054 157.465 102.891 157.473 102.899C157.48 102.906 157.653 103.334 157.856 103.85C159.329 107.582 161.706 109.965 165.24 111.254C167.018 111.902 169.078 112.256 171.898 112.399C173.474 112.478 176.824 112.497 176.824 112.426C176.824 112.401 176.543 112.035 176.2 111.614C174.168 109.125 173.287 107.17 173.024 104.571C172.934 103.676 172.921 102.756 172.995 102.351L173.044 102.079L173.291 102.25C174.762 103.27 176.804 104.417 178.448 105.147C180.302 105.97 181.531 106.348 183.234 106.617L183.982 106.736L186.302 111.787C187.579 114.565 188.676 116.96 188.742 117.108L188.86 117.379H167.17H145.481L141.532 113.728L141.532 113.728ZM232.34 117.145C232.341 116.001 232.658 113.741 232.976 112.608C233.438 110.959 234.366 109.084 235.328 107.858C237.814 104.69 241.811 102.605 247.347 101.586C249.587 101.175 251.495 101.014 255.159 100.928C258.29 100.855 259.077 100.8 260.478 100.561C265.804 99.6518 268.595 96.35 268.614 90.9361L268.618 89.9952L268.94 90.32C269.118 90.4986 269.524 91.0018 269.843 91.4384C272.707 95.3563 273.099 100.362 270.871 104.587C269.067 108.009 265.718 110.488 261.486 111.534C260.244 111.841 259.139 112.004 257.088 112.181C252.232 112.599 249.227 113.325 247.237 114.56C246.248 115.175 245.48 116.155 245.359 116.959C245.315 117.247 245.329 117.298 245.457 117.328C245.538 117.347 242.62 117.366 238.972 117.371L232.34 117.38V117.145L232.34 117.145ZM126.799 114.907C126.785 113.737 126.631 113.065 126.19 112.22C125.727 111.334 125.031 110.713 123.962 110.232C123.148 109.865 122.296 109.684 121.128 109.629C118.073 109.485 115.079 108.739 111.013 107.11C109.266 106.41 106.674 105.274 105.608 104.741C102.743 103.31 98.9446 101.839 95.8848 100.976C92.455 100.007 88.3212 99.1932 84.4158 98.7171L83.3584 98.5882L81.6919 97.0157C80.5391 95.9278 79.9731 95.4432 79.8556 95.4432H79.6857L79.8609 96.9044C80.2675 100.294 80.2749 101.775 79.8907 102.88C79.6593 103.546 79.3755 103.88 78.8231 104.137C78.3883 104.34 78.3019 104.354 77.5472 104.345L76.7377 104.336L76.605 104.767C76.4086 105.405 75.8181 106.656 75.4032 107.314C74.88 108.143 74.3643 108.756 73.6999 109.339C72.4864 110.403 71.4614 110.851 70.0107 110.949C68.8897 111.026 67.6707 110.814 66.7479 110.382L66.4664 110.25L66.9326 110.062C68.9886 109.234 70.677 107.219 71.3794 104.757C71.4867 104.381 71.5744 104.055 71.5743 104.034C71.5743 104.012 71.0665 103.994 70.4458 103.994C69.4382 103.994 69.2751 103.976 68.9215 103.828C68.4044 103.612 68.0643 103.304 67.8378 102.848C67.6706 102.512 67.6547 102.38 67.6584 101.361C67.6639 99.9966 67.821 99.2583 68.6829 96.5692C69.002 95.5732 69.2525 94.7481 69.2393 94.7358C69.2046 94.7031 66.9332 95.3334 65.9122 95.6588C65.433 95.8116 63.8828 96.3412 62.4672 96.836C57.7138 98.4973 56.0895 98.9055 54.2278 98.9068C52.5788 98.9068 51.6118 98.4875 50.8446 97.4359C50.4911 96.9514 49.9566 95.7244 49.9552 95.3939C49.9552 95.307 49.9234 95.2184 49.8854 95.1969C49.7633 95.1281 48.4717 95.5682 47.6585 95.9556C46.1204 96.6885 44.9585 97.7228 44.2707 98.9713L43.8976 99.6486L43.6849 99.2238C43.2769 98.4092 43.1123 97.7196 43.1099 96.8147C43.1081 95.9044 43.2641 95.2892 43.697 94.5078C44.1884 93.6208 45.1831 92.6428 46.3156 91.9332C46.9393 91.5424 48.3725 90.8645 49.0437 90.6429C49.2615 90.571 49.479 90.4853 49.5271 90.4524C49.5751 90.4195 49.6364 90.1572 49.6634 89.8695C49.814 88.2611 50.5227 86.9804 51.6176 86.3383C52.3322 85.9193 52.9248 85.8103 54.4686 85.8139C55.8348 85.8176 56.477 85.8822 59.3786 86.311C59.7489 86.3659 60.0582 86.4051 60.0662 86.3982C60.0735 86.3909 60.1525 86.1491 60.2405 85.8597L60.4005 85.3335L60.0282 85.188C59.4122 84.9472 58.4845 84.7751 56.5672 84.5457C55.5654 84.4259 54.4785 84.2616 54.1518 84.1807C52.9713 83.8882 52.1705 83.3858 51.7424 82.6691C51.4584 82.1938 51.2216 81.3056 51.2216 80.7163C51.2216 80.4471 51.1927 80.2107 51.1573 80.1908C51.1219 80.1708 50.6833 80.1222 50.1826 80.0826C47.813 79.8951 45.588 80.4609 44.0941 81.6307L43.6585 81.9718L43.635 81.4858C43.6047 80.8612 43.7806 80.0185 44.0866 79.322C44.7114 77.9004 45.9518 76.8747 47.7573 76.2867C48.9242 75.9068 49.6519 75.8009 51.2983 75.7716L52.7609 75.7457L53.199 75.4479C54.0912 74.8414 54.9483 74.6297 56.2901 74.6847C57.3122 74.7266 58.0635 74.8863 59.0535 75.2724C61.6569 76.2877 63.8959 78.2889 65.2736 80.8319C65.5961 81.4272 65.9175 82.0804 65.9879 82.2834C66.2638 83.0792 68.2968 84.5368 70.3854 85.4363C73.2621 86.6752 76.3822 87.1374 81.276 87.0497C84.0085 87.0009 84.6971 86.9486 90.9377 86.3186C96.0463 85.8029 96.7589 85.7376 98.4392 85.6315C99.0805 85.591 99.9002 85.4955 100.261 85.4192C101.675 85.1201 103.444 84.8624 105.312 84.6833C105.826 84.634 107.376 84.5949 108.875 84.5935C111.711 84.5899 112.648 84.6554 115.132 85.0249C116.487 85.2265 116.952 85.379 118.973 86.2846C124.977 88.9754 129.218 92.3576 131.138 95.985C132.614 98.7717 132.495 101.29 130.812 102.901C129.671 103.994 128.213 104.515 125.922 104.647C125.247 104.686 125.031 104.723 125.031 104.798C125.031 104.856 124.947 104.897 124.825 104.897C124.508 104.897 124.086 105.11 123.958 105.336C123.809 105.598 123.812 105.987 123.966 106.321C124.327 107.108 126.3 109.017 127.131 109.383C127.822 109.688 128.189 109.938 128.569 110.362C129.684 111.609 129.223 113.483 127.299 115.527C127.087 115.752 126.891 115.937 126.864 115.936C126.836 115.936 126.808 115.474 126.8 114.908L126.799 114.907ZM151.482 113.885C148.59 112.734 146.676 111.329 142.747 107.47C141.704 106.445 140.823 105.634 140.791 105.666C140.759 105.699 140.543 105.985 140.312 106.303C138.935 108.189 136.718 109.391 134.107 109.667C132.552 109.832 130.848 109.524 129.585 108.85C128.58 108.314 127.347 107.023 126.897 106.039L126.777 105.774L127.349 105.691C131.123 105.141 133.425 102.846 133.425 99.6331C133.425 94.3001 127.466 88.4304 118.26 84.6952C117.563 84.4125 116.879 84.1352 116.74 84.0791L116.488 83.9769L116.865 83.0896C117.928 80.587 119.126 78.2888 120.123 76.8388C121.275 75.164 122.971 73.3801 124.437 72.3023C129.104 68.8708 135.658 67.3307 145.035 67.4627L147.656 67.4996L148.31 67.0034C150.757 65.1473 153.109 64.2042 156.116 63.8727C157.523 63.7177 158.234 63.5509 158.95 63.2087C159.749 62.8264 160.345 62.2613 160.736 61.5149C161.019 60.9759 161.381 59.8875 161.381 59.5778C161.381 59.4994 161.21 59.3919 160.886 59.2666C160.614 59.1614 160.356 59.0773 160.312 59.08C160.268 59.0836 160.037 59.3311 159.797 59.6324C159.077 60.5375 158.116 61.1643 157.046 61.4254C156.436 61.5742 154.947 61.5731 154.174 61.4237C152.195 61.0404 149.916 60.1359 145.978 58.1706L144.61 57.4883H143.512H142.414L140.717 58.1011C139.784 58.438 138.978 58.7138 138.926 58.7138C138.737 58.7138 138.665 57.5863 138.815 56.9903C139.237 55.3245 141.017 54.3885 144.513 53.9953C145.74 53.8572 149.374 53.631 150.019 53.6525C150.622 53.6727 150.992 53.5353 151.443 53.1242C152.111 52.5161 152.621 51.284 152.82 49.8023C153.139 47.4169 152.525 44.8212 151.214 43.0213C149.953 41.2892 148.14 40.2267 145.773 39.8328C144.779 39.6675 142.87 39.6705 141.723 39.8401L140.874 39.965L138.912 40.9564C137.833 41.5017 136.814 42.033 136.649 42.1369C136.232 42.3983 135.608 42.5071 135.057 42.4142C133.615 42.1713 132.186 40.758 131.567 38.9614C130.819 36.7922 131.26 34.7087 132.882 32.7484L133.261 32.2903L132.832 31.8063C132.23 31.1273 131.865 30.5487 131.754 30.0984C131.673 29.7674 131.678 29.6667 131.795 29.3896C132.221 28.3727 134.095 27.6865 137.543 27.2848C138.858 27.1318 143.673 27.0643 145.502 27.1735C146.243 27.2176 147.187 27.2742 147.601 27.2989L148.353 27.3441L148.512 26.9226C148.725 26.3557 149.098 26.1006 150.15 25.8028L150.946 25.5775L150.877 25.0626C150.638 23.2704 151.024 21.6168 152.002 20.2382C153.095 18.6993 154.887 17.7297 157.382 17.3277C157.952 17.2359 158.584 17.2005 159.639 17.2012C161.257 17.2029 162.181 17.2989 164.351 17.6929C166.166 18.0227 167.391 18.1185 168.542 18.0208C170.837 17.8263 172.462 16.9935 173.229 15.6194C173.453 15.2182 173.656 14.55 173.656 14.2139C173.656 14.0669 173.695 13.9766 173.759 13.9766C173.934 13.9766 174.878 14.7311 175.193 15.1225C175.912 16.0141 176.153 16.7281 176.145 17.9452C176.136 19.3423 175.802 20.2669 174.989 21.1416C174.723 21.4275 174.293 21.9535 174.034 22.3105L173.563 22.9595L173.946 23.2655C174.537 23.7378 174.572 23.7359 175.097 23.2047C175.348 22.9511 175.741 22.4683 175.97 22.1317C176.472 21.3974 177.028 20.888 177.933 20.3361C179.71 19.2512 181.919 18.5957 184.902 18.2677C185.534 18.1984 186.927 18.1337 188.309 18.1101L190.647 18.07L191.062 18.9116C192.334 21.4963 192.877 23.9386 192.664 26.1103C192.398 28.8193 191.215 31.0732 188.791 33.494L188.069 34.2146L188.5 34.6071L188.931 34.9997L189.38 34.6443C190.839 33.4893 191.767 33.0717 192.861 33.0772C194.226 33.0845 195.265 33.8863 196.198 35.6554C196.874 36.9351 198.221 37.5577 199.657 37.2533C200.205 37.1371 201.124 36.774 201.592 36.4882L201.849 36.3312L201.858 37.0779C201.889 39.6416 201.521 41.1132 200.513 42.466C199.527 43.7887 198.403 44.5391 194.924 46.1958L193.74 46.7598L194.978 47.0656C196.423 47.4225 196.863 47.6204 197.444 48.1758C198.445 49.132 198.765 50.2821 198.757 52.9056C198.753 54.0045 198.788 54.5894 198.879 55.0342C199.322 57.1781 200.34 58.4613 201.977 58.9404C202.277 59.0283 202.536 59.109 202.552 59.1203C202.569 59.1312 202.349 59.4122 202.064 59.7443C200.632 61.4152 198.427 62.5838 195.693 63.12C194.601 63.3343 192.257 63.3955 191.322 63.2341C190.954 63.1708 190.645 63.1269 190.634 63.1365C190.623 63.1456 190.524 63.381 190.412 63.6582C190.229 64.112 190.222 64.1695 190.336 64.2345C190.971 64.5951 191.192 64.7622 191.437 65.0662C191.862 65.594 192.107 66.2191 192.249 67.143C192.359 67.8506 192.363 68.1132 192.282 68.9875C192.189 69.9884 192.107 70.4007 191.668 72.0635C191.39 73.1187 191.35 74.6848 191.582 75.455C192.173 77.4154 193.681 78.5152 196.089 78.7409C196.383 78.7685 196.623 78.8154 196.623 78.8451C196.623 78.8749 196.244 79.2622 195.78 79.706C193.842 81.5625 191.521 82.722 188.762 83.2122C187.479 83.4403 185.665 83.5588 184.414 83.4965L183.41 83.4466L183.245 83.9504C183.155 84.2275 183.081 84.4744 183.081 84.4991C183.081 84.5238 183.232 84.6142 183.417 84.7001C183.603 84.786 184.007 85.087 184.316 85.369C185.401 86.3591 186.061 87.9631 186.145 89.8144C186.19 90.8 186.171 90.983 185.848 92.5925C185.604 93.8079 185.602 95.2986 185.842 96.203C186.339 98.0665 187.591 99.1431 189.385 99.2484C190.271 99.3003 190.967 99.1529 192.247 98.6417C192.412 98.576 192.364 98.7871 191.961 99.8995C190.806 103.09 188.986 104.905 186.416 105.431C185.661 105.586 184.208 105.59 183.261 105.44C180.36 104.982 177.058 103.427 173.13 100.67C172.536 100.254 172.04 99.922 172.028 99.9333C172.015 99.9442 171.927 100.571 171.832 101.324C171.435 104.46 171.893 107.092 173.272 109.604C173.441 109.912 173.725 110.383 173.904 110.651C174.083 110.918 174.248 111.166 174.271 111.202C174.336 111.302 170.728 111.196 169.726 111.069C167.654 110.806 166.198 110.424 164.745 109.764C161.701 108.38 159.66 105.775 158.485 101.774C158.357 101.339 158.22 101.009 158.174 101.025C158.129 101.042 157.72 101.293 157.265 101.586C156.34 102.18 155.24 103.102 154.657 103.769C152.759 105.942 151.908 109.094 152.193 112.893C152.244 113.581 152.275 114.153 152.26 114.164C152.246 114.175 151.896 114.049 151.482 113.885L151.482 113.885ZM140.236 90.4646C143.942 89.905 146.975 88.1597 149.468 85.1515C150.199 84.2697 151.069 83.0267 151.537 82.1962C151.703 81.9022 151.858 81.6615 151.882 81.6613C151.906 81.6613 151.972 81.7828 152.029 81.9316C152.245 82.494 152.909 83.6698 153.372 84.3119C153.924 85.0764 154.97 86.0652 155.649 86.4645C157.247 87.4036 158.906 87.7557 160.967 87.5933C162.592 87.4652 163.674 87.2281 165.706 86.5543L166.823 86.1837L166.121 85.208C164.634 83.1445 163.843 81.3841 163.481 79.3366C163.351 78.5992 163.312 76.414 163.422 75.9719L163.481 75.7306L164.024 76.136C167.016 78.3703 170.228 78.8048 174.211 77.5138C175.16 77.206 176.167 76.781 177.733 76.0261L179.29 75.2763L178.908 74.9581C177.382 73.6843 176.466 72.8673 175.982 72.3454C174.531 70.7839 173.619 69.1677 173.216 67.4459C173.062 66.786 172.961 64.8483 173.081 64.8483C173.126 64.8483 173.38 64.9803 173.645 65.1416C175.053 65.9983 176.939 66.4041 179.26 66.3501L180.23 66.3274L179.51 64.9564C175.805 57.9003 174.169 53.3541 173.619 48.5857C173.552 48.0075 173.498 47.289 173.498 46.9889C173.498 46.6817 173.449 46.3366 173.386 46.1989C173.192 45.7755 172.79 45.6805 172.44 45.9755C172.246 46.1398 172.231 46.1955 172.232 46.7512C172.234 47.448 172.402 49.0988 172.587 50.2363C173.186 53.9175 174.699 58.1606 177.147 63.0228C177.543 63.8085 177.952 64.6218 178.057 64.8302L178.248 65.209H177.991C177.474 65.209 176.258 64.9872 175.638 64.7811C174.72 64.4758 174.156 64.1365 173.095 63.2491C172.25 62.5427 172.152 62.4805 172.117 62.628C171.958 63.3095 171.81 64.7645 171.811 65.6422C171.813 67.6364 172.33 69.3496 173.452 71.0813C174.119 72.1104 174.789 72.8812 175.988 73.9988C176.864 74.8154 177.071 75.0456 176.979 75.0996C176.587 75.3304 175.061 75.9947 174.276 76.2763C170.706 77.5564 167.953 77.3512 165.302 75.6074C165.085 75.4646 164.394 74.9002 163.766 74.3535C163.139 73.8068 162.613 73.3708 162.598 73.3846C162.584 73.3973 162.475 73.943 162.359 74.595C162.176 75.6215 162.146 76.0028 162.141 77.44C162.133 79.2124 162.186 79.6097 162.619 81.084C162.986 82.3316 163.722 83.8611 164.543 85.0802C164.726 85.3532 164.847 85.602 164.812 85.633C164.632 85.7891 162.419 86.3051 161.403 86.4276C160.502 86.5364 158.997 86.4803 158.293 86.3116C156.437 85.8677 155.035 84.7754 153.869 82.8649C153.5 82.2601 152.986 81.07 152.547 79.8018C152.338 79.1958 152.141 78.7249 152.11 78.7555C152.079 78.786 151.611 79.5903 151.07 80.5428C149.332 83.5996 148.245 84.9917 146.377 86.5534C144.665 87.9851 142.566 88.9246 140.219 89.3096C139.735 89.3891 139.331 89.4461 139.323 89.4363C139.313 89.4272 139.425 88.98 139.57 88.4442C139.943 87.0624 140.029 86.3255 139.973 84.9549C139.908 83.3505 139.571 82.1221 138.834 80.8062C138.45 80.1204 137.48 78.7751 137.37 78.7751C137.117 78.7751 134.556 80.2672 133.623 80.9577C132.989 81.4276 131.874 82.421 131.64 82.7257C131.572 82.815 131.486 82.8881 131.449 82.8881C131.412 82.8881 131.29 82.5228 131.179 82.0764C130.742 80.3319 130.698 80.0199 130.703 78.703C130.706 77.5722 130.729 77.3648 130.918 76.7187C131.162 75.8828 131.582 75.0483 132.156 74.254C132.628 73.6019 132.666 73.2998 132.306 73.0562C131.977 72.8334 131.661 72.9377 131.3 73.3876C130.495 74.3903 129.963 75.4584 129.643 76.7126C129.368 77.7945 129.358 79.4446 129.618 80.7956C129.863 82.0667 130.806 85.4247 130.959 85.5737C130.989 85.6022 131.261 85.2627 131.566 84.8194C132.795 83.0279 133.934 82.0086 136.153 80.7152C136.752 80.3655 136.954 80.2807 137.053 80.3372C137.272 80.4633 138.007 81.8105 138.287 82.5995C138.661 83.6508 138.761 84.2727 138.754 85.4858C138.747 86.7546 138.537 87.789 137.94 89.4951C137.722 90.1195 137.543 90.6514 137.543 90.6771C137.543 90.7316 139.482 90.5788 140.236 90.465L140.236 90.4646ZM160.531 30.58C162.38 30.099 163.219 30.0709 163.696 30.4744L163.94 30.6815L163.676 30.2486C162.541 28.3921 160.516 26.827 158.156 25.9827C157.329 25.6872 157.256 25.682 157.511 25.9372C158.484 26.9107 158.42 28.4697 157.371 29.3582C156.925 29.7354 156.484 29.8878 155.838 29.8878C155.511 29.8878 155.154 29.8613 155.046 29.8292L154.848 29.7706L155.046 29.9214C155.155 30.0042 155.531 30.201 155.882 30.3585C157.393 31.0359 158.565 31.0918 160.531 30.58H160.531ZM153.526 28.3906C153.305 27.8614 153.349 27.0803 153.632 26.5261C153.865 26.0679 154.4 25.5616 154.786 25.4347C154.929 25.3877 155.046 25.3278 155.046 25.302C155.046 25.1303 152.037 25.2044 151.843 25.381C151.68 25.5291 152.484 27.3035 153.078 28.1073C153.304 28.4135 153.62 28.7695 153.666 28.7695C153.675 28.7695 153.613 28.599 153.526 28.3906L153.526 28.3906ZM155.699 27.3975C156.194 26.9026 155.83 26.0996 155.111 26.0996C154.694 26.0996 154.254 26.4687 154.254 26.8176C154.254 27.5707 155.161 27.935 155.699 27.3975ZM243 101.426C243.311 101.063 246.103 97.3831 247.143 95.9624C255.014 85.2164 259.712 75.6338 262.433 64.7748C262.764 63.4555 262.876 62.7935 263.179 60.3731C263.9 54.6168 264.047 52.2026 263.858 49.2365C263.428 42.4806 260.539 37.722 254.683 34.1224C252.735 32.9254 251.156 32.4392 249.214 32.439C248.487 32.439 248.134 32.4773 247.509 32.624C244.61 33.3055 242.135 35.6671 240.97 38.8639C240.019 41.4761 240.064 43.812 241.103 45.7265C241.788 46.9875 243.007 47.8785 244.575 48.2638C245.098 48.3923 245.434 48.4201 246.496 48.423C247.203 48.4247 247.782 48.4375 247.782 48.4506C247.782 48.5575 247.144 49.9921 246.892 50.4528C246.19 51.7336 245.141 52.9416 244.15 53.6102C243.519 54.0364 242.605 54.4233 241.805 54.6036C241.188 54.7424 240.953 54.7588 240.023 54.7261C239.266 54.6994 238.778 54.6431 238.358 54.5332C237.577 54.3286 236.162 53.7008 235.465 53.2493C233.965 52.277 232.482 50.6889 231.658 49.1715C231.491 48.8642 231.333 48.6127 231.307 48.6127C231.246 48.6127 230.951 49.5612 230.758 50.3806C230.359 52.0708 230.242 54.3936 230.474 55.9728C231.002 59.55 232.586 62.4606 235.428 65.0715C236.937 66.4575 238.713 67.6749 240.733 68.7082L241.525 69.113L241.323 69.4881C240.249 71.4896 238.954 72.7599 237.404 73.3337C235.802 73.9268 233.753 73.8235 231.654 73.0439C231.275 72.903 230.95 72.8005 230.933 72.8162C230.917 72.8326 230.957 73.1157 231.025 73.4466C231.232 74.4629 231.314 75.3539 231.319 76.64C231.338 81.1892 229.18 85.0209 225.351 87.2401C222.88 88.6719 219.584 89.177 216.738 88.5599C213.721 87.9055 210.958 85.973 209.198 83.2846C208.857 82.7634 208.125 81.4374 207.984 81.0847C207.928 80.9453 207.791 80.6117 207.678 80.3434L207.473 79.8557L207.809 80.0477C207.994 80.1534 208.342 80.3595 208.581 80.5059C209.325 80.9606 210.757 81.7129 211.689 82.1389C216.901 84.5222 220.307 84.1313 221.826 80.9755C222.899 78.746 222.999 75.1036 222.12 70.319C221.705 68.0646 220.893 64.7988 220.548 64.002C220.18 63.1515 220.009 61.3201 220.138 59.6168C220.561 54.0133 223.007 46.8104 226.581 40.6397C230.719 33.4958 235.703 28.5264 241.17 26.0954C243.041 25.263 244.575 24.8165 246.515 24.539C247.768 24.3599 250.867 24.3619 252.336 24.5427C259.309 25.402 264.87 28.6724 268.786 34.2169C272.815 39.9221 274.537 47.6727 273.555 55.6839C273.217 58.4413 272.591 61.1373 271.619 64.0181C271.404 64.6531 271.03 65.8383 270.787 66.6518C267.993 75.989 264.26 84.0282 258.688 92.7008C257.377 94.7412 254.172 99.5136 253.993 99.6924C253.92 99.7641 253.544 99.8106 252.678 99.8543C249.497 100.015 246.385 100.494 244.021 101.186C243.542 101.326 243.096 101.46 243.031 101.484C242.938 101.518 242.931 101.505 242.999 101.425L243 101.426ZM73.8711 85.3683C71.3064 84.7559 69.1375 83.7211 67.5563 82.3555C67.3173 82.1491 67.1605 81.9192 67.0114 81.5567C66.5518 80.4397 65.6565 78.9923 64.7894 77.9648C64.2315 77.3037 63.1751 76.3213 63.0221 76.3213C62.9449 76.3213 62.8647 76.2627 62.8443 76.1914C62.7965 76.0246 61.8058 75.3451 60.9085 74.8637C60.5244 74.6576 60.1972 74.4808 60.1813 74.4709C60.0561 74.3927 61.1633 73.2908 61.367 73.2908C61.5072 73.2908 61.4307 73.1303 61.0296 72.584C60.5011 71.8639 59.4269 70.8953 58.6282 70.4186C57.968 70.0245 57.0505 69.665 56.3621 69.5304L55.9574 69.4515L56.3415 69.1981C56.8599 68.8562 57.8791 68.4151 58.5074 68.2607C59.2063 68.089 60.6621 68.0952 61.3189 68.2717C62.0324 68.4644 62.8706 68.8344 63.5147 69.241C64.6163 69.9364 66.0464 71.4301 66.8223 72.6957C67.1444 73.2211 67.2011 73.273 67.7714 73.5642C70.4953 74.955 72.6779 77.9706 73.7616 81.8407C73.9442 82.4929 74.5839 85.2815 74.5839 85.4254C74.5839 85.5064 74.3856 85.4904 73.8712 85.3675L73.8711 85.3683ZM114.538 83.7492C113.658 83.5827 111.621 83.4449 109.925 83.4372L108.085 83.4282L105.897 79.0351C104.544 76.3192 103.565 74.2531 103.332 73.6233C102.474 71.3049 101.562 69.5953 99.9797 67.337C98.6457 65.4331 96.0586 62.4323 95.3445 61.9603C94.3258 61.2872 93.9824 60.4794 93.5552 57.7515C93.407 56.8053 93.2742 56.0217 93.26 56.0101C93.2454 55.9992 92.9631 56.0047 92.6318 56.0246L92.0294 56.0611L91.9825 56.828C91.8527 58.9465 90.6879 60.8648 89.0998 61.5749C88.6885 61.7588 88.5589 61.78 87.849 61.78C87.1172 61.7801 87.0151 61.7619 86.5045 61.5416C85.6298 61.1642 84.7899 60.492 84.1448 59.6529L84.0288 59.5018L83.6318 59.6445C83.4135 59.7229 82.866 59.87 82.4151 59.9714C80.1574 60.4791 77.9869 60.3924 76.4972 59.7349C75.2916 59.2028 74.2672 58.2427 73.752 57.1621C73.5694 56.7793 73.2329 55.8075 73.2708 55.7729C73.2873 55.7584 73.5155 55.8443 73.7778 55.965C75.1643 56.6027 77.2483 56.7608 78.9793 56.3594C79.399 56.2621 80.6086 55.9074 80.6628 55.8658C80.6738 55.8567 80.5577 55.6024 80.4042 55.2998C79.5842 53.6827 79.8128 52.3467 81.111 51.1695C81.9593 50.4002 82.8805 50.0054 84.821 49.5794C85.3334 49.4669 85.7432 49.3492 85.7317 49.3178C85.7014 49.2349 77.6792 44.8592 77.5574 44.8592C77.501 44.8592 77.1888 44.9698 76.8636 45.1047C76.1112 45.4171 74.9431 45.7556 74.2179 45.8714C73.3879 46.0039 71.7663 45.9293 71.0598 45.726C68.9554 45.1206 67.3371 43.5215 66.6498 41.3681L66.4684 40.7994L65.3984 40.8397C64.599 40.8699 64.142 40.9269 63.5913 41.0654C62.3333 41.3817 61.1343 41.9672 60.4917 42.5789C60.3417 42.7218 60.1901 42.8388 60.1551 42.8388C60.0062 42.8388 60.1226 41.5273 60.341 40.7462C60.7755 39.1918 61.9419 37.9776 63.7195 37.2293C64.3691 36.9558 65.7976 36.6004 66.5655 36.5213L67.0465 36.4717L67.4411 35.9211C68.7213 34.1343 70.707 33.1571 73.6221 32.8792C74.1512 32.8287 74.5841 32.7652 74.5841 32.738C74.5841 32.7107 74.4397 32.3665 74.2633 31.973C73.6344 30.5703 73.4461 29.5383 73.6269 28.4842C73.7054 28.0265 73.9427 27.2851 74.1376 26.8891C74.2139 26.7341 73.2336 25.3479 72.5101 24.5876C70.9674 22.966 68.8613 21.9199 66.882 21.7919L66.1804 21.7465L66.5215 21.4279C67.3505 20.6534 68.462 20.0546 69.525 19.8097C70.4417 19.5984 71.7262 19.6454 72.6834 19.9253C73.5507 20.1789 74.6443 20.7013 75.4285 21.2367C76.062 21.6691 77.2721 22.7187 77.7614 23.2601L78.0334 23.561L78.4714 23.4261C79.8408 23.0049 81.3912 23.0611 82.5332 23.5734C84.1743 24.3095 85.2318 25.8545 85.6787 28.1691C85.8808 29.2156 85.9159 31.2163 85.7577 32.6643L85.6513 33.6384L87.7903 37.5349L89.9292 41.4314L106.94 55.7547C116.296 63.6325 124.11 70.2095 124.305 70.3702L124.659 70.6624L123.954 71.1635C121.894 72.6282 119.92 74.7609 118.468 77.0918C117.589 78.5029 116.305 81.0966 115.448 83.1927C115.166 83.8823 115.186 83.8702 114.538 83.7475L114.538 83.7492ZM139.349 54.0475C139.292 53.9256 139.252 53.4689 139.25 52.9062C139.246 52.0615 139.268 51.9107 139.467 51.3909C139.588 51.0734 139.771 50.6885 139.874 50.5355C140.085 50.223 140.08 50.2166 140.239 50.9579C140.375 51.5898 140.695 52.4834 140.959 52.9708C141.086 53.2047 141.171 53.4131 141.149 53.4337C141.126 53.4544 140.841 53.5769 140.515 53.7061C140.189 53.8351 139.814 54.0107 139.683 54.0959L139.444 54.2509L139.349 54.0476V54.0475ZM124.041 53.5456C123.54 53.4957 122.34 53.2499 121.863 53.0995C119.571 52.3775 117.848 50.811 117.123 48.79C115.843 45.2195 117.79 41.1235 121.847 38.8549C122.182 38.6672 122.488 38.513 122.527 38.5122C122.565 38.5122 122.571 38.6488 122.541 38.8174C122.264 40.3709 122.175 42.6138 122.341 43.8523C122.52 45.1813 123.024 46.4594 123.717 47.3451C125.667 49.8344 129.834 49.9309 134.281 47.5895C136.526 46.4081 138.554 45.9525 140.675 46.1535C143.152 46.3882 145.563 47.3073 147.76 48.8538C148.554 49.4131 149.286 50.0206 149.745 50.5012L150.162 50.9387L149.892 50.8855C149.743 50.8563 148.569 50.5137 147.284 50.1244C144.837 49.3827 144.24 49.2434 142.933 49.1079C141.556 48.9653 139.727 49.2143 138.269 49.7428C137.979 49.8478 136.851 50.3456 135.762 50.849C132.659 52.2831 130.525 52.988 128.08 53.387C127.23 53.5257 124.798 53.6211 124.041 53.5456H124.041ZM138.147 45.4995C137.851 45.3382 137.418 45.0314 137.183 44.8179C136.793 44.4618 136.197 43.7402 136.197 43.6226C136.197 43.5956 136.37 43.5212 136.58 43.4574C136.791 43.3937 137.157 43.2305 137.392 43.0947L137.821 42.848L137.882 43.1508C138.025 43.8546 138.273 44.6792 138.498 45.1939C138.63 45.4969 138.726 45.7557 138.711 45.769C138.697 45.7817 138.443 45.6609 138.147 45.4996L138.147 45.4995ZM88.5999 36.4877L86.9195 33.4262L87.0105 32.5951C87.2054 30.815 87.0898 28.5181 86.7379 27.1819C86.2978 25.511 85.3035 23.9682 84.1391 23.1497C83.8928 22.9765 83.6913 22.7791 83.6913 22.7109C83.6913 22.4552 84.1855 21.6949 84.5327 21.4165C84.7286 21.2595 85.0823 21.0578 85.3186 20.9685L85.7484 20.8062L85.7042 20.4043C85.5059 18.5948 85.0748 17.3399 84.2726 16.2369C83.897 15.7203 83.0911 14.9337 82.6565 14.6593C82.3585 14.4711 82.3449 14.4493 82.4949 14.3987C82.5851 14.3682 83.0095 14.3107 83.4382 14.2706C86.0067 14.0304 88.027 15.0302 89.4111 17.2265C90.1174 18.3473 90.6787 20.2096 90.7912 21.8062C90.8403 22.5013 90.8527 22.5397 91.1335 22.8525C92.0963 23.9251 92.7448 25.2335 93.0909 26.8017C93.2927 27.7163 93.2911 30.2997 93.0872 31.4031C92.8243 32.8317 92.4008 34.1775 91.3956 36.7789C90.8512 38.1878 90.3773 39.3875 90.3426 39.4448C90.2995 39.516 89.7459 38.5772 88.599 36.4877L88.5999 36.4877Z" fill="#DA121A"/>
</g>
<defs>
<clipPath id="clip0_1_4946">
<rect width="600" height="400" fill="white"/>
</clipPath>
</defs>
</svg>
