<svg width="600" height="400" viewBox="0 0 600 400" fill="none" xmlns="http://www.w3.org/2000/svg" xmlns:cgf="https://coding.garden/flags"><metadata id="cgf-metadata">

<cgf:flag>
  <cgf:name>Etten-Leur</cgf:name>
  <cgf:route>nl/nb/etten_leur</cgf:route>
  <cgf:aspect-ratio>1.5</cgf:aspect-ratio>
</cgf:flag>

</metadata><g clip-path="url(#clip0_1_5011)">
<path d="M600 0H0V400H600V0Z" fill="white"/>
<path d="M0 400L600 200V400H0Z" fill="#EE332E"/>
<path d="M600 0H0L600 200" fill="#EE332E"/>
<path d="M94.2573 122.909C94.2573 122.909 96.9248 130.978 102.794 130.978C108.663 130.978 109.196 122.909 109.196 122.909H122.001C122.001 122.909 122.534 130.978 129.203 130.978C135.872 130.978 137.206 122.909 137.206 122.909H147.076C147.076 122.909 148.143 130.978 154.545 130.978C160.947 130.978 161.481 122.909 161.481 122.909H179.354V145.672C179.354 145.672 170.551 152.619 170.284 155.023C170.018 157.428 172.419 200.709 176.42 213C182.288 222.885 183.355 223.687 183.355 223.687L190.291 276.854C183.089 277.388 147.609 276.854 147.609 276.854L146.275 250.403C146.275 250.403 143.34 235.709 128.936 235.709C114.531 235.709 111.062 249.335 111.062 249.335L110.796 277.091H65.7144L75.0512 219.144L78.7857 212.465C78.7857 212.465 87.5894 165.978 85.988 155.557C80.9194 150.748 77.9853 147.542 77.9853 147.542V122.909" fill="#EE332E"/>
</g>
<defs>
<clipPath id="clip0_1_5011">
<rect width="600" height="400" fill="white"/>
</clipPath>
</defs>
</svg>
