<svg width="600" height="400" viewBox="0 0 600 400" fill="none" xmlns="http://www.w3.org/2000/svg" xmlns:cgf="https://coding.garden/flags"><metadata id="cgf-metadata">

<cgf:flag>
  <cgf:name>Geertruidenberg</cgf:name>
  <cgf:route>nl/nb/geertruidenberg</cgf:route>
  <cgf:aspect-ratio>1.5</cgf:aspect-ratio>
</cgf:flag>

</metadata><g clip-path="url(#clip0_1_5017)">
<path d="M600 0H0V132.16H600V0Z" fill="#FCDD09"/>
<path d="M600 132.16H0V199.804H600V132.16Z" fill="black"/>
<path d="M600 199.805H0V266.667H600V199.805Z" fill="white"/>
<path d="M600 266.667H0V400H600V266.667Z" fill="#078930"/>
<path d="M254.872 378.581C251.216 375.845 250.303 371.017 252.262 364.764C252.761 363.168 252.762 363.163 252.301 362.036C251.963 361.208 251.84 360.33 251.84 358.741V356.575L250.609 356.745C249.243 356.933 247.377 356.542 246.001 355.78C244.851 355.144 244.838 355.146 243.691 356.203C242.135 357.635 240.904 359.425 239.972 361.61C239.498 362.72 239.032 363.629 238.936 363.629C238.632 363.629 236.68 360.944 236.096 359.722C235.325 358.112 235.311 354.283 236.068 352.262C236.752 350.438 237.905 348.391 239.125 346.835C239.825 345.941 240.145 345.292 240.153 344.751C240.179 342.766 241.431 340.58 243.259 339.327C244.972 338.153 244.386 337.885 241.943 338.724C239.544 339.549 237.195 341.202 235.575 343.204C234.947 343.981 234.352 344.616 234.253 344.616C234.154 344.616 233.764 343.769 233.386 342.734C232.59 340.552 232.474 337.865 233.107 336.25L233.476 335.306L231.249 332.864C228.087 329.396 226.509 326.708 225.46 322.996C225.008 321.396 224.913 320.509 224.933 318.051C224.962 314.447 225.475 312.085 227.006 308.523L228.056 306.081L222.815 306.011L217.575 305.941L217.443 304.854L217.311 303.767L218.743 303.326C224.508 301.549 229.091 299.121 229.888 297.423C230.428 296.271 229.999 295.637 226.318 292.156C218.242 284.517 214.091 279.3 212.372 274.629C211.741 272.912 211.724 272.738 211.764 268.176C211.831 260.437 211.019 253.595 209.289 247.303C208.822 245.607 208.416 244.192 208.387 244.16C208.358 244.128 207.735 244.024 207.002 243.929C205.699 243.76 205.637 243.783 204.178 244.933C199.829 248.364 196.797 253.606 194.651 261.405C193.916 264.076 192.334 271.632 191.825 274.904C191.708 275.654 191.581 275.865 191.311 275.751C191.113 275.667 190.641 275.599 190.262 275.599C189.704 275.599 189.572 275.486 189.571 275.013C189.559 269.426 182.743 267.876 175.49 271.811C172.266 273.56 168.272 277.029 167.439 278.805C166.229 281.385 168.717 285.105 171.875 285.44C173.796 285.643 174.995 285.107 176.59 283.333C178.876 280.79 179.656 278.676 180.26 273.385L180.408 272.083L182.3 274.297C186.307 278.985 188.22 282.98 189.441 289.207C189.593 289.985 189.791 290.04 192.053 289.936C193.825 289.856 196.219 289.207 199.379 287.953C200.939 287.334 203.725 286.247 205.572 285.538L208.929 284.247L207.493 287.403C204.987 292.914 202.955 295.683 199.765 297.937C198.508 298.825 195.941 300.096 194.734 300.427C194.121 300.595 194.152 300.649 196.157 302.882C197.879 304.8 198.407 305.603 199.452 307.897C201.047 311.401 201.72 314.481 202.204 320.498C202.41 323.062 202.549 325.193 202.512 325.233C202.393 325.363 198.892 320.551 196.403 316.84C193.482 312.482 191.152 309.87 189.163 308.72C187.561 307.794 185.14 307.124 183.369 307.117L182.246 307.113V308.367C182.246 310.269 182.696 312.559 183.365 314.066C183.921 315.319 185.761 317.548 187.637 319.241C188.067 319.629 188.333 320.035 188.228 320.142C188.122 320.249 186.391 320.893 184.381 321.574C178.863 323.442 176.836 323.44 172.934 321.566C172.525 321.37 172.498 321.433 172.643 322.24C172.93 323.845 174.392 326.858 175.447 328.021C176.015 328.647 177.349 329.733 178.412 330.435C179.475 331.137 180.267 331.786 180.173 331.878C180.079 331.969 178.991 332.294 177.756 332.599C172.532 333.89 169.503 333.936 166.375 332.769C165.435 332.419 164.633 332.167 164.594 332.211C164.555 332.254 164.672 332.835 164.853 333.502C165.435 335.633 166.321 336.951 168.312 338.649C169.354 339.537 170.16 340.314 170.103 340.377C169.834 340.673 164.688 341.773 162.498 342.002C158.65 342.404 153.33 341.656 150.384 340.299C149.941 340.095 149.499 339.928 149.402 339.928C149.305 339.928 149.173 340.75 149.108 341.754C148.936 344.415 147.915 346.555 145.596 349.122C143.781 351.132 143.764 351.163 144.04 351.987C144.201 352.469 144.319 354.249 144.319 356.206C144.319 359.411 144.282 359.674 143.636 361.125C142.742 363.135 141.517 364.448 139.486 365.576C138.577 366.08 137.792 366.494 137.743 366.494C137.693 366.494 137.591 365.351 137.516 363.954C137.361 361.078 136.78 358.925 135.605 356.871L134.831 355.518L131.658 355.464C127.832 355.399 126.466 354.917 124.505 352.942L123.24 351.668L122.555 352.458C120.879 354.389 118.53 355.133 115.347 354.74L113.397 354.5L112.581 355.353C111.533 356.448 109.878 359.257 109.392 360.764C109.185 361.408 108.893 362.79 108.744 363.834L108.472 365.732L107.805 365.266C105.848 363.9 104.895 362.99 104.252 361.873C102.421 358.691 102.386 355.047 104.144 350.254L104.715 348.697L104.25 347.978C102.93 345.935 102.543 343.839 103.178 342.166L103.508 341.294L101.701 340.591C100.707 340.205 99.681 339.884 99.4213 339.878C98.5276 339.859 95.166 341.495 93.8678 342.581C93.1531 343.179 92.005 344.355 91.317 345.194L90.0657 346.72L89.3131 344.952C88.6432 343.378 88.56 342.926 88.557 340.84C88.557 338.751 88.6302 338.327 89.2611 336.946C90.1149 335.075 91.9004 332.891 93.8593 331.321C94.7677 330.592 95.3529 329.92 95.4336 329.511C95.89 327.201 97.2188 325.038 98.9179 323.84C99.4546 323.461 99.9354 323.12 99.9864 323.082C100.038 323.044 99.8245 322.776 99.5137 322.487C98.8658 321.885 98.5131 321.932 96.231 322.928C94.0952 323.86 92.8372 324.84 90.8937 327.086L89.2192 329.021L88.4659 327.043C87.4797 324.454 87.3451 323.234 87.8197 321.192C88.8435 316.788 93.6289 311.998 98.5941 310.409C99.3089 310.181 100.266 309.717 100.721 309.38C104.346 306.691 109.084 307.217 113.776 310.829L115.134 311.874L118.266 311.716C121.496 311.553 123.084 311.223 125.253 310.266C130.991 307.733 134.58 301.431 135.918 291.54C136.329 288.497 136.643 281.158 136.481 278.386C136.352 276.193 136.278 275.857 135.954 275.998C129.185 278.935 123.041 279.303 116.994 277.134C114.89 276.379 111.903 274.808 109.557 273.223C107.435 271.788 107.492 271.905 108.076 270.182C108.258 269.648 108.374 269.606 109.167 269.788C109.656 269.9 111.703 269.988 113.718 269.983C118.772 269.972 122.385 269.121 126.124 267.062C127.878 266.096 130.913 263.929 131.379 263.31C131.614 262.998 130.599 262.618 124.918 260.892L118.179 258.845L118.339 257.781C118.427 257.195 118.534 256.674 118.577 256.621C118.622 256.568 119.777 256.304 121.146 256.033C127.299 254.817 133.431 252.624 137.585 250.155C141.815 247.641 144.852 245.057 149.637 239.902C153.664 235.563 156.768 232.802 161.648 229.218C165.557 226.346 172.154 222.495 175.739 220.991L177.619 220.203L175.975 219.612C175.071 219.287 174.211 218.888 174.064 218.726C173.717 218.343 171.759 211.803 171.934 211.61C172.046 211.486 189.993 214.391 191.683 214.807L192.256 214.949L191.683 214.175C191.367 213.749 189.939 211.967 188.51 210.214C184.948 205.847 181.207 200.866 178.399 196.75C177.105 194.852 175.979 193.299 175.897 193.299C175.815 193.3 174.42 194.359 172.795 195.653L169.841 198.007L169.723 195.721L169.604 193.435L169.134 194.604C168.275 196.739 165.986 200.222 164.266 202.01C162.325 204.027 159.348 206.248 157.021 207.412C153.496 209.176 147.765 210.876 142.739 211.647L141.631 211.817L141.971 212.878C142.63 214.938 142.255 216.796 140.698 219.175C139.945 220.327 139.875 220.583 139.92 222.04C140.021 225.343 138.828 229.682 137.187 231.978C135.836 233.868 133.423 235.176 130.441 235.636L129.324 235.808L129.93 233.891C130.601 231.768 130.905 228.229 130.564 226.505L130.358 225.463L128.101 225.333C126.162 225.221 125.64 225.086 124.389 224.375C123.47 223.853 122.933 223.668 122.933 223.873C122.933 224.424 121.293 226.344 120.243 227.022C119.695 227.376 118.624 227.822 117.862 228.012L116.477 228.359L115.806 230.213C114.76 233.1 114.513 235.436 114.984 237.965C115.198 239.111 115.442 240.329 115.527 240.673C115.698 241.368 115.704 241.369 113.107 240.547C108.286 239.022 105.767 233.993 106.264 226.885C106.404 224.874 106.372 224.595 105.924 223.968C105.652 223.586 105.315 222.912 105.175 222.469C105.035 222.026 104.852 221.704 104.77 221.754C103.045 222.789 102.077 223.094 100.196 223.198C98.4697 223.294 97.8836 223.215 96.5835 222.709C95.2025 222.171 94.9148 222.139 93.9698 222.418C91.6389 223.105 89.7902 224.348 87.6102 226.695C86.4432 227.952 85.4742 228.979 85.4566 228.979C85.2809 228.979 84.1126 225.579 83.9143 224.491C83.5913 222.718 84.0733 220.395 85.1916 218.335C86.2363 216.411 89.0138 213.656 91.3911 212.185C93.9599 210.596 94.1796 210.31 92.9983 210.091C91.1845 209.754 88.5761 208.892 87.3157 208.211C85.6764 207.327 84.1004 205.41 83.5588 203.644C83.0413 201.955 83.044 199.204 83.5588 196.961C83.7706 196.05 83.909 195.266 83.8665 195.219C83.8239 195.172 83.1043 194.795 82.2673 194.381C80.0283 193.274 78.4349 192.931 75.7238 192.974L73.3018 193.011V192.231C73.3018 189.711 76.1499 186.686 79.5356 185.61C82.352 184.715 87.5944 185.195 90.8551 186.646L92.2761 187.279L93.9962 186.643C96.7924 185.608 99.6061 185.902 102.062 187.485C104.227 188.881 107.012 193.119 107.448 195.681C107.583 196.474 107.782 196.693 108.944 197.327C110.593 198.226 112.334 198.761 113.623 198.765C114.565 198.768 114.645 198.699 115.969 196.75C119.543 191.487 125.378 184.73 129.971 180.537L132.395 178.323L129.833 178.023C128.424 177.858 126.32 177.529 125.158 177.292C122.724 176.796 116.747 175.105 116.492 174.841C116.397 174.743 117.833 174.209 119.683 173.655C126.089 171.735 130.666 169.522 135.333 166.087C138.073 164.07 141.238 161.304 141.047 161.094C140.984 161.026 140.515 161.093 140.004 161.245C139.493 161.397 137.997 161.643 136.681 161.792C131.852 162.338 126.991 161.096 122.572 158.187C120.809 157.027 117.255 154.198 117.255 153.955C117.255 153.856 118.239 153.391 119.441 152.923C122.325 151.798 126.503 149.623 128.907 147.994C133.645 144.785 137.296 141.212 141.957 135.22C143.796 132.856 145.477 130.762 145.693 130.565C145.908 130.368 146.085 130.105 146.085 129.979C146.085 129.853 144.716 129.75 143.044 129.75C132.982 129.75 125.214 125.088 119.774 115.784C118.533 113.662 116.311 108.776 115.573 106.543L115.072 105.031L113.978 105.633C111.873 106.792 109.586 106.683 107.083 105.304L105.69 104.537L103.97 105.273C98.8606 107.458 93.9816 107.231 91.0585 104.673C90.5326 104.213 89.6244 103.133 89.0401 102.274L87.9779 100.711L89.4422 100.503C93.2403 99.9635 95.7236 98.9465 98.17 96.9286C99.5233 95.8123 99.5254 95.8086 99.3515 94.7447C99.0866 93.1226 99.1975 90.9221 99.5969 89.8705L99.9554 88.9269L98.9757 88.604C97.7673 88.2056 96.7967 87.4939 95.8656 86.3233C95.0018 85.2372 94.0218 84.9815 90.661 84.9654C87.8365 84.9519 86.1971 85.3682 83.4994 86.7839C82.4146 87.3532 81.4717 87.8189 81.4041 87.8189C81.3364 87.8189 81.3265 86.6762 81.3823 85.2796C81.4945 82.4506 82.0103 80.9732 83.5058 79.1928C85.3684 76.9754 89.8209 74.7487 93.1616 74.3639C94.5803 74.2005 94.625 74.1709 95.5573 72.78C96.0797 72.0005 96.8688 71.1276 97.3108 70.8402C97.7526 70.5529 98.1142 70.2644 98.1142 70.1992C98.1142 70.1339 97.7955 69.706 97.4058 69.2482C97.0162 68.7904 96.5111 67.9085 96.2834 67.2883C95.9019 66.2499 95.7008 66.0714 93.7424 65.0326C90.5316 63.3295 88.9232 62.9775 85.2975 63.1843L82.2876 63.356L82.915 61.7189C83.5814 59.979 84.3777 58.6467 85.3491 57.6451C86.9138 56.032 90.5777 54.7414 93.586 54.7436C95.177 54.7447 98.4708 55.3238 100.123 55.8927C100.773 56.1165 102.049 56.3037 102.958 56.3087C104.489 56.3174 105.526 56.4836 106.754 56.9183C107.221 57.0836 107.244 56.9877 107.289 54.6329C107.344 51.7302 107.927 49.3774 108.984 47.7933C109.713 46.7005 111.63 45.1062 112.215 45.1062C112.682 45.1062 112.598 44.4574 111.946 43.04C111.203 41.4233 109.768 39.5977 108.056 38.0888C107.315 37.4362 106.687 36.785 106.659 36.6418C106.632 36.4985 107.437 36.0617 108.447 35.6711C112.939 33.9342 117.216 35.449 120.851 40.064C122.374 41.9978 123.873 44.6487 124.335 46.2251C124.537 46.916 124.912 47.4135 125.578 47.8771C127.19 48.9988 129.641 51.9053 130.388 53.5806C130.997 54.9479 131.079 55.4131 131.079 57.4773C131.079 59.5415 130.996 60.0066 130.388 61.3739C129.394 63.6042 127.038 66.1056 124.714 67.398C122.901 68.4063 122.834 68.4768 122.393 69.8584C121.934 71.2983 121.754 74.2247 122.066 75.1874C122.258 75.7797 122.174 75.7093 138.287 88.6924C154.939 102.11 160.798 107.125 166.107 112.509L168.525 114.96L170.919 114.154C174.443 112.968 180.144 111.626 184.84 110.878C187.114 110.516 189.081 110.21 189.211 110.2C189.906 110.142 186.049 109.157 184.078 108.888C180.21 108.362 177.273 109.17 173.925 111.683C172.9 112.452 172 113.082 171.927 113.082C171.853 113.082 171.835 111.705 171.886 110.022C171.969 107.319 172.055 106.803 172.62 105.604C173.57 103.585 175.181 102.019 177.673 100.691C179.785 99.5653 184.1 98.1082 187.202 97.4735L188.738 97.1591L188.757 95.3214L188.775 93.4838L187.339 93.6573C182.158 94.283 178.741 94.5805 176.68 94.5852C163.747 94.6143 158.565 88.4578 160.381 75.2216C160.796 72.192 160.801 72.1799 161.314 72.5506C165.079 75.2694 166.286 76.0554 168.243 77.0634C172.559 79.286 178.524 81.0193 183.4 81.4675L185.363 81.648L184.517 80.4256C183.562 79.0471 183.211 77.8725 183.138 75.818C183.091 74.5052 183.015 74.3341 182.046 73.3808C180.3 71.6647 180.054 70.7271 179.885 65.1604C179.757 60.9359 179.675 60.1977 179.222 59.1702C178.537 57.618 178.563 56.4384 179.318 54.77C181.128 50.7673 187.969 47.6009 200.725 44.8622C202.768 44.4234 204.656 44.0644 204.919 44.0644C205.183 44.0644 205.398 43.9634 205.398 43.8398C205.398 43.4271 206.823 41.6332 207.631 41.0276C208.952 40.0384 211.71 39.1871 215.087 38.7266C216.841 38.4873 218.612 38.2396 219.021 38.176C221.529 37.7867 222.515 34.2988 222.376 26.3121L222.294 21.666L223.033 21.6661C223.641 21.6662 224.045 21.9853 225.312 23.4645C228.461 27.144 230.805 31.9243 231.398 35.8774C231.899 39.2111 231.593 38.9818 233.815 37.6898C235.949 36.4483 239.024 35.1907 241.642 34.4886C242.872 34.159 244.28 34.0407 246.87 34.0497C251.041 34.0642 252.339 34.4741 254.27 36.3877C256.558 38.6547 257.15 42.2303 255.996 46.7991C255.402 49.1469 253.203 54.288 251.717 56.8026C250.536 58.8018 250.554 59.1578 252.003 62.3496C252.735 63.9611 253.412 64.9707 254.673 66.332C256.385 68.1799 257.162 68.7514 261.135 71.0855L263.35 72.386L262.081 72.7056C261.383 72.8815 259.749 73.5668 258.449 74.2286C256.567 75.1865 255.765 75.4524 254.511 75.5331L252.936 75.6342L253.262 76.8432C253.726 78.5689 254.469 83.0057 254.904 86.6468C255.461 91.3194 255.612 99.8122 255.265 106.927C255.1 110.325 255.022 113.168 255.092 113.245C255.163 113.323 256.416 113.682 257.878 114.044C259.339 114.405 261.249 115.022 262.122 115.413L263.71 116.125L263.849 114.799C264.836 105.407 264.562 95.8364 263.05 86.8249C262.778 85.2039 262.589 83.7047 262.629 83.4934C262.732 82.9574 268.836 89.4256 270.345 91.6696C271.003 92.6485 271.96 94.2378 272.471 95.2012L273.4 96.953L274.547 94.795C278.693 86.9997 285.298 79.9826 292.859 75.3406L294.187 74.5259L294.813 75.4312L295.44 76.3366L294.49 77.7153C292.717 80.2915 291.887 82.7829 291.887 85.5309C291.887 86.97 292.097 88.0131 292.942 90.7743C293.523 92.6701 294.069 94.8912 294.156 95.71C294.268 96.7574 294.393 97.1279 294.578 96.96C295.065 96.5176 297.665 95.6864 299.094 95.5166C303.457 94.998 309.016 97.7953 311.867 101.944C312.756 103.237 314.336 106.42 314.336 106.916C314.336 106.969 313.246 107.087 311.914 107.178C305.92 107.586 302.663 109.747 300.072 115.035C298.404 118.44 296.939 120.751 295.181 122.752L293.631 124.516L294.945 124.683C296.836 124.924 299.473 125.674 302.014 126.694L304.225 127.582L298.469 130.126C288.293 134.625 284.823 136.708 282.033 139.995C280.55 141.742 279.296 144.202 279.006 145.93C278.889 146.629 279.197 148.488 280.191 153.092C282.219 162.487 284.35 169.142 287.671 176.447C290.444 182.549 293.351 193.775 294.365 202.299C295.392 210.935 294.947 219.995 293.091 228.169C292.819 229.37 292.596 230.473 292.596 230.619C292.596 230.796 294.141 230.825 297.257 230.706C299.86 230.607 301.817 230.627 301.688 230.752C301.3 231.128 293.361 236.637 290.351 238.618C286.608 241.082 280.48 244.367 277.825 245.334C274.207 246.65 271.998 247.06 268.492 247.066C266.229 247.07 264.764 246.933 263.452 246.597C262.434 246.337 261.566 246.163 261.522 246.211C261.477 246.259 261.314 247.524 261.156 249.021C260.794 252.456 260.986 260.033 261.517 263.227C262.334 268.151 263.997 272.389 266.005 274.666C267.208 276.031 267.871 276.38 269.26 276.38C270.115 276.38 270.368 276.226 271.343 275.111C272.59 273.685 273.307 271.882 273.844 268.827C274.033 267.753 274.237 266.61 274.298 266.288C274.392 265.788 274.561 265.702 275.44 265.702C276.469 265.702 276.471 265.705 276.746 266.909C277.306 269.359 278.572 271.37 280.091 272.224C283.162 273.951 288.461 271.053 291.527 265.971C292.906 263.684 293.554 261.618 293.571 259.451C293.583 257.887 293.481 257.542 292.241 254.913C291.122 252.542 290.99 252.133 291.451 252.461C291.756 252.678 293.387 253.775 295.077 254.9C299.207 257.649 301.998 260.648 303.435 263.879C304.812 266.973 305.201 269.229 305.031 273.124C304.957 274.843 304.735 276.953 304.539 277.812C304.058 279.92 304.072 280.026 304.834 280.026C306.88 280.026 310.371 281.622 312.982 283.75C314.695 285.146 320.716 291.649 320.716 292.103C320.716 292.231 320.496 292.728 320.227 293.209L319.737 294.082L318.868 293.663C312.741 290.716 307.724 290.489 302.393 292.917C300.451 293.801 298.086 295.229 297.089 296.118L296.532 296.615L298.167 297.466C300.746 298.809 303.428 299.767 306.027 300.272L308.428 300.739L307.563 302.168C305.814 305.057 304.022 306.83 302.264 307.41C301.412 307.692 301.365 307.753 301.696 308.157C302.329 308.928 304.985 310.191 309.428 311.835C311.802 312.713 313.784 313.468 313.831 313.514C313.879 313.559 311.625 314.857 308.823 316.399L303.729 319.203L304.569 320.965C305.711 323.36 307.806 325.803 310.483 327.86C311.712 328.804 312.629 329.659 312.522 329.76C312.414 329.862 311.636 330.467 310.791 331.106C307.324 333.727 304.18 335.24 301.342 335.655C300.166 335.827 300.157 335.835 300.163 336.771C300.184 340.097 302.039 343.616 304.942 345.833C305.43 346.205 305.829 346.599 305.829 346.708C305.829 347.041 301.805 348.697 299.821 349.181C298.354 349.538 297.355 349.603 295.213 349.481C293.708 349.396 292.254 349.253 291.981 349.164C291.49 349.005 291.491 349.022 292.08 350.912C292.823 353.299 292.898 356.604 292.249 358.42C291.926 359.326 291.841 360.24 291.877 362.457C291.978 368.814 290.176 373.137 286.646 375.01C285.253 375.748 282.318 376.609 282.082 376.349C282.024 376.285 282.188 375.477 282.443 374.554C283.169 371.931 283.277 369.723 282.79 367.444L282.372 365.487L281.163 365.173C279.568 364.759 277.904 363.822 276.782 362.704L275.872 361.798L275.113 363.101C274.11 364.823 272.053 366.867 270.389 367.792C268.227 368.995 266.354 369.416 263.595 369.319L261.171 369.234L260.494 370.143C258.797 372.419 257.634 375.77 257.626 378.409C257.626 379.485 257.602 379.515 256.855 379.505C256.378 379.498 255.623 379.147 254.865 378.58L254.872 378.581ZM236.626 331.038C238.558 329.251 239.183 328.827 242.691 326.917C247.603 324.242 249.535 323.685 253.849 323.702C257.33 323.716 259.548 324.269 262.191 325.782C264.398 327.046 266.714 329.577 267.801 331.911L268.616 333.661L269.614 332.582C271.955 330.049 273.107 325.514 272.413 321.567C271.03 313.716 264.142 306.075 253.258 300.32C248.825 297.976 248.97 298.011 248.67 299.208C248.536 299.745 248.298 301.315 248.141 302.698C247.578 307.668 248.659 312.821 251.358 318.032C252.205 319.669 252.846 321.066 252.782 321.137C252.568 321.373 248.198 320.161 246.398 319.367C243.581 318.123 241.171 316.091 239.187 313.284C238.686 312.575 238.658 312.568 238.19 313.024C237.2 313.988 234.976 318.089 234.238 320.31C233.601 322.229 233.453 323.099 233.348 325.573C233.237 328.17 233.596 333.382 233.929 334.013C233.989 334.126 234.334 333.767 234.696 333.216C235.059 332.664 235.927 331.684 236.626 331.038V331.038ZM269.815 225.218C273.885 224.877 277.784 222.388 279.249 219.196C280.708 216.018 279.918 212.527 276.948 209.027C275.005 206.738 272.272 204.626 268.749 202.688C260.195 197.985 255.598 192.759 254.189 186.136C253.59 183.323 253.829 178.607 254.749 175.068C255.14 173.563 255.587 171.809 255.741 171.169L256.022 170.004L257.479 173.122C258.28 174.837 259.243 176.767 259.619 177.412C261.516 180.662 265.743 185.538 269.613 188.94C272.303 191.304 276.062 194.188 276.062 193.887C276.062 193.764 275.315 191.619 274.401 189.119C267.699 170.775 265.035 158.469 265.868 149.708L266.112 147.137L264.864 145.88C262.364 143.362 261.449 140.399 261.17 133.917C260.824 125.874 259.617 121.656 256.163 116.416C255.133 114.854 254.899 114.62 254.838 115.092C254.772 115.593 254.353 115.282 251.554 112.658C248.395 109.698 247.379 108.926 247.078 109.259C246.831 109.531 246.125 114.992 245.722 119.745C244.684 131.997 245.074 142.311 247.035 154.439C247.436 156.916 247.721 158.989 247.669 159.046C247.517 159.214 241.32 158.685 239.907 158.383C235.694 157.483 232.795 155.806 229.818 152.547L227.646 150.169L227.482 151.858C227.188 154.879 227.518 159.834 228.202 162.696C229.539 168.288 232.606 173.93 237.124 179.113C240.427 182.901 243.646 185.824 248.491 189.433C250.418 190.869 251.949 192.094 251.894 192.155C251.724 192.341 237.38 191.239 234.235 190.798C232.611 190.57 230.279 190.103 229.053 189.761C227.828 189.418 226.791 189.175 226.749 189.221C226.659 189.32 229.787 194.392 231.753 197.335C240.455 210.363 248.953 218.359 259.447 223.395C262.316 224.772 265.731 225.626 267.555 225.424C267.88 225.388 268.897 225.295 269.815 225.218ZM202.145 98.4622C205.226 97.7354 208.133 95.3032 209.453 92.3478C209.865 91.4269 210.134 90.5999 210.053 90.5098C209.844 90.2798 205.284 90.8001 198.946 91.7772L193.549 92.6091L193.683 93.3454C193.982 94.9931 196.071 97.3576 197.843 98.0553C199.781 98.8181 200.391 98.8757 202.145 98.4622V98.4622ZM205.524 81.6687C204.558 80.8439 201.267 79.1654 198.943 78.3122C196.469 77.4042 191.644 76.099 190.761 76.099C190.486 76.099 189.739 76.6373 189.101 77.2952C187.992 78.4386 187.665 79.1171 187.329 80.9687L187.178 81.8017L188.552 81.8962C189.309 81.9482 193.543 82.0092 197.962 82.0317C205.261 82.0689 205.953 82.0361 205.524 81.6688V81.6687Z" fill="white"/>
<path d="M255.2 374.888C253.791 372.68 253.437 370.349 254.055 367.353C254.775 363.865 256.517 360.453 257.905 359.814C260.087 358.809 263.055 360.225 263.578 362.519C263.701 363.062 263.45 363.429 261.848 365.053C258.787 368.158 256.929 371.248 256.291 374.292C256.14 375.014 255.935 375.604 255.836 375.604C255.737 375.604 255.451 375.282 255.2 374.888ZM285.577 370.462C285.73 367.501 285.104 364.72 283.495 361.205C282.853 359.804 282.328 358.507 282.328 358.324C282.328 357.887 283.453 356.772 284.288 356.38C285.988 355.584 288.698 356.422 289.363 357.949C290.293 360.085 290.315 365.216 289.405 367.895C288.768 369.773 287.675 371.329 286.433 372.127L285.458 372.754L285.577 370.462H285.577ZM264.728 365.414C265.673 364.453 265.786 364.217 265.786 363.192C265.786 360.028 263.341 357.428 260.129 357.174C257.934 357.001 256.374 357.585 255.285 358.987L254.467 360.041L254.31 359.355C254.063 358.267 254.399 356.565 255.137 355.156L255.819 353.857L255.111 353.041L254.404 352.225L253.065 352.981C252.068 353.544 251.363 353.747 250.308 353.774C248.836 353.812 247.826 353.586 247.826 353.218C247.826 353.101 248.633 352.615 249.62 352.137C251.701 351.129 252.09 350.543 252.113 348.383C252.139 346.111 251.05 344.155 249.036 342.849C247.796 342.045 244.75 341.713 243.793 342.277C243.238 342.605 243.235 342.601 243.604 341.982C244.246 340.906 245.962 339.954 248.597 339.21C249.993 338.816 251.135 338.418 251.135 338.327C251.135 338.235 250.523 337.884 249.776 337.545C248.651 337.035 248.519 336.914 249.008 336.842C249.768 336.729 250.844 335.609 251.272 334.487C252.157 332.169 251.255 328.862 249.294 327.236L248.28 326.395L248.94 326.232C249.302 326.141 250.024 325.95 250.544 325.806C252.016 325.398 256.242 325.488 258.082 325.967C261.403 326.83 264.194 328.855 265.752 331.53C266.348 332.554 267.018 334.261 267.802 336.751C267.938 337.183 268.789 336.542 270.788 334.503C275.475 329.719 276.463 322.76 273.452 315.725C270.839 309.62 265.131 303.803 256.968 298.93C254.816 297.645 248.032 294.293 247.894 294.446C247.714 294.644 246.818 298.535 246.508 300.466C245.722 305.358 246.398 310.84 248.394 315.764L249 317.259L247.824 316.767C244.912 315.547 242.062 312.895 240.448 309.903C239.925 308.933 239.429 308.094 239.346 308.037C239.157 307.909 236.077 311.96 234.9 313.883C233.769 315.733 232.63 318.325 232.156 320.13C231.63 322.134 231.212 326.238 231.396 327.59C231.482 328.214 231.502 328.724 231.441 328.724C231.219 328.724 229.635 326.112 228.953 324.624C226.425 319.104 226.875 313.757 230.476 306.535C231.311 304.86 231.995 303.424 231.995 303.345C231.995 303.266 230.479 303.197 228.627 303.192L225.26 303.182L226.946 302.31C231.442 299.984 233.249 297.608 232.479 295.036C232.066 293.655 231.591 293.104 227.31 289.042C220.867 282.928 217.137 278.366 215.141 274.161L214.4 272.598L214.247 265.696C214.019 255.439 213.03 249.378 210.228 241.085C206.706 230.658 200.898 220.723 192.094 210.066C187.885 204.972 183.49 199.176 180.418 194.671L178.073 191.232L181.242 187.77C186.59 181.928 189.689 176.714 191.805 170.006L192.208 168.726L194.083 172.041C196.838 176.912 199.392 180.586 202.081 183.545C204.848 186.591 207.094 188.406 210.301 190.188L212.593 191.462L212.462 186.583C212.325 181.496 212.54 179.36 213.428 177.019L213.81 176.01L214.672 177.555C216.569 180.957 220.005 184.819 222.297 186.126C222.714 186.363 224.106 188.343 226.051 191.462C231.826 200.723 235.306 205.53 239.937 210.642C245.563 216.852 251.892 221.664 258.873 225.041C262.84 226.959 266.312 227.613 270.08 227.151C276.366 226.379 280.896 222.927 282.222 217.899C282.831 215.591 282.579 213.489 281.37 210.79C279.562 206.756 275.947 203.293 270.205 200.096C268.49 199.141 266.342 197.826 265.433 197.174C259.312 192.786 256.353 187.674 256.339 181.464C256.339 179.537 256.753 176.364 257.012 176.364C257.1 176.364 257.505 176.982 257.915 177.737C260.873 183.19 267.384 189.826 275.575 195.74C281.486 200.007 281.004 199.698 280.858 199.119C280.79 198.851 279.459 195.116 277.899 190.819C272.198 175.115 269.781 166.707 268.75 158.982C268.315 155.727 268.245 149.398 268.618 147.064C268.864 145.527 268.858 145.493 268.226 144.981C264.863 142.252 263.919 139.892 263.765 133.823C263.612 127.781 262.573 122.766 260.586 118.481C259.522 116.185 259.592 116.1 261.704 117.125C262.53 117.526 263.601 118.366 264.414 119.25C266.019 120.996 265.825 121.443 266.419 114.639C267.117 106.66 266.943 92.813 266.103 89.5064C265.884 88.6427 268.018 91.0955 269.547 93.464C270.306 94.6398 271.498 97.0131 272.197 98.738C272.895 100.463 273.523 101.875 273.591 101.876C273.66 101.877 274.169 100.87 274.724 99.6383C277.711 93.0003 281.946 86.9645 286.548 82.787C288.101 81.3774 290.113 79.7242 290.967 79.1562C291.104 79.0648 290.979 79.7742 290.678 80.7323C290.284 82.0038 290.138 83.0724 290.136 84.6882C290.136 87.1233 290.415 88.5908 291.559 92.1108C292.577 95.244 292.624 97.3577 291.716 99.0661L291.081 100.26L291.903 100.952L292.725 101.643L293.896 100.352C297.492 96.3896 303.443 96.4024 308.182 100.383C309.075 101.133 310.166 102.293 310.606 102.96L311.407 104.172L309.687 104.489C306.108 105.147 303.192 106.757 301.114 109.222C300.415 110.051 299.217 112.004 298.398 113.649C295.994 118.481 293.704 121.434 290.859 123.369C290.066 123.908 289.418 124.421 289.419 124.508C289.419 124.595 289.525 125.076 289.651 125.578L289.881 126.489L293.017 126.528C294.928 126.551 296.565 126.708 297.209 126.928L298.266 127.289L294.492 128.969C290.483 130.753 286.592 132.851 284.455 134.382C283.74 134.894 282.252 136.317 281.147 137.543C279.002 139.923 277.951 141.859 277.296 144.634C276.949 146.105 276.953 146.133 278.199 151.927C280.624 163.202 282.211 168.315 285.583 175.713C288.661 182.468 291.514 193.279 292.635 202.437C293.112 206.333 293.177 214.95 292.756 218.556C292.343 222.099 291.411 227.135 290.625 230.069C290.252 231.46 289.992 232.646 290.046 232.706C290.1 232.765 291.098 232.754 292.262 232.681C293.427 232.607 294.38 232.611 294.38 232.691C294.38 232.769 293.077 233.709 291.485 234.78C278.118 243.772 270.384 245.951 262.168 243.04C260.723 242.528 260.058 242.395 259.998 242.605C259.66 243.785 259.17 250.745 259.17 254.361C259.17 260.655 259.879 265.397 261.487 269.864C263.187 274.586 265.874 277.744 268.665 278.302C271.488 278.866 274.512 275.948 275.722 271.493L276.022 270.387L277.274 271.912C279.056 274.082 280.357 274.659 283.08 274.488C284.895 274.374 285.377 274.23 287.102 273.285C291.991 270.608 295.622 265.123 296.158 259.605C296.25 258.659 296.426 257.884 296.549 257.884C296.672 257.884 297.76 258.968 298.968 260.293C300.574 262.055 301.364 263.157 301.909 264.395C303.807 268.706 303.787 273.513 301.843 280.347C301.581 281.271 301.563 281.587 301.776 281.594C301.932 281.599 303.07 281.705 304.305 281.829C306.816 282.081 308.495 282.689 310.649 284.127C312.135 285.118 316.12 288.756 316.12 289.121C316.12 289.231 315.562 289.144 314.879 288.926C314.035 288.657 312.507 288.524 310.094 288.508C305.814 288.482 304.151 288.915 300.169 291.096C297.661 292.469 293.08 295.85 293.08 296.327C293.08 296.455 294.606 297.41 296.471 298.448C299.365 300.059 300.877 300.703 304.506 301.868L305.061 302.047L304.269 302.907C303.086 304.193 301.894 304.759 299.681 305.086C298.585 305.247 297.688 305.493 297.688 305.631C297.688 305.976 299.253 308.122 300.145 309.001C301.3 310.137 303.511 311.422 306.064 312.437C307.356 312.952 308.457 313.421 308.511 313.48C308.565 313.539 307.002 314.475 305.039 315.558C303.075 316.642 301.469 317.639 301.469 317.773C301.469 318.261 303.107 321.964 303.861 323.18C304.908 324.869 307.034 327.312 308.286 328.264L309.314 329.045L308.64 329.55C306.251 331.341 302.312 332.892 300.151 332.892C298.43 332.892 298.397 332.94 298.397 335.421C298.397 339.109 299.387 342.245 301.257 344.481L302.198 345.606L301.42 345.88C298.391 346.946 294.94 346.882 290.482 345.679C288.923 345.258 287.616 344.947 287.579 344.988C287.542 345.029 288.051 346.092 288.71 347.349C290.409 350.592 290.933 352.454 290.86 354.978L290.834 355.837L290.053 355.181C288.839 354.16 287.583 353.689 286.003 353.663C283.417 353.62 280.762 355.464 280.145 357.733C279.884 358.692 279.917 358.868 280.633 360.314C281.056 361.168 281.345 361.928 281.277 362.003C280.953 362.36 278.802 360.695 277.401 359.001C276.541 357.963 275.778 357.113 275.704 357.113C275.631 357.113 275.149 358.079 274.635 359.259C272.678 363.757 269.017 366.476 264.904 366.486L263.669 366.489L264.727 365.414L264.728 365.414ZM139.993 361.622C139.927 361.362 139.803 360.681 139.715 360.108C139.515 358.808 138.237 355.724 137.227 354.106C136.807 353.434 135.786 352.092 134.958 351.125C134.117 350.141 133.453 349.131 133.453 348.832C133.453 348.142 134.487 346.793 135.425 346.258C136.402 345.701 138.339 345.703 139.3 346.261C140.192 346.78 141.243 348.664 142.013 351.123C142.435 352.471 142.543 353.399 142.547 355.681C142.547 358.405 142.515 358.615 141.823 359.96C141.422 360.738 140.873 361.537 140.603 361.735C140.168 362.053 140.097 362.04 139.993 361.622V361.622ZM106.592 360.299C105.902 359.27 105.332 357.32 105.332 355.986C105.332 352.44 108.024 346.389 110.007 345.475C111.92 344.595 114.469 345.545 115.376 347.477C115.929 348.655 115.798 349.101 114.613 350.081C110.851 353.191 108.935 355.913 107.312 360.449L107.097 361.051L106.592 360.299V360.299ZM238.344 358.089C238.166 357.624 238.02 356.416 238.02 355.406C238.02 353.812 238.134 353.313 238.893 351.63C239.935 349.316 241.798 346.811 243.538 345.386C244.541 344.565 245.004 344.352 245.783 344.357C247.948 344.37 249.673 345.959 249.897 348.148L250.014 349.292L247.972 350.327C244.033 352.324 241.079 354.895 239.502 357.699C239.119 358.379 238.775 358.936 238.737 358.936C238.699 358.936 238.522 358.555 238.344 358.089V358.089ZM129.081 352.321C126.907 351.563 125.577 350.276 124.23 347.626L123.446 346.083L122.656 347.875C122.221 348.86 121.628 349.951 121.338 350.298C120.504 351.298 119.082 351.892 117.507 351.898L116.095 351.905L116.976 351.104C117.788 350.367 117.856 350.199 117.851 348.956C117.838 345.481 115.063 342.718 111.61 342.74C109.691 342.752 108.365 343.374 107.233 344.792L106.305 345.953L105.798 344.858C104.963 343.055 105.379 341.932 107.435 340.438C107.952 340.062 107.966 339.98 107.684 338.946C107.368 337.783 107.366 337.782 105.693 338.292C105.316 338.406 105.371 338.251 105.978 337.49C107.314 335.813 107.527 333.259 106.515 331.072C105.228 328.29 101.972 326.744 99.4478 327.713C98.3834 328.122 98.2865 327.835 99.108 326.706C100.027 325.442 101.593 324.512 104.319 323.61C105.526 323.21 106.514 322.818 106.514 322.739C106.514 322.66 105.69 322.256 104.682 321.841C103.675 321.427 102.765 321.005 102.659 320.905C102.552 320.805 102.951 320.663 103.542 320.589C106.781 320.187 107.269 314.213 104.298 311.339C103.818 310.874 103.296 310.491 103.138 310.486C102.521 310.469 103.727 309.946 104.963 309.694C107.479 309.181 110.277 310.125 113.112 312.443L114.63 313.685L118.429 313.537C120.572 313.454 122.836 313.219 123.622 312.998C134.746 309.873 139.697 298.191 139 276.716L138.837 271.718L137.622 272.258C132.021 274.749 128.964 275.581 125.38 275.589C121.63 275.598 118.364 274.755 114.666 272.825L113.249 272.085L115.73 271.898C123.341 271.323 128.581 268.941 134.453 263.386C135.588 262.313 136.483 261.398 136.442 261.353C136.402 261.308 133.665 260.448 130.362 259.442C127.058 258.436 124.263 257.581 124.151 257.543C124.039 257.505 125.368 257.087 127.105 256.613C134.554 254.583 140.975 251.136 146.45 246.226C147.425 245.352 149.658 243.09 151.413 241.2C159.382 232.613 168.095 226.417 178.167 222.172L181.233 220.88L185.656 222.497L190.078 224.114L189.979 226.219C189.768 230.729 190.991 234.114 194.04 237.456C195.527 239.085 196.432 239.822 198.083 240.744C199.252 241.398 200.635 242.074 201.155 242.245C201.674 242.417 202.234 242.605 202.399 242.662C202.569 242.721 201.89 243.617 200.827 244.736C196.316 249.486 193.402 256.32 191.311 267.058L190.767 269.851L190.053 269.124C188.37 267.409 186.409 266.699 183.372 266.708C178.427 266.723 172.815 269.509 168.16 274.26C165.845 276.623 165.255 277.914 165.409 280.282C165.543 282.349 166.004 283.385 167.506 284.998C169.136 286.748 170.8 287.399 173.27 287.255C175.561 287.121 176.638 286.573 178.373 284.661C179.978 282.892 181.25 280.695 181.804 278.736C182.049 277.87 182.33 277.161 182.428 277.16C182.715 277.155 184.726 280.289 185.435 281.845C186.395 283.951 187.064 286.123 187.649 289.03L188.168 291.612L189.699 291.809C192.694 292.193 195.875 291.505 201.581 289.239C203.245 288.578 204.663 288.099 204.732 288.175C204.802 288.252 204.324 289.186 203.672 290.251C201.113 294.43 197.82 296.723 192.116 298.298C190.394 298.773 188.985 299.225 188.985 299.302C188.985 299.379 189.946 300.069 191.121 300.835C192.295 301.602 193.795 302.763 194.454 303.415C196.106 305.052 197.82 307.832 198.638 310.199C199.387 312.366 200.171 315.968 200.047 316.673C199.997 316.962 199.313 316.118 198.09 314.261C195.439 310.235 192.637 307.221 190.403 305.99C187.729 304.519 183.789 303.839 181.216 304.406L180.478 304.569V307.258C180.478 308.737 180.595 310.569 180.739 311.328C181.098 313.229 182.209 315.729 183.325 317.15C183.838 317.804 184.258 318.433 184.258 318.548C184.258 319.019 180.346 320 178.469 320C176.843 320 176.364 319.887 175.042 319.193C174.198 318.749 172.656 317.671 171.616 316.798C170.576 315.924 169.692 315.316 169.65 315.445C169.509 315.886 171.017 322.985 171.573 324.49C172.275 326.396 173.124 327.876 174.284 329.22L175.199 330.281L174.353 330.465C172.83 330.797 169.315 330.642 167.909 330.181C167.17 329.938 165.591 329.093 164.401 328.302C163.211 327.511 162.184 326.923 162.119 326.995C161.924 327.21 162.993 333.415 163.457 334.759C163.692 335.442 164.278 336.591 164.757 337.312C165.551 338.502 165.591 338.639 165.196 338.817C164.958 338.925 162.849 339.013 160.509 339.013C154.876 339.013 153.102 338.535 147.039 335.382C145.503 334.584 144.213 333.968 144.172 334.013C144.131 334.058 144.734 335.132 145.511 336.399C146.289 337.666 147.048 339.157 147.199 339.711C147.556 341.025 147.163 342.98 146.217 344.602C145.326 346.13 143.354 348.234 143.212 347.809C143.153 347.634 142.722 346.848 142.252 346.063C141.13 344.184 139.737 343.449 137.351 343.475C134.662 343.505 132.385 345.072 131.455 347.534C130.806 349.251 130.958 350.048 132.203 351.44L133.316 352.686L131.671 352.668C130.766 352.659 129.6 352.503 129.08 352.322L129.081 352.321ZM90.9765 339.97C91.0454 339.136 91.3374 337.943 91.6261 337.319C93.2996 333.704 99.0781 329.454 101.726 329.892C103.496 330.185 104.926 332.019 104.902 333.965C104.88 335.678 104.642 335.892 102.332 336.264C98.47 336.887 95.1135 338.315 92.5773 340.416C91.8664 341.004 91.1873 341.486 91.0682 341.486C90.9473 341.486 90.9071 340.814 90.9764 339.97H90.9765ZM235.204 339.236C234.998 338.644 235.277 337.143 235.853 335.756C237.25 332.385 243.68 327.774 246.24 328.307C247.538 328.578 248.532 329.431 249.05 330.721C249.564 332.003 249.523 333.49 248.957 334.086C248.79 334.261 247.49 334.603 246.068 334.844C241.959 335.542 238.829 336.802 236.722 338.606C235.508 339.645 235.367 339.703 235.204 339.236H235.204ZM90.1637 323.127C89.8205 319.885 92.6276 315.922 97.0796 313.365C99.4034 312.031 100.455 311.843 101.837 312.516C103.134 313.149 103.939 314.338 104.094 315.851C104.283 317.702 103.862 318.146 101.542 318.537C97.2732 319.257 93.7667 320.803 91.3568 323.026L90.2603 324.037L90.1631 323.127H90.1637ZM203.755 240.523C200.22 239.689 197.096 237.762 194.893 235.054C192.401 231.99 191.633 228.381 192.429 223.471L192.583 222.526L184.303 219.484L176.024 216.443L175.652 215.242C175.448 214.581 175.319 213.999 175.365 213.948C175.449 213.855 193.654 216.875 194.539 217.129C194.974 217.254 196.987 219.979 199.243 223.498C202.02 227.83 205.715 235.127 207.259 239.327L207.857 240.955L206.633 240.933C205.96 240.922 204.665 240.737 203.755 240.522V240.523ZM111.672 236.451C109.488 234.618 108.32 230.273 108.861 225.99C109.341 222.187 110.506 220.64 112.892 220.64C114.589 220.64 116.675 221.956 116.675 223.026C116.675 223.286 116.14 224.526 115.486 225.781C113.775 229.066 113.081 231.62 113.043 234.767C113.025 236.163 112.942 237.306 112.853 237.307C112.765 237.307 112.234 236.922 111.672 236.451ZM133.166 229.418C133.296 226.189 132.809 223.717 131.325 220.086C130.435 217.908 130.387 217.675 130.707 217.136C131.574 215.677 134.504 215.103 136.037 216.092C137.237 216.866 137.705 217.749 137.957 219.709C138.214 221.708 137.924 225.105 137.341 226.926C136.766 228.72 135.625 230.455 134.458 231.307C133.861 231.743 133.301 232.1 133.215 232.1C133.128 232.1 133.106 230.893 133.166 229.418H133.166ZM118.811 224.267C119.233 223.398 118.854 221.844 117.933 220.656C116.732 219.111 115.497 218.494 113.312 218.35C111.685 218.243 111.345 218.306 110.192 218.927C109.481 219.311 108.619 219.991 108.277 220.439C107.453 221.519 107.156 221.052 107.315 218.924L107.434 217.338L106.603 216.901C105.771 216.464 105.332 216.515 105.332 217.05C105.332 217.207 105.06 217.729 104.728 218.209C104.103 219.112 102.903 219.906 101.669 220.234L100.96 220.422L101.476 219.815C102.201 218.962 102.513 217.914 102.531 216.271C102.561 213.443 100.613 210.735 97.9846 209.956C97.4768 209.805 97.0612 209.623 97.0612 209.551C97.0612 209.479 97.2929 209.075 97.5762 208.652C97.8594 208.23 98.0449 207.834 97.9882 207.772C97.9314 207.709 96.7695 207.527 95.4056 207.366C92.6739 207.045 89.9478 206.318 88.5735 205.545C87.4419 204.909 86.324 203.512 85.9517 202.269C85.6255 201.179 85.7257 197.343 86.0994 196.608C86.3134 196.187 86.4533 196.24 87.6624 197.194C88.6866 198.002 89.2084 198.242 89.9428 198.242C91.7261 198.242 93.5303 196.936 94.5229 194.926C95.4265 193.096 95.5417 191.891 94.9867 190.079L94.5234 188.567L95.1425 188.277C95.4829 188.118 96.5591 187.983 97.534 187.979C99.9275 187.968 101.362 188.681 103.094 190.743C104.809 192.784 105.353 193.992 105.922 197.027C106.039 197.653 106.371 197.926 108.108 198.823C110.754 200.189 112.131 200.579 114.322 200.583L116.105 200.586L117.631 198.313C122.093 191.664 127.619 185.415 134.111 179.677L136.306 177.737L138.365 177.559C141.229 177.311 145.727 176.278 148.748 175.173C153.205 173.543 159.688 169.76 163.659 166.471L164.441 165.824L164.887 166.471C165.596 167.503 166.916 170.63 167.743 173.239C168.49 175.597 168.497 175.66 168.095 176.481C167.687 177.317 167.689 177.324 168.543 178.93C170.06 181.784 170.105 183.967 168.756 189.232C165.823 200.667 156.709 207.144 141.015 208.944C139.52 209.115 138.217 209.333 138.119 209.428C138.021 209.523 138.417 210.215 138.999 210.967C140.436 212.821 140.742 213.998 140.198 215.567L139.784 216.762L139.255 215.971C136.577 211.971 130.367 212.332 128.494 216.596L127.961 217.808L128.919 220.071L129.876 222.333L128.773 222.415C126.485 222.585 124.48 221.355 124.047 219.517C123.921 218.981 123.711 218.695 123.454 218.709C121.539 218.813 121.702 218.656 121.595 220.507C121.486 222.378 121.059 223.239 119.749 224.222C118.776 224.952 118.472 224.967 118.811 224.267L118.811 224.267ZM86.4274 222.644C86.4274 219.427 89.1873 215.808 93.4599 213.423C95.9464 212.036 96.9173 211.904 98.4058 212.751C99.523 213.387 100.361 214.928 100.366 216.358C100.366 218.001 100.096 218.201 96.9784 218.807C95.4382 219.107 93.3492 219.704 92.3364 220.135C90.5617 220.889 87.8368 222.628 87.5062 223.217C87.4177 223.374 87.1397 223.624 86.8869 223.773C86.4583 224.026 86.4274 223.95 86.4274 222.644V222.644ZM88.1998 194.703C85.2536 192.244 82.0237 190.666 78.9275 190.173C78.0487 190.033 77.1781 189.916 76.993 189.913C76.3355 189.903 77.6988 188.67 79.1798 187.935C82.0381 186.516 87.4 186.818 90.8419 188.59C92.4669 189.427 93.0442 190.288 93.0442 191.874C93.0442 193.76 91.8218 195.484 90.2873 195.764C89.7619 195.86 89.3124 195.631 88.1998 194.703V194.703ZM172.142 187.759C171.886 178.256 170.341 171.871 166.609 164.905C165.88 163.544 165.251 162.387 165.21 162.332C165.17 162.278 164.202 162.997 163.06 163.93C159.706 166.67 157.412 168.226 153.899 170.145C146.904 173.966 140.232 175.572 132.744 175.237C129.932 175.111 125.273 174.468 125.001 174.168C124.964 174.128 125.862 173.709 126.995 173.237C133.247 170.637 140.73 165.227 145.467 159.884L146.729 158.46L146.355 157.662C146.149 157.224 145.884 156.798 145.765 156.718C145.646 156.637 144.584 156.918 143.405 157.343C139.877 158.613 137.538 158.989 134.044 158.845C132.3 158.773 130.359 158.534 129.554 158.292C127.938 157.806 123.035 155.183 122.481 154.508C122.139 154.091 122.243 153.998 123.943 153.191C127.901 151.312 131.503 148.956 134.989 145.967C138.286 143.14 140.29 140.968 143.924 136.283C148.025 130.996 150.357 128.441 153.353 125.953C162.561 118.308 174.212 113.961 190.64 112.042C193.124 111.752 195.246 111.514 195.356 111.514C195.465 111.514 195.593 110.982 195.64 110.331L195.726 109.147L192.77 108.124C188.386 106.608 186.054 106.037 183.543 105.867C180.825 105.684 177.998 106.23 175.876 107.349C175.098 107.759 174.435 108.065 174.403 108.029C174.237 107.847 174.873 106.099 175.423 105.225C176.971 102.764 181.563 100.669 188.75 99.1443C191.862 98.4844 191.59 98.7607 191.426 96.4256C191.348 95.305 191.361 94.0517 191.456 93.6405C191.624 92.9109 191.644 92.9307 192.288 94.4553C194.196 98.975 198.765 101.37 203.258 100.206C205.624 99.5936 207.528 98.3839 209.487 96.2489C211.428 94.1343 212.364 92.2309 212.599 89.9192C213.391 82.1548 206.234 76.3066 192.326 73.352C190.607 72.9868 190.573 72.9904 189.575 73.6351C188.548 74.2981 186.558 76.4563 186.337 77.1475C186.058 78.0141 185.791 76.9395 185.714 74.65C185.643 72.5183 185.575 72.1866 185.181 72.0488C184.486 71.8055 183.341 70.6518 182.898 69.7472C182.575 69.0872 182.485 68.0385 182.425 64.2438C182.355 59.832 182.315 59.4761 181.747 58.2028C180.96 56.4349 181.129 55.5555 182.549 54.0344C185.264 51.1266 192.58 48.4397 203.812 46.2257L207.413 45.5158L207.657 44.7009C208.024 43.4752 209.187 42.3241 210.685 41.7034C211.423 41.3979 213.621 40.916 215.571 40.6324C220.32 39.9417 221.1 39.7315 222.069 38.8796C223.915 37.2577 224.651 34.7358 224.836 29.399L224.97 25.5469L226.143 27.3154C228.904 31.4783 229.95 34.9573 229.905 39.8395C229.884 42.3129 229.944 42.998 230.167 42.8482C230.327 42.7414 231.195 42.0769 232.095 41.3714C235.001 39.0936 238.719 37.3093 242.864 36.2025C243.613 36.0026 245.467 35.8579 247.236 35.8611C249.925 35.8666 250.455 35.9408 251.49 36.4611C252.923 37.1818 253.897 38.1632 254.345 39.3382C254.787 40.4974 254.771 43.4587 254.312 45.4543C253.845 47.4818 251.572 52.714 249.942 55.5157C248.712 57.6281 248.695 57.6856 248.956 58.7627C250.151 63.6871 252.52 67.2706 256.555 70.26L258.075 71.386L256.791 72.0446C254.991 72.9682 253.851 72.9104 251.839 71.7934C250.932 71.2903 250.191 70.9679 250.191 71.0772C250.191 71.1865 250.567 72.8419 251.026 74.756C253.006 83.0218 253.572 88.0752 253.598 97.7108C253.61 101.793 253.527 106.278 253.417 107.676L253.218 110.219L252.053 109.109C250.212 107.353 248.547 106.305 247.602 106.306C246.723 106.307 245.228 107.137 245.228 107.624C245.228 107.78 245.02 109.452 244.766 111.339C242.778 126.097 242.902 140.459 245.134 153.664C245.336 154.859 245.442 155.901 245.37 155.981C245.175 156.195 240.835 155.602 239.202 155.138C234.82 153.892 231.362 150.895 228.707 146.041C227.873 144.517 227.117 143.362 227.027 143.475C226.555 144.064 225.76 149.939 225.664 153.55C225.482 160.409 226.68 165.645 229.773 171.515C232.685 177.039 238.145 183.394 244.167 188.266L244.874 188.838L243.101 188.706C232.087 187.887 227.427 186.746 223.179 183.827C219.854 181.543 217.677 178.742 215.209 173.573L213.938 170.912L213.015 172.662C210.87 176.724 210.254 179.292 210.254 184.167C210.254 185.892 210.157 187.303 210.04 187.303C209.431 187.303 205.832 184.252 203.743 181.964C200.672 178.6 198.334 175.118 194.552 168.275L191.493 162.739L191.205 163.757C191.047 164.317 190.525 166.18 190.045 167.898C187.526 176.916 183.03 183.661 174.771 190.809C173.523 191.889 172.451 192.773 172.39 192.773C172.329 192.773 172.217 190.517 172.143 187.759H172.142ZM208.969 60.84C209.587 60.6351 211.059 60.4535 212.241 60.4366C213.736 60.4151 214.173 60.3454 213.68 60.2069C212.393 59.8461 209.577 59.9247 208.659 60.3471C207.697 60.7902 206.945 61.4497 206.945 61.8503C206.945 61.9936 207.148 61.9087 207.395 61.6617C207.643 61.4147 208.351 61.0449 208.969 60.84V60.84ZM209.899 59.1438C211.335 58.7026 216.784 58.1605 220.178 58.1212C220.994 58.1113 220.984 58.0989 219.469 57.1886C216.187 55.2163 211.124 53.8881 208.539 54.3213C207.608 54.4771 207.351 54.6457 207.044 55.2989C206.841 55.7331 206.725 56.1448 206.788 56.2139C206.85 56.283 206.969 56.1076 207.05 55.8242C207.257 55.1077 208.693 54.4013 209.531 54.6042C212.074 55.2198 211.175 59.1652 208.492 59.1652C207.7 59.1652 206.937 58.3803 206.714 57.3358L206.521 56.4305L206.498 57.3421C206.467 58.5411 207.288 60.0572 207.841 59.8231C208.063 59.729 208.989 59.4234 209.899 59.1438H209.899ZM222.423 57.1904C218.037 53.1447 216.259 52.2968 211.199 51.8371C208.039 51.55 206.945 51.1963 206.945 50.4613C206.945 49.8223 208.476 48.6011 209.913 48.094C211.612 47.4948 211.065 47.2633 209.212 47.7967C207.478 48.2958 205.852 49.3654 205.417 50.2939C205.096 50.9778 205.106 51.0938 205.546 51.7099C206.135 52.5348 207.116 52.8197 210.017 53.0079C214.198 53.2792 217.732 54.4454 221.124 56.6728C223.152 58.005 223.424 58.1133 222.423 57.1904V57.1904ZM208.717 56.4341C208.717 55.8382 207.924 55.5583 207.645 56.0557C207.353 56.5769 207.668 57.1163 208.216 57.0303C208.535 56.9801 208.717 56.763 208.717 56.4341V56.4341ZM139.243 126.606C128.97 124.873 122.046 117.535 117.386 103.442C116.841 101.796 116.35 100.368 116.294 100.269C116.238 100.169 115.69 100.683 115.075 101.411C114.461 102.139 113.615 102.893 113.197 103.087C112.176 103.562 110.319 103.534 109.219 103.028L108.323 102.615L109.051 101.865C110.482 100.391 110.91 97.1736 109.949 95.1245C108.947 92.9888 106.566 91.3546 104.529 91.4042C103.572 91.4275 103.24 91.573 102.611 92.2451C101.721 93.196 101.5 92.9338 101.778 91.2576C102.065 89.528 102.51 88.9951 104.581 87.9044C104.622 87.8825 104.529 87.3965 104.373 86.8244L104.09 85.7841L102.289 85.9135C101.191 85.9924 100.211 85.9244 99.779 85.738C99.1098 85.4504 99.0967 85.4177 99.5427 85.1556C100.953 84.3267 101.906 82.671 102.153 80.6178C102.462 78.048 101.237 75.5358 99.07 74.2958C98.4201 73.924 97.8449 73.5911 97.7915 73.5562C97.7379 73.5213 97.8985 73.241 98.1459 72.9334C98.8255 72.0917 100.353 71.4181 101.596 71.4117C102.839 71.4051 102.89 71.3601 103.004 70.1506C103.084 69.3156 103.042 69.2697 101.824 68.8152C101.13 68.5563 100.39 68.1543 100.179 67.9219C99.8255 67.5321 99.8434 67.4993 100.411 67.4993C101.344 67.4993 103.223 65.9627 104.007 64.5577C104.875 63.0027 105.077 61.0279 104.544 59.3042L104.174 58.1044L105.048 58.2835C105.529 58.3819 106.838 58.8364 107.955 59.2933L109.988 60.1241L109.965 55.5426L109.942 50.9611L110.651 49.5476C111.318 48.2172 113.165 46.4946 113.604 46.7935C113.696 46.8558 113.908 47.9657 114.076 49.26L114.382 51.6133L115.436 52.3821C118.134 54.352 121.935 53.4135 124.004 50.2668L124.663 49.2637L125.939 50.4093C129.158 53.2993 130.176 56.4933 128.867 59.5921C127.818 62.075 125.543 64.2432 122.827 65.3477L121.533 65.8738L120.839 68.0539C120.288 69.784 120.142 70.6909 120.133 72.4477C120.113 76.1026 120.093 76.0741 125.139 80.2088C127.568 82.1994 133.543 87.0296 138.417 90.9427C152.324 102.108 160.035 108.712 165.086 113.783L166.587 115.291L164.377 116.301C159.641 118.465 155.126 121.369 151.178 124.788L148.933 126.732L144.797 126.788C142.523 126.819 140.024 126.737 139.244 126.606L139.243 126.606ZM96.1163 103.798C94.9374 103.547 93.8569 103.097 93.1829 102.575L92.4948 102.043L93.892 101.597C97.0272 100.595 99.4387 98.9681 102.346 95.8917C104.547 93.5635 104.863 93.4515 106.411 94.4516C108.469 95.7806 108.92 98.5494 107.346 100.185C105.212 102.403 98.9823 104.407 96.1163 103.798ZM172.922 91.4463C165.488 90.4188 162.217 86.3234 162.579 78.4956C162.698 75.9186 162.795 75.5898 163.301 76.0531C164.783 77.4083 170.381 80.1714 173.894 81.2813C180.156 83.26 183.551 83.6492 195.839 83.7963C201.492 83.864 206.779 83.9842 207.587 84.0634C208.942 84.1962 209.094 84.2752 209.55 85.0898C209.823 85.5752 210.138 86.3281 210.251 86.763C210.457 87.5534 210.457 87.5535 209.469 87.5547C207.8 87.5569 195.731 89.2414 193.525 89.7804C193.077 89.8899 192.921 89.7452 192.614 88.9346L192.243 87.9567L191.769 88.6016C191.508 88.9562 191.157 89.4623 190.988 89.7262C190.764 90.079 190.099 90.3001 188.476 90.562C182.844 91.4707 175.938 91.8633 172.922 91.4463V91.4463ZM84.0644 83.1176C84.0644 82.4264 84.7961 81.0714 85.7134 80.064C88.4987 77.0047 95.9542 74.9754 98.3682 76.6196C99.868 77.6413 100.415 79.9642 99.5768 81.7511C98.9691 83.0463 98.6259 83.1284 96.1163 82.5786C93.5971 82.0268 89.0489 81.8878 87.3726 82.3114C86.7878 82.4592 85.8441 82.7615 85.2754 82.9833C84.049 83.4614 84.0644 83.4597 84.0644 83.1176ZM97.7642 63.942C94.3298 61.5825 91.5976 60.5201 88.365 60.2872L86.1672 60.1288L86.9472 59.2335C88.6911 57.2319 91.6756 56.4045 95.6478 56.8216C99.6648 57.2435 101.773 58.1785 102.393 59.8136C102.852 61.0248 102.822 61.6634 102.243 62.9798C101.774 64.0482 100.563 65.1554 99.8632 65.1554C99.6801 65.1554 98.7357 64.6094 97.7642 63.942ZM117.388 50.7571C116.568 50.4419 116.562 50.4263 116.052 47.6568C115.218 43.1325 114.326 40.9109 112.293 38.2914L111.211 36.8972L112.18 36.8166C115.478 36.5424 119.818 40.1561 122.022 45.0096C122.981 47.1227 122.966 47.9447 121.943 49.2839C120.849 50.7175 118.912 51.3438 117.387 50.7571H117.388Z" fill="#DA121A"/>
</g>
<defs>
<clipPath id="clip0_1_5017">
<rect width="600" height="400" fill="white"/>
</clipPath>
</defs>
</svg>
