<svg width="600" height="400" viewBox="0 0 600 400" fill="none" xmlns="http://www.w3.org/2000/svg" xmlns:cgf="https://coding.garden/flags"><metadata id="cgf-metadata">

<cgf:flag>
  <cgf:name>Geldrop-Mierlo</cgf:name>
  <cgf:route>nl/nb/geldrop_mierlo</cgf:route>
  <cgf:aspect-ratio>1.5</cgf:aspect-ratio>
</cgf:flag>

</metadata><g clip-path="url(#clip0_1_5025)">
<path d="M0.401367 -2.87988V403.84H603.163V-2.87988H0.401367V-2.87988Z" fill="#0752A5"/>
<path d="M208.052 -3.50781V200.023H604.038V-3.50781H208.052V-3.50781Z" fill="#FFE631"/>
<path d="M0.203613 199.89V403.632H208.019V199.89H0.203613V199.89Z" fill="#FFE631"/>
<path d="M88.2111 44.0309C89.4732 49.7427 89.8064 54.1033 89.5896 57.8913C87.8804 87.7515 118.616 82.5524 114.763 54.6306C114.307 51.3244 114.02 47.9502 114.811 45.1434C118.426 22.6578 145.748 31.1627 158.107 44.337C189.032 78.4806 162.098 143.723 123.919 161.072C107.778 168.406 89.7303 169.158 73.856 158.215C30.8087 128.913 23.6263 78.2268 39.7254 51.6232C52.5503 30.4302 83.5616 24.1066 88.2111 44.0309Z" fill="#FFE631"/>
<path d="M43.9609 359.447V365.669H75.9395C72.3083 344.398 80.389 329.482 91.3536 316.129L83.5315 304.609L93.4241 293.549C81.0706 276.805 73.4673 260.062 76.3996 243.318H44.6511V249.54H50.8628C51.6032 267.514 60.8794 284.609 78.4701 297.005L81.4609 303.457L76.3996 311.521C61.2035 324.188 51.1361 339.423 50.6327 359.447H43.9609Z" fill="#D40000"/>
<path d="M154.275 359.102V365.323H122.297C125.928 344.053 117.847 329.136 106.883 315.784L114.705 304.263L104.812 293.203C117.166 276.46 124.769 259.716 121.837 242.973H153.585V249.194H147.373C146.633 267.168 137.357 284.263 119.766 296.659L116.775 303.111L121.837 311.175C137.033 323.842 147.1 339.077 147.603 359.102H154.275Z" fill="#D40000"/>
<path d="M129.546 303.96L98.71 273.154L68.1145 303.875L98.9505 334.68L129.546 303.96Z" fill="#D40000"/>
<path d="M110.546 303.678L98.2466 289.747L86.0427 303.639L98.3425 317.57L110.546 303.678Z" fill="#FEE63B"/>
</g>
<defs>
<clipPath id="clip0_1_5025">
<rect width="600" height="400" fill="white"/>
</clipPath>
</defs>
</svg>
