<svg width="600" height="400" viewBox="0 0 600 400" fill="none" xmlns="http://www.w3.org/2000/svg" xmlns:cgf="https://coding.garden/flags"><metadata id="cgf-metadata">

<cgf:flag>
  <cgf:name>Gemert-Bakel</cgf:name>
  <cgf:route>nl/nb/gemert_bakel</cgf:route>
  <cgf:aspect-ratio>1.5</cgf:aspect-ratio>
</cgf:flag>

</metadata><g clip-path="url(#clip0_1_5034)">
<path d="M-0.149414 -0.133789V406.913H602.614V-0.133789H-0.149414V-0.133789Z" fill="white"/>
<path d="M261.225 0.625V145.138H605.242V0.625H261.225V0.625Z" fill="#DA121A"/>
<path d="M259.532 261.642V406.155H603.549V261.642H259.532Z" fill="#DA121A"/>
<path d="M0.820801 0.837891V404.246H202.257V0.837891H0.820801V0.837891Z" fill="black"/>
<path d="M0.768555 254.176V404.299H143.924V254.176H0.768555V254.176Z" fill="white"/>
<path d="M0.221191 0.148438V150.272H143.377V0.148438H0.221191V0.148438Z" fill="#FCDD09"/>
<path d="M68.2293 144.518C66.4731 142.125 65.8362 140.406 65.6354 137.515L65.4633 135.037L64.6733 136.143C64.2309 136.763 62.7206 138.046 61.2418 139.06C58.3908 141.014 57.0198 142.301 56.298 143.7C56.0457 144.188 55.751 144.588 55.6428 144.588C55.2973 144.588 54.7339 140.442 54.9408 139.423C55.2531 137.884 55.981 136.823 59.1974 133.217C63.8236 128.03 65.0622 126.202 66.1425 122.962C66.8179 120.937 67.2079 117.192 66.8361 116.302C66.6091 115.759 66.4946 115.837 65.2431 117.4C63.877 119.106 61.8633 120.816 59.7629 122.056C58.7791 122.637 58.4526 123.086 57.549 125.1C55.6212 129.398 53.3302 131.62 50.1956 132.232C48.0726 132.646 45.9477 133.667 45.1604 134.651C44.7894 135.115 44.2625 136.152 43.9896 136.956C43.3159 138.941 43.0453 138.216 43.2187 134.888L43.3531 132.31L42.1906 132.798C40.5071 133.505 37.99 133.435 34.5618 132.585L31.6848 131.872L34.0625 131.531C35.4529 131.332 37.0791 130.892 37.9786 130.472C40.1247 129.469 42.3971 127.253 43.6622 124.929C45.2642 121.985 46.9663 120.964 50.2951 120.952H51.8249L50.6884 120.474C49.5544 119.997 48.6343 119.229 48.9016 118.982C48.9791 118.91 49.6971 118.982 50.4969 119.14C53.6478 119.764 57.4576 118.176 61.5505 114.531C63.9387 112.404 63.9894 112.336 62.764 112.891C60.8143 113.773 57.4464 113.715 55.4823 112.764C51.6702 110.919 50.2463 107.877 51.7702 104.832L52.4184 103.537L52.9103 104.727C54.5636 108.728 58.4053 108.234 62.4847 103.496C63.833 101.931 67.1685 96.3252 66.8997 96.0768C66.8389 96.0224 66.5324 96.1032 66.2168 96.26C65.3739 96.6768 63.1494 96.6057 62.1537 96.1292L61.2874 95.7152L62.4576 95.1802C64.6127 94.195 66.8311 91.105 67.2079 88.5638C67.3031 87.9211 67.2913 86.5008 67.1795 85.4076L66.9779 83.4201L65.6522 84.2484C64.9231 84.7039 63.2363 86.091 61.9039 87.331C58.3151 90.67 56.5586 94.0373 55.9379 98.7679C55.7679 100.064 55.5848 101.164 55.5309 101.214C55.477 101.263 54.6947 100.351 53.7922 99.1864C52.8898 98.0215 52.0777 97.0694 51.988 97.0705C51.8978 97.0705 48.0527 99.6497 43.4427 102.799C34.0322 109.229 34.0548 109.205 36.0252 110.668C37.2943 111.611 37.6935 111.666 39.3228 111.123C41.0239 110.557 42.2246 110.623 42.9833 111.324C43.5359 111.834 43.6636 112.306 43.8255 114.436C44.0494 117.38 43.7451 118.331 42.1674 119.611C41.0787 120.494 40.1999 120.757 40.9725 119.968C41.7667 119.157 42.3634 117.519 42.185 116.641L42.0178 115.817L40.2353 115.923C38.5314 116.023 38.4125 115.99 37.5444 115.169C37.0448 114.697 36.5016 113.934 36.3369 113.473C36.1223 112.872 35.648 112.439 34.6582 111.941C32.3386 110.775 32.3613 110.747 32.3613 114.734C32.3613 117.47 32.4564 118.346 32.8054 118.806C33.0521 119.131 33.2099 119.77 33.1605 120.243C33.0899 120.919 32.8536 121.201 32.007 121.619C31.4214 121.908 30.942 122.215 30.9415 122.302C30.9415 122.861 32.4249 124.338 33.4895 124.835L34.7548 125.426H33.6291C31.2344 125.413 29.2674 123.981 28.7863 121.898C28.6851 121.459 28.476 120.955 28.3222 120.778C27.8251 120.208 28.0244 118.686 28.75 117.515C29.4405 116.4 30.5698 112.398 30.2713 112.123C30.0111 111.882 24.7297 115.598 23.8144 116.666C22.5708 118.116 21.8694 118.412 20.8307 117.923C20.3747 117.708 19.8558 117.355 19.6777 117.139C19.3934 116.794 19.2939 116.802 18.8569 117.206C18.2676 117.75 17.5863 119.176 17.5863 119.865C17.5863 120.134 17.9017 120.929 18.2869 121.633C18.6723 122.336 18.9302 122.964 18.8602 123.029C18.7905 123.094 18.1663 122.623 17.4737 121.983C16.108 120.721 15.68 119.549 16.0034 117.956C16.212 116.928 17.3311 115.564 18.167 115.319C18.4904 115.225 18.7267 114.916 18.7319 114.583C18.7564 113.095 20.0064 112.566 23.4974 112.566H26.3202L27.8363 111.45L29.3521 110.335L28.5126 110.169C26.9976 109.868 25.7129 109.929 23.7546 110.393C22.014 110.805 21.7495 110.811 21.0553 110.452C20.632 110.232 20.1188 109.732 19.915 109.341C19.4059 108.362 18.4359 108.418 17.1981 109.497C16.5231 110.085 16.0867 110.785 15.8469 111.663L15.4927 112.96L15.2424 112.07C14.5729 109.689 16.4133 106.978 18.9266 106.644C19.6741 106.544 20.4774 106.314 20.7118 106.133C21.5565 105.477 22.3694 105.444 23.7848 106.006C24.554 106.312 25.6087 106.968 26.1286 107.464C26.9615 108.258 27.2464 108.365 28.5181 108.365C29.3848 108.365 30.2227 108.196 30.6143 107.943C30.9732 107.71 34.7994 104.684 39.1171 101.217C43.4346 97.7507 47.2611 94.7907 47.6201 94.6396C48.6335 94.2129 48.4154 94.0225 46.4971 93.6588C45.5204 93.4737 44.5619 93.2464 44.3671 93.1536C44.1469 93.0482 44.8368 92.4424 46.19 91.5508C54.7514 85.9107 60.1304 77.3163 60.6859 68.3892C60.783 66.8367 60.7857 65.5666 60.6859 65.5666C60.5928 65.5666 58.6968 68.839 56.4735 72.8386C52.8002 79.4463 52.404 80.0519 52.1355 79.4684C51.9729 79.1152 51.4945 78.138 51.0722 77.2971L50.3045 75.7682L49.5279 77.0345C42.98 87.7136 37.9686 93.2322 30.4163 98.0807C27.9407 99.67 23.3514 101.799 20.4057 102.725C18.1616 103.43 18.1577 103.477 20.5773 100.751C29.6379 90.5427 37.0486 80.049 41.8081 70.6867C43.4587 67.4398 44.8319 64.2715 44.2131 65.1377C44.0206 65.4073 42.7561 67.1989 41.4028 69.119C35.8365 77.0178 29.6632 83.3541 18.8062 92.312C16.5384 94.1831 15.5547 94.5699 15.3822 93.6583C15.2824 93.1277 15.34 93.0689 18.5751 90.3897C28.2347 82.3914 34.6234 75.7679 40.1118 68.0609C42.2814 65.0145 46.8162 57.4174 46.0675 58.0834C45.9053 58.2278 44.5318 60.2364 43.0156 62.547C39.4526 67.9768 37.58 70.368 34.7126 73.1507L32.3812 75.4129L32.3665 72.6809L32.3517 69.9488L31.1764 71.6305C27.579 76.7773 24.0107 80.1008 19.5658 82.4448C16.7634 83.9226 11.8186 84.917 8.99397 84.5707L7.64369 84.4052L9.71355 82.2722C15.0958 76.7257 22.4895 68.0348 30.9623 57.2957C34.3737 52.9719 34.4479 52.8474 32.7573 54.2855C27.5338 58.7287 20.5515 63.0956 13.3635 66.415C9.23723 68.3204 8.05694 68.7624 7.68067 68.5431C7.41956 68.3908 7.20583 68.1019 7.20583 67.9011C7.20583 67.6907 9.37357 66.5291 12.3202 65.1604C18.6767 62.2083 23.8294 59.133 29.2263 55.0704C29.9182 54.5494 29.9004 54.55 28.5326 55.0967C27.7603 55.4053 26.3756 55.74 25.4558 55.8402L23.783 56.0224L23.9326 55.2148C24.014 54.7707 24.1673 53.6984 24.2714 52.8319L24.4609 51.2564L23.3631 52.1943C21.4081 53.8642 19.9387 54.4565 16.8955 54.8014C15.1616 54.9981 9.80046 54.6541 9.1162 54.3024C8.8903 54.1858 9.37231 53.8862 10.3949 53.5066C12.8882 52.5809 17.6737 50.1946 20.8307 48.3028C23.457 46.729 30.2097 42.1146 30.4818 41.7076C30.5485 41.6091 29.2377 41.8439 27.5702 42.2286C25.9026 42.6141 23.2227 43.0601 21.6147 43.2201C18.4095 43.5388 12.2103 43.6085 10.7689 43.3424C9.81174 43.1654 9.35465 42.6019 9.81959 42.1722C9.97122 42.0316 12.6872 41.8805 15.8953 41.8329C22.278 41.7372 25.3001 41.3494 29.4479 40.0904L31.9259 39.3383L28.3741 39.484C24.6909 39.635 21.4531 39.284 18.1779 38.3786L16.648 37.9557L17.9648 36.7201C18.6891 36.0405 19.2818 35.4163 19.2818 35.3326C19.2818 35.2482 18.4649 35.12 17.4663 35.0461C14.1865 34.8028 11.5181 33.202 9.47346 30.2513C8.38174 28.6759 7.26991 26.6913 7.40783 26.564C7.46176 26.5132 8.62559 26.8195 9.99283 27.2441C13.1623 28.2283 17.6146 28.7312 24.6803 28.9031C27.7276 28.9775 30.0931 28.9973 29.9369 28.9467C29.7806 28.8959 27.9265 28.3601 25.817 27.7544C18.7051 25.7126 13.4384 23.3415 8.7687 20.0801C6.66913 18.6135 6.30826 18.1728 6.7782 17.6496C7.20174 17.178 7.71523 17.3678 9.62128 18.7007C13.0612 21.1062 17.1509 23.1793 21.5605 24.7531C24.3367 25.7438 30.6736 27.5571 30.8359 27.4072C30.8948 27.3527 28.7357 25.9613 26.0365 24.3164L21.1288 21.3256L22.8271 21.1935L24.5255 21.0613L20.6961 18.5282C14.7418 14.5897 12.3341 12.5011 10.9247 10.0515C9.49916 7.57403 8.97282 7.50251 22.6026 11.6384C29.4297 13.7101 35.0663 15.3584 35.1283 15.3013C35.19 15.2441 34.9832 14.332 34.6699 13.2741C34.3561 12.2163 34.1266 11.3256 34.1599 11.2947C34.1933 11.2638 34.8996 11.9717 35.7293 12.8678C37.6023 14.8906 39.0289 15.976 43.0071 18.4042C44.7261 19.4535 46.594 20.7873 47.158 21.3683C49.2462 23.5199 49.6139 26.0797 48.2212 28.7717C47.4041 30.3514 44.1765 33.316 41.3023 35.1268C38.627 36.8125 37.8414 37.8809 38.152 39.4113C38.558 41.4111 42.3051 44.0936 45.2052 44.461C46.326 44.603 46.573 44.5345 47.4356 43.8336C49.3761 42.2591 51.9149 42.2837 54.5619 43.9026C55.2762 44.3393 55.8075 44.5211 55.8693 44.3498C56.1164 43.6649 57.2957 42.3171 58.3046 41.5668C59.2744 40.8455 59.6384 40.7455 61.5911 40.6635C62.7988 40.6127 64.2578 40.6916 64.8334 40.8384L65.88 41.1054V39.9868C65.88 38.988 66.2852 37.3953 66.8706 36.0932C67.0543 35.6848 66.8853 35.6338 65.333 35.6338C62.7035 35.6338 60.7203 34.6891 59.7564 32.9777L59.3695 32.2907L61.1331 32.9643C63.6076 33.9097 65.9407 33.9134 67.4759 32.978C68.9099 32.101 70.4872 29.9758 71.4248 27.6574L72.1564 25.8476L70.8641 26.0114C69.0402 26.2424 67.64 26.9766 66.0747 28.523C64.6287 29.9517 64.4593 30.0557 64.4593 29.5145C64.4593 27.3668 66.9628 24.1873 69.8411 22.6798L71.4206 21.8525L69.6217 21.7735C67.2692 21.6709 65.8015 22.3201 63.8216 24.3403C61.8169 26.3858 60.4767 27.0914 58.6495 27.0632C57.8598 27.0496 56.7663 26.8663 56.2193 26.6527C55.2371 26.269 53.2636 24.8899 53.4503 24.7175C53.5033 24.6685 54.1683 24.8019 54.9281 25.0127C56.6533 25.4925 58.5174 25.5043 59.7091 25.0435C60.212 24.8489 61.361 23.9127 62.2623 22.9629C64.345 20.7686 65.5606 20.287 68.5664 20.4652C69.7346 20.5342 70.6334 20.5061 70.5641 20.4035C70.4944 20.2995 69.499 19.7862 68.351 19.262C66.0833 18.2267 64.6584 18.0647 63.3444 18.6925C62.7084 18.9965 62.3648 19.0143 61.6889 18.7787C60.0804 18.2177 58.6417 19.1653 58.2187 21.0643C58.0443 21.8483 58.0419 21.8468 57.2737 20.422C55.832 17.7485 56.4911 15.6194 59.1358 14.4069C60.1499 13.942 60.9501 13.7892 62.3319 13.7965C63.7074 13.8101 64.1751 13.7148 64.1751 13.4471C64.1751 12.8849 65.341 12.2702 66.4068 12.2702C66.9396 12.2702 67.7916 12.0327 68.2999 11.7423C68.8082 11.452 69.9186 11.0857 70.7673 10.9281C72.1313 10.6751 72.6333 10.721 75.0874 11.3247C79.6157 12.4385 81.1128 12.1841 83.2479 9.93869L84.4014 8.72561L84.2122 10.421C83.9684 12.6062 83.4928 13.6251 82.3732 14.362L81.4699 14.9563L82.038 15.517C82.7844 16.2533 83.0923 17.0602 83.3408 18.9306C83.5128 20.2252 83.7237 20.6496 84.6634 21.5916C85.5736 22.504 85.6967 22.7424 85.3259 22.8741C84.5418 23.1521 83.2167 23.0511 82.376 22.6493L81.5681 22.2633L81.9838 23.5027C82.3308 24.538 82.3437 25.1132 82.0613 26.9941C81.6843 29.5046 81.9283 31.2031 82.9271 33.0112C83.6758 34.3677 83.6566 34.4158 82.5729 33.8998C81.003 33.1526 79.878 32.2401 79.5073 31.4129C79.0829 30.4662 78.869 30.6342 78.386 32.2937C78.1699 33.0363 77.5667 34.0216 76.8999 34.7218L75.7775 35.9L76.1395 38.2638L76.5015 40.6275H77.6549C79.2056 40.6412 80.8891 41.3823 82.0069 42.5589C82.5136 43.0921 82.9299 43.6128 82.9324 43.7161C82.9324 43.8187 83.0502 44.069 83.188 44.2707C83.392 44.5685 83.7262 44.4737 84.9596 43.7692C86.5033 42.8875 88.4728 42.5016 89.8267 42.8155C90.1999 42.9026 90.9918 43.3301 91.586 43.7665C92.8242 44.6759 93.5596 44.732 95.6186 44.0745C98.4441 43.1721 101.114 40.6708 101.112 38.9281C101.112 37.6281 100.21 36.6261 97.5084 34.9163C91.5144 31.1224 88.9161 26.8794 90.5269 23.5144C91.3721 21.7486 92.6099 20.6136 95.7983 18.6808C99.7424 16.2896 102.15 14.4601 103.658 12.7073C104.354 11.8978 104.959 11.2673 105.001 11.3063C105.043 11.3453 104.814 12.2366 104.492 13.287C104.171 14.3376 103.974 15.2586 104.055 15.3336C104.136 15.408 109.613 13.8036 116.225 11.7666C122.837 9.72993 128.421 8.06348 128.634 8.06348C129.159 8.06348 128.85 9.13442 127.88 10.6714C126.754 12.4573 123.802 14.9885 119.588 17.7825C113.997 21.4896 114.308 21.1727 116.243 21.183C117.141 21.183 117.875 21.2799 117.872 21.3886C117.872 21.4969 115.692 22.8721 113.034 24.4446C110.375 26.017 108.257 27.3563 108.327 27.4209C108.397 27.4853 109.583 27.2268 110.963 26.8461C118.698 24.7131 125.027 21.9528 129.449 18.7841C131.291 17.4639 132.257 17.2072 132.568 17.9552C132.786 18.4818 131.812 19.2924 128.494 21.3449C123.864 24.2089 118.992 26.2388 112.052 28.1947L108.926 29.0755L114.609 28.9231C122.968 28.699 127.191 28.1616 130.348 26.9205C131.034 26.6507 131.65 26.4799 131.716 26.5413C131.925 26.7344 130.203 29.67 129.06 31.0696C126.973 33.626 124.756 34.817 121.659 35.0467C120.673 35.1202 119.866 35.2571 119.866 35.3516C119.866 35.4458 120.44 36.045 121.143 36.6821C121.846 37.3193 122.325 37.9229 122.209 38.0233C122.092 38.1245 120.846 38.4835 119.439 38.823C117.242 39.3532 116.216 39.4391 112.148 39.4342C106.961 39.4342 106.901 39.5077 111.272 40.5914C114.855 41.4803 119.236 41.9238 124.492 41.9295C128.651 41.9295 129.283 41.9903 129.439 42.3663C129.825 43.2953 128.798 43.5102 124.002 43.5048C119.073 43.5048 114.785 43.065 111.223 42.2107C109.987 41.9141 108.922 41.7198 108.858 41.7792C108.687 41.9373 113.596 45.4038 116.882 47.4447C120.582 49.7428 124.245 51.6578 127.662 53.0798C129.175 53.7095 130.309 54.283 130.183 54.3544C130.056 54.4261 128.544 54.6208 126.822 54.7883C121.75 55.2814 118.577 54.5765 115.998 52.3844L114.67 51.2558L114.868 52.8311C114.977 53.6975 115.137 54.7906 115.224 55.2598C115.346 55.921 115.283 56.1131 114.939 56.1131C113.996 56.1131 111.432 55.5002 110.347 55.0158L109.211 54.5081L109.921 55.0576C111.905 56.5924 117.165 60.1446 119.297 61.3894C120.626 62.1649 124.014 63.8648 126.827 65.1672C129.778 66.5332 131.941 67.6894 131.941 67.9C131.941 68.8305 131.076 68.7698 128.383 67.6505C121.045 64.6003 111.704 58.9648 106.73 54.5863C106.146 54.0729 105.618 53.7043 105.554 53.7671C105.375 53.9451 115.317 66.3303 120.364 72.2173C122.861 75.1296 126.339 79.028 128.093 80.8804C129.847 82.7327 131.209 84.3153 131.121 84.3973C130.395 85.0679 124.803 84.4862 121.768 83.4238C117.205 81.8271 112.336 77.7425 108.332 72.1519L106.937 70.2049L106.795 72.7836L106.653 75.3624L104.38 73.1335C101.568 70.3757 99.6729 67.9452 96.1254 62.5461C94.6072 60.2354 93.2356 58.2269 93.0774 58.0823C92.9192 57.938 93.6801 59.4149 94.7683 61.3645C100.115 70.9431 107.774 79.6462 119.667 89.6581C123.808 93.1441 124.446 93.9668 123.13 94.1199C122.516 94.1916 120.617 92.6997 114.104 87.0305C109.987 83.4475 105.692 79.1073 102.347 75.1492C100.25 72.6688 96.1464 67.1041 95.3102 65.6069C94.3561 63.8985 94.5951 64.9834 95.6817 67.2931C100.929 78.4463 107.768 88.4708 118.417 100.618C119.43 101.774 120.374 102.863 120.516 103.039C120.955 103.585 116.098 101.922 113.105 100.502C109.98 99.0185 105.701 96.2029 102.786 93.7108C98.9261 90.4114 94.1199 84.4916 90.7302 78.8614C89.8052 77.3251 88.9679 76.0682 88.8694 76.0682C88.7712 76.0682 88.2464 76.9811 87.7038 78.0969L86.7174 80.1257L82.7628 72.9822C80.5878 69.0533 78.6929 65.8364 78.552 65.8334C78.093 65.8198 78.6304 71.1459 79.3555 73.7863C81.3079 80.8985 86.8787 87.9335 93.9513 92.2187C95.3731 93.0801 95.2551 93.2162 92.6748 93.6901C91.6898 93.8711 90.884 94.0901 90.884 94.1769C90.884 94.2641 91.2616 94.5409 91.7232 94.7929C92.1848 95.0449 96.2405 98.2014 100.736 101.808L108.909 108.364H110.508C111.786 108.364 112.214 108.252 112.647 107.799C112.945 107.489 113.757 106.898 114.452 106.486C115.883 105.639 117.846 105.465 118.445 106.132C118.64 106.349 119.107 106.526 119.483 106.526C120.517 106.526 121.969 107.168 122.792 107.988C123.723 108.916 124.256 110.863 123.908 112.068L123.651 112.959L123.432 112.04C123.122 110.733 122.217 109.465 121.273 109.014C120.103 108.455 119.606 108.533 119.279 109.327C118.685 110.771 117.618 111.017 115.032 110.308C113.933 110.006 113.003 109.939 111.713 110.066C110.728 110.163 109.926 110.323 109.932 110.42C109.932 110.517 110.545 111.009 111.282 111.515C112.584 112.409 112.707 112.437 115.794 112.565C118.658 112.683 119.039 112.759 119.701 113.333C120.104 113.683 120.435 114.215 120.436 114.514C120.436 114.84 120.77 115.234 121.264 115.494C121.718 115.733 122.304 116.23 122.566 116.6C123.122 117.384 123.422 119.08 123.169 120.012C122.951 120.813 121.827 122.076 120.629 122.864L119.731 123.454L120.327 122.67C121.328 121.354 121.685 119.992 121.323 118.876C121.149 118.34 120.765 117.7 120.47 117.452C119.959 117.026 119.878 117.037 118.858 117.676C117.379 118.604 116.543 118.306 114.991 116.301C114.501 115.667 109.062 111.958 108.876 112.13C108.601 112.385 109.728 116.393 110.423 117.63C111.181 118.98 111.3 119.886 110.839 120.792C110.68 121.105 110.333 121.924 110.068 122.613C109.36 124.452 106.821 125.946 105.261 125.44C104.79 125.287 104.832 125.222 105.583 124.935C106.577 124.554 107.791 123.437 108.039 122.674C108.173 122.262 107.982 122.036 107.147 121.624C105.912 121.013 105.657 120.139 106.352 118.897C106.687 118.298 106.795 117.269 106.795 114.679C106.795 110.77 106.81 110.785 104.555 111.918C103.533 112.432 103.087 112.874 102.599 113.856C101.638 115.794 100.106 116.467 97.9296 115.909C97.2188 115.727 97.1473 115.781 96.9733 116.639C96.8297 117.35 96.9556 117.884 97.5148 118.929C97.9163 119.679 98.2002 120.333 98.1458 120.383C97.9076 120.603 95.8769 118.662 95.5207 117.874C95.0367 116.804 95.2892 112.477 95.8869 111.593C96.4195 110.805 97.8302 110.618 99.55 111.106C101.523 111.666 101.872 111.627 103.132 110.705C105.128 109.244 105.196 109.318 95.8427 102.934C91.2252 99.7832 87.3344 97.205 87.1962 97.205C87.0587 97.205 86.1694 98.1979 85.2209 99.4117C84.2724 100.625 83.4964 101.449 83.4964 101.243C83.4964 100.07 82.8433 96.2288 82.4527 95.1044C81.0026 90.9303 77.8705 87.1486 73.4822 84.2732L72.1795 83.4197L71.9777 85.4102C71.8675 86.5049 71.8538 87.9264 71.9493 88.5692C72.3278 91.1209 74.6829 94.3813 76.7721 95.2456L77.893 95.7094L77.015 96.1289C76.0094 96.6095 73.7873 96.6835 72.9404 96.2653C72.6248 96.1093 72.3136 96.0304 72.2489 96.0901C72.1842 96.1509 72.8025 97.4322 73.6228 98.9393C77.4314 105.936 82.2858 109.202 84.9944 106.589C85.4042 106.194 85.9397 105.427 86.1845 104.886C86.4293 104.344 86.6981 103.901 86.7816 103.901C87.1458 103.901 88.0301 106.226 88.0301 107.183C88.0301 109.343 86.1999 111.663 83.5454 112.867C81.7811 113.667 78.2364 113.717 76.5352 112.965C75.9101 112.689 75.2707 112.409 75.1145 112.342C74.4998 112.081 79.404 116.172 80.85 117.125C82.5164 118.225 85.6822 119.38 87.0482 119.386C87.5169 119.386 88.3919 119.264 88.9927 119.11C89.5934 118.956 90.1551 118.895 90.2408 118.974C90.5177 119.229 89.6342 119.989 88.5257 120.449L87.4461 120.896L89.3781 121.024C92.547 121.234 94.2073 122.282 95.4351 124.847C96.7759 127.648 99.6768 130.203 102.489 131.061C103.217 131.282 104.706 131.554 105.798 131.664L107.784 131.865L104.093 132.718C100.851 133.469 100.205 133.542 98.7819 133.325C97.8905 133.189 96.908 132.952 96.5986 132.799C96.2889 132.646 95.9894 132.521 95.9329 132.521C95.877 132.521 95.8829 133.64 95.9477 135.008C96.1039 138.311 95.8283 138.924 95.126 136.837C94.2429 134.216 92.8775 133.236 88.5925 132.148C85.4687 131.355 83.3963 129.237 81.5068 124.905C80.6519 122.946 80.4554 122.704 79.0273 121.86C76.9502 120.632 74.964 118.882 73.657 117.129C72.637 115.76 72.569 115.717 72.3291 116.292C71.9269 117.256 72.3536 121.022 73.1167 123.256C73.8485 125.396 75.4858 128.149 77.2206 130.155C77.7813 130.803 79.4162 132.664 80.8538 134.291C84.1978 138.075 84.6073 139.098 84.0828 142.355C83.8841 143.589 83.6387 144.599 83.5375 144.599C83.4363 144.599 83.0489 144.069 82.6771 143.421C81.9097 142.085 80.2094 140.572 77.4379 138.762C76.3922 138.079 75.1217 136.975 74.6151 136.309L73.6937 135.098L73.5215 137.551C73.3206 140.415 72.6775 142.145 70.9277 144.529C70.2635 145.434 69.6543 146.175 69.5736 146.175C69.4932 146.175 68.8838 145.434 68.2197 144.529L68.2293 144.518Z" fill="black"/>
<path d="M67.5215 14.3609C66.8288 15.2891 66.8219 16.6105 67.3558 17.1571C69.342 16.1869 71.3839 16.5105 73.4082 16.4221C71.8149 15.0639 69.7987 14.0819 67.5215 14.3609L67.5215 14.3609Z" fill="white"/>
<path fill-rule="evenodd" clip-rule="evenodd" d="M69.0315 15.5244C69.0209 16.2221 68.5481 16.8446 67.9756 16.9149C67.4031 16.9852 66.9476 16.4766 66.9583 15.7789C66.9689 15.0812 67.4416 14.4587 68.0142 14.3884C68.5867 14.3181 69.0421 14.8267 69.0315 15.5244Z" fill="black"/>
<path fill-rule="evenodd" clip-rule="evenodd" d="M68.007 15.3822C68.0037 15.6075 67.8579 15.8077 67.6814 15.8294C67.505 15.8511 67.3646 15.686 67.368 15.4607C67.3713 15.2354 67.5171 15.0352 67.6936 15.0135C67.87 14.9918 68.0104 15.1568 68.007 15.3822Z" fill="white"/>
<path d="M69.3396 11.5152C67.5978 11.206 64.6882 13.4542 67.5503 14.2119C70.9291 14.2307 72.6015 15.6679 74.3233 17.0639C72.8199 15.521 71.8359 13.5986 68.1959 13.6162C66.7807 13.6568 66.5239 12.169 69.3398 11.5151L69.3396 11.5152Z" fill="black"/>
<path d="M66.755 18.255C67.4022 16.6125 69.0286 17.0627 70.5922 17.3787C69.1073 17.3244 67.5172 17.0931 66.755 18.255Z" fill="white" fill-opacity="0.462264"/>
</g>
<defs>
<clipPath id="clip0_1_5034">
<rect width="600" height="400" fill="white"/>
</clipPath>
</defs>
</svg>
