<svg width="600" height="400" viewBox="0 0 600 400" fill="none" xmlns="http://www.w3.org/2000/svg" xmlns:cgf="https://coding.garden/flags"><metadata id="cgf-metadata">

<cgf:flag>
  <cgf:name>Gilze en Rijen</cgf:name>
  <cgf:route>nl/nb/gilze_en_rijen</cgf:route>
  <cgf:aspect-ratio>1.5</cgf:aspect-ratio>
</cgf:flag>

</metadata><g clip-path="url(#clip0_1_5049)">
<path d="M-5.27393 -4.06543V404.913H604.426V-4.06543H-5.27393V-4.06543Z" fill="#0066FF"/>
<path d="M603.966 -4.15527L-5.04794 405.061L-5.2002 -4.00189L603.966 -4.15527Z" fill="#FFCF00"/>
<path d="M284.52 222.833L250.266 255.342L303.666 311.072L357.515 255.342L323.112 222.983L284.52 222.833V222.833Z" fill="#FFCF00"/>
<path d="M313.339 245.304C313.34 246.596 313.067 247.876 312.536 249.07C312.004 250.264 311.226 251.349 310.244 252.262C309.263 253.176 308.097 253.901 306.815 254.396C305.532 254.89 304.157 255.145 302.769 255.145C301.38 255.145 300.006 254.89 298.723 254.396C297.44 253.901 296.275 253.176 295.293 252.262C294.312 251.349 293.533 250.264 293.002 249.07C292.471 247.876 292.198 246.596 292.198 245.304C292.198 244.012 292.471 242.733 293.002 241.539C293.533 240.345 294.312 239.26 295.293 238.346C296.275 237.432 297.44 236.708 298.723 236.213C300.006 235.718 301.38 235.464 302.769 235.464C304.157 235.464 305.532 235.718 306.815 236.213C308.097 236.708 309.263 237.432 310.244 238.346C311.226 239.26 312.004 240.345 312.536 241.539C313.067 242.733 313.34 244.012 313.339 245.304V245.304Z" fill="#0066FF"/>
<path d="M301.522 258.937C301.522 260.229 301.249 261.509 300.718 262.703C300.187 263.897 299.409 264.981 298.427 265.895C297.445 266.809 296.28 267.534 294.997 268.028C293.715 268.523 292.34 268.778 290.951 268.778C289.563 268.778 288.188 268.523 286.906 268.028C285.623 267.534 284.457 266.809 283.476 265.895C282.494 264.981 281.716 263.897 281.185 262.703C280.654 261.509 280.38 260.229 280.381 258.937C280.38 257.645 280.654 256.365 281.185 255.172C281.716 253.978 282.494 252.893 283.476 251.979C284.457 251.065 285.623 250.34 286.906 249.846C288.188 249.351 289.563 249.097 290.951 249.097C292.34 249.097 293.715 249.351 294.997 249.846C296.28 250.34 297.445 251.065 298.427 251.979C299.409 252.893 300.187 253.978 300.718 255.172C301.249 256.365 301.522 257.645 301.522 258.937V258.937Z" fill="#0066FF"/>
<path d="M314.087 270.623C314.087 271.915 313.814 273.194 313.283 274.388C312.752 275.582 311.974 276.667 310.992 277.581C310.01 278.495 308.845 279.219 307.562 279.714C306.28 280.209 304.905 280.463 303.516 280.463C302.128 280.463 300.753 280.209 299.471 279.714C298.188 279.219 297.022 278.495 296.041 277.581C295.059 276.667 294.281 275.582 293.75 274.388C293.219 273.194 292.945 271.915 292.946 270.623C292.945 269.331 293.219 268.051 293.75 266.857C294.281 265.663 295.059 264.578 296.041 263.665C297.022 262.751 298.188 262.026 299.471 261.531C300.753 261.037 302.128 260.782 303.516 260.782C304.905 260.782 306.28 261.037 307.562 261.531C308.845 262.026 310.01 262.751 310.992 263.665C311.974 264.578 312.752 265.663 313.283 266.857C313.814 268.051 314.087 269.331 314.087 270.623V270.623Z" fill="#0066FF"/>
<path d="M326.652 257.888C326.652 259.18 326.379 260.46 325.848 261.654C325.317 262.848 324.538 263.933 323.557 264.846C322.575 265.76 321.41 266.485 320.127 266.98C318.844 267.474 317.47 267.729 316.081 267.729C314.693 267.729 313.318 267.474 312.035 266.98C310.753 266.485 309.587 265.76 308.606 264.846C307.624 263.933 306.846 262.848 306.315 261.654C305.784 260.46 305.51 259.18 305.511 257.888C305.51 256.596 305.784 255.317 306.315 254.123C306.846 252.929 307.624 251.844 308.606 250.93C309.587 250.016 310.753 249.292 312.035 248.797C313.318 248.302 314.693 248.048 316.081 248.048C317.47 248.048 318.844 248.302 320.127 248.797C321.41 249.292 322.575 250.016 323.557 250.93C324.538 251.844 325.317 252.929 325.848 254.123C326.379 255.317 326.652 256.596 326.652 257.888V257.888Z" fill="#0066FF"/>
<path d="M314.702 257.943C314.703 259.235 314.429 260.515 313.898 261.709C313.367 262.902 312.589 263.987 311.607 264.901C310.626 265.815 309.46 266.54 308.177 267.034C306.895 267.529 305.52 267.783 304.132 267.783C302.743 267.783 301.368 267.529 300.086 267.034C298.803 266.54 297.638 265.815 296.656 264.901C295.674 263.987 294.896 262.902 294.365 261.709C293.834 260.515 293.561 259.235 293.561 257.943C293.561 256.651 293.834 255.371 294.365 254.177C294.896 252.984 295.674 251.899 296.656 250.985C297.638 250.071 298.803 249.346 300.086 248.852C301.368 248.357 302.743 248.103 304.132 248.103C305.52 248.103 306.895 248.357 308.177 248.852C309.46 249.346 310.626 250.071 311.607 250.985C312.589 251.899 313.367 252.984 313.898 254.177C314.429 255.371 314.703 256.651 314.702 257.943V257.943Z" fill="#0066FF"/>
<path d="M322.959 212.18H284.458V220.866H322.959V212.18Z" fill="#FFCF00"/>
<path d="M286.362 208.579L321.689 185.273C326.933 188.736 328.156 201.809 319.997 207.519L286.362 208.579V208.579Z" fill="#FFCF00"/>
<path d="M321.689 185.485C321.519 183.537 320.517 182.422 318.093 182.731H288.901C275.672 191.738 282.738 200.111 286.785 208.578L321.689 185.485V185.485Z" fill="#0066FF"/>
<path d="M321.901 168.112H284.881V176.375H321.901V168.112Z" fill="#0066FF"/>
<path d="M309.631 82.5195H292.074V161.969H309.631V82.5195Z" fill="#0066FF"/>
<path d="M287.42 92.2646H257.593V123.621H287.42V92.2646Z" fill="#0066FF"/>
<path d="M287.631 131.036H257.381V162.18H287.631V131.036Z" fill="#0066FF"/>
<path d="M275.997 153.494H267.535V162.816H275.997V153.494Z" fill="#FFCF00"/>
<path d="M275.574 130.612H267.112V139.934H275.574V130.612Z" fill="#FFCF00"/>
<path d="M275.997 114.511H267.535V123.833H275.997V114.511Z" fill="#FFCF00"/>
</g>
<defs>
<clipPath id="clip0_1_5049">
<rect width="600" height="400" fill="white"/>
</clipPath>
</defs>
</svg>
