<svg width="600" height="400" viewBox="0 0 600 400" fill="none" xmlns="http://www.w3.org/2000/svg" xmlns:cgf="https://coding.garden/flags"><metadata id="cgf-metadata">

<cgf:flag>
  <cgf:name>Halderberge</cgf:name>
  <cgf:route>nl/nb/halderberge</cgf:route>
  <cgf:aspect-ratio>1.5</cgf:aspect-ratio>
</cgf:flag>

</metadata><g clip-path="url(#clip0_1_5159)">
<path d="M0 0V131.811H199.569V264.274H0V400H199.569V264.274H600V131.811H199.569V0H0Z" fill="white"/>
<path d="M600 0H199.569V131.811H600V0Z" fill="#DA121A"/>
<path d="M0 131.811V264.274H199.569V400H600V264.274H199.569V131.811H0Z" fill="#078930"/>
<path d="M83.7465 378.744C85.3471 376.914 87.4331 375.845 89.8167 375.244C95.1151 372.891 95.6747 366.193 96.3027 363.743C97.0102 360.673 97.1101 357.492 97.0511 354.281C96.8025 350.468 95.3682 346.945 93.8912 343.433C92.4955 342.995 91.1516 342.43 90.0662 341.231C89.0412 341.933 87.1839 347.883 84.1622 343.515C83.1527 343.281 82.2609 342.933 82.3329 341.639C81.0573 341.193 79.552 340.991 80.0877 338.621C77.819 337.568 73.4211 333.531 74.849 328.425C74.6712 327.185 73.2247 325.856 75.0153 324.754C75.3084 323.152 74.9952 321.152 77.51 321.002C77.9979 319.536 79.1038 319.012 81.0024 319.697C80.6799 317.534 83.6793 316.451 85.0769 318.229C86.1712 316.907 87.5014 317.204 88.7357 316.843C87.7322 316.485 86.6817 316.542 85.8253 314.885C85.7559 314.989 84.8019 316.623 83.6633 314.885C80.6234 317.353 78.2163 313.459 81.335 312.356C82.4733 311.743 82.6507 310.621 81.7508 308.931C80.85 307.418 81.0385 306.058 82.3329 304.852C82.7616 304.292 83.0933 303.655 82.7486 302.487C82.7806 301.537 82.0493 300.488 84.6612 299.877C85.1879 298.817 86.1783 298.302 87.4884 298.164C88.1588 297.749 88.7905 297.183 89.1515 295.554C89.5509 294.886 89.3828 294.075 91.8124 293.923C92.2235 293.308 92.7598 292.898 92.7271 291.557C92.7483 290.822 92.9458 290.126 94.9723 289.844C96.5958 289.452 97.1531 288.78 97.7995 288.131C98.3771 284.747 103.031 286.557 104.036 289.436C104.5 290.038 105.444 290.152 105.117 291.557C106.105 292.204 106.753 293.003 106.032 294.412C106.891 293.476 107.75 294.582 108.609 295.064C110.918 295.163 114.57 295.718 113.1 299.143V300.203C114.782 300.287 115.995 300.861 115.345 303.384C117.801 303.612 116.919 305.201 116.343 305.668C118.571 306.382 118.626 308.328 116.925 308.197C120.854 310.66 118.34 313.777 116.842 311.541C115.848 311.017 115.037 310.908 114.513 311.46C121.021 313.821 116.763 317.124 115.345 316.028C116.478 316.83 117.645 317.498 119.087 317.088C120.203 316.33 121.897 317.252 121.249 318.556C122.29 318.234 124.123 319.41 122.496 321.166C125.007 322.39 123.565 323.613 123.328 324.837C124.692 325.533 125.819 327.938 123.411 329.731C123.39 330.087 122.856 331.687 121.581 329.812C119.853 329.631 118.544 329.039 117.756 327.935L118.754 330.056C119.847 329.618 121.049 330.244 120.5 332.095C124.268 330.776 124.696 334.305 123.245 335.766C123.649 336.918 123.455 339.615 120.251 340.415C120.309 340.858 119.433 343.622 116.842 342.617C115.652 344.653 114.797 344.108 114.098 343.922C112.427 345.475 109.433 345.495 107.445 343.596C106.825 350.335 106.718 357.067 104.784 363.825C104.21 366.763 103.514 369.723 106.447 372.063C110.755 374.583 111.568 376.676 112.185 378.744L83.7465 378.744Z" fill="#078930"/>
<path d="M83.4935 378.384C85.0394 376.736 86.8066 375.651 88.9296 375.047C89.7722 374.807 90.5289 374.404 91.3331 373.766C93.0884 372.374 94.2538 370.359 95.0805 367.286C95.5939 365.378 96.3151 361.634 96.4785 360.028C96.6789 358.059 96.684 353.581 96.4867 352.491C96.104 350.374 95.3796 348.043 94.166 345.026C93.7272 343.935 93.5633 343.648 93.3267 343.556C92.3849 343.192 91.105 342.518 90.6858 342.165C90.4195 341.941 90.1503 341.757 90.0876 341.757C90.025 341.757 89.5754 342.344 89.0888 343.06C88.6021 343.777 87.9879 344.545 87.7238 344.767C86.6291 345.686 85.3221 345.455 84.2562 344.154C84.011 343.854 83.7372 343.666 83.4309 343.585C82.8649 343.435 82.1893 342.829 82.0878 342.379C82.046 342.194 81.9942 341.985 81.9725 341.914C81.9508 341.843 81.686 341.702 81.3842 341.601C80.1897 341.202 79.6638 340.533 79.6611 339.409L79.6602 338.717L78.9723 338.282C76.9907 337.027 75.252 334.808 74.5833 332.679C74.2624 331.657 74.155 330.032 74.3436 329.051C74.4828 328.328 74.4757 328.273 74.1073 327.237C73.6547 325.965 73.6882 325.526 74.2873 324.875C74.6161 324.518 74.6982 324.315 74.8026 323.597C74.9974 322.259 75.1479 321.873 75.6782 321.353C76.0166 321.021 76.3362 320.832 76.7216 320.737C77.1074 320.642 77.3065 320.524 77.3731 320.352C77.7165 319.466 78.6813 318.967 79.8685 319.06L80.6146 319.119L80.6897 318.726C80.7938 318.182 81.7152 317.267 82.3232 317.103C83.2631 316.851 84.294 317.019 84.8522 317.514C85.0462 317.686 85.0803 317.683 85.3221 317.466C85.6743 317.152 86.0617 316.965 86.6881 316.806L87.2126 316.673L86.8516 316.488C86.653 316.386 86.3225 316.115 86.1171 315.886C85.7627 315.49 85.7328 315.479 85.5268 315.662C85.1415 316.004 84.4778 316.009 83.9772 315.674L83.5357 315.378L83.0543 315.619C81.4243 316.435 79.5762 315.596 79.5521 314.029C79.5406 313.298 79.8497 312.79 80.5815 312.335C80.8991 312.137 81.3355 311.815 81.5511 311.618C81.9242 311.276 81.9407 311.228 81.8931 310.606C81.8597 310.17 81.693 309.632 81.3901 308.983C80.5757 307.238 80.7105 306.102 81.8983 304.703C82.4849 304.012 82.5426 303.745 82.4017 302.374C82.3347 301.723 82.3334 301.156 82.3981 300.925C82.5291 300.46 83.0096 300.05 83.7446 299.777C84.1072 299.642 84.4951 299.363 84.854 298.98C85.3989 298.398 85.7656 298.206 87.1495 297.781C87.8167 297.575 88.3213 296.94 88.6515 295.889C89.133 294.357 89.5689 293.933 90.9569 293.648C91.8292 293.468 92.1181 293.057 92.3219 291.705C92.4024 291.171 92.5586 290.598 92.6689 290.433C92.9188 290.059 93.5644 289.763 94.827 289.442C95.5075 289.269 96.0221 289.048 96.5151 288.717C97.2083 288.252 97.3608 288.062 97.6345 287.324C97.9814 286.388 99.0712 285.816 100.221 285.966C101.599 286.145 103.39 287.411 104.033 288.659C104.178 288.94 104.552 289.437 104.864 289.763C105.371 290.293 105.431 290.411 105.431 290.874C105.431 291.303 105.482 291.425 105.727 291.582C106.177 291.871 106.596 292.654 106.596 293.206C106.596 293.633 106.624 293.681 106.878 293.681C107.033 293.681 107.5 293.905 107.915 294.178C108.556 294.6 108.792 294.687 109.467 294.754C111.602 294.967 113.169 295.747 113.573 296.8C113.748 297.255 113.727 298.117 113.524 298.773C113.234 299.71 113.263 299.789 113.958 299.947C115.259 300.241 115.855 301.016 115.771 302.302L115.724 303.032L116.206 303.213C117.105 303.549 117.394 304.093 117.129 304.954C116.978 305.447 116.983 305.485 117.225 305.683C117.366 305.798 117.519 305.894 117.567 305.896C117.615 305.896 117.811 306.113 118.004 306.374C118.46 306.992 118.488 307.69 118.071 308.083L117.789 308.35L118.311 308.897C118.954 309.571 119.279 310.25 119.282 310.924C119.286 311.633 118.975 312.191 118.432 312.451C118.018 312.649 117.953 312.652 117.526 312.488L117.066 312.31L117.576 312.868C118.266 313.62 118.458 314.279 118.188 314.972C118.003 315.446 117.214 316.292 116.956 316.292C116.679 316.292 116.876 316.514 117.265 316.64C117.827 316.822 118.677 316.795 119.203 316.58C119.776 316.345 120.165 316.362 120.764 316.646C121.288 316.894 121.489 317.148 121.606 317.705C121.66 317.963 121.786 318.076 122.192 318.232C122.918 318.51 123.359 319.061 123.359 319.688C123.359 319.96 123.281 320.365 123.186 320.589L123.013 320.996L123.55 321.473C124.029 321.898 124.093 322.014 124.145 322.542C124.188 322.976 124.134 323.327 123.945 323.853L123.687 324.571L124.153 325.05C124.655 325.566 125.106 326.574 125.106 327.181C125.106 327.915 124.771 328.705 124.194 329.332C123.887 329.665 123.566 330.107 123.481 330.314C123.301 330.752 122.817 331.039 122.417 330.945C122.263 330.908 121.928 330.686 121.671 330.451C121.415 330.216 121.043 329.994 120.843 329.958L120.48 329.893L120.698 330.311C120.817 330.541 120.915 330.904 120.915 331.118V331.506L121.45 331.427C123.041 331.193 124.288 332.223 124.29 333.772C124.291 334.205 123.992 335.201 123.784 335.46C123.716 335.545 123.653 336.06 123.645 336.604C123.632 337.423 123.573 337.717 123.302 338.31C122.904 339.179 122.02 340.018 121.116 340.386C120.551 340.616 120.478 340.687 120.341 341.144C119.982 342.337 118.645 343.236 117.483 343.065C116.961 342.988 116.944 342.996 116.475 343.518C115.803 344.267 115.441 344.426 114.619 344.335C114.194 344.288 113.922 344.304 113.874 344.381C113.756 344.568 112.886 344.974 112.242 345.143C111.035 345.459 109.579 345.258 108.354 344.608C108.006 344.423 107.711 344.284 107.699 344.299C107.688 344.315 107.509 346.408 107.302 348.952C106.747 355.781 106.344 358.686 105.437 362.424C104.767 365.186 104.576 366.478 104.645 367.778C104.753 369.805 105.461 370.939 107.398 372.187C109.386 373.469 110.883 374.962 111.624 376.402C111.993 377.118 112.533 378.563 112.533 378.833C112.533 378.958 109.941 378.985 97.7322 378.985H82.9315L83.4938 378.385L83.4935 378.384ZM111.548 377.985C111.383 377.325 110.66 376.041 110.04 375.308C109.282 374.41 108.296 373.58 107 372.75C104.809 371.346 103.918 369.772 103.918 367.305C103.918 366.274 104.252 364.185 104.689 362.487C105.255 360.288 105.566 358.577 106.062 354.93C106.102 354.641 105.94 354.818 105.228 355.844C104.131 357.424 103.644 358.421 103.321 359.743C102.976 361.155 102.918 361.284 102.623 361.284C102.383 361.284 102.374 361.248 102.441 360.543C102.583 359.058 103.426 357.096 104.587 355.548C104.878 355.16 105.267 354.528 105.451 354.142C105.768 353.476 106.123 352.151 106.128 351.614C106.129 351.478 106.199 351.298 106.283 351.215C106.487 351.014 107.048 344.134 107.144 340.666L107.215 338.088L107.908 337.175C108.775 336.033 110.113 334.708 111.808 333.314L113.118 332.237L112.784 332.099C112.451 331.962 111.95 331.389 111.95 331.144C111.95 331.052 111.886 331.049 111.725 331.133C111.427 331.29 110.517 331.284 110.355 331.122C110.26 331.03 110.012 331.133 109.429 331.505C108.538 332.074 107.697 332.862 106.725 334.038L106.072 334.829L105.996 333.239C105.954 332.364 105.83 331.263 105.721 330.792C105.565 330.124 105.04 328.834 104.648 328.156C104.611 328.092 105.209 327.783 105.249 327.847C105.26 327.865 105.355 328.015 105.46 328.18C105.996 329.022 106.488 330.673 106.656 332.193L106.729 332.851L107.612 332.052C108.098 331.613 108.776 331.088 109.119 330.884C109.685 330.547 109.74 330.478 109.717 330.139C109.669 329.442 110.227 329.315 110.378 329.989C110.422 330.183 110.586 330.426 110.743 330.527C111.015 330.701 111.065 330.693 111.719 330.362L112.409 330.012L112.486 330.431C112.529 330.661 112.636 330.99 112.726 331.163C112.87 331.444 112.951 331.477 113.48 331.477C114.042 331.477 114.069 331.491 113.99 331.734C113.698 332.641 113.788 333.131 114.281 333.333L114.629 333.475L114.28 333.989C113.795 334.703 113.832 335.039 114.471 335.712C114.78 336.037 114.74 336.387 114.395 336.387C114.101 336.387 113.5 335.677 113.335 335.134C113.218 334.753 113.226 334.599 113.381 334.211C113.555 333.778 113.553 333.723 113.362 333.415L113.157 333.084L111.815 334.214C110.317 335.474 108.902 336.919 108.298 337.802L107.9 338.386L107.831 340.862L107.763 343.339L108.198 343.691C109.108 344.427 110.829 344.786 112.06 344.497C112.391 344.419 112.96 344.161 113.325 343.923C113.973 343.501 114.001 343.494 114.582 343.613C115.125 343.724 115.21 343.712 115.553 343.471C115.76 343.327 116.081 342.967 116.267 342.671L116.604 342.134L117.275 342.305C117.91 342.467 117.974 342.464 118.496 342.237C119.119 341.967 119.709 341.192 119.822 340.494C119.882 340.126 119.945 340.068 120.489 339.879C120.819 339.764 121.305 339.524 121.57 339.346C122.56 338.679 123.17 337.247 122.92 336.178C122.812 335.716 122.831 335.632 123.161 335.111C123.657 334.329 123.728 333.416 123.339 332.848C123.188 332.628 122.858 332.349 122.605 332.227C122.166 332.016 122.106 332.014 121.268 332.187C120.785 332.287 120.29 332.407 120.168 332.455C119.976 332.531 119.956 332.506 120.022 332.266C120.064 332.115 120.13 331.733 120.169 331.419C120.228 330.936 120.199 330.798 119.975 330.521C119.727 330.213 119.675 330.197 119.091 330.265L118.47 330.336L117.929 329.193C117.632 328.564 117.345 328.05 117.293 328.05C117.24 328.05 117.013 327.891 116.787 327.697C116.319 327.294 116.099 326.674 116.243 326.164C116.325 325.87 116.284 325.764 115.949 325.395C115.734 325.159 115.559 324.843 115.559 324.694C115.559 324.474 115.482 324.407 115.16 324.348C114.94 324.307 114.595 324.123 114.393 323.938C114.043 323.617 114.01 323.609 113.692 323.77C112.92 324.161 112.03 323.88 111.72 323.145C111.419 322.433 111.913 322.186 112.312 322.849C112.442 323.066 112.651 323.275 112.775 323.314C113.019 323.389 113.625 323.075 113.984 322.687C114.277 322.369 114.356 322.392 114.506 322.837C114.577 323.048 114.761 323.337 114.916 323.479C115.194 323.736 115.316 323.741 116.053 323.526C116.23 323.474 116.252 323.545 116.227 324.09C116.197 324.764 116.44 325.195 116.851 325.195C117.17 325.195 117.201 325.348 117 325.925C116.768 326.593 116.854 326.937 117.335 327.265C117.543 327.406 117.984 327.762 118.314 328.055C119.048 328.703 119.765 329.046 120.849 329.264C121.528 329.402 121.737 329.5 122.051 329.833C122.505 330.314 122.786 330.298 122.937 329.785C122.997 329.579 123.195 329.306 123.377 329.179C123.559 329.052 123.835 328.733 123.99 328.47C124.643 327.367 124.488 326.405 123.5 325.434L122.872 324.817L123.131 324.121C123.481 323.179 123.546 322.519 123.32 322.181C123.221 322.034 122.889 321.771 122.581 321.596C122.272 321.422 122.001 321.263 121.977 321.243C121.953 321.224 122.097 320.966 122.297 320.669C122.738 320.017 122.774 319.484 122.401 319.143C122.07 318.841 121.716 318.754 121.162 318.842L120.722 318.91L120.843 318.335C120.981 317.671 120.894 317.457 120.385 317.212C120.111 317.081 119.968 317.077 119.581 317.193C118.029 317.658 116.996 317.492 115.53 316.54C115.126 316.278 115.102 316.233 115.245 316.022C115.366 315.843 115.534 315.788 115.984 315.782C116.432 315.771 116.664 315.701 116.985 315.461C118.23 314.529 117.538 313.18 115.276 312.127L114.43 311.733L113.869 312.012C113.197 312.346 113.084 312.35 112.445 312.065C111.986 311.861 111.92 311.858 111.519 312.022C111.282 312.12 110.927 312.173 110.729 312.142C110.424 312.093 110.34 312.131 110.171 312.424C110.062 312.611 109.772 312.848 109.528 312.95L109.083 313.136L109.133 313.725C109.177 314.251 109.146 314.354 108.837 314.693C108.538 315.021 108.415 315.073 107.922 315.08C107.43 315.091 107.352 315.058 107.352 314.863C107.352 314.705 107.472 314.604 107.759 314.521C107.983 314.457 108.232 314.361 108.312 314.311C108.525 314.175 108.485 313.56 108.228 313.004L108.004 312.519H108.409C108.632 312.519 108.989 312.448 109.202 312.36C109.549 312.218 109.597 312.142 109.668 311.618L109.747 311.034L110.204 311.262C110.934 311.628 111.366 311.541 111.697 310.959C111.784 310.808 111.882 310.844 112.349 311.193C112.652 311.42 112.972 311.605 113.06 311.605C113.148 311.605 113.627 311.395 114.126 311.137C114.947 310.713 115.085 310.676 115.605 310.744C116.274 310.832 116.761 311.051 117.247 311.487C117.738 311.927 117.943 311.97 118.288 311.705C118.518 311.527 118.586 311.372 118.586 311.02C118.586 310.171 118.014 309.379 116.773 308.51L115.895 307.894L116.653 307.819C117.574 307.727 117.655 307.683 117.655 307.273C117.655 306.859 116.992 306.256 116.219 305.966L115.656 305.756L116.008 305.398C116.201 305.201 116.415 304.895 116.483 304.718C116.704 304.145 116.411 303.899 115.231 303.667C114.933 303.608 114.861 303.547 114.919 303.402C114.96 303.297 115.023 302.876 115.059 302.465C115.167 301.213 114.695 300.682 113.347 300.54L112.707 300.472L112.671 299.86C112.651 299.512 112.714 299.022 112.817 298.726C113.203 297.615 112.957 296.671 112.155 296.187C111.576 295.837 110.431 295.523 109.423 295.439C108.619 295.371 108.425 295.306 107.71 294.862C107.266 294.587 106.84 294.362 106.763 294.362C106.443 294.362 105.966 294.716 105.733 295.125C105.456 295.615 104.863 295.961 104.303 295.961C104.015 295.961 103.885 296.036 103.729 296.297C103.618 296.481 103.359 296.721 103.153 296.83C102.84 296.995 102.77 297.108 102.722 297.529C102.688 297.823 102.56 298.139 102.414 298.292C102.187 298.529 102.181 298.568 102.35 298.705C102.646 298.946 102.87 299.457 102.87 299.891C102.87 300.2 102.773 300.388 102.452 300.703C102.222 300.928 101.947 301.097 101.841 301.077C101.532 301.019 101.55 300.605 101.876 300.305C102.259 299.951 102.251 299.562 101.851 299.199L101.531 298.909L101.447 299.391C101.309 300.185 100.974 300.526 100.063 300.796C99.9605 300.827 99.8432 301.014 99.8029 301.212C99.7625 301.41 99.5738 301.724 99.3834 301.911C99.0837 302.205 99.053 302.291 99.154 302.552C99.2743 302.862 99.1993 303.455 99.0106 303.686C98.9378 303.775 99.0294 303.893 99.2951 304.054C99.9265 304.437 100.176 305.343 99.7886 305.846C99.6947 305.968 99.6149 306.196 99.6114 306.353C99.6023 306.775 99.2093 307.551 98.8953 307.768C98.7443 307.872 98.4329 307.987 98.2033 308.023C97.8596 308.077 97.7606 308.158 97.6424 308.478C97.5634 308.692 97.3262 308.982 97.1152 309.123C96.7881 309.341 96.7465 309.419 96.8331 309.649C96.9391 309.929 96.7769 310.746 96.5931 310.858C96.5378 310.891 96.6963 311.119 96.9455 311.363C97.3256 311.736 97.3984 311.883 97.3984 312.279C97.3984 312.656 97.3193 312.836 97.0038 313.173C96.6623 313.539 96.5839 313.575 96.4217 313.443C96.1722 313.24 96.1854 313.055 96.4672 312.805C96.5953 312.691 96.7001 312.46 96.7001 312.291C96.7001 311.95 96.4924 311.731 95.8851 311.434C95.6611 311.324 95.4573 311.216 95.4323 311.194C95.4072 311.173 95.5775 310.948 95.8106 310.695C96.3118 310.151 96.3305 309.97 95.9437 309.412C95.6302 308.959 95.642 308.931 96.1896 308.816C96.7531 308.697 97.0493 308.359 97.0493 307.833V307.38H97.6693C98.4133 307.38 98.7661 307.092 98.8734 306.398C98.9112 306.153 99.0471 305.782 99.1753 305.572C99.4049 305.198 99.4051 305.187 99.1876 304.901C99.0661 304.742 98.7491 304.528 98.4833 304.426C97.8151 304.169 97.7942 304.127 98.1409 303.722C98.624 303.159 98.6412 302.886 98.2246 302.39L97.863 301.96L98.4414 301.71C99.0507 301.446 99.227 301.154 99.1171 300.59C99.0585 300.289 99.2028 300.186 99.684 300.186C100.074 300.186 100.629 299.891 100.7 299.645C100.732 299.534 100.792 299.228 100.834 298.964C100.886 298.631 100.979 298.462 101.134 298.413C101.257 298.376 101.515 298.214 101.707 298.056C102.095 297.735 102.153 297.342 101.881 296.875C101.642 296.465 101.65 296.454 102.255 296.387C102.924 296.313 103.396 295.871 103.282 295.425C103.212 295.151 103.216 295.15 103.897 295.226C104.744 295.32 104.98 295.206 105.29 294.56C105.421 294.287 105.611 293.997 105.712 293.914C105.832 293.816 105.897 293.579 105.897 293.241C105.897 292.762 105.849 292.674 105.315 292.182C104.774 291.685 104.733 291.608 104.733 291.102C104.733 290.608 104.687 290.515 104.226 290.091C103.948 289.834 103.599 289.373 103.452 289.067C103.101 288.336 102.134 287.415 101.282 286.999C100.758 286.744 100.433 286.665 99.8814 286.66C98.9698 286.649 98.5997 286.9 98.2516 287.75C97.9628 288.455 97.1621 289.248 96.3343 289.65C96.0454 289.791 95.3254 290.029 94.7342 290.179C93.3641 290.528 93.1374 290.726 93.0336 291.661C92.922 292.666 92.7715 293.104 92.3338 293.696C91.9706 294.187 91.9091 294.221 91.2654 294.292C90.1088 294.421 89.7093 294.78 89.3321 296.029C88.914 297.414 88.0499 298.396 87.1306 298.531C86.3837 298.641 85.5246 299.14 85.1578 299.678C84.9065 300.046 84.715 300.179 84.2147 300.334C83.5187 300.549 83.0816 300.926 83.0466 301.341C83.0339 301.491 83.0681 302.108 83.1225 302.711C83.2367 303.98 83.1025 304.42 82.3237 305.325C81.3938 306.406 81.3384 307.102 82.0525 308.728C82.6616 310.116 82.7617 310.988 82.3931 311.697C82.1654 312.134 81.4428 312.747 81.1546 312.747C81.0859 312.747 80.8573 312.922 80.6465 313.135C80.1798 313.608 80.1161 314.182 80.4775 314.66C81.0898 315.469 82.1826 315.462 83.3031 314.642L83.7012 314.351L84.098 314.806C84.6666 315.457 84.9449 315.406 85.5922 314.531L85.8348 314.203L86.1942 314.776C86.7144 315.605 87.1118 315.918 88.0037 316.2C88.7668 316.442 88.7938 316.463 88.7604 316.795C88.7264 317.134 88.7082 317.143 87.678 317.332C86.3429 317.576 86.107 317.67 85.5254 318.185L85.0488 318.607L84.6753 318.254C83.997 317.612 83.0861 317.476 82.2555 317.891C81.6281 318.205 81.3344 318.704 81.3338 319.457C81.3338 319.787 81.2903 320.056 81.2376 320.056C81.185 320.056 80.8932 319.973 80.5892 319.872C79.8187 319.614 78.8689 319.701 78.4644 320.066C78.2962 320.218 78.0584 320.56 77.936 320.827C77.7545 321.223 77.6556 321.313 77.3989 321.315C77.2258 321.315 76.8646 321.415 76.5962 321.535C75.9465 321.824 75.6737 322.369 75.499 323.727C75.373 324.707 75.3296 324.825 74.9763 325.156C74.4027 325.694 74.3813 325.959 74.8165 327.143C75.1908 328.161 75.1933 328.181 75.0462 329.024C74.7364 330.801 75.1222 332.725 76.1212 334.383C76.7543 335.435 78.3778 337.071 79.4972 337.787L80.3968 338.362L80.3703 339.125C80.3301 340.284 80.5932 340.607 81.9465 341.058C82.5277 341.251 82.561 341.284 82.6721 341.781C82.8184 342.436 83.0805 342.721 83.7374 342.94C84.0933 343.059 84.4819 343.343 84.9801 343.849C85.3915 344.267 85.8295 344.604 85.993 344.63C86.7925 344.753 87.4939 344.207 88.514 342.667C88.8676 342.133 89.2542 341.559 89.3732 341.393C89.588 341.092 89.5873 341.086 89.2619 340.646C88.7633 339.971 88.4872 339.843 87.4193 339.796C86.3715 339.749 86.0287 339.585 85.5533 338.899C85.3502 338.607 85.2914 338.361 85.2914 337.803C85.2914 337.408 85.3377 337.057 85.3942 337.022C85.4507 336.988 85.6267 337.06 85.7854 337.183C86.0187 337.363 86.1093 337.379 86.2595 337.267C86.4821 337.101 86.6884 336.591 86.6884 336.208C86.6884 335.968 86.7425 335.93 87.083 335.93C87.7485 335.93 88.0066 335.621 88.0626 334.758C88.111 334.013 88.1119 334.011 88.5765 333.806C89.2375 333.513 89.4134 333.201 89.3279 332.472C89.2896 332.144 89.2215 331.751 89.1769 331.6C89.1074 331.363 89.1268 331.335 89.3129 331.405C89.4323 331.449 89.7527 331.517 90.0248 331.553C90.5021 331.618 90.5265 331.606 90.7179 331.212C90.8326 330.976 91.0576 330.746 91.251 330.668C91.7086 330.482 92.0436 330.033 92.0434 329.605C92.0434 329.409 91.8826 328.916 91.6862 328.509L91.329 327.768L91.5825 327.567C91.8281 327.372 91.8492 327.376 92.2599 327.692C92.9473 328.222 93.3864 328.393 94.0608 328.393C94.4803 328.393 94.7413 328.451 94.8375 328.564C95.0186 328.778 95.527 328.786 95.8302 328.579C95.9565 328.493 96.2264 328.387 96.43 328.343C96.7963 328.265 96.8009 328.27 96.8802 328.788C96.9996 329.569 97.367 330.041 97.8901 330.084C98.1243 330.103 98.4737 330.04 98.6664 329.941C99.1302 329.706 99.1227 329.703 99.2114 330.166C99.3035 330.648 99.5914 330.836 100.003 330.682C100.718 330.416 100.631 329.859 99.7109 328.821C99.3908 328.46 99.1767 328.165 99.2351 328.165C99.2934 328.165 99.6458 328.268 100.018 328.393C100.726 328.632 101.535 328.688 101.809 328.518C102.066 328.358 101.879 327.906 101.259 327.181L100.694 326.522L100.869 326.087C101.029 325.687 101.026 325.633 100.834 325.425C100.718 325.3 100.396 325.067 100.117 324.906C99.7638 324.703 99.6101 324.539 99.6088 324.363C99.6052 323.924 99.4172 323.778 98.7732 323.715C98.2084 323.659 98.1554 323.63 98.1554 323.368C98.1554 323.118 98.2121 323.078 98.6211 323.045C99.3728 322.984 99.9057 323.197 100.122 323.643C100.225 323.857 100.309 324.078 100.309 324.136C100.309 324.193 100.508 324.35 100.752 324.484C101.533 324.915 101.795 325.408 101.598 326.079C101.51 326.382 101.539 326.471 101.815 326.73C102.013 326.916 102.205 327.003 102.322 326.959C102.425 326.92 102.629 326.97 102.774 327.07C103.408 327.505 103.865 327.238 104.156 326.261L104.299 325.784L104.878 326.175C105.197 326.39 105.496 326.566 105.543 326.566C105.591 326.566 105.846 326.412 106.112 326.223L106.594 325.881L106.845 326.404C107.12 326.978 107.484 327.19 108.004 327.078C108.311 327.013 108.329 327.032 108.407 327.54C108.517 328.266 108.843 328.594 109.564 328.707C110.04 328.781 110.153 328.844 110.183 329.048C110.231 329.38 109.821 329.482 109.154 329.306C108.423 329.113 108.145 328.892 107.927 328.333C107.776 327.945 107.659 327.819 107.4 327.763C107.217 327.725 106.911 327.548 106.72 327.374C106.415 327.093 106.306 327.062 105.803 327.109C105.463 327.141 105.122 327.109 104.959 327.019C104.734 326.901 104.676 326.904 104.632 327.035C104.603 327.123 104.409 327.361 104.202 327.565C103.804 327.957 103.212 328.063 102.757 327.824C102.563 327.722 102.549 327.754 102.606 328.164C102.66 328.565 102.624 328.656 102.291 328.962C102.051 329.181 101.792 329.307 101.577 329.307C101.18 329.307 101.17 329.345 101.459 329.746C101.907 330.366 102.514 331.675 102.757 332.546C102.952 333.242 102.999 333.681 102.968 334.497C102.929 335.534 102.92 335.562 102.351 336.453C100.936 338.669 100.076 340.649 100.076 341.694C100.076 342.158 100.051 342.198 99.7187 342.269C99.522 342.312 99.3518 342.328 99.3403 342.307C99.3289 342.286 99.1115 341.856 98.8572 341.354C98.6028 340.852 97.8348 339.71 97.1505 338.818C96.4662 337.925 95.8426 337.005 95.7648 336.774C95.545 336.121 95.6827 335.055 96.0969 334.204C96.525 333.324 97.3946 332.173 98.1384 331.503C98.4359 331.234 98.6793 330.965 98.6793 330.903C98.6793 330.842 98.3904 330.791 98.0374 330.791C97.6844 330.791 97.2992 330.733 97.1814 330.66C97.0044 330.551 96.8735 330.592 96.4286 330.892C94.4454 332.231 92.9893 334.238 92.2761 336.615C92.1348 337.086 92.0025 337.489 91.9822 337.51C91.9619 337.531 91.2208 337.084 90.3355 336.517L88.7258 335.484L88.5274 335.863C88.3522 336.197 87.7332 336.615 87.413 336.615C87.3508 336.615 87.266 336.78 87.2248 336.982C87.1494 337.352 86.6339 337.984 86.4048 337.987C86.0764 337.987 85.9755 338.172 86.1231 338.49C86.3314 338.938 86.7928 339.127 87.678 339.127C88.7949 339.127 88.9583 339.237 90.4542 341.004C90.7005 341.294 91.1944 341.716 91.5518 341.94C92.1433 342.311 93.7368 343.01 93.9921 343.01C94.1052 343.01 95.1178 345.453 95.8775 347.559C96.4067 349.027 96.986 351.197 97.1098 352.175C97.1556 352.537 97.2316 352.857 97.2786 352.885C97.3257 352.914 97.4293 352.72 97.509 352.456C97.8618 351.282 98.9939 349.337 100.329 347.61C101.418 346.201 102.17 344.304 102.36 342.487C102.438 341.737 102.616 341.449 102.927 341.566C103.169 341.657 103.152 342.365 102.878 343.639C102.478 345.498 101.885 346.753 100.667 348.319C99.4664 349.862 98.7048 351.216 98.1148 352.856C97.6294 354.206 97.4245 355.42 97.3386 357.455C97.2346 359.919 97.001 361.763 96.4611 364.381C95.6006 368.552 94.7536 370.848 93.4292 372.601C92.2361 374.179 90.9047 375.123 89.0114 375.733C88.3727 375.939 87.454 376.317 86.9697 376.573C86.1388 377.013 84.8032 377.94 84.6494 378.184C84.604 378.256 89.3466 378.295 98.1029 378.295H111.627L111.548 377.981L111.548 377.985ZM98.2911 375.368C98.0009 375.083 98.4786 373.156 99.1496 371.904C100.171 369.998 100.428 369.418 100.544 368.764C100.757 367.555 100.76 367.547 101.041 367.586C101.278 367.619 101.297 367.678 101.278 368.337C101.251 369.29 100.996 370.023 100.223 371.366C99.5467 372.543 98.9162 374.138 98.9135 374.681C98.9117 375.243 98.5594 375.631 98.2911 375.368V375.368ZM95.8057 369.436C95.6844 369.126 96.2085 366.829 96.6559 365.709C97.3069 364.081 98.0431 362.84 99.3976 361.088C100.487 359.679 101.239 357.782 101.429 355.965C101.509 355.201 101.663 354.951 101.982 355.071C102.234 355.165 102.226 355.636 101.95 357.026C101.577 358.903 100.974 360.202 99.7348 361.797C98.0904 363.913 97.1462 365.86 96.6939 368.067C96.5639 368.701 96.43 369.31 96.3964 369.42C96.3195 369.671 95.9022 369.682 95.8057 369.436L95.8057 369.436ZM109.812 340.016C109.498 338.866 110.442 337.653 111.654 337.648C112.006 337.648 112.199 337.565 112.476 337.302C112.96 336.842 114.065 336.589 114.354 336.871C114.599 337.112 114.478 337.418 114.137 337.418C113.501 337.418 112.982 337.657 112.828 338.017C112.679 338.365 112.661 338.372 111.961 338.344C111.283 338.317 111.224 338.333 110.841 338.711C110.486 339.06 110.437 339.178 110.437 339.69C110.437 340.228 110.416 340.273 110.16 340.273C109.97 340.273 109.86 340.192 109.812 340.016V340.016ZM108.652 338.598C108.35 338.302 109.088 337.128 109.731 336.88C110.066 336.751 110.234 336.591 110.39 336.252C110.701 335.575 111.253 335.213 112.049 335.163C112.804 335.115 113.512 335.437 113.44 335.794C113.398 335.998 113.357 336.001 112.271 335.864C111.755 335.8 111.691 335.821 111.319 336.186C111.079 336.422 110.889 336.744 110.841 336.997C110.772 337.356 110.715 337.417 110.45 337.417C110.024 337.417 109.663 337.691 109.385 338.224C109.168 338.642 108.858 338.799 108.652 338.597V338.598ZM81.4921 333.77C80.9198 333.518 80.6059 333.063 80.6139 332.497C80.6185 332.146 80.5709 332.047 80.3655 331.986C79.9541 331.864 79.5961 331.472 79.5167 331.057C79.4187 330.544 79.7471 329.712 80.1679 329.407C80.4493 329.203 80.485 329.114 80.4339 328.74C80.3098 327.832 80.8324 327.055 81.7917 326.721C82.3145 326.539 82.3767 326.478 82.4886 326.043C82.7968 324.842 84.2698 324.581 84.8175 325.63C85.073 326.119 84.5799 326.312 84.1805 325.879C83.686 325.343 83.0846 325.822 83.0812 326.755L83.0794 327.226L82.4196 327.28C81.8608 327.325 81.7092 327.388 81.43 327.695C81.0706 328.09 81.0174 328.471 81.236 329.086C81.3474 329.4 81.3421 329.478 81.2069 329.521C81.1163 329.55 80.8456 329.765 80.6055 329.999C80.3 330.297 80.169 330.525 80.169 330.758C80.169 331.225 80.3626 331.365 81.0072 331.365C81.3145 331.365 81.566 331.39 81.566 331.419C81.566 331.449 81.4814 331.681 81.378 331.935C81.224 332.312 81.2153 332.456 81.3297 332.727C81.4559 333.025 81.6326 333.139 82.3021 333.352C82.4193 333.389 82.4976 333.503 82.4768 333.607C82.4136 333.921 81.9959 333.99 81.492 333.768L81.4921 333.77ZM91.1163 320.867C90.8207 320.326 91.1743 319.249 91.7887 318.82C92.1368 318.577 93.1394 318.319 93.2635 318.44C93.2982 318.474 93.489 318.339 93.6874 318.141C94.3054 317.521 95.6711 317.333 95.7472 317.858C95.7744 318.046 95.7139 318.125 95.5144 318.166C95.3662 318.196 95.0354 318.263 94.7792 318.314C94.413 318.388 94.2763 318.486 94.1389 318.775C93.9695 319.131 93.9426 319.142 93.2251 319.145C92.5393 319.145 92.4569 319.176 92.085 319.54C91.7503 319.868 91.6884 320.006 91.7105 320.374C91.7251 320.616 91.6981 320.875 91.6506 320.951C91.5202 321.158 91.2519 321.116 91.1163 320.868L91.1163 320.867ZM87.3269 309.324C87.1885 309.104 87.405 308.527 87.7544 308.184C88.1405 307.805 88.746 307.726 89.3134 307.979C89.5755 308.097 89.6377 308.088 89.7331 307.921C89.9278 307.58 90.344 307.258 90.6756 307.192C90.9432 307.139 90.9957 307.069 90.9957 306.769C90.9957 306.572 91.1286 306.219 91.2909 305.985C91.5237 305.648 91.5606 305.512 91.4655 305.337C91.1546 304.768 91.4054 304.004 92.0998 303.405C92.5733 302.998 92.6554 302.977 92.8587 303.218C92.9795 303.36 92.9233 303.475 92.5237 303.9C91.9749 304.484 91.9292 304.777 92.2807 305.452C92.5202 305.913 92.5038 306.129 92.2294 306.129C91.9842 306.129 91.6616 306.56 91.6532 306.899C91.6487 307.072 91.6855 307.375 91.7343 307.572L91.8233 307.93L91.2903 307.871C90.6305 307.798 90.3448 308.013 90.1634 308.72C90.0939 308.991 90.0124 309.213 89.9825 309.213C89.9525 309.213 89.7034 309.054 89.4289 308.861C88.7557 308.387 88.3435 308.431 88.0273 309.013C87.8031 309.425 87.4807 309.568 87.327 309.324L87.3269 309.324ZM90.4061 299.429C90.0048 298.394 91.0778 297.108 92.3433 297.108C92.6739 297.108 92.8425 297.044 92.9455 296.883C93.138 296.581 93.621 296.353 94.2554 296.266C94.8518 296.186 95.1119 296.297 95.0517 296.608C95.021 296.767 94.8489 296.853 94.3871 296.94C93.7722 297.056 93.324 297.393 93.324 297.74C93.324 297.854 93.1718 297.875 92.7052 297.828C91.6303 297.719 91.0754 298.17 91.0612 299.164C91.0558 299.607 91.0179 299.683 90.7922 299.714C90.5954 299.741 90.4996 299.671 90.4061 299.43V299.429ZM100.453 338.274C100.616 337.96 101.096 337.144 101.519 336.461C102.285 335.223 102.288 335.216 102.288 334.365C102.288 333.366 102.068 332.45 101.56 331.337L101.196 330.537L100.956 330.831C100.662 331.192 99.901 331.519 99.5537 331.433C99.348 331.382 99.1238 331.545 98.4225 332.253C96.7247 333.966 96.0264 335.538 96.4627 336.664C96.5243 336.823 97.066 337.584 97.6667 338.356C98.2673 339.127 98.9062 340.008 99.0865 340.313L99.4143 340.868L99.7845 339.857C99.988 339.3 100.289 338.588 100.453 338.274V338.274ZM96.937 336.397C96.6352 335.844 96.9014 334.916 97.5045 334.418C97.9011 334.091 98.6996 333.827 99.0339 333.912C99.1632 333.945 99.3274 333.845 99.4818 333.641C99.8629 333.136 101.39 332.847 101.548 333.251C101.648 333.507 101.374 333.764 101.001 333.764C100.479 333.764 100.101 333.956 99.9099 334.319C99.743 334.635 99.6925 334.655 99.0603 334.642C98.0306 334.622 97.4661 335.123 97.534 335.998C97.5804 336.594 97.1876 336.857 96.937 336.397V336.397ZM91.8072 335.791C92.6191 333.567 94.1782 331.526 95.9021 330.43C96.4363 330.091 96.4801 330.03 96.4163 329.717C96.3224 329.256 96.1915 329.149 95.9053 329.3C95.5778 329.471 94.9362 329.456 94.6596 329.269C94.5333 329.184 94.1157 329.086 93.7315 329.052C93.3473 329.018 92.9499 328.956 92.8484 328.916C92.6903 328.853 92.6709 328.931 92.7132 329.448C92.7708 330.151 92.4933 330.661 91.8079 331.113C91.5853 331.259 91.3836 331.44 91.3596 331.515C91.2536 331.845 90.704 332.279 90.3919 332.279C90.0859 332.279 90.0644 332.31 90.0644 332.749C90.0644 333.355 89.6764 334.029 89.1753 334.294C88.96 334.408 88.7845 334.553 88.7853 334.617C88.7862 334.682 89.4016 335.128 90.1531 335.609C90.9047 336.091 91.5257 336.489 91.5331 336.494C91.5413 336.494 91.6639 336.183 91.8072 335.791V335.791ZM90.4913 334.03C90.3055 333.848 90.449 333.623 90.9343 333.335C91.4542 333.027 91.7104 332.64 91.6618 332.237C91.6422 332.075 91.7629 331.985 92.1599 331.865C93.239 331.538 93.561 330.922 93.1527 329.963C93.0025 329.611 93.0024 329.544 93.1518 329.423C93.7369 328.947 94.2744 330.44 93.8643 331.403C93.6842 331.826 93.089 332.361 92.6895 332.459C92.5159 332.502 92.3589 332.682 92.2439 332.969C91.99 333.603 90.7945 334.327 90.4919 334.03H90.4913ZM119.168 329.494C119.168 329.469 119.09 329.419 118.994 329.383C118.898 329.347 118.819 329.367 118.819 329.427C118.819 329.488 118.898 329.538 118.994 329.538C119.09 329.538 119.168 329.518 119.168 329.494ZM116.758 312.015C116.643 311.86 116.326 311.658 116.054 311.565C115.396 311.34 115.428 311.427 116.133 311.777C116.449 311.934 116.74 312.115 116.78 312.179C116.821 312.243 116.879 312.295 116.91 312.295C116.942 312.295 116.873 312.169 116.758 312.015H116.758Z" fill="black"/>
<path d="M88.6255 334.877L91.8006 336.809L92.9472 334.012L95.1815 331.532L97.0631 330.378L98.3273 330.551L99.0622 331.013L97.5629 332.945L96.4163 334.675L96.0047 336.031L96.7103 337.559L98.3861 340.068L99.6502 341.423L100.326 339.376L101.649 337.155L102.62 335.252V333.464L101.943 331.445L100.944 329.629L100.709 329.052L102.267 328.879L102.326 328.36L102.296 327.697L103.002 327.667L103.649 327.523L104.411 326.753L105.45 328.792L106.24 330.994L106.573 333.441L108.028 332.136L109.774 330.912L110.772 330.993L111.978 330.952L112.601 331.645L113.474 332.175L113.35 332.706L111.562 333.929L107.612 338.089L107.5 342.143C107.808 340.479 108.726 339.947 110.087 340.239C109.989 338.399 110.931 337.943 112.38 338.163C112.676 337.314 113.282 336.947 114.203 337.067L114.379 336.26L113.909 333.78L113.38 332.28L111.91 330.953L110.028 331.011L109.734 328.935C108.952 328.784 108.122 328.675 108.147 327.839L106.5 326.686L104.56 326.801L103.531 327.464L103.002 327.608L102.326 327.753L102.032 328.762L100.738 329.079C100.939 330.359 100.638 331.215 99.1212 331.04L98.151 330.492L97.2984 330.406L95.946 328.474L95.2992 329.022L94.1527 328.647L92.3593 328.445L92.4769 329.685L92.0653 330.752L90.5366 332.078L89.8604 332.251L89.7134 333.491L88.4492 334.558L88.6255 334.877Z" fill="black" fill-opacity="0.424528"/>
<path d="M83.7822 169.745L74.492 173.783C72.8933 174.55 74.0688 176.15 75.962 175.628C78.9165 175.396 83.4201 175.66 83.0766 174.878C83.366 176.354 84.3652 178.339 87.1337 179.089V180.761C79.3505 187.692 76.4793 194.527 80.901 204.466C83.2735 210.67 88.2283 214.737 94.1307 218.02L94.0131 220.846C93.313 221.051 93.2182 222.304 90.8157 221.024C88.9426 220.027 86.5234 220.696 88.7781 222.415C86.569 222.565 87.8656 224.15 90.0254 224.291C89.238 225.575 91.5105 225.97 92.9358 225.596C95.0898 225.134 96.9936 223.738 96.7461 219.636L98.7372 220.701L98.2576 225.025C97.6473 225.651 97.4574 226.276 95.9293 226.901C93.7717 227.974 93.4372 228.981 94.7652 229.103C93.8605 230.916 96.2569 230.972 96.2619 230.898C96.5123 232.951 97.8445 231.962 99.7544 229.348C100.276 228.702 101.551 228.858 100.877 226.942L102 222.578C112.012 229.848 129.137 222.631 123.869 209.691C124.236 211.83 121.924 214.216 120.709 212.546L121.374 211.811C117.537 210.388 113.848 206.427 110.232 201.208C107.082 194.497 100.707 190.273 93.1852 186.934C95.8618 182.748 99.3445 179.786 99.006 171.028C98.3136 163.218 87.0752 162.314 84.1215 169.723H83.6805" fill="white"/>
<path d="M96.3818 232.003C96.2426 231.905 96.0704 231.652 95.9991 231.441C95.8872 231.108 95.8041 231.045 95.3926 230.98C95.0691 230.929 94.7869 230.779 94.5148 230.512C94.1686 230.173 94.1185 230.055 94.1483 229.65C94.1756 229.279 94.1347 229.154 93.9537 229.057C92.9972 228.544 93.7181 227.489 95.8036 226.35C96.576 225.928 97.0865 225.56 97.3837 225.208C97.8201 224.693 97.8239 224.679 98.0153 222.977C98.2825 220.601 98.3031 220.744 97.6458 220.403L97.0872 220.113L96.9566 221.052C96.8848 221.569 96.7369 222.269 96.628 222.608C96.0209 224.497 94.2934 225.705 91.9782 225.86C90.5946 225.952 89.4753 225.458 89.4753 224.755C89.4753 224.484 89.407 224.42 88.9805 224.295C88.1648 224.056 87.6168 223.731 87.3757 223.343C87.073 222.856 87.0863 222.733 87.4835 222.344L87.82 222.014L87.5867 221.551C87.3902 221.161 87.375 221.037 87.4906 220.763C87.6904 220.29 88.1068 220.121 89.057 220.128C89.7627 220.128 90.0468 220.203 91.0118 220.613C91.6328 220.877 92.2624 221.093 92.4109 221.093C92.5594 221.093 92.8685 220.968 93.098 220.815C93.4809 220.559 93.5212 220.478 93.5906 219.827C93.6322 219.437 93.6663 218.873 93.6663 218.574V218.029L92.7059 217.489C89.2481 215.544 85.5234 212.438 83.5422 209.848C82.0891 207.948 81.3779 206.664 80.27 203.943C78.8678 200.499 78.3513 198.015 78.4457 195.171C78.5298 192.64 78.9812 190.86 80.1141 188.59C81.216 186.383 82.6376 184.519 85.0722 182.088L86.6814 180.481V179.845C86.6814 179.246 86.6626 179.204 86.3612 179.131C85.2254 178.853 83.7475 177.556 83.164 176.324L82.7815 175.517L82.374 175.582C82.1499 175.618 80.6831 175.696 79.1144 175.756C77.5457 175.816 75.9395 175.898 75.545 175.938C74.6411 176.03 74.1121 175.865 73.6487 175.347C73.2448 174.896 73.2018 174.52 73.4973 174.024C73.7399 173.617 74.1829 173.402 79.8163 170.968L83.836 169.232L84.2317 168.469C84.7769 167.42 86.4384 165.801 87.5597 165.228C88.8657 164.559 90.0017 164.294 91.5708 164.29C93.0557 164.29 93.9357 164.466 95.1479 165.021C97.1559 165.939 98.6198 167.764 99.0923 169.938C99.3217 170.994 99.2532 174.495 98.9743 175.974C98.3854 179.097 97.5668 180.892 95.0495 184.578C94.2887 185.692 93.6663 186.633 93.6663 186.67C93.6663 186.706 94.1771 186.97 94.8013 187.256C95.4256 187.542 96.565 188.111 97.3334 188.522C103.535 191.834 107.472 195.417 109.973 200.024C110.531 201.051 111.374 202.274 112.571 203.792C115.524 207.537 118.064 209.797 120.694 211.017L121.818 211.539L121.454 211.983C121.152 212.352 121.119 212.445 121.261 212.533C121.544 212.709 121.782 212.658 122.258 212.32C122.839 211.906 123.325 211.029 123.422 210.215C123.489 209.659 123.536 209.567 123.788 209.505C123.948 209.467 124.092 209.45 124.11 209.467C124.242 209.609 124.787 211.614 124.937 212.51C125.314 214.753 124.883 217.256 123.796 219.15C122.005 222.27 118.481 224.536 114.093 225.389C112.544 225.69 109.485 225.666 107.927 225.34C105.953 224.926 104.073 224.211 102.716 223.357C102.408 223.163 102.14 223.024 102.121 223.048C102.103 223.071 101.874 223.92 101.613 224.933C101.203 226.528 101.154 226.844 101.251 227.29C101.402 227.983 101.172 228.515 100.545 228.922C100.284 229.091 99.7117 229.676 99.2725 230.221C97.9584 231.853 97.0066 232.44 96.3819 232.003L96.3818 232.003ZM97.782 230.811C98.0929 230.522 98.6058 229.954 98.9218 229.548C99.2379 229.143 99.7152 228.669 99.9825 228.496C100.567 228.116 100.692 227.833 100.533 227.253C100.429 226.874 100.485 226.531 100.948 224.725L101.483 222.635L101.224 222.463C101.081 222.369 100.507 222.027 99.9489 221.703L98.9334 221.115L98.8682 221.589C98.8325 221.85 98.738 222.726 98.6584 223.537L98.5138 225.011L97.8245 225.733C97.3216 226.261 96.8553 226.601 96.0998 226.992C95.0793 227.519 94.2483 228.144 94.2483 228.383C94.2483 228.45 94.4317 228.538 94.6558 228.58C95.1097 228.663 95.1156 228.676 94.9347 229.185C94.6733 229.921 95.0594 230.342 95.9947 230.342C96.4288 230.342 96.4532 230.362 96.5283 230.77C96.6846 231.621 96.9046 231.629 97.782 230.812L97.782 230.811ZM92.9096 225.047C94.8911 224.523 95.8936 223.367 96.2343 221.213C96.3029 220.78 96.3425 220.232 96.3222 219.997C96.2877 219.594 96.2302 219.537 95.3542 219.028L94.4229 218.488L94.3482 219.134C94.3071 219.489 94.2651 220.036 94.2546 220.35C94.2362 220.904 94.2174 220.933 93.6307 221.321C92.7827 221.881 92.1099 221.868 90.7558 221.267C89.9664 220.916 89.6203 220.825 89.0448 220.817C87.9681 220.803 87.9178 220.945 88.7108 221.761C89.4319 222.502 89.4366 222.481 88.5135 222.642C88.2727 222.684 88.0449 222.767 88.0073 222.826C87.8151 223.131 88.757 223.604 89.9027 223.777C90.3791 223.85 90.3861 223.857 90.2715 224.18C90.2072 224.361 90.172 224.597 90.1933 224.704C90.2814 225.148 91.8005 225.341 92.9095 225.048L92.9096 225.047ZM114.235 224.641C118.582 223.767 121.814 221.538 123.409 218.312C124.112 216.892 124.323 215.974 124.333 214.298C124.341 212.985 124.122 211.386 123.935 211.386C123.886 211.386 123.783 211.537 123.705 211.721C123.487 212.236 122.576 213.078 122.092 213.21C121.503 213.37 121.371 213.359 120.906 213.113C120.508 212.903 120.494 212.903 120.181 213.124C119.66 213.486 118.241 214.089 117.182 214.398C110.491 216.351 101.065 214.906 95.1217 211.017C91.5005 208.647 88.9143 205.906 87.4234 202.859C86.4766 200.924 86.0343 198.501 86.3231 196.831C86.8518 193.774 89.0419 191.727 92.1808 191.356C92.9758 191.261 93.317 191.345 93.317 191.635C93.317 191.879 93.1797 191.929 92.2125 192.037C89.5508 192.335 87.6889 193.962 87.0718 196.53C86.8124 197.609 86.9159 199.37 87.3175 200.713C87.9206 202.73 89.2028 204.873 90.8111 206.554L91.6698 207.451L91.2073 206.313C90.1744 203.772 89.0207 199.948 89.1709 199.564C89.2125 199.458 89.345 199.399 89.4939 199.421C89.7129 199.452 89.7962 199.647 90.1225 200.885C90.5777 202.612 91.2819 204.674 92.0424 206.506C92.9226 208.627 92.9187 208.621 94.1319 209.522C94.7402 209.974 95.2542 210.327 95.2742 210.308C95.2942 210.289 95.0741 209.843 94.7853 209.318C94.051 207.985 93.4424 206.504 92.7294 204.317C92.0463 202.221 91.9572 201.627 92.3261 201.627C92.5006 201.627 92.6047 201.767 92.7493 202.198C92.8548 202.512 93.2123 203.585 93.5437 204.582C94.3021 206.864 94.839 208.086 95.8415 209.814L96.6348 211.182L97.6244 211.673C98.1686 211.942 98.8162 212.246 99.0635 212.347L99.5132 212.531L99.3419 212.275C97.7759 209.93 96.8658 208.146 95.7482 205.23C95.3497 204.191 95.3126 204.017 95.4592 203.873C95.5517 203.782 95.6981 203.735 95.7848 203.768C95.8715 203.8 96.1958 204.488 96.5057 205.296C97.3684 207.546 98.5778 209.925 99.677 211.533L100.672 212.988L101.622 213.267C102.145 213.421 102.808 213.604 103.096 213.674C103.384 213.744 103.71 213.828 103.821 213.859C103.938 213.892 103.657 213.439 103.151 212.779C102.033 211.319 101.216 209.966 100.052 207.645C99.2964 206.138 99.1454 205.752 99.2589 205.618C99.336 205.527 99.4697 205.453 99.5559 205.453C99.6427 205.453 100.1 206.231 100.58 207.194C101.712 209.468 102.465 210.735 103.516 212.133C105.03 214.147 104.979 214.107 106.31 214.292C106.943 214.381 107.74 214.481 108.08 214.516L108.699 214.579L107.594 213.439C106.351 212.157 105.645 211.268 104.288 209.278C103.016 207.412 102.823 207.042 103.018 206.851C103.27 206.603 103.477 206.779 104.085 207.76C105.495 210.03 107.482 212.519 108.946 213.849L109.76 214.588H111.269C112.099 214.588 112.76 214.542 112.739 214.487C112.718 214.431 112.185 213.937 111.555 213.389C109.719 211.789 106.313 207.729 106.382 207.224C106.454 206.701 106.807 206.92 107.609 207.986C109.471 210.459 111.25 212.358 112.927 213.663L113.853 214.384L114.528 214.309C116.546 214.086 119.227 213.104 120.216 212.227L120.683 211.814L119.685 211.289C118.314 210.566 116.936 209.528 115.523 208.154C113.096 205.793 110.382 202.325 109.138 199.993C107.334 196.612 103.919 193.269 99.487 190.544C98.2875 189.807 93.36 187.253 92.7349 187.044C92.6049 187.001 92.9794 186.377 94.2027 184.6C97.1269 180.353 97.9742 178.378 98.4336 174.738C98.6144 173.305 98.5846 170.816 98.3764 169.949C97.9225 168.061 96.6797 166.537 94.9152 165.707C91.1118 163.918 86.5638 165.414 84.6959 169.067C84.2025 170.033 84.1387 170.45 84.407 170.959C84.64 171.401 84.7966 171.434 85.4991 171.191C85.8325 171.076 86.3884 170.924 86.7346 170.854L87.3639 170.726L87.0809 170.316C86.2643 169.136 87.4955 167.748 88.7807 168.4C89.4827 168.756 89.6677 169.629 89.1879 170.323C88.9819 170.621 88.9465 170.739 89.0631 170.739C89.3062 170.739 89.5912 171.064 89.5162 171.256C89.4647 171.387 89.2105 171.424 88.3447 171.424C85.4211 171.424 83.4218 172.794 83.4218 174.797C83.4218 175.478 84.0957 176.744 84.8035 177.394C85.377 177.92 86.1477 178.358 86.9434 178.611L87.3799 178.75V179.799V180.849L86.3207 181.807C84.1643 183.758 81.8568 186.682 80.7492 188.868C79.0425 192.236 78.6733 195.885 79.634 199.89C80.1342 201.975 81.5854 205.539 82.6743 207.356C83.6414 208.97 84.6136 210.17 86.2697 211.795C88.8477 214.325 90.7771 215.649 97.4498 219.47C98.2182 219.91 99.4656 220.636 100.222 221.083C100.978 221.531 101.626 221.897 101.661 221.897C101.695 221.897 102.119 222.156 102.602 222.473C105.921 224.65 110.22 225.453 114.236 224.646L114.235 224.641ZM79.0561 175.072C80.6568 175.013 82.1202 174.921 82.308 174.869C82.607 174.786 82.6682 174.694 82.8003 174.124C82.9918 173.297 83.2107 172.885 83.7818 172.277C84.1983 171.834 84.2215 171.777 84.0449 171.633C83.7983 171.433 83.5381 170.826 83.5381 170.452C83.5381 170.293 83.5088 170.163 83.473 170.163C83.4067 170.163 75.9452 173.388 74.8355 173.896C73.9262 174.313 73.7811 174.77 74.4424 175.135C74.6606 175.255 74.9499 175.286 75.4473 175.242C75.8314 175.209 77.4554 175.132 79.0561 175.072V175.072ZM87.9037 169.191C87.9037 168.926 87.8515 168.85 87.6725 168.85C87.4304 168.85 87.3107 169.136 87.4278 169.436C87.5495 169.746 87.9037 169.564 87.9037 169.191Z" fill="#080008"/>
<path d="M86.5459 198.007C86.7845 208.232 106.45 221.152 121.296 211.676C108.273 208.591 95.8474 204.895 86.5459 198.007Z" fill="black" fill-opacity="0.198113"/>
<path d="M71.9796 100.078C71.9805 100.032 72.8076 95.8764 73.8178 90.8453L75.6546 81.6981L78.0946 78.9749C79.4366 77.4771 80.6078 76.1525 80.6974 76.0314C80.8306 75.8511 80.909 73.4643 81.1291 62.8937L81.3979 49.9763L80.208 48.8345C79.5535 48.2063 78.4477 47.1528 77.7507 46.4934C76.5128 45.3224 76.4821 45.2812 76.4351 44.7234C76.4086 44.4095 76.2023 42.2859 75.9765 40.0043C75.7507 37.7228 75.5924 35.8301 75.6248 35.7983C75.7003 35.724 81.0649 34.1606 81.2434 34.1606C81.3797 34.1606 81.4606 34.6853 81.5868 36.3874C81.7034 37.9593 81.4036 37.8553 84.0533 37.2434L86.3554 36.7117L86.3137 34.5914C86.2746 32.6037 86.2856 32.4673 86.4884 32.4105C87.3008 32.1838 92.9608 30.9526 93.0026 30.9936C93.0313 31.0212 93.1046 32.113 93.1656 33.4184C93.2266 34.7239 93.2933 35.8084 93.3137 35.8284C93.3342 35.8486 94.2465 35.8284 95.3412 35.7954L97.3315 35.7257L97.4164 32.9454L97.5015 30.165H100.441H103.381L103.466 32.9065C103.549 35.5857 103.557 35.6492 103.801 35.6971C104.27 35.7893 107.601 35.8657 107.604 35.7851C107.65 34.3237 107.844 31.0316 107.885 30.9906C107.934 30.9429 112.786 31.9931 114.162 32.3488L114.611 32.465L114.569 34.5883L114.528 36.7117L116.783 37.2201C118.497 37.6066 119.059 37.6949 119.126 37.5882C119.175 37.512 119.251 36.9528 119.295 36.3476C119.339 35.7423 119.411 34.9868 119.455 34.6684L119.534 34.0898L122.351 34.9007C123.9 35.3467 125.201 35.7439 125.242 35.7838C125.302 35.8425 124.585 43.7918 124.414 44.9617C124.375 45.2251 124.065 45.5948 123.168 46.4463C122.511 47.0698 121.416 48.11 120.734 48.7579L119.494 49.9358L119.759 62.8784C120.011 75.1996 120.034 75.834 120.244 76.0943C120.366 76.2448 121.542 77.5729 122.858 79.0457L125.251 81.7236L127.041 90.6877C128.025 95.6179 128.853 99.7673 128.881 99.9087L128.932 100.166H118.576H108.22L108.143 98.2632C108.101 97.2168 108.066 94.943 108.065 93.2102C108.063 89.747 107.971 89.0096 107.395 87.7937L107.066 87.1019L105.908 87.1349C105.19 87.156 104.717 87.2184 104.664 87.3007C104.617 87.3741 104.577 87.8315 104.576 88.3182C104.575 88.8309 104.525 89.2032 104.458 89.2032C104.389 89.2032 104.342 88.7845 104.342 88.1755V87.1477H103.119H101.897V88.1755C101.897 88.7712 101.849 89.2032 101.783 89.2032C101.594 89.2032 101.512 88.6523 101.586 87.8779L101.655 87.1477H100.379H99.1029V88.1755C99.1029 88.7845 99.0555 89.2032 98.9865 89.2032C98.9175 89.2032 98.8701 88.7845 98.8701 88.1755V87.1477H97.6477H96.4254V88.1849C96.4254 88.9638 96.3892 89.2104 96.2799 89.175C96.1821 89.1429 96.1233 88.8045 96.1008 88.1423L96.0672 87.1569L95.1206 87.1239C94.4921 87.1018 94.1578 87.0431 94.1258 86.9481C94.0898 86.8414 94.3294 86.8053 95.0769 86.8053H96.0761V85.8877C96.0761 84.9718 96.0761 84.9704 95.8142 85.1066C95.1989 85.4272 94.0141 86.7585 93.591 87.6046C92.9115 88.9634 92.8208 89.6215 92.8185 93.2104C92.8176 94.9431 92.7821 97.2169 92.7399 98.2633L92.6633 100.166H82.3207C76.6322 100.166 71.9787 100.127 71.9795 100.081L71.9796 100.078ZM98.87 85.4331C98.87 83.8217 98.9394 83.8718 97.4148 84.3802L96.4835 84.6908L96.4501 85.7471L96.4167 86.8034H97.6434H98.8701V85.4331H98.87ZM101.638 85.3597L101.671 83.9726L101.173 83.9322C100.899 83.9102 100.354 83.9093 99.9618 83.9322L99.2493 83.9698L99.177 84.56C99.0795 85.3564 99.0837 86.6349 99.1843 86.7334C99.2291 86.7775 99.7923 86.7986 100.436 86.7811L101.606 86.749L101.638 85.3619L101.638 85.3597ZM104.342 85.7345V84.6652L103.847 84.486C103.161 84.2375 102.47 84.0646 102.159 84.0639C101.902 84.0639 101.897 84.0886 101.897 85.4336V86.804H103.119H104.342V85.7345ZM106.786 86.7419C106.786 86.6044 105.648 85.498 105.186 85.1857L104.691 84.8516V85.8278V86.804H105.738C106.315 86.804 106.786 86.7765 106.786 86.7416V86.7419Z" fill="#DA121A"/>
<path d="M71.8091 100.107C71.8091 99.8567 75.4148 81.8399 75.5079 81.6251C75.5546 81.5173 76.6403 80.2608 77.9209 78.8322C79.2015 77.4037 80.3494 76.1113 80.4718 75.96C80.6843 75.6975 80.7065 75.1008 80.9606 62.8228L81.2267 49.9608L80.2141 48.988C79.6571 48.453 78.5628 47.4177 77.7822 46.6874L76.3629 45.3595L75.8904 40.6658C75.6306 38.0843 75.418 35.8799 75.418 35.7673C75.418 35.5979 75.9277 35.4161 78.3574 34.7184C79.9742 34.2542 81.3552 33.8554 81.4265 33.8322C81.5141 33.8028 81.6052 34.3845 81.7075 35.6233C81.7907 36.6317 81.8974 37.4566 81.9445 37.4566C82.1145 37.4566 86.0713 36.5213 86.1262 36.4682C86.1572 36.4379 86.1653 35.477 86.1443 34.3319L86.1061 32.2502L89.6387 31.4465L93.1713 30.6427L93.2442 31.3947C93.2842 31.8082 93.3236 32.6144 93.3315 33.1862C93.3397 33.758 93.3794 34.5388 93.4201 34.9212L93.4942 35.6169L95.3118 35.5499C96.3115 35.5132 97.138 35.4775 97.1485 35.471C97.1587 35.46 97.2056 34.2121 97.2524 32.689L97.3373 29.9199H100.448H103.558L103.643 32.632C103.693 34.2149 103.777 35.3732 103.845 35.4143C103.957 35.4821 107.339 35.6326 107.408 35.5727C107.427 35.5562 107.495 34.4465 107.56 33.1062C107.624 31.7658 107.688 30.6593 107.7 30.6471C107.713 30.6352 108.692 30.8459 109.877 31.1161C111.061 31.3863 112.651 31.7476 113.41 31.9192L114.789 32.2311L114.75 34.358L114.711 36.4846L116.805 36.967C117.957 37.2324 118.93 37.4512 118.967 37.453C119.005 37.453 119.103 36.6344 119.186 35.6295C119.269 34.6245 119.363 33.8024 119.394 33.8024C119.425 33.8024 120.806 34.1965 122.463 34.6782C124.982 35.4099 125.476 35.5881 125.476 35.7629C125.476 35.878 125.265 38.0732 125.006 40.6413L124.536 45.3106L123.233 46.5509C122.516 47.2329 121.421 48.2791 120.799 48.8757L119.668 49.9607L119.934 62.8352C120.166 74.0341 120.224 75.736 120.38 75.9103C124.121 80.0791 125.286 81.405 125.37 81.592C125.476 81.8267 129.085 99.8061 129.085 100.099C129.085 100.239 127.604 100.263 118.55 100.263H108.014L108.003 99.5487C107.83 88.7999 107.839 88.9314 107.207 87.7162L106.962 87.2444H105.916H104.871V88.0929C104.871 88.9803 104.695 89.358 104.344 89.2258C104.212 89.1763 104.173 88.9412 104.173 88.2028V87.2444H103.125H102.077V88.2028C102.077 89.0048 102.044 89.1737 101.876 89.2368C101.541 89.3633 101.379 88.9862 101.379 88.0792V87.2444H100.403C99.2765 87.2444 99.2875 87.2325 99.2847 88.4598C99.282 89.2247 99.0995 89.4461 98.7509 89.1041C98.601 88.9571 98.5702 88.7427 98.6043 88.0813L98.6473 87.2444H97.6264H96.6056V88.2187C96.6056 88.983 96.5676 89.2073 96.4294 89.2592C96.0561 89.3998 95.9071 89.0816 95.9071 88.144V87.2444H95.1017C94.6587 87.2444 94.2245 87.2178 94.1368 87.1848C93.9661 87.1206 93.5749 87.8086 93.2589 88.7294C93.093 89.2126 93.0258 91.192 92.8917 99.5491L92.8803 100.263H82.3447C73.5344 100.263 71.8091 100.237 71.8091 100.107L71.8091 100.107ZM79.1433 96.7318C79.1433 95.1668 79.1749 93.8051 79.214 93.7057C79.2772 93.5441 78.9951 93.5251 76.5417 93.5251H73.7988L73.721 93.9533C73.6781 94.1888 73.4139 95.5088 73.1337 96.8866C72.8534 98.2644 72.6241 99.4334 72.6241 99.4845C72.6241 99.5359 74.091 99.5767 75.8838 99.5767H79.1434V96.7313L79.1433 96.7318ZM85.1228 99.0475C85.1636 98.7562 85.1968 97.5743 85.1968 96.421V94.3245H85.9535H86.7102V93.9249V93.5251H83.3342H79.9581V96.5512V99.5772H82.5035H85.0488L85.1228 99.0475H85.1228ZM92.1822 98.9208C92.1822 98.5597 92.2168 97.5318 92.2585 96.6369L92.3344 95.0096H89.1897H86.0449L85.9701 95.7115C85.9289 96.0976 85.8953 97.1253 85.8953 97.9954V99.5772H89.0385H92.1817V98.9208H92.1822ZM114.977 97.3524C114.949 96.1288 114.9 95.1026 114.869 95.0721C114.794 94.9987 108.705 94.9787 108.631 95.051C108.6 95.0822 108.612 96.1131 108.659 97.3421L108.744 99.5767H111.886H115.029L114.977 97.3518L114.977 97.3524ZM121.169 96.5512V93.5251H117.677H114.184V93.8677C114.184 94.1806 114.218 94.2103 114.577 94.2103C114.793 94.2103 115.134 94.2424 115.334 94.2809L115.698 94.3515V96.4339C115.698 97.5791 115.731 98.7547 115.772 99.0461L115.846 99.5758H118.507H121.169V96.5497L121.169 96.5512ZM128.27 99.5029C128.27 99.4617 128.009 98.1237 127.688 96.5288C127.368 94.934 127.106 93.6057 127.106 93.5771C127.106 93.5477 125.954 93.5248 124.545 93.5248H121.984V95.5057C121.984 96.5951 121.95 97.9568 121.908 98.5318L121.833 99.577H125.052C126.822 99.577 128.271 99.5439 128.271 99.5027L128.27 99.5029ZM92.2982 91.9086V89.6069L90.5334 89.6812C89.5628 89.7225 88.4889 89.7555 88.1469 89.7555H87.5251V91.9824V94.2091H89.9117H92.2982V91.9075V91.9086ZM113.369 91.9994V89.7887L112.758 89.7162C112.422 89.6758 111.348 89.6437 110.372 89.6428H108.596V91.9267V94.2105H110.983H113.369V91.9996V91.9994ZM86.7505 91.8984C86.7917 91.3803 86.8255 90.6864 86.826 90.3568L86.8269 89.7572H86.0702C85.654 89.7572 85.3135 89.7444 85.3135 89.7279C85.3135 89.7123 85.4968 89.2404 85.7209 88.6805C85.945 88.1206 86.1284 87.6457 86.1284 87.6251C86.1284 87.5397 75.0776 87.5966 75.0233 87.6819C74.9471 87.803 74.0212 92.3905 74.0212 92.6472C74.0212 92.8266 74.4793 92.8407 80.3486 92.8407H86.676L86.7508 91.8985L86.7505 91.8984ZM126.873 92.6008C126.873 92.532 126.656 91.3756 126.39 90.0315L125.906 87.5876H120.336C117.273 87.5876 114.766 87.6042 114.766 87.6253C114.766 87.6464 114.95 88.1208 115.174 88.6808C115.398 89.2407 115.581 89.712 115.581 89.7281C115.581 89.7437 115.241 89.7575 114.825 89.7575H114.068V90.3684C114.068 90.7042 114.102 91.3724 114.143 91.8529L114.218 92.7265H120.546C125.067 92.7265 126.874 92.6907 126.874 92.6011L126.873 92.6008ZM92.68 88.3646C92.7864 88.0382 92.8619 87.7624 92.8477 87.7516C92.2685 87.3069 88.1845 84.6189 88.1458 84.6568C88.074 84.7265 86.479 88.7589 86.4781 88.8723C86.4781 88.9191 87.8295 88.9576 89.482 88.9576H92.4866L92.68 88.3642V88.3646ZM114.417 88.8645C114.417 88.7417 112.829 84.7356 112.749 84.6574C112.677 84.5859 108.069 87.6832 108.079 87.7961C108.083 87.8383 108.155 88.1172 108.239 88.4155L108.391 88.9579H111.404C113.061 88.9579 114.417 88.9157 114.417 88.8646V88.8645ZM94.1215 85.7961L94.3733 85.4678L93.2883 84.3295C92.5716 83.5776 92.1645 83.23 92.0891 83.3054C92.0263 83.3687 91.6274 83.824 91.2026 84.3184L90.4302 85.2171L91.2768 85.7935C91.7425 86.1104 92.3578 86.5361 92.6442 86.7392L93.1649 87.1085L93.5173 86.6164C93.7112 86.3459 93.9831 85.9767 94.1215 85.7961V85.7961ZM109.104 86.1427C109.817 85.6622 110.418 85.2553 110.44 85.2387C110.498 85.1928 108.799 83.2483 108.701 83.2483C108.654 83.2483 108.147 83.7444 107.573 84.3507L106.531 85.453L107.112 86.2348C107.432 86.6648 107.719 87.0166 107.75 87.0166C107.781 87.0166 108.39 86.6235 109.104 86.1427V86.1427ZM79.4925 84.4474V81.9921L78.7649 82.0031C78.3647 82.0142 77.5977 82.0472 77.0604 82.0885L76.0834 82.1628L75.6349 84.3895C75.3882 85.6142 75.1861 86.6806 75.1857 86.7589C75.1857 86.8679 75.6931 86.9018 77.3388 86.9018H79.4925V84.4467V84.4474ZM87.0364 85.3311C87.3747 84.467 87.6921 83.6954 87.7418 83.6167C87.8072 83.5122 88.1075 83.6598 88.8321 84.1532L89.8321 84.833L90.9912 83.4797C92.1483 82.1286 92.1508 82.1268 92.382 82.3536C92.6132 82.5804 92.6142 82.5803 92.9507 82.2903L93.2877 81.9996H86.8158H80.3439L80.2677 83.7981C80.2259 84.7873 80.1915 85.8923 80.1913 86.2533V86.9099H83.3064H86.4216L87.0367 85.3386L87.0364 85.3311ZM120.471 86.007C120.471 85.5145 120.505 84.4097 120.547 83.5518L120.623 81.9921H114.115H107.607L107.955 82.2714C108.297 82.5456 108.307 82.5467 108.525 82.3338C108.742 82.1204 108.765 82.1388 109.849 83.3923C110.456 84.0939 110.997 84.6847 111.053 84.7052C111.108 84.7254 111.581 84.4535 112.104 84.1002C112.627 83.7467 113.091 83.4988 113.135 83.5489C113.179 83.5984 113.498 84.3724 113.844 85.2674L114.473 86.8946H117.472H120.471V85.9993L120.471 86.007ZM125.709 86.7665C125.709 86.6442 124.979 82.8772 124.833 82.2492C124.775 81.9966 124.743 81.9921 123.03 81.9921H121.286V84.4474V86.9024H123.497C125.131 86.9024 125.709 86.8667 125.709 86.7665V86.7665ZM98.676 85.3323C98.7043 84.3321 98.6833 84.1618 98.5268 84.1618C98.2748 84.1618 96.9292 84.613 96.7511 84.7572C96.6606 84.8306 96.6055 85.1697 96.6055 85.6543V86.4337L97.2167 86.4787C97.5529 86.5034 98.0112 86.5181 98.2353 86.5126L98.6428 86.5016L98.676 85.3311L98.676 85.3323ZM101.379 85.8337C101.379 85.4341 101.411 84.8765 101.45 84.5946L101.522 84.0818L101.072 84.0111C100.824 83.9726 100.347 83.9708 100.011 84.0111L99.3996 84.0809V85.3212V86.5616H100.389H101.379V85.8354L101.379 85.8337ZM104.148 85.614L104.182 84.7253L103.789 84.5642C103.237 84.3379 102.314 84.12 102.235 84.1975C102.135 84.2953 102.034 86.1724 102.117 86.3845C102.177 86.5379 102.353 86.5635 103.152 86.536L104.114 86.503L104.148 85.6142L104.148 85.614ZM106.384 86.4571C106.384 86.3273 105.122 85.1896 104.978 85.1896C104.919 85.1896 104.871 85.4979 104.871 85.8748V86.5599H105.628C106.044 86.5599 106.384 86.5131 106.384 86.4566L106.384 86.4571ZM95.907 85.808V85.1703L95.4705 85.5112C95.2304 85.6987 94.9069 85.9856 94.7517 86.1489L94.4695 86.4457H95.1883H95.907V85.808V85.808ZM95.6118 84.5688C95.9772 84.353 96.5072 84.0832 96.7896 83.9693C97.072 83.8554 97.2902 83.7319 97.2744 83.695C96.932 82.8912 95.9482 80.9645 95.8801 80.9645C95.8293 80.9645 95.189 81.4474 94.4573 82.0376L93.127 83.1108L94.0032 84.036C94.4852 84.5449 94.8948 84.9612 94.9135 84.9612C94.9323 84.9612 95.2464 84.7846 95.6118 84.5688V84.5688ZM106.871 84.0478C107.34 83.5455 107.723 83.1166 107.723 83.0947C107.723 83.0726 107.105 82.5563 106.35 81.9473L104.977 80.8397L104.28 82.2873C103.896 83.0836 103.597 83.7449 103.615 83.7568C103.634 83.7688 103.884 83.8646 104.173 83.9689C104.461 84.0733 104.958 84.3365 105.278 84.5538C105.599 84.7709 105.896 84.9515 105.94 84.9549C105.984 84.9549 106.403 84.5502 106.871 84.0478V84.0478ZM100.206 83.33C100.819 83.318 101.664 83.3493 102.083 83.3988L102.846 83.4896L103.801 81.5604C104.325 80.4992 104.755 79.599 104.755 79.5599C104.755 79.5214 102.816 79.4893 100.447 79.4893C98.0782 79.4893 96.1399 79.5278 96.1399 79.5755C96.1399 79.6232 96.5808 80.542 97.1196 81.6167L98.0994 83.5708L98.5959 83.4609C98.869 83.4013 99.5937 83.3415 100.206 83.3293V83.33ZM86.4774 78.7948V76.2826L83.9745 76.2661C82.5979 76.2551 81.4084 76.244 81.3312 76.2367C81.2063 76.2257 77.5216 80.2 76.9207 80.9929L76.6827 81.3068H81.58H86.4774V78.7946V78.7948ZM94.8727 80.7646C95.249 80.4663 95.5571 80.1829 95.5574 80.1349C95.5574 80.0872 95.3956 79.7656 95.1974 79.4211L94.8371 78.7948H97.5257H100.214V77.5387V76.2826H93.7534H87.2923V78.7948V81.307H90.7404H94.1885L94.8727 80.7646V80.7646ZM113.719 78.7206V76.1342L112.653 76.2085C112.067 76.2497 109.186 76.2828 106.25 76.2828H100.913V77.5389V78.795H103.416C104.792 78.795 105.919 78.8225 105.919 78.8564C105.919 78.8895 105.788 79.1708 105.628 79.4807C105.468 79.7906 105.339 80.0843 105.341 80.1336C105.354 80.3688 106.553 81.141 107.006 81.205C107.272 81.2426 108.892 81.2811 110.604 81.2903L113.719 81.3068V78.7205V78.7206ZM124.083 81.1073C124.017 80.9972 123.005 79.8539 121.834 78.5664L119.706 76.2255L117.135 76.1943L114.565 76.1631L114.492 76.5935C114.452 76.8302 114.419 77.9874 114.418 79.1649L114.417 81.306H119.311C123.94 81.306 124.198 81.295 124.084 81.1063L124.083 81.1073ZM104.657 75.4833H106.85V72.1717V68.86H100.447H94.0444V72.1678V75.4754L95.2959 75.5213C95.9842 75.547 97.8786 75.5479 99.5057 75.5213C101.133 75.4984 103.451 75.48 104.657 75.48V75.4833ZM93.2299 74.1415C93.2299 73.4035 93.2644 71.9133 93.3064 70.8299L93.3826 68.86H87.4876H81.5925L81.5355 69.117C81.5042 69.2582 81.4638 70.7485 81.446 72.4286L81.4135 75.4833H87.3216H93.2296V74.1415H93.2299ZM119.446 72.3143C119.426 70.5715 119.389 69.0813 119.362 69.0028C119.324 68.8912 118.034 68.86 113.431 68.86H107.549V72.1717V75.4833H113.515H119.481L119.446 72.3143H119.446ZM86.7102 65.1488V62.1227H84.2244H81.7385L81.6632 62.9963C81.6218 63.4768 81.588 64.8387 81.588 66.0224V68.1749H84.1491H86.7102V65.1488H86.7102ZM100.022 67.4041C100.063 66.9801 100.097 65.6184 100.097 64.378L100.098 62.1227H93.8116H87.5252L87.5243 63.8642C87.5243 64.8219 87.4898 66.1836 87.4482 66.8902L87.3727 68.1749H93.6601H99.9474L100.022 67.4041H100.022ZM113.486 65.1488V62.1227H107.141H100.796V65.1488V68.1749H107.141H113.486V65.1488ZM119.307 66.0224C119.307 64.8387 119.273 63.4768 119.231 62.9963L119.156 62.1227H116.744H114.332L114.258 62.6525C114.217 62.9439 114.184 64.3057 114.184 65.6785V68.1749H116.745H119.307V66.0224H119.307ZM93.7355 60.0493C93.7774 59.2858 93.8116 57.8727 93.8116 56.909V55.1569H87.8344H81.8573L81.7811 56.9554C81.7393 57.9446 81.7049 59.331 81.7048 60.0363V61.3185L83.9457 61.3515C85.1783 61.3708 87.8682 61.3974 89.9232 61.4111L93.6597 61.4368L93.7358 60.0487L93.7355 60.0493ZM107.006 59.535C107.048 58.4888 107.083 57.0757 107.083 56.3949V55.1569H100.796H94.5101V58.2973V61.4376H100.72H106.93L107.006 59.535H107.006ZM114.201 61.3233H119.19V60.0387C119.19 59.3321 119.155 57.9446 119.114 56.9554L119.038 55.1569H113.41H107.782V58.3135V61.47L108.497 61.3966C108.891 61.3572 111.458 61.3232 114.202 61.3232L114.201 61.3233ZM86.9431 52.0154V49.5588L86.5065 49.613C86.2664 49.6432 85.1478 49.7271 84.0208 49.7998L81.9717 49.9322L81.8967 51.3738C81.8555 52.1668 81.8216 53.1882 81.8213 53.6435V54.4714H84.3824H86.9435V52.0149L86.9431 52.0154ZM100.216 52.2736C100.217 51.0646 100.249 49.8827 100.289 49.6471L100.361 49.2188H98.4544C96.3345 49.2188 90.2101 49.4038 88.7185 49.5118L87.7581 49.5815V52.0264V54.4713H93.9863H100.215L100.215 52.2731L100.216 52.2736ZM113.399 52.0452C113.434 50.7106 113.455 49.6096 113.444 49.5985C113.377 49.5278 108.365 49.3266 105.017 49.2611L101.029 49.1831V51.8275V54.472H107.182H113.335L113.399 52.0454L113.399 52.0452ZM118.462 54.3978L119.074 54.3253V53.5705C119.074 53.1552 119.04 52.1687 118.998 51.378L118.924 49.9403L116.758 49.7991C115.567 49.7211 114.5 49.6325 114.388 49.6018C114.199 49.5495 114.185 49.7176 114.185 52.0084L114.185 54.4713H116.018C117.027 54.4713 118.127 54.4383 118.463 54.398L118.462 54.3978ZM84.0786 48.9834C84.2517 48.8266 83.2114 47.1818 82.4476 46.4047C81.4151 45.3544 80.6956 45.0496 79.2597 45.055C78.5482 45.055 78.0176 45.1184 77.772 45.2262L77.3904 45.3935L79.4522 47.3124L81.5139 49.2314L82.7442 49.1553C83.4209 49.1131 84.0213 49.0359 84.0786 48.984V48.9834ZM121.368 47.3634C122.467 46.3426 123.375 45.4564 123.385 45.3935C123.42 45.1793 122.407 44.9814 121.46 45.0176C120.308 45.0616 119.639 45.356 118.797 46.1892C118.236 46.7442 117.216 48.2879 117.044 48.8417C116.961 49.1112 117.083 49.1364 118.785 49.1978L119.369 49.2188L121.368 47.3634V47.3634ZM86.8063 48.7769C86.8923 48.7237 87.0083 48.3091 87.0682 47.8404C87.3066 45.9783 88.2801 44.487 89.7609 43.7154C90.4707 43.3456 92.0215 43.341 92.7222 43.7044C93.9242 44.3316 94.8338 46.0507 95.0042 48.0178L95.0339 48.3604L95.9943 48.3934L96.9548 48.4264L96.9557 47.2513C96.9575 44.94 97.6588 43.6386 99.1934 43.0933C99.8748 42.8511 100.965 42.8471 101.673 43.0823C102.513 43.3635 103.056 43.8537 103.494 44.7269C103.851 45.4387 103.876 45.5712 103.92 46.9496L103.967 48.4152H104.331C104.532 48.4152 104.971 48.3822 105.307 48.3418L105.918 48.2693V47.8549C105.918 47.2109 106.357 45.7964 106.769 45.1162C107.187 44.4247 108.03 43.7071 108.668 43.5007C109.289 43.2997 110.758 43.4117 111.332 43.7046C112.833 44.4699 113.819 45.9608 114.058 47.8294C114.116 48.2877 114.188 48.6862 114.218 48.7149C114.247 48.7434 114.709 48.7929 115.246 48.8238L116.221 48.8807L116.68 47.9508C117.596 46.0934 118.861 44.8496 120.227 44.4618C120.585 44.3607 120.976 44.2425 121.095 44.2001C121.58 44.028 115.982 42.5099 112.845 41.9628C108.918 41.2778 107.451 41.1842 100.621 41.1823C93.8522 41.1823 92.6719 41.2474 88.8079 41.8574C86.0874 42.2866 82.1304 43.2502 80.0159 43.9987L79.5503 44.1636L79.8995 44.2425C82.0124 44.7224 83.2875 45.7557 84.4832 47.957L84.9799 48.8713H85.8157C86.2755 48.8713 86.721 48.8272 86.8059 48.7736L86.8063 48.7769ZM113.258 47.473C113.084 46.6502 112.657 45.7908 112.149 45.2389C111.577 44.618 110.47 44.0802 109.765 44.0802C109.063 44.0802 108.124 44.5363 107.689 45.0884C107.127 45.8002 106.617 47.2746 106.617 48.1854V48.5108L108.043 48.5833C108.828 48.6237 110.334 48.6933 111.39 48.7376L113.311 48.8183L113.348 48.4426C113.368 48.236 113.327 47.7993 113.258 47.472L113.258 47.473ZM93.3302 48.5742L94.3039 48.5045L94.2246 47.8052C93.9887 45.7231 92.9798 44.3587 91.5051 44.1274C89.7489 43.852 87.7579 46.0927 87.7579 48.3444V48.7923L90.0571 48.718C91.3217 48.6768 92.7945 48.6126 93.3301 48.574L93.3302 48.5742ZM103.176 47.2206C103.166 45.2675 102.761 44.3845 101.647 43.8843C101.109 43.6423 100.883 43.6038 100.285 43.6509C99.0362 43.7486 98.3392 44.2548 97.932 45.3573C97.7442 45.866 97.568 48.0369 97.6893 48.3471C97.7484 48.4983 98.1262 48.5191 100.47 48.4994L103.183 48.4765L103.176 47.2204L103.176 47.2206ZM78.0564 43.924C79.2907 43.4624 81.5708 42.7353 83.1305 42.3061C83.9667 42.0759 84.2653 41.945 84.2648 41.8094C84.2639 41.51 83.8093 37.885 83.7678 37.8444C83.6258 37.7052 78.6236 39.213 77.1186 39.8487L76.5492 40.0892L76.626 40.9143C76.7956 42.7373 76.9672 44.3086 76.9966 44.3086C77.0138 44.3086 77.4907 44.1355 78.0564 43.924V43.924ZM123.961 44.1659C123.96 44.087 124.047 43.1599 124.153 42.1048C124.272 40.9348 124.305 40.1453 124.24 40.0812C123.947 39.7935 119.761 38.4003 117.956 37.9894L117.246 37.8278L117.044 39.7264C116.934 40.7708 116.819 41.7108 116.789 41.8155C116.747 41.9644 116.883 42.0459 117.41 42.1889C118.576 42.5055 122.361 43.7188 123.09 44.0097C123.923 44.3423 123.964 44.3495 123.961 44.1659H123.961ZM116.273 39.8073C116.409 38.682 116.479 37.726 116.429 37.6832C116.081 37.3843 110.208 36.5301 107.327 36.3591L105.999 36.2802L106.075 36.8272C106.117 37.1282 106.152 38.0867 106.152 38.9573V40.54H106.938C108.506 40.54 113.503 41.2412 115.407 41.7268C115.727 41.8075 115.997 41.8701 116.007 41.864C116.017 41.8529 116.137 40.9319 116.273 39.8065L116.273 39.8073ZM85.9687 41.628C88.0309 41.1509 92.6557 40.5404 94.2066 40.5404C94.6861 40.5404 95.1104 40.489 95.1495 40.4275C95.1887 40.3651 95.1836 39.4075 95.1381 38.2991L95.0558 36.2839L93.706 36.36C91.8881 36.4633 88.8722 36.8208 86.8847 37.168C84.8556 37.5228 84.551 37.6074 84.5775 37.8095C84.5891 37.8985 84.6839 38.7667 84.7882 39.7404C84.8925 40.7138 84.9992 41.5744 85.0254 41.6531C85.0843 41.8297 85.0949 41.8294 85.9686 41.6274L85.9687 41.628ZM105.407 40.2455C105.369 40.1466 105.337 39.1954 105.337 38.1329V36.201H100.565H95.7942L95.8603 38.1709C95.8967 39.2542 95.9466 40.2048 95.9712 40.2834C96.0059 40.3945 97.0636 40.4261 100.747 40.4261C105.013 40.4261 105.471 40.4087 105.407 40.2455H105.407ZM77.9319 38.7685C78.6939 38.4851 79.7383 38.1271 80.2528 37.9731L81.1883 37.6933L81.0674 36.2709C81.0008 35.4886 80.9162 34.8188 80.8792 34.7825C80.8184 34.7229 76.288 35.9929 76.1829 36.0992C76.1513 36.1313 76.3541 38.426 76.462 39.2556C76.4684 39.3097 76.5508 39.2822 77.9319 38.7685V38.7685ZM124.435 39.1985C124.439 39.1518 124.512 38.4449 124.598 37.6283C124.684 36.8119 124.721 36.1123 124.679 36.0735C124.536 35.9403 120.096 34.7029 120.022 34.7756C119.981 34.816 119.894 35.4826 119.828 36.2575L119.708 37.6664L121.166 38.1353C121.968 38.3932 122.991 38.7519 123.439 38.9323C124.353 39.3 124.426 39.3198 124.435 39.1985V39.1985ZM88.518 36.1536C89.096 36.0646 90.2856 35.9255 91.1615 35.8446L92.7539 35.6974L92.6959 34.2077C92.6334 32.6065 92.5417 31.5191 92.4694 31.5191C92.4447 31.5191 91.1819 31.8016 89.6632 32.1472C88.1445 32.4926 86.885 32.7752 86.8643 32.7752C86.7956 32.7752 86.8256 35.3612 86.9004 35.8979C86.9653 36.3617 87.0043 36.4193 87.2206 36.3706C87.3561 36.3404 87.9399 36.2424 88.518 36.1536H88.518ZM113.994 35.8996C114.034 35.6082 114.068 34.7894 114.068 34.0803C114.068 32.9508 114.042 32.7832 113.864 32.7313C113.018 32.4851 108.447 31.5134 108.391 31.568C108.266 31.6911 108.136 35.5629 108.255 35.6351C108.316 35.6718 109.06 35.7687 109.907 35.8497C111.184 35.9717 111.911 36.0762 113.848 36.4168C113.888 36.4278 113.953 36.191 113.994 35.8996ZM102.968 33.6706C102.926 32.7186 102.892 31.6394 102.892 31.2725V30.6056H100.447H98.0025V31.2725C98.0025 31.6394 97.9682 32.7186 97.9261 33.6706L97.8497 35.4017H100.447H103.045L102.968 33.6706V33.6706Z" fill="black"/>
<path d="M105.894 41.0602C111.033 42.3687 114.45 44.6098 113.655 49.1349L114.008 76.4731L118.242 81.4334L121.417 99.6589H128.355L125.18 81.8948L120.006 75.6657L119.3 49.827L124.122 44.9244C118.621 43.2506 114.167 40.8734 105.894 41.0602V41.0602Z" fill="black" fill-opacity="0.103774"/>
</g>
<defs>
<clipPath id="clip0_1_5159">
<rect width="600" height="400" fill="white"/>
</clipPath>
</defs>
</svg>
