<svg width="600" height="400" viewBox="0 0 600 400" fill="none" xmlns="http://www.w3.org/2000/svg" xmlns:cgf="https://coding.garden/flags"><metadata id="cgf-metadata">

<cgf:flag>
  <cgf:name>Heeze-Leende</cgf:name>
  <cgf:route>nl/nb/heeze_leende</cgf:route>
  <cgf:aspect-ratio>1.5</cgf:aspect-ratio>
</cgf:flag>

</metadata><g clip-path="url(#clip0_1_5141)">
<path d="M1.23037 -0.174805L0.497559 400.773L209.35 400.019V-0.174805H1.23037V-0.174805Z" fill="#009534" stroke="black" stroke-width="0.00685632"/>
<path d="M206.657 -0.0693359L205.265 400.275L601.97 399.522V-0.0693359H206.657V-0.0693359Z" fill="#FFFF00" stroke="black" stroke-width="0.00944231"/>
<path d="M211 16.8115C221.601 25.9243 227.754 40.0177 228.587 60.0666L301.869 60.4394C300.561 46.7537 303.599 32.4783 316.891 16.8115H211V16.8115Z" fill="#E31C18" stroke="black" stroke-width="0.00682036"/>
<path d="M228.221 66.0331V73.1179H301.869V65.6602L228.221 66.0331V66.0331Z" fill="#E31C18" stroke="black" stroke-width="0.00682036"/>
<path d="M301.502 79.0838C305.003 134.092 365.985 127.774 364.891 79.0838H385.41C381.147 132.083 350.086 170.563 305.533 168.204C255.463 162.791 227.14 125.919 227.855 78.7109L301.502 79.0838V79.0838Z" fill="#E31C18" stroke="black" stroke-width="0.00682036"/>
<path d="M366.723 67.5244L367.089 73.1177H385.043V67.5244H366.723Z" fill="#E31C18" stroke="black" stroke-width="0.00682036"/>
<path d="M353.166 16.8114L353.532 42.1678C355.542 49.6481 359.596 56.4351 367.456 61.9309H385.043C392.22 57.1094 395.921 49.458 398.234 40.6762L397.501 16.4385L353.166 16.8114V16.8114Z" fill="#E31C18" stroke="black" stroke-width="0.00682036"/>
<path d="M403.924 16.8115C414.526 25.9243 420.679 40.0177 421.511 60.0665L494.793 60.4394C493.485 46.7537 496.524 32.4783 509.816 16.8115H403.924V16.8115Z" fill="#E31C18" stroke="black" stroke-width="0.00682036"/>
<path d="M421.145 66.0331V73.1179H494.793V65.6602L421.145 66.0331V66.0331Z" fill="#E31C18" stroke="black" stroke-width="0.00682036"/>
<path d="M494.426 79.0838C497.927 134.092 558.909 127.774 557.815 79.0838H578.334C574.071 132.083 543.01 170.563 498.457 168.204C448.387 162.791 420.063 125.919 420.778 78.7109L494.426 79.0838V79.0838Z" fill="#E31C18" stroke="black" stroke-width="0.00682036"/>
<path d="M559.647 67.5244L560.013 73.1178H577.967V67.5244H559.647Z" fill="#E31C18" stroke="black" stroke-width="0.00682036"/>
<path d="M546.09 16.8114L546.456 42.1678C548.466 49.6481 552.52 56.4351 560.38 61.9309H577.967C585.144 57.1094 588.845 49.458 591.158 40.6762L590.425 16.4385L546.09 16.8114V16.8114Z" fill="#E31C18" stroke="black" stroke-width="0.00682036"/>
<path d="M314.231 218.507C324.833 227.62 330.986 241.713 331.819 261.762L405.1 262.135C403.792 248.449 406.831 234.174 420.123 218.507H314.231V218.507Z" fill="#E31C18" stroke="black" stroke-width="0.00682036"/>
<path d="M331.452 267.727V274.812H405.1V267.354L331.452 267.727Z" fill="#E31C18" stroke="black" stroke-width="0.00682036"/>
<path d="M404.733 280.779C408.234 335.787 469.216 329.47 468.122 280.779H488.641C484.378 333.779 453.317 372.259 408.764 369.899C358.694 364.486 330.371 327.615 331.085 280.406L404.733 280.779Z" fill="#E31C18" stroke="black" stroke-width="0.00682036"/>
<path d="M469.954 269.22L470.32 274.813H488.274V269.22H469.954V269.22Z" fill="#E31C18" stroke="black" stroke-width="0.00682036"/>
<path d="M456.397 218.507L456.763 243.863C458.773 251.343 462.827 258.13 470.687 263.626H488.274C495.451 258.805 499.152 251.153 501.465 242.372L500.732 218.134L456.397 218.507V218.507Z" fill="#E31C18" stroke="black" stroke-width="0.00682036"/>
</g>
<defs>
<clipPath id="clip0_1_5141">
<rect width="600" height="400" fill="white"/>
</clipPath>
</defs>
</svg>
