<svg width="600" height="400" viewBox="0 0 600 400" fill="none" xmlns="http://www.w3.org/2000/svg" xmlns:cgf="https://coding.garden/flags"><metadata id="cgf-metadata">

<cgf:flag>
  <cgf:name>Helmond</cgf:name>
  <cgf:route>nl/nb/helmond</cgf:route>
  <cgf:aspect-ratio>1.5</cgf:aspect-ratio>
</cgf:flag>

</metadata><g clip-path="url(#clip0_1_5173)">
<path d="M299.434 0H0V400H299.434V0Z" fill="#DA0E19"/>
<path d="M248.036 376.803C246.238 376.497 238.571 367.548 234.923 361.498C231.78 356.283 229.15 350.815 226.518 344.017C224.947 339.961 224.862 338.962 226.085 338.962C226.43 338.962 228.423 338.015 230.513 336.857C238.739 332.301 242.212 324.713 239.75 316.678C239.19 314.853 238.118 313.179 236.083 310.953C232.927 307.5 230.283 306.143 225.691 305.619C224.232 305.452 223.037 305.138 223.037 304.92C223.037 304.134 225.848 297.266 227.636 293.685C234.766 279.398 245.143 267.847 258.643 259.168C261.426 257.379 261.586 257.497 264.139 263.226C266.726 269.03 268.7 275.962 269.868 283.348C270.403 286.73 271.165 291.499 271.561 293.946C273.411 305.364 278.497 311.243 285.157 309.663C288.623 308.84 291.309 306.936 295.768 302.143L299.671 297.948V334.42C299.671 354.479 299.579 370.892 299.468 370.892C299.356 370.892 295.897 371.7 291.781 372.688C283.017 374.791 276.237 375.909 267.79 376.643C261.917 377.153 250.637 377.244 248.036 376.803V376.803ZM280.985 306.752C276.541 305.069 274.943 300.805 272.462 284.001C272.016 280.978 271.026 276.15 270.263 273.271C268.79 267.712 264.909 258.312 263.32 256.451C262.795 255.837 261.505 253.438 260.452 251.12C253.589 236.018 245.8 225.725 234.417 216.718L229.152 212.552L231.653 212.425C236.927 212.157 243.582 211.131 247.652 209.958C271.99 202.942 290.373 183.235 296.011 158.115C297.528 151.357 297.499 137.285 295.952 130.391C292.353 114.336 283.619 99.2145 269.802 85.1141L265.582 80.8078L263.422 82.8207C253.837 91.7543 242.69 97.6075 230.574 100.069C223.859 101.433 212.015 101.306 205.534 99.7997C194.859 97.3189 184.659 92.474 176.255 85.8918C173.925 84.0669 171.87 82.729 171.688 82.9186C170.217 84.4513 175.542 72.543 179.179 66.1667C191.264 44.9809 211.717 27.2584 231.642 20.7076C248.596 15.1337 269.012 14.6775 295.649 19.2774L299.433 19.931L299.552 157.102L299.67 294.272L295.057 299.276C288.734 306.135 284.83 308.208 280.984 306.752L280.985 306.752ZM223.983 209.347C210.392 207.432 198.145 201.375 187.603 191.352C183.223 187.189 179.85 181.802 175.309 171.724C170.151 160.275 168.411 153.067 168.482 143.458C168.574 131.328 172.096 122.302 180.539 112.564L183.726 108.888L178.015 102.204C174.874 98.5277 172.122 95.5887 171.9 95.6728C171.192 95.9401 164.399 105.115 162.283 108.66C154.384 121.895 152.487 134.742 156.353 148.816C158.987 158.405 165.44 169.891 173.919 180.081L177.389 184.25L174.55 182.503C164.597 176.377 157.895 168.564 153.235 157.655C149.271 148.374 147.827 139.212 148.685 128.771C150.138 111.081 157.236 96.2161 168.05 88.2123C171.135 85.9292 171.715 85.672 172.459 86.2555C184.14 95.4114 193.37 99.9059 206.244 102.706C212.743 104.119 225.415 103.987 232.262 102.435C243.918 99.7925 256.109 93.4775 263.366 86.3221C264.342 85.3594 265.316 84.5718 265.529 84.5718C265.742 84.5718 268.311 87.1999 271.237 90.4121C291.616 112.784 298.991 136.92 292.77 160.879C288.415 177.647 276.223 193.097 260.48 201.797C255.73 204.421 248.228 207.263 243.104 208.379C239.41 209.183 227.208 209.801 223.983 209.347ZM225.116 202.564C225.642 201.047 225.425 200.816 221.5 198.723C215.822 195.694 211.98 192.729 207.346 187.797C199.664 179.622 194.907 170.247 192.964 159.458C192.007 154.145 192.248 144.159 193.451 139.271C195.131 132.446 198.657 125.457 203.556 119.237C204.979 117.431 206.06 115.863 205.957 115.753C205.723 115.501 189.291 110.733 189.195 110.89C180.811 124.61 177.945 134.195 177.974 148.431C177.991 154.848 178.176 156.806 179.194 161.101C184.166 182.076 197.931 195.751 220.672 202.311C225.049 203.573 224.771 203.558 225.116 202.564V202.564ZM208.011 194.511C188.647 184.208 178.753 165.855 180.507 143.492C181.211 134.514 183.095 127.615 186.947 119.904C190.332 113.128 189.413 113.58 195.904 115.489C198.99 116.396 201.575 117.201 201.651 117.277C201.727 117.353 200.866 118.609 199.74 120.069C195.534 125.521 191.605 134.783 190.414 142.051C189.63 146.834 189.725 155.963 190.606 160.588C193.082 173.575 199.758 185.078 209.981 193.967C214.529 197.922 214.458 197.942 208.011 194.511V194.511ZM246.453 194.929C252.437 192.326 257.521 190.07 257.752 189.915C257.982 189.76 255.428 188.411 252.075 186.918C232.468 178.181 221.218 167.97 217.269 155.327C216.313 152.266 216.181 150.862 216.201 143.982C216.221 136.941 216.357 135.648 217.523 131.461C218.238 128.893 219.969 124.124 221.37 120.862L223.918 114.931H217.124H210.33L207.91 118.726C204.586 123.94 200.062 134.221 198.87 139.271C193.562 161.756 203.596 180.587 229.84 197.387C232.213 198.906 234.473 200.039 234.864 199.904C235.254 199.77 240.469 197.531 246.453 194.929V194.929ZM228.406 193.241C221.085 188.33 216.167 184.142 211.642 178.969C205.105 171.494 201.905 165.233 200.37 156.911C198.443 146.466 202.351 131.742 210.227 119.773L211.69 117.548H215.748C217.979 117.548 219.734 117.725 219.647 117.941C214.543 130.65 212.702 139.887 213.575 148.414C215.251 164.787 225.823 177.325 246.241 187.154C249.124 188.542 251.309 189.795 251.097 189.939C250.471 190.362 234.804 197.111 234.465 197.104C234.294 197.099 231.567 195.362 228.406 193.241V193.241ZM271.24 181.035L278.287 174.382L273.2 171.19C266.395 166.92 262.372 163.682 257.676 158.697C247.407 147.798 241.949 134.639 240.752 117.899C240.563 115.254 240.194 113.192 239.89 113.078C238.466 112.544 230.343 111.872 229.992 112.26C229.277 113.052 225.973 124.604 224.868 130.178C223.455 137.298 223.362 147.455 224.658 152.88C228.183 167.634 238.737 178.041 257.822 185.584C260.675 186.712 263.276 187.647 263.601 187.662C263.927 187.676 267.364 184.695 271.24 181.035V181.035ZM257.708 182.746C245.071 177.667 235.891 170.662 231.02 162.378C224.865 151.911 224.464 138.023 229.81 120.427C231.572 114.628 231.582 114.618 235.583 115.172L238.071 115.515L238.382 119.018C240.466 142.497 250.108 158.899 269.514 171.976C271.791 173.51 273.639 174.905 273.622 175.076C273.544 175.853 263.712 184.545 262.936 184.522C262.456 184.507 260.104 183.708 257.708 182.746V182.746ZM284.419 161.74C285.51 156.285 285.703 144.642 284.793 139.271C282.782 127.408 278.207 117.099 268.589 102.761C266.899 100.242 265.339 98.1811 265.121 98.1811C264.904 98.1811 260.446 101.028 255.216 104.507C247.911 109.365 245.758 111.034 245.935 111.704C246.06 112.183 246.588 114.578 247.105 117.025C251.867 139.541 262.626 155.189 278.833 163.172C281.058 164.267 283.085 165.091 283.338 165.002C283.592 164.914 284.078 163.445 284.419 161.74V161.74ZM277.201 159.275C271.69 156.054 269.149 153.99 264.864 149.254C258.792 142.541 254.438 134.432 251.493 124.353C250.075 119.5 248.436 112.291 248.691 112.029C248.76 111.957 252.367 109.538 256.705 106.652L264.592 101.406L267.176 105.159C271.385 111.273 274.521 116.889 277.503 123.653C281.034 131.663 282.613 138.212 282.975 146.346C283.269 152.946 282.449 161.528 281.528 161.502C281.23 161.494 279.282 160.491 277.201 159.275V159.275Z" fill="white"/>
<path d="M600 0H299.435V400H600V0Z" fill="white"/>
<path d="M299.433 334.58V298.047L304.235 291.794C315.889 276.617 327.195 260.484 339.703 241.187C349.86 225.515 355.607 217.529 361.235 211.259C365.528 206.478 371.54 201.189 374.728 199.389L376.521 198.377L393.323 207.849C402.565 213.058 410.125 217.496 410.125 217.71C410.125 217.924 409.008 218.384 407.642 218.733C402.934 219.934 398.367 222.894 394.232 227.427C387.384 234.933 385.35 239.368 376.339 266.435C374.23 272.771 369.421 284.472 360.744 304.384C353.843 320.218 348.013 333.513 347.787 333.93C347.471 334.511 346.914 333.993 345.374 331.686C341.612 326.051 335.677 322.41 329.624 322.022C323.49 321.629 319.506 323.651 317.395 328.23C315.122 333.16 317.412 341.453 323.172 349.211C324.165 350.546 324.977 351.87 324.977 352.152C324.977 353.065 318.689 359.674 315.28 362.343C311.555 365.261 306.782 368.052 302.39 369.882L299.433 371.113V334.58V334.58ZM403.863 292.53C401.761 288.902 397.176 284.235 393.446 281.928C390.275 279.966 381.842 276.655 378.539 276.075C377.428 275.879 376.43 275.56 376.321 275.366C376.138 275.039 378.505 267.59 383.234 253.611C389.919 233.849 397.279 224.422 408.538 221.203C413.465 219.795 413.898 219.928 417.231 223.87C427.149 235.602 426.461 251.408 414.931 276.715C412.131 282.86 406.464 294.25 405.892 294.884C405.667 295.133 404.764 294.085 403.863 292.53V292.53ZM299.433 156.902V19.9258L303.572 21.5418C322.597 28.9697 340.044 46.1222 349.395 66.5901C355.361 79.6479 358.185 92.6228 358.202 107.048C358.219 119.331 356.941 127.675 353.36 138.716C352.287 142.027 351.079 146.385 350.676 148.4C349.682 153.373 349.694 162.15 350.7 166.459C353.078 176.649 359.405 185.511 370.272 193.87C372.158 195.322 373.688 196.637 373.671 196.794C373.654 196.951 372.061 198.211 370.132 199.595C362.114 205.343 353.496 215.658 342.112 233.13C330.442 251.041 324.327 260.121 317.173 270.156C310.532 279.471 302.077 290.84 300.1 293.112C299.527 293.771 299.433 274.78 299.433 156.902H299.433Z" fill="#DA0E19"/>
</g>
<defs>
<clipPath id="clip0_1_5173">
<rect width="600" height="400" fill="white"/>
</clipPath>
</defs>
</svg>
