<svg width="600" height="400" viewBox="0 0 600 400" fill="none" xmlns="http://www.w3.org/2000/svg" xmlns:cgf="https://coding.garden/flags"><metadata id="cgf-metadata">

<cgf:flag>
  <cgf:name>Heusden</cgf:name>
  <cgf:route>nl/nb/heusden</cgf:route>
  <cgf:aspect-ratio>1.5</cgf:aspect-ratio>
</cgf:flag>

</metadata><g clip-path="url(#clip0_1_5182)">
<path d="M600 0H0V400H600V0Z" fill="#0F47AF"/>
<path d="M0 0H200V400H600V200H0V0Z" fill="#FFDD00"/>
<path d="M196 204H200V334H196V204Z" fill="#FFDD00"/>
<path d="M76.7565 266.536L189.34 201.536L193.34 208.464L80.7565 273.464L76.7565 266.536Z" fill="#FFDD00"/>
<path d="M50 200C50 239.782 65.8035 277.936 93.934 306.066C122.064 334.196 160.218 350 200 350V322C167.644 322 136.612 309.146 113.733 286.267C90.8535 263.388 78 232.356 78 200H177C177 206.1 179.423 211.95 183.737 216.263C188.05 220.577 193.9 223 200 223V200" fill="#FFDD00"/>
<path d="M204 196H200V66H204V196Z" fill="#FFDD00"/>
<path d="M323.243 133.464L210.66 198.464L206.66 191.536L319.243 126.536L323.243 133.464Z" fill="#FFDD00"/>
<path d="M350 200C350 160.218 334.196 122.064 306.066 93.934C277.936 65.8035 239.782 50 200 50V78C232.356 78 263.388 90.8535 286.267 113.733C309.146 136.612 322 167.644 322 200H223C223 193.9 220.577 188.05 216.263 183.737C211.95 179.423 206.1 177 200 177V200" fill="#FFDD00"/>
<path d="M204 204H200V334H204V204Z" fill="#DA121A"/>
<path d="M323.243 266.536L210.66 201.536L206.66 208.464L319.243 273.464L323.243 266.536Z" fill="#DA121A"/>
<path d="M350 200C350 239.782 334.196 277.936 306.066 306.066C277.936 334.196 239.782 350 200 350V322C232.356 322 263.388 309.146 286.267 286.267C309.146 263.388 322 232.356 322 200H223C223 206.1 220.577 211.95 216.263 216.263C211.95 220.577 206.1 223 200 223V200" fill="#DA121A"/>
<path d="M196 196H200V66H196V196Z" fill="#DA121A"/>
<path d="M76.7565 133.464L189.34 198.464L193.34 191.536L80.7565 126.536L76.7565 133.464Z" fill="#DA121A"/>
<path d="M50 200C50 160.218 65.8035 122.064 93.934 93.934C122.064 65.8035 160.218 50 200 50V78C167.644 78 136.612 90.8535 113.733 113.733C90.8535 136.612 78 167.644 78 200H177C177 193.9 179.423 188.05 183.737 183.737C188.05 179.423 193.9 177 200 177V200" fill="#DA121A"/>
</g>
<defs>
<clipPath id="clip0_1_5182">
<rect width="600" height="400" fill="white"/>
</clipPath>
</defs>
</svg>
