<svg width="600" height="400" viewBox="0 0 600 400" fill="none" xmlns="http://www.w3.org/2000/svg" xmlns:cgf="https://coding.garden/flags"><metadata id="cgf-metadata">

<cgf:flag>
  <cgf:name>Maashorst</cgf:name>
  <cgf:route>nl/nb/maashorst</cgf:route>
  <cgf:aspect-ratio>1.5</cgf:aspect-ratio>
</cgf:flag>

</metadata><g clip-path="url(#clip0_3_11553)">
<rect width="600" height="400" fill="white"/>
<path d="M561.233 230.094C561.11 230.083 560.985 230.083 560.862 230.094C559.603 230.334 557.766 231.37 554.88 231.913C553.073 232.265 551.206 232.157 549.452 231.597C547.698 231.037 546.113 230.044 544.844 228.709V228.633L544.591 228.364C541.077 224.394 537.488 216.622 534.991 201.878C534.814 200.707 534.369 199.593 533.69 198.623C533.012 197.652 532.119 196.852 531.081 196.284C530.042 195.715 528.887 195.395 527.705 195.347C526.522 195.299 525.345 195.525 524.264 196.008C522.819 196.655 521.609 197.734 520.8 199.096C519.305 201.441 517.81 204.657 515.683 208.821C515.683 208.821 511.766 217.675 504.963 232.482C504.948 232.527 504.922 232.567 504.889 232.599C504.855 232.632 504.814 232.657 504.77 232.671C504.725 232.686 504.678 232.689 504.632 232.682C504.585 232.675 504.541 232.657 504.503 232.63C504.453 232.593 504.415 232.541 504.395 232.482C502.899 226.47 494.644 185.069 512.486 67.3941C512.607 66.5077 512.677 65.6149 512.693 64.7203C512.69 63.6811 512.346 62.6717 511.714 61.8474C511.081 61.0231 510.196 60.4297 509.193 60.1585C508.19 59.8911 507.127 59.9635 506.17 60.3646C505.213 60.7656 504.415 61.4727 503.902 62.3753C503.796 62.5397 503.708 62.7174 503.632 62.9015C503.156 64.2631 502.765 65.6542 502.466 67.0652C501.749 70.4001 467.816 220.394 454.764 262.485C454.764 262.485 444.297 299.347 439.032 299.419C436.938 299.419 432.212 297.709 430.94 266.348L430.776 258.981V257.916C430.769 256.519 430.431 255.144 429.79 253.903C429.667 253.742 429.508 253.612 429.325 253.523C429.143 253.434 428.943 253.388 428.74 253.39C428.538 253.391 428.338 253.439 428.157 253.53C427.976 253.621 427.818 253.753 427.697 253.916L427.591 254.051C426.786 255.656 426.414 257.444 426.513 259.238C426.214 269.627 423.03 304.503 437.148 307.763C448.96 310.516 459.49 289.529 474.831 231.714C489.531 176.319 490.938 167.587 490.938 167.587C490.938 167.587 486.452 230.002 498.415 244.374C499.12 245.295 500.024 246.044 501.06 246.564C502.096 247.085 503.237 247.364 504.396 247.38C506.4 247.343 508.319 246.561 509.779 245.186C512.172 242.884 515.028 237.924 518.873 228.334C522.415 219.434 525.301 213.6 525.301 213.6C525.301 213.6 529.879 226.032 537.027 233.399C538.429 234.971 540.148 236.229 542.071 237.089C543.993 237.95 546.075 238.393 548.181 238.391C549.246 238.372 550.308 238.26 551.353 238.063C556.378 237.01 561.176 235.053 562.553 233.162C562.807 232.813 562.961 232.401 563 231.971C563.004 231.735 562.96 231.5 562.871 231.281C562.782 231.062 562.651 230.863 562.484 230.695C562.319 230.528 562.122 230.396 561.906 230.305C561.689 230.215 561.457 230.169 561.222 230.169" fill="#8C1978"/>
<path d="M93.5246 201.894C90.8868 200.283 87.8518 199.453 84.7675 199.5C81.6487 199.462 78.5783 200.279 75.8854 201.864C73.7979 203.095 71.9754 204.734 70.5247 206.684C69.247 204.715 67.5493 203.058 65.5554 201.834C62.9449 200.265 59.9531 199.457 56.9136 199.5C54.3301 199.466 51.7719 200.015 49.4268 201.108C47.9749 201.785 46.62 202.656 45.3987 203.697L45.2009 200.302H37V243.182H45.9115V219.562C45.8268 217.284 46.3159 215.021 47.3332 212.985C48.1491 211.407 49.3735 210.088 50.8807 209.166C52.2396 208.352 53.7915 207.922 55.3727 207.922C56.9538 207.922 58.5057 208.352 59.8647 209.166C61.3719 210.074 62.5961 211.387 63.4155 212.955C64.413 214.974 64.8931 217.215 64.8075 219.469V243.227H73.7915V219.559C73.707 217.284 74.1913 215.023 75.2 212.986C76.005 211.404 77.2339 210.081 78.7475 209.167C80.1076 208.356 81.659 207.928 83.2395 207.928C84.8199 207.928 86.3713 208.356 87.7314 209.167C89.2387 210.075 90.4629 211.388 91.2823 212.956C92.2798 214.975 92.7599 217.215 92.6743 219.47V243.228H101.645V218.455C101.711 215.048 100.977 211.674 99.503 208.606C98.1526 205.86 96.0812 203.538 93.5136 201.893M223.845 219.987C222.108 218.956 220.311 218.031 218.531 217.199C216.726 216.378 214.984 215.425 213.318 214.348C212.778 214.051 212.328 213.612 212.015 213.079C211.702 212.546 211.537 211.937 211.538 211.318C211.529 210.846 211.641 210.381 211.864 209.967C212.088 209.552 212.414 209.203 212.811 208.954C214.07 208.183 215.533 207.818 217.004 207.91C218.198 207.9 219.386 208.063 220.535 208.394C221.917 208.815 223.253 209.379 224.517 210.075L225.524 210.605L229.387 203.485L228.489 202.894C226.763 201.763 224.874 200.91 222.888 200.365C220.853 199.797 218.753 199.507 216.642 199.503C213.012 199.357 209.454 200.541 206.624 202.835C205.331 203.914 204.298 205.275 203.605 206.817C202.913 208.358 202.578 210.038 202.626 211.729C202.54 213.933 203.177 216.105 204.439 217.908C205.63 219.466 207.124 220.759 208.826 221.714C210.471 222.638 212.166 223.517 213.887 224.302C215.845 225.154 217.728 226.169 219.518 227.332C220.166 227.729 220.696 228.295 221.052 228.97C221.407 229.645 221.575 230.405 221.538 231.168C221.56 231.761 221.446 232.351 221.205 232.892C220.963 233.433 220.601 233.91 220.146 234.287C218.906 235.216 217.375 235.67 215.835 235.56C212.268 235.475 208.863 234.042 206.295 231.546L205.232 230.591L200.934 238.348L201.698 238.955C205.626 242.154 210.513 243.921 215.565 243.97C218.155 244.002 220.717 243.431 223.052 242.303C225.218 241.26 227.068 239.655 228.413 237.652C229.749 235.593 230.443 233.177 230.404 230.714C230.49 228.351 229.807 226.025 228.459 224.09C227.194 222.413 225.61 221.007 223.799 219.953M269.684 202.046C266.919 200.326 263.722 199.442 260.473 199.5C255.993 199.43 251.662 201.126 248.406 204.227V185L239.422 187.321V243.181H248.406V219.561C248.383 217.444 248.898 215.357 249.903 213.498C250.805 211.807 252.124 210.382 253.737 209.364C255.389 208.344 257.295 207.818 259.233 207.846C260.617 207.793 261.996 208.058 263.264 208.62C264.533 209.182 265.658 210.027 266.555 211.091C268.549 213.567 269.573 216.7 269.428 219.892V243.121H278.412V219.137C278.475 215.632 277.695 212.164 276.138 209.029C274.701 206.165 272.523 203.746 269.833 202.028M319.965 228.892C318.882 230.939 317.268 232.651 315.295 233.848C313.821 234.742 312.182 235.325 310.476 235.559C308.771 235.794 307.037 235.676 305.379 235.212C303.721 234.748 302.174 233.948 300.833 232.861C299.492 231.775 298.385 230.424 297.581 228.892C296.477 226.668 295.903 224.217 295.903 221.731C295.903 219.246 296.477 216.794 297.581 214.571C298.667 212.526 300.279 210.812 302.25 209.618C304.22 208.425 306.475 207.794 308.773 207.794C311.071 207.794 313.326 208.425 315.295 209.618C317.266 210.812 318.882 212.526 319.968 214.574C321.082 216.795 321.662 219.247 321.662 221.735C321.662 224.222 321.082 226.675 319.968 228.895L319.965 228.892ZM320.071 202.391C316.603 200.493 312.72 199.499 308.773 199.499C304.827 199.499 300.944 200.493 297.476 202.391C294.208 204.277 291.503 207.013 289.644 210.314C287.766 213.825 286.783 217.75 286.783 221.739C286.783 225.727 287.766 229.653 289.644 233.164C291.504 236.467 294.209 239.209 297.476 241.103C300.944 243.001 304.827 243.996 308.773 243.996C312.72 243.996 316.603 243.001 320.071 241.103C323.341 239.213 326.047 236.47 327.903 233.164C329.78 229.653 330.763 225.728 330.763 221.741C330.763 217.753 329.78 213.828 327.903 210.318C326.045 207.016 323.34 204.278 320.071 202.391V202.391ZM360.338 199.437C357.467 199.363 354.633 200.103 352.16 201.572C350.824 202.408 349.609 203.428 348.553 204.602L348.283 200.256H340.076V243.136H348.984V221.011C348.863 217.62 349.853 214.282 351.801 211.514C352.682 210.316 353.843 209.356 355.18 208.719C356.518 208.082 357.991 207.787 359.469 207.861C360.621 207.875 361.766 208.027 362.881 208.315L364.096 208.603L365.412 200.044L364.319 199.832C363.006 199.583 361.674 199.455 360.338 199.451M391.766 219.983C390.039 218.962 388.261 218.031 386.438 217.196C384.641 216.372 382.904 215.419 381.242 214.345C380.701 214.049 380.25 213.611 379.936 213.077C379.622 212.544 379.457 211.935 379.458 211.315C379.448 210.843 379.56 210.377 379.784 209.963C380.007 209.548 380.334 209.199 380.732 208.951C381.991 208.179 383.454 207.815 384.924 207.907C386.119 207.897 387.31 208.059 388.459 208.391C389.838 208.805 391.174 209.359 392.441 210.042L393.444 210.572L397.295 203.452L396.41 202.861C394.678 201.733 392.784 200.878 390.795 200.329C388.767 199.76 386.671 199.47 384.566 199.467C380.937 199.321 377.378 200.504 374.548 202.798C373.256 203.878 372.224 205.24 371.532 206.781C370.839 208.322 370.503 210.002 370.55 211.693C370.463 213.898 371.099 216.07 372.36 217.875C373.548 219.436 375.042 220.733 376.75 221.681C378.395 222.602 380.087 223.484 381.811 224.27C383.763 225.125 385.649 226.139 387.439 227.3C388.086 227.697 388.616 228.262 388.972 228.937C389.328 229.611 389.497 230.369 389.463 231.132C389.484 231.725 389.37 232.315 389.128 232.857C388.887 233.398 388.525 233.877 388.071 234.255C386.828 235.181 385.299 235.632 383.756 235.527C380.19 235.442 376.786 234.009 374.219 231.513L373.156 230.558L368.858 238.315L369.606 238.922C371.557 240.513 373.759 241.756 376.118 242.602C378.474 243.477 380.962 243.928 383.473 243.938C386.063 243.968 388.624 243.397 390.96 242.27C393.126 241.227 394.976 239.622 396.321 237.619C397.657 235.56 398.351 233.144 398.312 230.681C398.398 228.318 397.714 225.992 396.364 224.058C395.1 222.38 393.517 220.974 391.707 219.92M420.101 190.998L411.189 193.318V200.3H404.571V208.71H411.189V243.18H420.101V208.714H431V200.304H420.101V191.002V190.998ZM184.366 223.499V225.408C184.382 227.222 183.861 229 182.869 230.514C181.86 232.063 180.473 233.326 178.84 234.18C177.041 235.114 175.04 235.588 173.016 235.559C171.041 235.665 169.09 235.095 167.474 233.938C166.858 233.467 166.364 232.853 166.034 232.149C165.703 231.446 165.546 230.672 165.575 229.894C165.572 229.463 165.617 229.038 165.707 228.621L184.366 223.499ZM188.364 204.471C186.64 202.753 184.583 201.413 182.32 200.534C180.058 199.655 177.64 199.256 175.217 199.363C172.73 199.345 170.251 199.666 167.849 200.317C165.216 201.093 162.669 202.154 160.257 203.483L159.316 203.984L162.653 211.774L163.778 211.134C166.988 209.103 170.667 207.949 174.454 207.786C175.784 207.702 177.116 207.892 178.371 208.345C179.625 208.798 180.773 209.505 181.747 210.422C182.967 211.661 183.787 213.246 184.096 214.97L159.016 221.832L158.776 222.163C156.954 224.926 156.171 228.254 156.569 231.546C156.968 234.839 158.52 237.88 160.948 240.121C164.138 242.779 168.191 244.156 172.328 243.986C175.282 244.043 178.206 243.376 180.848 242.043C182.322 241.279 183.666 240.283 184.83 239.093L185.07 243.167H193.29V218.013C193.4 215.54 193.02 213.069 192.175 210.743C191.329 208.418 190.034 206.285 188.364 204.468L188.364 204.471ZM138.636 223.499V225.408C138.652 227.222 138.131 229 137.139 230.514C136.125 232.072 134.737 233.331 133.094 234.18C131.301 235.115 129.306 235.589 127.286 235.559C125.312 235.665 123.36 235.095 121.744 233.938C121.126 233.468 120.63 232.855 120.296 232.151C119.963 231.447 119.802 230.673 119.829 229.893C119.825 229.462 119.866 229.038 119.96 228.62L138.636 223.499ZM142.635 204.471C140.907 202.768 138.849 201.443 136.59 200.577C134.331 199.711 131.919 199.324 129.504 199.439C127.011 199.421 124.527 199.743 122.119 200.394C119.487 201.173 116.94 202.233 114.528 203.56L113.63 203.984L116.986 211.774L118.092 211.134C121.306 209.101 124.991 207.947 128.783 207.786C130.113 207.701 131.446 207.891 132.7 208.344C133.954 208.798 135.103 209.505 136.076 210.422C137.294 211.665 138.11 213.249 138.426 214.97L113.33 221.832L113.106 222.163C111.275 224.922 110.486 228.25 110.881 231.544C111.276 234.839 112.83 237.881 115.261 240.121C118.451 242.779 122.504 244.156 126.641 243.986C129.601 244.043 132.53 243.377 135.178 242.043C136.645 241.281 137.985 240.283 139.146 239.093L139.4 243.167H147.604V218.013C147.716 215.539 147.339 213.067 146.493 210.742C145.647 208.416 144.35 206.283 142.677 204.468" fill="#645A55"/>
</g>
<defs>
<clipPath id="clip0_3_11553">
<rect width="600" height="400" fill="white"/>
</clipPath>
</defs>
</svg>
