<svg width="600" height="400" viewBox="0 0 600 400" fill="none" xmlns="http://www.w3.org/2000/svg" xmlns:cgf="https://coding.garden/flags"><metadata id="cgf-metadata">

<cgf:flag>
  <cgf:name>Meierijstad</cgf:name>
  <cgf:route>nl/nb/meierijstad</cgf:route>
  <cgf:aspect-ratio>1.5</cgf:aspect-ratio>
</cgf:flag>

</metadata><g clip-path="url(#clip0_1_5224)">
<path d="M600 0H0V133.766H600V0Z" fill="#0E46AF"/>
<path d="M600 133.767H0V265.585H600V133.767Z" fill="black"/>
<path d="M600 265.584H0V400H600V265.584Z" fill="#FCDD08"/>
<path d="M157.385 386.882C143.509 385.765 132.59 375.329 130.436 361.129C130.128 359.095 130.175 354.142 130.522 352.036C131.497 346.132 134.003 340.855 137.948 336.403C139.183 335.009 139.711 334.503 139.711 334.712C139.711 334.775 139.569 335.02 139.395 335.255C138.983 335.813 137.844 338.02 137.388 339.145C136.785 340.633 136.348 342.515 136.144 344.5C135.514 350.657 137.908 356.903 142.631 361.421C147.094 365.692 152.967 367.98 159.445 367.971C167.611 367.959 174.765 364.295 179.22 357.843C183.733 351.305 183.947 342.369 179.749 335.739C178.73 334.13 179.107 334.386 181.088 336.649C184.982 341.096 187.438 346.413 188.377 352.432C188.67 354.307 188.67 359.414 188.378 361.29C187.824 364.842 186.914 367.658 185.301 370.813C182.82 375.667 179.287 379.593 174.89 382.38C171.432 384.572 167.983 385.897 163.978 386.571C162.577 386.806 158.711 386.989 157.385 386.882H157.385ZM190.208 328.021C179.731 326.246 170.821 318.593 167.347 308.384C166.108 304.742 165.731 302.395 165.731 298.318C165.731 291.615 167.493 285.98 171.271 280.602C172.58 278.74 175.672 275.403 174.793 276.803C169.365 285.444 170.825 296.091 178.399 303.106C189.245 313.151 207.32 310.992 215.109 298.722C219.221 292.243 219.291 283.755 215.285 277.274L214.455 275.932L215.732 277.22C219.224 280.745 221.976 285.746 223.267 290.916C223.903 293.463 224.104 295.217 224.106 298.238C224.111 303.589 223.189 307.516 220.845 312.169C217.042 319.717 210.356 325.25 202.444 327.399C198.788 328.391 193.872 328.641 190.208 328.021V328.021ZM122.037 327.636C121.898 327.604 121.102 327.491 120.269 327.386C117.422 327.027 114.294 326.05 111.6 324.678C102.943 320.268 97.145 312.246 95.5077 302.413C95.1603 300.327 95.1148 295.376 95.4243 293.325C96.3339 287.296 98.9564 281.626 102.859 277.249C104.484 275.427 104.816 275.278 103.927 276.77C98.9689 285.095 100.465 295.354 107.633 302.189C111.687 306.054 116.709 308.244 122.55 308.693C129.498 309.227 136.263 306.861 141.147 302.189C144.463 299.017 146.493 295.396 147.396 291.045C147.805 289.069 147.805 285.123 147.396 283.26C146.837 280.72 145.494 277.464 144.384 275.963C144.201 275.714 144.088 275.474 144.135 275.429C144.284 275.287 147.034 278.456 148.187 280.099C150.785 283.802 152.656 288.521 153.366 293.164C153.653 295.04 153.652 300.16 153.366 302.022C152.818 305.569 151.92 308.362 150.311 311.527C145.994 320.019 138.503 325.624 129.193 327.328C127.977 327.55 122.658 327.779 122.039 327.636H122.037Z" fill="black"/>
<path d="M87.2505 144.172H114.52L232.949 257.244H205.478L87.2505 144.172Z" fill="#DA121B"/>
<path d="M132.08 160.959L118.667 148.142L106.159 162.306L119.572 175.124L132.08 160.959Z" fill="white"/>
<path d="M158.908 186.611L145.495 173.794L132.987 187.959L146.4 200.776L158.908 186.611Z" fill="white"/>
<path d="M185.742 212.238L172.329 199.421L159.821 213.586L173.235 226.403L185.742 212.238Z" fill="white"/>
<path d="M212.574 237.88L199.161 225.062L186.653 239.227L200.066 252.045L212.574 237.88Z" fill="white"/>
<path d="M223.394 144.166H197.789L197.705 144.276L94.3779 257.349L94.4745 257.262H119.909L119.855 257.41L223.24 144.274L223.394 144.166Z" fill="#DA121B"/>
<path d="M183.956 159.322L196.494 145.602L209.907 158.865L197.369 172.585L183.956 159.322Z" fill="white"/>
<path d="M158.881 186.78L171.418 173.06L184.831 186.323L172.294 200.043L158.881 186.78Z" fill="white"/>
<path d="M133.797 214.211L146.335 200.491L159.748 213.754L147.21 227.474L133.797 214.211Z" fill="white"/>
<path d="M108.718 241.658L121.255 227.938L134.668 241.202L122.131 254.922L108.718 241.658Z" fill="white"/>
<path d="M124.277 122.783V120.355H159.01H193.743V122.783V125.211H176.424H159.104L159.05 123.633L158.997 122.055L158.962 123.633L158.927 125.211H141.602H124.277V122.783H124.277ZM124.355 119.378C124.156 119.061 124.626 114.659 125.038 112.991C125.17 112.457 125.391 111.674 125.529 111.251L125.781 110.482H133.65H141.52V115.014V119.546H132.99C127.278 119.546 124.425 119.491 124.355 119.378V119.378ZM142.505 115.014V110.482H150.47H158.435V115.014V119.546H150.47H142.505V115.014ZM159.365 119.438C159.305 119.379 159.256 117.339 159.256 114.906V110.482H169.519H179.783V115.014V119.546H169.629C164.044 119.546 159.425 119.498 159.365 119.438H159.365ZM180.769 115.014V110.482H186.499H192.229L192.595 111.817C193.149 113.838 193.397 115.377 193.519 117.563L193.628 119.546H187.199H180.768V115.014H180.769ZM126.25 109.47C126.25 109.14 127.52 106.947 128.514 105.551C129.023 104.835 130.231 103.467 131.199 102.51L132.958 100.77H141.673H150.388V105.221V109.673H138.318C128.77 109.673 126.248 109.63 126.25 109.47V109.47ZM151.318 109.565C151.258 109.505 151.209 107.502 151.209 105.113V100.77H158.681H166.153V105.221V109.673H158.79C154.741 109.673 151.378 109.624 151.318 109.565H151.318ZM167.139 105.221V100.77H176.061H184.984L186.949 102.753C188.91 104.731 190.273 106.546 191.261 108.494C191.542 109.048 191.772 109.54 191.772 109.587C191.772 109.634 186.229 109.673 179.455 109.673H167.139V105.221V105.221ZM134.13 94.2957V88.6305H137.825H141.52V94.2957V99.9609H137.825H134.13V94.2957ZM142.505 94.2957V88.6305H150.47H158.435V94.2957V99.9609H150.47H142.505V94.2957ZM159.367 99.8546C159.306 99.7944 159.256 97.2443 159.256 94.1878V88.6305H166.648H174.04L173.997 94.2552L173.953 99.8799L166.715 99.922C162.735 99.9451 159.428 99.9147 159.367 99.8545L159.367 99.8546ZM174.857 94.2983V88.6305H179.375H183.893L183.85 94.2552L183.807 99.8799L179.332 99.923L174.856 99.9661V94.2984L174.857 94.2983ZM134.13 82.1561V76.4909H142.259H150.388V82.1561V87.8212H142.259H134.13V82.1561ZM151.318 87.7133C151.258 87.654 151.209 85.1047 151.209 82.0482V76.4909H158.681H166.153V82.1561V87.8212H158.79C154.741 87.8212 151.378 87.7727 151.318 87.7133H151.318ZM167.139 82.1576V76.4909H175.516H183.893L183.85 82.1156L183.807 87.7403L175.472 87.7823L167.138 87.8242V82.1576L167.139 82.1576ZM134.13 72.1206V68.5597H139.878H145.625V72.1206V75.6816H139.878H134.13V72.1206ZM146.556 75.5737C146.496 75.5143 146.446 73.9119 146.446 72.0127V68.5597H152.44H158.434V72.1206V75.6816H152.55C149.313 75.6816 146.616 75.633 146.556 75.5737H146.556ZM159.365 75.5737C159.305 75.5143 159.256 73.9119 159.256 72.0127V68.5597H164.593H169.93V72.1206V75.6816H164.702C161.827 75.6816 159.425 75.633 159.365 75.5737H159.365ZM170.916 72.1225V68.5597H177.406H183.896L183.851 72.0802L183.806 75.6007L177.361 75.6431L170.915 75.6855V72.1227L170.916 72.1225ZM103.256 66.5364V64.9987H159.01H214.763V66.5364V68.0741H199.655C189.692 68.0741 184.546 68.019 184.546 67.9122C184.546 67.805 175.952 67.7504 159.092 67.7504C142.232 67.7504 133.637 67.8051 133.637 67.9122C133.637 68.019 128.464 68.0741 118.447 68.0741H103.256V66.5364ZM103.256 60.9556V57.7149H106.544H109.832L109.787 60.9117L109.743 64.1085L106.499 64.1524L103.256 64.1963V60.9557L103.256 60.9556ZM110.646 60.9529V57.7156H115.901H121.156V60.9529V64.1901H115.901H110.646V60.9529ZM122.087 64.0822C122.027 64.0228 121.977 62.5661 121.977 60.845V57.7156H127.479H132.98V58.4992C132.98 58.9302 133.029 60.3869 133.087 61.7364L133.195 64.1901H127.695C124.67 64.1901 122.146 64.1416 122.086 64.0822H122.087ZM134.056 63.9878C134.02 63.8765 133.945 62.4197 133.887 60.7505L133.783 57.7156H142.085H150.387V60.9529V64.1901H142.253C135.89 64.1901 134.105 64.146 134.055 63.9878H134.056ZM151.318 64.0822C151.258 64.0228 151.209 62.5661 151.209 60.845V57.7156H158.681H166.153V60.9529V64.1901H158.79C154.741 64.1901 151.378 64.1416 151.318 64.0822H151.318ZM167.139 60.9529V57.7156H175.407H183.675L183.782 59.4404C183.841 60.3889 183.89 61.8457 183.89 62.6776V64.1901H175.514H167.139V60.9529H167.139ZM184.801 63.9878C184.766 63.8765 184.697 62.4197 184.649 60.7505L184.559 57.7156H190.875H197.191V60.9529V64.1901H191.027C186.24 64.1901 184.85 64.145 184.8 63.9878H184.801ZM198.122 64.0822C198.062 64.0229 198.012 62.5661 198.012 60.845V57.7157H202.692H207.373V58.7422C207.373 59.3068 207.421 60.7635 207.48 61.9794L207.587 64.1901H202.909C200.336 64.1901 198.181 64.1416 198.121 64.0822H198.122ZM208.471 64.0723C208.429 64.0035 208.341 62.5453 208.276 60.8315L208.156 57.7157H211.462H214.769L214.725 60.9125L214.68 64.1092L211.613 64.1533C209.926 64.1775 208.512 64.1411 208.47 64.0723L208.471 64.0723ZM103.256 51.8077V46.7091H108.922H114.588V51.8077V56.9064H108.922H103.256V51.8077ZM115.518 56.7985C115.458 56.7391 115.408 54.4447 115.408 51.6998V46.7091H119.596H123.784V51.8077V56.9064H119.705C117.462 56.9064 115.578 56.8578 115.518 56.7985H115.518ZM124.769 51.8077V46.7091H131.01H137.25V51.8077V56.9064H131.01H124.769V51.8077ZM138.236 51.8077V46.7091H141.931H145.625V51.8077V56.9064H141.931H138.236V51.8077ZM146.556 56.7985C146.496 56.7391 146.446 54.4447 146.446 51.6998V46.7091H152.44H158.434V51.8077V56.9064H152.55C149.313 56.9064 146.616 56.8578 146.556 56.7985H146.556ZM159.365 56.7985C159.305 56.7391 159.256 54.4447 159.256 51.6998V46.7091H164.593H169.93V51.8077V56.9064H164.702C161.827 56.9064 159.425 56.8578 159.365 56.7985H159.365ZM170.916 51.8077V46.7091H175.35H179.784V51.8077V56.9064H175.35H170.916V51.8077ZM180.769 51.8095V46.7088H186.519H192.269L192.226 51.767L192.182 56.8252L186.476 56.8678L180.769 56.9104V51.8097L180.769 51.8095ZM193.086 51.8077V46.7091H197.67H202.255L202.177 51.4435C202.133 54.0475 202.064 56.3419 202.023 56.5422L201.948 56.9064H197.517H193.086V51.8077H193.086ZM202.939 54.2634C202.939 52.8076 202.988 50.5123 203.046 49.1627L203.154 46.7091H208.96H214.767L214.723 51.7673L214.68 56.8254L208.809 56.868L202.938 56.9105V54.2635L202.939 54.2634ZM103.256 42.1805V38.4541H106.379H109.503L109.459 42.1365L109.415 45.8188L106.335 45.8629L103.256 45.907V42.1806L103.256 42.1805ZM111.96 42.1805V38.4541H115.165H118.371L118.326 42.1365L118.283 45.8188L115.121 45.8629L111.96 45.9068V42.1804L111.96 42.1805ZM120.828 42.18V38.4541H124.608H128.388L128.345 42.1365L128.3 45.8188L124.564 45.8624L120.828 45.9058V42.18L120.828 42.18ZM141.356 42.3388V38.7779H145.872H150.388V42.3388V45.8998H145.872H141.356V42.3388ZM151.282 45.6931C151.238 45.5794 151.222 43.9952 151.247 42.1726L151.291 38.8588L158.722 38.8167L166.154 38.7746V42.3372V45.8998H158.758C152.91 45.8998 151.346 45.8565 151.283 45.6931L151.282 45.6931ZM167.139 42.3388V38.7729L171.86 38.8159L176.581 38.8589V42.3389V45.8189L171.86 45.8619L167.139 45.9049V42.339V42.3388ZM189.637 42.18V38.4541H193.417H197.197L197.153 42.1365L197.109 45.8188L193.373 45.8625L189.637 45.9059V42.1801L189.637 42.18ZM199.655 42.1805V38.4542H202.86H206.065L206.022 42.1365L205.977 45.8189L202.816 45.8629L199.655 45.9068V42.1805H199.655ZM208.523 42.1806V38.4542H211.646H214.769L214.726 42.1365L214.681 45.8189L211.602 45.863L208.523 45.9071V42.1807L208.523 42.1806ZM141.356 33.8411V29.7136H149.895H158.435V33.8411V37.9685H149.895H141.356V33.8411ZM159.256 33.8411V29.7136H167.96H176.664V33.8411V37.9685H167.96H159.256V33.8411ZM127.233 27.3666V25.8289H159.01H190.787V27.3666V28.9043H159.01H127.233V27.3666ZM127.233 22.187V19.3545H132.241H137.25V22.187V25.0196H132.241H127.233V22.187ZM138.236 22.187V19.3545H144.312H150.388V22.187V25.0196H144.312H138.236V22.187ZM151.209 22.187V19.3545H158.681H166.153V22.187V25.0196H158.681H151.209V22.187ZM167.139 22.187V19.3545H173.461H179.784V22.187V25.0196H173.461H167.139V22.187ZM180.769 22.1889V19.3539H185.68H190.59L190.701 21.1749C190.762 22.1764 190.788 23.4328 190.759 23.967L190.704 24.9381L185.736 24.981L180.768 25.024V22.189L180.769 22.1889ZM127.233 15.3074V12.0701H130.845H134.458V12.8537C134.458 13.2847 134.507 14.7414 134.566 16.0909L134.673 18.5446H130.952H127.232V15.3074H127.233ZM141.027 15.3074V12.0701H144.64H148.253V15.3074V18.5446H144.64H141.027V15.3074ZM155.315 15.2264V11.9082H159.01H162.705V15.2264V18.5445H159.01H155.315V15.2264ZM169.66 17.3061C169.719 16.625 169.766 15.1683 169.766 14.0689V12.0701H173.379H176.992V15.3073V18.5445H173.273H169.554L169.66 17.3061H169.66ZM183.397 15.3073V12.0701H187.009H190.622V15.3073V18.5445H187.009H183.397V15.3073Z" fill="#FCDD08" stroke="#E5E400" stroke-width="0.4"/>
</g>
<defs>
<clipPath id="clip0_1_5224">
<rect width="600" height="400" fill="white"/>
</clipPath>
</defs>
</svg>
