<svg width="600" height="400" viewBox="0 0 600 400" fill="none" xmlns="http://www.w3.org/2000/svg" xmlns:cgf="https://coding.garden/flags"><metadata id="cgf-metadata">

<cgf:flag>
  <cgf:name>Oirschot</cgf:name>
  <cgf:route>nl/nb/oirschot</cgf:route>
  <cgf:aspect-ratio>1.5</cgf:aspect-ratio>
</cgf:flag>

</metadata><g clip-path="url(#clip0_1_5254)">
<path d="M-1.7204 1.90527L-2.57129 403.6H602.421V1.90527H-1.7204V1.90527Z" fill="#1E5CA7"/>
<path d="M-2.31439 -5.48438L-3.16895 196.787H604.426V-5.48438H-2.31439V-5.48438Z" fill="white"/>
<path d="M184.151 165.058L172.764 175.16L163.654 162.777C148.79 162.283 108.558 174.946 119.08 147.462C123.611 140.33 117.505 139.589 113.875 137.361C99.8121 133.161 67.7154 137.992 81.6643 119.764C86.4803 116.899 83.1006 114.946 80.3629 112.922C68.3647 108.302 31.6213 112.042 44.8991 90.4375C48.5194 84.81 53.1156 79.6713 60.1908 75.774C58.3366 71.2331 54.6065 70.4499 51.0809 69.2569C22.1269 68.996 37.7522 30.492 38.392 31.7835C53.8497 16.4886 79.5325 25.0839 80.3629 40.9074C86.124 50.3265 92.6621 47.3247 95.98 40.9074C99.8911 26.4568 114.731 32.9942 114.851 42.5367L120.056 70.8862C125 68.6224 129.145 64.7602 135.673 65.6725C144.4 78.4894 151.248 91.3064 149.664 104.123C163.41 101.986 176.95 100.2 173.74 126.933C171.349 140.463 167.999 154.066 184.151 165.058V165.058Z" fill="#009534"/>
</g>
<defs>
<clipPath id="clip0_1_5254">
<rect width="600" height="400" fill="white"/>
</clipPath>
</defs>
</svg>
