<svg width="600" height="400" viewBox="0 0 600 400" fill="none"  xmlns="http://www.w3.org/2000/svg" xmlns:cgf="https://coding.garden/flags"><metadata id="cgf-metadata">

<cgf:flag>
  <cgf:name>Oosterhout</cgf:name>
  <cgf:route>nl/nb/oosterhout</cgf:route>
  <cgf:aspect-ratio>1.5</cgf:aspect-ratio>
</cgf:flag>

</metadata><g clip-path="url(#clip0_1_5265)">
<path d="M600 0H0V400H600V0Z" fill="white"/>
<path d="M210.753 58.0645C223.177 61.6881 233.877 69.6717 240.888 80.5494C247.9 91.4272 250.752 104.469 248.922 117.281C247.092 130.092 240.702 141.814 230.925 150.293C221.148 158.773 208.641 163.441 195.699 163.441C182.757 163.441 170.25 158.773 160.473 150.293C150.696 141.814 144.306 130.092 142.476 117.281C140.646 104.469 143.498 91.4272 150.51 80.5494C157.521 69.6717 168.221 61.6881 180.645 58.0645C173.647 61.4696 168.009 67.1469 164.653 74.1694C161.297 81.192 160.422 89.1448 162.169 96.7293C163.916 104.314 168.183 111.082 174.273 115.929C180.363 120.775 187.916 123.414 195.699 123.414C203.482 123.414 211.036 120.775 217.125 115.929C223.215 111.082 227.482 104.314 229.23 96.7293C230.977 89.1448 230.101 81.192 226.745 74.1694C223.389 67.1469 217.752 61.4696 210.753 58.0645" fill="black"/>
<path d="M419.355 58.0645C431.779 61.6881 442.479 69.6717 449.49 80.5494C456.502 91.4272 459.354 104.469 457.524 117.281C455.694 130.092 449.304 141.814 439.527 150.293C429.75 158.773 417.243 163.441 404.301 163.441C391.359 163.441 378.852 158.773 369.075 150.293C359.298 141.814 352.908 130.092 351.078 117.281C349.248 104.469 352.1 91.4272 359.112 80.5494C366.123 69.6717 376.823 61.6881 389.247 58.0645C382.249 61.4696 376.611 67.1469 373.255 74.1694C369.899 81.192 369.024 89.1448 370.771 96.7293C372.518 104.314 376.785 111.082 382.875 115.929C388.965 120.775 396.518 123.414 404.301 123.414C412.084 123.414 419.638 120.775 425.728 115.929C431.818 111.082 436.084 104.314 437.832 96.7293C439.579 89.1448 438.703 81.192 435.347 74.1694C431.991 67.1469 426.354 61.4696 419.355 58.0645" fill="black"/>
<path d="M314.817 238.71C327.241 242.334 337.941 250.317 344.953 261.195C351.964 272.073 354.817 285.115 352.987 297.926C351.156 310.738 344.766 322.459 334.989 330.939C325.213 339.418 312.705 344.086 299.764 344.086C286.822 344.086 274.315 339.418 264.538 330.939C254.761 322.459 248.371 310.738 246.54 297.926C244.71 285.115 247.563 272.073 254.574 261.195C261.586 250.317 272.286 242.334 284.71 238.71C277.711 242.115 272.073 247.792 268.718 254.815C265.362 261.837 264.486 269.79 266.233 277.375C267.98 284.959 272.247 291.727 278.337 296.574C284.427 301.421 291.98 304.059 299.764 304.059C307.547 304.059 315.1 301.421 321.19 296.574C327.28 291.727 331.547 284.959 333.294 277.375C335.041 269.79 334.165 261.837 330.809 254.815C327.454 247.792 321.816 242.115 314.817 238.71" fill="black"/>
</g>
<defs>
<clipPath id="clip0_1_5265">
<rect width="600" height="400" fill="white"/>
</clipPath>
</defs>
</svg>
