<svg width="600" height="400" viewBox="0 0 600 400" fill="none" xmlns="http://www.w3.org/2000/svg" xmlns:cgf="https://coding.garden/flags"><metadata id="cgf-metadata">

<cgf:flag>
  <cgf:name>Reusel-De Mierden</cgf:name>
  <cgf:route>nl/nb/reusel_de_mierden</cgf:route>
  <cgf:aspect-ratio>1.5</cgf:aspect-ratio>
</cgf:flag>

</metadata><g clip-path="url(#clip0_1_5276)">
<path d="M-1.71991 1.90527L-2.5708 403.6H602.421V1.90527H-1.71991V1.90527Z" fill="#144BB1"/>
<path d="M-3.59699 206.444C1.46655 202.832 11.4688 205.266 10.1645 193.86C14.1191 194.025 16.9482 193.064 16.1477 188.467C19.0594 181.596 14.1619 179.938 10.1645 177.68C20.9859 175.166 18.5627 169.531 16.1477 163.898H22.7293L25.1226 187.268L46.0639 106.37L81.365 190.264L68.8002 99.1795L127.436 167.493L87.3483 83.5992L161.54 141.127L101.708 66.2212L191.457 97.3818L107.691 45.8469L208.808 50.6409L154.959 28.4689L157.352 24.2742C161.05 25.7206 164.564 26.6588 165.13 19.4802C172.51 20.7029 179.889 32.0539 187.268 18.2817C197.249 26.9794 200.512 18.374 205.218 13.4878C220.185 20.4188 218.149 6.67111 223.168 1.50293V-2.09253L-4.19531 -3.29102L-3.59699 206.444V206.444Z" fill="#FCDD09" stroke="black"/>
<path d="M40.0806 101.577C69.5419 103.771 104.499 84.9199 105.896 31.166Z" fill="#FCDD09"/>
<path d="M40.0806 101.577C69.5419 103.771 104.499 84.9199 105.896 31.166" stroke="black"/>
<path d="M66.4067 82.7008C72.6667 79.9243 78.8795 76.7697 84.3565 67.7197Z" fill="#FCDD09"/>
<path d="M66.4067 82.7008C72.6667 79.9243 78.8795 76.7697 84.3565 67.7197" stroke="black"/>
<path d="M68.2017 73.7118L75.3815 67.1201Z" fill="#FCDD09"/>
<path d="M68.2017 73.7118L75.3815 67.1201" stroke="black"/>
<path d="M40.679 -1.79199C38.8981 0.450333 35.5941 14.1856 50.5513 10.7921C43.7464 28.5058 55.5658 29.5868 64.3128 28.7694C60.7192 42.793 79.6042 41.762 82.2625 35.0615C90.2346 46.6916 101.234 36.965 100.212 29.3686C112.056 34.9251 113.592 22.3802 109.187 17.3838C112.345 19.7825 118.803 20.9023 116.965 11.3914C117.254 13.5372 125.879 19.8997 125.94 9.294C125.932 10.7198 136.887 17.2311 135.214 5.0993C136.771 10.0495 143.511 12.6005 144.488 5.39892C150.455 10.3369 156.85 4.91036 154.66 -1.49237" fill="#FCDD09"/>
<path d="M40.679 -1.79199C38.8981 0.450333 35.5941 14.1856 50.5513 10.7921C43.7464 28.5058 55.5658 29.5868 64.3128 28.7694C60.7192 42.793 79.6042 41.762 82.2625 35.0615C90.2346 46.6916 101.234 36.965 100.212 29.3686C112.056 34.9251 113.592 22.3802 109.187 17.3838C112.345 19.7825 118.803 20.9023 116.965 11.3914C117.254 13.5372 125.879 19.8997 125.94 9.294C125.932 10.7198 136.887 17.2311 135.214 5.0993C136.771 10.0495 143.511 12.6005 144.488 5.39892C150.455 10.3369 156.85 4.91036 154.66 -1.49237" stroke="black"/>
<path d="M75.0825 11.3906C76.1083 16.055 74.1741 24.596 84.9549 16.4842C90.7848 24.7712 92.5748 19.3009 94.5281 14.3868" fill="#FCDD09"/>
<path d="M75.0825 11.3906C76.1083 16.055 74.1741 24.596 84.9549 16.4842C90.7848 24.7712 92.5748 19.3009 94.5281 14.3868" stroke="black"/>
<path d="M18.2417 4.5C11.9817 7.27646 5.76898 10.4311 0.291992 19.4811Z" fill="#FCDD09"/>
<path d="M18.2417 4.5C11.9817 7.27646 5.76898 10.4311 0.291992 19.4811" stroke="black"/>
<path d="M16.447 13.4883L9.26709 20.08Z" fill="#FCDD09"/>
<path d="M16.447 13.4883L9.26709 20.08" stroke="black"/>
<path d="M-2.99851 46.147C8.38842 44.9908 10.4157 51.1999 10.763 58.7311C13.4554 57.7902 16.1479 55.2415 18.8403 61.1281C26.3032 60.1455 29.5188 63.4168 26.6185 72.8133C33.9773 75.807 39.2973 79.9676 35.5934 89.2925C44.2449 95.7749 40.5776 110.427 29.311 111.165C29.6202 129.285 9.91565 130.023 9.26713 113.861C3.62104 120.721 -2.30017 116.27 -3.896 112.513" fill="#FCDD09"/>
<path d="M-2.99851 46.147C8.38842 44.9908 10.4157 51.1999 10.763 58.7311C13.4554 57.7902 16.1479 55.2415 18.8403 61.1281C26.3032 60.1455 29.5188 63.4168 26.6185 72.8133C33.9773 75.807 39.2973 79.9676 35.5934 89.2925C44.2449 95.7749 40.5776 110.427 29.311 111.165C29.6202 129.285 9.91565 130.023 9.26713 113.861C3.62104 120.721 -2.30017 116.27 -3.896 112.513" stroke="black"/>
<path d="M29.0114 117.307C36.01 118.404 41.8671 125.076 30.6568 131.089C36.0118 139.169 33.2206 146.008 23.1777 146.969C27.712 152.662 34.7186 158.355 23.1777 164.048" fill="#FCDD09"/>
<path d="M29.0114 117.307C36.01 118.404 41.8671 125.076 30.6568 131.089C36.0118 139.169 33.2206 146.008 23.1777 146.969C27.712 152.662 34.7186 158.355 23.1777 164.048" stroke="black"/>
<path d="M107.841 30.1169C116.018 39.1538 125.242 38.466 133.419 32.3641C138.522 35.0296 143.741 40.2748 148.078 26.072C151.633 32.1227 157.468 27.146 157.053 23.0758C166.082 29.7055 164.427 20.9393 165.729 13.6378C170.982 12.8669 176.328 4.64977 166.177 -2.24219" fill="#FCDD09"/>
<path d="M107.841 30.1169C116.018 39.1538 125.242 38.466 133.419 32.3641C138.522 35.0296 143.741 40.2748 148.078 26.072C151.633 32.1227 157.468 27.146 157.053 23.0758C166.082 29.7055 164.427 20.9393 165.729 13.6378C170.982 12.8669 176.328 4.64977 166.177 -2.24219" stroke="black"/>
<path d="M237.348 210.213L221.271 205.975C227.164 212.251 233.324 218.402 247.501 220.806L259.771 234.365L262.732 246.653C250.04 238.332 237.348 230.158 224.655 235.636L239.886 246.653L228.886 247.077C237.127 272.783 236.657 298.49 236.078 324.196C244.044 301.165 252.918 278.236 241.155 253.009L264.848 282.247L255.54 273.348L254.482 272.289L253.425 314.45C256.103 309.222 259.012 304.686 260.617 296.23L261.04 280.975L266.117 285.213V289.026L286.848 289.874L264.848 288.179L266.54 302.162L291.925 286.908L267.386 303.857L260.194 323.772L239.04 352.162L231.424 361.06L242.848 357.67L247.501 352.162L240.732 361.06L250.04 359.789L256.386 352.162L274.155 304.281L254.694 358.094L251.732 361.06L261.886 355.128L256.809 362.755L262.309 358.942L268.232 355.128L265.694 369.111L278.809 357.247L279.232 353.433L281.348 348.348L280.925 358.094L281.348 370.382L288.54 361.06L292.771 373.348L297.425 360.636L305.463 370.382V362.755L319.002 369.111L314.771 361.908L312.232 354.281L316.886 361.484L327.04 366.145L324.925 358.942L319.425 353.857L313.502 339.874L321.117 354.281L332.117 361.06L339.31 363.603L335.079 356.823L332.117 350.467L337.617 355.128L344.386 356.823L352.848 360.213L317.733 304.281L316.04 294.535H318.579V283.518L330.425 270.806V268.687L331.694 278.009C327.802 290.403 331.941 297.678 333.81 306.399L336.771 266.992L330.425 264.874L338.886 254.704C343.835 277.995 351.002 298.786 360.463 316.992C358.795 291.851 354.516 266.71 347.771 241.569L341.425 240.298H348.617L352.425 235.213H346.502H351.579L360.04 224.196L347.771 225.467L337.194 236.908L352.425 218.264L348.617 214.026L354.117 204.281L365.964 195.806L366.81 190.298L361.733 195.382L352.002 201.314L351.156 203.857L347.771 200.467L344.386 203.857L343.117 211.484L332.117 226.738L327.886 225.467L324.079 217.416L334.656 201.738H341.002L345.233 197.501L338.886 195.382L346.925 187.755V180.128L350.31 174.62L356.233 168.264L347.771 175.043L343.963 181.399L337.617 187.755L329.156 191.992L328.733 175.891L326.617 160.636L324.925 178.857L321.117 181.823L324.925 186.908L324.502 191.569L323.233 203.009L312.232 214.026L308.425 201.738L309.271 194.959L317.733 182.67L324.079 174.62L325.348 169.535L326.194 151.314L321.963 164.45L315.194 175.891L307.579 183.094L306.309 198.348L305.04 182.67L302.079 171.23L294.886 185.636L302.925 170.382L299.117 158.094L295.309 174.196L288.963 180.128L289.386 171.23H287.694V181.399L279.655 168.687L278.809 181.823L276.694 155.975L273.309 168.264L274.155 188.179L280.078 196.23L272.04 186.908L272.463 200.043L270.348 186.484L263.578 176.738L266.117 185.213L266.54 192.84H264.001L261.886 185.213L256.386 177.586H253.001L257.655 182.67L260.617 192.416L255.963 192.84L252.155 185.636L242.848 175.891L246.655 184.789L247.924 196.23L253.848 211.06L244.963 197.501L239.463 191.145L238.194 192.84L243.694 198.348L240.732 200.891L234.809 195.382L236.924 202.586L232.271 200.467L230.578 204.281L247.501 215.721L237.348 210.213V210.213Z" fill="#FCDD09" stroke="black"/>
<path d="M271.828 302.162L290.867 299.408L319.213 292.628" fill="#FCDD09"/>
<path d="M271.828 302.162L290.867 299.408L319.213 292.628" stroke="black"/>
<path d="M278.174 296.442L304.617 289.026H318.79" fill="#FCDD09"/>
<path d="M278.174 296.442L304.617 289.026H318.79" stroke="black"/>
<path d="M291.078 286.696L310.963 283.518Z" fill="#FCDD09"/>
<path d="M291.078 286.696L310.963 283.518" stroke="black"/>
<path d="M312.232 283.729L319.002 283.094Z" fill="#FCDD09"/>
<path d="M312.232 283.729L319.002 283.094" stroke="black"/>
<path d="M293.405 299.831L317.732 304.916Z" fill="#FCDD09"/>
<path d="M293.405 299.831L317.732 304.916" stroke="black"/>
<path d="M317.098 301.102L305.04 296.653Z" fill="#FCDD09"/>
<path d="M317.098 301.102L305.04 296.653" stroke="black"/>
<path d="M279.867 301.103L275.424 325.679Z" fill="#FCDD09"/>
<path d="M279.867 301.103L275.424 325.679" stroke="black"/>
<path d="M286.848 300.255L282.194 328.009Z" fill="#FCDD09"/>
<path d="M286.848 300.255L282.194 328.009" stroke="black"/>
<path d="M292.348 299.407V331.611Z" fill="#FCDD09"/>
<path d="M292.348 299.407V331.611" stroke="black"/>
<path d="M298.059 300.255L299.751 322.924Z" fill="#FCDD09"/>
<path d="M298.059 300.255L299.751 322.924" stroke="black"/>
<path d="M303.982 300.891L308.636 329.069Z" fill="#FCDD09"/>
<path d="M303.982 300.891L308.636 329.069" stroke="black"/>
<path d="M312.021 304.704L318.367 331.187Z" fill="#FCDD09"/>
<path d="M312.021 304.704L318.367 331.187" stroke="black"/>
<path d="M331.906 348.348L325.982 333.094Z" fill="#FCDD09"/>
<path d="M331.906 348.348L325.982 333.094" stroke="black"/>
<path d="M245.597 252.161L269.713 281.398Z" fill="#FCDD09"/>
<path d="M245.597 252.161L269.713 281.398" stroke="black"/>
<path d="M262.732 267.628L244.117 244.958L260.405 257.246L272.675 278.221" fill="#FCDD09"/>
<path d="M262.732 267.628L244.117 244.958L260.405 257.246L272.675 278.221" stroke="black"/>
<path d="M282.405 288.603L276.059 263.179L289.386 282.459L284.098 259.577" fill="#FCDD09"/>
<path d="M282.405 288.603L276.059 263.179L289.386 282.459L284.098 259.577" stroke="black"/>
<path d="M297.002 244.534L294.886 273.983L318.156 218.898L317.309 230.551L311.598 247.076" fill="#FCDD09"/>
<path d="M297.002 244.534L294.886 273.983L318.156 218.898L317.309 230.551L311.598 247.076" stroke="black"/>
<path d="M298.905 282.882L300.809 274.831Z" fill="#FCDD09"/>
<path d="M298.905 282.882L300.809 274.831" stroke="black"/>
<path d="M300.809 276.314L305.674 266.568L303.982 254.068" fill="#FCDD09"/>
<path d="M300.809 276.314L305.674 266.568L303.982 254.068" stroke="black"/>
<path d="M308.001 273.136L325.559 225.467Z" fill="#FCDD09"/>
<path d="M308.001 273.136L325.559 225.467" stroke="black"/>
<path d="M308.213 262.119L323.867 225.891Z" fill="#FCDD09"/>
<path d="M308.213 262.119L323.867 225.891" stroke="black"/>
<path d="M310.963 282.67L327.251 259.153Z" fill="#FCDD09"/>
<path d="M310.963 282.67L327.251 259.153" stroke="black"/>
<path d="M316.675 281.823L329.367 265.086L331.694 264.026" fill="#FCDD09"/>
<path d="M316.675 281.823L329.367 265.086L331.694 264.026" stroke="black"/>
<path d="M312.021 280.128L323.021 253.009L332.751 235.212L349.04 216.145" fill="#FCDD09"/>
<path d="M312.021 280.128L323.021 253.009L332.751 235.212L349.04 216.145" stroke="black"/>
<path d="M319.636 258.094L334.867 243.264Z" fill="#FCDD09"/>
<path d="M319.636 258.094L334.867 243.264" stroke="black"/>
<path d="M271.193 187.755L273.732 209.577Z" fill="#FCDD09"/>
<path d="M271.193 187.755L273.732 209.577" stroke="black"/>
<path d="M303.559 180.764L297.213 201.103L294.674 223.984" fill="#FCDD09"/>
<path d="M303.559 180.764L297.213 201.103L294.674 223.984" stroke="black"/>
<path d="M303.559 199.619L300.598 219.958Z" fill="#FCDD09"/>
<path d="M303.559 199.619L300.598 219.958" stroke="black"/>
<path d="M267.809 223.983L273.098 235Z" fill="#FCDD09"/>
<path d="M267.809 223.983L273.098 235" stroke="black"/>
<path d="M273.309 207.246L280.501 237.966Z" fill="#FCDD09"/>
<path d="M273.309 207.246L280.501 237.966" stroke="black"/>
<path d="M270.136 254.704L275.001 275.043Z" fill="#FCDD09"/>
<path d="M270.136 254.704L275.001 275.043" stroke="black"/>
<path d="M280.687 139.914L280.157 143.017L281.373 146.158L283.159 147.51L285.824 147.784L286.955 146.873L287.185 145.434L286.8 143.521L283.462 140.803L280.687 139.914H280.687Z" fill="#FCDD09" stroke="black"/>
<path d="M280.842 146.573L280.312 149.676L281.528 152.817L283.314 154.169L285.979 154.443L287.11 153.533L287.339 152.093L286.955 150.18L283.616 147.462L280.842 146.573H280.842Z" fill="#FCDD09" stroke="black"/>
<path d="M281.052 153.253L280.521 156.356L281.738 159.497L283.524 160.848L286.189 161.123L287.32 160.212L287.549 158.773L287.165 156.86L283.826 154.142L281.052 153.253H281.052Z" fill="#FCDD09" stroke="black"/>
<path d="M281.261 159.526L280.731 162.629L281.947 165.77L283.733 167.122L286.398 167.396L287.529 166.486L287.759 165.046L287.375 163.133L284.036 160.415L281.261 159.526H281.261Z" fill="#FCDD09" stroke="black"/>
<path d="M281.786 165.555L281.256 168.657L282.472 171.798L284.258 173.15L286.923 173.424L288.054 172.514L288.284 171.075L287.899 169.161L284.561 166.443L281.786 165.555H281.786Z" fill="#FCDD09" stroke="black"/>
<path d="M292.248 138.905L293.077 141.968L292.17 145.171L290.52 146.624L287.889 147.053L286.673 146.211L286.304 144.79L286.502 142.859L289.567 139.954L292.248 138.905H292.248Z" fill="#FCDD09" stroke="black"/>
<path d="M292.74 145.555L293.57 148.617L292.662 151.821L291.012 153.273L288.381 153.702L287.165 152.861L286.796 151.439L286.994 149.509L290.059 146.603L292.74 145.555L292.74 145.555Z" fill="#FCDD09" stroke="black"/>
<path d="M293.179 152.229L294.009 155.291L293.101 158.495L291.451 159.947L288.821 160.376L287.604 159.535L287.236 158.113L287.433 156.182L290.499 153.277L293.179 152.229V152.229Z" fill="#FCDD09" stroke="black"/>
<path d="M293.579 158.495L294.408 161.558L293.501 164.761L291.851 166.214L289.22 166.643L288.004 165.801L287.635 164.379L287.833 162.449L290.898 159.544L293.579 158.495H293.579Z" fill="#FCDD09" stroke="black"/>
<path d="M293.641 164.537L294.47 167.6L293.563 170.803L291.913 172.256L289.282 172.685L288.066 171.843L287.697 170.421L287.895 168.491L290.96 165.586L293.641 164.537H293.641Z" fill="#FCDD09" stroke="black"/>
<path d="M287.459 164.657L285.205 167.252L284.493 170.485L285.317 172.313L287.546 173.479L289.081 173.055L290.112 171.845L290.865 169.999L289.434 166.412L287.459 164.657Z" fill="#FCDD09" stroke="black"/>
<path d="M287.459 158.667L285.205 161.262L284.493 164.495L285.317 166.323L287.546 167.489L289.081 167.065L290.112 165.855L290.865 164.009L289.434 160.422L287.459 158.667V158.667Z" fill="#FCDD09" stroke="black"/>
<path d="M286.865 152.1L284.611 154.695L283.899 157.928L284.723 159.755L286.952 160.922L288.487 160.497L289.518 159.287L290.271 157.441L288.84 153.854L286.865 152.1V152.1Z" fill="#FCDD09" stroke="black"/>
<path d="M286.717 145.418L284.463 148.013L283.75 151.246L284.575 153.074L286.804 154.24L288.339 153.816L289.37 152.606L290.123 150.76L288.692 147.172L286.717 145.418V145.418Z" fill="#FCDD09" stroke="black"/>
<path d="M286.42 137.699L284.166 140.294L283.454 143.527L284.278 145.355L286.507 146.521L288.042 146.097L289.073 144.887L289.826 143.041L288.395 139.454L286.42 137.699V137.699Z" fill="#FCDD09" stroke="black"/>
<path d="M255.095 146.377L255.377 149.512L257.357 152.235L259.43 153.083L262.076 152.664L262.936 151.493L262.789 150.043L261.928 148.292L258.004 146.523L255.095 146.377L255.095 146.377Z" fill="#FCDD09" stroke="black"/>
<path d="M256.95 152.773L257.232 155.908L259.212 158.632L261.285 159.48L263.931 159.06L264.791 157.89L264.644 156.439L263.783 154.689L259.859 152.92L256.95 152.773L256.95 152.773Z" fill="#FCDD09" stroke="black"/>
<path d="M258.864 159.177L259.146 162.312L261.126 165.035L263.199 165.883L265.845 165.463L266.705 164.293L266.558 162.843L265.697 161.092L261.774 159.323L258.864 159.177L258.864 159.177Z" fill="#FCDD09" stroke="black"/>
<path d="M260.673 165.186L260.956 168.321L262.936 171.044L265.008 171.892L267.654 171.472L268.514 170.302L268.368 168.851L267.506 167.101L263.583 165.332L260.673 165.186L260.673 165.186Z" fill="#FCDD09" stroke="black"/>
<path d="M262.725 170.877L263.007 174.012L264.987 176.735L267.06 177.583L269.706 177.163L270.566 175.993L270.419 174.543L269.557 172.792L265.634 171.023L262.725 170.877H262.725Z" fill="#FCDD09" stroke="black"/>
<path d="M266.011 142.433L267.597 145.18L267.54 148.509L266.318 150.337L263.885 151.428L262.494 150.927L261.773 149.647L261.47 147.731L263.688 144.135L266.011 142.433V142.433Z" fill="#FCDD09" stroke="black"/>
<path d="M268.19 148.732L269.776 151.48L269.719 154.809L268.496 156.637L266.064 157.727L264.672 157.226L263.952 155.947L263.648 154.03L265.867 150.435L268.19 148.732L268.19 148.732Z" fill="#FCDD09" stroke="black"/>
<path d="M270.323 155.069L271.91 157.816L271.853 161.146L270.63 162.973L268.197 164.064L266.806 163.563L266.086 162.284L265.782 160.367L268.001 156.771L270.323 155.069L270.323 155.069Z" fill="#FCDD09" stroke="black"/>
<path d="M272.315 161.024L273.901 163.772L273.844 167.101L272.621 168.929L270.189 170.019L268.797 169.518L268.077 168.239L267.773 166.322L269.992 162.727L272.315 161.024V161.024Z" fill="#FCDD09" stroke="black"/>
<path d="M273.922 166.849L275.508 169.596L275.452 172.925L274.229 174.753L271.796 175.844L270.405 175.343L269.685 174.063L269.381 172.147L271.6 168.551L273.922 166.849H273.922Z" fill="#FCDD09" stroke="black"/>
<path d="M267.978 168.553L266.464 171.64L266.604 174.948L267.869 176.503L270.322 177.057L271.697 176.253L272.383 174.818L272.639 172.841L270.337 169.741L267.978 168.553H267.978Z" fill="#FCDD09" stroke="black"/>
<path d="M266.443 162.763L264.93 165.85L265.069 169.158L266.334 170.712L268.787 171.267L270.162 170.462L270.849 169.028L271.104 167.051L268.802 163.951L266.443 162.763V162.763Z" fill="#FCDD09" stroke="black"/>
<path d="M264.188 156.567L262.674 159.655L262.813 162.963L264.078 164.517L266.531 165.072L267.906 164.267L268.593 162.833L268.848 160.855L266.546 157.756L264.188 156.567H264.188Z" fill="#FCDD09" stroke="black"/>
<path d="M262.333 150.147L260.819 153.235L260.958 156.543L262.223 158.097L264.676 158.652L266.051 157.847L266.738 156.413L266.993 154.435L264.691 151.336L262.333 150.147V150.147Z" fill="#FCDD09" stroke="black"/>
<path d="M260.069 142.764L258.555 145.851L258.695 149.159L259.96 150.713L262.413 151.268L263.788 150.463L264.474 149.029L264.729 147.052L262.427 143.952L260.069 142.764H260.069Z" fill="#FCDD09" stroke="black"/>
<path d="M232.417 154.773L233.555 157.707L236.211 159.775L238.437 160.014L240.863 158.877L241.366 157.514L240.824 156.161L239.512 154.718L235.253 154.106L232.417 154.773L232.417 154.773Z" fill="#FCDD09" stroke="black"/>
<path d="M235.968 160.404L237.106 163.338L239.762 165.406L241.988 165.645L244.414 164.508L244.917 163.145L244.375 161.792L243.063 160.349L238.804 159.737L235.968 160.404L235.968 160.404Z" fill="#FCDD09" stroke="black"/>
<path d="M239.577 166.026L240.715 168.96L243.371 171.028L245.597 171.267L248.023 170.13L248.526 168.767L247.984 167.414L246.672 165.971L242.413 165.359L239.577 166.026L239.577 166.026Z" fill="#FCDD09" stroke="black"/>
<path d="M242.978 171.298L244.116 174.232L246.771 176.299L248.997 176.539L251.424 175.402L251.927 174.039L251.384 172.686L250.073 171.243L245.814 170.631L242.978 171.297L242.978 171.298Z" fill="#FCDD09" stroke="black"/>
<path d="M246.522 176.198L247.661 179.132L250.316 181.2L252.542 181.439L254.969 180.302L255.472 178.939L254.929 177.586L253.618 176.143L249.359 175.531L246.523 176.198L246.522 176.198Z" fill="#FCDD09" stroke="black"/>
<path d="M241.815 147.954L244.099 150.154L244.965 153.369L244.295 155.464L242.259 157.187L240.784 157.091L239.738 156.062L238.916 154.304L240.054 150.234L241.815 147.954H241.815Z" fill="#FCDD09" stroke="black"/>
<path d="M245.65 153.403L247.934 155.603L248.8 158.818L248.131 160.913L246.095 162.636L244.62 162.541L243.574 161.511L242.752 159.754L243.89 155.683L245.65 153.403V153.403Z" fill="#FCDD09" stroke="black"/>
<path d="M249.453 158.901L251.737 161.101L252.603 164.316L251.934 166.411L249.898 168.134L248.422 168.039L247.376 167.009L246.555 165.252L247.692 161.181L249.453 158.901H249.453Z" fill="#FCDD09" stroke="black"/>
<path d="M253.013 164.07L255.297 166.27L256.163 169.485L255.494 171.58L253.458 173.303L251.983 173.208L250.936 172.178L250.115 170.421L251.252 166.35L253.013 164.07V164.07Z" fill="#FCDD09" stroke="black"/>
<path d="M256.168 169.221L258.452 171.42L259.318 174.635L258.648 176.731L256.612 178.454L255.137 178.358L254.091 177.328L253.27 175.571L254.407 171.5L256.168 169.221V169.221Z" fill="#FCDD09" stroke="black"/>
<path d="M250.928 172.507L250.327 175.893L251.376 179.033L253.021 180.176L255.532 180.028L256.63 178.874L256.894 177.306L256.592 175.334L253.523 172.995L250.928 172.507H250.928Z" fill="#FCDD09" stroke="black"/>
<path d="M247.852 167.369L247.251 170.756L248.3 173.895L249.946 175.038L252.456 174.891L253.555 173.736L253.818 172.168L253.516 170.197L250.447 167.857L247.852 167.369H247.852Z" fill="#FCDD09" stroke="black"/>
<path d="M243.972 162.043L243.371 165.429L244.42 168.569L246.065 169.712L248.576 169.565L249.674 168.41L249.937 166.842L249.636 164.87L246.567 162.531L243.972 162.043V162.043Z" fill="#FCDD09" stroke="black"/>
<path d="M240.414 156.388L239.813 159.774L240.862 162.914L242.508 164.057L245.018 163.909L246.117 162.755L246.38 161.186L246.078 159.215L243.009 156.875L240.414 156.388V156.388Z" fill="#FCDD09" stroke="black"/>
<path d="M236.197 149.92L235.596 153.306L236.644 156.446L238.29 157.589L240.8 157.441L241.899 156.287L242.162 154.719L241.86 152.747L238.791 150.408L236.196 149.92L236.197 149.92Z" fill="#FCDD09" stroke="black"/>
<path d="M211.844 171.886L213.519 174.549L216.519 176.073L218.75 175.884L220.916 174.305L221.15 172.871L220.361 171.646L218.799 170.479L214.502 170.691L211.844 171.886L211.844 171.886Z" fill="#FCDD09" stroke="black"/>
<path d="M216.4 176.737L218.075 179.401L221.075 180.925L223.306 180.735L225.472 179.157L225.706 177.723L224.917 176.498L223.355 175.331L219.058 175.542L216.4 176.737L216.4 176.737Z" fill="#FCDD09" stroke="black"/>
<path d="M221.012 181.568L222.687 184.232L225.687 185.756L227.918 185.567L230.084 183.988L230.318 182.554L229.529 181.329L227.967 180.162L223.67 180.373L221.012 181.568L221.012 181.568Z" fill="#FCDD09" stroke="black"/>
<path d="M225.352 186.096L227.026 188.759L230.026 190.283L232.257 190.094L234.423 188.515L234.658 187.081L233.869 185.856L232.307 184.689L228.009 184.901L225.352 186.096L225.352 186.096Z" fill="#FCDD09" stroke="black"/>
<path d="M229.763 190.23L231.438 192.894L234.438 194.418L236.668 194.229L238.835 192.65L239.069 191.216L238.28 189.991L236.718 188.824L232.421 189.035L229.763 190.23L229.763 190.23Z" fill="#FCDD09" stroke="black"/>
<path d="M219.774 163.4L222.434 165.124L223.895 168.116L223.636 170.3L221.965 172.38L220.498 172.567L219.276 171.756L218.135 170.187L218.479 165.974L219.774 163.4H219.774Z" fill="#FCDD09" stroke="black"/>
<path d="M224.575 168.02L227.235 169.744L228.696 172.735L228.437 174.919L226.766 176.999L225.299 177.186L224.077 176.375L222.936 174.806L223.279 170.593L224.575 168.02L224.575 168.02Z" fill="#FCDD09" stroke="black"/>
<path d="M229.353 172.691L232.013 174.416L233.474 177.407L233.215 179.591L231.543 181.671L230.077 181.858L228.854 181.047L227.714 179.478L228.057 175.265L229.353 172.691H229.353Z" fill="#FCDD09" stroke="black"/>
<path d="M233.83 177.088L236.49 178.812L237.952 181.803L237.692 183.988L236.021 186.067L234.555 186.255L233.332 185.443L232.191 183.875L232.535 179.662L233.83 177.088V177.088Z" fill="#FCDD09" stroke="black"/>
<path d="M237.906 181.543L240.566 183.267L242.027 186.258L241.768 188.443L240.097 190.522L238.63 190.71L237.408 189.898L236.267 188.33L236.61 184.117L237.906 181.543L237.906 181.543Z" fill="#FCDD09" stroke="black"/>
<path d="M233.386 185.768L233.44 189.207L235.066 192.089L236.899 192.898L239.335 192.274L240.194 190.932L240.155 189.342L239.484 187.464L236.026 185.752L233.386 185.767L233.386 185.768Z" fill="#FCDD09" stroke="black"/>
<path d="M229.391 181.31L229.444 184.749L231.07 187.631L232.903 188.44L235.34 187.816L236.199 186.474L236.159 184.884L235.488 183.006L232.031 181.294L229.391 181.31L229.391 181.31Z" fill="#FCDD09" stroke="black"/>
<path d="M224.569 176.82L224.623 180.26L226.249 183.142L228.081 183.95L230.518 183.327L231.377 181.984L231.337 180.394L230.666 178.517L227.209 176.805L224.569 176.82L224.569 176.82Z" fill="#FCDD09" stroke="black"/>
<path d="M220.001 171.947L220.055 175.387L221.681 178.269L223.514 179.077L225.95 178.454L226.81 177.111L226.77 175.521L226.099 173.644L222.642 171.932L220.001 171.947L220.001 171.947Z" fill="#FCDD09" stroke="black"/>
<path d="M214.632 166.401L214.686 169.841L216.312 172.723L218.145 173.531L220.581 172.908L221.44 171.565L221.401 169.975L220.73 168.098L217.272 166.386L214.632 166.401L214.632 166.401Z" fill="#FCDD09" stroke="black"/>
<path d="M196.446 197.841L199.109 199.513L202.472 199.582L204.4 198.442L205.668 196.079L205.258 194.685L204.016 193.924L202.103 193.552L198.323 195.609L196.446 197.841L196.446 197.841Z" fill="#FCDD09" stroke="black"/>
<path d="M202.654 200.233L205.317 201.905L208.68 201.974L210.608 200.834L211.875 198.47L211.465 197.076L210.224 196.316L208.311 195.943L204.531 198.001L202.654 200.233L202.654 200.233Z" fill="#FCDD09" stroke="black"/>
<path d="M208.901 202.58L211.564 204.252L214.927 204.322L216.855 203.182L218.123 200.818L217.713 199.424L216.471 198.663L214.558 198.291L210.778 200.349L208.901 202.58L208.901 202.58Z" fill="#FCDD09" stroke="black"/>
<path d="M214.773 204.774L217.436 206.446L220.799 206.515L222.727 205.375L223.994 203.011L223.584 201.617L222.343 200.857L220.43 200.484L216.65 202.542L214.773 204.774L214.773 204.774Z" fill="#FCDD09" stroke="black"/>
<path d="M220.539 206.582L223.202 208.254L226.565 208.323L228.493 207.184L229.761 204.82L229.351 203.426L228.109 202.665L226.196 202.293L222.416 204.351L220.539 206.582L220.539 206.582Z" fill="#FCDD09" stroke="black"/>
<path d="M199.915 186.75L203.059 187.147L205.671 189.207L206.384 191.288L205.779 193.888L204.54 194.694L203.086 194.494L201.379 193.577L199.863 189.632L199.915 186.75L199.915 186.75Z" fill="#FCDD09" stroke="black"/>
<path d="M206.242 188.825L209.386 189.222L211.998 191.282L212.711 193.363L212.106 195.963L210.866 196.769L209.413 196.569L207.706 195.652L206.19 191.707L206.242 188.825L206.242 188.825Z" fill="#FCDD09" stroke="black"/>
<path d="M212.571 190.958L215.714 191.355L218.327 193.415L219.04 195.496L218.435 198.096L217.195 198.902L215.742 198.702L214.034 197.785L212.519 193.84L212.571 190.958L212.571 190.958Z" fill="#FCDD09" stroke="black"/>
<path d="M218.509 192.974L221.653 193.371L224.265 195.431L224.978 197.512L224.373 200.112L223.133 200.918L221.68 200.718L219.973 199.8L218.457 195.855L218.509 192.974L218.509 192.974Z" fill="#FCDD09" stroke="black"/>
<path d="M224.112 195.216L227.255 195.613L229.868 197.673L230.581 199.754L229.976 202.354L228.736 203.16L227.283 202.96L225.575 202.042L224.06 198.098L224.112 195.216L224.112 195.216Z" fill="#FCDD09" stroke="black"/>
<path d="M221.87 200.987L223.408 204.062L226.122 205.952L228.124 205.884L230.049 204.264L230.241 202.681L229.517 201.265L228.099 199.865L224.242 199.825L221.87 200.987L221.87 200.987Z" fill="#FCDD09" stroke="black"/>
<path d="M216.338 198.707L217.877 201.782L220.591 203.672L222.592 203.604L224.517 201.983L224.709 200.4L223.985 198.985L222.567 197.585L218.71 197.545L216.338 198.706L216.338 198.707Z" fill="#FCDD09" stroke="black"/>
<path d="M210.049 196.757L211.588 199.832L214.302 201.723L216.303 201.655L218.228 200.034L218.42 198.451L217.696 197.036L216.278 195.636L212.421 195.596L210.049 196.757L210.049 196.757Z" fill="#FCDD09" stroke="black"/>
<path d="M203.823 194.351L205.362 197.426L208.075 199.316L210.077 199.248L212.002 197.628L212.194 196.045L211.47 194.629L210.052 193.229L206.195 193.189L203.823 194.351L203.823 194.351Z" fill="#FCDD09" stroke="black"/>
<path d="M196.583 191.689L198.121 194.764L200.835 196.654L202.836 196.586L204.762 194.966L204.954 193.383L204.229 191.967L202.812 190.567L198.955 190.527L196.583 191.689L196.583 191.689Z" fill="#FCDD09" stroke="black"/>
<path d="M194.02 225.518L197.012 226.479L200.288 225.713L201.875 224.131L202.52 221.527L201.779 220.278L200.388 219.849L198.442 219.961L195.287 222.891L194.02 225.518V225.518Z" fill="#FCDD09" stroke="black"/>
<path d="M200.624 226.298L203.617 227.259L206.893 226.494L208.48 224.912L209.124 222.308L208.383 221.058L206.992 220.629L205.047 220.742L201.892 223.671L200.624 226.298V226.298Z" fill="#FCDD09" stroke="black"/>
<path d="M207.257 227.027L210.25 227.988L213.526 227.222L215.113 225.64L215.758 223.036L215.016 221.787L213.625 221.357L211.68 221.47L208.525 224.4L207.257 227.027L207.257 227.027Z" fill="#FCDD09" stroke="black"/>
<path d="M213.488 227.698L216.481 228.659L219.757 227.893L221.344 226.311L221.989 223.707L221.247 222.458L219.856 222.028L217.911 222.141L214.756 225.071L213.488 227.698V227.698Z" fill="#FCDD09" stroke="black"/>
<path d="M219.522 228.023L222.514 228.984L225.79 228.218L227.377 226.636L228.022 224.032L227.28 222.783L225.89 222.354L223.944 222.466L220.789 225.396L219.521 228.023L219.522 228.023Z" fill="#FCDD09" stroke="black"/>
<path d="M194.643 213.912L197.787 213.519L200.827 214.868L202.031 216.708L202.087 219.377L201.084 220.465L199.627 220.631L197.746 220.164L195.304 216.717L194.643 213.912L194.643 213.912Z" fill="#FCDD09" stroke="black"/>
<path d="M201.286 214.356L204.43 213.963L207.469 215.312L208.674 217.152L208.729 219.821L207.727 220.909L206.269 221.075L204.389 220.609L201.946 217.162L201.286 214.356V214.356Z" fill="#FCDD09" stroke="black"/>
<path d="M207.944 214.856L211.089 214.463L214.128 215.812L215.333 217.652L215.388 220.321L214.386 221.409L212.928 221.575L211.048 221.109L208.605 217.662L207.944 214.856L207.944 214.856Z" fill="#FCDD09" stroke="black"/>
<path d="M214.196 215.339L217.34 214.945L220.38 216.295L221.584 218.134L221.64 220.803L220.638 221.891L219.18 222.057L217.3 221.591L214.857 218.144L214.196 215.339L214.196 215.339Z" fill="#FCDD09" stroke="black"/>
<path d="M220.178 216.125L223.322 215.731L226.361 217.081L227.566 218.921L227.622 221.589L226.619 222.678L225.162 222.844L223.281 222.377L220.838 218.93L220.178 216.125L220.178 216.125Z" fill="#FCDD09" stroke="black"/>
<path d="M219.43 222.271L221.68 224.87L224.776 226.03L226.698 225.469L228.164 223.422L227.959 221.84L226.908 220.648L225.189 219.643L221.442 220.559L219.43 222.271L219.43 222.271Z" fill="#FCDD09" stroke="black"/>
<path d="M213.507 221.432L215.757 224.03L218.853 225.19L220.775 224.629L222.241 222.582L222.037 221L220.985 219.808L219.266 218.803L215.519 219.719L213.507 221.432V221.432Z" fill="#FCDD09" stroke="black"/>
<path d="M206.932 221.1L209.182 223.698L212.278 224.858L214.2 224.297L215.666 222.25L215.461 220.668L214.41 219.476L212.691 218.471L208.944 219.387L206.932 221.1V221.1Z" fill="#FCDD09" stroke="black"/>
<path d="M200.306 220.309L202.555 222.908L205.651 224.068L207.574 223.507L209.039 221.46L208.835 219.878L207.784 218.686L206.064 217.681L202.317 218.597L200.306 220.309V220.309Z" fill="#FCDD09" stroke="black"/>
<path d="M192.633 219.522L194.882 222.121L197.979 223.281L199.901 222.72L201.366 220.673L201.162 219.091L200.111 217.899L198.391 216.894L194.644 217.81L192.633 219.522L192.633 219.522Z" fill="#FCDD09" stroke="black"/>
<path d="M281.064 183.608L280.446 186.695L281.573 189.869L283.32 191.271L285.976 191.621L287.133 190.743L287.403 189.311L287.073 187.387L283.813 184.576L281.064 183.608L281.064 183.608Z" fill="#FCDD09" stroke="black"/>
<path d="M281.03 190.27L280.412 193.356L281.539 196.53L283.286 197.932L285.942 198.282L287.099 197.404L287.369 195.972L287.039 194.048L283.778 191.237L281.03 190.27L281.03 190.27Z" fill="#FCDD09" stroke="black"/>
<path d="M281.051 196.952L280.433 200.038L281.56 203.213L283.307 204.615L285.963 204.964L287.12 204.087L287.39 202.654L287.06 200.731L283.799 197.919L281.051 196.952L281.051 196.952Z" fill="#FCDD09" stroke="black"/>
<path d="M281.083 203.229L280.465 206.315L281.592 209.489L283.339 210.891L285.996 211.241L287.152 210.363L287.422 208.931L287.092 207.007L283.832 204.196L281.083 203.229L281.083 203.229Z" fill="#FCDD09" stroke="black"/>
<path d="M281.437 209.27L280.819 212.356L281.946 215.53L283.693 216.932L286.35 217.282L287.506 216.404L287.776 214.972L287.446 213.048L284.186 210.237L281.437 209.27L281.437 209.27Z" fill="#FCDD09" stroke="black"/>
<path d="M292.648 182.929L293.391 186.014L292.393 189.19L290.703 190.595L288.061 190.95L286.869 190.074L286.541 188.642L286.793 186.718L289.939 183.901L292.649 182.929L292.648 182.929Z" fill="#FCDD09" stroke="black"/>
<path d="M292.952 189.589L293.695 192.674L292.697 195.85L291.007 197.255L288.365 197.61L287.173 196.734L286.845 195.302L287.097 193.378L290.243 190.561L292.952 189.589H292.952Z" fill="#FCDD09" stroke="black"/>
<path d="M293.203 196.271L293.945 199.357L292.947 202.533L291.257 203.938L288.615 204.292L287.423 203.417L287.095 201.985L287.347 200.061L290.493 197.244L293.203 196.271V196.271Z" fill="#FCDD09" stroke="black"/>
<path d="M293.425 202.548L294.168 205.633L293.17 208.809L291.479 210.214L288.837 210.569L287.646 209.693L287.317 208.261L287.569 206.337L290.716 203.52L293.425 202.548Z" fill="#FCDD09" stroke="black"/>
<path d="M293.316 208.589L294.058 211.674L293.06 214.85L291.37 216.255L288.728 216.61L287.536 215.734L287.208 214.302L287.46 212.378L290.606 209.561L293.316 208.589V208.589Z" fill="#FCDD09" stroke="black"/>
<path d="M287.133 208.534L284.806 211.064L284.003 214.276L284.775 216.126L286.971 217.355L288.517 216.974L289.582 215.794L290.387 213.97L289.058 210.344L287.133 208.534L287.133 208.534Z" fill="#FCDD09" stroke="black"/>
<path d="M287.303 202.546L284.976 205.076L284.173 208.288L284.945 210.138L287.14 211.367L288.687 210.986L289.751 209.806L290.556 207.982L289.227 204.356L287.303 202.546V202.546Z" fill="#FCDD09" stroke="black"/>
<path d="M286.895 195.965L284.568 198.495L283.765 201.706L284.537 203.557L286.732 204.786L288.279 204.405L289.343 203.225L290.148 201.401L288.819 197.775L286.895 195.965L286.895 195.965Z" fill="#FCDD09" stroke="black"/>
<path d="M286.936 189.281L284.609 191.811L283.806 195.023L284.578 196.873L286.773 198.102L288.32 197.721L289.384 196.541L290.189 194.718L288.86 191.091L286.936 189.281H286.936Z" fill="#FCDD09" stroke="black"/>
<path d="M286.857 181.557L284.531 184.087L283.727 187.298L284.499 189.148L286.695 190.378L288.241 189.997L289.306 188.817L290.111 186.993L288.782 183.367L286.857 181.557H286.857Z" fill="#FCDD09" stroke="black"/>
<path d="M249.126 194.747L249.409 197.882L251.389 200.606L253.462 201.453L256.107 201.034L256.968 199.863L256.821 198.413L255.959 196.662L252.036 194.893L249.127 194.747L249.126 194.747Z" fill="#FCDD09" stroke="black"/>
<path d="M250.981 201.144L251.263 204.279L253.243 207.002L255.316 207.85L257.962 207.43L258.822 206.26L258.675 204.809L257.814 203.059L253.891 201.29L250.981 201.144L250.981 201.144Z" fill="#FCDD09" stroke="black"/>
<path d="M252.895 207.546L253.177 210.681L255.157 213.404L257.23 214.252L259.876 213.832L260.736 212.662L260.589 211.212L259.728 209.461L255.805 207.692L252.895 207.546L252.895 207.546Z" fill="#FCDD09" stroke="black"/>
<path d="M254.705 213.555L254.987 216.69L256.967 219.413L259.04 220.261L261.686 219.841L262.546 218.671L262.399 217.221L261.537 215.47L257.614 213.701L254.705 213.555L254.705 213.555Z" fill="#FCDD09" stroke="black"/>
<path d="M256.756 219.247L257.038 222.382L259.018 225.106L261.091 225.953L263.737 225.534L264.597 224.363L264.45 222.913L263.589 221.162L259.666 219.393L256.756 219.247L256.756 219.247Z" fill="#FCDD09" stroke="black"/>
<path d="M260.042 190.803L261.628 193.55L261.572 196.879L260.349 198.707L257.916 199.798L256.525 199.297L255.805 198.017L255.501 196.101L257.72 192.505L260.042 190.803V190.803Z" fill="#FCDD09" stroke="black"/>
<path d="M262.221 197.103L263.807 199.85L263.75 203.179L262.527 205.007L260.095 206.098L258.704 205.597L257.983 204.317L257.68 202.4L259.898 198.805L262.221 197.103L262.221 197.103Z" fill="#FCDD09" stroke="black"/>
<path d="M264.355 203.439L265.941 206.187L265.884 209.516L264.661 211.344L262.229 212.434L260.837 211.933L260.117 210.654L259.813 208.737L262.032 205.142L264.355 203.439L264.355 203.439Z" fill="#FCDD09" stroke="black"/>
<path d="M266.346 209.395L267.932 212.142L267.875 215.471L266.652 217.299L264.22 218.389L262.829 217.889L262.108 216.609L261.805 214.692L264.023 211.097L266.346 209.395V209.395Z" fill="#FCDD09" stroke="black"/>
<path d="M267.953 215.218L269.54 217.965L269.483 221.294L268.26 223.122L265.827 224.213L264.436 223.712L263.716 222.432L263.412 220.516L265.631 216.92L267.953 215.218H267.953Z" fill="#FCDD09" stroke="black"/>
<path d="M262.009 216.923L260.496 220.01L260.635 223.318L261.9 224.873L264.353 225.427L265.728 224.623L266.415 223.189L266.67 221.211L264.368 218.111L262.009 216.923H262.009Z" fill="#FCDD09" stroke="black"/>
<path d="M260.475 211.133L258.961 214.22L259.1 217.528L260.365 219.083L262.819 219.637L264.193 218.833L264.88 217.398L265.135 215.421L262.833 212.321L260.475 211.133V211.133Z" fill="#FCDD09" stroke="black"/>
<path d="M258.219 204.938L256.705 208.025L256.845 211.333L258.11 212.887L260.563 213.442L261.938 212.637L262.624 211.203L262.879 209.225L260.577 206.126L258.219 204.938H258.219Z" fill="#FCDD09" stroke="black"/>
<path d="M256.364 198.518L254.85 201.605L254.99 204.913L256.255 206.467L258.708 207.022L260.083 206.217L260.769 204.783L261.024 202.805L258.722 199.706L256.364 198.518V198.518Z" fill="#FCDD09" stroke="black"/>
<path d="M254.1 191.133L252.586 194.22L252.726 197.528L253.991 199.083L256.444 199.637L257.819 198.833L258.505 197.398L258.761 195.421L256.459 192.321L254.1 191.133H254.1Z" fill="#FCDD09" stroke="black"/>
<path d="M316.07 180.973L314.2 183.502L313.87 186.855L314.856 188.868L317.11 190.317L318.53 190.016L319.383 188.835L319.902 186.954L318.146 183.02L316.07 180.973L316.07 180.973Z" fill="#FCDD09" stroke="black"/>
<path d="M313.208 186.985L311.338 189.515L311.008 192.868L311.994 194.881L314.248 196.33L315.668 196.028L316.521 194.847L317.04 192.966L315.285 189.032L313.208 186.985L313.208 186.985Z" fill="#FCDD09" stroke="black"/>
<path d="M310.387 193.042L308.517 195.571L308.187 198.924L309.172 200.938L311.427 202.386L312.847 202.085L313.7 200.904L314.219 199.023L312.463 195.089L310.387 193.042L310.387 193.042Z" fill="#FCDD09" stroke="black"/>
<path d="M307.749 198.735L305.878 201.265L305.549 204.618L306.534 206.631L308.789 208.08L310.208 207.778L311.062 206.597L311.581 204.716L309.825 200.782L307.749 198.735L307.749 198.735Z" fill="#FCDD09" stroke="black"/>
<path d="M305.502 204.353L303.632 206.882L303.302 210.235L304.288 212.248L306.542 213.697L307.962 213.396L308.815 212.215L309.334 210.334L307.578 206.399L305.502 204.353L305.502 204.353Z" fill="#FCDD09" stroke="black"/>
<path d="M326.842 185.296L326.203 188.404L323.95 190.853L321.823 191.404L319.282 190.598L318.576 189.298L318.887 187.862L319.933 186.229L323.977 185.021L326.842 185.296V185.296Z" fill="#FCDD09" stroke="black"/>
<path d="M324.286 191.452L323.647 194.56L321.394 197.009L319.268 197.56L316.726 196.754L316.02 195.454L316.332 194.018L317.377 192.385L321.422 191.177L324.286 191.452V191.452Z" fill="#FCDD09" stroke="black"/>
<path d="M321.673 197.606L321.034 200.715L318.781 203.163L316.654 203.714L314.113 202.909L313.406 201.608L313.718 200.173L314.763 198.539L318.808 197.331L321.673 197.606L321.673 197.606Z" fill="#FCDD09" stroke="black"/>
<path d="M319.206 203.38L318.567 206.488L316.314 208.937L314.187 209.488L311.646 208.682L310.94 207.382L311.252 205.946L312.297 204.313L316.342 203.104L319.206 203.38V203.38Z" fill="#FCDD09" stroke="black"/>
<path d="M316.54 208.801L315.901 211.909L313.648 214.358L311.521 214.908L308.98 214.103L308.274 212.803L308.586 211.367L309.631 209.733L313.676 208.525L316.54 208.801V208.801Z" fill="#FCDD09" stroke="black"/>
<path d="M310.969 206.115L307.789 207.413L305.697 209.976L305.609 211.98L307.073 214.028L308.634 214.343L310.099 213.729L311.603 212.422L311.942 208.573L310.969 206.115H310.969Z" fill="#FCDD09" stroke="black"/>
<path d="M313.667 200.769L310.487 202.066L308.395 204.63L308.308 206.633L309.772 208.681L311.333 208.996L312.798 208.382L314.301 207.075L314.64 203.227L313.667 200.769L313.667 200.769Z" fill="#FCDD09" stroke="black"/>
<path d="M316.095 194.64L312.915 195.938L310.823 198.501L310.735 200.504L312.199 202.552L313.76 202.867L315.225 202.253L316.729 200.946L317.068 197.098L316.095 194.64H316.095Z" fill="#FCDD09" stroke="black"/>
<path d="M318.973 188.608L315.792 189.906L313.7 192.47L313.613 194.473L315.077 196.521L316.638 196.836L318.103 196.222L319.606 194.915L319.945 191.067L318.973 188.608L318.973 188.608Z" fill="#FCDD09" stroke="black"/>
<path d="M322.184 181.586L319.004 182.884L316.912 185.447L316.825 187.451L318.289 189.499L319.85 189.813L321.315 189.199L322.818 187.892L323.157 184.044L322.184 181.586L322.184 181.586Z" fill="#FCDD09" stroke="black"/>
<path d="M343.759 149.881L341.473 152.041L340.559 155.283L341.175 157.439L343.14 159.263L344.59 159.216L345.638 158.204L346.479 156.444L345.443 152.262L343.759 149.881L343.759 149.881Z" fill="#FCDD09" stroke="black"/>
<path d="M339.885 155.296L337.599 157.456L336.686 160.699L337.302 162.854L339.267 164.678L340.717 164.631L341.764 163.619L342.606 161.859L341.569 157.677L339.885 155.296L339.885 155.296Z" fill="#FCDD09" stroke="black"/>
<path d="M336.043 160.76L333.757 162.92L332.844 166.162L333.46 168.318L335.425 170.142L336.875 170.095L337.923 169.083L338.764 167.323L337.727 163.141L336.043 160.76L336.043 160.76Z" fill="#FCDD09" stroke="black"/>
<path d="M332.446 165.899L330.16 168.06L329.247 171.302L329.863 173.458L331.828 175.281L333.278 175.235L334.325 174.223L335.167 172.463L334.13 168.28L332.446 165.899L332.446 165.899Z" fill="#FCDD09" stroke="black"/>
<path d="M329.247 171.032L326.961 173.192L326.047 176.435L326.664 178.591L328.629 180.414L330.079 180.368L331.126 179.356L331.968 177.595L330.931 173.413L329.247 171.032L329.247 171.032Z" fill="#FCDD09" stroke="black"/>
<path d="M353.602 156.036L352.427 158.983L349.779 160.996L347.589 161.163L345.229 159.923L344.762 158.518L345.321 157.16L346.637 155.736L350.831 155.26L353.602 156.036V156.036Z" fill="#FCDD09" stroke="black"/>
<path d="M350.005 161.645L348.83 164.592L346.182 166.606L343.991 166.773L341.631 165.532L341.165 164.127L341.724 162.769L343.04 161.345L347.234 160.869L350.005 161.645H350.005Z" fill="#FCDD09" stroke="black"/>
<path d="M346.35 167.243L345.175 170.19L342.527 172.203L340.337 172.371L337.977 171.13L337.51 169.725L338.069 168.367L339.385 166.943L343.579 166.467L346.35 167.243V167.243Z" fill="#FCDD09" stroke="black"/>
<path d="M342.908 172.492L341.733 175.439L339.084 177.452L336.894 177.62L334.534 176.379L334.067 174.974L334.626 173.616L335.943 172.192L340.136 171.716L342.908 172.492Z" fill="#FCDD09" stroke="black"/>
<path d="M339.331 177.357L338.155 180.304L335.507 182.318L333.317 182.485L330.957 181.244L330.49 179.839L331.049 178.481L332.366 177.057L336.559 176.581L339.331 177.357V177.357Z" fill="#FCDD09" stroke="black"/>
<path d="M334.318 173.731L330.96 174.448L328.45 176.603L328.012 178.56L329.093 180.834L330.574 181.419L332.124 181.073L333.834 180.051L334.844 176.323L334.318 173.731L334.318 173.731Z" fill="#FCDD09" stroke="black"/>
<path d="M337.915 168.944L334.556 169.661L332.046 171.816L331.608 173.773L332.689 176.047L334.171 176.632L335.72 176.286L337.43 175.264L338.44 171.536L337.915 168.944V168.944Z" fill="#FCDD09" stroke="black"/>
<path d="M341.381 163.339L338.023 164.056L335.513 166.21L335.075 168.167L336.156 170.441L337.637 171.026L339.187 170.68L340.897 169.658L341.907 165.93L341.381 163.339V163.339Z" fill="#FCDD09" stroke="black"/>
<path d="M345.274 157.909L341.915 158.626L339.405 160.781L338.967 162.738L340.048 165.012L341.529 165.597L343.079 165.251L344.789 164.229L345.799 160.5L345.274 157.909V157.909Z" fill="#FCDD09" stroke="black"/>
<path d="M349.67 151.563L346.311 152.279L343.801 154.434L343.363 156.391L344.444 158.665L345.925 159.25L347.475 158.904L349.185 157.882L350.195 154.154L349.67 151.562V151.563Z" fill="#FCDD09" stroke="black"/>
<path d="M367.975 165.422L365.182 166.866L363.41 169.729L363.408 171.971L364.794 174.268L366.2 174.624L367.486 173.941L368.78 172.482L368.938 168.176L367.976 165.422L367.975 165.422Z" fill="#FCDD09" stroke="black"/>
<path d="M362.759 169.554L359.966 170.997L358.194 173.861L358.192 176.103L359.577 178.399L360.984 178.756L362.27 178.073L363.564 176.614L363.721 172.308L362.76 169.554L362.759 169.554Z" fill="#FCDD09" stroke="black"/>
<path d="M357.559 173.743L354.766 175.187L352.994 178.05L352.992 180.293L354.378 182.589L355.784 182.946L357.07 182.263L358.364 180.804L358.522 176.497L357.56 173.743L357.559 173.743Z" fill="#FCDD09" stroke="black"/>
<path d="M352.684 177.687L349.891 179.13L348.119 181.994L348.117 184.236L349.503 186.532L350.909 186.889L352.195 186.206L353.489 184.747L353.647 180.441L352.685 177.687L352.684 177.687Z" fill="#FCDD09" stroke="black"/>
<path d="M348.193 181.735L345.401 183.179L343.628 186.042L343.626 188.285L345.012 190.581L346.419 190.938L347.704 190.255L348.999 188.796L349.156 184.49L348.194 181.735L348.193 181.735Z" fill="#FCDD09" stroke="black"/>
<path d="M375.738 174.06L373.796 176.567L370.695 177.77L368.544 177.324L366.618 175.479L366.557 174L367.469 172.849L369.127 171.845L373.289 172.547L375.738 174.06L375.738 174.06Z" fill="#FCDD09" stroke="black"/>
<path d="M370.733 178.457L368.791 180.964L365.69 182.166L363.539 181.721L361.613 179.875L361.552 178.396L362.464 177.245L364.122 176.241L368.284 176.944L370.733 178.457V178.457Z" fill="#FCDD09" stroke="black"/>
<path d="M365.677 182.825L363.735 185.332L360.634 186.534L358.483 186.089L356.557 184.243L356.496 182.764L357.408 181.613L359.066 180.609L363.228 181.312L365.677 182.825L365.677 182.825Z" fill="#FCDD09" stroke="black"/>
<path d="M360.92 186.917L358.978 189.424L355.877 190.626L353.726 190.181L351.8 188.335L351.739 186.856L352.651 185.705L354.309 184.701L358.471 185.404L360.92 186.917V186.917Z" fill="#FCDD09" stroke="black"/>
<path d="M356.141 190.603L354.198 193.11L351.098 194.313L348.946 193.867L347.021 192.022L346.959 190.542L347.871 189.392L349.529 188.388L353.691 189.09L356.141 190.603V190.603Z" fill="#FCDD09" stroke="black"/>
<path d="M352.324 185.733L348.898 185.492L345.892 186.869L344.931 188.628L345.343 191.113L346.605 192.085L348.19 192.181L350.115 191.672L352.114 188.368L352.324 185.733L352.324 185.733Z" fill="#FCDD09" stroke="black"/>
<path d="M357.1 182.126L353.674 181.886L350.668 183.262L349.707 185.022L350.119 187.506L351.381 188.478L352.966 188.575L354.892 188.066L356.89 184.762L357.1 182.126V182.126Z" fill="#FCDD09" stroke="black"/>
<path d="M361.979 177.698L358.553 177.458L355.546 178.834L354.585 180.594L354.997 183.079L356.26 184.051L357.845 184.147L359.77 183.638L361.769 180.334L361.979 177.698V177.698Z" fill="#FCDD09" stroke="black"/>
<path d="M367.217 173.557L363.791 173.316L360.785 174.693L359.824 176.452L360.236 178.937L361.498 179.909L363.083 180.005L365.008 179.496L367.007 176.193L367.217 173.557L367.217 173.557Z" fill="#FCDD09" stroke="black"/>
<path d="M373.193 168.673L369.767 168.433L366.76 169.809L365.799 171.568L366.211 174.053L367.474 175.025L369.059 175.121L370.984 174.613L372.983 171.309L373.193 168.673V168.673Z" fill="#FCDD09" stroke="black"/>
<path d="M336.767 195.85L334.336 197.844L333.197 201.014L333.661 203.208L335.493 205.165L336.943 205.221L338.059 204.285L339.022 202.588L338.28 198.343L336.768 195.85L336.767 195.85Z" fill="#FCDD09" stroke="black"/>
<path d="M332.524 200.979L330.092 202.973L328.954 206.143L329.417 208.337L331.249 210.294L332.699 210.35L333.815 209.414L334.778 207.717L334.037 203.472L332.524 200.979L332.524 200.979Z" fill="#FCDD09" stroke="black"/>
<path d="M328.308 206.16L325.877 208.154L324.738 211.325L325.202 213.518L327.034 215.476L328.484 215.531L329.6 214.595L330.563 212.898L329.822 208.654L328.309 206.16L328.308 206.16Z" fill="#FCDD09" stroke="black"/>
<path d="M324.36 211.033L321.929 213.027L320.79 216.198L321.254 218.391L323.086 220.349L324.536 220.404L325.652 219.468L326.614 217.771L325.873 213.527L324.36 211.033L324.36 211.033Z" fill="#FCDD09" stroke="black"/>
<path d="M320.809 215.93L318.377 217.924L317.239 221.094L317.702 223.288L319.535 225.245L320.985 225.301L322.1 224.365L323.063 222.668L322.322 218.423L320.809 215.93L320.809 215.93Z" fill="#FCDD09" stroke="black"/>
<path d="M346.156 202.681L344.777 205.538L341.994 207.36L339.797 207.373L337.53 205.97L337.163 204.535L337.816 203.22L339.229 201.892L343.445 201.712L346.156 202.681V202.681Z" fill="#FCDD09" stroke="black"/>
<path d="M342.174 208.025L340.795 210.882L338.012 212.704L335.816 212.717L333.548 211.313L333.181 209.879L333.834 208.564L335.247 207.236L339.463 207.056L342.174 208.025V208.025Z" fill="#FCDD09" stroke="black"/>
<path d="M338.136 213.351L336.757 216.208L333.975 218.03L331.778 218.043L329.511 216.639L329.144 215.205L329.796 213.89L331.209 212.562L335.426 212.382L338.136 213.351V213.351Z" fill="#FCDD09" stroke="black"/>
<path d="M334.334 218.345L332.956 221.202L330.173 223.024L327.976 223.037L325.709 221.634L325.342 220.199L325.995 218.884L327.407 217.556L331.624 217.376L334.334 218.345V218.345Z" fill="#FCDD09" stroke="black"/>
<path d="M330.425 222.947L329.046 225.805L326.263 227.627L324.067 227.64L321.799 226.236L321.432 224.802L322.085 223.487L323.498 222.159L327.714 221.979L330.425 222.947L330.425 222.947Z" fill="#FCDD09" stroke="black"/>
<path d="M325.679 218.978L322.279 219.457L319.624 221.429L319.05 223.351L319.969 225.695L321.406 226.383L322.976 226.147L324.753 225.248L326.022 221.599L325.679 218.978V218.978Z" fill="#FCDD09" stroke="black"/>
<path d="M329.602 214.455L326.201 214.934L323.546 216.907L322.972 218.828L323.891 221.173L325.328 221.86L326.898 221.624L328.676 220.725L329.944 217.077L329.602 214.455L329.602 214.455Z" fill="#FCDD09" stroke="black"/>
<path d="M333.453 209.107L330.053 209.586L327.398 211.559L326.824 213.481L327.743 215.825L329.18 216.513L330.75 216.276L332.527 215.377L333.796 211.729L333.453 209.107V209.107Z" fill="#FCDD09" stroke="black"/>
<path d="M337.716 203.965L334.316 204.444L331.661 206.417L331.087 208.338L332.006 210.682L333.443 211.37L335.013 211.134L336.791 210.235L338.059 206.587L337.716 203.965V203.965Z" fill="#FCDD09" stroke="black"/>
<path d="M342.546 197.942L339.145 198.421L336.491 200.394L335.917 202.316L336.836 204.66L338.272 205.348L339.843 205.111L341.62 204.212L342.888 200.564L342.546 197.942L342.546 197.942Z" fill="#FCDD09" stroke="black"/>
<path d="M381.799 199.714L378.664 199.938L375.908 201.87L375.023 203.93L375.393 206.587L376.545 207.47L377.996 207.35L379.76 206.52L381.599 202.625L381.799 199.714L381.799 199.714Z" fill="#FCDD09" stroke="black"/>
<path d="M375.379 201.452L372.244 201.677L369.488 203.608L368.604 205.668L368.973 208.326L370.126 209.209L371.576 209.089L373.34 208.259L375.179 204.363L375.379 201.452L375.379 201.452Z" fill="#FCDD09" stroke="black"/>
<path d="M368.952 203.25L365.817 203.474L363.061 205.406L362.176 207.466L362.546 210.123L363.698 211.007L365.149 210.887L366.912 210.057L368.752 206.161L368.952 203.25L368.952 203.25Z" fill="#FCDD09" stroke="black"/>
<path d="M362.919 204.95L359.785 205.175L357.029 207.107L356.144 209.166L356.514 211.824L357.666 212.707L359.117 212.587L360.88 211.757L362.719 207.861L362.919 204.95L362.919 204.95Z" fill="#FCDD09" stroke="black"/>
<path d="M357.199 206.898L354.064 207.123L351.309 209.055L350.424 211.115L350.793 213.772L351.946 214.655L353.396 214.535L355.16 213.705L356.999 209.809L357.199 206.898L357.199 206.898Z" fill="#FCDD09" stroke="black"/>
<path d="M385.534 210.718L382.762 212.256L379.439 212.137L377.637 210.878L376.594 208.422L377.12 207.038L378.411 206.341L380.329 206.072L383.878 208.361L385.534 210.718V210.718Z" fill="#FCDD09" stroke="black"/>
<path d="M379.204 212.783L376.432 214.32L373.11 214.201L371.308 212.943L370.264 210.486L370.79 209.103L372.081 208.405L374 208.137L377.548 210.425L379.204 212.783V212.783Z" fill="#FCDD09" stroke="black"/>
<path d="M372.838 214.801L370.066 216.339L366.743 216.22L364.942 214.961L363.898 212.505L364.424 211.121L365.715 210.424L367.634 210.155L371.182 212.444L372.838 214.801V214.801Z" fill="#FCDD09" stroke="black"/>
<path d="M366.857 216.685L364.085 218.222L360.762 218.103L358.96 216.845L357.917 214.389L358.442 213.005L359.733 212.307L361.652 212.039L365.201 214.328L366.857 216.685V216.685Z" fill="#FCDD09" stroke="black"/>
<path d="M361.012 218.186L358.24 219.723L354.918 219.604L353.116 218.346L352.072 215.89L352.598 214.506L353.889 213.808L355.808 213.54L359.356 215.829L361.012 218.186L361.012 218.186Z" fill="#FCDD09" stroke="black"/>
<path d="M359.422 212.202L356.368 210.629L353.063 210.707L351.487 211.945L350.888 214.391L351.666 215.783L353.085 216.497L355.054 216.789L358.191 214.542L359.422 212.202V212.202Z" fill="#FCDD09" stroke="black"/>
<path d="M365.231 210.773L362.177 209.2L358.872 209.278L357.297 210.516L356.697 212.962L357.475 214.354L358.894 215.068L360.863 215.36L364 213.113L365.231 210.773Z" fill="#FCDD09" stroke="black"/>
<path d="M371.457 208.63L368.403 207.057L365.098 207.135L363.523 208.373L362.923 210.819L363.701 212.21L365.12 212.925L367.089 213.217L370.227 210.969L371.457 208.63V208.63Z" fill="#FCDD09" stroke="black"/>
<path d="M377.901 206.892L374.847 205.318L371.542 205.397L369.966 206.634L369.367 209.08L370.145 210.472L371.564 211.186L373.533 211.479L376.67 209.231L377.901 206.892V206.892Z" fill="#FCDD09" stroke="black"/>
<path d="M385.314 204.762L382.26 203.188L378.956 203.267L377.38 204.504L376.781 206.951L377.558 208.342L378.977 209.056L380.947 209.349L384.084 207.101L385.314 204.762V204.762Z" fill="#FCDD09" stroke="black"/>
<path d="M295.529 217.648L294.348 220.565L294.864 223.894L296.319 225.598L298.864 226.438L300.163 225.791L300.695 224.435L300.729 222.483L298.049 219.112L295.529 217.648L295.529 217.648Z" fill="#FCDD09" stroke="black"/>
<path d="M294.255 224.187L293.074 227.103L293.59 230.432L295.045 232.136L297.59 232.976L298.889 232.329L299.421 230.973L299.455 229.021L296.776 225.65L294.255 224.187L294.255 224.187Z" fill="#FCDD09" stroke="black"/>
<path d="M293.032 230.756L291.85 233.673L292.366 237.002L293.822 238.705L296.366 239.545L297.666 238.899L298.198 237.542L298.232 235.591L295.552 232.219L293.032 230.756H293.032Z" fill="#FCDD09" stroke="black"/>
<path d="M291.894 236.929L290.713 239.845L291.229 243.175L292.685 244.878L295.229 245.718L296.528 245.072L297.06 243.715L297.094 241.763L294.415 238.392L291.894 236.929H291.894Z" fill="#FCDD09" stroke="black"/>
<path d="M291.117 242.929L289.936 245.846L290.452 249.175L291.908 250.878L294.452 251.718L295.751 251.072L296.284 249.715L296.318 247.764L293.638 244.392L291.118 242.929L291.117 242.929Z" fill="#FCDD09" stroke="black"/>
<path d="M307.037 219.145L307.192 222.314L305.62 225.248L303.698 226.313L301.036 226.168L300.028 225.085L299.973 223.617L300.578 221.774L304.194 219.594L307.037 219.145L307.037 219.145Z" fill="#FCDD09" stroke="black"/>
<path d="M306.095 225.744L306.251 228.914L304.679 231.848L302.756 232.913L300.095 232.767L299.087 231.684L299.031 230.216L299.637 228.373L303.253 226.193L306.095 225.744L306.095 225.744Z" fill="#FCDD09" stroke="black"/>
<path d="M305.097 232.357L305.252 235.527L303.68 238.461L301.758 239.526L299.096 239.381L298.088 238.298L298.033 236.83L298.638 234.987L302.254 232.806L305.097 232.357L305.097 232.357Z" fill="#FCDD09" stroke="black"/>
<path d="M304.146 238.564L304.301 241.734L302.73 244.668L300.807 245.733L298.146 245.588L297.138 244.505L297.082 243.037L297.688 241.194L301.303 239.013L304.146 238.565L304.146 238.564Z" fill="#FCDD09" stroke="black"/>
<path d="M302.915 244.479L303.07 247.649L301.498 250.583L299.576 251.648L296.914 251.503L295.906 250.42L295.851 248.952L296.456 247.109L300.072 244.929L302.915 244.48L302.915 244.479Z" fill="#FCDD09" stroke="black"/>
<path d="M296.851 243.271L294.094 245.322L292.707 248.327L293.121 250.289L295.049 251.906L296.639 251.821L297.904 250.861L299.035 249.219L298.405 245.408L296.851 243.271L296.851 243.271Z" fill="#FCDD09" stroke="black"/>
<path d="M298.132 237.419L295.376 239.47L293.988 242.475L294.403 244.437L296.33 246.055L297.92 245.97L299.186 245.009L300.317 243.368L299.686 239.557L298.132 237.419V237.419Z" fill="#FCDD09" stroke="black"/>
<path d="M298.957 230.877L296.2 232.928L294.813 235.933L295.227 237.895L297.155 239.513L298.745 239.428L300.011 238.467L301.142 236.826L300.511 233.015L298.957 230.877L298.957 230.877Z" fill="#FCDD09" stroke="black"/>
<path d="M300.241 224.318L297.485 226.37L296.097 229.375L296.512 231.337L298.439 232.954L300.029 232.869L301.295 231.909L302.426 230.267L301.795 226.456L300.241 224.318V224.318Z" fill="#FCDD09" stroke="black"/>
<path d="M301.603 216.715L298.846 218.766L297.458 221.771L297.873 223.733L299.801 225.351L301.391 225.265L302.656 224.305L303.787 222.663L303.157 218.852L301.603 216.715L301.603 216.715Z" fill="#FCDD09" stroke="black"/>
<path d="M263.117 229.94L263.399 233.074L265.379 235.798L267.452 236.646L270.098 236.226L270.958 235.056L270.811 233.605L269.95 231.855L266.026 230.086L263.117 229.939L263.117 229.94Z" fill="#FCDD09" stroke="black"/>
<path d="M264.972 236.336L265.254 239.471L267.234 242.195L269.307 243.042L271.953 242.623L272.813 241.452L272.666 240.002L271.805 238.251L267.881 236.482L264.972 236.336L264.972 236.336Z" fill="#FCDD09" stroke="black"/>
<path d="M266.885 242.738L267.168 245.873L269.148 248.597L271.22 249.444L273.866 249.025L274.726 247.854L274.579 246.404L273.718 244.654L269.795 242.884L266.885 242.738L266.885 242.738Z" fill="#FCDD09" stroke="black"/>
<path d="M268.695 248.748L268.977 251.883L270.957 254.607L273.03 255.454L275.676 255.035L276.536 253.864L276.389 252.414L275.528 250.663L271.605 248.894L268.695 248.748L268.695 248.748Z" fill="#FCDD09" stroke="black"/>
<path d="M270.746 254.44L271.028 257.574L273.008 260.298L275.081 261.146L277.727 260.726L278.587 259.556L278.44 258.105L277.579 256.355L273.656 254.586L270.746 254.439L270.746 254.44Z" fill="#FCDD09" stroke="black"/>
<path d="M274.032 225.995L275.619 228.742L275.562 232.072L274.339 233.899L271.906 234.99L270.515 234.489L269.795 233.209L269.491 231.293L271.71 227.697L274.032 225.995L274.032 225.995Z" fill="#FCDD09" stroke="black"/>
<path d="M276.211 232.295L277.797 235.042L277.741 238.371L276.518 240.199L274.085 241.29L272.694 240.789L271.974 239.509L271.67 237.593L273.889 233.997L276.211 232.295V232.295Z" fill="#FCDD09" stroke="black"/>
<path d="M278.345 238.632L279.931 241.379L279.874 244.708L278.652 246.536L276.219 247.627L274.828 247.126L274.107 245.846L273.804 243.93L276.022 240.334L278.345 238.632V238.632Z" fill="#FCDD09" stroke="black"/>
<path d="M280.336 244.587L281.922 247.334L281.866 250.663L280.643 252.491L278.21 253.582L276.819 253.081L276.099 251.801L275.795 249.885L278.014 246.289L280.336 244.587V244.587Z" fill="#FCDD09" stroke="black"/>
<path d="M281.943 250.41L283.53 253.157L283.473 256.487L282.25 258.314L279.817 259.405L278.426 258.904L277.706 257.624L277.402 255.708L279.621 252.112L281.943 250.41V250.41Z" fill="#FCDD09" stroke="black"/>
<path d="M276 252.115L274.486 255.203L274.625 258.51L275.89 260.065L278.343 260.62L279.718 259.815L280.405 258.381L280.66 256.403L278.358 253.304L276 252.115V252.115Z" fill="#FCDD09" stroke="black"/>
<path d="M274.465 246.325L272.951 249.413L273.091 252.72L274.356 254.275L276.809 254.83L278.184 254.025L278.87 252.591L279.125 250.613L276.823 247.514L274.465 246.325H274.465Z" fill="#FCDD09" stroke="black"/>
<path d="M272.209 240.13L270.695 243.217L270.835 246.525L272.1 248.08L274.553 248.634L275.928 247.83L276.614 246.396L276.869 244.418L274.567 241.318L272.209 240.13V240.13Z" fill="#FCDD09" stroke="black"/>
<path d="M270.355 233.71L268.841 236.797L268.98 240.105L270.245 241.66L272.698 242.214L274.073 241.41L274.76 239.976L275.015 237.998L272.713 234.898L270.355 233.71H270.355Z" fill="#FCDD09" stroke="black"/>
<path d="M268.09 226.325L266.577 229.413L266.716 232.72L267.981 234.275L270.434 234.83L271.809 234.025L272.496 232.591L272.751 230.613L270.449 227.514L268.09 226.325H268.09Z" fill="#FCDD09" stroke="black"/>
<path d="M309.375 145.257L307.993 148.084L308.275 151.441L309.608 153.242L312.088 154.258L313.429 153.704L314.055 152.388L314.225 150.444L311.787 146.893L309.375 145.257L309.375 145.257Z" fill="#FCDD09" stroke="black"/>
<path d="M307.648 151.688L306.266 154.516L306.549 157.873L307.882 159.674L310.361 160.69L311.703 160.136L312.328 158.819L312.498 156.875L310.06 153.325L307.648 151.688L307.648 151.688Z" fill="#FCDD09" stroke="black"/>
<path d="M305.969 158.157L304.587 160.984L304.869 164.341L306.203 166.143L308.682 167.158L310.024 166.604L310.649 165.288L310.819 163.344L308.381 159.794L305.969 158.157L305.969 158.157Z" fill="#FCDD09" stroke="black"/>
<path d="M304.404 164.234L303.022 167.061L303.305 170.418L304.638 172.22L307.118 173.235L308.459 172.681L309.085 171.365L309.255 169.421L306.817 165.871L304.405 164.234H304.404Z" fill="#FCDD09" stroke="black"/>
<path d="M303.211 170.167L301.829 172.994L302.112 176.351L303.445 178.152L305.924 179.168L307.266 178.614L307.891 177.298L308.061 175.354L305.623 171.803L303.211 170.167H303.211Z" fill="#FCDD09" stroke="black"/>
<path d="M320.75 147.554L320.684 150.727L318.911 153.544L316.919 154.471L314.275 154.14L313.345 152.989L313.391 151.521L314.124 149.725L317.883 147.803L320.75 147.554L320.75 147.554Z" fill="#FCDD09" stroke="black"/>
<path d="M319.351 154.071L319.285 157.244L317.512 160.061L315.52 160.989L312.875 160.658L311.945 159.507L311.992 158.039L312.725 156.242L316.484 154.32L319.351 154.071H319.351Z" fill="#FCDD09" stroke="black"/>
<path d="M317.893 160.599L317.827 163.771L316.055 166.588L314.063 167.516L311.418 167.185L310.488 166.034L310.535 164.566L311.267 162.77L315.026 160.848L317.893 160.599H317.893Z" fill="#FCDD09" stroke="black"/>
<path d="M316.513 166.724L316.446 169.896L314.674 172.713L312.682 173.641L310.037 173.31L309.107 172.159L309.154 170.691L309.886 168.895L313.645 166.973L316.513 166.724L316.513 166.724Z" fill="#FCDD09" stroke="black"/>
<path d="M314.871 172.538L314.805 175.711L313.032 178.528L311.04 179.455L308.395 179.124L307.465 177.974L307.512 176.505L308.245 174.709L312.004 172.787L314.871 172.538H314.871Z" fill="#FCDD09" stroke="black"/>
<path d="M308.907 170.908L306.014 172.762L304.42 175.662L304.696 177.649L306.507 179.397L308.099 179.423L309.428 178.554L310.671 176.995L310.308 173.149L308.907 170.908H308.907Z" fill="#FCDD09" stroke="black"/>
<path d="M310.593 165.16L307.7 167.014L306.106 169.914L306.383 171.9L308.193 173.649L309.785 173.675L311.115 172.805L312.357 171.247L311.994 167.401L310.593 165.16V165.16Z" fill="#FCDD09" stroke="black"/>
<path d="M311.872 158.692L308.979 160.546L307.385 163.446L307.662 165.433L309.472 167.181L311.064 167.207L312.394 166.338L313.636 164.779L313.273 160.933L311.872 158.692V158.692Z" fill="#FCDD09" stroke="black"/>
<path d="M313.611 152.239L310.718 154.093L309.124 156.993L309.401 158.98L311.211 160.728L312.803 160.754L314.133 159.885L315.375 158.326L315.012 154.48L313.611 152.239V152.239Z" fill="#FCDD09" stroke="black"/>
<path d="M315.499 144.75L312.606 146.603L311.012 149.504L311.289 151.49L313.099 153.239L314.691 153.265L316.021 152.395L317.263 150.837L316.9 146.991L315.499 144.75L315.499 144.75Z" fill="#FCDD09" stroke="black"/>
<path d="M266.871 294.931L282.515 290.322Z" fill="#FCDD09"/>
<path d="M266.871 294.931L282.515 290.322" stroke="black"/>
</g>
<defs>
<clipPath id="clip0_1_5276">
<rect width="600" height="400" fill="white"/>
</clipPath>
</defs>
</svg>
