<svg width="600" height="400" viewBox="0 0 600 400" fill="none" xmlns="http://www.w3.org/2000/svg" xmlns:cgf="https://coding.garden/flags"><metadata id="cgf-metadata">

<cgf:flag>
  <cgf:name>Roosendaal</cgf:name>
  <cgf:route>nl/nb/roosendaal</cgf:route>
  <cgf:aspect-ratio>1.5</cgf:aspect-ratio>
</cgf:flag>

</metadata><g clip-path="url(#clip0_1_5569)">
<path d="M-3.56073 0.0625L-4.41162 399.914H600.58V0.0625H-3.56073V0.0625Z" fill="white"/>
<path d="M300.852 0.09375L600.712 399.778L600.179 0.499199L300.852 0.09375Z" fill="#D40000"/>
<path d="M295.189 399.968L-3.57917 0.199219L-4.02295 399.964L295.189 399.968V399.968Z" fill="black"/>
<path d="M388.712 313.45C413.564 303.649 435.912 289.55 452.209 265.062C469.373 286.446 489.981 303.165 517.547 310.454C502.503 331.03 492.392 354.898 493.85 386.491C468.768 378.556 442.845 376.01 414.709 387.643C414.857 362.912 408.155 338.181 388.712 313.45Z" fill="#D40000" stroke="black"/>
<path d="M421.842 322.436C383.846 334.022 413.29 374.953 435.185 357.92C427.997 389.005 474.232 397.198 474.526 357.689C506.908 372.695 514.235 324.716 484.188 321.745C504.488 288.969 461.308 272.97 453.36 301.007C431.313 266.745 399.699 305.361 421.842 322.436Z" fill="#D40000" stroke="black"/>
<path d="M426.673 323.127L447.838 329.809" stroke="black"/>
<path d="M453.36 305.155L453.82 327.275" stroke="black"/>
<path d="M479.127 322.666L458.881 330.039" stroke="black"/>
<path d="M436.795 354.464L448.759 337.183" stroke="black"/>
<path d="M469.464 353.082L458.191 338.565" stroke="black"/>
<path d="M464.173 332.344C464.173 335.216 463.021 337.971 460.972 340.002C458.923 342.033 456.143 343.174 453.245 343.174C450.347 343.174 447.567 342.033 445.518 340.002C443.468 337.971 442.317 335.216 442.317 332.344C442.317 329.472 443.468 326.717 445.518 324.687C447.567 322.656 450.347 321.515 453.245 321.515C456.143 321.515 458.923 322.656 460.972 324.687C463.021 326.717 464.173 329.472 464.173 332.344Z" fill="black"/>
<path d="M462.447 332.228C462.447 334.581 461.478 336.837 459.752 338.501C458.026 340.165 455.686 341.099 453.245 341.099C450.804 341.099 448.464 340.165 446.738 338.501C445.012 336.837 444.042 334.581 444.042 332.228C444.042 329.876 445.012 327.619 446.738 325.956C448.464 324.292 450.804 323.357 453.245 323.357C455.686 323.357 458.026 324.292 459.752 325.956C461.478 327.619 462.447 329.876 462.447 332.228Z" fill="#D40000"/>
<path d="M460.262 298.934C461.285 297.75 467.017 292.791 470.269 300.892C469.648 307.317 475.565 306.773 476.251 306.192C481.381 305.228 484.164 310.417 479.242 315.639" stroke="black"/>
<path d="M425.376 316.175C424.41 314.945 420.638 308.366 429.197 306.707C435.377 308.538 435.968 302.616 435.528 301.832C435.558 296.604 441.173 294.854 445.357 300.685" stroke="black"/>
<path d="M488.946 329.712C490.362 330.374 496.69 334.542 489.798 339.889C483.458 341.045 485.596 346.597 486.342 347.099C488.669 351.779 484.444 355.877 478.085 352.561" stroke="black"/>
<path d="M466.888 360.621C466.798 362.184 465.274 369.614 457.764 365.181C454.345 359.709 449.986 363.754 449.797 364.633C446.317 368.531 440.953 366.117 441.674 358.973" stroke="black"/>
<path d="M430.094 353.561C428.595 354.004 421.096 355.076 422.727 346.499C426.715 341.428 421.442 338.685 420.551 338.804C415.714 336.84 416.171 330.967 423.129 329.235" stroke="black"/>
<path d="M232.308 183.763C257.159 173.963 279.507 159.863 295.805 135.376C312.969 156.76 333.576 173.478 361.142 180.768C346.099 201.343 335.988 225.211 337.446 256.805C312.363 248.869 286.44 246.323 258.305 257.957C258.452 233.225 251.75 208.494 232.308 183.763V183.763Z" fill="#D40000" stroke="black"/>
<path d="M265.436 192.749C227.441 204.335 256.885 245.266 278.78 228.233C271.592 259.318 317.827 267.512 318.12 228.003C350.502 243.008 357.83 195.03 327.783 192.058C348.082 159.283 304.903 143.283 296.955 171.321C274.908 137.058 243.294 175.675 265.436 192.749Z" fill="#D40000" stroke="black"/>
<path d="M270.268 193.44L291.433 200.122" stroke="black"/>
<path d="M296.955 175.468L297.415 197.588" stroke="black"/>
<path d="M322.721 192.979L302.476 200.353" stroke="black"/>
<path d="M280.39 224.776L292.353 207.495" stroke="black"/>
<path d="M313.059 223.394L301.786 208.878" stroke="black"/>
<path d="M307.767 202.657C307.767 205.529 306.616 208.283 304.567 210.314C302.517 212.345 299.738 213.486 296.84 213.486C293.941 213.486 291.162 212.345 289.112 210.314C287.063 208.283 285.912 205.529 285.912 202.657C285.912 199.784 287.063 197.03 289.112 194.999C291.162 192.968 293.941 191.827 296.84 191.827C299.738 191.827 302.517 192.968 304.567 194.999C306.616 197.03 307.767 199.784 307.767 202.657Z" fill="black"/>
<path d="M306.042 202.542C306.042 204.895 305.073 207.151 303.347 208.815C301.621 210.478 299.28 211.413 296.84 211.413C294.399 211.413 292.058 210.478 290.333 208.815C288.607 207.151 287.637 204.895 287.637 202.542C287.637 200.189 288.607 197.933 290.333 196.269C292.058 194.606 294.399 193.671 296.84 193.671C299.28 193.671 301.621 194.606 303.347 196.269C305.073 197.933 306.042 200.189 306.042 202.542Z" fill="#D40000"/>
<path d="M303.856 169.247C304.879 168.063 310.611 163.105 313.864 171.206C313.243 177.63 319.16 177.087 319.846 176.505C324.976 175.541 327.758 180.731 322.837 185.952" stroke="black"/>
<path d="M268.971 186.489C268.005 185.258 264.233 178.68 272.792 177.02C278.972 178.851 279.563 172.93 279.123 172.145C279.153 166.917 284.768 165.167 288.952 170.998" stroke="black"/>
<path d="M332.54 200.024C333.957 200.687 340.285 204.855 333.393 210.201C327.052 211.358 329.191 216.91 329.937 217.412C332.264 222.091 328.039 226.189 321.68 222.874" stroke="black"/>
<path d="M310.483 230.934C310.393 232.497 308.869 239.928 301.359 235.494C297.94 230.023 293.581 234.067 293.392 234.947C289.912 238.844 284.548 236.43 285.27 229.286" stroke="black"/>
<path d="M273.688 223.874C272.189 224.317 264.691 225.389 266.322 216.812C270.31 211.741 265.037 208.998 264.146 209.116C259.308 207.152 259.766 201.28 266.724 199.548" stroke="black"/>
<path d="M84.8013 58.6342C109.653 48.8339 132.001 34.7342 148.298 10.2471C165.462 31.631 186.07 48.3492 213.636 55.6388C198.592 76.2141 188.481 100.083 189.939 131.676C164.857 123.74 138.934 121.194 110.798 132.828C110.946 108.097 104.244 83.3654 84.8013 58.6342V58.6342Z" fill="#D40000" stroke="black"/>
<path d="M117.93 67.6204C79.9347 79.2065 109.379 120.137 131.274 103.104C124.086 134.189 170.321 142.383 170.615 102.874C202.997 117.879 210.324 69.901 180.277 66.9291C200.576 34.154 157.397 18.1546 149.449 46.1918C127.402 11.9295 95.7877 50.5457 117.93 67.6204Z" fill="#D40000" stroke="black"/>
<path d="M122.762 68.3115L143.927 74.9936" stroke="black"/>
<path d="M149.449 50.3389L149.909 72.4587" stroke="black"/>
<path d="M175.216 67.8506L154.97 75.2239" stroke="black"/>
<path d="M132.884 99.6483L144.847 82.3672" stroke="black"/>
<path d="M165.553 98.2652L154.28 83.749" stroke="black"/>
<path d="M160.262 77.5287C160.262 80.4009 159.11 83.1554 157.061 85.1863C155.012 87.2173 152.232 88.3582 149.334 88.3582C146.435 88.3582 143.656 87.2173 141.606 85.1863C139.557 83.1554 138.406 80.4009 138.406 77.5287C138.406 74.6566 139.557 71.902 141.606 69.8711C143.656 67.8402 146.435 66.6992 149.334 66.6992C152.232 66.6992 155.012 67.8402 157.061 69.8711C159.11 71.902 160.262 74.6566 160.262 77.5287Z" fill="black"/>
<path d="M158.536 77.413C158.536 79.7657 157.567 82.0221 155.841 83.6857C154.115 85.3493 151.774 86.2839 149.334 86.2839C146.893 86.2839 144.552 85.3493 142.827 83.6857C141.101 82.0221 140.131 79.7657 140.131 77.413C140.131 75.0602 141.101 72.8039 142.827 71.1402C144.552 69.4766 146.893 68.542 149.334 68.542C151.774 68.542 154.115 69.4766 155.841 71.1402C157.567 72.8039 158.536 75.0602 158.536 77.413Z" fill="#D40000"/>
<path d="M156.351 44.1181C157.373 42.9344 163.106 37.976 166.358 46.0767C165.737 52.5014 171.654 51.9579 172.34 51.3762C177.47 50.4124 180.252 55.6018 175.331 60.8232" stroke="black"/>
<path d="M121.465 61.3599C120.499 60.1293 116.727 53.5511 125.286 51.8913C131.466 53.7222 132.057 47.8009 131.617 47.0161C131.647 41.7882 137.262 40.0382 141.446 45.8695" stroke="black"/>
<path d="M185.035 74.8955C186.451 75.5576 192.779 79.7259 185.887 85.0724C179.546 86.2289 181.685 91.781 182.431 92.2829C184.758 96.9625 180.533 101.06 174.174 97.7448" stroke="black"/>
<path d="M162.977 105.805C162.887 107.368 161.363 114.799 153.853 110.365C150.433 104.894 146.075 108.938 145.885 109.818C142.406 113.715 137.042 111.301 137.763 104.157" stroke="black"/>
<path d="M126.183 98.7459C124.683 99.1888 117.185 100.261 118.816 91.6841C122.804 86.613 117.531 83.8697 116.64 83.9883C111.803 82.0242 112.26 76.1519 119.218 74.4199" stroke="black"/>
</g>
<defs>
<clipPath id="clip0_1_5569">
<rect width="600" height="400" fill="white"/>
</clipPath>
</defs>
</svg>
