<svg width="600" height="400" viewBox="0 0 600 400" fill="none" xmlns="http://www.w3.org/2000/svg" xmlns:cgf="https://coding.garden/flags"><metadata id="cgf-metadata">

<cgf:flag>
  <cgf:name>'s-Hertogenbosch</cgf:name>
  <cgf:route>nl/nb/s_hertogenbosch</cgf:route>
  <cgf:aspect-ratio>1.5</cgf:aspect-ratio>
</cgf:flag>

</metadata><g clip-path="url(#clip0_1_5615)">
<path d="M0.843867 0L0 400H600V0H0.843867Z" fill="white"/>
<path d="M600 320H0V400H600V320Z" fill="#D40000"/>
<path d="M600 0H0V80H600V0Z" fill="#D40000"/>
<path d="M600 160H0V240H600V160Z" fill="#D40000"/>
<path d="M200 0H0V200H200V0Z" fill="black"/>
<path d="M93.9441 48.6255V66.3359L90.402 68.9924C82.909 66.4485 81.401 63.1564 80.071 59.842H78.8903C78.9731 63.6162 79.183 67.5404 75.0531 66.3359C66.5588 63.2266 60.1306 57.638 55.5717 49.8062L52.9152 50.6917C53.862 54.1152 60.1188 60.9016 50.2586 57.4807L42.8793 56.0048L36.9758 52.1676L35.2048 53.6434L42.289 57.7758L31.0724 63.9745L32.5482 66.0407L43.1744 60.4324L54.6862 61.9083L50.2586 68.1069L52.3248 69.5827L55.5717 63.9745C61.4101 65.6759 65.8342 65.559 74.1676 70.4683L73.282 74.3055H75.0531L76.529 71.9441C83.4244 74.1557 88 79.0186 92.1731 84.3414L93.3538 111.792C91.6119 116.438 88.6907 117.25 85.3841 116.81L81.5469 109.726H79.4807L80.6614 116.22C73.282 111.77 65.9028 107.165 58.5234 105.003L56.7524 99.3952L54.9814 99.1L57.0476 105.594C50.3546 103.538 43.2752 103.222 35.7952 104.708L31.9579 101.757L29.8917 103.232L35.5 107.07L31.3676 113.268L33.1386 113.859L37.5662 108.546C47.7948 106.694 56.8236 110.459 63.9841 112.826C58.9054 113.494 57.6708 115.444 54.6862 116.81L56.4572 118.581C59.1428 117.013 60.9368 115.062 66.1979 114.597L81.2517 122.419C77.924 123.401 76.8335 125.981 76.2338 128.912L79.4807 130.683C79.8413 128.49 79.8348 126.214 83.6131 124.78C86.9363 125.919 90.59 126.794 90.1069 130.979L88.631 149.87L82.4324 154.297C63.8366 154.713 49.5834 164.779 34.3193 172.598C23.7575 167.659 19.3936 173.208 13.6572 176.435L16.3138 179.682C22.7616 174.443 27.2804 173.706 30.1868 176.73C27.1132 181.553 21.8667 182.899 16.9041 184.7L19.8558 187.357C24.2598 185.781 29.244 184.595 32.5808 181.168C38.9288 174.646 45.074 172.074 51.4393 169.351C48.3144 174.382 43.569 179.887 38.4517 185.29H46.1262C52.6778 175.801 57.3801 169.405 61.9352 164.506C66.7786 159.298 75.2515 161.99 83.3179 159.02C80.8978 162.756 77.8012 166.284 70.3303 168.466C63.3086 168.347 61.7947 172.465 59.7041 176.14L53.5055 185.586L57.0476 184.995C59.1846 183.038 61.5653 180.099 64.4601 176.19C67.5511 172.016 72.7058 170.457 78.3 170.827C76.0758 173.129 74.5386 176.117 75.0531 181.158C73.6976 185.378 70.6781 185.937 67.3786 185.881L67.969 188.832C79.0093 190.386 78.5131 182.807 80.6614 177.321L89.5165 187.652L91.2876 185.881C91.0098 181.624 86.9734 177.911 84.1645 174.587C79.6639 169.261 89.525 162.458 97.191 157.544L101.028 179.977L96.8958 48.0352L93.9441 48.6255Z" fill="#FFCE00"/>
<path d="M99.044 50.9959L100.192 68.6691L103.898 71.0905C111.211 68.0663 112.502 64.6834 113.615 61.2899L114.793 61.2134C114.955 64.985 115 68.9146 119.043 67.4449C127.318 63.7917 133.371 57.7983 137.412 49.6875L140.121 50.399C139.398 53.8767 133.594 61.0543 143.212 57.0016L150.48 55.0506L156.122 50.8388L157.985 52.1968L151.184 56.7796L162.778 62.2383L161.439 64.3959L150.472 59.488L139.08 61.7068L143.9 67.6054L141.934 69.2121L138.33 63.826C132.615 65.9022 128.192 66.0722 120.194 71.5112L121.327 75.283L119.559 75.3978L117.934 73.137C111.196 75.7908 106.945 80.94 103.126 86.522L103.727 113.992C105.766 118.514 108.734 119.136 112.005 118.483L115.375 111.165L117.437 111.031L116.679 117.588C123.755 112.669 130.82 107.595 138.044 104.96L139.448 99.2488L141.196 98.8395L139.555 105.454C146.1 102.969 153.144 102.194 160.705 103.193L164.343 99.9985L166.501 101.337L161.153 105.53L165.678 111.448L163.949 112.152L159.186 107.137C148.859 105.952 140.094 110.294 133.101 113.12C138.213 113.458 139.571 115.323 142.638 116.494L140.986 118.376C138.204 116.984 136.287 115.153 131.007 115.03L116.492 123.812C119.876 124.576 121.132 127.081 121.92 129.967L118.795 131.944C118.293 129.778 118.152 127.507 114.288 126.321C111.046 127.673 107.457 128.783 108.21 132.927L110.907 151.683L117.379 155.7C135.963 154.909 150.839 164.03 166.577 170.844C176.797 165.231 181.511 170.486 187.445 173.334L185.004 176.746C178.23 171.937 173.673 171.493 170.969 174.7C174.349 179.314 179.671 180.317 184.74 181.792L181.967 184.634C177.47 183.347 172.419 182.487 168.868 179.283C162.11 173.187 155.811 171.018 149.283 168.713C148.358 171.659 148.023 178.902 154.51 184.404L149.982 184.379C142.83 175.335 143.358 169.152 138.495 164.559C133.324 159.675 125.044 162.911 116.802 160.47C119.459 164.041 122.778 167.361 130.374 169.054C137.417 168.49 139.191 171.318 139.284 174.354L138.255 173.777L138.126 174.252C135.866 172.437 142.764 175.534 138.089 174.19C134.034 173.025 127.738 172.773 122.574 171.927C124.943 174.08 126.671 176.962 126.484 182.026C128.11 186.149 131.159 186.512 134.448 186.241L134.05 189.225C123.134 191.491 123.138 183.895 120.639 178.56L112.472 189.443L110.589 187.791C110.591 183.525 114.378 179.558 116.966 176.059C121.112 170.453 110.83 164.303 102.862 159.896L100.487 182.531L96.0601 50.5982L99.0438 50.996V50.9961L99.044 50.9959Z" fill="#FFCE00"/>
<path d="M97.2073 157.523C97.3649 163.601 93.6684 169.999 99.8162 175.578C101.844 180.056 99.1603 184.812 96.5811 189.562C99.4865 187.126 102.821 188.549 104.199 180.378C106.356 179.388 108.513 180.786 110.67 183.405C113.831 180.605 109.17 177.912 104.214 174.579C101.96 173.063 102.215 169.378 102.217 165.977L97.2073 157.523Z" fill="#FFCE00"/>
<path d="M157.631 171.299L164.728 182.257L168.798 187.683L171.72 187.788L169.528 184.031L166.293 180.378L163.371 174.221L157.631 171.299V171.299Z" fill="#FFCE00"/>
<path d="M123.088 172.134L128.724 177.039C132.133 179.613 134.29 182.187 135.194 184.761C137.493 187.763 138.673 186.664 140.203 186.849C138.294 181.07 133.488 176.183 127.993 171.508L123.088 172.134Z" fill="#FFCE00"/>
<path d="M78.9443 32.3961L92.511 44.1887L93.8677 48.8849L101.799 74.4529L102.53 69.9655L102.112 51.7026L117.453 30.2046L117.14 28.3261L102.738 43.3539L98.6682 42.4146L98.3552 27.9087L96.4767 26.7607L95.3287 28.9523L94.9113 40.2231L79.6749 31.1438L78.9443 32.3961Z" fill="#FFCE00"/>
<path d="M97.1463 28.8636C85.1144 30.4833 84.7864 22.2391 91.3379 13.9683C94.6963 9.72856 98.933 6.3969 102.469 6.63506C107.224 12.7885 117.228 35.7901 98.503 29.9072L97.1463 28.8636Z" fill="#FFCE00"/>
<path d="M97.0417 26.8808C97.0417 26.8808 96.5351 25.5346 96.1025 25.1067C92.3532 21.3983 101.197 7.083 101.947 8.09612C98.8624 14.1966 95.289 20.2428 97.0417 26.8808V26.8808Z" fill="black" fill-opacity="0.381395"/>
<path d="M78.637 32.3295C73.6614 43.4034 66.4862 39.3301 62.92 29.3998C61.092 24.3094 60.4988 18.9524 62.5674 16.0752C70.3039 15.2845 95.1206 18.9299 80.2395 31.7281L78.637 32.3295Z" fill="#FFCE00"/>
<path d="M76.8978 31.3708C76.8978 31.3708 75.4871 31.0904 74.8953 31.2321C69.7665 32.4588 62.2767 17.3908 63.5328 17.2891C67.086 23.1289 70.3349 29.3554 76.8978 31.3709V31.3708Z" fill="black" fill-opacity="0.381395"/>
<path d="M54.5315 50.3854C44.711 57.5232 40.5083 50.423 42.3478 40.0334C43.2908 34.7075 45.4378 29.7639 48.6626 28.2949C55.7694 31.453 75.4943 46.9476 56.221 50.6598L54.5315 50.3854Z" fill="#FFCE00"/>
<path d="M53.4984 48.6893C53.4984 48.6893 52.4134 47.745 51.8294 47.5738C46.7691 46.09 47.7566 29.2921 48.8971 29.828C49.0789 36.6614 48.8043 43.6792 53.4984 48.6893Z" fill="black" fill-opacity="0.381395"/>
<path d="M80.0489 61.2118C68.8024 65.7839 66.4266 57.8827 70.7059 48.2382C72.8996 43.2943 76.1704 39.0104 79.6535 38.3584C85.7945 43.1298 101.224 62.9057 81.6232 61.8837L80.0489 61.2118Z" fill="#FFCE00"/>
<path d="M79.4528 59.3178C79.4528 59.3178 78.6262 58.1407 78.1004 57.8344C73.5441 55.1794 78.5343 39.1095 79.5129 39.9034C78.0493 46.5808 76.0985 53.3276 79.4528 59.3178H79.4528Z" fill="black" fill-opacity="0.381395"/>
<path d="M36.4898 52.7142C31.8954 63.9516 24.5852 60.1258 20.6818 50.3232C18.6809 45.2982 17.905 39.9645 19.8742 37.0184C27.5792 35.9639 52.5059 38.7593 38.0708 52.0584L36.4898 52.7142Z" fill="#FFCE00"/>
<path d="M34.7189 51.8152C34.7189 51.8152 33.2994 51.5832 32.7128 51.7449C27.6289 53.1462 19.6287 38.3428 20.8806 38.1982C24.6313 43.9132 28.0909 50.0252 34.7189 51.8152V51.8152Z" fill="black" fill-opacity="0.381395"/>
<path d="M32.4764 64.8651C41.8231 72.6128 35.9844 78.4424 25.4628 79.2323C20.0692 79.6372 14.7479 78.7808 12.5264 76.02C13.8268 68.3527 23.956 45.4059 32.324 63.1603L32.4763 64.8651H32.4764Z" fill="#FFCE00"/>
<path d="M31.0893 66.2861C31.0893 66.2861 30.443 67.5711 30.4216 68.1792C30.2368 73.4494 13.7173 76.6512 13.9542 75.4135C20.5298 73.5457 27.3972 72.0743 31.0893 66.2861Z" fill="black" fill-opacity="0.381395"/>
<path d="M51.4794 69.0604C60.6894 71.9074 57.9422 77.2844 50.2542 80.4585C46.3133 82.0855 42.0713 82.8485 39.6232 81.5553C38.4407 76.0864 39.5912 58.1514 50.8845 67.9553L51.4794 69.0604Z" fill="#FFCE00"/>
<path d="M50.8366 70.3623C50.8366 70.3623 50.7127 71.3865 50.8679 71.7997C52.2138 75.3807 40.6961 81.6796 40.5254 80.79C44.9429 77.8848 49.6915 75.1721 50.8365 70.3623H50.8366Z" fill="black" fill-opacity="0.381395"/>
<path d="M74.1278 73.7078C83.3378 76.5548 80.5905 81.9319 72.9026 85.1059C68.9617 86.733 64.7197 87.496 62.2717 86.2028C61.0891 80.7339 62.2397 62.7989 73.5329 72.6028L74.1278 73.7078Z" fill="#FFCE00"/>
<path d="M73.485 75.0098C73.485 75.0098 73.3612 76.034 73.5164 76.4472C74.8622 80.0281 63.3444 86.3271 63.1738 85.4375C67.5914 82.5322 72.3398 79.8195 73.4849 75.0098H73.485Z" fill="black" fill-opacity="0.381395"/>
<path d="M56.3856 99.8976C48.862 105.925 45.952 100.634 47.6373 92.4891C48.5012 88.314 50.2493 84.3743 52.6932 83.0732C57.8838 85.1624 72.0855 96.1761 57.634 100.025L56.3856 99.8976Z" fill="#FFCE00"/>
<path d="M55.6684 98.636C55.6684 98.636 54.89 97.9589 54.4608 97.8557C50.7415 96.9609 51.9884 83.8926 52.8206 84.2504C52.7474 89.5371 52.3292 94.9899 55.6684 98.636V98.636Z" fill="black" fill-opacity="0.381395"/>
<path d="M80.8714 110.411C72.1002 114.41 70.5756 108.567 74.2057 101.084C76.0666 97.2478 78.7269 93.8568 81.4151 93.1943C85.9355 96.4919 97.0046 110.65 82.0506 110.84L80.8714 110.411Z" fill="#FFCE00"/>
<path d="M80.4855 109.011C80.4855 109.011 79.8968 108.164 79.5061 107.959C76.1194 106.18 80.5312 93.8157 81.2503 94.3665C79.8836 99.4741 78.1418 104.658 80.4855 109.011V109.011Z" fill="black" fill-opacity="0.381395"/>
<path d="M115.365 111.627C124.627 114.298 125.28 108.295 120.592 101.424C118.19 97.9021 115.061 94.9373 112.305 94.6758C108.317 98.5999 99.4408 114.227 114.261 112.224L115.365 111.627Z" fill="#FFCE00"/>
<path d="M115.541 110.186C115.541 110.186 116 109.262 116.356 109.002C119.446 106.746 113.27 95.1613 112.64 95.8115C114.74 100.664 117.222 105.537 115.541 110.186V110.186Z" fill="black" fill-opacity="0.381395"/>
<path d="M139.89 100.842C149.153 103.514 149.805 97.5109 145.118 90.64C142.715 87.1179 139.587 84.1531 136.831 83.8916C132.842 87.8157 123.966 103.443 138.787 101.44L139.89 100.842Z" fill="#FFCE00"/>
<path d="M140.067 99.4012C140.067 99.4012 140.525 98.4769 140.882 98.2165C143.971 95.9606 137.796 84.3761 137.165 85.0263C139.265 89.8787 141.748 94.7515 140.067 99.4012V99.4012Z" fill="black" fill-opacity="0.381395"/>
<path d="M120.176 74.7155C110.825 77.0584 113.277 82.5766 120.781 86.1633C124.628 88.0019 128.822 88.9941 131.337 87.8357C132.814 82.439 132.639 64.468 120.83 73.6444L120.176 74.7155Z" fill="#FFCE00"/>
<path d="M120.747 76.0498C120.747 76.0498 120.815 77.0792 120.638 77.4834C119.099 80.986 130.258 87.9009 130.477 87.0219C126.224 83.8811 121.629 80.9146 120.747 76.0498H120.747Z" fill="black" fill-opacity="0.381395"/>
<path d="M142.475 68.371C132.989 70.0834 135.066 75.7532 142.313 79.8336C146.029 81.9253 150.147 83.1957 152.734 82.208C154.569 76.9223 155.596 58.9797 143.2 67.346L142.476 68.371H142.475Z" fill="#FFCE00"/>
<path d="M142.956 69.7412C142.956 69.7412 142.955 70.7729 142.751 71.1643C140.982 74.5562 151.653 82.2018 151.93 81.3393C147.897 77.9212 143.511 74.6541 142.956 69.7412V69.7412Z" fill="black" fill-opacity="0.381395"/>
<path d="M113.969 61.5846C104.707 64.2559 104.055 58.2531 108.742 51.3822C111.145 47.8601 114.273 44.8953 117.029 44.6338C121.018 48.5579 129.893 64.1851 115.073 62.1823L113.969 61.5846Z" fill="#FFCE00"/>
<path d="M113.793 60.1434C113.793 60.1434 113.335 59.2191 112.978 58.9587C109.889 56.7028 116.064 45.1183 116.695 45.7685C114.595 50.6208 112.112 55.4937 113.793 60.1434V60.1434Z" fill="black" fill-opacity="0.381395"/>
<path d="M138.912 50.2203C129.649 52.8917 128.997 46.8888 133.684 40.0179C136.087 36.4958 139.215 33.531 141.972 33.2695C145.96 37.1937 154.836 52.8209 140.015 50.818L138.912 50.2203Z" fill="#FFCE00"/>
<path d="M138.735 48.7791C138.735 48.7791 138.276 47.8548 137.92 47.5945C134.831 45.3385 141.006 33.7541 141.637 34.4043C139.536 39.2566 137.054 44.1294 138.735 48.7791V48.7791Z" fill="black" fill-opacity="0.381395"/>
<path d="M155.873 51.5638C145.349 52.5741 146.282 45.1968 153.101 38.0455C156.596 34.3796 160.708 31.5569 163.696 31.8981C166.855 37.5682 172.021 58.4811 156.879 52.5455L155.873 51.5638Z" fill="#FFCE00"/>
<path d="M156.075 49.7886C156.075 49.7886 155.841 48.5675 155.534 48.1695C152.875 44.7203 162.543 32.2521 163.034 33.1844C159.499 38.5226 155.554 43.7946 156.075 49.7886V49.7886Z" fill="black" fill-opacity="0.381395"/>
<path d="M161.979 63.2101C164.037 52.8396 170.835 55.8545 175.724 64.4412C178.23 68.8429 179.752 73.5932 178.566 76.3565C172.227 77.7524 150.712 76.6877 160.75 63.8916L161.979 63.2101Z" fill="#FFCE00"/>
<path d="M163.622 63.9145C163.622 63.9145 164.859 64.0405 165.328 63.8611C169.396 62.3058 178.558 75.1505 177.524 75.3532C173.428 70.4328 169.512 65.1387 163.622 63.9145V63.9145Z" fill="black" fill-opacity="0.381395"/>
<path d="M165.022 101.386C156.183 95.5861 161.528 90.4172 171.322 89.1084C176.343 88.4376 181.317 88.8105 183.433 90.9466C182.348 97.3461 173.285 116.889 165.193 102.782L165.023 101.386H165.022Z" fill="#FFCE00"/>
<path d="M166.292 100.129C166.292 100.129 166.873 99.0292 166.883 98.5268C166.968 94.1723 182.313 90.501 182.113 91.5358C176.014 93.4861 169.638 95.128 166.292 100.129H166.292Z" fill="black" fill-opacity="0.381395"/>
<path d="M163.142 110.509C169.009 101.714 174.137 107.098 175.372 116.902C176.005 121.927 175.594 126.899 173.442 128.999C167.051 127.865 147.578 118.655 161.746 110.669L163.142 110.509V110.509Z" fill="#FFCE00"/>
<path d="M164.39 111.788C164.39 111.788 165.485 112.378 165.987 112.391C170.341 112.509 173.896 127.881 172.863 127.673C170.959 121.56 169.365 115.172 164.39 111.788H164.39Z" fill="black" fill-opacity="0.381395"/>
<path d="M138.887 114.857C144.875 106.144 149.928 111.6 151.027 121.42C151.589 126.453 151.11 131.418 148.929 133.488C142.554 132.265 123.211 122.786 137.488 114.998L138.887 114.857Z" fill="#FFCE00"/>
<path d="M140.117 116.153C140.117 116.153 141.203 116.758 141.705 116.779C146.057 116.957 149.398 132.377 148.368 132.155C146.549 126.016 145.044 119.606 140.117 116.153L140.117 116.153Z" fill="black" fill-opacity="0.381395"/>
<path d="M121.916 129.441C131.154 124.299 133.255 131.432 129.873 140.716C128.139 145.475 125.502 149.709 122.628 150.594C117.462 146.665 104.349 129.574 120.601 128.945L121.916 129.441Z" fill="#FFCE00"/>
<path d="M122.441 131.149C122.441 131.149 123.146 132.174 123.587 132.416C127.405 134.51 123.542 149.808 122.719 149.151C123.818 142.843 125.32 136.432 122.441 131.149V131.149Z" fill="black" fill-opacity="0.381395"/>
<path d="M77.9078 127.196C70.887 119.291 66.548 125.33 66.6736 135.21C66.7376 140.275 67.8284 145.142 70.2488 146.926C76.4232 144.924 94.4447 133.123 79.313 127.162L77.9078 127.196V127.196Z" fill="#FFCE00"/>
<path d="M76.8476 128.634C76.8476 128.634 75.8442 129.368 75.3486 129.451C71.0525 130.167 69.6455 145.882 70.6402 145.533C71.6856 139.217 72.3852 132.669 76.8476 128.634V128.634Z" fill="black" fill-opacity="0.381395"/>
<path d="M56.0611 117.175C49.0403 109.27 44.7013 115.309 44.8269 125.189C44.8909 130.254 45.9817 135.122 48.4021 136.906C54.5765 134.903 72.598 123.103 57.4663 117.141L56.0611 117.175Z" fill="#FFCE00"/>
<path d="M55.001 118.614C55.001 118.614 53.9976 119.349 53.5018 119.431C49.2058 120.147 47.7988 135.862 48.7936 135.514C49.8388 129.197 50.5385 122.65 55.0009 118.614L55.001 118.614Z" fill="black" fill-opacity="0.381395"/>
<path d="M32.7427 112.896C25.7219 104.991 21.383 111.03 21.5085 120.91C21.5725 125.975 22.6633 130.842 25.0838 132.626C31.2582 130.624 49.2796 118.823 34.148 112.862L32.7427 112.896V112.896Z" fill="#FFCE00"/>
<path d="M31.6826 114.334C31.6826 114.334 30.6792 115.068 30.1835 115.151C25.8875 115.867 24.4804 131.582 25.4752 131.233C26.5205 124.917 27.2202 118.37 31.6826 114.334V114.334Z" fill="black" fill-opacity="0.381395"/>
<path d="M31.7906 102.602C40.9167 97.2637 35.8434 91.827 26.1296 90.0169C21.1502 89.0889 16.1636 89.206 13.9404 91.2306C14.6957 97.6774 22.7423 117.66 31.549 103.987L31.7906 102.602Z" fill="#FFCE00"/>
<path d="M30.5874 101.28C30.5874 101.28 30.0635 100.153 30.0794 99.6502C30.2178 95.2971 15.0822 90.8425 15.2291 91.8862C21.2191 94.1472 27.503 96.1144 30.5874 101.28V101.28Z" fill="black" fill-opacity="0.381395"/>
<path d="M115.944 28.9439C107.383 22.7392 112.963 17.8244 122.807 16.9724C127.854 16.5355 132.805 17.1394 134.82 19.3716C133.438 25.7137 123.477 44.8137 116.049 30.3457L115.944 28.9439H115.944Z" fill="#FFCE00"/>
<path d="M117.27 27.747C117.27 27.747 117.902 26.6759 117.935 26.1744C118.223 21.8287 133.721 18.8747 133.473 19.899C127.291 21.5637 120.845 22.9074 117.27 27.747V27.747Z" fill="black" fill-opacity="0.381395"/>
</g>
<defs>
<clipPath id="clip0_1_5615">
<rect width="600" height="400" fill="white"/>
</clipPath>
</defs>
</svg>
