<svg width="600" height="400" viewBox="0 0 600 400" fill="none" xmlns="http://www.w3.org/2000/svg" xmlns:cgf="https://coding.garden/flags"><metadata id="cgf-metadata">

<cgf:flag>
  <cgf:name>Someren</cgf:name>
  <cgf:route>nl/nb/someren</cgf:route>
  <cgf:aspect-ratio>1.5</cgf:aspect-ratio>
</cgf:flag>

</metadata><g clip-path="url(#clip0_1_5688)">
<path d="M0.019043 133.53L0.679097 267.034H599.314L598.654 133.53H0.019043V133.53Z" fill="black" stroke="black" stroke-width="0.0126256"/>
<path d="M15.1997 147.923L15.8597 159.802H27.7399C32.3034 179.708 43.5572 185.018 54.8006 190.35C50.9653 193.945 46.7163 197.186 42.2604 200.249C45.1504 201.516 47.9459 202.628 54.4706 209.866C37.9443 215.387 29.3698 225.543 28.4 240.131H15.5296L15.8597 251.727H46.2204C46.0201 237.549 50.2603 224.835 63.7108 218.634C66.2751 221.846 68.9953 224.657 70.9711 229.382C73.0224 225.586 75.2786 221.922 78.5612 218.917C88.2991 224.086 97.3123 230.324 96.0517 251.727L126.082 251.162L125.422 239.565H114.532C112.572 224.891 101.133 216.311 86.8114 209.583L82.6389 199.507L71.9048 211.007L61.4039 199.307L72.0214 188.807L82.5221 200.307L86.7226 209.607C90.35 205.658 94.2571 202.189 98.5068 199.307C92.8643 196.365 90.2537 193.099 86.9558 189.907C100.386 184.236 111.913 176.662 114.258 159.906H125.925L125.459 147.706H95.5899C97.4038 159.91 95.2638 171.549 78.5552 181.106L70.6213 169.906L63.3874 180.906C50.226 174.301 45.2083 162.841 46.3528 147.706L15.1997 147.923V147.923Z" fill="#DA121A" stroke="black" stroke-width="0.0126256"/>
<path d="M0.019043 0.0273438L0.679097 133.531H599.314L598.654 0.0273438H0.019043V0.0273438Z" fill="white" stroke="black" stroke-width="0.0126256"/>
<path d="M14.5396 14.9853L15.1996 26.8648H27.0799C31.6432 46.7706 42.8971 52.0801 54.1406 57.4122C50.3051 61.0076 46.0562 64.2484 41.6002 67.3118C44.4902 68.5788 47.2857 69.6906 53.8105 76.9286C37.2842 82.4497 28.7097 92.6053 27.7399 107.193H14.8696L15.1996 118.79H45.5604C45.36 104.612 49.6003 91.8975 63.0507 85.6968C65.6149 88.9087 68.3352 91.7199 70.3109 96.4449C72.3623 92.6488 74.6185 88.9843 77.9012 85.9796C87.639 91.1481 96.6522 97.3863 95.3915 118.79L125.422 118.224L124.762 106.627H113.872C111.912 91.9537 100.473 83.3733 86.1514 76.6457L81.9787 66.5691L71.2446 78.0693L60.7438 66.3691L71.3614 55.869L81.8621 67.3691L86.0624 76.6693C89.6899 72.7206 93.5971 69.2513 97.8466 66.3691C92.2042 63.4278 89.5935 60.1616 86.2958 56.969C99.7259 51.2981 111.253 43.7246 113.598 26.9687H125.265L124.799 14.7686H94.9297C96.7436 26.9722 94.6037 38.6111 77.8952 48.1689L69.9612 36.9688L62.7273 47.9689C49.5659 41.3639 44.5482 29.9032 45.6927 14.7686L14.5396 14.9853V14.9853Z" fill="#DA121A" stroke="black" stroke-width="0.0126256"/>
<path d="M0.679199 266.469L1.33927 399.972H599.974L599.314 266.469H0.679199V266.469Z" fill="#FCDD09" stroke="black" stroke-width="0.0126256"/>
<path d="M14.5396 280.86L15.1996 292.74H27.0799C31.6432 312.646 42.8971 317.955 54.1406 323.287C50.3051 326.883 46.0562 330.123 41.6002 333.187C44.4902 334.454 47.2857 335.566 53.8105 342.804C37.2842 348.325 28.7097 358.48 27.7399 373.068H14.8696L15.1996 384.665H45.5604C45.36 370.487 49.6003 357.773 63.0507 351.572C65.6149 354.784 68.3352 357.595 70.3109 362.32C72.3623 358.524 74.6185 354.859 77.9012 351.855C87.639 357.023 96.6522 363.261 95.3915 384.665L125.422 384.099L124.762 372.502H113.872C111.912 357.829 100.473 349.248 86.1514 342.521L81.9787 332.444L71.2446 343.944L60.7438 332.244L71.3614 321.744L81.8621 333.244L86.0624 342.544C89.6899 338.596 93.5971 335.126 97.8466 332.244C92.2042 329.303 89.5935 326.037 86.2958 322.844C99.7259 317.173 111.253 309.6 113.598 292.844H125.265L124.799 280.644H94.9297C96.7436 292.847 94.6037 304.486 77.8952 314.044L69.9612 302.844L62.7273 313.844C49.5659 307.239 44.5482 295.778 45.6927 280.644L14.5396 280.86V280.86Z" fill="#DA121A" stroke="black" stroke-width="0.0126256"/>
<path d="M465.014 351.912C463.081 351.063 461.324 349.629 457.923 346.127C456.22 344.374 454.136 342.287 453.29 341.489C451.451 339.752 450.42 337.624 450.183 335.076C450.091 334.078 449.76 332.323 449.448 331.177C448.725 328.517 449.026 326.698 450.551 324.521C454.06 319.512 460.192 320.715 463.039 326.971C463.709 328.441 463.877 328.594 465.6 329.29C471.006 331.475 474.045 330.986 475.684 327.666C476.709 325.59 477.012 323.307 477.227 316.035L477.425 309.367L478.592 307.415C481.798 302.052 480.906 299.039 476.135 299.117C473.539 299.159 472.631 299.432 467.12 301.822C461.574 304.227 459.658 304.784 456.857 304.806C455.095 304.82 454.41 304.689 453.529 304.174C452.224 303.41 451.142 302.206 450.485 300.786L450.013 299.766L449.506 300.675C448.412 302.636 446.793 303.524 441.9 304.846C438.325 305.812 436.86 306.743 436.145 308.505C435.307 310.571 436.048 313.019 437.897 314.295C438.988 315.048 438.586 315.354 436.466 315.385C432.006 315.452 429.014 309.582 431.267 305.187L431.993 303.771L430.001 303.764C427.763 303.757 426.335 303.197 424.794 301.722C422.319 299.352 421.635 294.628 423.352 291.769L423.806 291.015L424.434 292.151C426.057 295.083 427.779 296.33 430.229 296.347C433.996 296.373 436.74 292.984 436.076 289.125C435.966 288.485 435.28 287.224 434.379 286.006C432.673 283.699 430.913 280.168 430.343 277.911C429.765 275.623 429.861 271.645 430.553 269.139C431.05 267.344 431.165 265.919 431.31 259.763C431.404 255.77 431.56 251.721 431.656 250.764C431.831 249.032 431.829 249.025 431.088 249.025C430.679 249.025 429.383 248.809 428.209 248.545L426.075 248.064L423.176 249.679C414.065 254.756 408.665 260.57 407.176 266.905C406.628 269.238 406.571 273.367 407.055 275.642C407.249 276.557 407.761 277.918 408.192 278.667C409.949 281.719 410.765 284.106 410.896 286.577C411.082 290.083 410.485 291.215 406.023 295.805C401.747 300.205 400.664 302.055 400.651 304.978C400.635 308.634 402.715 310.405 405.821 309.378C407.711 308.753 407.709 308.751 407.053 310.153C405.525 313.419 402.898 315.327 399.668 315.515C397.045 315.668 395.2 315.002 393.591 313.321L392.375 312.051L392.062 313.128C391.53 314.965 390.446 316.747 388.359 319.219C385.773 322.281 384.611 324.631 384.362 327.304L384.173 329.329L383.436 327.968C382.542 326.317 381.826 323.409 381.826 321.428V319.967L380.786 321.896C378.787 325.602 375.171 328.758 371.437 330.055C370.514 330.375 368.824 330.934 367.679 331.296C365.934 331.85 365.392 332.189 364.316 333.4C363.496 334.324 362.862 335.405 362.56 336.397C362.3 337.251 361.995 337.949 361.883 337.949C361.297 337.949 360.341 335.247 360.201 333.191L360.051 331.004L358.803 332.097C356.732 333.912 354.369 334.975 352.428 334.965C351.507 334.959 350.645 334.884 350.513 334.795C350.381 334.706 350.218 335.754 350.149 337.123C349.997 340.18 349.286 342.066 347.831 343.275C346.859 344.083 346.596 344.15 344.4 344.148C342.42 344.148 341.766 344.015 340.496 343.363C337.726 341.939 335.397 339.173 334.839 336.642L334.651 335.789L333.641 336.756C331.102 339.187 328.282 339.066 326.255 336.439C322.66 331.78 321.94 321.276 325.063 319.045C325.669 318.612 325.702 318.436 325.578 316.325C325.494 314.889 325.571 313.736 325.791 313.157C326.606 311.012 329.561 309.22 332.294 309.212C333.343 309.212 333.455 309.126 333.877 308.029C334.751 305.76 338.284 303.766 341.408 303.778C344.612 303.79 346.56 305.435 346.817 308.347C346.928 309.607 347.032 309.819 347.535 309.809C347.859 309.803 351.12 309.549 354.781 309.246C361.056 308.725 361.591 308.633 364.108 307.634C367.213 306.402 369.036 305.13 370.223 303.367C372.194 300.437 372.585 298.459 372.948 289.555C373.238 282.458 373.711 279.605 375.113 276.494C375.539 275.549 375.757 274.863 375.598 274.97C375.438 275.077 374.535 275.753 373.59 276.473C369.579 279.529 366.142 280.429 363.927 279.004L362.891 278.338L360.949 280.635C358.716 283.278 356.407 285.094 354.143 285.988C352.022 286.827 347.97 286.888 345.628 286.116C343.514 285.421 341.328 284.405 341.328 284.119C341.328 283.997 342.795 283.901 344.587 283.905C347.205 283.911 348.153 283.788 349.402 283.286C353.652 281.578 356.555 278.162 358.807 272.219C360.93 266.616 363.693 263.699 367.459 263.086L368.765 262.874L367.446 261.47C366.721 260.697 365.825 259.385 365.455 258.553C364.66 256.765 364.413 253.742 364.901 251.765L365.23 250.435L365.727 251.621C367.586 256.048 371.126 257.876 374.949 256.382C377.045 255.563 379.171 253.587 381.76 250.055C389.064 240.085 395.785 236.055 407.135 234.836C408.873 234.65 411.645 233.987 414.902 232.979C417.687 232.117 420.015 231.362 420.076 231.302C420.287 231.091 417.734 228.81 414.642 226.446C412.935 225.14 411.532 224.004 411.526 223.921C411.504 223.65 414.266 222.106 414.765 222.111C416.059 222.123 422.513 226.02 425.43 228.551C426.548 229.522 427.567 229.514 427.066 228.538C425.942 226.352 423.972 224.341 419.509 220.827C409.614 213.035 403.258 206.92 397.73 199.877L396.307 198.064L396.04 199.272C395.894 199.937 395.62 201.365 395.432 202.446C395.004 204.912 393.581 208.259 392.259 209.912C391.075 211.39 388.57 212.844 386.325 213.354C385.271 213.594 383.008 213.666 379.588 213.569L374.438 213.424L374.942 214.502C375.666 216.05 375.572 217.472 374.627 219.268C372.921 222.511 370.195 224.546 353.446 235.075C352.739 235.519 352.685 235.667 352.883 236.625C353.003 237.207 353.102 239.112 353.104 240.859C353.11 244.548 352.668 245.813 350.757 247.596C347.804 250.353 342.715 249.79 339.461 246.347L338.307 245.126L336.558 246.078C335.103 246.872 334.408 247.052 332.41 247.157C330.301 247.267 329.828 247.191 328.514 246.535C326.498 245.529 325.144 244.172 324.288 242.298C323.437 240.436 323.374 238.698 324.101 237.142C324.473 236.347 324.524 236.02 324.279 236.02C324.088 236.02 323.357 235.468 322.654 234.794C320.837 233.049 319.646 230.29 319.478 227.432C319.189 222.52 321.299 220.01 325.731 219.996L327.748 219.989L327.187 218.791C326.464 217.244 326.451 214.897 327.158 213.385C327.891 211.819 329.958 209.817 331.244 209.428C334.232 208.523 336.811 209.515 339.188 212.483C340.948 214.68 341.714 215.15 343.544 215.15C346.29 215.15 348.047 213.536 350.033 209.193C350.732 207.663 351.712 205.904 352.21 205.285C353.262 203.978 355.353 202.476 357.139 201.745C358.321 201.262 358.628 200.849 362.964 193.924C365.481 189.902 367.785 186.205 368.083 185.707C368.588 184.864 368.482 184.906 366.557 186.323C363.022 188.924 359.028 190.82 355.198 191.714L354.228 191.941L356.073 189.808C358.857 186.59 360.879 182.18 361.997 176.888C362.333 175.298 362.331 175.148 361.979 175.678C358.467 180.961 355.405 182.909 349.164 183.829C347.723 184.042 347.565 183.49 348.833 182.673C350.507 181.595 353.043 179.063 354.277 177.236C357.204 172.906 359.156 166.829 360.205 158.781C360.375 157.473 360.411 156.304 360.283 156.184C360.156 156.064 359.365 155.655 358.526 155.275C355.436 153.877 352.913 151.283 351.012 147.549C350.182 145.918 349.932 145.606 349.924 146.188C349.918 146.604 349.593 147.761 349.202 148.759C347.827 152.266 347.615 153.358 347.953 155.196C348.123 156.116 348.567 157.596 348.94 158.485C349.813 160.565 349.446 160.562 347.144 158.474C345.043 156.569 343.808 154.959 342.771 152.776C342.03 151.217 342.022 151.133 342.022 145.14C342.022 139.582 341.973 138.98 341.442 137.87C340.646 136.208 339.249 135.228 335.433 133.654C330.132 131.467 327.699 129.835 326.06 127.369L325.28 126.195L324.628 127.621C323.828 129.371 322.913 130.15 321.4 130.371C318.779 130.754 314.682 127.307 312.856 123.184C311.423 119.947 311.443 117.596 312.918 115.917C313.627 115.111 313.642 115.039 313.149 114.863C309.382 113.515 308.105 109.091 310.099 104.297C311.444 101.061 313.581 99.4326 316.173 99.6673L317.612 99.7976L317.518 98.5314C317.342 96.1821 319.297 93.572 322.466 91.9254C323.963 91.1476 324.607 90.9886 326.26 90.9886C328.582 90.9886 329.477 91.5205 330.372 93.4328C330.677 94.0848 330.956 94.673 330.992 94.74C331.028 94.8069 331.321 94.4969 331.642 94.051C333.118 92.0053 336.142 91.4619 338.732 92.7769C341.639 94.2532 343.547 97.0008 343.547 99.712C343.547 101.402 342.8 102.618 340.635 104.448C339.226 105.639 338.958 106.02 338.886 106.927C338.81 107.901 338.959 108.152 340.529 109.702C342.195 111.346 342.309 111.405 343.814 111.405C346.542 111.405 350.324 112.784 352.627 114.619C355.505 116.911 357.865 120.065 360.175 124.708C360.96 126.286 361.876 127.895 362.211 128.284C363.055 129.263 366.886 131.26 369.122 131.887L370.98 132.407L372.589 131.135C374.692 129.471 376.865 128.321 378.308 128.109C379.444 127.942 379.42 127.927 377.17 127.398C373.941 126.639 371.489 125.245 369.482 123.028C367.897 121.276 365.968 117.707 366.37 117.269C366.467 117.163 366.945 117.442 367.433 117.89C368.68 119.034 371.705 120.642 373.806 121.277C377.337 122.344 384.141 121.861 390.286 120.108C391.974 119.626 393.335 119.476 395.972 119.479C400.171 119.485 402.114 119.909 408.87 122.302C415.355 124.598 416.562 124.828 422.046 124.82C426.131 124.814 426.914 124.726 429.339 124.004C430.833 123.56 432.893 122.717 433.916 122.132C434.939 121.547 435.527 121.135 435.221 121.217C429.023 122.891 426.056 123.312 421.811 123.12C416.456 122.878 413.029 121.387 409.509 117.769C407.974 116.193 407.531 115.532 407.327 114.52C406.92 112.5 407.576 111.117 408.946 111.107C409.34 111.107 409.666 110.848 409.817 110.422C410.701 107.927 411.147 107.067 412.234 105.765L413.46 104.297L413.285 106.307C413.19 107.413 413.201 108.896 413.31 109.602L413.509 110.887L414.182 109.441C414.972 107.74 415.739 106.627 416.545 106.012C417.122 105.571 417.125 105.584 416.954 107.503C416.859 108.568 416.878 109.915 416.997 110.497C417.211 111.546 417.23 111.558 419.005 111.748C419.991 111.854 420.852 111.886 420.918 111.819C426.271 112.408 423.909 90.3354 418.174 89.2436C418.07 89.1157 417.167 89.4158 416.166 89.9106C415.165 90.4054 413.76 90.9713 413.043 91.1681C411.383 91.624 411.142 92.2548 411.288 95.7556L411.399 98.4053L410.457 97.4192C409.441 96.3555 408.508 94.6451 408.023 92.9546L407.718 91.896L407.505 93.1924C407.388 93.9054 407.38 95.3346 407.486 96.3682L407.68 98.2477L406.656 97.1891C405.435 95.9278 404.378 93.7834 404.124 92.0562C403.987 91.1231 403.706 90.6096 403.015 90.035C402.505 89.6113 401.742 88.4956 401.319 87.5557C400.625 86.015 400.55 85.5341 400.553 82.6709C400.553 80.9242 400.698 79.0707 400.872 78.5522C401.173 77.6542 401.131 77.5501 399.978 76.3679C398.41 74.7588 397.817 73.502 398.033 72.2476C398.423 69.9786 401.236 68.6432 405.681 68.6164C408.126 68.6015 408.8 68.4887 409.879 67.9119C410.586 67.534 411.883 67.0974 412.76 66.9417C413.637 66.786 414.406 66.6032 414.468 66.5354C414.53 66.4676 414.857 65.8177 415.193 65.0912C416.313 62.6742 419.463 61.5038 424.858 61.5002C427.287 61.5002 427.706 61.4095 429.435 60.5259C430.884 59.7855 431.727 59.5508 432.965 59.5429C434.514 59.5328 434.638 59.5896 435.6 60.7425L436.609 61.9525L440.617 61.7224C443.677 61.5467 445.088 61.323 446.581 60.7771C450.362 59.3941 452.956 59.4853 454.393 61.0521C455.862 62.6543 455 66.3506 452.402 69.589L451.197 71.0913L452.054 71.966C453.137 73.0721 455.06 76.3122 455.804 78.2852C456.118 79.117 456.592 80.8864 456.857 82.2172C457.74 86.6512 459.364 89.0438 463.158 91.5018L465.094 92.7558L464.363 93.1733C462.951 93.9802 461.169 93.9853 459.076 93.1882C458.009 92.7814 456.934 92.3513 456.69 92.2323C456.357 92.0706 456.447 92.4613 457.047 93.7818C457.636 95.0771 457.92 96.2833 458.112 98.3089C458.256 99.8275 458.526 101.456 458.713 101.927C459.37 103.588 460.635 105.026 462.148 105.833C463.483 106.545 463.907 106.627 465.593 106.495C467.828 106.321 467.844 106.462 465.836 108.651C464.268 110.361 463.326 110.85 461.246 111.032L459.506 111.184L460.186 112.064C461.302 113.51 461.552 115.096 461.131 118.059C460.56 122.085 460.626 122.836 461.634 123.818C462.175 124.346 463.076 124.791 464.046 125.01C464.898 125.203 465.595 125.429 465.595 125.512C465.595 125.596 465.263 126.282 464.857 127.037C464.028 128.58 462.785 129.55 461.633 129.551C460.711 129.551 459.026 128.823 458.289 128.104C457.775 127.602 457.766 127.617 458.002 128.645C458.7 131.691 458.185 134.151 455.625 139.987C454.75 141.983 453.951 144.078 453.85 144.641C453.441 146.921 454.669 149.269 456.856 150.39C458.857 151.415 458.472 151.719 455.344 151.582C452.769 151.469 452.433 151.378 450.388 150.239L448.194 149.016L448.705 150.276C450.982 155.889 449.158 160.834 443.543 164.272C440.908 165.885 439.937 167.37 439.937 169.784C439.937 171.92 440.514 172.935 442.311 173.963C443.394 174.582 443.804 174.647 445.693 174.502C446.875 174.411 447.843 174.446 447.843 174.579C447.843 175.077 444.82 176.467 442.722 176.933C440.045 177.529 437.512 177.172 434.865 175.828C431.38 174.059 428.282 169.797 427.953 166.317C427.806 164.769 427.733 164.642 426.465 163.747C424.228 162.166 422.742 159.78 422.326 157.101L422.111 155.715L422.083 157.228C422.024 160.47 422.667 162.3 428.091 174.317C434.095 187.618 436.351 192.963 438.941 200.026L440.771 205.017L444.515 208.793C452.88 217.233 456.706 221.847 458.225 225.329C458.867 226.8 458.985 226.906 460.322 227.219C461.101 227.401 461.905 227.55 462.109 227.55C462.853 227.55 466.896 229.169 468.938 230.285C471.433 231.648 475.259 234.401 478.36 237.065C481.444 239.715 483.381 240.387 487.924 240.383C490.703 240.383 491.504 240.27 492.778 239.714C499.937 236.59 502.24 227.628 498.198 218.628C496.478 214.8 494.001 211.559 489.967 207.86C476.547 195.554 469.263 184.319 466.846 172.2C466.229 169.104 465.993 162.028 466.401 158.854C466.58 157.461 466.986 155.022 467.303 153.435L467.879 150.55L466.882 148.39C464.753 143.781 463.653 139.429 463.653 135.622C463.653 130.848 465.427 127.129 469.013 124.384C470.108 123.546 471.347 122.304 471.766 121.624C472.427 120.552 472.529 120.09 472.529 118.15C472.529 116.263 472.311 115.209 471.142 111.434C469.114 104.885 469.256 103.339 472.167 100.272C473.163 99.2234 474.033 98.4261 474.102 98.5005C474.17 98.5751 474.046 99.1069 473.825 99.6825C472.704 102.607 473.131 105.607 475.317 110.173C476.08 111.765 476.805 113.477 476.928 113.976L477.151 114.883L477.747 113.422C479.022 110.295 481.309 108.12 486.083 105.495C487.512 104.709 489.123 103.643 489.663 103.126C492.953 99.9763 491.999 94.9301 487.505 91.7022C486.389 90.9009 487.085 90.6934 489.572 91.0855C493.956 91.7766 496.268 93.307 497.52 96.3459C498.087 97.7224 498.179 98.4221 498.183 101.368C498.189 104.461 498.225 104.723 498.583 104.09C498.801 103.705 499.764 102.551 500.722 101.525C503.372 98.6913 504.531 98.2952 510.253 98.2689C514.658 98.2482 514.887 98.2166 516.374 97.4206C519.129 95.9454 521.058 93.2335 521.058 90.8374C521.058 89.194 520.13 87.3459 518.376 85.4986L516.771 83.8089L517.881 84.0106C521.336 84.6386 523.581 85.9017 524.757 87.8801C526.919 91.5156 525.641 95.9377 520.81 101.541C517.544 105.328 516.839 106.784 516.105 111.254C514.958 118.24 512.939 123.275 509.929 126.65L508.068 128.738L508.813 129.371C510.156 130.511 511.363 132.097 512.06 133.636C512.724 135.103 513.567 139.953 513.223 140.328C513.13 140.429 512.205 139.818 511.168 138.969C508.987 137.184 507.398 136.507 505.419 136.516C502.53 136.529 500.589 138.242 497.368 143.617C494.822 147.867 492.931 150.329 490.915 152.018C487.716 154.699 484.733 155.867 481.084 155.867C478.985 155.867 478.922 155.888 478.261 156.85C474.583 162.193 474.381 168.709 477.671 175.852C478.812 178.329 481.3 182.786 481.543 182.786C481.591 182.786 481.564 181.724 481.482 180.427C481.319 177.843 481.758 175.632 482.933 173.102C483.807 171.221 485.846 168.45 486.122 168.767C486.245 168.908 486.179 169.89 485.975 170.949C485.329 174.308 486.084 177.223 488.374 180.215C490.304 182.737 490.917 184.553 491.135 188.391C491.29 191.127 491.483 192.162 492.207 194.138C493.5 197.665 494.472 199.194 497.775 202.9C503.524 209.349 505.964 213.924 507.696 221.501L507.938 222.56L508.415 221.564C509.055 220.228 511.332 217.52 513.369 215.671C515.674 213.58 516.46 211.689 516.48 208.193C516.487 206.779 516.434 205.02 516.362 204.283C516.29 203.547 516.352 202.902 516.501 202.848C516.898 202.706 519.938 207.99 520.547 209.881C521.46 212.714 521.196 215.466 519.771 217.95L519.119 219.086L520.256 220.654C522.278 223.443 523.271 226.36 523.729 230.853L523.927 232.795L522.321 231.045C520.525 229.086 518.701 228.033 517.617 228.33C516.561 228.619 515.391 230.271 513.817 233.693C512.054 237.524 510.76 239.776 509.495 241.214C508.704 242.113 508.552 242.476 508.7 243.117C509.099 244.852 510.191 244.544 513.443 241.776C516.374 239.28 518.649 237.512 518.765 237.639C518.934 237.823 516.919 243.94 516.07 245.821C514.561 249.162 512.232 251.294 509.683 251.667L508.637 251.82L509.049 253.069C509.36 254.012 509.417 254.99 509.281 257.052C509.054 260.492 509.469 261.781 511.423 263.697L512.809 265.056L511.878 265.05C510.43 265.043 507.613 264.231 506.062 263.374C504.071 262.274 502.382 260.469 500.523 257.457C498.675 254.461 496.988 252.747 495.61 252.466C494.611 252.261 492.807 252.377 487.646 252.976C479.669 253.902 472.399 252.042 467.051 247.708C466.097 246.935 465.317 246.42 465.317 246.563C465.317 246.927 466.693 254.257 466.775 254.332C466.812 254.366 467.552 254.616 468.42 254.887C470.101 255.413 471.73 256.614 474.193 259.143C475.798 260.791 477.924 262.053 480.102 262.651C480.819 262.848 481.405 263.116 481.405 263.247C481.405 263.517 477.224 265.218 475.483 265.657C474.85 265.816 473.788 265.95 473.123 265.954C472.123 265.96 471.945 266.046 472.088 266.453C472.382 267.29 473.084 272.03 473.084 273.185L473.084 274.279L475.095 274.294C476.8 274.307 477.391 274.463 478.981 275.32C480.058 275.901 481.648 277.145 482.716 278.243C483.995 279.557 484.642 280.04 484.789 279.787C484.906 279.586 485.004 279.331 485.007 279.221C485.007 279.111 485.574 278.724 486.261 278.361C488.132 277.374 489.272 277.605 496.106 280.358C497.894 281.079 498.616 281.199 501.238 281.216C503.997 281.233 504.407 281.163 505.524 280.48C507.083 279.526 508.425 277.619 509.043 275.483C509.306 274.571 509.595 273.825 509.683 273.825C510.022 273.825 510.887 277.081 511.018 278.848C511.301 282.67 509.239 285.924 506.535 285.924C505.687 285.924 505.678 285.968 506.265 287.207C507.027 288.813 507.224 289.851 507.613 294.326C508.008 298.866 508.659 301.069 510.335 303.541C511.451 305.186 511.483 305.316 510.683 304.985C509.314 304.417 508.162 303.685 506.94 302.605C506.069 301.835 505.782 301.691 505.961 302.113C506.101 302.442 506.238 304.412 506.265 306.491C506.317 310.559 506.472 311.262 507.771 313.32C508.235 314.056 508.543 314.658 508.455 314.658C507.908 314.658 504.676 312.606 503.833 311.723L502.822 310.665V313.191C502.822 315.162 502.664 316.189 502.099 317.87C501.141 320.722 501.183 322.161 502.33 325.84L503.285 328.901L502.261 328.233C500.836 327.302 500.304 326.782 499.405 325.443L498.625 324.281L498.468 325.141C497.937 328.049 497.031 330.723 495.696 333.32C493.62 337.361 493.309 339.594 494.406 342.58C494.861 343.819 494.838 343.821 493.455 342.67C491.921 341.392 490.69 339.751 490.232 338.37C490.045 337.805 489.822 337.342 489.738 337.342C489.653 337.342 489.298 338.148 488.948 339.132C486.426 346.224 481.404 349.5 475.218 348.089C474.028 347.818 472.905 347.533 472.722 347.458C472.534 347.38 472.038 348.054 471.582 349.007C470.098 352.109 467.787 353.13 465.013 351.91L465.014 351.912Z" fill="#EB7711"/>
<path d="M465.248 352.339C463.392 351.617 460.651 349.428 457.878 346.455C456.386 344.855 454.543 343.027 453.782 342.393C451.298 340.322 449.801 337.036 449.788 333.625C449.788 332.993 449.581 332.047 449.332 331.522C448.728 330.248 448.778 327.727 449.44 326.103C450.231 324.161 451.29 322.956 453.011 322.037C456.862 319.983 460.973 321.901 463.266 326.823C464.026 328.456 464.203 328.584 467.122 329.623C469.426 330.443 472.128 330.633 473.172 330.049C474.201 329.472 475.33 328.169 475.755 327.065C476.524 325.072 476.696 323.568 476.967 316.507L477.239 309.43L478.056 308.038C480.949 303.111 480.978 300.41 478.148 299.554C476.06 298.921 473.102 299.473 469.269 301.21C460.555 305.159 456.375 306.023 453.532 304.465C452.43 303.86 450.949 302.322 450.431 301.243L450.016 300.378L449.351 301.444C448.472 302.854 446.534 303.852 442.483 304.982C438.708 306.034 437.918 306.421 436.93 307.702C435.363 309.732 435.917 312.571 438.202 314.219C439.356 315.052 439.357 315.055 438.677 315.346C436.653 316.211 433.608 315.45 432.118 313.707C430.412 311.71 429.861 307.891 430.915 305.359L431.45 304.074H429.73C426.753 304.068 423.848 301.972 422.668 298.977C421.941 297.133 422.066 294.241 422.964 292.14L423.734 290.336L424.454 291.687C425.968 294.524 428.036 296.192 430.058 296.206C433.599 296.231 436.604 292.74 435.914 289.404C435.794 288.82 434.921 287.224 433.974 285.858C432.041 283.066 430.919 280.81 430.26 278.388C429.675 276.238 429.673 271.762 430.254 269.587C430.552 268.475 430.768 265.9 430.912 261.732C431.03 258.322 431.219 254.156 431.333 252.474L431.54 249.415L429.496 249.064C428.372 248.87 427.129 248.636 426.734 248.542C426.203 248.416 425.222 248.822 422.989 250.09C418.38 252.706 415.524 254.917 412.45 258.248C409.244 261.721 407.939 264.167 407.147 268.183C406.742 270.236 406.725 270.938 407.015 273.476C407.247 275.505 407.561 276.819 408.039 277.763C410.324 282.273 411.04 284.263 411.169 286.461C411.378 289.997 410.956 290.837 406.654 295.457C404.641 297.619 402.606 299.977 402.132 300.696C400.452 303.246 400.384 306.871 401.986 308.489C403.234 309.751 404.616 309.736 407.744 308.427C408.677 308.036 406.553 311.837 404.941 313.444C403.002 315.376 401.325 315.992 398.501 315.81C396.132 315.656 394.955 315.13 393.439 313.548L392.434 312.499L392.241 313.354C391.915 314.8 390.815 316.584 388.382 319.612C385.624 323.045 384.898 324.582 384.52 327.781L384.239 330.161L383.331 328.414C382.415 326.652 381.546 323.547 381.546 322.04C381.546 321.328 381.37 321.495 380.185 323.335C377.72 327.162 374.564 329.423 369.48 331.003C367.801 331.524 365.954 332.287 365.373 332.698C364.164 333.556 362.771 335.776 362.517 337.253C362.276 338.655 361.994 338.726 361.215 337.58C360.316 336.26 359.91 334.849 359.91 333.043V331.55L358.553 332.636C356.278 334.457 354.314 335.285 352.314 335.268L350.559 335.254L350.381 337.539C350.166 340.318 349.513 342.024 348.173 343.306C344.516 346.808 336.255 342.94 334.539 336.922C334.385 336.381 334.327 336.394 333.62 337.132C332.685 338.109 331.082 338.86 329.934 338.86C325.999 338.86 322.445 331.753 322.825 324.644C322.981 321.731 323.479 320.2 324.609 319.16C325.362 318.468 325.385 318.362 325.291 316.024C325.2 313.731 325.24 313.53 326.067 312.18C327.173 310.373 329.159 309.243 331.468 309.108C333.007 309.017 333.11 308.96 333.589 307.942C335.471 303.941 342.272 302.098 345.365 304.751C346.233 305.495 347.136 307.493 347.144 308.689C347.152 309.7 346.684 309.678 354.778 309.047C360.232 308.622 361.161 308.47 363.516 307.611C368.747 305.703 371.092 303.076 372.096 297.999C372.274 297.1 372.538 293.438 372.683 289.861C372.962 282.999 373.317 280.462 374.416 277.497L375.088 275.68L373.432 276.907C369.448 279.857 366.076 280.694 363.876 279.279L362.866 278.629L362.151 279.629C358.613 284.577 353.499 287.421 348.9 286.998C345.486 286.684 341.325 285.078 341.325 284.075C341.325 283.549 341.497 283.52 343.614 283.693C350.397 284.248 355.293 280.572 358.371 272.613C360.661 266.691 362.928 264.092 366.79 262.958L367.974 262.61L366.71 261.037C364.526 258.316 363.84 254.956 364.724 251.297L365.089 249.785L365.965 251.664C367.656 255.289 369.626 256.728 372.635 256.538C376.027 256.324 378.008 254.777 382.225 249.048C389.026 239.809 396.13 235.725 407.481 234.529C410.357 234.225 419.24 231.619 419.352 231.045C419.419 230.699 416.982 228.523 413.652 225.957C412.317 224.928 411.225 223.995 411.225 223.883C411.225 223.56 414.216 221.807 414.758 221.811C416.054 221.822 422.505 225.716 425.421 228.246C427.116 229.717 427.204 229.051 425.607 226.836C424.459 225.243 423.151 224.018 419.824 221.422C410.992 214.529 402.103 206.056 398.05 200.668C397.287 199.654 396.575 198.823 396.467 198.822C396.36 198.822 396.197 199.33 396.105 199.954C395.14 206.506 393.062 210.499 389.623 212.412C387.32 213.693 385.119 214.02 379.841 213.864L374.947 213.719L375.334 214.729C375.894 216.191 375.813 217.251 375.007 219.015C373.628 222.032 370.368 224.68 360.049 231.167C356.54 233.373 353.503 235.349 353.301 235.559C353 235.87 352.995 236.283 353.27 237.812C353.712 240.26 353.465 243.759 352.742 245.305C352.002 246.887 350.311 248.515 348.721 249.177C347.752 249.58 346.934 249.677 345.419 249.567C343.021 249.392 341.288 248.579 339.457 246.771L338.172 245.503L336.529 246.398C335.203 247.121 334.417 247.323 332.455 247.445C330.243 247.582 329.875 247.522 328.393 246.784C324.526 244.859 322.432 240.677 323.69 237.393C324.064 236.416 324.051 236.34 323.433 235.899C319.227 232.893 317.73 224.96 320.743 221.639C321.906 220.357 323.488 219.704 325.445 219.696C326.399 219.69 327.179 219.637 327.179 219.573C327.179 219.509 326.992 219.067 326.764 218.59C326.227 217.466 326.232 214.922 326.774 213.506C327.893 210.586 331.075 208.562 334.025 208.894C335.993 209.115 337.442 210.083 339.668 212.661C341.68 214.993 342.674 215.431 344.638 214.855C346.702 214.249 347.957 212.863 349.708 209.257C351.737 205.078 353.007 203.621 355.947 202.098L358.225 200.918L362.44 194.198C364.758 190.502 366.897 187.097 367.193 186.632C367.689 185.853 367.582 185.892 365.831 187.122C362.446 189.502 359.113 191.035 355.256 191.988L353.515 192.418L355.601 190C358.436 186.714 359.978 183.639 361.319 178.593L361.832 176.665L359.912 178.77C357.107 181.848 354.1 183.415 350.003 183.935C348.096 184.178 347.705 184.063 347.705 183.261C347.705 183.215 348.377 182.69 349.199 182.095C351.928 180.12 354.619 176.726 356.277 173.171C357.806 169.892 359.524 162.95 360.034 157.987L360.204 156.324L358.878 155.753C355.822 154.439 352.766 151.508 351.121 148.313C350.328 146.774 349.924 146.419 349.924 147.262C349.924 147.519 349.523 148.642 349.032 149.758C347.807 152.546 347.775 155.17 348.933 157.925C349.517 159.314 349.65 159.919 349.427 160.163C348.998 160.631 348.143 159.966 345.55 157.146C344.188 155.665 343.099 154.148 342.572 152.997L341.741 151.182L341.832 145.757C341.982 136.779 341.897 136.647 333.697 133.183C330.623 131.885 328.088 130.184 326.544 128.384L325.236 126.859L324.688 128.031C322.894 131.866 318.808 131.406 314.974 126.937C311.804 123.242 310.686 118.783 312.286 116.217L312.927 115.189L311.801 114.561C311.08 114.159 310.375 113.405 309.842 112.467C309.095 111.151 309.011 110.754 309.018 108.558C309.024 106.536 309.158 105.802 309.796 104.3C311.174 101.051 313.275 99.3293 315.875 99.3162L317.193 99.3095V98.1589C317.193 93.9751 324.051 89.3657 328.106 90.8248C329.103 91.1838 330.785 93.0403 330.785 93.7828C330.785 94.3405 330.993 94.2632 331.837 93.3934C333.037 92.1562 334.329 91.6871 336.201 91.8098C339.091 91.999 341.877 94.0933 343.158 97.041C344.553 100.248 343.738 102.401 340.086 105.161C338.305 106.507 338.559 107.723 341.077 109.892C342.272 110.923 342.683 111.105 343.802 111.105C345.442 111.105 348.933 112.06 350.519 112.943C354.501 115.158 357.872 119.264 360.883 125.57C361.465 126.788 362.33 128.108 362.805 128.503C364.054 129.542 366.976 130.969 369.088 131.57L370.915 132.09L372.832 130.617C373.887 129.807 375.396 128.852 376.187 128.497L377.624 127.85L375.493 127.167C371.482 125.88 368.494 123.205 366.742 119.334C366.026 117.751 365.947 117.385 366.278 117.163C366.552 116.978 366.98 117.156 367.661 117.742C368.977 118.873 371.626 120.304 373.654 120.98C376.043 121.777 381.74 121.713 386.03 120.841C387.81 120.479 389.598 120.046 390.004 119.878C390.409 119.71 391.917 119.429 393.355 119.254C397.869 118.705 401.443 119.372 409.699 122.302C411.988 123.114 414.734 123.953 415.802 124.166C418.831 124.77 425.614 124.68 428.284 124.001C430.694 123.388 433.529 122.32 433.328 122.101C433.259 122.026 432.408 122.162 431.437 122.403C428.109 123.231 424.588 123.595 421.558 123.425C416.35 123.134 412.749 121.481 409.217 117.759L407.064 115.489V113.818C407.064 111.787 407.6 110.803 408.707 110.803C409.407 110.803 409.548 110.619 410.095 108.983C410.512 107.735 411.175 106.617 412.2 105.429L413.697 103.695L413.529 106.644C413.436 108.266 413.44 109.593 413.537 109.593C413.635 109.593 414.043 109.015 414.444 108.308C415.179 107.011 417.016 104.754 417.335 104.754C417.43 104.754 417.39 105.64 417.248 106.723C417.105 107.806 417.069 109.285 417.169 110.009L417.35 111.326L419.072 111.51C420.753 111.69 420.813 111.671 421.561 110.726C422.909 109.024 423.522 106.779 423.525 103.544C423.525 100.424 423.168 98.3863 422.121 95.5757C421.403 93.6483 419.713 90.7553 418.761 89.8234C418.197 89.2713 418.145 89.2784 416.161 90.174C415.048 90.6765 413.608 91.2412 412.961 91.4287C411.507 91.8503 411.38 92.2832 411.567 96.1842L411.705 99.0526L410.471 97.7444C409.792 97.0248 408.867 95.6874 408.416 94.7725L407.596 93.109L407.76 95.9824L407.925 98.8558L406.63 97.4947C405.28 96.0757 404.145 93.8607 403.84 92.0504C403.726 91.3762 403.329 90.6874 402.745 90.1538C400.558 88.1528 399.593 83.5663 400.485 79.4094L400.893 77.5058L399.943 76.7155C398.534 75.5439 397.533 73.5244 397.746 72.2857C398.164 69.8552 401.143 68.3564 405.677 68.2955C408.054 68.2638 408.833 68.1328 409.913 67.5843C410.641 67.2147 411.937 66.7879 412.794 66.6358C413.651 66.4837 414.366 66.3212 414.383 66.2746C415.725 62.6654 417.879 61.5332 423.846 61.3013C427.08 61.1756 427.64 61.0697 429.273 60.2746C432.557 58.6761 434.935 58.8471 436.088 60.7647L436.584 61.5906L440.617 61.3956C443.787 61.2423 445.065 61.0474 446.591 60.4845C450.532 59.0309 453.275 59.1895 454.633 60.9497C456.012 62.7358 455.246 66.2688 452.79 69.4514L451.674 70.8982L453.08 72.7706C454.953 75.2644 456.296 78.3569 456.998 81.7906C457.974 86.5716 459.433 88.6993 463.567 91.3762L465.842 92.849L464.446 93.3963C462.694 94.0833 460.491 94.0418 458.515 93.2845C457.678 92.9637 456.993 92.7416 456.993 92.7911C456.993 92.8403 457.251 93.5164 457.566 94.2929C457.882 95.0733 458.254 96.9211 458.396 98.4237C458.69 101.519 459.271 103.007 460.731 104.405C462.372 105.976 463.482 106.347 465.95 106.152L468.111 105.981L467.198 107.384C465.662 109.746 463.22 111.338 461.064 111.385L460.004 111.408L460.578 112.204C461.769 113.855 461.878 115.441 461.119 120.028C460.615 123.073 461.44 124.246 464.511 124.851L466.14 125.172L465.225 126.835C464.211 128.675 462.84 129.862 461.737 129.852C461.34 129.845 460.471 129.576 459.806 129.247C459.141 128.918 458.568 128.649 458.533 128.649C458.498 128.649 458.474 129.635 458.479 130.841C458.49 133.477 458.035 135.074 455.873 139.991C453.934 144.403 453.695 145.648 454.44 147.484C454.997 148.858 455.897 149.722 457.491 150.416C458.079 150.671 458.375 150.987 458.32 151.3C458.253 151.685 457.808 151.806 456.203 151.876C454.049 151.971 451.907 151.454 449.958 150.37C448.928 149.797 448.88 149.794 449.069 150.322C450.61 154.637 450.063 158.152 447.355 161.342C446.507 162.34 445.24 163.51 444.538 163.943C442.103 165.443 441.277 166.168 440.676 167.333C439.454 169.705 440.157 172.427 442.312 173.664C443.391 174.283 443.8 174.348 445.689 174.202C447.634 174.052 447.839 174.089 447.839 174.583C447.839 175.196 445.734 176.443 443.678 177.047C440.608 177.949 436.126 177.168 433.349 175.247C430.404 173.209 428.035 169.448 427.689 166.258C427.555 165.024 427.387 164.638 426.877 164.384C425.829 163.863 424.005 161.915 423.249 160.508C422.862 159.787 422.505 159.197 422.457 159.197C422.409 159.197 422.543 160.01 422.756 161.004C422.976 162.03 424.477 165.718 426.235 169.548C432.783 183.814 438.335 197.032 440.102 202.56C440.752 204.594 440.864 204.736 445.498 209.417C453.164 217.16 457.041 221.894 458.429 225.206C459.081 226.761 459.078 226.759 461.674 227.256C466.447 228.169 471.564 231.054 478.108 236.521C481.794 239.601 483.018 240.051 487.782 240.082C491.428 240.105 491.574 240.082 493.329 239.16C495.609 237.965 497.11 236.532 498.241 234.469C500.013 231.239 500.435 227.143 499.436 222.881C498.164 217.461 495.099 212.82 489.307 207.549C478.819 198.003 471.321 187.592 468.273 178.345C465.572 170.148 465.196 162.708 467.025 153.674L467.622 150.721L466.493 148.078C464.145 142.583 463.22 138.474 463.443 134.539C463.668 130.578 465.539 126.747 468.276 124.646C473.006 121.014 473.389 119.155 470.94 111.71C469.18 106.361 469.147 103.628 470.816 101.338C471.904 99.8454 474.915 97.1847 474.637 97.9615C473.413 101.381 473.268 102.325 473.627 104.516C473.876 106.036 474.475 107.735 475.651 110.26L477.322 113.847L477.804 112.703C478.932 110.02 481.311 107.875 486.269 105.066C487.787 104.206 489.323 103.205 489.681 102.843C491.262 101.241 491.834 98.3379 490.999 96.1572C490.511 94.8841 488.767 92.7572 487.733 92.1742C486.649 91.5627 486.664 90.538 487.758 90.538C489.103 90.538 492.556 91.3563 493.92 91.9984C497.092 93.4904 498.866 97.344 498.539 102.032L498.423 103.695L500.384 101.549C503.273 98.3868 504.418 97.9643 509.885 98.0441C514.81 98.1159 516.254 97.7075 518.416 95.6329C521.901 92.2875 521.565 88.6475 517.416 84.8221C516.496 83.9734 515.786 83.279 515.84 83.279C516.621 83.279 520.614 84.3404 521.571 84.8021C525.435 86.6661 526.857 90.1247 525.525 94.4182C524.702 97.0698 523.875 98.3876 520.932 101.742C517.849 105.254 517.112 106.795 516.38 111.257C515.164 118.664 512.664 124.599 509.478 127.64L508.475 128.598L509.909 130.004C511.899 131.956 512.949 134.379 513.353 137.957C513.526 139.493 513.596 140.829 513.508 140.925C513.42 141.021 512.538 140.406 511.55 139.559C509.201 137.546 507.461 136.721 505.534 136.707C502.678 136.685 500.545 138.645 497.162 144.399C492.441 152.43 487.297 156.172 480.98 156.172C478.754 156.172 478.581 156.32 477.134 159.434C474.881 164.281 475.108 169.699 477.808 175.556C478.994 178.127 481.07 181.882 481.305 181.882C481.377 181.882 481.356 181.298 481.258 180.584C480.859 177.685 482.233 173.154 484.417 170.161C485.488 168.693 486.178 168.24 486.487 168.8C486.556 168.925 486.441 169.912 486.232 170.993C485.59 174.307 486.332 177.113 488.653 180.139C490.508 182.56 491.167 184.529 491.402 188.363C491.616 191.864 491.893 192.989 493.303 196.087C494.495 198.708 495.058 199.504 497.909 202.6C500.668 205.598 502.505 208.085 504.181 211.093C505.34 213.173 506.993 217.369 507.341 219.113C507.454 219.68 507.658 220.466 507.795 220.86C508.037 221.562 508.061 221.55 508.915 220.255C509.395 219.528 510.535 218.185 511.448 217.27C515.124 213.588 515.484 213.113 515.966 211.306C516.335 209.919 516.393 208.883 516.252 206.191C516.019 201.73 516.325 201.554 518.404 204.961C520.801 208.889 521.179 210.008 521.194 213.213C521.206 215.8 521.153 216.055 520.304 217.544L519.403 219.126L520.483 220.542C522.504 223.19 523.591 226.581 524.233 232.24L524.404 233.751L522.443 231.578C520.041 228.916 518.55 228.144 517.24 228.883C516.161 229.492 515.641 230.311 513.859 234.208C512.337 237.537 510.667 240.445 509.475 241.839C508.86 242.559 508.81 242.764 509.09 243.433C509.403 244.181 509.435 244.189 510.395 243.752C510.937 243.505 512.717 242.167 514.352 240.779C517.555 238.058 518.984 236.93 519.226 236.93C519.593 236.93 516.771 245.135 515.765 246.994C514.424 249.47 512.498 251.229 510.522 251.781C509.189 252.154 509.121 252.22 509.322 252.946C509.439 253.37 509.54 255.282 509.546 257.195C509.558 261.341 509.824 262.051 512.067 263.937L513.58 265.21L512.716 265.307C511.149 265.484 508.022 264.711 506.139 263.682C503.936 262.478 502.244 260.676 500.066 257.216C499.183 255.814 497.982 254.249 497.396 253.738C496.381 252.853 496.21 252.809 493.79 252.809C492.393 252.809 489.626 252.995 487.643 253.223C479.644 254.139 472.881 252.488 467.34 248.264C466.099 247.319 465.596 247.064 465.697 247.435C465.777 247.729 466.044 249.195 466.289 250.692C466.911 254.488 466.905 254.473 467.775 254.473C469.075 254.473 471.389 255.981 473.691 258.329C476.01 260.693 478.048 261.93 480.778 262.629C481.579 262.834 482.234 263.11 482.234 263.243C482.234 263.69 475.88 265.947 474.043 266.152C472.519 266.322 472.249 266.435 472.4 266.841C472.705 267.664 473.338 271.798 473.348 273.031C473.358 274.1 473.413 274.184 474.004 274.022C475.034 273.74 477.78 274.354 479.341 275.216C480.131 275.652 481.611 276.828 482.629 277.83C484.201 279.377 484.531 279.585 484.814 279.205C486.136 277.431 488.837 277.255 492.497 278.704C497.22 280.573 499.134 281.09 501.336 281.088C502.501 281.088 503.918 280.946 504.486 280.774C506.471 280.172 508.072 278.138 508.995 275.04C509.709 272.647 509.714 272.646 510.425 274.769C511.29 277.355 511.535 280.081 511.067 281.905C510.592 283.754 508.77 285.807 507.345 286.099C506.552 286.261 506.374 286.412 506.522 286.798C507.21 288.593 507.564 290.54 507.89 294.314C508.307 299.16 508.773 300.625 510.958 303.964C511.652 305.024 512.162 305.891 512.093 305.891C511.689 305.891 508.151 303.977 507.399 303.351L506.505 302.608L506.547 306.442C506.59 310.518 506.746 311.254 507.985 313.249C509.254 315.293 509.256 315.301 508.486 314.981C507.082 314.399 504.543 312.882 503.951 312.27C503.614 311.923 503.296 311.638 503.244 311.638C503.192 311.638 503.134 312.557 503.116 313.68C503.095 315.044 502.846 316.437 502.367 317.875C501.973 319.06 501.651 320.651 501.651 321.412C501.651 322.632 502.934 327.514 503.633 328.954C503.774 329.245 503.825 329.484 503.746 329.484C503.314 329.484 500.509 327.255 499.741 326.3C499.247 325.687 498.807 325.234 498.764 325.293C498.721 325.352 498.521 326.264 498.321 327.321C498.121 328.377 497.414 330.35 496.75 331.706C494.318 336.671 494.092 337.309 494.079 339.273C494.071 340.55 494.255 341.591 494.672 342.612C495.005 343.428 495.224 344.154 495.157 344.227C494.946 344.458 492.006 341.882 491.254 340.806C490.856 340.237 490.367 339.347 490.166 338.827L489.802 337.883L488.653 340.472C487.304 343.51 484.98 346.423 483.057 347.485C481.054 348.592 478.555 348.962 475.969 348.535C474.78 348.338 473.528 348.062 473.187 347.92C472.645 347.696 472.491 347.824 471.967 348.933C470.387 352.275 468.08 353.445 465.245 352.342L465.248 352.339ZM469.229 350.876C469.806 350.456 470.494 349.49 471.004 348.381C471.461 347.385 471.857 346.524 471.883 346.469C471.908 346.413 473.031 346.668 474.377 347.036C481.701 349.037 485.962 345.833 489.269 335.838L489.918 333.877L490.276 335.535C490.685 337.43 491.462 339.245 492.37 340.43L492.996 341.247L493.098 339.043C493.204 336.753 493.154 336.892 496.077 330.771C496.923 329 497.555 326.257 497.937 322.696L498.097 321.205L499.041 323.13C499.931 324.947 501.345 326.895 501.584 326.634C501.644 326.568 501.435 325.602 501.119 324.488C500.368 321.836 500.394 320.77 501.28 318.01C502.037 315.653 502.295 312.275 501.874 310.226C501.529 308.545 502.331 308.725 504.133 310.733C506.001 312.815 506.53 313.034 505.935 311.481C505.65 310.74 505.538 309.396 505.561 307.02C505.586 304.499 505.474 303.269 505.128 302.259C504.425 300.216 504.342 299.631 504.715 299.379C504.93 299.234 505.523 299.71 506.336 300.682C507.041 301.524 507.945 302.432 508.344 302.699L509.07 303.184L508.381 301.614C507.361 299.29 507.203 298.529 506.914 294.557C506.609 290.345 506.16 288.446 505 286.456L504.163 285.019H505.752C507.778 285.019 508.985 284.255 509.708 282.518C510.259 281.195 510.4 278.335 509.987 276.854L509.776 276.097L509.459 276.952C508.268 280.158 505.963 281.938 502.649 282.212C499.998 282.43 497.58 281.923 493.61 280.317C489.997 278.855 487.736 278.44 486.676 279.045C486.294 279.262 485.687 279.936 485.326 280.541L484.671 281.643L482.691 279.472C481.519 278.187 479.977 276.872 478.909 276.25C477.235 275.273 476.935 275.2 474.717 275.223L472.328 275.248L472.162 272.346C472.071 270.749 471.754 268.457 471.458 267.25L470.92 265.058H472.765C474.658 265.058 475.917 264.791 478.044 263.948L479.26 263.466L477.339 262.496C476.075 261.857 474.616 260.734 473.072 259.208C470.545 256.712 469.119 255.791 467.239 255.441L466.043 255.218L465.143 250.233C464.648 247.491 464.235 245.009 464.225 244.718C464.213 244.337 464.853 244.745 466.496 246.162C469.314 248.593 473.017 250.626 476.135 251.453C479.148 252.252 484.821 252.54 488.34 252.073C493.101 251.442 495.135 251.351 496.176 251.726C497.659 252.259 499.438 254.133 501.342 257.164C502.278 258.654 503.569 260.363 504.213 260.964C505.627 262.284 507.837 263.501 509.284 263.757L510.348 263.945L509.634 262.914C508.595 261.413 508.336 259.984 508.513 256.74C508.668 253.917 508.655 253.839 507.809 252.355L506.947 250.844H508.546C512.324 250.844 514.793 248.112 516.785 241.727L517.45 239.593L516.417 240.438C515.849 240.903 514.707 241.879 513.879 242.607C510.379 245.682 508.506 245.858 507.918 243.169C507.759 242.441 507.906 242.07 508.814 240.894C510.348 238.911 511.725 236.489 513.212 233.157C515.908 227.116 517.921 226.104 521.455 229.014L522.933 230.23L522.693 228.817C522.056 225.068 521.098 222.879 518.973 220.313L517.939 219.066L518.503 218.395C519.623 217.061 520.28 215.168 520.307 213.192C520.329 211.613 520.171 210.927 519.355 209.067C518.817 207.839 518.141 206.525 517.852 206.145C517.328 205.458 517.326 205.465 517.299 208.263C517.258 212.415 516.774 213.422 512.937 217.35C510.017 220.338 509.281 221.367 508.595 223.417C508.033 225.099 507.477 224.302 506.628 220.597C505.171 214.239 502.082 208.652 497.096 203.357C492.496 198.472 490.305 193.365 490.284 187.478C490.274 184.976 489.597 183.149 487.815 180.824C485.937 178.372 485.168 176.364 485.051 173.61L484.95 171.236L484.142 172.552C482.777 174.776 482.134 177.606 482.34 180.481C482.438 181.834 482.591 183.364 482.68 183.881C482.798 184.556 482.727 184.869 482.43 184.994C482.04 185.157 480.689 183.197 478.244 178.922C476.932 176.628 475.338 172.3 474.862 169.74C474.035 165.287 474.842 160.983 477.256 156.979L478.457 154.988L480.971 155.004C484.181 155.025 486.364 154.295 489.222 152.248C491.886 150.339 493.59 148.286 496.53 143.438C500.285 137.249 502.182 135.603 505.556 135.609C507.475 135.609 509.517 136.434 511.309 137.925C511.816 138.346 512.286 138.632 512.353 138.559C512.593 138.297 511.897 135.146 511.304 133.809C509.837 130.505 506.041 127.883 502.764 127.911C499.037 127.943 496.002 130.734 489.938 139.709C485.552 146.201 484.931 146.966 484.502 146.403C484.23 146.045 484.358 145.716 485.187 144.641C485.747 143.913 487.837 140.937 489.829 138.025C493.391 132.823 496.671 128.879 497.746 128.507C499.008 128.07 499.966 120.967 499.029 118.992C498.343 117.546 497.067 117.38 494.584 118.416C493.234 118.98 492.853 119.328 491.881 120.889C491.259 121.888 489.951 123.576 488.975 124.641C487.501 126.248 487.129 126.514 486.79 126.207C486.442 125.892 486.658 125.535 488.22 123.84C490.594 121.265 492.804 117.624 494.451 113.575C496.649 108.17 497.264 105.874 497.424 102.475C497.716 96.2773 495.986 93.4652 491.122 92.2279C490.202 91.9939 489.449 91.8439 489.449 91.8947C489.449 91.9458 489.833 92.435 490.302 92.9825C492.129 95.1149 492.855 97.907 492.224 100.368C491.654 102.586 490.15 104.139 486.636 106.138C484.925 107.111 482.811 108.481 481.939 109.181C479.37 111.243 477.842 114.222 477.682 117.478C477.638 118.382 477.584 119.496 477.562 119.953C477.537 120.472 477.365 120.785 477.106 120.785C476.687 120.785 476.517 119.649 476.629 117.609C476.722 115.934 476.068 113.702 474.38 109.931C472.818 106.442 472.695 106.012 472.581 103.65C472.446 100.839 472.182 100.718 471.122 102.983C470.274 104.796 470.435 106.545 471.859 110.955C473.455 115.902 473.786 119.315 472.857 121.251C472.068 122.896 471.269 123.802 469.452 125.116C464.313 128.832 463.148 135.335 466.044 144.129C466.446 145.347 467.21 147.291 467.743 148.449L468.712 150.555L468.143 153.288C467.139 158.113 466.899 160.829 467.066 165.509C467.153 167.944 467.43 170.956 467.683 172.204C469.937 183.359 476.701 194.182 488.12 204.904C493.682 210.127 494.674 211.178 496.364 213.65C501.16 220.662 502.32 228.042 499.577 234.105C497.284 239.176 492.572 241.836 486.725 241.359C482.97 241.053 480.676 240.136 478.092 237.908C471.425 232.158 465.916 229.099 460.519 228.15L458.434 227.783L457.444 225.599C456.07 222.569 452.276 217.887 446.059 211.55C443.216 208.654 440.716 206.136 440.502 205.955C440.288 205.774 439.373 203.584 438.469 201.089C435.839 193.833 433.334 187.852 428.526 177.346L424.027 167.516L424.008 169.277C423.99 170.827 423.034 174.739 422.346 176.082C422.193 176.38 421.937 175.861 421.535 174.436C421.045 172.698 419.057 168.709 418.813 168.974C418.772 169.018 419.001 169.933 419.32 171.007C419.718 172.348 419.943 174.08 420.037 176.534C420.163 179.811 420.113 180.312 419.435 182.583C418.534 185.604 418.382 185.887 417.794 185.641C417.485 185.512 417.331 185.1 417.331 184.408C417.331 183.046 416.554 178.976 416.072 177.81C415.712 176.941 415.702 176.981 415.887 178.555C416.496 183.748 415.99 187.145 414.175 190.049L413.324 191.41L412.73 188.688C412.111 185.849 411.118 182.855 410.622 182.336C410.425 182.129 410.384 182.224 410.493 182.639C411.285 185.639 411.479 190.126 410.907 192.207C410.455 193.852 409.697 193.799 409.448 192.105C409.249 190.746 408.269 188.742 407.918 188.978C407.802 189.056 407.628 190.452 407.531 192.08C407.344 195.209 406.922 197.289 405.932 199.948C405.07 202.265 404.499 202.04 404.218 199.271C403.89 196.026 403.221 192.279 402.734 190.952L402.295 189.754L400.965 192.166C400.234 193.493 399.123 195.246 398.497 196.061C397.871 196.876 397.359 197.641 397.359 197.759C397.359 198.259 401.171 202.9 404.124 205.995C408.042 210.103 411.703 213.468 416.179 217.079C418.062 218.598 420.866 220.862 422.409 222.11C425.627 224.711 427.427 227.074 429.253 231.092C431.667 236.404 432.756 244.482 432.282 253.566C432.173 255.646 432.071 259.525 432.054 262.186C432.03 266.235 431.929 267.347 431.437 268.992C430.726 271.373 430.597 275.672 431.17 277.914C431.724 280.08 433.213 283.094 434.683 285.022C436.445 287.336 437.026 288.666 437.018 290.379C437.006 293.302 434.98 296.077 432.201 296.976C430.45 297.544 429.922 297.537 428.193 296.928C426.761 296.424 425.414 295.273 424.346 293.642L423.752 292.735L423.454 293.586C422.917 295.118 423.097 297.188 423.918 298.955C425.417 302.176 428.484 303.681 431.767 302.807C433.224 302.419 433.49 302.415 433.618 302.779C433.701 303.014 433.456 303.572 433.074 304.019C431.697 305.635 431.373 306.479 431.373 308.448C431.373 311.627 433.172 314.109 435.813 314.577L436.843 314.759L436.043 313.616C434.991 312.111 434.771 309.323 435.577 307.706C436.343 306.171 438.552 304.835 441.562 304.086C444.81 303.279 446.371 302.665 447.496 301.752C448.484 300.951 449.229 299.616 449.229 298.647C449.229 297.456 450.225 297.919 450.724 299.343C451.391 301.247 452.905 303.033 454.369 303.643C456.868 304.683 461.298 303.664 468.196 300.463C471.727 298.825 473.597 298.33 476.267 298.33C478.916 298.33 480.18 298.911 480.931 300.473C481.768 302.214 481.237 304.561 479.2 308.126L478.144 309.975L477.982 316.629C477.808 323.779 477.451 326.265 476.289 328.421C474.334 332.048 470.356 332.512 464.552 329.789C463.532 329.31 463.05 328.877 462.797 328.21C462.605 327.704 461.921 326.511 461.277 325.557C458.302 321.151 453.503 321.202 450.796 325.669C449.873 327.193 449.613 329.057 450.135 330.419C450.354 330.991 450.622 332.102 450.73 332.887L450.926 334.314L451.502 333.729C453.024 332.183 455.978 331.514 458.237 332.204C459.869 332.702 461.858 334.523 461.411 335.109C461.146 335.458 460.954 335.401 460.259 334.763C459.801 334.343 459.048 333.786 458.587 333.526C457.46 332.89 454.831 332.914 453.638 333.572C452.341 334.286 451.171 335.535 451.171 336.205C451.171 337.317 452.564 339.723 453.957 341.016C454.74 341.744 455.979 342.921 456.711 343.633L458.041 344.927L458.233 344.096C458.831 341.497 461.179 337.82 462.839 336.884C464.439 335.982 466.111 336.454 467.675 338.25C468.989 339.758 470.217 340.469 471.157 340.264C471.839 340.115 471.974 340.183 471.974 340.677C471.974 341.475 470.821 341.761 469.681 341.247C469.188 341.024 468.068 340.124 467.192 339.246C465.823 337.875 465.443 337.651 464.488 337.651C463.608 337.651 463.154 337.87 462.3 338.712C461.155 339.84 459.405 343.181 459.078 344.864C458.907 345.746 459.001 346.012 459.811 346.935C460.96 348.244 463.814 350.5 465.072 351.096C466.484 351.764 468.129 351.678 469.229 350.879L469.229 350.876ZM346.737 343.019C348.57 342.011 349.372 339.888 349.372 336.045C349.372 333.702 349.387 333.649 349.996 333.832C353.251 334.805 355.473 333.987 359.662 330.276L361.214 328.901L361.083 331.862C360.993 333.911 361.06 335.042 361.302 335.535C361.651 336.246 361.652 336.245 362.2 335.057C362.911 333.512 364.241 331.985 365.46 331.311C365.994 331.016 367.565 330.424 368.952 329.995C370.338 329.566 372.148 328.884 372.974 328.481C376.287 326.862 379.37 323.522 380.916 319.878C381.366 318.816 381.756 318.29 382.092 318.29C382.537 318.29 382.61 318.648 382.722 321.39C382.791 323.095 383.001 324.898 383.188 325.397L383.529 326.304L384 324.792C384.595 322.887 385.873 320.861 388.229 318.09C390.34 315.608 391.221 313.836 391.653 311.208L391.955 309.367L392.848 310.948C395.541 315.719 401.414 316.211 404.935 311.961C405.498 311.282 405.958 310.663 405.958 310.586C405.958 310.508 405.289 310.464 404.471 310.488C400.637 310.598 398.803 306.612 400.446 301.741C400.965 300.202 401.535 299.457 405.161 295.567C407.796 292.741 409.45 290.72 409.741 289.971C410.735 287.413 410.065 283.785 407.866 279.817C406.445 277.253 405.968 275.14 405.962 271.396C405.955 266.598 407.213 262.948 410.25 258.959C412.782 255.633 417.847 251.595 422.926 248.855L425.033 247.718L423.677 246.549C421.721 244.863 420.851 243.231 420.713 240.986C420.591 238.997 421.058 237.592 422.435 235.808L423.128 234.91L421.963 233.467L420.798 232.024L415.528 233.688C411.848 234.85 409.337 235.458 407.206 235.703C395.84 237.01 389.452 240.846 382.362 250.621C381.128 252.322 379.535 254.245 378.823 254.893C374.821 258.533 370.158 258.713 367.072 255.348C366.338 254.548 365.738 253.751 365.738 253.577C365.738 253.403 365.596 253.26 365.422 253.26C364.861 253.26 365.395 256.31 366.311 258.337C366.911 259.667 367.591 260.605 368.56 261.44C369.323 262.098 370.062 262.637 370.201 262.637C370.34 262.637 370.453 262.891 370.453 263.202C370.453 263.689 370.174 263.787 368.442 263.91C364.332 264.203 361.71 266.767 359.5 272.654C356.895 279.591 352.729 283.718 347.297 284.741C345.616 285.057 345.452 285.142 346.049 285.389C347.243 285.88 350.555 286.016 352.207 285.642C355.996 284.783 359.613 281.729 362.723 276.761C366.384 270.914 371.253 266.798 376.033 265.509C376.89 265.278 377.448 266.172 376.62 266.451C374.535 267.151 372.143 268.319 370.674 269.354C368.639 270.787 365.915 273.721 364.517 275.984C363.417 277.765 363.491 278.108 365.095 278.685C367.246 279.459 370.12 278.183 375.033 274.273C376.803 272.864 378.356 271.711 378.484 271.711C379.093 271.711 378.923 272.638 378.171 273.415C375.01 276.681 373.984 280.682 373.648 291.068C373.459 296.896 373.15 299.005 372.113 301.535C370.709 304.961 368.248 307.098 363.76 308.787C362.061 309.426 360.569 309.653 354.92 310.133C345.521 310.932 346.388 311.016 346.191 309.292C345.821 306.042 344.407 304.679 341.405 304.679C338.607 304.679 335.718 306.192 334.615 308.235L334.142 309.11L335.801 309.652C337.97 310.36 339.642 312.09 340.459 314.469C340.784 315.419 341.051 316.459 341.051 316.782C341.051 317.945 342.239 318.397 344.739 318.183C345.991 318.076 347.545 317.903 348.193 317.797C349.241 317.627 349.372 317.672 349.372 318.201C349.372 318.735 349.048 318.837 346.223 319.192C341.552 319.779 340.634 319.327 339.819 316.045C339.241 313.718 337.744 311.649 336.132 310.95C335.557 310.701 334.307 310.4 333.352 310.28C328.808 309.712 325.659 312.505 326.223 316.604L326.402 317.91L327.83 318.094C329.659 318.33 332.192 319.695 334.585 321.733C337.293 324.039 338.095 324.42 340.579 324.581C342.384 324.698 342.727 324.802 342.653 325.211C342.582 325.601 342.201 325.7 340.767 325.7C338.379 325.7 336.879 325.025 333.932 322.63C330.501 319.841 329.602 319.384 327.505 319.365C325.921 319.35 325.683 319.431 325.088 320.185C324.085 321.454 323.772 323.195 323.933 326.607C324.279 333.978 327.741 338.895 331.491 337.341C331.898 337.172 333.015 336.213 333.973 335.21L335.715 333.385L335.573 334.764C335.212 338.257 338.224 341.963 342.445 343.219C343.978 343.675 345.69 343.595 346.737 343.019V343.019ZM348.893 247.895C350.206 247.327 351.673 245.485 352.126 243.838C352.586 242.163 352.54 238.981 352.027 236.941C351.799 236.034 351.638 235.277 351.671 235.259C351.703 235.241 352.666 234.603 353.81 233.842C354.955 233.08 358.013 231.131 360.606 229.51C371.215 222.878 374.626 219.696 374.61 216.445C374.604 215.553 374.306 214.856 373.299 213.395L372.677 212.493L379.011 212.655C384.915 212.807 385.476 212.775 387.281 212.177C389.623 211.401 391.422 209.966 392.633 207.909C393.679 206.132 394.721 202.763 395.009 200.228C395.185 198.681 395.382 198.251 396.601 196.75C398.019 195.002 400.647 190.836 401.267 189.351C401.571 188.623 401.539 188.444 400.991 187.807C400.649 187.411 399.786 186.852 399.073 186.566C395.936 185.307 394.588 183.668 394.586 181.112V179.588L393.053 181.169C390.482 183.821 387.106 185.123 383.878 184.71C382.493 184.532 382.403 184.568 381.234 185.746C380.568 186.417 379.337 188.213 378.498 189.738C376.113 194.074 373.836 196.577 370.145 198.921C369.121 199.571 368.806 199.656 368.568 199.343C368.347 199.053 368.488 198.569 369.115 197.47C371.053 194.076 372.13 188.699 371.716 184.485C371.517 182.455 371.511 182.443 370.954 182.99C370.645 183.294 367.79 187.694 364.609 192.768L358.826 201.993L356.884 202.844C354.007 204.104 352.566 205.679 350.693 209.605C349.834 211.407 348.717 213.316 348.212 213.847C346.33 215.825 343.329 216.597 341.234 215.643C340.734 215.415 339.714 214.449 338.967 213.497C336.208 209.974 333.239 209.089 330.316 210.917C328.693 211.931 327.592 213.654 327.32 215.604C327.114 217.082 328.058 219.331 329.125 219.901C329.736 220.227 331.641 221.26 336.475 223.885C338.166 224.803 340.868 224.896 342.545 224.093C343.347 223.709 343.7 223.665 343.932 223.921C344.615 224.678 342.129 225.762 339.66 225.783C337.866 225.798 336.823 225.395 332.869 223.158C327.485 220.113 323.918 219.866 321.603 222.379C319.345 224.831 319.752 230.03 322.465 233.4C323.924 235.212 324.042 235.24 329.679 235.157C335.916 235.066 336.872 234.802 338.868 232.626C339.864 231.539 340.347 231.199 340.561 231.432C340.986 231.895 339.626 233.751 338.076 234.823C336.336 236.027 334.713 236.322 329.847 236.322C324.946 236.322 324.701 236.443 324.478 238.975C324.081 243.483 328.815 247.332 333.486 246.297C334.367 246.102 335.851 245.505 336.783 244.97L338.479 243.998L339.716 245.42C342.317 248.407 345.642 249.304 348.894 247.895H348.893ZM431.477 247.199C431.477 244.014 430.252 236.506 429.3 233.848C428.613 231.933 421.418 226.117 417.201 224.069C414.828 222.915 414.814 222.913 413.83 223.424L412.842 223.938L415.274 225.82C418.191 228.077 421.993 231.698 423.521 233.674L424.631 235.109L423.616 236.184C422.243 237.637 421.672 238.927 421.667 240.582C421.654 244.331 425.889 247.955 430.437 248.088C431.417 248.117 431.477 248.065 431.477 247.199V247.199ZM406.09 195.562C406.356 194.355 406.654 191.8 406.751 189.884L406.929 186.402L408.002 187.368C408.592 187.899 409.304 188.745 409.585 189.248C410.025 190.037 410.121 190.089 410.284 189.625C410.618 188.677 409.844 184.034 408.857 181.06C408.33 179.475 407.9 178.14 407.9 178.095C407.9 178.049 408.091 177.932 408.324 177.834C409.326 177.415 411.833 181.642 413.104 185.897L413.895 188.543L414.401 187.404C415.514 184.896 415.195 178.526 413.723 173.858C413.063 171.767 413.043 171.411 413.574 171.189C414.423 170.833 417.244 177.141 417.981 181.042L418.339 182.938L418.726 181.274C419.263 178.962 419.203 174.904 418.593 172.352C418.315 171.187 417.616 169.118 417.04 167.754C416.201 165.768 416.064 165.209 416.352 164.948C416.978 164.381 421.313 170.139 422.142 172.638C422.41 173.445 422.711 172.274 422.821 170.003C422.916 168.026 422.763 166.57 422.077 162.941C420.811 156.237 420.976 153.197 422.758 150.394C423.972 148.483 424.892 148.894 423.967 150.933C423.663 151.602 423.293 152.979 423.143 153.994C422.543 158.052 424.087 161.216 427.94 163.832C428.563 164.255 428.703 164.569 428.703 165.542C428.703 167.774 429.736 170.056 431.729 172.223C434.985 175.766 438.757 177.069 442.905 176.087L444.375 175.738L443.127 175.292C441.377 174.666 440.103 173.54 439.497 172.084C438.801 170.413 438.839 169.032 439.633 167.174C440.313 165.58 441.325 164.558 443.28 163.488C444.952 162.573 447.069 160.363 447.934 158.63C449.677 155.138 449.019 151.447 445.872 147.068C445.307 146.282 445.175 145.891 445.395 145.651C445.614 145.412 446.242 145.82 447.665 147.126C450.041 149.307 452.093 150.415 454.185 150.648L455.748 150.821L454.879 150.021C453.661 148.898 453.113 147.46 453.113 145.39C453.113 143.833 453.338 143.107 455.026 139.235C457.192 134.265 457.702 132.323 457.429 130.082C457.207 128.261 456.985 127.759 455.724 126.237C454.962 125.317 454.847 125.026 455.143 124.759C455.425 124.503 455.892 124.78 457.155 125.954C460.67 129.222 462.505 129.452 464.029 126.817L464.475 126.046L463.24 125.686C461.661 125.225 460.336 123.937 460.089 122.623C459.984 122.06 460.075 120.284 460.29 118.676C460.506 117.069 460.596 115.249 460.49 114.632C460.241 113.185 458.938 111.581 457.082 110.439C456.272 109.941 455.609 109.405 455.609 109.25C455.609 108.65 456.436 108.668 457.559 109.293C459.203 110.207 461.408 110.407 462.888 109.776C463.922 109.335 465.595 108.038 465.595 107.678C465.595 107.608 464.992 107.464 464.256 107.357C462.415 107.091 460.221 105.834 459.24 104.483C458.084 102.891 457.61 101.37 457.313 98.2919C456.995 95.0032 456.001 92.6712 454.323 91.2753C453.443 90.543 453.239 90.2146 453.431 89.8393C453.65 89.413 453.88 89.48 455.29 90.3814C458.165 92.2186 461.534 93.326 462.728 92.8262C463.106 92.6681 462.986 92.478 462.108 91.8453C460.317 90.5553 458.106 88.0609 457.374 86.5041C456.996 85.7012 456.374 83.6614 455.99 81.9714C455.129 78.1739 453.743 75.2407 451.668 72.8223L450.079 70.9698L450.924 70.0907C452.143 68.8217 453.89 65.8665 454.226 64.5062C454.617 62.923 454.32 61.8614 453.284 61.147C452.157 60.3696 449.583 60.5469 446.7 61.6003C445.043 62.2062 443.825 62.3906 440.31 62.5679L435.966 62.7871L435.538 61.883C434.649 60.0081 432.531 59.855 429.423 61.4409C427.785 62.2765 427.396 62.3498 424.499 62.3665C421.334 62.3843 418.951 62.8536 417.304 63.782C416.37 64.3091 415.391 65.8632 415.39 66.8237C415.39 67.3851 415.181 67.4817 413.631 67.6395C411.885 67.8172 410.865 68.1702 409.595 69.036C409.112 69.3644 408.054 69.4943 405.711 69.5125C403.241 69.5318 402.2 69.6687 401.242 70.1011C398.177 71.4853 397.952 72.8766 400.378 75.4495L402.01 77.1802L401.6 79.0938C401.043 81.6899 401.233 85.4456 402.001 87.0568C403.323 89.8269 405.204 90.967 408.454 90.969C411.012 90.969 413.337 90.3347 416.586 88.7454C418.33 87.8923 418.426 87.8785 419.593 88.3158C423.225 89.6776 426.513 92.7488 428.17 96.3281C430.467 101.29 430.792 109.11 428.87 113.161C427.27 116.533 422.012 116.889 420.793 113.709L420.406 112.699L415.471 112.297C407.659 111.661 407.737 111.643 408.062 113.976C408.389 116.319 412.584 119.971 416.637 121.439C418.355 122.061 419.107 122.142 423.156 122.142C427.985 122.142 430.618 121.707 435.776 120.056C437.725 119.432 438.025 119.402 438.24 119.806C438.56 120.406 437.818 121.025 434.898 122.593C430.587 124.909 427.177 125.734 421.907 125.736C416.967 125.736 414.936 125.354 409.286 123.354C403.551 121.323 402.193 120.921 399.492 120.459C396.807 119.999 392.874 120.248 389.946 121.063C381.648 123.373 374.404 123.187 369.803 120.547C369.016 120.095 368.259 119.673 368.12 119.608C367.981 119.542 368.288 120.126 368.8 120.905C371.236 124.602 375.066 126.542 380.847 127.004C383.09 127.184 383.49 127.295 383.49 127.738C383.49 128.177 383.018 128.318 380.508 128.625C377.194 129.03 375.926 129.528 373.905 131.22C371.639 133.117 369.35 134.14 367.396 134.13C366.469 134.124 365.479 134.041 365.196 133.943C364.381 133.661 361.396 134.297 360.021 135.046C358.298 135.984 356.822 137.827 355.67 140.477C354.059 144.182 354.068 144.263 355.942 142.861C358.273 141.117 359.766 140.88 363.337 141.688C366.954 142.506 368.435 142.347 372.049 140.754C373.614 140.064 375.018 139.584 375.17 139.686C375.945 140.209 375.218 140.79 372.168 142.084C366.496 144.489 363.754 147.285 362.134 152.31C361.844 153.21 361.356 155.842 361.049 158.16C360.742 160.478 360.293 163.326 360.052 164.489C358.519 171.869 355.696 177.699 351.98 181.162C351.149 181.936 350.504 182.609 350.548 182.657C350.794 182.925 353.673 181.979 355.401 181.062C357.599 179.895 360.354 177.029 361.719 174.489C362.43 173.167 363.021 172.776 363.372 173.395C363.576 173.756 362.329 179.178 361.466 181.678C360.482 184.526 359.252 187.032 357.967 188.806C356.648 190.624 356.622 190.62 360.052 189.145C363.449 187.683 366.678 185.428 370.39 181.923C371.348 181.019 372.215 180.372 372.318 180.484C372.421 180.596 372.558 182.713 372.622 185.187C372.752 190.172 372.379 192.84 371.15 195.729L370.468 197.329L371.313 196.787C373.701 195.256 375.455 193.017 378.583 187.504C379.012 186.749 379.961 185.548 380.693 184.837L382.023 183.542H384.767C387.172 183.542 387.711 183.441 389.116 182.723C391.082 181.719 393.701 179.047 395.203 176.514C396.233 174.777 396.848 174.258 397.175 174.847C397.245 174.971 396.934 176.08 396.485 177.31C395.469 180.096 395.341 182.128 396.111 183.241C396.723 184.125 397.187 184.438 399.883 185.789C402.707 187.203 403.863 189.508 404.77 195.536C405.02 197.193 405.31 198.372 405.415 198.154C405.52 197.936 405.824 196.77 406.09 195.562V195.562ZM419.557 79.1065C416.746 77.4092 415.792 73.0514 417.619 70.254C417.918 69.7958 418.163 69.3204 418.163 69.1975C418.163 69.0746 417.133 69.0506 415.874 69.144C413.652 69.3089 413.614 69.3006 414.557 68.8576C415.091 68.6067 416.244 68.3266 417.121 68.2354C419.708 67.9658 420.825 68.6167 424.243 72.3837C426.417 74.7787 427.645 75.8734 428.981 76.6056L430.783 77.5941L428.911 77.4454C427.881 77.3635 427.039 77.3955 427.039 77.5161C427.039 77.6369 426.396 78.1173 425.61 78.5836C423.697 79.7189 420.962 79.955 419.557 79.1063V79.1065ZM425.151 77.9222C425.884 77.487 426.483 77.0505 426.482 76.9521C426.482 76.8538 425.958 76.4092 425.319 75.9641L424.157 75.1548L423.381 75.8675C422.308 76.8512 421.643 77.0263 420.517 76.6209C418.612 75.9354 418.085 73.6359 419.483 72.1113C419.904 71.6523 420.434 71.1964 420.662 71.0983C420.991 70.9564 420.934 70.7936 420.382 70.2994C419.428 69.4463 419.136 69.504 418.29 70.7128C417.334 72.0806 417.125 73.8304 417.717 75.5203C418.878 78.8372 421.941 79.8269 425.151 77.9222V77.9222ZM420.921 73.9317C421.129 73.5069 421.097 73.2633 420.795 72.9905C420.263 72.5089 419.55 72.8223 419.55 73.5376C419.55 74.6251 420.453 74.8848 420.921 73.9317ZM435.919 67.0513C435.928 65.3332 436.592 64.9583 440.376 64.5376C444.286 64.1028 446.034 63.7363 448.419 62.8522C452.347 61.3952 454.139 62.0975 453.063 64.6724C452.723 65.4859 451.779 65.6028 451.968 64.8081C452.024 64.5685 452.132 64.1342 452.208 63.843C452.32 63.4115 452.167 63.3138 451.377 63.3138C450.844 63.3138 449.862 63.5277 449.195 63.7894C447.184 64.5772 443.334 65.4105 440.728 65.6219C437.758 65.8628 437.025 66.123 437.025 66.9358C437.025 67.2727 436.972 67.5482 436.909 67.5482C436.845 67.5482 436.595 67.6308 436.354 67.7318C436.016 67.8731 435.916 67.7155 435.919 67.0513V67.0513ZM347.26 155.867C346.744 153.738 346.963 151.921 348.032 149.464C349.331 146.478 349.459 144.941 348.658 141.937C347.845 138.887 347.835 138.627 348.529 138.627C348.957 138.627 349.193 139.052 349.639 140.625C349.95 141.724 350.204 142.91 350.204 143.26C350.204 143.611 350.731 145.057 351.375 146.474C352.961 149.965 355.459 152.755 358.272 154.175L360.308 155.204L360.901 153.04C361.227 151.85 361.635 150.5 361.808 150.039C362.309 148.703 364.201 146.072 365.598 144.771L366.884 143.572L363.681 142.88C358.751 141.813 356.916 142.508 353.946 146.565C353.346 147.384 353.01 147.622 352.729 147.426C352.405 147.201 352.467 146.714 353.105 144.484C354.695 138.924 356.905 135.459 359.878 133.867C361.341 133.084 361.667 133.031 365.094 133.028C367.105 133.028 368.842 132.923 368.954 132.801C369.067 132.678 368.947 132.578 368.688 132.578C367.684 132.578 363.728 130.662 362.441 129.552C361.454 128.701 360.75 127.691 359.831 125.809C357.218 120.453 354.779 117.201 351.769 115.063C349.399 113.379 347.215 112.579 344.367 112.35C342.097 112.168 341.932 112.104 340.488 110.85C337.166 107.966 337.141 105.954 340.399 103.51C342.843 101.677 343.371 99.3437 341.912 96.8348C340.031 93.5996 336.129 91.9614 333.643 93.363C332.315 94.1114 331.268 95.639 331.449 96.5621C331.534 96.9904 331.737 99.0422 331.902 101.122C332.294 106.055 332.748 107.765 334.053 109.219C334.622 109.852 335.39 110.579 335.76 110.834C336.211 111.145 336.374 111.464 336.255 111.802C335.853 112.945 332.865 110.081 331.85 107.578C331.507 106.732 331.189 104.704 330.922 101.664C330.325 94.8483 329.831 93.0671 328.3 92.2041C325.566 90.6623 320.163 93.1772 318.588 96.7246C317.87 98.3426 317.952 98.726 319.553 101.224C320.21 102.249 321.393 104.313 322.183 105.81C322.972 107.307 324.071 109.043 324.626 109.668C325.649 110.821 328.008 112.01 329.273 112.01C329.783 112.01 329.956 112.172 329.956 112.649C329.956 113.221 329.847 113.267 328.916 113.088C325.214 112.377 323.936 111.226 321.114 106.064C318.247 100.82 317.945 100.516 315.62 100.518C313.256 100.518 311.251 102.576 310.362 105.907C309.17 110.381 310.783 113.748 314.272 114.063C315.545 114.179 315.809 114.3 315.809 114.77C315.809 115.093 315.614 115.337 315.357 115.337C314.457 115.337 313.074 116.561 312.745 117.65C311.519 121.7 316.956 129.553 320.986 129.553C322.307 129.553 323.704 128.1 324.273 126.136C324.524 125.271 324.788 124.362 324.861 124.116C324.944 123.837 325.303 124.287 325.82 125.317C326.902 127.476 327.512 128.17 329.678 129.712C331.645 131.112 332.287 131.437 336.566 133.199C339.928 134.584 341.324 135.687 342.201 137.651C342.872 139.152 342.973 140.998 342.755 147.785C342.678 150.196 342.746 150.615 343.486 152.341C344.202 154.008 347.25 157.98 347.557 157.645C347.615 157.582 347.481 156.782 347.26 155.867V155.867ZM509.658 125.762C512.349 122.552 514.2 117.845 515.275 111.483C516.133 106.396 516.833 104.905 520.185 101.018C522.106 98.7903 523.274 97.1393 523.883 95.7898C525.871 91.387 524.97 87.6817 521.493 85.9595C519.808 85.125 519.591 85.2592 520.475 86.5889C523.265 90.7889 521.575 95.716 516.449 98.3256C514.893 99.118 514.652 99.1501 510.253 99.1528C505.891 99.1528 505.603 99.1927 504.117 99.9526C500.866 101.615 499.13 104.073 496.838 110.257C496.005 112.504 494.99 115.063 494.581 115.942C493.938 117.327 493.907 117.509 494.348 117.306C495.5 116.777 497.194 116.475 497.91 116.672C499.158 117.013 500.195 118.384 500.415 119.984C500.588 121.243 500.28 124.709 499.816 126.724C499.66 127.401 499.697 127.427 500.393 127.139C501.546 126.661 504.421 126.798 505.954 127.405C506.802 127.74 507.515 127.857 507.789 127.706C508.035 127.569 508.877 126.695 509.658 125.762V125.762ZM426.068 114.419C428.095 113.598 429.072 110.844 429.068 105.961C429.061 99.2459 426.795 94.12 422.491 91.0865C421.589 90.4507 420.739 89.9305 420.603 89.9305C420.467 89.9305 420.756 90.5658 421.246 91.3422C422.396 93.1643 423.799 96.8352 424.251 99.2031C424.465 100.322 424.562 102.314 424.493 104.194C424.397 106.814 424.251 107.627 423.597 109.196C423.167 110.227 422.58 111.303 422.292 111.587C421.673 112.198 421.603 113.601 422.167 114.111C423.091 114.947 424.491 115.058 426.068 114.419ZM416.221 109.76C416.221 107.972 415.813 107.788 415.122 109.265C414.371 110.87 414.405 111.103 415.389 111.103C416.189 111.103 416.221 111.051 416.221 109.76V109.76ZM412.462 109.061C412.355 108.105 412.236 107.281 412.196 107.231C412.055 107.053 411.02 109.148 410.842 109.969C410.672 110.758 410.714 110.8 411.659 110.8H412.655L412.462 109.061ZM406.63 93.8422L406.817 92.1583L405.815 91.8231L404.813 91.4877L405.004 92.4482C405.165 93.2563 406.281 95.755 406.404 95.5814C406.426 95.5511 406.527 94.7683 406.63 93.8422V93.8422ZM410.476 93.7868C410.624 92.1486 410.598 92.0478 410.029 92.0522C408.853 92.0614 408.645 92.4469 409.133 93.7196C409.556 94.823 410.129 95.7852 410.259 95.6089C410.292 95.5632 410.39 94.7433 410.476 93.7868Z" fill="black"/>
<path d="M429.158 104.676C429.46 107.064 429.516 109.049 429.005 110.106C424.445 100.562 415.532 99.2479 407.705 106.848C392.35 117.819 378.171 100.905 381.273 90.5566C386.464 78.9219 401.101 87.7161 393.838 98.0755C390.398 105.61 401.687 106.602 407.705 102.336C417.955 93.9659 425.082 96.9536 429.235 104.759" fill="#DA121A"/>
<path d="M429.158 104.676C429.46 107.064 429.516 109.049 429.005 110.106C424.445 100.562 415.532 99.2479 407.705 106.848C392.35 117.819 378.171 100.905 381.273 90.5566C386.464 78.9219 401.101 87.7161 393.838 98.0755C390.398 105.61 401.687 106.602 407.705 102.336C417.955 93.9659 425.082 96.9536 429.235 104.759" stroke="#050005" stroke-width="2.45381"/>
<path d="M314.081 124.558C314.19 129.624 310.577 131.71 306.572 130.49C311.358 136.326 316.967 133.607 319.75 127.65C321.257 124.077 316.299 121.281 314.081 124.558Z" fill="#DA121A" stroke="black" stroke-width="2.45381"/>
<path d="M311.26 109.505C307.268 106.91 303.826 109.314 302.831 113.717C300.524 106.303 305.453 102.315 311.579 102.601C315.173 102.927 314.968 109.01 311.26 109.505V109.505Z" fill="#DA121A" stroke="black" stroke-width="2.45381"/>
<path d="M319.368 97.8865C318.512 92.9064 314.581 91.6828 310.895 93.7817C314.467 86.9903 320.471 88.3818 324.327 93.5806C326.48 96.7348 322.162 100.591 319.368 97.8865Z" fill="#DA121A" stroke="black" stroke-width="2.45381"/>
<path d="M334.118 96.385C336.063 91.7833 333.507 88.3046 329.387 87.6897C335.905 84.4061 340.062 89.3304 340.447 96.0033C340.529 99.9347 334.96 100.354 334.118 96.385V96.385Z" fill="#DA121A" stroke="black" stroke-width="2.45381"/>
<path d="M329.386 216.676C327.281 212.159 323.193 212.189 320.196 215.332C321.874 207.72 327.995 207.216 333.035 211.024C335.915 213.391 332.764 218.416 329.386 216.676V216.676Z" fill="#DA121A" stroke="black" stroke-width="2.45381"/>
<path d="M322.511 230.176C318.878 227.016 315.169 228.89 313.636 233.105C312.271 225.419 317.65 222.195 323.684 223.384C327.205 224.237 326.246 230.233 322.511 230.176Z" fill="#DA121A" stroke="black" stroke-width="2.45381"/>
<path d="M327.978 244.026C323.62 242.266 320.636 245.313 320.392 249.84C316.887 243.007 321.069 238.108 327.14 237.175C330.729 236.782 331.541 242.804 327.978 244.026V244.026Z" fill="#DA121A" stroke="black" stroke-width="2.45381"/>
<path d="M335.895 308.634C333.004 304.667 329.005 305.588 326.645 309.321C326.893 301.497 332.798 299.669 338.435 302.301C341.69 303.993 339.524 309.603 335.895 308.634Z" fill="#DA121A" stroke="black" stroke-width="2.45381"/>
<path d="M326.934 316.819C323.694 313.186 319.799 314.537 317.792 318.509C317.324 310.696 323.032 308.235 328.881 310.241C332.275 311.57 330.633 317.388 326.934 316.819Z" fill="#DA121A" stroke="black" stroke-width="2.45381"/>
<path d="M328.82 329.615C324.228 328.84 321.863 332.476 322.453 336.964C317.766 331.033 320.966 325.321 326.744 323.084C330.188 321.918 332.088 327.641 328.82 329.615V329.615Z" fill="#DA121A" stroke="black" stroke-width="2.45381"/>
<path d="M452.329 332.234C447.758 331.326 445.305 334.891 445.785 339.395C441.245 333.331 444.583 327.713 450.414 325.645C453.885 324.579 455.644 330.355 452.329 332.234Z" fill="#DA121A" stroke="black" stroke-width="2.45381"/>
<path d="M455.96 341.774C451.541 343.342 450.934 347.75 453.318 351.465C446.682 348.478 447.174 341.806 451.405 336.967C453.996 334.232 458.059 338.405 455.96 341.774V341.774Z" fill="#DA121A" stroke="black" stroke-width="2.45381"/>
<path d="M466.075 348.461C461.655 350.025 461.045 354.432 463.426 358.15C456.792 355.157 457.289 348.485 461.523 343.65C464.116 340.917 468.177 345.093 466.075 348.461V348.461Z" fill="#DA121A" stroke="black" stroke-width="2.45381"/>
<path d="M476.747 345.957C478.943 350.422 476.585 354.063 472.506 354.948C479.194 357.796 483.071 352.607 483.086 345.921C482.95 341.992 477.368 341.94 476.747 345.957V345.957Z" fill="#DA121A" stroke="black" stroke-width="2.45381"/>
<path d="M338.281 338.62C338.389 343.686 334.775 345.77 330.771 344.548C335.554 350.386 341.164 347.67 343.95 341.713C345.458 338.141 340.501 335.343 338.281 338.62Z" fill="#DA121A" stroke="black" stroke-width="2.45381"/>
<path d="M342.452 246.062C344.648 250.528 342.29 254.168 338.211 255.053C344.899 257.902 348.776 252.713 348.791 246.027C348.655 242.097 343.073 242.045 342.452 246.062V246.062Z" fill="#DA121A" stroke="black" stroke-width="2.45381"/>
<path d="M404.725 91.4189C404.803 92.9768 405.549 94.4933 406.55 95.9942L406.876 92.0848L404.725 91.4189Z" fill="white" stroke="black"/>
<path d="M408.448 91.8574C408.695 93.398 409.602 94.8266 410.76 96.2127L410.66 92.2914L408.448 91.8574Z" fill="white" stroke="black"/>
<path d="M410.552 111.141C410.748 109.593 411.607 108.136 412.719 106.714L412.748 110.636L410.552 111.141Z" fill="white" stroke="black"/>
<path d="M414.357 111.609C414.553 110.061 415.412 108.604 416.524 107.182L416.553 111.104L414.357 111.609Z" fill="white" stroke="black"/>
</g>
<defs>
<clipPath id="clip0_1_5688">
<rect width="600" height="400" fill="white"/>
</clipPath>
</defs>
</svg>
