<svg width="600" height="400" viewBox="0 0 600 400" fill="none" xmlns="http://www.w3.org/2000/svg" xmlns:cgf="https://coding.garden/flags"><metadata id="cgf-metadata">

<cgf:flag>
  <cgf:name>Son en Breugel</cgf:name>
  <cgf:route>nl/nb/son_en_breugel</cgf:route>
  <cgf:aspect-ratio>1.5</cgf:aspect-ratio>
</cgf:flag>

</metadata><g clip-path="url(#clip0_1_5719)">
<path d="M600 0H0V400H600V0Z" fill="#FFFF00"/>
<path d="M0 200L150 400L300 200L150 0L0 200Z" fill="#0000FF"/>
<path d="M300 200L450 400L600 200L450 0L300 200Z" fill="#0000FF"/>
<path d="M150 36L144.8 146.5C141.2 146.9 137.7 147.7 134.4 148.7L114.5 114L124.9 152.6C121.7 154.3 118.8 156.3 116 158.6L84.3699 134.1L108.8 165.8C106.5 168.5 104.5 171.5 102.8 174.7L64.2399 164.2L98.9799 184C97.9499 187.4 97.1999 190.9 96.8599 194.6L95.4199 194.7L24.6699 199.7L95.9899 204.7L96.8599 204.8C97.1999 208.4 97.9499 212 98.9799 215.3L64.2399 235.2L102.9 224.8C104.6 227.9 106.6 230.9 108.8 233.6L84.3699 265.3L116.1 240.9C118.8 243.1 121.8 245.1 124.9 246.8L114.5 285.4L134.4 250.7C137.7 251.7 141.2 252.5 144.8 252.8L150 363.4L155.2 252.8C158.8 252.5 162.3 251.7 165.6 250.7L185.5 285.4L175 246.9C178.2 245.2 181.2 243.1 183.9 240.9L215.6 265.3L191.1 233.7C193.4 230.9 195.4 227.9 197.1 224.8L235.7 235.2L201 215.3C202.1 212 202.8 208.4 203.1 204.8L204 204.7L275.3 199.7L204.6 194.7L203.1 194.6C202.8 190.9 202.1 187.4 201 184L235.7 164.2L197.2 174.7C195.5 171.5 193.5 168.5 191.2 165.8L215.6 134.1L183.9 158.5C181.2 156.2 178.2 154.2 175 152.5L185.5 114L165.6 148.7C162.3 147.6 158.8 146.9 155.2 146.5L150 36V36Z" fill="#FFFF00"/>
</g>
<defs>
<clipPath id="clip0_1_5719">
<rect width="600" height="400" fill="white"/>
</clipPath>
</defs>
</svg>
