<svg width="600" height="400" viewBox="0 0 600 400" fill="none" xmlns="http://www.w3.org/2000/svg" xmlns:cgf="https://coding.garden/flags"><metadata id="cgf-metadata">

<cgf:flag>
  <cgf:name>Steenbergen</cgf:name>
  <cgf:route>nl/nb/steenbergen</cgf:route>
  <cgf:aspect-ratio>1.5</cgf:aspect-ratio>
</cgf:flag>

</metadata><g clip-path="url(#clip0_1_5724)">
<path d="M0 0H600V400H0V0Z" fill="#CC112F"/>
<path d="M253.333 200L0 33.3333V366.667L253.333 200ZM346.667 200L600 33.3333V366.667L346.667 200ZM300 166.667L53.3333 0H546.667L300 166.667ZM300 233.333L53.3333 400H546.667L300 233.333Z" fill="white"/>
<path d="M220 200L0 53.333V346.666L220 200ZM386.667 200L600 53.333V346.666L386.667 200Z" fill="#FCCC00"/>
<path d="M300 146.667L80 0H520L300 146.667Z" fill="#00AE41"/>
<path d="M300 253.333L80 400H520L300 253.333Z" fill="#0039A6"/>
</g>
<defs>
<clipPath id="clip0_1_5724">
<rect width="600" height="400" fill="white"/>
</clipPath>
</defs>
</svg>
