<svg width="600" height="400" viewBox="0 0 600 400" fill="none" xmlns="http://www.w3.org/2000/svg" xmlns:cgf="https://coding.garden/flags"><metadata id="cgf-metadata">

<cgf:flag>
  <cgf:name>Waalre</cgf:name>
  <cgf:route>nl/nb/waalre</cgf:route>
  <cgf:aspect-ratio>1.5</cgf:aspect-ratio>
</cgf:flag>

</metadata><g clip-path="url(#clip0_1_5781)">
<path d="M600 0H0V187.407H600V0Z" fill="#0E44AF"/>
<path d="M600 203.604H0V400H600V203.604Z" fill="#D90D15"/>
<path d="M600 164.444H0V233.333H600V164.444Z" fill="#FCDD04"/>
<path d="M111.184 109.191C108.73 109.599 104.944 109.347 100.977 108.513C99.4396 108.189 97.683 107.889 97.0736 107.845C95.6865 107.745 93.5444 108.735 92.2456 110.076C90.66 111.713 87.7202 113.149 84.9617 113.632C81.1943 114.293 75.0285 113.773 70.4566 112.411L69.3966 112.095L70.6976 108.825L71.9987 105.556L78.1792 99.8265C88.1861 90.5509 90.0278 89.2813 90.8382 91.1003C91.0289 91.528 91.2498 91.8482 91.3288 91.8119C91.4079 91.7754 92.3322 89.9037 93.3825 87.6523C95.5267 83.0562 97.5096 80.2634 99.2219 79.4283C100.385 78.861 101.24 78.9371 104.393 79.888L106.061 80.3908L106.913 79.1227C108.503 76.7573 110.15 74.8436 111.398 73.9115C113.238 72.5381 114.423 72.5978 116.711 74.1796L118.495 75.4121L120.539 74.6172C122.857 73.7159 124.372 73.7286 125.446 74.6582C126.909 75.925 126.764 79.0596 125.094 82.2659C124.537 83.3362 124.024 84.3433 123.953 84.5038C123.883 84.6643 124.514 85.2298 125.356 85.7604C129.176 88.1685 128.123 90.1629 120 95.9106L115.729 98.9322L116.2 99.5338C117.093 100.677 117.826 102.009 117.96 102.735C118.204 104.054 117.438 105.971 116.242 107.039C114.802 108.323 113.777 108.759 111.184 109.191V109.191ZM97.1344 101.613C93.8976 101.376 91.0507 100.942 88.8869 100.356C88.0786 100.137 88.0847 100.131 90.8838 98.3044C92.4281 97.2967 95.0732 95.6178 96.762 94.5736L99.8322 92.675L101.494 93.1587C102.408 93.4248 103.806 93.7093 104.601 93.7909C106.96 94.0331 114.59 93.2442 114.77 92.7394C114.807 92.6357 113.664 92.4895 112.229 92.4143C109.505 92.2714 106.147 91.8355 104.166 91.3674L103.002 91.0925L103.783 90.508C104.212 90.1865 107.534 88.3024 111.165 86.3212C114.796 84.3399 117.513 82.7348 117.203 82.7543C115.762 82.8452 105.614 87.111 101.285 89.446C98.8643 90.7517 96.7942 91.7844 96.6849 91.7408C96.4329 91.6405 97.724 87.8735 99.2307 84.3133C99.8674 82.8086 100.311 81.6129 100.217 81.6561C99.9213 81.7922 97.6931 84.9838 96.362 87.1784C95.6596 88.3364 94.7179 90.3509 94.2693 91.6552L93.4537 94.0266L91.1778 95.7202C87.016 98.8172 80.3105 104.964 79.888 106.068C79.7961 106.309 79.8569 106.324 80.0606 106.112C80.2334 105.933 81.5329 104.912 82.9481 103.844C85.136 102.193 85.5903 101.937 85.9814 102.137C86.8919 102.602 90.8789 103.134 92.8558 103.053C94.9004 102.971 99.5954 102.329 100.307 102.035C100.521 101.947 99.0929 101.757 97.1344 101.613V101.613ZM52.8846 134.181C50.0852 133.954 42.6336 131.078 40.6646 129.463C39.1647 128.233 39.7151 127.519 42.1243 127.568C43.7506 127.602 45.4151 126.863 48.6479 124.672C53.3664 121.475 57.2601 117.671 60.8175 112.784C63.8519 108.616 65.4554 105.935 64.9568 105.863C64.6924 105.825 65.124 105.166 66.1569 104.029C67.0439 103.053 68.13 101.825 68.5701 101.3L69.3705 100.345L66.3819 101.89L63.3931 103.435L61.418 101.925C60.3317 101.095 59.3938 100.305 59.3338 100.171C59.2733 100.036 60.4351 98.6191 61.9146 97.0224C63.3942 95.4257 64.5843 94.0736 64.5594 94.0177C64.5345 93.9618 63.1918 94.6154 61.5755 95.4702L58.6369 97.0243L56.6438 95.4774C55.5477 94.6267 54.6309 93.9864 54.6066 94.0546C54.5826 94.1228 56.4282 96.6865 58.7086 99.7518C60.9892 102.817 62.8311 105.392 62.802 105.474C62.6646 105.859 56.7273 103.863 56.466 103.344C56.4224 103.267 56.8912 102.692 57.4991 102.07L58.6042 100.94L56.5103 101.743L54.4164 102.545L51.8424 100.373C50.4266 99.1788 49.0625 97.9201 48.8113 97.5762C48.2318 96.7834 48.6115 96.4367 51.5372 95.0862C52.7258 94.5373 53.5323 94.0444 53.3435 93.982C53.1556 93.92 51.7064 94.0562 50.123 94.2848C48.5395 94.5134 47.1813 94.6855 47.1051 94.6673C46.7756 94.5885 44.6374 91.2098 43.9371 89.661L43.1719 87.9686L45.9227 86.9213C47.4357 86.3452 48.6502 85.8214 48.6216 85.7572C48.5932 85.6929 47.2669 85.692 45.6748 85.7546C44.0827 85.8176 42.6538 85.7404 42.4996 85.5828C42.3452 85.4253 42.0792 84.5602 41.9076 83.6605L41.5961 82.0246L43.5178 79.8936L45.4394 77.7625L46.8575 81.4448L48.2756 85.127L49.3147 84.4629C49.8862 84.0976 51.4328 83.1676 52.7515 82.3962C54.0702 81.6248 55.171 80.9328 55.1975 80.8583C55.2233 80.7841 53.7835 80.9926 51.9966 81.322C48.9853 81.8772 48.7133 81.8748 48.282 81.2884C48.0262 80.9403 47.3451 80.0404 46.7687 79.2885C46.1923 78.5366 45.7398 77.7554 45.7633 77.5525C45.7935 77.289 45.1281 77.5613 43.4342 78.505L41.0623 79.8265L40.9694 78.2125C40.8508 76.1529 40.9063 74.8161 41.1241 74.4786C41.2186 74.3324 42.8555 74.8316 44.7616 75.588C48.0913 76.9094 52.5461 78.2022 55.5171 78.7095L56.9267 78.9502L58.4258 82.3146L59.9249 85.6791L63.0785 83.6445C64.8132 82.5255 66.4018 81.5698 66.6093 81.5206C66.8232 81.4699 67.8847 82.4691 69.064 83.8313C70.2066 85.1513 72.3481 87.431 73.8226 88.8973L76.5036 91.5632L78.8022 88.1412C81.4548 84.1918 80.7905 84.292 84.7166 87.2495C86.1348 88.3178 87.39 89.1483 87.5059 89.095C87.6218 89.0418 88.3164 87.7161 89.0496 86.1489C89.7829 84.5818 90.4554 83.2663 90.5442 83.2255C90.8156 83.1008 90.1733 86.1227 89.6219 87.5647C89.2101 88.642 88.8377 89.089 87.8237 89.7239C86.8496 90.3339 86.5562 90.4269 86.5924 90.1143C86.6235 89.8463 86.5364 89.8103 86.3431 90.0105C86.1799 90.1791 85.0507 91.2566 83.8339 92.4049L81.6213 94.4928L79.1725 93.5526L76.7238 92.6124L78.5553 94.0659C79.5626 94.8653 80.3569 95.6014 80.3201 95.7017C80.2836 95.8021 78.9076 97.1198 77.2629 98.6302L74.2726 101.376L72.7607 100.809L71.2489 100.241L72.3266 101.147C73.5743 102.196 73.5522 102.3 71.7875 103.699C70.7636 104.511 70.45 105.146 68.5639 110.227C65.2204 119.233 62.6612 124.052 58.3996 129.364C57.0994 130.985 55.9068 132.371 55.7494 132.445C55.592 132.518 55.4005 132.822 55.3237 133.121C55.1441 133.822 54.0934 134.278 52.8846 134.18L52.8846 134.181ZM73.7575 96.0412C74.7458 94.3157 75.6137 92.7602 75.6864 92.5845C75.7593 92.4088 74.9332 93.0312 73.8512 93.9677C70.4336 96.9257 70.782 96.8264 68.0831 95.6116C66.7799 95.025 65.7473 94.6206 65.7885 94.7131C66.0264 95.2469 71.5454 99.613 71.7335 99.4161C71.8584 99.2854 72.7692 97.7667 73.7575 96.0412V96.0412ZM68.61 87.9785C69.5708 86.9199 70.3737 86.0095 70.3941 85.9555C70.4145 85.9013 69.0522 86.558 67.3668 87.4143L64.3025 88.9713L62.304 87.4555C61.2048 86.6219 60.2712 85.9556 60.2294 85.9748C60.1877 85.9941 61.131 87.3218 62.3258 88.9254C63.5206 90.529 64.5392 91.928 64.5895 92.0341C64.685 92.2292 65.4889 91.4169 68.61 87.9785ZM56.7632 88.818C58.1646 87.28 59.3316 85.9652 59.3566 85.8962C59.3815 85.8272 58.0043 86.4368 56.2959 87.2508L53.1895 88.7308L51.3193 87.2899C50.2904 86.4974 49.4264 85.9118 49.399 85.9887C49.281 86.3197 53.6369 91.8801 53.9144 91.7526C54.0798 91.6765 55.3619 90.3559 56.7632 88.818V88.818ZM83.6421 85.4729L81.0083 84.513L78.607 86.3444C77.2862 87.3518 76.0726 88.2465 75.9102 88.3327C75.6209 88.4864 71.7594 86.4879 71.8621 86.2376C71.8915 86.1675 72.9314 84.7489 74.1745 83.085C75.789 80.924 76.5581 80.096 76.8666 80.1865C77.1042 80.2561 78.4025 81.2557 79.7517 82.4078C81.101 83.5598 82.2947 84.4611 82.4044 84.4107C82.5141 84.3603 83.438 82.767 84.4575 80.8701L86.3113 77.4213L88.3965 76.8561C89.5436 76.5452 90.6576 76.2819 90.8724 76.2711C91.1558 76.2568 91.2266 76.9698 91.1306 78.8696C90.9864 81.7264 91.056 81.5969 87.988 84.7008L86.2759 86.4329L83.6421 85.4729ZM79.063 80.6201L76.6987 79.6788L74.2085 81.2992C70.6836 83.593 70.9468 83.5487 68.8956 82.1935L67.0908 81.0012L63.6909 81.792L60.2909 82.5829L59.0004 80.9809C58.2907 80.0998 57.7368 79.3035 57.7697 79.2113C57.8026 79.1192 58.4096 79.1328 59.1188 79.2417C64.7858 80.1122 73.6197 79.7522 81.6958 78.3215L85.7419 77.6048L83.5846 79.5831L81.4274 81.5614L79.063 80.6201V80.6201ZM85.893 74.5C75.9338 77.1222 66.2815 77.598 57.1478 75.917C52.3454 75.0332 43.4212 72.2266 42.6685 71.3633C41.9809 70.5747 42.4973 64.8695 43.6797 60.1912C45.7181 52.1254 49.7097 45.5834 54.8136 41.9432C55.7834 41.2515 57.1827 40.2566 57.9231 39.7323C60.3501 38.0139 61.5794 36.4714 62.5891 33.8772L63.5302 31.459L65.2686 32.307C78.667 38.8429 86.1311 48.1655 88.4074 61.2069C89.1158 65.2657 89.4977 73.5354 88.9835 73.6818C88.8675 73.7149 87.4769 74.083 85.893 74.5V74.5Z" fill="#FCDD04"/>
</g>
<defs>
<clipPath id="clip0_1_5781">
<rect width="600" height="400" fill="white"/>
</clipPath>
</defs>
</svg>
