<svg width="600" height="400" viewBox="0 0 600 400" fill="none" xmlns="http://www.w3.org/2000/svg" xmlns:cgf="https://coding.garden/flags"><metadata id="cgf-metadata">

<cgf:flag>
  <cgf:name>Waalwijk</cgf:name>
  <cgf:route>nl/nb/waalwijk</cgf:route>
  <cgf:aspect-ratio>1.5</cgf:aspect-ratio>
</cgf:flag>

</metadata><g clip-path="url(#clip0_1_5791)">
<path d="M0.384862 -0.824219L0.205078 404.46H604.599V-0.824219H0.384858H0.384862Z" fill="#FFDE00"/>
<path d="M1.07311 -0.12207L1.04297 405.162H102.145V-0.12207H1.07306H1.07311Z" fill="#D40000"/>
<path d="M503.82 -1.16504L503.79 404.119H604.892V-1.16504H503.82H503.82Z" fill="#D40000"/>
<path d="M204.001 -0.324219L203.942 404.96H401.633V-0.324219H204.001H204.001Z" fill="black"/>
<path d="M253.521 342.506C253.772 341.572 252.201 338.989 254.786 339.476C271.417 342.612 284.626 335.55 289.638 316.429L292.157 236.515L285.858 224.738C273.43 223.137 268.797 227.781 268.22 235.674C249.91 256.856 241.977 242.895 253.101 231.047C249.142 224.382 255.956 223.528 267.38 225.159C272.196 220.717 278.694 219.404 286.278 220.112C271.142 203.469 252.398 205.27 249.213 212.712C248.75 213.792 247.902 210.858 246.802 211.279C252.23 199.805 243.518 201.143 232.524 204.549C235.104 199.31 235.112 195.101 222.025 196.137C216.073 193.507 211.565 191.118 221.973 191.219C233.095 191.386 228.898 187.291 226.279 183.635C222.89 174.549 227.613 178.103 231.03 179.62C234.489 181.322 245.288 195.365 238.899 180.512C240.211 179.445 237.531 171.581 246.026 182.743L252.856 192.408L253.301 183.486C255.183 183.473 256.56 184.499 259.228 188.82C267.497 207.884 275.767 204.757 284.036 211.145C280.728 185.78 259.732 172.57 236.523 160.883C251.942 157.657 240.319 151.642 229.545 145.715C221.677 136.663 228.889 140.017 231.178 139.321C235.584 139.917 243.352 143.8 231.921 128.912C216.519 108.871 235.746 114.408 235.781 118.354C238.976 121.76 242.727 135.933 244.838 118.354C244.145 106.507 247.658 115.194 249.886 117.61L250.629 137.685C255.162 134.245 254.703 130.351 255.083 126.532C256.947 129.359 265.588 128.346 257.013 141.551L259.983 148.987C270.248 143.024 264.189 162.842 265.328 171.292L285.818 195.977L273.643 168.764C268.351 167.326 268.282 164.143 267.555 161.18L270.525 160.586C266.565 148.395 276.298 134.109 279.879 157.165H282.551C283.944 161.888 282.688 164.682 279.73 166.236L289.826 193.301C292.074 164.32 279.311 138.969 258.646 115.528C258.036 113.19 263.073 113.68 266.961 113.595L252.856 106.606C246.703 103.151 251.487 102.983 252.559 101.699C258.849 98.3511 252.525 97.0248 249.589 95.1556C236.465 89.6601 243.617 87.5135 244.987 86.9769C252.136 86.4531 249.526 83.0331 246.174 79.3929C241.791 77.3839 241.41 65.0336 251.223 77.0137L255.825 77.6085C257.554 78.2423 255.499 68.7734 261.467 80.7313C264.266 84.2874 265.309 94.5252 269.931 91.1406C272.142 87.6147 274.343 84.421 276.167 92.9251C276.784 97.177 273.301 106.221 278.245 105.416C281.423 100.595 282.26 103.809 282.7 108.39L283.887 137.685C293.389 151.316 292.706 164.948 295.766 178.579C298.499 159.179 300.111 139.217 307.347 122.071C297.098 116.388 292.815 109.709 292.054 102.442L300.517 103.037L295.766 89.8023C294.701 87.1495 294.782 85.6445 298.438 87.7204C308.276 93.074 305.403 82.1963 302.595 79.5416C295.588 78.2104 297.59 75.4546 297.696 72.9986C300.566 72.0902 304.918 74.6417 303.338 63.3328C299.639 48.0609 306.09 50.3905 307.347 61.1023L309.722 66.4556L312.543 63.3328C318.171 58.7808 317.035 64.8752 317.443 68.5375C309.651 84.7655 315.259 81.4368 321.007 77.9059C328.293 71.1967 326.865 84.857 323.234 84.7463C309.482 94.4605 317.988 92.757 319.076 94.8582C325.478 94.1549 326.686 101.653 319.225 100.212C312.813 108.629 311.3 113.659 321.452 110.621C324 115.133 320.534 118.741 315.216 122.071L303.189 183.932C308.853 166.812 320.985 152.419 334.073 138.429V128.465C329.28 122.497 324.804 116.66 333.182 116.123C331.964 110.493 325.931 101.698 336.448 103.78C337.393 99.0593 327.916 87.4988 339.566 89.8023C339.183 90.1105 329.073 62.8352 344.317 79.9878C349.234 57.3571 361.086 64.6536 353.078 79.5416C362.215 75.6399 368.687 82.4404 357.68 89.5048L352.187 101.253L361.392 101.847C369.954 105.023 358.069 110.637 350.999 115.677L359.314 120.435C359.051 124.508 357.87 128.292 338.972 126.532L337.636 137.834C336.528 142.757 331.203 151.466 318.631 166.683C326.67 160.04 331.195 153.398 343.13 146.756C345.354 143.304 346.012 149.265 347.139 152.407C351.903 144.236 356.796 135.134 358.868 146.607C361.381 138.875 365.157 138.314 368.816 137.09L370.895 146.607L375.943 147.351C379.236 147.809 370.062 169.156 361.541 157.165L359.462 160.883C360.295 165.07 367.186 173.63 352.187 166.385L349.514 168.318C351.814 181.749 343.961 175.741 332.885 163.56L318.334 172.928L335.409 180.661L333.776 181.85C344.378 197.88 328.152 201.676 323.828 188.096L323.976 185.419L320.116 179.471L315.068 177.092L303.932 202.818C313.385 200.713 322.838 201.772 332.291 204.007C342.598 205.96 350.293 204.088 355.453 198.505C353.524 184.543 357.457 180.331 362.58 190.475C365.664 188.602 371.635 181.4 378.319 190.773C378.532 192.607 377.535 196.077 372.973 197.911L380.249 199.398C383.952 198.583 389.937 206.14 377.131 204.305L376.388 208.766C378.237 212.075 382.473 216.729 372.231 213.227L367.628 214.714C366.428 216.166 367.902 223.421 362.432 215.606L357.235 208.915C349.086 209.695 340.023 212.459 334.073 208.469L336.3 218.134C348.456 218.317 358.686 219.465 353.672 228.246C358.326 230.167 371.534 229.945 360.353 235.83L357.977 236.871L362.729 241.184C367.079 251.435 358.187 254.578 353.968 246.388L350.257 247.429L349.514 254.121C344.309 255.693 343.387 251.903 346.099 243.563L341.793 241.035C336.711 249.276 327.693 248.655 333.33 231.815C335.37 229.157 334.851 226.84 330.955 224.975C320.121 227.6 325.688 220.96 329.767 215.16L327.391 207.13L313.88 206.833L307.644 211.889L305.862 315.685C312.31 324.898 313.25 337.796 327.243 338.734L345.357 339.775C351.456 339.662 355.969 340.894 356.938 345.128L352.187 345.723C345.901 342.518 339.616 344.517 333.33 344.979C326.352 346.48 319.373 346.664 312.395 337.99C315.421 348.003 321.712 358.016 314.325 368.029H312.692C317.694 349.181 301.593 340.143 288.193 340.816C274.906 349.352 262.863 352.153 253.522 342.506L253.521 342.506V342.506Z" fill="#FFDE00"/>
<path d="M337.722 224.738L344.336 238.513L344.126 232.94L353.89 240.09L346.331 232.098H353.365L339.087 224.633L337.722 224.738V224.738Z" fill="black" fill-opacity="0.437209"/>
<path d="M352 204.654L366.174 193.403L360.925 201.71L372.788 199.187L363.339 202.762L370.374 208.545L361.659 204.444L352 204.654Z" fill="black" fill-opacity="0.437209"/>
<path d="M333.418 181.942L328.483 183.94L324.284 187.2L327.433 182.678L333.418 181.942Z" fill="black" fill-opacity="0.437209"/>
<path d="M340.872 163.12L352.526 151.133L348.536 158.073L363.97 148.819L352.946 159.545L340.872 163.12V163.12Z" fill="black" fill-opacity="0.437209"/>
<path d="M337.932 121.901L349.691 107.601L343.706 110.23L346.226 100.976L347.801 90.3561L351.581 85.0986L346.226 89.4098L343.916 104.341L341.502 92.8797L342.027 109.914L337.932 121.901V121.901Z" fill="black" fill-opacity="0.437209"/>
<path d="M309.9 119.798C309.9 119.798 305.28 110.86 305.385 110.334C305.49 109.809 303.286 98.7679 303.286 98.7679L306.855 110.44L309.165 112.753L308.535 100.555L307.17 97.5061L306.645 88.2529L308.955 98.0319L310.32 100.345L310.635 114.856L309.9 119.798V119.798Z" fill="black" fill-opacity="0.437209"/>
<path d="M276.828 123.163L264.86 101.292L256.881 95.1928L262.55 96.6649L253.521 84.0469L266.12 98.5576L276.828 123.163V123.163Z" fill="black" fill-opacity="0.437209"/>
<path d="M239.663 135.15L250.161 147.348L256.671 161.017L251.631 145.665L239.663 135.15V135.15Z" fill="black" fill-opacity="0.437209"/>
<path d="M270.747 160.66L277.132 160.957L280.398 157.463L276.092 159.693L270.747 160.66V160.66Z" fill="black" fill-opacity="0.437209"/>
<path d="M256.671 201.606L244.282 190.039L245.122 193.404L235.463 195.297L247.852 196.558L256.671 201.606V201.606Z" fill="black" fill-opacity="0.437209"/>
<path d="M254.118 231.146L259.463 232.038L263.546 238.135L261.319 231.071L254.118 231.146V231.146Z" fill="black" fill-opacity="0.437209"/>
</g>
<defs>
<clipPath id="clip0_1_5791">
<rect width="600" height="400" fill="white"/>
</clipPath>
</defs>
</svg>
