<svg width="600" height="400" viewBox="0 0 600 400" fill="none" xmlns="http://www.w3.org/2000/svg" xmlns:cgf="https://coding.garden/flags"><metadata id="cgf-metadata">

<cgf:flag>
  <cgf:name>Zundert</cgf:name>
  <cgf:route>nl/nb/zundert</cgf:route>
  <cgf:aspect-ratio>1.5</cgf:aspect-ratio>
</cgf:flag>

</metadata><g clip-path="url(#clip0_1_5808)">
<path d="M600 0H0V400H600V0Z" fill="white"/>
<path d="M600 200H0V400H600V200Z" fill="#CC112F"/>
<path d="M0.685281 3.50922e-05L3.61187e-05 400L300 200.686L0.685281 3.50922e-05Z" fill="#00AE41"/>
<path fill-rule="evenodd" clip-rule="evenodd" d="M99.0349 246.057H83.8654L81.1884 253.393L76.7268 258.284L70.4805 262.36L61.5572 263.175L70.4805 266.436L78.5114 268.066H84.7577L90.1117 265.621L93.681 262.36L96.3579 258.284L98.1426 252.578L99.0349 246.057ZM119.558 246.057H106.174L105.281 249.318V252.578L104.389 255.839L103.497 259.099L102.604 262.36L101.712 265.621V268.066L100.82 271.327V275.403L101.712 279.479L102.604 282.739L103.497 286L105.281 289.26L107.066 292.521L109.743 295.782L113.312 299.042L116.881 295.782L119.558 292.521L121.343 289.26L123.128 286L124.02 282.739L124.912 279.479L125.805 275.403V271.327L124.912 268.066V265.621L124.02 262.36L123.128 259.099L121.343 255.839L120.451 252.578V249.318L119.558 246.057ZM143.651 246.057H128.482L129.374 252.578L130.266 258.284L133.836 262.36L137.405 265.621L142.759 268.066H149.005L157.036 266.436L165.959 263.175L156.144 262.36L149.898 258.284L145.436 253.393L143.651 246.057ZM69.5882 241.166H157.928V229.754H144.544L146.328 224.047L148.113 219.156L150.79 213.45L153.467 209.375L157.036 205.299L161.498 202.853L165.959 201.223L172.206 200.408L181.129 202.038L187.375 206.114L190.052 212.635L188.268 220.787L199.868 215.081L207.006 209.375L212.36 202.853L214.145 195.517V188.996L212.36 183.289L209.683 178.398L205.222 175.138L198.083 172.692L187.375 171.877L176.667 173.507L164.175 177.583L152.575 184.92L141.867 195.517L133.836 211.005L128.482 229.754H121.343L123.128 218.341L126.697 206.929L129.374 196.332L132.943 185.735L135.62 175.953L138.297 165.356L140.082 155.574L140.974 144.977L140.082 137.64L139.19 131.119L136.513 125.413L132.943 119.707L128.482 114.816L124.02 109.925L118.666 105.034L113.312 100.958L107.958 105.034L102.604 109.925L98.1426 114.816L93.681 119.707L90.1117 125.413L87.4347 131.119L86.5424 137.64L85.65 144.977L86.5424 155.574L88.327 165.356L91.004 175.953L93.681 185.735L97.2503 196.332L99.9273 206.929L103.497 218.341L105.281 229.754H98.1426L93.681 211.005L85.65 195.517L75.8344 184.92L64.2342 177.583L51.7416 172.692L40.1414 171.877L30.3258 172.692L23.1872 175.138L18.7255 178.398L15.1562 183.289L13.3716 188.996V195.517L15.1562 202.853L20.5102 209.375L27.6488 215.081L39.2491 220.787L38.3567 212.635L41.0337 206.114L47.28 202.038L56.2033 200.408L61.5572 201.223L66.9112 202.853L71.3728 205.299L74.9421 209.375L77.6191 214.266L80.2961 219.156L82.0807 224.863L82.9731 229.754H69.5882V241.166Z" fill="white"/>
</g>
<defs>
<clipPath id="clip0_1_5808">
<rect width="600" height="400" fill="white"/>
</clipPath>
</defs>
</svg>
