<svg width="600" height="400" viewBox="0 0 600 400" fill="none" xmlns="http://www.w3.org/2000/svg" xmlns:cgf="https://coding.garden/flags"><metadata id="cgf-metadata">

<cgf:flag>
  <cgf:name>Almere</cgf:name>
  <cgf:route>nl/fl/almere</cgf:route>
  <cgf:aspect-ratio>1.5</cgf:aspect-ratio>
</cgf:flag>

</metadata><g clip-path="url(#clip0_1_1139)">
<path d="M600 0H0V400H600V0Z" fill="#FCCA24"/>
<path d="M0 0V400H200V200L0 0Z" fill="#004B96"/>
<path d="M0 0H600V200H200L0 0Z" fill="#F42A2C"/>
<path d="M200 0H0V200H200V0Z" fill="white"/>
<path d="M52.54 116.672L56.3574 127.174C60.6764 126.029 65.1124 125.58 69.8914 127.174C76.5429 129.86 83.1943 129.637 89.8458 128.207C94.742 128.004 97.0935 126.033 106.156 128.724C112.114 129.168 118.071 129.904 124.028 127.691C132.825 125.872 134.442 126.427 138.083 126.314L141.033 116.672C134.786 115.334 128.54 114.615 122.293 117.361C116.394 118.931 110.494 118.388 104.595 117.705C99.6783 116.084 94.7621 116.592 89.8459 117.705C83.715 118.82 77.5841 118.826 71.4532 117.189C65.1488 115.177 58.8445 115.485 52.5401 116.672H52.54Z" fill="#004B96"/>
<path d="M61.3893 133.717C62.8665 136.242 63.491 138.767 67.1153 141.292C69.0997 143.186 71.8056 145.08 77.0057 146.974C81.922 146.935 86.8381 146.877 91.7544 145.941C94.5256 145.221 97.1484 144.427 104.421 145.941C108.817 147.03 113.212 147.807 117.608 146.629C123.627 142.788 129.381 138.683 133.572 133.028C130.317 133.279 127.875 133.045 122.467 134.578C117.608 136.47 112.75 135.936 107.891 135.611C101.268 133.601 95.1968 133.778 89.4987 135.438C83.5414 136.204 77.584 136.697 71.6267 134.75C68.0188 133.63 64.5367 133.009 61.3893 133.717L61.3893 133.717Z" fill="#004B96"/>
<path d="M55.8369 85.3374L55.4898 91.8799L60.0011 92.052L67.6359 111.851C74.75 115.467 81.8641 115.212 88.9781 114.778C93.3776 113.06 99.5596 113.111 107.197 114.606C112.229 115.481 117.261 115.839 122.293 114.434C125.995 112.539 129.696 111.917 133.398 111.851L136.695 95.151L135.133 92.2242H138.777V86.7148H136.521V89.1252H133.919V86.887H130.622L130.795 89.1252H128.019V86.887H124.549V89.2973H121.946V86.887H119.517L118.823 96.8727C105.95 100.318 103.801 99.5061 99.7361 99.4553L99.0421 50.9037L100.777 50.7316L102.339 45.05H92.275L94.0102 50.9037H95.3983L95.0512 99.2831C81.9892 98.7795 72.9892 95.4711 63.992 92.2787L67.4624 92.5533L68.1565 85.6818L66.0067 85.5882L65.7273 88.5302L63.4869 88.4302L63.7049 85.6426L60.6846 85.5097L60.4312 88.3972L58.4396 88.2643L58.6162 85.4312L55.8369 85.3374H55.8369Z" fill="black"/>
<path d="M73.686 94.3514C63.0807 78.6402 63.5989 65.3434 73.9315 54.1768L127.917 54.4203C120.841 60.6179 115.423 70.517 116.138 94.1079C102.554 84.913 88.5741 82.1977 73.6861 94.3514H73.686Z" fill="#004B96"/>
<path d="M89.2047 69.6608C87.7991 66.5635 86.541 64.7847 85.4625 64.6085C83.9684 64.0472 82.8396 64.3922 81.659 64.6085C80.0995 65.0901 79.047 66.0748 78.469 67.5303C78.2256 68.4028 78.2835 69.2753 78.5302 70.1478C78.6577 71.854 80.3561 72.6943 81.9044 73.6173C81.5544 72.5826 81.1878 71.5478 81.4749 70.5129C81.6261 69.0804 83.7723 69.6272 85.8305 70.0868C85.258 70.2086 85.1762 70.6549 85.5852 71.4261C86.26 71.2951 86.9348 71.3958 87.6096 71.913L87.4255 75.0782L86.1373 77.0262L88.9592 76.9044C90.7163 81.857 96.4777 79.001 96.6276 76.9652L99.0201 76.9044L96.8729 74.2261C95.5906 71.8244 98.3528 71.2877 98.9588 71.6087C99.3245 70.8128 99.2245 70.1325 98.2839 69.6608C99.4564 69.1091 101.874 68.9214 102.456 68.8694C104.028 69.2012 104.612 69.9259 105.278 71.6087C105.268 72.8753 104.526 73.7534 103.744 74.713C105.502 74.5069 107.261 73.9003 109.02 72.4C109.565 70.6931 109.197 69.7106 108.958 68.626C107.711 66.6273 106.464 66.6062 105.216 65.9476L102.026 65.8868C100.014 66.3572 98.3917 67.602 96.6889 68.6868C98.5231 67.2481 101.238 65.5472 101.597 64.5477C101.945 62.6679 101.954 62.3032 101.535 61.6258C101.419 61.0374 100.996 60.6316 99.7563 60.0432C98.3658 59.8775 96.9752 59.6983 95.5846 60.165C92.1756 61.656 89.5246 64.1366 89.2046 69.6608L89.2047 69.6608Z" fill="white"/>
</g>
<defs>
<clipPath id="clip0_1_1139">
<rect width="600" height="400" fill="white"/>
</clipPath>
</defs>
</svg>
