<svg width="600" height="400" viewBox="0 0 600 400" fill="none" xmlns="http://www.w3.org/2000/svg" xmlns:cgf="https://coding.garden/flags"><metadata id="cgf-metadata">

<cgf:flag>
  <cgf:name>Dronten</cgf:name>
  <cgf:route>nl/fl/dronten</cgf:route>
  <cgf:aspect-ratio>1.5</cgf:aspect-ratio>
</cgf:flag>

</metadata><g clip-path="url(#clip0_1_1101)">
<path d="M300.483 0H299.517V0.966184H300.483V0Z" fill="#2DB135"/>
<path d="M300 211.594V163.285" stroke="white" stroke-width="38.6473" stroke-linecap="round"/>
<path d="M300 211.594L341.837 235.749" stroke="white" stroke-width="38.6473" stroke-linecap="round"/>
<path d="M300 211.594L258.163 235.749" stroke="white" stroke-width="38.6473" stroke-linecap="round"/>
<path d="M300 114.976V66.6667" stroke="white" stroke-width="38.6473" stroke-linecap="round"/>
<path d="M300 114.976L341.837 139.131" stroke="white" stroke-width="38.6473" stroke-linecap="round"/>
<path d="M300 114.976L258.163 139.131" stroke="white" stroke-width="38.6473" stroke-linecap="round"/>
<path d="M300 308.213V259.903" stroke="white" stroke-width="38.6473" stroke-linecap="round"/>
<path d="M300 308.213L341.837 332.367" stroke="white" stroke-width="38.6473" stroke-linecap="round"/>
<path d="M300 308.213L258.163 332.367" stroke="white" stroke-width="38.6473" stroke-linecap="round"/>
<path d="M383.674 259.903V211.594" stroke="white" stroke-width="38.6473" stroke-linecap="round"/>
<path d="M383.674 259.904L425.511 284.058" stroke="white" stroke-width="38.6473" stroke-linecap="round"/>
<path d="M383.674 259.904L341.837 284.058" stroke="white" stroke-width="38.6473" stroke-linecap="round"/>
<path d="M383.674 163.285V114.976" stroke="white" stroke-width="38.6473" stroke-linecap="round"/>
<path d="M383.674 163.285L425.511 187.44" stroke="white" stroke-width="38.6473" stroke-linecap="round"/>
<path d="M383.674 163.285L341.837 187.44" stroke="white" stroke-width="38.6473" stroke-linecap="round"/>
<path d="M216.326 259.903V211.594" stroke="white" stroke-width="38.6473" stroke-linecap="round"/>
<path d="M216.326 259.904L258.163 284.058" stroke="white" stroke-width="38.6473" stroke-linecap="round"/>
<path d="M216.326 259.904L174.489 284.058" stroke="white" stroke-width="38.6473" stroke-linecap="round"/>
<path d="M216.326 163.285V114.976" stroke="white" stroke-width="38.6473" stroke-linecap="round"/>
<path d="M216.326 163.285L258.163 187.44" stroke="white" stroke-width="38.6473" stroke-linecap="round"/>
<path d="M216.326 163.285L174.489 187.44" stroke="white" stroke-width="38.6473" stroke-linecap="round"/>
</g>
<defs>
<clipPath id="clip0_1_1101">
<rect width="600" height="400" fill="white"/>
</clipPath>
</defs>
</svg>
