<svg width="600" height="400" viewBox="0 0 600 400" fill="none" xmlns="http://www.w3.org/2000/svg" xmlns:cgf="https://coding.garden/flags"><metadata id="cgf-metadata">

<cgf:flag>
  <cgf:name>Lelystad</cgf:name>
  <cgf:route>nl/fl/lelystad</cgf:route>
  <cgf:aspect-ratio>1.5</cgf:aspect-ratio>
</cgf:flag>

</metadata><g clip-path="url(#clip0_1_1197)">
<path d="M0 0H600V400H0V0Z" fill="#F5E200"/>
<path fill-rule="evenodd" clip-rule="evenodd" d="M141.999 166L202.166 131.394L261.135 166V234.915L201.367 268.961L141.999 234.223V166Z" fill="#0039A6"/>
<path fill-rule="evenodd" clip-rule="evenodd" d="M210 214.106C212.749 185.135 241.89 185.06 238.661 211.159C254.425 203.703 255.935 181.094 246.964 170.981C235.272 163.182 210.995 170.007 206.25 216.517C203.61 237.639 220.755 248.887 226.741 245.713C229.751 243.983 237.674 237.843 223.393 223.749C225.259 230.573 226.832 235.855 220.045 236.74C212.319 237.127 208.469 223.752 210 214.106Z" fill="white"/>
<path fill-rule="evenodd" clip-rule="evenodd" d="M191.433 214.106C188.684 185.135 159.543 185.06 162.772 211.159C147.008 203.703 145.497 181.094 154.468 170.981C166.161 163.182 190.438 170.007 195.183 216.517C197.823 237.639 180.678 248.887 174.692 245.713C171.682 243.983 163.759 237.843 178.04 223.749C176.173 230.573 174.601 235.855 181.388 236.74C189.114 237.127 192.964 223.752 191.433 214.106Z" fill="white"/>
<path fill-rule="evenodd" clip-rule="evenodd" d="M200.357 148.213C192.705 163.294 190.004 180.375 196.607 200.445C197.866 210.413 198.858 220.006 196.607 228.57C193.48 240.277 197.884 250.65 201.429 253.749C204.259 251.161 208.602 238.587 204.643 228.838C201.995 219.195 204.765 208.481 206.25 200.445C210.714 178.731 210.15 161.373 200.357 148.213Z" fill="white"/>
<path d="M210.804 210.088H191.786C190.159 210.088 188.839 211.407 188.839 213.035V221.874C188.839 223.501 190.159 224.82 191.786 224.82H210.804C212.431 224.82 213.75 223.501 213.75 221.874V213.035C213.75 211.407 212.431 210.088 210.804 210.088Z" fill="white"/>
<path fill-rule="evenodd" clip-rule="evenodd" d="M133 0H176V89H270V131H175.714H133V0Z" fill="#0039A6"/>
<path fill-rule="evenodd" clip-rule="evenodd" d="M270 400H227V311L133 311.322V269H227.286H270V400Z" fill="#0039A6"/>
<path fill-rule="evenodd" clip-rule="evenodd" d="M0 269V226H91V131H133.042V226.08L133 269H0Z" fill="#0039A6"/>
<path fill-rule="evenodd" clip-rule="evenodd" d="M600 131V174H312V269H270V131H600Z" fill="#0039A6"/>
</g>
<defs>
<clipPath id="clip0_1_1197">
<rect width="600" height="400" fill="white"/>
</clipPath>
</defs>
</svg>
