<svg width="600" height="400" viewBox="0 0 600 400" fill="none" xmlns="http://www.w3.org/2000/svg" xmlns:cgf="https://coding.garden/flags"><metadata id="cgf-metadata">

<cgf:flag>
  <cgf:name>Noordoostpolder</cgf:name>
  <cgf:route>nl/fl/noordoostpolder</cgf:route>
  <cgf:aspect-ratio>1.5</cgf:aspect-ratio>
</cgf:flag>

</metadata><g clip-path="url(#clip0_1_1150)">
<rect width="600" height="400" fill="#D9D9D9"/>
<path d="M195.5 0L196 198H600V250H247V400H196V198H0V150H143V0H195.5Z" fill="#21638C"/>
<rect x="246" width="354" height="149" fill="#21638C"/>
<rect y="250" width="143" height="150" fill="#21638C"/>
<path d="M76.5234 94.4458C76.6558 86.0674 58.5629 81.1873 55.829 94.2645L55.6458 113.846H33.6694V93.7205L44.8408 59.0898L42.46 51.656H39.3467V42.5903L50.7011 42.7716V46.5792H59.4917L59.3086 42.5903L71.3955 42.7716L71.0293 46.3979L79.6367 46.2166V42.5903L90.808 42.7716L91.1743 51.8373L86.4127 58.1832L97.7672 93.7205V114.028L75.9739 113.302L76.5234 94.4458Z" fill="#D40000" stroke="black" stroke-width="2.47"/>
<path d="M56.6938 94.1261L77.5714 93.9448" stroke="black" stroke-width="2.47"/>
<path d="M59.5874 88.8672L59.7795 100.306" stroke="black" stroke-width="2.45475"/>
<path d="M66.082 86.5022L66.2478 100.248" stroke="black" stroke-width="2.49961"/>
<path d="M71.1519 87.7075L71.3303 100.255" stroke="black" stroke-width="2.47797"/>
<path d="M37.3389 81.484L93.6312 81.3943" stroke="black" stroke-width="2.47"/>
<path d="M39.647 51.4674L91.5949 51.3711" stroke="black" stroke-width="2.45863"/>
<path d="M44.9851 59.0161L86.8912 58.8999" stroke="black" stroke-width="2.42456"/>
<path d="M40.3708 72.11L90.8709 72.0112" stroke="black" stroke-width="2.45445"/>
<path d="M34.3352 105.458L55.3897 105.254" stroke="black" stroke-width="2.27441"/>
<path d="M76.8491 105.189L97.9036 104.985" stroke="black" stroke-width="2.27441"/>
<path d="M34.2446 97.9192L55.2991 97.7158" stroke="black" stroke-width="2.27441"/>
<path d="M77.1211 97.8294L98.1756 97.626" stroke="black" stroke-width="2.27441"/>
<path d="M35.4272 89.1202L57.6518 88.925" stroke="black" stroke-width="2.28867"/>
<path d="M74.6736 89.3934L95.7281 89.1899" stroke="black" stroke-width="2.27441"/>
<path d="M50.7012 51.783V58.1289" stroke="black" stroke-width="2.47"/>
<path d="M64.9307 52.2905V58.6365" stroke="black" stroke-width="2.47"/>
<path d="M79.1606 52.4175V58.7634" stroke="black" stroke-width="2.47"/>
<path d="M57.6235 59.2151V71.2574" stroke="black" stroke-width="3.40254"/>
<path d="M73.52 59.469V71.5113" stroke="black" stroke-width="3.40254"/>
<path d="M48.009 71.9551V81.4901" stroke="black" stroke-width="3.02768"/>
<path d="M66.0845 71.7646V81.2997" stroke="black" stroke-width="3.02768"/>
<path d="M84.6729 71.7646V81.2997" stroke="black" stroke-width="3.02768"/>
<path d="M47.2397 89.3569V98.3562" stroke="black" stroke-width="2.94139"/>
<path d="M85.5703 89.2778V97.42" stroke="black" stroke-width="2.79782"/>
<path d="M46.4707 105.017V114.552" stroke="black" stroke-width="3.02768"/>
<path d="M87.7495 104.89V114.425" stroke="black" stroke-width="3.02768"/>
<path d="M60.6758 88.1052L60.8589 100.253" stroke="black" stroke-width="2.47"/>
<path d="M65.0374 86.9041L65.2071 100.25" stroke="black" stroke-width="2.49275"/>
<path d="M72.3733 88.1089L72.5564 100.257" stroke="black" stroke-width="2.47"/>
<path d="M80.8761 337.724L54.7695 337.545C52.4793 340.004 51.7623 342.747 54.7695 346.16L81.0574 345.981C83.4597 343.229 82.8077 340.477 80.8761 337.724Z" fill="white" stroke="black" stroke-width="2.47"/>
<path d="M60.7524 337.006C57.9452 329.245 57.9035 318.512 45.5236 314.57C42.6833 313.811 39.843 313.431 37.0027 314.57C29.6694 316.877 28.0836 325.221 29.8053 334.664C30.6112 339.083 28.815 343.868 26.8501 348.314C32.3147 346.66 39.1662 340.858 38.3885 334.64C36.8592 322.413 49.0289 318.042 57.2975 333.41C57.8604 334.456 57.5029 335.594 58.033 336.827L60.7524 337.006V337.006Z" fill="white" stroke="black" stroke-width="2.47"/>
<path d="M74.2588 337.366C77.066 329.604 77.1077 318.871 89.4877 314.929C92.328 314.17 95.1683 313.79 98.0086 314.929C105.342 317.237 106.928 325.581 105.206 335.023C104.4 339.443 106.196 344.228 108.161 348.674C102.697 347.019 95.845 341.217 96.6228 334.999C98.152 322.773 85.9823 318.401 77.7137 333.77C77.1509 334.816 77.5084 335.953 76.9783 337.186L74.2588 337.366Z" fill="white" stroke="black" stroke-width="2.47"/>
<path d="M60.4805 346.519C59.771 350.403 57.6942 355.968 53.7725 358.276C51.8387 359.057 49.9049 358.991 47.9711 358.097C45.4963 356.946 45.9669 357.073 45.3524 356.352C41.4934 351.825 43.1879 346.201 44.1639 343.289C49.648 357.151 56.5063 350.468 58.4862 346.16L60.4805 346.519V346.519Z" fill="white" stroke="black" stroke-width="2.47"/>
<path d="M73.8284 346.652C74.5379 350.536 76.6146 356.102 80.5363 358.409C82.4702 359.19 84.404 359.124 86.3378 358.23C88.8125 357.079 88.342 357.206 88.9564 356.485C92.8154 351.958 91.1209 346.334 90.145 343.422C84.6608 357.284 77.8026 350.601 75.8226 346.293L73.8284 346.652V346.652Z" fill="white" stroke="black" stroke-width="2.47"/>
<path d="M63.7437 346.071L62.4746 355.674C63.4507 360.746 70.7642 362.923 71.902 355.584L70.8142 346.071H63.7437Z" fill="white" stroke="black" stroke-width="2.47"/>
<path d="M63.8344 337.365C57.5614 314.869 60.6497 292.373 66.9164 269.877C74.3901 292.373 77.0569 314.869 70.5424 337.365H63.8344Z" fill="white" stroke="black" stroke-width="2.47"/>
</g>
<defs>
<clipPath id="clip0_1_1150">
<rect width="600" height="400" fill="white"/>
</clipPath>
</defs>
</svg>
