<svg width="600" height="400" viewBox="0 0 600 400" fill="none" xmlns="http://www.w3.org/2000/svg" xmlns:cgf="https://coding.garden/flags"><metadata id="cgf-metadata">

<cgf:flag>
  <cgf:name>Urk</cgf:name>
  <cgf:route>nl/fl/urk</cgf:route>
  <cgf:aspect-ratio>1.5</cgf:aspect-ratio>
</cgf:flag>

</metadata><g clip-path="url(#clip0_1_1131)">
<path d="M600 0H0V32.7713H600V0Z" fill="#DA1119"/>
<path d="M600 367.383H0V400H600V367.383Z" fill="#DA1119"/>
<path d="M600 333.479H0V367.382H600V333.479Z" fill="white"/>
<path d="M600 32.7712H0V66.8349H600V32.7712Z" fill="white"/>
<path d="M600 66.835H0V333.48H600V66.835Z" fill="#0C40AA"/>
<path d="M276.77 247.792C275.823 247.476 275.127 246.762 274.751 245.72C274.672 245.501 273.822 242.075 272.863 238.106C271.903 234.137 271.095 230.805 271.066 230.702C271.014 230.515 271.018 230.515 271.9 230.515H272.787L273.216 231.826C274.291 235.116 276.244 240.288 278.184 244.986C278.823 246.532 279.318 247.821 279.286 247.85C279.253 247.88 278.778 247.914 278.23 247.925C277.429 247.942 277.143 247.916 276.77 247.792V247.792ZM280.271 247.568C279.191 245.086 276.905 239.342 275.766 236.244C275.026 234.23 273.799 230.689 273.799 230.565C273.799 230.537 274.318 230.515 274.953 230.515H276.108L276.34 231.221C277.283 234.091 279.682 240.37 281.556 244.873C282.1 246.179 282.514 247.271 282.476 247.3C282.439 247.328 282.026 247.415 281.56 247.492C281.094 247.569 280.628 247.651 280.524 247.673C280.396 247.702 280.315 247.668 280.271 247.568V247.568ZM283.446 246.963C283.403 246.859 282.936 245.74 282.409 244.475C280.708 240.396 279.385 236.986 278.031 233.187C277.519 231.75 277.1 230.543 277.1 230.504C277.1 230.466 277.618 230.434 278.251 230.434H279.402L279.593 231.019C280.536 233.903 282.857 240.002 284.65 244.304C285.211 245.652 285.659 246.763 285.645 246.773C285.631 246.783 285.258 246.852 284.816 246.927C284.375 247.002 283.903 247.083 283.769 247.107C283.571 247.142 283.509 247.114 283.446 246.963L283.446 246.963ZM285.627 244.211C284.203 240.763 283.335 238.572 282.436 236.163C281.369 233.303 280.388 230.499 280.44 230.452C280.462 230.432 281.031 230.41 281.703 230.404L282.926 230.394L283.127 230.958C284.883 235.886 286.371 239.769 288.014 243.708C288.532 244.951 288.968 246.02 288.983 246.084C289.003 246.172 288.76 246.244 287.983 246.382C287.419 246.482 286.877 246.566 286.779 246.567C286.626 246.57 286.461 246.232 285.627 244.211V244.211ZM289.243 244.212C286.749 238.203 283.84 230.524 284.001 230.377C284.031 230.35 284.548 230.311 285.15 230.29L286.244 230.252L286.728 231.735C287.697 234.702 289.963 240.729 291.499 244.427C291.774 245.089 291.988 245.637 291.976 245.645C291.944 245.666 290.132 246.008 290.053 246.008C290.017 246.008 289.653 245.2 289.243 244.212V244.212ZM292.696 244.858C290.996 240.672 290.285 238.854 289.281 236.123C288.076 232.846 287.208 230.299 287.277 230.241C287.297 230.223 287.811 230.196 288.419 230.18L289.524 230.151L290.004 231.563C291.052 234.65 293.085 239.993 294.525 243.446C294.891 244.322 295.18 245.039 295.169 245.039C295.156 245.039 294.693 245.13 294.139 245.241C293.584 245.352 293.086 245.443 293.032 245.443C292.977 245.443 292.827 245.18 292.696 244.858V244.858ZM296.022 244.616C293.868 239.414 292.04 234.65 290.806 231.018C290.498 230.112 290.498 230.11 290.69 230.075C290.948 230.028 292.801 229.951 292.801 229.987C292.801 230.09 293.908 233.266 294.589 235.114C295.335 237.141 296.764 240.82 297.424 242.417C297.571 242.772 297.812 243.358 297.961 243.719L298.231 244.377L297.303 244.587C296.174 244.843 296.117 244.844 296.022 244.616V244.616ZM298.483 242.518C296.584 237.895 293.663 230.03 293.799 229.907C293.817 229.891 294.385 229.866 295.062 229.853L296.292 229.828L296.693 230.998C297.679 233.876 299.943 239.822 301.126 242.636C301.47 243.454 301.504 243.587 301.377 243.622C301.109 243.695 299.221 244.152 299.187 244.152C299.169 244.152 298.852 243.416 298.483 242.518V242.518ZM302.358 243.169C300.428 238.522 297.162 229.851 297.295 229.73C297.334 229.695 299.262 229.551 299.73 229.548C300 229.546 300.021 229.569 300.159 230.01C301.174 233.251 302.592 237.294 303.925 240.748C304.342 241.828 304.669 242.72 304.652 242.732C304.626 242.75 303.057 243.194 302.592 243.315C302.486 243.342 302.41 243.295 302.358 243.169ZM305.301 241.711C303.75 237.832 300.899 229.619 301.055 229.476C301.086 229.448 301.574 229.388 302.141 229.342C303.134 229.263 303.174 229.266 303.25 229.423C303.293 229.513 303.592 230.385 303.914 231.362C304.734 233.85 305.783 236.769 306.779 239.337C307.247 240.543 307.648 241.602 307.671 241.691C307.707 241.834 307.59 241.889 306.697 242.155C306.14 242.321 305.664 242.457 305.641 242.457C305.619 242.457 305.465 242.121 305.301 241.711V241.711ZM307.803 239.395C306.541 236.131 304.22 229.545 304.22 229.227C304.22 229.192 304.591 229.139 305.045 229.109C305.499 229.079 306 229.034 306.159 229.009C306.359 228.977 306.46 228.997 306.486 229.073C306.507 229.133 306.857 230.2 307.263 231.442C307.67 232.685 308.579 235.245 309.284 237.131C309.989 239.018 310.586 240.637 310.612 240.73C310.653 240.881 310.56 240.932 309.752 241.194C309.253 241.356 308.793 241.489 308.729 241.489C308.657 241.489 308.302 240.685 307.803 239.395V239.395ZM311.374 240.056C309.623 235.476 307.351 229.026 307.456 228.932C307.495 228.897 309.859 228.648 309.887 228.676C309.899 228.689 310.198 229.57 310.551 230.635C311.394 233.181 313.333 238.543 313.808 239.643C313.853 239.748 313.664 239.846 312.833 240.147C312.266 240.352 311.745 240.52 311.676 240.52C311.604 240.52 311.476 240.325 311.374 240.056V240.056ZM314.565 239.003C313.626 236.734 310.832 228.702 310.946 228.599C311.006 228.544 313.782 228.243 313.83 228.286C313.845 228.3 314.154 229.291 314.517 230.488C315.186 232.695 316.389 236.335 316.884 237.651C317.033 238.047 317.155 238.416 317.155 238.47C317.155 238.524 317.045 238.605 316.91 238.649C316.775 238.694 316.235 238.895 315.71 239.096L314.755 239.462L314.565 239.003V239.003ZM317.576 236.782C316.548 233.924 314.767 228.29 314.865 228.202C314.915 228.156 316.546 227.936 316.851 227.934C317.018 227.933 317.087 228.096 317.504 229.485C318.048 231.292 318.817 233.632 319.577 235.789C319.872 236.627 320.08 237.34 320.039 237.374C319.974 237.429 318.744 237.932 318.261 238.101C318.086 238.163 318.043 238.082 317.576 236.782V236.782ZM320.421 235.341C319.547 232.868 317.933 227.86 317.99 227.798C318.019 227.766 320.202 227.515 320.223 227.541C320.235 227.556 320.458 228.277 320.717 229.142C321.168 230.645 322.207 233.835 322.758 235.409L323.017 236.147L322.08 236.538C321.564 236.754 321.11 236.941 321.071 236.955C321.032 236.969 320.74 236.243 320.421 235.341V235.341ZM323.765 235.446C323.029 233.374 321.134 227.444 321.195 227.403C321.228 227.379 323.711 227.069 323.735 227.085C323.747 227.093 323.94 227.695 324.163 228.424C324.628 229.944 325.185 231.626 325.815 233.415C326.057 234.101 326.225 234.686 326.188 234.716C326.151 234.747 325.614 234.989 324.995 235.255L323.869 235.739L323.765 235.446V235.446ZM349.166 234.628C347.952 234.442 346.405 233.822 345.122 233.005C343.827 232.18 341.488 229.999 339.079 227.37L336.974 225.072L338.506 224.809C339.348 224.665 340.109 224.545 340.196 224.545C340.284 224.544 340.484 224.678 340.642 224.843C342.779 227.072 345.938 230.134 348.89 232.834L350.941 234.71L350.262 234.701C349.889 234.696 349.396 234.663 349.166 234.628V234.628ZM349.264 231.906C347.669 230.453 345.86 228.773 345.244 228.174C343.543 226.52 341.422 224.353 341.465 224.314C341.486 224.295 342.043 224.181 342.703 224.061L343.902 223.842L344.947 224.898C346.666 226.635 350.42 230.165 352.683 232.173C354.302 233.609 354.766 234.064 354.646 234.097C354.52 234.132 352.246 234.549 352.182 234.549C352.172 234.549 350.859 233.36 349.264 231.906V231.906ZM327.05 234.088C326.735 233.342 324.738 227.222 324.738 227.003C324.738 226.948 325.172 226.856 325.831 226.77C326.432 226.693 326.989 226.613 327.069 226.592C327.183 226.564 327.357 226.87 327.896 228.052C328.816 230.066 329.05 230.878 329.004 231.883C328.975 232.548 328.934 232.712 328.707 233.086C328.442 233.525 327.963 233.936 327.436 234.178C327.145 234.312 327.144 234.312 327.05 234.088V234.088ZM352.827 231.059C349.167 227.767 345.078 223.876 345.078 223.685C345.078 223.646 345.627 223.512 346.298 223.389L347.518 223.165L348.06 223.713C349.549 225.22 351.767 227.299 354.903 230.127C356.809 231.845 358.336 233.268 358.298 233.289C358.216 233.335 356.098 233.823 355.98 233.823C355.936 233.823 354.517 232.579 352.827 231.059V231.059ZM357.412 231.178C354.422 228.568 348.561 223.06 348.67 222.961C348.697 222.937 349.295 222.795 349.999 222.647L351.278 222.378L352.649 223.682C353.403 224.4 355.846 226.627 358.077 228.633L362.133 232.278L361.211 232.531C360.704 232.669 360.114 232.834 359.901 232.897L359.513 233.011L357.412 231.178ZM360.582 229.673C357.616 227.088 352.397 222.249 352.491 222.171C352.511 222.155 353.069 222.029 353.732 221.893L354.936 221.644L355.334 222.024C355.552 222.233 356.676 223.308 357.832 224.413C358.987 225.518 361.15 227.506 362.639 228.83L365.346 231.239L365.092 231.327C364.953 231.376 364.469 231.536 364.017 231.683L363.195 231.95L360.582 229.673V229.673ZM362.808 227.751C359.497 224.771 356.013 221.484 356.09 221.415C356.11 221.396 356.651 221.261 357.292 221.115L358.457 220.849L359.187 221.546C359.588 221.93 361.862 223.997 364.239 226.141C366.616 228.285 368.545 230.053 368.525 230.071C368.434 230.153 366.532 230.837 366.394 230.837C366.306 230.837 364.723 229.475 362.808 227.751V227.751ZM425.59 230.047C412.28 222.652 403.953 217.121 398.025 211.736C396.803 210.626 396.765 210.6 396.307 210.544L395.839 210.487V208.78C395.839 207.841 395.866 206.555 395.897 205.922L395.956 204.773H396.355C396.721 204.773 396.95 204.657 399.129 203.371C406.588 198.97 414.482 194.698 423.003 190.45C424.328 189.79 425.754 189.079 426.171 188.87C426.588 188.662 426.943 188.503 426.961 188.517C426.996 188.546 426.386 190.669 426.267 190.934C426.217 191.046 422.108 192.995 413.014 197.223C405.765 200.594 399.738 203.419 399.621 203.503C399.249 203.767 399.38 204.237 399.823 204.231C399.978 204.228 405.083 201.898 412.95 198.237C420.031 194.943 425.842 192.263 425.864 192.283C425.887 192.303 425.752 193.024 425.565 193.884L425.227 195.449L414.257 199.7C408.224 202.037 403.175 204.008 403.037 204.078C402.83 204.184 402.791 204.252 402.814 204.468C402.836 204.669 402.898 204.747 403.085 204.806C403.299 204.874 404.626 204.38 414.125 200.698C420.062 198.397 424.943 196.534 424.97 196.559C424.998 196.583 424.939 197.125 424.841 197.763C424.743 198.401 424.636 199.2 424.602 199.539C424.568 199.879 424.513 200.199 424.477 200.252C424.442 200.304 420.205 201.379 415.063 202.641C409.921 203.902 405.66 204.975 405.594 205.025C405.445 205.137 405.437 205.514 405.581 205.644C405.64 205.697 405.77 205.742 405.871 205.743C405.971 205.744 410.158 204.74 415.175 203.511C420.192 202.281 424.32 201.296 424.347 201.321C424.375 201.347 424.358 201.87 424.297 202.485C424.242 203.1 424.169 204.292 424.135 205.136L424.073 206.669L414.475 206.709C406.519 206.743 404.85 206.769 404.728 206.86C404.556 206.989 404.533 207.36 404.687 207.5C404.769 207.574 407.046 207.597 414.394 207.597H423.993L424.101 210.885C424.161 212.694 424.251 214.604 424.302 215.131C424.352 215.658 424.381 216.1 424.365 216.115C424.348 216.13 420.249 214.419 415.256 212.313C410.262 210.207 406.099 208.484 406.005 208.484C405.748 208.484 405.514 208.85 405.627 209.074C405.697 209.212 407.917 210.181 415.074 213.195C420.22 215.363 424.436 217.142 424.444 217.148C424.454 217.154 424.524 217.776 424.605 218.531C424.686 219.285 424.807 220.32 424.875 220.829C424.943 221.339 424.989 221.764 424.978 221.774C424.967 221.784 420.102 219.082 414.167 215.77C408.232 212.458 403.272 209.733 403.145 209.714C402.673 209.645 402.447 210.138 402.819 210.43C402.929 210.516 407.997 213.362 414.081 216.753L425.144 222.918L425.3 223.952C425.387 224.521 425.538 225.455 425.636 226.028C425.735 226.6 425.799 227.084 425.779 227.102C425.758 227.12 419.87 223.459 412.693 218.967C402.673 212.694 399.583 210.798 399.383 210.798C398.885 210.798 398.805 211.271 399.25 211.59C399.41 211.704 405.502 215.529 412.788 220.088L426.036 228.379L426.231 229.386C426.339 229.94 426.419 230.416 426.41 230.443C426.4 230.471 426.031 230.293 425.59 230.047L425.59 230.047ZM264.075 229.54C237.704 228.879 212.344 225.316 189.183 219.018C186.503 218.289 181.884 216.952 181.796 216.879C181.757 216.846 181.857 216.772 182.019 216.715C182.181 216.657 182.715 216.43 183.206 216.21C187.804 214.149 190.599 211.469 191.557 208.202C191.821 207.303 191.887 205.491 191.692 204.479C191.31 202.487 190.145 200.295 188.335 198.159C187.465 197.133 186.335 196.023 186.075 195.94C185.764 195.841 185.536 195.959 185.499 196.237C185.477 196.396 185.65 196.623 186.293 197.278C190.307 201.369 191.709 205.148 190.466 208.525C189.505 211.138 187.073 213.415 183.34 215.199C182.184 215.752 180.558 216.393 180.312 216.393C180.093 216.393 176.796 215.346 173.571 214.253C169.013 212.708 163.387 210.599 159.46 208.964C158.487 208.559 157.622 208.209 157.536 208.185C157.45 208.162 157.38 208.118 157.38 208.087C157.38 208.057 159.245 206.89 161.524 205.494C163.803 204.099 165.64 202.936 165.605 202.909C165.57 202.883 161.046 202.072 155.551 201.108C150.056 200.143 145.484 199.335 145.393 199.311C144.924 199.191 156.423 193.712 162.643 191.091C185.4 181.505 208.229 176.055 232.762 174.35C239.569 173.877 249.147 173.672 255.779 173.857C273.59 174.353 291.212 176.459 310.554 180.402C318.71 182.064 324.267 183.451 334.819 186.454C344.577 189.232 355.209 192.495 383.954 201.538C390.815 203.696 394.355 204.773 394.592 204.773H394.947V206.85C394.947 207.993 394.921 209.282 394.888 209.715L394.831 210.502H394.138C393.487 210.502 393.275 210.556 390.65 211.38C385.446 213.015 380.118 214.546 373.804 216.22C343.119 224.36 311.716 228.867 280.981 229.544C276.922 229.634 267.732 229.631 264.075 229.54L264.075 229.54ZM222.896 212.391C227.561 211.925 231.426 210.23 233.896 207.567C235.902 205.404 237.075 202.788 237.627 199.245C237.875 197.654 237.886 192.918 237.642 192.698C237.596 192.656 203.325 199.894 202.798 200.057C202.725 200.08 203.014 200.315 203.511 200.636C204.93 201.554 205.717 202.4 206.237 203.563C206.506 204.165 206.714 205.119 206.71 205.728C206.7 206.927 206.191 208.283 205.484 208.984C204.941 209.522 204.876 209.673 205.081 209.927C205.47 210.409 210.513 211.659 214.028 212.146C217.231 212.589 220.12 212.669 222.896 212.391H222.896ZM216.972 211.621C215.71 211.529 214.233 211.345 212.779 211.1C211.4 210.868 207.853 210.066 207.624 209.935C207.512 209.871 207.803 209.859 208.72 209.89C209.407 209.914 213.923 210.009 218.756 210.102C223.589 210.195 227.662 210.297 227.807 210.328C228.042 210.379 227.964 210.418 227.094 210.683C225.392 211.202 223.899 211.478 221.968 211.63C220.775 211.724 218.318 211.72 216.972 211.621V211.621ZM216.883 209.206C211.461 209.082 206.954 208.978 206.867 208.975C206.725 208.969 206.732 208.929 206.936 208.565C207.061 208.343 207.212 208.161 207.272 208.161C207.333 208.161 213.08 207.98 220.045 207.759C227.009 207.539 232.729 207.379 232.757 207.406C232.836 207.48 231.637 208.444 230.807 208.973L230.056 209.453L228.398 209.442C227.487 209.436 222.305 209.33 216.883 209.206L216.883 209.206ZM207.553 206.754C207.64 206.238 207.643 206.234 207.957 206.192C208.767 206.086 235.084 204.102 235.131 204.144C235.231 204.235 234.076 206.074 233.751 206.34C233.617 206.449 231.88 206.521 220.801 206.87C213.764 207.092 207.885 207.274 207.737 207.274H207.467L207.553 206.754H207.553ZM207.567 204.854C207.532 204.578 207.516 204.341 207.532 204.327C207.581 204.283 236.463 200.108 236.5 200.14C236.56 200.191 236.148 201.78 235.896 202.473C235.703 203.004 235.622 203.128 235.438 203.176C235.315 203.208 229.233 203.69 221.923 204.247C214.612 204.805 208.405 205.282 208.13 205.308L207.63 205.356L207.567 204.854H207.567ZM206.904 202.813C206.709 202.448 206.556 202.147 206.564 202.144C206.574 202.14 213.323 200.89 221.566 199.366C229.809 197.842 236.623 196.579 236.709 196.559C236.848 196.527 236.865 196.593 236.865 197.158C236.865 197.778 236.726 199.115 236.657 199.178C236.637 199.195 230.123 200.151 222.18 201.302C214.237 202.452 207.63 203.412 207.499 203.435C207.275 203.473 207.237 203.432 206.904 202.813V202.813ZM205.385 200.931C205.06 200.638 204.945 200.486 205.028 200.459C205.205 200.401 236.229 193.795 236.575 193.741L236.865 193.696V194.674C236.865 195.621 236.855 195.652 236.665 195.693C236.111 195.811 205.947 201.382 205.909 201.374C205.885 201.369 205.649 201.17 205.385 200.931V200.931ZM170.192 198.71C170.75 198.521 171.539 197.903 171.856 197.407C172.262 196.772 172.39 196.27 172.351 195.464C172.321 194.849 172.269 194.639 172.041 194.202C171.661 193.475 171.162 192.996 170.438 192.664C169.868 192.402 169.782 192.386 168.936 192.386C168.192 192.386 167.965 192.417 167.601 192.569C166.272 193.123 165.478 194.275 165.487 195.633C165.498 196.689 165.837 197.414 166.652 198.104C167.621 198.923 168.909 199.144 170.192 198.71V198.71ZM368.285 228.56C363.336 224.226 359.524 220.692 359.695 220.596C359.755 220.562 360.294 220.436 360.894 220.314L361.983 220.094L366.813 224.449L371.643 228.804L370.674 229.215C370.14 229.442 369.659 229.627 369.604 229.627C369.548 229.627 368.955 229.147 368.285 228.56ZM370.298 226.369C369.061 225.287 366.927 223.374 365.555 222.118C363.168 219.93 363.072 219.83 363.291 219.764C363.418 219.726 364.022 219.574 364.634 219.426L365.747 219.158L368.415 221.577C369.882 222.908 371.925 224.728 372.956 225.621C373.986 226.515 374.839 227.264 374.85 227.287C374.878 227.339 372.788 228.336 372.651 228.336C372.594 228.336 371.535 227.451 370.298 226.369V226.369ZM374.416 225.697C372.344 223.918 366.845 218.947 366.897 218.901C366.922 218.878 367.553 218.708 368.299 218.524L369.655 218.188L371.34 219.772C372.266 220.643 374.121 222.345 375.462 223.554L377.899 225.752L377.033 226.207C376.557 226.457 376.082 226.71 375.977 226.768C375.799 226.867 375.696 226.797 374.416 225.697V225.697ZM375.843 222.663C372.245 219.414 370.71 217.94 370.872 217.889C370.939 217.868 371.464 217.726 372.04 217.574L373.088 217.296L376.868 220.722L380.649 224.149L380.014 224.532C379.664 224.743 379.233 224.996 379.055 225.093L378.731 225.271L375.843 222.663ZM377.81 220.354C375.851 218.582 374.249 217.1 374.249 217.06C374.249 217.02 374.761 216.854 375.387 216.69L376.524 216.393L379.892 219.436C381.744 221.109 383.259 222.484 383.259 222.489C383.259 222.539 381.559 223.575 381.477 223.575C381.419 223.575 379.768 222.125 377.81 220.354V220.354ZM380.784 219.013L377.594 216.129L378.799 215.778C379.461 215.584 380.064 215.426 380.138 215.425C380.211 215.425 381.543 216.577 383.097 217.986L385.921 220.548L385.085 221.175C384.625 221.52 384.186 221.823 384.111 221.849C384.014 221.883 383.016 221.032 380.784 219.013V219.013ZM383.978 217.562C382.503 216.237 381.297 215.132 381.299 215.107C381.299 215.082 381.95 214.874 382.744 214.645L384.187 214.229L385.617 215.573C386.404 216.312 387.378 217.227 387.783 217.606L388.519 218.296L387.589 219.134L386.66 219.972L383.978 217.562V217.562ZM387.197 215.81L385.202 213.938L386.366 213.587L387.53 213.235L389.087 214.672L390.643 216.108L390.251 216.553C390.035 216.798 389.708 217.152 389.525 217.34L389.192 217.681L387.197 215.81V215.81ZM389.867 214.159C389.174 213.508 388.639 212.949 388.677 212.918C388.715 212.886 389.218 212.721 389.795 212.551L390.844 212.242L391.637 212.955L392.429 213.669L392.112 214.163C391.664 214.862 391.293 215.344 391.203 215.344C391.161 215.344 390.56 214.811 389.867 214.159V214.159ZM392.361 212.4C392.096 212.157 391.896 211.942 391.918 211.923C391.94 211.903 392.291 211.777 392.698 211.642C393.429 211.401 393.438 211.4 393.382 211.575C393.307 211.811 392.883 212.842 392.861 212.842C392.851 212.842 392.626 212.643 392.361 212.4V212.4ZM391.69 203.073C391.15 202.898 390.651 202.734 390.58 202.711C390.492 202.681 390.727 202.418 391.337 201.864C391.823 201.422 392.245 201.061 392.274 201.061C392.357 201.061 392.616 202.177 392.68 202.816C392.712 203.138 392.724 203.399 392.704 203.397C392.686 203.394 392.229 203.249 391.689 203.073H391.69ZM388.35 202.023C387.788 201.85 387.297 201.679 387.259 201.644C387.22 201.609 388.004 200.843 389.001 199.942L390.813 198.304L391.173 198.855C391.371 199.158 391.622 199.566 391.731 199.761L391.929 200.115L390.696 201.234C390.017 201.849 389.441 202.349 389.416 202.346C389.391 202.342 388.911 202.197 388.35 202.023V202.023ZM384.933 200.953C384.357 200.768 383.895 200.592 383.907 200.562C383.919 200.531 385.008 199.504 386.327 198.278L388.725 196.05L388.947 196.235C389.068 196.337 389.409 196.687 389.706 197.014L390.243 197.607L388.202 199.455C387.079 200.471 386.12 201.3 386.07 201.296C386.021 201.292 385.509 201.137 384.933 200.953V200.953ZM381.364 199.825C380.64 199.595 380.048 199.384 380.048 199.357C380.048 199.329 381.414 198.084 383.085 196.591C385.3 194.61 386.156 193.892 386.249 193.939C386.319 193.975 386.759 194.323 387.227 194.714L388.078 195.424L385.468 197.839C384.032 199.166 382.818 200.251 382.769 200.248C382.719 200.246 382.087 200.055 381.364 199.825H381.364ZM377.661 198.659C377.011 198.454 376.479 198.261 376.479 198.231C376.479 198.141 383.345 192.023 383.445 192.023C383.535 192.023 384.802 192.857 385.189 193.17L385.379 193.324L383.226 195.234C382.042 196.285 380.617 197.571 380.059 198.094C379.501 198.616 378.999 199.041 378.944 199.038C378.888 199.036 378.311 198.865 377.661 198.659V198.659ZM374.182 197.573C373.63 197.394 373.179 197.219 373.179 197.186C373.179 197.096 380.671 190.409 380.771 190.409C380.817 190.409 381.255 190.643 381.742 190.929L382.629 191.45L379.058 194.661C377.094 196.428 375.419 197.879 375.336 197.887C375.253 197.894 374.734 197.753 374.182 197.573V197.573ZM370.927 196.552C370.399 196.384 369.941 196.223 369.908 196.193C369.876 196.163 370.346 195.676 370.954 195.11C373.527 192.715 375.096 191.29 376.492 190.079L377.977 188.792L378.959 189.324L379.942 189.856L376.062 193.34C373.928 195.256 372.115 196.832 372.033 196.841C371.952 196.85 371.454 196.72 370.927 196.552V196.552ZM367.456 195.465L366.15 195.047L367.144 194.104C368.179 193.122 371.874 189.861 373.841 188.193L374.978 187.229L375.439 187.459C375.692 187.586 376.171 187.831 376.503 188.004L377.106 188.319L374.639 190.514C373.283 191.721 371.425 193.417 370.512 194.282C369.599 195.148 368.832 195.862 368.807 195.869C368.783 195.877 368.175 195.695 367.456 195.465V195.465ZM363.744 194.302L362.561 193.927L363.744 192.834C364.998 191.675 370.575 186.745 371.381 186.083L371.859 185.691L372.88 186.174C373.442 186.439 373.938 186.694 373.982 186.741C374.033 186.795 373.475 187.324 372.402 188.234C371.489 189.008 369.476 190.777 367.928 192.164C366.38 193.551 365.071 194.684 365.02 194.681C364.969 194.678 364.394 194.507 363.744 194.302ZM360.258 193.212L359.247 192.885L361.685 190.67C364.769 187.87 368.807 184.357 368.942 184.357C368.998 184.357 369.479 184.562 370.011 184.813L370.978 185.27L370.718 185.469C370.052 185.977 364.327 191.032 363.069 192.221C362.049 193.185 361.603 193.554 361.463 193.548C361.356 193.543 360.814 193.392 360.258 193.212V193.212ZM357.171 192.241C356.585 192.055 356.092 191.863 356.076 191.815C356.037 191.704 360.509 187.58 363.546 184.924L365.86 182.901L366.935 183.389L368.01 183.877L366.959 184.781C365.104 186.378 361.856 189.264 360.02 190.946L358.236 192.581L357.171 192.241V192.241ZM353.731 191.181L352.616 190.836L355.203 188.477C357.664 186.233 362.234 182.232 362.768 181.853L363.019 181.675L363.928 182.056C364.428 182.265 364.853 182.45 364.872 182.466C364.891 182.482 363.084 184.13 360.857 186.126C358.63 188.123 356.407 190.155 355.916 190.641C355.426 191.127 354.984 191.525 354.935 191.525C354.886 191.525 354.344 191.371 353.731 191.181ZM350.372 190.169C349.825 190 349.306 189.825 349.22 189.781C349.085 189.713 349.646 189.173 353.069 186.078C355.273 184.085 357.669 181.952 358.393 181.337L359.711 180.219L360.802 180.68C361.402 180.934 361.924 181.169 361.962 181.202C362 181.235 361.036 182.118 359.821 183.165C358.606 184.212 356.271 186.288 354.633 187.779C352.996 189.27 351.59 190.487 351.511 190.483C351.432 190.48 350.919 190.339 350.372 190.169V190.169ZM346.886 189.098L345.795 188.772L346.07 188.481C347.289 187.19 356.354 179.064 356.692 178.959C356.812 178.922 358.738 179.77 358.705 179.846C358.693 179.875 357.578 180.859 356.229 182.033C354.879 183.207 352.487 185.354 350.912 186.804C349.337 188.254 348.032 189.437 348.012 189.433C347.993 189.428 347.486 189.278 346.886 189.098V189.098ZM343.582 188.124C342.981 187.941 342.499 187.765 342.512 187.733C342.631 187.435 350.65 180.05 352.732 178.32L353.563 177.63L353.892 177.737C354.073 177.796 354.573 177.989 355.003 178.167L355.785 178.49L354.379 179.703C352.041 181.721 347.47 185.85 346.08 187.201C345.36 187.9 344.75 188.469 344.724 188.465C344.697 188.462 344.184 188.308 343.582 188.124V188.124ZM340.327 187.163C339.848 187.024 339.457 186.869 339.457 186.819C339.457 186.666 341.576 183.404 342.289 182.46C344.063 180.113 345.745 178.618 347.533 177.799C348.543 177.337 349.201 177.215 350.698 177.215C351.458 177.215 352.154 177.243 352.245 177.276C352.381 177.327 351.756 177.926 348.628 180.746C346.548 182.621 344.089 184.89 343.163 185.789C342.236 186.688 341.415 187.421 341.338 187.419C341.26 187.417 340.805 187.302 340.327 187.163V187.163ZM320.188 181.539C320.188 181.353 323.061 173.984 323.173 173.883C323.216 173.844 324.007 174.261 324.073 174.357C324.148 174.467 320.436 181.613 320.303 181.613C320.24 181.613 320.188 181.58 320.188 181.539V181.539ZM317.897 181.102C317.299 180.961 316.783 180.822 316.75 180.791C316.718 180.761 316.739 180.598 316.799 180.428C317.367 178.816 319.804 172.693 320.044 172.271C320.148 172.09 320.157 172.093 321.2 172.687C321.778 173.017 322.273 173.306 322.299 173.329C322.325 173.353 321.983 174.273 321.537 175.375C321.092 176.476 320.39 178.266 319.977 179.354C319.514 180.573 319.18 181.336 319.104 181.344C319.038 181.351 318.494 181.243 317.896 181.102H317.897ZM314.657 180.393C314.289 180.305 313.838 180.197 313.656 180.154L313.325 180.075L314.114 178C314.825 176.131 315.811 173.671 316.765 171.386C316.955 170.931 317.144 170.559 317.186 170.559C317.228 170.559 317.716 170.8 318.271 171.095C319.252 171.617 319.278 171.638 319.19 171.842C318.66 173.069 317.481 176.003 316.705 178.022C315.608 180.878 315.793 180.664 314.657 180.393V180.393ZM311.267 179.678C310.505 179.519 310.247 179.434 310.267 179.348C310.457 178.504 314.311 169.124 314.449 169.171C314.804 169.29 316.262 170.047 316.262 170.113C316.262 170.159 316.038 170.723 315.764 171.366C314.984 173.197 313.993 175.665 313.171 177.82C312.756 178.908 312.389 179.819 312.355 179.845C312.321 179.87 311.831 179.795 311.267 179.678V179.678ZM308.234 179.064C307.718 178.957 307.247 178.852 307.187 178.832C307.073 178.794 307.787 176.837 309.163 173.423C309.893 171.612 311.455 167.878 311.508 167.818C311.559 167.76 313.497 168.648 313.497 168.73C313.497 168.771 313.118 169.699 312.656 170.791C311.725 172.989 310.69 175.555 309.83 177.8C309.519 178.61 309.244 179.27 309.218 179.266C309.191 179.263 308.749 179.172 308.234 179.064V179.064ZM305.289 178.498C304.971 178.436 304.503 178.347 304.25 178.3L303.79 178.216L303.989 177.635C304.688 175.602 308.289 166.714 308.502 166.497C308.552 166.447 310.457 167.233 310.628 167.374C310.646 167.387 310.269 168.318 309.794 169.442C308.502 172.495 306.686 177.071 306.303 178.236C306.159 178.675 306.175 178.671 305.289 178.498V178.498ZM301.482 177.792C300.983 177.697 300.548 177.595 300.517 177.566C300.379 177.439 302.385 172.269 304.489 167.33C304.991 166.154 305.41 165.181 305.423 165.168C305.451 165.139 307.449 165.958 307.55 166.04C307.591 166.074 307.203 167.095 306.689 168.309C305.473 171.179 304.502 173.599 303.592 176.025C302.745 178.284 302.99 178.079 301.482 177.792V177.792ZM298.242 177.236C297.727 177.147 297.294 177.066 297.281 177.055C297.249 177.03 298.622 173.445 299.444 171.408C300.833 167.968 302.501 164.103 302.597 164.101C302.786 164.099 304.487 164.791 304.487 164.871C304.487 164.923 304.121 165.816 303.674 166.854C302.543 169.483 301.169 172.883 300.247 175.339C299.646 176.94 299.434 177.415 299.323 177.408C299.244 177.403 298.757 177.325 298.242 177.236V177.236ZM295.216 176.739C294.656 176.646 294.183 176.53 294.165 176.482C294.081 176.251 297.429 167.827 299.134 163.981C299.292 163.626 299.454 163.257 299.495 163.161C299.569 162.987 299.577 162.988 300.572 163.343C301.123 163.54 301.591 163.716 301.612 163.734C301.632 163.753 301.329 164.506 300.937 165.408C299.409 168.924 296.458 176.275 296.458 176.564C296.458 176.617 296.407 176.716 296.346 176.785C296.245 176.897 296.131 176.892 295.216 176.739V176.739ZM292.309 176.283C292.064 176.245 291.597 176.174 291.272 176.124L290.68 176.034L291.06 174.97C292.077 172.118 294.169 166.977 296.012 162.798L296.392 161.938L297.25 162.222C297.722 162.378 298.228 162.543 298.376 162.59C298.523 162.636 298.653 162.68 298.665 162.688C298.677 162.696 298.501 163.117 298.275 163.624C296.934 166.637 295.193 170.903 293.998 174.108C293.073 176.59 293.204 176.422 292.309 176.283V176.283ZM288.306 175.716C287.772 175.634 287.323 175.556 287.307 175.541C287.245 175.486 288.674 171.673 289.795 168.904C290.72 166.619 293.099 161.065 293.191 160.979C293.217 160.954 295.371 161.64 295.428 161.692C295.456 161.717 295.273 162.187 295.023 162.738C293.782 165.468 291.765 170.397 290.511 173.765C289.755 175.794 289.713 175.882 289.499 175.873C289.377 175.869 288.84 175.798 288.306 175.716V175.716ZM285.004 175.273C284.52 175.212 284.108 175.15 284.091 175.134C284.052 175.099 285.396 171.533 286.287 169.307C287.525 166.218 290.052 160.35 290.209 160.202C290.277 160.139 292.063 160.588 292.191 160.701C292.224 160.73 292.112 161.062 291.943 161.439C290.524 164.594 288.66 169.127 287.313 172.696C286.161 175.751 286.429 175.452 285.004 175.273V175.273ZM281.719 174.882C281.292 174.83 280.922 174.769 280.898 174.747C280.835 174.691 282.266 170.848 283.4 168.025C284.286 165.818 285.61 162.682 286.644 160.342L287.11 159.286L288.14 159.554C288.706 159.702 289.19 159.841 289.215 159.865C289.241 159.888 289.05 160.388 288.79 160.976C286.725 165.651 284.186 171.899 283.346 174.371L283.134 174.996L282.815 174.986C282.64 174.98 282.147 174.933 281.719 174.882V174.882ZM278.593 174.527C277.849 174.448 277.456 174.372 277.456 174.309C277.456 174.173 278.925 170.1 279.668 168.177C280.771 165.321 283.05 159.823 283.599 158.691L283.745 158.389L284.95 158.711C285.612 158.889 286.164 159.043 286.177 159.054C286.189 159.065 285.914 159.706 285.565 160.478C284.096 163.731 282.247 168.261 280.844 172.047C280.319 173.465 279.853 174.631 279.81 174.637C279.766 174.644 279.219 174.594 278.593 174.527V174.527ZM224.197 174.216C224.197 174.122 226.62 169.716 227.41 168.373C228.684 166.206 230.8 162.885 232.316 160.673C234.488 157.501 238.657 151.877 238.836 151.877C238.955 151.877 241.861 153.785 241.861 153.862C241.861 153.898 241.186 154.809 240.361 155.888C235.518 162.219 231.828 167.482 228.834 172.333C228.327 173.154 227.901 173.84 227.887 173.857C227.874 173.873 227.127 173.954 226.23 174.035C225.333 174.117 224.508 174.198 224.398 174.216C224.288 174.233 224.197 174.233 224.197 174.216V174.216ZM274.898 174.158C274.447 174.108 274.056 174.047 274.028 174.021C273.918 173.92 275.888 168.52 277.412 164.748C278.356 162.409 280.353 157.698 280.449 157.582C280.468 157.558 282.74 158.122 282.784 158.162C282.796 158.173 282.622 158.598 282.395 159.105C280.641 163.039 277.706 170.484 276.711 173.523L276.466 174.27L276.091 174.258C275.885 174.252 275.348 174.207 274.898 174.158V174.158ZM271.581 173.862C271.17 173.825 270.813 173.775 270.787 173.751C270.608 173.59 273.683 165.504 275.805 160.552C277.335 156.981 277.401 156.84 277.545 156.842C277.619 156.843 278.08 156.947 278.571 157.073C279.178 157.228 279.459 157.337 279.45 157.413C279.439 157.475 279.006 158.524 278.481 159.745C276.604 164.105 274.733 168.879 273.578 172.252L273.011 173.907L272.669 173.918C272.48 173.923 271.991 173.899 271.581 173.862V173.862ZM229.168 173.535C229.269 173.384 229.703 172.698 230.132 172.01C232.386 168.395 235.914 163.299 238.933 159.297C241.81 155.484 242.624 154.425 242.683 154.422C242.736 154.419 244.154 155.444 244.526 155.755C244.629 155.84 244.443 156.128 243.403 157.498C239.394 162.776 235.869 167.832 233.228 172.091C232.829 172.735 232.45 173.322 232.387 173.396C232.296 173.501 232.001 173.549 231.022 173.618C230.335 173.667 229.596 173.73 229.379 173.757L228.985 173.808L229.168 173.535V173.535ZM268.713 173.652C268.542 173.637 268.195 173.604 267.943 173.579L267.485 173.534L267.882 172.318C268.461 170.545 270.086 166.16 271.069 163.715C271.996 161.412 273.886 156.948 274.189 156.343L274.378 155.967L275.394 156.239C275.952 156.389 276.428 156.528 276.451 156.549C276.473 156.569 276.131 157.415 275.69 158.428C273.502 163.452 270.754 170.483 269.916 173.201L269.76 173.705L269.393 173.692C269.191 173.685 268.885 173.667 268.713 173.652V173.652ZM233.502 173.405C233.524 173.37 233.895 172.779 234.325 172.091C236.778 168.167 240.474 162.883 244.159 158.033C245.15 156.729 245.392 156.457 245.51 156.518C245.588 156.559 246.029 156.912 246.49 157.303L247.327 158.013L245.675 160.23C242.254 164.823 238.762 169.859 237.089 172.616C236.9 172.926 236.735 173.193 236.722 173.208C236.709 173.224 236.225 173.268 235.645 173.306C235.065 173.345 234.336 173.397 234.026 173.423C233.715 173.448 233.479 173.44 233.502 173.405V173.405ZM264.773 173.39C264.298 173.363 263.886 173.32 263.857 173.293C263.813 173.253 270.808 155.165 270.903 155.076C270.931 155.049 273.355 155.683 273.401 155.729C273.414 155.741 273.103 156.477 272.713 157.364C270.541 162.308 268.238 168.239 266.773 172.656L266.519 173.422L266.077 173.43C265.834 173.433 265.247 173.416 264.773 173.389V173.39ZM237.847 173.173C237.847 173.042 240.665 168.794 242.314 166.44C242.919 165.576 244.454 163.458 245.726 161.733L248.038 158.598L248.875 159.351C249.335 159.766 249.711 160.144 249.711 160.193C249.711 160.241 249.122 161.077 248.4 162.05C245.832 165.517 243.217 169.243 241.542 171.824L240.746 173.05L240.211 173.092C239.255 173.167 237.847 173.215 237.847 173.173V173.173ZM257.54 173.08C256.718 173.064 256.224 173.024 256.224 172.972C256.224 172.927 256.615 172.341 257.093 171.67L257.961 170.45L258.56 171.573C258.89 172.191 259.199 172.796 259.248 172.918C259.332 173.127 259.323 173.139 259.096 173.122C258.964 173.112 258.263 173.093 257.54 173.08V173.08ZM241.968 172.867C242.714 171.607 245.935 166.982 248.489 163.506C250.144 161.252 250.457 160.869 250.56 160.964C250.627 161.026 251.041 161.453 251.479 161.913L252.276 162.75L250.284 165.473C248.677 167.67 245.153 172.675 245.052 172.904C245.038 172.933 244.317 172.975 243.449 172.996C241.874 173.034 241.87 173.034 241.968 172.867V172.867ZM246.323 172.689C248.492 169.459 252.747 163.578 252.915 163.578C253.032 163.578 254.566 165.383 254.916 165.931C254.95 165.984 254.217 167.069 253.254 168.393C252.306 169.694 251.198 171.241 250.792 171.829L250.054 172.898L248.701 172.899C247.956 172.899 247.069 172.923 246.729 172.952L246.111 173.005L246.323 172.689V172.689ZM251.228 172.9C251.228 172.782 254.945 167.55 255.411 167.012L255.581 166.815L255.999 167.399C256.229 167.721 256.649 168.35 256.934 168.797L257.451 169.61L256.235 171.293L255.02 172.976L253.124 172.977C251.945 172.978 251.228 172.949 251.228 172.899V172.9Z" fill="white"/>
</g>
<defs>
<clipPath id="clip0_1_1131">
<rect width="600" height="400" fill="white"/>
</clipPath>
</defs>
</svg>
