<svg width="600" height="400" viewBox="0 0 600 400" fill="none" xmlns="http://www.w3.org/2000/svg" xmlns:cgf="https://coding.garden/flags"><metadata id="cgf-metadata">

<cgf:flag>
  <cgf:name>Eemsdelta</cgf:name>
  <cgf:route>nl/gr/eemsdelta</cgf:route>
  <cgf:aspect-ratio>1.5</cgf:aspect-ratio>
</cgf:flag>

</metadata><g clip-path="url(#clip0_3_11475)">
<rect width="600" height="400" fill="white"/>
<path d="M182.387 390.007L158.453 376.274C206.715 292.694 265.179 307.211 312.267 318.594C350.724 328.011 381.33 335.467 409.971 302.505L430.766 320.556C391.136 366.073 346.008 355.086 305.985 345.278C283.228 339.784 261.252 334.289 241.239 338.606C218.487 343.312 199.649 359.796 182.385 390.009" fill="#84BD00"/>
<path d="M180.033 318.593L158.843 301.326C202.79 247.174 261.652 256.201 313.056 264.047C353.08 269.931 387.219 275.425 412.33 254.63L429.987 275.819C395.457 304.071 351.507 297.792 309.137 291.125C260.48 283.669 214.179 276.997 180.04 318.592" fill="#84BD00"/>
<path d="M442.155 220.885H428.815L426.46 227.557H418.22L430.777 194.595H439.8L452.356 227.557H444.117L442.155 220.885ZM439.406 213.823L435.483 202.834L431.56 213.823H439.406ZM417.827 202.051H407.626V227.557H399.776V202.051H389.965V194.595H417.827L417.827 202.051ZM389.576 220.495V227.95H365.641V194.988H373.49V220.494L389.576 220.495ZM357.397 220.495V227.95H332.285V194.988H357.008V202.444H340.131V207.938H356.22V215H340.131V220.884H357.398L357.397 220.495ZM324.435 211.467C324.829 220.49 317.763 227.556 308.74 227.946H293.829V194.984H307.169C316.192 194.2 323.648 200.868 324.436 209.895L324.435 211.467ZM316.196 211.467C316.59 206.757 313.057 202.834 308.346 202.444H301.674V220.888H307.168C308.359 220.908 309.541 220.688 310.645 220.242C311.748 219.795 312.751 219.132 313.593 218.29C314.435 217.448 315.099 216.445 315.545 215.341C315.991 214.238 316.211 213.055 316.191 211.865L316.196 211.467ZM257.728 224.024L261.261 217.746C264.619 220.027 268.58 221.257 272.639 221.279C275.384 221.279 277.35 220.101 277.35 218.14C277.35 216.178 275.388 215.784 271.855 215.001C262.044 212.645 258.515 211.078 258.515 205.19C258.515 196.167 266.365 194.201 272.643 194.201C276.959 194.201 281.276 195.379 284.805 197.734L281.272 204.012C278.527 202.051 275.388 201.267 271.855 201.267C268.322 201.267 266.754 202.445 266.754 204.406C266.754 206.367 268.326 206.761 272.638 207.545C276.955 208.329 285.588 210.29 285.588 217.746C285.588 224.418 279.704 228.34 271.855 228.34C266.754 228.34 262.044 226.773 257.727 224.023L257.728 224.024ZM249.882 227.951H242.033V205.194L235.361 224.422H226.727L220.055 205.194V227.951H212.205V194.989H223.584L230.646 216.572L237.707 194.989H249.086V227.951H249.882ZM204.365 220.495V227.951H179.253V194.989H203.975V202.444H187.102V207.939H203.192V215H187.102V220.884H204.37V220.495L204.365 220.495ZM170.619 220.495V227.951H145.507V194.989H170.23V202.444H153.353V207.939H169.442V215H153.353V220.884H170.62L170.619 220.495ZM393.883 183.216V186.749H377.794V164.776H393.489V168.309H381.717V173.804H393.095V177.337H381.717V182.831L393.883 183.216ZM372.304 168.305H365.243V186.749H361.32V168.305H354.258V164.772H372.309L372.304 168.305ZM348.76 164.772V186.745H345.227L334.238 171.834V186.745H330.316V164.772H333.849L344.837 179.683V164.772H348.76ZM323.649 183.216V186.749H307.559V164.776H323.254V168.309H311.482V173.803H322.86V177.336H311.482V182.831L323.649 183.216ZM300.892 183.216V186.749H284.802V164.776H300.497V168.309H288.725V173.803H300.103V177.336H288.725V182.831L300.892 183.216ZM277.347 186.749H273.425V169.876L267.541 184.393H263.224L257.34 169.876V186.749H253.417V164.776H259.301L265.579 180.081L271.857 164.776H277.741L277.347 186.749ZM246.741 183.216V186.749H230.652V164.776H246.347V168.309H234.575V173.803H245.953V177.336H234.575V182.831L246.741 183.216ZM213.385 187.139C207.501 187.533 202.396 182.822 202.006 176.544V175.76C202.006 169.482 206.717 164.382 212.995 164.382H213.389C216.922 163.988 220.061 165.56 222.023 168.305L218.884 171.05C217.312 169.478 215.351 168.305 213 168.305C209.077 168.305 205.544 171.444 205.544 175.366V175.76C205.15 179.683 208.289 183.216 212.216 183.61H212.999C216.138 183.61 219.278 181.255 219.671 178.116H213.393V174.583H223.988V176.154C224.772 181.649 220.849 186.355 215.355 187.143L213.385 187.139Z" fill="#E03C31"/>
<path d="M399.376 140.44C360.53 98.8447 327.175 109.834 288.723 122.783C251.839 134.945 210.243 149.073 168.652 107.088L188.27 87.8605C217.7 117.683 245.166 108.656 280.09 96.8836C319.33 83.5434 368.377 67.4542 419.387 121.995L399.376 140.44Z" fill="#004680"/>
<path d="M439.792 87.0864C402.124 52.1638 362.49 60.4025 316.579 70.2135C261.643 81.5919 199.642 94.9357 140 27.0509L160.795 9C209.846 64.719 258.893 54.1243 311.077 43.1389C360.128 32.9382 410.746 21.9495 459.007 67.0738L439.792 87.0864Z" fill="#004680"/>
</g>
<defs>
<clipPath id="clip0_3_11475">
<rect width="600" height="400" fill="white"/>
</clipPath>
</defs>
</svg>
