<svg width="600" height="400" viewBox="0 0 600 400" fill="none" xmlns="http://www.w3.org/2000/svg" xmlns:cgf="https://coding.garden/flags"><metadata id="cgf-metadata">

<cgf:flag>
  <cgf:name>Het Hogeland</cgf:name>
  <cgf:route>nl/gr/het_hogeland</cgf:route>
  <cgf:aspect-ratio>1.5</cgf:aspect-ratio>
</cgf:flag>

</metadata><g clip-path="url(#clip0_1_3446)">
<path d="M600 0H0V400H600V0Z" fill="#3A968B"/>
<path d="M269.696 103.908H136.147V316.334H269.696V103.908Z" fill="white"/>
<path d="M144.635 307.003V297.597L145.988 296.388C151.175 291.758 157.405 288.358 163.082 287.061C165.567 286.494 167.159 286.313 169.654 286.315C175.766 286.32 181.159 288.367 185.534 292.344L186.773 293.47V276.476V259.481L185.346 260.598C180.838 264.128 176.603 265.605 167.321 266.886C163.795 267.372 163.078 267.331 162.6 266.614C162.343 266.228 162.338 266.145 162.535 265.507C162.653 265.128 162.936 264.511 163.165 264.135C163.73 263.21 166.15 260.438 167.291 259.409L168.219 258.572L168.125 256.538L168.03 254.505L170.231 252.716C173.171 250.328 174.109 249.787 175.306 249.787C176.146 249.787 176.264 249.832 176.726 250.329C177.193 250.833 177.477 251.389 177.841 252.512L177.987 252.959L178.466 252.634C179.056 252.234 179.346 252.224 179.634 252.593C180.077 253.16 180.166 254.741 179.955 258.287L179.856 259.955H180.607H181.359V256.549C181.359 253.315 181.373 253.139 181.644 253.043C182.032 252.906 183.929 251.512 184.657 250.829C184.982 250.524 185.591 249.853 186.01 249.337L186.773 248.4V245.8V243.2L188.419 242.281C189.324 241.776 190.822 240.98 191.747 240.514C192.673 240.047 195.072 238.707 197.08 237.535L200.73 235.405L200.079 235.097C199.265 234.712 197.587 234.143 196.077 233.738C193.952 233.17 192.138 232.936 189.077 232.836L186.041 232.737V231.088V229.439L197.051 223.922C203.106 220.887 209.367 217.748 210.962 216.946L213.864 215.487L213.777 214.985C213.729 214.708 213.377 213.411 212.997 212.102L212.304 209.722L198.697 215.963C191.213 219.396 185.015 222.238 184.922 222.277C184.815 222.324 184.462 221.19 183.935 219.109C183.484 217.326 183.115 215.775 183.115 215.661C183.115 215.536 184.94 214.748 187.731 213.667L192.348 211.879L190.987 211.776C190.238 211.718 186.432 211.654 182.53 211.633C178.627 211.611 173.326 211.548 170.751 211.492L166.069 211.391L153.048 215.422C145.886 217.638 139.943 219.485 139.842 219.525C139.408 219.697 141.621 222.879 143.087 224.192C146.069 226.864 150.143 227.492 155.389 226.089C158.023 225.385 160.755 224.324 165.982 221.975C172.227 219.169 174.021 218.412 176.028 217.74C176.988 217.419 177.899 217.113 178.051 217.061C178.31 216.974 178.321 217.036 178.226 218.003C177.866 221.639 175.903 224.945 172.395 227.824L171.406 228.637L173.237 228.779L175.068 228.921L175.066 229.511C175.064 230.405 174.692 231.771 174.267 232.454C173.159 234.231 170.559 235.226 167.02 235.226H165.448L164.762 232.907C163.597 228.972 162.638 227.254 161.605 227.254C160.952 227.254 160.052 228.298 159.411 229.797C159.041 230.663 157.975 234.078 157.416 236.187C157.364 236.382 156.542 236.401 151.983 236.31C149.028 236.251 144.256 236.202 141.379 236.202H136.149L135.39 217.893L136.149 199.948L138.746 197.182C145.133 190.38 149.607 186.718 155.344 183.598C157.745 182.292 157.787 182.261 157.795 181.743L157.803 181.217L153.459 181.174L149.114 181.131L147.315 176.834C146.325 174.471 145.488 172.508 145.454 172.47C145.421 172.433 145.43 174.458 145.475 176.97L145.557 181.538H145.151H144.745L144.852 177.023C144.911 174.54 144.92 172.55 144.873 172.6C144.825 172.651 143.969 174.65 142.97 177.044C141.971 179.437 141.13 181.417 141.102 181.444C141.073 181.47 139.947 181.539 138.599 181.595L136.149 181.698L135.597 177.824L136.149 173.767L136.77 173.201C141.471 168.921 146.421 168.547 151.856 172.063C152.728 172.627 154.814 174.314 155.944 175.368C156.457 175.847 156.546 175.875 157.114 175.742L157.73 175.598L157.768 169.876C157.805 164.307 157.798 164.14 157.498 163.573C157.328 163.253 157.16 162.991 157.125 162.991C157.09 162.991 156.751 163.165 156.371 163.379C154.203 164.599 151.468 164.924 150.511 164.076C150.222 163.821 150.453 163.758 153.981 163.136C156.323 162.722 157.125 162.523 157.176 162.34C157.433 161.418 158.196 160.742 158.726 160.968C158.88 161.033 159.037 160.687 159.335 159.625C159.938 157.476 160.83 155.557 161.686 154.571C162.094 154.102 162.544 153.717 162.687 153.717C162.912 153.717 162.889 153.828 162.512 154.571C162.274 155.041 161.445 156.719 160.67 158.299L159.261 161.173L159.581 161.776C159.897 162.372 159.897 162.386 159.637 163.239L159.374 164.1L161.159 167.954C162.141 170.073 162.915 171.839 162.88 171.879C162.798 171.969 161.523 170.328 160.841 169.254C160.182 168.217 159.581 166.896 159.249 165.756L158.989 164.862L158.981 170.027C158.976 172.868 158.993 175.193 159.016 175.193C159.04 175.193 159.682 175.039 160.443 174.852C163.406 174.124 165.19 173.874 168.121 173.779C170.777 173.692 173.146 173.838 174.294 174.158L174.628 174.252L174.62 158.249L174.612 142.247L174.203 141.889L173.793 141.53L173.117 142.63C171.729 144.889 169.466 147.287 167.821 148.243C167.006 148.716 165.797 148.974 165.648 148.707C165.597 148.614 167.356 146.87 169.558 144.832L173.56 141.126L173.442 140.548C173.372 140.207 173.386 139.707 173.476 139.33C173.649 138.61 174.364 137.773 174.806 137.773C175.057 137.773 175.088 137.697 175.014 137.245C174.234 132.41 174.811 126.17 176.154 124.931C176.451 124.657 176.467 124.155 175.943 131.494C175.701 134.886 175.52 137.668 175.541 137.676C176.582 138.099 177.043 138.836 177.043 140.078V141.057L181.139 144.482C186.086 148.619 185.852 148.395 184.931 148.113C181.76 147.144 178.155 144.536 177.027 142.395L176.662 141.703L176.231 141.975L175.801 142.247L175.799 158.371L175.798 174.494L177.039 174.943L178.281 175.392L199.302 175.042C210.864 174.849 220.374 174.749 220.435 174.82C220.497 174.891 220.568 175.508 220.595 176.192L220.642 177.436L216.838 177.542C214.746 177.599 203.849 177.827 192.623 178.048C180.783 178.28 171.857 178.52 171.364 178.619C168.543 179.185 162.22 181.631 159.431 183.234L158.972 183.498V186.91V190.323H158.386H157.801V187.313C157.801 185.658 157.752 184.303 157.691 184.303C157.631 184.304 156.858 184.787 155.974 185.378C152.585 187.642 149.819 190.101 146.901 193.442C143.811 196.979 141.413 200.568 139.152 205.037C137.794 207.721 136.5 210.618 136.607 210.737C136.668 210.805 162.201 204.665 166.763 203.485L167.458 203.306V200.426V197.546L171.701 192.233L175.944 186.919V184.228V181.537H176.895H177.846V183.734V185.93H184.064H190.282V183.815V181.7H191.16H192.038V184.467V187.235L195.645 191.382C197.629 193.663 199.292 195.528 199.34 195.526C199.388 195.525 201.172 195.096 203.304 194.574L207.181 193.626L207.222 191.112L207.262 188.598L208.868 186.673L210.474 184.748V183.143C210.474 181.539 210.474 181.537 210.839 181.537C211.203 181.537 211.205 181.548 211.211 183.042L211.216 184.547L212.674 186.324L214.131 188.101V189.966V191.831L214.811 191.728C215.185 191.671 215.745 191.548 216.055 191.455L216.618 191.286V189.698V188.11L217.862 186.628C218.944 185.338 219.106 185.07 219.106 184.562C219.106 184.065 219.155 183.978 219.435 183.976C219.616 183.975 219.912 183.929 220.093 183.875C220.398 183.784 220.423 183.83 220.423 184.491C220.423 185.168 220.484 185.274 221.593 186.5L222.764 187.793V188.825C222.764 189.732 222.794 189.846 223.02 189.772C223.16 189.725 232.921 187.337 244.71 184.465C256.499 181.593 266.277 179.209 266.438 179.166C266.599 179.124 265.832 179.6 264.734 180.225L262.737 181.36L232.051 190.888C215.174 196.128 201.307 200.456 201.237 200.504C201.069 200.619 201.071 208.382 201.239 208.382C201.31 208.382 204.847 207.033 209.099 205.385L216.83 202.388L218.696 200.219L220.561 198.051L221.002 198.62C221.245 198.933 221.592 199.427 221.774 199.717C221.956 200.007 222.164 200.245 222.237 200.246C222.346 200.247 268.143 182.542 269.341 182.035C269.728 181.872 270.442 181.571 270.178 182.256L269.729 183.416L247.38 193.646C235.088 199.273 224.987 203.92 224.932 203.973C224.878 204.027 225.232 204.619 225.719 205.29C227.152 207.267 227.093 207.062 226.566 208.221C226.315 208.775 226.13 209.247 226.156 209.271C226.226 209.335 252.6 196.112 252.606 196.009C252.608 195.96 252.274 195.499 251.862 194.985C251.45 194.47 251.14 194.019 251.173 193.982C251.207 193.945 252.93 193.187 255.002 192.298L258.77 190.681L259.216 191.559C259.461 192.042 259.703 192.438 259.753 192.438C259.804 192.438 262.035 191.34 264.711 189.997C267.387 188.655 269.708 187.493 269.75 187.493C269.792 187.493 269.827 187.851 269.827 188.29V189.087L265.401 191.733C262.967 193.189 260.855 194.463 260.828 194.486C260.789 194.518 262.906 198.681 263.084 198.921C263.108 198.953 264.574 198.129 266.342 197.091C268.112 196.053 269.764 195.094 269.811 195.094C269.858 195.094 270.047 195.649 269.937 196.147L269.731 197.091L267.024 199.104C265.535 200.211 264.319 201.159 264.32 201.21C264.322 201.262 264.65 201.923 265.048 202.679C265.656 203.832 265.743 204.094 265.586 204.306C265.484 204.445 264.926 205.154 264.346 205.881C263.767 206.609 263.293 207.292 263.293 207.398C263.293 207.505 263.737 208.237 264.28 209.024C265.421 210.678 265.377 210.659 268.142 210.659H269.731L270.365 214.154L269.731 217.649L266.111 217.693L262.491 217.736L256.327 227.661C252.936 233.119 250.132 237.585 250.096 237.585C249.974 237.585 242.375 232.542 242.373 232.459C242.371 232.414 245.777 228.59 249.942 223.962L257.513 215.546L258.805 217.497C259.516 218.57 260.156 219.407 260.228 219.358C260.3 219.308 260.657 218.837 261.021 218.311C261.662 217.385 261.683 217.318 261.683 216.209C261.683 214.179 262.494 212.515 263.988 211.48L264.611 211.049L262.159 207.931C260.557 205.892 259.627 204.831 259.473 204.867C259.253 204.919 231.093 225.921 230.365 226.577L230.029 226.88L232.053 232.219C233.856 236.975 234.145 237.631 234.698 238.222C235.908 239.516 235.991 241.337 235.052 245.963C234.515 248.609 234.448 249.16 234.497 250.519C234.54 251.722 234.628 252.239 234.896 252.852C235.263 253.693 236.058 254.635 236.824 255.138L237.293 255.447L237.188 254.011C237.114 252.988 237.005 252.465 236.809 252.188C236.658 251.975 236.457 251.415 236.362 250.943C236.077 249.525 236.587 247.99 238.347 244.974C239.588 242.847 240.552 242.231 241.879 242.717C243.268 243.225 244.358 244.559 244.962 246.489C245.841 249.297 244.876 251.946 242.48 253.301L241.639 253.777V254.67C241.639 255.274 241.698 255.563 241.822 255.565C242.292 255.571 245.046 257.238 246.028 258.112C247.378 259.313 248.096 260.178 248.999 261.694C251.394 265.711 252.47 270.866 252.271 277.363C252.104 282.795 251.495 285.32 250.394 285.144C249.323 284.973 248.706 281.437 249.463 279.809C249.658 279.391 249.729 278.669 249.788 276.489C249.853 274.09 249.822 273.479 249.564 272.097C248.965 268.898 247.57 266.539 245.183 264.69L244.703 264.319L244.744 272.054L244.784 279.789L244.272 279.837L243.76 279.884L242.988 282.325L242.215 284.765L242.307 287.45C242.515 293.559 241.695 298.403 239.882 301.767L239.313 302.824L239.269 307.705L239.224 312.586L239.687 313.968C239.942 314.729 240.194 315.589 240.248 315.88L240.345 316.409H239.238H238.131L237.506 315.522C237.162 315.035 236.639 314.138 236.344 313.529L235.808 312.423L235.569 307.054C235.438 304.101 235.279 301.627 235.216 301.556C235.153 301.486 234.519 301.449 233.808 301.475L232.515 301.522L231.812 302.885C230.514 305.398 229.696 306.325 229.437 305.576C229.3 305.18 229.332 303.232 229.498 301.819C229.646 300.567 230.168 296.97 230.3 296.298C230.365 295.97 230.474 295.952 232.788 295.874C234.12 295.829 235.235 295.763 235.268 295.727C235.3 295.691 235.228 294.088 235.107 292.166C234.934 289.397 234.825 288.501 234.585 287.856C232.65 282.66 232.297 277.859 233.472 272.726C233.752 271.506 233.764 271.132 233.668 266.788C233.612 264.238 233.511 262.078 233.445 261.988C233.121 261.553 231.974 258.749 231.647 257.596C230.469 253.437 230.897 249.829 233.209 244.42L233.994 242.584L233.417 241.223C232.648 239.409 232.39 238.301 232.589 237.665C232.728 237.224 232.567 236.712 230.936 232.38C229.74 229.205 229.067 227.607 228.947 227.656C228.847 227.697 225.76 229.977 222.088 232.722L215.411 237.713L216.856 238.317C217.651 238.649 218.779 239.189 219.363 239.516L220.423 240.11V278.26V316.409L201.666 318.471L183.3 316.409L183.039 315.636C181.519 311.137 178.769 307.486 175.549 305.692C173.824 304.73 172.611 304.45 170.238 304.463C168.372 304.473 167.963 304.527 166.832 304.911C165.081 305.506 163.847 306.15 162.354 307.25C159.916 309.046 157.536 312.168 156.335 315.148L155.827 316.408L150.506 318.778L144.634 316.408V307.002L144.635 307.003ZM209.269 230.411C213.191 228.121 216.459 226.186 216.53 226.111C216.628 226.007 215.833 221.833 215.669 221.597C215.638 221.551 199.509 231.747 199.371 231.9C199.264 232.019 201.721 234.557 201.953 234.567C202.055 234.571 205.347 232.701 209.269 230.411V230.411ZM224.256 221.653L226.405 220.404L225.889 219.07C225.605 218.336 225.27 217.443 225.144 217.086C225.019 216.728 224.874 216.381 224.823 216.315C224.772 216.249 224.245 216.478 223.654 216.825L222.577 217.454L221.135 220.811C220.342 222.657 219.693 224.209 219.693 224.26C219.693 224.31 220.236 224.025 220.9 223.627C221.564 223.228 223.074 222.34 224.256 221.653V221.653ZM241.475 211.612C249.009 207.218 255.717 203.297 256.381 202.898L257.588 202.173L256.032 200.23L254.476 198.288L253.727 198.753C253.316 199.009 246.981 202.82 239.65 207.222C232.318 211.623 226.199 215.324 226.05 215.444C225.793 215.653 225.818 215.764 226.565 217.724C227.151 219.263 227.404 219.761 227.564 219.693C227.681 219.643 233.942 216.006 241.475 211.612V211.612ZM173.604 202.769V201.06H172.873H172.141V202.769V204.477H172.873H173.604V202.769ZM180.627 202.769V201.06H179.896H179.164V202.769V204.477H179.896H180.627V202.769ZM188.528 202.85V201.223H187.724H186.919V202.742C186.919 203.577 186.963 204.309 187.016 204.369C187.07 204.428 187.432 204.477 187.821 204.477H188.528V202.85ZM195.374 202.719L195.415 201.043L194.642 201.092L193.869 201.142L193.826 202.593C193.803 203.391 193.818 204.146 193.861 204.27C193.916 204.428 194.145 204.48 194.635 204.445L195.332 204.396L195.374 202.719L195.374 202.719ZM159.578 181.462L160.071 181.225L159.522 181.219C159.129 181.213 158.973 181.282 158.973 181.456C158.973 181.755 158.972 181.755 159.578 181.462V181.462ZM158.836 162.809C158.967 162.537 158.955 162.413 158.78 162.217C158.482 161.886 158.095 162.075 158.095 162.552C158.095 163.233 158.555 163.393 158.836 162.809H158.836ZM175.624 140.669C175.976 140.278 175.695 139.075 175.252 139.075C175.043 139.075 174.629 139.64 174.629 139.924C174.629 140.699 175.208 141.132 175.624 140.669ZM253.793 316.043C253.071 314.011 252.395 312.891 250.867 311.193C250.178 310.427 248.928 309.274 248.09 308.631C247.252 307.987 246.639 307.461 246.727 307.461C247.073 307.461 248.931 307.951 249.833 308.281C251.922 309.044 254.621 310.711 256.49 312.391C257.398 313.207 260.075 316.114 260.075 316.284C260.075 316.353 258.691 316.409 256.999 316.409C253.945 316.409 253.922 316.406 253.793 316.043V316.043ZM260.43 315.799C259.765 311.623 258.39 307.769 256.4 304.501C255.235 302.587 252.083 299.056 249.924 297.245C249.049 296.51 248.4 295.91 248.481 295.91C248.946 295.91 251.399 296.842 252.548 297.456C257.783 300.25 262.592 306.116 266.783 314.823L267.547 316.409H264.037H260.527L260.43 315.799ZM153.716 285.213C153.624 284.43 153.479 283.185 153.393 282.447C153.193 280.726 152.766 279.742 152.19 279.669L151.77 279.615L151.875 281.556C151.984 283.565 151.836 284.958 151.418 285.863C151.26 286.205 151.105 286.311 150.76 286.311C150.386 286.311 150.329 286.263 150.421 286.026C151.034 284.458 151.108 283.957 151.025 281.941C150.98 280.835 150.922 279.914 150.898 279.894C150.873 279.874 150.096 279.921 149.17 279.998C147.485 280.139 145.081 279.97 144.036 279.636C143.159 279.357 143.172 279.335 143.171 281.145C143.171 282.063 143.127 283.64 143.075 284.652L142.98 286.49L142.6 286.441L142.221 286.392L142.262 283.627C142.285 282.105 142.341 280.489 142.386 280.035L142.468 279.208L141.759 278.908C141.312 278.719 140.753 278.272 140.245 277.7C139.285 276.618 138.827 275.42 138.267 272.529C138.062 271.474 137.857 270.415 137.81 270.176C137.758 269.903 137.574 269.671 137.318 269.553C136.76 269.296 136.258 268.67 136.318 268.307C136.378 267.95 138.371 266.807 138.954 266.795C139.454 266.786 140.088 267.381 140.693 268.429C141.221 269.346 141.065 269.322 142.803 268.751C143.364 268.566 143.993 268.415 144.2 268.415C144.617 268.415 146.086 267.475 149.39 265.095C154.567 261.365 156.748 260.831 157.693 263.059C157.994 263.768 158.085 263.852 158.754 264.036C160.396 264.486 161.314 265.118 161.314 265.798C161.314 266.354 161.051 266.628 159.924 267.246C158.3 268.138 155.215 268.913 151.927 269.255L150.043 269.452L150.882 269.95C151.973 270.598 153.402 272.089 153.882 273.081C154.587 274.536 154.694 276.351 154.164 277.881C154.056 278.195 154.06 278.335 154.179 278.379C154.352 278.443 154.81 286.007 154.667 286.423C154.626 286.54 154.433 286.636 154.238 286.636C153.901 286.636 153.874 286.561 153.716 285.213L153.716 285.213ZM139.224 269.059C139.436 268.619 139.271 268.089 138.922 268.089C138.572 268.089 138.38 268.805 138.638 269.149C138.882 269.477 139.035 269.453 139.224 269.059V269.059ZM259.636 261.012V255.888L263.477 255.886C265.589 255.886 267.86 255.839 268.524 255.781L269.731 255.677V256.738V257.799L268.817 257.792C267.831 257.784 267.278 258.021 266.346 258.854L265.814 259.329L265.708 262.733L265.601 266.137H262.618H259.636V261.013V261.012ZM257.896 251.21C260.357 244.489 261.9 235.983 262.419 226.278C262.507 224.622 262.613 222.814 262.655 222.259L262.73 221.25L263.341 221.167C263.677 221.121 265.252 221.055 266.842 221.02L269.731 220.957L271.663 236.497L269.731 252.583L267.733 252.69C266.634 252.748 263.84 252.796 261.525 252.796H257.315L257.896 251.21L257.896 251.21ZM142.734 185.17C141.941 184.716 141.262 183.858 141.052 183.042L140.957 182.676H144.625C146.642 182.676 148.293 182.709 148.293 182.748C148.293 182.788 148.031 182.994 147.711 183.206C147.391 183.418 146.98 183.843 146.796 184.151C146.379 184.85 145.338 185.437 144.319 185.546C143.659 185.617 143.413 185.559 142.734 185.17V185.17ZM225.985 176.98C225.985 176.847 226.12 176.117 226.284 175.358C226.97 172.175 228.313 171.038 231.249 171.154L232.563 171.207L232.727 170.312C233.263 167.381 234.656 166.173 237.129 166.492L238.008 166.605L237.911 158.575L237.813 150.545L239.998 143.305L242.182 136.065L244.041 142.41C245.063 145.9 246.027 149.19 246.184 149.722C246.435 150.579 246.468 151.171 246.468 154.914V159.138L250.035 159.03L253.603 158.922L255.376 161.554C256.684 163.497 257.153 164.317 257.167 164.687C257.176 164.962 257.226 165.956 257.276 166.895L257.368 168.603H259.039H260.71L261.324 167.484C263.41 163.675 265.931 162.409 268.939 163.661L269.731 163.99L270.122 167.862L269.731 171.927L269.11 172.597C267.281 174.57 265.18 174.674 262.798 172.909L261.757 172.138L247.273 172.274C238.754 172.355 232.465 172.478 232.005 172.574C229.625 173.071 227.684 174.416 226.483 176.398C226.209 176.851 225.985 177.113 225.985 176.98V176.98ZM152.178 132.561C151.172 129.526 149.759 125.026 149.799 124.981C149.829 124.948 150.404 125.762 151.078 126.79L152.303 128.66L152.675 128.288C152.88 128.083 154.068 126.861 155.316 125.571C156.563 124.282 157.773 123.041 158.005 122.813C158.237 122.585 157.313 124.266 155.953 126.548C154.593 128.829 153.205 131.169 152.868 131.747C152.467 132.437 152.23 132.716 152.178 132.561V132.561ZM253.499 127.672C252.544 127.463 250.901 126.541 249.959 125.683C248.391 124.256 246.841 121.421 246.252 118.901C245.916 117.465 245.796 114.177 246.022 112.618C246.499 109.334 248.079 106.061 249.956 104.469L250.587 103.933L255.248 103.225L259.714 103.933L260.263 104.348C261.533 105.307 263.177 108.096 263.856 110.441C265.209 115.117 264.312 120.723 261.647 124.241C259.497 127.079 256.523 128.331 253.499 127.672V127.672Z" fill="#3A968B"/>
<path d="M220.423 101.304H186.757V176.386H220.423V101.304Z" fill="#3A968B"/>
<path d="M398.578 246.337C397.041 246.066 396.033 245.572 395.12 244.641C393.89 243.386 393.324 241.802 393.185 239.223C393.149 238.553 393.155 238.493 393.259 238.491C393.321 238.49 394.087 238.619 394.961 238.777L396.551 239.066L396.623 239.543C396.756 240.428 397.131 241.338 397.526 241.734C397.766 241.974 398.294 242.221 398.815 242.337C399.515 242.493 400.857 242.437 401.431 242.229C402.43 241.867 403.105 241.211 403.541 240.177C403.96 239.186 404.067 238.457 404.124 236.219L404.161 234.725L403.861 235.268C403.238 236.395 402.228 237.197 401.115 237.448C400.498 237.587 398.998 237.544 398.397 237.37C395.723 236.597 393.779 233.924 392.963 229.901C392.506 227.645 392.519 224.216 392.995 221.791C393.747 217.959 395.807 215.232 398.491 214.514C399.26 214.309 400.745 214.295 401.367 214.487C402.519 214.844 403.506 215.691 404.101 216.835L404.401 217.412V216.105V214.798H406.048H407.694L407.669 225.984C407.643 237.331 407.64 237.517 407.4 239.24C407.086 241.501 406.405 243.073 405.199 244.316C404.183 245.364 403.107 245.97 401.72 246.274C401.062 246.419 399.249 246.455 398.578 246.337V246.337ZM400.862 233.535C402.648 233.236 403.859 231.307 404.241 228.153C404.354 227.22 404.372 224.898 404.272 224.03C404.04 222.006 403.407 220.329 402.505 219.349C401.848 218.635 401.161 218.327 400.232 218.33C399.277 218.334 398.704 218.595 398.016 219.341C396.688 220.779 396.043 223.587 396.239 227.064C396.353 229.079 396.621 230.416 397.088 231.308C397.978 233.005 399.314 233.794 400.862 233.535H400.862ZM322.387 238.043C321.331 237.92 320.182 237.538 319.426 237.06C317.103 235.591 315.684 232.797 315.204 228.75C315.099 227.866 315.1 224.823 315.205 223.93C315.784 219.03 317.76 215.742 320.744 214.71C321.592 214.417 321.954 214.362 323.051 214.36C324.41 214.358 325.123 214.523 326.18 215.082C328.173 216.137 329.75 218.646 330.411 221.813C330.696 223.177 330.768 223.912 330.807 225.814L330.843 227.63H324.766C321.424 227.63 318.69 227.644 318.69 227.661C318.69 227.677 318.732 228.036 318.784 228.458C319.08 230.871 320.121 232.898 321.436 233.62C322.487 234.197 323.754 234.226 324.739 233.695C325.68 233.188 326.576 231.843 327.075 230.192C327.244 229.631 327.263 229.599 327.412 229.63C327.499 229.649 328.267 229.774 329.119 229.91C329.971 230.045 330.68 230.169 330.694 230.183C330.747 230.237 330.493 231.346 330.249 232.135C329.214 235.469 327.413 237.38 324.796 237.918C324.28 238.024 322.857 238.098 322.387 238.043L322.387 238.043ZM327.16 223.457C327.16 223.118 326.913 221.945 326.727 221.4C326.242 219.977 325.237 218.837 324.13 218.455C323.51 218.24 322.618 218.255 321.937 218.491C321.374 218.686 320.69 219.133 320.148 219.659C319.883 219.916 319.743 220.133 319.534 220.606C319.237 221.28 318.97 222.347 318.904 223.125L318.862 223.624H323.011H327.16V223.457L327.16 223.457ZM381.791 238.011C378.935 237.654 376.762 235.559 375.648 232.09C374.983 230.018 374.701 227.284 374.878 224.609C375.114 221.026 375.964 218.567 377.594 216.748C378.983 215.198 380.512 214.444 382.468 214.344C383.803 214.276 384.917 214.512 386.039 215.102C388.507 216.399 390.098 219.226 390.664 223.319C390.821 224.46 390.819 227.556 390.66 228.818C390.42 230.728 390.049 232.142 389.441 233.464C387.952 236.701 385.06 238.42 381.791 238.011H381.791ZM383.998 233.887C384.839 233.567 385.511 232.935 386.046 231.959C387.539 229.24 387.614 223.551 386.194 220.717C385.376 219.085 384.309 218.331 382.815 218.331C381.016 218.331 379.716 219.521 378.988 221.836C378.446 223.557 378.267 226.546 378.578 228.682C379.012 231.662 380.136 233.455 381.899 233.977C382.385 234.121 383.509 234.073 383.998 233.887V233.887ZM417.618 238.015C416.927 237.921 416.024 237.645 415.424 237.343C412.769 236.006 411.054 232.834 410.662 228.532C410.574 227.561 410.573 225.093 410.662 224.171C411.14 219.176 413.214 215.7 416.339 214.659C418 214.106 420.065 214.254 421.563 215.033C423.951 216.277 425.624 219.31 426.145 223.341C426.258 224.216 426.334 226.004 426.292 226.83L426.252 227.63H420.226H414.199V227.885C414.199 228.719 414.57 230.273 414.994 231.225C415.847 233.139 417.073 234.085 418.686 234.075C419.69 234.068 420.422 233.709 421.175 232.853C421.685 232.271 422.19 231.304 422.543 230.228C422.725 229.673 422.764 229.604 422.882 229.632C422.956 229.649 423.727 229.775 424.597 229.912C425.466 230.049 426.185 230.168 426.195 230.177C426.206 230.187 426.128 230.56 426.023 231.007C425.08 235.021 423.216 237.27 420.298 237.914C419.691 238.049 418.266 238.102 417.618 238.015L417.618 238.015ZM422.627 223.37C422.382 221.54 421.927 220.404 421.055 219.448C419.607 217.86 417.395 217.911 415.741 219.571C415.481 219.831 415.201 220.17 415.119 220.324C414.791 220.932 414.49 222.092 414.355 223.268L414.313 223.624H418.487H422.661L422.627 223.37V223.37ZM440.468 238.013C439.751 237.906 439.296 237.757 438.629 237.408C437.364 236.747 436.479 235.696 435.974 234.254C435.33 232.418 435.394 229.809 436.126 228.076C436.704 226.706 437.932 225.447 439.275 224.845C439.991 224.524 440.765 224.33 442.77 223.969C444.622 223.635 445.756 223.362 446.451 223.082L446.815 222.936V221.973C446.815 220.436 446.681 219.783 446.287 219.393C445.924 219.033 444.993 218.559 444.4 218.433C443.454 218.231 442.062 218.334 441.379 218.655C440.47 219.083 439.95 219.954 439.498 221.809C439.35 222.414 439.322 222.476 439.203 222.446C439.131 222.428 438.38 222.298 437.535 222.156L435.998 221.898L436.042 221.558C436.19 220.399 436.747 218.659 437.273 217.711C438.266 215.923 439.586 214.971 441.705 214.515C442.641 214.313 444.674 214.295 445.594 214.481C447.895 214.943 449.252 216.126 449.91 218.24C450.306 219.514 450.307 219.537 450.356 226.849C450.386 231.386 450.424 233.676 450.475 234.046C450.599 234.945 450.844 236.178 451.039 236.88L451.222 237.542H449.472H447.721L447.513 236.896C447.399 236.541 447.258 235.945 447.2 235.571L447.094 234.892L446.749 235.341C445.781 236.601 444.276 237.599 442.865 237.916C442.252 238.053 441.065 238.101 440.469 238.013H440.468ZM443.294 234.108C443.886 233.969 444.674 233.552 445.093 233.158C445.798 232.496 446.396 231.33 446.624 230.176C446.724 229.666 446.767 229.141 446.795 228.064L446.833 226.632L446.224 226.953C445.462 227.355 444.616 227.611 442.633 228.041C441.775 228.227 440.956 228.423 440.811 228.478C440.037 228.772 439.474 229.508 439.288 230.473C439.181 231.027 439.243 232.063 439.413 232.532C439.669 233.244 440.276 233.819 441.05 234.085C441.52 234.246 442.659 234.258 443.294 234.108L443.294 234.108ZM477.462 237.984C474.594 237.399 472.369 234.57 471.506 230.414C471.206 228.966 471.126 228.081 471.124 226.17C471.124 224.22 471.192 223.345 471.467 221.859C472.199 217.906 474.205 215.233 477.006 214.48C477.629 214.312 479.121 214.317 479.684 214.489C480.784 214.825 481.63 215.568 482.164 216.665L482.461 217.276V211.896V206.515H484.199H485.937V222.029V237.542H484.295H482.653L482.636 236.206L482.619 234.87L482.439 235.341C482.197 235.975 481.765 236.658 481.367 237.035C480.976 237.405 480.308 237.767 479.742 237.915C479.148 238.07 478.044 238.104 477.458 237.984L477.462 237.984ZM479.472 233.985C480.704 233.633 481.737 232.317 482.237 230.465C482.557 229.278 482.623 228.577 482.62 226.374C482.62 224.174 482.547 223.376 482.242 222.084C481.818 220.287 480.754 218.877 479.513 218.465C479.06 218.315 478.321 218.286 477.858 218.401C476.226 218.805 475.128 220.818 474.781 224.044C474.637 225.374 474.682 227.797 474.869 228.92C475.281 231.383 476.162 233.092 477.356 233.747C477.939 234.066 478.835 234.167 479.472 233.985V233.985ZM337.684 237.807C336.365 237.602 335.417 236.901 334.906 235.751C334.396 234.604 334.366 234.047 334.366 225.678L334.366 218.6H333.354H332.343V216.699V214.798H333.354H334.366L334.366 212.201L334.367 209.605L336.088 208.394L337.81 207.183L337.826 210.991L337.843 214.798H339.233H340.623V216.699V218.6H339.232H337.842L337.842 225.305C337.842 229.622 337.866 232.164 337.909 232.445C338.051 233.388 338.465 233.582 339.952 233.399C340.261 233.361 340.521 233.338 340.53 233.348C340.58 233.409 340.996 237.372 340.956 237.411C340.886 237.481 339.853 237.726 339.275 237.81C338.711 237.892 338.229 237.891 337.684 237.807L337.684 237.807ZM293.343 222.029V206.515H295.176H297.009V212.694V218.872H302.477H307.944V212.694V206.515H309.809H311.674V222.029V237.542H309.809H307.944V230.448V223.353H302.477H297.009V230.448V237.542H295.176H293.343V222.029ZM353.139 222.029V206.515H355.003H356.868V212.694V218.872H362.304H367.74V212.694V206.515H369.605H371.469V222.029V237.542H369.605H367.74V230.448V223.353H362.304H356.868V230.448V237.542H355.003H353.139V222.029ZM429.243 222.029V206.515H431.012H432.782V222.029V237.542H431.012H429.243V222.029ZM454.273 226.17V214.798H455.885H457.497V216.343V217.887L457.651 217.504C458.349 215.761 459.528 214.738 461.199 214.425C462.545 214.173 464.037 214.394 465.14 215.008C466.361 215.688 467.171 216.786 467.696 218.472C468.197 220.082 468.235 220.918 468.237 230.261V237.542H466.467H464.697V230.207C464.697 222.511 464.684 222.085 464.411 220.932C464.135 219.763 463.697 219.129 462.881 218.719C462.524 218.54 462.371 218.505 461.826 218.479C459.62 218.373 458.302 219.906 457.867 223.081C457.809 223.503 457.781 225.527 457.762 230.6L457.736 237.542H456.002H454.267V226.17H454.273ZM295.842 199.316C294.136 199.028 293.012 198.023 292.615 196.431C292.489 195.923 292.412 194.77 292.505 194.77C292.541 194.77 293.032 194.846 293.596 194.94C294.159 195.033 294.628 195.109 294.637 195.109C294.647 195.109 294.673 195.238 294.697 195.395C294.749 195.747 294.939 196.218 295.146 196.509C295.581 197.123 297.307 197.264 298.242 196.763C298.807 196.46 299.165 195.983 299.379 195.245C299.486 194.879 299.617 192.665 299.532 192.665C299.511 192.665 299.464 192.738 299.426 192.827C299.308 193.105 298.951 193.494 298.575 193.756C298.049 194.122 297.479 194.255 296.638 194.208C295.51 194.146 294.757 193.816 293.994 193.05C292.524 191.573 291.861 189.137 292.149 186.269C292.485 182.918 294.284 180.793 296.808 180.767C297.494 180.76 297.968 180.859 298.424 181.105C298.803 181.309 299.307 181.803 299.547 182.206L299.727 182.508V181.782V181.056H300.805H301.883L301.859 187.692C301.841 192.543 301.814 194.463 301.756 194.827C301.511 196.395 301.197 197.145 300.46 197.929C299.868 198.559 299.203 198.969 298.418 199.19C297.849 199.349 296.446 199.418 295.842 199.316V199.316ZM298.034 191.699C298.505 191.467 298.912 191.01 299.188 190.403C299.476 189.768 299.59 189.279 299.679 188.298C299.9 185.845 299.144 183.752 297.847 183.227C297.546 183.105 297.385 183.084 296.914 183.106C296.432 183.128 296.294 183.162 296.007 183.331C295.359 183.71 294.852 184.544 294.592 185.657C294.405 186.458 294.39 188.452 294.564 189.339C294.818 190.624 295.406 191.441 296.334 191.796C296.809 191.979 297.552 191.936 298.034 191.698L298.034 191.699ZM308.45 194.493C307.747 194.429 307.194 194.272 306.641 193.981C305.138 193.19 304.117 191.459 303.834 189.224C303.732 188.417 303.788 186.236 303.928 185.571C304.628 182.237 306.677 180.481 309.504 180.792C310.656 180.919 311.387 181.287 312.179 182.142C313.385 183.441 313.949 185.164 313.949 187.544V188.456H310.03H306.111V188.663C306.111 189.062 306.314 189.853 306.558 190.401C306.88 191.126 307.324 191.646 307.865 191.932C308.229 192.124 308.359 192.156 308.887 192.178C309.393 192.199 309.553 192.178 309.856 192.056C310.522 191.786 311.2 190.942 311.52 189.984C311.582 189.797 311.636 189.638 311.639 189.631C311.652 189.604 313.832 189.937 313.863 189.97C313.978 190.094 313.36 191.79 312.967 192.427C312.249 193.593 311.038 194.363 309.759 194.468C309.508 194.488 309.232 194.513 309.145 194.523C309.058 194.534 308.745 194.519 308.45 194.493V194.493ZM311.584 185.995C311.445 185.272 311.382 185.04 311.219 184.667C310.99 184.144 310.432 183.517 310.005 183.304C309.087 182.847 308.008 183.021 307.135 183.766C306.95 183.923 306.744 184.149 306.676 184.268C306.521 184.538 306.267 185.397 306.216 185.825L306.177 186.148H308.895H311.613L311.584 185.995V185.995ZM337.353 194.488C335.419 194.342 333.909 193.095 333.167 191.031C332.597 189.447 332.508 187.01 332.95 185.129C333.147 184.292 333.682 183.125 334.143 182.529C335.059 181.343 336.283 180.767 337.874 180.772C339.797 180.78 341.161 181.687 342.07 183.568C342.599 184.662 342.845 185.859 342.859 187.404L342.867 188.422L338.929 188.44L334.99 188.457L335.031 188.779C335.241 190.455 335.984 191.655 337.063 192.061C337.578 192.255 338.503 192.22 338.917 191.99C339.567 191.63 340.058 190.994 340.404 190.067C340.571 189.617 340.579 189.608 340.773 189.644C340.882 189.665 341.379 189.74 341.877 189.81C342.376 189.881 342.793 189.949 342.803 189.962C342.859 190.024 342.479 191.216 342.234 191.751C341.302 193.781 339.723 194.667 337.353 194.488L337.353 194.488ZM340.497 186.023C340.497 185.954 340.439 185.657 340.369 185.362C339.997 183.797 338.743 182.826 337.431 183.087C336.654 183.241 335.836 183.801 335.544 184.377C335.364 184.733 335.124 185.633 335.124 185.955V186.148H337.811C340.377 186.148 340.497 186.141 340.497 186.023V186.023ZM348.967 194.491C347.73 194.397 346.822 193.966 345.993 193.08C345.146 192.175 344.687 191.204 344.4 189.712C344.226 188.809 344.211 186.828 344.37 185.901C344.597 184.582 344.999 183.549 345.636 182.651C346.064 182.048 346.586 181.592 347.229 181.261C347.929 180.9 348.519 180.769 349.441 180.772C351.435 180.78 352.828 181.748 353.72 183.749C354.223 184.876 354.466 186.176 354.466 187.74V188.456H350.517H346.567L346.604 188.778C346.795 190.438 347.594 191.696 348.705 192.087C349.19 192.257 350.081 192.207 350.516 191.984C351.114 191.677 351.711 190.87 352.035 189.93C352.136 189.636 352.163 189.607 352.311 189.639C352.401 189.658 352.816 189.721 353.234 189.778C353.651 189.835 354.082 189.898 354.193 189.918L354.394 189.954L354.268 190.443C353.734 192.51 352.59 193.88 351.021 194.329C350.522 194.472 349.635 194.542 348.967 194.491H348.967ZM352.064 185.992C352.064 185.749 351.884 185.063 351.716 184.669C351.528 184.227 350.965 183.581 350.563 183.346C349.866 182.939 348.996 182.957 348.177 183.395C347.601 183.703 347.229 184.084 347.029 184.57C346.87 184.955 346.695 185.699 346.693 185.995L346.691 186.148H349.377H352.064V185.992L352.064 185.992ZM377.917 194.49C376.076 194.346 374.712 193.316 373.874 191.438C372.893 189.239 373 185.513 374.104 183.432C374.949 181.84 376.167 180.968 377.798 180.787C380.554 180.481 382.577 182.235 383.236 185.503C383.317 185.903 383.372 186.518 383.397 187.285L383.434 188.456H379.485H375.536L375.593 188.914C375.767 190.317 376.463 191.507 377.379 191.966C377.723 192.138 377.825 192.156 378.454 192.156C379.099 192.156 379.176 192.142 379.519 191.955C380.122 191.627 380.747 190.751 381.012 189.863C381.083 189.624 381.102 189.609 381.288 189.644C381.398 189.665 381.896 189.74 382.395 189.81C382.893 189.881 383.312 189.951 383.326 189.966C383.393 190.039 383.056 191.088 382.743 191.778C382.431 192.467 382.329 192.621 381.845 193.138C381.248 193.774 380.818 194.056 380.087 194.294C379.548 194.468 378.661 194.549 377.917 194.49V194.49ZM381.014 185.971C381.014 185.659 380.82 184.972 380.615 184.558C380.045 183.406 378.97 182.85 377.837 183.121C376.997 183.321 376.285 183.889 375.991 184.593C375.837 184.962 375.645 185.753 375.642 186.029C375.642 186.14 375.811 186.148 378.328 186.148H381.014V185.971ZM370.338 194.354C369.504 194.205 368.828 193.652 368.568 192.905C368.352 192.285 368.309 191.336 368.309 187.193V183.228H367.645H366.982V182.142V181.056H367.645H368.309V179.535V178.015L369.406 177.329C370.01 176.951 370.522 176.643 370.544 176.643C370.566 176.643 370.584 177.636 370.584 178.849V181.056H371.469H372.354V182.142V183.228H371.467H370.58L370.598 187.319C370.618 191.781 370.604 191.623 370.982 191.791C371.102 191.844 371.359 191.856 371.758 191.828C372.295 191.791 372.355 191.798 372.358 191.903C372.359 191.968 372.425 192.5 372.503 193.086L372.645 194.152L372.357 194.222C371.518 194.429 370.961 194.465 370.338 194.354L370.338 194.354ZM315.909 187.641V181.056H316.951H317.994L317.995 181.921L317.996 182.787L318.216 182.348C318.698 181.388 319.372 180.92 320.474 180.783C322.074 180.584 323.425 181.264 323.849 182.481C323.908 182.649 323.975 182.811 323.998 182.84C324.021 182.87 324.142 182.716 324.267 182.499C324.552 182.004 325.141 181.396 325.553 181.171C326.112 180.867 326.563 180.763 327.285 180.771C329.035 180.791 330.055 181.625 330.527 183.422C330.66 183.93 330.664 184.056 330.683 189.084L330.703 194.227H329.563H328.423V189.735C328.423 184.972 328.405 184.634 328.126 183.992C327.874 183.414 327.455 183.16 326.75 183.16C325.95 183.16 325.336 183.51 324.963 184.176C324.487 185.028 324.442 185.569 324.441 190.34L324.44 194.227H323.303H322.165V189.653C322.165 186.9 322.14 184.934 322.102 184.714C322.007 184.162 321.735 183.641 321.416 183.401C321.175 183.219 321.081 183.192 320.627 183.171C319.688 183.13 319.062 183.521 318.658 184.403C318.242 185.311 318.231 185.438 318.201 190.068L318.173 194.227H317.04H315.907V187.641H315.909ZM356.426 187.641V181.056H357.469H358.512L358.512 181.921L358.514 182.787L358.705 182.414C359.103 181.636 359.826 181.057 360.661 180.848C361.139 180.728 362.24 180.745 362.771 180.88C364.048 181.204 364.916 182.168 365.312 183.704C365.417 184.107 365.428 184.581 365.449 189.186L365.471 194.227H364.33H363.189L363.188 189.899C363.188 187.283 363.163 185.402 363.123 185.144C362.905 183.699 362.283 183.109 361.044 183.173C359.901 183.231 359.237 183.874 358.849 185.299C358.749 185.664 358.735 186.145 358.716 189.967L358.695 194.227H357.56H356.426V187.641L356.426 187.641Z" fill="white"/>
<path d="M271.589 316.283H135.023V331.126H271.589V316.283Z" fill="#3A968B"/>
<path d="M220.404 309.406H186.444V332.788H220.404V309.406Z" fill="#3A968B"/>
</g>
<defs>
<clipPath id="clip0_1_3446">
<rect width="600" height="400" fill="white"/>
</clipPath>
</defs>
</svg>
