<svg width="600" height="400" viewBox="0 0 600 400" fill="none" xmlns="http://www.w3.org/2000/svg" xmlns:cgf="https://coding.garden/flags"><metadata id="cgf-metadata">

<cgf:flag>
  <cgf:name>Midden-Groningen</cgf:name>
  <cgf:route>nl/gr/midden_groningen</cgf:route>
  <cgf:aspect-ratio>1.5</cgf:aspect-ratio>
</cgf:flag>

</metadata><g clip-path="url(#clip0_1_3441)">
<path d="M600 0H0V400H600V0Z" fill="#8A38A3"/>
<path d="M355.8 216.459L355.703 178.163L332.583 210.751C319.868 228.675 309.092 243.693 308.637 244.124C306.588 246.065 302.534 247.476 299.002 247.476C296.016 247.476 292.485 246.309 290.607 244.702C289.555 243.801 281.167 232.098 265.845 210.151L242.674 176.963L242.577 215.694L242.479 254.424H226.387H210.296L210.393 186.015L210.489 117.606L226.582 117.53L242.674 117.455L271.153 161.789C286.816 186.173 299.766 206.051 299.931 205.963C300.096 205.875 312.708 185.922 327.958 161.622L355.685 117.441H370.104C378.035 117.441 385.324 117.535 386.302 117.651L388.079 117.861V186.308V254.755H371.989H355.898L355.8 216.459L355.8 216.459ZM211.24 103.442C210.921 102.346 211.703 92.9935 212.406 89.4814C214.424 79.4066 218.975 69.5372 225.478 61.1318C239.385 43.1565 261.309 31.2667 286.736 27.9103C293.045 27.0775 306.017 27.0638 312.216 27.8834C322.334 29.2215 330.294 31.3735 339.35 35.2197C368.625 47.6525 387.141 72.3769 387.79 99.9041L387.887 104.04L372.123 104.126L356.358 104.213L355.906 101.314C354.889 94.8026 352.696 88.3986 349.587 82.8638C341.345 68.1954 327.523 58.4529 310.108 55.0374C305.834 54.1991 296.237 54.0468 291.672 54.7447C283.929 55.9283 276.277 58.6359 269.902 62.4484C265.265 65.2218 258.132 71.5648 254.799 75.8799C248.772 83.6825 244.833 93.0158 243.787 101.972L243.526 104.206H227.494H211.462L211.24 103.442H211.24Z" fill="white"/>
<path d="M444.287 373.934C441.213 373.428 440.842 373.047 440.842 370.409C440.842 369.061 440.91 367.958 440.993 367.959C441.076 367.959 442.486 368.334 444.126 368.79C451.294 370.784 456.213 368.839 456.983 363.707L457.317 361.478L456.117 362.504C454.143 364.192 451.893 364.967 448.962 364.967C445.606 364.967 442.787 363.682 440.767 361.231C439.456 359.64 439.326 359.036 439.326 354.49V349.497L441.448 347.18C443.925 344.472 446.432 343.366 450.093 343.366C452.079 343.366 452.909 343.591 454.851 344.657L457.204 345.947V344.823V343.699H460.84H464.476V354.796C464.476 365.064 464.383 366.06 463.228 368.111C461.69 370.84 457.66 373.336 453.871 373.904C451.067 374.325 446.745 374.338 444.287 373.934V373.934ZM454.761 359.252C458.095 357.29 458.06 350.477 454.707 348.813C452.217 347.578 448.754 348.441 447.44 350.624C446.479 352.22 446.515 356.964 447.495 358C449.496 360.116 452.433 360.622 454.761 359.252H454.761ZM143.458 364.272C138.967 362.695 136.395 357.157 137.689 351.853C138.977 346.575 142.482 343.739 148.083 343.444C150.933 343.294 151.271 343.36 153.255 344.447L155.377 345.611L155.542 339.753L155.708 333.896L159.495 333.797L163.283 333.698V349.182V364.666L159.495 364.567L155.708 364.468L155.386 363.139C155.113 362.011 154.993 361.921 154.596 362.543C153.18 364.76 147.402 365.657 143.458 364.272V364.272ZM153.507 359.131C156.12 357.31 156.674 351.99 154.492 349.677C153.565 348.694 151.614 348.191 149.565 348.407C145.366 348.851 143.603 355.915 146.941 358.924C148.492 360.322 151.655 360.422 153.507 359.131V359.131ZM173.973 363.966C171.097 362.581 169.45 360.471 168.815 357.357C167.845 352.602 169.406 347.848 172.719 345.466C176.478 342.764 182.647 342.645 185.738 345.217L186.91 346.191L186.913 339.96L186.917 333.729H190.553H194.189V349.182V364.635H190.553H186.917V363.299V361.964L184.294 363.466C181.922 364.823 181.401 364.967 178.86 364.967C176.6 364.967 175.644 364.771 173.972 363.966H173.973ZM184.411 359.29C187.176 357.662 187.82 352.447 185.554 350.025C182.087 346.318 176.545 348.59 176.385 353.784C176.294 356.76 176.891 358.333 178.465 359.259C180.04 360.187 182.863 360.201 184.411 359.29V359.29ZM206.814 364.312C202.16 362.925 199.64 359.492 199.651 354.552C199.66 351.094 200.65 348.671 202.927 346.54C205.302 344.318 207.69 343.533 212.068 343.533C216.712 343.533 218.958 344.36 221.23 346.907C222.648 348.496 222.932 349.3 223.163 352.382L223.435 355.994H215.111C207.769 355.994 206.83 356.056 207.155 356.52C207.357 356.809 207.523 357.33 207.523 357.678C207.523 358.026 208.304 358.79 209.26 359.376C210.802 360.323 211.346 360.44 214.091 360.417C216.066 360.401 217.957 360.141 219.322 359.7L221.461 359.008V361.285V363.562L219.189 364.165C215.796 365.066 209.593 365.139 206.814 364.312V364.312ZM216.189 351.093C215.655 349.185 215.371 348.715 214.448 348.208C212.4 347.085 208.81 348.047 207.895 349.963C207.69 350.393 207.367 351.029 207.178 351.376C206.861 351.958 207.204 352.007 211.64 352.007H216.445L216.189 351.093V351.093ZM289.508 364.438C286.07 363.744 281.448 360.929 279.749 358.493C276.727 354.163 276.689 346.936 279.664 342.576C282.044 339.088 286.807 336.314 291.997 335.394C294.911 334.877 301.516 335.104 304.638 335.827L306.91 336.354V339.338V342.323L304.313 341.527C300.693 340.417 295.721 340.159 292.972 340.938C290.142 341.739 287.161 344.263 286.272 346.61C284.611 350.994 286.68 356.651 290.607 358.463C292.66 359.41 296.34 359.815 298.605 359.343C300.21 359.009 300.244 358.942 300.244 356.169V353.336H296.911H293.578V350.677V348.019H300.85H308.122V355.443V362.867L304.948 363.815C302.342 364.592 300.906 364.779 296.918 364.858C293.644 364.922 291.231 364.786 289.508 364.438H289.508ZM340.791 364.198C335.428 362.653 332.447 358.23 333.16 352.875C333.612 349.477 334.863 347.482 337.662 345.688C340.255 344.027 342.799 343.366 346.605 343.366C350.43 343.366 352.956 344.028 355.603 345.724C358.636 347.666 359.869 350.059 359.869 354C359.869 357.693 358.689 360.219 356.022 362.237C352.469 364.927 346.149 365.74 340.791 364.198V364.198ZM350.941 358.38C352.436 356.718 352.464 351.329 350.984 349.8C349.027 347.776 345.154 347.77 342.421 349.787C341.337 350.588 341.151 351.196 341.151 353.941C341.151 357.738 342.035 359.204 344.696 359.818C347.299 360.418 349.58 359.893 350.941 358.38H350.941ZM477.046 364.229C471.918 362.477 469.599 358.906 470.082 353.504C470.698 346.603 476.122 342.752 484.212 343.472C487.377 343.753 489.672 344.84 491.553 346.947C493.024 348.594 493.282 349.329 493.476 352.422L493.7 355.994H485.41C477.8 355.994 477.147 356.042 477.436 356.576C477.61 356.896 477.924 357.554 478.134 358.04C478.345 358.525 479.181 359.264 479.992 359.682C481.935 360.683 486.544 360.691 489.609 359.7L491.747 359.008V361.251C491.747 363.419 491.683 363.515 489.822 364.118C488.593 364.516 486.343 364.79 483.61 364.875C479.916 364.989 479.01 364.9 477.046 364.229V364.229ZM486.607 350.927C485.879 348.908 484.963 348.015 483.396 347.8C482.553 347.684 481.428 347.739 480.897 347.922C479.701 348.334 478.082 349.876 477.567 351.093L477.18 352.007H482.088H486.996L486.607 350.927ZM77.2275 350.013V335.391H82.9439C87.8677 335.391 88.7026 335.472 88.9657 335.972C89.5 336.99 96.4822 354.111 96.9277 355.496C97.3175 356.708 97.5111 356.415 99.123 352.173C100.095 349.614 102.045 344.829 103.456 341.539L106.021 335.557L111.623 335.462L117.225 335.366V350V364.634H113.25H109.275L109.462 352.922C109.579 345.635 109.45 341.775 109.121 342.704C108.83 343.525 106.717 348.737 104.424 354.285C102.132 359.833 100.256 364.432 100.256 364.504C100.256 364.576 98.8023 364.634 97.025 364.634H93.7937L89.461 354.416C87.078 348.796 84.9187 343.47 84.6625 342.58C84.4064 341.691 84.2935 346.289 84.4115 352.799L84.6263 364.634H80.9269H77.2275V350.013V350.013ZM124.497 354.167V343.699H128.437H132.376V354.167V364.635H128.437H124.497V354.167ZM228.127 354.167V343.667L231.915 343.766L235.703 343.865L236.019 345.36C236.277 346.577 236.423 346.72 236.806 346.128C237.064 345.729 238.227 344.943 239.389 344.384C241.846 343.201 244.804 343.038 247.568 343.933C251.424 345.182 252.368 347.825 252.368 357.369V364.634H248.461H244.554L244.371 357.128L244.187 349.622L242.545 348.848C240.576 347.92 238.792 348.072 237.33 349.293C236.479 350.004 236.258 351.344 236.006 357.308L235.703 364.468L231.915 364.567L228.127 364.666V354.167V354.167ZM314.457 364.216C314.296 363.985 314.236 359.312 314.325 353.831L314.486 343.865L318.273 343.766L322.061 343.667L322.074 345.594L322.088 347.52L323.211 346.165C324.53 344.572 327.232 343.297 328.995 343.435C330.129 343.524 330.258 343.795 330.417 346.422L330.592 349.31L328.424 349.117C326.701 348.964 325.956 349.079 324.799 349.675C322.692 350.76 322.061 352.948 322.061 359.168V364.635H318.406C316.024 364.635 314.649 364.489 314.458 364.216H314.457ZM365.089 354.167V343.699H369.028H372.967L372.969 345.277L372.972 346.856L374.113 345.829C377.455 342.824 383.893 342.49 386.854 345.168C388.812 346.939 389.33 349.453 389.33 357.19V364.666L385.542 364.567L381.754 364.468L381.451 357.157C381.25 352.303 380.9 349.609 380.41 349.14C378.852 347.65 375.531 347.982 373.971 349.784C373.137 350.747 372.967 352.105 372.967 357.789V364.634H369.028H365.088V354.167H365.089ZM395.39 354.167V343.699H399.329H403.268V354.167V364.635H399.329H395.39V354.167ZM409.934 354.167V343.667L413.722 343.766L417.51 343.865L417.826 345.36C418.084 346.577 418.23 346.72 418.613 346.128C418.871 345.729 420.034 344.943 421.196 344.384C424.215 342.93 427.492 342.958 430.234 344.462C433.361 346.177 433.725 347.324 434.018 356.41L434.284 364.635H430.332H426.38L426.187 357.192C426.012 350.425 425.889 349.685 424.84 349.05C423.174 348.042 420.523 348.135 419.19 349.249C418.273 350.015 418.071 351.196 417.813 357.308L417.51 364.468L413.722 364.567L409.934 364.666V354.167V354.167ZM498.414 354.167V343.699H502.353H506.292L506.294 345.277L506.297 346.856L507.438 345.829C509.993 343.532 513.954 342.772 517.755 343.85C521.612 344.944 522.655 347.822 522.655 357.369L522.655 364.635H518.715H514.776V357.705C514.776 353.724 514.506 350.351 514.14 349.776C512.845 347.738 508.744 347.771 507.174 349.831C506.499 350.716 506.292 352.591 506.292 357.811V364.635H502.353H498.414V354.167L498.414 354.167ZM259.035 353.502V351.342H265.701H272.367V353.502V355.662H265.701H259.035V353.502ZM125.366 339.557C123.773 338.224 123.646 336.38 125.063 335.142C126.072 334.259 126.684 334.062 128.414 334.062C131.067 334.062 132.679 335.254 132.679 337.219C132.679 339.175 131.066 340.376 128.437 340.376C126.881 340.376 126.092 340.165 125.366 339.557V339.557ZM396.685 339.757C394.908 338.782 394.525 336.898 395.81 335.455C396.727 334.427 397.254 334.212 399.057 334.129C402.169 333.985 403.571 334.945 403.571 337.219C403.571 338.481 403.246 339.174 402.417 339.676C400.981 340.546 398.196 340.585 396.685 339.757V339.757ZM188.584 321.919L185.706 321.414V318.575V315.736L187.3 316.424C191.421 318.201 196.573 317.97 199.484 315.877C200.845 314.899 201.165 314.286 201.338 312.332L201.547 309.969L200.319 311.033C197.405 313.559 191.862 313.78 188.025 311.524C182.615 308.344 181.778 300.095 186.343 294.952C188.5 292.523 190.955 291.526 194.777 291.526C196.885 291.526 197.708 291.727 199.402 292.655L201.462 293.785V292.822V291.858H205.443H209.425L209.205 303.406C208.967 315.887 208.872 316.281 205.391 319.172C202.234 321.795 194.8 323.01 188.584 321.919V321.919ZM199.565 307.29C202.188 305.461 202.731 300.148 200.532 297.817C198.485 295.646 194.674 295.762 192.649 298.058C191.468 299.397 191.01 304.104 191.894 305.822C193.052 308.071 197.283 308.881 199.565 307.29V307.29ZM222.169 312.434C217.252 311.06 214.777 307.91 214.716 302.948C214.667 299.002 215.636 296.555 218.018 294.612C220.723 292.404 223.328 291.525 227.156 291.527C232.592 291.529 235.668 293.161 237.498 297.015C238.01 298.093 238.43 300.141 238.43 301.565V304.153H230.248C221.207 304.153 221.276 304.134 222.912 306.281C223.377 306.891 224.392 307.634 225.168 307.932C227.131 308.686 231.605 308.626 234.036 307.813L236.006 307.154V309.467C236.006 311.733 235.967 311.791 234.063 312.33C232.995 312.633 230.473 312.946 228.458 313.025C225.523 313.14 224.272 313.023 222.169 312.434V312.434ZM231.157 299.218C231.157 296.848 229.136 295.571 225.903 295.899C224.729 296.018 222.067 298.567 222.067 299.572C222.067 300.089 222.651 300.166 226.612 300.166H231.157V299.218V299.218ZM295.629 312.511C290.132 311.096 287.919 308.271 287.907 302.658C287.898 298.312 288.747 296.372 291.618 294.177C294.296 292.13 295.837 291.692 300.362 291.692C304.166 291.692 304.553 291.763 306.575 292.838C309.579 294.434 311.141 296.948 311.579 300.89L311.942 304.153H303.669C295.893 304.153 295.396 304.192 295.396 304.797C295.396 305.808 296.412 307.018 297.897 307.777C299.659 308.677 303.995 308.709 307.085 307.845L309.334 307.216V309.469V311.721L307.138 312.293C303.724 313.181 298.608 313.278 295.629 312.511V312.511ZM304.486 299.324C304.486 297.985 302.845 296.193 301.332 295.88C298.782 295.352 296.261 296.708 295.592 298.968L295.237 300.166H299.862C304.406 300.166 304.486 300.151 304.486 299.324ZM323.639 312.801C318.158 311.839 314.789 307.872 314.789 302.379C314.789 296.039 319.9 291.526 327.08 291.526C334.485 291.526 338.424 294.818 338.424 301.008V304.153H330.545H322.667V305.001C322.667 306.107 324.191 307.699 325.664 308.131C327.559 308.688 331.899 308.526 334.342 307.808L336.606 307.143V309.408V311.674L334.333 312.271C331.679 312.968 326.154 313.242 323.639 312.801V312.801ZM331.437 298.753C331.203 297.977 330.752 297.071 330.435 296.741C329.655 295.926 327.492 295.533 325.933 295.923C324.447 296.294 322.667 298.16 322.667 299.346C322.667 300.145 322.781 300.166 327.265 300.166H331.864L331.437 298.753V298.753ZM379.876 312.496C376.525 311.375 375.814 309.784 375.52 302.741L375.26 296.51H373.508H371.755V294.184V291.858H373.573H375.391V289.677V287.497L379.179 286.553L382.966 285.61L383.14 288.734L383.313 291.858H386.018H388.723V294.184V296.51H385.996H383.269L383.279 301.412C383.289 307.106 383.754 307.977 386.78 307.972L388.724 307.969V310.223C388.724 312.338 388.627 312.498 387.169 312.802C384.763 313.304 381.939 313.185 379.877 312.496L379.876 312.496ZM399.865 312.511C394.98 311.254 392.469 308.444 391.949 303.655C391.386 298.468 394.373 293.87 399.415 292.161C401.136 291.578 402.188 291.475 405.205 291.595C408.591 291.729 409.081 291.852 411.197 293.095C414.106 294.805 415.393 297.149 415.563 301.042L415.692 303.987L407.662 304.08C400.088 304.167 399.632 304.211 399.632 304.838C399.632 305.92 401.253 307.728 402.571 308.114C404.474 308.673 408.841 308.538 411.321 307.845L413.57 307.216V309.468V311.721L411.374 312.293C407.96 313.181 402.844 313.278 399.865 312.511V312.511ZM408.466 298.753C407.441 295.233 402.823 294.628 400.477 297.706C398.758 299.962 399.07 300.166 404.255 300.166H408.877L408.466 298.753V298.753ZM243.278 302.16V291.858H246.881H250.484L250.669 293.436L250.853 295.015L252.275 293.761C253.991 292.247 256.339 291.526 259.548 291.526C261.526 291.526 262.264 291.728 263.82 292.7C264.854 293.346 265.701 294.094 265.701 294.362C265.701 295.07 266.768 294.958 267.204 294.205C267.409 293.85 268.528 293.103 269.69 292.543C271.387 291.726 272.348 291.526 274.57 291.526C276.891 291.526 277.658 291.702 279.334 292.621C280.433 293.224 281.632 294.308 281.998 295.03C282.396 295.817 282.664 299.579 282.666 304.403L282.67 312.461H279.033H275.397L275.394 306.064C275.39 299.311 274.958 297.661 272.928 296.654C271.787 296.088 271.536 296.077 270.053 296.533C267.44 297.334 266.985 298.709 266.947 305.898L266.913 312.461H262.974H259.035V305.504C259.035 301.678 258.775 298.173 258.458 297.715C257.753 296.699 255.769 296.069 254.157 296.349C251.459 296.819 250.929 298.218 250.663 305.566L250.413 312.461H246.846H243.278V302.16H243.278ZM343.272 302.16V291.858H347.211H351.15L351.152 293.436L351.155 295.015L352.296 293.988C354.987 291.569 360.08 290.743 363.422 292.184C366.72 293.607 367.158 294.918 367.391 304.07L367.604 312.461H363.619H359.634V305.466C359.634 299.921 359.447 298.273 358.732 297.514C357.008 295.686 353.591 295.944 352.008 298.022C351.365 298.865 351.15 300.816 351.15 305.804V312.461H347.211H343.272V302.16H343.272Z" fill="white"/>
</g>
<defs>
<clipPath id="clip0_1_3441">
<rect width="600" height="400" fill="white"/>
</clipPath>
</defs>
</svg>
