<svg width="600" height="400" viewBox="0 0 600 400" fill="none" xmlns="http://www.w3.org/2000/svg" xmlns:cgf="https://coding.garden/flags"><metadata id="cgf-metadata">

<cgf:flag>
  <cgf:name>Oldambt</cgf:name>
  <cgf:route>nl/gr/oldambt</cgf:route>
  <cgf:aspect-ratio>1.5</cgf:aspect-ratio>
</cgf:flag>

</metadata><g clip-path="url(#clip0_1_3455)">
<path d="M599.888 0.804822L0.237793 0V400H599.888V0.804822V0.804822Z" fill="#0188CA"/>
<path d="M599.835 87.5495L584.564 93.2405C562.594 101.021 541.536 98.722 521.075 89.8259C493.488 78.9806 465.9 77.9174 438.313 89.8259C413.182 96.9247 388.051 101.619 362.919 89.2568C336.466 77.7064 310.012 78.8402 283.558 86.9804C258.545 94.897 233.521 102.662 207.031 89.8259C184.442 80.7395 163.926 78.1603 150.344 82.9967L184.923 114.866C212.818 127.769 241.121 134.094 270.52 122.834C302.982 106.861 334.225 108.868 365.187 121.696C391.452 133.492 417.717 129.744 443.981 118.85C468.357 110.738 492.732 107.565 517.107 120.557C544.695 132.902 572.282 131.344 599.87 119.419L599.835 87.5495V87.5495Z" fill="white"/>
<path d="M599.965 186.101L584.694 191.792C562.724 199.573 541.666 197.274 521.205 188.378C493.618 177.532 466.03 176.469 438.443 188.378C413.312 195.477 388.18 200.171 363.049 187.809C336.596 176.258 310.142 177.392 283.688 185.532C258.675 193.449 233.651 201.213 207.161 188.378C184.572 179.291 164.056 176.712 150.474 181.549L185.053 213.418C212.947 226.32 241.251 232.646 270.65 221.386C303.112 205.413 334.355 207.42 365.317 220.247C391.582 232.044 417.846 228.296 444.111 217.402C468.487 209.29 492.862 206.117 517.237 219.109C544.825 231.454 572.412 229.896 600 217.971L599.965 186.101Z" fill="white"/>
<path d="M599.839 285.095L584.568 290.786C562.597 298.567 541.539 296.268 521.079 287.372C493.491 276.526 465.904 275.463 438.316 287.372C413.185 294.471 388.054 299.165 362.923 286.803C336.469 275.252 310.015 276.386 283.561 284.526C258.548 292.443 233.524 300.207 207.034 287.372C184.446 278.285 163.929 275.706 150.348 280.542L184.927 312.412C212.821 325.314 241.125 331.64 270.523 320.38C302.985 304.407 334.229 306.414 365.19 319.241C391.455 331.038 417.72 327.29 443.985 316.396C468.36 308.284 492.735 305.111 517.111 318.103C544.698 330.448 572.286 328.89 599.873 316.965L599.839 285.095H599.839Z" fill="white"/>
<path d="M212.453 0.439994L120.256 53.1903L210.849 101.944L123.463 150.698L212.453 200.252L122.661 249.805L210.849 298.559L124.265 349.711L211.651 399.862L2.83606e-05 399.264L0 0.439994H212.453Z" fill="#F3B502"/>
<path d="M37.6682 21.0071L37.8687 41.5302L18.0273 52.1942L38.0691 63.0594L38.47 83.1801L56.3071 73.3209L75.3469 83.7837V62.657L94.1861 52.5966L75.3469 41.9326L75.5473 21.0071L56.5076 31.671L37.6684 21.0071H37.6682Z" fill="#FE0000"/>
<path d="M68.2967 97.8802L68.4971 118.403L48.6558 129.067L68.6975 139.933L69.0984 160.053L86.9356 150.194L105.975 160.657V139.53L124.815 129.47L105.975 118.806L106.176 97.8802L87.1361 108.544L68.2968 97.8802H68.2967Z" fill="#FE0000"/>
<path d="M36.9719 172.657L37.1724 193.18L17.3311 203.844L37.3728 214.709L37.7737 234.83L55.6108 224.971L74.6506 235.433V214.307L93.4898 204.246L74.6506 193.582L74.851 172.657L55.8113 183.321L36.9721 172.657H36.9719Z" fill="#FE0000"/>
<path d="M67.6004 248.132L67.8008 268.655L47.9595 279.319L68.0012 290.185L68.4021 310.305L86.2393 300.446L105.279 310.909V289.782L124.118 279.722L105.279 269.058L105.479 248.132L86.4398 258.796L67.6005 248.132H67.6004Z" fill="#FE0000"/>
<path d="M37.6682 319.415L37.8687 339.938L18.0273 350.602L38.0691 361.467L38.47 381.588L56.3071 371.728L75.3469 382.191V361.064L94.1861 351.004L75.3469 340.34L75.5473 319.415L56.5076 330.078L37.6684 319.415H37.6682Z" fill="#FE0000"/>
</g>
<defs>
<clipPath id="clip0_1_3455">
<rect width="600" height="400" fill="white"/>
</clipPath>
</defs>
</svg>
