<svg width="600" height="400" viewBox="0 0 600 400" fill="none" xmlns="http://www.w3.org/2000/svg" xmlns:cgf="https://coding.garden/flags"><metadata id="cgf-metadata">

<cgf:flag>
  <cgf:name>Pekela</cgf:name>
  <cgf:route>nl/gr/pekela</cgf:route>
  <cgf:aspect-ratio>1.5</cgf:aspect-ratio>
</cgf:flag>

</metadata><g clip-path="url(#clip0_1_3468)">
<path d="M-3.95166 -2.3395V401.153H216.034V-2.3395H-3.95166V-2.3395Z" fill="#DA121A"/>
<path d="M197.137 -2.46304V401.197H528.363V-2.46304H197.137V-2.46304Z" fill="white"/>
<path d="M526.528 -3.85028V401.108H603.485V-3.85028H526.528V-3.85028Z" fill="#0F47AF"/>
<path d="M196.724 235.415C200.761 250.999 222.73 258.231 237.272 238.399C251.827 253.053 265.016 255.174 278.859 238.25C291.527 256.312 308.751 252.507 319.407 238.697L319.556 236.758C308.874 248.964 293.835 254.891 278.265 236.161C263.205 255.202 249.779 248.366 236.678 236.31C230.401 248.104 208.603 256.678 198.655 235.117L196.724 235.415H196.724H196.724Z" fill="black"/>
<path d="M220.117 247.884C224.154 263.468 246.124 270.7 260.665 250.868C275.221 265.522 288.409 267.643 302.253 250.719C314.92 268.781 332.144 264.976 342.8 251.166L342.949 249.227C332.267 261.433 317.229 267.36 301.658 248.63C286.598 267.672 273.172 260.836 260.071 248.78C253.794 260.573 231.996 269.147 222.048 247.586L220.117 247.884H220.117L220.117 247.884Z" fill="black"/>
<path d="M199.323 260.714C203.36 276.298 225.33 283.53 239.871 263.698C254.427 278.352 267.615 280.473 281.459 263.549C294.126 281.611 311.35 277.806 322.006 263.996L322.155 262.057C311.473 274.263 296.435 280.189 280.865 261.46C265.804 280.501 252.378 273.665 239.277 261.609C233 273.403 211.202 281.976 201.254 260.416L199.323 260.714H199.323H199.323Z" fill="black"/>
<path d="M319.185 236.546C323.222 252.13 345.191 259.362 359.732 239.53C374.288 254.184 387.476 256.305 401.32 239.381C413.987 257.443 431.211 253.638 441.868 239.828L442.016 237.889C431.334 250.095 416.296 256.022 400.726 237.292C385.666 256.334 372.239 249.498 359.138 237.442C352.861 249.235 331.064 257.809 321.115 236.248L319.185 236.546H319.185H319.185Z" fill="black"/>
<path d="M341.761 249.675C345.798 265.258 367.767 272.491 382.309 252.658C396.864 267.312 410.053 269.433 423.896 252.509C436.563 270.571 453.787 266.766 464.444 252.957L464.592 251.017C453.91 263.223 438.872 269.15 423.302 250.42C408.242 269.462 394.815 262.626 381.714 250.57C375.438 262.364 353.64 270.937 343.692 249.376L341.761 249.675H341.761H341.761Z" fill="black"/>
<path d="M320.967 261.908C325.004 277.491 346.973 284.724 361.515 264.891C376.07 279.545 389.259 281.666 403.102 264.742C415.769 282.804 432.993 279 443.65 265.19L443.799 263.25C433.116 275.456 418.078 281.383 402.508 262.654C387.448 281.695 374.021 274.859 360.921 262.803C354.644 274.597 332.846 283.17 322.898 261.609L320.967 261.908H320.967H320.967Z" fill="black"/>
<path d="M199.605 260.835C208.736 260.724 216.098 257.179 221.03 248.915L222.396 250.497C217.722 257.899 209.375 262.774 200.551 262.523L199.605 260.835V260.835Z" fill="black"/>
<path d="M464.792 250.075C477.49 264.342 490.813 265.443 504.911 250.181H506.802C491.245 269.326 475.614 266.683 464.897 251.763L464.792 250.075L464.792 250.075V250.075Z" fill="black"/>
<path d="M443.646 237.928C455.319 252.269 467.565 253.375 480.524 238.034H482.261C467.961 257.279 453.593 254.623 443.743 239.624L443.647 237.928L443.647 237.928H443.646Z" fill="black"/>
<path d="M444.523 262.964C457.221 277.231 470.544 278.332 484.642 263.07H486.532C470.975 282.215 455.344 279.573 444.628 264.652L444.522 262.964L444.523 262.964H444.523Z" fill="black"/>
<path d="M484.957 262.648C497.655 276.914 510.978 278.015 525.076 262.753H526.966C511.409 281.898 495.778 279.256 485.062 264.336L484.957 262.648L484.957 262.648H484.957Z" fill="black"/>
<path d="M481.386 237.647C494.084 251.914 507.407 253.015 521.505 237.752H523.396C507.839 256.898 492.207 254.255 481.491 239.335L481.386 237.647L481.386 237.647H481.386Z" fill="black"/>
<path d="M527.229 261.832C518.098 261.721 510.736 258.176 505.804 249.912L504.438 251.494C509.112 258.896 517.459 263.772 526.284 263.52L527.229 261.832V261.832Z" fill="black"/>
<path d="M372.283 108.758L331.884 108.161C328.807 117.013 326.148 125.865 323.863 134.716L254.353 205.131L242.768 203.042V205.429L301.287 219.751L303.069 249.886C310.924 248.917 316.096 244.175 320.002 237.653C329.896 254.065 342.787 256.429 359.807 239.443C376.61 255.036 390.433 254.38 401.691 239.742C412.13 251.81 426.645 258.505 443.279 238.25L455.161 248.991C449.425 237.753 448.605 226.514 448.329 215.276L458.726 214.38C452.626 193.984 444.226 174.907 432.585 157.691L422.485 163.956V139.788H420.406L419.812 226.315L414.465 226.017L414.762 220.646H407.632L408.523 219.154L412.979 218.856V215.574H410.603C409.62 189.273 398.799 165.795 381.195 144.264V139.192H379.115V143.667H376.145C372.796 138.794 372.283 133.921 372.877 129.047H377.333V126.959C368.061 121.908 369.908 115.369 372.283 108.758Z" fill="black"/>
<path d="M315.763 145.219L300.324 161.359C291.464 173.533 288.017 183.428 287.826 191.951C303.472 177.798 318.491 163.504 315.763 145.219Z" fill="white"/>
<path d="M316.708 168.321L310.511 181.824L321.959 169.059L316.708 168.321V168.321Z" fill="white"/>
<path d="M327.263 170.431L321.066 183.933L332.514 171.169L327.263 170.431V170.431Z" fill="white"/>
<path d="M317.443 167.055H322.589L325.635 163.574L320.804 163.469L317.443 167.055V167.055Z" fill="white"/>
<path d="M327.33 168.517H333.711L337.488 162.403L331.497 162.217L327.33 168.517V168.517Z" fill="white"/>
<path d="M348.215 161.781H345.274L345.064 171.064L346.955 170.853V172.541H345.484L345.064 176.76H343.384L343.174 207.985H344.644V219.589L346.745 218.534L346.955 186.254L348.635 184.777V172.541L346.955 172.119V170.642H348.635L348.215 161.781V161.781Z" fill="white"/>
<path d="M357.361 163.398L354.442 163.751L355.338 172.993L357.19 172.557L357.391 174.232L355.931 174.409L356.016 178.649L354.348 178.85L357.855 209.877L359.315 209.7L360.696 221.221L362.656 219.921L359.023 187.848L360.515 186.18L359.059 174.031L357.34 173.814L357.165 172.347L358.833 172.145L357.361 163.398L357.361 163.398Z" fill="white"/>
<path d="M352.206 187.52L352.626 225.918H350.526L349.896 187.731L352.206 187.52V187.52Z" fill="white"/>
<path d="M258.524 206.086L281 200.601L272.808 210.728L258.524 206.086Z" fill="white"/>
<path d="M278.197 212.181L290.596 206.119L287.055 213.854L278.197 212.181Z" fill="white"/>
<path d="M290.336 214.377L306.111 212.194L300.361 216.224L290.336 214.377V214.377Z" fill="white"/>
<path d="M307.676 219.8C324.552 225.85 336.161 226.61 346.955 226.551V223.597C336.341 224.584 321.649 221.651 308.516 217.268L307.676 219.8V219.8Z" fill="white"/>
<path d="M329.521 129.396L337.502 123.91H358.717L370.9 130.872L359.242 126.547L338.553 125.704L329.521 129.396V129.396Z" fill="white"/>
<path d="M350.63 108.614V91.7361L353.991 91.5251C357.457 94.8541 360.923 96.1428 364.389 95.5337C371.218 94.3727 374.21 98.6709 377.832 102.074C373.049 99.3447 368.344 97.0776 364.389 99.3313C360.993 100.346 357.597 100.756 354.201 97.327L353.886 108.614H350.63V108.614Z" fill="black"/>
<path d="M420.314 155.557V138.679L423.675 138.468C427.141 141.797 430.606 143.085 434.072 142.476C440.901 141.315 443.894 145.613 447.515 149.017C442.733 146.287 438.028 144.02 434.072 146.274C430.676 147.289 426.018 147.699 422.622 144.27L422.53 155.557H420.314H420.314Z" fill="black"/>
<path d="M357.877 223.703L365.439 223.597L366.699 227.922L369.325 228.028L367.014 223.703L387.599 222.648L387.389 228.028L389.069 227.922V222.753L403.878 222.331L404.088 226.445L405.873 226.234L405.558 222.331L413.33 222.437V225.813L405.768 225.918L389.384 226.445L386.654 227.711L368.59 227.922H357.352L357.877 223.703V223.703Z" fill="white"/>
<path d="M423.412 218.534L423.307 223.808L446.517 218.006L446.307 216.213L423.412 218.534H423.412Z" fill="white"/>
<path d="M348.448 161.814L348.871 170.675H341.044L341.255 172.363H349.083C348.212 190.937 347.899 206.17 347.391 222.574C335.028 209.202 338.071 190.646 346.544 163.291L348.448 161.814Z" fill="white"/>
<path d="M353.076 164.098L353.484 172.96L361.278 172.232L361.225 173.932L353.431 174.66C356.036 193.072 357.773 208.209 359.814 224.495C370.871 210.031 366.106 191.839 355.11 165.392L353.076 164.098Z" fill="white"/>
<path d="M357.757 163.08L360.931 223.207L367.912 216.245V189.873L357.757 163.08Z" fill="black"/>
</g>
<defs>
<clipPath id="clip0_1_3468">
<rect width="600" height="400" fill="white"/>
</clipPath>
</defs>
</svg>
