<svg width="600" height="400" viewBox="0 0 600 400" fill="none" xmlns="http://www.w3.org/2000/svg" xmlns:cgf="https://coding.garden/flags"><metadata id="cgf-metadata">

<cgf:flag>
  <cgf:name>Westerkwartier</cgf:name>
  <cgf:route>nl/gr/westerkwartier</cgf:route>
  <cgf:aspect-ratio>1.5</cgf:aspect-ratio>
</cgf:flag>

</metadata><g clip-path="url(#clip0_1_3512)">
<path d="M600 0H0V400H600V0Z" fill="white"/>
<path d="M600 0L396.851 201.86L600 400V0Z" fill="#43C0F0"/>
<path d="M206.929 0L0 201.86L201.26 400H0V0H206.929Z" fill="#C6D30A"/>
<path d="M85.3936 150.233L70.5117 164.651L99.3306 192.907L128.031 164.535L114.331 150.349L99.4487 165.233L85.3936 150.233Z" fill="#C6D30A"/>
<path d="M144.035 150.407L129.153 164.826L157.972 193.081L186.673 164.709L172.972 150.523L158.09 165.407L144.035 150.407Z" fill="#43C0F0"/>
<path d="M143.153 208.049L128.323 193.579L99.9829 222.3L129.157 250.201L143.395 236.537L128.092 222.072L143.153 208.049Z" fill="black"/>
<path d="M201.646 228.843C199.323 228.491 197.928 227.239 197.266 224.91C197.056 224.172 196.967 221.768 197.115 220.823C197.544 218.086 198.936 216.36 201.246 215.699C202.5 215.341 204.112 215.264 205.308 215.506C207.44 215.937 208.877 217.438 209.506 219.893L209.663 220.504L209.417 220.69C208.918 221.065 208.052 221.303 206.599 221.464C206.113 221.518 204.46 221.636 202.925 221.725L200.134 221.889V222.706C200.134 226.017 201.572 227.372 204.773 227.076C205.959 226.967 208.014 226.486 209.114 226.06C209.497 225.912 209.465 225.896 209.693 226.357L209.847 226.669L209.239 226.998C206.369 228.554 203.821 229.173 201.646 228.843V228.843ZM203.775 220.542C205.163 220.492 206.324 220.438 206.356 220.423C206.387 220.407 206.356 220.144 206.282 219.838C205.887 218.154 205.093 217.13 203.986 216.878C203.618 216.794 202.804 216.793 202.358 216.874C201.877 216.963 201.416 217.148 201.189 217.344C200.751 217.723 200.335 218.895 200.184 220.175L200.124 220.683L200.687 220.658C200.997 220.643 202.386 220.591 203.775 220.541V220.542ZM215.796 228.851C214.965 228.751 214.65 228.684 213.846 228.433C213.127 228.209 212.24 227.759 212.311 227.656C212.338 227.617 212.533 227.232 212.743 226.8C212.954 226.369 213.144 226.008 213.166 225.999C213.187 225.99 213.464 226.119 213.781 226.287C214.511 226.675 215.585 227.081 216.364 227.264C216.842 227.377 217.116 227.41 217.677 227.426C218.669 227.454 219.2 227.38 219.754 227.136C220.354 226.871 220.598 226.55 220.741 225.837C220.879 225.15 220.758 224.712 220.324 224.323C219.811 223.862 219.156 223.593 216.553 222.774C214.802 222.222 213.549 221.356 213.082 220.373C212.861 219.908 212.833 218.576 213.036 218.126C213.23 217.696 213.671 217.163 214.243 216.671C214.631 216.337 214.899 216.172 215.471 215.919C215.888 215.734 216.411 215.55 216.687 215.491C217.123 215.398 217.296 215.387 218.386 215.389C219.44 215.39 219.753 215.409 220.758 215.528C221.394 215.604 221.937 215.676 221.964 215.688C222.021 215.713 221.631 217.502 221.562 217.532C221.537 217.544 221.146 217.485 220.694 217.402C219.024 217.098 217.588 216.99 216.52 217.09C215.674 217.169 215.233 217.476 215.073 218.1C214.791 219.191 215.381 219.671 218.095 220.559C218.816 220.795 219.618 221.066 219.878 221.162C221.08 221.605 222.238 222.452 222.662 223.198C222.921 223.652 223.031 224.941 222.866 225.56C222.47 227.038 220.902 228.334 219.01 228.746C218.374 228.885 218.196 228.904 217.394 228.918C216.716 228.93 216.321 228.914 215.797 228.851L215.796 228.851ZM229.058 228.875C228.338 228.761 227.89 228.533 227.507 228.084C226.978 227.462 226.995 227.647 226.957 222.143L226.923 217.044L226.271 216.993C225.193 216.908 225.28 216.949 225.28 216.527V216.154L227.232 214.754C229.029 213.465 229.204 213.354 229.45 213.354H229.716L229.78 213.81C229.814 214.061 229.843 214.571 229.843 214.944V215.622H231.892H233.94L233.886 215.869C233.856 216.004 233.804 216.264 233.771 216.446C233.738 216.628 233.676 216.787 233.633 216.799C233.591 216.81 232.818 216.87 231.918 216.932C231.017 216.994 230.18 217.052 230.058 217.062L229.835 217.08L229.868 221.691C229.899 225.911 229.916 226.324 230.071 226.579C230.401 227.121 230.624 227.189 232.05 227.182C232.625 227.179 233.303 227.166 233.557 227.151L234.018 227.124V227.572C234.018 227.982 233.999 228.027 233.799 228.106C233.162 228.359 231.552 228.744 230.627 228.864C230 228.946 229.532 228.949 229.059 228.875L229.058 228.875ZM240.798 228.854C240.051 228.745 239.681 228.637 239.053 228.346C236.907 227.352 235.897 224.963 236.162 221.507C236.42 218.143 238.015 216.17 240.982 215.546C241.71 215.393 241.772 215.387 242.804 215.387C243.826 215.387 243.899 215.392 244.494 215.53C246.533 215.999 247.86 217.337 248.532 219.6C248.754 220.345 248.732 220.533 248.396 220.767C247.926 221.093 246.965 221.337 245.571 221.483C245.17 221.525 243.587 221.633 242.051 221.724L239.26 221.888V222.825C239.26 224.264 239.561 225.374 240.131 226.035C240.667 226.657 241.606 227.052 242.684 227.111C243.939 227.179 245.867 226.841 247.711 226.231L248.572 225.946L248.735 226.273C248.825 226.453 248.911 226.612 248.928 226.625C248.989 226.674 247.56 227.422 246.646 227.82C245.009 228.533 243.549 228.887 242.129 228.917C241.545 228.931 241.209 228.914 240.798 228.854V228.854ZM242.852 220.54C244.268 220.489 245.443 220.441 245.466 220.432C245.488 220.423 245.452 220.171 245.386 219.87C245.03 218.247 244.24 217.192 243.16 216.898C242.752 216.786 241.999 216.781 241.419 216.885C240.875 216.982 240.3 217.275 240.099 217.558C239.707 218.109 239.421 219.009 239.301 220.068L239.231 220.684L239.755 220.658C240.044 220.643 241.437 220.59 242.852 220.539L242.852 220.54ZM307.336 228.872C305.794 228.651 304.817 227.894 304.439 226.63C304.227 225.92 304.307 224.238 304.58 223.69C305.072 222.701 305.976 222.087 307.416 221.765C308.322 221.562 308.989 221.51 311.906 221.419L312.756 221.393V219.896C312.756 218.349 312.688 217.959 312.352 217.562C312.126 217.295 311.555 217.052 311.054 217.01C310.025 216.925 308.474 217.199 306.78 217.764C306.436 217.879 306.154 217.969 306.153 217.964C306.153 217.96 306.044 217.705 305.911 217.4C305.777 217.095 305.668 216.821 305.668 216.79C305.668 216.71 307.948 215.973 308.844 215.763C310.46 215.384 311.967 215.267 313.078 215.434C314.103 215.588 314.899 216.078 315.279 216.79C315.672 217.527 315.69 217.722 315.761 222.128C315.823 225.935 315.85 226.46 315.993 226.699C316.197 227.041 316.387 227.202 316.688 227.289C316.911 227.354 316.972 227.352 317.584 227.266C317.946 227.215 318.296 227.163 318.363 227.151C318.455 227.134 318.484 227.226 318.484 227.535V227.942L317.635 228.289C316.677 228.681 316.147 228.812 315.423 228.839C314.289 228.88 313.627 228.488 313.216 227.532C313.152 227.385 313.077 227.265 313.05 227.266C313.022 227.268 312.649 227.472 312.222 227.72C310.802 228.544 309.714 228.886 308.412 228.917C308.016 228.926 307.59 228.908 307.336 228.872L307.336 228.872ZM310.516 227.141C311.067 227.048 311.653 226.875 312.345 226.601L312.853 226.4V225.384C312.853 224.825 312.824 223.928 312.788 223.392L312.723 222.416L311.793 222.443C310.65 222.478 309.804 222.563 309.137 222.711C307.464 223.083 307.266 223.328 307.277 225.017C307.29 226.024 307.305 226.162 307.497 226.471C307.748 226.875 308.087 227.118 308.514 227.204C308.9 227.281 309.857 227.251 310.515 227.141L310.516 227.141ZM334.53 228.824C333.734 228.649 333.269 228.304 332.891 227.606C332.73 227.309 332.715 226.909 332.685 222.164L332.653 217.043L332.001 216.994C330.932 216.914 331.009 216.951 331.009 216.52V216.14L332.94 214.758C334.716 213.487 334.894 213.374 335.158 213.363L335.444 213.35L335.508 214.129C335.543 214.558 335.571 215.069 335.571 215.265V215.622H337.619H339.666L339.613 215.783C339.584 215.871 339.532 216.131 339.498 216.361C339.464 216.59 339.4 216.788 339.356 216.8C339.312 216.811 338.541 216.871 337.642 216.932C336.743 216.992 335.907 217.051 335.785 217.061L335.563 217.08L335.596 221.712C335.631 226.643 335.629 226.629 336.093 226.941C336.408 227.153 336.647 227.187 337.777 227.182C338.353 227.179 339.031 227.165 339.284 227.151L339.746 227.124V227.579V228.034L339.139 228.232C338.418 228.466 337.087 228.768 336.353 228.864C335.605 228.962 335.109 228.951 334.53 228.824L334.53 228.824ZM354.795 228.853C353.021 228.602 351.816 227.847 351.005 226.48C350.314 225.315 350.092 224.143 350.161 222.023C350.214 220.385 350.33 219.777 350.773 218.79C351.565 217.024 352.927 215.974 354.983 215.543C355.599 215.414 355.832 215.389 356.559 215.373C357.552 215.352 358.128 215.418 358.932 215.645C360.615 216.12 361.936 217.563 362.507 219.553C362.74 220.364 362.718 220.555 362.365 220.782C361.808 221.138 360.744 221.38 359.104 221.523C358.576 221.569 357.036 221.67 355.68 221.747L353.216 221.889L353.271 223.132C353.326 224.414 353.444 224.939 353.825 225.595C354.718 227.139 356.636 227.489 359.966 226.718C360.434 226.609 361.21 226.391 361.69 226.232C362.497 225.964 362.565 225.95 362.61 226.036C362.637 226.088 362.722 226.251 362.797 226.4L362.936 226.67L361.989 227.17C359.304 228.589 356.902 229.151 354.795 228.853V228.853ZM356.154 220.566C357.726 220.507 359.112 220.459 359.233 220.459C359.427 220.459 359.455 220.437 359.455 220.29C359.455 219.951 359.044 218.716 358.774 218.244C358.418 217.624 357.822 217.111 357.249 216.933C356.55 216.717 355.436 216.784 354.729 217.086C354.135 217.339 353.763 217.904 353.494 218.961C353.339 219.569 353.185 220.673 353.255 220.673C353.278 220.673 354.582 220.625 356.154 220.566V220.566ZM274.447 228.83C273.009 228.554 271.626 227.223 269.987 224.54C269.36 223.514 268.398 222.042 268.315 221.983C268.284 221.961 267.984 222.182 267.648 222.474L267.037 223.005V225.841V228.676H265.581H264.125V217.977V207.277L265.581 206.956L267.037 206.634L267.051 213.964C267.051 220.331 267.074 221.277 267.195 221.165C267.27 221.094 267.994 220.401 268.802 219.624C270.497 217.995 271.995 216.652 272.528 216.284C273.488 215.622 273.996 215.471 275.153 215.503C275.59 215.515 275.965 215.552 276.116 215.595C276.352 215.663 276.365 215.687 276.365 216.044V216.421L275.871 216.471C274.527 216.608 273.688 217.132 271.223 219.373L270.323 220.192L270.875 221.064C271.179 221.543 271.734 222.417 272.107 223.005C273.639 225.419 274.91 226.809 276.107 227.382C276.56 227.598 276.769 227.655 277.239 227.69L277.579 227.714L277.606 228.128L277.634 228.542L277.218 228.65C276.389 228.864 275.087 228.949 274.464 228.829L274.447 228.83ZM172.028 228.58C172.001 228.527 170.536 224.189 168.774 218.939C167.011 213.69 165.544 209.342 165.514 209.277L165.458 209.16H167.116C168.028 209.16 168.775 209.169 168.775 209.179C168.775 209.189 169.644 211.861 170.707 215.117C172.369 220.209 173.518 223.846 174.055 225.716C174.132 225.982 174.209 226.207 174.227 226.215C174.246 226.223 174.429 225.754 174.635 225.174C175.131 223.773 176.736 219.546 178.229 215.701L179.438 212.592L179.06 211.55C178.851 210.977 178.68 210.474 178.679 210.433C178.679 210.365 178.81 210.358 180.132 210.358C181.561 210.358 181.587 210.361 181.635 210.454C181.662 210.507 181.928 211.311 182.226 212.241C182.927 214.429 183.048 214.758 184.308 217.891C185.199 220.105 186.178 222.607 187.35 225.659C187.539 226.152 187.591 226.231 187.645 226.108C187.68 226.026 188.013 224.909 188.384 223.626C188.756 222.343 189.913 218.585 190.956 215.275C191.999 211.965 192.852 209.235 192.852 209.208C192.852 209.175 193.179 209.16 193.872 209.16C194.786 209.16 194.891 209.168 194.891 209.236C194.891 209.278 193.471 213.663 191.736 218.979C190 224.296 188.58 228.653 188.58 228.662C188.58 228.671 187.915 228.674 187.103 228.666L185.624 228.654L183.527 223.368C181.663 218.672 180.484 215.618 180.352 215.14C180.327 215.052 180.277 214.98 180.239 214.98C180.202 214.98 179.965 215.572 179.712 216.296C179.334 217.375 175.215 228.159 175.028 228.558L174.972 228.676H173.525C172.105 228.676 172.078 228.673 172.028 228.579L172.028 228.58ZM252.877 222.16L252.902 215.644H254.115H255.329L255.532 216.618C255.643 217.154 255.757 217.601 255.783 217.613C255.809 217.625 255.997 217.446 256.202 217.217C257.494 215.765 258.206 215.438 260.207 215.378L261.008 215.354L260.951 215.606C260.92 215.744 260.822 216.262 260.733 216.757L260.571 217.655L260.28 217.652C260.12 217.649 259.623 217.624 259.175 217.595C258.728 217.566 258.186 217.555 257.972 217.571C257.432 217.612 256.893 217.865 256.324 218.346L255.863 218.735V223.706V228.676H254.358H252.852L252.877 222.16L252.877 222.16ZM283.144 228.638C283.144 228.618 282.818 227.544 282.419 226.252C281.231 222.406 280.451 220.1 279.837 218.618C279.153 216.967 278.836 216.631 277.911 216.576L277.513 216.553V216.171V215.789L277.974 215.699C279.565 215.389 280.643 215.433 281.219 215.833C282.096 216.443 282.93 218.466 284.653 224.158C285.051 225.475 285.377 226.572 285.377 226.596C285.377 226.898 286.171 225.48 286.932 223.819C287.768 221.992 288.57 219.681 289.02 217.805C289.164 217.205 289.294 216.694 289.309 216.669C289.336 216.626 291.676 216.331 291.745 216.361C291.903 216.431 293.821 221.486 295.094 225.186C295.361 225.962 295.596 226.604 295.617 226.614C295.674 226.639 295.898 226.286 296.537 225.169C298.663 221.447 299.425 218.402 298.843 215.947C298.827 215.88 299.051 215.82 300.016 215.63C300.672 215.502 301.228 215.406 301.252 215.416C301.406 215.484 301.513 216.439 301.463 217.313C301.331 219.662 300.244 222.154 297.318 226.815C296.727 227.756 296.22 228.56 296.192 228.601C296.146 228.668 295.99 228.676 294.736 228.676C293.696 228.676 293.323 228.662 293.298 228.623C293.279 228.593 293.035 227.837 292.757 226.943C292.125 224.911 291.34 222.658 290.759 221.208C290.514 220.596 290.289 220.022 290.26 219.933C290.167 219.657 290.069 219.718 289.944 220.128C289.624 221.183 288.731 223.37 287.941 225.038C287.569 225.823 286.385 228.005 286.054 228.516L285.95 228.676H284.547C283.775 228.676 283.143 228.659 283.143 228.638L283.144 228.638ZM321.397 222.148V215.62L322.634 215.632L323.872 215.643L324.081 216.628C324.196 217.169 324.295 217.622 324.302 217.633C324.316 217.645 324.595 217.361 324.937 217.002C326.182 215.694 326.79 215.436 328.765 215.377L329.58 215.352L329.526 215.455C329.497 215.512 329.393 216.016 329.297 216.576C329.2 217.136 329.093 217.614 329.059 217.639C329.016 217.669 328.666 217.661 327.962 217.612C326.6 217.518 326.223 217.546 325.717 217.779C325.503 217.878 325.099 218.144 324.819 218.372L324.309 218.786V223.731V228.676H322.852H321.396V222.148L321.397 222.148ZM342.756 222.149V215.622H344.212H345.669V222.149V228.676H344.212H342.756V222.149ZM366.858 222.16L366.883 215.643L368.04 215.632C368.676 215.625 369.229 215.636 369.268 215.653C369.307 215.672 369.413 216.072 369.504 216.543C369.739 217.757 369.713 217.734 370.226 217.177C370.757 216.6 371.346 216.074 371.67 215.887C372.229 215.564 373.283 215.366 374.44 215.366H375.015L374.96 215.526C374.931 215.614 374.829 216.136 374.735 216.685L374.564 217.684L374.267 217.665C372.299 217.536 372.132 217.534 371.673 217.623C371.157 217.724 370.897 217.863 370.29 218.361L369.847 218.725V223.701V228.676H368.342H366.837L366.862 222.16L366.858 222.16ZM343.179 211.521L342.194 210.679L343.191 209.801L344.189 208.924L345.187 209.806L346.186 210.687L345.237 211.496C344.715 211.941 344.26 212.318 344.226 212.334C344.192 212.35 343.721 211.984 343.179 211.521V211.521ZM190.522 201.4C189.837 201.312 189.388 201.203 188.871 200.998C187.343 200.392 186.287 199.114 185.819 197.304C185.583 196.391 185.446 194.88 185.516 193.966C185.769 190.659 187.391 188.722 190.462 188.059C191.987 187.73 193.642 187.732 196.224 188.065C196.843 188.146 196.922 188.167 196.882 188.247C196.857 188.296 196.746 188.616 196.633 188.957C196.521 189.299 196.413 189.601 196.394 189.628C196.371 189.66 196.053 189.62 195.474 189.509C193.749 189.182 191.929 189.031 190.861 189.128C190.089 189.199 189.663 189.299 189.218 189.516C188.686 189.776 188.415 190.073 188.201 190.629C187.831 191.592 187.755 192.233 187.758 194.372C187.758 196.494 187.834 197.044 188.251 198.119C188.767 199.449 189.796 200.255 191.149 200.388C191.811 200.453 193.522 200.354 194.778 200.178L195.619 200.06L195.644 197.912L195.669 195.764L195.45 195.743C195.33 195.732 194.582 195.694 193.789 195.66C192.995 195.625 192.324 195.587 192.296 195.575C192.268 195.563 192.278 195.407 192.315 195.23L192.384 194.907H194.997H197.61V197.616V200.326L197.343 200.435C196.61 200.733 194.721 201.163 193.435 201.325C192.52 201.44 191.118 201.475 190.522 201.399L190.522 201.4ZM203.894 201.41C201.906 201.201 200.831 200.128 200.511 198.035C200.397 197.295 200.451 196.091 200.628 195.379C201.146 193.303 202.667 192.211 205.037 192.213C206.111 192.214 206.766 192.39 207.444 192.859C208.208 193.39 208.805 194.348 209.02 195.39C209.084 195.699 209.072 195.734 208.848 195.883C208.347 196.217 207.397 196.36 204.586 196.526L202.609 196.642L202.579 197.048C202.541 197.554 202.71 198.574 202.897 198.965C203.219 199.64 203.748 200.018 204.564 200.155C204.946 200.219 205.102 200.224 205.625 200.184C206.388 200.127 207.51 199.892 208.33 199.618C209.008 199.392 209.007 199.392 209.118 199.718C209.181 199.903 209.162 199.929 208.813 200.119C207.015 201.1 205.279 201.555 203.895 201.41L203.894 201.41ZM205.352 195.715L206.833 195.663V195.489C206.833 195.214 206.563 194.453 206.343 194.094C206.112 193.716 205.676 193.356 205.328 193.255C204.995 193.159 204.15 193.192 203.756 193.315C203.155 193.504 202.795 194.148 202.689 195.225L202.63 195.82L203.252 195.793C203.594 195.778 204.54 195.743 205.355 195.715L205.352 195.715ZM233.342 201.41C231.766 201.272 230.726 200.461 230.164 198.931C229.924 198.276 229.921 195.875 230.164 195.138C230.786 193.217 232.15 192.27 234.37 192.219C234.922 192.206 235.157 192.223 235.562 192.298C237.08 192.586 238.112 193.689 238.527 195.465C238.593 195.75 238.413 195.908 237.796 196.105C237.193 196.298 236.415 196.386 234.12 196.52L232.054 196.641L232.111 197.583C232.155 198.304 232.216 198.624 232.373 198.949C232.826 199.89 233.652 200.275 235.04 200.195C235.654 200.159 237.092 199.86 237.869 199.605L238.463 199.41L238.579 199.641C238.644 199.767 238.664 199.896 238.624 199.925C238.378 200.11 237.182 200.692 236.647 200.887C235.485 201.311 234.322 201.495 233.347 201.41L233.342 201.41ZM234.339 195.735L236.359 195.662L236.297 195.381C236.051 194.264 235.654 193.657 234.959 193.335C234.701 193.215 234.593 193.196 234.188 193.196C233.361 193.196 232.877 193.371 232.605 193.769C232.41 194.055 232.2 194.723 232.115 195.325C232.06 195.722 232.072 195.807 232.183 195.807C232.257 195.807 233.227 195.775 234.338 195.735L234.339 195.735ZM244.226 201.41C242.628 201.272 241.594 200.504 241.06 199.059C240.687 198.051 240.685 196.074 241.06 194.981C241.553 193.528 242.504 192.683 244.036 192.336C244.327 192.27 244.692 192.234 245.209 192.22C245.88 192.203 246.017 192.212 246.501 192.317C247.906 192.62 248.893 193.642 249.279 195.193C249.386 195.623 249.382 195.693 249.24 195.823C248.842 196.191 247.855 196.354 245.04 196.516C243.919 196.581 242.962 196.649 242.914 196.668C242.77 196.723 243.019 198.555 243.23 198.997C243.642 199.859 244.502 200.268 245.767 200.202C246.633 200.156 248.027 199.859 248.885 199.537C249.147 199.439 249.276 199.412 249.304 199.452C249.58 199.848 249.572 199.873 249.072 200.149C248.345 200.552 247.126 201.043 246.439 201.211C245.919 201.337 244.977 201.469 244.72 201.451C244.683 201.449 244.462 201.43 244.23 201.41L244.226 201.41ZM245.958 195.705L247.17 195.657L247.143 195.464C247.002 194.444 246.419 193.552 245.726 193.295C245.471 193.2 245.365 193.189 244.872 193.205C244.019 193.232 243.598 193.436 243.334 193.952C243.157 194.297 242.95 195.119 242.95 195.477V195.815L243.848 195.784C244.342 195.768 245.291 195.732 245.958 195.705L245.958 195.705ZM266.22 201.394C265.592 201.295 265.313 201.141 265.028 200.735C264.77 200.368 264.703 199.483 264.7 196.401V193.336L264.19 193.298L263.681 193.26L263.652 192.995L263.623 192.73L264.945 191.786C266.684 190.546 266.735 190.543 266.737 191.709V192.383H268.13H269.524L269.486 192.607C269.464 192.731 269.426 192.911 269.398 193.008L269.349 193.184L268.31 193.256C267.738 193.296 267.148 193.339 266.999 193.351L266.728 193.375L266.757 196.57C266.789 200.012 266.781 199.958 267.3 200.167C267.544 200.266 267.595 200.269 268.601 200.245L269.648 200.221V200.517V200.814L269.235 200.948C268.703 201.12 267.366 201.4 266.929 201.429C266.742 201.442 266.423 201.425 266.219 201.394L266.22 201.394ZM274.503 201.417C272.806 201.264 271.736 200.418 271.229 198.827C270.991 198.078 270.997 195.96 271.243 195.186C271.733 193.622 272.75 192.663 274.263 192.338C274.964 192.188 276.05 192.169 276.665 192.296C278.135 192.601 279.136 193.627 279.556 195.258C279.646 195.609 279.641 195.692 279.517 195.797C279.208 196.061 278.377 196.283 277.321 196.385C277.134 196.403 276.13 196.468 275.088 196.53L273.195 196.642L273.165 197.155C273.105 198.154 273.439 199.197 273.962 199.648C274.817 200.386 276.46 200.384 278.807 199.641L279.536 199.411L279.642 199.596C279.7 199.698 279.748 199.814 279.748 199.853C279.748 199.892 279.463 200.075 279.113 200.259C277.459 201.134 275.852 201.537 274.505 201.416L274.503 201.417ZM275.401 195.735L277.416 195.662V195.531C277.416 195.309 277.146 194.498 276.975 194.192C276.754 193.795 276.304 193.389 275.968 193.283C275.428 193.114 274.432 193.197 274.032 193.445C273.64 193.688 273.357 194.351 273.193 195.411C273.144 195.724 273.158 195.807 273.26 195.807C273.33 195.807 274.295 195.775 275.403 195.735L275.401 195.735ZM211.946 201.256C211.91 201.24 211.881 199.238 211.881 196.805V192.383H212.744H213.606L213.73 192.875C213.799 193.145 213.873 193.367 213.895 193.367C213.917 193.367 214.38 193.169 214.923 192.926C216.128 192.389 216.808 192.211 217.663 192.211C218.813 192.211 219.547 192.547 220.031 193.295L220.193 193.545L220.941 193.162C222.211 192.513 223.233 192.214 224.191 192.212C225.455 192.21 226.292 192.665 226.764 193.611C226.97 194.022 226.974 194.102 226.976 197.647V201.263L225.981 201.275L224.986 201.287V197.915C224.986 195.778 224.948 194.441 224.884 194.265C224.678 193.699 224.12 193.366 223.376 193.366C222.888 193.366 221.939 193.607 221.156 193.929L220.424 194.23V197.757V201.284H219.459H218.493L218.459 197.785C218.427 194.617 218.409 194.262 218.256 194.032C217.952 193.574 217.512 193.366 216.85 193.366C216.382 193.366 215.259 193.645 214.564 193.933L213.919 194.201V197.743V201.284H212.965C212.44 201.284 211.981 201.271 211.945 201.255L211.946 201.256ZM252.27 196.834V192.383H253.083H253.896L253.953 192.543C253.984 192.631 254.039 192.838 254.074 193.003C254.17 193.443 254.21 193.455 254.706 193.194C255.304 192.88 256.383 192.488 257.064 192.338C257.509 192.24 257.772 192.211 258.217 192.211C259.541 192.211 260.344 192.598 260.93 193.517C261.147 193.858 261.148 193.873 261.179 197.572L261.209 201.285H260.241H259.274L259.234 197.829C259.19 194.068 259.197 194.111 258.634 193.688C258.141 193.317 257.376 193.279 256.146 193.564C255.779 193.649 255.193 193.834 254.844 193.975L254.211 194.23V197.758V201.285H253.24H252.269V196.834H252.27Z" fill="black"/>
</g>
<defs>
<clipPath id="clip0_1_3512">
<rect width="600" height="400" fill="white"/>
</clipPath>
</defs>
</svg>
