<svg width="600" height="400" viewBox="0 0 600 400" fill="none" xmlns="http://www.w3.org/2000/svg" xmlns:cgf="https://coding.garden/flags"><metadata id="cgf-metadata">

<cgf:flag>
  <cgf:name>De Bilt</cgf:name>
  <cgf:route>nl/ut/de_bilt</cgf:route>
  <cgf:aspect-ratio>1.5</cgf:aspect-ratio>
</cgf:flag>

</metadata><g clip-path="url(#clip0_1_8521)">
<path d="M600 0H0V400H600V0Z" fill="#FCDD09"/>
<path d="M0 0L400.615 400H0V0V0Z" fill="#0F47AF"/>
<path d="M67.3845 51.6133C63.0512 51.6133 59.1474 53.3862 56.3076 56.2216L71.9999 71.8898L78.4615 78.3414L99.6922 99.5395H144V143.779L155.077 154.839V99.5395H193.846V193.549L204.923 204.609V99.5395H243.692V243.318L254.769 254.378V99.5395H299.077V298.618L320.308 319.816L326.769 326.268L342.461 341.936C345.301 339.1 347.077 335.203 347.077 330.876C347.077 322.223 340.051 315.208 331.385 315.208C329.779 315.208 328.224 315.448 326.769 315.899V82.2584C328.227 82.7056 329.779 82.9497 331.385 82.9497C340.051 82.9497 347.077 75.9348 347.077 67.2815C347.077 58.6282 340.051 51.6133 331.385 51.6133C322.718 51.6133 315.692 58.6282 315.692 67.2815C315.692 68.8842 315.937 70.4336 316.385 71.8898H82.3845C82.8356 70.4369 83.0768 68.8842 83.0768 67.2815C83.0768 58.6282 76.0511 51.6133 67.3845 51.6133V51.6133Z" fill="black"/>
<path d="M331.385 346.544C335.718 346.544 339.622 344.771 342.462 341.936L326.769 326.268L320.308 319.816L299.077 298.618H254.769V254.378L243.692 243.318V298.618H204.923V204.609L193.846 193.549V298.618H155.077V154.839L144 143.779V298.618H99.6924V99.5396L78.4616 78.3415L72.0001 71.8899L56.3078 56.2217C53.468 59.0571 51.6924 62.955 51.6924 67.2816C51.6924 75.9349 58.7179 82.9498 67.3847 82.9498C68.9899 82.9498 70.5449 82.7091 72.0001 82.2585V315.899C70.5416 315.452 68.9899 315.208 67.3847 315.208C58.7179 315.208 51.6924 322.223 51.6924 330.876C51.6924 339.529 58.7179 346.544 67.3847 346.544C76.0513 346.544 83.077 339.529 83.077 330.876C83.077 329.273 82.8324 327.724 82.3847 326.268H316.385C315.933 327.721 315.692 329.273 315.692 330.876C315.692 339.529 322.718 346.544 331.385 346.544Z" fill="white"/>
</g>
<defs>
<clipPath id="clip0_1_8521">
<rect width="600" height="400" fill="white"/>
</clipPath>
</defs>
</svg>
