<svg width="600" height="400" viewBox="0 0 600 400" fill="none" xmlns="http://www.w3.org/2000/svg" xmlns:cgf="https://coding.garden/flags"><metadata id="cgf-metadata">

<cgf:flag>
  <cgf:name>De Ronde Venen</cgf:name>
  <cgf:route>nl/ut/de_ronde_venen</cgf:route>
  <cgf:aspect-ratio>1.5</cgf:aspect-ratio>
</cgf:flag>

</metadata><g clip-path="url(#clip0_1_9390)">
<path d="M600 0H199.58V159.621H600V0Z" fill="#0A3697"/>
<path d="M199.58 0H0V159.621H199.58V0Z" fill="#EA0D2C"/>
<path d="M600 159.621H0V242.271H600V159.621Z" fill="white"/>
<path d="M199.58 242.271H0V400H199.58V242.271Z" fill="#0A3697"/>
<path d="M600 242.271H199.58V400H600V242.271Z" fill="#EA0D2C"/>
<path d="M355.433 45.6076L345.47 56.7168L340.387 53.6561L331.828 63.6884L336.108 67.2593L327.214 75.9879L323.67 73.3807L326.679 69.9232L323.068 66.9758L327.281 61.8746L318.119 55.1863L314.508 58.9841L308.49 54.733L272.045 92.7652C273.179 94.6468 271.116 96.0077 269.237 95.7126C272.648 97.8704 271.365 102.66 266.896 101.267C270.747 106.666 276.347 125.716 251.364 131.069C247.262 131.454 242.183 131.032 244.934 137.081C233.944 131.724 241.568 126.085 245.123 126.419C269.599 126.101 263.493 112.887 263.469 107.102C253.487 109.305 251.196 102.512 253.161 97.1621C237.489 96.8974 231.051 103.885 234.815 118.885C232.963 125.164 226 124.354 222.615 118.805C226.019 119.745 229.026 119.943 228.479 113.515C229.247 91.7794 248.736 90.4812 258.268 94.6781C257.128 91.5031 260.625 89.8149 263.848 92.2733C262.997 91.2993 265.385 88.4681 267.614 90.1228L325.542 25.8272C328.228 24.1994 331.618 25.7251 330.557 28.4344L328.351 31.4384L334.169 35.3493L330.223 39.9404L339.919 46.9119L344.065 42.9444L348.345 45.8351L351.187 42.5193L355.433 45.6076Z" fill="white" stroke="black" stroke-width="0.929942"/>
<path fill-rule="evenodd" clip-rule="evenodd" d="M232.355 124.609C232.355 125.737 232.859 126.818 233.756 127.615C234.652 128.413 235.869 128.86 237.137 128.86C238.405 128.86 239.621 128.413 240.518 127.615C241.414 126.818 241.918 125.737 241.918 124.609C241.918 123.482 241.414 122.401 240.518 121.603C239.621 120.806 238.405 120.358 237.137 120.358C235.869 120.358 234.652 120.806 233.756 121.603C232.859 122.401 232.355 123.482 232.355 124.609V124.609Z" fill="white" stroke="black" stroke-width="0.929942"/>
<path fill-rule="evenodd" clip-rule="evenodd" d="M229.886 129.214C229.886 129.482 229.945 129.747 230.061 129.995C230.177 130.243 230.347 130.468 230.561 130.657C230.776 130.847 231.03 130.997 231.31 131.1C231.59 131.202 231.89 131.255 232.193 131.255C232.496 131.255 232.796 131.202 233.076 131.1C233.356 130.997 233.61 130.847 233.825 130.657C234.039 130.468 234.209 130.243 234.325 129.995C234.44 129.747 234.5 129.482 234.5 129.214C234.5 128.946 234.44 128.681 234.325 128.433C234.209 128.185 234.039 127.96 233.825 127.771C233.61 127.581 233.356 127.431 233.076 127.328C232.796 127.226 232.496 127.173 232.193 127.173C231.89 127.173 231.59 127.226 231.31 127.328C231.03 127.431 230.776 127.581 230.561 127.771C230.347 127.96 230.177 128.185 230.061 128.433C229.945 128.681 229.886 128.946 229.886 129.214V129.214Z" fill="white" stroke="black" stroke-width="0.929942"/>
<path d="M266.922 101.291C264.214 97.9558 261.259 95.9465 258.174 94.6377" stroke="black" stroke-width="0.929942"/>
<path d="M269.427 95.7995L263.753 92.2324" stroke="black" stroke-width="0.929942"/>
<path d="M272.169 92.8338L267.488 90.1084" stroke="black" stroke-width="0.929942"/>
<path d="M328.418 31.4092L308.457 54.8179" stroke="black" stroke-width="0.929942"/>
<path d="M227.846 45.6124L237.809 56.7218L242.892 53.661L251.451 63.6933L247.171 67.2641L256.065 75.9929L259.609 73.3857L256.6 69.9281L260.211 66.9807L255.998 61.8795L265.16 55.1913L268.771 58.9889L274.789 54.7378L311.234 92.7701C310.1 94.6517 312.164 96.0126 314.042 95.7175C310.631 97.8753 311.914 102.665 316.383 101.272C312.532 106.671 306.932 125.72 331.915 131.074C336.018 131.458 341.096 131.037 338.345 137.085C349.336 131.729 341.712 126.09 338.156 126.425C313.68 126.106 319.787 112.892 319.81 107.106C329.792 109.31 332.083 102.517 330.118 97.167C345.79 96.9023 352.228 103.889 348.464 118.89C350.316 125.169 357.279 124.359 360.664 118.809C357.26 119.749 354.254 119.947 354.801 113.519C354.032 91.7833 334.544 90.4852 325.011 94.682C326.151 91.5071 322.654 89.8187 319.431 92.2773C320.283 91.3032 317.895 88.4721 315.665 90.1268L257.737 25.831C255.051 24.2033 251.661 25.7291 252.722 28.4383L254.928 31.4423L249.111 35.3532L253.056 39.9444L243.36 46.916L239.214 42.9484L234.934 45.839L232.092 42.5233L227.846 45.6124Z" fill="white" stroke="black" stroke-width="0.929942"/>
<path fill-rule="evenodd" clip-rule="evenodd" d="M350.924 124.614C350.924 125.742 350.42 126.823 349.523 127.62C348.627 128.417 347.411 128.865 346.143 128.865C344.875 128.865 343.658 128.417 342.762 127.62C341.865 126.823 341.361 125.742 341.361 124.614C341.361 123.487 341.865 122.406 342.762 121.608C343.658 120.811 344.875 120.363 346.143 120.363C347.411 120.363 348.627 120.811 349.523 121.608C350.42 122.406 350.924 123.487 350.924 124.614V124.614Z" fill="white" stroke="black" stroke-width="0.929942"/>
<path fill-rule="evenodd" clip-rule="evenodd" d="M353.393 129.218C353.393 129.486 353.334 129.751 353.218 129.999C353.102 130.247 352.932 130.472 352.718 130.661C352.504 130.851 352.249 131.001 351.969 131.104C351.689 131.206 351.389 131.259 351.086 131.259C350.783 131.259 350.483 131.206 350.203 131.104C349.923 131.001 349.669 130.851 349.455 130.661C349.241 130.472 349.071 130.247 348.955 129.999C348.839 129.751 348.779 129.486 348.779 129.218C348.779 128.95 348.839 128.684 348.955 128.437C349.071 128.189 349.241 127.964 349.455 127.775C349.669 127.585 349.923 127.435 350.203 127.332C350.483 127.23 350.783 127.177 351.086 127.177C351.389 127.177 351.689 127.23 351.969 127.332C352.249 127.435 352.504 127.585 352.718 127.775C352.932 127.964 353.102 128.189 353.218 128.437C353.334 128.684 353.393 128.95 353.393 129.218V129.218Z" fill="white" stroke="black" stroke-width="0.929942"/>
<path d="M316.358 101.296C319.066 97.9607 322.021 95.9513 325.106 94.6426" stroke="black" stroke-width="0.929942"/>
<path d="M313.852 95.8043L319.526 92.2373" stroke="black" stroke-width="0.929942"/>
<path d="M311.109 92.8386L315.791 90.1133" stroke="black" stroke-width="0.929942"/>
<path d="M254.861 31.4141L274.822 54.8228" stroke="black" stroke-width="0.929942"/>
<path d="M300.199 314.471V308.59L300.482 307.865C301.411 305.484 303.2 303.767 305.305 303.237C307.556 302.67 309.865 303.527 310.701 305.241C311.322 306.512 311.247 307.638 310.429 309.349L309.945 310.363L309.754 309.784C309.134 307.899 306.109 307.241 305.097 308.771C304.569 309.569 304.59 311.192 305.141 312.305C305.908 313.851 307.851 314.857 309.645 314.635C310.665 314.509 311.827 314.072 312.667 313.497C314.484 312.252 314.815 311.403 315.335 306.642C315.776 302.599 315.262 299.075 313.801 296.111L313.475 295.449H311.685H309.895L309.828 294.878C309.742 294.144 309.742 293.368 309.828 292.529L309.896 291.86H311.729H313.561L313.99 290.854C315.653 286.95 315.893 283.538 314.916 277.641C314.562 275.502 314.177 274.846 312.667 273.812C311.828 273.238 310.665 272.8 309.646 272.674C307.864 272.454 305.9 273.47 305.141 275.004C304.584 276.131 304.573 277.744 305.116 278.567C306.104 280.064 309.141 279.389 309.75 277.538L309.936 276.972L310.376 277.817C311.219 279.437 311.323 280.753 310.71 282.041C310.192 283.128 309.152 283.874 307.801 284.129C305.732 284.519 303.881 283.889 302.257 282.241C301.515 281.487 301.316 281.2 300.823 280.17L300.252 278.974L300.222 272.965L300.193 266.957H321.868H343.542L343.542 272.802C343.542 278.462 343.533 278.666 343.32 279.246C342.85 280.517 342.333 281.356 341.472 282.247C340.468 283.286 339.51 283.825 338.161 284.11C335.968 284.574 333.728 283.632 332.965 281.925C332.425 280.719 332.552 279.402 333.36 277.813L333.797 276.951L333.981 277.506C334.334 278.574 335.292 279.243 336.596 279.33C337.546 279.394 338.007 279.242 338.479 278.706C338.98 278.139 339.14 277.359 338.977 276.283C338.826 275.29 338.531 274.685 337.854 273.983C337.17 273.273 336.371 272.867 335.342 272.704C334.646 272.594 334.388 272.603 333.589 272.762C331.822 273.113 330.1 274.257 329.368 275.567C329.048 276.14 328.691 278.025 328.41 280.631C327.972 284.701 328.472 288.213 329.904 291.127L330.265 291.861H332.061H333.856L333.919 292.649C333.953 293.083 333.965 293.731 333.945 294.09C333.924 294.449 333.9 294.902 333.892 295.096L333.875 295.449H332.071H330.266L329.94 296.111C328.813 298.397 328.245 301.041 328.245 304.002C328.245 306.23 328.882 310.799 329.314 311.667C329.699 312.443 330.738 313.397 331.756 313.91C334.089 315.086 336.368 314.868 337.855 313.327C338.521 312.636 338.812 312.039 338.972 311.033C339.144 309.961 338.985 309.176 338.479 308.603C338.007 308.068 337.547 307.916 336.596 307.979C335.293 308.067 334.335 308.735 333.981 309.804L333.798 310.359L333.36 309.497C332.814 308.422 332.556 307.354 332.647 306.543C332.855 304.694 334.277 303.399 336.397 303.131C339.35 302.756 342.224 304.83 343.335 308.135C343.53 308.715 343.542 309.086 343.542 314.552V320.353H321.871H300.199V314.472L300.199 314.471Z" fill="white" stroke="black" stroke-width="0.9"/>
<path d="M310.919 270.964C312.613 269.146 314.568 268.812 317.194 271.255C319.311 272.889 322.873 274.888 325.995 271.168C328.027 268.978 330.757 268.608 333.32 271.459" fill="white"/>
<path d="M310.919 270.964C312.613 269.146 314.568 268.812 317.194 271.255C319.311 272.889 322.873 274.888 325.995 271.168C328.027 268.978 330.757 268.608 333.32 271.459" stroke="black" stroke-width="0.9"/>
<path d="M313.531 291.815L330.24 291.801Z" fill="white"/>
<path d="M313.531 291.815L330.24 291.801" stroke="black" stroke-width="0.9"/>
<path d="M313.646 295.423L330.354 295.408Z" fill="white"/>
<path d="M313.646 295.423L330.354 295.408" stroke="black" stroke-width="0.9"/>
<path d="M333.161 316.231C331.467 318.049 329.512 318.382 326.887 315.939C324.769 314.305 321.207 312.307 318.085 316.027C316.053 318.217 313.324 318.587 310.76 315.736" fill="white"/>
<path d="M333.161 316.231C331.467 318.049 329.512 318.382 326.887 315.939C324.769 314.305 321.207 312.307 318.085 316.027C316.053 318.217 313.324 318.587 310.76 315.736" stroke="black" stroke-width="0.9"/>
<path d="M225.367 315.194V309.313L225.65 308.588C226.579 306.207 228.368 304.49 230.473 303.96C232.725 303.393 235.033 304.25 235.87 305.963C236.49 307.235 236.415 308.361 235.597 310.072L235.113 311.086L234.923 310.507C234.303 308.622 231.277 307.964 230.266 309.493C229.737 310.292 229.758 311.914 230.31 313.028C231.077 314.574 233.02 315.579 234.814 315.358C235.834 315.232 236.997 314.794 237.836 314.22C239.654 312.975 239.984 312.125 240.504 307.365C240.945 303.322 240.431 299.798 238.97 296.833L238.644 296.172H236.854H235.064L234.997 295.601C234.911 294.867 234.911 294.091 234.997 293.252L235.066 292.583H236.899H238.731L239.159 291.577C240.823 287.673 241.062 284.261 240.086 278.364C239.732 276.225 239.347 275.569 237.837 274.535C236.998 273.961 235.835 273.523 234.815 273.397C233.033 273.177 231.069 274.193 230.311 275.727C229.754 276.853 229.743 278.467 230.286 279.29C231.274 280.787 234.311 280.112 234.92 278.26L235.106 277.694L235.546 278.539C236.389 280.159 236.493 281.476 235.879 282.764C235.362 283.851 234.322 284.597 232.971 284.852C230.902 285.242 229.051 284.612 227.427 282.964C226.685 282.21 226.486 281.923 225.993 280.893L225.421 279.696L225.392 273.688L225.363 267.68H247.037H268.712L268.712 273.525C268.712 279.185 268.703 279.389 268.49 279.968C268.019 281.24 267.503 282.078 266.642 282.97C265.638 284.009 264.68 284.548 263.331 284.833C261.138 285.296 258.898 284.354 258.135 282.648C257.595 281.442 257.722 280.124 258.529 278.536L258.967 277.674L259.151 278.229C259.504 279.297 260.462 279.965 261.765 280.053C262.716 280.117 263.176 279.964 263.649 279.429C264.15 278.862 264.31 278.081 264.147 277.005C263.996 276.013 263.701 275.407 263.024 274.706C262.34 273.996 261.541 273.59 260.512 273.427C259.816 273.317 259.558 273.325 258.759 273.484C256.992 273.836 255.27 274.979 254.538 276.289C254.218 276.862 253.861 278.747 253.58 281.354C253.142 285.423 253.642 288.936 255.074 291.849L255.435 292.583H257.231H259.026L259.089 293.372C259.123 293.805 259.135 294.454 259.115 294.813C259.095 295.172 259.071 295.624 259.062 295.819L259.045 296.172H257.24H255.436L255.11 296.834C253.983 299.119 253.414 301.764 253.414 304.725C253.414 306.953 254.052 311.521 254.483 312.39C254.869 313.165 255.908 314.119 256.925 314.632C259.259 315.809 261.538 315.591 263.024 314.049C263.69 313.359 263.981 312.762 264.142 311.756C264.314 310.684 264.155 309.898 263.649 309.326C263.177 308.791 262.717 308.638 261.766 308.702C260.462 308.79 259.504 309.458 259.151 310.526L258.968 311.081L258.53 310.22C257.984 309.145 257.726 308.077 257.817 307.265C258.025 305.416 259.447 304.122 261.567 303.853C264.519 303.479 267.394 305.552 268.505 308.858C268.7 309.438 268.712 309.809 268.712 315.274V321.075H247.04H225.369V315.194L225.367 315.194Z" fill="white" stroke="black" stroke-width="0.9"/>
<path d="M236.087 271.688C237.781 269.869 239.736 269.536 242.362 271.979C244.479 273.613 248.041 275.612 251.163 271.891C253.195 269.701 255.924 269.332 258.488 272.183" fill="white"/>
<path d="M236.087 271.688C237.781 269.869 239.736 269.536 242.362 271.979C244.479 273.613 248.041 275.612 251.163 271.891C253.195 269.701 255.924 269.332 258.488 272.183" stroke="black" stroke-width="0.9"/>
<path d="M238.699 292.537L255.408 292.522Z" fill="white"/>
<path d="M238.699 292.537L255.408 292.522" stroke="black" stroke-width="0.9"/>
<path d="M238.814 296.146L255.523 296.131Z" fill="white"/>
<path d="M238.814 296.146L255.523 296.131" stroke="black" stroke-width="0.9"/>
<path d="M258.329 316.953C256.635 318.772 254.68 319.105 252.055 316.662C249.937 315.028 246.375 313.029 243.253 316.75C241.221 318.939 238.492 319.309 235.928 316.458" fill="white"/>
<path d="M258.329 316.953C256.635 318.772 254.68 319.105 252.055 316.662C249.937 315.028 246.375 313.029 243.253 316.75C241.221 318.939 238.492 319.309 235.928 316.458" stroke="black" stroke-width="0.9"/>
<path d="M261.182 376.608V370.727L261.465 370.002C262.394 367.621 264.183 365.904 266.288 365.374C268.54 364.807 270.848 365.664 271.685 367.377C272.305 368.649 272.231 369.775 271.413 371.486L270.928 372.5L270.738 371.921C270.118 370.036 267.092 369.378 266.081 370.907C265.553 371.706 265.573 373.328 266.126 374.442C266.893 375.988 268.836 376.993 270.63 376.772C271.65 376.646 272.812 376.208 273.651 375.634C275.469 374.389 275.8 373.539 276.319 368.779C276.76 364.736 276.247 361.212 274.785 358.247L274.459 357.586H272.669H270.88L270.813 357.015C270.726 356.281 270.726 355.505 270.813 354.665L270.882 353.997H272.714H274.546L274.975 352.991C276.639 349.087 276.878 345.675 275.902 339.778C275.547 337.639 275.162 336.983 273.652 335.949C272.813 335.375 271.651 334.937 270.631 334.811C268.849 334.591 266.885 335.607 266.126 337.141C265.569 338.267 265.558 339.881 266.102 340.704C267.09 342.2 270.126 341.526 270.735 339.674L270.921 339.108L271.361 339.953C272.204 341.574 272.308 342.89 271.695 344.178C271.177 345.265 270.137 346.011 268.786 346.266C266.718 346.656 264.867 346.026 263.243 344.378C262.5 343.624 262.301 343.337 261.809 342.307L261.237 341.11L261.208 335.102L261.179 329.094H282.853H304.527L304.527 334.939C304.527 340.599 304.518 340.803 304.306 341.382C303.835 342.654 303.319 343.492 302.457 344.384C301.453 345.423 300.496 345.962 299.146 346.247C296.953 346.71 294.713 345.768 293.95 344.062C293.411 342.856 293.537 341.538 294.345 339.95L294.783 339.088L294.966 339.643C295.32 340.711 296.278 341.379 297.581 341.467C298.532 341.531 298.992 341.378 299.464 340.843C299.965 340.276 300.125 339.495 299.962 338.419C299.812 337.427 299.516 336.821 298.839 336.12C298.155 335.41 297.357 335.004 296.328 334.841C295.631 334.731 295.373 334.739 294.575 334.898C292.807 335.25 291.086 336.394 290.353 337.703C290.033 338.276 289.676 340.161 289.396 342.768C288.957 346.837 289.457 350.35 290.89 353.263L291.251 353.997H293.046H294.842L294.904 354.786C294.939 355.219 294.95 355.868 294.93 356.227C294.91 356.586 294.886 357.038 294.877 357.233L294.86 357.586H293.056H291.251L290.925 358.248C289.798 360.533 289.23 363.178 289.23 366.139C289.23 368.367 289.867 372.935 290.299 373.804C290.684 374.579 291.723 375.533 292.741 376.046C295.074 377.223 297.353 377.005 298.84 375.463C299.506 374.773 299.797 374.176 299.958 373.17C300.129 372.098 299.97 371.313 299.465 370.74C298.992 370.205 298.532 370.052 297.581 370.116C296.278 370.204 295.32 370.872 294.967 371.94L294.783 372.495L294.345 371.634C293.799 370.559 293.541 369.491 293.633 368.679C293.84 366.83 295.262 365.536 297.382 365.267C300.335 364.893 303.21 366.966 304.321 370.272C304.515 370.852 304.527 371.223 304.527 376.688V382.489H282.856H261.184V376.608L261.182 376.608Z" fill="white" stroke="black" stroke-width="0.9"/>
<path d="M271.902 333.101C273.596 331.283 275.551 330.949 278.177 333.392C280.294 335.026 283.856 337.025 286.979 333.304C289.011 331.115 291.74 330.745 294.304 333.596" fill="white"/>
<path d="M271.902 333.101C273.596 331.283 275.551 330.949 278.177 333.392C280.294 335.026 283.856 337.025 286.979 333.304C289.011 331.115 291.74 330.745 294.304 333.596" stroke="black" stroke-width="0.9"/>
<path d="M274.515 353.952L291.224 353.937Z" fill="white"/>
<path d="M274.515 353.952L291.224 353.937" stroke="black" stroke-width="0.9"/>
<path d="M274.629 357.56L291.338 357.545Z" fill="white"/>
<path d="M274.629 357.56L291.338 357.545" stroke="black" stroke-width="0.9"/>
<path d="M294.145 378.366C292.451 380.185 290.496 380.518 287.87 378.075C285.753 376.441 282.191 374.442 279.068 378.163C277.036 380.353 274.307 380.722 271.743 377.871" fill="white"/>
<path d="M294.145 378.366C292.451 380.185 290.496 380.518 287.87 378.075C285.753 376.441 282.191 374.442 279.068 378.163C277.036 380.353 274.307 380.722 271.743 377.871" stroke="black" stroke-width="0.9"/>
<path d="M33.4922 296.516C35.9782 293.725 39.07 292.5 42.4537 292.029C42.5507 283.709 62.6678 281.03 68.9696 298.012C86.6317 307.337 105.284 315.8 126.175 322.315L114.636 324.933L158.338 344.375C157.643 344.991 156.992 345.632 154.042 344.874C152.662 344.765 151.181 344.195 150.741 344.973C149.896 346.47 148.682 347.111 145.817 346.494C142.952 349.906 140.088 349.616 137.224 349.361L100.028 329.544L109.112 334.405C105.8 339.581 98.2394 339.244 90.8821 339.172L88.7031 346.37C96.1408 347.142 94.6532 348.038 93.7977 348.924L85.8796 348.8C84.6888 350.149 83.4317 351.157 82.3494 351.819C79.6276 353.485 79.0125 350.678 83.1175 349.205C76.3517 350.412 78.0725 348.073 78.9231 347.922C78.9743 347.913 81.9873 347.292 85.4193 347.678C75.5162 346.826 79.5523 344.659 82.8721 345.996C84.5361 346.42 85.9052 346.564 86.5241 345.965L88.5495 339.421C85.5604 338.673 82.3147 338.915 78.1766 342.6L70.4616 351.533L74.6281 352.811C75.528 353.102 76.1891 354.407 74.0206 354.485L69.5501 353.251L66.2082 357.173C64.9911 358.309 62.7633 357.478 63.8645 356.204L67.1494 352.586L61.4625 354.449C60.1363 354.734 59.3372 353.558 60.1753 353.031L66.4252 351.136L61.0868 349.418C60.0805 348.873 59.5213 347.546 62.1283 347.743L68.6386 350.123L75.7566 342.059H74.9753C76.0123 336.072 73.2322 335.253 70.9337 333.782C47.9828 326.121 46.7957 313.275 46.0263 300.33L44.6808 298.215C40.9514 297.338 37.2219 296.351 33.4922 296.516V296.516Z" fill="#FACD11" stroke="black" stroke-width="0.9"/>
<path d="M42.4678 291.979C44.3806 293.875 45.5538 295.896 44.703 298.259" stroke="black" stroke-width="0.9"/>
<path fill-rule="evenodd" clip-rule="evenodd" d="M52.4504 291.769C52.4504 292.506 51.8092 293.102 51.0182 293.102C50.2272 293.102 49.5859 292.506 49.5859 291.769C49.5859 291.033 50.2272 290.437 51.0182 290.437C51.8092 290.437 52.4504 291.033 52.4504 291.769Z" fill="black"/>
<path d="M58.3967 301.607C53.0103 306.982 52.7177 311.961 55.4292 316.333C61.7906 326.591 85.412 328.391 114.645 324.962" stroke="black" stroke-width="0.9"/>
<path d="M61.8682 314.474C64.8016 314.474 67.16 312.852 68.986 311.037C71.8971 307.126 75.6701 308.027 79.4892 309.187" stroke="black" stroke-width="0.9"/>
<path d="M68.7393 316.499C71.0325 316.499 72.876 315.316 74.3033 313.993C76.579 311.142 79.5284 311.799 82.5138 312.644" stroke="black" stroke-width="0.9"/>
<path d="M89.0381 315.708C95.3621 317.294 95.9873 318.881 98.4996 320.467C99.4578 321.086 101.541 324.01 110.913 323.551" stroke="black" stroke-width="0.9"/>
<path d="M84.4238 316.595C89.3004 318.205 89.7826 319.814 91.7199 321.424C92.4588 322.052 94.0656 325.019 101.292 324.554" stroke="black" stroke-width="0.9"/>
<path d="M76.9336 317.715C80.7203 318.945 81.0947 320.175 82.5991 321.405C83.1728 321.885 84.4204 324.153 90.0317 323.797" stroke="black" stroke-width="0.9"/>
<path d="M68.9404 319.03C72.6056 320.104 72.9678 321.177 74.424 322.251C74.9792 322.669 76.1868 324.648 81.6178 324.338" stroke="black" stroke-width="0.9"/>
<path d="M106.052 327.518L114.559 332.012" stroke="black" stroke-width="0.9"/>
<path d="M111.867 327.518L121.068 332.541" stroke="black" stroke-width="0.9"/>
<path d="M75.7461 342.092L78.6975 342.158" stroke="black" stroke-width="0.9"/>
<path d="M88.5195 339.437L90.944 339.156" stroke="black" stroke-width="0.9"/>
<path d="M32.981 119.988L46.1595 105.719L44.622 100.997L47.2576 98.4792L47.9166 95.4363L52.1996 93.5477L55.055 92.3936L57.3611 89.4557C54.31 88.1966 54.5014 86.9376 55.055 85.6786C52.7426 82.1156 52.3938 80.1523 55.055 80.6422C53.6691 77.6942 52.3938 74.8562 54.7255 75.6059C52.9346 72.1741 54.2735 72.3968 54.979 71.88C52.758 68.797 54.2307 69.0665 54.7461 68.4671C53.2348 66.0414 52.7784 64.3521 55.0566 64.5721C53.7798 62.2706 53.6504 60.8718 54.8626 60.5286C53.7871 59.0711 52.3744 57.5393 54.979 56.8932C53.7211 53.2168 54.3935 52.6139 54.8237 51.6256C54.6568 49.9675 55.2555 49.1746 55.6391 48.1386C52.9432 46.1698 50.135 44.2205 48.9996 41.9806C50.1861 42.078 51.3826 42.1595 52.9988 41.5726C56.1714 40.5787 58.4444 42.1628 60.7643 43.6129L58.3571 40.0517C62.4838 37.119 71.8009 33.6582 75.8682 43.9838C79.0503 45.7046 85.3004 47.6696 81.6147 48.8434C83.8471 49.282 83.6484 50.7369 82.5854 52.553C78.6512 53.6683 76.6802 53.1165 74.5481 52.7014C76.026 53.1682 75.473 54.0233 79.7121 53.9626L80.2557 54.8159C79.3009 55.8179 77.4224 56.6938 73.5774 57.3012C75.7201 58.166 77.0825 59.2661 75.3246 61.3077C76.0336 62.0958 77.3139 62.1042 76.6836 64.7204C78.8612 64.4367 77.5312 66.2236 77.6154 67.4286C78.6992 67.0785 79.6802 66.9164 79.4403 68.9865L94.9746 51.5785C85.5682 41.2946 86.5516 34.2139 91.2439 30.8518L104.212 19.7231C107 17.0771 109.629 18.374 112.211 20.836L118.19 26.5487L120.597 23.8037L117.957 21.5036L120.442 18.7586L123.315 21.2811L126.033 18.0908L129.062 20.9844L126.421 24.2488L129.295 27.0681L126.654 30.1099L123.703 27.5132L116.482 34.784L135.119 43.0195C140.254 46.1337 150.357 50.9326 151.815 61.9384C145.623 56.0137 137.872 54.3943 129.838 53.5545C134.739 60.5032 143.677 63.8543 140.71 77.8153C135.542 66.3906 123.86 64.6465 113.375 61.1221C105.44 58.9458 102.402 56.7695 98.1552 54.5934L84.5655 69.5802C86.0765 70.1226 87.7444 70.4402 88.06 72.6961C89.2689 70.9675 90.8906 71.3415 92.7192 72.7712C93.1004 70.4947 95.2429 72.0644 96.9903 72.7712C97.6402 70.1888 99.8413 72.6449 101.417 73.0681C101.748 71.205 103.526 71.8284 105.921 73.5131C106.048 72.6446 105.51 70.9832 108.794 73.8841C108.475 70.4475 111.289 72.7653 113.531 74.0325C114.564 73.9138 114.433 71.9715 117.569 75.1454C118.682 73.2004 120.573 74.1048 122.927 76.7034C124.351 76.729 125.774 75.3448 127.198 78.855C128.331 78.1136 129.586 78.7817 130.925 80.413C132.982 80.5949 132.426 81.886 132.789 82.7872C133.502 83.5826 135.332 82.7783 134.575 85.6806C135.191 86.7623 136.275 87.322 135.74 89.687C135.279 90.3008 135.133 90.9815 136.517 91.987L135.895 97.4031C136.932 99.0348 137.344 100.234 137.215 101.038C136.701 104.252 133.196 107.228 134.032 101.038C133.272 103.969 132.719 107.656 130.77 106.232C130.957 108.894 132.008 111.062 134.265 112.538C135.956 113.292 137.353 114.257 136.594 116.767C137.388 124.748 136.858 134.468 140.71 138.431L138.147 138.356L136.749 141.991L135.352 142.214L134.342 144.811H131.003L130.537 144.291L128.363 144.217L127.509 143.253L132.013 138.95L131.934 138.356L134.574 135.463C132.464 125.633 132.906 113.758 124.868 108.679L120.985 105.415C120.068 105.928 120.845 107.115 117.723 106.75C119.375 109.391 117.369 108.539 116.791 109.05C119.232 111.058 119.083 113.427 113.064 116.618L112.986 119.363L102.348 130.788L102.115 133.533L100.484 132.347L97.3778 134.127L96.912 134.201L97.3002 135.24V138.059L93.1844 137.688L92.7963 137.317H91.5538L90.3112 137.095L93.0292 133.83L92.641 133.014L96.6013 131.011L97.1449 129.601L108.948 114.244L109.181 104.895C106.518 105.857 105.125 104.544 103.59 103.486C102.952 106.604 100.545 104.651 98.5427 103.857C98.8788 105.028 97.556 104.859 95.2035 103.857C95.1471 106.476 92.7179 104.276 91.1655 103.857C91.1655 105.9 88.7742 103.939 87.2828 103.486C86.869 104.869 85.9442 105.743 80.8374 102.447C80.3348 104.849 78.8658 104.711 77.576 105.044C78.9622 107.983 81.0263 110.892 78.0418 114.021L80.0609 117.063C80.1491 121.935 79.9939 126.807 83.0894 131.679L80.4491 130.566L80.2938 136.353L79.5949 136.428L79.7503 139.47L74.2367 138.95V138.357L73.4602 139.173L70.4291 138.823L74.7121 134.049L74.6023 133.367L77.2928 129.537L77.842 126.547L72.8452 112.54L71.088 104.88L69.88 101.943L65.9265 99.0046L63.1809 99.8441C62.3323 100.06 61.7836 101.041 60.5452 100.264C59.4837 101.806 58.4221 101.227 57.3605 100.579L51.7597 106.349L55.9328 111.176L54.1757 111.386C53.9962 111.916 53.9653 112.525 56.3721 114.428L58.898 114.219L60.6551 119.045L59.6668 119.15L60.7649 119.989L61.5336 123.137L56.2623 120.304L56.3721 120.934L51.2105 118.416L50.2221 113.799L48.465 110.651L36.7141 123.032C34.0321 125.627 30.82 123.014 32.9803 119.989L32.981 119.988Z" fill="white" stroke="black" stroke-width="0.9"/>
<path d="M56.1523 114.375L56.2079 120.775" stroke="black" stroke-width="0.9"/>
<path d="M56.0977 116.736C56.1708 116.718 56.2441 116.7 56.3173 116.683" stroke="black" stroke-width="0.9"/>
<path d="M59.7216 119.411L59.667 119.307" stroke="black" stroke-width="0.9"/>
<path d="M56.1523 116.631L59.9962 119.254" stroke="black" stroke-width="0.9"/>
<path d="M51.8703 106.243L49.3994 101.522L58.0752 91.8164" stroke="black" stroke-width="0.9"/>
<path d="M57.5801 89.1934C57.6919 90.7323 57.4683 92.271 60.5452 93.81C60.9661 96.0418 62.9494 97.7138 65.7067 99.1085" stroke="black" stroke-width="0.9"/>
<path d="M57.1963 100.735L61.3146 95.8555" stroke="black" stroke-width="0.9"/>
<path d="M65.1582 88.249C65.3552 91.1252 64.5991 95.8226 67.2447 94.0198C67.0133 99.2812 67.9547 101.797 70.6492 100.21" stroke="black" stroke-width="0.9"/>
<path d="M81.5217 87.9346C84.6565 90.4672 84.553 92.7476 82.2904 94.8595C82.2763 96.7684 82.9061 99.688 80.9726 98.5842C81.4389 100.279 81.5958 101.744 80.7529 102.466" stroke="black" stroke-width="0.9"/>
<path d="M63.0713 83.2651C67.8283 84.709 71.9488 83.7209 75.0966 79.0156" stroke="black" stroke-width="0.9"/>
<path d="M93.8213 99.6328C93.9312 99.7026 94.041 99.7727 94.1509 99.8427" stroke="black" stroke-width="0.9"/>
<path d="M97.9946 101.207C96.4362 101.845 94.9588 101.165 93.5469 99.4238" stroke="black" stroke-width="0.9"/>
<path d="M94.1782 102.191C92.6198 102.828 91.1424 102.149 89.7305 100.407" stroke="black" stroke-width="0.9"/>
<path d="M101.811 100.775C100.253 101.412 98.7752 100.732 97.3633 98.9912" stroke="black" stroke-width="0.9"/>
<path d="M106.369 99.4633C104.81 100.1 103.333 99.4209 101.921 97.6797" stroke="black" stroke-width="0.9"/>
<path d="M110.267 99.5162C108.709 100.153 107.231 99.4729 105.819 97.7324" stroke="black" stroke-width="0.9"/>
<path d="M105.05 94.8989C103.492 95.536 102.014 94.8565 100.603 93.1152" stroke="black" stroke-width="0.9"/>
<path d="M124.417 94.5127C124.486 96.1309 123.296 97.2081 121.091 97.85" stroke="black" stroke-width="0.9"/>
<path d="M130.351 91.5645C130.42 93.1826 129.229 94.2599 127.024 94.9019" stroke="black" stroke-width="0.9"/>
<path d="M113.973 89.9805C113.113 94.2824 112.359 98.3808 115.511 95.0167C115.338 101.657 116.365 100.789 117.487 99.3186C117.103 102.333 117.908 103.544 120.013 102.781C119.825 103.674 119.128 104.507 121.166 105.666" stroke="black" stroke-width="0.9"/>
<path d="M108.977 102.938C111.17 104.297 113.38 105.579 116.719 101.469" stroke="black" stroke-width="0.9"/>
<path d="M65.9283 56.4482C67.0756 57.8086 67.1596 59.1687 65.6176 60.5289L65.54 60.3805" stroke="black" stroke-width="0.9"/>
<path d="M68.2668 59.8066C68.8229 61.4708 68.3876 62.7683 66.4357 63.505L66.4189 63.3399" stroke="black" stroke-width="0.9"/>
<path d="M70.525 62.4043C70.8737 64.1192 70.2825 65.3591 68.2539 65.8729V65.707" stroke="black" stroke-width="0.9"/>
<path d="M62.7436 67.9844C63.8909 69.3446 63.9751 70.7049 62.433 72.065L62.3555 71.9166" stroke="black" stroke-width="0.9"/>
<path d="M58.318 72.6592C59.4652 74.0194 59.5493 75.3797 58.0073 76.7397L57.9297 76.5914" stroke="black" stroke-width="0.9"/>
<path d="M123.885 81.6494C123.438 83.3433 122.351 84.2257 120.286 83.867L120.363 83.7185" stroke="black" stroke-width="0.9"/>
<path d="M54.9785 42.5371C61.9841 44.6931 60.5386 46.1995 57.6576 46.1723" stroke="black" stroke-width="0.9"/>
<path d="M55.5996 48.1385C59.2448 49.284 60.7132 48.3499 62.3557 47.582" stroke="black" stroke-width="0.9"/>
<path d="M65.7725 45.319C68.3045 43.947 70.8211 42.8625 73.1497 45.2819C70.3701 40.884 68.0417 42.6949 65.7725 45.319V45.319Z" fill="black"/>
<path fill-rule="evenodd" clip-rule="evenodd" d="M71.2088 45.1333C71.2088 45.9118 70.4787 46.5429 69.578 46.5429C68.6774 46.5429 67.9473 45.9118 67.9473 45.1333C67.9473 44.3548 68.6774 43.7236 69.578 43.7236C70.4787 43.7236 71.2088 44.3548 71.2088 45.1333Z" fill="black"/>
<path d="M66.2559 54.6211C68.0511 56.7024 70.2488 58.1224 73.8609 57.2179" stroke="black" stroke-width="0.9"/>
<path d="M94.7822 51.5518C95.6561 52.6009 96.8015 53.6503 98.4062 54.6995" stroke="black" stroke-width="0.9"/>
<path d="M118.268 26.5488L112.832 32.1503" stroke="black" stroke-width="0.9"/>
<path d="M105.804 18.5361C103.601 21.6247 104.509 25.8264 116.714 34.8585" stroke="black" stroke-width="0.9"/>
<path d="M125.179 22.6904H122.267V25.2501H125.179V22.6904Z" fill="black"/>
<path d="M92.6799 29.59C92.4697 33.928 93.5642 36.8494 95.6308 38.7157L89.9619 44.9476C91.1204 46.9319 92.3248 48.5209 93.5341 50.0669L99.7076 43.167C106.138 49.4483 114.04 51.7106 121.878 54.1475C129.798 56.7109 133.658 59.9588 138.224 63.0876C135.288 59.8123 132.395 56.5785 129.605 53.4427C133.28 54.034 136.956 54.4475 140.632 55.6314C136.806 52.4606 133.054 49.2556 126.304 47.4332C118.405 44.9831 111.362 41.6339 105.532 37.0092L111.317 30.7028L107.279 26.6594L100.756 32.9657C98.6525 30.1465 98.4094 27.3271 98.7758 24.5078L92.6799 29.59Z" fill="#EA0D2C" stroke="black" stroke-width="0.9"/>
<path d="M48.4293 186.209C29.9915 176.503 26.3135 184.555 35.3492 191.075C34.9692 192.909 35.9438 194.867 37.5366 196.882C36.6437 193.852 36.9227 192.254 37.5728 191.111C43.2688 193.525 48.275 196.216 46.8028 201.502C42.0092 200.578 39.2151 199.206 29.9169 199.295C23.0034 199.573 22.1681 198.368 19.2637 197.668C20.511 198.753 20.8855 199.882 24.4211 200.85C21.4734 202.556 20.6095 203.888 19.8191 205.206C28.4661 199.53 37.402 201.26 46.3625 203.622L39.4995 210.342L38.0138 205.773L38.1138 211.687C34.5383 213.428 31.9905 219.526 41.013 217.307C48.7893 214.969 52.9225 213.037 56.0719 211.216C80.1443 221 103.851 235.14 130.182 217.993C150.434 198.531 172.636 195.475 197.291 213.072C211.971 221.804 240.291 229.155 259.533 211.367C281.104 194.006 303.53 198.552 326.17 208.589C343.734 214.584 359.284 211.487 374.331 206.122C383.201 200.379 381.271 194.724 371.401 197.372C354.64 201.965 338.174 202.338 322.525 190.975C302.764 179.249 283.84 181.623 265.516 194.108C248.039 206.836 228.18 213.486 198.226 194.376C169.049 171.647 146.784 185.223 129.768 197.883C115.443 207.213 100.484 214.328 78.3053 196.281C66.7156 188.307 53.9356 176.965 48.4289 186.209H48.4293Z" fill="black"/>
<path d="M49.3052 186.323C48.2882 187.449 50.1915 190.102 54.2052 189.887C56.7745 189.437 60.1303 191.001 61.1472 193.663C60.3856 191.544 59.0226 188.525 55.2629 188.561C52.9666 188.668 49.5605 188.935 49.3052 186.323V186.323Z" fill="white"/>
<path fill-rule="evenodd" clip-rule="evenodd" d="M57.5617 191.807C57.6158 193.194 56.7509 194.365 55.6299 194.423C54.5089 194.48 53.5563 193.402 53.5022 192.015C53.4481 190.628 54.313 189.457 55.434 189.4C56.555 189.342 57.5077 190.42 57.5617 191.807Z" fill="white"/>
</g>
<defs>
<clipPath id="clip0_1_9390">
<rect width="600" height="400" fill="white"/>
</clipPath>
</defs>
</svg>
