<svg width="600" height="400" viewBox="0 0 600 400" fill="none" xmlns="http://www.w3.org/2000/svg" xmlns:cgf="https://coding.garden/flags"><metadata id="cgf-metadata">

<cgf:flag>
  <cgf:name>Eemnes</cgf:name>
  <cgf:route>nl/ut/eemnes</cgf:route>
  <cgf:aspect-ratio>1.5</cgf:aspect-ratio>
</cgf:flag>

</metadata><g clip-path="url(#clip0_1_9481)">
<path d="M-2.57009 -0.240234L-3.42773 401.307H606.37V-0.240234H-2.57009V-0.240234Z" fill="white"/>
<path d="M-2.02224 267.54L-2.87988 401.825H606.918V267.54H-2.02224V267.54Z" fill="#FCDD04"/>
<path d="M-1.1238 0.876953L-1.98145 135.162H607.816V0.876953H-1.1238V0.876953Z" fill="#DA1019"/>
<path d="M-2.39912 1.47656L-2.82812 202.877H302.203V1.47656H-2.39912V1.47656Z" fill="#DA1019"/>
<path d="M90.1784 193.756C86.0483 191.953 87.9236 190.404 93.3783 189.008C91.6625 187.313 90.7594 185.645 95.2692 184.152C94.6165 178.719 95.1126 174.541 99.6327 174.764C92.4839 169.858 99.6027 165.597 114.905 161.707L131.777 155.34C134.355 152.603 133.563 149.288 132.65 145.952C125.641 143.248 125.274 139.498 127.268 135.377C126.54 133.93 124.375 132.424 128.286 131.169L127.559 126.745C126.113 125.332 125.337 123.936 127.961 122.624C127.464 113.064 133.373 104.207 148.633 96.376C160.145 102.427 171.508 108.594 172.7 122.7C174.55 124.369 175.695 125.904 172.803 126.668L172.906 131.704C178.17 134.914 174.763 134.779 173.625 135.519C174.105 138.419 173.077 141.216 170.54 143.912C167.575 146.013 167.754 150.058 169.717 155.205C173.095 159.941 178.621 162.877 187.613 162.912C189.652 162.138 191.148 163.381 192.652 164.59L198.618 168.711C203.513 170.966 204.047 173.81 202.937 176.875C205.676 180.652 207.997 184.478 205.611 188.855C209.797 190.374 212.211 194.081 206.64 194.73C170.336 195.119 135.428 195.904 90.1786 193.756H90.1784Z" fill="white" stroke="black" stroke-width="0.2"/>
<path d="M139.582 195.091C124.522 194.915 113.446 194.641 99.5847 194.1L90.0538 193.729L89.3866 193.409C87.9101 192.701 87.2691 191.831 87.6908 191.107C88.0293 190.526 89.2629 189.837 91.0544 189.228C91.9915 188.91 92.7333 188.616 92.703 188.574C91.5364 186.986 91.3878 186.48 91.8537 185.687C92.1892 185.116 92.6286 184.791 93.801 184.247L94.7785 183.793L94.7292 181.28C94.6786 178.697 94.8393 177.557 95.4146 176.415C95.9414 175.37 97.0544 174.589 98.3189 174.378L98.7638 174.303L98.0356 173.622C96.8788 172.54 96.5977 171.988 96.5831 170.767C96.5721 169.79 96.6107 169.664 97.1408 168.916C98.7135 166.703 103.626 164.37 111.152 162.259C112.541 161.87 114.007 161.456 114.41 161.339C114.814 161.223 118.804 159.744 123.277 158.053C132.288 154.646 131.778 154.903 132.496 153.394C133.244 151.821 133.261 149.829 132.548 146.994L132.278 145.917L130.947 145.287C129.088 144.407 127.615 143.263 126.808 142.071C125.666 140.384 125.541 138.691 126.385 136.337L126.809 135.154L126.284 134.31C125.582 133.179 125.497 132.44 126.008 131.905C126.362 131.535 127.182 131.057 127.655 130.944C127.802 130.909 127.768 130.383 127.51 128.764C127.193 126.778 127.135 126.591 126.662 126.065C126.383 125.754 126.067 125.22 125.959 124.878C125.698 124.049 125.928 123.522 126.876 122.772L127.607 122.194L127.608 120.589C127.61 116.898 128.897 113.151 131.425 109.483C134.29 105.324 138.303 101.845 144.47 98.1745C146.897 96.7297 148.425 95.9563 148.657 96.0553C148.774 96.1048 149.895 96.6929 151.149 97.3623C160.784 102.503 165.551 106.216 168.903 111.189C170.981 114.272 172.082 117.152 172.648 120.98C172.847 122.331 172.888 122.431 173.522 123.123C175.062 124.806 175.079 125.674 173.585 126.341L172.935 126.63L173.017 129.005L173.099 131.381L174.114 132.134C175.585 133.226 175.832 133.493 175.832 133.993C175.832 134.457 175.475 134.748 174.386 135.17L173.877 135.367V136.407C173.877 137.846 173.614 139.077 173.046 140.291C172.465 141.532 171.307 143.159 170.369 144.051C169.991 144.411 169.536 144.913 169.356 145.168C168.178 146.84 168.214 150.106 169.45 153.694C169.834 154.808 170.058 155.193 170.873 156.142C173.534 159.239 177.191 161.174 182.005 162.029C183.909 162.368 186.913 162.56 187.695 162.393C189.468 162.015 189.886 162.201 194.405 165.376C196.511 166.855 198.674 168.304 199.211 168.597C201.267 169.716 202.399 170.733 203.066 172.06C203.508 172.939 203.63 174.648 203.33 175.755L203.11 176.566L204.028 177.956C205.741 180.55 206.383 182.044 206.626 184.006C206.824 185.596 206.567 187.089 205.876 188.369C205.816 188.481 206.035 188.641 206.53 188.848C207.469 189.239 209.102 190.498 209.588 191.204C209.849 191.585 209.959 191.953 209.961 192.457C209.964 193.082 209.902 193.224 209.463 193.611C208.845 194.154 207.782 194.549 206.706 194.636C203.937 194.86 150.728 195.221 139.582 195.091H139.582ZM195.382 194.419C203.981 194.298 207.03 194.218 207.512 194.103C207.865 194.019 208.442 193.755 208.794 193.517C209.429 193.087 209.432 193.082 209.365 192.329C209.319 191.816 209.192 191.469 208.971 191.252C208.535 190.823 207.139 190.342 205.646 190.106C203.624 189.786 197.927 189.861 194.812 190.249C194.442 190.295 194.524 190.241 195.155 190.026C197.231 189.317 198.315 187.835 198.315 185.702C198.315 182.466 195.524 178.895 192.839 178.695C192.411 178.663 191.91 178.888 189.42 180.227C186.003 182.067 183.177 183.434 181.121 184.243C176.884 185.909 171.32 187.256 166.138 187.869C164.823 188.025 164.032 188.324 163.69 188.794C163.337 189.281 163.394 189.578 163.913 189.947C164.623 190.452 165.458 190.55 169.152 190.566C172.88 190.583 174.249 190.447 176.773 189.814C180.292 188.932 182.111 188.003 187.442 184.364C189.689 182.83 190.572 182.297 190.772 182.351C190.99 182.411 190.818 182.591 189.904 183.261C188.126 184.564 186.54 186.102 185.928 187.118C185.565 187.719 185.513 188.592 185.814 189.015C186.256 189.636 188.168 190.342 190.006 190.562C190.23 190.589 189.24 190.622 187.807 190.636C186.373 190.65 182.341 190.718 178.846 190.788C169.226 190.98 165.441 190.96 164.528 190.712C163.064 190.314 162.536 189.363 163.295 188.49C163.788 187.922 164.539 187.651 166.157 187.455C168.328 187.192 172.012 186.52 174.133 186C178.898 184.832 182.76 183.295 187.977 180.489C194.697 176.875 194.369 177.113 194.523 175.755C194.621 174.899 194.172 173.867 193.293 172.924C192.53 172.105 190.001 170.315 188.397 169.458C186.943 168.682 186.808 168.465 187.626 168.222C188.51 167.959 189.586 168.008 190.719 168.362C193.232 169.148 194.764 170.138 196.818 172.304C198.038 173.591 198.192 173.71 198.522 173.619C198.722 173.564 199.28 173.408 199.762 173.271C200.244 173.135 200.666 173.043 200.7 173.067C200.734 173.091 199.509 174.147 197.978 175.413L195.195 177.715L195.745 177.851C198.601 178.554 199.788 179.987 200.039 183.033C200.132 184.177 199.938 187.059 199.688 188.22L199.599 188.635L202.378 188.626L205.157 188.615L205.472 187.92C206.774 185.042 206.195 182.145 203.526 178.177L202.52 176.682L202.691 175.986C203.019 174.649 203.046 174.241 202.868 173.327C202.526 171.582 201.422 170.348 199.024 169.031C197.669 168.288 197.283 168.155 192.421 166.751L187.257 165.261L184.273 167.379C179.984 170.426 176.306 172.378 171.583 174.115C165.1 176.5 159.033 177.564 151.883 177.569C145.351 177.572 139.794 176.656 133.88 174.599C130.69 173.489 128.934 172.728 126.307 171.315C122.32 169.171 117.421 165.396 114.817 162.46C114.549 162.158 114.234 161.91 114.117 161.91C113.703 161.909 108.918 163.325 106.507 164.161C101.882 165.765 98.7395 167.53 97.6132 169.157C96.5365 170.712 97.0348 172.275 99.1319 173.919L100.143 174.712L99.0857 174.777C97.8472 174.853 97.1364 175.116 96.5541 175.714C95.5465 176.748 95.0769 179.017 95.2649 181.943C95.3279 182.925 95.4154 183.796 95.4595 183.877C95.5079 183.967 95.2159 184.141 94.717 184.321C92.1063 185.262 91.5727 186.483 93.0434 188.151L93.6844 188.878L92.5209 189.195C90.9433 189.624 89.3093 190.316 88.6911 190.816C87.8111 191.529 88.0344 192.144 89.4665 192.95L90.0954 193.304L98.5466 193.65C108.738 194.067 117.187 194.32 127.852 194.526C137.886 194.72 178.621 194.656 195.383 194.419L195.382 194.419ZM119.868 191.332C117.605 191.199 117.275 191.136 118.743 191.119C120.05 191.105 121.951 190.791 123.14 190.395C125.027 189.767 126.056 188.559 125.663 187.43C125.004 185.532 121.932 183.874 115.493 181.94C111.257 180.667 107.569 179.188 104.228 177.42C102.771 176.65 100.073 175.029 100.073 174.923C100.073 174.893 100.752 175.203 101.58 175.613C106.332 177.96 112.861 180.204 116.781 180.837C122.093 181.696 127.072 183.509 130.145 185.705C131.852 186.924 132.495 187.712 132.495 188.586C132.495 189.903 131.126 190.691 128.014 191.165C126.588 191.383 122.238 191.472 119.868 191.332V191.332ZM168.206 180.997C167.832 180.025 167.58 179.217 167.646 179.2C168.292 179.036 175.833 176.074 175.828 175.986C175.825 175.923 175.238 175.688 174.526 175.465C173.814 175.242 173.23 175.03 173.228 174.994C173.227 174.958 174.059 174.373 175.079 173.695L176.932 172.462L177.299 173.789C177.501 174.52 177.686 175.117 177.711 175.117C177.736 175.117 178.696 174.204 179.845 173.089L181.935 171.06L182.148 171.495C182.265 171.735 182.606 172.488 182.906 173.168L183.451 174.405L181.027 175.311C179.694 175.81 178.603 176.255 178.603 176.299C178.602 176.344 179.335 176.803 180.231 177.319C181.127 177.835 181.86 178.279 181.86 178.306C181.86 178.44 178.876 179.761 178.764 179.676C178.692 179.622 178.326 179.057 177.95 178.419C177.574 177.782 177.216 177.223 177.155 177.176C177.094 177.13 175.251 178.368 173.059 179.928C170.867 181.488 169.031 182.764 168.979 182.764C168.928 182.764 168.58 181.969 168.206 180.997H168.206ZM124.352 178.19C122.16 176.63 120.316 175.392 120.254 175.438C120.191 175.485 119.837 176.044 119.466 176.682C119.095 177.319 118.728 177.886 118.65 177.941C118.539 178.021 116.405 177.077 115.661 176.619C115.587 176.574 116.265 176.107 117.168 175.582C118.071 175.057 118.809 174.593 118.809 174.552C118.809 174.51 117.72 174.064 116.39 173.562L113.97 172.649L114.696 171.016C115.096 170.117 115.438 169.37 115.458 169.355C115.477 169.34 116.441 170.243 117.599 171.362L119.705 173.397L119.893 172.78C119.997 172.441 120.18 171.833 120.301 171.429L120.52 170.695L122.394 171.969L124.267 173.244L122.818 173.724C122.022 173.988 121.435 174.246 121.515 174.299C121.595 174.351 123.493 175.084 125.734 175.929C127.974 176.773 129.826 177.476 129.851 177.49C129.927 177.535 128.521 181.026 128.427 181.026C128.378 181.026 126.544 179.75 124.352 178.19H124.352ZM157.816 176.916C160.459 176.617 161.629 176.392 163.525 175.815C167.876 174.489 171.41 173.113 173.866 171.786C176.516 170.354 179.625 167.948 180.415 166.718C181.744 164.646 178.589 163.263 174.731 164.227C174.228 164.353 173.53 164.591 173.18 164.755C172.83 164.92 172.519 165.038 172.489 165.016C172.459 164.995 172.573 164.691 172.743 164.341C173.525 162.731 172.887 161.96 171.018 162.258C170.021 162.417 168.263 163.044 166.708 163.795L165.486 164.386L166.279 163.758C167.817 162.538 168.412 161.4 167.756 160.933C167.386 160.67 166.295 160.71 165.214 161.027C163.854 161.424 162.372 162.226 160.801 163.412L159.409 164.464L159.975 163.533C160.613 162.484 160.809 161.542 160.482 161.098C159.957 160.387 157.813 160.148 156.892 160.699C155.395 161.595 153.116 162.056 150.172 162.056C148.403 162.057 147.785 162.006 146.425 161.751C144.596 161.409 141.978 160.53 140.665 159.819C140.185 159.559 139.764 159.366 139.73 159.39C139.696 159.415 140.029 159.826 140.471 160.304C141.466 161.382 143.271 162.608 144.524 163.059C146.397 163.731 147.202 163.822 151.109 163.809C153.857 163.8 154.652 163.829 154.652 163.942C154.652 164.15 153.067 164.259 150.172 164.251C147.37 164.243 145.867 164.027 144.174 163.389C142.71 162.838 140.901 161.555 139.785 160.277C139.27 159.687 138.849 159.278 138.85 159.369C138.853 159.696 139.666 161.799 140.307 163.137C140.666 163.888 140.937 164.518 140.908 164.539C140.879 164.559 139.859 163.415 138.641 161.997C136.022 158.948 135.37 158.434 134.118 158.434C133.389 158.434 132.582 159.031 132.438 159.677C132.247 160.536 132.582 161.147 134.485 163.406C135.483 164.59 136.404 165.689 136.532 165.849C136.859 166.254 135.614 165.268 133.357 163.332C131.636 161.856 131.325 161.645 130.377 161.31C129.196 160.894 127.596 160.739 126.964 160.979C126.401 161.193 126.097 161.826 126.299 162.36C126.683 163.373 127.197 163.664 133.281 166.306C136.427 167.673 138.975 168.81 138.942 168.833C138.909 168.856 138.151 168.614 137.256 168.295C135.112 167.53 130.942 166.299 128.952 165.844C124.951 164.93 122.634 164.954 122.295 165.913C121.929 166.95 124.61 169.908 127.118 171.236C133.125 174.415 139.895 176.351 147.381 177.03C149.688 177.239 155.512 177.175 157.816 176.915L157.816 176.916ZM153.512 175.803C153.512 175.639 153.7 175.582 154.448 175.521C161.385 174.956 167.865 172.879 175.463 168.784C176.568 168.189 177.536 167.702 177.615 167.702C178.117 167.702 177.708 168.084 176.495 168.749C168.656 173.046 162.328 175.147 155.1 175.853C153.606 175.999 153.512 175.996 153.512 175.803V175.803ZM156.682 173.256C156.521 173.071 156.614 173.042 157.99 172.855C162.786 172.202 167.16 170.551 172.39 167.419C174.473 166.171 174.524 166.147 174.736 166.298C174.953 166.452 175.043 166.385 172.899 167.663C167.539 170.857 162.769 172.668 158.166 173.256C156.962 173.41 156.815 173.41 156.682 173.256V173.256ZM149.927 170.406C147.47 170.327 142.596 169.564 142.596 169.258C142.596 168.992 142.805 169.001 144.439 169.337C146.918 169.847 149.449 170.06 152.045 169.976C156.306 169.839 159.68 169.161 165.782 167.218C167.681 166.613 168.407 166.431 168.541 166.526C168.641 166.598 168.678 166.688 168.623 166.727C168.397 166.888 162.979 168.545 161.075 169.036C157.063 170.07 153.411 170.519 149.927 170.406L149.927 170.406ZM147.752 167.059C145.759 166.778 143.198 166.125 143.297 165.923C143.389 165.735 143.818 165.78 145.121 166.115C148.82 167.068 153.024 167.077 156.798 166.139C157.869 165.873 158.073 165.873 158.073 166.137C158.073 166.305 155.808 166.835 154.108 167.066C152.54 167.279 149.28 167.275 147.752 167.06V167.059ZM193.511 165.315C191.825 164.129 190.218 163.061 189.94 162.94C189.393 162.703 188.133 162.646 187.725 162.84C187.508 162.944 187.508 162.968 187.725 163.066C187.859 163.126 189.876 164.139 192.205 165.318C194.535 166.497 196.472 167.463 196.509 167.466C196.546 167.47 195.197 166.501 193.511 165.315V165.315ZM153.756 161.355C157.378 160.54 158.947 158.873 157.702 157.166C157.335 156.663 157.306 156.56 157.515 156.503C157.821 156.419 158.169 156.726 158.423 157.304C158.528 157.543 158.664 157.739 158.725 157.739C158.849 157.739 159.136 157.094 159.298 156.454C159.442 155.887 159.117 155.103 158.581 154.722C157.199 153.739 154.484 154.465 151.524 156.611C150.252 157.533 150.123 157.598 150.262 157.254C150.347 157.044 150.416 156.595 150.416 156.257C150.416 155.201 149.556 154.845 146.995 154.841C145.784 154.84 145.49 154.796 144.65 154.493C142.952 153.881 141.337 154.093 140.062 155.096C139.358 155.65 138.754 156.558 138.64 157.236C138.532 157.873 138.861 158.244 140.265 159.069C142.577 160.426 145.065 161.214 148.298 161.612C149.295 161.734 152.806 161.569 153.756 161.355H153.756ZM154.74 153.794C154.906 153.663 155.748 153.198 156.612 152.76C159.324 151.383 160.608 150.111 161.326 148.09C161.67 147.124 161.983 145.265 161.983 144.198C161.983 143.632 162.037 143.518 162.372 143.37C162.984 143.099 164.36 141.883 164.906 141.13C165.797 139.903 165.484 139.201 164.048 139.201C163.535 139.201 163.271 139.293 162.643 139.693C162.218 139.964 161.547 140.314 161.153 140.47L160.436 140.754L161.217 140.122C161.647 139.775 162.27 139.102 162.602 138.628C163.139 137.859 163.205 137.669 163.202 136.89C163.199 135.836 162.836 135.191 161.794 134.383C160.963 133.737 158.938 132.763 158.095 132.602C157.769 132.54 156.136 132.43 154.465 132.358C149.49 132.145 141.676 132.532 139.318 133.11C136.869 133.71 134.09 135.199 133.34 136.312C132.812 137.096 132.621 137.99 132.822 138.742C133.127 139.885 134.369 141.493 135.855 142.668L136.576 143.239L136.465 144.985L136.355 146.731L136.941 147.572C138.077 149.202 140.518 150.907 145.04 153.23L146.262 153.857L148.624 153.921C153.913 154.065 154.409 154.054 154.74 153.794L154.74 153.794ZM147.383 150.902C147.707 150.647 147.972 150.388 147.972 150.327C147.972 150.265 148.375 150.079 148.868 149.913C149.498 149.701 149.764 149.545 149.764 149.388C149.764 149.068 149.611 149.073 144.877 149.569L144.307 149.629L145.04 149.353C145.443 149.2 146.213 149.014 146.75 148.938C147.443 148.841 147.828 148.716 148.072 148.509L148.415 148.217L150.855 148.326C153.587 148.447 154.19 148.589 155.487 149.413L156.2 149.866L155.548 149.678C153.853 149.189 153.008 149.027 151.842 148.966C151.147 148.93 150.579 148.936 150.579 148.981C150.579 149.193 151.097 149.736 151.354 149.794C151.514 149.83 151.781 150.04 151.948 150.26C152.115 150.48 152.391 150.768 152.562 150.898C152.87 151.133 152.869 151.135 152.41 151.135C152.097 151.135 151.773 151.007 151.414 150.744C151.019 150.455 150.689 150.334 150.142 150.281C149.435 150.212 149.361 150.234 148.429 150.788C147.893 151.106 147.306 151.367 147.125 151.367C146.835 151.367 146.868 151.309 147.383 150.903L147.383 150.902ZM149.136 146.029C148.925 145.968 148.547 145.815 148.297 145.688C148.046 145.561 147.669 145.456 147.458 145.455C146.878 145.451 145.741 145.045 145.532 144.766C145.282 144.435 145.381 143.893 145.691 143.893C145.842 143.893 145.957 144.027 145.991 144.241C146.07 144.74 146.256 144.849 147.292 145.002C147.8 145.077 148.386 145.233 148.593 145.349C149.322 145.757 150.041 145.85 150.824 145.637C151.213 145.532 151.62 145.369 151.728 145.276C151.836 145.184 152.32 145.026 152.802 144.926C154.32 144.612 154.456 143.824 153.269 142.234L152.697 141.468V139.49C152.697 137.669 152.726 137.472 153.064 136.998C153.598 136.248 154.242 136.026 155.863 136.03C156.586 136.032 157.911 136.12 158.807 136.225C159.703 136.33 160.655 136.429 160.923 136.447C161.235 136.467 161.43 136.551 161.465 136.681C161.535 136.945 161.259 136.942 158.807 136.655C155.382 136.253 154.137 136.367 153.579 137.135C153.364 137.431 153.32 137.858 153.337 139.469L153.359 141.441L153.952 142.295C155.097 143.941 154.819 144.934 153.115 145.287C152.62 145.389 152.172 145.522 152.12 145.583C152.067 145.643 151.739 145.796 151.39 145.923C150.72 146.166 149.775 146.21 149.138 146.029L149.136 146.029ZM158.476 144.154L158.586 142.619L157.819 142.003C157.218 141.521 157.095 141.357 157.251 141.25C157.407 141.143 157.622 141.248 158.223 141.721L158.994 142.329L159.495 141.894C159.886 141.556 160.04 141.491 160.197 141.598C160.355 141.706 160.287 141.835 159.873 142.206C159.584 142.466 159.281 142.649 159.199 142.613C159.113 142.574 159.051 143.201 159.051 144.118C159.051 145.637 159.04 145.689 158.708 145.689C158.372 145.689 158.368 145.662 158.476 144.154H158.476ZM157.037 140.184C156.713 140.105 156.259 139.952 156.028 139.845C155.551 139.623 154.648 138.667 154.66 138.396C154.662 138.297 154.84 138.451 155.051 138.738C155.262 139.024 155.615 139.378 155.835 139.524L156.235 139.79L156.159 139.229C156.094 138.749 156.145 138.617 156.514 138.305C156.75 138.105 157.106 137.915 157.305 137.882C157.503 137.85 157.232 137.848 156.702 137.878C156.171 137.908 155.293 138.061 154.751 138.217C154.082 138.409 153.711 138.462 153.598 138.382C153.392 138.235 153.623 138.125 154.815 137.798C156.055 137.459 158.197 137.378 159.377 137.625C160.517 137.864 161.983 138.459 161.983 138.682C161.983 138.931 161.802 138.898 160.79 138.465C159.914 138.09 158.012 137.7 157.798 137.852C157.74 137.893 157.834 137.928 158.005 137.93C158.925 137.941 159.55 139.001 159.038 139.681C158.736 140.082 159.421 139.742 160.176 139.116C160.542 138.812 160.841 138.62 160.842 138.688C160.842 138.756 160.579 139.031 160.256 139.299C159.293 140.099 158.067 140.436 157.037 140.184H157.037ZM142.374 139.963C141.57 139.753 140.952 139.33 140.493 138.676C140.293 138.391 140.1 138.158 140.065 138.158C140.029 138.158 139.737 138.248 139.415 138.357C138.906 138.529 138.809 138.533 138.677 138.386C138.558 138.253 138.726 138.15 139.461 137.905C142.193 136.997 144.993 137.209 147.321 138.499C147.626 138.669 147.681 138.758 147.542 138.858C147.401 138.958 147.249 138.942 146.928 138.792C146.502 138.593 146.5 138.594 145.833 139.133C144.759 140.001 143.589 140.282 142.374 139.963L142.374 139.963ZM144.936 139.535C145.584 139.23 146.18 138.709 146.18 138.448C146.18 138.36 144.866 137.933 144.586 137.929C144.429 137.927 144.419 137.983 144.545 138.151C144.858 138.566 144.747 139.258 144.314 139.59C143.785 139.996 143.998 139.977 144.936 139.535H144.936ZM141.956 139.475C141.556 139.114 141.523 138.625 141.867 138.153C142.107 137.822 142.103 137.811 141.745 137.82C141.541 137.824 141.136 137.89 140.845 137.965L140.316 138.101L140.657 138.591C140.952 139.015 141.949 139.78 142.206 139.78C142.254 139.78 142.142 139.643 141.956 139.475H141.956ZM137.819 137.071C137.723 136.893 139.376 136.305 140.628 136.072C141.846 135.845 143.986 135.895 145.489 136.186C146.913 136.462 147.049 136.518 146.846 136.752C146.746 136.866 146.492 136.843 145.676 136.646C143.561 136.136 141.007 136.248 138.945 136.942C137.94 137.28 137.933 137.281 137.819 137.071V137.071ZM174.248 134.737C175.699 134.16 175.674 133.923 174.025 132.668C173.058 131.931 172.637 131.709 171.458 131.313C168.609 130.357 164.923 129.656 161.047 129.334C159.59 129.213 159.377 129.168 159.377 128.977C159.377 128.725 159.357 128.724 163.442 129.196C166.326 129.53 169.123 130.098 171.066 130.744L172.41 131.192V128.895V126.598L171.128 126.124C167.445 124.761 161.949 123.881 155.411 123.606C154.248 123.557 153.46 123.474 153.427 123.398C153.397 123.328 153.141 117.744 152.859 110.989C152.576 104.235 152.319 98.6475 152.287 98.5733C152.255 98.499 151.473 98.0346 150.549 97.5412C149.624 97.0478 148.786 96.5995 148.686 96.545C148.546 96.4687 146.441 97.4837 145.394 98.1326C145.333 98.1706 145.801 118.209 145.935 121.305L146.026 123.395L143.7 123.66C140.752 123.995 135.901 124.663 134.206 124.968C131.914 125.379 128.385 126.238 127.797 126.527C127.711 126.569 128.3 130.256 128.414 130.386C128.477 130.46 129.059 130.379 129.975 130.17C130.779 129.986 132.022 129.751 132.739 129.646C134.346 129.411 134.895 129.192 135.315 128.616C136.036 127.628 135.757 126.539 134.66 126.052C134.142 125.822 133.991 125.602 134.267 125.481C134.465 125.394 135.408 125.867 135.815 126.257C136.055 126.488 136.167 126.801 136.208 127.358C136.257 128.011 136.2 128.228 135.859 128.701L135.452 129.265L136.213 129.197C136.632 129.16 138.038 129.07 139.338 128.997C140.637 128.923 141.795 128.844 141.912 128.82C142.042 128.793 141.892 128.632 141.519 128.4C140.284 127.628 139.921 126.202 140.715 125.238C141.091 124.782 142.019 124.318 142.304 124.444C142.574 124.563 142.415 124.784 141.954 124.929C141.404 125.102 140.804 125.879 140.804 126.418C140.804 127.504 141.884 128.393 143.457 128.603C143.79 128.647 144.062 128.743 144.062 128.816C144.062 129.068 143.158 129.214 141.134 129.288C138.912 129.369 135.514 129.65 134.613 129.827C134.299 129.889 133.444 130.015 132.711 130.108C129.03 130.577 126.144 131.738 126.142 132.752C126.141 132.937 127.042 134.667 127.196 134.776C127.228 134.799 128.268 134.582 129.508 134.295C136.958 132.566 144.289 131.815 152.453 131.943C159.976 132.061 166.029 132.858 171.352 134.429C172.427 134.747 173.352 135.012 173.408 135.018C173.464 135.025 173.842 134.898 174.248 134.737H174.248ZM146.75 128.786C145.428 128.35 144.714 127.502 144.714 126.368C144.714 125.829 144.804 125.593 145.155 125.208C145.577 124.746 146.43 124.324 146.703 124.444C146.92 124.539 146.846 124.835 146.604 124.835C146.236 124.835 145.391 125.606 145.274 126.049C144.966 127.217 146.143 128.4 147.813 128.6C148.211 128.648 148.461 128.741 148.461 128.842C148.461 129.077 147.542 129.046 146.75 128.786H146.75ZM152.698 128.513C152.697 128.37 152.826 128.31 153.134 128.31C153.375 128.31 153.893 128.2 154.285 128.065C156.175 127.414 156.517 125.396 154.862 124.661C154.276 124.401 154.164 124.139 154.64 124.139C155.082 124.139 155.959 124.696 156.222 125.144C156.753 126.048 156.32 127.535 155.371 128.066C154.858 128.353 154.875 128.426 155.456 128.426C157.684 128.426 159.189 126.331 157.746 125.239C157.458 125.021 157.444 124.966 157.646 124.846C158.018 124.627 158.755 125.394 158.85 126.1C158.951 126.847 158.656 127.432 157.876 128.034C157.039 128.679 156.545 128.782 154.443 128.746C152.907 128.719 152.699 128.692 152.698 128.513H152.698ZM163.776 128.31C163.776 128.138 163.884 128.079 164.195 128.079C164.666 128.079 165.568 127.51 165.568 127.213C165.568 127.11 165.384 126.895 165.16 126.736C164.741 126.437 164.619 126.109 164.929 126.109C165.025 126.109 165.318 126.261 165.58 126.448C166.493 127.097 165.979 128.154 164.621 128.422C163.812 128.582 163.776 128.577 163.776 128.31L163.776 128.31ZM149.825 127.179C149.265 127.115 148.722 126.617 148.722 126.167C148.722 125.264 150.218 124.841 151.127 125.488C152.122 126.195 151.239 127.341 149.825 127.179ZM148.624 115.74C148.624 115.637 148.775 115.565 148.991 115.563C149.587 115.559 150.642 115.163 151.111 114.766C151.744 114.231 151.97 113.55 151.729 112.901C151.526 112.351 151.054 111.908 150.553 111.795C150.259 111.728 150.119 111.279 150.392 111.279C150.738 111.279 151.667 111.85 151.999 112.267C152.704 113.152 152.38 114.516 151.292 115.241C150.424 115.82 148.624 116.156 148.624 115.74H148.624ZM148.868 112.998C147.233 112.357 146.654 111.079 147.558 110.107C147.993 109.64 148.899 109.158 149.142 109.264C149.408 109.381 149.264 109.603 148.8 109.791C148.184 110.04 147.8 110.467 147.699 111.014C147.603 111.539 148.074 112.108 148.954 112.53C149.741 112.907 149.668 113.311 148.868 112.998H148.868ZM148.023 107.678C147.298 107.348 146.8 106.573 146.863 105.871C146.899 105.47 146.987 105.304 147.175 105.279C147.39 105.25 147.437 105.358 147.437 105.875C147.437 106.724 147.917 107.284 148.807 107.474C149.377 107.595 149.559 107.581 150.285 107.363C150.74 107.226 151.176 107.142 151.253 107.176C151.549 107.306 151.368 107.475 150.701 107.69C149.786 107.986 148.687 107.981 148.023 107.679L148.023 107.678ZM149.717 106.036C149.676 105.957 149.83 105.748 150.059 105.573C150.382 105.327 150.492 105.102 150.545 104.58C150.606 103.988 150.565 103.864 150.205 103.567C149.826 103.254 149.709 103.229 148.632 103.22C147.557 103.212 147.431 103.185 146.965 102.853C145.805 102.028 146.49 100.307 148.048 100.134C148.572 100.076 148.529 100.435 147.994 100.579C146.99 100.848 146.594 101.982 147.314 102.526C147.613 102.753 147.869 102.804 148.898 102.841C150.035 102.882 150.158 102.912 150.587 103.253C150.842 103.456 151.102 103.818 151.165 104.057C151.318 104.635 150.993 105.464 150.458 105.863C149.983 106.215 149.828 106.252 149.717 106.036L149.717 106.036ZM131.222 134.372C131.104 134.338 130.964 134.342 130.91 134.381C130.855 134.419 130.952 134.447 131.124 134.442C131.313 134.436 131.352 134.409 131.222 134.372L131.222 134.372ZM133.798 133.936C134.918 133.719 135.725 133.537 135.59 133.533C135.304 133.524 131.66 134.195 131.542 134.278C131.389 134.387 131.777 134.328 133.798 133.936V133.936ZM136.272 133.445C136.155 133.411 136.014 133.415 135.96 133.454C135.906 133.492 136.002 133.52 136.174 133.515C136.364 133.509 136.403 133.482 136.273 133.445L136.272 133.445ZM128.605 125.834C131.458 124.938 136.414 124.09 143.64 123.261L145.417 123.057L145.315 119.688C145.259 117.835 145.124 112.343 145.014 107.485C144.877 101.433 144.76 98.6504 144.642 98.6505C144.547 98.6506 143.945 99.0025 143.304 99.4325L142.138 100.214L142.273 105.023C142.492 112.754 142.474 115.682 142.21 115.682C141.975 115.682 141.923 114.631 141.68 104.82C141.622 102.51 141.52 100.62 141.452 100.62C141.309 100.62 138.511 102.757 137.203 103.865C131.394 108.784 128.1 115.06 128.096 121.214C128.096 122.275 128.11 122.286 129.237 122.051C131.718 121.533 136.636 121.012 139.052 121.011C140.066 121.011 140.315 121.045 140.315 121.185C140.315 121.281 140.187 121.36 140.03 121.362C138.953 121.375 135.384 121.608 133.961 121.759C131.227 122.048 127.796 122.691 127.327 123.003C126.736 123.396 126.466 123.832 126.468 124.394C126.47 124.971 127.153 126.109 127.498 126.109C127.625 126.109 128.123 125.985 128.605 125.834L128.605 125.834ZM135.916 114.871V112.785H135.183C134.64 112.785 134.45 112.74 134.45 112.611C134.45 112.483 134.64 112.438 135.183 112.438H135.916V111.444C135.916 110.561 135.947 110.455 136.201 110.49C136.44 110.522 136.494 110.682 136.534 111.483L136.581 112.438H137.145C137.537 112.438 137.708 112.49 137.708 112.611C137.708 112.733 137.536 112.785 137.138 112.785H136.568V114.871C136.568 116.879 136.557 116.956 136.242 116.956C135.928 116.956 135.916 116.879 135.916 114.871V114.871ZM162.756 123.202C163.965 122.875 163.002 122.223 160.456 121.644L159.335 121.389L160.25 121.384C161.904 121.373 162.816 120.985 163.36 120.059C164.345 118.381 162.297 114.866 159.425 113.306L158.665 112.894L159.574 112.97C160.74 113.067 161.995 112.857 162.493 112.48C163.606 111.637 162.167 109.812 158.168 106.994L156.444 105.78L156.447 106.705C156.449 107.213 156.557 110.236 156.687 113.422C156.991 120.852 156.991 120.895 156.701 120.895C156.359 120.895 156.329 120.454 155.961 109.964C155.778 104.748 155.588 100.435 155.54 100.38C155.401 100.219 153.01 98.8522 152.949 98.8982C152.847 98.9747 153.951 122.985 154.06 123.062C154.118 123.104 155.393 123.202 156.893 123.281C159.624 123.425 162.051 123.392 162.756 123.202L162.756 123.202ZM172.185 122.863C172.486 122.649 171.753 118.729 171.018 116.614C169.356 111.837 166.454 108.056 161.585 104.327C160.386 103.409 156.574 100.852 156.404 100.852C156.337 100.852 156.281 101.258 156.281 101.755V102.658L156.948 103.116C159.173 104.644 162.495 107.636 164.041 109.504C166.64 112.644 168.28 116.356 168.744 120.142C168.884 121.284 169.322 122.043 170.149 122.574C170.639 122.889 170.922 122.981 171.401 122.981C171.741 122.981 172.094 122.928 172.185 122.863L172.185 122.863Z" fill="black" stroke="black" stroke-width="0.2"/>
<path d="M33.3576 96.7782C29.5308 95.1005 31.2684 93.6598 36.3225 92.3603C34.7327 90.7837 33.8959 89.2316 38.0745 87.8419C37.4698 82.7864 37.9294 78.8995 42.1176 79.1064C35.4938 74.5414 42.0898 70.577 56.2682 66.957L71.9013 61.033C74.2903 58.4856 73.5559 55.4011 72.7099 52.2975C66.2163 49.7811 65.8759 46.2922 67.7235 42.4575C67.0487 41.1113 65.0429 39.7099 68.6669 38.5416L67.993 34.4249C66.6534 33.1105 65.9339 31.8115 68.3652 30.5907C67.9049 21.6956 73.3796 13.4541 87.5195 6.16699C98.1858 11.7979 108.715 17.5362 109.819 30.6617C111.533 32.2147 112.594 33.6426 109.914 34.3536L110.009 39.0396C114.887 42.0266 111.731 41.9008 110.676 42.5895C111.121 45.2875 110.168 47.8908 107.818 50.3995C105.07 52.3541 105.237 56.1178 107.055 60.9073C110.185 65.3138 115.305 68.0457 123.637 68.0782C125.526 67.3586 126.912 68.515 128.306 69.6402L133.833 73.4742C138.369 75.5728 138.864 78.2188 137.836 81.0711C140.373 84.5854 142.523 88.1452 140.313 92.218C144.191 93.632 146.428 97.0813 141.266 97.6849C107.628 98.0469 75.2838 98.7773 33.3578 96.7782H33.3576Z" fill="white" stroke="black" stroke-width="0.2"/>
<path d="M79.1328 98.0212C65.1787 97.858 54.9162 97.6028 42.0729 97.0997L33.242 96.7537L32.6238 96.4562C31.2558 95.7977 30.6618 94.988 31.0526 94.3142C31.3662 93.7736 32.5092 93.1325 34.1691 92.5662C35.0374 92.27 35.7247 91.9961 35.6966 91.9577C34.6158 90.4794 34.478 90.0092 34.9097 89.2714C35.2206 88.74 35.6277 88.4375 36.714 87.9308L37.6197 87.5082L37.5741 85.1701C37.5271 82.7664 37.6761 81.7057 38.2091 80.6436C38.6972 79.6713 39.7285 78.9447 40.9001 78.7477L41.3123 78.6783L40.6376 78.0447C39.5658 77.0382 39.3053 76.5241 39.2918 75.388C39.2817 74.479 39.3174 74.3616 39.8086 73.6659C41.2657 71.6069 45.8172 69.4352 52.7908 67.4715C54.0778 67.1091 55.4364 66.724 55.81 66.6157C56.1836 66.5075 59.8806 65.1312 64.0256 63.5574C72.3747 60.3874 71.9025 60.6271 72.5677 59.2223C73.2607 57.7588 73.2757 55.9057 72.6159 53.2677L72.3652 52.2649L71.1319 51.6789C69.4094 50.8604 68.0449 49.7958 67.2972 48.6868C66.2387 47.1171 66.1228 45.5417 66.9048 43.3514L67.298 42.25L66.812 41.4648C66.1608 40.4128 66.082 39.7246 66.5558 39.2268C66.8834 38.8827 67.6433 38.4377 68.0816 38.3334C68.2185 38.3008 68.1861 37.8112 67.9472 36.3047C67.6541 34.4564 67.5998 34.2827 67.1621 33.7932C66.9034 33.504 66.6102 33.0068 66.5104 32.6884C66.2689 31.9174 66.4816 31.4266 67.3599 30.7289L68.0374 30.1907L68.0384 28.6973C68.0398 25.2631 69.2329 21.777 71.5747 18.3637C74.2299 14.4935 77.9478 11.2568 83.6616 7.84107C85.9105 6.49666 87.3266 5.77705 87.5419 5.86921C87.6495 5.91524 88.6885 6.46248 89.8508 7.0853C98.7782 11.8688 103.195 15.3234 106.301 19.951C108.226 22.8196 109.246 25.4991 109.77 29.0615C109.955 30.3183 109.993 30.4117 110.58 31.0559C112.007 32.6215 112.023 33.4296 110.639 34.0496L110.037 34.3191L110.113 36.5291L110.188 38.7391L111.129 39.4399C112.492 40.456 112.721 40.7046 112.721 41.1697C112.721 41.6017 112.39 41.8723 111.381 42.2648L110.909 42.4484V43.4159C110.909 44.7553 110.665 45.9009 110.139 47.0299C109.601 48.1849 108.528 49.6988 107.659 50.5293C107.309 50.8634 106.887 51.3309 106.721 51.5681C105.629 53.1236 105.662 56.163 106.808 59.502C107.163 60.5381 107.371 60.8966 108.126 61.7796C110.591 64.6617 113.98 66.4616 118.441 67.2578C120.204 67.5725 122.988 67.7512 123.713 67.5961C125.355 67.2446 125.743 67.4174 129.93 70.3713C131.881 71.7476 133.885 73.0965 134.383 73.3688C136.288 74.4097 137.336 75.3561 137.955 76.5911C138.364 77.4089 138.477 78.9992 138.2 80.029L137.996 80.7836L138.846 82.0773C140.434 84.4912 141.028 85.8814 141.254 87.7066C141.436 89.1864 141.199 90.5756 140.559 91.7667C140.503 91.8708 140.706 92.0198 141.165 92.2119C142.034 92.5759 143.548 93.7474 143.998 94.405C144.24 94.7587 144.342 95.1016 144.344 95.5701C144.346 96.1522 144.289 96.2843 143.882 96.6438C143.309 97.1491 142.324 97.5168 141.327 97.5979C138.762 97.8064 89.4602 98.142 79.1331 98.0212H79.1328ZM130.835 97.396C138.802 97.2831 141.628 97.2092 142.074 97.1022C142.402 97.0237 142.936 96.7782 143.262 96.5571C143.851 96.1568 143.853 96.1518 143.791 95.4509C143.748 94.9739 143.631 94.6509 143.426 94.4493C143.022 94.0504 141.729 93.6028 140.346 93.383C138.472 93.0853 133.193 93.1549 130.307 93.5155C129.964 93.5584 130.04 93.5087 130.624 93.3082C132.549 92.6489 133.553 91.2696 133.553 89.2847C133.553 86.274 130.967 82.9512 128.479 82.7648C128.083 82.7351 127.618 82.9442 125.311 84.1909C122.145 85.9024 119.526 87.1747 117.621 87.927C113.695 89.4778 108.54 90.7311 103.739 91.3017C102.52 91.4465 101.788 91.7245 101.471 92.1623C101.143 92.6148 101.196 92.8915 101.677 93.2348C102.335 93.7045 103.109 93.7964 106.531 93.8111C109.985 93.8265 111.254 93.7003 113.592 93.1113C116.854 92.29 118.539 91.4256 123.479 88.0398C125.561 86.6126 126.378 86.1165 126.563 86.1673C126.766 86.2228 126.606 86.3903 125.759 87.0137C124.112 88.2256 122.642 89.6576 122.075 90.6022C121.739 91.1619 121.691 91.9738 121.97 92.3679C122.38 92.9458 124.151 93.6024 125.854 93.8073C126.061 93.8323 125.144 93.863 123.816 93.8758C122.488 93.8894 118.751 93.9521 115.513 94.0172C106.6 94.1961 103.093 94.1775 102.247 93.9466C100.89 93.5766 100.401 92.6918 101.105 91.879C101.562 91.351 102.257 91.0986 103.757 90.9163C105.768 90.6718 109.182 90.0465 111.147 89.5627C115.562 88.4754 119.14 87.045 123.974 84.4345C130.201 81.0717 129.896 81.2928 130.04 80.0291C130.13 79.2331 129.714 78.2727 128.899 77.3951C128.192 76.6335 125.849 74.9678 124.363 74.1703C123.016 73.4476 122.891 73.2457 123.649 73.0196C124.468 72.7751 125.464 72.8206 126.514 73.1504C128.843 73.8819 130.262 74.8028 132.165 76.8183C133.296 78.0162 133.439 78.1268 133.745 78.0421C133.93 77.9908 134.447 77.8451 134.893 77.7183C135.34 77.5915 135.731 77.5061 135.762 77.5285C135.794 77.5508 134.659 78.533 133.24 79.7111L130.662 81.8531L131.172 81.9793C133.818 82.6336 134.918 83.9667 135.15 86.8015C135.237 87.8661 135.056 90.5476 134.825 91.6277L134.742 92.0144L137.317 92.0057L139.892 91.9955L140.184 91.3486C141.39 88.671 140.854 85.9747 138.381 82.2826L137.449 80.8914L137.607 80.2446C137.911 78.9999 137.937 78.6203 137.771 77.77C137.455 76.1465 136.431 74.9977 134.209 73.7729C132.955 73.0812 132.597 72.9571 128.092 71.6512L123.306 70.2643L120.542 72.2359C116.568 75.0703 113.16 76.8869 108.784 78.5038C102.777 80.723 97.1551 81.7125 90.5301 81.7168C84.4782 81.7203 79.3297 80.8678 73.8494 78.9534C70.8937 77.9209 69.2673 77.2127 66.8327 75.8981C63.1386 73.9034 58.5991 70.39 56.1868 67.6585C55.9381 67.377 55.6461 67.1465 55.5378 67.1464C55.1541 67.1461 50.7206 68.4631 48.4872 69.241C44.2016 70.7335 41.2898 72.3762 40.2463 73.89C39.2486 75.3373 39.7103 76.7911 41.6535 78.321L42.5906 79.0588L41.6106 79.1194C40.4631 79.1905 39.8044 79.4352 39.265 79.9911C38.3314 80.9532 37.8963 83.0643 38.0704 85.7874C38.1288 86.7014 38.2099 87.5111 38.2507 87.5868C38.2956 87.6703 38.025 87.8329 37.5627 88.0002C35.1438 88.8756 34.6494 90.0117 36.012 91.5638L36.606 92.2403L35.5279 92.5348C34.0662 92.9341 32.5522 93.578 31.9794 94.0439C31.1641 94.7071 31.3709 95.2788 32.6979 96.0293L33.2805 96.3589L41.1111 96.6807C50.5542 97.0688 58.3824 97.3037 68.2641 97.4957C77.5615 97.6763 115.305 97.6162 130.836 97.3961L130.835 97.396ZM60.867 94.5239C58.7695 94.3998 58.464 94.3417 59.8239 94.3258C61.0349 94.3123 62.7971 94.0203 63.8987 93.652C65.6473 93.0674 66.5998 91.9431 66.2364 90.8928C65.6255 89.1271 62.7792 87.5841 56.8128 85.7841C52.8882 84.6001 49.4711 83.2234 46.3752 81.579C45.0248 80.8618 42.5258 79.3534 42.5258 79.2555C42.5258 79.2274 43.1542 79.5161 43.9222 79.897C48.3247 82.081 54.3743 84.1692 58.0063 84.7585C62.9287 85.5572 67.5417 87.2445 70.3888 89.2874C71.9706 90.4225 72.5662 91.1557 72.5662 91.9681C72.5662 93.1935 71.2976 93.927 68.4149 94.3684C67.0928 94.5709 63.0625 94.6539 60.867 94.5239V94.5239ZM105.655 84.9072C105.308 84.003 105.075 83.2503 105.136 83.2346C105.734 83.0822 112.722 80.3259 112.717 80.2446C112.714 80.1854 112.17 79.967 111.51 79.7595C110.851 79.5519 110.31 79.3547 110.308 79.3211C110.307 79.2874 111.078 78.7436 112.023 78.1124L113.74 76.9648L114.08 78.2004C114.267 78.88 114.439 79.436 114.462 79.436C114.485 79.436 115.375 78.5865 116.44 77.5482L118.376 75.6604L118.573 76.0659C118.682 76.2889 118.998 76.9892 119.275 77.6222L119.78 78.773L117.535 79.6166C116.3 80.0806 115.289 80.4942 115.288 80.5358C115.287 80.5773 115.966 81.0042 116.797 81.4844C117.627 81.9645 118.306 82.378 118.306 82.4032C118.306 82.528 115.541 83.7564 115.437 83.6778C115.371 83.6276 115.032 83.1015 114.683 82.5085C114.335 81.9156 114.003 81.3951 113.947 81.3519C113.89 81.3087 112.182 82.4608 110.151 83.9123C108.12 85.3637 106.419 86.5513 106.372 86.5513C106.324 86.5513 106.001 85.8114 105.655 84.9072H105.655ZM65.0215 82.2952C62.9904 80.8438 61.2815 79.6916 61.2239 79.7348C61.1663 79.778 60.8381 80.2985 60.4945 80.8914C60.1508 81.4844 59.8106 82.0119 59.7384 82.0636C59.6354 82.1374 57.6578 81.2592 56.9686 80.8336C56.9 80.7912 57.5285 80.357 58.3649 79.8686C59.2014 79.3801 59.8858 78.9486 59.8858 78.9096C59.8858 78.8705 58.8769 78.4563 57.6438 77.9891L55.4017 77.1396L56.0747 75.6196C56.4448 74.7836 56.7623 74.088 56.7803 74.0739C56.7982 74.0603 57.6912 74.9003 58.7645 75.9418L60.7161 77.8355L60.8903 77.2612C60.9861 76.9454 61.1558 76.3797 61.2677 76.0041L61.4709 75.3213L63.2069 76.5069L64.9429 77.6925L63.6005 78.1392C62.8622 78.3849 62.3188 78.6256 62.3928 78.6741C62.4671 78.7226 64.2259 79.405 66.3015 80.1908C68.3772 80.9765 70.0938 81.6304 70.1162 81.6439C70.1866 81.6861 68.8846 84.9342 68.7973 84.9342C68.7517 84.9342 67.0527 83.7466 65.0216 82.2952H65.0215ZM96.0277 81.1092C98.4768 80.8319 99.5604 80.622 101.317 80.0847C105.349 78.8517 108.623 77.571 110.899 76.3364C113.355 75.0041 116.235 72.7653 116.967 71.6201C118.199 69.6921 115.275 68.4057 111.7 69.3029C111.235 69.4199 110.588 69.641 110.264 69.7943C109.939 69.9476 109.651 70.0568 109.623 70.0369C109.595 70.0169 109.701 69.7344 109.858 69.4089C110.583 67.9102 109.992 67.1935 108.261 67.4706C107.337 67.6185 105.708 68.2019 104.267 68.9009L103.135 69.4502L103.869 68.8658C105.294 67.7314 105.846 66.6719 105.237 66.2375C104.895 65.9929 103.884 66.0303 102.882 66.3247C101.623 66.6948 100.249 67.4405 98.7936 68.5446L97.5043 69.5228L98.0286 68.6568C98.6194 67.6809 98.8012 66.8038 98.4982 66.3915C98.0114 65.7292 96.0253 65.5075 95.1722 66.0201C93.7847 66.8539 91.6727 67.2821 88.945 67.2827C87.3064 67.283 86.7334 67.2363 85.473 66.9991C83.7785 66.6803 81.3531 65.8629 80.1361 65.2006C79.6916 64.9587 79.302 64.7793 79.2703 64.802C79.2387 64.8247 79.5474 65.2072 79.9565 65.6522C80.879 66.6558 82.5506 67.7965 83.7124 68.2154C85.4471 68.8407 86.1936 68.9261 89.813 68.9134C92.3597 68.9048 93.0963 68.9324 93.0963 69.0375C93.0963 69.2311 91.6276 69.3327 88.945 69.3248C86.3489 69.318 84.9561 69.1162 83.3877 68.5233C82.031 68.0104 80.3548 66.8166 79.3215 65.6273C78.8441 65.0778 78.4541 64.6975 78.4549 64.7822C78.4574 65.0861 79.2108 67.043 79.8044 68.2884C80.1373 68.9868 80.388 69.5737 80.3616 69.5926C80.3352 69.6114 79.39 68.5472 78.2613 67.2276C75.8342 64.3901 75.2298 63.9119 74.0706 63.9119C73.395 63.9119 72.6472 64.4675 72.5138 65.0687C72.3363 65.8685 72.6467 66.4364 74.4105 68.5386C75.3349 69.6405 76.1884 70.6633 76.3072 70.8115C76.6097 71.1891 75.4563 70.2711 73.3651 68.4695C71.7706 67.096 71.4827 66.8999 70.6038 66.5887C69.5095 66.2012 68.0271 66.0568 67.4414 66.2807C66.9202 66.4799 66.638 67.0686 66.8255 67.5657C67.1808 68.5082 67.6572 68.7786 73.2949 71.2375C76.21 72.509 78.5704 73.5669 78.5401 73.5885C78.5098 73.61 77.8067 73.3846 76.9774 73.0874C74.9913 72.3756 71.1272 71.2305 69.2838 70.8075C65.5763 69.9565 63.4295 69.9789 63.1157 70.8718C62.7766 71.8366 65.2601 74.5886 67.5846 75.8241C73.1504 78.7824 79.4231 80.5837 86.359 81.2155C88.497 81.4103 93.8929 81.3509 96.0277 81.1091L96.0277 81.1092ZM92.0396 80.074C92.0396 79.9213 92.2145 79.8685 92.9076 79.8118C99.3345 79.286 105.339 77.3529 112.379 73.5432C113.403 72.9895 114.3 72.5364 114.373 72.5364C114.838 72.5364 114.459 72.8919 113.335 73.5104C106.072 77.5082 100.209 79.4633 93.5114 80.1207C92.1268 80.2566 92.0396 80.2539 92.0396 80.0739V80.074ZM94.977 77.704C94.8278 77.5315 94.9145 77.5049 96.1891 77.3307C100.633 76.7234 104.685 75.1872 109.531 72.2725C111.461 71.1116 111.509 71.0888 111.705 71.2292C111.907 71.373 111.99 71.3109 110.003 72.4996C105.037 75.4715 100.617 77.1565 96.3518 77.704C95.2369 77.8471 95.1009 77.8471 94.977 77.704V77.704ZM88.7185 75.0522C86.4413 74.9783 81.9255 74.2684 81.9255 73.9843C81.9255 73.7369 82.1193 73.7452 83.6329 74.0578C85.9298 74.532 88.2749 74.7297 90.681 74.6519C94.6286 74.5242 97.7548 73.8939 103.409 72.0853C105.168 71.5226 105.841 71.3534 105.965 71.4422C106.058 71.5084 106.092 71.5924 106.041 71.6288C105.832 71.7784 100.812 73.3203 99.0476 73.7771C95.3303 74.7394 91.9465 75.1572 88.7185 75.0523L88.7185 75.0522ZM86.7033 71.9382C84.8563 71.676 82.4835 71.0684 82.5751 70.881C82.6607 70.7055 83.0583 70.7476 84.2653 71.0598C87.6926 71.9463 91.5879 71.9542 95.0846 71.0818C96.077 70.8342 96.2663 70.8339 96.2663 71.0801C96.2663 71.2358 94.1669 71.7294 92.5924 71.944C91.1392 72.1421 88.1184 72.1391 86.7033 71.9389V71.9382ZM129.101 70.3149C127.539 69.2116 126.05 68.2173 125.793 68.1053C125.286 67.8845 124.119 67.8315 123.74 68.0122C123.539 68.1083 123.539 68.1316 123.74 68.2219C123.865 68.2777 125.733 69.2208 127.892 70.3176C130.05 71.4145 131.845 72.3139 131.879 72.3164C131.914 72.3199 130.663 71.4182 129.101 70.3149V70.3149ZM92.266 66.6304C95.6221 65.8714 97.0762 64.3209 95.922 62.732C95.5819 62.2639 95.5551 62.1683 95.7493 62.1151C96.0328 62.0374 96.3551 62.3233 96.5902 62.8608C96.6874 63.0832 96.8134 63.2651 96.8702 63.2651C96.9847 63.2651 97.2512 62.6652 97.4012 62.0694C97.534 61.5419 97.2334 60.8127 96.737 60.4582C95.4561 59.5434 92.9408 60.2194 90.1981 62.2155C89.0193 63.0735 88.8997 63.1347 89.0282 62.8146C89.107 62.6184 89.1715 62.2007 89.1715 61.8864C89.1715 60.9041 88.3742 60.5728 86.0015 60.5692C84.8792 60.5676 84.6069 60.5268 83.8291 60.2451C82.2554 59.6752 80.7586 59.8727 79.5781 60.8058C78.9254 61.3218 78.3662 62.1666 78.2597 62.7974C78.1598 63.3903 78.4645 63.7356 79.766 64.5031C81.9076 65.7662 84.2137 66.4992 87.2091 66.869C88.1328 66.9831 91.3855 66.8296 92.2661 66.6304H92.266ZM93.1781 59.5947C93.3318 59.4733 94.112 59.0404 94.9119 58.6326C97.425 57.3512 98.6152 56.1674 99.2804 54.2875C99.5985 53.3884 99.8893 51.6587 99.8893 50.6653C99.8893 50.1387 99.9388 50.0329 100.249 49.8951C100.817 49.6431 102.092 48.5117 102.598 47.8111C103.422 46.6691 103.133 46.0161 101.803 46.0161C101.326 46.0161 101.083 46.1018 100.5 46.4742C100.106 46.7262 99.4851 47.0514 99.1196 47.1967L98.4552 47.4611L99.1793 46.8733C99.5776 46.5501 100.155 45.9242 100.462 45.4826C100.96 44.7676 101.021 44.5905 101.018 43.8655C101.016 42.8853 100.679 42.2849 99.7141 41.5325C98.9442 40.9322 97.0679 40.0251 96.2863 39.8753C95.9847 39.8175 94.4713 39.7156 92.923 39.6488C88.3135 39.45 81.0733 39.8109 78.8883 40.3485C76.6191 40.9068 74.0443 42.2917 73.3493 43.3279C72.86 44.0573 72.6834 44.8893 72.8693 45.5893C73.1516 46.6525 74.3025 48.1486 75.6794 49.2423L76.3481 49.7734L76.2453 51.3981L76.1428 53.0228L76.6855 53.8047C77.7388 55.3221 80.0002 56.9086 84.1898 59.0696L85.322 59.6536L87.5109 59.7131C92.4115 59.8465 92.8711 59.8369 93.1781 59.5946L93.1781 59.5947ZM86.3611 56.9042C86.6614 56.6669 86.9071 56.4257 86.9071 56.3683C86.9071 56.311 87.2807 56.1378 87.7373 55.9835C88.3206 55.7864 88.5676 55.6412 88.5676 55.4952C88.5676 55.1968 88.4258 55.2021 84.0389 55.6637L83.5105 55.7194L84.1898 55.462C84.5634 55.3205 85.2767 55.1471 85.7749 55.0767C86.4167 54.986 86.7734 54.8695 86.9991 54.677L87.3176 54.4054L89.5778 54.5065C92.1092 54.6197 92.6681 54.7514 93.8698 55.518L94.5304 55.9394L93.9265 55.7646C92.3562 55.3101 91.5726 55.1591 90.4923 55.1024C89.8488 55.0686 89.3223 55.0748 89.3223 55.116C89.3223 55.3132 89.8021 55.8184 90.0407 55.8724C90.1886 55.9059 90.436 56.1012 90.5907 56.3063C90.7455 56.5114 91.0014 56.7785 91.1597 56.8999C91.4451 57.1186 91.4439 57.1205 91.0184 57.1205C90.7292 57.1205 90.4283 57.0018 90.0956 56.7567C89.7301 56.4874 89.4242 56.3755 88.9174 56.3259C88.2624 56.2617 88.1941 56.2821 87.3304 56.7975C86.834 57.0937 86.29 57.3361 86.1216 57.3361C85.8538 57.3361 85.8839 57.282 86.3613 56.9045L86.3611 56.9042ZM87.9856 52.3691C87.79 52.3131 87.44 52.1707 87.2076 52.0525C86.9752 51.9344 86.6256 51.8365 86.4309 51.8352C85.893 51.8318 84.8397 51.4537 84.6456 51.1946C84.4143 50.886 84.5061 50.3822 84.7937 50.3822C84.9335 50.3822 85.0398 50.5062 85.0713 50.7056C85.1447 51.1703 85.3166 51.2713 86.2768 51.4137C86.7477 51.4835 87.2901 51.6289 87.4823 51.7368C88.1581 52.1165 88.8238 52.2028 89.5493 52.0049C89.9096 51.9066 90.2866 51.7556 90.387 51.6691C90.4875 51.5828 90.9352 51.4361 91.382 51.3433C92.7882 51.0514 92.915 50.3177 91.8148 48.838L91.2849 48.1253V46.285C91.2849 44.5902 91.3118 44.4068 91.6245 43.9661C92.1197 43.2684 92.7165 43.0613 94.2187 43.0658C94.8883 43.0676 96.1155 43.1492 96.9457 43.2467C97.776 43.3442 98.6585 43.4371 98.9069 43.4533C99.1962 43.4721 99.3765 43.5504 99.4086 43.6713C99.4739 43.9168 99.2183 43.9142 96.9457 43.6465C93.7724 43.2728 92.6194 43.3791 92.1024 44.0932C91.9027 44.3689 91.8616 44.7661 91.8774 46.2653L91.8978 48.0999L92.4479 48.8948C93.5082 50.427 93.2506 51.351 91.6718 51.6787C91.2135 51.7738 90.7987 51.8978 90.75 51.954C90.7013 52.0102 90.3971 52.1526 90.074 52.2703C89.4525 52.4968 88.5778 52.5381 87.9867 52.369L87.9856 52.3691ZM96.6394 50.6248L96.7414 49.1964L96.0306 48.6233C95.4742 48.1747 95.36 48.0226 95.5048 47.9226C95.6489 47.8232 95.8483 47.9204 96.4048 48.3606L97.1198 48.9263L97.5838 48.5223C97.9455 48.2074 98.0889 48.1465 98.2342 48.2461C98.3808 48.3467 98.317 48.4672 97.934 48.8126C97.6664 49.0539 97.3854 49.2239 97.3097 49.1905C97.2294 49.155 97.172 49.7382 97.172 50.5915C97.172 52.0051 97.1618 52.0532 96.8546 52.0532C96.5429 52.0532 96.5391 52.0276 96.6394 50.6248H96.6394ZM95.306 46.931C95.0055 46.8572 94.5848 46.715 94.3713 46.6151C93.9292 46.4083 93.0927 45.5191 93.1033 45.2673C93.1058 45.1751 93.2703 45.318 93.4659 45.5848C93.6615 45.8517 93.9883 46.1811 94.1921 46.3168L94.5627 46.5637L94.4925 46.0424C94.4323 45.5953 94.4799 45.473 94.8212 45.1827C95.0405 44.9965 95.3705 44.8194 95.5545 44.7891C95.7383 44.7587 95.4869 44.757 94.9954 44.7852C94.5039 44.8134 93.6905 44.9551 93.1877 45.1001C92.5684 45.2788 92.224 45.3285 92.12 45.2543C91.9285 45.1175 92.1429 45.0147 93.2472 44.7109C94.3964 44.3952 96.3811 44.3194 97.474 44.5495C98.5305 44.772 99.8893 45.3254 99.8893 45.5332C99.8893 45.7651 99.7207 45.7343 98.7838 45.3314C97.9717 44.9822 96.2091 44.6196 96.011 44.7611C95.9577 44.7991 96.0442 44.8318 96.2033 44.8337C97.0556 44.8438 97.6349 45.8296 97.1605 46.4626C96.8806 46.8361 97.5146 46.5196 98.2144 45.9366C98.5532 45.6542 98.831 45.4751 98.8315 45.5386C98.832 45.602 98.5879 45.858 98.289 46.1074C97.3966 46.8519 96.2609 47.1655 95.3059 46.931L95.306 46.931ZM81.7197 46.7255C80.9752 46.5297 80.4022 46.1358 79.9767 45.5274C79.7916 45.2625 79.6131 45.0458 79.5802 45.0458C79.5473 45.0458 79.2763 45.1289 78.978 45.2305C78.5067 45.391 78.4172 45.3946 78.2948 45.2575C78.1841 45.1335 78.3394 45.0377 79.0208 44.8104C81.5524 43.9653 84.147 44.1622 86.3032 45.363C86.5865 45.5208 86.6376 45.604 86.508 45.6968C86.3782 45.7898 86.2373 45.7746 85.9397 45.6353C85.5445 45.4504 85.5433 45.4508 84.9251 45.9523C83.9295 46.7601 82.8456 47.0215 81.7197 46.7255L81.7197 46.7255ZM84.0938 46.3268C84.6942 46.0428 85.2465 45.5582 85.2465 45.3154C85.2465 45.2337 84.0289 44.8357 83.7694 44.8326C83.6243 44.8307 83.6148 44.8827 83.7316 45.0387C84.0212 45.4251 83.9183 46.0689 83.5177 46.3776C83.0275 46.7554 83.2244 46.738 84.0937 46.3268H84.0938ZM81.3326 46.271C80.9621 45.9347 80.9316 45.4802 81.25 45.0405C81.4726 44.7328 81.469 44.7227 81.1368 44.7306C80.9478 44.735 80.5727 44.7959 80.3032 44.8658L79.8131 44.9927L80.1287 45.4482C80.4021 45.8429 81.3258 46.5551 81.5642 46.5551C81.6089 46.5551 81.5045 46.4273 81.3324 46.271L81.3326 46.271ZM77.4997 44.0339C77.4107 43.8682 78.9423 43.321 80.1021 43.1041C81.2303 42.893 83.2131 42.9399 84.6065 43.2107C85.9258 43.467 86.0515 43.5196 85.8634 43.737C85.7711 43.8437 85.5352 43.8223 84.779 43.639C82.82 43.1641 80.4532 43.2684 78.5428 43.9138C77.6118 44.2284 77.6047 44.2292 77.4997 44.0339V44.0339ZM111.253 41.8621C112.598 41.3254 112.574 41.105 111.047 39.9373C110.15 39.2516 109.76 39.0449 108.668 38.6766C106.028 37.7865 102.613 37.1343 99.0213 36.8349C97.6712 36.7223 97.474 36.68 97.474 36.5031C97.474 36.2679 97.4561 36.2669 101.241 36.7065C103.913 37.0168 106.504 37.5453 108.305 38.1472L109.551 38.5634V36.4263V34.2892L108.362 33.8477C104.95 32.5799 99.8577 31.7606 93.7997 31.5049C92.7215 31.4593 91.9922 31.3824 91.9614 31.311C91.9334 31.2459 91.6963 26.0503 91.4346 19.7652C91.1729 13.4801 90.9346 8.28121 90.905 8.21213C90.8754 8.14305 90.1506 7.71091 89.2943 7.2518C88.4379 6.79269 87.6613 6.37555 87.5684 6.32482C87.4386 6.25388 85.4887 7.19827 84.5184 7.80209C84.4615 7.83744 84.895 26.4828 85.0196 29.3643L85.1037 31.3091L82.9486 31.5551C80.2171 31.867 75.7227 32.4887 74.1513 32.772C72.0284 33.1547 68.7583 33.9536 68.2135 34.2226C68.1339 34.2618 68.6797 37.6926 68.7847 37.814C68.8436 37.8822 69.3824 37.8072 70.2319 37.6125C70.9761 37.4419 72.1285 37.2226 72.7927 37.1251C74.2814 36.9067 74.7899 36.7024 75.1794 36.1663C75.8469 35.2474 75.5891 34.234 74.5723 33.7806C74.0923 33.5666 73.9523 33.3622 74.2083 33.2492C74.3914 33.1684 75.2658 33.6092 75.6423 33.9721C75.865 34.1868 75.9687 34.4779 76.0069 34.9963C76.0518 35.6037 75.9992 35.8053 75.6831 36.2457L75.3059 36.7709L76.0118 36.7078C76.3999 36.6731 77.7026 36.5889 78.9064 36.5208C80.1103 36.4526 81.1836 36.3787 81.2914 36.3565C81.4123 36.3317 81.2735 36.1817 80.9281 35.9654C79.7837 35.2478 79.4474 33.9201 80.183 33.0236C80.5315 32.599 81.3906 32.1679 81.6553 32.2847C81.9055 32.3951 81.7575 32.6008 81.3311 32.7356C80.821 32.8969 80.2651 33.6195 80.2651 34.1214C80.2651 35.1317 81.2656 35.9592 82.7233 36.1545C83.0318 36.1959 83.2842 36.2852 83.2842 36.3531C83.2842 36.5876 82.4468 36.7231 80.5712 36.792C78.5123 36.8678 75.3634 37.1291 74.5287 37.2936C74.2381 37.3508 73.4453 37.4686 72.7669 37.5554C69.3555 37.9916 66.6822 39.0717 66.6795 40.0148C66.6791 40.1876 67.5136 41.7968 67.6567 41.899C67.6863 41.92 68.6501 41.7183 69.7986 41.4507C76.7015 39.8426 83.4947 39.1434 91.0584 39.2628C98.0291 39.3727 103.638 40.1137 108.569 41.5761C109.566 41.8716 110.423 42.1182 110.475 42.1242C110.527 42.1302 110.877 42.0122 111.253 41.8621L111.253 41.8621ZM85.7749 36.3247C84.5499 35.9197 83.8879 35.1303 83.8879 34.0746C83.8879 33.5738 83.9711 33.3543 84.2966 32.9957C84.6873 32.5654 85.4785 32.1732 85.731 32.2847C85.9322 32.3736 85.8634 32.6481 85.6395 32.6481C85.2986 32.6481 84.5149 33.3662 84.4068 33.7777C84.1213 34.8649 85.2117 35.9655 86.7595 36.1522C87.128 36.1967 87.3598 36.2834 87.3598 36.3769C87.3598 36.5953 86.5085 36.5673 85.7748 36.3247L85.7749 36.3247ZM91.2857 36.0709C91.2852 35.9379 91.4043 35.8823 91.69 35.8823C91.9129 35.8823 92.3929 35.7794 92.7566 35.6536C94.5074 35.0483 94.8241 33.1707 93.2908 32.4869C92.7475 32.2447 92.6442 32.0012 93.0847 32.0012C93.4947 32.0012 94.307 32.5191 94.5509 32.936C95.043 33.7771 94.6417 35.1609 93.7624 35.6548C93.287 35.9219 93.303 35.9901 93.8412 35.9901C95.9052 35.9901 97.2999 34.0406 95.963 33.0243C95.6961 32.8214 95.6831 32.7701 95.8707 32.659C96.2151 32.4548 96.8976 33.1689 96.986 33.8259C97.0794 34.5203 96.806 35.0652 96.0834 35.6251C95.3081 36.2258 94.8506 36.3211 92.9024 36.2875C91.4795 36.2629 91.2866 36.2371 91.2858 36.0709H91.2857ZM101.55 35.8823C101.55 35.7224 101.651 35.6666 101.939 35.6666C102.375 35.6666 103.21 35.1379 103.21 34.8615C103.21 34.7653 103.041 34.5653 102.833 34.4171C102.444 34.1393 102.332 33.8339 102.618 33.8339C102.708 33.8339 102.979 33.9757 103.222 34.1491C104.067 34.7529 103.591 35.7367 102.333 35.9863C101.584 36.1349 101.55 36.1304 101.55 35.8823L101.55 35.8823ZM88.6241 34.8297C88.1048 34.7699 87.6014 34.3063 87.6014 33.8878C87.6014 33.0473 88.9877 32.6541 89.8301 33.2557C90.7516 33.9138 89.9341 34.9807 88.6241 34.8297V34.8297ZM87.5109 24.1853C87.5109 24.0901 87.6506 24.0226 87.8505 24.0212C88.4032 24.0173 89.3805 23.6483 89.8152 23.2793C90.4019 22.7814 90.611 22.148 90.3883 21.544C90.1996 21.0324 89.7627 20.6197 89.2985 20.5144C89.0261 20.4527 88.8959 20.0347 89.149 20.0347C89.4699 20.0347 90.3305 20.566 90.6384 20.9543C91.2914 21.7777 90.9909 23.0463 89.9829 23.7214C89.1783 24.2602 87.5108 24.5731 87.5108 24.1853L87.5109 24.1853ZM87.7373 21.6339C86.2225 21.038 85.6854 19.8484 86.5231 18.9444C86.926 18.5096 87.7659 18.0608 87.9908 18.1601C88.2372 18.2688 88.1038 18.4752 87.6738 18.6499C87.1036 18.8815 86.7474 19.2791 86.6541 19.788C86.5645 20.2764 87.001 20.8061 87.8164 21.1985C88.5463 21.5498 88.4781 21.9253 87.7374 21.6339H87.7373ZM86.9539 16.6844C86.2819 16.377 85.821 15.6556 85.8794 15.0028C85.9128 14.63 85.9939 14.4754 86.1685 14.4518C86.3674 14.4249 86.411 14.525 86.411 15.0061C86.411 15.796 86.856 16.3174 87.6807 16.4939C88.2082 16.6068 88.377 16.5941 89.0498 16.3911C89.4719 16.2637 89.8757 16.1853 89.9472 16.2169C90.2214 16.3379 90.0532 16.4954 89.4355 16.6956C88.5872 16.9706 87.5694 16.966 86.9538 16.6845L86.9539 16.6844ZM88.5235 15.1565C88.4855 15.0824 88.6283 14.8884 88.841 14.7254C89.1399 14.4962 89.242 14.2867 89.2912 13.8015C89.347 13.2507 89.309 13.1355 88.9756 12.8592C88.6248 12.568 88.5159 12.5438 87.5184 12.5363C86.5219 12.5288 86.4051 12.503 85.9736 12.1948C84.8986 11.4271 85.5337 9.82561 86.9771 9.66449C87.4631 9.61023 87.423 9.94444 86.9276 10.078C85.9973 10.3288 85.6302 11.3836 86.2968 11.8903C86.5744 12.1014 86.8118 12.1487 87.7645 12.1831C88.8183 12.2211 88.9323 12.249 89.3301 12.567C89.566 12.7556 89.807 13.0921 89.8655 13.3148C90.0068 13.8526 89.7056 14.6242 89.2098 14.9948C88.7706 15.323 88.6266 15.357 88.5236 15.1565L88.5235 15.1565ZM71.3868 41.5224C71.278 41.4912 71.1476 41.495 71.0975 41.531C71.0473 41.5668 71.1365 41.5923 71.2956 41.5876C71.4716 41.5823 71.5073 41.5569 71.3869 41.5225L71.3868 41.5224ZM73.7739 41.117C74.8117 40.9148 75.5589 40.746 75.4344 40.7421C75.1691 40.7336 71.7924 41.358 71.6839 41.4355C71.5421 41.5368 71.9009 41.4821 73.7739 41.117ZM76.0665 40.6599C75.9576 40.6288 75.8273 40.6326 75.7772 40.6685C75.7269 40.7043 75.8162 40.7298 75.9753 40.7251C76.1513 40.7198 76.187 40.6944 76.0666 40.66L76.0665 40.6599ZM68.9622 33.5781C71.606 32.7446 76.1972 31.9554 82.8927 31.1836L84.5392 30.9938L84.4451 27.8591C84.3933 26.1349 84.2679 21.0252 84.1661 16.5041C84.0394 10.8732 83.931 8.28387 83.8213 8.28397C83.7334 8.28404 83.1754 8.61151 82.5812 9.01166L81.501 9.73921L81.6267 14.2132C81.829 21.4069 81.8129 24.1314 81.5683 24.1314C81.35 24.1314 81.3024 23.1537 81.0764 14.0245C81.0231 11.8751 80.9283 10.1165 80.8655 10.1165C80.7334 10.1165 78.141 12.1048 76.9284 13.136C71.5464 17.7133 68.4941 23.5529 68.4908 29.2791C68.4903 30.2665 68.5035 30.2769 69.548 30.0578C71.846 29.5756 76.4037 29.0908 78.6421 29.0906C79.5815 29.0905 79.812 29.1223 79.812 29.2522C79.812 29.3411 79.6932 29.4153 79.5478 29.417C78.5505 29.429 75.2432 29.6459 73.9247 29.7859C71.3915 30.055 68.2128 30.6538 67.7779 30.9439C67.2303 31.3091 66.9805 31.7155 66.9822 32.2384C66.9841 32.7752 67.617 33.8339 67.9362 33.8339C68.0543 33.8339 68.5159 33.7188 68.9621 33.5781L68.9622 33.5781ZM75.7363 23.3767V21.4362H75.057C74.5538 21.4362 74.3777 21.3943 74.3777 21.2745C74.3777 21.1547 74.5539 21.1128 75.057 21.1128H75.7363V20.1885C75.7363 19.3664 75.7654 19.2682 76.0005 19.3003C76.2221 19.3306 76.2717 19.4791 76.3085 20.2246L76.3523 21.1128H76.8746C77.2382 21.1128 77.3968 21.1619 77.3968 21.2745C77.3968 21.3874 77.2374 21.4362 76.8685 21.4362H76.3401V23.3767C76.3401 25.2454 76.3299 25.3172 76.0382 25.3172C75.7475 25.3172 75.7363 25.2454 75.7363 23.3767V23.3767ZM100.606 31.1288C101.725 30.8247 100.833 30.2181 98.4737 29.6795L97.4354 29.4425L98.2828 29.437C99.8157 29.4271 100.661 29.0657 101.164 28.2045C102.078 26.6432 100.18 23.3723 97.5185 21.9211L96.8148 21.5374L97.6567 21.6081C98.7373 21.6988 99.9001 21.5027 100.361 21.152C101.393 20.3681 100.059 18.6696 96.3538 16.0477L94.7568 14.9177L94.7594 15.7782C94.7612 16.2515 94.8614 19.0644 94.982 22.0291C95.2631 28.9428 95.2632 28.9826 94.9947 28.9826C94.6776 28.9826 94.6499 28.5717 94.3086 18.8108C94.139 13.9574 93.9638 9.94456 93.9194 9.89327C93.7901 9.74384 91.5743 8.47162 91.5179 8.51442C91.424 8.58565 92.4468 30.9269 92.5472 30.9986C92.6015 31.0374 93.7831 31.1293 95.1729 31.2028C97.7032 31.3368 99.9516 31.3061 100.605 31.1287L100.606 31.1288ZM109.342 30.8136C109.62 30.6146 108.942 26.9667 108.26 24.9989C106.721 20.5538 104.031 17.036 99.5205 13.5663C98.4095 12.7118 94.877 10.3321 94.7195 10.3321C94.6571 10.3321 94.6058 10.7104 94.6058 11.1727V12.0133L95.2238 12.4394C97.2853 13.861 100.363 16.6446 101.796 18.3832C104.203 21.3044 105.724 24.7585 106.153 28.2819C106.283 29.3446 106.689 30.0502 107.456 30.5449C107.909 30.8375 108.172 30.9232 108.615 30.9232C108.93 30.9232 109.257 30.8738 109.342 30.8135L109.342 30.8136Z" fill="black" stroke="black" stroke-width="0.2"/>
<path d="M159.648 97.5272C155.821 95.8496 157.558 94.4088 162.613 93.1093C161.023 91.5327 160.186 89.9806 164.365 88.5909C163.76 83.5354 164.219 79.6485 168.408 79.8554C161.784 75.2904 168.38 71.326 182.558 67.7061L198.191 61.782C200.58 59.2346 199.846 56.1501 199 53.0465C192.506 50.5301 192.166 47.0412 194.014 43.2065C193.339 41.8603 191.333 40.4589 194.957 39.2906L194.283 35.1739C192.943 33.8595 192.224 32.5605 194.655 31.3397C194.195 22.4446 199.67 14.2031 213.81 6.91602C224.476 12.5469 235.005 18.2853 236.109 31.4107C237.823 32.9637 238.884 34.3916 236.204 35.1027L236.299 39.7886C241.177 42.7757 238.021 42.6498 236.966 43.3386C237.411 46.0365 236.458 48.6398 234.108 51.1485C231.36 53.1031 231.527 56.8668 233.345 61.6564C236.475 66.0628 241.595 68.7947 249.927 68.8273C251.816 68.1076 253.202 69.264 254.596 70.3892L260.123 74.2232C264.659 76.3218 265.154 78.9678 264.126 81.8201C266.663 85.3344 268.813 88.8942 266.603 92.967C270.481 94.3811 272.718 97.8303 267.556 98.4339C233.919 98.7959 201.574 99.5263 159.648 97.5272H159.648Z" fill="white" stroke="black" stroke-width="0.2"/>
<path d="M205.424 98.7703C191.47 98.607 181.207 98.3519 168.364 97.8487L159.533 97.5028L158.915 97.2052C157.547 96.5468 156.953 95.7371 157.344 95.0633C157.657 94.5226 158.8 93.8815 160.46 93.3152C161.328 93.019 162.016 92.7452 161.988 92.7067C160.907 91.2284 160.769 90.7583 161.201 90.0204C161.512 89.4891 161.919 89.1865 163.005 88.6798L163.911 88.2572L163.865 85.9191C163.818 83.5154 163.967 82.4548 164.5 81.3926C164.988 80.4203 166.02 79.6937 167.191 79.4967L167.603 79.4274L166.929 78.7938C165.857 77.7873 165.596 77.2732 165.583 76.1371C165.573 75.2281 165.608 75.1106 166.1 74.415C167.557 72.356 172.108 70.1843 179.082 68.2206C180.369 67.8582 181.727 67.4731 182.101 67.3647C182.475 67.2565 186.172 65.8802 190.317 64.3064C198.666 61.1364 198.194 61.3761 198.859 59.9714C199.552 58.5078 199.567 56.6547 198.907 54.0167L198.656 53.014L197.423 52.4279C195.7 51.6094 194.336 50.5448 193.588 49.4359C192.53 47.8661 192.414 46.2908 193.196 44.1004L193.589 42.999L193.103 42.2138C192.452 41.1618 192.373 40.4737 192.847 39.9759C193.174 39.6317 193.934 39.1867 194.373 39.0824C194.51 39.0498 194.477 38.5602 194.238 37.0537C193.945 35.2054 193.891 35.0317 193.453 34.5422C193.194 34.253 192.901 33.7558 192.801 33.4374C192.56 32.6664 192.773 32.1756 193.651 31.478L194.328 30.9398L194.329 29.4463C194.331 26.0121 195.524 22.5261 197.866 19.1127C200.521 15.2425 204.239 12.0058 209.953 8.59009C212.202 7.24568 213.618 6.52608 213.833 6.61823C213.941 6.66426 214.979 7.21151 216.142 7.83433C225.069 12.6178 229.486 16.0724 232.592 20.7001C234.517 23.5686 235.537 26.2481 236.061 29.8105C236.246 31.0673 236.284 31.1607 236.871 31.8049C238.298 33.3705 238.314 34.1786 236.93 34.7986L236.328 35.0681L236.404 37.2781L236.479 39.4882L237.42 40.1889C238.783 41.205 239.012 41.4536 239.012 41.9188C239.012 42.3507 238.681 42.6213 237.672 43.0138L237.2 43.1975V44.1649C237.2 45.5044 236.956 46.65 236.43 47.7789C235.892 48.934 234.819 50.4478 233.95 51.2783C233.6 51.6125 233.178 52.08 233.012 52.3171C231.92 53.8727 231.953 56.912 233.099 60.251C233.454 61.2871 233.662 61.6456 234.417 62.5287C236.882 65.4107 240.271 67.2107 244.732 68.0068C246.495 68.3215 249.279 68.5002 250.004 68.3451C251.646 67.9936 252.034 68.1664 256.221 71.1203C258.172 72.4966 260.176 73.8455 260.674 74.1178C262.579 75.1588 263.627 76.1051 264.246 77.3401C264.655 78.1579 264.768 79.7482 264.491 80.778L264.287 81.5326L265.138 82.8263C266.725 85.2402 267.319 86.6304 267.545 88.4556C267.728 89.9355 267.49 91.3246 266.85 92.5157C266.794 92.6198 266.997 92.7688 267.456 92.961C268.325 93.3249 269.839 94.4964 270.289 95.154C270.531 95.5078 270.633 95.8507 270.635 96.3191C270.637 96.9012 270.58 97.0333 270.173 97.3929C269.6 97.8981 268.615 98.2659 267.618 98.3469C265.053 98.5555 215.751 98.891 205.424 98.7703H205.424ZM257.126 98.145C265.093 98.0322 267.919 97.9583 268.365 97.8512C268.693 97.7727 269.227 97.5273 269.553 97.3061C270.142 96.9059 270.144 96.9008 270.082 96.2C270.039 95.7229 269.922 95.3999 269.718 95.1983C269.313 94.7994 268.02 94.3518 266.637 94.132C264.763 93.8343 259.484 93.9039 256.598 94.2645C256.255 94.3074 256.332 94.2577 256.915 94.0573C258.84 93.398 259.844 92.0186 259.844 90.0338C259.844 87.023 257.258 83.7002 254.77 83.5138C254.374 83.4841 253.909 83.6933 251.602 84.9399C248.436 86.6515 245.817 87.9237 243.912 88.6761C239.986 90.2268 234.831 91.4801 230.03 92.0508C228.811 92.1955 228.079 92.4735 227.762 92.9113C227.434 93.3638 227.487 93.6406 227.968 93.9838C228.626 94.4536 229.4 94.5454 232.822 94.5601C236.276 94.5755 237.545 94.4493 239.883 93.8603C243.145 93.0391 244.83 92.1746 249.77 88.7888C251.852 87.3616 252.669 86.8655 252.854 86.9163C253.057 86.9718 252.897 87.1394 252.05 87.7628C250.403 88.9747 248.933 90.4066 248.366 91.3512C248.03 91.911 247.982 92.7229 248.261 93.1169C248.671 93.6949 250.442 94.3515 252.145 94.5564C252.353 94.5813 251.435 94.612 250.107 94.6248C248.779 94.6384 245.042 94.7011 241.804 94.7662C232.891 94.9451 229.384 94.9265 228.538 94.6957C227.181 94.3256 226.692 93.4408 227.396 92.628C227.853 92.1 228.548 91.8476 230.048 91.6653C232.059 91.4209 235.473 90.7956 237.438 90.3117C241.853 89.2244 245.431 87.794 250.265 85.1835C256.492 81.8207 256.187 82.0418 256.331 80.7781C256.421 79.9822 256.005 79.0217 255.19 78.1441C254.483 77.3825 252.14 75.7169 250.654 74.9194C249.307 74.1966 249.182 73.9947 249.94 73.7686C250.759 73.5242 251.755 73.5696 252.805 73.8994C255.134 74.6309 256.553 75.5518 258.456 77.5673C259.587 78.7652 259.73 78.8759 260.036 78.7911C260.221 78.7399 260.738 78.5942 261.184 78.4674C261.631 78.3405 262.022 78.2551 262.053 78.2775C262.085 78.2998 260.95 79.2821 259.531 80.4602L256.953 82.6022L257.463 82.7283C260.109 83.3826 261.209 84.7158 261.441 87.5505C261.528 88.6151 261.347 91.2966 261.116 92.3767L261.033 92.7634L263.608 92.7548L266.183 92.7445L266.475 92.0976C267.681 89.42 267.145 86.7237 264.672 83.0316L263.74 81.6405L263.898 80.9936C264.202 79.749 264.228 79.3693 264.062 78.519C263.746 76.8955 262.722 75.7467 260.5 74.5219C259.246 73.8302 258.888 73.7061 254.383 72.4002L249.597 71.0133L246.833 72.985C242.859 75.8193 239.451 77.6359 235.075 79.2528C229.068 81.472 223.446 82.4615 216.821 82.4658C210.769 82.4693 205.621 81.6169 200.14 79.7025C197.185 78.67 195.558 77.9617 193.124 76.6471C189.43 74.6524 184.89 71.139 182.478 68.4075C182.229 68.126 181.937 67.8956 181.829 67.8954C181.445 67.8951 177.012 69.2122 174.778 69.99C170.493 71.4826 167.581 73.1253 166.537 74.639C165.54 76.0863 166.001 77.5401 167.944 79.07L168.882 79.8079L167.902 79.8685C166.754 79.9395 166.095 80.1842 165.556 80.7401C164.622 81.7022 164.187 83.8134 164.361 86.5364C164.42 87.4504 164.501 88.2601 164.542 88.3358C164.587 88.4193 164.316 88.5819 163.854 88.7492C161.435 89.6246 160.94 90.7607 162.303 92.3128L162.897 92.9893L161.819 93.2838C160.357 93.6832 158.843 94.327 158.27 94.7929C157.455 95.4561 157.662 96.0278 158.989 96.7784L159.572 97.1079L167.402 97.4297C176.845 97.8178 184.673 98.0527 194.555 98.2447C203.853 98.4253 241.596 98.3652 257.127 98.1452L257.126 98.145ZM187.158 95.2729C185.061 95.1488 184.755 95.0908 186.115 95.0749C187.326 95.0613 189.088 94.7693 190.19 94.401C191.938 93.8165 192.891 92.6921 192.527 91.6418C191.917 89.8762 189.07 88.3331 183.104 86.5331C179.179 85.3491 175.762 83.9725 172.666 82.3281C171.316 81.6108 168.817 80.1024 168.817 80.0046C168.817 79.9764 169.445 80.2651 170.213 80.6461C174.616 82.83 180.665 84.9182 184.297 85.5075C189.22 86.3063 193.833 87.9935 196.68 90.0365C198.262 91.1715 198.857 91.9047 198.857 92.7171C198.857 93.9425 197.589 94.676 194.706 95.1174C193.384 95.3199 189.354 95.4029 187.158 95.273V95.2729ZM231.946 85.6563C231.599 84.752 231.366 83.9994 231.427 83.9837C232.025 83.8312 239.013 81.0749 239.008 80.9936C239.005 80.9344 238.461 80.716 237.802 80.5085C237.142 80.301 236.601 80.1037 236.599 80.0701C236.598 80.0365 237.369 79.4926 238.314 78.8614L240.031 77.7138L240.371 78.9495C240.558 79.629 240.73 80.1851 240.753 80.1851C240.776 80.1851 241.666 79.3355 242.731 78.2972L244.667 76.4094L244.864 76.8149C244.973 77.0379 245.289 77.7383 245.566 78.3712L246.071 79.522L243.826 80.3656C242.591 80.8296 241.58 81.2432 241.579 81.2848C241.579 81.3263 242.257 81.7532 243.088 82.2334C243.918 82.7136 244.597 83.1271 244.597 83.1523C244.597 83.2771 241.832 84.5055 241.728 84.4268C241.662 84.3766 241.323 83.8505 240.974 83.2576C240.626 82.6646 240.294 82.1441 240.238 82.1009C240.181 82.0577 238.473 83.2099 236.442 84.6613C234.411 86.1128 232.71 87.3003 232.663 87.3003C232.615 87.3003 232.292 86.5605 231.946 85.6563H231.946ZM191.313 83.0442C189.281 81.5928 187.573 80.4406 187.515 80.4838C187.457 80.527 187.129 81.0475 186.785 81.6405C186.442 82.2334 186.102 82.7609 186.029 82.8126C185.926 82.8864 183.949 82.0082 183.26 81.5826C183.191 81.5403 183.819 81.1061 184.656 80.6176C185.492 80.1292 186.177 79.6976 186.177 79.6586C186.177 79.6195 185.168 79.2053 183.935 78.7381L181.693 77.8887L182.366 76.3687C182.736 75.5327 183.053 74.8371 183.071 74.8229C183.089 74.8093 183.982 75.6493 185.056 76.6908L187.007 78.5845L187.181 78.0102C187.277 77.6944 187.447 77.1287 187.559 76.7532L187.762 76.0703L189.498 77.2559L191.234 78.4415L189.892 78.8882C189.153 79.134 188.61 79.3746 188.684 79.4231C188.758 79.4716 190.517 80.1541 192.593 80.9398C194.668 81.7255 196.385 82.3794 196.407 82.3929C196.478 82.4351 195.176 85.6832 195.088 85.6832C195.043 85.6832 193.344 84.4957 191.313 83.0442H191.313ZM222.319 81.8582C224.768 81.5809 225.851 81.371 227.608 80.8337C231.641 79.6008 234.915 78.32 237.19 77.0854C239.646 75.7531 242.526 73.5143 243.258 72.3691C244.49 70.4411 241.566 69.1547 237.991 70.052C237.526 70.1689 236.879 70.39 236.555 70.5433C236.23 70.6966 235.942 70.8058 235.914 70.7859C235.886 70.7659 235.992 70.4834 236.149 70.1579C236.874 68.6593 236.283 67.9426 234.552 68.2197C233.628 68.3675 231.999 68.9509 230.558 69.6499L229.426 70.1992L230.16 69.6148C231.585 68.4804 232.137 67.421 231.529 66.9865C231.186 66.7419 230.176 66.7794 229.173 67.0737C227.914 67.4438 226.54 68.1896 225.085 69.2937L223.795 70.2718L224.32 69.4058C224.91 68.4299 225.092 67.5528 224.789 67.1405C224.302 66.4782 222.316 66.2565 221.463 66.7692C220.076 67.603 217.964 68.0312 215.236 68.0317C213.597 68.032 213.024 67.9853 211.764 67.7481C210.07 67.4293 207.644 66.6119 206.427 65.9496C205.983 65.7077 205.593 65.5283 205.561 65.551C205.53 65.5737 205.838 65.9562 206.248 66.4013C207.17 67.4048 208.842 68.5455 210.003 68.9644C211.738 69.5897 212.485 69.6751 216.104 69.6624C218.651 69.6538 219.387 69.6814 219.387 69.7866C219.387 69.9801 217.919 70.0817 215.236 70.0738C212.64 70.067 211.247 69.8652 209.679 69.2723C208.322 68.7595 206.646 67.5656 205.612 66.3763C205.135 65.8269 204.745 65.4465 204.746 65.5312C204.748 65.8351 205.502 67.792 206.095 69.0374C206.428 69.7359 206.679 70.3227 206.653 70.3416C206.626 70.3604 205.681 69.2962 204.552 67.9766C202.125 65.1391 201.521 64.6609 200.362 64.6609C199.686 64.6609 198.938 65.2165 198.805 65.8177C198.627 66.6175 198.938 67.1854 200.701 69.2876C201.626 70.3895 202.479 71.4123 202.598 71.5605C202.901 71.9382 201.747 71.0201 199.656 69.2186C198.062 67.8451 197.774 67.6489 196.895 67.3377C195.801 66.9502 194.318 66.8058 193.732 67.0297C193.211 67.2289 192.929 67.8176 193.116 68.3147C193.472 69.2572 193.948 69.5276 199.586 71.9865C202.501 73.258 204.861 74.316 204.831 74.3376C204.801 74.3591 204.098 74.1337 203.268 73.8365C201.282 73.1247 197.418 71.9796 195.575 71.5565C191.867 70.7056 189.72 70.728 189.407 71.6209C189.068 72.5856 191.551 75.3376 193.876 76.5731C199.441 79.5314 205.714 81.3327 212.65 81.9645C214.788 82.1593 220.184 82.0999 222.319 81.8582L222.319 81.8582ZM218.331 80.823C218.331 80.6704 218.506 80.6175 219.199 80.5608C225.626 80.035 231.63 78.102 238.67 74.2922C239.694 73.7385 240.591 73.2855 240.664 73.2855C241.129 73.2855 240.75 73.6409 239.626 74.2594C232.363 78.2572 226.5 80.2123 219.802 80.8697C218.418 81.0056 218.331 81.0029 218.331 80.8229V80.823ZM221.268 78.453C221.119 78.2806 221.206 78.2539 222.48 78.0797C226.924 77.4725 230.976 75.9362 235.822 73.0215C237.752 71.8606 237.8 71.8378 237.996 71.9783C238.198 72.122 238.281 72.0599 236.294 73.2486C231.328 76.2206 226.908 77.9055 222.643 78.453C221.528 78.5961 221.392 78.5961 221.268 78.453ZM215.01 75.8013C212.732 75.7273 208.217 75.0174 208.217 74.7334C208.217 74.4859 208.41 74.4942 209.924 74.8068C212.221 75.281 214.566 75.4788 216.972 75.401C220.92 75.2732 224.046 74.6429 229.7 72.8344C231.459 72.2716 232.132 72.1024 232.256 72.1912C232.349 72.2574 232.383 72.3414 232.332 72.3779C232.123 72.5274 227.103 74.0694 225.339 74.5261C221.621 75.4885 218.238 75.9062 215.009 75.8013L215.01 75.8013ZM212.994 72.6872C211.147 72.425 208.775 71.8174 208.866 71.63C208.952 71.4545 209.349 71.4967 210.556 71.8088C213.984 72.6953 217.879 72.7033 221.376 71.8308C222.368 71.5832 222.557 71.5829 222.557 71.8291C222.557 71.9848 220.458 72.4785 218.883 72.6931C217.43 72.8911 214.409 72.8881 212.994 72.6879V72.6872ZM255.392 71.0639C253.83 69.9606 252.341 68.9663 252.084 68.8543C251.577 68.6335 250.41 68.5805 250.031 68.7612C249.83 68.8574 249.83 68.8806 250.031 68.9709C250.156 69.0267 252.024 69.9698 254.183 71.0667C256.341 72.1635 258.136 73.0629 258.17 73.0654C258.205 73.0689 256.955 72.1672 255.392 71.0639V71.0639ZM218.557 67.3795C221.913 66.6205 223.367 65.0699 222.213 63.4811C221.873 63.0129 221.846 62.9173 222.04 62.8641C222.324 62.7865 222.646 63.0723 222.881 63.6098C222.978 63.8322 223.104 64.0141 223.161 64.0141C223.276 64.0141 223.542 63.4142 223.692 62.8185C223.825 62.291 223.524 61.5617 223.028 61.2072C221.747 60.2925 219.232 60.9684 216.489 62.9645C215.31 63.8225 215.191 63.8838 215.319 63.5636C215.398 63.3675 215.463 62.9498 215.463 62.6354C215.463 61.6531 214.665 61.3218 212.292 61.3182C211.17 61.3166 210.898 61.2758 210.12 60.9942C208.546 60.4243 207.05 60.6217 205.869 61.5549C205.216 62.0708 204.657 62.9156 204.551 63.5464C204.451 64.1393 204.756 64.4846 206.057 65.2522C208.199 66.5152 210.505 67.2482 213.5 67.6181C214.424 67.7321 217.676 67.5786 218.557 67.3795H218.557ZM219.469 60.3437C219.623 60.2223 220.403 59.7894 221.203 59.3816C223.716 58.1002 224.906 56.9164 225.571 55.0365C225.89 54.1374 226.18 52.4077 226.18 51.4143C226.18 50.8877 226.23 50.7819 226.54 50.6441C227.108 50.3921 228.383 49.2607 228.889 48.5601C229.713 47.4181 229.424 46.7651 228.094 46.7651C227.617 46.7651 227.374 46.8508 226.791 47.2233C226.397 47.4753 225.776 47.8004 225.411 47.9458L224.746 48.2101L225.47 47.6223C225.869 47.2991 226.446 46.6733 226.753 46.2316C227.251 45.5167 227.312 45.3395 227.309 44.6145C227.307 43.6343 226.97 43.0339 226.005 42.2815C225.235 41.6812 223.359 40.7741 222.577 40.6243C222.276 40.5666 220.762 40.4647 219.214 40.3979C214.605 40.199 207.364 40.56 205.179 41.0975C202.91 41.6558 200.335 43.0408 199.64 44.077C199.151 44.8064 198.974 45.6383 199.16 46.3383C199.443 47.4015 200.594 48.8976 201.97 49.9913L202.639 50.5224L202.536 52.1471L202.434 53.7718L202.977 54.5538C204.03 56.0711 206.291 57.6577 210.481 59.8186L211.613 60.4026L213.802 60.4622C218.703 60.5955 219.162 60.5859 219.469 60.3437L219.469 60.3437ZM212.652 57.6532C212.952 57.4159 213.198 57.1747 213.198 57.1173C213.198 57.06 213.572 56.8868 214.028 56.7325C214.612 56.5354 214.859 56.3902 214.859 56.2442C214.859 55.9458 214.717 55.9511 210.33 56.4127L209.802 56.4684L210.481 56.211C210.854 56.0695 211.568 55.8961 212.066 55.8257C212.708 55.735 213.064 55.6185 213.29 55.4261L213.609 55.1545L215.869 55.2555C218.4 55.3687 218.959 55.5004 220.161 56.267L220.821 56.6884L220.218 56.5137C218.647 56.0592 217.864 55.9081 216.783 55.8514C216.14 55.8176 215.613 55.8238 215.613 55.865C215.613 56.0622 216.093 56.5674 216.332 56.6215C216.48 56.6549 216.727 56.8502 216.882 57.0553C217.036 57.2605 217.292 57.5276 217.451 57.6489C217.736 57.8676 217.735 57.8695 217.309 57.8695C217.02 57.8695 216.719 57.7508 216.387 57.5057C216.021 57.2364 215.715 57.1246 215.208 57.075C214.553 57.0108 214.485 57.0311 213.621 57.5465C213.125 57.8428 212.581 58.0851 212.413 58.0851C212.145 58.0851 212.175 58.031 212.652 57.6536L212.652 57.6532ZM214.277 53.1181C214.081 53.0621 213.731 52.9197 213.499 52.8015C213.266 52.6834 212.917 52.5856 212.722 52.5843C212.184 52.5808 211.131 52.2027 210.937 51.9436C210.705 51.6351 210.797 51.1312 211.085 51.1312C211.225 51.1312 211.331 51.2552 211.362 51.4547C211.436 51.9193 211.608 52.0203 212.568 52.1627C213.039 52.2325 213.581 52.3779 213.773 52.4859C214.449 52.8655 215.115 52.9518 215.84 52.7539C216.201 52.6556 216.578 52.5046 216.678 52.4182C216.778 52.3318 217.226 52.1851 217.673 52.0924C219.079 51.8004 219.206 51.0667 218.106 49.587L217.576 48.8744V47.034C217.576 45.3392 217.603 45.1558 217.916 44.7151C218.411 44.0175 219.008 43.8103 220.51 43.8148C221.179 43.8167 222.406 43.8982 223.237 43.9957C224.067 44.0932 224.95 44.1862 225.198 44.2023C225.487 44.2211 225.667 44.2994 225.7 44.4203C225.765 44.6658 225.509 44.6632 223.237 44.3955C220.063 44.0218 218.91 44.1281 218.393 44.8422C218.194 45.1179 218.153 45.5151 218.168 47.0143L218.189 48.849L218.739 49.6438C219.799 51.176 219.542 52.1 217.963 52.4277C217.505 52.5228 217.09 52.6468 217.041 52.703C216.992 52.7592 216.688 52.9016 216.365 53.0194C215.744 53.2458 214.869 53.2872 214.278 53.1181L214.277 53.1181ZM222.93 51.3738L223.032 49.9454L222.322 49.3723C221.765 48.9237 221.651 48.7716 221.796 48.6716C221.94 48.5722 222.139 48.6694 222.696 49.1096L223.411 49.6753L223.875 49.2713C224.236 48.9564 224.38 48.8955 224.525 48.9951C224.672 49.0957 224.608 49.2162 224.225 49.5616C223.957 49.8029 223.676 49.973 223.601 49.9395C223.52 49.904 223.463 50.4872 223.463 51.3405C223.463 52.7541 223.453 52.8022 223.146 52.8022C222.834 52.8022 222.83 52.7766 222.93 51.3738H222.93ZM221.597 47.68C221.296 47.6062 220.876 47.4641 220.662 47.3641C220.22 47.1573 219.384 46.2681 219.394 46.0163C219.397 45.9241 219.561 46.067 219.757 46.3339C219.953 46.6007 220.279 46.9301 220.483 47.0659L220.854 47.3127L220.784 46.7915C220.723 46.3443 220.771 46.222 221.112 45.9317C221.332 45.7456 221.662 45.5684 221.845 45.5381C222.029 45.5078 221.778 45.506 221.286 45.5342C220.795 45.5624 219.981 45.7041 219.479 45.8492C218.859 46.0278 218.515 46.0775 218.411 46.0033C218.22 45.8665 218.434 45.7637 219.538 45.46C220.687 45.1442 222.672 45.0684 223.765 45.2985C224.822 45.521 226.18 46.0744 226.18 46.2822C226.18 46.5141 226.012 46.4833 225.075 46.0804C224.263 45.7312 222.5 45.3686 222.302 45.5101C222.249 45.5481 222.335 45.5808 222.494 45.5827C223.347 45.5928 223.926 46.5786 223.452 47.2116C223.172 47.5851 223.806 47.2687 224.505 46.6856C224.844 46.4032 225.122 46.2241 225.123 46.2876C225.123 46.351 224.879 46.607 224.58 46.8564C223.688 47.6009 222.552 47.9145 221.597 47.6801L221.597 47.68ZM208.011 47.4745C207.266 47.2787 206.693 46.8849 206.268 46.2764C206.083 46.0115 205.904 45.7948 205.871 45.7948C205.838 45.7948 205.567 45.8779 205.269 45.9795C204.798 46.1401 204.708 46.1436 204.586 46.0065C204.475 45.8825 204.63 45.7868 205.312 45.5594C207.843 44.7143 210.438 44.9112 212.594 46.112C212.878 46.2698 212.929 46.353 212.799 46.4459C212.669 46.5389 212.528 46.5236 212.231 46.3844C211.836 46.1994 211.834 46.1998 211.216 46.7014C210.221 47.5091 209.137 47.7705 208.011 47.4745L208.011 47.4745ZM210.385 47.0758C210.985 46.7918 211.538 46.3072 211.538 46.0644C211.538 45.9828 210.32 45.5848 210.06 45.5816C209.915 45.5797 209.906 45.6317 210.023 45.7877C210.312 46.1741 210.209 46.8179 209.809 47.1267C209.318 47.5044 209.515 47.487 210.385 47.0758H210.385ZM207.624 47.0201C207.253 46.6837 207.223 46.2292 207.541 45.7895C207.764 45.4819 207.76 45.4717 207.428 45.4796C207.239 45.484 206.864 45.5449 206.594 45.6148L206.104 45.7418L206.42 46.1973C206.693 46.5919 207.617 47.3041 207.855 47.3041C207.9 47.3041 207.796 47.1763 207.623 47.0201L207.624 47.0201ZM203.791 44.7829C203.702 44.6173 205.233 44.0701 206.393 43.8531C207.521 43.642 209.504 43.689 210.898 43.9597C212.217 44.216 212.343 44.2687 212.154 44.486C212.062 44.5927 211.826 44.5714 211.07 44.388C209.111 43.9131 206.744 44.0174 204.834 44.6628C203.903 44.9774 203.896 44.9782 203.791 44.7829V44.7829ZM237.544 42.6111C238.889 42.0744 238.865 41.854 237.338 40.6863C236.441 40.0006 236.051 39.7939 234.959 39.4256C232.319 38.5355 228.904 37.8833 225.312 37.5839C223.962 37.4714 223.765 37.4291 223.765 37.2521C223.765 37.0169 223.747 37.0159 227.532 37.4556C230.204 37.7659 232.795 38.2943 234.596 38.8962L235.842 39.3125V37.1753V35.0382L234.653 34.5967C231.241 33.3289 226.149 32.5096 220.091 32.2539C219.013 32.2084 218.283 32.1315 218.252 32.0601C218.224 31.995 217.987 26.7993 217.726 20.5142C217.464 14.2291 217.226 9.03023 217.196 8.96116C217.166 8.89208 216.442 8.45993 215.585 8.00082C214.729 7.54172 213.952 7.12457 213.859 7.07384C213.73 7.0029 211.78 7.94729 210.809 8.55112C210.753 8.58646 211.186 27.2318 211.311 30.1133L211.395 32.0581L209.24 32.3042C206.508 32.6161 202.014 33.2377 200.442 33.521C198.319 33.9037 195.049 34.7026 194.504 34.9716C194.425 35.0108 194.971 38.4416 195.076 38.563C195.135 38.6312 195.673 38.5562 196.523 38.3615C197.267 38.1909 198.42 37.9716 199.084 37.8742C200.572 37.6557 201.081 37.4514 201.47 36.9153C202.138 35.9964 201.88 34.983 200.863 34.5296C200.383 34.3156 200.243 34.1112 200.499 33.9982C200.682 33.9174 201.557 34.3582 201.933 34.7212C202.156 34.9358 202.26 35.2269 202.298 35.7453C202.343 36.3527 202.29 36.5543 201.974 36.9948L201.597 37.52L202.303 37.4568C202.691 37.4221 203.994 37.3379 205.197 37.2698C206.401 37.2017 207.475 37.1277 207.582 37.1056C207.703 37.0807 207.565 36.9307 207.219 36.7144C206.075 35.9968 205.738 34.6691 206.474 33.7727C206.822 33.3481 207.682 32.9169 207.946 33.0337C208.196 33.1441 208.049 33.3499 207.622 33.4847C207.112 33.6459 206.556 34.3686 206.556 34.8704C206.556 35.8808 207.557 36.7082 209.014 36.9035C209.323 36.9449 209.575 37.0342 209.575 37.1021C209.575 37.3366 208.738 37.4721 206.862 37.5411C204.803 37.6168 201.654 37.8781 200.82 38.0426C200.529 38.0998 199.736 38.2176 199.058 38.3044C195.647 38.7406 192.973 39.8207 192.971 40.7639C192.97 40.9366 193.805 42.5458 193.948 42.648C193.977 42.669 194.941 42.4673 196.09 42.1997C202.993 40.5916 209.786 39.8925 217.349 40.0118C224.32 40.1218 229.929 40.8627 234.86 42.3252C235.857 42.6206 236.714 42.8672 236.766 42.8732C236.818 42.8792 237.168 42.7612 237.544 42.6111L237.544 42.6111ZM212.066 37.0737C210.841 36.6687 210.179 35.8793 210.179 34.8236C210.179 34.3228 210.262 34.1033 210.588 33.7447C210.978 33.3144 211.769 32.9223 212.022 33.0337C212.223 33.1226 212.154 33.3971 211.93 33.3971C211.59 33.3971 210.806 34.1153 210.698 34.5268C210.412 35.6139 211.503 36.7145 213.051 36.9012C213.419 36.9457 213.651 37.0324 213.651 37.1259C213.651 37.3443 212.8 37.3163 212.066 37.0737L212.066 37.0737ZM217.577 36.8199C217.576 36.6869 217.695 36.6313 217.981 36.6313C218.204 36.6313 218.684 36.5284 219.048 36.4026C220.798 35.7973 221.115 33.9197 219.582 33.2359C219.039 32.9937 218.935 32.7503 219.376 32.7503C219.786 32.7503 220.598 33.2681 220.842 33.6851C221.334 34.5261 220.933 35.9099 220.053 36.4038C219.578 36.6709 219.594 36.7391 220.132 36.7391C222.196 36.7391 223.591 34.7896 222.254 33.7733C221.987 33.5704 221.974 33.5191 222.162 33.408C222.506 33.2038 223.189 33.9179 223.277 34.5749C223.37 35.2693 223.097 35.8143 222.374 36.3741C221.599 36.9748 221.142 37.0701 219.193 37.0365C217.771 37.0119 217.578 36.9861 217.577 36.8199H217.577ZM227.841 36.6313C227.841 36.4714 227.942 36.4157 228.23 36.4157C228.666 36.4157 229.501 35.8869 229.501 35.6105C229.501 35.5143 229.332 35.3143 229.124 35.1661C228.735 34.8883 228.623 34.583 228.909 34.583C228.999 34.583 229.27 34.7248 229.513 34.8981C230.359 35.5019 229.882 36.4857 228.624 36.7353C227.875 36.8839 227.841 36.8794 227.841 36.6313L227.841 36.6313ZM214.915 35.5787C214.396 35.5189 213.892 35.0553 213.892 34.6369C213.892 33.7963 215.279 33.4031 216.121 34.0047C217.043 34.6628 216.225 35.7297 214.915 35.5787V35.5787ZM213.802 24.9343C213.802 24.8391 213.942 24.7716 214.142 24.7702C214.694 24.7664 215.672 24.3974 216.106 24.0284C216.693 23.5304 216.902 22.8971 216.679 22.293C216.491 21.7814 216.054 21.3687 215.589 21.2635C215.317 21.2017 215.187 20.7837 215.44 20.7837C215.761 20.7837 216.621 21.315 216.929 21.7033C217.582 22.5267 217.282 23.7953 216.274 24.4704C215.469 25.0092 213.802 25.3221 213.802 24.9343L213.802 24.9343ZM214.028 22.3829C212.513 21.787 211.976 20.5974 212.814 19.6934C213.217 19.2587 214.057 18.8098 214.282 18.9091C214.528 19.0179 214.395 19.2242 213.965 19.3989C213.395 19.6306 213.038 20.0281 212.945 20.5371C212.856 21.0254 213.292 21.5551 214.107 21.9475C214.837 22.2988 214.769 22.6743 214.028 22.3829H214.028ZM213.245 17.4334C212.573 17.126 212.112 16.4047 212.17 15.7518C212.204 15.379 212.285 15.2244 212.459 15.2008C212.658 15.1739 212.702 15.274 212.702 15.7551C212.702 16.545 213.147 17.0665 213.972 17.2429C214.499 17.3558 214.668 17.3431 215.341 17.1401C215.763 17.0128 216.167 16.9344 216.238 16.9659C216.512 17.087 216.344 17.2444 215.727 17.4446C214.878 17.7196 213.86 17.715 213.245 17.4335L213.245 17.4334ZM214.815 15.9055C214.777 15.8314 214.919 15.6374 215.132 15.4744C215.431 15.2452 215.533 15.0358 215.582 14.5505C215.638 13.9997 215.6 13.8845 215.267 13.6082C214.916 13.317 214.807 13.2928 213.809 13.2853C212.813 13.2778 212.696 13.252 212.265 12.9438C211.19 12.1761 211.825 10.5746 213.268 10.4135C213.754 10.3593 213.714 10.6935 213.219 10.827C212.288 11.0778 211.921 12.1326 212.588 12.6394C212.865 12.8504 213.103 12.8978 214.056 12.9321C215.109 12.9701 215.223 12.9981 215.621 13.316C215.857 13.5047 216.098 13.8412 216.157 14.0638C216.298 14.6016 215.997 15.3733 215.501 15.7438C215.062 16.0721 214.918 16.106 214.815 15.9055L214.815 15.9055ZM197.678 42.2714C197.569 42.2402 197.439 42.244 197.389 42.28C197.338 42.3158 197.428 42.3413 197.587 42.3366C197.763 42.3313 197.798 42.3059 197.678 42.2715L197.678 42.2714ZM200.065 41.8661C201.103 41.6638 201.85 41.495 201.725 41.4911C201.46 41.4827 198.083 42.107 197.975 42.1845C197.833 42.2858 198.192 42.2311 200.065 41.8661V41.8661ZM202.358 41.4089C202.249 41.3778 202.118 41.3816 202.068 41.4175C202.018 41.4534 202.107 41.4788 202.266 41.4742C202.442 41.4688 202.478 41.4434 202.358 41.409L202.358 41.4089ZM195.253 34.3272C197.897 33.4936 202.488 32.7044 209.184 31.9326L210.83 31.7429L210.736 28.6081C210.684 26.884 210.559 21.7742 210.457 17.2531C210.33 11.6223 210.222 9.03289 210.112 9.03299C210.024 9.03307 209.466 9.36053 208.872 9.76068L207.792 10.4882L207.918 14.9622C208.12 22.1559 208.104 24.8804 207.859 24.8804C207.641 24.8804 207.593 23.9027 207.367 14.7735C207.314 12.6241 207.219 10.8656 207.157 10.8656C207.024 10.8656 204.432 12.8538 203.219 13.885C197.837 18.4623 194.785 24.302 194.782 30.0281C194.781 31.0155 194.794 31.0259 195.839 30.8069C198.137 30.3246 202.695 29.8399 204.933 29.8396C205.872 29.8395 206.103 29.8714 206.103 30.0012C206.103 30.0901 205.984 30.1643 205.839 30.166C204.842 30.178 201.534 30.3949 200.216 30.5349C197.683 30.804 194.504 31.4028 194.069 31.6929C193.521 32.0581 193.272 32.4646 193.273 32.9875C193.275 33.5242 193.908 34.583 194.227 34.583C194.345 34.583 194.807 34.4679 195.253 34.3272L195.253 34.3272ZM202.027 24.1257V22.1852H201.348C200.845 22.1852 200.669 22.1433 200.669 22.0235C200.669 21.9037 200.845 21.8618 201.348 21.8618H202.027V20.9375C202.027 20.1154 202.056 20.0173 202.291 20.0493C202.513 20.0796 202.563 20.2282 202.599 20.9736L202.643 21.8618H203.166C203.529 21.8618 203.688 21.9109 203.688 22.0235C203.688 22.1365 203.528 22.1852 203.159 22.1852H202.631V24.1257C202.631 25.9944 202.621 26.0663 202.329 26.0663C202.038 26.0663 202.027 25.9944 202.027 24.1257V24.1257ZM226.897 31.8778C228.016 31.5738 227.124 30.9672 224.765 30.4285L223.726 30.1915L224.574 30.186C226.107 30.1761 226.952 29.8148 227.455 28.9535C228.369 27.3922 226.471 24.1213 223.81 22.6702L223.106 22.2864L223.948 22.3571C225.028 22.4478 226.191 22.2517 226.652 21.901C227.684 21.1171 226.35 19.4186 222.645 16.7968L221.048 15.6667L221.05 16.5272C221.052 17.0005 221.152 19.8134 221.273 22.7781C221.554 29.6918 221.554 29.7316 221.286 29.7316C220.969 29.7316 220.941 29.3207 220.6 19.5598C220.43 14.7065 220.255 10.6936 220.21 10.6423C220.081 10.4929 217.865 9.22064 217.809 9.26344C217.715 9.33467 218.738 31.6759 218.838 31.7476C218.893 31.7864 220.074 31.8783 221.464 31.9519C223.994 32.0858 226.243 32.0551 226.896 31.8777L226.897 31.8778ZM235.633 31.5626C235.911 31.3637 235.233 27.7157 234.551 25.748C233.012 21.3029 230.323 17.785 225.811 14.3154C224.7 13.4608 221.168 11.0812 221.011 11.0812C220.948 11.0812 220.897 11.4594 220.897 11.9217V12.7623L221.515 13.1885C223.576 14.61 226.654 17.3936 228.087 19.1322C230.494 22.0534 232.015 25.5075 232.444 29.0309C232.574 30.0936 232.98 30.7992 233.747 31.294C234.2 31.5865 234.463 31.6722 234.906 31.6722C235.221 31.6722 235.548 31.6229 235.633 31.5626L235.633 31.5626Z" fill="black" stroke="black" stroke-width="0.2"/>
</g>
<defs>
<clipPath id="clip0_1_9481">
<rect width="600" height="400" fill="white"/>
</clipPath>
</defs>
</svg>
