<svg width="600" height="400" viewBox="0 0 600 400" fill="none" xmlns="http://www.w3.org/2000/svg" xmlns:cgf="https://coding.garden/flags"><metadata id="cgf-metadata">

<cgf:flag>
  <cgf:name>Montfoort</cgf:name>
  <cgf:route>nl/ut/montfoort</cgf:route>
  <cgf:aspect-ratio>1.5</cgf:aspect-ratio>
</cgf:flag>

</metadata><g clip-path="url(#clip0_1_9504)">
<path d="M0.702855 0.838884L0 399.312L599.554 400.151L600.257 0L0.702855 0.838884Z" fill="#F9F9F9" stroke="black" stroke-width="0.0139515"/>
<path d="M195.383 196.622L156.058 46.9004L196.061 105.266L232.675 46.9004L195.383 196.622Z" fill="#FF0000" stroke="black" stroke-width="0.0168521"/>
<path d="M195.722 197.891L156.396 347.612L196.4 289.246L233.013 347.612L195.722 197.891Z" fill="#FF0000" stroke="black" stroke-width="0.0168521"/>
<path d="M196.739 197.456L36.7256 238.81L99.1038 196.743L36.7256 158.24L196.739 197.456Z" fill="#FF0000" stroke="black" stroke-width="0.0178655"/>
<path d="M192.672 197.456L352.686 238.81L290.307 196.743L352.686 158.24L192.672 197.456Z" fill="#FF0000" stroke="black" stroke-width="0.0178655"/>
<path d="M76.0513 39.9219L75.3733 77.3522H90.2899C96.2849 118.284 125.465 156.505 160.127 194.084L156.058 198.525L159.449 201.697C133.873 231.158 106.565 253.813 89.6119 317.16L74.6953 317.795V355.225L133.684 354.591C139.879 311.028 136.816 267.465 182.501 223.902L194.706 235.956L208.944 223.267C239.606 249.516 255.351 294.084 257.084 355.86H316.073L314.717 317.795H301.834C289.155 269.099 261.74 232.937 229.285 201.063L233.353 197.256L230.641 194.084C265.719 160.408 287.061 121.377 300.478 79.2555L316.073 78.6211L316.751 39.9219L256.406 40.5563C254.249 111.591 234.279 149.293 206.91 173.149L194.028 159.192L181.823 169.977C156.412 149.992 137.48 113.839 133.684 39.9219H76.0513V39.9219Z" fill="black" stroke="black" stroke-width="0.0168521"/>
<path d="M195.066 183.328L180.653 197.418L194.126 211.786L209.323 197.836L195.066 183.328V183.328Z" fill="#F9F9F9" stroke="black" stroke-width="0.0151942"/>
<path d="M191.215 187.012L195.067 197.557L198.67 186.815L195.057 183.278L191.215 187.012Z" fill="#FF0000" stroke="black" stroke-width="0.0151942"/>
<path d="M198.002 208.21L195.036 197.518L190.547 208.013L194.104 211.796L198.002 208.21V208.21Z" fill="#FF0000" stroke="black" stroke-width="0.0151942"/>
<path d="M205.895 194.235L195.062 197.517L205.694 201.17L209.381 197.805L205.895 194.235V194.235Z" fill="#FF0000" stroke="black" stroke-width="0.0144689"/>
<path d="M184.119 201.12L195.062 197.444L184.154 193.988L180.522 197.452L184.119 201.12Z" fill="#FF0000" stroke="black" stroke-width="0.0144689"/>
</g>
<defs>
<clipPath id="clip0_1_9504">
<rect width="600" height="400" fill="white"/>
</clipPath>
</defs>
</svg>
