<svg width="600" height="400" viewBox="0 0 600 400" fill="none" xmlns="http://www.w3.org/2000/svg" xmlns:cgf="https://coding.garden/flags"><metadata id="cgf-metadata">

<cgf:flag>
  <cgf:name>Oudewater</cgf:name>
  <cgf:route>nl/ut/oudewater</cgf:route>
  <cgf:aspect-ratio>1.5</cgf:aspect-ratio>
</cgf:flag>

</metadata><g clip-path="url(#clip0_1_9811)">
<path d="M600 0H0V400H600V0Z" fill="#CC112F"/>
<path d="M0 360C22.2222 333.333 44.4444 333.333 66.6667 360C88.8889 386.667 111.111 386.667 133.333 360C155.556 333.333 177.778 333.333 200 360C222.222 386.667 244.444 386.667 266.667 360C288.889 333.333 311.111 333.333 333.333 360C355.556 386.667 377.778 386.667 400 360C422.222 333.333 444.444 333.333 466.667 360C488.889 386.667 511.111 386.667 533.333 360C555.556 333.333 577.778 333.333 600 360C622.222 386.667 644.444 386.667 666.667 360V600H0" fill="white"/>
<path d="M-33.333 40C-11.1108 66.6667 11.1114 66.6667 33.3337 40C55.5559 13.3333 77.7781 13.3333 100 40C122.223 66.6667 144.445 66.6667 166.667 40C188.889 13.3333 211.111 13.3333 233.334 40C255.556 66.6667 277.778 66.6667 300 40C322.223 13.3333 344.445 13.3333 366.667 40C388.889 66.6667 411.111 66.6667 433.334 40C455.556 13.3333 477.778 13.3333 500 40C522.223 66.6667 544.445 66.6667 566.667 40C588.889 13.3333 611.111 13.3333 633.334 40V-200H-33.333" fill="white"/>
<path d="M200 320L320 200L200 80L80 200L200 320Z" fill="white"/>
<path d="M200.001 273.333C206.667 261.11 237.779 273.333 241.667 259.444C245.556 245.555 208.89 227.777 218.334 218.333L188.89 166.666L200.001 273.333Z" fill="#CC112F"/>
<path d="M200 273.333C193.334 261.11 162.222 273.333 158.334 259.444C154.445 245.555 191.111 227.777 181.667 218.333L211.111 166.666L200 273.333Z" fill="#CC112F"/>
<path d="M126.667 200C138.89 206.666 126.667 237.778 140.556 241.666C154.445 245.555 172.223 208.889 181.667 218.333L233.334 188.889L126.667 200Z" fill="#CC112F"/>
<path d="M126.667 199.999C138.89 193.333 126.667 162.221 140.556 158.333C154.445 154.444 172.223 191.11 181.667 181.666L233.334 211.11L126.667 199.999Z" fill="#CC112F"/>
<path d="M200 126.667C193.334 138.89 162.222 126.667 158.334 140.556C154.445 154.445 191.111 172.223 181.667 181.667L211.111 233.334L200 126.667Z" fill="#CC112F"/>
<path d="M200.001 126.667C206.667 138.89 237.779 126.667 241.667 140.556C245.556 154.445 208.89 172.223 218.334 181.667L188.89 233.334L200.001 126.667Z" fill="#CC112F"/>
<path d="M273.334 200C261.111 193.334 273.334 162.222 259.445 158.334C245.556 154.445 227.778 191.111 218.334 181.667L166.667 211.111L273.334 200Z" fill="#CC112F"/>
<path d="M273.334 200.001C261.111 206.667 273.334 237.779 259.445 241.667C245.556 245.556 227.778 208.89 218.334 218.334L166.667 188.89L273.334 200.001Z" fill="#CC112F"/>
<path d="M200 210.778C205.953 210.778 210.778 205.953 210.778 200C210.778 194.048 205.953 189.223 200 189.223C194.048 189.223 189.223 194.048 189.223 200C189.223 205.953 194.048 210.778 200 210.778Z" fill="white"/>
</g>
<defs>
<clipPath id="clip0_1_9811">
<rect width="600" height="400" fill="white"/>
</clipPath>
</defs>
</svg>
