<svg width="600" height="400" viewBox="0 0 600 400" fill="none" xmlns="http://www.w3.org/2000/svg" xmlns:cgf="https://coding.garden/flags"><metadata id="cgf-metadata">

<cgf:flag>
  <cgf:name>Utrechtse Heuvelrug</cgf:name>
  <cgf:route>nl/ut/utrechtse_heuvelrug</cgf:route>
  <cgf:aspect-ratio>1.5</cgf:aspect-ratio>
</cgf:flag>

</metadata><g clip-path="url(#clip0_1_9855)">
<path d="M600 0H0V400H600V0Z" fill="#FCDD09"/>
<path d="M177.511 0H0V158.41H177.511V0Z" fill="#101010"/>
<path d="M600 240.979H257.473V400H600V240.979Z" fill="#DA121A"/>
<path d="M177.511 240.979H0V400H177.511V240.979Z" fill="#DA121A"/>
<path d="M600 0H257.473V158.41H600V0Z" fill="#DA121A"/>
<path d="M85.6327 87.1582C67.4924 94.5094 49.4915 101.873 60.2267 111.68C64.0651 116.527 60.8569 122.474 54.3313 122.324C49.9438 114.597 43.6512 125.044 49.1378 126.096C43.9867 126.624 43.2727 135.179 48.9734 135.054C47.5163 140.286 56.0411 144.925 58.823 137.953L64.4376 142.399L63.7358 134.989C67.0904 135.918 69.8744 136.3 68.7889 132.968C73.5869 134.725 76.4561 134.703 74.4035 130.138C78.5713 130.92 81.5682 130.702 81.0007 127.444C83.5542 127.998 86.0244 128.461 85.2116 125.288C85.9291 124.405 88.439 124.505 90.9666 124.614C92.8991 120.611 90.6279 113.819 84.7905 114.509C78.5562 114.531 79.7213 109.292 86.4749 108.985C95.2284 108.299 98.8621 106.168 103.319 104.269L100.371 93.2212L85.6327 87.1582Z" fill="white" stroke="black" stroke-width="0.554437"/>
<path d="M69.5112 44.9136C61.6362 38.4353 47.7547 32.4811 45.8889 25.4783C50.0989 18.2913 34.7606 19.5099 38.2465 25.002C34.7838 23.3427 31.4815 28.201 34.8719 29.9561C29.4226 30.1457 32.3177 40.9713 36.5591 37.3872C35.1123 38.9424 33.0936 40.2624 33.3831 42.5318C42.6504 38.9751 47.1259 46.4294 38.048 46.4379C41.4782 48.7853 45.3074 48.8348 49.2636 48.1528C49.8664 52.1674 52.6614 54.6788 55.0202 57.4894L69.5112 44.9136Z" fill="white" stroke="black" stroke-width="0.554437"/>
<path d="M60.3829 63.2273L47.2786 80.4494C44.493 83.2026 41.2869 83.5041 39.4376 81.5927C34.0784 75.783 30.7356 83.7522 35.269 84.8319C30.5041 85.6628 30.9893 94.2901 36.063 92.7394C34.0904 98.0042 48.9243 102.885 47.0801 93.5016C56.1501 94.4319 61.2819 87.8019 66.7322 81.7832C72.8284 75.7984 78.2354 83.4875 83.8037 87.9758L95.7141 98.3604C96.1544 107.048 96.9762 115.668 114.076 121.368C119.843 124.505 117.822 126.964 113.679 125.894C107.785 126.768 110.477 131.161 113.58 133.896C113.239 137.47 117.741 140.281 120.527 139.136C126.871 147.044 135.112 141.877 135.912 132.848C139.337 132.492 142.406 131.964 138.492 128.085C138.223 124.165 141.523 123.916 143.653 122.464C141.792 120.567 139.367 119.552 136.011 119.987C141.588 116.536 136.79 115.234 131.941 114.175C133.442 111.883 137.892 111.948 141.47 111.317C139.852 109.777 138.261 108.217 134.82 108.078C134.608 103.033 130.329 101.39 128.17 105.315C128.068 103.565 128.351 101.882 126.284 99.7894C124.136 107.087 119.024 109.064 119.634 99.4084C134.973 90.6447 128.025 77.6726 121.818 66.5399C120.09 61.059 119.231 56.3284 121.222 54.0594C121.226 54.0184 125.44 56.512 127.078 51.2013C128.43 48.7967 129.204 46.0984 136.706 46.8188C133.788 44.3451 130.858 42.0215 127.574 43.7701C129.18 40.5627 128.441 37.3552 124.994 34.1478C124.652 29.0338 122.05 25.6881 116.656 24.5254C119.032 28.0269 121.473 31.5373 118.741 34.3383C114.892 38.1486 115.014 42.7861 115.366 45.1039C112.314 43.008 112.977 40.912 112.091 38.816C110.122 42.9563 108.92 48.2578 113.877 53.8688C112.55 60.2684 114.156 67.0434 118.443 74.1616C125.615 88.6848 112.755 95.1316 106.83 87.2137L91.9425 57.2986L79.0396 53.583L60.3829 63.2273Z" fill="white" stroke="black" stroke-width="0.554437"/>
<path d="M90.9493 36.1493C86.5056 35.461 84.6271 34.1572 75.3666 34.6249C68.9633 34.8855 64.8345 32.8206 63.2577 28.1465C60.1671 40.9588 76.5644 40.2925 88.071 43.0088L90.9493 36.1493Z" fill="#FCDD09" stroke="black" stroke-width="0.554437"/>
<path d="M54.7525 62.8389C50.6601 66.7057 49.8131 71.8704 50.1907 77.5249C53.7757 75.1244 57.6379 73.3286 59.2442 66.6115C59.4874 70.6984 61.1537 74.7853 64.0166 78.8722C64.1253 76.813 62.7815 75.0062 67.9468 72.0682C73.3908 69.6872 72.9156 66.123 73.9124 62.3674C74.4769 65.4213 74.1815 68.4753 77.5618 71.5293C77.8464 69.3689 78.4837 67.2462 80.4393 65.2642C83.2436 62.6598 83.8567 60.2783 84.2292 57.9212C84.326 61.6937 86.3362 65.4663 88.6507 69.2388C89.1693 66.7274 89.7178 64.216 93.1621 61.7046C96.4173 60.4264 96.9724 57.6903 97.2831 54.8223C97.9144 57.1468 99.7847 58.0839 101.494 59.2011C101.126 54.6702 101.509 50.5624 104.301 47.8162C105.486 45.2726 105.83 42.5676 105.144 39.6648C113.291 33.9585 106.45 30.0324 105.144 28.4819C94.5897 18.6573 74.8298 17.8009 85.4223 26.1914C84.7776 27.3882 83.7325 25.7432 82.1624 23.3782C81.145 21.8459 78.9461 21.3002 75.3862 21.9473C67.9251 23.2167 68.4744 32.7601 77.0706 31.5134C83.9244 28.9025 92.6236 37.4966 84.6503 40.8774C80.6858 40.866 72.2974 37.5181 73.0702 41.0795L72.7894 43.1679C69.588 41.8906 66.6053 43.5539 63.6657 45.7952C59.6547 48.6378 56.2244 48.2953 53.1383 46.0646C52.042 47.8736 52.646 51.3287 54.542 51.9929C53.6518 53.3437 51.2914 53.7966 48.3516 53.8955C44.5926 54.2526 41.996 55.1168 40.2949 56.3717C42.0454 56.7452 43.8781 56.9806 44.9068 58.5666C46.2845 60.2924 47.4473 60.162 48.6466 60.3464C45.0127 64.956 45.4803 70.2218 48.5765 75.9081C48.9543 70.5529 50.4611 65.8686 54.7525 62.8389V62.8389Z" fill="white" stroke="black" stroke-width="0.554437"/>
<path d="M93.2822 29.29C102.596 35.9006 98.6784 38.0163 97.0721 40.2708" stroke="black" stroke-width="0.554437" stroke-linecap="round"/>
<path d="M67.7354 51.5207C72.2269 45.7662 79.0879 43.992 87.3163 44.5146" stroke="black" stroke-width="0.554437" stroke-linecap="round"/>
<path d="M72.7542 43.2354C72.6732 44.7079 73.1129 45.8556 74.8948 46.1658" stroke="black" stroke-width="0.554437"/>
<path d="M86.4747 20.3301C80.4814 7.80071 83.6984 -2.49531 91.8086 17.9049C100.414 1.74954 102.005 10.3803 101.424 21.7448C109.62 13.9007 121.917 20.042 110.968 22.6879C108.858 23.5733 106.813 24.9284 105.073 28.4815C101.026 24.8856 94.9421 21.1985 86.4747 20.3301V20.3301Z" fill="#FCDD09" stroke="black" stroke-width="0.554437"/>
<path d="M49.5582 119.561C46.8518 118.27 39.8287 118.328 38.2588 122.862C42.3001 122.578 44.7833 123.623 47.172 124.748C50.1854 123.951 50.1579 120.963 49.5582 119.561Z" fill="#FCDD09" stroke="black" stroke-width="0.554437"/>
<path d="M35.5842 79.2903C32.6783 78.4937 25.7834 79.7772 25.0996 84.5103C29.0195 83.5245 31.6594 84.1182 34.2216 84.8078C37.0334 83.4969 36.4397 80.5638 35.5842 79.2903Z" fill="#FCDD09" stroke="black" stroke-width="0.554437"/>
<path d="M33.503 86.8486C30.5024 87.1947 24.6637 90.9415 25.9432 95.5594C29.1593 93.1931 31.8327 92.759 34.4731 92.4421C36.5364 90.1881 34.8055 87.7046 33.503 86.8486Z" fill="#FCDD09" stroke="black" stroke-width="0.554437"/>
<path d="M37.5487 93.9865C35.4284 96.0536 33.3 102.478 37.3012 105.321C38.277 101.546 40.0843 99.606 41.942 97.7772C42.0898 94.7801 39.123 93.8755 37.5487 93.9865V93.9865Z" fill="#FCDD09" stroke="black" stroke-width="0.554437"/>
<path d="M47.234 128.169C44.2167 128.005 37.7843 130.712 38.2009 135.473C41.7993 133.685 44.5106 133.707 47.168 133.839C49.6109 131.967 48.3602 129.231 47.234 128.169H47.234Z" fill="#FCDD09" stroke="black" stroke-width="0.554437"/>
<path d="M50.685 135.464C48.3905 137.352 45.7047 143.581 49.4415 146.738C50.7459 143.055 52.7173 141.269 54.7293 139.597C55.1402 136.623 52.2635 135.481 50.685 135.464V135.464Z" fill="#FCDD09" stroke="black" stroke-width="0.554437"/>
<path d="M111.951 127.471C108.956 127.863 103.181 131.698 104.537 136.296C107.713 133.881 110.379 133.406 113.014 133.049C115.039 130.763 113.267 128.307 111.951 127.471Z" fill="#FCDD09" stroke="black" stroke-width="0.554437"/>
<path d="M116.11 132.683C113.457 134.072 109.483 139.631 112.456 143.464C114.528 140.121 116.843 138.766 119.172 137.532C120.217 134.704 117.65 133.014 116.11 132.683Z" fill="#FCDD09" stroke="black" stroke-width="0.554437"/>
<path d="M123.294 137.32C121.005 139.214 118.334 145.449 122.079 148.597C123.374 144.912 125.341 143.12 127.349 141.444C127.752 138.469 124.873 137.334 123.294 137.32V137.32Z" fill="#FCDD09" stroke="black" stroke-width="0.554437"/>
<path d="M43.4105 20.4433C41.3726 18.3012 34.8021 15.9197 31.6318 19.6039C35.5074 20.7398 37.4297 22.5752 39.2335 24.453C42.3437 24.7539 43.4423 21.9583 43.4105 20.4433Z" fill="#FCDD09" stroke="black" stroke-width="0.554437"/>
<path d="M37.4879 24.6059C35.193 22.7183 28.3689 21.1239 25.6904 25.1517C29.6814 25.8254 31.8226 27.4221 33.8515 29.0747C36.9767 29.0093 37.7119 26.1058 37.4879 24.6059Z" fill="#FCDD09" stroke="black" stroke-width="0.554437"/>
<path d="M33.9097 31.156C31.2034 29.865 24.1803 29.9223 22.6104 34.4569C26.6517 34.1725 29.1349 35.2175 31.5235 36.3432C34.537 35.5455 34.5094 32.5576 33.9097 31.156Z" fill="#FCDD09" stroke="black" stroke-width="0.554437"/>
</g>
<defs>
<clipPath id="clip0_1_9855">
<rect width="600" height="400" fill="white"/>
</clipPath>
</defs>
</svg>
