<svg width="600" height="400" viewBox="0 0 600 400" fill="none" xmlns="http://www.w3.org/2000/svg" xmlns:cgf="https://coding.garden/flags"><metadata id="cgf-metadata">

<cgf:flag>
  <cgf:name>Veenendaal</cgf:name>
  <cgf:route>nl/ut/veenendaal</cgf:route>
  <cgf:aspect-ratio>1.5</cgf:aspect-ratio>
</cgf:flag>

</metadata><g clip-path="url(#clip0_1_9883)">
<path d="M600 0H0V400H600V0Z" fill="black"/>
<path d="M600 150H0V250H600V150Z" fill="#0039A6"/>
<path d="M600 98.9119V47.8008H581.075H562.15L557.693 37.8008L553.237 27.8008H540.124H527.012L522.117 37.8008L517.222 47.8008H491.893H466.564L461.669 37.8008L456.775 27.8008H443.759H430.743L425.848 37.8008L420.954 47.8008H395.364H369.773L365.926 37.8008L362.078 27.8008H348.015H333.952L330.105 37.8008L326.257 47.8008H300H273.743L269.895 37.8008L266.048 27.8008H251.985H237.922L234.074 37.8008L230.227 47.8008H204.636H179.046L174.152 37.8008L169.257 27.8008H156.241H143.225L138.331 37.8008L133.436 47.8008H108.107H82.7776L77.883 37.8008L72.9884 27.8008H59.8757H46.7631L42.3067 37.8008L37.8502 47.8008H18.9251H0V98.9119V150.023H300H600V98.9119Z" fill="#FCCC00"/>
<path d="M0 301.116V352.227H18.9251H37.8502L42.3067 362.227L46.7632 372.227H59.8758H72.9884L77.883 362.227L82.7777 352.227H108.107H133.436L138.331 362.227L143.225 372.227H156.241H169.257L174.152 362.227L179.046 352.227H204.636H230.227L234.074 362.227L237.922 372.227H251.985H266.048L269.895 362.227L273.743 352.227H300H326.257L330.105 362.227L333.952 372.227H348.015H362.078L365.926 362.227L369.773 352.227H395.364H420.954L425.848 362.227L430.743 372.227H443.759H456.775L461.669 362.227L466.564 352.227H491.893H517.222L522.117 362.227L527.012 372.227H540.124H553.237L557.693 362.227L562.15 352.227H581.075H600V301.116V250.005H300H0V301.116Z" fill="#FCCC00"/>
</g>
<defs>
<clipPath id="clip0_1_9883">
<rect width="600" height="400" fill="white"/>
</clipPath>
</defs>
</svg>
