<svg width="600" height="400" viewBox="0 0 600 400" fill="none" xmlns="http://www.w3.org/2000/svg" xmlns:cgf="https://coding.garden/flags"><metadata id="cgf-metadata">

<cgf:flag>
  <cgf:name>Wijk bij Duurstede</cgf:name>
  <cgf:route>nl/ut/wijk_bij_duurstede</cgf:route>
  <cgf:aspect-ratio>1.5</cgf:aspect-ratio>
</cgf:flag>

</metadata><g clip-path="url(#clip0_1_9897)">
<path d="M600 200.922H0V400H600V200.922Z" fill="#FFFF00"/>
<path d="M600 0H0V200.922H600V0Z" fill="#FF0033"/>
<path d="M138.037 167.113C138.037 166.61 135.176 164.428 131.679 162.263C127.953 159.957 124.384 155.735 123.06 152.067L120.8 145.807L117.706 152.627C115.905 156.598 112.01 160.869 108.38 162.853L102.147 166.26L108.351 161.163C117.41 153.72 119.589 146.731 119.931 124.022L120.229 104.147L121.418 124.424C123.031 151.916 128.226 161.483 143.951 165.919C155.88 169.284 172.451 159.398 176.75 146.352C179.226 138.838 175.194 129.774 168.189 127.106C153.689 121.585 141.765 139.939 152.269 151.613C155.756 155.488 153.05 155.881 148.051 152.226C144.948 149.956 144.401 146.87 143.886 128.723C143.345 109.673 143.629 107.475 147.107 103.763C151.794 98.7605 151.797 98.4844 147.239 93.5842C144.074 90.1818 143.558 87.0792 143.558 71.4499C143.558 52.6337 146.439 42.396 151.735 42.396C153.717 42.396 153.456 43.9582 150.58 49.3084C145.854 58.1027 148.096 65.0698 157.025 69.3342C162.65 72.0207 163.719 72.0277 168.771 69.4113C171.827 67.8282 175.368 64.0194 176.638 60.9474C178.675 56.0218 178.434 54.3272 174.597 46.6056C164.304 25.8948 137.071 25.0783 126.411 45.1609C123.399 50.8353 122.24 57.206 121.383 72.8107L120.268 93.0872L119.95 73.0893C119.596 50.8523 117.299 43.5671 108.228 35.9229C105.234 33.4001 103.786 31.336 105.01 31.336C108.662 31.336 119.629 44.1867 119.672 48.518C119.701 51.3663 120.745 50.2562 123.263 44.7001C125.216 40.3913 127.476 36.8475 128.284 36.825C129.093 36.8025 131.825 35.1099 134.356 33.0639L138.957 29.3438L112.27 30.1495C80.3954 31.112 75.1342 32.6995 68.9833 43.2113C61.8515 55.3996 62.9501 64.5513 72.1149 69.2979C76.4849 71.5612 78.7465 71.697 83.8692 70.0038C93.7341 66.7431 96.6212 57.8693 91.2021 47.4651C89.75 44.677 89.3197 42.3959 90.2459 42.3959C91.1722 42.3959 93.1936 44.8432 94.738 47.8344C98.318 54.7679 98.5973 87.2386 95.1352 94.0088C93.2181 97.7577 93.2211 99.4765 95.1518 103.225C98.2626 109.268 98.3121 143.091 95.219 149.163C93.9686 151.617 91.7859 154.009 90.3686 154.478C88.385 155.134 88.4909 154.33 90.8287 150.987C94.439 145.825 94.6962 136.733 91.3566 132.33C85.5201 124.636 72.2526 124.179 67.1356 131.496C59.6611 142.184 68.0521 159.467 83.2519 164.691C89.3016 166.77 138.037 168.925 138.037 167.113H138.037V167.113ZM341.425 162.789C348.658 158.981 357.055 147.442 357.055 141.31C357.055 130.298 345.101 122.863 335.44 127.866C325.916 132.799 323.839 143.592 330.871 151.613C334.394 155.63 330.794 155.923 326.819 151.942C322.7 147.817 322.59 106.67 326.687 102.567C328.206 101.046 329.448 99.2689 329.448 98.6172C329.448 97.9654 328.206 96.1879 326.687 94.6672C322.654 90.6278 322.737 52.2903 326.792 46.4927C331.465 39.8107 333.127 41.831 329.108 49.3084C324.487 57.9062 326.521 64.7485 335.003 69.1415C346.297 74.9909 359.511 65.0333 356.382 53.0308C351.414 33.9746 330.302 24.8107 314.253 34.7445C304.355 40.8711 301.174 49.3063 299.897 72.8107L298.796 93.0872L298.468 75.5757C298.056 53.6466 295.724 45.1177 288.031 37.4133C284.694 34.0708 282.791 31.3361 283.804 31.3361C286.783 31.3361 298.16 43.6061 298.16 46.8199C298.16 51.9232 301.006 50.0316 303.43 43.3176C304.712 39.7692 306.327 36.8476 307.021 36.825C307.715 36.8025 310.353 35.11 312.883 33.0639L317.485 29.3438L290.78 30.038C262.811 30.7652 258.915 31.7309 249.87 40.1791C239.784 49.5992 241.609 66.2584 253.145 70.0713C268.271 75.071 279.037 56.687 267.657 45.2898C265.121 42.7498 265.109 42.396 267.556 42.396C269.089 42.396 271.633 44.2395 273.209 46.4927C277.103 52.0613 277.327 89.7443 273.497 94.9904C271.288 98.0157 271.288 99.0461 273.497 102.204C275.348 104.852 276.066 111.869 276.045 127.138C276.016 149.242 275.492 151.536 270.005 153.566C266.939 154.7 266.905 154.491 269.545 150.717C278.089 138.499 267.077 122.558 253.249 127.129C240.492 131.345 239.749 148.209 251.837 159.165C259.347 165.972 268.025 167.334 301.727 166.996C330.662 166.706 334.822 166.265 341.425 162.789V162.789ZM287.428 160.141C295.703 152.325 298.052 144.122 298.448 121.659L298.757 104.147L300.022 124.424C301.465 147.559 303.112 152.766 311.494 160.7L317.485 166.371L311.557 163.004C307.904 160.929 304.452 156.77 302.563 152.169L299.497 144.7L298.036 149.887C296.146 156.596 293.29 159.936 286.389 163.51C280.839 166.385 280.847 166.357 287.428 160.141V160.141ZM520.902 162.983C533.499 155.614 539.213 140.574 532.865 131.496C527.748 124.179 514.481 124.636 508.644 132.33C505.304 136.733 505.562 145.825 509.172 150.987C511.51 154.33 511.616 155.134 509.632 154.478C504.534 152.792 502.508 144.769 502.481 126.154C502.458 110.132 502.955 107.068 506.135 103.65C510.548 98.9064 510.866 95.8522 506.947 95.8522C505.368 95.8522 504.554 95.08 505.136 94.1362C505.718 93.1924 505.353 91.8992 504.324 91.2625C501.231 89.3473 501.99 54.1716 505.262 47.8344C506.806 44.8432 508.828 42.396 509.754 42.396C510.68 42.396 510.25 44.6771 508.798 47.4651C503.379 57.8694 506.266 66.7431 516.131 70.0038C521.254 71.697 523.515 71.5612 527.885 69.298C537.061 64.5459 538.148 55.3995 530.993 43.1706C524.103 31.3954 516.816 29.6684 475.767 30.0812C436.826 30.4728 432.751 31.818 425.345 46.7265C421.18 55.1109 421.094 55.9366 423.795 61.6088C427.817 70.0558 435.812 73.1361 443.448 69.181C452.003 64.7503 454.053 57.9291 449.42 49.3084C446.544 43.9582 446.283 42.396 448.265 42.396C453.507 42.396 456.442 52.6396 456.442 70.9407C456.442 84.3687 455.701 89.7406 453.356 93.3256C450.458 97.755 450.469 98.4123 453.529 104.105C456.208 109.085 456.676 113.685 456.155 129.889C455.61 146.848 455.021 149.978 451.949 152.225C446.95 155.881 444.243 155.488 447.731 151.613C452.612 146.188 453.17 139.703 449.295 133.423C442.941 123.126 429.821 123.739 424.216 134.596C420.551 141.694 422.779 150.029 430.257 157.198C439.907 166.447 445.305 167.492 481.338 167.089C510.931 166.758 515.206 166.315 520.902 162.983V162.983V162.983ZM465.087 161.751C474.425 155.111 477.283 147.202 478.579 124.424L479.732 104.147L480.05 124.022C480.414 146.74 482.607 153.755 491.649 161.119L497.853 166.171L491.727 163.147C487.774 161.197 484.419 157.482 482.271 152.677L478.942 145.23L476.777 151.799C475.444 155.847 472.277 159.815 468.531 162.134C460.329 167.211 457.804 166.93 465.087 161.751V161.751ZM478.836 74.654C478.441 53.4961 473.641 39.7798 465.02 35.1735C462.33 33.7357 460.464 32.223 460.875 31.8118C463.129 29.5542 473.678 37.9672 476.495 44.269L479.695 51.4275L481.971 45.1242C484.205 38.9384 491.802 31.3361 495.75 31.3361C496.851 31.3361 495.957 32.5952 493.763 34.1342C483.658 41.2228 481.353 47.4994 480.235 70.9674L479.181 93.0872L478.836 74.654Z" fill="white"/>
</g>
<defs>
<clipPath id="clip0_1_9897">
<rect width="600" height="400" fill="white"/>
</clipPath>
</defs>
</svg>
