<svg width="600" height="400" viewBox="0 0 600 400" fill="none" xmlns="http://www.w3.org/2000/svg" xmlns:cgf="https://coding.garden/flags"><metadata id="cgf-metadata">

<cgf:flag>
  <cgf:name>Woerden</cgf:name>
  <cgf:route>nl/ut/woerden</cgf:route>
  <cgf:aspect-ratio>1.5</cgf:aspect-ratio>
</cgf:flag>

</metadata><g clip-path="url(#clip0_1_9903)">
<path d="M600 0H0V400H600V0Z" fill="#FCDD09"/>
<path d="M600 158.525H0V239.631H600V158.525Z" fill="white"/>
<path fill-rule="evenodd" clip-rule="evenodd" d="M15.0115 158.525L0 183.007V186.175H45.7822L62.8067 158.525H15.0115V158.525Z" fill="#0F47AF"/>
<path fill-rule="evenodd" clip-rule="evenodd" d="M0 211.981V239.631H12.941L29.9655 211.981H0Z" fill="#0F47AF"/>
<path fill-rule="evenodd" clip-rule="evenodd" d="M45.803 186.175L29.9502 211.981H77.7021L93.5539 186.175H45.803V186.175Z" fill="#0F47AF"/>
<path fill-rule="evenodd" clip-rule="evenodd" d="M110.54 158.525L93.5557 186.175H141.308L158.292 158.525H110.54Z" fill="#0F47AF"/>
<path fill-rule="evenodd" clip-rule="evenodd" d="M77.7037 211.982L60.7197 239.632H108.472L125.455 211.981L77.7037 211.982V211.982Z" fill="#0F47AF"/>
<path fill-rule="evenodd" clip-rule="evenodd" d="M141.309 186.175L125.456 211.981H173.208L189.06 186.175H141.309Z" fill="#0F47AF"/>
<path fill-rule="evenodd" clip-rule="evenodd" d="M206.045 158.525L189.062 186.175H236.813L253.797 158.525H206.045Z" fill="#0F47AF"/>
<path fill-rule="evenodd" clip-rule="evenodd" d="M173.21 211.982L156.226 239.632H203.978L220.961 211.981L173.21 211.982V211.982Z" fill="#0F47AF"/>
<path fill-rule="evenodd" clip-rule="evenodd" d="M236.814 186.175L220.961 211.981H268.713L284.564 186.175H236.814V186.175Z" fill="#0F47AF"/>
<path fill-rule="evenodd" clip-rule="evenodd" d="M301.55 158.525L284.566 186.175H332.318L349.302 158.525H301.55V158.525Z" fill="#0F47AF"/>
<path fill-rule="evenodd" clip-rule="evenodd" d="M268.715 211.982L251.731 239.632H299.483L316.467 211.981L268.715 211.982Z" fill="#0F47AF"/>
<path fill-rule="evenodd" clip-rule="evenodd" d="M332.32 186.175L316.467 211.981H364.219L380.071 186.175H332.32V186.175Z" fill="#0F47AF"/>
<path fill-rule="evenodd" clip-rule="evenodd" d="M397.056 158.525L380.072 186.175H427.824L444.808 158.525H397.056Z" fill="#0F47AF"/>
<path fill-rule="evenodd" clip-rule="evenodd" d="M364.22 211.982L347.236 239.632H394.988L411.972 211.981L364.22 211.982Z" fill="#0F47AF"/>
<path fill-rule="evenodd" clip-rule="evenodd" d="M427.825 186.175L411.973 211.981H459.724L475.576 186.175H427.825Z" fill="#0F47AF"/>
<path fill-rule="evenodd" clip-rule="evenodd" d="M492.561 158.525L475.577 186.175H523.329L540.313 158.525H492.561Z" fill="#0F47AF"/>
<path fill-rule="evenodd" clip-rule="evenodd" d="M459.726 211.982L442.742 239.632H490.494L507.477 211.981L459.726 211.982V211.982Z" fill="#0F47AF"/>
<path fill-rule="evenodd" clip-rule="evenodd" d="M523.33 186.175L507.478 211.981H555.23L571.081 186.175H523.33V186.175Z" fill="#0F47AF"/>
<path fill-rule="evenodd" clip-rule="evenodd" d="M588.094 158.525L571.069 186.175H600V158.525H588.094Z" fill="#0F47AF"/>
<path fill-rule="evenodd" clip-rule="evenodd" d="M555.253 211.981L538.229 239.631H586.024L600 216.878V211.981H555.253V211.981Z" fill="#0F47AF"/>
<path d="M440.704 287.344L461.252 260.03L482.257 287.344L461.252 316.934L440.704 287.344Z" fill="#DA131B"/>
<path d="M517.95 286.509L538.498 259.195L559.503 286.509L538.498 316.099L517.95 286.509Z" fill="#DA131B"/>
<path d="M481.115 348.116L501.663 320.803L522.668 348.116L501.663 377.706L481.115 348.116Z" fill="#DA131B"/>
<path fill-rule="evenodd" clip-rule="evenodd" d="M68.1517 290.693C68.1517 292.201 65.8498 293.647 61.7525 294.714C57.6551 295.78 52.0979 296.379 46.3034 296.379C40.5089 296.379 34.9517 295.78 30.8543 294.714C26.757 293.647 24.4551 292.201 24.4551 290.693C24.4551 289.184 26.757 287.738 30.8543 286.671C34.9517 285.605 40.5089 285.006 46.3034 285.006C52.0979 285.006 57.6551 285.605 61.7525 286.671C65.8498 287.738 68.1517 289.184 68.1517 290.693V290.693Z" fill="#DA131B"/>
<path d="M25.5312 296.272C43.5846 303.317 59.8453 299.359 67.721 296.058C57.5562 325.341 77.9712 347.305 105.177 324.544C118.801 307.816 98.3561 293.233 93.153 306.031C90.1925 312.578 93.2861 323.513 100.317 330.104L93.3941 334.508C83.567 324.195 78.831 307.281 90.6661 296.445C107.656 280.769 132.996 312.31 107.829 334.491C125.106 342.312 144.42 328.754 149.318 302.541C138 294.34 168.314 296.625 157.385 302.541C149.708 338.528 122.886 351.169 100.307 339.566C57.0659 360.655 22.4547 332.03 25.5312 296.272V296.272Z" fill="#DA131B"/>
<path fill-rule="evenodd" clip-rule="evenodd" d="M27.1172 22.3594H37.7396L52.053 40.8816L66.3664 22.3594H76.9888L57.3642 47.7282L76.9888 73.0971H66.3664L52.053 54.6074L37.7396 73.0971H27.1172L46.7418 47.7282L27.1172 22.3594Z" fill="#DA131B"/>
<path fill-rule="evenodd" clip-rule="evenodd" d="M91.0479 21.9307H101.67L115.984 40.4528L130.297 21.9307H140.919L121.295 47.2995L140.919 72.6684H130.297L115.984 54.1786L101.67 72.6684H91.0479L110.672 47.2995L91.0479 21.9307V21.9307Z" fill="#DA131B"/>
<path fill-rule="evenodd" clip-rule="evenodd" d="M59.6211 80.3008H70.2436L84.5569 98.8229L98.8703 80.3008H109.493L89.8682 105.67L109.493 131.038H98.8703L84.5569 112.549L70.2436 131.038H59.6211L79.2457 105.67L59.6211 80.3008Z" fill="#DA131B"/>
</g>
<defs>
<clipPath id="clip0_1_9903">
<rect width="600" height="400" fill="white"/>
</clipPath>
</defs>
</svg>
