<svg width="600" height="400" viewBox="0 0 600 400" fill="none" xmlns="http://www.w3.org/2000/svg" xmlns:cgf="https://coding.garden/flags"><metadata id="cgf-metadata">

<cgf:flag>
  <cgf:name>Aa en Hunze</cgf:name>
  <cgf:route>nl/dr/aa_en_hunze</cgf:route>
  <cgf:aspect-ratio>1.5</cgf:aspect-ratio>
</cgf:flag>

</metadata><g clip-path="url(#clip0_1_886)">
<path d="M600 0.169922H0V400.17H600V0.169922Z" fill="#078930"/>
<path d="M67.7379 0.142128L600 356.477L600.02 400.213L530.436 400.213L-0.101674 45.1972L-0.173568 -7.65026e-05L67.7379 0.142128Z" fill="#FCDD09"/>
<path d="M530.259 0.114198L0 354.5V400.193L68.3571 400.213L600.043 45.2556L600.065 0.0942846L530.259 0.114198Z" fill="#FCDD09"/>
<path d="M73.0159 249.857C57.0559 249.303 40.7427 245.509 32.3108 240.391C30.2982 239.169 27.9303 237.144 26.9676 235.82C25.918 234.378 25.366 232.792 25.3613 231.205C25.3613 229.586 25.7232 228.38 26.739 226.676L27.5124 225.379L27.0961 222.293C26.5864 218.511 26.6113 218.593 25.9688 218.591C25.1808 218.589 23.6132 217.836 22.8205 217.08C20.7447 215.099 20.6973 212.068 22.7047 209.648C23.1069 209.163 23.4359 208.648 23.4359 208.504C23.4359 208.359 20.5456 198.399 17.0129 186.371C13.48 174.342 10.5613 164.343 10.5269 164.15C10.469 163.819 10.5656 163.801 12.29 163.823C13.6107 163.84 14.4578 163.953 15.3532 164.231C17.9251 165.029 20.5245 167.012 22.9113 169.995C23.9634 171.31 24.1298 171.445 24.5748 171.348C25.6494 171.113 28.5522 171.042 29.3161 171.231C31.2386 171.707 32.1419 172.801 32.4436 175.017C32.7262 177.095 32.3944 179.39 31.0927 184.402C29.7822 189.442 28.9197 194.198 29.2598 194.508C29.3265 194.569 29.9247 194.16 30.5884 193.599C33.9275 190.777 37.0695 189.884 40.0616 190.905C41.4847 191.391 43.64 193.298 44.5393 194.867C45.2054 196.029 46.0181 198.599 45.7776 198.783C45.6969 198.844 45.2828 198.994 44.8558 199.116C41.1533 200.173 39.9289 204.484 42.6133 207.012C44.0622 208.377 45.7148 208.585 47.8878 207.678C49.2939 207.09 51.5844 205.087 52.9565 203.244L54.0429 201.784L55.026 202.454C57.1119 203.874 59.1145 204.485 61.2113 204.341C63.422 204.188 64.944 203.303 65.8263 201.658C66.2576 200.853 66.3252 200.541 66.237 199.76C66.1791 199.245 65.9569 198.513 65.7443 198.132C64.9156 196.651 62.6956 195.367 60.0236 194.824C58.9124 194.599 58.6163 194.469 58.5179 194.163C58.2625 193.37 58.1818 190.419 58.3881 189.418C58.8566 187.142 60.4026 185.173 62.4228 184.279C63.3539 183.866 63.7444 183.8 65.2338 183.798C66.8079 183.797 67.0842 183.85 68.3086 184.39C69.9548 185.116 71.6933 186.667 72.5919 188.212C72.9397 188.81 73.3205 189.354 73.4379 189.42C73.7631 189.603 74.7068 188.457 75.0331 187.482C75.3915 186.412 75.4019 184.454 75.056 183.174C74.9122 182.644 74.4027 181.461 73.9233 180.544C71.5748 176.057 70.6434 171.166 71.3699 167.139C72.2692 162.153 75.0639 157.584 80.5966 152.052L81.6488 151L82.8578 152.214C86.0377 155.409 87.8969 157.738 89.5345 160.579C93.1188 166.798 93.0749 173.511 89.403 180.544C88.9247 181.461 88.4162 182.644 88.2727 183.174C87.9329 184.431 87.9352 186.412 88.2727 187.45C88.5679 188.345 89.4177 189.487 89.788 189.486C89.9161 189.486 90.3187 188.956 90.6858 188.308C92.3534 185.366 95.8201 183.44 98.8619 183.766C101.832 184.084 104.325 186.397 104.934 189.399C105.14 190.415 105.061 193.369 104.806 194.157C104.712 194.452 104.393 194.595 103.309 194.832C98.5224 195.877 96.0659 198.682 97.4204 201.555C99.0133 204.933 104.045 205.349 108.297 202.454L109.279 201.784L110.351 203.219C113.934 208.015 118.046 209.521 120.709 207.012C123.248 204.621 122.374 200.711 118.996 199.353C118.489 199.149 117.934 198.943 117.762 198.895C117.105 198.711 118.042 195.839 119.335 194.071C122.116 190.272 126.277 189.483 130.442 191.966C131.111 192.365 132.159 193.115 132.771 193.632C133.383 194.149 133.949 194.571 134.028 194.571C134.433 194.571 133.688 190.188 132.461 185.366C130.88 179.148 130.582 177.198 130.88 175.005C131.118 173.252 131.69 172.313 132.925 171.651C133.746 171.211 134.009 171.164 135.659 171.164C136.663 171.164 137.884 171.226 138.374 171.303L139.264 171.442L140.13 170.338C141.302 168.847 143.068 167.046 144.222 166.17C145.553 165.157 147.989 164.104 149.495 163.891C150.959 163.684 152.384 163.664 152.689 163.846C152.838 163.936 150.915 170.734 146.403 186.068C142.826 198.218 139.897 208.298 139.893 208.465C139.893 208.633 140.171 209.111 140.519 209.527C142.623 212.042 142.616 215.062 140.502 217.08C139.709 217.836 138.142 218.588 137.353 218.591C136.716 218.593 136.75 218.484 136.228 222.289L135.806 225.372L136.581 226.673C137.585 228.356 137.965 229.58 137.965 231.129C137.965 233.557 137.034 235.376 134.616 237.674C128.38 243.6 113.298 248.156 95.0145 249.637C92.8365 249.813 76.4656 249.977 73.0109 249.857L73.0159 249.857Z" fill="#FCDD09"/>
<path fill-rule="evenodd" clip-rule="evenodd" d="M125.93 232.495C125.93 237.924 105.593 242.325 80.5058 242.325C55.4184 242.325 35.0811 237.924 35.0811 232.495C35.0811 227.066 55.4184 222.665 80.5058 222.665C105.593 222.665 125.93 227.066 125.93 232.495Z" fill="#FCDD09"/>
<path d="M25.9714 226.668C41.6893 211.829 120.989 213.748 136.816 225.358" stroke="#148932" stroke-width="1.1"/>
<path d="M24.5985 208.761C30.0169 207.565 32.9538 215.629 27.4133 219.034C30.8687 212.506 27.3275 208.731 24.5985 208.761Z" fill="#078930"/>
<path d="M137.463 206.873C132.045 205.677 129.108 213.741 134.648 217.145C131.193 210.618 134.734 206.843 137.463 206.873Z" fill="#078930"/>
<path d="M83.7573 202.309C89.3293 202.47 89.8119 210.956 83.4789 212.895C88.7114 207.44 86.3973 202.942 83.7573 202.309Z" fill="#078930"/>
<path d="M81.0528 202.361C75.481 202.522 74.9982 211.008 81.3312 212.947C76.0987 207.492 78.4129 202.994 81.0528 202.361Z" fill="#078930"/>
<path d="M128.697 233.83C128.697 236.903 123.776 239.85 115.016 242.023C106.257 244.196 94.377 245.417 81.9895 245.417C69.6019 245.417 57.7217 244.196 48.9624 242.023C40.2031 239.85 35.2822 236.903 35.2822 233.83C35.2822 230.757 40.2031 227.81 48.9624 225.637C57.7217 223.464 69.6019 222.244 81.9895 222.244C94.377 222.244 106.257 223.464 115.016 225.637C123.776 227.81 128.697 230.757 128.697 233.83V233.83Z" stroke="#148932" stroke-linecap="round"/>
</g>
<defs>
<clipPath id="clip0_1_886">
<rect width="600" height="400" fill="white"/>
</clipPath>
</defs>
</svg>
