<svg width="600" height="400" viewBox="0 0 600 400" fill="none" xmlns="http://www.w3.org/2000/svg" xmlns:cgf="https://coding.garden/flags"><metadata id="cgf-metadata">

<cgf:flag>
  <cgf:name>Borger-Odoorn</cgf:name>
  <cgf:route>nl/dr/borger_odoorn</cgf:route>
  <cgf:aspect-ratio>1.5</cgf:aspect-ratio>
</cgf:flag>

</metadata><path d="M0.463257 0V400H599.345L600 0H0.463257V0Z" fill="#FFFF00"/>
<path d="M0 173.2L0.926637 224.427L599.562 224.118L599.997 173.302L0 173.2Z" fill="black"/>
<path d="M96.8335 64.6168L97.2968 225.303C100.719 320.138 278.442 344.184 295.134 225.303L294.671 65.0547L96.8335 64.6168Z" fill="black"/>
<path d="M97.2969 173.419L200.154 119.346L295.134 173.419V224.646L198.3 167.946L97.2969 224.208V173.419V173.419Z" fill="#FFFF00"/>
<path d="M255.752 77.2046V82.5681C234.632 80.8107 234.662 109.664 255.52 108.838L255.636 113.873H277.875V77.0952L255.752 77.2046Z" fill="#FFFF00"/>
<path d="M254.941 77.3141L255.057 82.0209C231.974 81.4834 235.802 111.374 255.057 109.386V113.983L245.211 114.202C228.551 110.549 229.198 81.3338 245.096 77.533L254.941 77.3141Z" fill="#FFFF00"/>
<path d="M232.354 93.8425V99.4249L124.169 99.3702V93.7878L232.354 93.8425Z" fill="#FFFF00"/>
<path d="M223.146 92.9394H232.296C232.471 91.0272 233.093 88.9759 234.179 87.3296L223.146 91.0786V92.9394Z" fill="#FFFF00"/>
<path d="M223.131 100.189H232.282C232.457 102.102 233.078 104.153 234.164 105.799L223.131 102.05V100.189Z" fill="#FFFF00"/>
<path d="M117.894 88.3695L117.952 105.007C119.92 107.478 122.636 106.787 123.628 104.898L123.57 88.26C122.651 87.2223 119.923 85.235 117.894 88.3695V88.3695Z" fill="#FFFF00"/>
<path d="M159.845 248.18C156.987 250.004 154.363 252.048 153.938 256.171C152.304 258.64 151.941 262.31 151.505 265.912C144.506 272.006 140.965 281.338 152.779 284.192L162.972 284.302C167.992 285.076 173.011 285.771 178.03 283.973C191.145 276.111 184.677 266.329 177.451 259.454C174.671 254.673 171.891 251.481 169.111 248.727C166.25 247.685 162.994 248.135 159.845 248.18V248.18Z" fill="#FFFF00"/>
<path d="M241.273 243.583C238.271 242.634 235.644 243.102 232.933 243.254C229.776 243.535 228.78 244.632 227.026 245.444C224.337 248.197 222.143 251.326 222.509 256.389C218.742 258.601 216.43 261.73 215.443 265.694C214.293 269.087 213.096 272.48 215.559 275.873C216.673 278.247 216.169 281.232 220.076 282.55C225.618 283.55 231.061 284.83 237.798 282.441C240.385 282.824 242.972 283.158 245.559 282.112C261.944 273.684 256.441 265.256 249.15 256.827C249.716 249.419 245.42 246.911 241.505 244.021L241.273 243.583V243.583Z" fill="#FFFF00"/>
<path d="M208.725 202.536C199.304 194.166 189.883 195.808 180.463 204.944C173.899 210.15 167.335 211.661 160.772 213.481C154.703 215.052 149.39 218.409 144.555 222.895C138.09 237.52 137.501 248.159 154.98 246.538L179.999 246.319C192.801 254.727 201.506 251.034 209.42 245.006C215.129 245.996 220.305 243.969 225.405 241.503H252.74C265.426 237.888 261.718 224.271 252.74 220.487C239.135 211.537 229.674 208.285 222.856 208.665L208.725 202.536Z" fill="#FFFF00"/>
<path d="M217.644 211.456L217.818 213.098L225.868 213.317L228.59 214.74L232.412 215.671L233.802 217.094L235.018 216.327L232.412 213.919L227.663 212.551L224.594 211.347L217.644 211.456Z" fill="#AC880B"/>
<path d="M217.123 215.233L221.003 216.71L223.03 218.571L226.736 219.009L226.563 217.586L223.262 216.929L221.814 215.506L218.397 214.357L217.123 215.233V215.233Z" fill="#AC880B"/>
<path d="M214.111 218.9L219.381 218.954L219.555 220.487H213.995L214.111 218.9V218.9Z" fill="#AC880B"/>
<path d="M211.621 222.484L216.891 222.539L217.065 224.072H211.505L211.621 222.484V222.484Z" fill="#AC880B"/>
<path d="M244.98 255.404L246.022 260.166L247.933 264.489L249.381 264.544L247.47 260.166L246.601 255.514L244.98 255.404Z" fill="#AC880B"/>
<path d="M242.047 259.283L242.956 263.425L244.623 267.186L245.885 267.233L244.219 263.425L243.461 259.378L242.047 259.283V259.283Z" fill="#AC880B"/>
<path d="M238.928 264.49L239.682 267.683L241.065 270.582L242.112 270.619L240.73 267.683L240.101 264.563L238.928 264.49V264.49Z" fill="#AC880B"/>
<path d="M173.634 258.37L174.669 261.181L176.567 263.734L178.005 263.766L176.107 261.181L175.245 258.435L173.634 258.37V258.37Z" fill="#AC880B"/>
<path d="M171.75 260.924L172.785 263.735L174.683 266.288L176.121 266.32L174.223 263.735L173.361 260.989L171.75 260.924V260.924Z" fill="#AC880B"/>
<path d="M169.724 265.046L170.516 266.95L171.969 268.678L173.07 268.7L171.617 266.95L170.956 265.09L169.724 265.046V265.046Z" fill="#AC880B"/>
</svg>
