<svg width="600" height="400" viewBox="0 0 600 400" fill="none" xmlns="http://www.w3.org/2000/svg" xmlns:cgf="https://coding.garden/flags"><metadata id="cgf-metadata">

<cgf:flag>
  <cgf:name>Coevorden</cgf:name>
  <cgf:route>nl/dr/coevorden</cgf:route>
  <cgf:aspect-ratio>1.5</cgf:aspect-ratio>
</cgf:flag>

</metadata><g clip-path="url(#clip0_1_933)">
<path d="M600 0H0V400H600V0Z" fill="#D60000"/>
<path d="M600 280H0V300H600V280Z" fill="#EAC102"/>
<path d="M600 150H0V250H600V150Z" fill="#0062BC"/>
<path d="M600 190H0V210H600V190Z" fill="#EAC102"/>
<path d="M350 0H250V400H350V0Z" fill="#0062BC"/>
<path fill-rule="evenodd" clip-rule="evenodd" d="M276.349 156.428L265.287 160.425L268.573 164.861V232.488L263.261 239.607V255.542L275.089 264.742H290.273C290.228 259.34 290.155 252.587 290.163 247.055C290.172 240.955 295.422 236.99 300.054 236.777C304.687 236.564 310.451 241.078 310.543 247.219C310.63 253.053 310.523 259.481 310.488 264.742H325.961L337.734 255.542V239.607L332.477 232.488V164.86L335.763 160.425L324.701 156.428L276.349 156.428ZM300.498 178.55C303.431 178.55 305.809 179.767 305.809 181.234C305.809 182.139 304.894 182.945 303.509 183.424V192.021H307.124C307.595 190.545 308.428 189.557 309.369 189.557C310.835 189.557 312.052 191.935 312.052 194.869C312.052 197.802 310.835 200.18 309.369 200.18C308.428 200.18 307.595 199.193 307.124 197.716H303.509V209.106C304.986 209.578 305.974 210.465 305.974 211.406C305.974 212.873 303.596 214.035 300.662 214.035C297.728 214.035 295.35 212.873 295.35 211.406C295.35 210.55 296.174 209.756 297.431 209.27V197.716H293.762C293.29 199.185 292.51 200.18 291.572 200.18C290.105 200.18 288.889 197.802 288.889 194.869C288.889 191.935 290.105 189.557 291.572 189.557C292.51 189.557 293.29 190.552 293.762 192.021H297.431V183.424C296.047 182.945 295.186 182.139 295.186 181.234C295.186 179.767 297.564 178.55 300.498 178.55Z" fill="#EAC102" stroke="black" stroke-width="0.268376" stroke-linecap="round" stroke-linejoin="round"/>
<path fill-rule="evenodd" clip-rule="evenodd" d="M263.33 239.577L275.118 248.642V264.644" fill="#EAC102"/>
<path d="M263.33 239.577L275.118 248.642V264.644" stroke="black" stroke-width="0.268376" stroke-linecap="round" stroke-linejoin="round"/>
<path fill-rule="evenodd" clip-rule="evenodd" d="M268.565 232.502L280.228 236.689ZM275.063 248.637L280.212 236.714Z" fill="#EAC102"/>
<path d="M268.565 232.502L280.228 236.689M275.063 248.637L280.212 236.714" stroke="black" stroke-width="0.268376" stroke-linecap="round" stroke-linejoin="round"/>
<path fill-rule="evenodd" clip-rule="evenodd" d="M280.216 236.583V161.886Z" fill="#EAC102"/>
<path d="M280.216 236.583V161.886" stroke="black" stroke-width="0.268376" stroke-linecap="round" stroke-linejoin="round"/>
<path fill-rule="evenodd" clip-rule="evenodd" d="M276.464 156.643L280.178 161.731Z" fill="#EAC102"/>
<path d="M276.464 156.643L280.178 161.731" stroke="black" stroke-width="0.268376" stroke-linecap="round" stroke-linejoin="round"/>
<path fill-rule="evenodd" clip-rule="evenodd" d="M269.422 164.914C269.422 164.914 267.104 161.432 269.327 160.626C271.488 159.842 273.706 163.663 273.706 163.663" fill="#EAC102"/>
<path d="M269.422 164.914C269.422 164.914 267.104 161.432 269.327 160.626C271.488 159.842 273.706 163.663 273.706 163.663" stroke="black" stroke-width="0.268376"/>
<path fill-rule="evenodd" clip-rule="evenodd" d="M274.58 163.216C274.58 163.216 272.261 159.735 274.484 158.928C276.645 158.144 278.863 161.966 278.863 161.966" fill="#EAC102"/>
<path d="M274.58 163.216C274.58 163.216 272.261 159.735 274.484 158.928C276.645 158.144 278.863 161.966 278.863 161.966" stroke="black" stroke-width="0.268376"/>
<path fill-rule="evenodd" clip-rule="evenodd" d="M268.542 165.062L280.26 161.767Z" fill="#EAC102"/>
<path d="M268.542 165.062L280.26 161.767" stroke="black" stroke-width="0.268376" stroke-linecap="round" stroke-linejoin="round"/>
<path fill-rule="evenodd" clip-rule="evenodd" d="M337.719 239.577L325.931 248.642V264.644" fill="#EAC102"/>
<path d="M337.719 239.577L325.931 248.642V264.644" stroke="black" stroke-width="0.268376" stroke-linecap="round" stroke-linejoin="round"/>
<path fill-rule="evenodd" clip-rule="evenodd" d="M332.483 232.502L320.821 236.689ZM325.985 248.637L320.837 236.714Z" fill="#EAC102"/>
<path d="M332.483 232.502L320.821 236.689M325.985 248.637L320.837 236.714" stroke="black" stroke-width="0.268376" stroke-linecap="round" stroke-linejoin="round"/>
<path fill-rule="evenodd" clip-rule="evenodd" d="M320.833 236.583V161.696Z" fill="#EAC102"/>
<path d="M320.833 236.583V161.696" stroke="black" stroke-width="0.268376" stroke-linecap="round" stroke-linejoin="round"/>
<path fill-rule="evenodd" clip-rule="evenodd" d="M331.624 164.914C331.624 164.914 333.943 161.432 331.72 160.626C329.559 159.842 327.341 163.663 327.341 163.663" fill="#EAC102"/>
<path d="M331.624 164.914C331.624 164.914 333.943 161.432 331.72 160.626C329.559 159.842 327.341 163.663 327.341 163.663" stroke="black" stroke-width="0.268376"/>
<path fill-rule="evenodd" clip-rule="evenodd" d="M324.584 156.643L320.871 161.731Z" fill="#EAC102"/>
<path d="M324.584 156.643L320.871 161.731" stroke="black" stroke-width="0.268376" stroke-linecap="round" stroke-linejoin="round"/>
<path fill-rule="evenodd" clip-rule="evenodd" d="M326.467 163.216C326.467 163.216 328.786 159.735 326.563 158.928C324.401 158.144 322.184 161.966 322.184 161.966" fill="#EAC102"/>
<path d="M326.467 163.216C326.467 163.216 328.786 159.735 326.563 158.928C324.401 158.144 322.184 161.966 322.184 161.966" stroke="black" stroke-width="0.268376"/>
<path fill-rule="evenodd" clip-rule="evenodd" d="M332.507 165.062L320.789 161.767Z" fill="#EAC102"/>
<path d="M332.507 165.062L320.789 161.767" stroke="black" stroke-width="0.268376" stroke-linecap="round" stroke-linejoin="round"/>
<path fill-rule="evenodd" clip-rule="evenodd" d="M280.197 236.706H286.638Z" fill="#EAC102"/>
<path d="M280.197 236.706H286.638" stroke="black" stroke-width="0.268376" stroke-linecap="round" stroke-linejoin="round"/>
<path fill-rule="evenodd" clip-rule="evenodd" d="M313.275 236.706H320.835Z" fill="#EAC102"/>
<path d="M313.275 236.706H320.835" stroke="black" stroke-width="0.268376" stroke-linecap="round" stroke-linejoin="round"/>
<path fill-rule="evenodd" clip-rule="evenodd" d="M280.197 161.774H320.835Z" fill="#EAC102"/>
<path d="M280.197 161.774H320.835" stroke="black" stroke-width="0.268376" stroke-linecap="round" stroke-linejoin="round"/>
<path fill-rule="evenodd" clip-rule="evenodd" d="M316.591 248.623H325.806Z" fill="#EAC102"/>
<path d="M316.591 248.623H325.806" stroke="black" stroke-width="0.268376" stroke-linecap="round" stroke-linejoin="round"/>
<path fill-rule="evenodd" clip-rule="evenodd" d="M275.226 248.623H284.058Z" fill="#EAC102"/>
<path d="M275.226 248.623H284.058" stroke="black" stroke-width="0.268376" stroke-linecap="round" stroke-linejoin="round"/>
<path fill-rule="evenodd" clip-rule="evenodd" d="M332.676 139.861L330.843 140.525V145.373L333.506 144.408V141.288L332.676 139.861Z" fill="#EAC102" stroke="black" stroke-width="0.268376" stroke-linecap="round" stroke-linejoin="round"/>
<path fill-rule="evenodd" clip-rule="evenodd" d="M324.459 135L328.694 137.532V141.765L332.672 143.453V139.903L335.914 141.84V160.449L324.435 156.817L324.459 135H324.459Z" fill="#EAC102" stroke="black" stroke-width="0.268376" stroke-linecap="round" stroke-linejoin="round"/>
<path fill-rule="evenodd" clip-rule="evenodd" d="M268.371 140.033L270.204 140.696V145.544L267.541 144.58V141.459L268.371 140.033Z" fill="#EAC102" stroke="black" stroke-width="0.268376" stroke-linecap="round" stroke-linejoin="round"/>
<path fill-rule="evenodd" clip-rule="evenodd" d="M276.588 135.146L272.353 137.678V141.911L268.375 143.599V140.049L265.132 141.985V160.449L276.611 157.193L276.588 135.146H276.588Z" fill="#EAC102" stroke="black" stroke-width="0.268376" stroke-linecap="round" stroke-linejoin="round"/>
<path d="M286.239 135.013H276.523V157.034H324.523V135.013H314.901V140.859H305.264V135.013H295.892V140.859H286.239V135.013Z" fill="#EAC102" stroke="black" stroke-width="0.268376" stroke-linecap="round" stroke-linejoin="round"/>
<path fill-rule="evenodd" clip-rule="evenodd" d="M332.299 173.866L320.775 171.765Z" fill="#EAC102"/>
<path d="M332.299 173.866L320.775 171.765" stroke="black" stroke-width="0.268376" stroke-linecap="round" stroke-linejoin="round"/>
<path fill-rule="evenodd" clip-rule="evenodd" d="M332.313 182.275L320.94 181.414Z" fill="#EAC102"/>
<path d="M332.313 182.275L320.94 181.414" stroke="black" stroke-width="0.268376" stroke-linecap="round" stroke-linejoin="round"/>
<path fill-rule="evenodd" clip-rule="evenodd" d="M332.321 207.319L321.035 207.758Z" fill="#EAC102"/>
<path d="M332.321 207.319L321.035 207.758" stroke="black" stroke-width="0.268376" stroke-linecap="round" stroke-linejoin="round"/>
<path fill-rule="evenodd" clip-rule="evenodd" d="M332.345 215.748L320.775 217.407Z" fill="#EAC102"/>
<path d="M332.345 215.748L320.775 217.407" stroke="black" stroke-width="0.268376" stroke-linecap="round" stroke-linejoin="round"/>
<path fill-rule="evenodd" clip-rule="evenodd" d="M332.273 224.128L320.775 227.057Z" fill="#EAC102"/>
<path d="M332.273 224.128L320.775 227.057" stroke="black" stroke-width="0.268376" stroke-linecap="round" stroke-linejoin="round"/>
<path fill-rule="evenodd" clip-rule="evenodd" d="M325.978 256.588L337.698 247.445Z" fill="#EAC102"/>
<path d="M325.978 256.588L337.698 247.445" stroke="black" stroke-width="0.268376" stroke-linecap="round" stroke-linejoin="round"/>
<path fill-rule="evenodd" clip-rule="evenodd" d="M326.68 163.923V172.738Z" fill="#EAC102"/>
<path d="M326.68 163.923V172.738" stroke="black" stroke-width="0.268376" stroke-linecap="round" stroke-linejoin="round"/>
<path fill-rule="evenodd" clip-rule="evenodd" d="M326.68 181.864V189.673Z" fill="#EAC102"/>
<path d="M326.68 181.864V189.673" stroke="black" stroke-width="0.268376" stroke-linecap="round" stroke-linejoin="round"/>
<path fill-rule="evenodd" clip-rule="evenodd" d="M326.68 216.638V225.453Z" fill="#EAC102"/>
<path d="M326.68 216.638V225.453" stroke="black" stroke-width="0.268376" stroke-linecap="round" stroke-linejoin="round"/>
<path fill-rule="evenodd" clip-rule="evenodd" d="M326.68 234.663L331.864 243.976Z" fill="#EAC102"/>
<path d="M326.68 234.663L331.864 243.976" stroke="black" stroke-width="0.268376" stroke-linecap="round" stroke-linejoin="round"/>
<path fill-rule="evenodd" clip-rule="evenodd" d="M331.844 260.029V252.139Z" fill="#EAC102"/>
<path d="M331.844 260.029V252.139" stroke="black" stroke-width="0.268376" stroke-linecap="round" stroke-linejoin="round"/>
<path fill-rule="evenodd" clip-rule="evenodd" d="M323.273 172.288V181.556Z" fill="#EAC102"/>
<path d="M323.273 172.288V181.556" stroke="black" stroke-width="0.268376" stroke-linecap="round" stroke-linejoin="round"/>
<path fill-rule="evenodd" clip-rule="evenodd" d="M330.548 173.591V181.987Z" fill="#EAC102"/>
<path d="M330.548 173.591V181.987" stroke="black" stroke-width="0.268376" stroke-linecap="round" stroke-linejoin="round"/>
<path fill-rule="evenodd" clip-rule="evenodd" d="M323.273 207.756V216.916Z" fill="#EAC102"/>
<path d="M323.273 207.756V216.916" stroke="black" stroke-width="0.268376" stroke-linecap="round" stroke-linejoin="round"/>
<path fill-rule="evenodd" clip-rule="evenodd" d="M330.548 207.583V216.088Z" fill="#EAC102"/>
<path d="M330.548 207.583V216.088" stroke="black" stroke-width="0.268376" stroke-linecap="round" stroke-linejoin="round"/>
<path fill-rule="evenodd" clip-rule="evenodd" d="M323.273 226.388V235.656Z" fill="#EAC102"/>
<path d="M323.273 226.388V235.656" stroke="black" stroke-width="0.268376" stroke-linecap="round" stroke-linejoin="round"/>
<path fill-rule="evenodd" clip-rule="evenodd" d="M330.548 224.708V233.309Z" fill="#EAC102"/>
<path d="M330.548 224.708V233.309" stroke="black" stroke-width="0.268376" stroke-linecap="round" stroke-linejoin="round"/>
<path fill-rule="evenodd" clip-rule="evenodd" d="M328.334 246.735V254.652Z" fill="#EAC102"/>
<path d="M328.334 246.735V254.652" stroke="black" stroke-width="0.268376" stroke-linecap="round" stroke-linejoin="round"/>
<path fill-rule="evenodd" clip-rule="evenodd" d="M335.609 241.256V249.184Z" fill="#EAC102"/>
<path d="M335.609 241.256V249.184" stroke="black" stroke-width="0.268376" stroke-linecap="round" stroke-linejoin="round"/>
<path fill-rule="evenodd" clip-rule="evenodd" d="M275.066 256.641L263.349 247.409Z" fill="#EAC102"/>
<path d="M275.066 256.641L263.349 247.409" stroke="black" stroke-width="0.268376" stroke-linecap="round" stroke-linejoin="round"/>
<path fill-rule="evenodd" clip-rule="evenodd" d="M268.638 173.866L280.162 171.765Z" fill="#EAC102"/>
<path d="M268.638 173.866L280.162 171.765" stroke="black" stroke-width="0.268376" stroke-linecap="round" stroke-linejoin="round"/>
<path fill-rule="evenodd" clip-rule="evenodd" d="M268.624 182.275L280.256 181.414Z" fill="#EAC102"/>
<path d="M268.624 182.275L280.256 181.414" stroke="black" stroke-width="0.268376" stroke-linecap="round" stroke-linejoin="round"/>
<path fill-rule="evenodd" clip-rule="evenodd" d="M268.616 207.319L280.162 207.758Z" fill="#EAC102"/>
<path d="M268.616 207.319L280.162 207.758" stroke="black" stroke-width="0.268376" stroke-linecap="round" stroke-linejoin="round"/>
<path fill-rule="evenodd" clip-rule="evenodd" d="M268.592 215.748L280.162 217.407Z" fill="#EAC102"/>
<path d="M268.592 215.748L280.162 217.407" stroke="black" stroke-width="0.268376" stroke-linecap="round" stroke-linejoin="round"/>
<path fill-rule="evenodd" clip-rule="evenodd" d="M268.664 224.128L280.162 227.057Z" fill="#EAC102"/>
<path d="M268.664 224.128L280.162 227.057" stroke="black" stroke-width="0.268376" stroke-linecap="round" stroke-linejoin="round"/>
<path fill-rule="evenodd" clip-rule="evenodd" d="M275.088 256.588L263.367 247.445Z" fill="#EAC102"/>
<path d="M275.088 256.588L263.367 247.445" stroke="black" stroke-width="0.268376" stroke-linecap="round" stroke-linejoin="round"/>
<path fill-rule="evenodd" clip-rule="evenodd" d="M274.385 163.923V172.738Z" fill="#EAC102"/>
<path d="M274.385 163.923V172.738" stroke="black" stroke-width="0.268376" stroke-linecap="round" stroke-linejoin="round"/>
<path fill-rule="evenodd" clip-rule="evenodd" d="M274.385 198.558V207.373Z" fill="#EAC102"/>
<path d="M274.385 198.558V207.373" stroke="black" stroke-width="0.268376" stroke-linecap="round" stroke-linejoin="round"/>
<path fill-rule="evenodd" clip-rule="evenodd" d="M274.385 216.638V225.453Z" fill="#EAC102"/>
<path d="M274.385 216.638V225.453" stroke="black" stroke-width="0.268376" stroke-linecap="round" stroke-linejoin="round"/>
<path fill-rule="evenodd" clip-rule="evenodd" d="M274.385 234.663L269.201 243.976Z" fill="#EAC102"/>
<path d="M274.385 234.663L269.201 243.976" stroke="black" stroke-width="0.268376" stroke-linecap="round" stroke-linejoin="round"/>
<path fill-rule="evenodd" clip-rule="evenodd" d="M269.221 260.029V252.139Z" fill="#EAC102"/>
<path d="M269.221 260.029V252.139" stroke="black" stroke-width="0.268376" stroke-linecap="round" stroke-linejoin="round"/>
<path fill-rule="evenodd" clip-rule="evenodd" d="M277.792 172.288V181.556Z" fill="#EAC102"/>
<path d="M277.792 172.288V181.556" stroke="black" stroke-width="0.268376" stroke-linecap="round" stroke-linejoin="round"/>
<path fill-rule="evenodd" clip-rule="evenodd" d="M270.517 173.591V181.987Z" fill="#EAC102"/>
<path d="M270.517 173.591V181.987" stroke="black" stroke-width="0.268376" stroke-linecap="round" stroke-linejoin="round"/>
<path fill-rule="evenodd" clip-rule="evenodd" d="M277.792 207.756V216.916Z" fill="#EAC102"/>
<path d="M277.792 207.756V216.916" stroke="black" stroke-width="0.268376" stroke-linecap="round" stroke-linejoin="round"/>
<path fill-rule="evenodd" clip-rule="evenodd" d="M270.517 207.583V216.088Z" fill="#EAC102"/>
<path d="M270.517 207.583V216.088" stroke="black" stroke-width="0.268376" stroke-linecap="round" stroke-linejoin="round"/>
<path fill-rule="evenodd" clip-rule="evenodd" d="M277.792 226.388V235.656Z" fill="#EAC102"/>
<path d="M277.792 226.388V235.656" stroke="black" stroke-width="0.268376" stroke-linecap="round" stroke-linejoin="round"/>
<path fill-rule="evenodd" clip-rule="evenodd" d="M270.517 224.708V233.309Z" fill="#EAC102"/>
<path d="M270.517 224.708V233.309" stroke="black" stroke-width="0.268376" stroke-linecap="round" stroke-linejoin="round"/>
<path fill-rule="evenodd" clip-rule="evenodd" d="M272.731 246.735V254.652Z" fill="#EAC102"/>
<path d="M272.731 246.735V254.652" stroke="black" stroke-width="0.268376" stroke-linecap="round" stroke-linejoin="round"/>
<path fill-rule="evenodd" clip-rule="evenodd" d="M265.456 241.256V249.184Z" fill="#EAC102"/>
<path d="M265.456 241.256V249.184" stroke="black" stroke-width="0.268376" stroke-linecap="round" stroke-linejoin="round"/>
<path fill-rule="evenodd" clip-rule="evenodd" d="M313.852 181.115V172.002Z" fill="#EAC102"/>
<path d="M313.852 181.115V172.002" stroke="black" stroke-width="0.268376" stroke-linecap="round" stroke-linejoin="round"/>
<path fill-rule="evenodd" clip-rule="evenodd" d="M316.669 256.626H325.952Z" fill="#EAC102"/>
<path d="M316.669 256.626H325.952" stroke="black" stroke-width="0.268376" stroke-linecap="round" stroke-linejoin="round"/>
<path fill-rule="evenodd" clip-rule="evenodd" d="M280.037 171.765H320.675Z" fill="#EAC102"/>
<path d="M280.037 171.765H320.675" stroke="black" stroke-width="0.268376" stroke-linecap="round" stroke-linejoin="round"/>
<path fill-rule="evenodd" clip-rule="evenodd" d="M280.037 217.407H320.675Z" fill="#EAC102"/>
<path d="M280.037 217.407H320.675" stroke="black" stroke-width="0.268376" stroke-linecap="round" stroke-linejoin="round"/>
<path fill-rule="evenodd" clip-rule="evenodd" d="M280.037 227.057H320.675Z" fill="#EAC102"/>
<path d="M280.037 227.057H320.675" stroke="black" stroke-width="0.268376" stroke-linecap="round" stroke-linejoin="round"/>
<path fill-rule="evenodd" clip-rule="evenodd" d="M293.595 171.709V162.164Z" fill="#EAC102"/>
<path d="M293.595 171.709V162.164" stroke="black" stroke-width="0.268376" stroke-linecap="round" stroke-linejoin="round"/>
<path fill-rule="evenodd" clip-rule="evenodd" d="M307.134 171.709V162.164Z" fill="#EAC102"/>
<path d="M307.134 171.709V162.164" stroke="black" stroke-width="0.268376" stroke-linecap="round" stroke-linejoin="round"/>
<path fill-rule="evenodd" clip-rule="evenodd" d="M293.595 207.656V198.111Z" fill="#EAC102"/>
<path d="M293.595 207.656V198.111" stroke="black" stroke-width="0.268376" stroke-linecap="round" stroke-linejoin="round"/>
<path fill-rule="evenodd" clip-rule="evenodd" d="M307.134 207.656V198.111Z" fill="#EAC102"/>
<path d="M307.134 207.656V198.111" stroke="black" stroke-width="0.268376" stroke-linecap="round" stroke-linejoin="round"/>
<path fill-rule="evenodd" clip-rule="evenodd" d="M293.595 227.052V217.506Z" fill="#EAC102"/>
<path d="M293.595 227.052V217.506" stroke="black" stroke-width="0.268376" stroke-linecap="round" stroke-linejoin="round"/>
<path fill-rule="evenodd" clip-rule="evenodd" d="M307.134 227.052V217.506Z" fill="#EAC102"/>
<path d="M307.134 227.052V217.506" stroke="black" stroke-width="0.268376" stroke-linecap="round" stroke-linejoin="round"/>
<path fill-rule="evenodd" clip-rule="evenodd" d="M286.86 181.273V172.021Z" fill="#EAC102"/>
<path d="M286.86 181.273V172.021" stroke="black" stroke-width="0.268376" stroke-linecap="round" stroke-linejoin="round"/>
<path fill-rule="evenodd" clip-rule="evenodd" d="M300.523 178.31V171.93Z" fill="#EAC102"/>
<path d="M300.523 178.31V171.93" stroke="black" stroke-width="0.268376" stroke-linecap="round" stroke-linejoin="round"/>
<path fill-rule="evenodd" clip-rule="evenodd" d="M286.86 217.193V207.912Z" fill="#EAC102"/>
<path d="M286.86 217.193V207.912" stroke="black" stroke-width="0.268376" stroke-linecap="round" stroke-linejoin="round"/>
<path fill-rule="evenodd" clip-rule="evenodd" d="M300.523 217.269V214.469Z" fill="#EAC102"/>
<path d="M300.523 217.269V214.469" stroke="black" stroke-width="0.268376" stroke-linecap="round" stroke-linejoin="round"/>
<path fill-rule="evenodd" clip-rule="evenodd" d="M313.852 217.035V207.895Z" fill="#EAC102"/>
<path d="M313.852 217.035V207.895" stroke="black" stroke-width="0.268376" stroke-linecap="round" stroke-linejoin="round"/>
<path fill-rule="evenodd" clip-rule="evenodd" d="M286.86 236.609V227.236Z" fill="#EAC102"/>
<path d="M286.86 236.609V227.236" stroke="black" stroke-width="0.268376" stroke-linecap="round" stroke-linejoin="round"/>
<path fill-rule="evenodd" clip-rule="evenodd" d="M300.523 230.65V227.236Z" fill="#EAC102"/>
<path d="M300.523 230.65V227.236" stroke="black" stroke-width="0.268376" stroke-linecap="round" stroke-linejoin="round"/>
<path fill-rule="evenodd" clip-rule="evenodd" d="M313.852 236.609V227.236Z" fill="#EAC102"/>
<path d="M313.852 236.609V227.236" stroke="black" stroke-width="0.268376" stroke-linecap="round" stroke-linejoin="round"/>
<path d="M284.224 264.793V244.487C284.224 238.852 288.384 230.664 300.678 230.664C312.972 230.664 316.32 241.397 316.445 244.64C316.671 250.526 316.445 264.487 316.445 264.487" stroke="black" stroke-width="0.268376" stroke-linecap="round" stroke-linejoin="round"/>
<path fill-rule="evenodd" clip-rule="evenodd" d="M279.313 256.515V248.68Z" fill="#EAC102"/>
<path d="M279.313 256.515V248.68" stroke="black" stroke-width="0.268376" stroke-linecap="round" stroke-linejoin="round"/>
<path fill-rule="evenodd" clip-rule="evenodd" d="M321.399 256.515V248.68Z" fill="#EAC102"/>
<path d="M321.399 256.515V248.68" stroke="black" stroke-width="0.268376" stroke-linecap="round" stroke-linejoin="round"/>
<path fill-rule="evenodd" clip-rule="evenodd" d="M275.118 256.626H283.99Z" fill="#EAC102"/>
<path d="M275.118 256.626H283.99" stroke="black" stroke-width="0.268376" stroke-linecap="round" stroke-linejoin="round"/>
<path fill-rule="evenodd" clip-rule="evenodd" d="M306.107 181.414H320.925Z" fill="#EAC102"/>
<path d="M306.107 181.414H320.925" stroke="black" stroke-width="0.268376" stroke-linecap="round" stroke-linejoin="round"/>
<path fill-rule="evenodd" clip-rule="evenodd" d="M280.324 181.414H295.156Z" fill="#EAC102"/>
<path d="M280.324 181.414H295.156" stroke="black" stroke-width="0.268376" stroke-linecap="round" stroke-linejoin="round"/>
<path fill-rule="evenodd" clip-rule="evenodd" d="M303.811 207.758H320.737Z" fill="#EAC102"/>
<path d="M303.811 207.758H320.737" stroke="black" stroke-width="0.268376" stroke-linecap="round" stroke-linejoin="round"/>
<path fill-rule="evenodd" clip-rule="evenodd" d="M280.388 207.758H297.18Z" fill="#EAC102"/>
<path d="M280.388 207.758H297.18" stroke="black" stroke-width="0.268376" stroke-linecap="round" stroke-linejoin="round"/>
<path d="M280.864 161.781C280.865 160.793 281.169 159.845 281.711 159.147C282.253 158.448 282.988 158.056 283.754 158.056C284.52 158.056 285.255 158.448 285.797 159.147C286.339 159.845 286.644 160.793 286.644 161.781H283.754H280.864Z" fill="#EAC102" stroke="black" stroke-width="0.268376" stroke-linecap="round" stroke-linejoin="round"/>
<path d="M287.572 161.781C287.572 160.793 287.877 159.845 288.419 159.147C288.961 158.448 289.696 158.056 290.462 158.056C291.228 158.056 291.963 158.448 292.505 159.147C293.047 159.845 293.351 160.793 293.352 161.781H290.462H287.572Z" fill="#EAC102" stroke="black" stroke-width="0.268376" stroke-linecap="round" stroke-linejoin="round"/>
<path d="M314.403 161.781C314.403 160.793 314.708 159.845 315.25 159.147C315.791 158.448 316.526 158.056 317.293 158.056C318.059 158.056 318.794 158.448 319.336 159.147C319.878 159.845 320.182 160.793 320.182 161.781H317.293H314.403Z" fill="#EAC102" stroke="black" stroke-width="0.268376" stroke-linecap="round" stroke-linejoin="round"/>
<path d="M307.695 161.781C307.695 160.793 308 159.845 308.542 159.147C309.084 158.448 309.819 158.056 310.585 158.056C311.351 158.056 312.086 158.448 312.628 159.147C313.17 159.845 313.474 160.793 313.475 161.781H310.585H307.695Z" fill="#EAC102" stroke="black" stroke-width="0.268376" stroke-linecap="round" stroke-linejoin="round"/>
<path d="M300.987 161.781C300.988 160.793 301.292 159.845 301.834 159.147C302.376 158.448 303.111 158.056 303.877 158.056C304.643 158.056 305.378 158.448 305.92 159.147C306.462 159.845 306.767 160.793 306.767 161.781H303.877H300.987Z" fill="#EAC102" stroke="black" stroke-width="0.268376" stroke-linecap="round" stroke-linejoin="round"/>
<path d="M294.28 161.781C294.28 160.793 294.585 159.845 295.127 159.147C295.668 158.448 296.403 158.056 297.17 158.056C297.936 158.056 298.671 158.448 299.213 159.147C299.754 159.845 300.059 160.793 300.059 161.781H297.17H294.28Z" fill="#EAC102" stroke="black" stroke-width="0.268376" stroke-linecap="round" stroke-linejoin="round"/>
<path fill-rule="evenodd" clip-rule="evenodd" d="M268.616 190.173L280.162 189.808Z" fill="#EAC102"/>
<path d="M268.616 190.173L280.162 189.808" stroke="black" stroke-width="0.268376" stroke-linecap="round" stroke-linejoin="round"/>
<path fill-rule="evenodd" clip-rule="evenodd" d="M268.776 198.091H289.157Z" fill="#EAC102"/>
<path d="M268.776 198.091H289.157" stroke="black" stroke-width="0.268376" stroke-linecap="round" stroke-linejoin="round"/>
<path fill-rule="evenodd" clip-rule="evenodd" d="M311.744 198.091H332.124Z" fill="#EAC102"/>
<path d="M311.744 198.091H332.124" stroke="black" stroke-width="0.268376" stroke-linecap="round" stroke-linejoin="round"/>
<path fill-rule="evenodd" clip-rule="evenodd" d="M292.542 189.891H297.341Z" fill="#EAC102"/>
<path d="M292.542 189.891H297.341" stroke="black" stroke-width="0.268376" stroke-linecap="round" stroke-linejoin="round"/>
<path fill-rule="evenodd" clip-rule="evenodd" d="M303.506 189.891H308.217Z" fill="#EAC102"/>
<path d="M303.506 189.891H308.217" stroke="black" stroke-width="0.268376" stroke-linecap="round" stroke-linejoin="round"/>
<path fill-rule="evenodd" clip-rule="evenodd" d="M310.286 189.891H320.605Z" fill="#EAC102"/>
<path d="M310.286 189.891H320.605" stroke="black" stroke-width="0.268376" stroke-linecap="round" stroke-linejoin="round"/>
<path fill-rule="evenodd" clip-rule="evenodd" d="M332.252 190.173L320.961 189.808Z" fill="#EAC102"/>
<path d="M332.252 190.173L320.961 189.808" stroke="black" stroke-width="0.268376" stroke-linecap="round" stroke-linejoin="round"/>
<path fill-rule="evenodd" clip-rule="evenodd" d="M326.68 198.347V207.413Z" fill="#EAC102"/>
<path d="M326.68 198.347V207.413" stroke="black" stroke-width="0.268376" stroke-linecap="round" stroke-linejoin="round"/>
<path fill-rule="evenodd" clip-rule="evenodd" d="M323.273 190.036V198.013Z" fill="#EAC102"/>
<path d="M323.273 190.036V198.013" stroke="black" stroke-width="0.268376" stroke-linecap="round" stroke-linejoin="round"/>
<path fill-rule="evenodd" clip-rule="evenodd" d="M330.548 190.246V198.016Z" fill="#EAC102"/>
<path d="M330.548 190.246V198.016" stroke="black" stroke-width="0.268376" stroke-linecap="round" stroke-linejoin="round"/>
<path fill-rule="evenodd" clip-rule="evenodd" d="M280.388 189.891H290.297Z" fill="#EAC102"/>
<path d="M280.388 189.891H290.297" stroke="black" stroke-width="0.268376" stroke-linecap="round" stroke-linejoin="round"/>
<path fill-rule="evenodd" clip-rule="evenodd" d="M307.134 189.674V181.449Z" fill="#EAC102"/>
<path d="M307.134 189.674V181.449" stroke="black" stroke-width="0.268376" stroke-linecap="round" stroke-linejoin="round"/>
<path fill-rule="evenodd" clip-rule="evenodd" d="M293.595 189.409V181.449Z" fill="#EAC102"/>
<path d="M293.595 189.409V181.449" stroke="black" stroke-width="0.268376" stroke-linecap="round" stroke-linejoin="round"/>
<path fill-rule="evenodd" clip-rule="evenodd" d="M274.385 181.921V189.918Z" fill="#EAC102"/>
<path d="M274.385 181.921V189.918" stroke="black" stroke-width="0.268376" stroke-linecap="round" stroke-linejoin="round"/>
<path fill-rule="evenodd" clip-rule="evenodd" d="M277.792 189.915V197.95Z" fill="#EAC102"/>
<path d="M277.792 189.915V197.95" stroke="black" stroke-width="0.268376" stroke-linecap="round" stroke-linejoin="round"/>
<path fill-rule="evenodd" clip-rule="evenodd" d="M270.517 190.253V197.991Z" fill="#EAC102"/>
<path d="M270.517 190.253V197.991" stroke="black" stroke-width="0.268376" stroke-linecap="round" stroke-linejoin="round"/>
<path d="M335.551 151.906L324.4 147.648H276.508L265.259 151.612" stroke="black" stroke-width="0.268376" stroke-linecap="round" stroke-linejoin="round"/>
<path fill-rule="evenodd" clip-rule="evenodd" d="M289.596 156.995V147.787Z" fill="#EAC102"/>
<path d="M289.596 156.995V147.787" stroke="black" stroke-width="0.268376" stroke-linecap="round" stroke-linejoin="round"/>
<path fill-rule="evenodd" clip-rule="evenodd" d="M301.471 156.995V147.787Z" fill="#EAC102"/>
<path d="M301.471 156.995V147.787" stroke="black" stroke-width="0.268376" stroke-linecap="round" stroke-linejoin="round"/>
<path fill-rule="evenodd" clip-rule="evenodd" d="M313.057 156.995V147.787Z" fill="#EAC102"/>
<path d="M313.057 156.995V147.787" stroke="black" stroke-width="0.268376" stroke-linecap="round" stroke-linejoin="round"/>
<path fill-rule="evenodd" clip-rule="evenodd" d="M298.246 236.827L296.663 231.135Z" fill="#EAC102"/>
<path d="M298.246 236.827L296.663 231.135" stroke="black" stroke-width="0.268376" stroke-linecap="round" stroke-linejoin="round"/>
<path fill-rule="evenodd" clip-rule="evenodd" d="M293.714 239.284L289.457 234.029Z" fill="#EAC102"/>
<path d="M293.714 239.284L289.457 234.029" stroke="black" stroke-width="0.268376" stroke-linecap="round" stroke-linejoin="round"/>
<path fill-rule="evenodd" clip-rule="evenodd" d="M290.657 243.269L284.598 241.344Z" fill="#EAC102"/>
<path d="M290.657 243.269L284.598 241.344" stroke="black" stroke-width="0.268376" stroke-linecap="round" stroke-linejoin="round"/>
<path fill-rule="evenodd" clip-rule="evenodd" d="M284.289 247.366H290.14Z" fill="#EAC102"/>
<path d="M284.289 247.366H290.14" stroke="black" stroke-width="0.268376" stroke-linecap="round" stroke-linejoin="round"/>
<path fill-rule="evenodd" clip-rule="evenodd" d="M284.289 252.848H290.14Z" fill="#EAC102"/>
<path d="M284.289 252.848H290.14" stroke="black" stroke-width="0.268376" stroke-linecap="round" stroke-linejoin="round"/>
<path fill-rule="evenodd" clip-rule="evenodd" d="M284.289 257.867H290.14Z" fill="#EAC102"/>
<path d="M284.289 257.867H290.14" stroke="black" stroke-width="0.268376" stroke-linecap="round" stroke-linejoin="round"/>
<path fill-rule="evenodd" clip-rule="evenodd" d="M275.441 262.499H290.14Z" fill="#EAC102"/>
<path d="M275.441 262.499H290.14" stroke="black" stroke-width="0.268376" stroke-linecap="round" stroke-linejoin="round"/>
<path fill-rule="evenodd" clip-rule="evenodd" d="M302.433 236.827L304.016 231.135Z" fill="#EAC102"/>
<path d="M302.433 236.827L304.016 231.135" stroke="black" stroke-width="0.268376" stroke-linecap="round" stroke-linejoin="round"/>
<path fill-rule="evenodd" clip-rule="evenodd" d="M306.964 239.284L310.836 234.26Z" fill="#EAC102"/>
<path d="M306.964 239.284L310.836 234.26" stroke="black" stroke-width="0.268376" stroke-linecap="round" stroke-linejoin="round"/>
<path fill-rule="evenodd" clip-rule="evenodd" d="M310.021 243.269L315.154 239.954Z" fill="#EAC102"/>
<path d="M310.021 243.269L315.154 239.954" stroke="black" stroke-width="0.268376" stroke-linecap="round" stroke-linejoin="round"/>
<path fill-rule="evenodd" clip-rule="evenodd" d="M316.39 246.517L310.538 247.366Z" fill="#EAC102"/>
<path d="M316.39 246.517L310.538 247.366" stroke="black" stroke-width="0.268376" stroke-linecap="round" stroke-linejoin="round"/>
<path fill-rule="evenodd" clip-rule="evenodd" d="M316.39 252.848H310.538Z" fill="#EAC102"/>
<path d="M316.39 252.848H310.538" stroke="black" stroke-width="0.268376" stroke-linecap="round" stroke-linejoin="round"/>
<path fill-rule="evenodd" clip-rule="evenodd" d="M316.39 257.867H310.538Z" fill="#EAC102"/>
<path d="M316.39 257.867H310.538" stroke="black" stroke-width="0.268376" stroke-linecap="round" stroke-linejoin="round"/>
<path fill-rule="evenodd" clip-rule="evenodd" d="M325.663 262.499H310.538Z" fill="#EAC102"/>
<path d="M325.663 262.499H310.538" stroke="black" stroke-width="0.268376" stroke-linecap="round" stroke-linejoin="round"/>
</g>
<defs>
<clipPath id="clip0_1_933">
<rect width="600" height="400" fill="white"/>
</clipPath>
</defs>
</svg>
