<svg width="600" height="400" viewBox="0 0 600 400" fill="none" xmlns="http://www.w3.org/2000/svg" xmlns:cgf="https://coding.garden/flags"><metadata id="cgf-metadata">

<cgf:flag>
  <cgf:name>De Wolden</cgf:name>
  <cgf:route>nl/dr/de_wolden</cgf:route>
  <cgf:aspect-ratio>1.5</cgf:aspect-ratio>
</cgf:flag>

</metadata><g clip-path="url(#clip0_1_1071)">
<path d="M0 3H600V400H0V3Z" fill="#00953B"/>
<rect width="144" height="400" fill="black"/>
<path d="M91.2223 -6.99993C99.0805 -6.99993 106.617 -3.87825 112.174 1.67839C117.73 7.23502 120.852 14.7714 120.852 22.6297C120.852 30.488 117.73 38.0244 112.174 43.581C106.617 49.1376 99.0805 52.2593 91.2223 52.2593C74.926 52.2593 63.0741 37.4445 46.7778 37.4445C38.9196 37.4445 31.3831 40.5662 25.8265 46.1228C20.2699 51.6795 17.1482 59.2159 17.1482 67.0741C17.1482 74.9324 20.2699 82.4688 25.8265 88.0254C31.3831 93.5821 38.9196 96.7038 46.7778 96.7038C63.0741 96.7038 74.926 81.8889 91.2223 81.8889C99.0805 81.8889 106.617 85.0106 112.174 90.5673C117.73 96.1239 120.852 103.66 120.852 111.519C120.852 119.377 117.73 126.913 112.174 132.47C106.617 138.027 99.0805 141.148 91.2223 141.148C74.926 141.148 63.0741 126.333 46.7778 126.333C38.9196 126.333 31.3831 129.455 25.8265 135.012C20.2699 140.568 17.1482 148.105 17.1482 155.963C17.1482 163.821 20.2699 171.358 25.8265 176.914C31.3831 182.471 38.9196 185.593 46.7778 185.593C63.0741 185.593 74.926 170.778 91.2223 170.778C99.0805 170.778 106.617 173.9 112.174 179.456C117.73 185.013 120.852 192.549 120.852 200.407C120.852 208.266 117.73 215.802 112.174 221.359C106.617 226.915 99.0805 230.037 91.2223 230.037C74.926 230.037 63.0741 215.222 46.7778 215.222C38.9196 215.222 31.3831 218.344 25.8265 223.901C20.2699 229.457 17.1482 236.994 17.1482 244.852C17.1482 252.71 20.2699 260.247 25.8265 265.803C31.3831 271.36 38.9196 274.482 46.7778 274.482C63.0741 274.482 74.926 259.667 91.2223 259.667C99.0805 259.667 106.617 262.788 112.174 268.345C117.73 273.902 120.852 281.438 120.852 289.296C120.852 297.155 117.73 304.691 112.174 310.248C106.617 315.804 99.0805 318.926 91.2223 318.926C74.926 318.926 63.0741 304.111 46.7778 304.111C38.9196 304.111 31.3831 307.233 25.8265 312.789C20.2699 318.346 17.1482 325.883 17.1482 333.741C17.1482 341.599 20.2699 349.135 25.8265 354.692C31.3831 360.249 38.9196 363.37 46.7778 363.37C63.0741 363.37 74.926 348.556 91.2223 348.556C99.0805 348.556 106.617 351.677 112.174 357.234C117.73 362.791 120.852 370.327 120.852 378.185C120.852 386.043 117.73 393.58 112.174 399.137C106.617 404.693 99.0805 407.815 91.2223 407.815" stroke="white" stroke-width="10.6667"/>
<rect x="144" y="356" width="456" height="44" fill="#F7C600"/>
<rect x="144" y="267" width="456" height="44" fill="#F7C600"/>
<rect x="144" y="178" width="456" height="44" fill="#F7C600"/>
<rect x="144" y="89" width="456" height="44" fill="#F7C600"/>
<rect x="144" width="456" height="44" fill="#F7C600"/>
</g>
<defs>
<clipPath id="clip0_1_1071">
<rect width="600" height="400" fill="white"/>
</clipPath>
</defs>
</svg>
