<svg width="600" height="400" viewBox="0 0 600 400" fill="none" xmlns="http://www.w3.org/2000/svg" xmlns:cgf="https://coding.garden/flags"><metadata id="cgf-metadata">

<cgf:flag>
  <cgf:name>Emmen</cgf:name>
  <cgf:route>nl/dr/emmen</cgf:route>
  <cgf:aspect-ratio>1.5</cgf:aspect-ratio>
</cgf:flag>

</metadata><g clip-path="url(#clip0_1_590)">
<path d="M0.0710709 78L-0.780518 321.21L605.55 320.36L603.847 78H0.0710709Z" fill="#F9F9F9"/>
<path d="M-0.0244959 -0.231627L-0.871338 80.4896L602.078 80.2074L600.384 -0.231627H-0.0244959V-0.231627Z" fill="black"/>
<path d="M28.5924 -0.315416L-0.866699 80.4083H59.254L28.5924 -0.315416V-0.315416Z" fill="#008000"/>
<path d="M88.851 -0.445466L59.3918 80.2783H119.513L88.851 -0.445466Z" fill="#008000"/>
<path d="M149.23 -0.445466L119.771 80.2783H179.891L149.23 -0.445466V-0.445466Z" fill="#008000"/>
<path d="M209.608 -0.445466L180.149 80.2783H240.27L209.608 -0.445466V-0.445466Z" fill="#008000"/>
<path d="M269.844 -0.447759L240.385 80.276H300.505L269.844 -0.447759V-0.447759Z" fill="#008000"/>
<path d="M330.097 -0.506504L300.638 80.2172H360.759L330.097 -0.506504V-0.506504Z" fill="#008000"/>
<path d="M390.242 -0.506504L360.783 80.2172H420.904L390.242 -0.506504V-0.506504Z" fill="#008000"/>
<path d="M450.841 -0.506504L421.382 80.2172H481.503L450.841 -0.506504V-0.506504Z" fill="#008000"/>
<path d="M510.986 -0.506504L481.527 80.2172H541.648L510.986 -0.506504V-0.506504Z" fill="#008000"/>
<path d="M571.131 -0.506504L541.672 80.2172H601.793L571.131 -0.506504V-0.506504Z" fill="#008000"/>
<path d="M95.2722 179.442L91.0968 174.404L88.1101 171.041C86.1664 169.183 85.4636 167.35 84.5533 165.513C85.7988 164.672 86.4077 163.476 86.5812 162.038L80.858 163.859C82.1396 162.918 83.4153 162.298 84.7167 160.277C83.5296 161.358 82.302 162.252 80.9493 162.569C81.5022 161.336 81.0605 160.083 80.7466 158.832C79.2176 161.054 76.9173 161.558 74.7224 162.297C74.5902 160.125 73.4938 158.439 71.9066 157C72.3552 158.121 72.4183 160.122 71.9516 161.953C70.6576 161.161 69.6815 160.376 68.7433 159.591L68.3991 163.603C65.6799 162.901 62.9734 161.503 60.1942 164.081C62.7555 163.707 64.8827 163.873 65.7893 165.559C61.835 164.799 60.0435 166.82 58.1453 168.704C60.2094 168.193 62.2802 167.309 64.3281 167.682C60.5987 168.724 58.1205 170.869 56.1616 173.472C58.2129 172.169 60.2641 170.866 62.644 170.878C58.5658 173.009 55.6137 176.518 53.1189 180.587C55.5761 178.495 57.5779 175.985 61.0145 174.792C58.0795 177.601 55.6826 180.834 53.9934 184.624L61.1508 178.455C59.7297 181.809 57.1436 184.515 54.6898 187.294L59.6175 184.524C58.7452 186.348 56.6917 187.896 54.9877 189.525L59.5611 187.61L53.491 193.586L58.9447 191.688C58.1501 193.851 56.0305 195.81 53.8213 197.756C55.4412 196.835 57.0566 196.162 58.693 194.339C58.2178 197.51 56.1369 199.133 54.304 200.995C56.2834 199.919 58.3227 198.954 59.7969 196.945C59.5196 199.939 58.9484 202.823 57.0718 205.215C59.4006 203.038 60.7364 200.84 62.0013 198.641C61.7143 201.937 61.1039 205.226 59.3827 208.492C61.1404 206.295 63.0154 204.175 63.9151 201.408C63.8007 205.586 63.2839 209.265 61.7627 211.699C63.8665 210.129 66.6035 207.549 67.5225 207.87C70.1384 212.552 66.5037 215.628 64.607 219.15L83.0074 231.586L99.0494 213.684L105.487 213.529L107.41 215.794C106.754 220.651 107.864 228.819 105.188 229.888L105.838 231.408L106.794 230.997L106.76 232.863L105.8 233.489L101.857 234.269L103.053 239.246L105.227 242.592L108.49 238.281L109.541 236.365L111.786 232.104L112.039 210.864C110.759 209.254 109.47 208.091 108.169 207.627L101.971 205.777L101.995 204.486C103.815 200.271 106.561 197.418 109.421 194.733L109.885 191.585L112.204 190.699L112.705 189.202L115.482 189.259L115.859 188.842L117.149 191.182L123.571 191.307C122.375 189.076 120.95 187.04 118.662 185.736L116.068 183.099L114.445 182.994L113.275 183.975L111.24 184.148L110.482 184.85L104.246 192.474C101.769 194.362 98.5427 197.104 95.1581 196.809C92.0098 193.291 89.6727 187.87 85.5208 186.707C82.69 185.737 80.2612 184.452 79.7881 181.637L86.6829 182.424L89.7998 186.077C90.5579 186.122 91.2679 186.059 91.5135 184.964L89.653 182.988C88.8779 181.927 88.5443 181.064 91.3043 181.586L94.1569 184.874C95.7597 182.97 95.6312 181.198 95.2722 179.442L95.2722 179.442Z" fill="black" stroke="black" stroke-width="0.2989"/>
<path d="M83.1454 202.184L64.4755 189.671L61.2222 193.48L59.308 194.445L57.7244 195.848L53.7508 202.011C50.025 206.715 48.2102 203.938 46.382 201.214C45.4496 199.21 46.1132 197.577 46.9517 195.986C48.1267 195.072 48.3626 187.382 48.6035 179.727C46.6698 182.413 45.2555 185.815 44.0226 189.466C43.8103 186.463 44.427 183.215 46.0305 179.675C47.7342 175.567 47.0092 173.936 47.4053 171.162C46.3236 175.261 44.2592 178.637 42.1276 181.963C43.6581 175.118 44.3651 168.026 49.1278 162.153L45.5609 164.592C46.5893 161.91 48.3078 159.242 50.0426 156.574C47.8733 157.904 45.6831 160.379 43.4933 162.827C44.3552 158.155 47.8325 153.71 51.5306 149.283L48.4639 150.297C49.5013 146.646 46.6324 141.144 52.9198 139.981C46.5117 134.348 46.5024 142.013 45.205 147C44.1416 145.758 44.0421 144.536 43.8499 143.312C42.2341 148.391 42.9228 153.866 42.4768 159.146C40.4653 157.115 40.5671 154.808 39.6832 152.629C39.423 157.416 39.8007 163.543 38.0969 165.301C37.1856 165.121 36.8209 163.571 36.2508 162.535C34.8119 172.466 38.0982 176.779 39.6677 183.133C38.3486 181.187 37.0115 180.219 35.668 179.606C37.1165 181.978 37.9845 184.943 38.1449 188.628L35.8689 187.146C36.5346 189.313 37.1352 191.478 39.2042 193.674C37.1644 193.881 36.7111 195.184 36.0396 196.337C37.8696 196.53 39.7295 196.417 41.3456 198.814C44.698 202.531 44.8463 209.615 53.5105 207.748C54.1498 210.351 54.9718 212.994 57.5591 216.014C61.1726 218.552 61.9114 221.031 63.9244 223.537L64.2066 226.629L65.0632 227.938L64.6972 229.438L63.1254 230.195C61.5458 232.23 60.0543 234.46 58.1466 235.763C57.6979 237.378 54.9693 237.614 58.0444 241.36C59.7992 245.487 60.5341 249.593 60.1224 253.676L59.8471 257.618L61.7431 257.657L63.0921 257.971L63.0865 261.919L73.1105 261.981L67.7464 255.268C64.1488 249.917 64.2035 244.344 65.2718 238.709L71.7809 230.947C76.1744 228.027 76.7442 223.83 78.2812 219.956L79.3253 222.13L79.3847 226.294C80.148 229.024 81.764 228.611 83.2713 228.599L96.9062 238.64C97.4536 242.594 100.127 241.79 102.26 242.195L103.098 248.241L113.184 248.592L108.563 242.037L108.253 240.452L106.503 239.842L104.103 237.711L103.926 236.272L102.588 235.383L88.8853 225.341L88.8927 221.178C90.3267 215.882 100.931 203.395 83.2566 203.406L83.1435 202.184H83.1454Z" fill="black" stroke="black" stroke-width="0.2989"/>
<path d="M69.5058 196L69.5788 199.411L70.731 201.229L72.8311 203.066L74.0082 203.521L73.8247 202.441L70.7963 199.508L70.1128 197.986L69.5056 196H69.5058Z" fill="#CCCCCC"/>
<path d="M80.6812 200.772L81.8004 199.805L82.1724 200.422L82.8173 200.511L83.1839 200.113L83.2897 199.557L83.3718 199L84.4247 199.047L84.4321 200.037L83.9528 200.052L83.7543 200.429L83.4583 200.905L82.9748 201.149L82.1848 201.133L81.3948 201.117L81.1375 200.781L80.6827 200.772L80.6812 200.772Z" fill="#B3B3B3"/>
<path d="M80.3103 202.087L81.0926 201.215L81.8919 200.723L82.7813 200.539L82.1235 199.84L81.247 199.315L80.6095 198.819L79.5222 198.036L78.5113 197L78.6618 197.942L77.8958 197.926L78.9568 198.836L79.4231 199.531L78.5906 200.529L79.8668 200.149L80.6996 200.445L80.3441 201.555L80.3105 202.087H80.3103Z" fill="#B3B3B3"/>
<path d="M84.9492 194.411L84.1778 194L83.7324 194.278L84.4661 194.903L85.1718 195.205L85.7721 195.719L86.1307 196.48L87.7549 198.416L90.569 201.955L90.6535 202.889L92.1685 203.387L92.6027 203.719L92.5935 204.257L91.8473 204.313C91.8473 204.313 91.6396 204.56 91.637 204.704C91.6333 204.847 91.8862 205.893 91.8862 205.893L92.3523 206.333C92.3523 206.333 93.4995 206.572 93.6349 206.575C93.7703 206.578 94.5139 206.665 94.5139 206.665L94.7886 206.455L94.796 206.061L94.3533 206.195L93.0335 206.132L92.8018 205.84L92.714 205.085L92.856 204.729L93.1315 204.483L93.4707 204.454L93.8385 204.713L93.9341 205.038L94.3065 205.046L94.3476 204.652L94.2572 204.04L93.9577 203.747L93.4519 203.629L92.7162 203.111L91.9161 202.413L91.5861 201.939L86.6399 196.455L85.3399 195.316L85.2521 194.56L84.95 194.411H84.9492Z" fill="#B3B3B3"/>
<path d="M82.9895 196L82.3598 197.1L82.2736 198.103L83.0658 199.231L83.3614 199.74L83.0508 200.056L82.1216 200.863L81.2328 201.311L80.2106 201.649L77.6017 201.703L76.7892 201.687L75.4526 200.69L76.6433 202.258L77.985 202.967L79.6798 202.894L81.0093 202.419C81.0093 202.419 81.999 202.009 82.1371 201.868C82.2751 201.727 83.4028 201.176 83.4028 201.176L83.9784 201.188L85.0148 201.927L87.4998 203.091L85.0937 201.319L84.1966 200.367L83.4741 199.132L83.0145 198.333L83.2758 197.011L82.9894 196L82.9895 196Z" fill="#B3B3B3"/>
<path d="M71.1216 180.953L66.8898 179L68.2803 180.751C58.0555 184.769 61.2717 204.567 68.0997 220.295L69.5972 219.895C64.8052 205.64 58.4897 190.825 68.5953 182.05C66.4226 187.173 67.054 192.353 67.7028 197.534C68.0677 191.524 68.0143 185.254 71.1217 180.953H71.1216Z" fill="#B3B3B3"/>
<path d="M75.659 202.812L73.3778 201.617L72.5277 199.949L72.2429 197L71.9939 199.507L72.3634 201.524L73.4923 202.768L75.659 202.812V202.812Z" fill="#B3B3B3"/>
<path d="M69.8907 193L69.6522 194.933L69.2263 196.001L70.1124 195.696L70.085 197.203L70.0495 199.14L69.3978 199.593L69.1204 199.946L70.0683 199.966L70.6067 200.156L70.5473 201.555L69.8324 201.755L70.5349 202.236L70.422 204.71L69.8692 205.309L70.571 205.826L70.7512 207.085L71.0319 206.553L70.9605 199.338L70.6357 198.578L70.6562 195.6L70.2995 194.731L69.8908 193L69.8907 193Z" fill="#B3B3B3"/>
<path d="M76.1993 192C71.7816 196.069 71.3562 202.091 72.0005 208.637L72.7805 208.581C72.5457 203.906 72.9306 198.643 75.3134 196.001C75.6434 199.519 76.4958 202.735 80.7899 203.973C76.7595 200.957 76.0634 197.148 76.4505 193.082L76.1993 192V192Z" fill="#B3B3B3"/>
<path d="M77.1973 195L78.8905 196.865L80.253 198.293L79.471 198.456L80.9555 198.773L82.264 199.446L83.1696 199.931L82.4534 200.204L84.1429 200.418L85.2497 201.015L84.3596 201.535L86.0517 201.605L87.5223 202.676L90.957 205.618L90.8335 204.969L88.1637 202.797L86.195 201.178C86.195 201.178 84.3559 199.884 84.2218 199.809C84.0877 199.735 82.4783 198.841 82.4783 198.841C82.4783 198.841 81.035 198.129 80.9367 197.948C80.8384 197.766 79.707 196.666 79.707 196.666L78.8132 195.536L77.1973 195L77.1973 195Z" fill="#B3B3B3"/>
<path d="M94.9459 200.51L92.8542 198.207L90.8692 197.484C90.8692 197.484 88.4395 197.004 88.2702 197C88.1008 196.997 85.0851 197.078 84.9145 197.147C84.7439 197.215 82.0582 197.77 82.0582 197.77L79.2577 199.04L77.3017 200.436L74.9211 202.827L76.2514 202.316L78.8962 200.289L82.2436 198.743L85.3376 198.088L87.6769 197.957L88.2088 198.506L88.6581 198.013L89.7044 198.214L90.0995 198.832L90.5475 198.411L91.4544 198.824L91.8755 199.873L92.3274 199.237L93.1301 199.791L93.3885 200.478L94.9459 200.51V200.51Z" fill="#B3B3B3"/>
<path d="M110.418 199.433L111.812 197.308L113.571 197.38L114.29 197L116.453 197.224L117.518 198.251L118.181 199.054L118.627 198.74L119.228 199.219L118.815 199.533L119.374 200.478L120.87 202.016L121.663 203.109L121.859 203.507L119.831 203.25L119.746 202.351L119.254 201.48L118.994 200.901L119.373 200.549L118.882 199.606L117.98 200.808L116.694 202.576L116.072 201.379L117.903 199.443L116.632 198.555L115.283 198.241L113.83 198.067L112.239 198.035L110.418 199.433L110.418 199.433Z" fill="#B3B3B3"/>
<path d="M95.1259 197.799L95.1698 200.958L95.9738 201.441L97.1496 201.968L97.519 200.289L97.3342 199.28L96.9423 198.483L96.3806 197.717L96.3935 197L96.9539 197.837L97.9226 198.574L98.5456 199.7L98.5566 200.956L98.5356 202.104L99.0238 203.191L97.7823 202.555L95.6572 202.081L94.7894 201.381L94.3696 200.26L95.1258 197.799H95.1259Z" fill="#B3B3B3"/>
<path d="M98.9675 196L101 196.006C101 196.006 103.221 196.769 103.356 196.772C103.492 196.774 105.763 196.642 105.763 196.642L107.822 197.043C107.822 197.043 109.064 197.643 109.265 197.79C109.465 197.938 110.568 198.75 110.568 198.75L111.585 200.529L111.298 203.287L110.301 200.395L109.102 199.258L106.811 198.601L104.149 197.865L101.826 197.099L99.7065 196.338L98.9675 196V196Z" fill="#B3B3B3"/>
<path d="M91.2886 199.145L90.9239 199.442L90.6241 200.121L90.4017 200.497L90.2874 201.51L90.659 200.833L91.2175 200.413L91.6576 199.914L91.9321 199.311L91.6264 199L91.2885 199.145L91.2886 199.145Z" fill="#B3B3B3"/>
<path d="M93.2214 199.145L92.8568 199.442L92.557 200.121L92.3346 200.497L92.2202 201.51L92.5918 200.833L93.1503 200.413L93.5905 199.914L93.865 199.311L93.5593 199L93.2214 199.145L93.2214 199.145Z" fill="#B3B3B3"/>
<path d="M95.3777 199.145L95.013 199.442L94.7132 200.121L94.4908 200.497L94.3765 201.51L94.7481 200.833L95.3066 200.413L95.7467 199.914L96.0212 199.311L95.7155 199L95.3776 199.145L95.3777 199.145Z" fill="#B3B3B3"/>
<path d="M97.9267 199.145L97.5621 199.442L97.2623 200.121L97.0399 200.497L96.9255 201.51L97.2971 200.833L97.8556 200.413L98.2958 199.914L98.5703 199.311L98.2646 199L97.9267 199.145H97.9267Z" fill="#B3B3B3"/>
<path d="M89.2961 199.145L88.9315 199.442L88.6317 200.121L88.4093 200.497L88.2949 201.51L88.6665 200.833L89.225 200.413L89.6652 199.914L89.9397 199.311L89.634 199L89.2961 199.145H89.2961Z" fill="#B3B3B3"/>
<path d="M88.3391 199.145L87.9744 199.442L87.6746 200.121L87.4523 200.497L87.3379 201.51L87.7095 200.833L88.268 200.413L88.7082 199.914L88.9827 199.311L88.677 199L88.3391 199.145L88.3391 199.145Z" fill="#B3B3B3"/>
<path d="M111.673 202.775L111.095 202.871L111.103 209.941L111.523 209.196L111.674 202.775L111.673 202.775Z" fill="#CCCCCC"/>
<path d="M104.913 211.321L106.597 213.653L105.426 214.705L103.84 216.288L104.884 218.427L106.981 214.917L106.181 214.183L106.597 213.653L108.359 215.447L108.92 214.454L107.11 213.412L106.319 212.212L105.555 211.371L105.081 211.361L104.913 211.322L104.913 211.321Z" fill="#CCCCCC"/>
<path d="M85.1601 201.185L88.081 198.606L90.446 195L92.2469 196.052L93.9547 196.95L91.1663 200.141L88.2886 202.974L84.5667 204.827L87.4323 202.652L89.7244 200.416L91.1481 198.516L91.5561 197.154L90.7385 197.341L89.8563 198.439L88.3433 199.981L85.684 201.348L85.1601 201.185V201.185Z" fill="#BFC3CC"/>
<path d="M91.2727 201.37L92.8453 201.808L93.7247 200.862L95.214 198L93.6006 199.794L92.386 200.733L91.2727 201.37V201.37Z" fill="#B3B3B3"/>
<path d="M93.7329 201.37L95.3055 201.809L96.185 200.862L97.6742 198L96.0608 199.794L94.8462 200.733L93.7329 201.37V201.37Z" fill="#B3B3B3"/>
<path d="M67.6851 201.085L69.3885 200.917L70.3618 200.074L71.2956 198.774L71.9085 198L72.5788 198.014L71.9452 198.61L71.6413 199.517L71.0708 200.596L70.4344 201.345L69.4459 201.705L67.6851 201.085V201.085Z" fill="#B3B3B3"/>
<path d="M72.825 199L73.2148 199.947L73.9223 200.545L75.6192 200.732L78.4924 200.766L78.818 199.986L74.8436 199.93L74.0117 199.583L73.4916 199.217L72.825 199V199Z" fill="#CCCCCC"/>
<path d="M71.7693 199L72.0964 199.968L72.6936 200.577L74.1301 200.763L76.5632 200.786L76.8415 199.987L73.4758 199.944L72.7725 199.592L72.3331 199.219L71.7693 199V199Z" fill="#CCCCCC"/>
<path d="M71.0474 199.418L71.3416 200.398L71.8811 201.014L73.1813 201.199L75.3842 201.218L75.6377 200.407L72.5906 200.371L71.9545 200.016L71.5574 199.639L71.0474 199.418V199.418Z" fill="#CCCCCC"/>
<path d="M62.3975 206.069L61.4923 205.7L60.9439 205.092L60.8474 203.706L60.9607 201.375L61.7392 201.155L61.592 204.38L61.8887 205.074L62.2197 205.517L62.3975 206.069Z" fill="#CCCCCC"/>
<path d="M59.9946 205.638L59.0535 205.359L58.4813 204.907L58.3738 203.883L58.4785 202.162L59.285 202.004L59.1499 204.385L59.4614 204.9L59.8073 205.228L59.9947 205.638L59.9946 205.638Z" fill="#CCCCCC"/>
<path d="M64.7673 205.875L63.8992 205.392L63.3758 204.593L63.2922 202.759L63.4167 199.674L64.1669 199.377L64.0041 203.646L64.2847 204.562L64.6002 205.145L64.7675 205.875H64.7673Z" fill="#CCCCCC"/>
<path d="M95.9728 255.686L93.9426 261.938L81.4866 262.088L78.6756 269.136L56.0692 269.078L54.0205 276.344L249.637 276.094L247.848 269.155L224.281 269.281L222.3 262.338L209.089 261.864L206.14 255.51L95.9728 255.686V255.686Z" fill="#AEB8C2" stroke="black" stroke-width="0.2989"/>
<path d="M120.972 255.469L122.456 259.519L123.276 255.445L120.972 255.469V255.469Z" fill="black"/>
<path d="M148.875 255.718L150.359 259.768L151.179 255.694L148.875 255.718V255.718Z" fill="black"/>
<path d="M177.394 255.658L178.878 259.707L179.697 255.633L177.394 255.657V255.658Z" fill="black"/>
<path d="M93.8257 262.018L209.657 261.954" stroke="black" stroke-width="0.2989"/>
<path d="M78.7927 269.174L224.693 269.439" stroke="black" stroke-width="0.2989"/>
<path d="M107.711 262.051L109.195 266.101L110.015 262.027L107.711 262.051V262.051Z" fill="black"/>
<path d="M134.939 262.179L136.423 266.229L137.242 262.155L134.939 262.179V262.179Z" fill="black"/>
<path d="M162.714 262.031L164.198 266.081L165.017 262.007L162.714 262.031V262.031Z" fill="black"/>
<path d="M191.163 262.041L192.647 266.091L193.467 262.016L191.163 262.041V262.041Z" fill="black"/>
<path d="M90.3708 269.447L91.8548 273.497L92.6744 269.423L90.3708 269.447V269.447Z" fill="black"/>
<path d="M121.8 269.518L123.283 273.568L124.103 269.493L121.8 269.518V269.518Z" fill="black"/>
<path d="M149.168 269.362L150.652 273.411L151.471 269.337L149.168 269.361V269.362Z" fill="black"/>
<path d="M178.029 269.092L179.513 273.142L180.332 269.068L178.029 269.092V269.092Z" fill="black"/>
<path d="M208.231 269.568L209.715 273.618L210.534 269.544L208.231 269.568V269.568Z" fill="black"/>
<path d="M91.0319 212.575L91.3208 213.829L91.1399 215.103L89.9204 217.042L87.6775 220.072L86.9299 219.714L90.0264 215.514L90.4635 214.335L90.6431 213.465L91.032 212.575L91.0319 212.575Z" fill="#CCCCCC"/>
<path d="M88.9529 211.227L89.1896 212.398L89.0375 213.589L88.0242 215.404L86.1614 218.24L85.5432 217.907L88.1149 213.976L88.479 212.873L88.6295 212.059L88.9532 211.227L88.9529 211.227Z" fill="#CCCCCC"/>
<path d="M85.6783 211.776L85.8275 212.565L85.7301 213.367L85.0868 214.59L83.9044 216.501L83.5129 216.277L85.1453 213.628L85.3768 212.885L85.4727 212.337L85.6784 211.776L85.6783 211.776Z" fill="#CCCCCC"/>
<path d="M82.1844 209.599L78.2462 213.825L77.5664 213.954L77.2489 212.8L76.6355 213.002L76.3472 217.662L77.161 217.607L77.4297 214.023L78.2462 213.825L78.298 214.687L79.457 214.28L82.141 211.967L82.5084 210.395L82.1842 209.599L82.1844 209.599Z" fill="#CCCCCC"/>
<path d="M60.1023 209.313L58.9415 209.705L58.0097 210.533L57.0834 212.646L55.812 216.253L56.49 216.742L58.2589 211.754L58.9806 210.744L59.5882 210.128L60.1022 209.313L60.1023 209.313Z" fill="#CCCCCC"/>
<path d="M60.81 212.479L59.8373 212.855L59.0555 213.645L58.2756 215.659L57.2036 219.096L57.7702 219.561L59.2616 214.807L59.868 213.844L60.3779 213.256L60.8099 212.479L60.81 212.479Z" fill="#CCCCCC"/>
<path d="M61.9555 216.451L61.1918 216.728L60.5783 217.311L59.9673 218.797L59.1282 221.334L59.5736 221.678L60.7411 218.169L61.2167 217.458L61.6167 217.025L61.9555 216.451L61.9555 216.451Z" fill="#CCCCCC"/>
<path d="M62.5796 220.11L62.0547 220.262L61.6339 220.585L61.2171 221.41L60.6458 222.82L60.9531 223.012L61.7481 221.063L62.0736 220.669L62.3479 220.429L62.5796 220.11L62.5796 220.11Z" fill="#CCCCCC"/>
<path d="M76.2727 224.727L75.3175 224.659L74.4113 224.974L73.1591 226.214L71.248 228.425L71.6103 228.982L74.261 225.927L75.0633 225.418L75.675 225.158L76.2726 224.727L76.2727 224.727Z" fill="#CCCCCC"/>
<path d="M76.3325 228.071L75.3773 228.003L74.4711 228.317L73.219 229.558L71.3079 231.769L71.6701 232.325L74.3208 229.271L75.1231 228.762L75.7348 228.502L76.3324 228.07L76.3325 228.071Z" fill="#CCCCCC"/>
<path d="M75.7917 231.72L74.8366 231.652L73.9303 231.967L72.6782 233.207L70.7671 235.418L71.1293 235.975L73.78 232.92L74.5823 232.411L75.194 232.151L75.7917 231.72L75.7917 231.72Z" fill="#CCCCCC"/>
<path d="M64.5234 240.1L60.8829 242.86L58.5657 243.638L58.621 244.321L60.323 243.853L60.3698 245.003L58.6333 245.505L58.5852 246.294L60.5573 245.868L60.7701 247.2L59.4412 247.639L59.598 248.324L61.9074 247.977L62.1288 246.977L60.8045 247.165L60.558 245.832L62.0887 245.469L62.719 244.333L62.1787 244.25L60.3009 245.073L60.288 243.924L61.8598 243.167L64.2338 241.134L64.5237 240.1L64.5234 240.1Z" fill="#CCCCCC"/>
<path d="M65.1096 245.1L64.2444 249.819L64.1912 252.725L64.7351 256.325L65.7933 259.577L67.5951 262.915L67.0501 263.083L64.7294 260.344L63.6047 257.02L63.3416 252.887C63.3416 252.887 63.389 248.438 63.4605 248.224C63.5323 248.01 64.4238 245.553 64.4238 245.553L65.1094 245.1L65.1096 245.1Z" fill="#CCCCCC"/>
<path d="M71.5639 268.128L71.2809 266.938L70.2862 265.77L68.3983 263.434L63.5486 267.497L63.3994 268.248L64.6892 268.095L69.1619 264.275L69.7894 265.149L69.4495 265.214L69.1245 266.32L69.7547 267.051L70.0046 268.204L71.5639 268.128L71.5639 268.128Z" fill="#CCCCCC"/>
<path d="M61.1722 264.111L61.2482 259.95L60.6744 261.697L60.2504 262.657L60.1558 264.126L61.1721 264.111L61.1722 264.111Z" fill="#CCCCCC"/>
<path d="M90.7143 222.078L89.7939 222.356L89.0415 222.977L88.2592 224.593L87.1665 227.359L87.685 227.753L89.2043 223.928L89.797 223.162L90.2896 222.698L90.7143 222.077L90.7143 222.078Z" fill="#CCCCCC"/>
<path d="M84.0857 233.11L85.0426 233.082L85.9366 233.433L87.1426 234.724L88.9714 237.012L88.5892 237.553L86.052 234.392L85.2689 233.851L84.6672 233.566L84.0857 233.11L84.0857 233.11Z" fill="#CCCCCC"/>
<path d="M81.0177 228.954L79.83 230.94L79.7866 233.307L80.9089 234.909L82.1211 235.293L81.064 233.836L80.4183 232.1L80.7154 230.671L81.0177 228.954H81.0177Z" fill="#CCCCCC"/>
<path d="M78.6616 224.456L78.8308 226.326L79.552 227.632L79.6461 226.199L78.9991 224.535L78.6619 224.456L78.6616 224.456Z" fill="#CCCCCC"/>
<path d="M91.1868 235.91L97.3974 240.774L100.848 244.721L101.706 245.958L102.741 244.903L103.584 243.27L93.399 237.175L91.1868 235.91V235.91Z" fill="#CCCCCC"/>
<path d="M98.487 244.17L98.2393 246.605L100.988 248.169L101.078 246.95L100.154 245.64L98.487 244.17H98.487Z" fill="#CCCCCC"/>
<path d="M107.793 250.174L110.683 255.114L112.443 255.15L108.608 250.048L107.793 250.175V250.174Z" fill="#CCCCCC" stroke="black" stroke-width="0.2989"/>
<path d="M46.1103 195L46.0718 200.813L44.1636 205.152L46.4466 202.543L47.1774 199.615L46.1102 195H46.1103Z" fill="#B3B3B3"/>
<path d="M42.25 203.004L40.4572 201.029L37.8597 198.608L36.4666 197L38.3686 200.412L39.621 202.304L42.25 203.004V203.004Z" fill="#B3B3B3"/>
<path d="M40.697 204.901L43.72 198.862L44.4002 195L42.7305 197.406L40.7494 202.031L39.5398 201.504L40.697 204.901V204.901Z" fill="#B3B3B3"/>
<path d="M40.3333 197L40.2 200.586L40.7023 202.75L41.0933 199.887L40.3332 197H40.3333Z" fill="#B3B3B3"/>
<path d="M43.9404 198L44.2838 201.452L44.9247 199.743L43.9404 198Z" fill="#B3B3B3"/>
<path d="M116.526 157L116.493 210.686C126.276 255.985 179.17 249.867 184.892 211.515L184.659 157.536L116.526 157Z" fill="#AEB8C4" stroke="black" stroke-width="0.2989"/>
<path d="M120.473 233.251L151.258 201.871L116.807 167L116.363 220.965C116.75 225.347 119.296 231.173 120.473 233.251Z" fill="#008000" stroke="black" stroke-width="0.2989"/>
<path d="M180.53 233.496L150.825 200.571L184.706 167L184.607 221.378C184.06 225.741 181.782 231.468 180.53 233.496H180.53Z" fill="#008000" stroke="black" stroke-width="0.2989"/>
<path d="M147.569 212.304L147.609 213.812L149.572 213.853L149.593 223.83L147.493 223.858L147.336 228.736L148.072 229.253L147.888 250.423L153.848 250.473L153.828 229.3L154.45 228.666L154.405 223.713L152.306 223.67L152.346 214.053L154.446 214.024L154.476 212.374L147.568 212.304L147.569 212.304Z" fill="black" stroke="black" stroke-width="0.2989"/>
<path d="M207.507 179.467L211.863 174.604L214.97 171.366C216.981 169.589 217.75 167.787 218.727 165.988C217.513 165.096 216.948 163.876 216.827 162.432L222.48 164.486C221.233 163.494 219.981 162.822 218.755 160.749C219.901 161.878 221.095 162.822 222.435 163.193C221.928 161.939 222.415 160.705 222.774 159.468C224.221 161.751 226.501 162.349 228.667 163.178C228.879 161.012 230.036 159.372 231.675 158C231.185 159.102 231.049 161.099 231.449 162.948C232.771 162.209 233.775 161.464 234.741 160.719L234.938 164.742C237.681 164.152 240.437 162.866 243.12 165.556C240.574 165.077 238.442 165.156 237.475 166.804C241.454 166.206 243.17 168.299 244.998 170.26C242.954 169.664 240.917 168.696 238.857 168.985C242.546 170.179 244.944 172.424 246.806 175.106C244.804 173.719 242.802 172.333 240.423 172.247C244.421 174.544 247.242 178.172 249.587 182.34C247.208 180.149 245.299 177.558 241.909 176.225C244.739 179.152 247.016 182.481 248.565 186.338L241.639 179.88C242.936 183.289 245.422 186.1 247.772 188.978L242.949 186.008C243.754 187.866 245.75 189.497 247.393 191.195L242.893 189.093L248.74 195.314L243.36 193.194C244.075 195.387 246.121 197.432 248.258 199.467C246.673 198.481 245.083 197.742 243.514 195.853C243.873 199.041 245.894 200.748 247.657 202.684C245.718 201.528 243.716 200.479 242.316 198.412C242.484 201.415 242.949 204.32 244.737 206.787C242.49 204.516 241.235 202.265 240.052 200.016C240.218 203.321 240.708 206.633 242.308 209.967C240.632 207.699 238.836 205.504 238.038 202.702C238 206.882 238.382 210.579 239.813 213.074C237.768 211.419 235.127 208.728 234.197 209.011C231.412 213.583 234.932 216.805 236.699 220.403L217.858 232.075L202.482 213.528L196.054 213.11L194.05 215.293C194.528 220.173 193.12 228.29 195.755 229.468L195.051 230.961L194.111 230.511L194.076 232.376L195.013 233.041L198.924 233.983L197.547 238.907L195.252 242.162L192.15 237.72L191.17 235.762L189.082 231.412L189.605 210.178C190.943 208.621 192.273 207.512 193.59 207.102L199.851 205.508L199.875 204.216C198.21 199.929 195.57 196.967 192.81 194.166L192.462 191.001L190.177 190.021L189.73 188.505L186.954 188.448L186.593 188.015L185.218 190.301L178.796 190.162C180.072 187.982 181.571 186.006 183.905 184.797L186.593 182.268L188.219 182.229L189.352 183.258L191.379 183.514L192.111 184.247L198.063 192.121C200.47 194.109 203.594 196.981 206.986 196.826C210.261 193.44 212.794 188.118 216.986 187.126C219.85 186.273 222.324 185.089 222.899 182.295L215.981 182.799L212.733 186.321C211.974 186.335 211.266 186.243 211.061 185.138L212.992 183.24C213.806 182.212 214.17 181.363 211.393 181.772L208.423 184.941C206.891 182.973 207.084 181.206 207.507 179.467L207.507 179.467Z" fill="black" stroke="black" stroke-width="0.2989"/>
<path d="M217.725 200.745L236.838 189.008L239.95 192.947L241.827 193.991L243.358 195.458L247.104 201.779C250.655 206.632 252.57 203.932 254.496 201.284C255.501 199.32 254.898 197.662 254.118 196.037C252.977 195.076 253.022 187.382 253.061 179.723C254.895 182.486 256.184 185.943 257.283 189.642C257.605 186.65 257.107 183.379 255.634 179.776C254.082 175.601 254.866 174.001 254.571 171.213C255.503 175.353 257.442 178.811 259.451 182.222C258.171 175.32 257.724 168.204 253.179 162.14L256.654 164.724C255.725 162.001 254.105 159.265 252.469 156.528C254.588 157.946 256.686 160.509 258.785 163.045C258.094 158.341 254.782 153.756 251.248 149.182L254.276 150.32C253.373 146.63 256.44 141.249 250.2 139.829C256.809 134.463 256.538 142.122 257.653 147.16C258.761 145.962 258.905 144.745 259.141 143.53C260.571 148.671 259.682 154.114 259.935 159.408C262.019 157.461 262.002 155.151 262.965 153.011C263.05 157.805 262.449 163.911 264.087 165.738C265.004 165.596 265.425 164.061 266.033 163.05C267.108 173.032 263.666 177.207 261.866 183.492C263.255 181.601 264.627 180.69 265.991 180.132C264.457 182.443 263.482 185.369 263.187 189.046L265.515 187.658C264.771 189.796 264.092 191.935 261.944 194.044C263.975 194.335 264.38 195.656 265.009 196.835C263.173 196.953 261.319 196.764 259.616 199.093C256.131 202.669 255.724 209.742 247.134 207.521C246.4 210.096 245.482 212.703 242.787 215.614C239.083 218.003 238.254 220.45 236.151 222.871L235.756 225.949L234.853 227.223L235.164 228.736L236.707 229.557C238.211 231.655 239.62 233.944 241.478 235.325C241.868 236.957 244.586 237.305 241.376 240.922C239.472 244.974 238.587 249.047 238.85 253.143L238.981 257.093L237.085 257.055L235.725 257.314L235.585 261.259L225.567 260.909L231.172 254.421C234.962 249.222 235.111 243.651 234.25 237.976L228.029 229.954C223.745 226.856 223.329 222.638 221.935 218.704L220.812 220.834L220.601 224.992C219.738 227.689 218.139 227.21 216.633 227.136L202.642 236.61C201.95 240.539 199.308 239.626 197.162 239.943L196.104 245.95L186.012 245.887L190.87 239.527L191.237 237.955L193.008 237.417L195.484 235.387L195.713 233.956L197.083 233.123L211.142 223.65L211.286 219.49C210.047 214.139 199.907 201.226 217.567 201.962L217.725 200.745L217.725 200.745Z" fill="black" stroke="black" stroke-width="0.2989"/>
<path d="M233.946 196L233.748 199.405L232.53 201.175L230.365 202.925L229.172 203.331L229.395 202.259L232.528 199.452L233.266 197.96L233.946 196V196Z" fill="#CCCCCC"/>
<path d="M222.476 200.881L221.393 199.869L220.998 200.47L220.351 200.533L219.999 200.12L219.913 199.56L219.852 199L218.798 199.004L218.756 199.993L219.234 200.028L219.419 200.412L219.697 200.9L220.171 201.164L220.961 201.18L221.751 201.196L222.021 200.872L222.476 200.881H222.476Z" fill="#B3B3B3"/>
<path d="M222.871 202.009L222.121 201.106L221.34 200.582L220.458 200.361L221.141 199.69L222.036 199.201L222.691 198.732L223.806 197.994L224.854 197L224.669 197.935L225.435 197.951L224.342 198.817L223.851 199.492L224.646 200.523L223.385 200.091L222.542 200.353L222.856 201.476L222.871 202.009L222.871 202.009Z" fill="#B3B3B3"/>
<path d="M218.174 194.379L218.96 194L219.395 194.296L218.639 194.891L217.923 195.163L217.304 195.653L216.918 196.398L215.225 198.266L212.283 201.686L212.165 202.617L210.633 203.052L210.187 203.366L210.177 203.904L210.921 203.991C210.921 203.991 211.119 204.246 211.117 204.39C211.113 204.533 210.824 205.568 210.824 205.568L210.342 205.989C210.342 205.989 209.187 206.181 209.052 206.178C208.917 206.175 208.17 206.232 208.17 206.232L207.904 206.011L207.911 205.616L208.348 205.769L209.669 205.76L209.912 205.478L210.027 204.726L209.898 204.365L209.632 204.108L209.294 204.065L208.917 204.309L208.81 204.63L208.437 204.622L208.411 204.227L208.523 203.619L208.833 203.338L209.343 203.241L210.097 202.754L210.922 202.089L211.269 201.63L216.412 196.352L217.753 195.267L217.868 194.516L218.175 194.379H218.174Z" fill="#B3B3B3"/>
<path d="M220.074 196L220.663 197.125L220.712 198.131L219.879 199.226L219.566 199.722L219.864 200.051L220.763 200.895L221.635 201.379L222.644 201.759L225.249 201.92L226.062 201.937L227.434 200.996L226.187 202.513L224.82 203.167L223.129 203.025L221.818 202.496C221.818 202.496 220.844 202.045 220.711 201.899C220.578 201.752 219.472 201.155 219.472 201.155L218.896 201.144L217.833 201.84L215.308 202.9L217.777 201.228L218.708 200.314L219.475 199.11L219.964 198.33L219.751 196.998L220.074 196L220.074 196Z" fill="#B3B3B3"/>
<path d="M232.108 180.778L236.408 179L234.955 180.693C245.025 185.127 241.088 204.778 233.691 220.214L232.209 219.753C237.518 205.706 244.37 191.16 234.593 181.977C236.577 187.186 235.757 192.337 234.919 197.487C234.774 191.467 235.056 185.203 232.108 180.778V180.778Z" fill="#B3B3B3"/>
<path d="M227.031 202.668L229.354 201.567L230.264 199.935L230.657 197L230.814 199.515L230.371 201.516L229.198 202.712L227.031 202.667L227.031 202.668Z" fill="#B3B3B3"/>
<path d="M232.841 193L233.009 194.941L233.395 196.026L232.521 195.685L232.494 197.192L232.458 199.129L233.093 199.608L233.357 199.973L232.409 199.953L231.864 200.122L231.872 201.521L232.579 201.751L231.859 202.203L231.882 204.68L232.412 205.301L231.692 205.788L231.466 207.04L231.205 206.496L231.54 199.289L231.892 198.543L231.98 195.566L232.369 194.713L232.84 193L232.841 193Z" fill="#B3B3B3"/>
<path d="M226.488 192C230.754 196.247 230.959 202.282 230.076 208.797L229.298 208.709C229.704 204.047 229.511 198.772 227.227 196.034C226.769 199.536 225.799 202.715 221.463 203.776C225.601 200.927 226.436 197.15 226.197 193.071L226.488 192V192Z" fill="#B3B3B3"/>
<path d="M225.454 195L223.694 196.794L222.281 198.165L223.056 198.36L221.561 198.616L220.229 199.235L219.306 199.683L220.012 199.984L218.316 200.129L217.188 200.68L218.059 201.236L216.365 201.237L214.857 202.247L211.317 205.045L211.464 204.402L214.211 202.342L216.238 200.804C216.238 200.804 218.123 199.587 218.26 199.518C218.396 199.449 220.037 198.621 220.037 198.621C220.037 198.621 221.505 197.969 221.61 197.792C221.715 197.615 222.886 196.562 222.886 196.562L223.82 195.469L225.454 195H225.454Z" fill="#B3B3B3"/>
<path d="M207.18 200.234L209.355 198.018L211.365 197.377C211.365 197.377 213.81 196.997 213.979 197C214.149 197.003 217.159 197.209 217.327 197.284C217.495 197.359 220.159 198.024 220.159 198.024L222.91 199.408L224.814 200.883L227.105 203.37L225.795 202.805L223.226 200.671L219.938 198.988L216.87 198.208L214.537 197.98L213.986 198.507L213.555 197.996L212.502 198.154L212.085 198.756L211.652 198.316L210.731 198.692L210.272 199.723L209.843 199.068L209.021 199.59L208.738 200.266L207.18 200.234V200.234Z" fill="#B3B3B3"/>
<path d="M192.115 199.59L190.8 197.409L189.038 197.409L188.335 197L186.165 197.135L185.063 198.117L184.371 198.893L183.937 198.561L183.319 199.014L183.72 199.346L183.127 200.267L181.576 201.742L180.744 202.802L180.533 203.192L182.569 203.018L182.687 202.124L183.21 201.273L183.491 200.705L183.126 200.338L183.651 199.416L184.508 200.654L185.728 202.473L186.393 201.303L184.635 199.293L185.937 198.458L187.297 198.199L188.755 198.085L190.346 198.118L192.114 199.59L192.115 199.59Z" fill="#B3B3B3"/>
<path d="M206.954 197.851L206.795 201.006L205.974 201.455L204.78 201.933L204.472 200.24L204.694 199.24L205.114 198.459L205.704 197.718L205.717 197L205.126 197.813L204.131 198.511L203.467 199.61L203.411 200.864L203.39 202.012L202.862 203.078L204.126 202.494L206.267 202.107L207.159 201.444L207.62 200.341L206.954 197.851H206.954Z" fill="#B3B3B3"/>
<path d="M202.806 197.078L200.775 197C200.775 197 198.528 197.672 198.392 197.669C198.257 197.665 195.992 197.44 195.992 197.44L193.92 197.757C193.92 197.757 192.657 198.305 192.451 198.444C192.245 198.583 191.114 199.35 191.114 199.35L190.032 201.086L190.218 203.853L191.32 201.005L192.56 199.918L194.873 199.355L197.56 198.728L199.909 198.059L202.055 197.385L202.806 197.078V197.078Z" fill="#B3B3B3"/>
<path d="M210.675 199.159L211.029 199.471L211.304 200.162L211.512 200.547L211.589 201.563L211.243 200.871L210.7 200.428L210.278 199.912L210.026 199.298L210.343 199L210.675 199.159L210.675 199.159Z" fill="#B3B3B3"/>
<path d="M208.706 199.159L209.06 199.471L209.334 200.162L209.543 200.547L209.62 201.563L209.273 200.871L208.731 200.428L208.309 199.912L208.057 199.298L208.374 199L208.706 199.159H208.706Z" fill="#B3B3B3"/>
<path d="M206.505 199.159L206.859 199.471L207.134 200.162L207.342 200.547L207.419 201.563L207.073 200.871L206.53 200.428L206.108 199.912L205.856 199.298L206.173 199L206.505 199.159H206.505Z" fill="#B3B3B3"/>
<path d="M203.931 199.159L204.285 199.471L204.56 200.162L204.768 200.547L204.845 201.563L204.499 200.871L203.956 200.428L203.534 199.912L203.282 199.298L203.599 199L203.931 199.159H203.931Z" fill="#B3B3B3"/>
<path d="M212.729 199.159L213.082 199.471L213.357 200.162L213.566 200.547L213.643 201.563L213.296 200.871L212.753 200.428L212.332 199.912L212.08 199.298L212.396 199L212.729 199.159H212.729Z" fill="#B3B3B3"/>
<path d="M213.735 199.159L214.088 199.471L214.363 200.162L214.572 200.547L214.649 201.563L214.302 200.871L213.76 200.428L213.338 199.912L213.086 199.298L213.402 199L213.735 199.159H213.735Z" fill="#B3B3B3"/>
<path d="M189.442 201.428L190.016 201.548L189.751 208.612L189.359 207.85L189.442 201.428L189.442 201.428Z" fill="#CCCCCC"/>
<path d="M195.886 210.245L194.117 212.505L195.249 213.605L196.776 215.252L195.654 217.346L193.688 213.753L194.514 213.052L194.117 212.505L192.291 214.227L191.767 213.211L193.614 212.244L194.448 211.077L195.242 210.268L195.716 210.277L195.886 210.245L195.886 210.245Z" fill="#CCCCCC"/>
<path d="M216.134 201.397L213.309 198.7L211.078 195L209.24 195.977L207.5 196.804L210.17 200.107L212.942 203.057L216.594 205.061L213.809 202.77L211.601 200.441L210.248 198.485L209.89 197.107L210.7 197.327L211.541 198.461L212.997 200.064L215.604 201.538L216.134 201.397V201.397Z" fill="#BFC3CC"/>
<path d="M210.277 201.529L208.689 201.903L207.845 200.921L206.461 198L208.008 199.859L209.187 200.847L210.277 201.529V201.529Z" fill="#B3B3B3"/>
<path d="M207.805 201.529L206.218 201.903L205.374 200.921L203.99 198L205.537 199.859L206.716 200.847L207.805 201.529V201.529Z" fill="#B3B3B3"/>
<path d="M234.042 201.27L232.346 201.032L231.404 200.15L230.518 198.812L229.934 198.014L229.264 198L229.875 198.622L230.146 199.541L230.676 200.643L231.285 201.416L232.259 201.817L234.042 201.27V201.27Z" fill="#B3B3B3"/>
<path d="M228.552 199L228.128 199.93L227.399 200.499L225.697 200.616L222.824 200.532L222.528 199.739L226.501 199.846L227.345 199.533L227.878 199.189L228.552 199V199Z" fill="#CCCCCC"/>
<path d="M229.52 199L229.158 199.954L228.539 200.538L227.097 200.664L224.665 200.589L224.416 199.778L227.781 199.873L228.496 199.55L228.949 199.196L229.52 199V199Z" fill="#CCCCCC"/>
<path d="M230.16 199.74L229.831 200.706L229.269 201.3L227.963 201.431L225.761 201.36L225.537 200.54L228.584 200.628L229.232 200.3L229.643 199.94L230.16 199.74V199.74Z" fill="#CCCCCC"/>
<path d="M238.561 206.74L239.479 206.408L240.049 205.824L240.196 204.443L240.168 202.109L239.398 201.857L239.427 205.086L239.105 205.767L238.758 206.196L238.561 206.74H238.561Z" fill="#CCCCCC"/>
<path d="M240.978 206.408L241.928 206.168L242.516 205.74L242.661 204.721L242.62 202.997L241.82 202.806L241.868 205.191L241.537 205.692L241.18 206.006L240.978 206.408H240.978Z" fill="#CCCCCC"/>
<path d="M236.2 206.449L237.085 206.002L237.637 205.225L237.788 203.396L237.776 200.308L237.038 199.981L237.045 204.253L236.731 205.157L236.395 205.726L236.201 206.449H236.2Z" fill="#CCCCCC"/>
<path d="M209.71 212.067L209.375 213.308L209.51 214.589L210.657 216.576L212.788 219.696L213.548 219.368L210.607 215.045L210.214 213.849L210.066 212.972L209.71 212.067H209.71Z" fill="#CCCCCC"/>
<path d="M211.837 210.805L211.557 211.966L211.666 213.162L212.612 215.017L214.37 217.928L215 217.621L212.574 213.586L212.25 212.469L212.13 211.65L211.837 210.805L211.837 210.805Z" fill="#CCCCCC"/>
<path d="M215.089 211.488L214.911 212.27L214.979 213.076L215.577 214.324L216.689 216.282L217.088 216.075L215.554 213.36L215.349 212.609L215.274 212.057L215.089 211.488H215.089Z" fill="#CCCCCC"/>
<path d="M218.66 209.456L222.441 213.84L223.115 213.998L223.475 212.857L224.08 213.084L224.198 217.752L223.387 217.664L223.249 214.072L222.441 213.84L222.357 214.7L221.214 214.246L218.616 211.824L218.307 210.238L218.66 209.456L218.66 209.456Z" fill="#CCCCCC"/>
<path d="M240.736 210.076L241.881 210.515L242.782 211.38L243.63 213.53L244.769 217.187L244.074 217.648L242.488 212.59L241.804 211.552L241.22 210.911L240.736 210.076L240.736 210.076Z" fill="#CCCCCC"/>
<path d="M239.913 213.21L240.871 213.626L241.623 214.448L242.329 216.492L243.275 219.971L242.692 220.412L241.375 215.6L240.804 214.613L240.316 214.005L239.913 213.21L239.913 213.21Z" fill="#CCCCCC"/>
<path d="M238.623 217.133L239.376 217.441L239.968 218.048L240.524 219.559L241.27 222.128L240.812 222.453L239.774 218.899L239.325 218.17L238.941 217.72L238.623 217.133L238.623 217.133Z" fill="#CCCCCC"/>
<path d="M237.866 220.763L238.385 220.937L238.793 221.277L239.18 222.119L239.699 223.551L239.385 223.73L238.662 221.75L238.351 221.342L238.086 221.091L237.866 220.763H237.866Z" fill="#CCCCCC"/>
<path d="M224.014 224.815L224.971 224.787L225.865 225.138L227.071 226.429L228.9 228.717L228.518 229.258L225.98 226.097L225.197 225.556L224.596 225.271L224.014 224.815L224.014 224.815Z" fill="#CCCCCC"/>
<path d="M223.833 228.154L224.789 228.125L225.683 228.477L226.889 229.768L228.718 232.056L228.336 232.597L225.799 229.435L225.016 228.894L224.414 228.609L223.833 228.154L223.833 228.154Z" fill="#CCCCCC"/>
<path d="M224.24 231.823L225.196 231.794L226.09 232.145L227.296 233.437L229.125 235.724L228.743 236.265L226.206 233.104L225.423 232.563L224.821 232.278L224.24 231.822L224.24 231.823Z" fill="#CCCCCC"/>
<path d="M235.193 240.658L238.73 243.566L241.017 244.438L240.937 245.118L239.254 244.581L239.165 245.728L240.882 246.302L240.901 247.091L238.946 246.585L238.685 247.907L239.996 248.401L239.815 249.079L237.52 248.637L237.335 247.628L238.651 247.871L238.947 246.549L237.43 246.123L236.842 244.963L237.385 244.902L239.231 245.801L239.286 244.654L237.743 243.833L235.445 241.704L235.193 240.658L235.193 240.658Z" fill="#CCCCCC"/>
<path d="M234.425 245.631L235.117 250.382L235.064 253.288L234.389 256.863L233.213 260.068L231.29 263.331L231.829 263.521L234.248 260.879L235.493 257.603L235.907 253.485C235.907 253.485 236.022 249.037 235.958 248.82C235.895 248.604 235.093 246.111 235.093 246.111L234.425 245.631H234.425Z" fill="#CCCCCC"/>
<path d="M227.134 268.377L227.46 267.2L228.497 266.072L230.469 263.816L235.166 268.075L235.288 268.832L234.005 268.626L229.675 264.625L229.016 265.473L229.353 265.552L229.638 266.67L228.981 267.374L228.69 268.517L227.134 268.377L227.134 268.377Z" fill="#CCCCCC"/>
<path d="M237.665 264.789L237.741 260.628L238.25 262.397L238.639 263.374L238.68 264.846L237.665 264.789L237.665 264.789Z" fill="#CCCCCC"/>
<path d="M209.68 221.575L210.59 221.892L211.319 222.543L212.042 224.19L213.032 226.998L212.5 227.37L211.121 223.486L210.557 222.696L210.082 222.213L209.68 221.575L209.68 221.575Z" fill="#CCCCCC"/>
<path d="M215.901 232.872L214.946 232.804L214.04 233.118L212.788 234.359L210.876 236.57L211.239 237.126L213.889 234.072L214.692 233.563L215.303 233.303L215.901 232.872L215.901 232.872Z" fill="#CCCCCC"/>
<path d="M219.118 228.845L220.233 230.877L220.189 233.245L219.009 234.8L217.784 235.133L218.894 233.721L219.602 232.013L219.358 230.572L219.118 228.845H219.118Z" fill="#CCCCCC"/>
<path d="M221.637 224.446L221.4 226.308L220.632 227.584L220.59 226.147L221.297 224.511L221.637 224.446L221.637 224.446Z" fill="#CCCCCC"/>
<path d="M208.703 235.378L202.319 239.984L198.727 243.786L197.825 244.988L196.829 243.891L196.046 242.224L206.446 236.552L208.703 235.378V235.378Z" fill="#CCCCCC"/>
<path d="M201.106 243.332L201.265 245.776L198.461 247.226L198.416 246.005L199.387 244.733L201.106 243.332H201.106Z" fill="#CCCCCC"/>
<path d="M191.588 248.951L188.52 253.768L186.76 253.732L190.779 248.791L191.588 248.951V248.951Z" fill="#CCCCCC" stroke="black" stroke-width="0.2989"/>
<path d="M255.308 195L255.134 200.81L256.882 205.224L254.696 202.524L254.073 199.568L255.308 195H255.308Z" fill="#B3B3B3"/>
<path d="M258.896 202.762L260.759 200.863L263.443 198.549L264.894 197L262.869 200.332L261.548 202.171L258.896 202.762Z" fill="#B3B3B3"/>
<path d="M260.999 205.045L258.199 198.887L257.66 195L259.241 197.473L261.052 202.175L262.28 201.698L260.999 205.045V205.045Z" fill="#B3B3B3"/>
<path d="M261.99 197L261.991 200.589L261.41 202.73L261.124 199.853L261.989 197H261.99Z" fill="#B3B3B3"/>
<path d="M258.825 198L258.356 201.436L257.778 199.701L258.825 198Z" fill="#B3B3B3"/>
<path d="M115.321 192.966L117.27 196.356L118.204 197.694L119.456 197.314C118.176 200.769 118.786 204.103 123.875 207.149C121.518 208.355 122.492 210.681 124.381 210.915L126.29 216.537C124.574 218.438 125.481 219.754 127.072 220.918C142.82 214.765 161.983 214.554 174.395 220.874C178.411 219.931 176.55 217.826 176.303 216.041L177.941 210.288C180.42 209.426 179.159 208.126 179.056 206.962C182.153 204.953 184.185 202.129 184.016 197.624L182.694 196.581L184.414 196.82L187.652 192.623C198.406 192.94 180.787 183.6 184.236 190.827L182.547 194.142C175.31 180.417 170.142 203.446 180.924 199.083C177.961 205.548 171.929 204.621 170.748 195.017L167.982 194.351C166.764 200.441 155.843 205.055 153.63 193.448C165.141 205.324 166.853 181.214 156.137 187.307C164.846 177.065 136.83 175.424 146.653 187.316C135.719 179.564 136.758 207.14 148.549 193.648C147.059 202.981 139.088 203.638 134.732 194.887L131.664 195.027C132.679 205.252 123.944 206.668 121.808 199.697C135.795 201.387 123.28 181.797 119.985 194.584L118.499 192.016C118.507 190.253 118.338 188.607 115.299 188.906C112.429 188.368 108.829 194.406 115.321 192.966L115.321 192.966Z" fill="#FFDD00" stroke="black" stroke-width="0.2989"/>
<path d="M123.875 202.513C140.552 198.182 157.748 195.094 179.247 202.329" stroke="black" stroke-width="0.2989"/>
<path d="M130.324 204.619C134.038 203.045 133.441 200.399 133.798 197.991C140.019 207.406 151.842 199.813 151.287 195C153.819 203.634 164.17 203.823 168.566 198.298C169.447 200.574 169.033 203.727 172.771 204.069" stroke="black" stroke-width="0.2989"/>
<path d="M124.289 202.063C136.825 197.11 156.491 194.039 178.138 201.34" stroke="black" stroke-width="0.2989"/>
<path d="M126.288 201.709C142.914 197.008 159.587 196.777 176.305 201.01" stroke="black" stroke-width="0.2989"/>
<path opacity="0.97" d="M153.794 199.645C153.782 200.318 153.493 200.957 152.99 201.423C152.487 201.888 151.813 202.142 151.114 202.127C150.416 202.113 149.751 201.832 149.266 201.346C148.781 200.86 148.515 200.209 148.527 199.537C148.54 198.864 148.829 198.224 149.331 197.759C149.834 197.293 150.509 197.04 151.207 197.054C151.905 197.068 152.57 197.349 153.056 197.835C153.541 198.321 153.806 198.972 153.794 199.645V199.645Z" fill="#AEB8C4" stroke="black" stroke-width="0.28814" stroke-linecap="square" stroke-linejoin="round"/>
<path opacity="0.97" d="M119.18 199.645C119.168 200.317 118.878 200.957 118.376 201.423C117.873 201.888 117.199 202.142 116.5 202.127C115.802 202.113 115.137 201.832 114.652 201.346C114.166 200.86 113.901 200.209 113.913 199.537C113.925 198.864 114.215 198.224 114.717 197.759C115.22 197.293 115.894 197.04 116.593 197.054C117.291 197.068 117.956 197.349 118.441 197.835C118.926 198.321 119.192 198.972 119.18 199.645V199.645Z" fill="#AEB8C4" stroke="black" stroke-width="0.28814" stroke-linecap="square" stroke-linejoin="round"/>
<path opacity="0.97" d="M189.224 199.645C189.211 200.317 188.922 200.957 188.42 201.423C187.917 201.888 187.242 202.142 186.544 202.127C185.846 202.113 185.181 201.832 184.696 201.346C184.21 200.86 183.945 200.209 183.957 199.537C183.969 198.864 184.259 198.224 184.761 197.759C185.264 197.293 185.938 197.04 186.637 197.054C187.335 197.068 188 197.349 188.485 197.835C188.97 198.321 189.236 198.972 189.224 199.645V199.645Z" fill="#AEB8C4" stroke="black" stroke-width="0.28814" stroke-linecap="square" stroke-linejoin="round"/>
<path opacity="0.97" d="M135.742 200.431C135.726 201.306 135.368 202.138 134.746 202.744C134.124 203.349 133.29 203.68 132.426 203.662C131.563 203.644 130.741 203.28 130.142 202.649C129.542 202.018 129.215 201.172 129.231 200.298C129.247 199.423 129.605 198.591 130.227 197.985C130.849 197.38 131.683 197.049 132.547 197.067C133.41 197.085 134.232 197.449 134.831 198.08C135.431 198.711 135.758 199.557 135.742 200.431V200.431Z" fill="#AEB8C4" stroke="black" stroke-width="0.28814" stroke-linecap="square" stroke-linejoin="round"/>
<path opacity="0.97" d="M173.012 200.431C172.996 201.306 172.638 202.138 172.016 202.743C171.394 203.349 170.56 203.68 169.696 203.662C168.833 203.644 168.011 203.28 167.412 202.649C166.812 202.018 166.485 201.172 166.501 200.298C166.517 199.423 166.875 198.591 167.497 197.985C168.119 197.38 168.953 197.049 169.817 197.067C170.68 197.085 171.502 197.449 172.101 198.08C172.7 198.711 173.028 199.557 173.012 200.431V200.431Z" fill="#AEB8C4" stroke="black" stroke-width="0.28814" stroke-linecap="square" stroke-linejoin="round"/>
<path opacity="0.97" d="M128.982 199.645C128.97 200.317 128.681 200.957 128.178 201.423C127.676 201.888 127.001 202.142 126.303 202.127C125.604 202.113 124.939 201.832 124.454 201.346C123.969 200.86 123.703 200.209 123.716 199.537C123.728 198.864 124.017 198.224 124.52 197.759C125.022 197.293 125.697 197.04 126.395 197.054C127.094 197.068 127.759 197.349 128.244 197.835C128.729 198.321 128.995 198.972 128.982 199.645V199.645Z" fill="#AA0000" stroke="black" stroke-width="0.28814" stroke-linecap="square" stroke-linejoin="round"/>
<path opacity="0.97" d="M179.28 199.645C179.267 200.317 178.978 200.957 178.476 201.423C177.973 201.888 177.298 202.142 176.6 202.127C175.902 202.113 175.237 201.832 174.751 201.346C174.266 200.86 174.001 200.209 174.013 199.537C174.025 198.864 174.314 198.224 174.817 197.759C175.32 197.293 175.994 197.04 176.693 197.054C177.391 197.068 178.056 197.349 178.541 197.835C179.026 198.321 179.292 198.972 179.28 199.645V199.645Z" fill="#AA0000" stroke="black" stroke-width="0.28814" stroke-linecap="square" stroke-linejoin="round"/>
<path d="M132.609 200.819L136.205 198L140.254 199.2L136.509 202.32L132.609 200.819Z" fill="#008000" stroke="black" stroke-width="0.2989"/>
<path d="M161.757 199.691L165.907 198L169.541 200.967L165.493 202.305L161.757 199.691V199.691Z" fill="#008000" stroke="black" stroke-width="0.2989"/>
<path d="M146.953 198C145.43 198.527 145.098 200.428 146.984 201.503L154.454 201.656C156.844 200.891 155.941 198.419 154.567 198.055L146.953 198L146.953 198Z" fill="#AA0000" stroke="black" stroke-width="0.2989"/>
<path d="M115.324 200.487L115.634 199.275L117.076 199" stroke="black" stroke-width="0.2989"/>
<path d="M187.845 201.268L187.678 199.945L186.162 199" stroke="black" stroke-width="0.2989"/>
<path d="M161.175 198L161.806 200.145L161.292 202.063" stroke="black" stroke-width="0.2989"/>
<path d="M141.152 198L141.008 200.636L141.448 202.777" stroke="black" stroke-width="0.2989"/>
<path d="M126.042 198L126.077 201.35" stroke="black" stroke-width="0.2989"/>
<path d="M176.818 198L176.551 202.156" stroke="black" stroke-width="0.2989"/>
<path d="M150.02 200.242L151.733 200.886L153.09 200" stroke="black" stroke-width="0.2989"/>
<path d="M176.875 191C174.087 191.464 171.3 190.993 168.513 193.007L164.429 197.954L161.253 197.38C161.449 196.52 160.905 195.66 159.892 194.8C159.373 194.861 158.638 194.126 158.596 195.947L159.244 197.094L141.224 194.154L140.511 191.574L139.28 192.075L140.058 193.939L136.881 193.437V194.513L139.15 195.875L138.891 196.735L139.928 196.879L140.058 197.667C138.7 198.049 138.402 198.432 137.659 198.814H136.363C135.344 198.316 134.346 197.795 133.835 196.735C132.685 196.582 132.318 196.718 131.631 196.735C131.631 196.162 131.35 195.588 130.659 195.015C129.818 194.315 129.507 195.078 128.974 195.23C128.755 196.155 129.079 196.681 129.363 197.237C130.77 199.042 132.77 200.585 136.752 201.252C136.013 202.805 136.739 204.358 137.141 205.911C138.284 207.518 139.741 208.085 141.224 208.564C143.89 208.532 144.317 207.6 145.178 206.843C146.042 205.911 146.069 204.979 146.28 204.047L147.641 205.481L147.771 201.108L147.058 199.818L145.891 200.105C144.077 197.306 143.634 198.146 142.586 197.38V196.592L143.169 196.018L159.568 198.958L160.151 201.108C159.591 201.275 159.016 201.443 157.948 201.61C157.041 202.566 156.061 203.575 154.642 204.908L153.475 205.051C152.356 205.481 152.905 205.911 153.475 206.341C157.721 206.873 162.087 206.542 166.18 204.047V201.323L164.948 201.108L165.142 199.818L167.8 199.746C168.965 199.364 168.07 198.981 167.8 198.599L166.439 198.026L169.42 194.298C171.597 193.58 173.765 192.903 175.773 192.936C177.438 191.971 176.588 191.625 176.875 191L176.875 191Z" fill="black" stroke="black" stroke-width="0.111711"/>
<path d="M160.645 199L161.175 200.694L163.531 200.759L163.944 199.326L160.645 199V199Z" fill="#AEB8C4" stroke="black" stroke-width="0.111711"/>
<path d="M139.308 200.026L140.986 201.784C141.34 201.619 141.693 201.32 142.047 201.817L143.666 199.928C142.213 198.722 140.761 198.627 139.308 200.026V200.026Z" fill="#AEB8C4" stroke="black" stroke-width="0.111711"/>
<path d="M139.337 200.75L141.037 199.017C141.389 199.188 141.738 199.492 142.098 199L143.694 200.914C142.226 202.097 140.772 202.171 139.337 200.75V200.75Z" fill="#AEB8C4" stroke="black" stroke-width="0.111711"/>
<path d="M144.408 198L142.605 199.602C142.706 200.012 142.926 200.439 142.433 200.759L143.906 202.79C145.183 201.361 145.465 199.781 144.408 198H144.408Z" fill="#AEB8C4" stroke="black" stroke-width="0.111711"/>
<path d="M139.045 198L140.678 199.811C140.537 200.206 140.276 200.605 140.734 200.983L139.068 202.822C137.941 201.246 137.818 199.642 139.045 198H139.045Z" fill="#AEB8C4" stroke="black" stroke-width="0.111711"/>
<path d="M-0.357992 400.609L-1.20483 319.888L601.745 320.17L600.051 400.609H-0.357992V400.609Z" fill="black"/>
<path d="M28.2589 400.693L-1.2002 319.969H58.9205L28.2589 400.693Z" fill="#008000"/>
<path d="M88.5172 400.823L59.0581 320.099H119.179L88.5172 400.823V400.823Z" fill="#008000"/>
<path d="M148.896 400.823L119.437 320.099H179.557L148.896 400.823Z" fill="#008000"/>
<path d="M209.275 400.823L179.815 320.099H239.936L209.275 400.823V400.823Z" fill="#008000"/>
<path d="M269.51 400.825L240.051 320.101H300.172L269.51 400.825Z" fill="#008000"/>
<path d="M329.764 400.884L300.304 320.16H360.425L329.764 400.884Z" fill="#008000"/>
<path d="M389.909 400.884L360.45 320.16H420.57L389.909 400.884Z" fill="#008000"/>
<path d="M450.507 400.884L421.048 320.16H481.169L450.507 400.884Z" fill="#008000"/>
<path d="M510.653 400.884L481.194 320.16H541.314L510.653 400.884Z" fill="#008000"/>
<path d="M570.798 400.884L541.339 320.16H601.46L570.798 400.884V400.884Z" fill="#008000"/>
</g>
<defs>
<clipPath id="clip0_1_590">
<rect width="600" height="400" fill="white"/>
</clipPath>
</defs>
</svg>
