<svg width="600" height="400" viewBox="0 0 600 400" fill="none" xmlns="http://www.w3.org/2000/svg" xmlns:cgf="https://coding.garden/flags"><metadata id="cgf-metadata">

<cgf:flag>
  <cgf:name>Meppel</cgf:name>
  <cgf:route>nl/dr/meppel</cgf:route>
  <cgf:aspect-ratio>1.5</cgf:aspect-ratio>
</cgf:flag>

</metadata><g clip-path="url(#clip0_1_568)">
<path d="M588.859 32.9325C588.859 36.1426 588.227 39.3212 586.999 42.287C585.77 45.2527 583.97 47.9474 581.7 50.2173C579.43 52.4872 576.735 54.2878 573.769 55.5162C570.804 56.7447 567.625 57.3769 564.415 57.3769C561.205 57.3769 558.026 56.7447 555.06 55.5162C552.095 54.2878 549.4 52.4872 547.13 50.2173C544.86 47.9474 543.06 45.2527 541.831 42.287C540.603 39.3212 539.97 36.1426 539.97 32.9325C539.97 29.7224 540.603 26.5437 541.831 23.578C543.06 20.6123 544.86 17.9175 547.13 15.6476C549.4 13.3778 552.095 11.5772 555.06 10.3488C558.026 9.12031 561.205 8.48804 564.415 8.48804C567.625 8.48804 570.804 9.12031 573.769 10.3488C576.735 11.5772 579.43 13.3778 581.7 15.6476C583.97 17.9175 585.77 20.6123 586.999 23.578C588.227 26.5437 588.859 29.7224 588.859 32.9325V32.9325Z" fill="#009661"/>
<path d="M600 400H0V200H600V400Z" fill="#009661"/>
<path d="M600 200H0V-1.52588e-05H600V200Z" fill="white"/>
<path d="M600 0H0V66.6667H600V0Z" fill="#CC112F"/>
<path d="M600 333.333H0V400H600V333.333Z" fill="#CC112F"/>
<path d="M66.6667 400V0H2.28882e-05V400H66.6667Z" fill="#CC112F"/>
<path d="M600 400V0H533.333V400H600Z" fill="#CC112F"/>
<path d="M151.58 163.535C151.58 141.775 149.382 139.056 138.37 147.198C130.005 153.383 116.555 153.709 112.258 147.832C108.149 142.213 108.535 123.634 112.85 119.319C117.888 114.281 132.011 114.889 139.079 120.449C147.694 127.226 150.358 124.713 143.876 115.926C138.414 108.523 136.558 97.3469 139.947 92.2705C146.363 82.6628 167.908 82.6628 174.324 92.2705C177.713 97.3469 175.857 108.523 170.396 115.926C163.913 124.713 166.577 127.226 175.192 120.449C182.26 114.889 196.383 114.281 201.421 119.319C205.737 123.634 206.122 142.213 202.014 147.832C197.716 153.709 184.266 153.383 175.901 147.198C164.889 139.056 162.691 141.775 162.691 163.535C162.691 182.276 162.627 182.493 157.136 182.493C151.644 182.493 151.58 182.276 151.58 163.535Z" fill="#009661"/>
<path d="M85.9417 173.604V164.716H109.275H132.608V173.604V182.493H109.275H85.9417V173.604Z" fill="black"/>
<path d="M180.33 173.604V164.716H203.663H226.997V173.604V182.493H203.663H180.33V173.604Z" fill="black"/>
<path d="M588.889 32.9001C588.89 35.8191 588.316 38.7098 587.2 41.407C586.084 44.1042 584.447 46.555 582.383 48.6195C580.32 50.684 577.87 52.3217 575.173 53.4391C572.476 54.5564 569.586 55.1315 566.667 55.1315C563.748 55.1315 560.857 54.5564 558.16 53.4391C555.464 52.3217 553.014 50.684 550.95 48.6195C548.886 46.555 547.25 44.1042 546.133 41.407C545.017 38.7098 544.443 35.8191 544.444 32.9001C544.443 29.981 545.017 27.0904 546.133 24.3932C547.25 21.696 548.886 19.2451 550.95 17.1806C553.014 15.1161 555.464 13.4784 558.16 12.3611C560.857 11.2437 563.748 10.6686 566.667 10.6686C569.586 10.6686 572.476 11.2437 575.173 12.3611C577.87 13.4784 580.32 15.1161 582.383 17.1806C584.447 19.2451 586.084 21.696 587.2 24.3932C588.316 27.0904 588.89 29.981 588.889 32.9001V32.9001Z" fill="white"/>
<path d="M588.742 198.943C588.743 201.862 588.169 204.753 587.053 207.45C585.936 210.148 584.3 212.598 582.236 214.663C580.172 216.727 577.722 218.365 575.026 219.482C572.329 220.6 569.438 221.175 566.519 221.175C563.6 221.175 560.71 220.6 558.013 219.482C555.316 218.365 552.866 216.727 550.803 214.663C548.739 212.598 547.102 210.148 545.986 207.45C544.87 204.753 544.296 201.862 544.297 198.943C544.296 196.024 544.87 193.134 545.986 190.437C547.102 187.739 548.739 185.288 550.803 183.224C552.866 181.159 555.316 179.522 558.013 178.404C560.71 177.287 563.6 176.712 566.519 176.712C569.438 176.712 572.329 177.287 575.026 178.404C577.722 179.522 580.172 181.159 582.236 183.224C584.3 185.288 585.936 187.739 587.053 190.437C588.169 193.134 588.743 196.024 588.742 198.943V198.943Z" fill="white"/>
<path d="M588.742 364.987C588.743 367.906 588.169 370.796 587.053 373.494C585.936 376.191 584.3 378.642 582.236 380.706C580.172 382.771 577.722 384.408 575.026 385.526C572.329 386.643 569.438 387.218 566.519 387.218C563.6 387.218 560.71 386.643 558.013 385.526C555.316 384.408 552.866 382.771 550.803 380.706C548.739 378.642 547.102 376.191 545.986 373.494C544.87 370.796 544.296 367.906 544.297 364.987C544.296 362.068 544.87 359.177 545.986 356.48C547.102 353.783 548.739 351.332 550.803 349.267C552.866 347.203 555.316 345.565 558.013 344.448C560.71 343.33 563.6 342.755 566.519 342.755C569.438 342.755 572.329 343.33 575.026 344.448C577.722 345.565 580.172 347.203 582.236 349.267C584.3 351.332 585.936 353.783 587.053 356.48C588.169 359.177 588.743 362.068 588.742 364.987V364.987Z" fill="white"/>
<path d="M411.557 30.7103C411.558 33.6294 410.985 36.52 409.868 39.2172C408.752 41.9144 407.115 44.3653 405.052 46.4298C402.988 48.4943 400.538 50.132 397.841 51.2493C395.144 52.3667 392.254 52.9418 389.335 52.9418C386.416 52.9418 383.526 52.3667 380.829 51.2493C378.132 50.132 375.682 48.4943 373.618 46.4298C371.555 44.3653 369.918 41.9144 368.802 39.2172C367.685 36.52 367.112 33.6294 367.113 30.7103C367.112 27.7913 367.685 24.9006 368.802 22.2034C369.918 19.5062 371.555 17.0554 373.618 14.9909C375.682 12.9264 378.132 11.2887 380.829 10.1713C383.526 9.05398 386.416 8.47888 389.335 8.47888C392.254 8.47888 395.144 9.05398 397.841 10.1713C400.538 11.2887 402.988 12.9264 405.052 14.9909C407.115 17.0554 408.752 19.5062 409.868 22.2034C410.985 24.9006 411.558 27.7913 411.557 30.7103V30.7103Z" fill="white"/>
<path d="M234.225 30.7103C234.227 33.6294 233.653 36.52 232.536 39.2172C231.42 41.9144 229.784 44.3653 227.72 46.4298C225.656 48.4943 223.206 50.132 220.509 51.2493C217.813 52.3667 214.922 52.9418 212.003 52.9418C209.084 52.9418 206.194 52.3667 203.497 51.2493C200.8 50.132 198.35 48.4943 196.286 46.4298C194.223 44.3653 192.586 41.9144 191.47 39.2172C190.354 36.52 189.78 33.6294 189.781 30.7103C189.78 27.7913 190.354 24.9006 191.47 22.2034C192.586 19.5062 194.223 17.0554 196.286 14.9909C198.35 12.9264 200.8 11.2887 203.497 10.1713C206.194 9.05398 209.084 8.47888 212.003 8.47888C214.922 8.47888 217.813 9.05398 220.509 10.1713C223.206 11.2887 225.656 12.9264 227.72 14.9909C229.784 17.0554 231.42 19.5062 232.536 22.2034C233.653 24.9006 234.227 27.7913 234.225 30.7103V30.7103Z" fill="white"/>
<path d="M56.8936 30.7103C56.8948 33.6294 56.3209 36.52 55.2047 39.2172C54.0884 41.9144 52.4518 44.3653 50.3881 46.4298C48.3245 48.4943 45.8743 50.132 43.1776 51.2493C40.4809 52.3667 37.5904 52.9418 34.6714 52.9418C31.7523 52.9418 28.8619 52.3667 26.1652 51.2493C23.4685 50.132 21.0183 48.4943 18.9546 46.4298C16.891 44.3653 15.2543 41.9144 14.1381 39.2172C13.0219 36.52 12.4479 33.6294 12.4492 30.7103C12.4479 27.7913 13.0219 24.9006 14.1381 22.2034C15.2543 19.5062 16.891 17.0554 18.9546 14.9909C21.0183 12.9264 23.4685 11.2887 26.1652 10.1713C28.8619 9.05398 31.7523 8.47888 34.6714 8.47888C37.5904 8.47888 40.4809 9.05398 43.1776 10.1713C45.8743 11.2887 48.3245 12.9264 50.3881 14.9909C52.4518 17.0554 54.0884 19.5062 55.2047 22.2034C56.3209 24.9006 56.8948 27.7913 56.8936 30.7103V30.7103Z" fill="white"/>
<path d="M411.459 366.107C411.46 369.026 410.886 371.916 409.77 374.614C408.654 377.311 407.017 379.762 404.953 381.826C402.89 383.891 400.44 385.528 397.743 386.646C395.046 387.763 392.156 388.338 389.237 388.338C386.318 388.338 383.427 387.763 380.73 386.646C378.034 385.528 375.584 383.891 373.52 381.826C371.456 379.762 369.82 377.311 368.703 374.614C367.587 371.916 367.013 369.026 367.014 366.107C367.013 363.188 367.587 360.297 368.703 357.6C369.82 354.903 371.456 352.452 373.52 350.387C375.584 348.323 378.034 346.685 380.73 345.568C383.427 344.45 386.318 343.875 389.237 343.875C392.156 343.875 395.046 344.45 397.743 345.568C400.44 346.685 402.89 348.323 404.953 350.387C407.017 352.452 408.654 354.903 409.77 357.6C410.886 360.297 411.46 363.188 411.459 366.107V366.107Z" fill="white"/>
<path d="M56.8936 197.957C56.8948 200.876 56.3209 203.767 55.2047 206.464C54.0884 209.161 52.4518 211.612 50.3881 213.676C48.3245 215.741 45.8743 217.378 43.1776 218.496C40.4809 219.613 37.5904 220.188 34.6714 220.188C31.7523 220.188 28.8619 219.613 26.1652 218.496C23.4685 217.378 21.0183 215.741 18.9546 213.676C16.891 211.612 15.2543 209.161 14.1381 206.464C13.0219 203.767 12.4479 200.876 12.4492 197.957C12.4479 195.038 13.0219 192.147 14.1381 189.45C15.2543 186.753 16.891 184.302 18.9546 182.237C21.0183 180.173 23.4685 178.535 26.1652 177.418C28.8619 176.301 31.7523 175.725 34.6714 175.725C37.5904 175.725 40.4809 176.301 43.1776 177.418C45.8743 178.535 48.3245 180.173 50.3881 182.237C52.4518 184.302 54.0884 186.753 55.2047 189.45C56.3209 192.147 56.8948 195.038 56.8936 197.957V197.957Z" fill="white"/>
<path d="M56.8936 365.203C56.8948 368.122 56.3209 371.013 55.2047 373.71C54.0884 376.407 52.4518 378.858 50.3881 380.923C48.3245 382.987 45.8743 384.625 43.1776 385.742C40.4809 386.86 37.5904 387.435 34.6714 387.435C31.7523 387.435 28.8619 386.86 26.1652 385.742C23.4685 384.625 21.0183 382.987 18.9546 380.923C16.891 378.858 15.2543 376.407 14.1381 373.71C13.0219 371.013 12.4479 368.122 12.4492 365.203C12.4479 362.284 13.0219 359.394 14.1381 356.696C15.2543 353.999 16.891 351.548 18.9546 349.484C21.0183 347.419 23.4685 345.782 26.1652 344.664C28.8619 343.547 31.7523 342.972 34.6714 342.972C37.5904 342.972 40.4809 343.547 43.1776 344.664C45.8743 345.782 48.3245 347.419 50.3881 349.484C52.4518 351.548 54.0884 353.999 55.2047 356.696C56.3209 359.394 56.8948 362.284 56.8936 365.203V365.203Z" fill="white"/>
<path d="M234.176 366.107C234.177 369.026 233.604 371.916 232.487 374.614C231.371 377.311 229.734 379.762 227.671 381.826C225.607 383.891 223.157 385.528 220.46 386.646C217.764 387.763 214.873 388.338 211.954 388.338C209.035 388.338 206.145 387.763 203.448 386.646C200.751 385.528 198.301 383.891 196.237 381.826C194.174 379.762 192.537 377.311 191.421 374.614C190.305 371.916 189.731 369.026 189.732 366.107C189.731 363.188 190.305 360.297 191.421 357.6C192.537 354.903 194.174 352.452 196.237 350.387C198.301 348.323 200.751 346.685 203.448 345.568C206.145 344.45 209.035 343.875 211.954 343.875C214.873 343.875 217.764 344.45 220.46 345.568C223.157 346.685 225.607 348.323 227.671 350.387C229.734 352.452 231.371 354.903 232.487 357.6C233.604 360.297 234.177 363.188 234.176 366.107V366.107Z" fill="white"/>
</g>
<defs>
<clipPath id="clip0_1_568">
<rect width="600" height="400" fill="white"/>
</clipPath>
</defs>
</svg>
