<svg width="600" height="400" viewBox="0 0 600 400" fill="none" xmlns="http://www.w3.org/2000/svg" xmlns:cgf="https://coding.garden/flags"><metadata id="cgf-metadata">

<cgf:flag>
  <cgf:name>Midden-Drenthe</cgf:name>
  <cgf:route>nl/dr/midden_drenthe</cgf:route>
  <cgf:aspect-ratio>1.5</cgf:aspect-ratio>
</cgf:flag>

</metadata><g clip-path="url(#clip0_1_783)">
<path d="M600 0H0V400H600V0Z" fill="#00AB86"/>
<path d="M169.656 159.184C175.724 159.374 180.773 155.83 182.624 146.27H191.442C190.776 165.4 179.78 165.322 169.656 159.184H169.656Z" fill="#F5E200"/>
<path d="M195.591 146.27H202.134L200 186.243C188.049 170.403 193.751 162.504 195.592 146.27L195.591 146.27Z" fill="#F5E200"/>
<path d="M156.688 127.206C154.365 115.178 162.294 110.711 169.656 112.447C175.261 113.768 179.782 121.485 182.105 133.971H174.324V142.58H202.804L200 36.8043C169.142 60.6863 191.577 101.737 195.073 133.97H190.923C188.341 113.244 176.509 89.9998 157.207 90.3069C134.66 90.6656 136.567 118.522 156.688 127.205L156.688 127.206Z" fill="#F5E200"/>
<path d="M230.344 159.184C224.276 159.374 219.227 155.83 217.376 146.27H208.558C209.224 165.4 220.22 165.322 230.344 159.184H230.344Z" fill="#F5E200"/>
<path d="M204.409 146.27H197.866L200 186.243C211.951 170.403 206.249 162.504 204.408 146.27L204.409 146.27Z" fill="#F5E200"/>
<path d="M243.312 127.206C245.635 115.178 237.706 110.711 230.344 112.447C224.739 113.768 220.218 121.485 217.895 133.971H225.676V142.58H197.196L200 36.8043C230.858 60.6863 208.423 101.737 204.927 133.97H209.077C211.659 113.244 223.491 89.9998 242.793 90.3069C265.34 90.6656 263.433 118.522 243.312 127.205L243.312 127.206Z" fill="#F5E200"/>
<path d="M240.816 169.656C240.626 175.724 244.17 180.773 253.73 182.624V191.442C234.6 190.776 234.678 179.78 240.816 169.656V169.656Z" fill="#F5E200"/>
<path d="M253.73 195.591V202.134L213.757 200C229.597 188.049 237.496 193.751 253.73 195.592L253.73 195.591Z" fill="#F5E200"/>
<path d="M272.794 156.688C284.822 154.365 289.289 162.294 287.553 169.656C286.232 175.261 278.515 179.782 266.029 182.105V174.324H257.42V202.804L363.196 200C339.314 169.142 298.263 191.577 266.03 195.073V190.923C286.756 188.341 310 176.509 309.693 157.207C309.334 134.66 281.478 136.567 272.795 156.688L272.794 156.688Z" fill="#F5E200"/>
<path d="M240.816 230.344C240.626 224.276 244.17 219.227 253.73 217.376V208.558C234.6 209.224 234.678 220.22 240.816 230.344V230.344Z" fill="#F5E200"/>
<path d="M253.73 204.409V197.866L213.757 200C229.597 211.951 237.496 206.249 253.73 204.408L253.73 204.409Z" fill="#F5E200"/>
<path d="M272.794 243.312C284.822 245.635 289.289 237.706 287.553 230.344C286.232 224.739 278.515 220.218 266.029 217.895V225.676H257.42V197.196L363.196 200C339.314 230.858 298.263 208.423 266.03 204.927V209.077C286.756 211.659 310 223.491 309.693 242.793C309.334 265.34 281.478 263.433 272.795 243.312L272.794 243.312Z" fill="#F5E200"/>
<path d="M230.344 240.816C224.276 240.626 219.227 244.17 217.376 253.73H208.558C209.224 234.6 220.22 234.678 230.344 240.816H230.344Z" fill="#F5E200"/>
<path d="M204.409 253.73H197.866L200 213.757C211.951 229.597 206.249 237.496 204.408 253.73L204.409 253.73Z" fill="#F5E200"/>
<path d="M243.312 272.794C245.635 284.822 237.706 289.289 230.344 287.553C224.739 286.232 220.218 278.515 217.895 266.029H225.676V257.42H197.196L200 363.196C230.858 339.314 208.423 298.263 204.927 266.03H209.077C211.659 286.756 223.491 310 242.793 309.693C265.34 309.334 263.433 281.478 243.312 272.795L243.312 272.794Z" fill="#F5E200"/>
<path d="M169.656 240.816C175.724 240.626 180.773 244.17 182.624 253.73H191.442C190.776 234.6 179.78 234.678 169.656 240.816H169.656Z" fill="#F5E200"/>
<path d="M195.591 253.73H202.134L200 213.757C188.049 229.597 193.751 237.496 195.592 253.73L195.591 253.73Z" fill="#F5E200"/>
<path d="M156.688 272.794C154.365 284.822 162.294 289.289 169.656 287.553C175.261 286.232 179.782 278.515 182.105 266.029H174.324V257.42H202.804L200 363.196C169.142 339.314 191.577 298.263 195.073 266.03H190.923C188.341 286.756 176.509 310 157.207 309.693C134.66 309.334 136.567 281.478 156.688 272.795L156.688 272.794Z" fill="#F5E200"/>
<path d="M159.184 230.344C159.374 224.276 155.83 219.227 146.27 217.376V208.558C165.4 209.224 165.322 220.22 159.184 230.344V230.344Z" fill="#F5E200"/>
<path d="M146.27 204.409V197.866L186.243 200C170.403 211.951 162.504 206.249 146.27 204.408L146.27 204.409Z" fill="#F5E200"/>
<path d="M127.206 243.312C115.178 245.635 110.711 237.706 112.447 230.344C113.768 224.739 121.485 220.218 133.971 217.895V225.676H142.58V197.196L36.8043 200C60.6863 230.858 101.737 208.423 133.97 204.927V209.077C113.244 211.659 89.9998 223.491 90.3069 242.793C90.6656 265.34 118.522 263.433 127.205 243.312L127.206 243.312Z" fill="#F5E200"/>
<path d="M159.184 169.656C159.374 175.724 155.83 180.773 146.27 182.624V191.442C165.4 190.776 165.322 179.78 159.184 169.656V169.656Z" fill="#F5E200"/>
<path d="M146.27 195.591V202.134L186.243 200C170.403 188.049 162.504 193.751 146.27 195.592L146.27 195.591Z" fill="#F5E200"/>
<path d="M127.206 156.688C115.178 154.365 110.711 162.294 112.447 169.656C113.768 175.261 121.485 179.782 133.971 182.105V174.324H142.58V202.804L36.8043 200C60.6863 169.142 101.737 191.577 133.97 195.073V190.923C113.244 188.341 89.9998 176.509 90.3069 157.207C90.6656 134.66 118.522 136.567 127.205 156.688L127.206 156.688Z" fill="#F5E200"/>
</g>
<defs>
<clipPath id="clip0_1_783">
<rect width="600" height="400" fill="white"/>
</clipPath>
</defs>
</svg>
