<svg width="600" height="400" viewBox="0 0 600 400" fill="none" xmlns="http://www.w3.org/2000/svg" xmlns:cgf="https://coding.garden/flags"><metadata id="cgf-metadata">

<cgf:flag>
  <cgf:name>Noordenveld</cgf:name>
  <cgf:route>nl/de/noordenveld</cgf:route>
  <cgf:aspect-ratio>1.5</cgf:aspect-ratio>
</cgf:flag>

</metadata><g clip-path="url(#clip0_1_821)">
<path d="M0.183486 0H0V0.183486H0.183486V0Z" fill="#009900"/>
<path d="M309.358 330.642C326.239 301.284 336.33 248.624 323.853 202.569C301.284 236.147 289.725 269.174 261.835 273.578C233.945 277.982 211.376 279.45 220 236.147C184.037 242.202 183.67 211.009 197.064 192.477C210.459 173.945 261.284 153.945 309.541 174.495C283.67 135.229 260.734 110.826 273.578 74.8624C286.422 38.8991 309.541 51.1927 326.422 68.0734C366.972 47.7064 380.917 61.1009 384.404 93.7615C387.89 126.422 358.349 142.202 337.248 173.945C403.119 152.477 447.523 167.89 460.734 193.945C473.945 220 465.321 237.982 437.431 235.229C450.826 266.055 437.064 282.018 410.826 277.798C384.587 273.578 367.706 262.752 333.945 211.009C344.037 271.009 322.202 311.56 331.56 350.459L309.358 330.642ZM326.606 78.5321C321.284 106.055 322.202 135.046 326.606 158.165C331.009 134.862 331.743 109.358 326.606 78.5321ZM307.89 187.339C281.101 195.413 252.294 213.761 239.266 226.055C265.321 218.165 288.44 204.22 307.89 187.339ZM353.761 186.422C372.661 203.67 390.642 216.881 419.817 222.202C406.606 208.991 375.413 194.312 353.761 186.422ZM0 200V400H600V200H0Z" fill="#FFFF00"/>
<g clip-path="url(#clip1_1_821)">
<path d="M0.0917969 0V1.2844" stroke="white" stroke-width="0.192661"/>
<path d="M0.0917969 0V1.2844" stroke="black" stroke-width="0.192661" stroke-dasharray="0.19 0.19"/>
</g>
</g>
<defs>
<clipPath id="clip0_1_821">
<rect width="600" height="400" fill="white"/>
</clipPath>
<clipPath id="clip1_1_821">
<rect width="1.92661" height="1.2844" fill="white"/>
</clipPath>
</defs>
</svg>
