<svg width="600" height="400" viewBox="0 0 600 400" fill="none" xmlns="http://www.w3.org/2000/svg" xmlns:cgf="https://coding.garden/flags"><metadata id="cgf-metadata">

<cgf:flag>
  <cgf:name>Tynaarlo</cgf:name>
  <cgf:route>nl/de/tynaarlo</cgf:route>
  <cgf:aspect-ratio>1.5</cgf:aspect-ratio>
</cgf:flag>

</metadata><g clip-path="url(#clip0_1_831)">
<path d="M600 0H66.6667V200H600V0Z" fill="#009400"/>
<path d="M600 200H66.6667V400H600V200Z" fill="#EFC600"/>
<path d="M600 133.333H0V266.667H600V133.333Z" fill="#D60000"/>
<path d="M133.333 0H0V400H133.333V0Z" fill="#D60000"/>
<path d="M109.435 157.813C111.293 146.071 122.415 154.122 129.714 145.385C120.887 156.609 132.205 153.661 121.21 170.242L97.6611 186.268L109.435 157.813Z" fill="white" stroke="#D60000" stroke-width="0.785317"/>
<path d="M61.3569 157.486C59.4999 145.744 48.3773 153.795 41.0789 145.058C49.9049 156.282 38.5877 153.334 49.5826 169.915L73.1313 185.941L61.3569 157.486Z" fill="white" stroke="#D60000" stroke-width="0.785317"/>
<path d="M58.4133 237.617C56.5563 249.359 45.4337 241.308 38.1353 250.046C46.9613 238.821 35.6441 241.77 46.639 225.189L70.1877 209.163L58.4133 237.617Z" fill="white" stroke="#D60000" stroke-width="0.785317"/>
<path d="M109.058 232.485C112.227 243.943 122.371 234.689 130.608 242.549C120.573 232.391 132.15 234.044 119.356 218.809L94.1506 205.54L109.058 232.485Z" fill="white" stroke="#D60000" stroke-width="0.785317"/>
<path d="M78.6915 185.287C70.8121 162.326 52.8246 165.99 44.6238 168.071C30.1667 171.739 22.746 192.845 7.71826 195.099C31.297 202.415 40.507 246.244 67.8983 214.396C50.3049 231.78 54.7872 242.287 58.4228 250.552C62.253 259.26 71.0598 261.552 80.6539 279.155C81.9875 258.724 128.488 246.469 101.259 217.339C111.745 228.979 122.399 219.127 132.091 207.646C138.998 199.465 140.041 191.792 162.747 191.174C145.58 187.069 148 168.626 117.282 168.672C109.332 168.684 106.542 177.533 95.6989 187.249C115.595 168.932 112.48 155.806 108.286 146.623C103.338 135.793 85.2862 129.153 83.2704 113.659C81.2611 133.388 49.5548 142.542 64.5363 168.47" fill="white"/>
<path d="M78.6915 185.287C70.8121 162.326 52.8246 165.99 44.6238 168.071C30.1667 171.739 22.746 192.845 7.71826 195.099C31.297 202.415 40.507 246.244 67.8983 214.396C50.3049 231.78 54.7872 242.287 58.4228 250.552C62.253 259.26 71.0598 261.552 80.6539 279.155C81.9875 258.724 128.488 246.469 101.259 217.339C111.745 228.979 122.399 219.127 132.091 207.646C138.998 199.465 140.041 191.792 162.747 191.174C145.58 187.069 148 168.626 117.282 168.672C109.332 168.684 106.542 177.533 95.6989 187.249C115.595 168.932 112.48 155.806 108.286 146.623C103.338 135.793 85.2862 129.153 83.2704 113.659C81.2611 133.388 49.5548 142.542 64.5363 168.47" stroke="#D60000" stroke-width="0.785317"/>
<path d="M83.5973 185.941C86.606 189.789 75.3175 171.379 81.3079 143.095" stroke="#D60000" stroke-width="0.785317"/>
<path d="M92.4283 161.738C85.9237 171.227 86.0654 181.473 89.1576 184.633" stroke="#D60000" stroke-width="0.785317"/>
<path d="M127.097 184.96C109.109 184.96 102.894 199.351 102.894 199.351" stroke="#D60000" stroke-width="0.785317"/>
<path d="M123.499 198.369C100.278 196.734 102.567 207.2 102.567 207.2" stroke="#D60000" stroke-width="0.785317"/>
<path d="M79.6726 255.933C77.0561 232.711 85.8869 221.918 85.8869 221.918" stroke="#D60000" stroke-width="0.785317"/>
<path d="M66.2629 238.598C73.7854 232.337 77.0561 220.941 77.0561 220.937" stroke="#D60000" stroke-width="0.785317"/>
<path d="M96.3531 240.888C89.3078 233.274 92.4283 221.264 92.4283 221.264" stroke="#D60000" stroke-width="0.785317"/>
<path d="M45.0037 209.49C59.7216 200.005 66.59 206.219 66.59 206.219" stroke="#D60000" stroke-width="0.785317"/>
<path d="M33.5564 193.463C60.3758 184.633 69.8607 198.042 69.8607 198.042" stroke="#D60000" stroke-width="0.785317"/>
<path d="M52.5261 179.4C67.5711 182.016 71.1689 195.099 71.1689 195.099" stroke="#D60000" stroke-width="0.785317"/>
<path d="M81.0403 220.68C81.0403 221.903 80.5545 223.076 79.6899 223.94C78.8253 224.805 77.6526 225.291 76.4298 225.291C75.207 225.291 74.0343 224.805 73.1697 223.94C72.3051 223.076 71.8193 221.903 71.8193 220.68C71.8193 219.457 72.3051 218.285 73.1697 217.42C74.0343 216.555 75.207 216.07 76.4298 216.07C77.6526 216.07 78.8253 216.555 79.6899 217.42C80.5545 218.285 81.0403 219.457 81.0403 220.68Z" fill="#D60000" stroke="white" stroke-width="0.785317" stroke-linecap="round"/>
<path d="M76.5693 215.93C76.5693 217.153 76.0836 218.325 75.2189 219.19C74.3543 220.055 73.1816 220.54 71.9589 220.54C70.7361 220.54 69.5634 220.055 68.6988 219.19C67.8341 218.325 67.3484 217.153 67.3484 215.93C67.3484 214.707 67.8341 213.534 68.6988 212.67C69.5634 211.805 70.7361 211.319 71.9589 211.319C73.1816 211.319 74.3543 211.805 75.2189 212.67C76.0836 213.534 76.5693 214.707 76.5693 215.93Z" fill="#D60000" stroke="white" stroke-width="0.785317" stroke-linecap="round"/>
<path d="M74.0547 210.062C74.0547 211.285 73.5689 212.457 72.7043 213.322C71.8397 214.187 70.667 214.672 69.4442 214.672C68.2214 214.672 67.0487 214.187 66.1841 213.322C65.3195 212.457 64.8337 211.285 64.8337 210.062C64.8337 208.839 65.3195 207.667 66.1841 206.802C67.0487 205.937 68.2214 205.452 69.4442 205.452C70.667 205.452 71.8397 205.937 72.7043 206.802C73.5689 207.667 74.0547 208.839 74.0547 210.062Z" fill="#D60000" stroke="white" stroke-width="0.785317" stroke-linecap="round"/>
<path d="M73.4958 203.356C73.4958 204.579 73.0101 205.751 72.1455 206.616C71.2808 207.481 70.1081 207.966 68.8854 207.966C67.6626 207.966 66.4899 207.481 65.6253 206.616C64.7606 205.751 64.2749 204.579 64.2749 203.356C64.2749 202.133 64.7606 200.96 65.6253 200.096C66.4899 199.231 67.6626 198.745 68.8854 198.745C70.1081 198.745 71.2808 199.231 72.1455 200.096C73.0101 200.96 73.4958 202.133 73.4958 203.356Z" fill="#D60000" stroke="white" stroke-width="0.785317" stroke-linecap="round"/>
<path d="M75.4516 196.65C75.4516 197.872 74.9659 199.045 74.1013 199.91C73.2366 200.774 72.0639 201.26 70.8412 201.26C69.6184 201.26 68.4457 200.774 67.5811 199.91C66.7165 199.045 66.2307 197.872 66.2307 196.65C66.2307 195.427 66.7165 194.254 67.5811 193.39C68.4457 192.525 69.6184 192.039 70.8412 192.039C72.0639 192.039 73.2366 192.525 74.1013 193.39C74.9659 194.254 75.4516 195.427 75.4516 196.65Z" fill="#D60000" stroke="white" stroke-width="0.785317" stroke-linecap="round"/>
<path d="M79.3635 191.061C79.3635 192.284 78.8778 193.457 78.0131 194.321C77.1485 195.186 75.9758 195.672 74.753 195.672C73.5303 195.672 72.3576 195.186 71.4929 194.321C70.6283 193.457 70.1426 192.284 70.1426 191.061C70.1426 189.838 70.6283 188.666 71.4929 187.801C72.3576 186.937 73.5303 186.451 74.753 186.451C75.9758 186.451 77.1485 186.937 78.0131 187.801C78.8778 188.666 79.3635 189.838 79.3635 191.061Z" fill="#D60000" stroke="white" stroke-width="0.785317" stroke-linecap="round"/>
<path d="M84.6726 187.429C84.6726 188.652 84.1868 189.824 83.3222 190.689C82.4576 191.554 81.2849 192.039 80.0621 192.039C78.8394 192.039 77.6667 191.554 76.802 190.689C75.9374 189.824 75.4517 188.652 75.4517 187.429C75.4517 186.206 75.9374 185.033 76.802 184.169C77.6667 183.304 78.8394 182.818 80.0621 182.818C81.2849 182.818 82.4576 183.304 83.3222 184.169C84.1868 185.033 84.6726 186.206 84.6726 187.429Z" fill="#D60000" stroke="white" stroke-width="0.785317" stroke-linecap="round"/>
<path d="M90.8198 186.87C90.8198 188.093 90.3341 189.265 89.4694 190.13C88.6048 190.995 87.4321 191.48 86.2093 191.48C84.9866 191.48 83.8139 190.995 82.9492 190.13C82.0846 189.265 81.5989 188.093 81.5989 186.87C81.5989 185.647 82.0846 184.475 82.9492 183.61C83.8139 182.745 84.9866 182.26 86.2093 182.26C87.4321 182.26 88.6048 182.745 89.4694 183.61C90.3341 184.475 90.8198 185.647 90.8198 186.87Z" fill="#D60000" stroke="white" stroke-width="0.785317" stroke-linecap="round"/>
<path d="M98.0849 187.708C98.0849 188.931 97.5992 190.104 96.7346 190.968C95.8699 191.833 94.6972 192.319 93.4745 192.319C92.2517 192.319 91.079 191.833 90.2144 190.968C89.3498 190.104 88.864 188.931 88.864 187.708C88.864 186.485 89.3498 185.313 90.2144 184.448C91.079 183.584 92.2517 183.098 93.4745 183.098C94.6972 183.098 95.8699 183.584 96.7346 184.448C97.5992 185.313 98.0849 186.485 98.0849 187.708Z" fill="#D60000" stroke="white" stroke-width="0.785317" stroke-linecap="round"/>
<path d="M102.835 192.738C102.835 193.961 102.349 195.133 101.485 195.998C100.62 196.863 99.4475 197.348 98.2247 197.348C97.0019 197.348 95.8293 196.863 94.9646 195.998C94.1 195.133 93.6143 193.961 93.6143 192.738C93.6143 191.515 94.1 190.342 94.9646 189.478C95.8293 188.613 97.0019 188.127 98.2247 188.127C99.4475 188.127 100.62 188.613 101.485 189.478C102.349 190.342 102.835 191.515 102.835 192.738Z" fill="#D60000" stroke="white" stroke-width="0.785317" stroke-linecap="round"/>
<path d="M105.629 199.444C105.629 200.667 105.144 201.839 104.279 202.704C103.414 203.569 102.242 204.054 101.019 204.054C99.7961 204.054 98.6234 203.569 97.7588 202.704C96.8942 201.839 96.4084 200.667 96.4084 199.444C96.4084 198.221 96.8942 197.048 97.7588 196.184C98.6234 195.319 99.7961 194.833 101.019 194.833C102.242 194.833 103.414 195.319 104.279 196.184C105.144 197.048 105.629 198.221 105.629 199.444Z" fill="#D60000" stroke="white" stroke-width="0.785317" stroke-linecap="round"/>
<path d="M105.629 206.709C105.629 207.932 105.144 209.104 104.279 209.969C103.414 210.834 102.242 211.319 101.019 211.319C99.7961 211.319 98.6234 210.834 97.7588 209.969C96.8942 209.104 96.4084 207.932 96.4084 206.709C96.4084 205.486 96.8942 204.313 97.7588 203.449C98.6234 202.584 99.7961 202.098 101.019 202.098C102.242 202.098 103.414 202.584 104.279 203.449C105.144 204.313 105.629 205.486 105.629 206.709Z" fill="#D60000" stroke="white" stroke-width="0.785317" stroke-linecap="round"/>
<path d="M104.512 213.415C104.512 214.638 104.026 215.811 103.161 216.675C102.297 217.54 101.124 218.026 99.9012 218.026C98.6785 218.026 97.5058 217.54 96.6411 216.675C95.7765 215.811 95.2908 214.638 95.2908 213.415C95.2908 212.192 95.7765 211.02 96.6411 210.155C97.5058 209.29 98.6785 208.805 99.9012 208.805C101.124 208.805 102.297 209.29 103.161 210.155C104.026 211.02 104.512 212.192 104.512 213.415Z" fill="#D60000" stroke="white" stroke-width="0.785317" stroke-linecap="round"/>
<path d="M100.32 217.886C100.32 219.109 99.8346 220.281 98.9699 221.146C98.1053 222.011 96.9326 222.496 95.7098 222.496C94.4871 222.496 93.3144 222.011 92.4497 221.146C91.5851 220.281 91.0994 219.109 91.0994 217.886C91.0994 216.663 91.5851 215.49 92.4497 214.626C93.3144 213.761 94.4871 213.275 95.7098 213.275C96.9326 213.275 98.1053 213.761 98.9699 214.626C99.8346 215.49 100.32 216.663 100.32 217.886Z" fill="#D60000" stroke="white" stroke-width="0.785317" stroke-linecap="round"/>
<path d="M94.4524 221.239C94.4524 222.462 93.9666 223.634 93.102 224.499C92.2374 225.364 91.0647 225.849 89.8419 225.849C88.6191 225.849 87.4464 225.364 86.5818 224.499C85.7172 223.634 85.2314 222.462 85.2314 221.239C85.2314 220.016 85.7172 218.843 86.5818 217.979C87.4464 217.114 88.6191 216.628 89.8419 216.628C91.0647 216.628 92.2374 217.114 93.102 217.979C93.9666 218.843 94.4524 220.016 94.4524 221.239Z" fill="#D60000" stroke="white" stroke-width="0.785317" stroke-linecap="round"/>
<path d="M83.7084 217.76C82.5438 217.76 81.4768 218.193 80.6653 218.905C80.8913 219.449 81.0252 220.046 81.0252 220.672C81.0252 222.054 80.4174 223.296 79.4546 224.141C80.1545 225.795 81.7987 226.955 83.7084 226.955C86.2547 226.955 88.2894 224.887 88.2894 222.341C88.2894 219.795 86.2547 217.76 83.7084 217.76V217.76Z" fill="#D60000" stroke="white" stroke-width="0.785317" stroke-linecap="round"/>
<path d="M90.8379 193.176C90.8379 194.399 90.3521 195.572 89.4875 196.436C88.6229 197.301 87.4502 197.787 86.2274 197.787C85.0046 197.787 83.8319 197.301 82.9673 196.436C82.1027 195.572 81.6169 194.399 81.6169 193.176C81.6169 191.953 82.1027 190.781 82.9673 189.916C83.8319 189.051 85.0046 188.566 86.2274 188.566C87.4502 188.566 88.6229 189.051 89.4875 189.916C90.3521 190.781 90.8379 191.953 90.8379 193.176Z" fill="#D60000" stroke="white" stroke-width="0.785317" stroke-linecap="round"/>
<path d="M97.1174 196.714C97.1174 197.937 96.6317 199.109 95.767 199.974C94.9024 200.839 93.7297 201.324 92.5069 201.324C91.2842 201.324 90.1115 200.839 89.2469 199.974C88.3822 199.109 87.8965 197.937 87.8965 196.714C87.8965 195.491 88.3822 194.318 89.2469 193.454C90.1115 192.589 91.2842 192.103 92.5069 192.103C93.7297 192.103 94.9024 192.589 95.767 193.454C96.6317 194.318 97.1174 195.491 97.1174 196.714Z" fill="#D60000" stroke="white" stroke-width="0.785317" stroke-linecap="round"/>
<path d="M99.24 203.701C99.24 204.924 98.7542 206.096 97.8896 206.961C97.025 207.826 95.8523 208.311 94.6295 208.311C93.4067 208.311 92.234 207.826 91.3694 206.961C90.5048 206.096 90.019 204.924 90.019 203.701C90.019 202.478 90.5048 201.305 91.3694 200.441C92.234 199.576 93.4067 199.09 94.6295 199.09C95.8523 199.09 97.025 199.576 97.8896 200.441C98.7542 201.305 99.24 202.478 99.24 203.701Z" fill="#D60000" stroke="white" stroke-width="0.785317" stroke-linecap="round"/>
<path d="M99.1516 211.13C99.1516 212.353 98.6658 213.526 97.8012 214.39C96.9366 215.255 95.7639 215.741 94.5411 215.741C93.3184 215.741 92.1457 215.255 91.281 214.39C90.4164 213.526 89.9307 212.353 89.9307 211.13C89.9307 209.907 90.4164 208.735 91.281 207.87C92.1457 207.005 93.3184 206.52 94.5411 206.52C95.7639 206.52 96.9366 207.005 97.8012 207.87C98.6658 208.735 99.1516 209.907 99.1516 211.13Z" fill="#D60000" stroke="white" stroke-width="0.785317" stroke-linecap="round"/>
<path d="M93.4028 215.906C93.4028 217.129 92.9171 218.302 92.0524 219.166C91.1878 220.031 90.0151 220.517 88.7923 220.517C87.5696 220.517 86.3969 220.031 85.5323 219.166C84.6676 218.302 84.1819 217.129 84.1819 215.906C84.1819 214.683 84.6676 213.511 85.5323 212.646C86.3969 211.781 87.5696 211.296 88.7923 211.296C90.0151 211.296 91.1878 211.781 92.0524 212.646C92.9171 213.511 93.4028 214.683 93.4028 215.906Z" fill="#D60000" stroke="white" stroke-width="0.785317" stroke-linecap="round"/>
<path d="M85.6199 215.287C85.6199 216.51 85.1341 217.682 84.2695 218.547C83.4049 219.412 82.2322 219.897 81.0094 219.897C79.7866 219.897 78.6139 219.412 77.7493 218.547C76.8847 217.682 76.3989 216.51 76.3989 215.287C76.3989 214.064 76.8847 212.892 77.7493 212.027C78.6139 211.162 79.7866 210.677 81.0094 210.677C82.2322 210.677 83.4049 211.162 84.2695 212.027C85.1341 212.892 85.6199 214.064 85.6199 215.287Z" fill="#D60000" stroke="white" stroke-width="0.785317" stroke-linecap="round"/>
<path d="M80.5786 209.45C80.5786 210.672 80.0929 211.845 79.2282 212.71C78.3636 213.574 77.1909 214.06 75.9681 214.06C74.7454 214.06 73.5727 213.574 72.708 212.71C71.8434 211.845 71.3577 210.672 71.3577 209.45C71.3577 208.227 71.8434 207.054 72.708 206.19C73.5727 205.325 74.7454 204.839 75.9681 204.839C77.1909 204.839 78.3636 205.325 79.2282 206.19C80.0929 207.054 80.5786 208.227 80.5786 209.45Z" fill="#D60000" stroke="white" stroke-width="0.785317" stroke-linecap="round"/>
<path d="M80.0478 201.932C80.0478 203.155 79.5621 204.328 78.6975 205.192C77.8328 206.057 76.6601 206.543 75.4374 206.543C74.2146 206.543 73.0419 206.057 72.1773 205.192C71.3126 204.328 70.8269 203.155 70.8269 201.932C70.8269 200.709 71.3126 199.537 72.1773 198.672C73.0419 197.807 74.2146 197.322 75.4374 197.322C76.6601 197.322 77.8328 197.807 78.6975 198.672C79.5621 199.537 80.0478 200.709 80.0478 201.932Z" fill="#D60000" stroke="white" stroke-width="0.785317" stroke-linecap="round"/>
<path d="M80.0437 191.125C77.4974 191.125 75.4299 193.192 75.4299 195.738C75.4299 198.285 77.4974 200.352 80.0437 200.352C81.9999 200.352 83.6605 199.127 84.3302 197.407C82.7255 196.686 81.6143 195.059 81.6143 193.186C81.6143 192.598 81.7406 192.035 81.9415 191.517C81.3652 191.258 80.7166 191.125 80.0437 191.125Z" fill="#D60000" stroke="white" stroke-width="0.785317" stroke-linecap="round"/>
<path d="M93.3142 202.463C93.3142 203.685 92.8284 204.858 91.9638 205.723C91.0992 206.587 89.9265 207.073 88.7037 207.073C87.481 207.073 86.3083 206.587 85.4436 205.723C84.579 204.858 84.0933 203.685 84.0933 202.463C84.0933 201.24 84.579 200.067 85.4436 199.203C86.3083 198.338 87.481 197.852 88.7037 197.852C89.9265 197.852 91.0992 198.338 91.9638 199.203C92.8284 200.067 93.3142 201.24 93.3142 202.463Z" fill="#D60000" stroke="white" stroke-width="0.785317" stroke-linecap="round"/>
<path d="M93.4028 209.273C93.4028 210.496 92.9171 211.668 92.0524 212.533C91.1878 213.398 90.0151 213.883 88.7923 213.883C87.5696 213.883 86.3969 213.398 85.5323 212.533C84.6676 211.668 84.1819 210.496 84.1819 209.273C84.1819 208.05 84.6676 206.877 85.5323 206.013C86.3969 205.148 87.5696 204.662 88.7923 204.662C90.0151 204.662 91.1878 205.148 92.0524 206.013C92.9171 206.877 93.4028 208.05 93.4028 209.273Z" fill="#D60000" stroke="white" stroke-width="0.785317" stroke-linecap="round"/>
<path d="M86.5041 208.035C86.5041 209.257 86.0184 210.43 85.1538 211.295C84.2891 212.159 83.1164 212.645 81.8937 212.645C80.6709 212.645 79.4982 212.159 78.6336 211.295C77.7689 210.43 77.2832 209.257 77.2832 208.035C77.2832 206.812 77.7689 205.639 78.6336 204.775C79.4982 203.91 80.6709 203.424 81.8937 203.424C83.1164 203.424 84.2891 203.91 85.1538 204.775C86.0184 205.639 86.5041 206.812 86.5041 208.035Z" fill="#D60000" stroke="white" stroke-width="0.785317" stroke-linecap="round"/>
<path d="M83.1193 196.622C80.5731 196.622 78.5056 198.689 78.5056 201.236C78.5056 203.782 80.5731 205.849 83.1193 205.849C83.8499 205.849 84.5343 205.628 85.1481 205.326C84.5088 204.534 84.101 203.576 84.101 202.479C84.101 200.663 85.1604 199.108 86.686 198.356C85.8408 197.31 84.5691 196.622 83.1193 196.622Z" fill="#D60000" stroke="white" stroke-width="0.785317" stroke-linecap="round"/>
</g>
<defs>
<clipPath id="clip0_1_831">
<rect width="600" height="400" fill="white"/>
</clipPath>
</defs>
</svg>
