<svg width="600" height="400" viewBox="0 0 600 400" fill="none" xmlns="http://www.w3.org/2000/svg" xmlns:cgf="https://coding.garden/flags"><metadata id="cgf-metadata">

<cgf:flag>
  <cgf:name>Hulst</cgf:name>
  <cgf:route>nl/ze/hulst</cgf:route>
  <cgf:aspect-ratio>1.5</cgf:aspect-ratio>
</cgf:flag>

</metadata><g clip-path="url(#clip0_1_9999)">
<path d="M600 0H0V400H600V0Z" fill="#FCDD09"/>
<path d="M259.53 74.6203C264.373 76.2923 266.384 80.5243 268.118 85.0059C273.641 100.588 284.229 100.544 293.882 101.45C311.346 101.557 321.906 106.758 331.167 112.917C322.104 106.799 327.769 96.7558 296.815 96.4733C287.957 95.6153 282.953 95.3024 278.592 83.275C273.921 74.5586 267.423 72.1754 259.53 74.6203V74.6203Z" fill="#DA121A" stroke="black" stroke-width="0.754"/>
<path d="M350.494 370.034C346.545 369.717 342.317 368.056 339.188 365.592C337.823 364.517 336.424 363.024 335.993 362.183C335.885 361.972 335.889 361.616 336.006 361.039C336.812 357.112 339.947 355.16 346.814 354.308C350.238 353.883 352.972 352.674 354.338 350.978C355.577 349.44 355.609 349.176 354.611 348.723L353.881 348.392L353.625 348.911C353.274 349.62 352.15 350.674 351.216 351.168C350.021 351.802 348.064 352.332 345.885 352.613C339.013 353.501 335.422 355.891 334.394 360.261C334.257 360.841 334.146 361.504 334.146 361.735C334.146 362.286 333.816 362.61 333.03 362.831C331.085 363.379 326.567 361.231 323.722 358.407C321.658 356.358 320.624 354.474 320.6 352.716C320.582 351.068 321.639 349.687 323.745 348.622C324.911 348.033 324.684 348.024 327.224 348.751C330.361 349.649 333.344 349.654 335.201 348.767C336.206 348.286 337.064 347.634 337.064 347.352C337.064 347.241 336.827 346.91 336.537 346.617L336.011 346.083L335.589 346.43C334.683 347.175 333.827 347.455 332.216 347.531C330.135 347.629 328.835 347.392 324.627 346.151C324.108 345.998 323.821 344.73 323.911 342.994C324.031 340.679 324.976 338.904 326.751 337.656C328.095 336.712 329.121 336.411 330.997 336.412C334.966 336.412 338.269 338.869 340.819 343.716C341.214 344.467 341.585 345.132 341.644 345.194C341.702 345.256 342.544 344.793 343.515 344.165C348.157 341.164 353.643 338.766 361.795 336.174C363.778 335.544 365.608 334.96 365.861 334.878L366.322 334.728L366.272 333.256C366.135 329.197 367.12 325.149 369.132 321.514C370.089 319.785 370.928 318.547 372.715 316.229C373.471 315.248 374.036 314.396 373.969 314.336C373.902 314.276 373.088 314.065 372.158 313.866C368.678 313.123 365.896 311.91 363.64 310.151C363.003 309.655 361.103 307.857 359.417 306.157L356.352 303.064L355.757 303.731L355.162 304.397L356.224 305.566C358.688 308.277 359.683 310.752 359.688 314.175C359.688 316.818 359.26 318.658 357.997 321.398L357.295 322.922L357.08 322.044C356.962 321.562 356.683 320.84 356.461 320.441C355.894 319.423 354.271 317.784 352.73 316.673C349.425 314.291 347.7 312.028 346.766 308.852C346.318 307.327 346.174 306.351 345.82 302.455C345.172 295.328 344.891 294.673 340.717 290.539C337.631 287.484 336.825 286.132 336.34 283.197C336.073 281.587 336.226 279.814 336.763 278.272C336.944 277.754 337.125 277.216 337.165 277.077C337.219 276.898 337.047 276.746 336.576 276.553C335.76 276.218 335.735 276.245 335.154 278.081C334.363 280.582 334.469 283.599 335.435 286.099C336.162 287.98 336.78 288.818 339.493 291.611C342.648 294.858 343.242 295.698 343.307 297.006C343.333 297.508 343.595 300.656 343.891 304C344.792 314.168 344.889 318.071 344.345 322.283C343.681 327.424 341.902 330.4 338.814 331.534C338.033 331.821 336.297 332.171 336.297 332.041C336.297 332.005 336.467 331.742 336.674 331.457C336.882 331.172 337.236 330.52 337.46 330.008C338.592 327.423 338.582 324.865 337.432 322.49C337.026 321.654 335.416 319.772 334.756 319.365C334.372 319.127 334.318 318.975 334.155 317.646C333.789 314.664 332.834 312.499 329.682 307.512C327.382 303.872 327.042 303.101 326.758 300.877C326.418 298.22 326.745 295.584 328.02 290.683C328.369 289.343 328.742 287.85 328.849 287.364C329.864 282.774 328.493 278.201 323.651 270.025C321.567 266.505 320.514 261.724 320.681 256.539C320.849 251.335 322.008 246.151 324.425 239.79C324.888 238.57 325.242 237.545 325.211 237.513C325.18 237.48 324.828 237.307 324.428 237.128L323.702 236.803L323.457 237.399C321.585 241.961 319.933 247.724 319.305 251.883C318.903 254.542 318.903 260.629 319.305 262.88C319.901 266.221 321.105 269.36 322.885 272.215C324.206 274.334 326.061 278.269 326.707 280.324C327.2 281.89 327.29 282.406 327.347 283.992C327.419 285.999 327.431 285.93 326.267 290.494C325.102 295.066 325.015 295.636 325.011 298.763C325.003 301.997 325.069 302.334 326.265 305.657C328.686 312.381 328.773 317.958 326.531 322.766C325.369 325.258 323.556 327.182 321.322 328.296C319.887 329.012 319.044 329.245 317.429 329.372C315.633 329.512 312.65 328.879 311.032 328.013L310.571 327.767L311.698 327.567C315.321 326.922 317.915 324.502 318.964 320.79C319.361 319.383 319.494 316.835 319.259 315.122C319.012 313.323 318.173 310.734 317.255 308.935C314.513 303.564 314.148 297.517 316.196 291.378C316.535 290.362 317.051 288.809 317.344 287.926C318.124 285.569 318.626 282.821 318.737 280.285C318.892 276.754 318.39 274.178 316.857 270.637C314.419 265.009 313.6 262.015 313.234 257.399C312.934 253.608 313.495 248.846 314.651 245.381C315.832 241.837 315.909 241.478 315.985 239.175C316.04 237.516 315.993 236.659 315.799 235.643C314.983 231.409 312.756 227.247 309.49 223.854C307.282 221.561 307.059 221.43 291.987 213.619C288.186 211.649 284.488 209.691 283.77 209.269C281.236 207.777 280.071 207.05 280.125 206.994C280.155 206.962 280.959 207.01 281.91 207.095C291.786 208.001 299.124 201.221 299.128 191.185L299.129 189.81L299.875 190.562C301.324 192.021 303.351 193.234 305.733 194.063C306.64 194.38 306.768 194.481 307.133 195.174C307.784 196.408 309.405 198.563 310.725 199.949C315.712 205.187 322.066 207.132 328.617 205.426C329.42 205.217 330.19 204.995 330.329 204.933C330.513 204.852 331.002 205.212 332.1 206.236C334.799 208.755 337.108 210.712 338.6 211.745C342.188 214.232 346.237 218.091 348.253 220.946C350.198 223.7 351.66 226.68 352.434 229.465L352.785 230.728L354.178 230.589C354.944 230.512 356.988 230.453 358.72 230.457C362.245 230.465 363.425 230.673 365.895 231.726C368.266 232.736 369.526 233.765 373.387 237.842C378.082 242.799 380.281 244.488 383.677 245.744C385.286 246.339 387.925 246.434 389.447 245.95C392.874 244.862 395.328 242.029 397.65 236.478C398.128 235.336 398.295 234.771 398.176 234.695C398.081 234.634 397.406 234.42 396.676 234.22C394.751 233.693 393.116 233.041 391.242 232.053C387.854 230.267 385.51 228.353 380.988 223.681C377.438 220.013 376.445 219.151 374.769 218.284C372.947 217.34 372.158 217.124 370.546 217.127C369.298 217.127 368.962 217.191 368.224 217.55C367.172 218.062 366.252 218.908 365.598 219.963C365.13 220.718 365.1 220.738 364.972 220.385C364.898 220.181 364.801 219.328 364.757 218.489C364.614 215.756 365.4 213.439 367.066 211.687C368.544 210.133 370.626 209.186 372.581 209.18H373.31V208.238V207.296L372.262 207.218C369.216 206.99 365.84 203.364 364.296 198.664C362.542 193.321 363.056 187.76 365.699 183.489C366.081 182.873 366.415 182.368 366.441 182.368C366.469 182.368 366.46 183.285 366.426 184.405C366.355 186.622 366.516 187.959 367.098 189.994C368.374 194.453 371.803 198.412 375.784 200.023C376.723 200.403 380.243 201.362 380.318 201.258C380.329 201.242 380.034 200.077 379.665 198.664C377.523 190.473 377.13 184.998 378.298 179.595C378.851 177.036 380.162 173.859 381.468 171.913C382.153 170.893 382.242 165.659 381.617 163.183C381.254 161.745 380.482 159.942 379.758 158.843C378.77 157.341 377.788 154.589 377.21 151.704C376.818 149.745 376.817 145.296 377.21 143.114C377.9 139.27 379.351 135.518 381.696 131.514C384.076 127.451 386.6 124.242 391.83 118.631C396.051 114.102 398.11 111.002 399.778 106.662C401.351 102.567 402.186 97.7178 402.003 93.7282C401.929 92.094 402.035 92.1658 402.572 94.1131C403.309 96.7876 403.481 98.2556 403.485 101.934C403.493 105.503 403.322 107.128 402.628 110.282C401.71 114.459 399.875 119.634 397.737 124.079C397.403 124.773 394.77 130.821 391.885 137.519C389.001 144.217 386.578 149.821 386.501 149.973C386.385 150.202 386.501 150.323 387.147 150.666C387.58 150.895 387.951 151.06 387.972 151.032C387.99 151.004 389.001 148.824 390.213 146.188C392.494 141.226 394.415 137.537 396.01 135.057C398.243 131.587 401.395 128.085 404.918 125.161C409.44 121.409 412.128 118.109 414.094 113.895C416.08 109.636 416.927 105.266 416.934 99.2275V96.3948L417.243 97.1062C418.112 99.1099 419.187 103.296 419.553 106.108C419.821 108.161 419.779 112.482 419.473 114.296C418.668 119.078 416.931 123.318 414.012 127.626C412.321 130.121 409.559 133.3 407.348 135.296C403.861 138.444 401.776 140.789 400.258 143.271C399.659 144.25 398.598 146.159 397.224 148.725C396.496 150.085 395.118 153.171 395.118 153.441C395.118 153.609 396.489 154.298 396.635 154.204C396.699 154.163 397.524 152.518 398.469 150.548C400.348 146.632 401.352 145.041 403.645 142.349C406.694 138.769 411.601 134.908 414.296 133.97C419.797 132.055 423.367 127.857 424.679 121.761C424.961 120.449 425.041 120.244 425.116 120.638C425.691 123.661 425.792 129.546 425.318 132.518C424.247 139.239 421.354 144.852 416.168 150.266C412.797 153.787 409.941 156.045 404.52 159.477C399.662 162.552 397.228 164.45 394.217 167.51C391.215 170.561 389.193 173.456 387.532 177.079C385.515 181.48 384.673 185.663 384.675 191.277C384.675 194.366 384.847 196.467 385.458 200.831C385.711 202.641 386.061 205.206 386.235 206.53C386.409 207.855 386.57 209.011 386.591 209.099C386.612 209.19 386.992 209.237 387.458 209.207L388.286 209.155V204.712C388.286 200.16 388.385 198.922 389.004 195.869C389.8 191.942 391.563 188.09 394.006 184.937C394.939 183.734 396.501 182.047 396.501 182.243C396.501 182.301 396.404 182.84 396.285 183.442C395.373 188.047 395.643 195.378 396.887 199.808C396.924 199.94 397.156 199.936 397.756 199.792C398.414 199.634 398.569 199.535 398.544 199.29C398.528 199.122 398.406 198.289 398.275 197.438C397.349 191.429 398.267 185.137 400.82 179.954C402.701 176.14 405.396 173.099 408.575 171.205C409.895 170.419 411.952 169.477 412.178 169.555C412.257 169.583 412.074 169.966 411.772 170.408C409.822 173.258 408.908 176.26 408.638 180.701C408.517 182.694 408.531 183.524 408.705 184.754C409.473 190.185 409.418 195.972 408.551 200.844C408.301 202.249 406.625 208.55 405.959 210.592C405.681 211.442 405.627 211.783 405.761 211.834C407.279 212.406 407.255 212.403 407.39 212.024C408.07 210.108 408.955 207.081 409.631 204.363C411.067 198.591 412.234 195.743 414.356 192.84C416.174 190.352 419.378 188.786 423.173 188.529L424.796 188.42L423.492 189.769C422.356 190.944 422.087 191.336 421.413 192.804C419.771 196.377 419.619 199.563 420.848 204.604C421.768 208.379 421.736 211.784 420.751 214.838C419.914 217.432 417.508 221.713 415.223 224.673C412.912 227.666 412.209 229.03 411.043 232.78C410.264 235.286 410.214 235.547 410.121 237.605C409.666 247.604 405.927 253.353 398.69 255.18L397.576 255.461L397.55 256.081C397.537 256.423 397.519 256.821 397.511 256.967C397.503 257.164 397.81 257.321 398.727 257.585C401.249 258.313 402.978 259.291 404.228 260.695C405.045 261.615 405.801 263.151 405.961 264.22L406.065 264.914L405.007 264.237C402.936 262.911 400.091 261.853 396.653 261.129C394.764 260.731 386.519 259.536 386.414 259.645C386.385 259.676 386.769 260.598 387.268 261.693C388.786 265.027 389.024 266.996 388.121 268.731C387.888 269.179 387.656 269.546 387.606 269.545C387.556 269.545 387.323 269.16 387.087 268.689C386.413 267.34 384.89 264.945 383.906 263.686C382.003 261.251 379.384 259.075 376.611 257.625C374.947 256.755 372.858 255.835 372.765 255.932C372.671 256.03 373.121 263.255 373.318 264.81C373.816 268.743 375.181 271.931 377.431 274.412L378.3 275.371L377.491 275.262C376.075 275.071 373.731 274.379 372.619 273.823C370.675 272.851 369.16 271.44 367.995 269.519L367.638 268.93L366.902 269.226L366.167 269.521L366.207 270.296C366.266 271.454 367.1 274.872 367.725 276.522C369.063 280.056 370.795 282.398 373.308 284.073C374.765 285.043 376.005 285.565 377.953 286.029C379.406 286.374 380.057 286.439 382.025 286.437H384.369L383.914 287.037C383.083 288.135 381.379 289.691 380.435 290.214C377.192 292.013 373.674 291.5 368.202 288.43C367.04 287.779 366.09 287.278 366.09 287.317C366.09 287.608 367.574 291.084 367.984 291.752C368.865 293.19 370.218 294.422 371.849 295.273C373.558 296.164 375.262 296.67 377.658 296.998C379.039 297.187 384.585 297.197 386.517 297.014L387.822 296.89L388.897 297.523C392.461 299.622 394.575 302.043 395.522 305.11C395.846 306.16 395.92 306.717 395.927 308.161C395.94 310.911 395.439 313.012 394.046 316.045C393.027 318.265 392.785 319.064 392.759 320.282C392.719 322.175 393.672 323.329 395.562 323.676C398.012 324.126 402.43 322.698 405.065 320.604C405.51 320.25 405.918 319.961 405.971 319.961C406.13 319.961 405.896 322.38 405.636 323.407C405.115 325.471 403.752 327.581 402.073 328.922C400.735 329.991 398.357 330.868 396.776 330.875C395.297 330.883 393.745 330.272 392.762 329.296C392.057 328.595 391.765 328.023 391.201 326.235C390.703 324.657 390.748 324.637 389.652 326.902C388.718 328.833 388.256 330.367 388.07 332.163C387.663 336.09 388.923 339.178 391.492 340.549C393.046 341.378 395.622 341.353 397.767 340.489C398.168 340.327 398.496 340.241 398.496 340.298C398.496 340.538 397.158 342.186 396.183 343.147C395.491 343.831 394.726 344.389 393.947 344.78C392.92 345.297 392.579 345.386 391.368 345.452C390.38 345.506 389.681 345.452 388.974 345.267C387.662 344.925 385.467 343.787 384.012 342.696L382.845 341.821L382.3 342.451C381.687 343.161 381.656 343.276 381.996 343.571C383.061 344.494 382.874 346.001 381.129 350.586C380.717 351.668 380.232 353.149 380.052 353.877C379.634 355.564 379.506 358.305 379.751 360.337C379.854 361.192 379.911 361.919 379.878 361.954C379.845 361.988 379.536 361.567 379.191 361.017C377.015 357.55 376.203 354.895 376.21 351.268C376.218 349.443 376.383 348.163 376.945 345.707C377.013 345.413 376.91 345.325 376.231 345.089C375.795 344.937 375.419 344.839 375.395 344.87C375.369 344.901 375.008 345.685 374.587 346.612C372.083 352.13 368.191 356.703 363.317 359.854C361.532 361.009 360.182 361.704 357.843 362.677C356.762 363.127 355.822 363.55 355.755 363.617C355.689 363.685 355.913 364.343 356.254 365.081C357.064 366.831 357.109 367.836 356.415 368.662C355.699 369.515 354.728 369.875 352.498 370.116C352.244 370.144 351.341 370.108 350.491 370.041L350.494 370.034ZM384.362 316.988C386.683 316.342 388.758 314.608 389.763 312.475C390.254 311.433 390.282 311.279 390.282 309.675C390.282 308.025 390.267 307.943 389.681 306.704C389.23 305.75 388.789 305.131 387.923 304.238L386.767 303.045L386.193 303.742L385.618 304.439L386.655 305.497C388.076 306.947 388.593 308.063 388.593 309.679C388.593 311.189 388.208 312.076 386.995 313.36C385.741 314.689 384.417 315.287 382.668 315.316C381.111 315.34 380.06 314.644 379.316 313.092L378.99 312.412L378.339 312.675C377.981 312.82 377.63 312.992 377.559 313.057C377.172 313.414 378.741 315.713 379.869 316.441C381.069 317.217 382.787 317.426 384.362 316.988V316.988ZM221.865 363.052C218.988 362.508 215.783 361.1 213.027 359.171L212.241 358.621L211.455 359.489C210.008 361.088 207.993 361.741 205.614 361.38C203.99 361.134 202 360.378 200.528 359.448C199.29 358.666 197.28 356.766 196.481 355.623C195.692 354.495 194.885 352.736 194.628 351.585L194.399 350.559L195.035 349.281C196.778 345.78 199.295 344.483 203.406 344.969C204.315 345.076 205.543 345.3 206.134 345.465C206.726 345.63 207.872 345.948 208.682 346.173C211.605 346.983 214.189 347.024 216.064 346.29C216.924 345.954 218.196 345.106 218.184 344.878C218.177 344.812 217.939 344.476 217.648 344.131C217.153 343.545 217.099 343.52 216.844 343.762C216.693 343.905 216.157 344.219 215.652 344.462C213.981 345.266 211.21 345.141 208.074 344.118C205.124 343.156 201.406 342.803 199.405 343.296C197.014 343.886 195.203 345.36 193.778 347.877C193.324 348.678 192.897 349.334 192.83 349.334C192.424 349.334 191.537 348.173 190.94 346.862C188.752 342.055 188.774 335.148 190.986 332.083C191.688 331.111 193.139 330.229 194.035 330.229C195.178 330.229 197.734 331.772 199.76 333.685C202.198 335.988 204.232 337.027 206.71 337.239L207.9 337.34V336.456V335.571L206.94 335.467C204.685 335.222 203.128 334.396 200.835 332.229C199.231 330.713 197.183 329.362 195.581 328.763C194.316 328.29 194.231 328.23 194.231 327.805C194.231 326.356 195.559 324.379 197.101 323.533C198.623 322.698 199.528 322.464 201.219 322.465C203.947 322.465 205.849 323.262 207.679 325.167C209.241 326.794 210.13 328.674 210.487 331.112C210.627 332.075 210.722 332.298 211.144 332.671C212.552 333.915 214.852 333.885 219.026 332.568C220.366 332.146 221.46 331.912 223.258 331.664C224.543 331.487 230.79 331.455 233.165 331.613L234.7 331.715L235.058 329.968C235.519 327.718 236.858 323.529 237.771 321.479C239.657 317.247 242.371 313.123 245.669 309.481C246.989 308.024 247.243 307.518 247.89 305.064C248.631 302.255 248.997 299.293 249.137 294.989L249.225 292.259L248.55 294.197C247.497 297.219 246.489 299.78 245.457 302.053C239.42 315.355 231.457 322.586 221.067 324.199C218.457 324.604 217.883 324.534 217.883 323.812C217.883 323.742 218.784 323.151 219.886 322.501C223.089 320.61 224.791 319.122 226.095 317.072C227.047 315.574 227.609 314.12 228.333 311.277C229.696 305.931 230.979 303.831 234.854 300.604C236.503 299.231 237.672 297.94 239.168 295.841C241.585 292.448 242.523 290.22 244.394 283.429C244.442 283.252 243.871 284.047 243.124 285.196C236.641 295.156 230.405 300.641 224.304 301.747C221.11 302.326 218.294 301.44 216.104 299.168C212.266 295.185 212.027 288.541 215.536 283.39C215.912 282.839 216.818 281.81 217.55 281.105L218.881 279.823L218.99 281.482C219.126 283.56 219.537 284.788 220.402 285.698C222.846 288.273 227.657 285.722 231.157 279.998C233.081 276.852 235.955 274.043 239.999 271.361C241.878 270.114 244.99 268.297 246.142 267.774C247.795 267.024 250.94 265.362 252.302 264.519C256.216 262.094 258.345 260.353 261.661 256.867C264.141 254.26 264.415 253.913 265.104 252.516C267.951 246.738 271.703 242.586 276.398 240.019C279.319 238.422 281.778 237.561 288.378 235.822C290.448 235.276 292.279 234.754 292.448 234.661C292.617 234.569 294.232 233.343 296.038 231.937C297.844 230.531 299.369 229.44 299.429 229.513C299.488 229.586 300.942 231.343 302.661 233.419C304.379 235.494 305.883 237.312 306.002 237.46C306.195 237.698 306.151 237.827 305.619 238.584C303.499 241.597 302.405 244.557 302.248 247.707C302.062 251.433 303.382 254.871 305.757 256.848L306.505 257.471L305.466 258.073C302.554 259.763 300.099 261.759 297.747 264.35C292.06 270.614 289.931 278.326 293.37 280.204C294.165 280.638 296.291 280.661 297.735 280.25C299.332 279.796 301.833 278.62 303.95 277.329C305.037 276.666 305.95 276.124 305.98 276.124C306.087 276.124 304.85 279.589 304.433 280.459C302.033 285.458 298.679 288.657 294.919 289.532C291.411 290.347 287.993 288.482 285.739 284.522C285.374 283.882 285.031 283.356 284.977 283.353C284.83 283.345 284.138 285.238 283.953 286.158C283.44 288.692 283.603 291.224 284.444 293.809C285.107 295.849 286.045 297.531 287.336 298.995C290.98 303.129 295.246 303.172 298.454 299.107C299.503 297.777 300.913 294.869 301.659 292.5C301.978 291.484 302.29 290.595 302.351 290.524C302.414 290.452 302.622 291.174 302.814 292.128C303.947 297.748 302.475 303.525 298.872 307.593C297.442 309.208 295.845 310.282 293.819 310.991C292.913 311.309 292.448 311.364 290.682 311.361C288.729 311.361 288.52 311.325 287.094 310.812C286.261 310.513 285.023 309.919 284.343 309.491C283.663 309.064 283.093 308.715 283.074 308.715C283.056 308.715 282.993 309.817 282.934 311.163C282.491 321.231 280.787 325.457 276.255 327.725C275.627 328.039 275.089 328.271 275.059 328.24C275.03 328.209 275.112 327.129 275.241 325.839C275.712 321.148 275.494 318.33 274.467 315.84C273.714 314.015 273.132 312.227 272.747 310.561L272.487 309.437L272.382 312.969C272.236 317.897 271.536 321.772 270.416 323.849C268.845 326.763 269.343 330.636 271.771 334.373C272.452 335.421 272.526 335.704 272.192 335.993C272.024 336.139 271.68 336.009 270.591 335.391C266.72 333.192 263.814 330.251 261.968 326.665C258.86 320.623 258.88 312.15 262.029 301.731C262.617 299.786 262.476 299.802 261.411 301.802C259.859 304.715 258.904 308.518 257.906 315.763L257.368 319.675L257.729 320.577C258.487 322.469 258.764 323.694 258.844 325.492C258.942 327.701 258.7 328.868 257.659 331.21C256.295 334.281 255.577 337.068 255.078 341.226L254.809 343.473L253.787 341.466C252.616 339.165 251.854 336.947 251.72 335.444C251.67 334.871 251.57 334.402 251.5 334.402C251.431 334.402 249.945 336.118 248.199 338.215C243.759 343.55 240.401 346.954 237.297 349.27L236.3 350.013L237.037 350.37C237.806 350.742 238.688 351.655 238.934 352.332C239.013 352.548 239.077 353.116 239.077 353.593C239.077 356.958 235.243 360.961 230.554 362.491C228.061 363.303 224.432 363.538 221.864 363.052L221.865 363.052ZM309.591 257.086C306.973 256.35 304.982 254.197 304.102 251.151C303.74 249.894 303.736 247.091 304.095 245.567C304.63 243.293 305.886 240.829 307.707 238.485L308.323 237.69L307.439 236.638C304.387 233.006 295.18 221.905 295.084 221.742C294.957 221.525 296.774 219.13 297.066 219.13C297.278 219.13 304.356 222.168 305.207 222.625C307.895 224.066 311.457 228.537 313.035 232.447C314.543 236.184 314.71 239.636 313.548 243.051C312.097 247.319 311.575 250.133 311.458 254.33L311.373 257.34L310.896 257.33C310.633 257.322 310.046 257.214 309.591 257.086H309.591ZM204.184 238.654C201.364 237.441 197.601 233.139 192.659 225.477C191.75 224.068 191.006 222.824 191.006 222.714C191.006 222.417 191.907 221.397 192.409 221.126C192.675 220.982 193.489 220.859 194.498 220.809C197.905 220.643 199.935 219.664 202.895 216.762C203.458 216.21 203.888 215.758 203.85 215.758C203.812 215.758 203.277 216.057 202.661 216.422C199.63 218.217 196.779 219.126 194.165 219.129C192.582 219.129 191.443 219.521 190.537 220.372C190.119 220.765 189.778 221.037 189.778 220.977C189.778 220.917 189.457 221.164 189.065 221.524C188.001 222.503 187.569 222.393 186.898 220.976C185.276 217.548 185.142 210.446 186.628 206.573C187.08 205.395 188.006 204.174 188.755 203.769C189.392 203.425 190.591 203.431 191.592 203.785C192.274 204.026 192.479 204.195 192.846 204.819C194.116 206.983 195.083 208.032 196.81 209.119C197.683 209.668 200.37 210.662 201.527 210.864C202.098 210.963 202.049 210.913 200.833 210.148C199.073 209.042 197.895 208.104 196.637 206.808C194.547 204.657 194.154 203.757 194.522 201.965C195.119 199.056 197.652 196.594 200.464 196.187C202.263 195.927 203.644 196.406 204.877 197.716C205.622 198.508 206.507 200.191 206.809 201.391C206.962 202 207.053 202.077 208.549 202.875C210.899 204.126 212.27 204.556 214.198 204.644C216.059 204.728 217.204 204.422 218.566 203.477C219.635 202.735 219.921 202.39 221.814 199.545C227.319 191.271 229.854 188.441 234.471 185.413C237.321 183.545 242.058 181.566 246.035 180.584L247.539 180.213L248.635 178.199C249.238 177.092 250.158 175.499 250.678 174.66L251.626 173.135L253.3 172.626C257.699 171.29 262.266 168.683 265.765 165.509C266.398 164.935 267.171 164.235 267.483 163.954L268.051 163.443L267.984 165.158C267.91 167.035 268.156 168.69 268.793 170.612C269.316 172.188 269.539 173.936 269.458 175.833C269.397 177.262 269.321 177.645 268.918 178.547C268.659 179.124 268.185 179.9 267.864 180.272C267.195 181.046 265.311 182.371 263.062 183.651C262.209 184.137 261.508 184.577 261.506 184.629C261.498 184.749 264.775 185.656 266.11 185.904C271.08 186.829 276.274 186.05 279.345 183.919C280.186 183.336 281.473 182.014 281.944 181.25C282.178 180.871 282.2 180.949 282.494 183.176C282.774 185.3 282.779 185.523 282.557 185.802C282.307 186.114 277.326 189.653 274.512 191.518C271.95 193.216 270.88 194.068 269.283 195.685C265.73 199.28 264.093 202.662 263.413 207.813L263.307 208.616L263.014 207.905C262.023 205.504 261.584 202.974 261.717 200.428C261.767 199.457 261.85 198.472 261.9 198.24C261.986 197.843 261.944 197.807 261.197 197.619C260.75 197.507 260.348 197.481 260.279 197.559C260.211 197.636 259.792 198.746 259.349 200.027C257.578 205.146 256.129 207.17 252.221 209.979C248.919 212.352 247.733 214.659 247.561 219.04L247.48 221.115L246.892 219.893C245.757 217.535 245.311 214.803 245.669 212.407C245.766 211.754 246.19 210.048 246.609 208.616C247.029 207.183 247.373 205.957 247.373 205.892C247.373 205.728 245.105 207.847 243.6 209.417C239.862 213.316 238.459 217.811 238.929 224.37C239.234 228.626 238.901 230.955 237.657 233.282C236.614 235.232 234.229 237.066 232.336 237.374C231.558 237.5 231.527 237.619 232.746 235.844C233.856 234.227 234.45 232.967 234.708 231.676C235.211 229.163 234.265 226.694 231.662 223.731L230.696 222.631L229.168 224.614C225.819 228.96 223.549 230.786 220.712 231.414C218.789 231.84 217.077 231.679 214.559 230.836L213.111 230.351L212.822 230.722C212.663 230.926 211.82 232.309 210.947 233.795C208.023 238.775 206.69 239.733 204.185 238.656L204.184 238.654ZM281.084 205.222C279.934 205.042 278.081 204.617 277.188 204.329L276.211 204.014L277.439 203.57C279.728 202.741 281.485 201.233 282.693 199.061C283.987 196.735 284.532 194.297 284.648 190.312C284.733 187.41 284.63 185.975 283.996 181.321C283.769 179.654 283.546 177.037 283.47 175.14C283.397 173.33 283.221 170.44 283.078 168.718C282.74 164.629 282.828 160.691 283.297 158.844C284.24 155.139 286.408 152.179 289.992 149.701C291.439 148.701 294.055 147.314 295.943 146.547C296.681 146.246 297.286 145.919 297.286 145.819C297.287 145.648 296.851 144.458 296.744 144.339C296.582 144.159 292.552 146.021 290.552 147.2C285.481 150.188 282.58 153.984 281.452 159.11C281.152 160.47 281.124 161.029 281.143 165.105C281.154 167.578 281.249 170.757 281.351 172.17C281.625 175.953 281.597 177.626 281.244 178.592C280.196 181.456 278.068 183.162 274.403 184.074C272.673 184.505 266.081 184.444 266.118 183.997C266.126 183.938 266.614 183.564 267.21 183.167C268.577 182.254 269.789 180.897 270.406 179.586C270.895 178.549 271.316 176.594 271.326 175.321C271.334 174.099 270.875 171.343 270.418 169.884C269.568 167.172 269.467 164.831 270.101 162.565C270.598 160.79 271.105 159.78 272.506 157.772L273.031 157.021L272.345 156.528C271.968 156.257 271.626 156.035 271.586 156.035C271.546 156.035 270.995 156.775 270.363 157.68C266.946 162.578 262.683 166.313 257.504 168.949C255.543 169.947 252.195 171.244 252.028 171.07C251.978 171.017 252.194 170.676 252.509 170.311C253.829 168.784 255.637 165.488 257.7 160.851C259.681 156.397 265.219 149.918 268.526 148.184L269.177 147.842L268.925 147.162C268.57 146.201 268.523 146.175 267.776 146.526C264.629 148.008 258.997 154.38 256.336 159.47C255.703 160.68 255.33 161.151 253.899 162.546C251.837 164.557 250.948 165.311 249.061 166.652C246.199 168.687 242.847 170.212 239.693 170.915C238.716 171.133 237.73 171.205 235.776 171.201C233.422 171.193 233 171.152 231.486 170.744C229.905 170.318 228.504 169.747 226.968 168.902C226.601 168.7 226.325 168.512 226.354 168.485C226.384 168.458 226.96 168.53 227.636 168.648C230.547 169.153 234.522 168.822 237.305 167.844C243.577 165.637 247.756 160.191 248.738 152.942C248.857 152.067 249.018 151.673 249.689 150.63C251.666 147.551 254.079 145.803 257.867 144.704C258.707 144.461 258.757 144.419 258.666 144.04C258.613 143.817 258.529 143.427 258.48 143.172C258.432 142.917 258.366 142.709 258.336 142.709C258 142.709 255.607 143.521 254.576 143.984C252.066 145.113 250.001 146.899 248.455 149.28C248.079 149.859 247.71 150.255 247.548 150.255C247.383 150.255 247.167 150.494 247.003 150.857C245.77 153.588 242.334 157.595 240.094 158.915C236.328 161.133 232.493 160.818 228.6 157.971C227.985 157.522 227.182 156.881 226.814 156.547L226.145 155.94H228.119C230.33 155.948 231.338 155.713 232.781 154.871C235.231 153.443 236.723 151.291 238.306 146.909C239.229 144.352 239.992 143.053 241.356 141.716C243.186 139.923 245.628 138.74 249.676 137.685C251.849 137.119 254.152 137.008 255.665 137.395C256.567 137.626 258.302 138.46 259.07 139.032C259.339 139.232 259.579 139.314 259.636 139.226C259.691 139.141 259.902 138.797 260.106 138.46L260.476 137.849L260.106 137.549C259.317 136.91 256.93 135.818 255.787 135.573C254.128 135.219 251.148 135.295 249.822 135.726C249.273 135.904 247.01 133.103 245.991 130.986C244.986 128.896 244.589 127.319 244.496 125.045C244.362 121.76 245.121 119.153 246.854 116.95C247.626 115.968 248.143 115.58 247.914 116.153C247.848 116.32 247.759 117.395 247.718 118.543C247.63 120.951 247.816 121.982 248.684 123.903C249.421 125.534 251.117 127.296 252.824 128.205C255.153 129.444 257.087 129.862 260.497 129.862H262.837L264.896 130.884C268.318 132.583 269.865 132.991 272.79 132.968C274.197 132.958 275.236 132.851 276.31 132.611C277.147 132.423 277.861 132.3 277.896 132.336C278.03 132.477 277.606 133.066 276.901 133.717C276.245 134.324 274.725 135.167 271.101 136.937L270.026 137.462L271.715 137.661C281.441 138.805 286.667 138.117 290.873 135.141C291.358 134.798 291.815 134.518 291.889 134.518C292.043 134.518 292.215 135.446 292.216 136.284C292.216 137.952 291.515 138.885 289.317 140.131C288.466 140.614 287.82 141.056 287.882 141.114C288.021 141.243 291.363 141.703 293.14 141.838C294.795 141.963 297.004 141.703 298.76 141.175C301.345 140.399 303.731 138.946 306.341 136.559C306.886 136.061 307.359 135.682 307.393 135.717C307.427 135.752 307.406 136.074 307.349 136.432C307.251 137.042 306.146 138.852 305.873 138.852C305.808 138.852 305.119 139.584 304.341 140.479C303.08 141.93 302.958 142.124 303.208 142.27C303.377 142.369 304.968 142.439 307.185 142.446C311.371 142.459 312.833 142.264 315.512 141.337C319.835 139.841 322.906 137.302 325.3 133.243L325.986 132.079L326.324 133.178C326.777 134.654 326.88 136.713 326.563 137.983C326.43 138.52 326.014 139.676 325.64 140.551C324.898 142.287 324.893 142.231 325.873 142.842L326.43 143.188L328.34 141.06C331.602 137.428 333.188 135.234 334.445 132.615C335.695 130.01 336.637 126.415 336.853 123.426C336.978 121.697 337.097 121.869 337.362 124.162C337.464 125.045 337.607 126.02 337.679 126.329C337.751 126.639 337.89 127.306 337.986 127.812L338.162 128.732L339.245 127.347C342.367 123.355 344.055 120.137 344.999 116.375C345.381 114.853 345.422 114.417 345.429 111.88C345.437 108.728 345.19 107.249 344.218 104.655C343.937 103.905 343.729 103.265 343.757 103.233C343.901 103.065 346.189 103.768 346.719 104.142C347.792 104.9 348.285 105.78 349.503 109.111C349.866 110.104 350.207 110.917 350.261 110.917C350.429 110.917 351.957 106.478 352.284 105.039C352.936 102.168 352.925 99.0556 352.252 96.4127C351.83 94.7517 350.71 92.1321 349.6 90.2077C349.126 89.3857 348.738 88.6878 348.738 88.6569C348.738 88.6259 350.017 88.6003 351.58 88.6003H354.421V87.7173V86.8342H349.976H345.53L346.911 89.1221C348.661 92.0207 350.008 94.857 350.514 96.708C351.204 99.2277 351.189 102.346 350.475 105.029L350.226 105.964L349.751 105.029C348.84 103.237 347.203 102.001 345.222 101.608C344.462 101.457 340.905 101.37 340.905 101.502C340.905 101.533 341.313 102.454 341.812 103.549C343.277 106.765 343.734 108.751 343.725 111.88C343.717 114.899 343.158 117.278 341.786 120.148C341.035 121.72 339.35 124.409 339.183 124.302C339.116 124.259 339.062 124.017 339.062 123.765C339.062 122.878 338.609 120.85 338.197 119.889C337.967 119.354 337.212 118.163 336.518 117.241L335.257 115.566L335.177 119.944C335.112 123.479 335.037 124.616 334.788 125.848C334.138 129.062 333.079 131.799 331.579 134.14C330.885 135.223 328.448 138.415 328.381 138.33C328.365 138.309 328.411 137.784 328.484 137.166C328.74 135.039 328.116 132.331 326.684 129.35L325.967 127.859L324.933 130.053C323.644 132.788 322.791 134.064 321.09 135.802C317.808 139.154 313.369 140.736 307.533 140.631L306.798 140.618L307.574 139.643C309.248 137.539 309.527 136.171 308.863 133.313C308.74 132.783 308.606 132.25 308.566 132.128C308.518 131.982 307.978 132.426 306.998 133.417C303.522 136.932 301.25 138.497 298.273 139.425C297.174 139.768 296.477 139.869 294.752 139.935C292.659 140.014 292.609 140.008 292.853 139.715C292.991 139.549 293.268 139.089 293.467 138.691C293.786 138.058 293.831 137.751 293.83 136.203C293.829 134.729 293.756 134.178 293.386 132.871C293.143 132.01 292.901 131.306 292.849 131.306C292.797 131.306 292.374 131.636 291.91 132.04C290.056 133.654 288.133 134.808 286.228 135.451C284.059 136.183 280.498 136.575 277.938 136.363L276.531 136.247L277.271 135.725C278.202 135.069 279.274 133.862 279.559 133.148C279.679 132.847 279.778 132.33 279.778 131.999C279.778 131.206 279.339 130.022 279.044 130.022C278.917 130.022 278.356 130.162 277.798 130.333C274.113 131.464 270.702 131.416 267.712 130.191C265.577 129.317 265.584 129.331 267.058 128.917C269.079 128.349 271.119 127.557 273.978 126.231C276.999 124.83 277.739 124.545 279.778 123.998C285.104 122.571 291.519 122.325 300.512 123.204C301.821 123.332 305.699 123.777 309.13 124.193L315.367 124.948L316.348 124.647C320.948 123.231 322.422 120.297 319.771 117.831C318.347 116.506 316.23 115.765 313.453 115.619C310.5 115.463 307.931 116.061 306.041 117.344C304.604 118.32 303.112 119.032 301.601 119.463C300.184 119.867 296.683 119.945 295.213 119.606C293.625 119.239 291.122 118.327 289.684 117.591C288.409 116.938 288.344 116.882 288.84 116.869C290.827 116.817 294.603 116.483 295.409 116.289C296.689 115.98 297.325 115.622 298.653 114.462C299.264 113.929 299.943 113.345 300.161 113.165C300.38 112.986 300.531 112.813 300.497 112.781C300.462 112.75 299.779 112.823 298.976 112.945C298.174 113.067 297.298 113.127 297.03 113.08C296.24 112.94 295.25 111.559 294.851 110.042C294.759 109.694 294.708 109.384 294.737 109.353C294.767 109.322 295.025 109.442 295.311 109.619C296.226 110.183 297.819 110.48 299.36 110.374C301.318 110.24 303.266 109.851 304.25 109.395C308.601 107.384 314.509 108.224 318.558 111.43C319.426 112.117 319.74 112.492 320.185 113.378L320.737 114.475L321.667 112.093C323.374 107.726 323.784 105.774 323.769 102.086C323.761 99.7418 323.709 99.2428 323.339 97.7512C322.299 93.5739 320.191 89.9763 316.414 85.9347L314.565 83.9568L312.276 84.0708L309.988 84.1849L309.784 84.8005C309.282 86.3213 309.094 87.9032 309.101 90.5477C309.109 92.0163 309.151 93.3348 309.204 93.4776C309.406 94.0276 309 93.679 308.119 92.5461C306.063 89.9038 305.396 87.7801 305.779 85.0997L305.901 84.2486L305.017 84.2973L304.133 84.346L303.864 85.2723C303.401 86.8661 303.229 88.8321 303.328 91.3925L303.42 93.7832L302.849 93.0953C301.967 92.0321 300.974 90.5217 300.633 89.7244C299.943 88.1148 299.72 86.3048 300.035 84.8863C300.161 84.3217 300.142 84.2846 299.442 83.7385C298.555 83.0467 297.816 81.9115 297.491 80.7428C297.011 79.0169 297.412 76.0621 298.514 73.188C298.701 72.7022 298.983 71.9642 299.141 71.5478L299.429 70.7907L298.32 70.4501C295.598 69.6145 294.911 68.5232 296.256 67.1757C296.968 66.4619 297.793 66.1239 298.82 66.1239C299.423 66.1239 299.568 66.0295 300.734 64.8796C303.333 62.3178 307.288 60.8127 313.956 59.8481L316.419 59.492L316.927 58.7206C317.207 58.2963 317.975 57.4105 318.634 56.7522C320.581 54.8089 322.615 53.9871 326.007 53.7742C327.254 53.6956 327.638 53.6286 327.313 53.545C326.521 53.3416 326.086 53.0422 326.034 52.6638C325.925 51.8695 327.083 51.2021 328.58 51.1966C329.108 51.1966 329.54 51.151 329.54 51.1C329.54 51.0489 329.078 50.4539 328.514 49.7779L327.489 48.5487L328.975 48.2924C329.792 48.1511 330.507 47.9883 330.562 47.9302C330.618 47.872 330.479 47.6469 330.255 47.4294C329.758 46.9481 329.752 46.83 330.192 46.3004C330.449 45.9917 330.74 45.8607 331.327 45.7895L332.116 45.6938L331.673 44.7047C331.063 43.3415 330.869 42.0988 330.974 40.2291C331.062 38.6798 331.058 38.6554 330.694 38.5109C330.28 38.3461 330 37.8944 330 37.389C330 36.9285 330.669 36.262 331.131 36.262C331.468 36.262 331.519 36.175 331.619 35.4191C331.787 34.1467 331.735 32.8853 331.451 31.3916L331.195 30.044L330.543 30.121C330.01 30.1837 329.833 30.1316 329.574 29.8425C329.164 29.3815 329.041 28.8415 329.229 28.3241C329.687 27.0636 331.768 27.611 332.386 29.1544C332.561 29.5931 332.668 29.6886 332.879 29.5948C333.027 29.5289 333.415 29.3958 333.74 29.2989C334.294 29.134 334.355 29.151 334.7 29.5708C334.902 29.8171 335.068 30.1927 335.068 30.4054C335.068 30.9827 334.669 32.1043 334.066 33.2193C333.382 34.485 333.266 34.9425 333.597 35.0754C333.768 35.1436 334.111 34.9161 334.666 34.368C336.282 32.7705 337.81 32.9749 337.487 34.7451C337.426 35.0783 337.531 35.2376 338.09 35.6571C338.863 36.2375 339.369 36.9994 339.369 37.5836C339.369 38.1095 338.708 38.7843 337.965 39.0169C337.315 39.2206 337.252 39.3298 337.61 39.6403C337.967 39.9493 337.823 40.6276 337.343 40.9084C336.934 41.147 336.386 41.0793 335.483 40.679C335.232 40.5676 335.237 40.6168 335.534 41.2124C336.167 42.4826 335.52 43.0896 334.14 42.5209C333.68 42.3312 333.214 42.0992 333.107 42.0057C332.682 41.6375 332.765 42.0591 333.284 42.9069C334.05 44.158 334.936 45.0044 336.119 45.6129C337.05 46.0923 337.256 46.1358 338.597 46.1351C339.887 46.1351 340.152 46.0832 340.844 45.7025C341.872 45.1365 342.453 44.6125 343.143 43.631L343.708 42.8264L343.419 42.1575C342.622 40.3069 343.741 37.6004 345.537 37.0381C346.039 36.8809 346.126 36.7865 346.126 36.401C346.126 36.0926 346.251 35.8627 346.519 35.6789C346.885 35.4284 346.95 35.4279 347.441 35.671C347.892 35.8959 347.969 36.0149 347.969 36.4892C347.969 36.7945 347.903 37.0867 347.823 37.1385C347.742 37.1912 347.841 37.4856 348.045 37.8003C348.758 38.8977 348.705 40.2036 347.889 41.6587C347.445 42.4518 346.298 43.3245 345.701 43.3245C345.348 43.3245 345.339 43.356 345.429 44.2476C345.803 47.9634 346.949 50.174 349.052 51.2394C350.638 52.0421 352.906 52.0802 354.809 51.3361C355.999 50.8707 356.048 50.6484 354.931 50.7839C354.172 50.876 353.963 50.8453 353.671 50.5982L353.321 50.302L353.665 49.8456C353.854 49.5945 354.222 49.2532 354.483 49.0868L354.957 48.7845H354.372C352.777 48.7845 351.734 48.0987 352.125 47.3096C352.226 47.1051 352.413 46.8126 352.54 46.66C352.747 46.4118 352.746 46.3718 352.525 46.2828C352.174 46.1418 351.656 45.2109 351.656 44.72C351.656 43.6402 353.084 43.0056 354.31 43.5409C354.876 43.7883 354.881 43.787 354.881 43.4089C354.881 43.1988 354.994 42.9099 355.131 42.7666C355.669 42.2036 356.927 42.901 358.083 44.4031C358.778 45.3065 359.21 45.4566 359.538 44.9085C359.66 44.7066 359.583 44.4604 359.209 43.8509C358.581 42.8281 358.59 42.2889 359.258 40.9386C359.826 39.791 359.911 39.3358 359.614 39.0254C359.267 38.6622 359.63 38.635 360.169 38.9838C360.825 39.4076 361.332 40.0496 361.332 40.4572C361.332 40.85 361.367 40.84 361.932 40.2887C362.612 39.6247 363.445 39.508 364.326 39.9535C365.533 40.5642 365.974 41.6869 365.435 42.7757L365.192 43.2681L365.918 43.2549C366.489 43.2469 366.807 43.3543 367.405 43.7633L368.166 44.2832H367.522C366.928 44.2832 366.798 44.3711 365.875 45.3689L364.872 46.4525H363.541C362.422 46.4525 362.184 46.4988 362.04 46.7434C361.791 47.1671 362.328 47.567 363.456 47.799C364.451 48.0038 365.198 48.4524 365.683 49.1378C365.985 49.5626 365.985 49.5848 365.713 49.9004C365.558 50.0792 365.338 50.2253 365.224 50.2253C364.916 50.2253 364.974 50.4471 365.39 50.8554C366.252 51.7024 366.299 53.0735 365.479 53.5162C364.941 53.8071 364.255 53.8258 363.705 53.5641C363.343 53.3916 363.27 53.413 363.017 53.7638C362.724 54.1689 362.651 54.1127 362.531 53.3917C362.491 53.1467 362.4 53.1787 361.89 53.6195L361.296 54.1328L361.012 53.7443C360.856 53.5308 360.648 53.1572 360.551 52.9144C360.315 52.3287 360.158 52.3571 360.042 53.0066C359.947 53.5347 359.455 54.2388 359.182 54.2388C358.887 54.2388 358.403 53.5047 358.314 52.9204C358.215 52.2688 358.049 52.1413 357.884 52.5894C357.727 53.0173 357.958 54.8704 358.28 55.7641C358.623 56.7167 358.705 56.6147 356.735 57.6714C353.968 59.1558 351.52 59.79 348.047 59.9228C342.419 60.1379 338.33 61.7183 335.538 64.758L334.553 65.8303L335.157 66.3702C335.489 66.6671 335.797 66.9127 335.842 66.916C335.887 66.916 336.405 66.4301 336.994 65.8288C339.631 63.1343 343.024 61.9323 348.682 61.6894C353.049 61.5018 356.598 60.2719 359.719 57.8643L361.101 56.7982L361.209 58.4485C361.342 60.5045 361.239 65.5009 361.025 67.3671C360.648 70.6462 360.122 72.6989 359.086 74.9315C357.862 77.5674 355.769 79.3616 353.171 80.0018C352.634 80.1344 352.003 80.2439 351.771 80.2453C351.385 80.2453 351.349 80.3002 351.351 80.8497C351.359 82.005 351.452 82.1494 352.169 82.0602C356.388 81.5347 359.561 78.8579 361.249 74.3994C362.341 71.516 362.857 68.2067 362.977 63.3099L363.063 59.7778L363.894 59.8336C364.906 59.901 366.37 59.6498 368.033 59.1227L369.282 58.7268L369.29 58.0669C369.316 56.0978 371.985 54.175 373.932 54.7229C374.506 54.8846 374.61 54.8684 374.912 54.5715C375.098 54.3887 375.404 54.2394 375.593 54.2394C375.972 54.2394 376.689 54.901 376.689 55.2508C376.689 55.5762 376.18 56.0055 375.794 56.0055C375.501 56.0055 375.461 56.0933 375.461 56.7343C375.461 58.0287 374.706 59.109 373.252 59.8944C372.6 60.2462 371.295 60.3678 370.546 60.1465C370.203 60.0452 370.1 60.1333 369.594 60.9492C368.656 62.4637 368.506 62.9799 368.582 64.4323C368.661 65.934 368.971 66.6774 369.929 67.667C371.038 68.8135 372.591 69.4875 374.613 69.7008L375.377 69.7814L374.921 69.4359C373.835 68.6125 373.464 68.1738 373.464 67.7146C373.464 67.1503 373.823 66.9228 374.713 66.9228H375.368L374.894 66.4011C374.268 65.7122 374.143 65.2429 374.453 64.7475C374.715 64.3296 375.137 64.2477 375.625 64.5203C375.9 64.6742 375.922 64.6277 375.922 63.8857C375.922 62.8642 376.154 62.3384 376.712 62.0967C377.284 61.8491 378.07 61.9879 379.013 62.5032C379.691 62.8737 379.799 62.8914 380.109 62.6839C380.782 62.233 381.5 62.3004 381.733 62.8366C382.01 63.4719 381.943 64.1954 381.52 65.1458C381.135 66.0114 381.118 66.4413 381.471 66.4413C381.572 66.4413 382.248 65.8157 382.973 65.051C384.206 63.7503 385.158 63.0816 385.789 63.0734C386.29 63.0655 386.672 63.6565 386.672 64.4345V65.157H387.371C388.599 65.157 389.59 65.9878 389.59 67.0158C389.59 67.9142 388.537 68.343 387.521 67.8588C387.121 67.6683 386.867 67.0821 387.051 66.7716C387.106 66.6782 387.059 66.6025 386.95 66.6033C386.38 66.6112 383.325 67.4438 382.547 67.809L381.651 68.2291L381.721 68.999C381.784 69.669 381.748 69.803 381.433 70.0317C380.957 70.3807 380.185 70.3648 379.75 69.9971C379.403 69.7027 379.382 69.7078 377.852 70.4716C375.982 71.4049 374.727 71.734 373.025 71.7372C371.863 71.7372 371.752 71.7663 371.853 72.0206C372.226 72.955 372.272 73.1694 372.179 73.5552C372.055 74.071 371.46 74.2759 370.819 74.023C370.406 73.86 370.385 73.8708 370.487 74.1992C371.114 76.2062 371.271 76.8771 371.115 76.8771C371.019 76.8771 370.26 76.7248 369.428 76.5388C368.597 76.3526 367.888 76.2306 367.852 76.2674C367.818 76.3044 367.932 76.7275 368.107 77.2078C368.463 78.1856 368.434 79.3136 368.042 79.7234C367.6 80.1861 367.075 80.0155 366.264 79.1449C365.842 78.6923 365.427 78.322 365.341 78.322C365.254 78.322 365.361 78.8098 365.582 79.4058C367.422 84.4048 368.119 88.3675 368.062 93.4936C368.044 95.4038 368.102 97.0244 368.228 97.8287C368.871 101.967 370.547 105.356 373.478 108.45C374.73 109.77 374.743 109.792 374.223 109.701C371.372 109.199 369.677 108.455 368.75 107.296L368.188 106.593L367.744 106.867C366.838 107.425 366.796 107.574 367.306 108.444C368.186 109.95 368.45 111.085 368.456 113.402C368.464 115.764 368.17 117.633 367.876 117.11C366.062 113.891 364.103 111.28 361.505 108.616C359.327 106.384 359.462 106.445 358.504 107.265L358.058 107.647L358.721 109.16C359.086 109.992 360.192 112.334 361.18 114.365C363.135 118.388 363.992 120.559 364.601 123.035C365.468 126.557 365.535 129.581 364.832 133.51C364.632 134.628 364.479 134.772 364.32 133.992C364.174 133.281 363.148 130.436 362.48 128.89C360.929 125.299 358.517 121.619 355.834 118.75L354.83 117.676L354.164 118.156C353.797 118.42 353.498 118.693 353.498 118.765C353.498 118.836 353.919 119.971 354.435 121.286C357.983 130.341 359.822 136.915 360.417 142.674C360.676 145.179 360.523 149.982 360.118 152.054C359.56 154.903 357.742 159.678 356.953 160.362C356.811 160.485 356.393 161.029 356.023 161.571C353.295 165.566 353.095 169.938 355.46 173.848C356.227 175.115 358.163 177.043 359.298 177.672C359.828 177.965 360.227 178.262 360.186 178.331C360.029 178.596 358.123 178.905 356.723 178.891C350.956 178.838 347.201 173.762 347.201 166.023V164.322L346.502 163.151C345.567 161.583 344.861 159.929 344.421 158.275C344.102 157.075 344.058 156.561 344.055 154.02C344.055 151.551 344.105 150.885 344.417 149.445C344.812 147.62 345.695 144.567 346.338 142.803C346.559 142.196 346.738 141.618 346.736 141.519C346.736 141.419 346.393 141.181 345.978 140.991L345.223 140.644L343.869 142.997C340.436 148.969 339.206 152.849 339.412 157.059C339.574 160.369 340.451 163.199 342.304 166.391C343.537 168.516 344.72 170.953 345.144 172.243C345.363 172.908 345.434 173.58 345.434 174.972C345.434 177.747 345.155 178.224 341.306 182.036C338.932 184.387 338.143 186.986 339.051 189.462C339.803 191.511 342.038 193.518 344.091 193.988C344.365 194.051 344.59 194.156 344.59 194.221C344.59 194.372 342.964 194.963 341.672 195.283C340.088 195.674 337.224 195.764 335.631 195.472C333.207 195.029 331.134 193.703 330.276 192.047C329.799 191.128 329.591 190.144 329.814 189.861C330.217 189.35 331.084 187.281 331.38 186.126C331.852 184.283 331.97 180.957 331.628 179.144C331.212 176.941 329.218 173.03 327.481 171.011C326.101 169.407 324.368 166.204 323.938 164.463C323.661 163.338 323.63 161.212 323.875 160.009C324.158 158.613 325.179 156.035 326.074 154.451L326.912 152.968L326.282 152.491C325.936 152.228 325.601 152.014 325.539 152.014C325.357 152.014 324.41 153.171 323.706 154.255C321.355 157.873 321.031 161.832 322.694 166.62C323.512 168.975 323.9 169.759 324.605 170.477C325.632 171.523 328.277 175.359 328.81 176.576C329.061 177.149 329.431 178.296 329.633 179.125C330.272 181.76 330.102 183.663 328.927 187.041C328.523 188.2 328.292 188.596 327.549 189.4C325.711 191.388 325.328 193.494 326.403 195.712C327.507 197.989 330.847 200.093 333.939 200.462L334.99 200.587L333.608 201.383C331.863 202.387 330.1 203.132 328.191 203.671C326.872 204.043 326.398 204.093 324.162 204.102C322.154 204.11 321.389 204.049 320.476 203.806C315.587 202.509 311.312 198.976 308.412 193.837C306.35 190.183 305.255 186.33 305.016 181.882C304.923 180.162 305.171 176.906 305.406 176.746C305.478 176.697 305.583 176.297 305.641 175.855C306.271 171.05 307.751 165.926 309.667 161.914C312.212 156.589 315.35 152.503 319.595 148.99C320.164 148.519 320.63 148.097 320.63 148.052C320.63 147.888 319.781 146.723 319.659 146.719C319.401 146.711 316.97 148.823 315.553 150.284C310.699 155.292 307.331 161.329 305.339 168.596C304.785 170.616 304.043 174.225 304.043 174.895C304.043 175.104 303.982 175.313 303.91 175.36C303.716 175.485 303.441 177.095 303.275 179.063C303.026 182.023 303.469 185.742 304.594 190.144C304.797 190.939 304.964 191.644 304.964 191.711C304.964 191.927 302.924 190.768 301.938 189.994C300.184 188.615 298.989 186.578 297.795 182.93C297.417 181.776 296.977 180.611 296.817 180.34C296.219 179.326 295.595 175.356 295.596 172.57C295.596 168.966 296.252 164.605 297.296 161.254C298.081 158.733 299.781 155.181 301.03 153.451C303.398 150.169 306.536 147.892 309.879 147.028C312.224 146.422 311.982 146.595 311.831 145.632C311.674 144.631 311.712 144.64 309.695 145.174C306.463 146.031 303.957 147.551 301.502 150.144C296.683 155.232 293.9 163.359 293.909 172.313C293.917 176.32 294.443 179.624 295.427 181.785C297.553 186.454 297.956 192.525 296.422 196.797C294.992 200.777 291.879 203.642 287.681 204.839C286.717 205.114 285.936 205.199 284 205.238C282.648 205.265 281.335 205.254 281.082 205.217L281.084 205.222ZM333.544 147.899C336.918 144.976 338.496 142.222 339.173 138.07C339.318 137.187 339.403 136.432 339.364 136.394C339.325 136.355 338.945 136.275 338.52 136.215L337.747 136.106L337.403 137.985C337.019 140.084 336.488 141.546 335.598 142.961C334.969 143.96 333.457 145.635 332.331 146.582L331.667 147.141L332.177 147.806C332.458 148.173 332.728 148.476 332.776 148.48C332.824 148.488 333.169 148.224 333.544 147.899L333.544 147.899ZM318.82 74.5343C319.7 74.216 321.858 74.1383 324.011 74.3475L325.163 74.4594L323.829 73.991C320.678 72.8846 318.922 73.0294 317.626 74.5025C316.57 75.7033 316.242 76.6719 317.249 75.6199C317.756 75.0893 318.274 74.7316 318.82 74.5343V74.5343ZM318.812 73.2889C321.751 71.9299 325.272 71.6652 331.802 72.3122C332.245 72.3561 332.608 72.3307 332.608 72.2556C332.608 71.9931 329.617 68.9846 328.413 68.0363C326.045 66.1704 322.648 64.7889 319.902 64.5743L318.637 64.4754L318.187 65.5024C317.607 66.8281 317.435 67.5516 317.93 66.5901C319.029 64.4513 320.784 64.3086 321.742 66.28C322.54 67.9213 322.222 70.3157 321.022 71.7001C320.5 72.3036 320.285 72.4335 319.7 72.5023C319.101 72.573 318.932 72.5235 318.505 72.1468C317.787 71.5153 317.525 70.8734 317.394 69.4197C317.292 68.2949 317.282 68.3947 317.312 70.2222C317.338 71.8095 317.412 72.4727 317.622 72.9915C317.773 73.3668 317.916 73.6739 317.939 73.6739C317.96 73.6739 318.354 73.5006 318.812 73.2891L318.812 73.2889ZM354.09 73.0328C355.849 71.5799 357.388 68.7509 359.02 63.9747C359.53 62.4813 359.921 61.2312 359.887 61.1965C359.854 61.1621 358.696 61.8496 357.314 62.7253C355.932 63.6008 354.456 64.4997 354.033 64.7228C352.574 65.4932 350.525 66.1366 348.214 66.5502C343.214 67.4446 341.072 68.4882 340.605 70.2573C340.52 70.5803 340.487 71.0001 340.533 71.1902C340.611 71.5137 340.664 71.5259 341.373 71.3794C342.005 71.249 342.13 71.1643 342.13 70.8707C342.13 69.8134 344.327 68.8784 348.392 68.2061C351.445 67.7012 354.487 66.5606 356.529 65.1555C356.803 64.9666 357.028 64.8541 357.028 64.9056C357.028 64.9566 356.766 65.6352 356.445 66.4128C355.446 68.8349 354.75 69.9853 353.499 71.2832L352.32 72.505L352.716 73.0853C352.933 73.4043 353.157 73.6674 353.213 73.6697C353.269 73.6697 353.663 73.3852 354.09 73.0328H354.09ZM319.466 68.8697C319.613 68.6998 319.77 68.2749 319.815 67.9251C319.88 67.4172 319.831 67.2199 319.568 66.9457C319.302 66.6675 319.18 66.6353 318.928 66.7764C318.342 67.1043 318.147 68.1994 318.564 68.8217C318.858 69.2598 319.117 69.2736 319.466 68.8695L319.466 68.8697ZM317.496 67.4558C317.446 67.4023 317.409 67.4974 317.416 67.6664C317.424 67.8535 317.459 67.8915 317.508 67.7635C317.552 67.6476 317.548 67.509 317.498 67.4557L317.496 67.4558ZM272.249 201.243C271.532 200.593 270.564 199.651 270.099 199.148L269.255 198.236L270.666 196.816C271.482 195.996 272.844 194.871 273.891 194.152C274.889 193.468 277.238 191.835 279.112 190.525C280.986 189.215 282.627 188.099 282.76 188.046C282.967 187.962 283 188.142 283 189.337C283 196.597 280.659 200.87 275.998 202.116C273.97 202.658 273.757 202.608 272.249 201.243V201.243ZM219.94 165.224C219.821 165.14 219.878 164.31 220.138 162.376C220.413 160.324 220.489 159.149 220.446 157.64C220.371 155.008 220.165 154.513 218.443 152.812C217.598 151.977 216.977 151.196 216.635 150.537C216.147 149.596 216.114 149.437 216.114 148.007C216.114 146.633 216.162 146.379 216.59 145.439C216.852 144.865 217.639 143.6 218.34 142.629C219.784 140.627 220.031 140.117 220.031 139.134C220.031 137.993 219.409 136.933 217.917 135.524C215.073 132.841 214.501 131.995 214.501 130.464C214.501 129.793 214.599 129.447 214.95 128.869L215.398 128.13L215.065 127.812C214.041 126.835 212.611 126.647 211.588 127.355C210.878 127.846 210.335 128.756 209.835 130.293C209.635 130.907 209.365 131.622 209.235 131.882C208.901 132.548 208.074 133.338 207.403 133.63C204.386 134.945 198.753 130.904 196.167 125.569C195.624 124.45 195.046 122.558 194.924 121.501C194.831 120.701 194.865 120.56 195.374 119.671C195.98 118.61 196.672 117.903 197.254 117.75C197.512 117.683 197.983 117.819 198.729 118.179C199.711 118.653 199.968 118.707 201.212 118.707C202.776 118.707 203.627 118.411 205.133 117.342C206.153 116.618 207.454 115.485 207.118 115.613C203.633 116.943 201.268 117.095 199.176 116.123C197.304 115.254 196.172 115.464 195.214 116.858L194.648 117.682L193.79 117.57C191.526 117.274 190.552 116.045 190.546 113.475C190.538 110.287 192.288 106.18 194.722 103.675C195.767 102.6 196.007 102.502 197.634 102.496C199.1 102.489 199.466 102.734 200.218 104.213C200.924 105.601 201.597 106.458 202.481 107.094C203.295 107.679 204.831 108.364 205.978 108.654C206.4 108.761 206.884 108.888 207.053 108.938C207.221 108.987 206.708 108.604 205.911 108.088C204.014 106.857 202.322 105.106 201.556 103.581C200.795 102.064 200.298 101.467 199.483 101.091C198.679 100.719 197.918 100.806 196.734 101.407C196.296 101.63 195.832 101.77 195.704 101.718C195.576 101.667 195.279 101.321 195.044 100.95C193.916 99.1686 195.076 96.407 197.89 94.1727C200.11 92.4095 202.445 91.4829 204.679 91.4777H205.909L207.249 92.5044C208.711 93.6254 209.28 94.3415 209.28 95.0636C209.28 95.321 209.124 95.9065 208.934 96.3643C208.422 97.5969 208.44 100.046 208.969 101.291C209.326 102.131 210.341 104.02 210.434 104.02C210.461 104.02 210.386 103.641 210.272 103.177C209.936 101.81 209.716 99.727 209.821 98.9152C209.874 98.4999 210.12 97.5344 210.366 96.7697C210.896 95.1263 210.918 94.6674 210.507 93.8239C210.253 93.3034 210.228 93.1022 210.362 92.6776C210.596 91.9337 211.589 90.3911 212.287 89.6847C214.512 87.4331 217.629 87.7724 220.073 90.5321C222.889 93.7113 223.799 98.3254 222.393 102.293C221.9 103.684 221.771 105.073 222.041 106.082C222.261 106.903 223.156 107.939 224.03 108.385C224.322 108.533 225.114 108.937 225.789 109.281C226.703 109.748 227.293 109.935 228.093 110.012C229.768 110.175 230.872 110.527 232.701 111.482C235.439 112.912 237.649 114.785 241.118 118.617C242.653 120.312 243.066 120.861 242.999 121.115C242.952 121.293 242.835 122.141 242.739 122.998C242.275 127.154 243.729 131.679 246.728 135.407L247.503 136.371L246.081 136.871C242.433 138.155 239.983 139.974 238.319 142.633C237.534 143.889 237.358 144.284 236.474 146.782C235.808 148.665 235.057 150.174 234.345 151.054L233.897 151.609L232.362 150.125C231.518 149.309 229.901 147.556 228.769 146.23C227.311 144.523 226.697 143.904 226.664 144.109C226.46 145.364 225.446 146.221 223.298 146.956C221.658 147.517 221.417 148.39 222.111 151.251C222.326 152.139 222.471 152.897 222.433 152.936C222.395 152.976 222.074 152.926 221.719 152.826C221.364 152.726 221.037 152.684 220.991 152.732C220.945 152.78 221.376 153.339 221.949 153.973L222.991 155.128L222.907 156.988C222.793 159.537 222.319 161.418 221.073 164.266C220.615 165.311 220.363 165.525 219.939 165.226L219.94 165.224ZM244.105 159.074C243.788 158.899 243.529 158.701 243.529 158.633C243.529 158.566 243.848 158.188 244.238 157.794C244.627 157.4 245.284 156.659 245.697 156.147C246.109 155.634 246.447 155.282 246.447 155.364C246.447 155.824 244.957 159.414 244.772 159.399C244.722 159.399 244.422 159.249 244.105 159.074V159.074Z" fill="black"/>
<path d="M202.723 91.9297C198.451 90.0475 192.644 87.1836 189.094 95.9542C195.198 94.6658 197.299 97.2263 199.027 99.2638C200.752 99.996 205.116 97.8173 202.723 91.9297V91.9297Z" fill="#DA121A" stroke="black" stroke-width="0.754"/>
<path d="M219.737 91.1421C217.378 87.0097 214.347 81.1466 206.452 86.0334C212.106 88.7351 212.328 92.0839 212.55 94.7833C213.519 96.4295 218.283 97.3482 219.737 91.1421Z" fill="#DA121A" stroke="black" stroke-width="0.754"/>
<path d="M193.767 106.848C189.149 107.351 182.727 107.766 183.755 117.214C188.481 113.02 191.523 114.201 193.993 115.113C195.845 114.886 198.631 110.79 193.767 106.848H193.767Z" fill="#DA121A" stroke="black" stroke-width="0.754"/>
<path d="M202.391 131.138C198.119 133.02 192.312 135.884 188.762 127.114C194.866 128.402 196.967 125.842 198.695 123.804C200.42 123.072 204.784 125.251 202.391 131.138V131.138Z" fill="#DA121A" stroke="black" stroke-width="0.754"/>
<path d="M200.785 198.033C197.138 195.063 192.258 190.731 186.611 198.238C192.829 198.642 194.209 201.681 195.362 204.114C196.842 205.287 201.605 204.362 200.785 198.033V198.033Z" fill="#DA121A" stroke="black" stroke-width="0.754"/>
<path d="M188.124 208.988C183.486 209.238 177.052 209.303 177.597 218.793C182.53 214.863 185.508 216.209 187.927 217.253C189.788 217.127 192.78 213.188 188.124 208.988H188.124Z" fill="#DA121A" stroke="black" stroke-width="0.754"/>
<path d="M195.411 224.267C191.569 226.964 186.099 230.464 191.326 238.289C193.574 232.287 196.795 231.844 199.389 231.442C200.917 230.338 201.5 225.368 195.411 224.267Z" fill="#DA121A" stroke="black" stroke-width="0.754"/>
<path d="M200.565 321.501C195.963 320.86 189.628 319.694 188.462 329.124C194.014 326.206 196.699 328.097 198.89 329.587C200.741 329.819 204.387 326.52 200.565 321.501Z" fill="#DA121A" stroke="black" stroke-width="0.754"/>
<path d="M190.021 334.434C185.798 336.431 179.84 338.941 183.732 347.556C186.916 342.025 190.164 342.142 192.786 342.193C194.471 341.367 195.847 336.567 190.021 334.434Z" fill="#DA121A" stroke="black" stroke-width="0.754"/>
<path d="M196.732 349.301C193.327 352.564 188.429 356.875 194.737 363.798C196.085 357.515 199.205 356.576 201.71 355.776C203.06 354.447 202.912 349.443 196.732 349.301V349.301Z" fill="#DA121A" stroke="black" stroke-width="0.754"/>
<path d="M230.348 358.809C229.935 363.588 229.633 370.227 220.473 369.314C224.457 364.366 223.266 361.243 222.344 358.707C222.535 356.791 226.456 353.849 230.348 358.809V358.809Z" fill="#DA121A" stroke="black" stroke-width="0.754"/>
<path d="M326.425 338.285C321.811 338.834 315.393 339.315 316.511 348.751C321.197 344.51 324.25 345.661 326.728 346.547C328.578 346.301 331.325 342.177 326.425 338.285Z" fill="#DA121A" stroke="black" stroke-width="0.754"/>
<path d="M323.137 351.364C319.39 354.199 314.043 357.896 319.534 365.525C321.576 359.446 324.78 358.885 327.358 358.389C328.848 357.23 329.26 352.243 323.137 351.364Z" fill="#DA121A" stroke="black" stroke-width="0.754"/>
<path d="M340.757 359.409C337.261 362.566 332.241 366.725 338.348 373.838C339.875 367.599 343.02 366.756 345.548 366.033C346.935 364.746 346.931 359.74 340.757 359.409V359.409Z" fill="#DA121A" stroke="black" stroke-width="0.754"/>
</g>
<defs>
<clipPath id="clip0_1_9999">
<rect width="600" height="400" fill="white"/>
</clipPath>
</defs>
</svg>
