<svg width="600" height="400" viewBox="0 0 600 400" fill="none" xmlns="http://www.w3.org/2000/svg" xmlns:cgf="https://coding.garden/flags"><metadata id="cgf-metadata">

<cgf:flag>
  <cgf:name>Middelburg</cgf:name>
  <cgf:route>nl/ze/middelburg</cgf:route>
  <cgf:aspect-ratio>1.5</cgf:aspect-ratio>
</cgf:flag>

</metadata><g clip-path="url(#clip0_1_9957)">
<path d="M600 0H0V400H600V0Z" fill="#D90D15"/>
<path d="M258.381 85.9686L262.311 102.028L268.861 108.32L267.387 130.008L333.708 130.505L331.743 108.982L337.475 102.525L342.224 87.1275L330.433 84.4785L324.702 86.4653L324.129 93.4189L318.315 92.8394L318.561 84.3957L307.344 83.8163L307.18 92.3427L292.606 92.0944L292.442 83.4023L281.634 83.2368L281.88 92.5911L275.575 93.2533L275.494 88.2864L270.253 84.6441L258.381 85.9686Z" fill="#FCDD04" stroke="black"/>
<path d="M270.336 84.6441L271.319 94.4951L275.822 93.2533" fill="#FCDD04"/>
<path d="M270.336 84.6441L271.319 94.4951L275.822 93.2533" stroke="black"/>
<path d="M330.352 84.4785L328.715 94.2467L323.986 93.3775" fill="#FCDD04"/>
<path d="M330.352 84.4785L328.715 94.2467L323.986 93.3775" stroke="black"/>
<path d="M262.311 102.194C287.203 98.7716 312.2 98.8282 337.311 102.69Z" fill="#FCDD04"/>
<path d="M262.311 102.194C287.203 98.7716 312.2 98.8282 337.311 102.69" stroke="black"/>
<path d="M268.615 108.237C290.242 105.203 313.066 105.46 331.825 108.816Z" fill="#FCDD04"/>
<path d="M268.615 108.237C290.242 105.203 313.066 105.46 331.825 108.816" stroke="black"/>
<path d="M252.063 145.154L244.189 242.791L237.241 250.283L232.146 305.306C247.534 310.375 264.871 313.144 282.864 315.14L283.191 293.998C285.779 278.528 309.724 272.088 316.843 293.916V315.439C333.847 314.083 350.851 311.267 367.855 305.073L362.94 251.035L355.816 241.929L346.665 146.325L343.207 135.307L287.367 132.161L252.063 145.154Z" fill="#FCDD04" stroke="black"/>
<path d="M297.354 280.091L295.594 269.661L303.536 269.743L302.062 280.008" stroke="black"/>
<path d="M290.232 282.947L284.746 273.262L279.301 277.815L287.57 285.265" stroke="black"/>
<path d="M309.391 282.74L314.958 274.048L319.83 278.477L312.215 285.472" stroke="black"/>
<path d="M284.01 290.77L274.635 285.306L272.424 293.378L283.232 293.916" stroke="black"/>
<path d="M282.985 303.974L271.808 304.056L271.686 313.824" stroke="black"/>
<path d="M315.604 290.731L315.777 290.673L324.983 285.99L327.299 293.278L316.877 293.922" stroke="black"/>
<path d="M316.963 304.575L327.211 304.692L327.181 314.35" stroke="black"/>
<path d="M323.564 293.424L323.391 304.604" stroke="black"/>
<path d="M317.281 281.014L321.739 287.6" stroke="black"/>
<path d="M303.039 273.346L312.823 277.444" stroke="black"/>
<path d="M286.834 277.111L296.209 273.386" stroke="black"/>
<path d="M282.341 280.605L277.768 287.278" stroke="black"/>
<path d="M275.857 293.599L275.799 304.136" stroke="black"/>
<path d="M244.053 242.674C283.77 253.207 322.428 251.067 355.816 241.846Z" fill="#FCDD04"/>
<path d="M244.053 242.674C283.77 253.207 322.428 251.067 355.816 241.846" stroke="black"/>
<path d="M362.99 251.015C322.752 263.578 280.946 264.252 237.215 250.331Z" fill="#FCDD04"/>
<path d="M362.99 251.015C322.752 263.578 280.946 264.252 237.215 250.331" stroke="black"/>
<path fill-rule="evenodd" clip-rule="evenodd" d="M318.233 200.579C318.233 210.706 309.893 218.916 299.606 218.916C289.318 218.916 280.979 210.706 280.979 200.579C280.979 190.453 289.318 182.243 299.606 182.243C309.893 182.243 318.233 190.453 318.233 200.579Z" fill="#FCDD04" stroke="black"/>
<path d="M297.453 190.987L294.848 176.88L304.806 177.173L301.795 190.753" fill="#FCDD04"/>
<path d="M297.453 190.987L294.848 176.88L304.806 177.173L301.795 190.753" stroke="black"/>
<path d="M289.52 198.714L275.973 195.611L276.088 206.265L289.752 202.928" fill="#FCDD04"/>
<path d="M289.52 198.714L275.973 195.611L276.088 206.265L289.752 202.928" stroke="black"/>
<path d="M310.421 198.772L323.448 195.67L323.216 206.733L310.189 203.162" fill="#FCDD04"/>
<path d="M310.421 198.772L323.448 195.67L323.216 206.733L310.189 203.162" stroke="black"/>
<path d="M297.915 210.304L294.73 224.528L304.283 224.645L302.025 210.479" fill="#FCDD04"/>
<path d="M297.915 210.304L294.73 224.528L304.283 224.645L302.025 210.479" stroke="black"/>
<path fill-rule="evenodd" clip-rule="evenodd" d="M310.784 200.587C310.784 206.096 305.982 210.562 300.058 210.562C294.134 210.562 289.332 206.096 289.332 200.587C289.332 195.078 294.134 190.612 300.058 190.612C305.982 190.612 310.784 195.078 310.784 200.587Z" fill="#FCDD04" stroke="black" stroke-linecap="round"/>
<path d="M239.787 123.379L248.124 157.915L251.019 162.246L267.114 157.797L266.419 148.9L277.072 146.559L277.42 151.476L279.967 155.924L290.041 154.988L290.967 150.656V145.505L308.568 145.388L307.989 150.422L309.842 154.168L319.684 155.69L322.116 152.061L322.926 146.207L334.737 149.134L332.074 156.744L349.211 162.012L360.236 123.965L346.563 120.82L338.211 122.558L337.72 126.863L326.257 125.041L326.748 116.846L311.191 115.522V123.551H289.33L289.084 115.935L273.61 117.094L274.101 125.373L261.382 127.301L260.861 123.145L253.393 120.393L239.787 123.379Z" fill="#FCDD04" stroke="black"/>
<path d="M253.393 120.335L254.724 128.881L261.382 127.242" fill="#FCDD04"/>
<path d="M253.393 120.335L254.724 128.881L261.382 127.242" stroke="black"/>
<path d="M337.748 126.774L344.667 128.091L346.664 120.745" fill="#FCDD04"/>
<path d="M337.748 126.774L344.667 128.091L346.664 120.745" stroke="black"/>
<path d="M248.125 158.032L260.167 154.461L259.067 144.276L276.668 140.061L277.015 146.734" stroke="black"/>
<path d="M259.066 144.276L266.477 149.076" stroke="black"/>
<path d="M260.168 154.227L267.173 157.797" stroke="black"/>
<path d="M277.246 151.476L290.968 150.656" stroke="black"/>
<path d="M290.928 145.571L291.009 139.735L308.736 139.652L308.531 145.406" stroke="black"/>
<path d="M307.836 150.207L321.919 152.194" stroke="black"/>
<path d="M323.064 146.316L323.801 140.522L340.996 143.998L338.294 153.932L350.575 157.657" stroke="black"/>
<path d="M331.988 156.581L338.211 153.849" stroke="black"/>
<path d="M334.527 148.965L340.832 143.998" stroke="black"/>
</g>
<defs>
<clipPath id="clip0_1_9957">
<rect width="600" height="400" fill="white"/>
</clipPath>
</defs>
</svg>
