<svg width="600" height="400" viewBox="0 0 600 400" fill="none" xmlns="http://www.w3.org/2000/svg" xmlns:cgf="https://coding.garden/flags"><metadata id="cgf-metadata">

<cgf:flag>
  <cgf:name>Noord-Beveland</cgf:name>
  <cgf:route>nl/ze/noord_beveland</cgf:route>
  <cgf:aspect-ratio>1.5</cgf:aspect-ratio>
</cgf:flag>

</metadata><path d="M599.743 0.284306H0.255859V399.707H599.743V0.284306Z" fill="white" stroke="#F3F3F3" stroke-opacity="0.226415" stroke-width="0.2"/>
<path d="M99.8317 0.284306H0.255859V399.707H99.8317V0.284306Z" fill="#D20000" stroke="#F3F3F3" stroke-opacity="0.226415" stroke-width="0.2"/>
<path d="M351.703 352.234C350.869 349.564 348.754 347.419 345.797 346.244C344.364 345.674 342.915 345.364 340.693 345.153C333.754 344.492 328.028 343.2 321.427 340.804C312.579 337.592 303.853 332.617 296.32 326.489C292.903 323.71 288.423 319.433 285.722 316.373C273.585 302.62 266.777 286.882 265.899 270.548C265.872 270.056 264.923 239.554 263.79 202.764C262.657 165.974 261.706 135.316 261.676 134.635L261.623 133.397H351.888H442.152L442.099 134.635C442.069 135.316 441.118 165.974 439.985 202.764C438.852 239.554 437.885 270.33 437.835 271.156C436.875 287.181 429.99 302.884 417.975 316.454C416.266 318.385 412.353 322.272 410.376 324.005C402.76 330.678 394.623 335.788 385.755 339.469C378.392 342.525 371.454 344.296 363.807 345.069C362.694 345.181 361.456 345.329 361.054 345.398C356.402 346.192 353.17 348.661 352.056 352.274L351.886 352.823L351.702 352.234H351.703Z" fill="url(#paint0_linear_1_10018)"/>
<path d="M319.504 267.536C317.978 267.382 317.429 267.307 316.58 267.136C313.091 266.438 309.78 264.921 306.241 262.397C301.69 259.152 299.045 257.681 295.695 256.532C291.956 255.249 288.104 255.154 284.9 256.265C282.111 257.232 279.77 258.954 277.402 261.779C276.071 263.368 274.623 264.526 272.794 265.463C270.882 266.443 268.524 267.113 266.558 267.235L265.773 267.284L265.731 267.008C265.707 266.856 265.614 264.066 265.521 260.806C265.428 257.547 265.329 254.329 265.302 253.655L265.251 252.429L265.973 252.375C268.107 252.214 270.718 251.353 273.226 249.984C275.22 248.895 277.929 247.075 279.228 245.952C282.141 243.432 285.45 241.799 288.881 241.189C290.219 240.951 292.717 240.896 294.073 241.074C298.541 241.662 302.9 243.696 307.296 247.246C308.924 248.561 311.088 249.9 312.917 250.725C318.864 253.406 325.068 253.385 331.145 250.664C333.051 249.811 334.957 248.612 337.067 246.937C341.131 243.712 344.261 242.266 348.546 241.636C350.007 241.421 352.917 241.442 354.583 241.681C357.469 242.094 360.108 242.848 363.147 244.128C365.084 244.944 367.656 246.286 369.157 247.264C373.159 249.871 376.394 251.266 379.899 251.895C380.912 252.077 381.317 252.107 382.819 252.113C384.673 252.121 385.418 252.046 386.868 251.707C388.39 251.351 390.238 250.68 391.702 249.951C393.399 249.107 395.949 247.445 397.726 246.024C400.178 244.064 403.118 242.557 405.615 241.98C410.018 240.962 414.314 241.502 419.973 243.783C422.543 244.819 425.344 246.259 430.46 249.173C434.058 251.222 435.402 251.815 437.431 252.247C437.89 252.345 438.312 252.437 438.368 252.453C438.445 252.474 438.459 252.723 438.424 253.518C438.4 254.089 438.29 257.456 438.181 261.001C438.073 264.546 437.971 267.46 437.955 267.476C437.919 267.513 436.606 267.243 435.477 266.968C434.423 266.711 432.356 266.034 431.046 265.517C429.59 264.943 426.58 263.432 424.475 262.221C418.004 258.494 412.851 256.877 408.016 257.056C405.272 257.157 402.864 257.8 400.375 259.096C398.852 259.889 397.724 260.671 395.921 262.184C393.768 263.991 392.441 264.879 390.58 265.757C385.361 268.22 379.835 268.044 373.479 265.211C371.797 264.461 370.328 263.66 367.934 262.183C365.152 260.468 363.48 259.595 361.363 258.753C356.781 256.93 352.219 256.419 347.897 257.245C345.953 257.616 344.011 258.218 342.097 259.042C340.265 259.831 338.654 260.72 335.932 262.444C332.583 264.565 330.365 265.638 327.516 266.516C326.397 266.861 324.464 267.282 323.358 267.42C322.619 267.513 320.04 267.591 319.505 267.536L319.504 267.536ZM320.072 238.956C317.665 238.85 315.217 238.305 312.771 237.331C310.277 236.338 308.44 235.263 305.105 232.843C301.185 229.998 297.1 228.039 293.523 227.288C292.014 226.971 291.04 226.889 289.373 226.938C288.193 226.973 287.654 227.027 286.884 227.19C284.002 227.8 281.519 229.183 279.223 231.458C278.704 231.973 278.018 232.711 277.699 233.099C276.234 234.88 274.657 236.104 272.535 237.106C270.417 238.107 267.979 238.68 265.829 238.684H264.882L264.837 238.176C264.813 237.897 264.718 235.039 264.628 231.824C264.537 228.61 264.441 225.592 264.414 225.119L264.366 224.258L265.205 224.202C267.527 224.046 269.417 223.521 271.829 222.363C274.135 221.255 277.281 219.227 279.065 217.697C282.133 215.065 285.498 213.461 289.124 212.902C290.407 212.704 292.866 212.705 294.194 212.902C296.403 213.232 298.571 213.915 300.765 214.974C302.892 216 304.62 217.127 307.64 219.459C310.89 221.969 314.749 223.678 318.53 224.283C319.612 224.457 322.677 224.525 323.864 224.403C326.054 224.177 328.735 223.443 330.82 222.499C332.905 221.555 334.645 220.461 336.928 218.66C340.587 215.773 343.42 214.37 347.044 213.649C348.642 213.331 349.791 213.247 351.789 213.3C353.679 213.35 355.037 213.511 356.698 213.881C360.718 214.778 365.512 216.808 368.988 219.086C374.057 222.409 378.357 223.924 382.703 223.919C384.777 223.914 386.321 223.674 388.276 223.045C391.228 222.094 394.51 220.229 397.55 217.773C399.505 216.194 401.847 214.894 404.032 214.175C406.174 213.471 407.971 213.221 410.319 213.302C412.761 213.386 414.953 213.828 417.676 214.786C421.082 215.983 424.189 217.508 430.072 220.867C433.109 222.601 434.111 223.098 435.532 223.573C436.384 223.858 437.848 224.192 438.975 224.359L439.279 224.404V225.139C439.279 226.273 438.87 238.958 438.832 238.996C438.76 239.068 435.844 238.43 434.615 238.074C431.499 237.171 428.758 235.947 424.896 233.735C422.157 232.166 420.361 231.275 418.188 230.408C410.502 227.341 403.942 227.87 398.121 232.026C397.758 232.285 396.871 232.99 396.149 233.593C394.01 235.381 392.817 236.18 390.924 237.094C386.848 239.062 382.758 239.398 377.992 238.157C374.992 237.376 372.179 236.073 368.258 233.649C366.126 232.332 365.454 231.952 363.958 231.218C360.719 229.629 357.639 228.703 354.508 228.376C353.48 228.269 350.882 228.271 349.901 228.381C348.819 228.502 347.181 228.817 346.111 229.111C342.874 230.001 340.118 231.328 335.8 234.078C330.81 237.255 326.329 238.797 321.653 238.948C321.096 238.964 320.384 238.969 320.072 238.956L320.072 238.956ZM438.022 210.713C433.879 210.006 429.638 208.387 425.165 205.806C422.959 204.533 421.398 203.703 420.04 203.08C412.484 199.615 406.248 199.317 400.652 202.153C398.948 203.017 397.932 203.711 395.964 205.354C394.062 206.941 393.179 207.565 391.589 208.445C385.092 212.039 377.65 211.276 369.211 206.152C368.508 205.725 367.368 205.032 366.676 204.612C365.283 203.766 362.789 202.505 361.5 201.996C354.874 199.379 348.918 199.408 342.468 202.091C340.374 202.961 338.345 204.081 335.371 206.006C331.216 208.696 326.797 210.313 322.587 210.683C319.902 210.919 316.868 210.573 314.231 209.73C311.124 208.736 308.966 207.558 304.821 204.594C300.237 201.315 295.935 199.398 291.842 198.811C290.641 198.639 288.211 198.682 287.068 198.895C283.435 199.573 280.321 201.505 277.573 204.785C276.057 206.595 274.702 207.685 272.738 208.675C270.776 209.663 268.715 210.252 266.546 210.444C265.547 210.532 264.114 210.518 264.015 210.42C263.969 210.374 261.627 135.574 261.625 134.108V133.398H351.872H442.12V133.723C442.12 133.902 441.59 151.135 440.943 172.019C440.297 192.902 439.767 210.199 439.767 210.456L439.767 210.923L439.463 210.915C439.296 210.909 438.648 210.819 438.023 210.713L438.022 210.713Z" fill="#1A1A1A"/>
<path d="M351.491 351.708C350.725 349.553 348.864 347.618 346.444 346.464C344.928 345.74 343.53 345.397 340.79 345.078C337.344 344.675 336.277 344.533 334.684 344.262C330.842 343.608 327.505 342.766 323.613 341.467C312.336 337.702 301.373 331.242 292.623 323.205C289.244 320.102 286.76 317.557 284.496 314.88C273.407 301.772 267.123 287.174 265.974 271.856C265.855 270.273 265.327 253.597 262.652 167.014C262.096 148.999 261.628 134.05 261.612 133.795C261.588 133.386 261.599 133.343 261.709 133.43C261.778 133.484 262.497 134.121 263.307 134.845L264.781 136.162L264.833 137.402C264.883 138.566 265.893 171.159 267.957 238.167C268.445 254.017 268.903 267.862 268.975 268.933C269.946 283.39 275.556 297.344 285.438 309.888C289.611 315.184 295.19 320.725 300.653 324.997C311.712 333.646 324.864 339.628 337.645 341.823C339.19 342.089 340.826 342.308 343.161 342.563C345.34 342.801 346.782 343.06 347.923 343.42C348.922 343.734 350.496 344.509 351.212 345.038L351.76 345.443V348.894C351.76 350.791 351.749 352.344 351.736 352.344C351.722 352.344 351.612 352.058 351.488 351.708H351.491Z" fill="white" fill-opacity="0.113208"/>
<path d="M352.23 351.706C352.995 349.551 354.856 347.616 357.276 346.462C358.793 345.738 360.191 345.395 362.931 345.075C366.377 344.673 367.444 344.531 369.037 344.26C372.879 343.606 376.215 342.764 380.107 341.465C391.385 337.7 402.347 331.24 411.098 323.203C414.477 320.099 416.961 317.555 419.225 314.878C430.313 301.77 436.597 287.172 437.747 271.854C437.865 270.271 438.394 253.595 441.068 167.012C441.625 148.997 442.093 134.048 442.108 133.793C442.133 133.384 442.122 133.34 442.012 133.427C441.943 133.482 441.223 134.119 440.413 134.843L438.94 136.16L438.887 137.4C438.837 138.564 437.827 171.157 435.764 238.165C435.276 254.015 434.817 267.86 434.746 268.931C433.775 283.387 428.165 297.342 418.282 309.886C414.109 315.182 408.53 320.722 403.067 324.995C392.008 333.644 378.857 339.626 366.076 341.821C364.531 342.086 362.895 342.306 360.56 342.56C358.38 342.798 356.939 343.058 355.797 343.417C354.799 343.732 353.225 344.507 352.508 345.036L351.961 345.441V348.891C351.961 350.789 351.972 352.342 351.985 352.342C351.998 352.342 352.108 352.056 352.233 351.706H352.23Z" fill="black" fill-opacity="0.132075"/>
<path d="M438.942 136.143L442.075 133.381H261.582L264.807 136.143H438.942Z" fill="white" fill-opacity="0.264151" stroke="black" stroke-width="0.0303138"/>
<path d="M318.594 184.505L310.303 198.527L302.031 184.509L285.581 184.448L293.758 170.361L285.599 156.278L302.05 156.21L310.341 142.187L318.613 156.206L335.063 156.267L326.885 170.354L335.044 184.437L318.594 184.505Z" fill="black"/>
<path d="M301.242 184.307L309.533 198.329L317.805 184.311L334.255 184.25L326.078 170.163L334.237 156.08L317.786 156.012L309.495 141.989L301.223 156.008L284.773 156.069L292.951 170.156L284.792 184.239L301.242 184.307Z" fill="#E5CA52"/>
<path d="M305.427 191.469C303.225 187.739 301.417 184.67 301.409 184.649C301.382 184.581 302.322 184.63 302.389 184.699C302.42 184.732 304.131 187.616 306.19 191.107L309.934 197.455L309.705 197.851C309.579 198.07 309.466 198.249 309.453 198.25C309.44 198.25 307.628 195.199 305.427 191.469L305.427 191.469ZM284.827 184.045C284.883 183.95 286.725 180.779 288.92 176.998C292.787 170.336 292.909 170.122 292.851 170.024C292.425 169.3 284.798 156.118 284.784 156.082C284.767 156.042 285.534 156.03 288.521 156.026C290.588 156.02 294.286 156.01 296.74 155.996L301.201 155.971L305.325 148.996C307.593 145.16 309.464 142.017 309.483 142.011C309.504 142.006 309.667 142.261 309.852 142.579L310.187 143.156L306.294 149.744C304.153 153.368 302.4 156.336 302.398 156.34C302.398 156.345 298.701 156.358 294.187 156.376C286.623 156.403 285.982 156.41 285.998 156.47C286.006 156.506 287.831 159.671 290.051 163.503C292.819 168.281 294.078 170.491 294.06 170.538C294.044 170.575 292.257 173.669 290.084 177.412L286.134 184.218H285.429H284.725L284.827 184.045L284.827 184.045ZM323.325 156.362L318.966 156.352L318.864 156.192C318.808 156.105 318.763 156.021 318.763 156.006C318.763 155.982 334.144 156.022 334.169 156.048C334.177 156.054 334.139 156.134 334.089 156.226L333.998 156.392L330.841 156.381C329.105 156.376 325.723 156.365 323.326 156.363L323.325 156.362Z" fill="white" fill-opacity="0.636792"/>
<path d="M309.12 197.614C308.764 197.012 308.718 196.913 308.758 196.839C308.782 196.793 310.534 193.829 312.648 190.254L316.492 183.754L318.212 183.748C323.729 183.735 332.861 183.683 332.883 183.661C332.9 183.648 331.085 180.485 328.854 176.635C326.328 172.274 324.806 169.61 324.819 169.567C324.83 169.529 326.595 166.476 328.74 162.782L332.641 156.066L333.438 156.056C333.986 156.047 334.236 156.061 334.236 156.088C334.236 156.121 329.404 164.471 326.359 169.701L326.101 170.145L330.171 177.172C332.41 181.038 334.236 184.205 334.229 184.212C334.221 184.22 330.526 184.239 326.016 184.254L317.816 184.283L313.938 190.843C311.805 194.451 309.94 197.606 309.793 197.853L309.527 198.302L309.12 197.612L309.12 197.614ZM287.835 184.235L284.832 184.216L284.974 183.965L285.117 183.715L287.35 183.715C288.579 183.715 291.915 183.728 294.763 183.742L299.943 183.768L300.092 184.022L300.24 184.276L295.539 184.266C292.954 184.26 289.487 184.247 287.835 184.236L287.835 184.235ZM316.775 155.456L316.492 155.442L312.779 149.146L309.067 142.849L309.267 142.503C309.377 142.312 309.492 142.124 309.521 142.084C309.569 142.02 310.002 142.736 313.519 148.695C315.688 152.37 317.469 155.403 317.476 155.433C317.492 155.49 317.44 155.492 316.775 155.457V155.456Z" fill="black" fill-opacity="0.179245"/>
<path d="M400.491 184.94L392.199 198.962L383.927 184.944L367.477 184.883L375.655 170.796L367.496 156.713L383.946 156.645L392.237 142.623L400.509 156.641L416.959 156.702L408.782 170.789L416.941 184.872L400.491 184.94Z" fill="black"/>
<path d="M383.138 184.742L391.429 198.764L399.702 184.746L416.152 184.685L407.974 170.598L416.133 156.515L399.683 156.446L391.392 142.424L383.119 156.443L366.669 156.504L374.847 170.59L366.688 184.674L383.138 184.742Z" fill="#E5CA52"/>
<path d="M387.323 191.904C385.122 188.174 383.313 185.105 383.305 185.084C383.278 185.016 384.219 185.065 384.285 185.134C384.317 185.167 386.027 188.051 388.086 191.542L391.83 197.89L391.602 198.287C391.476 198.505 391.362 198.684 391.349 198.685C391.336 198.685 389.525 195.634 387.323 191.904L387.323 191.904ZM366.723 184.48C366.78 184.385 368.621 181.214 370.816 177.434C374.684 170.771 374.805 170.557 374.748 170.459C374.322 169.735 366.694 156.553 366.68 156.517C366.664 156.477 367.431 156.465 370.418 156.461C372.485 156.455 376.183 156.445 378.636 156.431L383.098 156.407L387.221 149.431C389.489 145.595 391.36 142.452 391.379 142.446C391.4 142.441 391.564 142.697 391.748 143.014L392.084 143.591L388.191 150.179C386.05 153.803 384.296 156.771 384.294 156.775C384.294 156.78 380.598 156.793 376.084 156.811C368.52 156.838 367.878 156.845 367.894 156.905C367.902 156.941 369.728 160.106 371.947 163.937C374.715 168.715 375.975 170.925 375.957 170.972C375.941 171.01 374.153 174.103 371.98 177.847L368.03 184.653H367.326H366.621L366.723 184.48L366.723 184.48ZM405.222 156.797L400.862 156.787L400.761 156.627C400.705 156.54 400.659 156.456 400.659 156.441C400.659 156.417 416.041 156.457 416.066 156.483C416.074 156.488 416.035 156.568 415.985 156.66L415.894 156.826L412.738 156.816C411.002 156.81 407.62 156.802 405.222 156.797L405.222 156.797Z" fill="white" fill-opacity="0.636792"/>
<path d="M391.016 198.049C390.66 197.447 390.614 197.348 390.655 197.274C390.679 197.228 392.43 194.264 394.545 190.689L398.389 184.189L400.108 184.183C405.626 184.17 414.758 184.118 414.78 184.096C414.796 184.083 412.981 180.92 410.751 177.07C408.224 172.709 406.703 170.045 406.716 170.002C406.726 169.964 408.491 166.911 410.637 163.217L414.538 156.501L415.335 156.488C415.882 156.48 416.132 156.493 416.132 156.52C416.132 156.553 411.301 164.903 408.255 170.134L407.997 170.577L412.068 177.605C414.307 181.47 416.133 184.638 416.125 184.645C416.117 184.653 412.422 184.671 407.912 184.686L399.713 184.715L395.834 191.276C393.701 194.884 391.836 198.038 391.69 198.285L391.424 198.734L391.016 198.044L391.016 198.049ZM369.732 184.67L366.729 184.651L366.871 184.4L367.014 184.15H369.247C370.475 184.15 373.811 184.163 376.66 184.177L381.84 184.203L381.988 184.457L382.136 184.711L377.436 184.701C374.85 184.695 371.383 184.682 369.732 184.671L369.732 184.67ZM398.672 155.891L398.389 155.878L394.676 149.581L390.963 143.284L391.164 142.938C391.274 142.747 391.388 142.559 391.418 142.519C391.466 142.455 391.899 143.171 395.416 149.13C397.585 152.805 399.366 155.838 399.373 155.868C399.389 155.925 399.337 155.927 398.672 155.892L398.672 155.891Z" fill="black" fill-opacity="0.179245"/>
<path d="M415.493 133.124C416.678 132.64 416.417 131.503 414.746 129.877C413.367 128.536 413.25 128.293 413.25 126.747C413.25 123.766 413.886 121.249 415.65 117.237L416.631 115.004L418.608 114.822C419.696 114.722 420.804 114.456 421.071 114.231C421.818 113.601 421.65 111.836 420.708 110.429L419.858 109.16L421.345 106.889C423.471 103.641 426.613 97.4434 428.213 93.3413C429.197 90.8183 430.005 89.3459 431.055 88.1596C432.474 86.5567 432.657 86.0659 432.537 84.169C432.506 83.6805 432.923 82.5419 433.464 81.6386C435.186 78.7618 436.365 75.275 437.003 71.1768C437.136 70.3245 437.548 69.4694 438.06 68.9838C440.089 67.0613 440.718 64.0534 439.512 62.0442C438.327 60.0706 434.978 58.913 432.452 59.6037C430.922 60.0221 428.983 61.8207 428.808 62.9854C428.713 63.6129 428.455 63.6953 426.431 63.7455C424.318 63.798 424.093 63.8782 423.191 64.9037C422.336 65.8757 422.223 66.2534 422.233 68.1089C422.24 69.4287 422.726 72.0962 423.538 75.2696C424.249 78.0512 424.786 80.373 424.731 80.4291C424.675 80.4853 424.337 80.0314 423.979 79.4204C422.738 77.3005 419.213 73.0708 417.858 72.0737C415.538 70.3678 413.391 70.3355 411.019 71.9708C410.103 72.6018 409.292 72.8492 408.033 72.881C405.97 72.9332 404.903 73.6247 403.388 75.8911C400.755 79.8313 401.283 85.1931 404.628 88.4881C405.654 89.4987 405.94 90.0333 405.94 90.9393C405.94 92.5866 407.07 94.7424 408.342 95.5235C409.914 96.4888 413.287 96.3555 416.868 95.1865C419.801 94.2289 419.706 94.2143 420.575 95.7544C421.005 96.5149 419.315 97.7004 415.882 99.047C404.703 103.432 394.046 98.679 391.123 88.0047L390.545 85.8939L391.547 84.6321C392.744 83.1238 393.769 82.5385 395.225 82.5318C396.461 82.5261 396.476 82.4927 395.813 81.1903C394.59 78.7898 392.498 78.2364 390.04 79.6631C388.259 80.6973 388.192 80.6976 387.733 79.6753C386.924 77.871 383.498 77.1494 380.267 78.1022L378.682 78.5692L380.328 80.3358C381.531 81.6278 382.12 82.6135 382.518 84.0055C383.045 85.8446 383.04 85.9463 382.38 87.0303C381.275 88.8456 378.167 91.6118 376.286 92.4539C368.184 96.0809 359.093 92.9901 355.388 85.3492C354.492 83.5003 354.276 82.6518 354.274 80.9667L354.272 78.8771L355.269 79.3167C355.817 79.5584 357.163 80.1698 358.259 80.6753C359.436 81.2179 361.102 81.666 362.326 81.7692C364.358 81.9404 364.421 81.9202 365.483 80.7618C366.174 80.0077 367.003 79.4995 367.774 79.3583C370.408 78.8755 373.331 75.9751 374.209 72.971C374.809 70.9213 374.819 70.4621 374.316 68.4217C374.02 67.223 373.487 66.4042 372.125 65.0509C370.981 63.9149 370.203 62.8082 369.991 62.0144C368.827 57.6585 365.513 56.9932 359.505 59.9096C357.997 60.6416 356.764 61.1555 356.764 61.0516C356.764 60.9478 357.11 60.4456 357.532 59.9356C358.831 58.3684 361.011 53.7687 361.258 52.0731C361.663 49.299 360.283 47.4376 357.768 47.365C356.857 47.3387 356.835 47.2914 356.847 45.4484C356.863 42.9726 355.996 41.1687 354.16 39.8613C352.892 38.958 352.395 38.8218 350.007 38.7218C344.135 38.4762 340.15 41.6479 340.15 46.5664V48.3109L338.738 48.6982C336.583 49.2893 336.08 49.8038 336.102 51.3949C336.122 52.9074 337.302 55.4872 339.454 58.7258C340.189 59.8307 340.734 60.7908 340.667 60.8593C340.599 60.9278 340.057 60.7283 339.462 60.4158C337.356 59.3098 334.706 58.5724 332.837 58.5724C330.357 58.5724 328.979 59.4811 327.829 61.8763C327.326 62.9242 326.498 63.9887 325.826 64.4526C324.428 65.4171 323.01 67.9792 322.702 70.0953C322.406 72.1319 323.182 74.8665 324.521 76.5078C325.713 77.9676 328.542 79.4903 330.062 79.4903C330.902 79.4903 331.268 79.7086 331.715 80.4761C333.025 82.7287 335.346 82.897 339.499 81.0407C341.045 80.3499 342.482 79.708 342.692 79.6143C343.479 79.2634 343.55 81.9552 342.806 83.9732C339.691 92.4276 329.875 96.3104 321.325 92.4706C319.415 91.6131 316.309 88.8549 315.199 87.0303C314.539 85.9462 314.534 85.8446 315.061 84.0054C315.459 82.6135 316.047 81.6278 317.251 80.3358L318.896 78.5692L317.312 78.1021C314.151 77.1702 310.768 77.8421 309.878 79.5782C309.665 79.9938 309.458 80.3753 309.417 80.4261C309.377 80.4768 308.687 80.137 307.884 79.671C305.852 78.4914 303.928 78.5178 302.62 79.7434C302.076 80.2537 301.534 81.0887 301.416 81.599C301.215 82.4695 301.271 82.5271 302.318 82.5318C303.809 82.5384 304.827 83.1139 306.032 84.6321L307.034 85.8939L306.456 88.0048C304.047 96.8011 296.27 101.805 287.1 100.458C283.959 99.9973 279.892 98.553 277.948 97.2083L276.718 96.3575L277.283 95.3459C277.654 94.683 278.021 94.4035 278.347 94.5351C279.841 95.1373 285.269 96.3596 286.448 96.3591C289.302 96.358 291 94.7174 291.628 91.3523C291.872 90.0468 292.261 89.2946 293.168 88.3738C296.44 85.0509 296.786 79.4506 293.963 75.4934C292.565 73.5339 291.159 72.7165 289.312 72.7891C288.18 72.8336 287.506 72.6325 286.538 71.9607C284.085 70.2603 281.643 70.4204 279.238 72.4392C278.137 73.3643 274.269 78.1851 273.143 80.0364C272.674 80.8091 272.819 80.1005 274.306 74.3622C275.7 68.9872 275.873 67.4332 275.25 65.9193C274.571 64.2675 273.165 63.5623 270.777 63.6747C268.957 63.7603 268.903 63.7372 268.653 62.7574C268.187 60.9302 265.7 59.2472 263.467 59.2472C261.84 59.2472 259.901 60.096 258.668 61.3477C257.533 62.5005 257.414 62.7905 257.414 64.4106C257.414 65.8191 257.626 66.5398 258.41 67.7947C258.958 68.6717 259.619 69.4724 259.88 69.5741C260.141 69.6758 260.454 70.3924 260.574 71.1665C261.213 75.2732 262.391 78.7592 264.111 81.632C264.656 82.5423 265.06 83.6643 265.023 84.1624C264.886 85.9935 265.091 86.5411 266.511 88.145C267.552 89.3205 268.409 90.8897 269.524 93.664C271.206 97.8445 273.107 101.574 275.917 106.205L277.694 109.133L276.858 110.385C275.926 111.779 275.76 113.601 276.507 114.231C276.775 114.456 277.883 114.722 278.97 114.822L280.947 115.004L281.929 117.237C283.693 121.249 284.328 123.766 284.328 126.747C284.328 128.293 284.212 128.536 282.833 129.877C281.107 131.557 280.893 132.642 282.19 133.143C283.58 133.68 284.44 133.541 288.538 132.117C302.37 127.312 316.624 125.208 338.489 124.746C371.484 124.048 392.037 126.193 409.025 132.109C412.997 133.492 414.149 133.673 415.493 133.124H415.493ZM306.848 61.6075C308.725 60.4454 308.96 58.1744 307.336 56.8779C304.898 54.9301 301.129 57.4607 302.278 60.2752C302.705 61.3239 304.086 62.2847 305.162 62.2824C305.491 62.2816 306.25 61.978 306.848 61.6075ZM393.86 60.8091C395.891 59.0357 394.452 55.72 391.653 55.72C390.652 55.72 390.102 55.9449 389.426 56.6309C387.468 58.6195 388.805 61.6089 391.653 61.6089C392.533 61.6089 393.237 61.354 393.86 60.8091Z" fill="#E5CA52"/>
<path d="M283.457 133.374H412.272C386.563 117.902 288.917 122.031 283.457 133.374V133.374Z" fill="#A70000"/>
<g opacity="0.336981" filter="url(#filter0_f_1_10018)">
<path d="M330.984 123.656C300.789 132.391 322.385 132.015 362.402 133.374C256.737 137.051 272.371 129.825 330.984 123.656Z" fill="url(#paint1_linear_1_10018)"/>
</g>
<g filter="url(#filter1_f_1_10018)">
<path d="M359.887 124.247C399.634 125.512 443.068 137.239 373.666 133.374C393.883 132.766 394.395 128.431 359.887 124.247Z" fill="black" fill-opacity="0.259575"/>
</g>
<path d="M288.071 73.0535C291.579 76.1853 289.57 77.4943 289.583 78.6511C287.691 81.0102 289.223 83.1747 290.508 83.4132C292.951 86.091 291.839 89.6621 291.348 92.2691C291.153 89.6231 292.021 86.6249 290.004 84.5829C288.449 84.1945 286.332 80.4223 288.827 78.1498C289.788 76.3649 289.126 74.3649 286.727 72.1345L288.071 73.0535Z" fill="black" fill-opacity="0.219731"/>
<path d="M288.281 72.8028C296.859 74.4342 295.352 85.4431 292.189 89.4285C295.837 85.8682 296.694 81.1084 294.638 76.9329C293.791 75.2111 292.62 73.758 290.888 73.0237C290.147 72.709 289.243 72.7226 288.281 72.8028V72.8028Z" fill="#826700" fill-opacity="0.421525"/>
<path d="M281.433 73.137C288.671 74.734 284.218 78.5739 278.912 82.5777C280.728 79.8365 287.085 76.331 281.433 73.137Z" fill="black" fill-opacity="0.207547"/>
<path d="M279.164 85.4183C287.333 84.4478 289.67 90.606 284.29 93.4388C287.485 91.382 287.621 85.6252 279.164 85.4183Z" fill="black" fill-opacity="0.207547"/>
<path d="M291.406 76.3291L291.49 77.9165L291.069 78.9608L290.775 79.7545L291.027 80.6317C291.027 80.6317 291.196 81.0912 291.322 81.2583C291.448 81.4254 291.868 81.7596 291.868 81.7596L292.498 82.2191L292.666 83.0546L292.708 84.6419L293.38 82.3862L293.338 80.5482L293.086 78.7519C293.086 78.7519 292.456 77.624 292.372 77.3734C292.288 77.1228 291.406 76.2873 291.406 76.3291V76.3291Z" fill="white" fill-opacity="0.425532"/>
<path d="M271.77 68.4584C267.461 67.2546 265.948 70.8684 264.964 75.3928C264.729 71.0898 266.726 65.2139 271.77 68.4584Z" fill="black" fill-opacity="0.207547"/>
<path d="M275.299 90.5146C276.537 92.1733 278.393 98.7554 271.686 93.8565C276.438 99.9838 279.912 94.4452 275.299 90.5146V90.5146Z" fill="#876B06" fill-opacity="0.399103"/>
<path d="M268.66 63.1115C265.316 61.4674 263.935 62.6883 264.375 66.7875C264.403 70.8067 261.562 70.2863 260.594 69.8787C262.361 69.812 263.391 68.8299 263.367 66.5369C263.2 60.5355 266.582 60.9287 268.66 63.1115V63.1115Z" fill="#9F7D0B" fill-opacity="0.457399"/>
<path d="M260.426 70.5471C261.472 74.8915 262.914 79.2359 265.299 83.5803V83.7474C261.857 79.2507 260.755 74.8188 260.426 70.5471Z" fill="#FFE377"/>
<path d="M282.861 82.6613L268.492 82.5778L269.585 83.4132L278.828 83.4968L282.861 82.6613Z" fill="white" fill-opacity="0.468085"/>
<path d="M268.24 89.4285L270.425 89.0944L283.029 82.5778L279.164 83.5803L270.677 88.1754L268.24 89.4285V89.4285Z" fill="#816606" fill-opacity="0.336323"/>
<path d="M260.426 69.8787L268.576 82.6613C267.006 77.9446 264.237 73.7044 260.426 69.8787Z" fill="#90720A" fill-opacity="0.439462"/>
<path d="M259.921 69.9623C255.239 61.0625 267.173 57.5272 269.08 63.8634C266.582 54.3993 250.593 61.084 259.921 69.9623Z" fill="white" fill-opacity="0.446809"/>
<path d="M268.828 63.6963C278.725 64.0281 272.02 75.0213 272.357 81.4916C272.849 74.4093 280.862 62.141 268.828 63.6963Z" fill="black" fill-opacity="0.206278"/>
<path d="M267.736 89.4285L277.484 109.396C273.031 102.523 269.725 95.8565 267.736 89.4285Z" fill="#FFE377"/>
<path d="M272.105 81.0739C276.734 75.3393 280.726 66.4982 287.903 73.2206C281.403 68.7821 276.885 75.6769 272.105 81.0739Z" fill="#FFE272"/>
<path d="M277.482 94.2742C283.37 95.2895 290.195 98.3902 291.599 89.4285C291.357 99.3272 284.252 96.4892 277.482 94.2742Z" fill="#A38100" fill-opacity="0.390135"/>
<path d="M272.441 97.7832C283.271 106.113 300.781 108.994 311.178 91.8514C323.044 101.193 338.085 102.112 348.632 86.7551C339.233 104.288 324.307 101.806 311.766 94.1907C299.156 109.471 283.833 108.768 272.441 97.7832Z" fill="#816606" fill-opacity="0.38565"/>
<path d="M276.391 96.53C284.624 105.716 304.782 104.717 306.977 85.7525C304.299 100.371 289.834 105.119 276.391 96.53Z" fill="white" fill-opacity="0.132075"/>
<path d="M314.287 86.1496C317.135 97.3515 340.016 100.91 343.613 82.1394C338.832 97.4768 320.069 97.1341 314.287 86.1496V86.1496Z" fill="#FBFBFB" fill-opacity="0.207547"/>
<path d="M318.626 78.758C313.109 76.276 307.905 78.1355 309.239 83.2477C311.526 78.3 315.108 78.6579 318.626 78.758Z" fill="black" fill-opacity="0.188679"/>
<path d="M300.98 82.2434C302.988 80.3156 305.564 79.4583 309.18 83.3659C309.083 82.4753 308.697 81.5131 309.18 80.7665C306.479 78.1607 301.925 77.5979 300.98 82.2434Z" fill="white" fill-opacity="0.353774"/>
<path d="M300.92 82.4207C304.868 79.5181 308.205 84.5911 307.812 87.8557C306.293 84.8934 304.76 81.7625 300.92 82.4207Z" fill="white" fill-opacity="0.377359"/>
<path d="M318.643 78.7174C314.215 78.324 313.159 84.4824 313.652 87.2244C315.134 84.4352 313.547 83.1531 318.643 78.7174Z" fill="black" fill-opacity="0.160377"/>
<path d="M348.632 100.144C315.528 100.811 300.681 105.026 276.145 111.014L277.689 109.241C296.628 104.014 323.372 98.9983 348.632 98.8438V100.144V100.144Z" fill="white" fill-opacity="0.479821"/>
<path d="M348.632 102.979C333.214 102.94 303.557 104.782 280.541 114.913L278.699 114.735L279.59 113.79L282.264 112.55L280.719 111.073L283.096 111.309L285.116 111.545C285.116 111.545 288.087 110.246 287.73 110.186C287.374 110.127 286.423 109.714 286.423 109.714L284.225 109.182L287.374 108.65L290.107 109.596L292.959 109.3L293.672 108.532L292.484 107.882L290.939 107.292L292.9 107.587L294.623 108.355L296.999 108.237L299.257 107.351C299.257 107.351 298.663 106.465 298.307 106.347C297.95 106.228 296.524 105.815 296.524 105.815L299.079 105.756L300.624 107.174L302.585 106.996L304.189 106.347C304.189 106.347 304.367 105.697 304.129 105.519C303.892 105.342 301.515 104.87 301.515 104.87H303.476L305.437 105.342L306.268 105.933L310.784 105.342L310.309 104.338L307.516 103.57C307.516 103.57 309.774 103.629 310.309 103.865C310.843 104.102 312.091 104.692 312.091 104.692C312.091 104.692 314.646 104.751 314.884 104.692C315.121 104.633 316.666 104.456 316.666 104.456C316.666 104.456 316.607 103.806 316.369 103.629C316.131 103.452 314.527 102.625 314.527 102.625L316.666 103.156L318.092 104.279L324.272 103.865C324.272 103.865 323.796 102.684 323.559 102.625C323.321 102.566 321.122 101.857 321.122 101.857L319.281 101.679L321.895 101.798L324.212 102.388L325.282 103.688L327.896 103.393L329.976 103.038L329.025 101.857L326.767 101.207L328.906 101.443L330.688 101.975L331.639 103.038C331.639 103.038 336.274 102.861 336.274 102.625C336.274 102.388 336.155 101.679 336.155 101.679L334.848 100.971L333.303 100.557L335.323 100.852L337.165 101.679L338.294 102.625L344.117 102.684L343.404 101.561C343.404 101.561 342.275 100.734 342.037 100.675C341.799 100.616 340.076 100.203 340.076 100.203L342.691 100.38L344.354 101.384L345.483 102.684L348.632 102.507V102.979V102.979Z" fill="black" fill-opacity="0.233184"/>
<path d="M346.553 64.4482C346.109 58.849 346.835 53.366 348.631 47.9896C347.873 53.9357 346.8 59.9339 348.631 65.4508L346.553 64.4482V64.4482Z" fill="#FFE584"/>
<path d="M346.89 64.2811C341.559 65.0694 337.058 67.5089 332.605 70.0458C339.302 67.4849 346.817 64.8067 348.633 65.4508L346.89 64.2811Z" fill="white" fill-opacity="0.515982"/>
<path d="M333.193 70.0458C338.495 70.7206 343.771 71.2426 348.632 69.2939C343.341 69.9771 338.266 70.0157 333.193 70.0458Z" fill="black" fill-opacity="0.182648"/>
<path d="M327.396 63.2786C327.158 65.2695 327.841 66.7042 329.706 68.1451C331.1 69.4813 331.162 71.5007 329.496 73.7218C327.904 75.7409 329.047 78.2492 331.156 79.5492C327.053 78.3802 326.487 75.3256 328.152 72.8028C329.581 71.1656 329.465 69.9292 328.32 68.9597C325.902 67.2014 326.38 65.2572 327.396 63.2786V63.2786Z" fill="black" fill-opacity="0.214612"/>
<path d="M331.008 79.6536C321.307 77.4519 320.209 67.0655 326.975 63.5292C321.525 67.7666 324.405 78.4101 331.008 79.6536Z" fill="white" fill-opacity="0.461187"/>
<path d="M333.865 60.438C331.094 63.0358 330.536 67.1801 342.184 65.033C334.46 65.6894 331.507 64.2371 333.865 60.438Z" fill="black" fill-opacity="0.146119"/>
<path d="M335.498 78.1556C332.727 75.5578 332.169 71.4135 343.817 73.5606C336.093 72.9042 333.14 74.3565 335.498 78.1556Z" fill="black" fill-opacity="0.146119"/>
<path d="M331.092 79.7372C335.433 81.7909 339.775 79.5358 344.116 78.484C338.777 81.3446 333.575 83.8665 331.092 79.7372V79.7372Z" fill="black" fill-opacity="0.127854"/>
<path d="M327.143 63.6963C331.629 57.0231 338.37 61.3138 344.788 64.0305C338.806 59.9622 328.17 52.9755 327.143 63.6963Z" fill="#FFE47D"/>
<path d="M343.024 78.6511C342.304 83.3687 346.264 82.5047 347.31 80.322C345.706 80.869 343.986 82.1516 343.024 78.6511Z" fill="white" fill-opacity="0.382075"/>
<path d="M338.893 50.99C340.198 47.4326 343.807 45.286 346.424 56.774C343.98 49.459 341.472 47.3354 338.893 50.99V50.99Z" fill="black" fill-opacity="0.146119"/>
<path d="M348.632 119.171C338.831 119.468 290.905 119.465 281.18 131.536C300.373 121.343 324.387 120.738 348.632 120.591V119.171Z" fill="white" fill-opacity="0.515982"/>
<path d="M284.876 132.169C306.169 124.369 328.787 123.523 348.631 123.731L346.469 121.391L346.721 122.561L344.536 122.394L343.528 121.475L339.494 119.888L342.015 121.475L342.183 122.31L337.057 122.143L335.545 120.89L331.764 119.888L334.789 121.308L335.545 122.31H330.167L328.403 120.974L324.201 120.138L327.478 121.308L328.235 122.394L324.705 122.812L322.185 121.475L318.067 120.723L321.176 121.893L322.269 122.895L318.151 123.229L315.883 121.726L311.513 121.391L314.706 122.227L316.555 123.564L312.185 124.065L310.337 122.728L306.892 122.143L309.665 123.313L310.001 124.065L306.471 124.9L304.959 123.647L301.598 123.313L303.951 124.232L304.371 125.067L301.598 125.903L300.253 124.733L296.724 124.483L299.245 125.067L299.665 126.07L296.388 127.156L295.128 126.07H291.935L294.204 126.822L294.624 127.657L291.683 128.409L290.002 127.657L286.893 127.992L289.246 128.409L290.17 128.994L286.893 129.997L285.549 129.579L282.02 130.164L285.129 130.08L285.969 130.749L282.608 132.169H284.876V132.169Z" fill="#C9C16E"/>
<path d="M280.844 114.66C306.048 106.874 300.591 121.745 284.289 128.695C288.392 124.779 296.89 117.022 280.844 114.66Z" fill="white" fill-opacity="0.334906"/>
<path d="M305.969 114.409L318.069 119.756L327.9 113.49L324.119 111.568L305.969 114.409V114.409Z" fill="black" fill-opacity="0.15814"/>
<path d="M315.296 106.472L305.717 114.325L316.808 118.753L326.64 111.902L315.296 106.472Z" fill="#0040C1"/>
<path d="M315.253 106.514L315.379 111.735L326.975 111.986L315.799 112.821L316.976 118.837L314.623 112.989C314.623 112.989 305.296 114.576 305.632 114.409C305.968 114.242 314.329 111.882 314.329 111.882L315.253 106.514V106.514Z" fill="white" fill-opacity="0.150685"/>
<path d="M313.699 110.837C313.699 111.287 313.163 111.652 312.502 111.652C311.841 111.652 311.305 111.287 311.305 110.837C311.305 110.387 311.841 110.023 312.502 110.023C313.163 110.023 313.699 110.387 313.699 110.837Z" fill="white" fill-opacity="0.251142"/>
<path d="M315.777 112.801L316.954 118.649L326.386 112.07L315.777 112.801Z" fill="black" fill-opacity="0.219178"/>
<path d="M305.633 114.409L315.296 106.451L314.33 111.902L305.633 114.409V114.409Z" fill="white" fill-opacity="0.246575"/>
<path d="M301.606 111.732C301.606 112.77 300.721 113.611 299.631 113.611C298.54 113.611 297.656 112.77 297.656 111.732C297.656 110.693 298.54 109.852 299.631 109.852C300.721 109.852 301.606 110.693 301.606 111.732Z" fill="#B3B3B3"/>
<path opacity="0.421687" d="M301.584 111.711C301.584 112.749 300.7 113.59 299.609 113.59C298.519 113.59 297.635 112.749 297.635 111.711C297.635 110.672 298.519 109.831 299.609 109.831C300.7 109.831 301.584 110.672 301.584 111.711Z" fill="url(#paint2_radial_1_10018)"/>
<g filter="url(#filter2_f_1_10018)">
<path d="M300.618 110.081C302.315 111.96 300.409 113.849 299.211 113.57C301.657 114.787 303.478 111.087 300.618 110.081Z" fill="black" fill-opacity="0.196347"/>
</g>
<g opacity="0.421687" filter="url(#filter3_f_1_10018)">
<path d="M299.399 111.23C299.399 111.484 299.173 111.69 298.895 111.69C298.616 111.69 298.391 111.484 298.391 111.23C298.391 110.976 298.616 110.771 298.895 110.771C299.173 110.771 299.399 110.976 299.399 111.23Z" fill="white" fill-opacity="0.506849"/>
</g>
<path d="M303.139 119.025C303.139 120.063 302.255 120.904 301.164 120.904C300.074 120.904 299.189 120.063 299.189 119.025C299.189 117.986 300.074 117.145 301.164 117.145C302.255 117.145 303.139 117.986 303.139 119.025Z" fill="#B3B3B3"/>
<path opacity="0.421687" d="M303.119 119.004C303.119 120.042 302.235 120.883 301.145 120.883C300.054 120.883 299.17 120.042 299.17 119.004C299.17 117.965 300.054 117.124 301.145 117.124C302.235 117.124 303.119 117.965 303.119 119.004Z" fill="url(#paint3_radial_1_10018)"/>
<g filter="url(#filter4_f_1_10018)">
<path d="M302.152 117.374C303.849 119.253 301.943 121.142 300.744 120.863C303.19 122.08 305.012 118.38 302.152 117.374Z" fill="black" fill-opacity="0.196347"/>
</g>
<g opacity="0.421687" filter="url(#filter5_f_1_10018)">
<path d="M300.934 118.523C300.934 118.777 300.708 118.983 300.43 118.983C300.152 118.983 299.926 118.777 299.926 118.523C299.926 118.269 300.152 118.064 300.43 118.064C300.708 118.064 300.934 118.269 300.934 118.523Z" fill="white" fill-opacity="0.506849"/>
</g>
<path d="M334.633 106.148C334.633 107.186 333.749 108.028 332.658 108.028C331.568 108.028 330.684 107.186 330.684 106.148C330.684 105.11 331.568 104.268 332.658 104.268C333.749 104.268 334.633 105.11 334.633 106.148Z" fill="#B3B3B3"/>
<path opacity="0.421687" d="M334.613 106.127C334.613 107.166 333.729 108.007 332.639 108.007C331.548 108.007 330.664 107.166 330.664 106.127C330.664 105.089 331.548 104.248 332.639 104.248C333.729 104.248 334.613 105.089 334.613 106.127Z" fill="url(#paint4_radial_1_10018)"/>
<g filter="url(#filter6_f_1_10018)">
<path d="M333.646 104.498C335.343 106.377 333.437 108.265 332.238 107.986C334.684 109.204 336.506 105.504 333.646 104.498V104.498Z" fill="black" fill-opacity="0.196347"/>
</g>
<g opacity="0.421687" filter="url(#filter7_f_1_10018)">
<path d="M332.428 105.647C332.428 105.901 332.203 106.106 331.924 106.106C331.646 106.106 331.42 105.901 331.42 105.647C331.42 105.393 331.646 105.187 331.924 105.187C332.203 105.187 332.428 105.393 332.428 105.647Z" fill="white" fill-opacity="0.506849"/>
</g>
<path d="M335.475 115.338C335.475 116.377 334.591 117.218 333.5 117.218C332.409 117.218 331.525 116.377 331.525 115.338C331.525 114.3 332.409 113.459 333.5 113.459C334.591 113.459 335.475 114.3 335.475 115.338Z" fill="#B3B3B3"/>
<path opacity="0.421687" d="M335.453 115.317C335.453 116.356 334.569 117.197 333.479 117.197C332.388 117.197 331.504 116.356 331.504 115.317C331.504 114.279 332.388 113.438 333.479 113.438C334.569 113.438 335.453 114.279 335.453 115.317Z" fill="url(#paint5_radial_1_10018)"/>
<g filter="url(#filter8_f_1_10018)">
<path d="M334.488 113.688C336.185 115.567 334.278 117.455 333.08 117.176C335.526 118.394 337.348 114.694 334.488 113.688Z" fill="black" fill-opacity="0.196347"/>
</g>
<g opacity="0.421687" filter="url(#filter9_f_1_10018)">
<path d="M333.268 114.837C333.268 115.091 333.042 115.297 332.764 115.297C332.485 115.297 332.26 115.091 332.26 114.837C332.26 114.583 332.485 114.378 332.764 114.378C333.042 114.378 333.268 114.583 333.268 114.837Z" fill="white" fill-opacity="0.506849"/>
</g>
<path d="M409.194 73.0535C405.686 76.1853 407.695 77.4943 407.682 78.6511C409.574 81.0102 408.042 83.1747 406.757 83.4132C404.314 86.091 405.426 89.6621 405.917 92.2691C406.112 89.6231 405.244 86.6249 407.261 84.5829C408.816 84.1945 410.933 80.4223 408.438 78.1498C407.477 76.3649 408.139 74.3649 410.538 72.1345L409.194 73.0535Z" fill="black" fill-opacity="0.219731"/>
<path d="M408.984 72.8028C400.406 74.4342 401.913 85.4431 405.076 89.4285C401.428 85.8682 400.571 81.1084 402.626 76.9329C403.474 75.2111 404.645 73.758 406.376 73.0237C407.118 72.709 408.022 72.7226 408.984 72.8028Z" fill="white" fill-opacity="0.132075"/>
<path d="M415.833 73.137C408.595 74.734 413.048 78.5739 418.354 82.5777C416.538 79.8365 410.181 76.331 415.833 73.137Z" fill="black" fill-opacity="0.150943"/>
<path d="M418.1 85.4183C409.931 84.4478 407.595 90.606 412.975 93.4388C409.78 91.382 409.643 85.6252 418.1 85.4183Z" fill="black" fill-opacity="0.150943"/>
<path d="M405.859 76.3291L405.775 77.9165L406.196 78.9608L406.49 79.7545L406.238 80.6317C406.238 80.6317 406.07 81.0912 405.943 81.2583C405.817 81.4254 405.397 81.7596 405.397 81.7596L404.767 82.2191L404.599 83.0545L404.557 84.6419L403.885 82.3862L403.927 80.5482L404.179 78.7519C404.179 78.7519 404.809 77.624 404.893 77.3734C404.977 77.1228 405.859 76.2873 405.859 76.3291V76.3291Z" fill="white" fill-opacity="0.425532"/>
<path d="M425.494 68.4584C429.803 67.2546 431.316 70.8684 432.3 75.3928C432.535 71.0898 430.538 65.2139 425.494 68.4584Z" fill="black" fill-opacity="0.122642"/>
<path d="M421.967 90.5146C420.728 92.1733 418.872 98.7554 425.58 93.8565C420.828 99.9838 417.353 94.4452 421.967 90.5146Z" fill="black" fill-opacity="0.0707547"/>
<path d="M428.604 63.1115C431.948 61.4674 433.328 62.6883 432.889 66.7875C432.861 70.8067 435.702 70.2863 436.67 69.8787C434.903 69.812 433.873 68.8299 433.897 66.5369C434.063 60.5355 430.682 60.9287 428.604 63.1115Z" fill="#9F7D0B" fill-opacity="0.457399"/>
<path d="M436.838 70.5471C435.792 74.8915 434.351 79.2359 431.965 83.5803V83.7474C435.407 79.2507 436.51 74.8188 436.838 70.5471Z" fill="black" fill-opacity="0.132075"/>
<path d="M414.404 82.6613L428.773 82.5778L427.681 83.4132L418.438 83.4968L414.404 82.6613V82.6613Z" fill="white" fill-opacity="0.468085"/>
<path d="M429.025 89.4285L426.84 89.0944L414.236 82.5778L418.102 83.5803L426.588 88.1754L429.025 89.4285Z" fill="#816606" fill-opacity="0.336323"/>
<path d="M436.838 69.8787L428.688 82.6613C430.258 77.9446 433.027 73.7044 436.838 69.8787Z" fill="#FFE584"/>
<path d="M437.343 69.9623C442.025 61.0625 430.091 57.5272 428.184 63.8634C430.682 54.3993 446.67 61.084 437.343 69.9623Z" fill="black" fill-opacity="0.0801887"/>
<path d="M428.437 63.6963C418.539 64.0281 425.245 75.0213 424.907 81.4917C424.415 74.4093 416.403 62.141 428.437 63.6963Z" fill="white" fill-opacity="0.150943"/>
<path d="M429.528 89.4285L419.666 109.269C424.119 102.395 427.54 95.8565 429.528 89.4285Z" fill="black" fill-opacity="0.188679"/>
<path d="M425.158 81.0739C420.53 75.3393 416.538 66.4982 409.361 73.2206C415.861 68.7821 420.379 75.6769 425.158 81.0739Z" fill="black" fill-opacity="0.0754717"/>
<path d="M419.781 94.2742C413.893 95.2895 407.068 98.3902 405.664 89.4285C405.906 99.3272 413.011 96.4892 419.781 94.2742Z" fill="black" fill-opacity="0.136792"/>
<path d="M424.824 97.7832C413.995 106.113 396.484 108.994 386.087 91.8514C374.221 101.193 359.18 102.112 348.633 86.7551C358.032 104.288 372.958 101.806 385.499 94.1907C398.109 109.471 413.432 108.768 424.824 97.7832V97.7832Z" fill="#816606" fill-opacity="0.38565"/>
<path d="M420.873 96.53C412.64 105.716 392.482 104.717 390.287 85.7525C392.965 100.371 407.429 105.119 420.873 96.53Z" fill="#FFE272"/>
<path d="M382.978 86.1496C380.13 97.3515 357.249 100.91 353.652 82.1394C358.433 97.4768 377.196 97.1341 382.978 86.1496V86.1496Z" fill="white" fill-opacity="0.235849"/>
<path d="M378.637 78.758C384.154 76.276 389.358 78.1355 388.025 83.2477C385.737 78.3 382.155 78.6579 378.637 78.758Z" fill="black" fill-opacity="0.0707547"/>
<path d="M396.283 82.2435C394.276 80.3156 391.7 79.4583 388.084 83.3659C388.181 82.4753 388.566 81.5131 388.084 80.7665C390.785 78.1607 395.339 77.5979 396.283 82.2435V82.2435Z" fill="#FFE272"/>
<path d="M396.344 82.4207C392.396 79.5181 389.059 84.5911 389.451 87.8557C390.971 84.8934 392.504 81.7626 396.344 82.4207Z" fill="black" fill-opacity="0.160377"/>
<path d="M378.621 78.7174C383.05 78.324 384.105 84.4824 383.612 87.2244C382.131 84.4352 383.717 83.1531 378.621 78.7174Z" fill="#FFE16D"/>
<path d="M348.633 100.144C381.737 100.811 396.584 105.026 421.121 111.014L419.704 109.241C400.765 104.014 373.893 98.9983 348.633 98.8438V100.144V100.144Z" fill="white" fill-opacity="0.479821"/>
<path d="M350.712 64.4482C351.155 58.849 350.43 53.366 348.633 47.9896C349.391 53.9357 350.464 59.9339 348.633 65.4508L350.712 64.4482V64.4482Z" fill="black" fill-opacity="0.191781"/>
<path d="M350.375 64.2811C355.707 65.0694 360.208 67.5089 364.66 70.0458C357.964 67.4849 350.449 64.8067 348.633 65.4508L350.375 64.2811Z" fill="white" fill-opacity="0.515982"/>
<path d="M364.072 70.0458C358.77 70.7206 353.495 71.2426 348.633 69.2939C353.924 69.9772 358.999 70.0157 364.072 70.0458Z" fill="black" fill-opacity="0.182648"/>
<path d="M369.87 63.2786C370.107 65.2695 369.424 66.7042 367.559 68.1451C366.165 69.4813 366.103 71.5007 367.769 73.7218C369.361 75.741 368.219 78.2492 366.109 79.5492C370.212 78.3802 370.778 75.3256 369.113 72.8028C367.684 71.1656 367.8 69.9292 368.945 68.9597C371.363 67.2013 370.885 65.2572 369.87 63.2786V63.2786Z" fill="black" fill-opacity="0.214612"/>
<path d="M366.256 79.6536C376.7 79.0967 377.032 66.8872 370.289 63.5292C375.739 67.7666 372.859 78.4101 366.256 79.6536Z" fill="#FFE47D"/>
<path d="M363.399 60.438C366.17 63.0358 366.728 67.1801 355.08 65.033C362.804 65.6894 365.757 64.2371 363.399 60.438Z" fill="black" fill-opacity="0.146119"/>
<path d="M361.766 78.1556C364.537 75.5578 365.095 71.4135 353.447 73.5606C361.172 72.9042 364.124 74.3565 361.766 78.1556Z" fill="black" fill-opacity="0.146119"/>
<path d="M366.173 79.7372C361.831 81.7909 357.49 79.5358 353.148 78.484C358.488 81.379 363.689 85.2149 366.173 79.7372Z" fill="black" fill-opacity="0.103774"/>
<path d="M370.12 63.6963C365.634 57.0231 358.892 61.3138 352.475 64.0305C357.526 59.4996 368.894 54.3028 370.12 63.6963Z" fill="#FFE47D"/>
<path d="M354.24 78.6511C354.961 83.3687 351.001 82.5047 349.955 80.322C351.559 80.869 353.279 82.1516 354.24 78.6511Z" fill="black" fill-opacity="0.221698"/>
<path d="M358.371 50.99C357.065 47.4326 353.456 45.286 350.84 56.774C353.284 49.459 355.792 47.3354 358.371 50.99Z" fill="black" fill-opacity="0.146119"/>
<path d="M348.633 119.171C358.433 119.468 406.359 119.465 416.085 131.536C396.892 121.343 372.878 120.738 348.633 120.591V119.171V119.171Z" fill="white" fill-opacity="0.515982"/>
<path d="M416.42 114.66C391.215 106.874 396.673 121.745 412.974 128.695C408.872 124.779 400.373 117.022 416.42 114.66Z" fill="black" fill-opacity="0.0707547"/>
<path d="M381.969 106.472L391.548 114.325L380.456 118.753L370.625 111.902L381.969 106.472V106.472Z" fill="#0040C1"/>
<path d="M382.011 106.514L381.885 111.735L370.289 111.986L381.465 112.821L380.288 118.837L382.641 112.989C382.641 112.989 391.968 114.576 391.632 114.409C391.296 114.242 382.935 111.882 382.935 111.882L382.011 106.514V106.514Z" fill="white" fill-opacity="0.150685"/>
<path d="M383.566 110.837C383.566 111.287 384.102 111.652 384.764 111.652C385.425 111.652 385.961 111.287 385.961 110.837C385.961 110.387 385.425 110.023 384.764 110.023C384.102 110.023 383.566 110.387 383.566 110.837Z" fill="white" fill-opacity="0.251142"/>
<path d="M381.485 112.801L380.309 118.649L370.877 112.07L381.485 112.801Z" fill="#3F6FD0"/>
<path d="M391.632 114.409L381.969 106.451L382.935 111.902L391.632 114.409Z" fill="#003297"/>
<path d="M352.37 66.3048C352.37 68.1507 350.871 69.6472 349.023 69.6472C347.174 69.6472 345.676 68.1507 345.676 66.3048C345.676 64.4588 347.174 62.9624 349.023 62.9624C350.871 62.9624 352.37 64.4588 352.37 66.3048Z" fill="#B3B3B3"/>
<path opacity="0.421687" d="M352.335 66.2677C352.335 68.1136 350.836 69.6101 348.988 69.6101C347.139 69.6101 345.641 68.1136 345.641 66.2677C345.641 64.4217 347.139 62.9252 348.988 62.9252C350.836 62.9252 352.335 64.4217 352.335 66.2677Z" fill="url(#paint6_radial_1_10018)"/>
<g filter="url(#filter10_f_1_10018)">
<path d="M350.698 63.3709C353.575 66.7108 350.344 70.0692 348.312 69.573C352.458 71.738 355.546 65.159 350.698 63.3709Z" fill="black" fill-opacity="0.127358"/>
</g>
<g opacity="0.421687" filter="url(#filter11_f_1_10018)">
<path d="M348.631 65.4135C348.631 65.8647 348.248 66.2305 347.776 66.2305C347.304 66.2305 346.922 65.8647 346.922 65.4135C346.922 64.9622 347.304 64.5964 347.776 64.5964C348.248 64.5964 348.631 64.9622 348.631 65.4135Z" fill="white" fill-opacity="0.506849"/>
</g>
<path d="M270.094 86.5731C270.094 88.2726 268.63 89.6504 266.825 89.6504C265.02 89.6504 263.557 88.2726 263.557 86.5731C263.557 84.8735 265.02 83.4958 266.825 83.4958C268.63 83.4958 270.094 84.8735 270.094 86.5731Z" fill="#B3B3B3"/>
<path opacity="0.421687" d="M270.061 86.5389C270.061 88.2385 268.597 89.6162 266.792 89.6162C264.987 89.6162 263.523 88.2385 263.523 86.5389C263.523 84.8393 264.987 83.4616 266.792 83.4616C268.597 83.4616 270.061 84.8393 270.061 86.5389Z" fill="url(#paint7_radial_1_10018)"/>
<g filter="url(#filter12_f_1_10018)">
<path d="M268.461 83.8719C271.27 86.9469 268.115 90.039 266.131 89.582C270.179 91.5754 273.195 85.5182 268.461 83.8719Z" fill="black" fill-opacity="0.196347"/>
</g>
<g opacity="0.421687" filter="url(#filter13_f_1_10018)">
<path d="M266.444 85.7525C266.444 86.1679 266.071 86.5047 265.61 86.5047C265.149 86.5047 264.775 86.1679 264.775 85.7525C264.775 85.337 265.149 85.0003 265.61 85.0003C266.071 85.0003 266.444 85.337 266.444 85.7525Z" fill="white" fill-opacity="0.506849"/>
</g>
<path d="M433.098 85.982C433.098 87.6816 431.634 89.0593 429.829 89.0593C428.024 89.0593 426.561 87.6816 426.561 85.982C426.561 84.2824 428.024 82.9047 429.829 82.9047C431.634 82.9047 433.098 84.2824 433.098 85.982Z" fill="#B3B3B3"/>
<path opacity="0.421687" d="M433.065 85.9478C433.065 87.6474 431.601 89.0251 429.796 89.0251C427.991 89.0251 426.527 87.6474 426.527 85.9478C426.527 84.2483 427.991 82.8705 429.796 82.8705C431.601 82.8705 433.065 84.2483 433.065 85.9478Z" fill="url(#paint8_radial_1_10018)"/>
<g filter="url(#filter14_f_1_10018)">
<path d="M431.045 83.239C433.854 86.314 430.867 89.1973 428.883 88.7403C432.289 90.5578 435.376 84.7227 431.045 83.239V83.239Z" fill="black" fill-opacity="0.196347"/>
</g>
<g opacity="0.421687" filter="url(#filter15_f_1_10018)">
<path d="M429.446 85.1614C429.446 85.5768 429.073 85.9136 428.612 85.9136C428.151 85.9136 427.777 85.5768 427.777 85.1614C427.777 84.7459 428.151 84.4092 428.612 84.4092C429.073 84.4092 429.446 84.7459 429.446 85.1614Z" fill="white" fill-opacity="0.506849"/>
</g>
<path d="M340.559 45.7005C342.496 45.1433 344.031 45.5796 345.764 47.1741C347.317 48.3234 349.331 48.0555 351.264 46.0592C353.008 44.1679 355.683 44.8802 357.317 46.7374C355.488 42.9035 352.365 42.8455 350.133 44.8901C348.741 46.559 347.495 46.6467 346.347 45.6813C344.208 43.5957 342.356 44.3815 340.559 45.7005V45.7005Z" fill="black" fill-opacity="0.160377"/>
<path d="M340.64 47.2999C338.104 34.1837 359.789 36.6322 357.158 48.1565C357.441 39.6919 342.388 35.12 340.64 47.2999V47.2999Z" fill="#FFE584"/>
<path d="M341.008 61.7747C337.213 55.2093 334.732 49.237 340.671 47.0706C333.591 47.6564 335.125 53.411 341.008 61.7747Z" fill="#FFE47D"/>
<path d="M356.127 61.4405C359.921 54.8751 362.907 50.5738 356.967 48.4073C364.048 48.9931 362.01 53.0769 356.127 61.4405Z" fill="black" fill-opacity="0.165094"/>
<path d="M380.359 118.753L382.677 119.284L393.253 114.913L381.904 106.465L383.033 112.018L391.114 114.322L382.795 113.022L380.359 118.753V118.753Z" fill="black" fill-opacity="0.176744"/>
<path d="M416.143 115.421C416.345 111.131 348.924 101.129 348.633 102.979L354.983 103.143L354.22 101.452L352.867 100.832L350.313 100.014L354.637 100.794L355.345 101.481L356.352 103.095L361.25 103.472L359.851 101.43L358.42 100.725L356.106 99.9128L360.029 100.683L361.442 102.14L362.453 103.587C362.453 103.587 369.116 104.177 368.563 103.745C368.01 103.313 366.603 101.605 366.282 101.597C365.96 101.588 364.855 100.724 364.372 100.712C363.89 100.699 362.21 100.321 362.21 100.321L365.823 100.582L367.646 101.715L370.241 104.206L373.698 104.295L371.424 101.813L368.553 100.82L371.915 101.492C371.915 101.492 372.932 102.688 373.239 103.281C373.547 103.874 374.972 104.83 374.972 104.83L377.142 104.886L376.145 102.854L373.84 101.708L376.238 102.355L377.416 103.556L378.34 105.251L381.865 105.844C381.865 105.844 381.968 104.927 381.65 104.752C381.333 104.576 379.916 103.286 379.916 103.286L377.926 102.399L380.798 103.393L382.757 105.533L384.574 106.917L389.627 107.549C389.627 107.549 388.467 105.597 387.989 105.417C387.51 105.238 386.244 104.369 386.244 104.369L383.937 103.307C383.937 103.307 386.174 103.949 386.811 104.217C387.448 104.484 388.951 105.526 388.951 105.526L390.507 107.739L394.908 108.688L394.066 106.911L393.053 105.548L390.426 104.394C390.426 104.394 392.432 104.613 392.748 104.872C393.063 105.13 394.558 106.506 394.711 106.844C394.864 107.183 396.024 109.135 396.024 109.135L399.145 109.801L398.936 108.458L398.098 106.514L396.027 105.625L398.029 106.011L399.442 107.468L400.355 109.665L403.381 110.913L404.205 110.098C404.205 110.098 403.908 109.088 403.592 108.829C403.277 108.57 402.414 107.629 402.414 107.629L400.348 106.572C400.348 106.572 402.505 107.213 402.82 107.472C403.136 107.731 404.637 108.856 404.637 108.856L405.242 110.46L405.944 111.397L408.581 112.134L408.689 110.967L408.164 109.365L406.263 108.146C406.263 108.146 407.859 108.689 408.174 108.948C408.49 109.206 409.662 110.657 409.662 110.657L410.184 112.342C410.184 112.342 411.531 113.213 411.851 113.305C412.17 113.397 413.388 112.927 413.388 112.927L413.177 111.668L412.174 109.887L411.062 109.273L413.593 111.093L414.433 112.954L414.968 114.137L417.359 115.035L416.143 115.421V115.421Z" fill="black" fill-opacity="0.2"/>
<path d="M347.513 123.666C369.167 123.517 390.655 124.481 411.055 132.689L410.499 129.848L408.275 128.177L409.863 129.848C409.863 129.848 410.26 131.937 410.102 131.603C409.943 131.269 405.654 129.013 405.654 129.013L404.462 127.425L402.397 126.005L403.986 127.676L404.145 128.595L400.65 128.01L399.458 126.757L398.267 125.755L395.805 124.501L397.473 125.922L398.187 127.342L394.296 126.59L392.945 125.587L391.516 124.418L388.338 122.329L390.88 124.501L391.118 125.755L390.086 126.089L387.862 125.337C387.862 125.337 386.591 124.919 386.353 124.501C386.115 124.084 385.241 123.165 385.241 123.165L381.905 121.577L384.367 123.248L384.447 124.668L380.793 124.167L378.251 123.248L376.822 121.41L374.915 120.491L376.266 121.828L376.822 123.248L376.424 123.916C376.424 123.916 374.042 123.666 373.883 123.332C373.724 122.997 371.738 121.494 371.738 121.494L368.879 119.823L370.706 122.078L370.15 122.997L367.37 122.747L366.178 121.243L362.286 119.906L364.51 120.992C364.51 120.992 365.463 122.246 365.146 122.329C364.828 122.413 363.478 122.747 363.478 122.747L361.81 122.078L359.983 120.658L357.203 119.656L359.348 120.909C359.348 120.909 359.745 122.162 359.348 122.162C358.95 122.162 356.488 122.413 356.488 122.413L354.344 121.076C354.344 121.076 350.055 119.906 350.531 119.906C351.008 119.906 353.152 121.076 353.152 121.076C353.152 121.076 353.47 122.329 353.152 122.329C352.834 122.329 350.769 121.995 350.769 121.995L347.513 120.073L345.765 119.405L347.513 121.243L348.545 122.329L345.328 121.828L347.513 123.666V123.666Z" fill="#C7B24C"/>
<path d="M406.332 105.895C409.385 105.975 412.86 105.271 416.312 103.741C419.57 102.297 423.038 99.7106 425.881 96.7611L419.638 109.304C415.177 107.939 410.725 106.849 406.332 105.895V105.895Z" fill="black" fill-opacity="0.0943396"/>
<path d="M359.215 110.713C359.215 114.142 354.381 116.921 348.417 116.921C342.454 116.921 337.619 114.142 337.619 110.713C337.619 107.285 342.454 104.506 348.417 104.506C354.381 104.506 359.215 107.285 359.215 110.713Z" fill="#AA0000"/>
<g filter="url(#filter16_f_1_10018)">
<path d="M354.406 105.523C357.502 107.365 358.458 109.129 358.082 110.684C356.929 115.462 349.064 117.145 343.557 116.31C357.434 122.869 368.63 108.684 354.406 105.523V105.523Z" fill="black" fill-opacity="0.135802"/>
</g>
<g filter="url(#filter17_f_1_10018)">
<path d="M343.238 116.186C338.252 114.678 336.861 111.714 337.72 109.415C338.942 106.144 344.768 103.621 351.235 104.708C338.467 105.245 336.093 111.97 343.238 116.186Z" fill="white" fill-opacity="0.148148"/>
</g>
<g opacity="0.630037" filter="url(#filter18_f_1_10018)">
<path d="M349.834 109.561C349.834 111.131 347.896 112.404 345.506 112.404C343.115 112.404 341.178 111.131 341.178 109.561C341.178 107.992 343.115 106.719 345.506 106.719C347.896 106.719 349.834 107.992 349.834 109.561Z" fill="url(#paint9_radial_1_10018)"/>
</g>
<path d="M292.576 118.079C293.633 121.342 290.873 125.147 286.41 126.577C281.948 128.006 277.473 126.52 276.415 123.257C275.357 119.994 278.118 116.189 282.58 114.759C287.043 113.33 291.518 114.816 292.576 118.079Z" fill="#AA0000"/>
<g filter="url(#filter19_f_1_10018)">
<path d="M287.375 114.292C290.26 115.303 291.519 116.753 291.718 118.323C292.328 123.147 286.962 126.635 282.583 127.161C294.991 130.076 298.994 113.891 287.375 114.292V114.292Z" fill="black" fill-opacity="0.135802"/>
</g>
<g filter="url(#filter20_f_1_10018)">
<path d="M282.307 127.118C278.111 126.879 276.156 124.391 276.089 121.997C275.995 118.59 279.577 114.793 284.751 114.277C275.363 117.849 275.661 124.819 282.307 127.118V127.118Z" fill="white" fill-opacity="0.148148"/>
</g>
<path d="M420.365 122.613C419.507 125.847 415.337 127.468 411.051 126.233C406.766 124.998 403.989 121.375 404.847 118.141C405.706 114.906 409.876 113.285 414.161 114.52C418.447 115.755 421.224 119.379 420.365 122.613Z" fill="#AA0000"/>
<g filter="url(#filter21_f_1_10018)">
<path d="M407.515 124.467C404.31 122.012 404.052 118.928 405.246 116.937C406.943 114.103 411.762 112.931 416.136 115.295C406.827 113.158 403.437 119.01 407.515 124.467Z" fill="white" fill-opacity="0.148148"/>
</g>
<g opacity="0.630037" filter="url(#filter22_f_1_10018)">
<path d="M415.91 119.395C415.91 120.965 413.972 122.238 411.582 122.238C409.192 122.238 407.254 120.965 407.254 119.395C407.254 117.826 409.192 116.553 411.582 116.553C413.972 116.553 415.91 117.826 415.91 119.395Z" fill="url(#paint10_radial_1_10018)"/>
</g>
<g opacity="0.630037" filter="url(#filter23_f_1_10018)">
<path d="M285.638 119.971C285.638 121.541 283.701 122.813 281.31 122.813C278.92 122.813 276.982 121.541 276.982 119.971C276.982 118.401 278.92 117.129 281.31 117.129C283.701 117.129 285.638 118.401 285.638 119.971Z" fill="url(#paint11_radial_1_10018)"/>
</g>
<path d="M313.937 69.4349C314.826 74.9273 312.725 79.8708 309.246 80.4765C305.767 81.0823 302.226 77.1208 301.337 71.6284C300.449 66.136 302.549 61.1925 306.028 60.5868C309.508 59.981 313.048 63.9425 313.937 69.4349V69.4349Z" fill="#B3B3B3"/>
<path d="M313.97 69.4198C314.859 74.9122 312.759 79.8557 309.279 80.4614C305.8 81.0672 302.259 77.1057 301.371 71.6133C300.482 66.1209 302.582 61.1774 306.062 60.5716C309.541 59.9659 313.082 63.9274 313.97 69.4198V69.4198Z" fill="url(#paint12_radial_1_10018)"/>
<path d="M309.985 61.6655C314.557 65.9735 314.738 71.9932 313.487 76.3506C312.057 81.3349 309.266 84.2029 305.715 79.5834C312.843 81.4961 316.361 71.0292 309.985 61.6655V61.6655Z" fill="black" fill-opacity="0.0613208"/>
<g filter="url(#filter24_f_1_10018)">
<path d="M306.496 67.7498C306.745 69.6012 306.112 71.2131 305.082 71.3502C304.052 71.4872 303.015 70.0975 302.766 68.2461C302.516 66.3947 303.149 64.7828 304.18 64.6457C305.21 64.5087 306.247 65.8984 306.496 67.7498V67.7498Z" fill="white" fill-opacity="0.389121"/>
</g>
<g opacity="0.421687" filter="url(#filter25_f_1_10018)">
<path d="M305.351 57.8397C305.351 58.2551 304.977 58.5919 304.516 58.5919C304.055 58.5919 303.682 58.2551 303.682 57.8397C303.682 57.4242 304.055 57.0875 304.516 57.0875C304.977 57.0875 305.351 57.4242 305.351 57.8397Z" fill="white" fill-opacity="0.506849"/>
</g>
<path d="M396.339 72.0226C395.35 77.4978 391.722 81.4717 388.238 80.8984C384.753 80.3251 382.73 75.4218 383.72 69.9465C384.709 64.4712 388.337 60.4974 391.822 61.0707C395.306 61.6439 397.329 66.5473 396.339 72.0226V72.0226Z" fill="#B3B3B3"/>
<path d="M396.377 72.0191C395.387 77.4944 391.76 81.4682 388.275 80.8949C384.79 80.3216 382.767 75.4183 383.757 69.943C384.747 64.4677 388.374 60.4939 391.859 61.0672C395.344 61.6404 397.366 66.5438 396.377 72.0191V72.0191Z" fill="url(#paint13_radial_1_10018)"/>
<path d="M395.197 63.3909C398.077 68.9606 396.244 74.7006 393.614 78.401C390.605 82.6336 387.017 84.4218 385.203 78.894C391.293 83.0444 398.097 74.325 395.197 63.3909Z" fill="black" fill-opacity="0.0518868"/>
<g filter="url(#filter26_f_1_10018)">
<path d="M389.878 67.9837C389.497 69.8127 388.363 71.1255 387.345 70.9159C386.328 70.7063 385.812 69.0536 386.193 67.2246C386.574 65.3956 387.708 64.0828 388.725 64.2924C389.743 64.502 390.259 66.1547 389.878 67.9837V67.9837Z" fill="white" fill-opacity="0.389121"/>
</g>
<g opacity="0.421687" filter="url(#filter27_f_1_10018)">
<path d="M392.096 58.2554C391.958 58.6475 391.493 58.8423 391.058 58.6906C390.623 58.539 390.383 58.0982 390.521 57.7062C390.659 57.3142 391.124 57.1193 391.559 57.2709C391.994 57.4226 392.234 57.8634 392.096 58.2554Z" fill="white" fill-opacity="0.506849"/>
</g>
<path d="M309.788 91.0113C300.421 103.547 288.994 105.542 275.807 98.542C286.51 105.691 300.431 105.974 309.788 91.0113Z" fill="white" fill-opacity="0.343096"/>
<path d="M314.291 92.029C329.867 102.261 339.834 96.5099 347.248 83.4806C335.911 101.37 325.095 96.97 314.291 92.029V92.029Z" fill="white" fill-opacity="0.368201"/>
<path d="M351.139 85.1089C360.063 104.704 379.527 97.6643 386.348 87.7548C373.458 98.5749 361.313 101.836 351.139 85.1089Z" fill="white" fill-opacity="0.225941"/>
<path d="M389.418 91.4184C394.762 107.82 414.445 104.448 422.989 97.7279C412.842 102.704 398.401 107.637 389.418 91.4184Z" fill="white" fill-opacity="0.125523"/>
<path d="M298.824 104.14C303.606 102.432 307.987 99.1313 311.996 94.3535C311.704 95.3301 313.334 100.426 318.799 100.686C312.141 101.065 305.483 102.646 298.824 104.14V104.14Z" fill="black" fill-opacity="0.0669456"/>
<path d="M335.445 99.2468C341.894 96.7642 345.728 92.4624 348.328 87.3015C346.389 91.8928 345.101 96.3404 353.394 98.6711C347.411 98.1392 341.428 98.2445 335.445 99.2468V99.2468Z" fill="black" fill-opacity="0.0585774"/>
<path d="M370.619 99.8224C376.402 99.2845 381.14 97.1872 385.383 94.3535C383.079 97.211 379.478 100.152 388.713 102.269C382.681 100.624 376.65 99.9346 370.619 99.8224Z" fill="black" fill-opacity="0.0638298"/>
<path d="M301.129 105.378C301.566 105.541 301.844 105.829 301.75 106.019C301.656 106.21 301.226 106.232 300.789 106.068C300.352 105.905 300.074 105.618 300.168 105.427C300.261 105.236 300.692 105.214 301.129 105.378Z" fill="white" fill-opacity="0.489362"/>
<path d="M295.086 106.961C295.523 107.125 295.801 107.412 295.707 107.602C295.613 107.793 295.183 107.815 294.746 107.651C294.309 107.488 294.031 107.201 294.125 107.01C294.218 106.82 294.649 106.798 295.086 106.961Z" fill="white" fill-opacity="0.489362"/>
<path d="M289.875 108.328C290.312 108.492 290.59 108.779 290.496 108.969C290.403 109.16 289.972 109.182 289.535 109.019C289.098 108.855 288.82 108.568 288.914 108.377C289.007 108.187 289.438 108.165 289.875 108.328Z" fill="white" fill-opacity="0.489362"/>
<path d="M283.867 110.127C284.304 110.291 284.582 110.578 284.488 110.768C284.395 110.959 283.965 110.981 283.528 110.818C283.091 110.654 282.812 110.367 282.906 110.176C283 109.986 283.43 109.964 283.867 110.127Z" fill="white" fill-opacity="0.489362"/>
<path d="M306.955 104.658C307.392 104.822 307.67 105.109 307.576 105.3C307.483 105.49 307.052 105.512 306.615 105.349C306.178 105.185 305.9 104.898 305.994 104.708C306.088 104.517 306.518 104.495 306.955 104.658Z" fill="white" fill-opacity="0.489362"/>
<path d="M306.738 124.015C307.175 124.179 307.453 124.466 307.359 124.657C307.266 124.847 306.836 124.869 306.399 124.706C305.962 124.542 305.683 124.255 305.777 124.065C305.871 123.874 306.301 123.852 306.738 124.015Z" fill="white" fill-opacity="0.489362"/>
<path d="M312.166 123.224C312.603 123.387 312.881 123.674 312.787 123.865C312.694 124.056 312.263 124.078 311.826 123.914C311.389 123.751 311.111 123.464 311.205 123.273C311.299 123.082 311.729 123.06 312.166 123.224Z" fill="white" fill-opacity="0.489362"/>
<path d="M331.345 121.713C331.782 121.876 332.061 122.163 331.967 122.354C331.873 122.545 331.443 122.567 331.006 122.403C330.569 122.24 330.291 121.953 330.384 121.762C330.478 121.571 330.908 121.549 331.345 121.713Z" fill="white" fill-opacity="0.489362"/>
<path d="M337.859 121.569C338.296 121.732 338.574 122.019 338.481 122.21C338.387 122.401 337.957 122.423 337.52 122.259C337.083 122.096 336.804 121.809 336.898 121.618C336.992 121.427 337.422 121.405 337.859 121.569Z" fill="white" fill-opacity="0.489362"/>
<path d="M344.734 121.425C345.171 121.588 345.449 121.875 345.356 122.066C345.262 122.257 344.832 122.279 344.395 122.115C343.958 121.952 343.679 121.665 343.773 121.474C343.867 121.283 344.297 121.261 344.734 121.425Z" fill="white" fill-opacity="0.489362"/>
<path d="M351.392 121.353C351.829 121.516 352.107 121.804 352.014 121.994C351.92 122.185 351.49 122.207 351.053 122.043C350.616 121.88 350.338 121.593 350.431 121.402C350.525 121.211 350.955 121.19 351.392 121.353Z" fill="white" fill-opacity="0.489362"/>
<path d="M363.406 101.492C363.843 101.656 364.121 101.943 364.027 102.133C363.934 102.324 363.504 102.346 363.067 102.182C362.63 102.019 362.351 101.732 362.445 101.541C362.539 101.351 362.969 101.329 363.406 101.492Z" fill="white" fill-opacity="0.489362"/>
<path d="M370.5 102.068C370.937 102.231 371.215 102.518 371.121 102.709C371.028 102.9 370.597 102.922 370.16 102.758C369.723 102.595 369.445 102.308 369.539 102.117C369.632 101.926 370.063 101.904 370.5 102.068Z" fill="white" fill-opacity="0.489362"/>
<path d="M378.316 103.219C378.753 103.383 379.031 103.67 378.938 103.86C378.844 104.051 378.414 104.073 377.977 103.909C377.54 103.746 377.262 103.459 377.355 103.268C377.449 103.078 377.879 103.056 378.316 103.219Z" fill="white" fill-opacity="0.489362"/>
<path d="M383.527 104.227C383.964 104.39 384.242 104.677 384.149 104.868C384.055 105.058 383.625 105.08 383.188 104.917C382.751 104.753 382.472 104.466 382.566 104.276C382.66 104.085 383.09 104.063 383.527 104.227Z" fill="white" fill-opacity="0.489362"/>
<path d="M390.185 104.802C390.622 104.966 390.9 105.253 390.807 105.443C390.713 105.634 390.283 105.656 389.846 105.493C389.409 105.329 389.131 105.042 389.224 104.851C389.318 104.661 389.748 104.639 390.185 104.802Z" fill="white" fill-opacity="0.489362"/>
<path d="M396.41 107.681C396.847 107.844 397.125 108.131 397.031 108.322C396.938 108.512 396.507 108.534 396.071 108.371C395.634 108.207 395.355 107.92 395.449 107.73C395.543 107.539 395.973 107.517 396.41 107.681Z" fill="white" fill-opacity="0.489362"/>
<path d="M392.211 124.663C392.648 124.827 392.926 125.114 392.832 125.304C392.738 125.495 392.308 125.517 391.871 125.353C391.434 125.19 391.156 124.903 391.25 124.712C391.343 124.522 391.774 124.5 392.211 124.663Z" fill="white" fill-opacity="0.489362"/>
<path d="M355.734 120.777C356.171 120.941 356.449 121.228 356.356 121.418C356.262 121.609 355.832 121.631 355.395 121.468C354.958 121.304 354.679 121.017 354.773 120.826C354.867 120.636 355.297 120.614 355.734 120.777Z" fill="white" fill-opacity="0.489362"/>
<path d="M346.011 78.8102C346.011 79.4461 345.752 79.9616 345.433 79.9616C345.113 79.9616 344.854 79.4461 344.854 78.8102C344.854 78.1744 345.113 77.6589 345.433 77.6589C345.752 77.6589 346.011 78.1744 346.011 78.8102Z" fill="white" fill-opacity="0.6"/>
<path d="M313.299 81.9765C313.299 82.6123 313.039 83.1278 312.72 83.1278C312.4 83.1278 312.141 82.6123 312.141 81.9765C312.141 81.3406 312.4 80.8251 312.72 80.8251C313.039 80.8251 313.299 81.3406 313.299 81.9765Z" fill="white" fill-opacity="0.6"/>
<path d="M422.873 94.2096C422.873 94.8455 422.614 95.3609 422.294 95.3609C421.974 95.3609 421.715 94.8455 421.715 94.2096C421.715 93.5737 421.974 93.0582 422.294 93.0582C422.614 93.0582 422.873 93.5737 422.873 94.2096Z" fill="white" fill-opacity="0.6"/>
<path d="M274.735 93.3378C275.224 93.7478 275.453 94.2772 275.247 94.5202C275.041 94.7632 274.478 94.6278 273.989 94.2179C273.5 93.8079 273.271 93.2785 273.477 93.0355C273.683 92.7924 274.246 92.9278 274.735 93.3378Z" fill="white" fill-opacity="0.6"/>
<path d="M278.27 112.559C278.27 113.314 277.849 113.927 277.33 113.927C276.81 113.927 276.389 113.314 276.389 112.559C276.389 111.804 276.81 111.192 277.33 111.192C277.849 111.192 278.27 111.804 278.27 112.559Z" fill="white" fill-opacity="0.6"/>
<path d="M419.689 112.919C419.689 113.555 419.43 114.07 419.11 114.07C418.79 114.07 418.531 113.555 418.531 112.919C418.531 112.283 418.79 111.768 419.11 111.768C419.43 111.768 419.689 112.283 419.689 112.919Z" fill="white" fill-opacity="0.6"/>
<path d="M368.602 108.658C368.602 109.696 367.718 110.538 366.627 110.538C365.536 110.538 364.652 109.696 364.652 108.658C364.652 107.62 365.536 106.778 366.627 106.778C367.718 106.778 368.602 107.62 368.602 108.658Z" fill="#B3B3B3"/>
<path opacity="0.421687" d="M368.58 108.637C368.58 109.675 367.696 110.517 366.606 110.517C365.515 110.517 364.631 109.675 364.631 108.637C364.631 107.599 365.515 106.757 366.606 106.757C367.696 106.757 368.58 107.599 368.58 108.637Z" fill="url(#paint14_radial_1_10018)"/>
<g filter="url(#filter28_f_1_10018)">
<path d="M367.614 107.008C369.312 108.886 367.405 110.775 366.207 110.496C368.653 111.714 370.475 108.014 367.614 107.008Z" fill="black" fill-opacity="0.196347"/>
</g>
<g opacity="0.421687" filter="url(#filter29_f_1_10018)">
<path d="M366.395 108.157C366.395 108.411 366.169 108.616 365.891 108.616C365.612 108.616 365.387 108.411 365.387 108.157C365.387 107.903 365.612 107.697 365.891 107.697C366.169 107.697 366.395 107.903 366.395 108.157Z" fill="white" fill-opacity="0.506849"/>
</g>
<path d="M367.762 116.326C367.762 117.365 366.878 118.206 365.787 118.206C364.697 118.206 363.812 117.365 363.812 116.326C363.812 115.288 364.697 114.447 365.787 114.447C366.878 114.447 367.762 115.288 367.762 116.326Z" fill="#B3B3B3"/>
<path opacity="0.421687" d="M367.74 116.305C367.74 117.344 366.856 118.185 365.766 118.185C364.675 118.185 363.791 117.344 363.791 116.305C363.791 115.267 364.675 114.426 365.766 114.426C366.856 114.426 367.74 115.267 367.74 116.305Z" fill="url(#paint15_radial_1_10018)"/>
<g filter="url(#filter30_f_1_10018)">
<path d="M366.775 114.676C368.472 116.555 366.566 118.444 365.367 118.164C367.813 119.382 369.635 115.682 366.775 114.676Z" fill="black" fill-opacity="0.196347"/>
</g>
<g opacity="0.421687" filter="url(#filter31_f_1_10018)">
<path d="M365.555 115.825C365.555 116.079 365.329 116.285 365.051 116.285C364.773 116.285 364.547 116.079 364.547 115.825C364.547 115.571 364.773 115.366 365.051 115.366C365.329 115.366 365.555 115.571 365.555 115.825Z" fill="white" fill-opacity="0.506849"/>
</g>
<path d="M398.473 112.577C398.473 113.616 397.589 114.457 396.498 114.457C395.408 114.457 394.523 113.616 394.523 112.577C394.523 111.539 395.408 110.698 396.498 110.698C397.589 110.698 398.473 111.539 398.473 112.577Z" fill="#B3B3B3"/>
<path opacity="0.421687" d="M398.453 112.557C398.453 113.595 397.569 114.436 396.479 114.436C395.388 114.436 394.504 113.595 394.504 112.557C394.504 111.518 395.388 110.677 396.479 110.677C397.569 110.677 398.453 111.518 398.453 112.557Z" fill="url(#paint16_radial_1_10018)"/>
<g filter="url(#filter32_f_1_10018)">
<path d="M397.486 110.927C399.183 112.806 397.277 114.695 396.078 114.415C398.524 115.633 400.346 111.933 397.486 110.927Z" fill="black" fill-opacity="0.196347"/>
</g>
<g opacity="0.421687" filter="url(#filter33_f_1_10018)">
<path d="M396.268 112.076C396.268 112.33 396.042 112.536 395.764 112.536C395.485 112.536 395.26 112.33 395.26 112.076C395.26 111.822 395.485 111.617 395.764 111.617C396.042 111.617 396.268 111.822 396.268 112.076Z" fill="white" fill-opacity="0.506849"/>
</g>
<path d="M396.795 119.735C396.795 120.773 395.911 121.614 394.82 121.614C393.73 121.614 392.846 120.773 392.846 119.735C392.846 118.696 393.73 117.855 394.82 117.855C395.911 117.855 396.795 118.696 396.795 119.735Z" fill="#B3B3B3"/>
<path opacity="0.421687" d="M396.774 119.714C396.774 120.752 395.889 121.593 394.799 121.593C393.708 121.593 392.824 120.752 392.824 119.714C392.824 118.675 393.708 117.834 394.799 117.834C395.889 117.834 396.774 118.675 396.774 119.714Z" fill="url(#paint17_radial_1_10018)"/>
<g filter="url(#filter34_f_1_10018)">
<path d="M395.808 118.084C397.505 119.963 395.599 121.852 394.4 121.573C396.846 122.79 398.668 119.09 395.808 118.084Z" fill="black" fill-opacity="0.196347"/>
</g>
<g opacity="0.421687" filter="url(#filter35_f_1_10018)">
<path d="M394.59 119.233C394.59 119.487 394.365 119.693 394.086 119.693C393.808 119.693 393.582 119.487 393.582 119.233C393.582 118.979 393.808 118.774 394.086 118.774C394.365 118.774 394.59 118.979 394.59 119.233Z" fill="white" fill-opacity="0.506849"/>
</g>
<path d="M315.908 302.71L352.513 266.311L381.845 295.541L384.722 295.701V297.532C388.153 300.348 387.898 304.916 385.361 307.17L385.441 308.922L383.123 308.763L352.912 339.187L353.312 329.311L374.412 308.763H373.213L372.973 306.453L374.092 306.533L373.612 305.736L328.696 304.621L353.951 329.789L352.673 339.267L318.226 304.701L329.015 299.365L373.373 299.205L373.532 297.612H372.334L372.014 295.781L373.213 295.94L353.072 276.028L327.417 300.957L320.224 305.099L318.232 304.7L315.908 302.71Z" fill="black" fill-opacity="0.15566"/>
<path d="M314.449 302.57L351.054 266.172L380.386 295.402L383.263 295.562V297.393C386.694 300.209 386.439 304.777 383.902 307.031L383.982 308.783L381.664 308.623L351.453 339.048L351.853 329.172L372.953 308.623H371.754L371.514 306.314L372.633 306.394L372.154 305.597L327.237 304.482L352.493 329.65L351.214 339.128L316.767 304.562L327.557 299.226L371.914 299.066L372.074 297.473H370.875L370.555 295.642L371.754 295.801L351.613 275.889L325.958 300.818L318.765 304.96L316.773 304.561L314.449 302.57Z" fill="#D40000"/>
<path d="M351.215 266.65L315.109 302.551L351.294 338.65" stroke="#F7F7F7" stroke-opacity="0.198113" stroke-width="0.354049"/>
<path d="M327.371 299.126L351.276 275.698" stroke="black" stroke-opacity="0.108491" stroke-width="0.236033"/>
<path d="M326.805 304.646L351.727 329.313" stroke="black" stroke-opacity="0.287736" stroke-width="0.286611"/>
<path d="M320.701 303.069C321.252 303.709 322.299 304.282 326.127 304.477L372.233 305.637V304.004L320.701 303.069Z" fill="black" fill-opacity="0.132075"/>
<path d="M320.815 302.506C321.803 301.178 323.164 300.153 325.844 300.196L371.994 300.54L371.954 303.805C372.729 299.795 376.974 300.051 380.825 299.823C379.246 299.44 378.492 298.931 374.312 298.947L374.232 298.429H380.706L380.865 298.071L380.706 297.553L371.954 297.513L371.754 299.066L327.117 299.106C324.12 299.261 321.592 299.928 320.814 302.506H320.815Z" fill="white" fill-opacity="0.188679"/>
<path d="M383.182 295.602H370.555V296.358H383.182V295.602Z" fill="white" fill-opacity="0.462264"/>
<path d="M384.002 306.394H371.494V307.071H384.002V306.394Z" fill="white" fill-opacity="0.462264"/>
<path d="M383.922 308.026H371.654V308.723H383.922V308.026Z" fill="black" fill-opacity="0.254717"/>
<path d="M372.793 308.783L351.693 329.73" stroke="#F3F3F3" stroke-opacity="0.226415" stroke-width="0.168595"/>
<path d="M381.185 309.022L351.533 338.411" stroke="black" stroke-opacity="0.268868" stroke-width="0.168595"/>
<path d="M351.334 275.332L371.515 295.402" stroke="#F4F4F4" stroke-opacity="0.504717" stroke-width="0.168595"/>
<path d="M351.105 266.349L379.928 295.353Z" fill="black"/>
<path d="M351.105 266.349L379.928 295.353" stroke="#070707" stroke-opacity="0.20283" stroke-width="0.168595"/>
<defs>
<filter id="filter0_f_1_10018" x="284.442" y="123.153" width="78.4633" height="11.7217" filterUnits="userSpaceOnUse" color-interpolation-filters="sRGB">
<feFlood flood-opacity="0" result="BackgroundImageFix"/>
<feBlend mode="normal" in="SourceGraphic" in2="BackgroundImageFix" result="shape"/>
<feGaussianBlur stdDeviation="0.251571" result="effect1_foregroundBlur_1_10018"/>
</filter>
<filter id="filter1_f_1_10018" x="359.427" y="123.786" width="51.3343" height="10.8256" filterUnits="userSpaceOnUse" color-interpolation-filters="sRGB">
<feFlood flood-opacity="0" result="BackgroundImageFix"/>
<feBlend mode="normal" in="SourceGraphic" in2="BackgroundImageFix" result="shape"/>
<feGaussianBlur stdDeviation="0.23007" result="effect1_foregroundBlur_1_10018"/>
</filter>
<filter id="filter2_f_1_10018" x="299.145" y="110.015" width="2.99733" height="3.86331" filterUnits="userSpaceOnUse" color-interpolation-filters="sRGB">
<feFlood flood-opacity="0" result="BackgroundImageFix"/>
<feBlend mode="normal" in="SourceGraphic" in2="BackgroundImageFix" result="shape"/>
<feGaussianBlur stdDeviation="0.0330239" result="effect1_foregroundBlur_1_10018"/>
</filter>
<filter id="filter3_f_1_10018" x="298.333" y="110.713" width="1.12299" height="1.03419" filterUnits="userSpaceOnUse" color-interpolation-filters="sRGB">
<feFlood flood-opacity="0" result="BackgroundImageFix"/>
<feBlend mode="normal" in="SourceGraphic" in2="BackgroundImageFix" result="shape"/>
<feGaussianBlur stdDeviation="0.0287949" result="effect1_foregroundBlur_1_10018"/>
</filter>
<filter id="filter4_f_1_10018" x="300.678" y="117.308" width="2.99733" height="3.86331" filterUnits="userSpaceOnUse" color-interpolation-filters="sRGB">
<feFlood flood-opacity="0" result="BackgroundImageFix"/>
<feBlend mode="normal" in="SourceGraphic" in2="BackgroundImageFix" result="shape"/>
<feGaussianBlur stdDeviation="0.0330239" result="effect1_foregroundBlur_1_10018"/>
</filter>
<filter id="filter5_f_1_10018" x="299.868" y="118.006" width="1.12299" height="1.03419" filterUnits="userSpaceOnUse" color-interpolation-filters="sRGB">
<feFlood flood-opacity="0" result="BackgroundImageFix"/>
<feBlend mode="normal" in="SourceGraphic" in2="BackgroundImageFix" result="shape"/>
<feGaussianBlur stdDeviation="0.0287949" result="effect1_foregroundBlur_1_10018"/>
</filter>
<filter id="filter6_f_1_10018" x="332.172" y="104.432" width="2.99733" height="3.86331" filterUnits="userSpaceOnUse" color-interpolation-filters="sRGB">
<feFlood flood-opacity="0" result="BackgroundImageFix"/>
<feBlend mode="normal" in="SourceGraphic" in2="BackgroundImageFix" result="shape"/>
<feGaussianBlur stdDeviation="0.0330239" result="effect1_foregroundBlur_1_10018"/>
</filter>
<filter id="filter7_f_1_10018" x="331.362" y="105.13" width="1.12299" height="1.03419" filterUnits="userSpaceOnUse" color-interpolation-filters="sRGB">
<feFlood flood-opacity="0" result="BackgroundImageFix"/>
<feBlend mode="normal" in="SourceGraphic" in2="BackgroundImageFix" result="shape"/>
<feGaussianBlur stdDeviation="0.0287949" result="effect1_foregroundBlur_1_10018"/>
</filter>
<filter id="filter8_f_1_10018" x="333.014" y="113.622" width="2.99733" height="3.86331" filterUnits="userSpaceOnUse" color-interpolation-filters="sRGB">
<feFlood flood-opacity="0" result="BackgroundImageFix"/>
<feBlend mode="normal" in="SourceGraphic" in2="BackgroundImageFix" result="shape"/>
<feGaussianBlur stdDeviation="0.0330239" result="effect1_foregroundBlur_1_10018"/>
</filter>
<filter id="filter9_f_1_10018" x="332.202" y="114.32" width="1.12299" height="1.03419" filterUnits="userSpaceOnUse" color-interpolation-filters="sRGB">
<feFlood flood-opacity="0" result="BackgroundImageFix"/>
<feBlend mode="normal" in="SourceGraphic" in2="BackgroundImageFix" result="shape"/>
<feGaussianBlur stdDeviation="0.0287949" result="effect1_foregroundBlur_1_10018"/>
</filter>
<filter id="filter10_f_1_10018" x="348.198" y="63.2562" width="5.08675" height="6.86373" filterUnits="userSpaceOnUse" color-interpolation-filters="sRGB">
<feFlood flood-opacity="0" result="BackgroundImageFix"/>
<feBlend mode="normal" in="SourceGraphic" in2="BackgroundImageFix" result="shape"/>
<feGaussianBlur stdDeviation="0.0573318" result="effect1_foregroundBlur_1_10018"/>
</filter>
<filter id="filter11_f_1_10018" x="346.822" y="64.4965" width="1.90894" height="1.83404" filterUnits="userSpaceOnUse" color-interpolation-filters="sRGB">
<feFlood flood-opacity="0" result="BackgroundImageFix"/>
<feBlend mode="normal" in="SourceGraphic" in2="BackgroundImageFix" result="shape"/>
<feGaussianBlur stdDeviation="0.0499898" result="effect1_foregroundBlur_1_10018"/>
</filter>
<filter id="filter12_f_1_10018" x="266.022" y="83.7632" width="4.95964" height="6.32566" filterUnits="userSpaceOnUse" color-interpolation-filters="sRGB">
<feFlood flood-opacity="0" result="BackgroundImageFix"/>
<feBlend mode="normal" in="SourceGraphic" in2="BackgroundImageFix" result="shape"/>
<feGaussianBlur stdDeviation="0.0543624" result="effect1_foregroundBlur_1_10018"/>
</filter>
<filter id="filter13_f_1_10018" x="264.681" y="84.9055" width="1.85952" height="1.69408" filterUnits="userSpaceOnUse" color-interpolation-filters="sRGB">
<feFlood flood-opacity="0" result="BackgroundImageFix"/>
<feBlend mode="normal" in="SourceGraphic" in2="BackgroundImageFix" result="shape"/>
<feGaussianBlur stdDeviation="0.0474007" result="effect1_foregroundBlur_1_10018"/>
</filter>
<filter id="filter14_f_1_10018" x="428.774" y="83.1303" width="4.50456" height="6.06606" filterUnits="userSpaceOnUse" color-interpolation-filters="sRGB">
<feFlood flood-opacity="0" result="BackgroundImageFix"/>
<feBlend mode="normal" in="SourceGraphic" in2="BackgroundImageFix" result="shape"/>
<feGaussianBlur stdDeviation="0.0543624" result="effect1_foregroundBlur_1_10018"/>
</filter>
<filter id="filter15_f_1_10018" x="427.683" y="84.3144" width="1.85952" height="1.69408" filterUnits="userSpaceOnUse" color-interpolation-filters="sRGB">
<feFlood flood-opacity="0" result="BackgroundImageFix"/>
<feBlend mode="normal" in="SourceGraphic" in2="BackgroundImageFix" result="shape"/>
<feGaussianBlur stdDeviation="0.0474007" result="effect1_foregroundBlur_1_10018"/>
</filter>
<filter id="filter16_f_1_10018" x="343.389" y="105.356" width="17.7788" height="12.834" filterUnits="userSpaceOnUse" color-interpolation-filters="sRGB">
<feFlood flood-opacity="0" result="BackgroundImageFix"/>
<feBlend mode="normal" in="SourceGraphic" in2="BackgroundImageFix" result="shape"/>
<feGaussianBlur stdDeviation="0.0838493" result="effect1_foregroundBlur_1_10018"/>
</filter>
<filter id="filter17_f_1_10018" x="337.197" y="104.166" width="14.3231" height="12.3049" filterUnits="userSpaceOnUse" color-interpolation-filters="sRGB">
<feFlood flood-opacity="0" result="BackgroundImageFix"/>
<feBlend mode="normal" in="SourceGraphic" in2="BackgroundImageFix" result="shape"/>
<feGaussianBlur stdDeviation="0.142778" result="effect1_foregroundBlur_1_10018"/>
</filter>
<filter id="filter18_f_1_10018" x="340.743" y="106.285" width="9.52483" height="6.55312" filterUnits="userSpaceOnUse" color-interpolation-filters="sRGB">
<feFlood flood-opacity="0" result="BackgroundImageFix"/>
<feBlend mode="normal" in="SourceGraphic" in2="BackgroundImageFix" result="shape"/>
<feGaussianBlur stdDeviation="0.217146" result="effect1_foregroundBlur_1_10018"/>
</filter>
<filter id="filter19_f_1_10018" x="282.435" y="114.136" width="11.9986" height="13.5248" filterUnits="userSpaceOnUse" color-interpolation-filters="sRGB">
<feFlood flood-opacity="0" result="BackgroundImageFix"/>
<feBlend mode="normal" in="SourceGraphic" in2="BackgroundImageFix" result="shape"/>
<feGaussianBlur stdDeviation="0.074348" result="effect1_foregroundBlur_1_10018"/>
</filter>
<filter id="filter20_f_1_10018" x="275.835" y="114.023" width="9.17046" height="13.3482" filterUnits="userSpaceOnUse" color-interpolation-filters="sRGB">
<feFlood flood-opacity="0" result="BackgroundImageFix"/>
<feBlend mode="normal" in="SourceGraphic" in2="BackgroundImageFix" result="shape"/>
<feGaussianBlur stdDeviation="0.126599" result="effect1_foregroundBlur_1_10018"/>
</filter>
<filter id="filter21_f_1_10018" x="404.346" y="113.784" width="12.0348" height="10.9268" filterUnits="userSpaceOnUse" color-interpolation-filters="sRGB">
<feFlood flood-opacity="0" result="BackgroundImageFix"/>
<feBlend mode="normal" in="SourceGraphic" in2="BackgroundImageFix" result="shape"/>
<feGaussianBlur stdDeviation="0.121987" result="effect1_foregroundBlur_1_10018"/>
</filter>
<filter id="filter22_f_1_10018" x="406.82" y="116.119" width="9.52483" height="6.55312" filterUnits="userSpaceOnUse" color-interpolation-filters="sRGB">
<feFlood flood-opacity="0" result="BackgroundImageFix"/>
<feBlend mode="normal" in="SourceGraphic" in2="BackgroundImageFix" result="shape"/>
<feGaussianBlur stdDeviation="0.217146" result="effect1_foregroundBlur_1_10018"/>
</filter>
<filter id="filter23_f_1_10018" x="276.548" y="116.695" width="9.52483" height="6.55312" filterUnits="userSpaceOnUse" color-interpolation-filters="sRGB">
<feFlood flood-opacity="0" result="BackgroundImageFix"/>
<feBlend mode="normal" in="SourceGraphic" in2="BackgroundImageFix" result="shape"/>
<feGaussianBlur stdDeviation="0.217146" result="effect1_foregroundBlur_1_10018"/>
</filter>
<filter id="filter24_f_1_10018" x="302.415" y="64.3403" width="4.43212" height="7.31537" filterUnits="userSpaceOnUse" color-interpolation-filters="sRGB">
<feFlood flood-opacity="0" result="BackgroundImageFix"/>
<feBlend mode="normal" in="SourceGraphic" in2="BackgroundImageFix" result="shape"/>
<feGaussianBlur stdDeviation="0.148069" result="effect1_foregroundBlur_1_10018"/>
</filter>
<filter id="filter25_f_1_10018" x="303.587" y="56.9927" width="1.85952" height="1.69408" filterUnits="userSpaceOnUse" color-interpolation-filters="sRGB">
<feFlood flood-opacity="0" result="BackgroundImageFix"/>
<feBlend mode="normal" in="SourceGraphic" in2="BackgroundImageFix" result="shape"/>
<feGaussianBlur stdDeviation="0.0474007" result="effect1_foregroundBlur_1_10018"/>
</filter>
<filter id="filter26_f_1_10018" x="385.77" y="63.9743" width="4.52977" height="7.25979" filterUnits="userSpaceOnUse" color-interpolation-filters="sRGB">
<feFlood flood-opacity="0" result="BackgroundImageFix"/>
<feBlend mode="normal" in="SourceGraphic" in2="BackgroundImageFix" result="shape"/>
<feGaussianBlur stdDeviation="0.148069" result="effect1_foregroundBlur_1_10018"/>
</filter>
<filter id="filter27_f_1_10018" x="390.388" y="57.1247" width="1.84195" height="1.71224" filterUnits="userSpaceOnUse" color-interpolation-filters="sRGB">
<feFlood flood-opacity="0" result="BackgroundImageFix"/>
<feBlend mode="normal" in="SourceGraphic" in2="BackgroundImageFix" result="shape"/>
<feGaussianBlur stdDeviation="0.0474007" result="effect1_foregroundBlur_1_10018"/>
</filter>
<filter id="filter28_f_1_10018" x="366.141" y="106.942" width="2.99733" height="3.86331" filterUnits="userSpaceOnUse" color-interpolation-filters="sRGB">
<feFlood flood-opacity="0" result="BackgroundImageFix"/>
<feBlend mode="normal" in="SourceGraphic" in2="BackgroundImageFix" result="shape"/>
<feGaussianBlur stdDeviation="0.0330239" result="effect1_foregroundBlur_1_10018"/>
</filter>
<filter id="filter29_f_1_10018" x="365.329" y="107.64" width="1.12299" height="1.03419" filterUnits="userSpaceOnUse" color-interpolation-filters="sRGB">
<feFlood flood-opacity="0" result="BackgroundImageFix"/>
<feBlend mode="normal" in="SourceGraphic" in2="BackgroundImageFix" result="shape"/>
<feGaussianBlur stdDeviation="0.0287949" result="effect1_foregroundBlur_1_10018"/>
</filter>
<filter id="filter30_f_1_10018" x="365.301" y="114.61" width="2.99733" height="3.86331" filterUnits="userSpaceOnUse" color-interpolation-filters="sRGB">
<feFlood flood-opacity="0" result="BackgroundImageFix"/>
<feBlend mode="normal" in="SourceGraphic" in2="BackgroundImageFix" result="shape"/>
<feGaussianBlur stdDeviation="0.0330239" result="effect1_foregroundBlur_1_10018"/>
</filter>
<filter id="filter31_f_1_10018" x="364.489" y="115.308" width="1.12299" height="1.03419" filterUnits="userSpaceOnUse" color-interpolation-filters="sRGB">
<feFlood flood-opacity="0" result="BackgroundImageFix"/>
<feBlend mode="normal" in="SourceGraphic" in2="BackgroundImageFix" result="shape"/>
<feGaussianBlur stdDeviation="0.0287949" result="effect1_foregroundBlur_1_10018"/>
</filter>
<filter id="filter32_f_1_10018" x="396.012" y="110.861" width="2.99733" height="3.86331" filterUnits="userSpaceOnUse" color-interpolation-filters="sRGB">
<feFlood flood-opacity="0" result="BackgroundImageFix"/>
<feBlend mode="normal" in="SourceGraphic" in2="BackgroundImageFix" result="shape"/>
<feGaussianBlur stdDeviation="0.0330239" result="effect1_foregroundBlur_1_10018"/>
</filter>
<filter id="filter33_f_1_10018" x="395.202" y="111.559" width="1.12299" height="1.03419" filterUnits="userSpaceOnUse" color-interpolation-filters="sRGB">
<feFlood flood-opacity="0" result="BackgroundImageFix"/>
<feBlend mode="normal" in="SourceGraphic" in2="BackgroundImageFix" result="shape"/>
<feGaussianBlur stdDeviation="0.0287949" result="effect1_foregroundBlur_1_10018"/>
</filter>
<filter id="filter34_f_1_10018" x="394.334" y="118.018" width="2.99733" height="3.86331" filterUnits="userSpaceOnUse" color-interpolation-filters="sRGB">
<feFlood flood-opacity="0" result="BackgroundImageFix"/>
<feBlend mode="normal" in="SourceGraphic" in2="BackgroundImageFix" result="shape"/>
<feGaussianBlur stdDeviation="0.0330239" result="effect1_foregroundBlur_1_10018"/>
</filter>
<filter id="filter35_f_1_10018" x="393.524" y="118.716" width="1.12299" height="1.03419" filterUnits="userSpaceOnUse" color-interpolation-filters="sRGB">
<feFlood flood-opacity="0" result="BackgroundImageFix"/>
<feBlend mode="normal" in="SourceGraphic" in2="BackgroundImageFix" result="shape"/>
<feGaussianBlur stdDeviation="0.0287949" result="effect1_foregroundBlur_1_10018"/>
</filter>
<linearGradient id="paint0_linear_1_10018" x1="442.152" y1="243.11" x2="261.623" y2="243.11" gradientUnits="userSpaceOnUse">
<stop stop-color="#A3A3A3"/>
<stop offset="0.142857" stop-color="#B0B0B0"/>
<stop offset="0.321429" stop-color="#D1D1D1"/>
<stop offset="0.5" stop-color="#BDBDBD"/>
<stop offset="0.75" stop-color="#E5E5E5"/>
<stop offset="0.875" stop-color="#CCCCCC"/>
<stop offset="1" stop-color="#CCCCCC"/>
</linearGradient>
<linearGradient id="paint1_linear_1_10018" x1="282.279" y1="129.832" x2="362.684" y2="129.832" gradientUnits="userSpaceOnUse">
<stop/>
<stop offset="1" stop-opacity="0"/>
</linearGradient>
<radialGradient id="paint2_radial_1_10018" cx="0" cy="0" r="1" gradientUnits="userSpaceOnUse" gradientTransform="translate(299.609 111.711) scale(2.86716 2.7672)">
<stop stop-color="white"/>
<stop offset="1" stop-color="white" stop-opacity="0"/>
</radialGradient>
<radialGradient id="paint3_radial_1_10018" cx="0" cy="0" r="1" gradientUnits="userSpaceOnUse" gradientTransform="translate(301.145 119.004) scale(2.86716 2.7672)">
<stop stop-color="white"/>
<stop offset="1" stop-color="white" stop-opacity="0"/>
</radialGradient>
<radialGradient id="paint4_radial_1_10018" cx="0" cy="0" r="1" gradientUnits="userSpaceOnUse" gradientTransform="translate(332.639 106.127) scale(2.86716 2.7672)">
<stop stop-color="white"/>
<stop offset="1" stop-color="white" stop-opacity="0"/>
</radialGradient>
<radialGradient id="paint5_radial_1_10018" cx="0" cy="0" r="1" gradientUnits="userSpaceOnUse" gradientTransform="translate(333.479 115.317) scale(2.86716 2.7672)">
<stop stop-color="white"/>
<stop offset="1" stop-color="white" stop-opacity="0"/>
</radialGradient>
<radialGradient id="paint6_radial_1_10018" cx="0" cy="0" r="1" gradientUnits="userSpaceOnUse" gradientTransform="translate(348.988 66.2677) scale(4.85997 4.9203)">
<stop stop-color="white"/>
<stop offset="1" stop-color="white" stop-opacity="0"/>
</radialGradient>
<radialGradient id="paint7_radial_1_10018" cx="0" cy="0" r="1" gradientUnits="userSpaceOnUse" gradientTransform="translate(266.792 86.5389) scale(4.746 4.53006)">
<stop stop-color="white"/>
<stop offset="1" stop-color="white" stop-opacity="0"/>
</radialGradient>
<radialGradient id="paint8_radial_1_10018" cx="0" cy="0" r="1" gradientUnits="userSpaceOnUse" gradientTransform="translate(429.796 85.9478) scale(4.746 4.53006)">
<stop stop-color="white"/>
<stop offset="1" stop-color="white" stop-opacity="0"/>
</radialGradient>
<radialGradient id="paint9_radial_1_10018" cx="0" cy="0" r="1" gradientUnits="userSpaceOnUse" gradientTransform="translate(345.506 109.561) scale(4.6718 3.26496)">
<stop stop-color="white"/>
<stop offset="1" stop-color="white" stop-opacity="0"/>
</radialGradient>
<radialGradient id="paint10_radial_1_10018" cx="0" cy="0" r="1" gradientUnits="userSpaceOnUse" gradientTransform="translate(411.582 119.395) scale(4.6718 3.26496)">
<stop stop-color="white"/>
<stop offset="1" stop-color="white" stop-opacity="0"/>
</radialGradient>
<radialGradient id="paint11_radial_1_10018" cx="0" cy="0" r="1" gradientUnits="userSpaceOnUse" gradientTransform="translate(281.31 119.971) scale(4.6718 3.26496)">
<stop stop-color="white"/>
<stop offset="1" stop-color="white" stop-opacity="0"/>
</radialGradient>
<radialGradient id="paint12_radial_1_10018" cx="0" cy="0" r="1" gradientUnits="userSpaceOnUse" gradientTransform="translate(307.67 70.5165) rotate(-9.87595) scale(7.26927 10.979)">
<stop stop-color="white"/>
<stop offset="1" stop-color="white" stop-opacity="0"/>
</radialGradient>
<radialGradient id="paint13_radial_1_10018" cx="0" cy="0" r="1" gradientUnits="userSpaceOnUse" gradientTransform="translate(390.067 70.981) rotate(9.3419) scale(7.2694 10.9788)">
<stop stop-color="white"/>
<stop offset="1" stop-color="white" stop-opacity="0"/>
</radialGradient>
<radialGradient id="paint14_radial_1_10018" cx="0" cy="0" r="1" gradientUnits="userSpaceOnUse" gradientTransform="translate(366.606 108.637) scale(2.86716 2.7672)">
<stop stop-color="white"/>
<stop offset="1" stop-color="white" stop-opacity="0"/>
</radialGradient>
<radialGradient id="paint15_radial_1_10018" cx="0" cy="0" r="1" gradientUnits="userSpaceOnUse" gradientTransform="translate(365.766 116.305) scale(2.86716 2.7672)">
<stop stop-color="white"/>
<stop offset="1" stop-color="white" stop-opacity="0"/>
</radialGradient>
<radialGradient id="paint16_radial_1_10018" cx="0" cy="0" r="1" gradientUnits="userSpaceOnUse" gradientTransform="translate(396.479 112.557) scale(2.86716 2.7672)">
<stop stop-color="white"/>
<stop offset="1" stop-color="white" stop-opacity="0"/>
</radialGradient>
<radialGradient id="paint17_radial_1_10018" cx="0" cy="0" r="1" gradientUnits="userSpaceOnUse" gradientTransform="translate(394.799 119.714) scale(2.86716 2.7672)">
<stop stop-color="white"/>
<stop offset="1" stop-color="white" stop-opacity="0"/>
</radialGradient>
</defs>
</svg>
