<svg width="600" height="400" viewBox="0 0 600 400" fill="none" xmlns="http://www.w3.org/2000/svg" xmlns:cgf="https://coding.garden/flags"><metadata id="cgf-metadata">

<cgf:flag>
  <cgf:name>Reimerswaal</cgf:name>
  <cgf:route>nl/ze/reimerswaal</cgf:route>
  <cgf:aspect-ratio>1.5</cgf:aspect-ratio>
</cgf:flag>

</metadata><g clip-path="url(#clip0_1_10249)">
<rect width="600" height="400" fill="#CC112F"/>
<path d="M0 125C27.3504 125 34.188 142.094 61.5385 142.094C88.8889 142.094 95.7265 125 123.077 125C150.427 125 157.265 142.094 184.615 142.094C211.966 142.094 218.803 125 246.154 125C273.504 125 280.342 142.094 307.692 142.094C335.043 142.094 341.88 125 369.231 125C396.581 125 403.419 142.094 430.769 142.094C458.12 142.094 464.957 125 492.308 125C519.658 125 526.496 142.094 553.846 142.094C581.197 142.094 590.5 134.38 600 128.88V266.88H0" fill="white"/>
<path d="M0 161C27.3504 161 34.188 178.094 61.5385 178.094C88.8889 178.094 95.7265 161 123.077 161C150.427 161 157.265 178.094 184.615 178.094C211.966 178.094 218.803 161 246.154 161C273.504 161 280.342 178.094 307.692 178.094C335.043 178.094 341.88 161 369.231 161C396.581 161 403.419 178.094 430.769 178.094C458.12 178.094 464.957 161 492.308 161C519.658 161 526.496 178.094 553.846 178.094C581.197 178.094 590.5 170.38 600 164.88V302.88H0" fill="#0039A6"/>
<path d="M0 214C27.3504 214 34.188 231.094 61.5385 231.094C88.8889 231.094 95.7265 214 123.077 214C150.427 214 157.265 231.094 184.615 231.094C211.966 231.094 218.803 214 246.154 214C273.504 214 280.342 231.094 307.692 231.094C335.043 231.094 341.88 214 369.231 214C396.581 214 403.419 231.094 430.769 231.094C458.12 231.094 464.957 214 492.308 214C519.658 214 526.496 231.094 553.846 231.094C581.197 231.094 590.5 223.38 600 217.88V355.88H0" fill="white"/>
<path d="M0 258.12C27.3504 258.12 34.188 275.214 61.5385 275.214C88.8889 275.214 95.7265 258.12 123.077 258.12C150.427 258.12 157.265 275.214 184.615 275.214C211.966 275.214 218.803 258.12 246.154 258.12C273.504 258.12 280.342 275.214 307.692 275.214C335.043 275.214 341.88 258.12 369.231 258.12C396.581 258.12 403.419 275.214 430.769 275.214C458.12 275.214 464.957 258.12 492.308 258.12C519.658 258.12 526.496 275.214 553.846 275.214C581.197 275.214 590.5 267.5 600 262V400H0" fill="#CC112F"/>
<path d="M123 258V125C123 125 120 124.5 110 126.5C100 128.5 85 137 85 137C85 137 85.5002 258.5 85.5 270C97 264.5 99.4566 262.877 107.5 260.5C114.519 258.426 123 258 123 258Z" fill="black"/>
<rect x="123" y="120" width="153" height="165" fill="#CC112F"/>
<path d="M314 275V141.753C314 141.753 301.5 142.5 292.5 140C284.743 137.845 276 133 276 133V266.5C276 266.5 287.959 272.826 295.5 274.5C302.956 276.155 314 275 314 275Z" fill="black"/>
<path d="M233.516 244C234.594 242.344 236.178 241.08 238.033 240.398C239.887 239.715 241.913 239.65 243.807 240.212C245.701 240.774 247.363 241.933 248.545 243.517C249.727 245.101 250.366 247.024 250.366 249C250.366 250.976 249.727 252.899 248.545 254.483C247.363 256.066 245.701 257.226 243.807 257.788C241.913 258.35 239.887 258.285 238.033 257.602C236.178 256.92 234.594 255.656 233.516 254H166.85C165.772 255.656 164.188 256.92 162.333 257.602C160.479 258.285 158.453 258.35 156.559 257.788C154.664 257.226 153.002 256.066 151.821 254.483C150.639 252.899 150 250.976 150 249C150 247.024 150.639 245.101 151.821 243.517C153.002 241.933 154.664 240.774 156.559 240.212C158.453 239.65 160.479 239.715 162.333 240.398C164.188 241.08 165.772 242.344 166.85 244H233.516ZM188.516 257.333C189.669 256.291 191.36 255.423 193.411 254.818C195.463 254.213 197.801 253.894 200.183 253.894C202.565 253.894 204.903 254.213 206.955 254.818C209.006 255.423 210.697 256.291 211.85 257.333V296.5L204.35 319C208.504 320.019 212.142 322.524 214.576 326.042C217.009 329.56 218.07 333.848 217.557 338.095C217.044 342.342 214.993 346.254 211.792 349.092C208.591 351.93 204.461 353.497 200.183 353.497C195.905 353.497 191.775 351.93 188.574 349.092C185.373 346.254 183.322 342.342 182.809 338.095C182.296 333.848 183.357 329.56 185.79 326.042C188.224 322.524 191.861 320.019 196.016 319L188.516 296.5V257.333Z" fill="#FCCC00"/>
<path d="M185.183 242.333H215.183L211.016 59.8333L200.183 39L189.349 59.8333L185.183 242.333Z" fill="white"/>
</g>
<defs>
<clipPath id="clip0_1_10249">
<rect width="600" height="400" fill="white"/>
</clipPath>
</defs>
</svg>
