<svg width="600" height="400" viewBox="0 0 600 400" fill="none" xmlns="http://www.w3.org/2000/svg" xmlns:cgf="https://coding.garden/flags"><metadata id="cgf-metadata">

<cgf:flag>
  <cgf:name>Schouwen-Duiveland</cgf:name>
  <cgf:route>nl/ze/schouwen_duiveland</cgf:route>
  <cgf:aspect-ratio>1.5</cgf:aspect-ratio>
</cgf:flag>

</metadata><g clip-path="url(#clip0_1_10261)">
<path d="M600 0H0V81.5837H600V0Z" fill="#FEED07"/>
<path d="M600 81.5837H0V324.317H600V81.5837Z" fill="#2761F3"/>
<path d="M-7.06738 200.331L-6.62333 324.317L609.273 320.825L608.829 202.077C571.233 180.839 533.637 182.617 496.041 198.585C451.932 226.884 407.823 231.545 363.714 203.824C320.41 177.337 278.542 181.176 237.604 204.697C198.006 231.614 159.237 225.913 120.819 206.443C82.0406 178.447 39.9914 172.503 -7.06738 200.331Z" fill="white"/>
<path d="M600 320.771H0V400H600V320.771Z" fill="black" stroke="black" stroke-width="1.03576"/>
<path d="M107.942 197.93C103.399 206.3 98.5985 214.538 106.166 229.145C109.151 233.841 112.275 238.4 118.382 245.512C120.692 248.201 122.342 250.298 124.372 252.719C127.203 263.118 128.552 273.614 122.595 284.589C114 293.595 104.178 294.54 93.9542 282.843C89.5013 276.905 91.3437 268.99 93.7321 265.162C102.242 253.055 103.94 243.291 100.615 235.257C95.5768 225.361 93.8862 215.465 95.9524 205.57C83.7974 214.048 78.652 230.795 75.3041 249.663C66.1108 243.435 50.5512 230.067 30.4551 242.242C34.0075 244.478 37.5599 245.558 41.1123 251.628C44.4268 257.962 50.1908 264.206 69.3094 269.964C80.0215 283.463 89.3161 299.748 105.055 303.362C122.167 305.774 136.99 301.25 147.018 282.188C162.589 254.001 143.002 230.635 132.586 211.464C122.59 208.266 115.759 202.735 107.942 197.93Z" fill="#2761F3"/>
<path d="M253.935 196.651C258.478 205.021 265.055 215.223 257.488 229.83C254.502 234.526 251.378 239.086 245.271 246.197C242.961 248.886 241.089 252.074 240.392 254.169C237.322 261.046 234.521 271.862 240.503 283.201C249.098 292.207 259.475 295.226 269.699 283.528C274.152 277.591 272.309 269.676 269.921 265.847C261.411 253.74 259.713 243.977 263.038 235.942C268.076 226.046 267.883 217.694 265.817 207.799C278.264 216.219 288.424 230.808 288.349 250.349C297.542 244.12 314.986 231.061 335.082 243.236C331.53 245.472 330.385 242.024 322.541 252.313C319.226 258.647 313.462 264.891 294.344 270.649C283.632 284.148 274.337 300.434 258.598 304.047C241.486 306.459 226.663 301.936 216.635 282.873C201.064 254.686 220.651 228.155 231.067 208.984C239.143 203.411 245.147 200.09 253.935 196.651Z" fill="#2761F3"/>
<path d="M108.015 197.965C110.364 192.563 109.749 187.161 108.8 181.759C106.556 173.263 104.207 164.871 104.404 153.975C104.01 146.539 108.742 144.143 110.998 139.312L110.841 134.064C120.16 133.503 121.273 125.568 115.394 120.79C112.173 118.422 116.947 115.047 117.555 118.883C119.316 119.8 120.986 119.151 121.831 117.394C121.597 113.356 123.076 110.485 128.267 110.14C129.209 111.015 130.151 111.971 131.093 114.461C131.211 115.844 131.941 117.327 129.68 118.32L129.994 120.944C131.326 122.767 137.003 125.703 129.523 125.266L129.209 128.662C129.879 129.845 130.976 131.029 128.424 132.212C125.912 133.614 123.4 131.885 120.889 130.514L120.104 131.594L122.929 134.218C123.325 139.044 123.409 143.786 128.267 149.808C132.11 155.961 137.534 161.67 132.977 170.182L128.738 165.706L123.557 153.667H122.458L127.168 167.558C131.792 171.555 136.539 175.397 138.315 182.993L139.571 185.772C148.258 183.376 156.945 183.186 165.632 184.074C172.511 179.516 179.151 176.836 184.786 182.067L179.291 185.772C175.853 185.604 173.835 187.298 171.598 188.704C168.144 189.01 164.69 190.626 161.236 192.563L148.991 197.039C143.81 198.346 138.629 198.768 133.448 198.428C122.56 190.096 115.868 178.772 112.097 165.089L111.626 159.995H110.37V166.169C115.018 179.667 121.904 191.404 132.82 199.972L132.349 211.703C123.83 207.925 115.697 203.389 108.015 197.965V197.965Z" fill="white"/>
<path d="M123.15 120.384C124.744 120.266 126.911 118.954 127.702 117.874V118.833L126.869 119.514V121.093C126.705 121.443 126.14 122.044 125.593 121.203C125.593 120.784 125.573 121.364 125.573 120.237C124.86 120.737 123.617 120.903 123.317 120.984L123.15 120.384H123.15Z" fill="#265EEF"/>
<path d="M127.247 108.75C123.299 108.354 121.182 111.142 119.947 115.465C121.681 118.997 117.794 117.765 118.063 116.545C116.897 115.306 111.289 115.261 113.117 120.095C114.177 124.326 122.609 129.334 112.411 132.443C111.539 132.973 110.469 133.131 108.565 132.443C103.005 125.594 104.352 110.516 107.23 106.744C109.898 101.565 122.393 97.8933 128.424 105.663C128.583 106.692 130.881 107.721 127.247 108.75V108.75Z" fill="white"/>
<path d="M184.472 179.443L187.454 182.53L180.39 187.007C185.57 189.476 190.751 188.68 195.932 188.396C203.612 193.45 213.37 196.462 222.621 199.972H229.843C238.825 193.011 250.427 176.896 253.549 162.002C254.937 154.417 254.822 148.51 248.84 141.319C245.249 135.968 245.15 130.617 245.7 125.266C247.154 118.346 248.277 111.549 237.85 109.059C236.732 111.597 236.406 114.291 237.379 117.24C236.694 119.863 228.101 124.579 237.065 124.649C235.912 132.987 239.75 131.511 243.031 131.131C243.197 146.794 236.524 157.653 224.976 165.089C218.561 168.793 224.253 172.498 227.802 176.202L227.331 184.383L235.181 166.632C237.861 160.776 239.389 159.448 241.304 156.599L242.56 157.989C238.921 161.821 236.734 166.509 235.181 171.571L226.86 187.624C218.973 184.048 210.664 184.201 202.369 184.228C196.403 182.525 190.437 178.209 184.472 179.443V179.443Z" fill="white"/>
<path d="M243.109 117.254C241.516 117.137 239.348 115.824 238.558 114.744V115.703L239.39 116.384V117.964C239.555 118.313 240.119 118.915 240.667 118.073C240.667 117.655 240.686 118.234 240.686 117.107C241.4 117.607 242.642 117.774 242.943 117.855L243.109 117.254H243.109Z" fill="#265EEF"/>
<path d="M231.57 208.461L230.785 200.744C240.797 193.66 247.286 183.112 252.294 171.108L256.532 179.135C251.354 182.397 252.307 189.426 253.706 196.731C245.471 199.799 238.596 204.204 231.57 208.461V208.461Z" fill="white"/>
<path d="M238.164 106.435C244.68 108.902 249.823 112.313 248.055 120.481C246.815 126.81 245.211 133.138 250.881 139.466C257.365 146.669 256.293 153.872 255.905 161.076C251.026 170.271 256.165 183.767 269.406 183.611C265.77 176.284 266.014 169.592 267.365 163.082C269.169 155.651 267.958 149.836 265.167 144.869C262.612 136.315 264.47 129.106 265.01 123.568C268.232 107.645 246.083 89.6728 238.164 106.435V106.435Z" fill="white"/>
</g>
<defs>
<clipPath id="clip0_1_10261">
<rect width="600" height="400" fill="white"/>
</clipPath>
</defs>
</svg>
