<svg width="600" height="400" viewBox="0 0 600 400" fill="none" xmlns="http://www.w3.org/2000/svg" xmlns:cgf="https://coding.garden/flags"><metadata id="cgf-metadata">

<cgf:flag>
  <cgf:name>Terneuzen</cgf:name>
  <cgf:route>nl/ze/terneuzen</cgf:route>
  <cgf:aspect-ratio>1.5</cgf:aspect-ratio>
</cgf:flag>

</metadata><g clip-path="url(#clip0_1_10275)">
<path d="M2.32422 0.874973V400.266L599.333 399.969V0.874878H2.32422V0.874973Z" fill="#F9F9F9"/>
<path d="M-0.607422 0.630249V44.5076L202.314 44.2464L202.113 0.630249H-0.607347H-0.607422Z" fill="#D40000"/>
<path d="M-0.140625 89.1086V132.986L202.781 132.725L202.579 89.1086H-0.14055H-0.140625Z" fill="#D40000"/>
<path d="M-0.607422 177.587V221.464L202.314 221.203L202.113 177.587H-0.607347H-0.607422Z" fill="#D40000"/>
<path d="M0.890625 356.082V399.602L601.744 399.342L601.147 356.082H0.890846H0.890625Z" fill="#004FB9"/>
<path d="M331.924 110.242L322.262 93.6522C308.866 74.3697 304.348 85.0972 297.415 87.6615C290.264 87.499 281.995 80.0609 278.09 101.026C272.216 108.706 271.161 116.387 280.851 124.067L293.734 134.666C298.586 136.998 303.663 137.98 309.378 135.127L318.581 144.804C311.357 155.638 313.242 164.19 316.28 172.454C317.779 178.268 314.861 181.133 311.219 183.514C318.947 186.694 321.378 180.324 325.022 176.141C330.697 179.211 336.372 177.734 342.047 174.758C336.23 182.98 331.75 200.231 322.722 186.74C320.333 189.351 319.466 191.963 322.262 194.574C317.2 195.305 312.139 199.198 307.078 204.251C298.141 215.017 292.97 209.447 290.973 207.016C287.223 186.562 281.682 189.438 276.249 190.887L263.826 195.956L261.525 200.104L262.446 226.371L270.268 237.892C279.5 248.671 285.575 240.478 292.354 236.509C295.713 240.84 299.947 243.419 308.458 237.431C310 241.425 306.477 245.419 302.936 249.413C310.487 250.127 315.715 247.185 317.2 238.353C318.491 228.255 326.788 229.385 331.924 225.449C329.947 230.365 329.061 235.28 330.544 240.196C334.789 230.915 341.72 227.911 348.489 224.528C347.457 228.675 346.227 232.823 349.409 236.97C354.77 226.351 360.468 216.038 375.176 213.929C380.095 223.453 385.682 232.976 394.041 242.5L414.286 267.385L475.022 266.924C450.227 245.542 447.341 223.738 467.66 201.486C477.023 183.07 491.506 176.617 495.728 146.187C500.035 142.205 501.223 135.101 500.329 125.91C502.936 127.724 505.544 129.35 508.151 127.754C500.094 123.547 497.896 116.993 498.489 109.32C499.399 95.5184 496.279 90.7975 493.887 84.4356C514.796 50.8565 484.313 64.2724 468.12 64.62C466.513 60.0813 461.636 57.054 448.795 57.7075C439.752 57.0251 430.542 56.0918 424.869 60.4725L406.464 70.6108H400.482V76.6015L403.243 77.5232C403.817 83.6104 399.728 92.0329 406.464 95.0347L408.535 98.8366L409.34 94.5739L411.755 94.9195L414.401 99.067L415.091 94.3435C425.555 88.6028 431.769 88.6664 432.691 95.9564C443.447 125.068 430.202 116.555 422.108 116.118L419.693 114.505L418.887 110.127L416.932 114.159L416.242 116.463H413.826L413.711 113.468L413.941 110.818L411.18 113.122L410.835 116.233L407.039 116.579L406.004 119.689C405.494 129.486 399.69 129.859 391.395 125.795C398.676 142.6 412.175 128.265 423.374 125.449C438.122 126.987 440.004 137.013 431.081 139.159C406.083 136.212 381.608 133.835 365.973 141.118C356.85 145.185 354.192 137.595 348.949 134.666C344.552 120.765 337.937 116.859 331.924 110.242V110.242Z" fill="#D40000"/>
<path d="M262.399 199.925C252.734 200.393 248.151 205.104 248.897 214.262C252.55 211.616 256.811 209.985 263.05 211.655C266.487 207.362 266.572 202.211 262.399 199.925Z" fill="#004FB9"/>
<path d="M269.713 225.193C260.048 225.662 255.465 230.373 256.211 239.531C259.864 236.885 264.126 235.254 270.364 236.924C273.801 232.63 273.886 227.48 269.713 225.193Z" fill="#004FB9"/>
<path d="M275.608 189.672C268.748 182.836 262.185 182.62 255.932 189.344C260.345 190.264 264.42 192.318 267.393 198.06C272.876 197.709 276.733 194.301 275.608 189.672Z" fill="#004FB9"/>
<path d="M290.887 99.0595C288.579 108.471 291.78 114.214 300.757 116.11C299.267 111.849 298.921 107.293 302.299 101.781C299.17 97.2565 294.265 95.7059 290.887 99.0595V99.0595Z" fill="#004FB9"/>
<path d="M301.985 92.8625C297.928 101.661 299.978 107.91 308.43 111.484C307.778 107.017 308.306 102.479 312.67 97.7118C310.459 92.6734 305.94 90.2152 301.985 92.8625V92.8625Z" fill="#004FB9"/>
<path d="M278.318 114.86C280.152 124.376 285.458 128.252 294.404 126.214C291.271 122.967 289.055 118.974 289.821 112.552C285.089 109.753 279.987 110.399 278.318 114.86V114.86Z" fill="#004FB9"/>
<path d="M298.104 111.394L278.319 129.136L272.337 135.588L283.38 147.8C289.384 159.051 279.551 169.441 269.577 161.855C264.042 159.355 259.644 154.005 255.313 148.491C247.439 137.34 253.315 127.141 268.887 132.823L273.718 136.74L279.469 129.827C271.734 126.419 267.04 120.031 256.003 122.684C250.503 124.108 246.629 126.794 245.42 131.901C236.619 154.135 271.364 176.68 280.16 170.611C283.692 170.761 289.221 167.956 292.813 159.551C295.854 152.254 291.829 144.958 286.371 137.661L305.236 119.92L298.104 111.394Z" fill="#004FB9"/>
<path d="M320.649 91.1177L321.57 87.2006L307.996 73.3757L313.518 67.3849L321.11 74.7582L324.561 71.0716L320.189 65.5416L324.561 60.7029L329.852 66.0025L334.223 61.6246L327.091 54.7121L333.993 47.3389L356.079 70.3803L325.711 99.4126L320.649 91.1177Z" fill="#004FB9"/>
<path d="M436.602 111.394C431.071 106.745 425.012 103.02 417.046 102.638L392.43 102.408C383.666 99.9857 379.053 92.813 374.485 85.5878C370.584 79.8218 366.103 78.7066 361.602 77.7537C364.78 82.386 368.408 86.4924 368.043 95.2652C368.187 101.299 373.049 107.388 384.378 108.629L424.178 107.708L436.832 113.468L436.602 111.394Z" fill="#004FB9"/>
<path d="M319.041 90.196C306.974 82.6617 300.562 87.3984 295.805 95.726" stroke="black"/>
<path d="M299.254 90.1961C284.042 87.1112 280.989 93.8468 284.761 106.095" stroke="black"/>
<path d="M280.39 104.021C277.406 106.486 275.563 110.093 276.248 116.233" stroke="black"/>
<path d="M311.217 94.5739L311.677 104.251C307.311 110.319 304.189 116.387 311.907 122.454C305.131 124.735 300.585 128.929 298.104 134.896" stroke="black"/>
<path d="M320.881 105.864C322.291 111.701 323.074 117.539 331.004 123.376C340.459 131.517 343.339 139.658 347.568 147.8" stroke="black"/>
<path d="M315.129 132.592C323.99 140.196 326.053 147.8 322.031 155.403C315.579 161.472 320.569 165.904 322.031 170.841" stroke="black"/>
<path d="M365.052 157.938C365.052 157.938 349.868 181.44 348.718 181.901C347.567 182.362 333.073 195.956 333.073 195.956C322.242 195.654 319.324 201.296 315.589 206.325C308.764 217.583 301.938 216.147 295.113 214.159" stroke="black"/>
<path d="M322.721 218.998C332.906 216.191 341.675 209.128 349.408 198.952L370.343 174.528" stroke="black"/>
<path d="M275.789 193.191C280.264 193.175 284.54 193.705 286.602 200.334" stroke="black"/>
<path d="M265.665 198.03C269.936 203.833 274.452 209.646 264.975 214.85" stroke="black"/>
<path d="M262.445 218.767C273.683 221.086 280.348 226.798 275.099 241.348" stroke="black"/>
<path d="M281.08 209.32C282.537 213.545 283.241 218.523 291.203 216.233" stroke="black"/>
<path d="M308.457 247.8C311.88 244.74 313.612 241.256 312.138 236.97C310.799 230.69 315.266 229.497 318.58 227.293" stroke="black"/>
<path d="M332.205 232.351C336.188 230.07 338.607 227.024 338.055 222.525C338.049 216.102 342.667 215.866 346.365 214.401" stroke="black"/>
<path d="M350.412 227.347C354.205 224.762 356.379 221.536 355.477 217.094C354.971 210.691 359.556 210.095 363.129 208.344" stroke="black"/>
<path d="M352.859 213.468C361.489 206.922 372.681 200.547 372.645 193.422C374.956 182.253 385.101 177.722 395.191 173.145" stroke="black"/>
<path d="M404.394 173.376C381.434 199.32 389.381 223.919 408.535 248.03" stroke="black"/>
<path d="M435.68 189.044C408.883 197.464 403.668 211.963 416.125 231.44L432.46 266.924" stroke="black"/>
<path d="M441.893 204.943C423.066 221.244 444.933 243.748 451.555 263.929" stroke="black"/>
<path d="M452.937 207.247C453.593 211.394 453.185 215.542 450.176 219.689" stroke="black"/>
<path d="M472.031 171.302C475.265 176.257 471.646 184.072 467.66 192.039" stroke="black"/>
<path d="M484.176 154.943C487.41 159.898 483.791 167.712 479.805 175.68" stroke="black"/>
<path d="M488.02 137.688C492.628 141.394 491.608 149.947 490.286 158.76" stroke="black"/>
<path d="M489.816 119.597C494.896 122.623 495.077 131.235 494.996 140.147" stroke="black"/>
<path d="M491.635 99.6431C488.401 104.598 492.02 112.413 496.006 120.38" stroke="black"/>
<path d="M476.402 114.62C471.566 116.384 472.681 120.703 476.402 126.141" stroke="black"/>
<path d="M463.289 129.136L461.908 140.887" stroke="black"/>
<path d="M461.678 119.92C458.294 125.982 455.326 133.917 453.166 145.496" stroke="black"/>
<path d="M461.678 104.943C460.893 110.319 460.66 115.695 454.546 121.072C449.45 124.818 449.886 131.334 449.484 137.431" stroke="black"/>
<path d="M397.098 130.192C402.429 130.935 406.399 129.708 407.834 124.815" stroke="black"/>
<path d="M408.484 118.95C413.14 121.864 417.602 121.464 421.824 116.994" stroke="black"/>
<path d="M437.115 93.5327C439.92 102.602 442.235 111.672 439.067 120.742" stroke="black"/>
<path d="M422.148 71.2117C422.203 71.2117 422.257 71.2117 422.311 71.2117" stroke="black"/>
<path d="M422.718 70.397H420.604V72.3521H422.718V70.397Z" fill="black"/>
<path d="M418.49 71.5375H416.375V73.4926H418.49V71.5375Z" fill="black"/>
<path d="M426.461 70.2341H424.346V72.1892H426.461V70.2341Z" fill="black"/>
<path d="M424.507 71.8633H422.393V73.8185H424.507V71.8633Z" fill="black"/>
<path d="M421.091 73.9814H418.977V75.9365H421.091V73.9814Z" fill="black"/>
<path d="M426.461 74.1443H424.346V76.0995H426.461V74.1443Z" fill="black"/>
<path d="M423.857 75.7736H421.742V77.7288H423.857V75.7736Z" fill="black"/>
<path d="M403.588 75.3343V72.3389H407.844L430.275 59.6661C430.275 59.6661 444.539 60.2421 444.999 59.8965C445.459 59.5509 460.758 60.9334 460.758 60.9334C462.648 60.5549 467.072 67.3876 466.395 67.6154C465.958 67.7621 496.763 65.3112 496.763 65.3112C498.716 66.8139 498.523 69.8805 497.108 73.8366" stroke="black"/>
<path d="M431.08 64.5048L441.893 64.1592L454.891 76.4864L459.953 76.832" stroke="black"/>
<path d="M440.569 70.2652L438.499 68.537L437.521 68.5947L435.853 70.5532L434.99 73.7214L435.738 77.4656L437.693 79.4241H444.595L446.091 77.5808L446.378 75.5647L445.401 74.355L443.848 74.067L443.157 74.8158L442.237 75.9679L441.087 76.3135L439.361 75.7375C439.361 75.7375 438.786 75.0463 438.844 74.643C438.901 74.2398 439.246 72.5117 439.246 72.5117L440.684 71.8781L441.087 71.1868L440.569 70.2652Z" fill="black"/>
<path d="M404.969 91.6938L405.084 78.7905" stroke="black"/>
<path d="M508.531 268.354C502.158 260.237 495.274 260.297 488.034 266.073C487.073 258.046 489.902 252.731 501.048 253.365C484.711 240.874 485.426 228.383 496.818 215.892C493.172 223.928 492.616 231.302 501.048 236.746C504.065 219.417 512.776 199.592 503 187.868C496.421 176.692 496.708 163.953 509.182 148.439C526.581 136.715 535.813 120.083 535.861 97.9318C548.882 110.314 544.936 122.697 540.091 135.079C553.962 126.985 558.536 116.562 555.057 104.123C568.547 121.828 556.645 139.533 548.55 157.238C557.394 152.988 562.178 142.232 566.77 131.169C566.404 153.668 565.939 176.135 538.464 190.149C514.05 204.498 511.869 223.875 514.062 244.241L522.196 250.106C520.21 239.766 516.307 228.893 529.354 222.735C536.861 209.806 543.129 214.235 549.851 212.307C541.436 217.787 538.428 223.99 543.019 231.207C550.06 226.546 556.948 218.214 564.818 233.488C561.08 234.03 553.98 228.319 555.708 239.027C555.579 248.586 558.606 258.144 552.129 267.703L508.531 268.354V268.354Z" fill="#D40000"/>
<path d="M539.44 107.056C543.145 125.006 529.559 137.488 517.316 150.395C502.54 163.368 501.629 177.829 511.134 193.408C513.76 205.029 509.033 221.253 504.952 237.072" stroke="black"/>
<path d="M558.31 116.18C559.516 128.128 550.898 140.076 536.511 152.024C522.475 163.933 516.4 180.094 515.363 198.947V198.295" stroke="black"/>
<path d="M564.975 142.5C562.492 160.248 550.468 173.426 533.917 184.436C513.052 199.956 511.452 221.7 509.07 243.191" stroke="black"/>
<path d="M492.736 223.376C491.276 228.579 489.527 233.623 493.427 241.809H493.657" stroke="black"/>
<path d="M498.719 237.431C506.536 242.577 510.433 247.723 512.752 252.869C517.277 260.263 521.802 261.522 526.326 261.625" stroke="black"/>
<path d="M491.816 260.012C499.802 255.495 506.837 256.695 512.982 263.238" stroke="black"/>
<path d="M530.006 264.85C536.872 252.091 532.378 238.296 533.227 224.989C532.824 220.087 537.359 217.304 541.049 214.159" stroke="black"/>
<path d="M560.145 229.597C551.283 228.325 546.012 230.649 546.341 238.583C549.389 253.231 544.657 256.842 540.59 261.394" stroke="black"/>
<path d="M528.856 227.293C524.264 232.335 521.26 238.514 525.175 249.643L524.255 248.03" stroke="black"/>
<path d="M0.201172 264.842V308.362L601.055 308.103L600.458 264.842H0.201393H0.201172Z" fill="#004FB9"/>
<path d="M352.027 138.091C353.423 155.848 364.247 151.573 374.573 148.459C386.713 141.029 385.994 148.232 384.926 155.833C379.123 183.166 397.367 161.37 405.172 160.902C416.831 156.977 436.015 143.929 425.877 166.432C415.023 191.016 423.592 191.091 443.362 177.031C455.599 165.686 458.132 171.127 456.935 183.022C454.554 197.566 452.797 211.298 468.438 202.376" stroke="black"/>
<path d="M357.318 140.016C361.503 152.187 369.894 144.029 379.634 142.09C391.774 134.659 391.055 141.863 389.987 149.463C383.047 176.455 401.894 154.783 410.232 154.532C421.892 150.607 442.227 139.403 432.088 161.905C421.235 186.49 426.582 183.108 446.352 169.048C458.589 157.703 463.193 164.757 461.996 176.652C459.615 191.196 457.858 204.928 473.499 196.007" stroke="black"/>
</g>
<defs>
<clipPath id="clip0_1_10275">
<rect width="600" height="400" fill="white"/>
</clipPath>
</defs>
</svg>
