<svg width="600" height="400" viewBox="0 0 600 400" fill="none" xmlns="http://www.w3.org/2000/svg" xmlns:cgf="https://coding.garden/flags"><metadata id="cgf-metadata">

<cgf:flag>
  <cgf:name>Veere</cgf:name>
  <cgf:route>nl/ze/veere</cgf:route>
  <cgf:aspect-ratio>1.5</cgf:aspect-ratio>
</cgf:flag>

</metadata><g clip-path="url(#clip0_1_10464)">
<path d="M600 0H0V400H600V0Z" fill="white"/>
<path d="M563.798 52.1984H40.248V268.176H563.798V52.1984Z" fill="url(#paint0_linear_1_10464)"/>
<path d="M563.706 116.071H40.248V355.306H563.706V116.071Z" fill="url(#paint1_linear_1_10464)"/>
<path d="M0 237.273C40.7471 237.593 67.8251 237.196 85.8771 235.9C154.94 231.064 103.486 221.257 135.383 210.609C210.644 185.44 265.201 173.093 294.889 166.8C384.565 147.718 266.439 105.564 370.586 120.573C432.53 129.528 566.548 199.718 590.742 222.475L590.615 218.877C566.098 195.805 430.8 125.615 370.586 117.584C261.261 102.986 376.608 144.133 294.889 164.344C265.461 171.598 209.54 182.618 135.383 207.466C96.4086 220.577 150.832 228.12 85.7012 233.925C68.3527 235.457 41.718 236.785 0 237.273Z" fill="black" stroke="black" stroke-width="0.068"/>
<path d="M316.564 130.419H299.666V257.849H316.564V130.419Z" fill="black"/>
<path d="M285.061 130.419H272.539V238.209H285.061V130.419Z" fill="black"/>
<path d="M260.593 130.336H249.668V224.124H260.593V130.336Z" fill="black"/>
<path d="M238.974 134.043H229.814V212.662H238.974V134.043Z" fill="black"/>
<path d="M222.244 139.527H214.541V205.523H222.244V139.527Z" fill="black"/>
<path d="M207.73 146.39H201.314V201.411H207.73V146.39Z" fill="black"/>
<path d="M195.905 153.491H190.643V198.871H195.905V153.491Z" fill="black"/>
<path d="M186.668 159.418H182.201V197.62H186.668V159.418Z" fill="black"/>
<path d="M179.366 164.985H175.693V196.735H179.366V164.985Z" fill="black"/>
<path d="M173.259 170.912H170.164V197.575H173.259V170.912Z" fill="black"/>
<path d="M168.074 176.922H165.514V199.147H168.074V176.922Z" fill="black"/>
<path d="M163.573 181.36H161.314V200.526H163.573V181.36Z" fill="black"/>
<path d="M159.407 185.113H157.508V201.527H159.407V185.113Z" fill="black"/>
<path d="M112.252 311.741V314.121C108.973 314.685 106.497 315.66 104.816 317.033C102.381 319.124 100.257 322.312 98.3996 326.584L66.1016 400H63.576L28.8931 325.615C27.1273 321.824 25.8891 319.483 25.1364 318.636C24.0319 317.302 22.6108 316.295 20.9364 315.57C19.2902 314.807 17.032 314.32 14.2461 314.114V311.735H52.0315V314.114C47.7823 314.48 44.9964 315.166 43.716 316.135C42.4286 317.103 41.8095 318.393 41.8095 319.887C41.8095 322.023 42.8788 325.333 44.9542 329.848L68.4935 380.392L90.3515 330.458C92.469 325.538 93.5384 322.106 93.5384 320.208C93.5384 319.002 92.8771 317.79 91.5896 316.693C90.26 315.57 88.0088 314.762 84.8641 314.32C84.639 314.281 84.245 314.198 83.7104 314.114V311.735H112.252V311.741Z" fill="black"/>
<path d="M178.127 316.462V350.592H198.48C203.742 350.592 207.281 349.822 209.053 348.372C211.396 346.39 212.775 342.965 213.035 338.039H215.561V368.051H213.035C212.367 363.863 211.748 361.156 211.086 359.988C210.292 358.494 208.962 357.32 207.062 356.518C205.198 355.672 202.328 355.223 198.48 355.223H178.127V383.663C178.127 387.46 178.303 389.795 178.662 390.642C179.056 391.45 179.675 392.091 180.604 392.617C181.49 393.105 183.214 393.349 185.781 393.349H201.484C206.704 393.349 210.51 392.983 212.859 392.335C215.251 391.655 217.502 390.283 219.711 388.301C222.504 385.684 225.424 381.732 228.386 376.402H231.129L223.123 398.024H151.795V395.683H155.08C157.24 395.683 159.322 395.202 161.271 394.234C162.727 393.547 163.705 392.54 164.233 391.168C164.768 389.834 165.028 387.011 165.028 382.816V326.789C165.028 321.298 164.409 317.912 163.255 316.661C161.623 314.967 158.879 314.121 155.08 314.121H151.795V311.741H223.123L224.137 330.656H221.484C220.513 326.102 219.493 322.992 218.297 321.298C217.151 319.605 215.42 318.316 213.169 317.43C211.312 316.783 208.125 316.462 203.524 316.462H178.127Z" fill="black"/>
<path d="M298.47 316.462L298.428 350.592H318.773C324.042 350.592 327.63 349.822 329.354 348.372C331.739 346.39 333.068 342.965 333.336 338.039H335.854V368.051H333.336C332.716 363.863 332.055 361.156 331.429 359.988C330.592 358.494 329.255 357.32 327.405 356.518C325.541 355.672 322.621 355.223 318.766 355.223H298.428V383.663C298.428 387.46 298.646 389.795 299.004 390.642C299.356 391.45 300.017 392.091 300.904 392.617C301.79 393.105 303.556 393.349 306.082 393.349H321.791C327.004 393.349 330.845 392.983 333.195 392.335C335.538 391.655 337.838 390.283 340.019 388.301C342.805 385.684 345.724 381.732 348.686 376.402H351.43L343.417 398.024H272.145V395.683H275.423C277.59 395.683 279.665 395.202 281.614 394.234C283.07 393.547 284.097 392.54 284.576 391.168C285.11 389.834 285.378 387.011 285.378 382.816V326.789C285.378 321.298 284.758 317.912 283.605 316.661C281.973 314.967 279.222 314.121 275.423 314.121H272.145V311.741H343.424L344.451 330.656H341.792C340.863 326.102 339.801 322.992 338.647 321.298C337.458 319.605 335.735 318.316 333.476 317.43C331.661 316.783 328.432 316.462 323.831 316.462H298.47Z" fill="black"/>
<path d="M433.593 316.943C437.49 317.629 440.768 319.201 443.413 321.657C447.037 325.012 448.845 329.406 448.845 334.774C448.845 340.297 446.6 344.857 442.077 348.411C439.819 350.22 436.99 351.554 433.585 352.439C430.265 353.331 426.459 353.728 422.125 353.728H420.571C419.909 353.69 419.164 353.69 418.319 353.69V317.79C422.787 317.02 426.417 316.577 429.027 316.577C430.624 316.577 432.129 316.699 433.593 316.943ZM433.593 311.94C431.158 311.818 428.548 311.735 425.671 311.735H391.959V314.114H395.448C398.945 314.114 401.604 315.044 403.377 316.898C404.615 318.232 405.283 321.619 405.283 327.026V382.778C405.283 387.698 404.791 390.802 403.862 392.13C402.188 394.509 399.346 395.683 395.455 395.683H391.966V398.024H431.658V395.683H428.014C424.567 395.683 421.957 394.753 420.24 392.861C418.946 391.572 418.333 388.179 418.333 382.778V357.679C419.044 357.718 419.747 357.763 420.458 357.808H422.365C423.828 357.808 425.685 357.763 428.028 357.679C428.028 357.679 433.607 364.863 433.607 364.87L459.355 398.024H484.09V395.683C479.046 395.202 474.924 393.99 471.786 392.13C468.655 390.283 464.892 386.485 460.509 380.796L441.394 356.031C449.168 354.415 454.93 351.676 458.651 347.763C462.359 343.895 464.223 339.29 464.223 333.966C464.223 329.002 462.584 324.73 459.313 321.138C456.084 317.552 452.102 315.089 447.452 313.755C444.117 312.832 439.516 312.184 433.593 311.94Z" fill="black"/>
<path d="M547.033 316.462L546.991 350.592H567.344C572.606 350.592 576.152 349.822 577.917 348.372C580.302 346.39 581.632 342.965 581.899 338.039H584.411V368.051H581.899C581.231 363.863 580.605 361.156 579.951 359.988C579.156 358.494 577.826 357.32 575.976 356.518C574.111 355.672 571.192 355.223 567.344 355.223H546.991V383.663C546.991 387.46 547.202 389.795 547.519 390.642C547.92 391.45 548.539 392.091 549.461 392.617C550.347 393.105 552.113 393.349 554.638 393.349H570.334C575.561 393.349 579.36 392.983 581.752 392.335C584.094 391.655 586.402 390.283 588.576 388.301C591.361 385.684 594.281 381.732 597.236 376.402H599.986L591.973 398.024H520.666V395.683H523.937C526.111 395.683 528.187 395.202 530.135 394.234C531.591 393.547 532.576 392.54 533.097 391.168C533.632 389.834 533.899 387.011 533.899 382.816V326.789C533.899 321.298 533.28 317.912 532.126 316.661C530.487 314.967 527.743 314.121 523.937 314.121H520.666V311.741H591.988L593.008 330.656H590.355C589.42 326.102 588.364 322.992 587.211 321.298C586.022 319.605 584.298 318.316 582.04 317.43C580.225 316.783 576.996 316.462 572.395 316.462H547.033Z" fill="black"/>
<path d="M60.4804 0L61.5849 12.3024H60.4804C59.3759 9.23639 57.9196 6.94012 56.1468 5.36224C53.6282 3.14935 50.3499 2.02046 46.3681 2.02046C40.9299 2.02046 36.8144 3.99602 33.9793 7.90866C31.5944 11.212 30.4407 15.1695 30.4407 19.7236C30.4407 23.4374 31.1934 26.824 32.7833 29.89C34.3381 32.956 36.4134 35.1753 38.9812 36.5864C41.5068 38.0424 44.1168 38.7223 46.8113 38.7223C48.4012 38.7223 49.9137 38.5619 51.37 38.2028C52.8262 37.8371 54.2895 37.2727 55.6121 36.5864V25.3359C55.6121 23.3989 55.4855 22.1096 55.1267 21.5003C54.8242 20.9358 54.2895 20.4548 53.6353 20.1276C52.974 19.8454 51.778 19.6851 50.0474 19.6851V18.5947H66.5517V19.6851H65.7497C64.1105 19.6851 62.999 20.1725 62.3799 21.1796C62 21.8659 61.7608 23.277 61.7608 25.3359V37.2342C59.3267 38.4401 56.991 39.2867 54.6413 39.8512C52.3057 40.4156 49.6394 40.7043 46.7691 40.7043C38.538 40.7043 32.2557 38.2797 27.9995 33.4434C24.7774 29.8515 23.1875 25.6567 23.1875 20.9743C23.1875 17.5491 24.1161 14.2394 25.8819 11.135C28.0487 7.3827 30.9683 4.51557 34.6898 2.50152C37.8345 0.846669 41.5068 0 45.7982 0C47.3459 0 48.76 0.121869 49.9982 0.365607C51.2856 0.602931 53.0936 1.09041 55.4011 1.89859C56.597 2.30268 57.392 2.50152 57.793 2.50152C58.1448 2.50152 58.4965 2.30268 58.8061 1.97556C59.0664 1.65485 59.2422 1.00702 59.3337 0H60.4804Z" fill="black"/>
<path d="M113.131 3.02746V18.3958H122.516C124.95 18.3958 126.582 18.0751 127.384 17.3888C128.489 16.5421 129.108 14.9706 129.199 12.7513H130.388V26.3045H129.199C128.932 24.4059 128.622 23.2 128.313 22.674C127.961 21.9877 127.342 21.4618 126.498 21.0577C125.611 20.6921 124.289 20.4932 122.516 20.4932H113.131V33.3216C113.131 35.0598 113.223 36.1053 113.406 36.4709C113.574 36.8301 113.842 37.1572 114.285 37.3561C114.686 37.5613 115.481 37.6768 116.67 37.6768H123.888C126.315 37.6768 128.046 37.5164 129.15 37.2342C130.255 36.9135 131.275 36.3106 132.295 35.419C133.575 34.2516 134.947 32.4364 136.277 30.0567H137.557L133.885 39.8191H101.01V38.7287H102.522C103.486 38.7287 104.464 38.5234 105.35 38.0809C106.061 37.7602 106.497 37.3176 106.722 36.7146C106.983 36.1053 107.116 34.8545 107.116 32.9559V7.6649C107.116 5.20828 106.807 3.67529 106.279 3.11085C105.526 2.34115 104.239 1.97554 102.522 1.97554H101.01V0.885132H133.885L134.321 9.44162H133.132C132.689 7.38268 132.203 5.97156 131.676 5.20828C131.141 4.43858 130.346 3.87413 129.284 3.47004C128.44 3.18782 126.934 3.02746 124.866 3.02746H113.131V3.02746Z" fill="black"/>
<path d="M197.593 39.8127L181.138 7.05556V33.0329C181.138 35.4575 181.398 36.9456 181.975 37.51C182.728 38.3182 183.966 38.7223 185.647 38.7223H187.153V39.8127H172.33V38.7223H173.836C175.651 38.7223 176.889 38.2412 177.642 37.2342C178.127 36.6248 178.345 35.2522 178.345 33.0329V7.6649C178.345 5.92666 178.127 4.6759 177.726 3.91262C177.423 3.34817 176.889 2.90559 176.094 2.53999C175.334 2.13589 174.054 1.97554 172.33 1.97554V0.885132H184.409L199.851 31.346L215.11 0.885132H227.19V1.97554H225.684C223.876 1.97554 222.589 2.4566 221.843 3.47004C221.4 4.07297 221.132 5.48409 221.132 7.6649V33.0329C221.132 35.4575 221.442 36.9456 222.019 37.51C222.814 38.3182 224.01 38.7223 225.684 38.7223H227.19V39.8127H209.053V38.7223H210.559C212.374 38.7223 213.654 38.2412 214.407 37.2342C214.85 36.6248 215.11 35.2522 215.11 33.0329V7.05556L198.655 39.8127H197.593V39.8127Z" fill="black"/>
<path d="M274.226 3.02746V18.3958H283.604C286.038 18.3958 287.635 18.0751 288.43 17.3888C289.485 16.5421 290.104 14.9706 290.245 12.7513H291.392V26.3045H290.245C289.935 24.4059 289.668 23.2 289.359 22.674C289.007 21.9877 288.388 21.4618 287.544 21.0577C286.699 20.6921 285.377 20.4932 283.604 20.4932H274.226V33.3216C274.226 35.0598 274.311 36.1053 274.451 36.4709C274.62 36.8301 274.93 37.1572 275.331 37.3561C275.774 37.5613 276.576 37.6768 277.723 37.6768H284.983C287.361 37.6768 289.091 37.5164 290.196 37.2342C291.265 36.9135 292.32 36.3106 293.34 35.419C294.628 34.2516 295.95 32.4364 297.322 30.0567H298.603L294.888 39.8191H262.062V38.7287H263.568C264.581 38.7287 265.552 38.5234 266.438 38.0809C267.1 37.7602 267.592 37.3176 267.81 36.7146C268.035 36.1053 268.162 34.8545 268.162 32.9559V7.6649C268.162 5.20828 267.902 3.67529 267.367 3.11085C266.614 2.34115 265.327 1.97554 263.568 1.97554H262.062V0.885132H294.888L295.374 9.44162H294.135C293.699 7.38268 293.207 5.97156 292.672 5.20828C292.144 4.43858 291.35 3.87413 290.329 3.47004C289.485 3.18782 287.987 3.02746 285.911 3.02746H274.226V3.02746Z" fill="black"/>
<path d="M345.774 3.02746L345.725 18.3958H355.103C357.544 18.3958 359.169 18.0751 360.013 17.3888C361.075 16.5421 361.695 14.9706 361.828 12.7513H362.982V26.3045H361.828C361.519 24.4059 361.209 23.2 360.942 22.674C360.548 21.9877 359.929 21.4618 359.085 21.0577C358.24 20.6921 356.918 20.4932 355.103 20.4932H345.725V33.3216C345.725 35.0598 345.816 36.1053 345.985 36.4709C346.161 36.8301 346.471 37.1572 346.879 37.3561C347.28 37.5613 348.068 37.6768 349.257 37.6768H356.517C358.902 37.6768 360.674 37.5164 361.737 37.2342C362.841 36.9135 363.911 36.3106 364.881 35.419C366.204 34.2516 367.534 32.4364 368.906 30.0567H370.144L366.471 39.8191H333.604V38.7287H335.102C336.129 38.7287 337.051 38.5234 337.979 38.0809C338.641 37.7602 339.084 37.3176 339.351 36.7146C339.562 36.1053 339.703 34.8545 339.703 32.9559V7.6649C339.703 5.20828 339.443 3.67529 338.866 3.11085C338.113 2.34115 336.875 1.97554 335.102 1.97554H333.604V0.885132H366.471L366.957 9.44162H365.719C365.275 7.38268 364.783 5.97156 364.262 5.20828C363.728 4.43858 362.933 3.87413 361.863 3.47004C361.026 3.18782 359.57 3.02746 357.445 3.02746H345.774V3.02746Z" fill="black"/>
<path d="M402.977 0.885132H414.57L440.67 30.0952V7.6649C440.67 5.24035 440.361 3.75226 439.791 3.18782C438.989 2.37963 437.751 1.97554 436.119 1.97554H434.613V0.885132H449.478V1.97554H447.973C446.158 1.97554 444.877 2.46302 444.125 3.47004C443.681 4.07297 443.407 5.48409 443.407 7.6649V40.4156H442.303L414.162 9.1145V33.0393C414.162 35.4575 414.43 36.9456 415.007 37.5164C415.802 38.3182 417.04 38.7223 418.679 38.7223H420.227V39.8127H405.361V38.7223H406.818C408.64 38.7223 409.962 38.2412 410.722 37.2342C411.158 36.6248 411.383 35.2522 411.383 33.0393V6.01005C410.188 4.7208 409.21 3.82923 408.598 3.38665C407.936 2.98256 407.008 2.57847 405.777 2.21928C405.15 2.05892 404.215 1.97554 403.026 1.97554L402.977 0.885132Z" fill="black"/>
<path d="M519.87 0.885132L520.348 10.0446H519.159C518.934 8.42819 518.624 7.26081 518.23 6.57449C517.562 5.48409 516.683 4.63742 515.613 4.11146C514.558 3.59191 513.102 3.34817 511.371 3.34817H505.349V33.0393C505.349 35.4575 505.617 36.9456 506.193 37.5164C506.988 38.3182 508.227 38.7223 509.859 38.7223H511.371V39.8127H493.27V38.7223H494.775C496.591 38.7223 497.829 38.2412 498.581 37.2342C499.067 36.6248 499.292 35.2522 499.292 33.0393V3.34817H494.163C492.18 3.34817 490.758 3.47004 489.914 3.75226C488.866 4.11146 487.881 4.79777 487.128 5.84969C486.376 6.85672 485.89 8.26783 485.764 10.0446H484.561L485.053 0.885132H519.87V0.885132Z" fill="black"/>
<path d="M567.66 3.02746V18.3958H576.982C579.423 18.3958 581.055 18.0751 581.899 17.3888C582.961 16.5421 583.573 14.9706 583.714 12.7513H584.861V26.3045H583.714C583.405 24.4059 583.137 23.2 582.828 22.674C582.476 21.9877 581.808 21.4618 580.97 21.0577C580.126 20.6921 578.797 20.4932 576.982 20.4932H567.66V33.3216C567.66 35.0598 567.745 36.1053 567.871 36.4709C568.047 36.8301 568.357 37.1572 568.758 37.3561C569.201 37.5613 570.003 37.6768 571.142 37.6768H578.403C580.788 37.6768 582.56 37.5164 583.665 37.2342C584.727 36.9135 585.79 36.3106 586.81 35.419C588.09 34.2516 589.42 32.4364 590.784 30.0567H592.03L588.357 39.8191H555.482V38.7287H556.988C558.015 38.7287 558.979 38.5234 559.865 38.0809C560.527 37.7602 561.019 37.3176 561.23 36.7146C561.448 36.1053 561.589 34.8545 561.589 32.9559V7.6649C561.589 5.20828 561.322 3.67529 560.794 3.11085C559.999 2.34115 558.754 1.97554 556.988 1.97554H555.482V0.885132H588.357L588.843 9.44162H587.605C587.161 7.38268 586.662 5.97156 586.148 5.20828C585.614 4.43858 584.819 3.87413 583.749 3.47004C582.961 3.18782 581.456 3.02746 579.324 3.02746H567.66V3.02746Z" fill="black"/>
</g>
<defs>
<linearGradient id="paint0_linear_1_10464" x1="40.0305" y1="159.963" x2="563.583" y2="159.963" gradientUnits="userSpaceOnUse">
<stop stop-color="#FFF200"/>
<stop offset="1" stop-color="#00B0F0"/>
</linearGradient>
<linearGradient id="paint1_linear_1_10464" x1="40.4645" y1="235.624" x2="563.925" y2="235.624" gradientUnits="userSpaceOnUse">
<stop stop-color="#F9EC00"/>
<stop offset="0.99" stop-color="#0DB14B"/>
<stop offset="1" stop-color="#0DB14B"/>
</linearGradient>
<clipPath id="clip0_1_10464">
<rect width="600" height="400" fill="white"/>
</clipPath>
</defs>
</svg>
