<svg width="600" height="400" viewBox="0 0 600 400" fill="none" xmlns="http://www.w3.org/2000/svg" xmlns:cgf="https://coding.garden/flags"><metadata id="cgf-metadata">

<cgf:flag>
  <cgf:name>Vlissingen</cgf:name>
  <cgf:route>nl/ze/vlissingen</cgf:route>
  <cgf:aspect-ratio>1.5</cgf:aspect-ratio>
</cgf:flag>

</metadata><g clip-path="url(#clip0_1_10501)">
<path d="M-0.746094 1.23364V403.032H603.726V1.23364H-0.746094V1.23364Z" fill="#D40000"/>
<path d="M345.892 84.2426C327.501 73.4151 283.362 71.1113 265.729 84.9542C274.207 110.285 277.747 135.318 264.157 159.317L228.006 202.724L213.859 256.094C215.876 291.137 234.726 314.325 276.732 321.206L276.717 323.078C276.149 324.02 273.482 324.724 276.717 326.097V328.487C274.182 329.583 275.929 330.38 276.579 331.254L279.218 333.015L256.572 342.324L256.295 350.124C283.11 364.512 326.215 360.926 351.462 349.746L351.184 341.947L327.288 332.89L331.178 330.877C333.216 330.122 333.216 329.367 331.178 328.613V325.594C332.845 325.09 332.845 324.42 331.178 323.581V320.059C365.362 315.744 397.754 283.93 393.975 257.161L382.86 201.812C367.627 186.674 354.195 170.992 343.404 154.513C330.806 129.353 338.213 106.78 345.891 84.2426H345.892Z" fill="white" stroke="#5F5F5F" stroke-opacity="0.966347" stroke-width="0.574186"/>
<path d="M276.857 323.203C295.1 324.315 313.168 324.314 331.04 323.078" stroke="#5F5F5F" stroke-opacity="0.966347" stroke-width="0.574186"/>
<path d="M276.579 326.097C300.075 327.004 317.537 326.697 331.04 325.594" stroke="#5F5F5F" stroke-opacity="0.966347" stroke-width="0.574186"/>
<path d="M276.718 328.738C295.069 329.824 313.197 329.495 331.179 328.235" stroke="#5F5F5F" stroke-opacity="0.966347" stroke-width="0.574186"/>
<path d="M279.636 332.89C295.474 333.755 311.312 333.907 327.15 332.764" stroke="#5F5F5F" stroke-opacity="0.966347" stroke-width="0.574186"/>
<path d="M256.888 342.376C284.19 357.745 329.365 353.086 351.197 342.198" stroke="#5F5F5F" stroke-opacity="0.966347" stroke-width="0.574186"/>
<path d="M276.929 321.206C294.964 321.329 312.828 322.231 331.353 320.138" stroke="#5F5F5F" stroke-opacity="0.966347" stroke-width="0.574186"/>
<path d="M214.252 257.162C213.733 255.512 223.12 251.34 224.665 264.811C222.974 287.265 233.776 298.599 240.58 307.863" stroke="#5F5F5F" stroke-opacity="0.966347" stroke-width="0.574186"/>
<path d="M224.862 263.922C225.865 263.39 232.623 258.446 235.472 271.216C233.465 299.181 247.545 306.108 259.049 316.403" stroke="#5F5F5F" stroke-opacity="0.966347" stroke-width="0.574186"/>
<path d="M235.865 271.038C239.533 266.865 244.337 267.636 246.868 276.909C243.895 289.794 249.558 303.7 270.642 319.427" stroke="#5F5F5F" stroke-opacity="0.966347" stroke-width="0.574186"/>
<path d="M247.556 276.163C251.223 271.99 256.027 272.76 258.558 282.033C257.467 294.919 260.32 305.089 280.171 320.816" stroke="#5F5F5F" stroke-opacity="0.966347" stroke-width="0.574186"/>
<path d="M258.46 281.055C262.127 276.882 271.057 275.339 273.589 284.613C273.374 297.34 269.963 305.228 288.128 321.26" stroke="#5F5F5F" stroke-opacity="0.966347" stroke-width="0.574186"/>
<path d="M273.883 283.536C277.55 279.363 285.105 277.287 287.636 286.56C288.358 299.287 283.956 304.507 296.871 320.539" stroke="#5F5F5F" stroke-opacity="0.966347" stroke-width="0.574186"/>
<path d="M302.667 320.85L302.47 285.626C298.174 280.308 292.841 278.346 287.538 285.626" stroke="#5F5F5F" stroke-opacity="0.966347" stroke-width="0.574186"/>
<path d="M393.145 256.313C393.679 254.632 384.03 250.383 382.44 264.106C384.179 286.979 374.464 295.506 367.47 304.943" stroke="#5F5F5F" stroke-opacity="0.966347" stroke-width="0.587582"/>
<path d="M382.239 263.2C381.207 262.658 374.26 257.621 371.332 270.63C373.395 299.118 360.311 305.419 348.484 315.907" stroke="#5F5F5F" stroke-opacity="0.966347" stroke-width="0.587582"/>
<path d="M370.928 270.449C367.158 266.198 362.22 266.983 359.618 276.429C362.674 289.556 356.852 303.721 335.179 319.742" stroke="#5F5F5F" stroke-opacity="0.966347" stroke-width="0.587582"/>
<path d="M358.911 275.669C355.141 271.418 350.202 272.203 347.6 281.649C348.722 294.776 345.79 305.136 325.383 321.157" stroke="#5F5F5F" stroke-opacity="0.966347" stroke-width="0.587582"/>
<path d="M347.7 280.653C343.93 276.402 334.751 274.831 332.148 284.277C332.369 297.242 335.875 305.278 317.202 321.61" stroke="#5F5F5F" stroke-opacity="0.966347" stroke-width="0.587582"/>
<path d="M331.846 283.18C328.076 278.929 320.31 276.814 317.708 286.261C316.965 299.226 321.491 304.543 308.215 320.875" stroke="#5F5F5F" stroke-opacity="0.966347" stroke-width="0.587582"/>
<path d="M302.257 321.192L302.459 285.309C306.875 279.892 312.358 277.894 317.809 285.309" stroke="#5F5F5F" stroke-opacity="0.966347" stroke-width="0.587582"/>
<path d="M247.534 100.834H246.071L243.708 113.67L245.508 113.976L244.608 117.542C242.356 116.977 240.569 115.922 240.107 113.466L242.02 100.732C242.949 97.5787 245.002 96.259 247.421 95.536L248.434 95.6378L247.534 100.834V100.834Z" fill="#FFDE00" stroke="#5F5F5F" stroke-opacity="0.966347" stroke-width="0.574186"/>
<path d="M251.615 101.413L253.002 101.834L250.743 114.686L248.929 114.458L248.532 118.098C250.866 118.21 252.93 117.723 254.229 115.527L256.879 102.901C257.104 99.6443 255.619 97.8028 253.579 96.4219L252.583 96.2275L251.615 101.413V101.413Z" fill="#FFDE00" stroke="#5F5F5F" stroke-opacity="0.966347" stroke-width="0.574186"/>
<path d="M245.437 112.53L243.412 127.608C244.65 128.491 245.887 128.175 247.125 128.015L249.375 112.734C248.236 112.115 247.156 111.312 245.437 112.53V112.53Z" fill="#FFDF00" stroke="#5F5F5F" stroke-opacity="0.966347" stroke-width="0.574186"/>
<path d="M243.188 126.079H241.725L239.362 138.916L241.162 139.222L240.262 142.787C238.01 142.223 236.223 141.168 235.762 138.712L237.675 125.978C238.603 122.825 240.656 121.505 243.075 120.782L244.088 120.884L243.188 126.079V126.079Z" fill="#FFDE00" stroke="#5F5F5F" stroke-opacity="0.966347" stroke-width="0.574186"/>
<path d="M247.269 126.659L248.656 127.08L246.397 139.932L244.583 139.704L244.187 143.344C246.52 143.456 248.585 142.969 249.883 140.773L252.533 128.147C252.758 124.89 251.274 123.049 249.233 121.668L248.237 121.474L247.269 126.659V126.659Z" fill="#FFDE00" stroke="#5F5F5F" stroke-opacity="0.966347" stroke-width="0.574186"/>
<path d="M240.875 138.104L237.79 153.034C238.963 153.987 240.22 153.743 241.467 153.655L244.791 138.535C243.697 137.852 242.676 136.988 240.875 138.104Z" fill="#FFDF00" stroke="#5F5F5F" stroke-opacity="0.966347" stroke-width="0.574186"/>
<path d="M237.673 151.496L236.213 151.411L232.95 164.085L234.725 164.494L233.575 168C231.367 167.307 229.658 166.15 229.371 163.673L232.178 151.075C233.327 147.982 235.469 146.784 237.935 146.202L238.938 146.363L237.673 151.496V151.496Z" fill="#FFDE00" stroke="#5F5F5F" stroke-opacity="0.966347" stroke-width="0.574186"/>
<path d="M241.705 152.31L243.059 152.81L239.898 165.505L238.104 165.173L237.451 168.783C239.772 169.03 241.867 168.663 243.317 166.547L246.853 154.1C247.307 150.863 245.956 148.939 244.017 147.443L243.036 147.191L241.705 152.31V152.31Z" fill="#FFDE00" stroke="#5F5F5F" stroke-opacity="0.966347" stroke-width="0.574186"/>
<path d="M234.174 163.517L230.144 178.261C231.254 179.273 232.525 179.096 233.775 179.073L238.056 164.152C237.008 163.413 236.043 162.497 234.174 163.517V163.517Z" fill="#FFDF00" stroke="#5F5F5F" stroke-opacity="0.966347" stroke-width="0.574186"/>
<path d="M230.126 176.719L228.674 176.558L224.608 189.041L226.354 189.542L224.983 192.982C222.823 192.175 221.191 190.931 221.062 188.443L224.667 176.012C226.01 172.985 228.225 171.9 230.724 171.448L231.715 171.661L230.126 176.719V176.719Z" fill="#FFDE00" stroke="#5F5F5F" stroke-opacity="0.966347" stroke-width="0.574186"/>
<path d="M234.098 177.743L235.419 178.313L231.454 190.821L229.684 190.396L228.803 193.966C231.104 194.334 233.218 194.077 234.802 192.04L239.124 179.798C239.784 176.59 238.557 174.599 236.716 173.004L235.754 172.702L234.098 177.743V177.743Z" fill="#FFDE00" stroke="#5F5F5F" stroke-opacity="0.966347" stroke-width="0.574186"/>
<path d="M226.005 189.136L221.975 203.88C223.085 204.893 224.356 204.715 225.606 204.692L229.887 189.771C228.839 189.032 227.874 188.116 226.005 189.136V189.136Z" fill="#FFDF00" stroke="#5F5F5F" stroke-opacity="0.966347" stroke-width="0.574186"/>
<path d="M258.758 80.309L245.484 80.4408C240.129 82.7883 238.644 85.4923 243.484 89.3216C249.927 90.7373 253.583 89.799 259.936 90.0028C270.49 86.6307 263.908 80.4936 258.758 80.3091V80.309Z" fill="#FFDF00" stroke="#5F5F5F" stroke-opacity="0.966347" stroke-width="0.574186"/>
<path d="M249.389 87.182C243.917 87.244 244.493 83.5795 249.389 83.1069H258.166C261.13 83.6385 263.433 85.6563 257.941 87.182L253.665 87.3859L252.315 86.3671H250.515L249.389 87.1821V87.182Z" fill="#D40000" stroke="#5F5F5F" stroke-opacity="0.966347" stroke-width="0.574186"/>
<path d="M249.953 86.4879L247.928 101.566C249.165 102.449 250.403 102.133 251.641 101.973L253.891 86.6917C252.752 86.0733 251.671 85.27 249.953 86.4879V86.4879Z" fill="#FFDF00" stroke="#5F5F5F" stroke-opacity="0.966347" stroke-width="0.574186"/>
<path d="M221.88 204.035L220.305 203.628V206.481L217.83 205.665L218.955 208.314L218.73 211.371L214.23 212.186L211.079 213.408L212.204 215.242L208.829 215.853L202.078 222.17L201.178 224.615L202.303 226.041L203.428 225.633L202.753 228.69L203.203 229.912L205.453 229.708L206.353 231.746L207.704 229.505H213.104L213.779 231.339L213.104 232.154H209.504L207.704 232.765L207.254 235.006L208.829 235.821H210.854H214.23L216.93 234.395L213.554 236.432H209.729V239.692L209.954 247.843L212.654 245.601L216.705 241.323L211.304 247.843L209.279 249.88L208.154 253.955L208.378 259.457L211.529 257.827L209.053 260.068L210.629 263.939L213.329 263.328L213.554 255.993L216.029 249.473L224.806 240.711L225.481 228.893L229.981 224.207L229.531 221.151L231.557 220.743L230.206 216.872L233.582 215.242L233.132 212.186L234.707 210.148L228.406 205.054L227.956 203.017L225.256 204.647L221.88 204.035L221.88 204.035Z" fill="#FFDE00" stroke="#5F5F5F" stroke-opacity="0.966347" stroke-width="0.574186"/>
<path d="M214.904 215.853L219.63 215.242" stroke="#5F5F5F" stroke-opacity="0.966347" stroke-width="0.574186"/>
<path d="M212.204 217.891H215.13" stroke="#5F5F5F" stroke-opacity="0.966347" stroke-width="0.574186"/>
<path d="M212.43 218.771L214.18 218.807" stroke="#5F5F5F" stroke-opacity="0.966347" stroke-width="0.574186"/>
<path d="M218.846 211.185C219.822 211.631 222.255 210.84 223.231 209.944C223.582 211.235 224.321 212.525 223.456 213.816C224.656 214.679 225.856 214.455 227.056 213.816C226.119 216.419 224.703 218.734 222.105 220.336C222.538 221.899 224.479 222.354 225.931 222.373C224.281 223.627 222.63 223.661 220.98 223.596C221.159 225.09 221.417 226.584 223.231 228.078C221.88 228.897 220.53 229.407 219.18 228.894C219.002 230.116 219.233 231.339 220.53 232.561L218.505 233.784" stroke="#5F5F5F" stroke-opacity="0.966347" stroke-width="0.574186"/>
<path d="M360.363 100.834H361.826L364.189 113.67L362.388 113.976L363.288 117.542C365.54 116.977 367.328 115.922 367.789 113.466L365.876 100.732C364.948 97.5787 362.895 96.259 360.476 95.536L359.463 95.6378L360.363 100.834V100.834Z" fill="#FFDE00" stroke="#5F5F5F" stroke-opacity="0.966347" stroke-width="0.574186"/>
<path d="M356.282 101.413L354.895 101.834L357.154 114.686L358.968 114.458L359.364 118.098C357.031 118.21 354.966 117.723 353.668 115.527L351.018 102.901C350.793 99.6443 352.277 97.8028 354.318 96.4219L355.314 96.2275L356.282 101.413V101.413Z" fill="#FFDE00" stroke="#5F5F5F" stroke-opacity="0.966347" stroke-width="0.574186"/>
<path d="M362.46 112.53L364.485 127.608C363.247 128.491 362.01 128.175 360.772 128.015L358.521 112.734C359.661 112.115 360.741 111.312 362.46 112.53V112.53Z" fill="#FFDF00" stroke="#5F5F5F" stroke-opacity="0.966347" stroke-width="0.574186"/>
<path d="M364.71 126.079H366.172L368.535 138.916L366.735 139.222L367.635 142.787C369.887 142.223 371.674 141.168 372.136 138.712L370.223 125.978C369.295 122.825 367.241 121.505 364.822 120.782L363.81 120.884L364.71 126.079V126.079Z" fill="#FFDE00" stroke="#5F5F5F" stroke-opacity="0.966347" stroke-width="0.574186"/>
<path d="M360.628 126.659L359.241 127.08L361.5 139.932L363.315 139.704L363.711 143.344C361.378 143.456 359.313 142.969 358.014 140.773L355.364 128.147C355.139 124.89 356.624 123.049 358.664 121.668L359.66 121.474L360.628 126.659V126.659Z" fill="#FFDE00" stroke="#5F5F5F" stroke-opacity="0.966347" stroke-width="0.574186"/>
<path d="M367.023 138.104L370.108 153.034C368.935 153.987 367.678 153.743 366.431 153.655L363.107 138.535C364.201 137.852 365.222 136.988 367.023 138.104Z" fill="#FFDF00" stroke="#5F5F5F" stroke-opacity="0.966347" stroke-width="0.574186"/>
<path d="M370.224 151.496L371.684 151.411L374.947 164.085L373.172 164.494L374.322 168C376.53 167.307 378.239 166.15 378.526 163.673L375.719 151.075C374.57 147.982 372.428 146.784 369.962 146.202L368.959 146.363L370.224 151.496V151.496Z" fill="#FFDE00" stroke="#5F5F5F" stroke-opacity="0.966347" stroke-width="0.574186"/>
<path d="M366.192 152.31L364.837 152.81L367.998 165.505L369.793 165.173L370.445 168.783C368.124 169.03 366.03 168.663 364.579 166.547L361.043 154.1C360.589 150.863 361.941 148.939 363.88 147.443L364.86 147.191L366.192 152.31V152.31Z" fill="#FFDE00" stroke="#5F5F5F" stroke-opacity="0.966347" stroke-width="0.574186"/>
<path d="M373.723 163.517L377.753 178.261C376.643 179.273 375.372 179.096 374.122 179.073L369.841 164.152C370.889 163.413 371.854 162.497 373.723 163.517V163.517Z" fill="#FFDF00" stroke="#5F5F5F" stroke-opacity="0.966347" stroke-width="0.574186"/>
<path d="M377.772 176.719L379.224 176.558L383.289 189.041L381.544 189.542L382.915 192.982C385.075 192.175 386.707 190.931 386.836 188.443L383.231 176.012C381.887 172.985 379.672 171.9 377.174 171.448L376.183 171.661L377.772 176.719V176.719Z" fill="#FFDE00" stroke="#5F5F5F" stroke-opacity="0.966347" stroke-width="0.574186"/>
<path d="M373.798 177.743L372.478 178.313L376.442 190.821L378.212 190.396L379.094 193.966C376.793 194.334 374.678 194.077 373.095 192.04L368.772 179.798C368.113 176.59 369.339 174.599 371.18 173.004L372.142 172.702L373.798 177.743V177.743Z" fill="#FFDE00" stroke="#5F5F5F" stroke-opacity="0.966347" stroke-width="0.574186"/>
<path d="M381.891 189.136L385.922 203.88C384.812 204.893 383.541 204.715 382.291 204.692L378.01 189.771C379.058 189.032 380.022 188.116 381.891 189.136Z" fill="#FFDF00" stroke="#5F5F5F" stroke-opacity="0.966347" stroke-width="0.574186"/>
<path d="M352.872 80.309L366.146 80.4408C371.501 82.7883 372.986 85.4923 368.147 89.3216C361.703 90.7373 358.047 89.799 351.694 90.0028C341.14 86.6307 347.722 80.4936 352.872 80.3091V80.309Z" fill="#FFDF00" stroke="#5F5F5F" stroke-opacity="0.966347" stroke-width="0.574186"/>
<path d="M354.251 87.182C348.778 87.244 349.355 83.5795 354.251 83.1069H363.027C365.991 83.6385 368.295 85.6563 362.802 87.182L358.526 87.3859L357.176 86.3671H355.376L354.251 87.1821L354.251 87.182Z" fill="#D40000" stroke="#5F5F5F" stroke-opacity="0.966347" stroke-width="0.574186"/>
<path d="M357.944 86.4879L359.969 101.566C358.731 102.449 357.494 102.133 356.256 101.973L354.006 86.6917C355.145 86.0733 356.225 85.27 357.944 86.4879V86.4879Z" fill="#FFDF00" stroke="#5F5F5F" stroke-opacity="0.966347" stroke-width="0.574186"/>
<path d="M386.017 204.035L387.592 203.628V206.481L390.068 205.665L388.942 208.314L389.167 211.371L393.668 212.186L396.818 213.408L395.693 215.242L399.069 215.853L405.82 222.17L406.72 224.615L405.595 226.041L404.469 225.633L405.145 228.69L404.694 229.912L402.444 229.708L401.544 231.746L400.194 229.505H394.793L394.118 231.339L394.793 232.154H398.394L400.194 232.765L400.644 235.006L399.069 235.821H397.043H393.668L390.968 234.395L394.343 236.432H398.168V239.692L397.944 247.843L395.243 245.601L391.193 241.323L396.593 247.843L398.619 249.88L399.744 253.955L399.519 259.457L396.369 257.827L398.844 260.068L397.269 263.939L394.568 263.328L394.343 255.993L391.868 249.473L383.092 240.711L382.417 228.893L377.916 224.207L378.366 221.151L376.341 220.743L377.691 216.872L374.316 215.242L374.766 212.186L373.19 210.148L379.491 205.054L379.941 203.017L382.642 204.647L386.017 204.035L386.017 204.035Z" fill="#FFDE00" stroke="#5F5F5F" stroke-opacity="0.966347" stroke-width="0.574186"/>
<path d="M392.993 215.853L388.268 215.242" stroke="#5F5F5F" stroke-opacity="0.966347" stroke-width="0.574186"/>
<path d="M395.693 217.891H392.768" stroke="#5F5F5F" stroke-opacity="0.966347" stroke-width="0.574186"/>
<path d="M395.467 218.771L393.717 218.807" stroke="#5F5F5F" stroke-opacity="0.966347" stroke-width="0.574186"/>
<path d="M389.051 211.185C388.075 211.631 385.642 210.84 384.666 209.944C384.315 211.235 383.576 212.525 384.441 213.816C383.241 214.679 382.041 214.455 380.841 213.816C381.778 216.419 383.194 218.734 385.792 220.336C385.359 221.899 383.418 222.354 381.966 222.373C383.616 223.627 385.267 223.661 386.917 223.596C386.737 225.09 386.48 226.584 384.666 228.078C386.017 228.897 387.367 229.407 388.717 228.894C388.895 230.116 388.664 231.339 387.367 232.561L389.392 233.784" stroke="#5F5F5F" stroke-opacity="0.966347" stroke-width="0.574186"/>
<path d="M266.122 84.9541C270.406 100.683 338.145 101.613 345.695 84.4204" stroke="#5F5F5F" stroke-opacity="0.966347" stroke-width="0.574186"/>
<path d="M272.017 84.0647V86.9111C293.236 97.2385 323.223 94.4371 339.015 86.3774V84.2426C328.842 79.9807 295.748 75.294 272.017 84.0648V84.0647Z" stroke="#5F5F5F" stroke-opacity="0.966347" stroke-width="0.574186"/>
<path d="M265.337 65.5631C271.969 65.1687 278.48 64.2219 284.592 61.4713C292.058 61.6952 299.524 62.2818 306.99 57.9133C312.966 62.0087 320.804 62.394 329.388 61.2935C335.03 65.4373 341.795 65.003 348.447 65.0294C347.374 71.1853 345.728 77.0816 337.444 79.973C318.219 74.2484 297.724 73.3139 275.357 79.4393C266.18 75.7466 265.836 70.6424 265.337 65.5631Z" fill="#FFDF00" stroke="#5F5F5F" stroke-opacity="0.966347" stroke-width="0.574186"/>
<path d="M246.671 58.6249C249.462 55.1804 253.04 57.4345 256.299 57.3796C256.183 60.2653 256.463 62.7472 260.474 61.4299L264.551 65.3852C270.904 67.9012 277.256 68.3713 283.609 61.4713C291.141 63.6497 298.672 63.925 306.204 58.0912C313.042 61.6579 319.734 65.8213 328.602 61.1155C334.445 64.9682 340.321 68.4085 346.678 65.741L350.608 62.1829C352.645 61.9683 354.189 61.196 354.145 58.6249C356.961 57.4786 359.777 55.8082 362.593 57.3796C365.34 58.2654 365.978 57.2427 366.13 55.7785C363.736 53.0289 363.714 48.5618 353.948 51.1531L352.573 54.889L349.233 53.2879C343.692 52.5298 344.329 55.3993 345.499 57.9133L347.268 59.5144C342.88 62.9243 339.655 65.4507 331.157 58.6249L325.262 58.2691C319.368 62.2933 313.474 57.5509 307.579 54.889C311.118 55.5214 314.688 56.31 317.207 51.8647C316.746 48.5456 313.275 47.9526 309.741 47.4172C316.17 41.8792 297.159 37.1378 301.292 47.2394C297.908 47.821 294.073 48.1105 294.219 50.9753C295.325 54.3196 297.213 56.7786 302.471 55.4228C297.012 57.6145 291.72 61.9341 285.77 57.9134L280.073 58.2692C275.222 65.9286 269.452 63.6093 263.569 60.0482C267.136 60.4224 267.802 59.0458 268.284 57.5576C269.597 54.0312 266.741 53.7398 264.551 52.9322C261.681 52.6444 261.106 54.0184 260.818 55.6007L256.692 51.3311C250.977 48.3134 249.258 50.7226 246.475 51.6869L242.938 56.3123C243.608 57.604 243.989 59.1565 246.671 58.625V58.6249Z" fill="#FFEE00" stroke="#5F5F5F" stroke-opacity="0.966347" stroke-width="0.574186"/>
<path opacity="0.716814" fill-rule="evenodd" clip-rule="evenodd" d="M287.047 53.8215C287.047 54.9303 286.602 55.9937 285.81 56.7777C285.018 57.5617 283.943 58.0022 282.823 58.0022C281.703 58.0022 280.628 57.5617 279.836 56.7777C279.044 55.9937 278.599 54.9303 278.599 53.8215C278.599 52.7127 279.044 51.6494 279.836 50.8653C280.628 50.0813 281.703 49.6409 282.823 49.6409C283.943 49.6409 285.018 50.0813 285.81 50.8653C286.602 51.6494 287.047 52.7127 287.047 53.8215V53.8215Z" fill="#CCCCCC" stroke="#5F5F5F" stroke-opacity="0.966347" stroke-width="0.574186" stroke-linecap="square" stroke-dasharray="3.45 0.57"/>
<path opacity="0.716814" fill-rule="evenodd" clip-rule="evenodd" d="M287.047 53.8215C287.047 54.9303 286.602 55.9937 285.81 56.7777C285.018 57.5617 283.943 58.0022 282.823 58.0022C281.703 58.0022 280.628 57.5617 279.836 56.7777C279.044 55.9937 278.599 54.9303 278.599 53.8215C278.599 52.7127 279.044 51.6494 279.836 50.8653C280.628 50.0813 281.703 49.6409 282.823 49.6409C283.943 49.6409 285.018 50.0813 285.81 50.8653C286.602 51.6494 287.047 52.7127 287.047 53.8215V53.8215Z" fill="#CCCCCC" stroke="#5F5F5F" stroke-opacity="0.966347" stroke-width="0.574186" stroke-linecap="square" stroke-dasharray="3.45 0.57"/>
<path opacity="0.716814" fill-rule="evenodd" clip-rule="evenodd" d="M287.047 53.8215C287.047 54.9303 286.602 55.9937 285.81 56.7777C285.018 57.5617 283.943 58.0022 282.823 58.0022C281.703 58.0022 280.628 57.5617 279.836 56.7777C279.044 55.9937 278.599 54.9303 278.599 53.8215C278.599 52.7127 279.044 51.6494 279.836 50.8653C280.628 50.0813 281.703 49.6409 282.823 49.6409C283.943 49.6409 285.018 50.0813 285.81 50.8653C286.602 51.6494 287.047 52.7127 287.047 53.8215V53.8215Z" fill="#CCCCCC" stroke="#5F5F5F" stroke-opacity="0.966347" stroke-width="0.574186" stroke-linecap="square" stroke-dasharray="3.45 0.57"/>
<path opacity="0.716814" fill-rule="evenodd" clip-rule="evenodd" d="M332.826 53.9995C332.826 55.1083 332.381 56.1716 331.589 56.9557C330.797 57.7397 329.722 58.1801 328.602 58.1801C327.482 58.1801 326.407 57.7397 325.615 56.9557C324.823 56.1716 324.378 55.1083 324.378 53.9995C324.378 52.8907 324.823 51.8273 325.615 51.0433C326.407 50.2593 327.482 49.8188 328.602 49.8188C329.722 49.8188 330.797 50.2593 331.589 51.0433C332.381 51.8273 332.826 52.8907 332.826 53.9995V53.9995Z" fill="#CCCCCC" stroke="#5F5F5F" stroke-opacity="0.966347" stroke-width="0.574186" stroke-linecap="square" stroke-dasharray="3.45 0.57"/>
<path opacity="0.716814" fill-rule="evenodd" clip-rule="evenodd" d="M332.826 53.9995C332.826 55.1083 332.381 56.1716 331.589 56.9557C330.797 57.7397 329.722 58.1801 328.602 58.1801C327.482 58.1801 326.407 57.7397 325.615 56.9557C324.823 56.1716 324.378 55.1083 324.378 53.9995C324.378 52.8907 324.823 51.8273 325.615 51.0433C326.407 50.2593 327.482 49.8188 328.602 49.8188C329.722 49.8188 330.797 50.2593 331.589 51.0433C332.381 51.8273 332.826 52.8907 332.826 53.9995V53.9995Z" fill="#CCCCCC" stroke="#5F5F5F" stroke-opacity="0.966347" stroke-width="0.574186" stroke-linecap="square" stroke-dasharray="3.45 0.57"/>
<path opacity="0.716814" fill-rule="evenodd" clip-rule="evenodd" d="M332.826 53.9995C332.826 55.1083 332.381 56.1716 331.589 56.9557C330.797 57.7397 329.722 58.1801 328.602 58.1801C327.482 58.1801 326.407 57.7397 325.615 56.9557C324.823 56.1716 324.378 55.1083 324.378 53.9995C324.378 52.8907 324.823 51.8273 325.615 51.0433C326.407 50.2593 327.482 49.8188 328.602 49.8188C329.722 49.8188 330.797 50.2593 331.589 51.0433C332.381 51.8273 332.826 52.8907 332.826 53.9995V53.9995Z" fill="#CCCCCC" stroke="#5F5F5F" stroke-opacity="0.966347" stroke-width="0.574186" stroke-linecap="square" stroke-dasharray="3.45 0.57"/>
<path d="M320.94 230.299L280.466 230.477L276.732 237.593L278.697 259.83L281.448 263.922L320.35 264.1L323.101 260.72L323.691 234.746L320.94 230.299V230.299Z" fill="#FFE100" stroke="#5F5F5F" stroke-opacity="0.966347" stroke-width="0.574186"/>
<path d="M288.324 232.078C284.473 232.909 280.903 234.747 286.163 239.905L287.735 252.181L293.432 260.186L307.775 260.008L312.687 254.493L314.259 240.083C319.877 236.057 314.873 232.968 311.115 232.789V235.28L288.717 235.458L288.324 232.078V232.078Z" fill="#FFE100" stroke="#5F5F5F" stroke-opacity="0.966347" stroke-width="0.574186"/>
<path d="M301.488 240.439L301.685 248.089Z" fill="#FFE100"/>
<path d="M301.488 240.439L301.685 248.089" stroke="#5F5F5F" stroke-opacity="0.966347" stroke-width="0.574186"/>
<path d="M297.559 248.978L300.113 251.291L301.488 250.935L303.453 248.623L297.559 248.978Z" fill="#FFE100" stroke="#5F5F5F" stroke-opacity="0.966347" stroke-width="0.574186"/>
<path d="M290.879 250.579C294.059 253.72 297.651 253.235 300.31 251.825C303.519 252.431 306.139 255.106 309.348 250.579" fill="#FFE100"/>
<path d="M290.879 250.579C294.059 253.72 297.651 253.235 300.31 251.825C303.519 252.431 306.139 255.106 309.348 250.579" stroke="#5F5F5F" stroke-opacity="0.966347" stroke-width="0.574186"/>
<path d="M295.005 245.064L293.236 248.267Z" fill="#FFE100"/>
<path d="M295.005 245.064L293.236 248.267" stroke="#5F5F5F" stroke-opacity="0.966347" stroke-width="0.574186"/>
<path d="M305.418 244.887L307.186 248.089Z" fill="#FFE100"/>
<path d="M305.418 244.887L307.186 248.089" stroke="#5F5F5F" stroke-opacity="0.966347" stroke-width="0.574186"/>
<path d="M294.611 257.162C297.918 254.772 301.85 254.93 306.203 256.806Z" fill="#FFE100"/>
<path d="M294.611 257.162C297.918 254.772 301.85 254.93 306.203 256.806" stroke="#5F5F5F" stroke-opacity="0.966347" stroke-width="0.574186"/>
<path d="M292.688 252.286L295.258 256.06Z" fill="#FFE100"/>
<path d="M292.688 252.286L295.258 256.06" stroke="#5F5F5F" stroke-opacity="0.966347" stroke-width="0.574186"/>
<path d="M305.122 256.186C305.144 256.081 305.169 255.976 305.191 255.871Z" fill="#FFE100"/>
<path d="M305.122 256.186C305.144 256.081 305.169 255.976 305.191 255.871" stroke="#5F5F5F" stroke-opacity="0.966347" stroke-width="0.574186"/>
<path d="M305.47 256.312L307.137 252.726Z" fill="#FFE100"/>
<path d="M305.47 256.312L307.137 252.726" stroke="#5F5F5F" stroke-opacity="0.966347" stroke-width="0.574186"/>
<path d="M295.884 253.292L297.343 254.928L298.315 253.041" fill="#FFE100"/>
<path d="M295.884 253.292L297.343 254.928L298.315 253.041" stroke="#5F5F5F" stroke-opacity="0.966347" stroke-width="0.574186"/>
<path d="M304.854 253.367L303.105 254.75L302.507 252.739" fill="#FFE100"/>
<path d="M304.854 253.367L303.105 254.75L302.507 252.739" stroke="#5F5F5F" stroke-opacity="0.966347" stroke-width="0.574186"/>
<path d="M296.578 241.405C295.555 239.807 293.631 238.753 291.507 237.82L288.242 238.826" fill="#FFE100"/>
<path d="M296.578 241.405C295.555 239.807 293.631 238.753 291.507 237.82L288.242 238.826" stroke="#5F5F5F" stroke-opacity="0.966347" stroke-width="0.574186"/>
<path d="M304.358 241.531C305.115 239.693 306.471 238.94 307.762 238.071L310.402 238.7" fill="#FFE100"/>
<path d="M304.358 241.531C305.115 239.693 306.471 238.94 307.762 238.071L310.402 238.7" stroke="#5F5F5F" stroke-opacity="0.966347" stroke-width="0.574186"/>
<path d="M294.147 242.097L292.202 240.524H289.562L291.438 242.915L294.564 242.977L294.147 242.097V242.097Z" fill="#FFE100" stroke="#5F5F5F" stroke-opacity="0.966347" stroke-width="0.574186"/>
<path d="M305.678 242.254L307.623 240.682H310.262L308.387 243.072L305.261 243.135L305.678 242.254V242.254Z" fill="#FFE100" stroke="#5F5F5F" stroke-opacity="0.966347" stroke-width="0.574186"/>
<path d="M285.116 239.581C284.089 238.937 282.568 236.275 280.671 240.399C280.973 242.837 282.55 243.76 279.837 244.487C278.052 244.284 278.373 245.441 278.239 247.066" fill="#FFE100"/>
<path d="M285.116 239.581C284.089 238.937 282.568 236.275 280.671 240.399C280.973 242.837 282.55 243.76 279.837 244.487C278.052 244.284 278.373 245.441 278.239 247.066" stroke="#5F5F5F" stroke-opacity="0.966347" stroke-width="0.574186"/>
<path d="M286.123 245.616C285.095 244.971 283.575 242.31 281.677 246.433C281.98 248.872 283.557 249.795 280.844 250.522C279.059 250.319 279.38 251.475 279.246 253.1" fill="#FFE100"/>
<path d="M286.123 245.616C285.095 244.971 283.575 242.31 281.677 246.433C281.98 248.872 283.557 249.795 280.844 250.522C279.059 250.319 279.38 251.475 279.246 253.1" stroke="#5F5F5F" stroke-opacity="0.966347" stroke-width="0.574186"/>
<path d="M287.165 251.779C286.137 251.135 284.617 248.474 282.719 252.597C283.022 255.036 284.599 255.959 281.886 256.685C280.101 256.483 280.422 257.639 280.288 259.264" fill="#FFE100"/>
<path d="M287.165 251.779C286.137 251.135 284.617 248.474 282.719 252.597C283.022 255.036 284.599 255.959 281.886 256.685C280.101 256.483 280.422 257.639 280.288 259.264" stroke="#5F5F5F" stroke-opacity="0.966347" stroke-width="0.574186"/>
<path d="M289.458 255.868C288.43 255.223 286.91 252.562 285.012 256.685C285.315 259.124 286.892 260.047 284.179 260.774C282.394 260.571 282.715 261.728 282.581 263.353" fill="#FFE100"/>
<path d="M289.458 255.868C288.43 255.223 286.91 252.562 285.012 256.685C285.315 259.124 286.892 260.047 284.179 260.774C282.394 260.571 282.715 261.728 282.581 263.353" stroke="#5F5F5F" stroke-opacity="0.966347" stroke-width="0.574186"/>
<path d="M293.029 259.379C291.972 258.953 290.408 257.195 288.456 259.919C288.768 261.529 290.389 262.139 287.6 262.619C285.764 262.485 286.094 263.248 285.956 264.322" fill="#FFE100"/>
<path d="M293.029 259.379C291.972 258.953 290.408 257.195 288.456 259.919C288.768 261.529 290.389 262.139 287.6 262.619C285.764 262.485 286.094 263.248 285.956 264.322" stroke="#5F5F5F" stroke-opacity="0.966347" stroke-width="0.473196"/>
<path d="M284.109 233.476C283.081 232.832 281.561 230.17 279.663 234.294C279.965 236.733 281.542 237.656 278.83 238.382C277.044 238.18 277.365 239.336 277.231 240.961" fill="#FFE100"/>
<path d="M284.109 233.476C283.081 232.832 281.561 230.17 279.663 234.294C279.965 236.733 281.542 237.656 278.83 238.382C277.044 238.18 277.365 239.336 277.231 240.961" stroke="#5F5F5F" stroke-opacity="0.966347" stroke-width="0.574186"/>
<path d="M315.785 239.581C316.813 238.937 318.333 236.275 320.231 240.399C319.928 242.837 318.352 243.76 321.064 244.487C322.849 244.284 322.528 245.441 322.662 247.066" fill="#FFE100"/>
<path d="M315.785 239.581C316.813 238.937 318.333 236.275 320.231 240.399C319.928 242.837 318.352 243.76 321.064 244.487C322.849 244.284 322.528 245.441 322.662 247.066" stroke="#5F5F5F" stroke-opacity="0.966347" stroke-width="0.574186"/>
<path d="M314.778 245.616C315.806 244.971 317.326 242.31 319.224 246.433C318.922 248.872 317.345 249.795 320.057 250.522C321.842 250.319 321.522 251.475 321.655 253.1" fill="#FFE100"/>
<path d="M314.778 245.616C315.806 244.971 317.326 242.31 319.224 246.433C318.922 248.872 317.345 249.795 320.057 250.522C321.842 250.319 321.522 251.475 321.655 253.1" stroke="#5F5F5F" stroke-opacity="0.966347" stroke-width="0.574186"/>
<path d="M313.736 251.779C314.764 251.135 316.284 248.474 318.182 252.597C317.88 255.036 316.303 255.959 319.015 256.685C320.8 256.483 320.48 257.639 320.613 259.264" fill="#FFE100"/>
<path d="M313.736 251.779C314.764 251.135 316.284 248.474 318.182 252.597C317.88 255.036 316.303 255.959 319.015 256.685C320.8 256.483 320.48 257.639 320.613 259.264" stroke="#5F5F5F" stroke-opacity="0.966347" stroke-width="0.574186"/>
<path d="M311.443 255.868C312.471 255.223 313.991 252.562 315.889 256.685C315.587 259.124 314.01 260.047 316.722 260.774C318.507 260.571 318.187 261.728 318.32 263.353" fill="#FFE100"/>
<path d="M311.443 255.868C312.471 255.223 313.991 252.562 315.889 256.685C315.587 259.124 314.01 260.047 316.722 260.774C318.507 260.571 318.187 261.728 318.32 263.353" stroke="#5F5F5F" stroke-opacity="0.966347" stroke-width="0.574186"/>
<path d="M316.792 233.476C317.82 232.832 319.34 230.17 321.238 234.294C320.935 236.733 319.359 237.656 322.071 238.382C323.856 238.18 323.535 239.336 323.669 240.961" fill="#FFE100"/>
<path d="M316.792 233.476C317.82 232.832 319.34 230.17 321.238 234.294C320.935 236.733 319.359 237.656 322.071 238.382C323.856 238.18 323.535 239.336 323.669 240.961" stroke="#5F5F5F" stroke-opacity="0.966347" stroke-width="0.574186"/>
<path d="M297.722 260.62C296.646 260.314 295.053 259.051 293.065 261.008C293.382 262.165 295.033 262.603 292.192 262.948C290.322 262.852 290.658 263.4 290.518 264.171" fill="#FFE100"/>
<path d="M297.722 260.62C296.646 260.314 295.053 259.051 293.065 261.008C293.382 262.165 295.033 262.603 292.192 262.948C290.322 262.852 290.658 263.4 290.518 264.171" stroke="#5F5F5F" stroke-opacity="0.966347" stroke-width="0.404831"/>
<path d="M302.34 260.798C301.263 260.492 299.67 259.229 297.682 261.186C297.999 262.343 299.651 262.781 296.809 263.126C294.939 263.03 295.275 263.578 295.135 264.349" fill="#FFE100"/>
<path d="M302.34 260.798C301.263 260.492 299.67 259.229 297.682 261.186C297.999 262.343 299.651 262.781 296.809 263.126C294.939 263.03 295.275 263.578 295.135 264.349" stroke="#5F5F5F" stroke-opacity="0.966347" stroke-width="0.404831"/>
<path d="M298.844 260.882C299.921 260.576 301.513 259.313 303.502 261.27C303.184 262.427 301.533 262.864 304.374 263.209C306.245 263.113 305.909 263.662 306.049 264.433" fill="#FFE100"/>
<path d="M298.844 260.882C299.921 260.576 301.513 259.313 303.502 261.27C303.184 262.427 301.533 262.864 304.374 263.209C306.245 263.113 305.909 263.662 306.049 264.433" stroke="#5F5F5F" stroke-opacity="0.966347" stroke-width="0.404831"/>
<path d="M306.236 260.264C307.313 259.958 308.906 258.695 310.894 260.652C310.577 261.809 308.925 262.247 311.767 262.592C313.637 262.496 313.301 263.044 313.441 263.815" fill="#FFE100"/>
<path d="M306.236 260.264C307.313 259.958 308.906 258.695 310.894 260.652C310.577 261.809 308.925 262.247 311.767 262.592C313.637 262.496 313.301 263.044 313.441 263.815" stroke="#5F5F5F" stroke-opacity="0.966347" stroke-width="0.404831"/>
<path d="M270.697 76.1035C273.108 72.8379 275.661 69.8295 280.978 71.8265C284.247 70.1098 287.391 67.9951 292.093 70.8201C295.491 70.1872 298.572 68.1195 302.651 70.5684C304.424 67.4526 306.262 65.1033 308.764 70.5684C311.635 68.9949 314.507 68.5443 317.378 70.3167C321.5 68.4692 325.109 69.4111 328.492 71.5746C332.177 68.9983 334.299 71.3716 336.55 73.3357C339.29 73.1048 342.186 72.4507 343.497 76.1032" stroke="#5F5F5F" stroke-opacity="0.966347" stroke-width="0.574186"/>
</g>
<defs>
<clipPath id="clip0_1_10501">
<rect width="600" height="400" fill="white"/>
</clipPath>
</defs>
</svg>
