<svg width="600" height="400" viewBox="0 0 600 400" fill="none" xmlns="http://www.w3.org/2000/svg" xmlns:cgf="https://coding.garden/flags"><metadata id="cgf-metadata">

<cgf:flag>
  <cgf:name>Beek</cgf:name>
  <cgf:route>nl/li/beek</cgf:route>
  <cgf:aspect-ratio>1.5</cgf:aspect-ratio>
</cgf:flag>

</metadata><g clip-path="url(#clip0_1_3582)">
<path d="M600 0H0V400H600V0Z" fill="white"/>
<path d="M0 154.167C33.3333 154.167 41.6667 179.167 75 179.167C108.333 179.167 116.667 154.167 150 154.167C183.333 154.167 191.667 179.167 225 179.167C258.333 179.167 266.667 154.167 300 154.167C333.333 154.167 341.667 179.167 375 179.167C408.333 179.167 416.667 154.167 450 154.167C483.333 154.167 491.667 179.167 525 179.167C558.333 179.167 566.667 154.167 600 154.167V333.333H0" fill="#0039A7"/>
<path d="M0 220.833C33.3333 220.833 41.6667 245.833 75 245.833C108.333 245.833 116.667 220.833 150 220.833C183.333 220.833 191.667 245.833 225 245.833C258.333 245.833 266.667 220.833 300 220.833C333.333 220.833 341.667 245.833 375 245.833C408.333 245.833 416.667 220.833 450 220.833C483.333 220.833 491.667 245.833 525 245.833C558.333 245.833 566.667 220.833 600 220.833V400H0" fill="white"/>
</g>
<defs>
<clipPath id="clip0_1_3582">
<rect width="600" height="400" fill="white"/>
</clipPath>
</defs>
</svg>
