<svg width="600" height="400" viewBox="0 0 600 400" fill="none" xmlns="http://www.w3.org/2000/svg" xmlns:cgf="https://coding.garden/flags"><metadata id="cgf-metadata">

<cgf:flag>
  <cgf:name>Beekdaelen</cgf:name>
  <cgf:route>nl/li/beekdaelen</cgf:route>
  <cgf:aspect-ratio>1.5</cgf:aspect-ratio>
</cgf:flag>

</metadata><g clip-path="url(#clip0_1_3672)">
<path d="M600 0H0V400H600V0Z" fill="white"/>
<path d="M56.0199 369.275C48.3419 367.804 41.3513 364.749 29.5386 357.702C25.435 355.254 19.8664 352.22 17.1643 350.961C11.3995 348.273 1.83019 344.927 -2.1533 344.205L-4.95703 343.697V312.427C-4.95703 295.229 -4.85156 281.158 -4.72774 281.158C-4.60118 281.158 -2.79244 281.513 -0.706928 281.946C7.18392 283.586 16.6505 287.725 27.7188 294.375C37.171 300.053 38.6277 300.855 43.1375 302.859C51.6116 306.626 59.2464 308.217 67.1623 307.864C78.3581 307.365 87.0654 304.2 101.579 295.355C113.305 288.207 123.457 283.715 132.321 281.749C136.286 280.869 146.077 280.534 150.165 281.138C160.3 282.635 170.154 286.568 182.399 294.006C190.867 299.149 196.142 301.996 200.251 303.641C209.088 307.177 216.676 308.412 224.764 307.629C234.9 306.647 243.205 303.478 255.871 295.758C274.03 284.691 285.385 280.676 298.409 280.718C311.233 280.762 322.228 284.616 339.554 295.144C356.441 305.405 367.152 308.728 379.72 307.602C390.28 306.656 398.53 303.491 411.98 295.224C430.561 283.804 444.141 279.549 458.053 280.792C469.296 281.796 479.335 285.726 495.167 295.322C509.03 303.724 516.639 306.648 527.105 307.593C539.287 308.693 550.715 305.156 566.584 295.376C579.93 287.15 591.305 282.497 601.87 280.944L603.707 280.674V311.841V343.008L600.904 343.45C589.685 345.221 580.264 349.092 565.811 357.866C551.957 366.277 543.66 369.318 533.263 369.796C523.942 370.225 514.893 368.191 506.066 363.683C504.152 362.705 498.977 359.79 494.567 357.205C471.477 343.67 456.197 340.375 438.2 345.047C430.834 346.959 422.315 350.974 410.551 358.076C402.437 362.974 397.929 365.203 392.183 367.157C382.08 370.592 371.048 370.786 360.644 367.712C355.531 366.2 349.665 363.358 340.65 358.022C316.65 343.819 301.172 340.326 283.134 345.045C275.589 347.018 267.244 350.919 255.871 357.789C239.926 367.42 231.046 370.258 218.362 369.777C207.435 369.362 200.345 366.902 186.767 358.815C176.204 352.524 170.344 349.639 162.373 346.803C142.47 339.723 125.764 342.642 101.442 357.45C90.7549 363.956 83.639 367.182 76.0564 368.958C72.2138 369.859 60.0677 370.05 56.0199 369.275V369.275ZM60.5885 244.461C50.9056 243.607 43.5501 240.787 30.2325 232.825C17.3377 225.116 6.22967 220.354 -2.45408 218.812L-4.95703 218.367V187.077V155.788L-3.50708 156.013C5.22814 157.371 16.1244 162.038 29.4593 170.134C45.235 179.712 55.0707 182.92 67.1623 182.429C78.3944 181.973 86.8813 178.892 101.579 169.935C118.607 159.556 130.607 155.372 143.4 155.351C155.529 155.33 167.304 159.506 184.298 169.85C196.877 177.507 204.269 180.607 213.226 181.979C219.823 182.989 226.138 182.613 233.291 180.783C239.919 179.088 246.537 176.027 255.871 170.338C273.689 159.479 285.311 155.366 298.215 155.352C311.062 155.331 322.485 159.388 340.233 170.249C352.937 178.024 360.828 181.109 370.821 182.208C378.503 183.053 387.747 181.638 395.732 178.395C400.686 176.383 403.51 174.899 410.83 170.457C429.02 159.42 440.597 155.316 453.535 155.316C466.094 155.316 478.074 159.544 495.045 169.967C507.913 177.87 516.742 181.267 526.894 182.22C539.238 183.378 549.937 180.067 566.588 169.934C577.091 163.543 585.735 159.475 593.008 157.501C597.558 156.265 603.018 155.323 603.42 155.703C603.582 155.856 603.668 169.902 603.614 186.918L603.513 217.857L600.806 218.159C591.116 219.242 579.651 223.938 565.423 232.654C551.369 241.263 541.905 244.509 530.859 244.509C519.48 244.509 511.089 241.699 496.343 232.949C485.739 226.658 479.94 223.839 471.648 220.946C462.566 217.777 452.749 216.885 443.941 218.428C433.649 220.232 425.071 223.887 410.55 232.657C394.732 242.21 386.373 244.849 373.482 244.359C362.203 243.931 355.141 241.415 340.339 232.551C319.847 220.279 305.108 216.086 290.105 218.261C279.637 219.778 270.441 223.567 255.87 232.369C240.634 241.572 231.961 244.513 220.073 244.506C208.542 244.485 200.665 241.811 185.232 232.616C159.632 217.365 142.79 214.348 122.652 221.407C117.175 223.327 109.074 227.38 101.531 231.974C94.6405 236.17 89.1248 239.081 84.5473 240.935C77.457 243.808 68.3579 245.147 60.5873 244.461H60.5885ZM56.1414 118.467C47.3214 116.77 41.8257 114.445 29.7143 107.283C26.4899 105.376 22.721 103.182 21.3385 102.406C15.5739 99.1717 3.06524 94.3891 -2.34671 93.3495L-4.95703 92.8482V61.6421V30.4359L-3.12021 30.7337C5.06701 32.0603 16.2822 36.8405 27.9123 43.9611C30.9961 45.8493 35.2597 48.3262 37.3866 49.4653C48.2756 55.2974 58.6846 57.7072 68.8498 56.7493C79.3642 55.7583 87.2392 52.7099 101.09 44.2699C112.626 37.2402 122.304 32.9476 130.798 31.0927C135.836 29.9925 144.94 29.61 149.707 30.2981C159.841 31.7611 170.48 36.1482 184.108 44.4852C200.401 54.4514 210.994 57.741 223.496 56.716C234.02 55.8531 242.192 52.7508 255.806 44.4507C273.027 33.9521 284.692 29.8635 297.442 29.8576C310.758 29.8576 321.96 33.827 340.365 45.0919C347.702 49.5824 352.659 52.025 358.347 53.9528C364.401 56.005 368.835 56.7623 374.832 56.7684C387.222 56.7894 396.173 53.6367 412.485 43.5455C422.368 37.4306 433.543 32.563 441.487 30.913C453.849 28.345 465.996 29.9971 479.213 36.0437C483.988 38.2287 486.027 39.3499 495.161 44.8118C505.982 51.2836 512.511 54.1587 520.18 55.8297C522.695 56.3775 525.149 56.5439 530.621 56.5376C537.133 56.5376 538.155 56.4307 542.008 55.442C549.495 53.5186 555.107 50.9439 565.503 44.6623C576.87 37.7941 583.837 34.4477 591.228 32.306C595.334 31.1163 601.139 29.9252 602.837 29.9244H603.707V61.0138V92.1035L599.971 92.6021C589.55 93.9926 579.855 98.0049 564.572 107.251C549.834 116.168 541.81 118.851 530.041 118.794C518.009 118.735 510.657 116.248 495.045 106.954C477.452 96.4816 465.03 92.1873 452.329 92.1873C439.322 92.1873 428.292 96.0266 410.68 106.684C395.072 116.128 387.079 118.825 374.782 118.797C362.446 118.77 355.796 116.49 339.165 106.594C326.258 98.9138 316.409 94.8221 306.41 92.9854C302.557 92.2776 300.917 92.1856 295.315 92.3624C288.17 92.588 285.42 93.0686 278.781 95.2518C271.379 97.6853 265.274 100.73 253.745 107.738C240.005 116.089 231.702 118.795 219.715 118.831C207.71 118.867 200.451 116.459 185.299 107.417C167.375 96.7206 154.54 92.2372 141.854 92.2414C129.006 92.2414 118.07 96.1014 99.7873 107.071C89.0105 113.538 82.5664 116.407 75.0896 118.07C71.0304 118.972 59.9701 119.204 56.1414 118.468V118.467Z" fill="#078930"/>
<path d="M231.249 0H75.7808V200H231.249V0Z" fill="white"/>
<path d="M231.249 200H75.7808V400H231.249V200Z" fill="#DA121A"/>
<path d="M168.979 389.956C165.118 388.503 163.188 387.168 157.548 382.05L152.847 377.785L148.213 381.945C141.343 388.112 137.036 390.287 131.896 390.184C127.771 390.102 123.999 387.902 120.556 383.574C118.42 380.889 114.176 373.797 114.176 372.912C114.176 372.669 115.607 372.409 117.356 372.334L120.535 372.2L117.797 371.349C115.68 370.692 114.294 370.563 111.692 370.782C108.902 371.017 108.5 370.969 109.343 370.506C110.29 369.986 110.236 369.929 108.58 369.682L106.8 369.416L109.343 369.036C111.159 368.764 112.721 368.848 114.802 369.329C117.105 369.862 117.601 369.878 117.164 369.408C116.313 368.494 119.007 367.76 122.177 368.04C124.917 368.283 129.856 370.329 130.323 371.414C130.724 372.347 135.518 374.332 137.369 374.332C139.869 374.332 141.441 373.025 143.684 369.085L145.716 365.517V350.131C145.716 335.878 145.65 334.727 144.825 334.491C141.001 333.399 136.228 330.799 133.38 328.257C128.414 323.823 125.894 318.505 125.882 312.432V309.37H121.8C118.163 309.37 117.34 309.54 114.254 310.926C112.349 311.781 110.038 313.245 109.119 314.179C107.594 315.727 107.473 316.065 107.736 318.042C108.061 320.488 109.159 322.67 110.907 324.34C112.994 326.335 114.204 329.449 114.241 332.914C114.279 336.587 113.962 337.36 112.768 336.497C112.174 336.069 112.055 336.061 112.33 336.469C113.104 337.618 113.574 341.933 113.185 344.323C112.809 346.636 112.778 346.678 112.703 344.981C112.631 343.311 112.565 343.234 111.901 344.018C111.262 344.77 111.213 344.506 111.474 341.726C111.699 339.338 111.539 337.934 110.814 335.885L109.858 333.186L109.709 336.488L109.559 339.789L105.601 337.953C95.3825 333.212 90.0768 326.936 91.0352 320.722C91.706 316.373 95.7843 310.461 101.658 305.324L104.469 302.866L100.082 298.755C92.4456 291.599 89.9504 287.199 90.394 281.671C90.5724 279.451 91.0141 278.023 91.9759 276.559C93.7592 273.846 98.5138 270.077 103.082 267.757C108.922 264.79 108.584 264.738 108.607 268.607L108.628 271.945L109.497 270.584C110.16 269.546 110.367 268.126 110.367 264.605C110.367 260.742 110.469 260.149 110.986 260.976C111.556 261.887 111.608 261.823 111.657 260.15C111.7 258.714 111.801 258.525 112.148 259.243C112.818 260.631 112.734 263.998 111.964 266.642C111.302 268.919 111.312 268.991 112.181 268.289C113.039 267.597 113.11 267.675 113.446 269.672C113.642 270.836 113.663 272.69 113.494 273.792C113.155 275.996 111.174 279.818 109.869 280.783C109.412 281.122 108.682 282.13 108.247 283.023C105.559 288.549 106.708 290.833 113.844 294.15C117.013 295.624 117.675 295.761 121.596 295.761H125.883V287.369V278.976H136.057H146.231V258.255V237.534L144.204 233.8C142.15 230.015 140.034 228.163 137.777 228.173C136.329 228.185 131.867 230.174 130.716 231.329C128.811 233.24 124.892 234.671 121.538 234.681C117.689 234.693 116.835 234.305 118.054 233.104C118.921 232.25 118.903 232.245 117.197 232.877C115.288 233.584 113.117 233.801 109.605 233.637L107.316 233.53L109.063 233.082C110.307 232.764 110.613 232.526 110.125 232.257C109.726 232.037 111.017 231.904 113.21 231.938C116.108 231.984 117.511 231.773 119.27 231.028L121.559 230.059L118.125 230.021C116.021 229.997 114.692 229.792 114.692 229.49C114.692 228.071 120.219 219.63 122.735 217.207C130.419 209.805 137.472 210.813 148.73 220.92C151.296 223.222 153.448 225.03 153.513 224.936C154.167 223.995 158.856 219.654 161.64 217.41C171.299 209.628 179.436 209.95 186.143 218.381C188.304 221.098 192.523 228.163 192.523 229.065C192.523 229.328 191.143 229.545 189.343 229.566L186.164 229.603L188.199 230.49C189.831 231.201 191.024 231.342 194.229 231.206C197.672 231.058 198.058 231.114 197.026 231.608C195.872 232.16 195.903 232.186 197.864 232.344L199.899 232.508L197.877 232.903C195.907 233.287 191.415 232.829 189.216 232.019C188.231 231.655 188.227 231.673 189.109 232.57C189.991 233.468 189.983 233.505 188.854 233.775C185.033 234.688 180.005 233.537 176.963 231.052C174.294 228.872 171.602 227.715 169.201 227.715C167.535 227.715 166.916 228 165.453 229.445C164.489 230.396 162.974 232.73 162.087 234.63L160.474 238.085V258.531V278.976H170.394H180.313V287.368V295.761H185.163C189.375 295.761 190.361 295.605 192.666 294.576C201.355 290.697 202.141 287 195.843 279.642C193.798 277.253 192.789 273.573 193.29 270.327C193.654 267.965 194.136 267.576 195.079 268.883C195.594 269.597 195.619 269.586 195.326 268.77C194.321 265.97 193.981 263.228 194.349 260.901L194.755 258.336L195.073 260.15C195.358 261.77 195.443 261.858 195.865 260.971C196.198 260.271 196.337 261.342 196.337 264.6C196.337 268.129 196.543 269.545 197.207 270.584L198.077 271.945L198.098 268.648L198.119 265.352L200.79 266.547C211.212 271.213 216.466 276.694 216.499 282.938C216.526 287.793 213.364 292.884 206.073 299.729L202.524 303.061L205.088 305.422C213.687 313.341 217.132 320.024 215.462 325.548C214.147 329.899 208.971 334.54 201.64 337.94C199.478 338.944 197.583 339.764 197.429 339.764C197.274 339.764 197.081 338.386 196.998 336.702L196.846 333.64L195.895 336.326C195.168 338.377 195.02 339.717 195.267 341.996C195.481 343.971 195.424 344.755 195.102 344.313C194.571 343.589 194.399 343.811 193.884 345.888C193.629 346.917 193.392 343.193 193.539 340.445C193.592 339.447 193.959 337.916 194.354 337.042C195.073 335.455 195.073 335.455 194.131 336.531C193.298 337.481 193.15 337.517 192.856 336.834C192.672 336.409 192.528 334.7 192.534 333.036C192.554 329.671 193.567 327.175 196.089 324.335C197.841 322.362 199.136 319.418 199.136 317.408C199.136 315.359 197.092 313.345 193.122 311.485C189.812 309.934 189.276 309.824 185.056 309.824H180.536L179.957 314.163C179.193 319.895 176.932 324.254 172.822 327.919C169.398 330.972 166.897 332.46 163.019 333.749L160.221 334.68L160.324 350.135L160.428 365.591L162.214 369.039C164.292 373.05 166.514 375.148 168.684 375.148C170.839 375.148 173.544 374.019 175.861 372.152C178.697 369.867 181.554 368.819 184.978 368.807C186.564 368.795 188.233 368.924 188.688 369.08C189.444 369.339 189.44 369.436 188.644 370.221C187.793 371.059 187.824 371.063 189.957 370.392C192.425 369.615 198.873 369.436 198.373 370.158C198.2 370.408 197.557 370.619 196.944 370.628C195.864 370.643 195.868 370.665 197.101 371.327C198.263 371.952 198.275 371.987 197.235 371.736C194.738 371.134 189.527 371.462 187.336 372.36L185.146 373.257L188.806 373.295L192.466 373.333L191.179 375.929C187.924 382.492 183.136 388.12 179.305 389.887C176.444 391.206 172.38 391.234 168.984 389.956L168.979 389.956Z" fill="white"/>
<path fill-rule="evenodd" clip-rule="evenodd" d="M211.254 279.088C211.254 280.423 210.064 281.504 208.597 281.504C207.129 281.504 205.939 280.423 205.939 279.088C205.939 277.753 207.129 276.671 208.597 276.671C210.064 276.671 211.254 277.753 211.254 279.088Z" fill="#DA121A"/>
<path fill-rule="evenodd" clip-rule="evenodd" d="M210.456 326.407C210.456 325.073 209.266 323.991 207.798 323.991C206.331 323.991 205.141 325.073 205.141 326.407C205.141 327.742 206.331 328.824 207.798 328.824C209.266 328.824 210.456 327.742 210.456 326.407Z" fill="#DA121A"/>
<path fill-rule="evenodd" clip-rule="evenodd" d="M93.7385 278.848C93.7385 280.183 94.9283 281.265 96.3959 281.265C97.8635 281.265 99.0532 280.183 99.0532 278.848C99.0532 277.514 97.8635 276.432 96.3959 276.432C94.9283 276.432 93.7385 277.514 93.7385 278.848Z" fill="#DA121A"/>
<path fill-rule="evenodd" clip-rule="evenodd" d="M94.5364 326.167C94.5364 324.833 95.7261 323.751 97.1937 323.751C98.6613 323.751 99.8511 324.833 99.8511 326.167C99.8511 327.502 98.6613 328.584 97.1937 328.584C95.7261 328.584 94.5364 327.502 94.5364 326.167Z" fill="#DA121A"/>
<path fill-rule="evenodd" clip-rule="evenodd" d="M177.542 216.035C176.14 216.033 175.001 217.164 174.999 218.56C174.997 219.957 176.132 221.091 177.534 221.093C178.937 221.095 180.075 219.964 180.078 218.568C180.08 217.171 178.945 216.037 177.542 216.035Z" fill="#DA121A"/>
<path fill-rule="evenodd" clip-rule="evenodd" d="M127.82 216.724C129.222 216.726 130.357 217.86 130.355 219.257C130.353 220.653 129.214 221.784 127.812 221.782C126.409 221.78 125.274 220.646 125.276 219.25C125.279 217.853 126.417 216.722 127.82 216.724Z" fill="#DA121A"/>
<path fill-rule="evenodd" clip-rule="evenodd" d="M177.183 386.831C175.78 386.833 174.641 385.703 174.639 384.306C174.637 382.909 175.772 381.776 177.175 381.774C178.577 381.772 179.716 382.902 179.718 384.299C179.72 385.696 178.585 386.83 177.183 386.831Z" fill="#DA121A"/>
<path fill-rule="evenodd" clip-rule="evenodd" d="M127.459 386.142C128.862 386.14 129.997 385.006 129.995 383.61C129.992 382.213 128.854 381.082 127.451 381.084C126.049 381.086 124.914 382.22 124.916 383.617C124.918 385.014 126.057 386.144 127.459 386.142Z" fill="#DA121A"/>
<path fill-rule="evenodd" clip-rule="evenodd" d="M144.798 294.661C144.798 298.013 141.863 300.73 138.243 300.73C134.623 300.73 131.688 298.013 131.688 294.661C131.688 291.308 134.623 288.591 138.243 288.591C141.863 288.591 144.798 291.308 144.798 294.661Z" fill="#DA121A"/>
<path fill-rule="evenodd" clip-rule="evenodd" d="M172.925 294.661C172.925 298.013 169.99 300.73 166.37 300.73C162.75 300.73 159.815 298.013 159.815 294.661C159.815 291.308 162.75 288.591 166.37 288.591C169.99 288.591 172.925 291.308 172.925 294.661Z" fill="#DA121A"/>
<path fill-rule="evenodd" clip-rule="evenodd" d="M159.852 317.158C159.852 321.038 156.282 324.183 151.878 324.183C147.474 324.183 143.904 321.038 143.904 317.158C143.904 313.278 147.474 310.133 151.878 310.133C156.282 310.133 159.852 313.278 159.852 317.158Z" fill="#DA121A"/>
<path d="M165.391 117.53C155.272 117.033 145.256 116.697 139.812 123.658C131.692 130.976 126.16 130.364 120.75 129.377C122.314 131.825 124.131 134.101 129.222 134.143C123.034 137.982 122.078 142.792 124.172 148.169C127.515 141.854 130.222 142.727 132.97 143.13C137.47 154.74 132.37 162.809 126.615 170.637L115.374 169.275C114.548 160.405 99.3542 169.969 110.161 173.905C105.435 175.354 107.404 184.941 115.7 180.441C111.067 184.197 124.387 188.942 124.414 181.258C128.457 187.589 134.685 182.295 133.295 178.126C137.12 177.559 141.326 175.608 143.396 181.394C145.554 178.717 143.836 176.039 142.093 173.36C147.327 174.932 151.425 177.453 152.683 182.347C155.184 177.803 152.508 174.17 149.262 170.637C152.009 171.858 155.088 172.761 155.778 175.948C159.667 160.002 156.107 153.678 149.913 150.756C158.525 148.497 161.239 142.421 160.34 134.007C168.998 134.283 172.403 128.877 175.981 123.658L165.391 117.53Z" fill="#DA121A"/>
<path d="M138.333 58.6157C132.367 49.339 111.903 34.8299 125.001 32.4322C138.683 27.2858 121.441 18.5787 119.728 24.1399C118.606 18.5856 107.288 18.63 110.339 27.197C108.259 22.7312 96.8046 30.5828 105.849 34.996C100.219 30.7514 95.8208 44.0637 107.244 42.2474C106.949 46.2542 104.256 49.0183 98.8325 50.3665C102.535 52.7665 105.837 52.2729 109.203 52.2356C108.292 54.6407 106.723 56.549 102.864 56.7239C105.431 57.7996 107.63 59.2626 112.791 57.6043C117.323 59.2875 119.179 61.4657 120.238 63.7917C128.661 77.3047 148.175 76.1499 138.333 58.6157V58.6157Z" fill="#DA121A"/>
<path d="M182.244 187.39C180.887 187.071 180.008 186.653 179.225 185.953C178.051 184.904 177.84 183.405 178.676 182.057L179.083 181.403L177.605 181.382C176.463 181.361 175.96 181.315 175.393 181.096C171.622 179.646 170.267 174.692 173.065 172.585C174.122 171.79 175.57 171.545 177.552 171.828L178.326 171.939V171.012C178.326 170.324 178.425 169.908 178.71 169.403C179.168 168.589 179.467 168.35 180.517 167.962C182.21 167.336 184.579 167.876 186.245 169.266C187.155 170.026 188.093 171.506 188.423 172.7C188.649 173.522 188.719 175.845 188.541 176.573C188.417 177.07 188.421 177.072 189.056 177.162C189.936 177.285 190.85 177.051 191.618 176.501C193.464 175.181 194.335 172.085 194.559 166.048L194.667 163.108L193.248 162.327C187.853 159.358 184.899 155.841 183.94 151.247C183.81 150.616 183.7 149.755 183.699 149.334C183.699 148.913 183.644 148.501 183.574 148.417C183.376 148.165 181.815 147.56 181.147 147.477C180.684 147.42 180.386 147.456 179.999 147.671C178.665 148.369 178.657 150.834 179.969 156.376C180.153 157.15 180.266 157.814 180.221 157.852C180.058 157.988 177.744 156.745 176.996 156.12C176.103 155.374 175.552 154.515 175.144 153.232C174.982 152.726 174.803 152.313 174.743 152.313C174.614 152.313 174.191 153.432 173.914 154.509C173.711 155.292 173.768 157.339 174.007 157.809C174.387 158.567 172.076 156.841 171.552 155.977C170.893 154.889 171 153.715 171.949 151.632C172.225 151.025 172.236 150.948 172.01 151.224C170.828 152.65 169.057 153.666 167.263 153.946C165.68 154.193 165.668 154.175 166.724 153.15C168.765 151.168 169.212 150.433 170.019 147.736C170.959 144.591 171.817 143.316 173.635 142.363C174.108 142.115 174.52 141.897 174.552 141.879C174.584 141.858 174.459 141.458 174.274 140.985C173.759 139.662 173.591 138.612 173.589 136.703C173.589 134.633 173.72 133.713 174.591 129.93C174.95 128.368 175.206 127.057 175.16 127.019C175.115 126.981 174.803 127.149 174.47 127.393C173.052 128.434 171.048 128.778 169.607 128.228C166.883 127.188 165.406 122.936 166.9 120.437L167.362 119.665L163.393 116.78C161.21 115.194 159.43 113.853 159.436 113.802C159.457 113.749 159.694 113.537 159.995 113.329L160.542 112.949L164.4 114.187C166.523 114.868 168.279 115.406 168.304 115.383C168.329 115.36 167.056 114.5 165.475 113.471C162.475 111.518 158.282 108.373 156.523 106.756C152.367 102.934 150.99 100.226 151.665 97.204C151.815 96.545 152.376 92.3927 152.918 87.9763C153.459 83.5601 153.916 79.9374 153.934 79.9265C154.044 79.8594 177.912 74.7149 177.955 74.7507C177.985 74.7758 177.786 79.4583 177.519 85.1584L177.031 95.5229L178.112 97.0582C178.706 97.9022 180.525 100.401 182.153 102.61C186.861 108.997 188.878 112.093 190.647 115.646C191.315 116.987 192.503 119.877 192.829 120.952C192.949 121.342 193.102 121.63 193.174 121.593C193.244 121.555 193.802 121.775 194.409 122.082C196.57 123.173 198.711 123.345 200.256 122.553C203.375 120.953 204.219 115.73 202.41 109.215C202.222 108.54 202.042 107.949 202.008 107.899C201.972 107.849 201.566 107.878 201.102 107.996C197.956 108.689 195.743 108.149 194.705 106.435C193.978 105.235 193.927 104.88 193.799 100.159C193.7 96.3581 193.615 95.3365 193.322 94.0316C192.424 90.0518 190.734 87.5184 188.232 86.4037L187.207 85.9475L187.746 85.7632C190.397 84.8587 192.756 85.0361 194.606 86.2787C195.936 87.1723 197.593 89.6111 198.548 92.084C198.73 92.5555 198.905 92.9414 198.937 92.9414C198.968 92.9414 198.964 92.7423 198.916 92.4987C198.88 92.2553 198.766 91.4434 198.668 90.6945C198.138 86.7458 196.678 81.0306 194.684 75.1028C193.732 72.2763 193.476 70.8096 193.354 67.4772C193.249 64.6585 193.388 63.2568 193.951 61.418C194.63 59.2011 196.311 57.1659 198.281 56.1767C199.27 55.6803 201.222 55.0856 201.863 55.0856C202.067 55.0856 202.81 54.8928 203.511 54.6557C204.618 54.2824 204.979 54.2263 206.252 54.229C207.113 54.229 208.036 54.317 208.489 54.4403L209.259 54.6498L209.983 52.7918C212.044 47.4987 213.049 41.7286 212.681 37.3164C212.425 34.2591 212.06 32.9754 211.088 31.7233C209.583 29.7831 207.812 29.0818 206.089 29.7427C205.3 30.0456 205.017 30.301 204.484 31.1896C203.27 33.2154 203.648 36.3319 205.43 38.9667C205.829 39.5568 206.426 40.7139 206.756 41.5378C207.907 44.4078 207.679 47.3715 206.111 49.9351C205.239 51.36 204.167 52.7168 204.081 52.5023C204.045 52.4122 204.102 51.7781 204.201 51.0916C204.755 47.3636 204.235 45.2762 201.961 42.1126C197.181 35.4602 196.568 29.5575 200.326 26.385C201.423 25.4591 202.566 24.9199 204.143 24.5825C209.268 23.4871 214.673 26.2185 216.819 30.9881C217.743 33.0422 218.281 37.4898 218.053 41.1976C217.769 45.8207 216.756 50.0629 214.717 55.1653L213.817 57.4194L214.538 58.3298C216.191 60.4187 216.852 62.4711 216.717 65.0865C216.609 67.2083 216.156 68.4892 214.563 71.2151C211.822 75.9045 211.188 78.7999 212.207 81.9804L212.512 82.9337L211.322 81.8912C210.047 80.7736 209.001 79.2882 208.555 77.9634C207.789 75.6862 208.23 73.0721 209.897 70.0104C210.178 69.4936 210.519 68.7626 210.652 68.3859C210.919 67.6329 210.986 65.0848 210.745 64.768C210.445 64.3723 209.781 65.9576 208.641 69.7932C206.116 78.2867 204.922 84.0039 204.444 89.8783L204.334 91.2402L205.314 89.6513C207.304 86.4245 209.374 84.7974 212.301 84.1602C212.82 84.0471 213.6 83.9549 214.034 83.9549C214.955 83.9549 216.869 84.2974 217.805 84.6297L218.459 84.8617L217.438 85.3163C214.642 86.5619 212.872 89.5732 212.122 94.3595C211.943 95.5022 211.876 96.9698 211.894 99.3296C211.915 101.973 211.864 102.891 211.655 103.686C211.106 105.783 210.109 106.762 208.164 107.11L207.371 107.252L207.727 108.575C210.335 118.276 207.748 125.392 200.921 127.191C199.383 127.597 197.033 127.654 195.507 127.323C194.981 127.208 194.502 127.133 194.444 127.153C194.256 127.22 194.893 130.548 195.337 131.821C196.572 135.367 199.004 138.591 201.322 139.757C203.159 140.68 204.947 140.59 206.736 139.483C207.473 139.027 207.779 138.719 208.155 138.055C208.727 137.043 209.613 136.363 210.883 135.961C211.629 135.725 212.03 135.686 213.129 135.741C216.331 135.9 218.878 137.801 219.432 140.443L219.524 140.894L218.998 140.454C217.709 139.377 215.062 138.832 213.386 139.297C212 139.682 211.5 140.337 211.518 141.749C211.552 144.287 210.287 146.279 208.23 146.935C207.521 147.162 207.472 147.209 207.473 147.669C207.473 148.619 207.802 151.846 207.974 152.587C208.507 154.894 209.861 157.572 211.382 159.328C212.311 160.401 213.755 162.683 214.373 164.055C214.848 165.109 215.372 166.734 215.613 167.897C215.842 168.998 215.812 172.201 215.561 173.285L215.358 174.17L214.988 173.23C213.959 170.611 212.02 168.361 209.368 166.706C207.695 165.663 207.591 165.65 208.715 166.63C211.212 168.803 212.696 172.025 212.469 174.781C212.417 175.42 212.275 176.216 212.157 176.549L211.941 177.155L211.279 176.004C210.047 173.861 207.954 172.075 205.414 170.997C204.796 170.735 204.856 170.809 206.147 171.898C208.212 173.64 209.396 175.675 210.007 178.53C210.34 180.088 210.286 184.205 209.935 184.172C209.88 184.151 209.557 183.688 209.217 183.106C207.739 180.584 205.308 178.999 202.212 178.539L201.594 178.447L201.984 179.101C203.308 181.319 203.179 183.946 201.671 185.451C200.932 186.19 199.672 186.888 198.564 187.174C196.138 187.801 192.988 187.317 190.921 186C190.644 185.824 190.377 185.679 190.329 185.679C190.28 185.679 189.789 185.931 189.235 186.239C187.204 187.373 184.251 187.852 182.228 187.377L182.244 187.39ZM202.004 73.767L202.554 71.664L201.931 70.8594C200.165 68.5755 200.062 66.6322 201.548 63.5879C202.288 62.0717 202.413 61.2019 201.983 60.5511C201.535 59.8726 201.151 59.8818 200.371 60.5888C199.627 61.2633 199.134 62.346 198.837 63.9548C198.626 65.1025 198.734 69.2678 199.014 70.8314C199.145 71.5805 200.365 75.5574 200.93 77.0952C201.042 77.3993 201.109 77.1937 202.004 73.7666L202.004 73.767Z" fill="#DA121A"/>
<path d="M206.03 74.2888C204.212 70.7055 203.376 67.2327 205.857 64.8045C208.088 61.5002 206.668 59.9069 203.265 58.2571C206.654 59.3604 210.451 60.2446 207.585 64.7083C205.649 67.777 205.047 70.9634 206.03 74.2888H206.03Z" fill="#DA121A"/>
<path d="M209.092 61.6831C210.815 63.1532 211.029 64.8458 210.924 66.5851L211.821 64.6449C211.873 63.1977 210.531 62.4173 209.092 61.6831Z" fill="#DA121A"/>
<path d="M136.713 82.8321C126.05 88.4438 110.138 106.505 106.376 95.7477C99.2931 84.6923 90.0849 99.6676 96.8399 100.714C90.2877 102.031 91.1183 111.465 101.134 108.333C95.9466 110.374 106.106 119.386 110.752 111.541C106.072 116.527 122.264 119.28 119.311 109.879C124.114 109.85 127.598 111.906 129.581 116.336C132.191 113.084 131.375 110.364 131.099 107.56C134.032 108.155 136.418 109.331 136.892 112.537C137.999 110.323 139.594 108.389 137.261 104.199C138.958 100.305 141.431 98.6068 144.134 97.5651C159.685 89.6126 156.966 73.4205 136.713 82.8321V82.8321Z" fill="#DA121A"/>
<path d="M171.459 47.6522C152.977 50.2461 132.895 47.9062 146.124 40.2307C141.107 33.2003 132.977 38.0155 134.982 44.0011C137.164 51.3781 144.431 51.6691 152.397 50.9881L172.68 48.4691L171.459 47.6522Z" fill="#DA121A"/>
<path d="M159.484 50.6477C159.748 51.847 159.928 53.0374 161.032 54.3244H158.221C158.086 53.0523 158.533 51.8292 159.484 50.6477Z" fill="#DA121A"/>
<path d="M156.339 46.9031C156.604 45.704 156.783 44.5136 157.887 43.2266H155.076C154.941 44.4987 155.389 45.7219 156.339 46.9031Z" fill="#DA121A"/>
<path d="M166.934 23.8286C162.333 24.0867 161.965 25.594 161.635 27.1128L148.636 34.57L152.859 37.5804C150.672 42.7245 154.789 46.0613 163.374 42.9171L168.838 40.454L172.068 42.8485C173.898 55.7025 166.805 53.4437 162.629 53.7267L155.674 53.7959C153.89 60.1872 157.877 60.5651 163.208 59.5431C166.502 59.6143 166.002 60.5105 163.375 61.8693C149.955 65.0955 136.304 68.6281 136.88 53.2485C129.711 55.3667 129.618 60.1258 132.078 65.8374C121.214 67.5187 117.172 73.1573 120.983 83.3521C123.705 78.1169 128.369 79.3036 132.906 80.0684C127.837 86.6841 127.101 93.7839 133.568 101.688C133.944 96.6638 136.042 91.8676 144.166 87.8678C139.544 95.6164 140.836 102.035 143.007 108.256C145.033 106.259 142.682 105.205 151.121 101.825C156.326 101.206 160.275 99.3614 162.05 95.3937C164.784 101.333 173.228 102.143 183.081 101.688C176.113 98.5937 177.179 93.3748 177.782 88.2782C178.923 88.9957 179.902 89.7267 184.074 90.1938C180.645 85.7739 179.516 81.8499 183.247 78.9736C186.854 74.8167 186.281 70.503 183.026 66.0884C187.496 69.9969 190.915 68.9153 194.15 66.959C190.031 65.8467 189.521 63.7406 190.052 61.3473C190.539 58.4875 191.825 55.5284 186.305 53.4133C189.374 54.3537 192.419 55.5106 195.79 53.7037C191.924 51.192 188.119 48.6704 191.574 44.8989C193.042 42.5258 192.134 40.8537 189.232 39.7705C193.782 36.2934 194.754 33.5664 190.169 32.5142L166.934 23.8286Z" fill="#DA121A" stroke="#F1F1F1" stroke-width="0.582056"/>
<path d="M145.706 68.2837C143.172 72.9056 142.553 76.8412 142.135 80.7048C146.743 79.4034 151.308 78.295 157.111 71.7501C159.481 74.9243 157.825 79.0162 156.995 82.9192C162.105 83.7527 166.51 81.4479 170.704 78.2014C171.779 83.3874 172.819 88.0632 183.376 90.2373C174.99 86.6534 173.701 80.9935 171.165 75.6979C168.006 77.8478 165.597 80.4993 159.53 80.7048C160.545 76.5325 160.805 72.3598 159.069 68.1873C154.769 71.1273 154.992 73.8782 145.245 77.0459C144.388 73.6186 145.066 70.9612 145.705 68.2837H145.706Z" fill="white"/>
<path d="M176.811 42.96C177.669 51.5506 177.724 59.6164 164.714 59.1363C176.982 58.5623 176.442 50.4957 176.811 42.96Z" fill="white"/>
<path d="M165.431 27.6525C164.553 28.5638 164.514 29.8705 165.16 30.4161C167.635 29.4756 170.148 29.8151 172.648 29.747C170.714 28.3887 168.248 27.3984 165.431 27.6525L165.431 27.6525Z" fill="white"/>
<path fill-rule="evenodd" clip-rule="evenodd" d="M167.218 28.8309C167.189 29.5353 166.603 30.1589 165.908 30.2237C165.213 30.2885 164.673 29.77 164.701 29.0655C164.73 28.3611 165.316 27.7375 166.011 27.6727C166.706 27.6079 167.246 28.1264 167.218 28.8309Z" fill="#DA121A"/>
<path fill-rule="evenodd" clip-rule="evenodd" d="M165.966 28.6811C165.957 28.9085 165.776 29.109 165.562 29.1291C165.348 29.1491 165.182 28.9811 165.191 28.7537C165.2 28.5263 165.381 28.3258 165.595 28.3057C165.809 28.2857 165.975 28.4537 165.966 28.6811Z" fill="white"/>
<path d="M167.696 24.8226C165.554 24.4998 161.912 26.6969 165.425 27.4744C169.593 27.5255 171.622 28.9641 173.713 30.3623C171.895 28.8208 170.726 26.9087 166.236 26.891C164.489 26.9175 164.207 25.4426 167.696 24.8225L167.696 24.8226Z" fill="white"/>
<path d="M164.422 31.5317C165.26 29.9147 167.258 30.375 169.181 30.7021C167.349 30.6344 165.391 30.3907 164.422 31.5317Z" fill="white"/>
<path d="M177.288 28.0952C171.505 25.9491 166.675 24.1344 166.553 24.062C166.363 23.9509 166.394 23.6591 166.777 22.064C167.022 21.0371 167.259 20.1697 167.303 20.1364C167.366 20.0882 190.679 28.6837 190.807 28.8023C190.868 28.8588 188.05 31.971 187.924 31.984C187.856 32.0049 183.069 30.2411 177.288 28.0952V28.0952ZM188.471 30.1988C189.41 29.3018 188.378 27.9983 187.241 28.6449C186.84 28.8724 186.55 29.4728 186.645 29.876C186.807 30.5625 187.89 30.7541 188.471 30.1988ZM185.946 29.5804C186.624 29.1942 186.762 28.1606 186.174 27.8635C185.053 27.2973 183.832 28.4501 184.545 29.402C184.809 29.7547 185.487 29.8412 185.946 29.58V29.5804ZM183.702 28.5882C184.546 27.9524 184.334 26.8323 183.361 26.7898C182.165 26.7374 181.604 28.4677 182.694 28.8479C183.111 28.9945 183.19 28.9736 183.702 28.5882ZM181.395 27.5705C181.811 27.233 181.991 26.561 181.754 26.229C181.3 25.5909 180.238 25.6971 179.821 26.4217C179.211 27.4834 180.418 28.3638 181.395 27.5699V27.5705ZM178.841 26.667C179.509 26.1638 179.457 25.2042 178.746 24.9424C178.301 24.779 177.49 25.0199 177.302 25.3729C176.706 26.4927 177.823 27.4331 178.84 26.667H178.841ZM176.286 25.7617C176.898 25.366 176.996 24.5446 176.478 24.1542C175.984 23.7827 175.724 23.7992 175.14 24.2379C173.918 25.1581 174.996 26.5931 176.287 25.7606L176.286 25.7617ZM173.827 24.5674C174.249 24.0515 174.291 23.6927 173.979 23.2748C173.58 22.7406 172.607 22.8342 172.177 23.4486C171.638 24.2184 171.983 24.9304 172.916 24.9711C173.376 24.992 173.542 24.9187 173.828 24.5678L173.827 24.5674ZM171.193 23.7427C171.725 23.342 171.808 22.5872 171.366 22.176C170.958 21.7981 170.7 21.8027 170.071 22.2012C169.667 22.4567 169.542 22.6413 169.519 23.0183C169.46 23.952 170.385 24.3525 171.193 23.744L171.193 23.7427ZM168.274 23.0022C169.43 22.6914 169.391 20.999 168.228 20.9483C167.262 20.9064 166.583 22.1984 167.247 22.8143C167.597 23.1396 167.697 23.1576 168.276 23.0028L168.274 23.0022ZM179.421 23.7963C172.887 21.3658 167.518 19.3585 167.488 19.3361C167.458 19.3152 167.767 17.8583 168.176 16.1018L168.919 12.9083L167.912 12.0936C166.416 10.8829 165.639 10.0737 165.234 9.30301C164.789 8.45882 164.799 8.06941 165.274 7.71288C165.737 7.3641 166.686 7.4902 167.867 8.05726C168.96 8.58116 170.876 10.3948 171.689 11.6741C172.581 13.0782 172.553 13.6385 171.524 14.9279C170.659 16.0119 170.537 16.663 170.982 17.8208C171.757 19.8353 174.337 20.9743 176.857 20.4133C177.792 20.2059 179.228 19.3339 179.665 18.709C180.06 18.1457 180.056 17.025 179.644 15.9242C179.45 15.3909 179.284 14.8439 179.276 14.709C179.255 14.5205 180.003 14.1729 182.409 13.2319C184.141 12.5545 185.593 12.0321 185.635 12.0713C185.739 12.1697 187.813 17.7391 187.751 17.7592C185.726 18.417 184.428 19.1047 183.953 19.7719C183.49 20.4221 183.474 21.8096 183.917 22.7454C185.075 25.1887 188.32 26.0562 191.054 24.6537C191.917 24.2107 192.182 23.8569 192.523 22.6901C192.875 21.4887 193.326 20.9856 194.358 20.6483C196.239 20.0337 199.751 19.9212 201.439 20.4214C202.35 20.6919 203.22 21.3545 203.195 21.76C203.169 22.1492 202.414 22.6587 201.524 22.8861C200.963 23.0286 200.087 23.0684 198.385 23.0265L196.022 22.97L193.703 25.6004C192.427 27.047 191.362 28.2272 191.336 28.223C191.311 28.223 185.945 26.2265 179.412 23.7959L179.421 23.7963ZM183.811 17.4965C184.484 16.9893 184.876 16.1634 184.767 15.4803C184.518 13.9299 182.254 14.9976 182.147 16.716C182.075 17.888 182.824 18.2399 183.811 17.4965Z" fill="#DA121A"/>
<path d="M176.822 34.1024L177.654 29.403C183.308 25.0457 192.156 28.9694 183.478 37.2668L177.695 38.2199L176.822 34.1024Z" fill="#DA121A"/>
<path d="M176.821 34.2665L176.781 29.4328C179.266 26.5101 185.751 25.1663 187.086 30.3859C186.101 27.5608 181.146 26.5782 178.003 29.9089L176.821 34.2665Z" fill="#DA121A"/>
<path d="M187.146 30.4243C186.432 33.2866 185.266 35.8701 182.503 37.4711C186.293 36.1633 187.247 33.5388 187.146 30.4243Z" fill="#DA121A"/>
<path d="M177.982 35.9051L178.022 35.7354L179.529 33.1827L179.734 30.391L183.888 28.825C178.16 32.1217 180.726 31.6286 182.91 31.3099C178.495 33.1265 180.088 33.4041 182.3 33.5229C180.643 33.4537 179.204 34.2496 177.982 35.9057V35.9051Z" fill="#DA121A"/>
<path d="M86.479 95.1368C88.5038 91.0989 93.9819 90.5046 98.8058 93.211C100.915 94.8397 98.9281 98.4637 95.2923 97.881C93.6364 94.9122 89.5399 94.2903 86.479 95.1368Z" fill="#DA121A" stroke="#F1F1F1" stroke-width="0.575937"/>
<path d="M88.6279 110.681C86.1317 106.832 89.0103 102.891 94.5562 101.445C97.3965 101.091 99.531 104.656 96.7091 106.66C92.9036 105.878 89.7564 108.156 88.6279 110.681Z" fill="#DA121A" stroke="#F1F1F1" stroke-width="0.575937"/>
<path d="M101.496 121.62C96.8762 119.556 96.6818 114.942 100.358 111.182C102.495 109.579 106.626 111.572 105.591 114.543C101.899 115.643 100.775 118.993 101.496 121.62Z" fill="#DA121A" stroke="#F1F1F1" stroke-width="0.575937"/>
<path d="M116.265 122.227C111.029 122.133 108.358 118.091 109.601 113.348C110.64 111.111 115.403 111.327 116.088 114.368C113.39 116.743 114.201 120.157 116.265 122.227H116.265Z" fill="#DA121A" stroke="#F1F1F1" stroke-width="0.575937"/>
<path d="M120.177 15.5787C125.412 15.4153 128.362 19.3185 127.454 24.1147C126.574 26.3995 121.805 26.4179 120.907 23.4155C123.433 20.9112 122.384 17.5434 120.177 15.5787Z" fill="#DA121A" stroke="#F1F1F1" stroke-width="0.575937"/>
<path d="M107.58 16.9971C112.327 15.1458 116.861 17.7837 118.255 22.4974C118.507 24.8884 114.121 26.455 111.898 23.9804C113.06 20.8523 110.527 18.0904 107.58 16.9971Z" fill="#DA121A" stroke="#F1F1F1" stroke-width="0.575937"/>
<path d="M96.5083 25.8399C99.7685 22.4133 105.234 23.0839 108.998 26.7828C110.499 28.8288 107.41 31.8662 104.1 30.4805C103.47 27.2476 99.7295 25.7195 96.5083 25.8399Z" fill="#DA121A" stroke="#F1F1F1" stroke-width="0.575937"/>
<path d="M95.1139 32.562C93.4392 36.7103 97.0787 40.1836 102.838 40.8186C105.71 40.762 107.086 36.9451 103.897 35.373C100.306 36.6856 96.7408 34.8885 95.1139 32.562Z" fill="#DA121A" stroke="#F1F1F1" stroke-width="0.575937"/>
<path d="M100.419 171.565C100.63 167.19 105.514 165.033 111.164 166.161C113.822 167.07 113.475 171.047 109.824 171.562C107.032 169.264 102.934 169.878 100.419 171.562V171.565Z" fill="#DA121A" stroke="#F1F1F1" stroke-width="0.575937"/>
<path d="M105.212 183.501C102.335 179.843 104.804 175.712 110.183 173.879C112.978 173.325 115.466 176.726 112.857 178.922C108.986 178.413 106.081 180.906 105.212 183.501Z" fill="#DA121A" stroke="#F1F1F1" stroke-width="0.575937"/>
<path d="M117.672 189.421C113.193 187.151 113.298 182.535 117.212 178.947C119.451 177.443 123.446 179.621 122.22 182.541C118.463 183.471 117.122 186.766 117.672 189.421V189.421Z" fill="#DA121A" stroke="#F1F1F1" stroke-width="0.575937"/>
<path d="M129.56 188.656C134.61 187.492 136.014 183.026 133.417 178.683C131.754 176.726 127.199 177.911 127.428 181C130.739 182.751 130.955 186.226 129.56 188.656Z" fill="#DA121A" stroke="#F1F1F1" stroke-width="0.575937"/>
<path d="M170.577 169.663C172.602 165.625 178.08 165.031 182.904 167.738C185.013 169.366 183.028 172.99 179.39 172.407C177.735 169.439 173.638 168.817 170.577 169.663Z" fill="#DA121A" stroke="white" stroke-width="0.575937"/>
<path d="M166.273 180.204C165.459 175.879 169.747 172.968 175.552 173.153C178.37 173.613 178.958 177.569 175.497 178.67C172.223 176.87 168.346 178.14 166.274 180.204H166.273Z" fill="#DA121A" stroke="white" stroke-width="0.575937"/>
<path d="M177.584 191.519C173.98 188.342 175.54 183.912 180.448 181.315C183.082 180.358 186.248 183.34 184.143 185.886C180.225 185.955 177.892 188.836 177.584 191.519V191.519Z" fill="#DA121A" stroke="white" stroke-width="0.575937"/>
<path d="M196.427 192.622C201.642 192.207 203.95 188.012 202.292 183.358C201.059 181.19 196.328 181.698 195.913 184.774C198.811 186.977 198.304 190.432 196.427 192.622Z" fill="#DA121A" stroke="white" stroke-width="0.575937"/>
<path d="M125.901 277.789H125.315V313.446H125.901V277.789Z" fill="#DA121A"/>
<path d="M180.907 280.391H180.321V316.048H180.907V280.391Z" fill="#DA121A"/>
<path d="M182.545 278.991V278.393H124.589V278.991H182.545Z" fill="#DA121A"/>
<path d="M171.726 334.582V335.179H136.765V334.582H171.726Z" fill="#DA121A"/>
</g>
<defs>
<clipPath id="clip0_1_3672">
<rect width="600" height="400" fill="white"/>
</clipPath>
</defs>
</svg>
