<svg width="600" height="400" viewBox="0 0 600 400" fill="none" xmlns="http://www.w3.org/2000/svg" xmlns:cgf="https://coding.garden/flags"><metadata id="cgf-metadata">

<cgf:flag>
  <cgf:name>Beesel</cgf:name>
  <cgf:route>nl/li/beesel</cgf:route>
  <cgf:aspect-ratio>1.5</cgf:aspect-ratio>
</cgf:flag>

</metadata><g clip-path="url(#clip0_1_3632)">
<path d="M600 0H0V200.007H600V0Z" fill="#FFCC33"/>
<path d="M600 199.993H0.000488281V400H600V199.993Z" fill="#0066FF"/>
<path d="M-0.23291 200.036V188.323H25.6335C24.6615 163.643 33.2673 143.412 42.4468 123.447L21.7536 109.481L32.1002 91.0097L53.2244 102.723C66.0854 85.1027 80.0975 68.2839 99.784 55.4185L88.1441 33.7933L107.113 19.8271L119.615 42.8038C141.311 32.4641 161.993 29.5418 182.557 27.486L181.263 0.00409836L201.956 -0.896973L203.681 27.486C225.574 29.7316 246.166 36.0559 265.76 45.5069L278.694 21.6292L296.8 32.4418L285.591 58.5721C304.19 69.7713 316.444 87.6014 328.271 105.877L351.982 91.0097L361.897 109.932L339.48 127.052C347.804 146.878 355.051 167.025 355.431 189.224L382.59 188.773L383.022 200.036H343.36C339.201 4.53528 54.4133 -21.6013 38.1357 200.036H-0.23291V200.036Z" fill="#FF3333"/>
<path d="M-0.330566 200.036V211.75H25.5359C24.5638 236.43 33.1695 256.661 42.349 276.625L21.6559 290.592L32.0025 309.063L53.1267 297.349C65.9877 314.97 79.9998 331.789 99.6863 344.654L88.0464 366.279L107.015 380.246L119.517 357.269C141.213 367.609 161.895 370.531 182.459 372.587L181.166 400.069L201.859 400.97L203.583 372.587C225.476 370.341 246.068 364.017 265.663 354.566L278.596 378.444L296.702 367.631L285.494 341.501C304.092 330.301 316.346 312.471 328.173 294.196L351.884 309.063L361.8 290.141L339.382 273.021C347.707 253.195 354.954 233.047 355.333 210.849L382.493 211.299L382.924 200.036H343.262C339.103 395.537 54.3156 421.674 38.0379 200.036H-0.330566V200.036Z" fill="#00CC00"/>
<path d="M100.23 200.531C97.0285 169.129 115.446 149.388 137.116 131.402L136.811 125.667L124.922 134.587C127.389 128.131 128.181 120.868 140.774 119.296C152.525 114.14 149.7 104.541 139.859 98.9076C123.907 96.5938 118 105.827 109.68 112.287C113.543 105.258 111.224 96.9367 126.141 92.2177C133.647 68.3513 148.737 69.1426 163.332 68.3252C172.22 65.6145 178.525 60.2041 182.537 52.3967C181.88 62.407 175.567 69.4617 165.161 74.3779L166.99 76.2894C173.93 74.7439 178.6 69.6403 184.061 65.7766C179.517 71.8209 174.952 77.8327 168.819 81.3864C168.215 90.0939 172.278 98.8014 165.161 107.509C164.804 112.645 161.246 112.95 167.6 128.216L166.99 133.313C154.545 138.844 150.58 147.64 153.577 159.117C157.221 152.311 160.235 145.066 170.953 143.189C181.794 136.42 180.868 123.912 179.793 111.332C177.467 86.0175 185.697 72.4252 209.362 75.9708C221.011 81.5943 228.594 80.8449 233.75 76.2894C249.564 68.1454 256.012 75.7717 257.222 92.2177C243.251 84.5825 242.389 94.9285 241.066 104.642C229.121 102.46 226.657 110.185 227.653 121.526C220.515 119.898 215.011 120.587 219.117 134.906C210.292 132.919 204.988 135.95 205.095 146.693C196.225 142.821 191.465 148.254 187.414 155.294C176.592 157.039 171.006 165.036 165.771 173.453C166.981 176.05 170.024 179.15 174.172 178.753C183.58 177.853 190.165 179.481 194.121 182.691C231.722 159.233 257.398 167.451 275.513 195.752C282.611 191.741 283.665 185.022 285.267 178.55H271.55C282.04 167.91 281.328 155.469 281.609 143.189C290.222 155.082 296.665 166.975 299.595 178.868L291.059 179.187C290.373 185.372 291.863 190.8 281.914 200.212L100.23 200.531Z" fill="#0066FF"/>
<path d="M142.932 90.2932C143.993 87.7651 147.26 86.927 152.632 87.7027C151.604 83.4613 146.305 76.7609 141.315 88.1533L142.932 90.2932Z" fill="#FF3333"/>
<path d="M147.351 106.062C149.341 109.443 148.52 113.776 145.627 116.086C134.644 113.55 129.078 120.762 123.101 127.236C116.162 133.561 109.001 139.116 100.36 139.513C93.4244 139.981 84.6335 137.982 80.5293 142.216C81.8426 136.617 82.1345 130.714 85.2715 125.659C88.4499 123.722 93.2267 123.732 98.0969 123.857C98.8548 126.574 100.937 131.77 109.845 125.997C121.895 114.629 133.902 102.816 147.351 106.062V106.062Z" fill="#FF3333"/>
<path d="M100.23 200.212C103.161 213.226 101.194 231.997 117.301 229.521C119.108 236.729 116.448 246.452 128.885 247.679C130.288 252.501 131.518 257.583 138.945 253.413V265.2L124.617 296.738C120.858 302.326 117.098 298.717 113.338 297.376L112.981 287.666C116.863 283.078 114.196 282.292 112.728 280.81H107.546C106.119 281.872 106.956 282.934 106.937 283.996C96.8821 276.684 94.822 290.235 101.449 288.774L106.022 297.376C107.649 307.675 115.972 307.794 124.312 307.888L128.885 313.304C139.164 320.861 137.379 306.98 132.238 308.525C127.257 292.24 140.072 279.94 146.261 266.156C160.382 276.176 166.42 293.517 167.295 315.534L164.551 319.994C161.206 320.385 159.274 318.055 158.038 315.423C156.233 311.58 151.72 311.671 151.443 314.578L156.32 324.454C158.317 328.953 163.294 327.666 167.295 328.277H174.916L191.682 324.135C195.589 325.337 196.663 323.308 197.169 320.631L200.522 316.49C199.024 313.022 195.759 312.109 186.195 320.312C180.961 319.797 176.443 318.641 173.391 316.171L166.38 260.422C170.16 257.598 171.906 250.521 174.001 244.175L183.756 249.909C199.61 211.379 220.335 201.352 245.029 214.548C246.223 225.11 255.125 239.502 242.895 261.059C239.033 262.541 235.172 265.981 231.311 255.962C229.503 243.195 237.966 234.556 247.467 226.335L244.724 214.229C218.587 224.831 200.098 241.427 209.058 279.536C220.866 304.06 255.773 286.077 265.453 271.572C282.922 248.007 279.496 223.576 282.246 200.011L100.23 200.212V200.212Z" fill="#FFCC33"/>
<path d="M86.4644 281.732C89.7601 278.354 96.6083 276.228 101.963 282.425C102.857 284.373 100.82 286.453 98.3994 287.708C96.6731 284.34 92.5155 281.678 86.4644 281.732Z" fill="#E32D41"/>
<path d="M102.515 268.669C107.131 268.692 113.429 272.216 113.063 280.557C112.386 282.598 109.539 282.579 106.973 281.691C108.014 278.028 106.852 273.08 102.515 268.669V268.669Z" fill="#E32D41"/>
<path d="M144.447 300.861C145.375 305.587 143.37 312.753 135.483 314.093C133.433 313.821 132.865 310.905 133.169 308.099C136.813 308.41 141.208 306.203 144.447 300.861V300.861Z" fill="#E32D41"/>
<path d="M141.096 313.004C144.392 309.626 151.24 307.5 156.595 313.697C157.489 315.645 155.452 317.725 153.031 318.98C151.305 315.612 147.147 312.95 141.096 313.004Z" fill="#E32D41"/>
<path d="M143.783 327.165C144.764 322.451 149.371 316.746 157.102 318.853C158.872 319.969 158.263 322.876 156.899 325.314C153.686 323.489 148.813 323.649 143.783 327.165V327.165Z" fill="#E32D41"/>
<path d="M201.341 333.332C204.53 329.844 206.475 322.66 200.477 317.145C198.602 316.236 196.637 318.391 195.468 320.937C198.713 322.698 201.314 327.008 201.341 333.332Z" fill="#E32D41"/>
</g>
<defs>
<clipPath id="clip0_1_3632">
<rect width="600" height="400" fill="white"/>
</clipPath>
</defs>
</svg>
