<svg width="600" height="400" viewBox="0 0 600 400" fill="none" xmlns="http://www.w3.org/2000/svg" xmlns:cgf="https://coding.garden/flags"><metadata id="cgf-metadata">

<cgf:flag>
  <cgf:name>Brunssum</cgf:name>
  <cgf:route>nl/li/brunssum</cgf:route>
  <cgf:aspect-ratio>1.5</cgf:aspect-ratio>
</cgf:flag>

</metadata><g clip-path="url(#clip0_1_3736)">
<path d="M-0.081543 202.158V403.527H603.623V202.158H-0.081543V202.158Z" fill="#DA121A"/>
<path d="M-0.0810547 -3.35962V205.58H603.645V-3.35962H-0.0810547V-3.35962Z" fill="#0C44AE"/>
<path d="M355.259 140.015H300.075V271.212C329.463 272.474 355.896 248.158 355.259 216.372V140.015V140.015Z" fill="#0C44AE"/>
<path d="M244.89 140.015H300.075V271.212C270.687 272.474 244.253 248.158 244.89 216.372V140.015V140.015Z" fill="#DA121A"/>
<path d="M325.161 171.927L325.901 171.334L326.144 171.638L326.41 171.334L327.219 171.76L326.86 172.018L326.502 172.292L326.178 172.474L325.866 172.383L325.647 172.261L325.277 172.064L325.693 171.927L325.901 171.896L326.352 171.911L327.103 171.79H326.375L326.155 171.835L325.982 171.79H325.751L325.161 171.926L325.161 171.927Z" fill="#00335D"/>
<path d="M325.637 167.187C325.51 168.674 323.743 171.121 326.908 170.681C322.722 171.733 325.482 168.692 325.637 167.187Z" fill="#00335D"/>
<path d="M322.073 166.245C323.332 164.856 324.229 165.921 325.213 166.396C324.166 166.138 323.12 165.764 322.073 166.245Z" fill="#00335D"/>
<path d="M330.236 166.801C328.769 164.719 327.29 165.551 326.375 166.254C327.402 165.518 329.167 165.747 330.236 166.801Z" fill="#00335D"/>
<path d="M324.946 167.065C324.13 168.491 323.48 167.616 322.827 167.019C323.235 166.637 324.094 166.239 324.946 167.065Z" fill="#00335D"/>
<path d="M326.963 167.195C327.922 168.541 329.335 167.731 329.632 167.15C328.987 166.699 327.65 166.168 326.963 167.195Z" fill="#00335D"/>
<path fill-rule="evenodd" clip-rule="evenodd" d="M328.667 167.43C328.667 167.559 328.611 167.682 328.513 167.773C328.414 167.865 328.28 167.916 328.141 167.916C328.001 167.916 327.867 167.865 327.769 167.773C327.67 167.682 327.615 167.559 327.615 167.43C327.615 167.301 327.67 167.177 327.769 167.086C327.867 166.995 328.001 166.943 328.141 166.943C328.28 166.943 328.414 166.995 328.513 167.086C328.611 167.177 328.667 167.301 328.667 167.43V167.43Z" fill="#00335D"/>
<path fill-rule="evenodd" clip-rule="evenodd" d="M324.545 167.384C324.545 167.505 324.495 167.621 324.405 167.706C324.315 167.792 324.194 167.84 324.067 167.84C323.94 167.84 323.818 167.792 323.728 167.706C323.638 167.621 323.588 167.505 323.588 167.384C323.588 167.263 323.638 167.147 323.728 167.062C323.818 166.976 323.94 166.928 324.067 166.928C324.194 166.928 324.315 166.976 324.405 167.062C324.495 167.147 324.545 167.263 324.545 167.384V167.384Z" fill="#00335D"/>
<path fill-rule="evenodd" clip-rule="evenodd" d="M324.373 167.399C324.373 167.46 324.345 167.517 324.295 167.56C324.245 167.603 324.177 167.627 324.106 167.627C324.035 167.627 323.968 167.603 323.918 167.56C323.867 167.517 323.839 167.46 323.839 167.399C323.839 167.339 323.867 167.281 323.918 167.238C323.968 167.195 324.035 167.171 324.106 167.171C324.177 167.171 324.245 167.195 324.295 167.238C324.345 167.281 324.373 167.339 324.373 167.399V167.399Z" fill="#00335D"/>
<path fill-rule="evenodd" clip-rule="evenodd" d="M328.431 167.475C328.431 167.536 328.403 167.594 328.353 167.636C328.303 167.679 328.235 167.703 328.164 167.703C328.094 167.703 328.026 167.679 327.976 167.636C327.926 167.594 327.897 167.536 327.897 167.475C327.897 167.415 327.926 167.357 327.976 167.314C328.026 167.271 328.094 167.247 328.164 167.247C328.235 167.247 328.303 167.271 328.353 167.314C328.403 167.357 328.431 167.415 328.431 167.475V167.475Z" fill="#00335D"/>
<path fill-rule="evenodd" clip-rule="evenodd" d="M324.161 167.338C324.161 167.359 324.153 167.378 324.138 167.392C324.123 167.406 324.103 167.414 324.082 167.414C324.062 167.414 324.042 167.406 324.027 167.392C324.012 167.378 324.004 167.359 324.004 167.338C324.004 167.318 324.012 167.299 324.027 167.285C324.042 167.27 324.062 167.262 324.082 167.262C324.103 167.262 324.123 167.27 324.138 167.285C324.153 167.299 324.161 167.318 324.161 167.338V167.338Z" fill="#00335D"/>
<path fill-rule="evenodd" clip-rule="evenodd" d="M328.164 167.384C328.164 167.404 328.156 167.424 328.141 167.438C328.127 167.452 328.107 167.46 328.086 167.46C328.065 167.46 328.045 167.452 328.03 167.438C328.016 167.424 328.007 167.404 328.007 167.384C328.007 167.364 328.016 167.345 328.03 167.33C328.045 167.316 328.065 167.308 328.086 167.308C328.107 167.308 328.127 167.316 328.141 167.33C328.156 167.345 328.164 167.364 328.164 167.384V167.384Z" fill="#00335D"/>
<path d="M326.955 167.262C328.079 166.598 328.824 166.926 330.032 167.369C329.124 165.956 327.055 165.493 326.955 167.262Z" fill="#00335D"/>
<path d="M324.977 167.151C323.882 166.711 323.632 166.667 322.465 167.029C322.274 165.706 326.467 166.608 324.977 167.151Z" fill="#00335D"/>
<path d="M326.987 167.293C328.049 168.323 328.922 167.984 329.734 167.202C328.436 168.949 327.373 167.971 326.987 167.293Z" fill="#00335D"/>
<path d="M322.811 167.05C323.592 168.34 324.615 168.281 324.977 167.141C324.279 168.291 323.551 167.956 322.811 167.05Z" fill="#00335D"/>
<path d="M319.13 160.537C319.658 160.389 320.621 159.78 321.103 160.958C322.582 160.43 323.19 161.543 322.54 162.64L324.68 161.864L324.78 160.925C325.019 160.478 324.656 160.225 324.346 159.955C322.789 159.045 324.196 158.334 324.546 158.466C324.071 157.147 325.986 156.525 325.95 158.466C327.406 158.367 327.347 159.687 326.485 159.922L326.385 161.508L327.565 161.475V163.223C324.966 163.072 323.463 164.126 322.24 165.488L321.805 164.841L322.373 164.938C323.399 163.622 325.027 162.841 327.565 162.867V161.831L326.051 161.767L326.118 160.084C327.203 159.246 326.91 158.522 325.75 158.822C325.59 156.903 324.502 157.646 324.881 158.757C323.295 158.633 324.101 159.554 324.647 159.857C324.975 160.088 325.285 160.331 325.181 160.86L325.115 162.025L322.186 163.145C322.62 161.754 322.583 160.628 320.969 161.314C320.487 160.394 319.867 160.551 319.264 160.569L319.13 160.537L319.13 160.537Z" fill="#00335D"/>
<path d="M335.077 160.561C334.608 160.414 333.749 159.804 333.32 160.982C332.003 160.454 331.462 161.568 332.04 162.665L330.134 161.888L330.045 160.95C329.833 160.502 330.156 160.249 330.432 159.979C331.818 159.069 330.566 158.358 330.253 158.49C330.677 157.171 328.971 156.549 329.003 158.49C327.706 158.391 327.759 159.711 328.526 159.946L328.616 161.532L327.565 161.5V163.247C330.025 163.474 331.173 164.421 332.237 165.718L332.695 164.865L332.189 164.962C331.299 163.926 329.863 163.309 327.565 162.891V161.787L328.913 161.79L328.854 160.108C327.887 159.27 328.148 158.546 329.181 158.846C329.323 156.926 330.293 157.67 329.956 158.781C331.368 158.657 330.65 159.578 330.164 159.881C329.871 160.111 329.595 160.355 329.688 160.884L329.747 162.049L332.356 163.168C331.969 161.778 332.002 160.652 333.44 161.337C333.869 160.418 334.421 160.575 334.958 160.593L335.077 160.561L335.077 160.561Z" fill="#00335D"/>
<path d="M321.972 157.981C322.524 156.093 331.643 155.674 332.971 157.787C330.869 156.636 325.731 156.006 321.972 157.981Z" fill="#00335D"/>
<path d="M321.989 156.324C322.541 154.436 331.661 154.018 332.988 156.13C330.886 154.979 325.748 154.35 321.989 156.324Z" fill="#00335D"/>
<path d="M323.794 153.185C324.171 151.754 330.408 151.437 331.316 153.038C329.879 152.166 326.365 151.688 323.794 153.185Z" fill="#00335D"/>
<path d="M324.462 151.923C324.773 150.492 329.901 150.175 330.647 151.776C329.465 150.904 326.576 150.426 324.462 151.923V151.923Z" fill="#00335D"/>
<path d="M319.125 160.492L322.222 165.457L322.435 164.817L319.834 160.583L319.125 160.492V160.492Z" fill="#00335D"/>
<path d="M332.292 165.755L333.072 163.467L335.035 161.865L335.011 160.515L334.585 161.613L332.647 163.238L331.867 165.251L332.292 165.755H332.292Z" fill="#00335D"/>
<path d="M322.733 176.29C324.597 180.275 331.391 178.675 332.756 175.969C330.138 177.481 327.144 179.59 322.733 176.29Z" fill="#00335D"/>
<path d="M321.22 178.179C323.787 182.165 333.145 180.564 335.025 177.859C331.42 179.37 327.295 181.479 321.22 178.179Z" fill="#00335D"/>
<path d="M318.998 179.277C322.355 184.124 333.569 182.968 337.626 179.964C332.632 181.689 326.277 183.802 318.998 179.277Z" fill="#00335D"/>
<path d="M317.059 180.192C321.137 186.432 333.77 185.024 338.95 181.565C332.894 183.591 324.864 186.412 317.059 180.192Z" fill="#00335D"/>
<path d="M316.847 183.097C320.925 189.337 333.558 187.929 338.737 184.47C332.682 186.496 324.652 189.317 316.847 183.097Z" fill="#00335D"/>
<path d="M305.663 171.891L307.696 171.571L309.918 172.005L311.762 172.6L313.086 172.829L314.41 172.943L315.474 173.447L316.041 173.996L314.788 173.561L313.559 173.584L312.33 173.676L311.006 173.172L310.107 172.372L308.902 172.051L307.649 171.845L305.663 171.891V171.891Z" fill="#00335D"/>
<path d="M306.443 183.538L312.566 178.115L312.708 177.039L312.944 177.611L312.92 178.344L306.443 183.538H306.443Z" fill="#00335D"/>
<path d="M322.702 187.199L321.811 241.821L324.634 242.339L326.268 242.727L328.645 242.339L330.577 241.174L331.171 187.328L322.702 187.199V187.199Z" fill="#00335D"/>
<path opacity="0.330612" d="M325.421 187.328L324.351 242.08L325.287 242.598L326.758 242.727L328.363 241.821L328.898 187.717L325.421 187.328V187.328Z" fill="black"/>
<path d="M322.642 230.977L323.411 229.262L324.38 231.01L323.444 230.136L322.642 230.977Z" fill="black"/>
<path d="M322.642 232.53L323.411 230.815L324.38 232.563L323.444 231.689L322.642 232.53Z" fill="black"/>
<path d="M322.642 234.116L323.411 232.401L324.38 234.149L323.444 233.275L322.642 234.116Z" fill="black"/>
<path d="M322.642 235.799L323.411 234.084L324.38 235.831L323.444 234.957L322.642 235.799Z" fill="black"/>
<path d="M322.642 239.288L323.411 237.573L324.38 239.32L323.444 238.446L322.642 239.288Z" fill="black"/>
<path d="M322.642 240.679L323.411 238.964L324.38 240.711L323.444 239.838L322.642 240.679Z" fill="black"/>
<path d="M322.642 242.232L323.411 240.517L324.38 242.264L323.444 241.391L322.642 242.232Z" fill="black"/>
<path d="M322.642 237.572L323.411 235.857L324.38 237.605L323.444 236.731L322.642 237.572Z" fill="black"/>
<path d="M328.883 231.05L329.652 229.335L330.621 231.083L329.685 230.209L328.883 231.05Z" fill="#00335D"/>
<path d="M328.883 232.442L329.652 230.727L330.621 232.474L329.685 231.6L328.883 232.442Z" fill="#00335D"/>
<path d="M328.883 233.995L329.652 232.28L330.621 234.027L329.685 233.154L328.883 233.995Z" fill="#00335D"/>
<path d="M328.883 235.581L329.652 233.865L330.621 235.613L329.685 234.739L328.883 235.581V235.581Z" fill="#00335D"/>
<path d="M328.883 237.263L329.652 235.548L330.621 237.295L329.685 236.422L328.883 237.263Z" fill="#00335D"/>
<path d="M328.977 240.843L329.746 239.128L330.715 240.876L329.779 240.002L328.977 240.843Z" fill="#00335D"/>
<path d="M328.977 242.235L329.746 240.52L330.715 242.267L329.779 241.394L328.977 242.235Z" fill="#00335D"/>
<path d="M328.977 239.128L329.746 237.413L330.715 239.161L329.779 238.287L328.977 239.128Z" fill="#00335D"/>
<path d="M327.984 184.683H327.182V189.44H327.984V184.683Z" fill="black"/>
<path d="M326.943 229.256H326.141V234.013H326.943V229.256Z" fill="black"/>
<path d="M328.032 230.161V230.938H325.041V230.161H328.032Z" fill="black"/>
<path d="M326.849 235.937H326.047V240.694H326.849V235.937Z" fill="black"/>
<path d="M327.938 236.842V237.619H324.947V236.842H327.938Z" fill="black"/>
<path d="M313.488 191.18L313.204 188.8L313.961 190.448L313.771 187.153L314.717 189.807L314.433 186.97L313.771 184.956L315.001 186.695L315.379 189.807L314.906 184.224L315.946 187.336L316.325 189.807L317.081 188.434V186.146L317.554 188.983L318.31 185.78L319.161 190.631V194.658L320.674 194.017L321.904 193.102L321.62 195.207L320.863 198.136L319.729 199.783L319.918 204.36L321.147 203.536L321.904 200.79L321.336 208.844L320.391 205.458L319.823 215.16L319.161 207.655L318.878 211.407L318.783 218.638L317.365 233.282V240.97C317.365 240.97 316.325 238.682 316.325 237.858C316.325 237.034 316.135 232.641 316.23 232.275C316.325 231.909 316.514 229.621 316.703 228.98C316.892 228.339 317.648 221.75 317.648 221.017C317.648 220.285 317.932 213.512 317.932 213.512L317.837 210.858L317.081 213.329L316.892 216.807L316.608 222.756L316.041 217.448L315.946 210.95V220.011L315.379 223.122L315.473 216.075L315.19 206.648L315.946 209.76L316.324 205.916L316.797 211.499L317.27 209.76V205.55L315.001 205.824L313.299 205.275C313.299 205.275 311.88 202.987 311.786 202.529C311.691 202.072 310.651 199.692 310.651 199.692L310.84 196.489L311.124 199.966L312.731 202.255L311.786 199.875L312.164 196.855L312.258 199.875L313.582 201.889C313.582 201.889 313.015 200.15 313.015 199.783C313.015 199.417 313.11 197.495 313.11 197.495L313.582 200.333L315.19 203.261L316.514 204.268C316.514 204.268 315.19 201.522 315.19 201.156C315.19 200.79 315.001 199.051 315.001 199.051L315.284 195.024L315.946 200.241L316.892 203.261L318.027 204.268L317.365 201.797L317.081 199.509L318.027 202.163L318.216 199.966L318.499 203.536L318.972 203.17L318.594 195.665V189.807L317.081 190.082L315.473 190.997L313.488 191.18H313.488Z" fill="#00335D"/>
<path d="M323.363 186.409C323.363 186.279 322.092 185.049 322.092 185.049L322.995 185.632C322.995 185.632 321.524 184.37 321.725 184.402C321.925 184.435 322.962 184.985 322.728 184.855C322.494 184.726 321.691 183.755 321.691 183.755C321.691 183.755 322.427 184.338 322.46 184.176C322.494 184.014 321.357 182.687 321.357 182.687L322.126 183.108L321.056 181.684L321.858 182.267L320.722 180.746C320.722 180.746 321.691 181.619 321.591 181.361C321.491 181.102 320.321 179.969 320.588 180.034C320.855 180.099 321.591 181.102 321.491 180.81C321.39 180.519 320.889 179.322 320.889 179.322L321.658 180.487C321.658 180.487 321.557 179.031 321.557 179.192C321.557 179.354 321.992 180.616 321.992 180.616L322.092 179.904C322.092 179.904 322.36 181.49 322.36 181.263C322.36 181.037 322.56 180.357 322.56 180.357L322.694 182.072L322.895 181.037V182.72L323.363 181.781L323.396 183.561L323.831 182.752L323.697 184.176L324.165 183.529L324.065 184.823L324.666 184.208L324.432 185.891L325.168 185.082L324.7 186.214L325.368 185.664L325.101 186.959C325.101 186.959 326.104 186.247 325.836 186.247C325.569 186.247 325.502 187.735 325.502 187.735L326.706 191.683L328.377 193.172L329.046 194.984L326.238 192.266L323.63 186.959L322.36 185.988L323.362 186.409H323.363Z" fill="#00335D"/>
<path d="M324.733 188.35L324.148 187.023L323.062 186.441L324.115 186.781L323.764 186.247L322.861 185.713C322.861 185.713 323.697 186.101 323.68 186.036C323.664 185.972 323.43 185.535 323.363 185.47C323.296 185.405 322.326 184.888 322.326 184.888C322.326 184.888 323.346 185.227 323.262 185.179C323.179 185.13 322.945 184.823 322.945 184.823L322.326 184.354C322.326 184.354 323.079 184.677 323.012 184.629C322.945 184.58 322.611 183.804 322.611 183.804L321.842 183.108L322.494 183.512L322.243 182.914L321.725 182.315L322.209 182.639L321.959 182.024L321.474 181.506C321.474 181.506 321.892 181.862 321.892 181.797C321.892 181.733 321.725 181.247 321.725 181.247L321.29 180.778L321.775 181.102L321.44 180.309C321.44 180.309 321.875 181.118 321.858 181.021C321.842 180.924 321.842 180.325 321.842 180.325L321.925 181.102L322.143 181.83L322.076 180.875L322.243 181.927L322.377 182.364L322.493 181.166L322.46 182.639L322.493 182.752L322.828 182.04L322.61 182.93L322.844 183.528L323.196 182.396L322.911 183.658L323.212 184.305L323.664 183.383L323.346 184.467L323.547 184.726L323.964 184.03L323.73 184.904L323.981 185.486L324.483 184.613L324.098 185.616L324.332 186.182L324.817 185.68L324.416 186.408L324.616 186.878L325.051 186.069L324.717 187.137C324.717 187.137 324.834 187.59 324.917 187.541C325.001 187.492 325.385 186.91 325.385 186.91L324.967 187.784L325.385 188.593L324.733 188.35L324.733 188.35Z" fill="#00335D"/>
<path d="M315.127 183.025C313.512 186.438 304.357 195.398 314.664 206.333L313.159 249.028L314.78 246.227L315.475 206.781C307.895 199.789 310.838 191.49 315.127 183.025V183.025Z" fill="#00335D"/>
<path fill-rule="evenodd" clip-rule="evenodd" d="M328.653 176.344C328.653 176.412 328.609 176.479 328.522 176.541C328.436 176.604 328.309 176.661 328.15 176.709C327.99 176.756 327.801 176.794 327.592 176.82C327.383 176.846 327.16 176.859 326.934 176.859C326.708 176.859 326.485 176.846 326.276 176.82C326.067 176.794 325.878 176.756 325.718 176.709C325.559 176.661 325.432 176.604 325.346 176.541C325.259 176.479 325.215 176.412 325.215 176.344C325.215 176.277 325.259 176.21 325.346 176.147C325.432 176.085 325.559 176.028 325.718 175.98C325.878 175.932 326.067 175.894 326.276 175.868C326.485 175.842 326.708 175.829 326.934 175.829C327.16 175.829 327.383 175.842 327.592 175.868C327.801 175.894 327.99 175.932 328.15 175.98C328.309 176.028 328.436 176.085 328.522 176.147C328.609 176.21 328.653 176.277 328.653 176.344V176.344Z" fill="#00335D"/>
<path fill-rule="evenodd" clip-rule="evenodd" d="M328.899 179.118C328.899 179.159 328.854 179.201 328.768 179.239C328.682 179.278 328.555 179.313 328.395 179.342C328.236 179.371 328.046 179.395 327.838 179.411C327.629 179.427 327.405 179.435 327.18 179.435C326.954 179.435 326.73 179.427 326.522 179.411C326.313 179.395 326.123 179.371 325.964 179.342C325.804 179.313 325.678 179.278 325.591 179.239C325.505 179.201 325.46 179.159 325.46 179.118C325.46 179.076 325.505 179.035 325.591 178.996C325.678 178.958 325.804 178.923 325.964 178.894C326.123 178.864 326.313 178.841 326.522 178.825C326.73 178.809 326.954 178.801 327.18 178.801C327.405 178.801 327.629 178.809 327.838 178.825C328.046 178.841 328.236 178.864 328.395 178.894C328.555 178.923 328.682 178.958 328.768 178.996C328.854 179.035 328.899 179.076 328.899 179.118V179.118Z" fill="#00335D"/>
<path fill-rule="evenodd" clip-rule="evenodd" d="M328.899 181.217C328.899 181.259 328.854 181.3 328.768 181.339C328.682 181.377 328.555 181.412 328.395 181.442C328.236 181.471 328.046 181.494 327.838 181.51C327.629 181.526 327.405 181.534 327.18 181.534C326.954 181.534 326.73 181.526 326.522 181.51C326.313 181.494 326.123 181.471 325.964 181.442C325.804 181.412 325.678 181.377 325.591 181.339C325.505 181.3 325.46 181.259 325.46 181.217C325.46 181.176 325.505 181.135 325.591 181.096C325.678 181.058 325.804 181.023 325.964 180.993C326.123 180.964 326.313 180.94 326.522 180.925C326.73 180.909 326.954 180.9 327.18 180.9C327.405 180.9 327.629 180.909 327.838 180.925C328.046 180.94 328.236 180.964 328.395 180.993C328.555 181.023 328.682 181.058 328.768 181.096C328.854 181.135 328.899 181.176 328.899 181.217V181.217Z" fill="#00335D"/>
<path fill-rule="evenodd" clip-rule="evenodd" d="M329.062 183.357C329.062 183.399 329.018 183.44 328.932 183.478C328.845 183.517 328.719 183.552 328.559 183.581C328.399 183.611 328.21 183.634 328.001 183.65C327.793 183.666 327.569 183.674 327.343 183.674C327.117 183.674 326.894 183.666 326.685 183.65C326.477 183.634 326.287 183.611 326.127 183.581C325.968 183.552 325.841 183.517 325.755 183.478C325.668 183.44 325.624 183.399 325.624 183.357C325.624 183.315 325.668 183.274 325.755 183.236C325.841 183.197 325.968 183.162 326.127 183.133C326.287 183.103 326.477 183.08 326.685 183.064C326.894 183.048 327.117 183.04 327.343 183.04C327.569 183.04 327.793 183.048 328.001 183.064C328.21 183.08 328.399 183.103 328.559 183.133C328.719 183.162 328.845 183.197 328.932 183.236C329.018 183.274 329.062 183.315 329.062 183.357V183.357Z" fill="black"/>
<path d="M313.59 240.171L315.554 241.281L316.701 241.518L317.355 240.488L317.274 238.824L318.01 240.726C318.01 240.726 317.765 242.311 318.256 241.835C318.747 241.36 319.566 241.598 319.975 241.756C320.384 241.915 322.267 242.073 322.267 242.073L322.022 240.013L322.922 241.915L324.314 241.835L326.852 242.152H328.735L330.618 241.36L331.354 239.617L331.682 241.914L333.81 242.469L335.12 241.756L335.202 239.458L335.775 241.677L336.839 242.152L337.412 241.835L337.822 240.013L338.067 241.835L338.64 241.518L338.586 244.656L338.297 242.023L338.239 244.544L337.891 242.023L337.602 244.712C337.602 244.712 337.544 242.023 337.37 242.247C337.197 242.471 336.907 244.768 336.907 244.768L336.734 242.247L336.444 244.656L336.097 242.303L336.039 244.6L335.576 242.023L335.75 244.208L335.055 242.079L335.287 244.488L334.997 242.583L334.766 244.544L334.187 242.639L334.071 245.048L333.84 242.807L333.724 245.272L333.434 242.919L333.261 245.496L332.566 243.143L332.508 245.16L332.103 242.359L331.929 244.992L331.698 242.303L331.466 245.048L331.235 241.742L330.945 245.216L330.54 241.854L330.482 245.216L329.903 242.023L329.729 245.552L329.44 242.359L329.151 245.496L328.861 242.359L328.63 245.384L328.34 242.359L328.109 245.216L327.646 242.471L327.472 245.104L327.067 242.527L326.893 244.992L326.488 242.303L326.14 245.104L326.083 242.359L325.562 245.216L325.446 242.247L325.272 244.32L324.867 242.135L324.635 244.6L324.404 242.135C324.404 242.135 324.23 245.16 324.23 244.88C324.23 244.6 323.767 241.967 323.767 241.967L323.362 244.936L323.188 242.247L322.667 243.367L322.552 245.552L322.146 242.247L322.089 245.104L321.683 242.359L321.51 244.992L321.278 242.303L320.931 244.992L320.757 242.303L320.41 244.824L320.294 242.303L320.062 245.048L319.831 242.079L319.541 245.16L319.252 242.135V244.656L318.789 241.854L318.731 245.16L318.442 242.135L318.21 244.992L317.747 242.023L317.805 244.712L317.11 241.798L316.879 244.712L316.589 242.023L316.3 244.32L316.242 241.854C316.242 241.854 315.489 244.712 315.605 244.488C315.721 244.264 315.547 241.518 315.547 241.518L315.026 244.376L315.2 241.406L314.563 244.152L314.506 241.126L314.042 244.096L314.216 240.902L313.521 244.208L313.591 240.171L313.59 240.171Z" fill="#00335D"/>
<path d="M313.099 248.808C313.898 249.304 314.782 249.474 315.8 249.125C316.251 250.517 317.929 250.891 319.894 251.027C320.892 251.316 322.195 252.587 322.595 250.948C324.706 252.496 326.484 251.783 328.162 250.393C329.05 250.9 329.987 251.595 330.454 250.472C333.875 250.992 335.82 250.797 336.185 249.838C337.882 250.727 338.597 248.761 339.459 247.223C337.872 249.528 336.689 249.088 335.53 248.491C334.546 249.928 332.698 249.271 330.863 248.65C328.79 250.401 326.716 248.917 324.642 248.967C322.737 249.529 320.847 249.956 319.157 248.65C318.116 249.56 316.759 249.351 315.063 247.937L313.181 247.54L313.099 248.808L313.099 248.808Z" fill="#00335D"/>
<path fill-rule="evenodd" clip-rule="evenodd" d="M338.582 160.84C338.582 162.297 338.269 163.739 337.66 165.085C337.051 166.43 336.158 167.653 335.033 168.683C333.907 169.713 332.571 170.53 331.1 171.088C329.629 171.645 328.052 171.932 326.46 171.932C324.868 171.932 323.291 171.645 321.82 171.088C320.349 170.53 319.013 169.713 317.887 168.683C316.762 167.653 315.869 166.43 315.26 165.085C314.651 163.739 314.338 162.297 314.338 160.84C314.338 159.384 314.651 157.942 315.26 156.596C315.869 155.25 316.762 154.027 317.887 152.997C319.013 151.967 320.349 151.15 321.82 150.593C323.291 150.035 324.868 149.749 326.46 149.749C328.052 149.749 329.629 150.035 331.1 150.593C332.571 151.15 333.907 151.967 335.033 152.997C336.158 154.027 337.051 155.25 337.66 156.596C338.269 157.942 338.582 159.384 338.582 160.84V160.84Z" fill="#FCDD09"/>
<path d="M320.998 165.536C321.005 167.598 320.867 167.336 321.697 169.852C322.454 173.875 327.713 177.502 328.406 172.921C330.637 169.785 330.158 167.719 330.411 165.794C328.468 162.748 324.201 162.019 320.998 165.536Z" fill="#D38D5F"/>
<path d="M323.971 171.475L324.711 170.882L324.954 171.186L325.22 170.882L326.029 171.308L325.67 171.566L325.312 171.839L324.988 172.022L324.676 171.93L324.457 171.809L324.087 171.611L324.503 171.474L324.711 171.444L325.162 171.459L325.913 171.337H325.185L324.965 171.383L324.792 171.337H324.561L323.971 171.474V171.475Z" fill="#DA121A"/>
<path d="M324.447 166.734C324.32 168.221 322.553 170.668 325.718 170.229C321.532 171.281 324.293 168.239 324.447 166.734Z" fill="#F9F9F9" fill-opacity="0.27907"/>
<path d="M320.883 165.792C322.142 164.403 323.039 165.469 324.022 165.944C322.976 165.686 321.929 165.312 320.883 165.792Z" fill="black"/>
<path d="M329.046 166.348C327.579 164.267 326.1 165.099 325.185 165.801C326.212 165.065 327.977 165.294 329.046 166.348Z" fill="#98897F"/>
<path d="M323.756 166.612C322.94 168.038 322.29 167.163 321.637 166.567C322.045 166.185 322.904 165.787 323.756 166.612Z" fill="white"/>
<path d="M325.773 166.742C326.731 168.088 328.144 167.278 328.442 166.697C327.796 166.246 326.46 165.715 325.773 166.742Z" fill="white"/>
<path fill-rule="evenodd" clip-rule="evenodd" d="M327.476 166.977C327.476 167.106 327.421 167.23 327.322 167.321C327.223 167.412 327.09 167.463 326.95 167.463C326.811 167.463 326.677 167.412 326.578 167.321C326.48 167.23 326.424 167.106 326.424 166.977C326.424 166.848 326.48 166.724 326.578 166.633C326.677 166.542 326.811 166.491 326.95 166.491C327.09 166.491 327.223 166.542 327.322 166.633C327.421 166.724 327.476 166.848 327.476 166.977V166.977Z" fill="#552200"/>
<path fill-rule="evenodd" clip-rule="evenodd" d="M323.356 166.931C323.356 167.052 323.305 167.168 323.215 167.254C323.126 167.339 323.004 167.387 322.877 167.387C322.75 167.387 322.628 167.339 322.538 167.254C322.448 167.168 322.398 167.052 322.398 166.931C322.398 166.811 322.448 166.695 322.538 166.609C322.628 166.524 322.75 166.476 322.877 166.476C323.004 166.476 323.126 166.524 323.215 166.609C323.305 166.695 323.356 166.811 323.356 166.931V166.931Z" fill="#552200"/>
<path fill-rule="evenodd" clip-rule="evenodd" d="M323.038 166.854C323.038 166.914 323.01 166.972 322.959 167.015C322.909 167.058 322.842 167.082 322.771 167.082C322.7 167.082 322.632 167.058 322.582 167.015C322.532 166.972 322.504 166.914 322.504 166.854C322.504 166.793 322.532 166.735 322.582 166.693C322.632 166.65 322.7 166.626 322.771 166.626C322.842 166.626 322.909 166.65 322.959 166.693C323.01 166.735 323.038 166.793 323.038 166.854V166.854Z" fill="black"/>
<path fill-rule="evenodd" clip-rule="evenodd" d="M327.108 166.877C327.108 166.937 327.08 166.995 327.03 167.038C326.98 167.081 326.912 167.105 326.842 167.105C326.771 167.105 326.703 167.081 326.653 167.038C326.603 166.995 326.575 166.937 326.575 166.877C326.575 166.816 326.603 166.758 326.653 166.716C326.703 166.673 326.771 166.649 326.842 166.649C326.912 166.649 326.98 166.673 327.03 166.716C327.08 166.758 327.108 166.816 327.108 166.877V166.877Z" fill="black"/>
<path fill-rule="evenodd" clip-rule="evenodd" d="M322.825 166.753C322.825 166.774 322.817 166.793 322.802 166.807C322.788 166.821 322.768 166.829 322.747 166.829C322.726 166.829 322.706 166.821 322.691 166.807C322.677 166.793 322.668 166.774 322.668 166.753C322.668 166.733 322.677 166.714 322.691 166.7C322.706 166.685 322.726 166.677 322.747 166.677C322.768 166.677 322.788 166.685 322.802 166.7C322.817 166.714 322.825 166.733 322.825 166.753V166.753Z" fill="white"/>
<path fill-rule="evenodd" clip-rule="evenodd" d="M326.789 166.825C326.789 166.846 326.781 166.865 326.766 166.879C326.751 166.893 326.731 166.901 326.71 166.901C326.69 166.901 326.67 166.893 326.655 166.879C326.64 166.865 326.632 166.846 326.632 166.825C326.632 166.805 326.64 166.786 326.655 166.772C326.67 166.758 326.69 166.75 326.71 166.75C326.731 166.75 326.751 166.758 326.766 166.772C326.781 166.786 326.789 166.805 326.789 166.825V166.825Z" fill="white"/>
<path d="M325.765 166.81C327.006 166.287 327.687 166.537 328.842 166.916C327.934 165.503 325.865 165.041 325.765 166.81Z" fill="#E79A68"/>
<path d="M323.88 166.844C322.858 166.267 321.499 166.722 321.315 166.854C320.931 165.209 325.249 166.1 323.88 166.844Z" fill="#E79A68"/>
<path d="M325.797 166.84C326.859 167.87 327.732 167.532 328.544 166.749C327.246 168.496 326.183 167.518 325.797 166.84Z" fill="black" fill-opacity="0.223256"/>
<path d="M321.621 166.597C322.402 167.887 323.425 167.829 323.787 166.688C323.089 167.839 322.361 167.504 321.621 166.597Z" fill="black" fill-opacity="0.186047"/>
<path d="M321.448 168.907C321.14 167.778 321.134 165.937 320.946 165.473C323.379 164.054 326.316 162.397 330.176 165.898C330.265 167.87 329.819 169.497 329.423 171.155C332.151 170.451 333.929 168.641 331.024 165.29C329.399 162.424 324.055 161.461 321.04 164.895C320.325 165.739 320.147 167.375 321.448 168.907V168.907Z" fill="#552200"/>
<path d="M325.748 163.777C325.138 166.354 322.026 170.896 325.403 170.341C329.327 170.502 327.436 173.205 325.811 174.14C329.736 173.311 329.999 169.729 330.113 165.996C329.166 164.355 327.7 163.635 325.748 163.777Z" fill="black" fill-opacity="0.0837209"/>
<path d="M321.032 165.05L317.912 160.062C318.615 159.718 319.172 159.942 319.756 160.062C319.748 158.797 320.017 157.837 320.89 157.545C320 156.422 320.528 155.727 321.647 155.211C321.673 154.119 321.524 153.002 323.254 152.145C323.13 151.697 322.999 151.249 324.105 150.681C324.513 150.065 324.367 149.271 325.807 148.988C326.2 148.189 326.614 147.734 327.131 148.988C328.378 149.567 328.228 150.147 328.408 150.727C328.911 151.002 329.76 150.943 329.448 152.008C330.882 152.871 331.184 154.032 331.244 155.257C332.582 156.263 332.242 156.837 331.717 157.362C332.146 158.121 332.69 158.854 332.332 159.788L333.798 159.879L333.845 161.435L331.859 163.037L331.15 165.233C327.555 161.715 322.705 163.045 321.032 165.05L321.032 165.05Z" fill="white"/>
<path d="M317.94 160.084C318.467 159.937 319.431 159.327 319.912 160.505C321.391 159.978 321.999 161.091 321.35 162.188L323.49 161.411L323.59 160.473C323.828 160.025 323.465 159.772 323.155 159.502C321.599 158.592 323.005 157.881 323.356 158.013C322.88 156.694 324.796 156.072 324.76 158.013C326.215 157.914 326.157 159.235 325.295 159.47L325.195 161.055L326.375 161.023V162.77C323.776 162.62 322.272 163.673 321.049 165.035L320.615 164.388L321.183 164.485C322.209 163.17 323.837 162.389 326.375 162.414V161.379L324.86 161.314L324.927 159.631C326.013 158.794 325.72 158.07 324.56 158.369C324.4 156.45 323.312 157.193 323.69 158.305C322.105 158.181 322.911 159.102 323.456 159.405C323.785 159.635 324.095 159.879 323.991 160.408L323.924 161.573L320.995 162.692C321.43 161.301 321.393 160.176 319.779 160.861C319.297 159.942 318.677 160.099 318.074 160.117L317.94 160.084L317.94 160.084Z" fill="black"/>
<path d="M333.887 160.109C333.417 159.961 332.559 159.351 332.13 160.529C330.813 160.002 330.271 161.115 330.85 162.212L328.944 161.435L328.855 160.497C328.642 160.05 328.966 159.797 329.242 159.526C330.628 158.616 329.375 157.905 329.063 158.038C329.487 156.718 327.781 156.096 327.812 158.038C326.516 157.939 326.568 159.259 327.336 159.494L327.425 161.079L326.375 161.047V162.794C328.835 163.021 329.983 163.969 331.047 165.265L331.505 164.412L330.999 164.509C330.109 163.474 328.673 162.857 326.375 162.438V161.334L327.723 161.338L327.664 159.655C326.697 158.818 326.958 158.094 327.991 158.393C328.133 156.474 329.102 157.217 328.765 158.329C330.178 158.205 329.46 159.126 328.974 159.429C328.681 159.659 328.405 159.903 328.497 160.432L328.557 161.597L331.165 162.716C330.778 161.325 330.812 160.2 332.249 160.885C332.678 159.966 333.231 160.123 333.768 160.141L333.887 160.108L333.887 160.109Z" fill="black"/>
<path d="M320.782 157.528C321.334 155.64 330.454 155.222 331.781 157.334C329.679 156.183 324.541 155.553 320.782 157.528Z" fill="black"/>
<path d="M320.798 155.872C321.35 153.984 330.47 153.565 331.797 155.678C329.695 154.527 324.557 153.897 320.798 155.872Z" fill="white" fill-opacity="0.348837"/>
<path d="M322.604 152.733C322.981 151.302 329.218 150.984 330.126 152.586C328.689 151.713 325.175 151.236 322.604 152.733Z" fill="black"/>
<path d="M323.272 151.471C323.583 150.04 328.711 149.722 329.457 151.324C328.275 150.451 325.386 149.974 323.272 151.471Z" fill="white" fill-opacity="0.348837"/>
<path d="M324.61 150.079C324.781 148.648 327.608 148.331 328.02 149.932C327.368 149.06 325.775 148.582 324.61 150.079Z" fill="white" fill-opacity="0.348837"/>
<path d="M319.879 160.537C319.578 159.015 319.868 158.025 320.815 157.625C320.84 156.861 319.545 156.44 321.651 155.134C321.551 154.026 321.491 152.926 323.222 152.156C322.897 152.156 323.247 150.765 324.192 150.636C324.197 150.635 324.188 150.546 324.192 150.445C324.213 149.888 325.363 148.866 325.759 148.885C326.449 148.918 325.763 148.856 325.763 148.856C325.953 148.619 326.125 148.313 326.374 148.306C325.916 149.073 323.83 150.121 324.86 150.474C324.667 150.569 324.48 150.665 324.312 150.76C323.667 151.129 323.311 151.497 323.958 151.865C322.105 152.899 321.509 153.894 322.42 154.842C321.111 155.779 320.589 156.526 321.417 156.946C320.682 158.043 319.871 159.124 320.347 160.473L319.879 160.538H319.879L319.879 160.537Z" fill="#F9F9F9"/>
<path d="M317.935 160.039L321.032 165.005L321.245 164.364L318.644 160.131L317.935 160.039V160.039Z" fill="white"/>
<path d="M331.102 165.302L331.883 163.014L333.845 161.412L333.821 160.062L333.395 161.161L331.457 162.785L330.677 164.799L331.102 165.302H331.102Z" fill="black"/>
<path d="M332.355 159.925C332.787 159.129 333.047 158.316 331.741 157.339C332.892 156.723 332.162 155.885 331.268 155.028C331.363 153.576 330.609 152.616 329.448 151.894C329.489 151.417 329.57 150.942 328.384 150.406C328.305 149.836 327.803 149.369 327.226 148.919C327.123 148.396 326.714 148.319 326.375 148.141L326.989 148.919C327.415 149.412 328.019 149.848 328.1 150.452C328.844 150.948 329.248 151.444 329.235 151.939C330.349 152.889 330.989 153.919 331.032 155.051C331.68 155.822 332.379 156.604 331.433 157.019C332.221 158.017 332.576 158.988 332.355 159.925V159.925Z" fill="black"/>
<path d="M323.441 173.392C322.711 173.731 322.078 174.352 321.703 175.722C320.698 176.12 320.123 176.726 319.831 177.469C318.952 177.589 318.074 177.711 317.892 178.505C316.676 178.317 316.136 178.948 315.618 179.605C315.051 179.789 314.487 179.977 314.616 180.834L313.613 182.258C311.044 189.731 304.444 196.536 313.546 205.945L311.874 248.336C312.855 249.199 313.835 248.765 314.816 248.659C314.955 249.625 315.786 249.921 316.621 250.212C316.426 250.89 313.782 253.123 318.828 250.471C320.076 251.507 320.968 251.507 321.503 250.471C322.729 251.446 323.795 251.332 324.846 251.118L327.186 249.889C328.211 250.665 328.969 250.665 329.459 249.889C332.428 251.522 334.217 252.224 332.401 250.083C333.214 250 333.811 250.753 334.942 249.436C336.887 250.48 337.235 248.213 338.018 246.847L337.55 234.81C338.447 235.446 338.604 234.651 338.62 233.58L337.55 214.682C343.773 205.121 346.951 195.081 339.021 183.294L338.62 182.517L338.285 181.611C338.137 180.78 337.781 180.029 336.747 179.54C336.273 178.737 335.728 178.143 335.076 177.857C335.117 177.188 334.745 177.017 334.073 177.21C333.548 176.345 332.568 175.811 331.331 175.463C330.753 173.93 330.059 172.619 329.125 171.774C327.61 173.931 325.844 175.015 323.442 173.392H323.441Z" fill="white"/>
<path d="M321.543 175.837C323.407 179.823 330.201 178.222 331.566 175.517C328.948 177.028 325.954 179.137 321.543 175.837Z" fill="black"/>
<path d="M320.03 177.726C322.597 181.712 331.955 180.111 333.835 177.406C330.23 178.917 326.105 181.026 320.03 177.726Z" fill="black"/>
<path d="M317.808 178.825C321.165 183.671 332.379 182.516 336.436 179.511C331.442 181.237 325.087 183.35 317.808 178.825Z" fill="black"/>
<path d="M315.869 179.74C319.948 185.98 332.58 184.571 337.76 181.113C331.705 183.138 323.674 185.959 315.869 179.74Z" fill="black"/>
<path d="M315.656 182.645C319.735 188.885 332.367 187.476 337.547 184.018C331.492 186.043 323.461 188.864 315.656 182.645Z" fill="black"/>
<path d="M327.358 173.503C329.448 174.447 329.26 175.832 328.871 177.256C330.525 177.343 330.681 178.09 330.999 178.766C333.782 179.141 333.303 179.968 333.599 180.688C334.573 180.816 335.701 180.811 335.585 181.878C336.229 182.505 337.478 182.612 337.098 184.12L333.268 185.63C333.151 188.106 333.671 189.633 337.05 186.912L339.178 192.403L339.036 189.337L340.738 192.906L340.123 189.52L341.731 192.403L341.447 189.932L343.197 192.403C342.187 189.177 341.085 185.996 339.083 183.251C338.418 181.9 338.512 180.402 336.719 179.269L335.301 177.896C335.031 177.247 334.601 177.221 334.213 177.027C333.362 175.772 332.511 175.885 331.66 175.517C331.088 173.934 330.215 172.584 329.013 171.49C328.794 172.418 328.207 173.062 327.358 173.503H327.358Z" fill="black" fill-opacity="0.108491"/>
<path d="M317.167 170.134C316.008 170.958 316.388 171.782 316.127 172.605C314.332 168.803 311.356 168.317 308.326 167.983L309.65 169.036H308.893L310.737 169.951L309.555 169.905L311.73 170.912L310.737 170.958L312.723 171.736H311.446L313.243 172.102L312.203 172.331L313.621 172.56L310.548 172.194L308.704 171.553L306.624 171.141L304.354 171.416L305.867 172.011C305.867 172.011 305.158 172.011 305.158 172.194C305.158 172.377 307.144 172.972 307.144 172.972L305.867 173.109L307.853 173.566L307.002 173.933L308.988 174.39L307.948 174.848L310.028 175.077L309.272 175.397L311.683 175.58L311.399 177.594L309.413 179.516L305.206 183.085L306.246 182.765C306.246 182.765 305.678 183.726 305.867 183.68C306.057 183.634 307.002 183.131 307.002 183.131L306.529 184.275L307.57 183.451L307.286 184.55L313.763 178.372C314.869 178.727 316.272 178.121 316.033 177.319C317.513 176.015 319.263 174.84 318.066 172.239C320.319 170.515 318.863 169.396 317.167 170.134V170.134Z" fill="white"/>
<path d="M314.284 177.777L315.3 179.973L314.993 180.248L314.898 180.591L315.182 180.339L315.371 180.248L315.56 180.294L315.915 180.454L316.151 180.728L316.411 180.706L316.293 180.477L315.938 180.271L315.654 180.157H315.962L316.387 180.385L316.742 180.546L316.86 180.34L316.529 180.157L316.127 180.042L315.725 179.951C315.725 179.951 315.796 179.859 315.891 179.859C315.985 179.859 316.458 179.951 316.458 179.951L316.742 180.042L316.671 179.768L316.103 179.676H315.583L314.661 177.662L314.591 177.502L314.283 177.617V177.777L314.284 177.777Z" fill="#DA121A"/>
<path d="M315.856 177.834L316.399 179.161L316.092 179.435L315.997 179.779L316.281 179.527L316.47 179.435L316.659 179.481L317.014 179.641L317.25 179.916L317.51 179.893L317.392 179.665L317.037 179.459L316.754 179.344H317.061L317.487 179.573L317.841 179.733L317.959 179.527L317.628 179.344L317.227 179.23L316.825 179.138C316.825 179.138 316.896 179.047 316.99 179.047C317.085 179.047 317.557 179.138 317.557 179.138L317.841 179.23L317.77 178.955L317.203 178.864H316.683L316.068 177.628C315.942 177.315 316.97 179.305 316.115 177.582C315.873 177.325 317.006 178.714 315.903 177.445L315.974 177.56L315.855 177.834L315.856 177.834Z" fill="#DA121A"/>
<path d="M319.059 170.615L319.343 170.637L319.721 170.775L319.981 171.164L319.532 171.186L318.917 171.209L318.799 170.981L318.87 170.775L319.059 170.615L319.059 170.615Z" fill="#DA121A"/>
<path fill-rule="evenodd" clip-rule="evenodd" d="M318.278 170.809C318.278 170.847 318.27 170.884 318.254 170.919C318.238 170.953 318.215 170.985 318.185 171.012C318.155 171.038 318.12 171.059 318.081 171.074C318.043 171.088 318.001 171.095 317.959 171.095C317.917 171.095 317.876 171.088 317.837 171.074C317.798 171.059 317.763 171.038 317.734 171.012C317.704 170.985 317.68 170.953 317.664 170.919C317.648 170.884 317.64 170.847 317.64 170.809C317.64 170.772 317.648 170.734 317.664 170.7C317.68 170.665 317.704 170.633 317.734 170.607C317.763 170.58 317.798 170.559 317.837 170.545C317.876 170.53 317.917 170.523 317.959 170.523C318.001 170.523 318.043 170.53 318.081 170.545C318.12 170.559 318.155 170.58 318.185 170.607C318.215 170.633 318.238 170.665 318.254 170.7C318.27 170.734 318.278 170.772 318.278 170.809V170.809Z" fill="#0C44AE"/>
<path d="M314.949 174.184L314.264 175.237L312.94 176.106L313.46 175.099L311.994 175.946L312.373 175.191L311.522 175.603L309.158 175.443L309.796 175.054C309.796 175.054 308.401 175.031 308.519 174.962C308.637 174.893 310.269 174.802 310.269 174.802L309.843 175.214L310.954 175.168L312.798 174.344L311.782 175.099L312.822 174.87C312.822 174.87 312.514 175.374 312.609 175.305C312.704 175.236 313.555 174.756 313.555 174.756L313.862 173.818L313.815 174.756L313.602 175.305L314.169 174.893L314.949 174.184L314.949 174.184Z" fill="#0C44AE"/>
<path opacity="0.330612" d="M321.512 186.747L320.62 241.369L323.443 241.887L325.078 242.275L327.455 241.887L329.387 240.722L329.981 186.876L321.512 186.747V186.747Z" fill="black"/>
<path d="M324.231 186.876L323.161 241.628L324.097 242.145L325.568 242.275L327.173 241.369L327.708 187.264L324.231 186.876V186.876Z" fill="white"/>
<path d="M322.019 190.418L322.788 188.703L323.758 190.451L322.821 189.577L322.019 190.418Z" fill="black"/>
<path d="M322.019 191.81L322.788 190.094L323.758 191.842L322.821 190.968L322.019 191.81Z" fill="black"/>
<path d="M322.019 193.363L322.788 191.648L323.758 193.395L322.821 192.521L322.019 193.363Z" fill="black"/>
<path d="M322.019 194.948L322.788 193.233L323.758 194.981L322.821 194.107L322.019 194.948Z" fill="black"/>
<path d="M322.019 196.631L322.788 194.916L323.758 196.663L322.821 195.79L322.019 196.631Z" fill="black"/>
<path opacity="0.330612" d="M322.019 188.703L322.788 186.988L323.758 188.735L322.821 187.862L322.019 188.703V188.703Z" fill="black"/>
<path d="M322.019 199.937L322.788 198.222L323.758 199.969L322.821 199.095L322.019 199.937V199.937Z" fill="black"/>
<path d="M322.019 201.328L322.788 199.613L323.758 201.36L322.821 200.487L322.019 201.328V201.328Z" fill="black"/>
<path d="M322.019 202.881L322.788 201.166L323.758 202.914L322.821 202.04L322.019 202.881V202.881Z" fill="black"/>
<path d="M322.019 204.467L322.788 202.752L323.758 204.499L322.821 203.626L322.019 204.467Z" fill="black"/>
<path d="M322.019 206.15L322.788 204.435L323.758 206.182L322.821 205.308L322.019 206.15Z" fill="black"/>
<path d="M322.019 198.222L322.788 196.507L323.758 198.254L322.821 197.38L322.019 198.222V198.222Z" fill="black"/>
<path d="M321.83 209.638L322.599 207.923L323.569 209.671L322.632 208.797L321.83 209.638V209.638Z" fill="black"/>
<path d="M321.83 211.03L322.599 209.315L323.569 211.062L322.632 210.188L321.83 211.03V211.03Z" fill="black"/>
<path d="M321.83 212.583L322.599 210.868L323.569 212.616L322.632 211.742L321.83 212.583Z" fill="black"/>
<path d="M321.83 214.169L322.599 212.454L323.569 214.201L322.632 213.327L321.83 214.169Z" fill="black"/>
<path d="M321.83 215.851L322.599 214.136L323.569 215.884L322.632 215.01L321.83 215.851V215.851Z" fill="black"/>
<path d="M321.83 207.923L322.599 206.208L323.569 207.956L322.632 207.082L321.83 207.923Z" fill="black"/>
<path d="M321.546 219.34L322.315 217.625L323.285 219.372L322.349 218.499L321.546 219.34V219.34Z" fill="black"/>
<path d="M321.546 220.732L322.315 219.017L323.285 220.764L322.349 219.89L321.546 220.732Z" fill="black"/>
<path d="M321.546 222.285L322.315 220.57L323.285 222.317L322.349 221.444L321.546 222.285Z" fill="black"/>
<path d="M321.546 223.87L322.315 222.155L323.285 223.903L322.349 223.029L321.546 223.87V223.87Z" fill="black"/>
<path d="M321.546 225.553L322.315 223.838L323.285 225.585L322.349 224.712L321.546 225.553V225.553Z" fill="black"/>
<path d="M321.546 217.625L322.315 215.91L323.285 217.657L322.349 216.784L321.546 217.625Z" fill="black"/>
<path d="M321.452 229.133L322.221 227.418L323.19 229.166L322.254 228.292L321.452 229.133Z" fill="black"/>
<path d="M321.452 230.525L322.221 228.81L323.19 230.557L322.254 229.683L321.452 230.525Z" fill="black"/>
<path d="M321.452 232.078L322.221 230.363L323.19 232.11L322.254 231.237L321.452 232.078Z" fill="black"/>
<path d="M321.452 233.664L322.221 231.948L323.19 233.696L322.254 232.822L321.452 233.664V233.664Z" fill="black"/>
<path d="M321.452 235.346L322.221 233.631L323.19 235.378L322.254 234.505L321.452 235.346Z" fill="black"/>
<path d="M321.452 227.418L322.221 225.703L323.19 227.451L322.254 226.577L321.452 227.418V227.418Z" fill="black"/>
<path d="M321.452 238.835L322.221 237.12L323.19 238.867L322.254 237.994L321.452 238.835Z" fill="black"/>
<path d="M321.452 240.227L322.221 238.511L323.19 240.259L322.254 239.385L321.452 240.227Z" fill="black"/>
<path d="M321.452 241.78L322.221 240.065L323.19 241.812L322.254 240.938L321.452 241.78Z" fill="black"/>
<path d="M321.452 237.12L322.221 235.405L323.19 237.152L322.254 236.279L321.452 237.12V237.12Z" fill="black"/>
<path d="M327.882 190.876L328.651 189.161L329.62 190.908L328.684 190.034L327.882 190.876V190.876Z" fill="black"/>
<path d="M327.882 192.267L328.651 190.552L329.62 192.299L328.684 191.426L327.882 192.267V192.267Z" fill="black"/>
<path d="M327.882 193.82L328.651 192.105L329.62 193.853L328.684 192.979L327.882 193.82Z" fill="black"/>
<path d="M327.882 195.406L328.651 193.691L329.62 195.438L328.684 194.565L327.882 195.406Z" fill="black"/>
<path d="M327.882 197.089L328.651 195.374L329.62 197.121L328.684 196.247L327.882 197.089Z" fill="black"/>
<path d="M327.882 189.161L328.651 187.446L329.62 189.193L328.684 188.319L327.882 189.161Z" fill="black"/>
<path d="M327.787 200.852L328.556 199.137L329.526 200.884L328.589 200.011L327.787 200.852Z" fill="black"/>
<path d="M327.787 202.243L328.556 200.528L329.526 202.276L328.589 201.402L327.787 202.243Z" fill="black"/>
<path d="M327.787 203.797L328.556 202.082L329.526 203.829L328.589 202.955L327.787 203.797Z" fill="black"/>
<path d="M327.787 205.382L328.556 203.667L329.526 205.415L328.589 204.541L327.787 205.382Z" fill="black"/>
<path d="M327.787 207.065L328.556 205.35L329.526 207.097L328.589 206.224L327.787 207.065Z" fill="black"/>
<path d="M327.787 199.137L328.556 197.422L329.526 199.169L328.589 198.296L327.787 199.137Z" fill="black"/>
<path d="M327.787 210.92L328.556 209.205L329.526 210.952L328.589 210.078L327.787 210.92Z" fill="black"/>
<path d="M327.787 212.311L328.556 210.596L329.526 212.344L328.589 211.47L327.787 212.311Z" fill="black"/>
<path d="M327.787 213.864L328.556 212.149L329.526 213.897L328.589 213.023L327.787 213.864V213.864Z" fill="black"/>
<path d="M327.787 215.45L328.556 213.735L329.526 215.482L328.589 214.609L327.787 215.45V215.45Z" fill="black"/>
<path d="M327.787 217.133L328.556 215.418L329.526 217.165L328.589 216.291L327.787 217.133Z" fill="black"/>
<path d="M327.787 209.205L328.556 207.49L329.526 209.237L328.589 208.363L327.787 209.205V209.205Z" fill="black"/>
<path d="M327.787 220.804L328.556 219.089L329.526 220.837L328.589 219.963L327.787 220.804V220.804Z" fill="black"/>
<path d="M327.787 222.196L328.556 220.481L329.526 222.228L328.589 221.355L327.787 222.196V222.196Z" fill="black"/>
<path d="M327.787 223.749L328.556 222.034L329.526 223.782L328.589 222.908L327.787 223.749V223.749Z" fill="black"/>
<path d="M327.787 225.335L328.556 223.62L329.526 225.367L328.589 224.493L327.787 225.335Z" fill="black"/>
<path d="M327.787 227.018L328.556 225.302L329.526 227.05L328.589 226.176L327.787 227.018Z" fill="black"/>
<path d="M327.787 219.09L328.556 217.375L329.526 219.122L328.589 218.248L327.787 219.09V219.09Z" fill="black"/>
<path d="M327.692 230.598L328.461 228.883L329.431 230.63L328.495 229.756L327.692 230.598V230.598Z" fill="black"/>
<path d="M327.692 231.989L328.461 230.274L329.431 232.022L328.495 231.148L327.692 231.989Z" fill="black"/>
<path d="M327.692 233.542L328.461 231.827L329.431 233.575L328.495 232.701L327.692 233.542V233.542Z" fill="black"/>
<path d="M327.692 235.128L328.461 233.413L329.431 235.16L328.495 234.287L327.692 235.128Z" fill="black"/>
<path d="M327.692 236.811L328.461 235.096L329.431 236.843L328.495 235.969L327.692 236.811Z" fill="black"/>
<path d="M327.692 228.883L328.461 227.168L329.431 228.915L328.495 228.041L327.692 228.883Z" fill="black"/>
<path d="M327.787 240.391L328.556 238.676L329.526 240.423L328.589 239.549L327.787 240.391V240.391Z" fill="black"/>
<path d="M327.787 241.782L328.556 240.067L329.526 241.815L328.589 240.941L327.787 241.782Z" fill="black"/>
<path d="M327.787 238.676L328.556 236.961L329.526 238.708L328.589 237.835L327.787 238.676Z" fill="black"/>
<path d="M326.416 190.912H325.613V195.668H326.416V190.912Z" fill="black"/>
<path d="M327.504 191.817V192.594H324.513V191.817H327.504Z" fill="black"/>
<path d="M326.132 197.501H325.33V202.258H326.132V197.501Z" fill="black"/>
<path d="M327.221 198.407V199.183H324.23V198.407H327.221Z" fill="black"/>
<path d="M326.037 204.091H325.235V208.848H326.037V204.091Z" fill="black"/>
<path d="M327.126 204.997V205.773H324.135V204.997H327.126Z" fill="black"/>
<path d="M325.942 210.224H325.14V214.98H325.942V210.224Z" fill="black"/>
<path d="M327.031 211.129V211.905H324.04V211.129H327.031Z" fill="black"/>
<path d="M325.942 216.447H325.14V221.204H325.942V216.447Z" fill="black"/>
<path d="M327.031 217.353V218.129H324.04V217.353H327.031Z" fill="black"/>
<path d="M325.942 222.488H325.14V227.245H325.942V222.488Z" fill="black"/>
<path d="M327.031 223.393V224.17H324.04V223.393H327.031Z" fill="black"/>
<path d="M325.754 228.803H324.951V233.56H325.754V228.803Z" fill="black"/>
<path d="M326.842 229.708V230.485H323.851V229.708H326.842Z" fill="black"/>
<path d="M325.659 235.485H324.856V240.241H325.659V235.485Z" fill="black"/>
<path d="M326.748 236.39V237.166H323.757V236.39H326.748Z" fill="black"/>
<path d="M335.519 191.719L325.356 203.951L325.757 205.051L335.653 193.401L325.824 205.115L325.891 206.086L326.559 206.345L327.629 206.151L329.234 205.892L331.039 205.374L331.975 204.533L330.705 204.08L329.836 203.239L329.769 202.397L330.705 202.721L331.708 203.109L333.112 203.368L334.048 203.239L334.449 202.786L334.984 202.85L335.586 203.174L335.72 203.303L340.868 197.285L335.586 193.272L340.801 197.22L341.002 196.055L335.519 191.719L335.519 191.719Z" fill="#DA121A"/>
<path d="M326.627 206.345L326.226 206.798L326.694 207.575L328.633 207.381L329.502 206.992L331.508 206.539L329.702 207.057L328.7 207.639L327.897 207.704L328.365 208.61L329.234 208.675L332.043 207.445L329.435 208.74L329.97 209.193L331.107 209.322L331.909 209.063L333.38 208.351L331.708 209.451L332.711 209.905L333.982 209.71L335.653 208.998L336.322 207.704L336.857 205.763V204.209L335.787 203.239" fill="white"/>
<path d="M333.446 210.099L333.513 211.975L334.182 212.687V213.982L334.65 215.923V217.8L334.249 219.159L333.781 220.195L334.984 219.03L335.319 216.57C335.319 216.57 335.72 213.334 335.72 213.011C335.72 212.687 335.787 208.804 335.787 208.804L334.85 209.257L333.446 210.099H333.446Z" fill="black" fill-opacity="0.246512"/>
<path d="M343.075 193.207L343.677 197.673L343.276 202.721L341.871 206.669L337.258 215.406L338.394 212.105L338.929 209.387L339.063 206.151L339.665 209.646L340.267 207.186L339.531 202.721L340.868 205.439C340.868 205.439 340.534 203.497 340.601 203.239C340.668 202.98 340.801 200.844 340.801 200.844C340.801 200.844 341.336 204.792 341.671 204.598C342.005 204.404 342.54 200.715 342.54 200.715L343.075 196.831V193.207H343.075Z" fill="black" fill-opacity="0.0943396"/>
<path d="M326.124 206.807L326.893 206.224L332.142 204.509" stroke="black" stroke-width="0.0824633"/>
<path d="M337.357 196.419L333.111 201.726" stroke="black" stroke-width="0.0824633"/>
<path d="M334.583 196.743L337.491 198.976Z" fill="#4A0000"/>
<path d="M334.583 196.743L337.491 198.976" stroke="black" stroke-width="0.0824633"/>
<path d="M312.298 190.727L312.014 188.348L312.771 189.995L312.581 186.7L313.527 189.355L313.243 186.517L312.581 184.504L313.811 186.243L314.189 189.355L313.716 183.771L314.756 186.883L315.135 189.355L315.891 187.982V185.694L316.364 188.531L317.12 185.327L317.971 190.178V194.205L319.484 193.565L320.714 192.649L320.43 194.755L319.673 197.683L318.539 199.331L318.728 203.907L319.957 203.083L320.714 200.338L320.146 208.392L319.201 205.005L318.633 214.707L317.971 207.202L317.688 210.955L317.593 218.185L316.175 232.829V240.517C316.175 240.517 315.135 238.229 315.135 237.405C315.135 236.582 314.945 232.188 315.04 231.822C315.135 231.456 315.324 229.168 315.513 228.527C315.702 227.887 316.458 221.297 316.458 220.565C316.458 219.832 316.742 213.06 316.742 213.06L316.647 210.405L315.891 212.877L315.702 216.355L315.418 222.304L314.851 216.995L314.756 210.497V219.558L314.189 222.67L314.283 215.622L314 206.195L314.756 209.307L315.134 205.463L315.607 211.046L316.08 209.307V205.097L313.811 205.371L312.109 204.822C312.109 204.822 310.69 202.534 310.596 202.077C310.501 201.619 309.461 199.239 309.461 199.239L309.65 196.036L309.934 199.514L311.541 201.802L310.596 199.422L310.974 196.402L311.068 199.422L312.392 201.436C312.392 201.436 311.825 199.697 311.825 199.331C311.825 198.965 311.92 197.043 311.92 197.043L312.392 199.88L314 202.809L315.324 203.816C315.324 203.816 314 201.07 314 200.704C314 200.338 313.811 198.599 313.811 198.599L314.094 194.571L314.756 199.788L315.702 202.809L316.837 203.816L316.175 201.344L315.891 199.056L316.837 201.71L317.026 199.514L317.309 203.083L317.782 202.717L317.404 195.212V189.355L315.891 189.629L314.284 190.544L312.298 190.727L312.298 190.727Z" fill="#6F6F6F" fill-opacity="0.283019"/>
<path d="M322.173 185.956C322.173 185.827 320.902 184.597 320.902 184.597L321.805 185.179C321.805 185.179 320.334 183.917 320.535 183.95C320.735 183.982 321.772 184.532 321.538 184.403C321.304 184.273 320.501 183.302 320.501 183.302C320.501 183.302 321.237 183.885 321.27 183.723C321.304 183.561 320.167 182.235 320.167 182.235L320.936 182.655L319.866 181.232L320.668 181.814L319.532 180.293C319.532 180.293 320.501 181.167 320.401 180.908C320.301 180.649 319.131 179.516 319.398 179.581C319.665 179.646 320.401 180.649 320.301 180.358C320.201 180.067 319.699 178.869 319.699 178.869L320.468 180.034C320.468 180.034 320.368 178.578 320.368 178.74C320.368 178.902 320.802 180.164 320.802 180.164L320.902 179.452C320.902 179.452 321.17 181.037 321.17 180.811C321.17 180.584 321.371 179.905 321.371 179.905L321.504 181.62L321.705 180.584V182.267L322.173 181.329L322.206 183.108L322.641 182.299L322.507 183.723L322.975 183.076L322.875 184.37L323.477 183.756L323.243 185.438L323.978 184.629L323.51 185.762L324.179 185.212L323.911 186.506C323.911 186.506 324.914 185.794 324.647 185.794C324.379 185.794 324.313 187.283 324.313 187.283L325.516 191.23L327.188 192.719L327.856 194.531L325.048 191.813L322.44 186.506L321.17 185.535L322.173 185.956H322.173Z" fill="white" stroke="black" stroke-width="0.0824633"/>
<path d="M323.544 187.897L322.958 186.571L321.872 185.988L322.925 186.328L322.574 185.794L321.671 185.26C321.671 185.26 322.507 185.648 322.49 185.584C322.474 185.519 322.24 185.082 322.173 185.017C322.106 184.953 321.136 184.435 321.136 184.435C321.136 184.435 322.156 184.775 322.072 184.726C321.989 184.678 321.755 184.37 321.755 184.37L321.136 183.901C321.136 183.901 321.889 184.225 321.822 184.176C321.755 184.127 321.421 183.351 321.421 183.351L320.652 182.655L321.304 183.06L321.053 182.461L320.535 181.862L321.019 182.186L320.769 181.571L320.284 181.053C320.284 181.053 320.702 181.409 320.702 181.345C320.702 181.28 320.535 180.795 320.535 180.795L320.1 180.325L320.585 180.649L320.251 179.856C320.251 179.856 320.685 180.665 320.668 180.568C320.652 180.471 320.652 179.872 320.652 179.872L320.735 180.649L320.953 181.377L320.886 180.423L321.053 181.474L321.187 181.911L321.304 180.714L321.27 182.186L321.304 182.299L321.638 181.587L321.421 182.477L321.655 183.076L322.006 181.943L321.721 183.205L322.022 183.852L322.474 182.93L322.156 184.014L322.357 184.273L322.775 183.577L322.54 184.451L322.791 185.034L323.293 184.16L322.908 185.163L323.142 185.729L323.627 185.228L323.226 185.956L323.426 186.425L323.861 185.616L323.527 186.684C323.527 186.684 323.644 187.137 323.727 187.088C323.811 187.04 324.195 186.457 324.195 186.457L323.777 187.331L324.195 188.14L323.543 187.897L323.544 187.897Z" fill="black"/>
<path d="M317.359 189.289L317.191 195.178L319.231 194.305L320.702 193.204L321.036 192.104L322.206 192.137C322.206 192.137 322.741 192.493 323.009 192.622C323.276 192.751 324.212 193.14 324.413 193.107C324.613 193.075 325.215 192.881 325.215 192.881L325.382 192.266L323.008 190.325L325.248 192.169L325.884 192.428C325.884 192.428 326.251 192.169 326.251 191.975C326.251 191.781 326.251 191.457 326.118 191.295C325.984 191.133 325.182 190.648 325.015 190.454C324.847 190.26 324.246 189.71 324.112 189.645C323.978 189.58 323.142 189.418 323.142 189.418L324.112 189.71L325.416 190.745L325.984 191.166L326.586 191.198L326.786 190.648L326.419 190.001L325.516 189.095L324.546 188.124C324.546 188.124 323.544 187.315 323.309 187.186C323.075 187.056 321.638 186.83 321.638 186.83L320.401 187.121L317.359 189.289L317.359 189.289Z" fill="#D38D5F"/>
<path d="M337.072 204.273L335.938 202.992L334.897 202.626L334.188 202.9L333.621 203.175H332.817L330.69 202.534L329.555 202.076L329.46 202.488L329.791 203.449L330.831 204.227L331.588 204.593L328.184 205.692L326.387 206.332L326.009 206.79L326.34 207.339L326.907 207.659L327.711 207.568V208.209L328.278 208.621L328.987 208.849L329.413 208.758L330.028 209.399L330.879 209.445L331.446 209.399L332.77 209.994L333.763 209.902L335.276 209.353L336.221 208.621C336.221 208.621 337.025 206.836 336.978 206.653C336.93 206.47 337.261 205.371 337.261 205.371L337.072 204.273L337.072 204.273Z" fill="#D38D5F" stroke="black" stroke-width="0.0824633"/>
<path d="M326.434 206.31L325.985 206.699V207.11L326.387 207.614C326.387 207.614 326.647 207.751 326.694 207.751C326.741 207.751 327.167 207.683 327.285 207.683C327.403 207.683 327.947 207.66 327.947 207.66L329.034 207.431L330.264 206.882L331.186 206.47L328.798 207.522L327.663 207.705L327.569 208.072C327.569 208.072 327.687 208.255 327.829 208.346C327.97 208.438 328.562 208.758 328.562 208.758L329.034 208.895L329.413 208.712C329.413 208.712 329.933 208.575 330.098 208.506C330.264 208.438 330.973 208.278 331.186 208.117C331.398 207.957 332.131 207.431 332.131 207.431L331.162 208.163L330.524 208.415L329.578 208.712L329.483 208.895L329.862 209.33L330.642 209.307L331.611 209.399L332.344 208.964L333.219 208.461L333.644 207.912L332.911 208.689L332.013 209.124L331.564 209.376L331.966 209.65L332.675 209.925L333.431 209.971L334.519 209.582C334.519 209.582 335.252 209.193 335.346 209.147C335.441 209.102 336.032 208.69 336.032 208.69L337.001 206.768V206.218L337.308 205.418L337.095 204.365L336.457 203.541L335.961 203.129L334.85 202.649L335.984 203.518C335.984 203.518 336.457 204.319 336.481 204.411C336.505 204.502 336.646 205.829 336.646 205.829L336.268 207.248L335.843 208.209L335.157 208.964L334.306 209.33L333.36 209.468H332.155L332.888 208.941L333.502 208.346L333.81 207.774L333.029 208.346L332.084 208.987L331.446 209.193L330.429 209.216L329.909 209.101L329.838 208.873C329.838 208.873 330.358 208.69 330.524 208.621C330.689 208.552 331.398 208.163 331.398 208.163L332.202 207.317L331.375 207.866L330.098 208.392L329.034 208.575L328.443 208.438L328.018 207.82L328.68 207.774C328.68 207.774 329.46 207.522 329.578 207.431C329.696 207.339 331.517 206.333 331.517 206.333L330.169 206.836C330.169 206.836 328.042 207.271 327.947 207.316C327.852 207.362 326.883 207.431 326.883 207.431L326.481 207.111L326.363 206.836L326.434 206.31L326.434 206.31Z" fill="black" stroke="black" stroke-width="0.0824633"/>
<path d="M325.288 204.024L325.823 205.027L326.158 206.515L326.793 206.127C326.793 206.127 331.707 204.606 331.574 204.606C331.44 204.606 330.27 203.894 330.27 203.894L329.768 203.506L329.467 202.6L329.601 202.017L329.233 202.6L329.2 203.247L329.467 203.927L329.601 204.38L326.559 205.383L326.391 205.027L335.853 193.733L340.834 197.39V196.937L335.853 193.41L335.518 191.76L335.585 193.28L325.99 204.768L325.288 204.024H325.288Z" fill="black"/>
<path d="M317.168 195.167L319.256 194.354L320.709 193.245L321.057 192.156L322.203 192.274L324.168 193.106C324.168 193.106 324.986 193.027 325.068 192.928C325.15 192.829 325.252 192.552 325.252 192.552L324.925 192.017L324.147 191.324L323.779 191.225H323.042L323.533 191.086L324.086 191.185L324.516 191.442L324.945 191.918L325.273 192.076C325.273 192.076 325.866 192.334 325.928 192.195C325.989 192.056 326.071 191.561 326.071 191.561C326.071 191.561 325.887 191.185 325.764 191.125C325.641 191.066 325.232 190.769 325.17 190.69C325.109 190.61 324.556 189.917 324.413 189.877C324.27 189.838 323.82 189.798 323.82 189.798L323.144 189.719L324.229 189.58L324.7 189.897L325.58 190.689L326.296 191.006L326.439 190.709C326.439 190.709 326.337 190.293 326.275 190.194C326.214 190.095 325.232 188.926 325.232 188.926L324.106 187.976L323.84 187.579L325.232 188.748L326.091 189.758L326.623 190.293L326.767 190.67L326.664 191.046L326.48 191.205H326.153L326.275 191.502L326.357 191.819L326.214 192.155L325.887 192.472L325.395 192.334L325.355 192.809L325.048 193.126L324.577 193.285L324.045 193.245L322.1 192.492L320.872 192.136L320.524 192.988L319.399 193.503L317.25 194.394L317.168 195.167L317.168 195.167Z" fill="black"/>
<path d="M317.353 189.283C319.474 187.402 321.589 185.407 323.922 187.639C321.134 186.526 319.376 188.273 317.353 189.283Z" fill="#FFECDF"/>
<path d="M317.468 189.072C317.156 193.743 316.926 198.611 317.989 203.135C316.078 198.603 316.298 193.753 317.468 189.072Z" fill="white"/>
<path fill-rule="evenodd" clip-rule="evenodd" d="M327.463 175.892C327.463 175.96 327.418 176.027 327.332 176.089C327.246 176.152 327.119 176.208 326.959 176.256C326.8 176.304 326.61 176.342 326.402 176.368C326.193 176.394 325.969 176.407 325.744 176.407C325.518 176.407 325.294 176.394 325.086 176.368C324.877 176.342 324.687 176.304 324.528 176.256C324.368 176.208 324.242 176.152 324.155 176.089C324.069 176.027 324.024 175.96 324.024 175.892C324.024 175.824 324.069 175.757 324.155 175.695C324.242 175.632 324.368 175.575 324.528 175.528C324.687 175.48 324.877 175.442 325.086 175.416C325.294 175.39 325.518 175.377 325.744 175.377C325.969 175.377 326.193 175.39 326.402 175.416C326.61 175.442 326.8 175.48 326.959 175.528C327.119 175.575 327.246 175.632 327.332 175.695C327.418 175.757 327.463 175.824 327.463 175.892V175.892Z" fill="white" fill-opacity="0.246512"/>
<path fill-rule="evenodd" clip-rule="evenodd" d="M327.708 178.665C327.708 178.707 327.664 178.748 327.578 178.786C327.491 178.825 327.365 178.86 327.205 178.889C327.045 178.919 326.856 178.942 326.647 178.958C326.439 178.974 326.215 178.982 325.989 178.982C325.763 178.982 325.54 178.974 325.331 178.958C325.123 178.942 324.933 178.919 324.773 178.889C324.614 178.86 324.487 178.825 324.401 178.786C324.314 178.748 324.27 178.707 324.27 178.665C324.27 178.624 324.314 178.582 324.401 178.544C324.487 178.505 324.614 178.47 324.773 178.441C324.933 178.412 325.123 178.388 325.331 178.372C325.54 178.356 325.763 178.348 325.989 178.348C326.215 178.348 326.439 178.356 326.647 178.372C326.856 178.388 327.045 178.412 327.205 178.441C327.365 178.47 327.491 178.505 327.578 178.544C327.664 178.582 327.708 178.624 327.708 178.665V178.665Z" fill="white" fill-opacity="0.246512"/>
<path fill-rule="evenodd" clip-rule="evenodd" d="M327.708 180.765C327.708 180.807 327.664 180.848 327.578 180.886C327.491 180.925 327.365 180.96 327.205 180.989C327.045 181.019 326.856 181.042 326.647 181.058C326.439 181.074 326.215 181.082 325.989 181.082C325.763 181.082 325.54 181.074 325.331 181.058C325.123 181.042 324.933 181.019 324.773 180.989C324.614 180.96 324.487 180.925 324.401 180.886C324.314 180.848 324.27 180.807 324.27 180.765C324.27 180.723 324.314 180.682 324.401 180.644C324.487 180.605 324.614 180.57 324.773 180.541C324.933 180.511 325.123 180.488 325.331 180.472C325.54 180.456 325.763 180.448 325.989 180.448C326.215 180.448 326.439 180.456 326.647 180.472C326.856 180.488 327.045 180.511 327.205 180.541C327.365 180.57 327.491 180.605 327.578 180.644C327.664 180.682 327.708 180.723 327.708 180.765V180.765Z" fill="white" fill-opacity="0.246512"/>
<path fill-rule="evenodd" clip-rule="evenodd" d="M327.872 182.904C327.872 182.946 327.828 182.987 327.742 183.026C327.655 183.064 327.529 183.099 327.369 183.129C327.209 183.158 327.02 183.181 326.811 183.197C326.603 183.213 326.379 183.221 326.153 183.221C325.927 183.221 325.704 183.213 325.495 183.197C325.287 183.181 325.097 183.158 324.937 183.129C324.778 183.099 324.651 183.064 324.565 183.026C324.478 182.987 324.434 182.946 324.434 182.904C324.434 182.863 324.478 182.822 324.565 182.783C324.651 182.745 324.778 182.71 324.937 182.68C325.097 182.651 325.287 182.627 325.495 182.612C325.704 182.596 325.927 182.587 326.153 182.587C326.379 182.587 326.603 182.596 326.811 182.612C327.02 182.627 327.209 182.651 327.369 182.68C327.529 182.71 327.655 182.745 327.742 182.783C327.828 182.822 327.872 182.863 327.872 182.904V182.904Z" fill="black"/>
<path d="M312.4 239.719L314.365 240.828L315.511 241.066L316.166 240.036L316.084 238.372L316.821 240.273C316.821 240.273 316.575 241.858 317.066 241.383C317.557 240.907 318.376 241.145 318.785 241.304C319.195 241.462 321.078 241.621 321.078 241.621L320.832 239.56L321.732 241.462L323.124 241.383L325.662 241.7H327.545L329.428 240.908L330.165 239.164L330.492 241.462L332.621 242.017L333.93 241.304L334.012 239.006L334.585 241.224L335.65 241.7L336.223 241.383L336.632 239.56L336.878 241.383L337.451 241.066L337.396 244.204L337.107 241.57L337.049 244.092L336.702 241.57L336.412 244.26C336.412 244.26 336.354 241.57 336.181 241.794C336.007 242.018 335.718 244.316 335.718 244.316L335.544 241.794L335.254 244.204L334.907 241.85L334.849 244.148L334.386 241.57L334.56 243.755L333.865 241.626L334.097 244.036L333.807 242.131L333.576 244.092L332.997 242.187L332.881 244.596L332.65 242.355L332.534 244.82L332.244 242.467L332.071 245.044L331.376 242.691L331.318 244.708L330.913 241.906L330.739 244.54L330.508 241.85L330.276 244.596L330.045 241.29L329.755 244.764L329.35 241.402L329.292 244.764L328.713 241.57L328.54 245.1L328.25 241.906L327.961 245.044L327.671 241.906L327.44 244.932L327.15 241.906L326.919 244.764L326.456 242.019L326.282 244.652L325.877 242.075L325.703 244.54L325.298 241.85L324.951 244.652L324.893 241.906L324.372 244.764L324.256 241.794L324.082 243.868L323.677 241.682L323.446 244.148L323.214 241.682C323.214 241.682 323.04 244.708 323.04 244.428C323.04 244.148 322.577 241.514 322.577 241.514L322.172 244.484L321.998 241.794L321.477 242.915L321.362 245.1L320.956 241.794L320.898 244.652L320.493 241.906L320.319 244.54L320.088 241.85L319.741 244.54L319.567 241.85L319.22 244.372L319.104 241.85L318.872 244.596L318.641 241.626L318.351 244.708L318.062 241.682V244.204L317.599 241.402L317.541 244.708L317.252 241.682L317.02 244.54L316.557 241.57L316.615 244.26L315.92 241.346L315.689 244.26L315.399 241.57L315.11 243.868L315.052 241.402C315.052 241.402 314.299 244.26 314.415 244.036C314.531 243.811 314.357 241.066 314.357 241.066L313.836 243.924L314.01 240.954L313.373 243.699L313.316 240.674L312.852 243.643L313.026 240.45L312.332 243.755L312.401 239.719L312.4 239.719Z" fill="black"/>
<path d="M311.909 248.356C312.709 248.851 313.592 249.021 314.61 248.672C315.061 250.065 316.739 250.438 318.704 250.574C319.702 250.864 321.005 252.135 321.405 250.495C323.516 252.043 325.294 251.33 326.972 249.94C327.86 250.447 328.797 251.142 329.264 250.02C332.685 250.54 334.63 250.345 334.995 249.386C336.692 250.274 337.407 248.308 338.269 246.771C336.682 249.076 335.499 248.635 334.34 248.039C333.356 249.476 331.508 248.819 329.673 248.197C327.6 249.948 325.526 248.464 323.452 248.514C321.547 249.076 319.657 249.503 317.967 248.197C316.926 249.107 315.569 248.898 313.874 247.484L311.991 247.088L311.909 248.356L311.909 248.356Z" fill="black" fill-opacity="0.116279"/>
<path d="M280.795 243.111C279.3 242.725 276.846 240.586 275.129 238.174C274.671 237.531 274.251 237.003 274.196 237.001C274.141 236.997 273.77 237.459 273.372 238.025C272.278 239.582 270.079 241.706 268.923 242.323C268.098 242.764 267.781 242.849 266.956 242.852C265.825 242.856 265.3 242.627 264.286 241.686C263.36 240.827 262.671 239.841 261.894 238.265C261.343 237.148 260.448 234.984 260.448 234.768C260.448 234.736 261.009 234.708 261.696 234.707L262.945 234.703L262.567 234.411C261.838 233.846 260.41 233.61 259.085 233.835L258.404 233.95L258.783 233.647L259.161 233.345L258.594 233.341C257.734 233.337 257.914 233.069 258.856 232.95C259.827 232.828 260.588 232.946 261.416 233.349L262.01 233.639L261.683 233.288C261.503 233.095 261.356 232.895 261.356 232.843C261.356 232.792 261.724 232.667 262.175 232.565C263.575 232.25 265.243 232.879 266.206 234.086C266.463 234.408 267.002 234.852 267.403 235.072C269.203 236.059 270.312 235.198 271.31 232.042L271.743 230.67L271.682 223.804L271.621 216.937L270.895 216.677C269.062 216.022 267.039 214.128 265.932 212.032C265.119 210.493 264.702 208.87 264.582 206.777L264.488 205.138H263.12C261.79 205.138 261.722 205.155 260.683 205.768C259.485 206.475 258.709 207.149 258.391 207.76C257.9 208.704 258.269 210.688 259.164 211.921C260.141 213.267 260.69 215.235 260.526 216.804C260.405 217.966 260.246 218.265 259.998 217.797C259.722 217.279 259.679 217.499 259.907 218.261C260.128 219.002 260.209 219.948 260.17 221.343C260.141 222.36 259.849 222.41 259.831 221.401L259.819 220.762L259.642 221.255C259.489 221.678 259.464 221.472 259.464 219.807C259.464 218.247 259.405 217.701 259.162 217.028L258.859 216.189L258.783 217.744L258.708 219.3L257.579 218.612C252.486 215.511 251.031 211.749 253.224 207.348C253.847 206.098 254.957 204.468 256.068 203.17L256.996 202.087L256.093 201.059C254.011 198.691 252.524 196.16 252.119 194.294C252.012 193.804 251.962 192.902 252.003 192.197C252.063 191.15 252.162 190.785 252.642 189.831C253.511 188.108 255.168 186.535 257.7 185.032L258.47 184.574L258.513 186.129L258.556 187.685L258.834 186.923C259.178 185.978 259.321 183.848 259.116 182.731C258.925 181.692 258.984 181.596 259.285 182.455L259.516 183.112L259.527 182.473C259.547 181.415 259.839 181.533 259.862 182.607C259.895 184.147 259.833 184.89 259.607 185.703L259.395 186.465L259.693 186.107C259.972 185.771 259.998 185.766 260.106 186.031C260.169 186.186 260.215 186.964 260.208 187.761C260.193 189.436 259.864 190.546 259.041 191.701C258.011 193.143 257.581 195.138 258.088 196.114C258.411 196.733 259.185 197.401 260.443 198.144C261.54 198.791 261.62 198.814 263.052 198.864L264.529 198.917L264.569 194.901L264.609 190.886L268.204 190.845L271.799 190.804V181.289V171.774L271.404 170.659C270.642 168.505 269.737 167.331 268.847 167.339C268.252 167.343 267.179 167.973 266.279 168.843C265.776 169.329 265.127 169.851 264.837 170.002C264.194 170.337 262.5 170.475 261.903 170.242C261.494 170.082 261.482 170.054 261.714 169.796C262.113 169.352 262.004 169.314 261.266 169.643C260.52 169.976 259.08 170.045 258.253 169.789C257.824 169.655 257.82 169.647 258.177 169.632C258.385 169.625 258.718 169.573 258.917 169.52C259.272 169.424 259.269 169.417 258.765 169.136L258.253 168.85L258.782 168.969C259.074 169.034 259.823 169.085 260.447 169.081C261.377 169.076 261.72 169.001 262.339 168.669L263.096 168.264L261.847 168.257C261.143 168.253 260.599 168.185 260.599 168.101C260.599 167.791 261.56 165.524 262.285 164.125C263.232 162.296 264.41 160.939 265.527 160.388C266.246 160.033 266.492 159.988 267.322 160.055C267.981 160.108 268.538 160.271 269.093 160.571C270.141 161.138 272.049 162.968 273.205 164.515C273.705 165.186 274.163 165.79 274.222 165.857C274.28 165.925 274.779 165.37 275.331 164.624C276.71 162.758 278.749 160.81 279.959 160.201C283.047 158.647 285.711 160.821 287.93 166.705C288.131 167.239 288.296 167.734 288.296 167.804C288.296 167.874 287.768 167.952 287.123 167.977L285.95 168.023L286.707 168.394C287.501 168.784 288.863 168.901 289.961 168.673L290.49 168.562L290.036 168.818L289.582 169.075L290.339 169.243L291.096 169.412L290.585 169.517C289.616 169.715 288.244 169.625 287.577 169.32C286.889 169.006 286.785 169.051 287.181 169.491C287.412 169.748 287.402 169.776 287.019 169.922C286.413 170.154 285.268 170.112 284.436 169.826C283.932 169.653 283.389 169.27 282.707 168.603C280.129 166.089 278.963 166.476 277.483 170.339L276.944 171.744V181.284V190.825L280.348 190.779C283.076 190.742 283.768 190.773 283.829 190.936C283.872 191.047 283.907 192.882 283.907 195.013V198.888H285.551C287.169 198.888 287.213 198.878 288.216 198.317C289.466 197.617 290.344 196.877 290.665 196.25C291.209 195.192 290.788 193.347 289.603 191.593C289.3 191.144 288.937 190.39 288.796 189.917C288.527 189.012 288.453 187.089 288.656 186.312L288.776 185.855L289.134 186.306L289.493 186.758L289.249 186.078C288.953 185.252 288.813 182.704 289.024 181.968C289.171 181.453 289.177 181.467 289.202 182.349C289.228 183.259 289.229 183.261 289.443 182.806C289.643 182.383 289.652 182.44 289.565 183.583C289.464 184.915 289.688 186.671 290.04 187.303C290.234 187.65 290.253 187.552 290.258 186.183L290.263 184.683L291.114 185.166C295.399 187.602 297.408 190.829 296.71 194.157C296.279 196.212 294.905 198.64 292.839 200.997L291.792 202.192L292.93 203.55C295.693 206.848 296.944 209.932 296.48 212.304C295.962 214.958 294.287 216.884 290.533 219.145L289.971 219.484L289.928 217.912L289.885 216.341L289.588 217.255C289.277 218.216 289.187 220.076 289.382 221.524L289.485 222.286L289.231 221.6L288.977 220.914L288.901 221.828C288.832 222.666 288.816 222.7 288.712 222.229C288.649 221.946 288.6 221.191 288.602 220.552C288.606 219.477 288.68 218.933 288.963 217.941L289.071 217.56L288.781 217.924L288.49 218.288L288.381 217.851C288.218 217.196 288.264 215.118 288.459 214.391C288.662 213.633 289.114 212.707 289.592 212.073C289.992 211.542 290.479 210.341 290.627 209.522C290.872 208.164 290.106 207.06 288.119 205.906C287.065 205.294 287.048 205.29 285.482 205.29H283.906L283.901 206.395C283.884 209.705 282.66 212.672 280.438 214.783C279.482 215.691 277.537 216.874 276.999 216.874C276.828 216.874 276.793 218.072 276.793 223.953V231.032L277.19 232.146C278.099 234.697 278.914 235.806 279.878 235.806C280.594 235.806 281.667 235.268 282.223 234.63C283.414 233.264 284.879 232.604 286.257 232.812C287.245 232.961 287.369 233.098 286.936 233.563L286.568 233.957L287.318 233.612C287.873 233.357 288.344 233.268 289.128 233.27C290.484 233.274 291.109 233.507 290.112 233.635L289.43 233.723L289.96 234.08C290.252 234.276 290.354 234.384 290.187 234.319C290.021 234.255 289.396 234.172 288.799 234.135C287.648 234.063 286.371 234.365 286.018 234.793C285.863 234.982 286.002 235.014 286.99 235.014C287.638 235.014 288.144 235.079 288.144 235.162C288.144 235.411 287.27 237.545 286.689 238.713C286.069 239.96 285.055 241.447 284.413 242.05C283.431 242.973 281.947 243.407 280.794 243.11L280.795 243.111Z" fill="white"/>
<path fill-rule="evenodd" clip-rule="evenodd" d="M295.261 191.038C295.261 191.336 295.161 191.622 294.984 191.833C294.807 192.044 294.567 192.163 294.317 192.163C294.067 192.163 293.827 192.044 293.65 191.833C293.473 191.622 293.374 191.336 293.374 191.038C293.374 190.74 293.473 190.453 293.65 190.243C293.827 190.032 294.067 189.913 294.317 189.913C294.567 189.913 294.807 190.032 294.984 190.243C295.161 190.453 295.261 190.74 295.261 191.038Z" fill="#DA121A"/>
<path fill-rule="evenodd" clip-rule="evenodd" d="M294.978 213.064C294.978 212.766 294.878 212.479 294.701 212.268C294.524 212.058 294.284 211.939 294.034 211.939C293.784 211.939 293.544 212.058 293.367 212.268C293.19 212.479 293.09 212.766 293.09 213.064C293.09 213.362 293.19 213.648 293.367 213.859C293.544 214.07 293.784 214.189 294.034 214.189C294.284 214.189 294.524 214.07 294.701 213.859C294.878 213.648 294.978 213.362 294.978 213.064Z" fill="#DA121A"/>
<path fill-rule="evenodd" clip-rule="evenodd" d="M253.53 190.926C253.53 191.225 253.63 191.511 253.807 191.722C253.984 191.933 254.224 192.051 254.474 192.051C254.724 192.051 254.964 191.933 255.141 191.722C255.318 191.511 255.417 191.225 255.417 190.926C255.417 190.628 255.318 190.342 255.141 190.131C254.964 189.92 254.724 189.802 254.474 189.802C254.224 189.802 253.984 189.92 253.807 190.131C253.63 190.342 253.53 190.628 253.53 190.926Z" fill="#DA121A"/>
<path fill-rule="evenodd" clip-rule="evenodd" d="M253.813 212.952C253.813 212.654 253.913 212.368 254.09 212.157C254.267 211.946 254.507 211.827 254.757 211.827C255.007 211.827 255.247 211.946 255.424 212.157C255.601 212.368 255.701 212.654 255.701 212.952C255.701 213.251 255.601 213.537 255.424 213.748C255.247 213.959 255.007 214.077 254.757 214.077C254.507 214.077 254.267 213.959 254.09 213.748C253.913 213.537 253.813 213.251 253.813 212.952Z" fill="#DA121A"/>
<path fill-rule="evenodd" clip-rule="evenodd" d="M283.29 161.688C283.05 161.688 282.821 161.811 282.652 162.032C282.482 162.252 282.387 162.551 282.386 162.864C282.386 163.176 282.481 163.475 282.65 163.697C282.818 163.918 283.048 164.042 283.287 164.043C283.526 164.043 283.755 163.919 283.925 163.699C284.094 163.478 284.19 163.179 284.19 162.867C284.19 162.555 284.096 162.255 283.927 162.034C283.758 161.813 283.529 161.689 283.29 161.688Z" fill="#DA121A"/>
<path fill-rule="evenodd" clip-rule="evenodd" d="M265.633 162.009C265.872 162.009 266.101 162.134 266.27 162.355C266.439 162.576 266.533 162.876 266.533 163.188C266.532 163.5 266.437 163.799 266.268 164.02C266.098 164.24 265.869 164.364 265.63 164.363C265.391 164.363 265.161 164.238 264.993 164.017C264.824 163.796 264.729 163.497 264.729 163.184C264.73 162.872 264.825 162.573 264.995 162.353C265.164 162.132 265.393 162.008 265.633 162.009Z" fill="#DA121A"/>
<path fill-rule="evenodd" clip-rule="evenodd" d="M283.162 241.19C282.923 241.19 282.693 241.067 282.524 240.846C282.355 240.626 282.259 240.327 282.259 240.014C282.259 239.702 282.353 239.403 282.522 239.182C282.691 238.961 282.92 238.836 283.159 238.836C283.398 238.835 283.628 238.959 283.797 239.179C283.967 239.4 284.062 239.699 284.062 240.011C284.063 240.323 283.968 240.623 283.799 240.844C283.63 241.065 283.401 241.19 283.162 241.19Z" fill="#DA121A"/>
<path fill-rule="evenodd" clip-rule="evenodd" d="M265.505 240.869C265.744 240.869 265.973 240.744 266.142 240.523C266.311 240.302 266.405 240.003 266.405 239.69C266.405 239.378 266.309 239.079 266.14 238.859C265.97 238.638 265.741 238.514 265.502 238.515C265.263 238.515 265.033 238.64 264.865 238.861C264.696 239.082 264.601 239.382 264.601 239.694C264.602 240.006 264.697 240.305 264.867 240.526C265.036 240.746 265.265 240.87 265.505 240.869Z" fill="#DA121A"/>
<path d="M283.914 191.004H274.249C272.226 199.482 271.529 208.135 274.249 217.242C279.396 217.494 284.026 212.631 283.914 206.274V191.004Z" fill="white"/>
<path d="M264.585 191.004H274.25V217.242C269.103 217.494 264.473 212.631 264.585 206.274V191.004Z" fill="white"/>
<path fill-rule="evenodd" clip-rule="evenodd" d="M271.662 198.286C271.662 198.658 271.602 199.026 271.485 199.369C271.369 199.712 271.197 200.024 270.981 200.286C270.765 200.549 270.508 200.758 270.225 200.9C269.943 201.042 269.64 201.115 269.334 201.115C269.028 201.115 268.725 201.042 268.443 200.9C268.16 200.758 267.903 200.549 267.687 200.286C267.471 200.024 267.3 199.712 267.183 199.369C267.066 199.026 267.006 198.658 267.006 198.286C267.006 197.915 267.066 197.547 267.183 197.204C267.3 196.861 267.471 196.549 267.687 196.286C267.903 196.024 268.16 195.815 268.443 195.673C268.725 195.531 269.028 195.458 269.334 195.458C269.64 195.458 269.943 195.531 270.225 195.673C270.508 195.815 270.765 196.024 270.981 196.286C271.197 196.549 271.369 196.861 271.485 197.204C271.602 197.547 271.662 197.915 271.662 198.286V198.286Z" fill="#DA121A"/>
<g opacity="0.35102" filter="url(#filter0_f_1_3736)">
<path fill-rule="evenodd" clip-rule="evenodd" d="M269.009 197.587C269.009 197.696 268.992 197.804 268.957 197.905C268.923 198.006 268.872 198.098 268.809 198.175C268.745 198.252 268.669 198.314 268.586 198.356C268.502 198.397 268.413 198.419 268.323 198.419C268.232 198.419 268.143 198.397 268.059 198.356C267.976 198.314 267.9 198.252 267.836 198.175C267.773 198.098 267.722 198.006 267.688 197.905C267.653 197.804 267.636 197.696 267.636 197.587C267.636 197.477 267.653 197.369 267.688 197.268C267.722 197.167 267.773 197.076 267.836 196.998C267.9 196.921 267.976 196.86 268.059 196.818C268.143 196.776 268.232 196.754 268.323 196.754C268.413 196.754 268.502 196.776 268.586 196.818C268.669 196.86 268.745 196.921 268.809 196.998C268.872 197.076 268.923 197.167 268.957 197.268C268.992 197.369 269.009 197.477 269.009 197.587V197.587Z" fill="#DA121A"/>
</g>
<path fill-rule="evenodd" clip-rule="evenodd" d="M281.65 198.286C281.65 198.658 281.59 199.026 281.474 199.369C281.357 199.712 281.185 200.024 280.969 200.286C280.753 200.549 280.496 200.758 280.214 200.9C279.931 201.042 279.628 201.115 279.322 201.115C279.016 201.115 278.713 201.042 278.431 200.9C278.148 200.758 277.892 200.549 277.675 200.286C277.459 200.024 277.288 199.712 277.171 199.369C277.054 199.026 276.994 198.658 276.995 198.286C276.994 197.915 277.054 197.547 277.171 197.204C277.288 196.861 277.459 196.549 277.675 196.286C277.892 196.024 278.148 195.815 278.431 195.673C278.713 195.531 279.016 195.458 279.322 195.458C279.628 195.458 279.931 195.531 280.214 195.673C280.496 195.815 280.753 196.024 280.969 196.286C281.185 196.549 281.357 196.861 281.474 197.204C281.59 197.547 281.65 197.915 281.65 198.286V198.286Z" fill="#DA121A"/>
<g opacity="0.35102" filter="url(#filter1_f_1_3736)">
<path fill-rule="evenodd" clip-rule="evenodd" d="M278.998 197.587C278.998 197.696 278.98 197.804 278.946 197.905C278.911 198.006 278.861 198.098 278.797 198.175C278.733 198.252 278.657 198.314 278.574 198.356C278.491 198.397 278.401 198.419 278.311 198.419C278.22 198.419 278.131 198.397 278.048 198.356C277.964 198.314 277.888 198.252 277.825 198.175C277.761 198.098 277.71 198.006 277.676 197.905C277.641 197.804 277.624 197.696 277.624 197.587C277.624 197.477 277.641 197.369 277.676 197.268C277.71 197.167 277.761 197.076 277.825 196.998C277.888 196.921 277.964 196.86 278.048 196.818C278.131 196.776 278.22 196.754 278.311 196.754C278.401 196.754 278.491 196.776 278.574 196.818C278.657 196.86 278.733 196.921 278.797 196.998C278.861 197.076 278.911 197.167 278.946 197.268C278.98 197.369 278.998 197.477 278.998 197.587V197.587Z" fill="#DA121A"/>
</g>
<path fill-rule="evenodd" clip-rule="evenodd" d="M277.007 208.759C277.008 209.188 276.935 209.614 276.793 210.011C276.651 210.408 276.442 210.769 276.179 211.073C275.916 211.378 275.604 211.619 275.26 211.783C274.916 211.948 274.548 212.033 274.176 212.033C273.804 212.033 273.435 211.948 273.091 211.783C272.748 211.619 272.435 211.378 272.172 211.073C271.909 210.769 271.701 210.408 271.559 210.011C271.417 209.614 271.344 209.188 271.344 208.759C271.344 208.329 271.417 207.903 271.559 207.506C271.701 207.109 271.909 206.748 272.172 206.444C272.435 206.14 272.748 205.899 273.091 205.734C273.435 205.569 273.804 205.485 274.176 205.485C274.548 205.485 274.916 205.569 275.26 205.734C275.604 205.899 275.916 206.14 276.179 206.444C276.442 206.748 276.651 207.109 276.793 207.506C276.935 207.903 277.008 208.329 277.007 208.759V208.759Z" fill="#DA121A"/>
<g opacity="0.35102" filter="url(#filter2_f_1_3736)">
<path fill-rule="evenodd" clip-rule="evenodd" d="M273.781 207.949C273.781 208.075 273.76 208.2 273.718 208.317C273.676 208.434 273.614 208.54 273.537 208.63C273.459 208.719 273.367 208.79 273.265 208.839C273.164 208.887 273.055 208.912 272.945 208.912C272.835 208.912 272.727 208.887 272.625 208.839C272.524 208.79 272.432 208.719 272.354 208.63C272.276 208.54 272.215 208.434 272.173 208.317C272.131 208.2 272.11 208.075 272.11 207.949C272.11 207.822 272.131 207.697 272.173 207.58C272.215 207.463 272.276 207.357 272.354 207.268C272.432 207.178 272.524 207.107 272.625 207.059C272.727 207.01 272.835 206.985 272.945 206.985C273.055 206.985 273.164 207.01 273.265 207.059C273.367 207.107 273.459 207.178 273.537 207.268C273.614 207.357 273.676 207.463 273.718 207.58C273.76 207.697 273.781 207.822 273.781 207.949V207.949Z" fill="#DA121A"/>
</g>
<path d="M325.189 165.773C326.798 163.854 328.525 165.618 328.948 166.23C328.071 165.484 326.555 164.957 325.189 165.773Z" fill="black"/>
<path d="M336.344 202.681C336.903 203.531 337.508 204.299 337.552 205.1C338.436 221.346 330.761 227.179 332.063 210.214" stroke="black" stroke-width="0.173173"/>
<path d="M294.091 271.468C286.145 270.572 280.449 268.904 274.265 265.662C259.607 257.978 249.424 244.322 246.268 228.118C245.394 223.628 245.451 226.703 245.399 181.743L245.351 140.473H300.448H355.546L355.497 181.743C355.453 219.456 355.427 223.165 355.195 224.765C353.635 235.493 349.78 244.316 343.131 252.37C335.695 261.377 324.821 268.024 313.61 270.416C309.171 271.363 308.171 271.449 301.129 271.49C297.55 271.511 294.383 271.501 294.091 271.468L294.091 271.468Z" stroke="black" stroke-width="0.503026"/>
<path d="M273.153 217.214C271.759 217.034 270.76 216.7 269.675 216.049C267.104 214.508 265.318 211.769 264.764 208.518C264.611 207.618 264.621 208.234 264.611 199.216L264.604 190.937H274.269H283.934L283.927 199.216C283.919 206.781 283.914 207.525 283.874 207.846C283.6 209.998 282.924 211.767 281.757 213.383C280.453 215.19 278.545 216.523 276.579 217.003C275.8 217.193 275.625 217.21 274.389 217.219C273.762 217.222 273.206 217.22 273.155 217.215L273.153 217.214Z" stroke="black" stroke-width="0.0943604"/>
<path d="M316.135 189.624C315.576 190.474 314.97 191.241 314.927 192.043C314.042 208.289 321.717 214.121 320.415 197.156" stroke="black" stroke-width="0.173173"/>
<path d="M313.491 205.845C315.028 205.121 316.515 205.202 317.455 206.669" stroke="black" stroke-width="0.2"/>
</g>
<defs>
<filter id="filter0_f_1_3736" x="267.447" y="196.566" width="1.75081" height="2.04183" filterUnits="userSpaceOnUse" color-interpolation-filters="sRGB">
<feFlood flood-opacity="0" result="BackgroundImageFix"/>
<feBlend mode="normal" in="SourceGraphic" in2="BackgroundImageFix" result="shape"/>
<feGaussianBlur stdDeviation="0.0943195" result="effect1_foregroundBlur_1_3736"/>
</filter>
<filter id="filter1_f_1_3736" x="277.435" y="196.566" width="1.75081" height="2.04183" filterUnits="userSpaceOnUse" color-interpolation-filters="sRGB">
<feFlood flood-opacity="0" result="BackgroundImageFix"/>
<feBlend mode="normal" in="SourceGraphic" in2="BackgroundImageFix" result="shape"/>
<feGaussianBlur stdDeviation="0.0943195" result="effect1_foregroundBlur_1_3736"/>
</filter>
<filter id="filter2_f_1_3736" x="271.886" y="206.762" width="2.11857" height="2.37443" filterUnits="userSpaceOnUse" color-interpolation-filters="sRGB">
<feFlood flood-opacity="0" result="BackgroundImageFix"/>
<feBlend mode="normal" in="SourceGraphic" in2="BackgroundImageFix" result="shape"/>
<feGaussianBlur stdDeviation="0.111919" result="effect1_foregroundBlur_1_3736"/>
</filter>
<clipPath id="clip0_1_3736">
<rect width="600" height="400" fill="white"/>
</clipPath>
</defs>
</svg>
