<svg width="600" height="400" viewBox="0 0 600 400" fill="none" xmlns="http://www.w3.org/2000/svg" xmlns:cgf="https://coding.garden/flags"><metadata id="cgf-metadata">

<cgf:flag>
  <cgf:name>Echt-Susteren</cgf:name>
  <cgf:route>nl/li/echt_susteren</cgf:route>
  <cgf:aspect-ratio>1.5</cgf:aspect-ratio>
</cgf:flag>

</metadata><g clip-path="url(#clip0_1_3601)">
<path d="M600 0H0V400H600V0Z" fill="white"/>
<path d="M-5.48138e-05 375.556L0.0137912 24.4444L262.222 200.014L-5.48138e-05 375.556Z" fill="#CC112F"/>
<path d="M114.763 120.581H96.9854V280.581H114.763V120.581Z" fill="#FCCC00"/>
<path d="M185.874 209.469V191.692H25.874V209.469H185.874Z" fill="#FCCC00"/>
<path d="M62.5405 171.6H44.7627V227.156H62.5405V171.6Z" fill="#FCCC00"/>
<path d="M168.459 171.6H150.682V227.156H168.459V171.6Z" fill="#FCCC00"/>
<path d="M133.98 154.875V137.097H78.4249V154.875H133.98Z" fill="#FCCC00"/>
<path d="M133.98 262.617V244.839H78.4249V262.617H133.98Z" fill="#FCCC00"/>
<path d="M600 24.4445L599.986 375.556L337.778 199.986L600 24.4445Z" fill="#CC112F"/>
<path d="M485.237 279.419H503.015V119.419H485.237V279.419Z" fill="#FCCC00"/>
<path d="M414.126 190.531V208.308H574.126V190.531H414.126Z" fill="#FCCC00"/>
<path d="M537.46 228.4H555.237V172.844H537.46V228.4Z" fill="#FCCC00"/>
<path d="M431.541 228.4H449.318V172.844H431.541V228.4Z" fill="#FCCC00"/>
<path d="M466.02 245.125V262.903H521.575V245.125H466.02Z" fill="#FCCC00"/>
<path d="M466.02 137.383V155.161H521.575V137.383H466.02Z" fill="#FCCC00"/>
<path d="M39.9998 -6.22179e-05L560 0.00908927L299.979 173.333L39.9998 -6.22179e-05Z" fill="#0039A6"/>
<path fill-rule="evenodd" clip-rule="evenodd" d="M300.379 17.217L248.206 88.128L300.379 156.977L351.505 88.6726L300.379 17.217Z" fill="white"/>
<path d="M560 400L40.0002 399.991L300.021 226.667L560 400Z" fill="#0039A6"/>
<path fill-rule="evenodd" clip-rule="evenodd" d="M299.621 382.783L351.794 311.872L299.621 243.023L248.495 311.327L299.621 382.783Z" fill="white"/>
</g>
<defs>
<clipPath id="clip0_1_3601">
<rect width="600" height="400" fill="white"/>
</clipPath>
</defs>
</svg>
