<svg width="600" height="400" viewBox="0 0 600 400" fill="none" xmlns="http://www.w3.org/2000/svg" xmlns:cgf="https://coding.garden/flags"><metadata id="cgf-metadata">

<cgf:flag>
  <cgf:name>Eijsden-Margraten</cgf:name>
  <cgf:route>nl/li/eijsden_margraten</cgf:route>
  <cgf:aspect-ratio>1.5</cgf:aspect-ratio>
</cgf:flag>

</metadata><g clip-path="url(#clip0_1_3655)">
<path opacity="0.99" d="M313.647 -0.803955H-0.91748V204.057H313.647V-0.803955Z" fill="#F2F2F2"/>
<path opacity="0.99" fill-rule="evenodd" clip-rule="evenodd" d="M170.044 71.2784C170.044 96.5076 149.086 116.96 123.233 116.96C97.3799 116.96 76.4219 96.5076 76.4219 71.2784C76.4219 46.0492 97.3799 25.5969 123.233 25.5969C149.086 25.5969 170.044 46.0492 170.044 71.2784V71.2784Z" fill="#DA121A"/>
<path d="M6.19228 142.854L36.8532 172.605H-0.91748V204.057H313.69V-0.803955H279.919V24.2724L255.923 -0.803955H247.925V33.6229L279.919 62.0993V103.752L247.925 74.85V113.952L279.919 142.854L247.925 172.605L219.041 142.854H175.049L207.043 172.605H162.607L134.168 142.854H89.7321L121.726 172.605H77.7344L48.4066 142.854H6.19228V142.854Z" fill="#DA121A"/>
<path d="M313.647 408.917H600.665V204.057H313.647V408.917Z" fill="#F2F2F2"/>
<path fill-rule="evenodd" clip-rule="evenodd" d="M450.097 340.235C450.097 315.006 471.055 294.554 496.908 294.554C522.761 294.554 543.719 315.006 543.719 340.235C543.719 365.465 522.761 385.917 496.908 385.917C471.055 385.917 450.097 365.465 450.097 340.235V340.235Z" fill="#DA121A"/>
<path d="M600.665 265.26L600.372 245.141L590.446 235.509H600.665V204.057H313.647V400.417H346.525L347.414 383.841L365.186 400.417H379.403V374.491L347.414 346.014V304.362L379.403 333.264V294.162L347.414 265.26L379.403 235.509L408.283 265.26H452.269L420.279 235.509H464.709L493.144 265.26H537.574L505.585 235.509H549.57L578.894 265.26H600.665V265.26Z" fill="#DA121A"/>
<path d="M600.665 -0.803955H313.661V204.035H600.665V-0.803955Z" fill="#080202"/>
<path d="M374.567 -0.803955L342.522 29.2034L374.567 58.656L342.522 88.1085L374.567 118.162L342.522 150.019L374.567 180.073L408.497 150.019L437.4 180.073L469.445 150.019L498.977 180.073L531.651 150.019L562.439 180.073L592.599 150.019L600.665 157.232V204.057H313.647V-0.803955H374.567V-0.803955Z" fill="#FCDD09"/>
<path d="M313.647 204.057H-0.91748V400.417H313.647V204.057Z" fill="#080202"/>
<path d="M261.836 400.417L261.845 400.381L284.773 378.91L252.728 349.458L284.773 320.005L252.728 289.952L284.774 258.095L252.728 228.041L218.798 258.095L189.895 228.041L157.85 258.095L128.318 228.041L95.6445 258.095L64.8561 228.041L34.696 258.095L26.6304 250.882V204.057H313.648V400.417H261.837H261.836Z" fill="#FCDD09"/>
<path d="M34.8487 258.035L3.30339 227.646L-0.91748 231.896V204.057H61.7289L34.8487 258.035Z" fill="#FCDD09"/>
<path opacity="0.98" d="M103.44 316.065C97.8664 323.11 85.0993 328.794 82.7048 316.065C78.8006 300.816 87.4125 292.666 102.183 293.375C114.983 296.549 117.375 304.409 116.007 313.961C113.305 325.703 105.621 332.678 100.298 341.911C97.2149 351.505 105.705 344.54 105.482 343.414C109.831 329.737 120.355 329.11 132.186 330.942C144.125 332.096 156.063 333.11 168.001 330.341C163.05 335.105 156.435 348.37 147.738 342.813C146.025 342.699 141.206 342.675 146.01 344.917L150.565 347.471C146.76 349.545 142.273 350.846 133.914 347.772C132.234 348.046 128.42 347.59 132.186 349.725C139.824 354.518 132.243 352.965 123.861 351.078L122.133 351.528C125.415 356.697 122.189 356.271 114.75 351.979L111.765 350.326C108.593 351.128 108.855 351.929 108.467 352.73C122.635 361.472 134.438 353.765 140.669 352.43C151.541 348.02 163.881 341.013 166.745 350.777C159.126 351.584 153.83 356.28 147.738 359.643C140.871 365.576 133.684 372.504 128.416 373.468C130.409 376.871 133.602 380.9 131.244 382.033H124.96L120.876 374.82L111.294 374.67L106.582 381.732H99.5128L102.026 374.219C94.1259 374.512 87.4685 372.239 82.9537 368.301C73.9457 360.443 75.4214 346.386 85.0611 336.051C91.3078 330.165 97.88 325.837 103.754 318.169L103.44 316.065V316.065Z" fill="white"/>
<path fill-rule="evenodd" clip-rule="evenodd" d="M102.34 306.673C102.34 308.956 100.195 310.806 97.5494 310.806C94.9033 310.806 92.7583 308.956 92.7583 306.673C92.7583 304.391 94.9033 302.541 97.5494 302.541C100.195 302.541 102.34 304.391 102.34 306.673Z" fill="#080202"/>
<path opacity="0.98" d="M476.657 50.0961C471.083 57.1405 458.316 62.8251 455.922 50.0961C452.017 34.8473 460.629 26.6974 475.4 27.4056C488.2 30.5802 490.592 38.4397 489.223 47.9923C486.522 59.7338 478.838 66.7086 473.515 75.9422C470.432 85.5365 478.921 78.571 478.699 77.4449C483.047 63.7676 493.572 63.1413 505.403 64.9726C517.341 66.1272 529.28 67.1414 541.218 64.3716C536.267 69.1356 529.651 82.4006 520.954 76.8438C519.242 76.73 514.423 76.7063 519.226 78.9475L523.782 81.5021C519.977 83.5758 515.489 84.8774 507.131 81.8027C505.451 82.0766 501.637 81.6215 505.403 83.7561C513.041 88.5489 505.459 86.9957 497.078 85.1086L495.35 85.5594C498.632 90.7285 495.406 90.302 487.967 86.0102L484.982 84.3572C481.809 85.1587 482.071 85.9601 481.683 86.7615C495.852 95.5027 507.654 87.7957 513.886 86.461C524.758 82.0511 537.098 75.0439 539.961 84.808C532.342 85.6148 527.046 90.3106 520.954 93.6739C514.088 99.6066 506.901 106.535 501.633 107.498C503.626 110.902 506.818 114.931 504.461 116.064H498.177L494.093 108.851L484.511 108.701L479.798 115.763H472.73L475.243 108.25C467.343 108.543 460.685 106.27 456.17 102.332C447.162 94.4743 448.638 80.4171 458.278 70.0817C464.525 64.1963 471.097 59.8678 476.971 52.1999L476.657 50.0961V50.0961Z" fill="white"/>
<path fill-rule="evenodd" clip-rule="evenodd" d="M475.557 40.7044C475.557 42.9866 473.412 44.8368 470.766 44.8368C468.12 44.8368 465.975 42.9866 465.975 40.7044C465.975 38.4221 468.12 36.572 470.766 36.572C473.412 36.572 475.557 38.4221 475.557 40.7044Z" fill="#080202"/>
</g>
<defs>
<clipPath id="clip0_1_3655">
<rect width="600" height="400" fill="white"/>
</clipPath>
</defs>
</svg>
