<svg width="600" height="400" viewBox="0 0 600 400" fill="none" xmlns="http://www.w3.org/2000/svg" xmlns:cgf="https://coding.garden/flags"><metadata id="cgf-metadata">

<cgf:flag>
  <cgf:name>Gennep</cgf:name>
  <cgf:route>nl/li/gennep</cgf:route>
  <cgf:aspect-ratio>1.5</cgf:aspect-ratio>
</cgf:flag>

</metadata><g clip-path="url(#clip0_1_3587)">
<path d="M600 0H200V400H600V0Z" fill="#DA121A"/>
<path d="M200 0H0V400H200V0Z" fill="#FFDD00"/>
<path d="M429.167 429.167L200 200L429.167 -29.1667" stroke="#FFDD00" stroke-width="80"/>
<path d="M197.083 44.5652C194.791 43.8662 192.826 42.367 191.546 40.3408C190.266 38.3146 189.756 35.896 190.109 33.5255C190.463 31.1551 191.656 28.9903 193.471 27.4256C195.287 25.8608 197.603 25 200 25C202.397 25 204.714 25.8608 206.529 27.4256C208.345 28.9903 209.537 31.1551 209.891 33.5255C210.244 35.896 209.735 38.3146 208.454 40.3408C207.174 42.367 205.209 43.8662 202.917 44.5652L210.833 87.5L204.167 90.8333L209.167 103.333L224.167 95.8333L212.5 47.2474C214.912 44.786 216.543 41.6674 217.19 38.2826C217.836 34.8978 217.469 31.3975 216.134 28.2206C214.799 25.0437 212.556 22.3317 209.685 20.4245C206.815 18.5174 203.446 17.5 200 17.5C196.554 17.5 193.185 18.5174 190.315 20.4245C187.445 22.3317 185.202 25.0437 183.867 28.2206C182.532 31.3975 182.164 34.8978 182.811 38.2826C183.457 41.6674 185.088 44.786 187.5 47.2474L175.833 95.8333L190.833 103.333L195.833 90.8333L189.167 87.5L197.083 44.5652Z" fill="#FFDD00"/>
<path d="M349.583 183.732C347.291 183.033 345.326 181.534 344.046 179.507C342.766 177.481 342.256 175.063 342.609 172.692C342.963 170.322 344.156 168.157 345.971 166.592C347.787 165.027 350.103 164.167 352.5 164.167C354.897 164.167 357.214 165.027 359.029 166.592C360.845 168.157 362.037 170.322 362.391 172.692C362.744 175.063 362.235 177.481 360.954 179.507C359.674 181.534 357.709 183.033 355.417 183.732L363.333 226.667L356.667 230L361.667 242.5L376.667 235L365 186.414C367.412 183.953 369.043 180.834 369.69 177.449C370.336 174.064 369.969 170.564 368.634 167.387C367.299 164.21 365.056 161.498 362.185 159.591C359.315 157.684 355.946 156.667 352.5 156.667C349.054 156.667 345.685 157.684 342.815 159.591C339.945 161.498 337.702 164.21 336.367 167.387C335.032 170.564 334.664 174.064 335.311 177.449C335.957 180.834 337.588 183.953 340 186.414L328.333 235L343.333 242.5L348.333 230L341.667 226.667L349.583 183.732Z" fill="#FFDD00"/>
<path d="M197.083 322.898C194.791 322.199 192.826 320.7 191.546 318.674C190.266 316.648 189.756 314.229 190.109 311.859C190.463 309.488 191.656 307.324 193.471 305.759C195.287 304.194 197.603 303.333 200 303.333C202.397 303.333 204.714 304.194 206.529 305.759C208.345 307.324 209.537 309.488 209.891 311.859C210.244 314.229 209.735 316.648 208.454 318.674C207.174 320.7 205.209 322.199 202.917 322.898L210.833 365.833L204.167 369.167L209.167 381.667L224.167 374.167L212.5 325.581C214.912 323.119 216.543 320.001 217.19 316.616C217.836 313.231 217.469 309.731 216.134 306.554C214.799 303.377 212.556 300.665 209.685 298.758C206.815 296.851 203.446 295.833 200 295.833C196.554 295.833 193.185 296.851 190.315 298.758C187.445 300.665 185.202 303.377 183.867 306.554C182.532 309.731 182.164 313.231 182.811 316.616C183.457 320.001 185.088 323.119 187.5 325.581L175.833 374.167L190.833 381.667L195.833 369.167L189.167 365.833L197.083 322.898Z" fill="#FFDD00"/>
<path d="M-29.1667 429.167L200 200L-29.1667 -29.1667" stroke="#DA121A" stroke-width="80"/>
<path d="M202.917 44.5652C205.209 43.8662 207.174 42.367 208.454 40.3408C209.734 38.3146 210.244 35.896 209.891 33.5255C209.537 31.1551 208.344 28.9903 206.529 27.4256C204.713 25.8608 202.397 25 200 25C197.603 25 195.286 25.8608 193.471 27.4256C191.655 28.9903 190.463 31.1551 190.109 33.5255C189.756 35.896 190.265 38.3146 191.546 40.3408C192.826 42.367 194.791 43.8662 197.083 44.5652L189.167 87.5L195.833 90.8333L190.833 103.333L175.833 95.8333L187.5 47.2474C185.088 44.786 183.457 41.6674 182.81 38.2826C182.164 34.8978 182.531 31.3975 183.866 28.2206C185.201 25.0437 187.444 22.3317 190.315 20.4245C193.185 18.5174 196.554 17.5 200 17.5C203.446 17.5 206.815 18.5174 209.685 20.4245C212.555 22.3317 214.798 25.0437 216.133 28.2206C217.468 31.3975 217.836 34.8978 217.189 38.2826C216.543 41.6674 214.912 44.786 212.5 47.2474L224.167 95.8333L209.167 103.333L204.167 90.8333L210.833 87.5L202.917 44.5652Z" fill="#DA121A"/>
<path d="M50.4165 183.732C52.709 183.033 54.6741 181.534 55.9542 179.507C57.2342 177.481 57.7439 175.063 57.3905 172.692C57.0372 170.322 55.8442 168.157 54.0288 166.592C52.2135 165.027 49.8965 164.167 47.4998 164.167C45.1032 164.167 42.7862 165.027 40.9708 166.592C39.1555 168.157 37.9625 170.322 37.6091 172.692C37.2558 175.063 37.7655 177.481 39.0455 179.507C40.3255 181.534 42.2907 183.033 44.5832 183.732L36.6665 226.667L43.3332 230L38.3332 242.5L23.3332 235L34.9998 186.414C32.5882 183.953 30.9569 180.834 30.3105 177.449C29.6641 174.064 30.0314 170.564 31.3663 167.387C32.7013 164.21 34.9444 161.498 37.8145 159.591C40.6846 157.684 44.0539 156.667 47.4998 156.667C50.9458 156.667 54.3151 157.684 57.1852 159.591C60.0553 161.498 62.2984 164.21 63.6333 167.387C64.9683 170.564 65.3356 174.064 64.6892 177.449C64.0428 180.834 62.4115 183.953 59.9998 186.414L71.6665 235L56.6665 242.5L51.6665 230L58.3332 226.667L50.4165 183.732Z" fill="#DA121A"/>
<path d="M202.917 322.898C205.209 322.199 207.174 320.7 208.454 318.674C209.734 316.648 210.244 314.229 209.891 311.859C209.537 309.488 208.344 307.324 206.529 305.759C204.713 304.194 202.397 303.333 200 303.333C197.603 303.333 195.286 304.194 193.471 305.759C191.655 307.324 190.463 309.488 190.109 311.859C189.756 314.229 190.265 316.648 191.546 318.674C192.826 320.7 194.791 322.199 197.083 322.898L189.167 365.833L195.833 369.167L190.833 381.667L175.833 374.167L187.5 325.581C185.088 323.119 183.457 320.001 182.81 316.616C182.164 313.231 182.531 309.731 183.866 306.554C185.201 303.377 187.444 300.665 190.315 298.758C193.185 296.851 196.554 295.833 200 295.833C203.446 295.833 206.815 296.851 209.685 298.758C212.555 300.665 214.798 303.377 216.133 306.554C217.468 309.731 217.836 313.231 217.189 316.616C216.543 320.001 214.912 323.119 212.5 325.581L224.167 374.167L209.167 381.667L204.167 369.167L210.833 365.833L202.917 322.898Z" fill="#DA121A"/>
</g>
<defs>
<clipPath id="clip0_1_3587">
<rect width="600" height="400" fill="white"/>
</clipPath>
</defs>
</svg>
