<svg width="600" height="400" viewBox="0 0 600 400" fill="none" xmlns="http://www.w3.org/2000/svg" xmlns:cgf="https://coding.garden/flags"><metadata id="cgf-metadata">

<cgf:flag>
  <cgf:name>Gulpen-Wittem</cgf:name>
  <cgf:route>nl/li/gulpen_wittem</cgf:route>
  <cgf:aspect-ratio>1.5</cgf:aspect-ratio>
</cgf:flag>

</metadata><g clip-path="url(#clip0_1_3572)">
<path d="M600 0H0V400H600V0Z" fill="#0066FF"/>
<path d="M301.333 -3.33325C294.084 -3.33325 287.132 -0.453493 282.006 4.6725C276.88 9.7985 274 16.7508 274 24.0001C274 31.2493 276.88 38.2017 282.006 43.3277C287.132 48.4537 294.084 51.3334 301.333 51.3334C294.084 51.3334 287.132 54.2132 282.006 59.3392C276.88 64.4652 274 71.4175 274 78.6667C274 85.916 276.88 92.8683 282.006 97.9943C287.132 103.12 294.084 106 301.333 106C295.927 106 290.643 107.603 286.148 110.607C281.653 113.61 278.149 117.879 276.081 122.873C274.012 127.868 273.471 133.364 274.525 138.666C275.58 143.968 278.183 148.838 282.006 152.661C285.828 156.484 290.699 159.087 296.001 160.142C301.303 161.196 306.799 160.655 311.793 158.586C316.788 156.517 321.057 153.014 324.06 148.519C327.064 144.024 328.667 138.739 328.667 133.333C328.667 140.583 331.546 147.535 336.672 152.661C341.798 157.787 348.751 160.667 356 160.667C363.249 160.667 370.202 157.787 375.328 152.661C380.454 147.535 383.333 140.583 383.333 133.333C383.333 140.583 386.213 147.535 391.339 152.661C396.465 157.787 403.417 160.667 410.667 160.667C417.916 160.667 424.868 157.787 429.994 152.661C435.12 147.535 438 140.583 438 133.333C438 140.583 440.88 147.535 446.006 152.661C451.132 157.787 458.084 160.667 465.333 160.667C472.583 160.667 479.535 157.787 484.661 152.661C489.787 147.535 492.667 140.583 492.667 133.333C492.667 140.583 495.546 147.535 500.672 152.661C505.798 157.787 512.751 160.667 520 160.667C527.249 160.667 534.202 157.787 539.328 152.661C544.454 147.535 547.333 140.583 547.333 133.333C547.333 140.583 550.213 147.535 555.339 152.661C560.465 157.787 567.417 160.667 574.667 160.667C581.916 160.667 588.868 157.787 593.994 152.661C599.12 147.535 602 140.583 602 133.333V-3.33325H301.333Z" fill="black"/>
<path d="M-0.666504 133.333C-0.666504 140.583 2.21326 147.535 7.33925 152.661C12.4652 157.787 19.4176 160.667 26.6668 160.667C33.9161 160.667 40.8684 157.787 45.9944 152.661C51.1204 147.535 54.0002 140.583 54.0002 133.333C54.0002 140.583 56.8799 147.535 62.0059 152.661C67.1319 157.787 74.0842 160.667 81.3335 160.667C88.5827 160.667 95.5351 157.787 100.661 152.661C105.787 147.535 108.667 140.583 108.667 133.333C108.667 138.739 110.27 144.024 113.273 148.519C116.277 153.014 120.546 156.517 125.54 158.586C130.535 160.655 136.03 161.196 141.333 160.142C146.635 159.087 151.505 156.484 155.328 152.661C159.15 148.838 161.754 143.968 162.808 138.666C163.863 133.364 163.322 127.868 161.253 122.873C159.184 117.879 155.681 113.61 151.186 110.607C146.691 107.603 141.406 106 136 106C143.249 106 150.202 103.12 155.328 97.9943C160.454 92.8683 163.333 85.916 163.333 78.6667C163.333 71.4175 160.454 64.4651 155.328 59.3391C150.202 54.2132 143.249 51.3334 136 51.3334C143.249 51.3334 150.202 48.4537 155.328 43.3277C160.454 38.2017 163.333 31.2493 163.333 24.0001C163.333 16.7508 160.454 9.79848 155.328 4.67248C150.202 -0.45351 143.249 -3.33327 136 -3.33327C143.249 -3.33327 150.202 -6.21303 155.328 -11.339C160.454 -16.465 163.333 -23.4174 163.333 -30.6666C163.333 -37.9159 160.454 -44.8682 155.328 -49.9942C150.202 -55.1202 143.249 -57.9999 136 -57.9999C143.249 -57.9999 150.202 -60.8797 155.328 -66.0057C160.454 -71.1317 163.333 -78.084 163.333 -85.3333C163.333 -92.5825 160.454 -99.5348 155.328 -104.661C150.202 -109.787 143.249 -112.667 136 -112.667C143.249 -112.667 150.202 -115.546 155.328 -120.672C160.454 -125.798 163.333 -132.751 163.333 -140C163.333 -147.249 160.454 -154.202 155.328 -159.328C150.202 -164.454 143.249 -167.333 136 -167.333H-0.666504L-0.666504 133.333Z" fill="black"/>
<path d="M301.333 403.333C294.084 403.333 287.132 400.454 282.006 395.328C276.88 390.202 274 383.249 274 376C274 368.751 276.88 361.799 282.006 356.673C287.132 351.547 294.084 348.667 301.333 348.667C294.084 348.667 287.132 345.787 282.006 340.661C276.88 335.535 274 328.583 274 321.333C274 314.084 276.88 307.132 282.006 302.006C287.132 296.88 294.084 294 301.333 294C295.927 294 290.643 292.397 286.148 289.394C281.653 286.39 278.149 282.121 276.081 277.127C274.012 272.132 273.471 266.637 274.525 261.334C275.58 256.032 278.183 251.162 282.006 247.339C285.828 243.517 290.699 240.913 296.001 239.859C301.303 238.804 306.799 239.345 311.793 241.414C316.788 243.483 321.057 246.986 324.06 251.481C327.064 255.976 328.667 261.261 328.667 266.667C328.667 259.418 331.546 252.465 336.672 247.339C341.798 242.213 348.751 239.333 356 239.333C363.249 239.333 370.202 242.213 375.328 247.339C380.454 252.465 383.333 259.418 383.333 266.667C383.333 259.418 386.213 252.465 391.339 247.339C396.465 242.213 403.417 239.333 410.667 239.333C417.916 239.333 424.868 242.213 429.994 247.339C435.12 252.465 438 259.418 438 266.667C438 259.418 440.88 252.465 446.006 247.339C451.132 242.213 458.084 239.333 465.333 239.333C472.583 239.333 479.535 242.213 484.661 247.339C489.787 252.465 492.667 259.418 492.667 266.667C492.667 259.418 495.546 252.465 500.672 247.339C505.798 242.213 512.751 239.333 520 239.333C527.249 239.333 534.202 242.213 539.328 247.339C544.454 252.465 547.333 259.418 547.333 266.667C547.333 259.418 550.213 252.465 555.339 247.339C560.465 242.213 567.417 239.333 574.667 239.333C581.916 239.333 588.868 242.213 593.994 247.339C599.12 252.465 602 259.418 602 266.667V403.333H301.333Z" fill="black"/>
<path d="M-0.666504 266.667C-0.666504 259.418 2.21326 252.465 7.33925 247.339C12.4652 242.213 19.4176 239.334 26.6668 239.334C33.9161 239.334 40.8684 242.213 45.9944 247.339C51.1204 252.465 54.0002 259.418 54.0002 266.667C54.0002 259.418 56.8799 252.465 62.0059 247.339C67.1319 242.213 74.0842 239.334 81.3335 239.334C88.5827 239.334 95.5351 242.213 100.661 247.339C105.787 252.465 108.667 259.418 108.667 266.667C108.667 261.261 110.27 255.976 113.273 251.481C116.277 246.986 120.546 243.483 125.54 241.414C130.535 239.345 136.03 238.804 141.333 239.859C146.635 240.913 151.505 243.517 155.328 247.339C159.15 251.162 161.754 256.032 162.808 261.334C163.863 266.637 163.322 272.132 161.253 277.127C159.184 282.121 155.681 286.39 151.186 289.394C146.691 292.397 141.406 294 136 294C143.249 294 150.202 296.88 155.328 302.006C160.454 307.132 163.333 314.084 163.333 321.334C163.333 328.583 160.454 335.535 155.328 340.661C150.202 345.787 143.249 348.667 136 348.667C143.249 348.667 150.202 351.547 155.328 356.673C160.454 361.799 163.333 368.751 163.333 376C163.333 383.249 160.454 390.202 155.328 395.328C150.202 400.454 143.249 403.334 136 403.334C143.249 403.334 150.202 406.213 155.328 411.339C160.454 416.465 163.333 423.418 163.333 430.667C163.333 437.916 160.454 444.868 155.328 449.994C150.202 455.12 143.249 458 136 458C143.249 458 150.202 460.88 155.328 466.006C160.454 471.132 163.333 478.084 163.333 485.334C163.333 492.583 160.454 499.535 155.328 504.661C150.202 509.787 143.249 512.667 136 512.667C143.249 512.667 150.202 515.547 155.328 520.673C160.454 525.799 163.333 532.751 163.333 540C163.333 547.249 160.454 554.202 155.328 559.328C150.202 564.454 143.249 567.334 136 567.334H-0.666504L-0.666504 266.667Z" fill="black"/>
</g>
<defs>
<clipPath id="clip0_1_3572">
<rect width="600" height="400" fill="white"/>
</clipPath>
</defs>
</svg>
