<svg width="600" height="400" viewBox="0 0 600 400" fill="none" xmlns="http://www.w3.org/2000/svg" xmlns:cgf="https://coding.garden/flags"><metadata id="cgf-metadata">

<cgf:flag>
  <cgf:name>Heerlen</cgf:name>
  <cgf:route>nl/li/heerlen</cgf:route>
  <cgf:aspect-ratio>1.5</cgf:aspect-ratio>
</cgf:flag>

</metadata><g clip-path="url(#clip0_1_3648)">
<path d="M0.404785 -2.8728V406.439H603.159V-2.8728H0.404785V-2.8728Z" fill="#0066FF"/>
<path d="M305.712 337.705L306.528 114.786L300.442 114.892C299.902 128.875 295.511 142.751 285.069 156.733L290.454 158.531C275.116 175.729 256.884 151.957 278.488 158.831C277.429 147.914 282.921 129.718 267.12 127.67C260.552 127.967 254.312 127.978 248.537 127.583C247.794 127.533 245.189 123.58 244.461 123.516C243.575 123.437 244.57 127.244 243.708 127.144C218.775 124.264 204.188 112.36 212.672 80.3298C192.648 95.889 179.503 127.213 220.151 152.838L214.467 156.134C218.573 155.739 223.185 154.707 227.173 156.503C236.564 160.732 245.641 162.086 254.256 161.228C237.474 165.631 220.526 166.594 204.894 157.033V159.13C216.941 171.071 235.813 168.815 250.367 166.92C219.761 181.94 192.802 173.55 174.38 142.052C174.269 154.037 176.005 166.022 186.944 178.006C185.434 180.632 183.156 179.41 181.26 180.104C184.451 181.188 187.642 181.41 190.833 181.302C196.85 185.484 202.133 189.942 211.176 192.988L207.287 195.984C220.273 193 232.119 194.58 244.383 194.486C239.659 197.197 219.852 203.053 202.8 198.381H199.509C213.783 205.907 228.722 203.099 243.785 198.381C225.281 215.254 188.717 222.376 168.995 185.497C176.581 241.916 212.446 237.336 256.051 216.058C245.334 228.131 225.157 237.981 210.877 240.627L213.57 242.725C237.17 238.162 251.45 225.994 264.427 212.763C253.062 235.972 230.194 252.627 194.124 250.515C226.349 271.511 253.741 249.699 280.881 225.646C280.903 232.992 279.751 240.445 271.11 248.579C271.891 249.171 272.208 249.763 275.271 250.354C267.837 254.964 260.292 258.675 252.461 260.103C254.725 262.928 256.957 265.757 262.333 268.193L255.452 272.687L250.067 269.091C246.278 258.375 242.489 264.008 238.699 265.196C232.702 262.705 229.043 264.196 227.032 268.492C230.472 267.242 234.078 266.491 238.699 268.792C239.105 272.922 240.846 275.792 247.973 273.586L252.162 275.084C248.41 278.618 237.597 275.078 241.691 286.469C239.486 291.575 240.216 297.375 244.383 301.75C244.532 296.956 243.224 291.578 247.076 288.267C254.991 288.642 251.81 282.905 252.461 279.279H256.35L258.145 282.874C256.105 285.937 249.466 287.398 255.752 293.361C255.372 297.267 253.539 300.341 250.367 302.649C253.558 302.696 256.749 304.683 259.94 295.158C263.952 293.184 267.416 290.958 262.034 284.672L261.136 281.676H264.128C265.984 289.131 271.194 289.197 276.992 287.968C279.327 289.133 280.54 291.197 280.881 293.96C281.461 292.169 282.42 289.055 278.488 285.271C275.566 281.556 274.392 273.703 267.419 279.578L264.128 278.08L268.616 272.088C272.604 275.883 276.593 277.977 280.582 278.979C277.525 270.59 279.476 262.2 279.685 253.811C280.456 256.987 282.026 257.761 283.574 258.605C284.894 248.654 290.893 245.994 295.54 241.227L298.831 246.32L297.933 269.091L302.421 267.893C301.334 275.683 299.634 283.473 294.643 291.263L301.224 291.563C294.942 299.359 287.997 301.177 281.18 304.147C287.863 308.5 294.218 313.247 303.617 314.334C293.93 319.255 299.345 328.348 305.712 337.705V337.705Z" fill="#FCD903"/>
<path d="M305.729 337.635L306.077 114.717H313.644C314.184 128.699 315.93 142.681 326.372 156.664L320.987 158.461C336.326 175.659 354.557 151.887 332.953 158.761C334.012 147.844 328.52 129.649 344.321 127.6C350.889 127.897 357.129 127.908 362.904 127.514C363.647 127.463 366.252 123.511 366.98 123.446C367.866 123.368 366.871 127.174 367.733 127.074C392.666 124.195 407.254 112.29 398.769 80.2603C418.793 95.8194 431.938 127.144 391.29 152.769L396.974 156.064C392.868 155.669 388.257 154.638 384.268 156.434C374.878 160.662 365.8 162.016 357.185 161.158C373.967 165.562 390.915 166.524 406.547 156.963V159.061C394.5 171.001 375.628 168.746 361.074 166.851C391.68 181.871 418.639 173.48 437.062 141.982C437.172 153.967 435.437 165.952 424.497 177.937C426.007 180.562 428.285 179.341 430.181 180.034C426.99 181.119 423.799 181.341 420.608 181.233C414.591 185.415 409.308 189.873 400.265 192.918L404.154 195.914C391.168 192.93 379.322 194.511 367.058 194.416C371.783 197.128 391.589 202.983 408.641 198.311H411.932C397.658 205.837 382.719 203.029 367.656 198.311C386.16 215.185 422.724 222.306 442.447 185.427C434.86 241.846 398.995 237.266 355.39 215.989C366.107 228.061 386.284 237.911 400.564 240.558L397.871 242.655C374.271 238.093 359.991 225.925 347.014 212.693C358.379 235.903 381.247 252.557 417.317 250.445C385.092 271.441 357.7 249.63 330.56 225.577C330.538 232.922 331.69 240.375 340.331 248.51C339.55 249.101 339.233 249.693 336.17 250.285C343.604 254.894 351.15 258.605 358.98 260.033C356.716 262.858 354.484 265.687 349.108 268.123L355.989 272.617L361.374 269.022C365.163 258.305 368.952 263.939 372.742 265.127C378.739 262.636 382.398 264.127 384.409 268.423C380.969 267.173 377.364 266.421 372.742 268.722C372.337 272.852 370.595 275.723 363.468 273.516L359.279 275.014C363.031 278.548 373.844 275.009 369.75 286.4C371.955 291.505 371.225 297.305 367.058 301.681C366.909 296.886 368.217 291.508 364.365 288.198C356.45 288.573 359.631 282.835 358.98 279.209H355.091L353.296 282.804C355.336 285.867 361.975 287.328 355.69 293.291C356.07 297.197 357.902 300.272 361.074 302.579C357.883 302.627 354.692 304.613 351.501 295.089C347.49 293.114 344.025 290.889 349.407 284.602L350.305 281.606H347.313C345.457 289.062 340.247 289.128 334.449 287.898C332.114 289.063 330.901 291.128 330.56 293.89C329.98 292.099 329.021 288.985 332.953 285.201C335.875 281.487 337.049 273.633 344.022 279.509L347.313 278.01L342.826 272.018C338.837 275.813 334.848 277.907 330.859 278.909C333.917 270.52 331.965 262.13 331.757 253.741C330.985 256.917 329.415 257.692 327.867 258.535C326.547 248.584 320.548 245.925 315.901 241.157L312.61 246.251L313.508 269.022L309.02 267.823C310.107 275.613 311.807 283.404 316.798 291.194L310.217 291.493C316.499 299.289 323.444 301.107 330.261 304.078C323.578 308.431 317.223 313.177 307.824 314.265C317.512 319.185 312.096 328.279 305.729 337.635V337.635Z" fill="#FCD903"/>
<path d="M300.757 115.447L305.651 337.637L305.73 337.731L305.809 337.493L313.462 114.442L300.757 115.447L300.757 115.447Z" fill="#FCD903"/>
<path d="M330.868 81.0417C326.569 81.512 324.518 78.6767 318.817 83.0939C316.469 84.9133 312.666 84.8364 308.088 84.2232C304.023 82.3199 299.957 81.1866 295.892 83.1597C290.799 78.0913 289.297 85.2496 286.131 86.7442C269.363 85.3287 258.841 88.8869 258.964 100.919C270.412 89.9718 285.036 93.2768 292.639 97.3345C282.77 98.6948 292.402 95.1713 262.38 103.852C256.942 104.535 252.314 103.106 249.041 98.1491C248.932 109.161 252.636 115.939 272.304 104.992C281.913 99.8895 286.538 100.493 293.452 98.475V101.571C284.435 106.109 276.227 109.028 269.376 109.228C273.959 114.979 286.095 111.746 297.356 109.554C298.544 112.723 297.78 116.218 296.38 119.819L299.471 116.723L314.763 117.049L318.667 120.144C314.563 100.464 323.958 91.2636 330.868 81.0417V81.0417Z" fill="#FCD903"/>
<path d="M293.371 85.6851H302.155L297.194 88.7807L293.371 85.6851V85.6851Z" fill="#0066FF"/>
</g>
<defs>
<clipPath id="clip0_1_3648">
<rect width="600" height="400" fill="white"/>
</clipPath>
</defs>
</svg>
