<svg width="600" height="400" viewBox="0 0 600 400" fill="none" xmlns="http://www.w3.org/2000/svg" xmlns:cgf="https://coding.garden/flags"><metadata id="cgf-metadata">

<cgf:flag>
  <cgf:name>Horst aan de Maas</cgf:name>
  <cgf:route>nl/li/horst_aan_de_maas</cgf:route>
  <cgf:aspect-ratio>1.5</cgf:aspect-ratio>
</cgf:flag>

</metadata><g clip-path="url(#clip0_1_3981)">
<path d="M1.30322 1.26172V398.704L598.71 396.338L598.116 1.26172H1.30322V1.26172Z" fill="#FCDD09"/>
<path d="M-3.63623 57.4534V113.091L602.579 112.76L601.977 57.4534H-3.63623Z" fill="black"/>
<path d="M-2.31494 168.693V224.331L603.057 224L602.455 168.693H-2.31494Z" fill="black"/>
<path d="M-4.92627 282.531V338.167L603.056 337.836L602.451 282.531H-4.92627V282.531Z" fill="black"/>
<path d="M110.465 -2.42969V402.456L220.281 400.046L220.172 -2.42969H110.465H110.465Z" fill="white"/>
<path d="M161.832 41.5686L144.308 23.5914C140.481 23.3471 137.261 24.9115 134.872 28.9578C132.868 32.9601 129.372 33.2515 125.975 33.7875C129.86 36.8738 131.613 40.8088 131.906 45.325C130.583 50.8433 135.196 52.9854 138.646 55.7893L162.371 44.5201L161.832 41.5686V41.5686Z" fill="#D80000"/>
<path d="M165.296 41.4507L182.82 23.4735C186.647 23.2292 189.867 24.7935 192.257 28.8398C194.261 32.8421 197.756 33.1336 201.154 33.6695C197.269 36.7558 195.515 40.6909 195.222 45.2071C196.545 50.7254 191.932 52.8675 188.482 55.6714L164.757 44.4021L165.296 41.4507V41.4507Z" fill="#D80000"/>
<path d="M165.588 44.3799L182.306 23.7557C181.967 19.9548 178.394 17.6774 174.012 15.9426C169.732 14.5799 166.179 10.4245 165.13 7.16431C162.718 11.3134 163.459 12.4795 157.197 13.9919C147.07 14.9266 146.649 19.8525 144.879 23.5182L162.739 45.3591L165.588 44.3799V44.3799Z" fill="#DA121A"/>
<path d="M160.888 43.5703L138.887 55.7336C137.654 59.3469 138.334 62.8487 141.638 66.1973C145 69.1643 144.374 72.5992 144.01 76.0033C148.015 73.0729 152.289 72.4119 156.747 73.3051C161.756 76.0122 165.035 72.1362 168.653 69.5505L163.891 43.82L160.888 43.5703V43.5703Z" fill="#D80000"/>
<path d="M165.011 47.2085L165.944 72.2382C168.623 74.9681 172.068 75.9507 176.565 74.5353C180.745 72.896 183.539 75.0075 186.423 76.8719C185.612 71.9911 186.955 67.8995 189.774 64.3483C194.468 61.1291 192.48 56.4647 191.802 52.0836L166.595 44.6562L165.011 47.2085V47.2085Z" fill="#D80000"/>
<path d="M169.54 44.4958C169.541 45.153 169.405 45.8039 169.142 46.4112C168.878 47.0185 168.492 47.5704 168.005 48.0352C167.518 48.5001 166.939 48.8689 166.303 49.1205C165.666 49.3721 164.984 49.5016 164.295 49.5016C163.606 49.5016 162.923 49.3721 162.287 49.1205C161.65 48.8689 161.072 48.5001 160.585 48.0352C160.097 47.5704 159.711 47.0185 159.448 46.4112C159.184 45.8039 159.049 45.153 159.049 44.4958C159.049 43.8386 159.184 43.1877 159.448 42.5804C159.711 41.9731 160.097 41.4212 160.585 40.9563C161.072 40.4915 161.65 40.1227 162.287 39.8711C162.923 39.6195 163.606 39.49 164.295 39.49C164.984 39.49 165.666 39.6195 166.303 39.8711C166.939 40.1227 167.518 40.4915 168.005 40.9563C168.492 41.4212 168.878 41.9731 169.142 42.5804C169.405 43.1877 169.541 43.8386 169.54 44.4958V44.4958Z" fill="#FED502"/>
<path d="M161.688 121.264L144.164 103.287C140.337 103.043 137.117 104.607 134.728 108.653C132.723 112.656 129.228 112.947 125.831 113.483C129.716 116.569 131.469 120.504 131.762 125.021C130.439 130.539 135.052 132.681 138.502 135.485L162.227 124.216L161.688 121.264V121.264Z" fill="#D80000"/>
<path d="M165.152 121.146L182.677 103.169C186.503 102.925 189.724 104.489 192.113 108.535C194.117 112.538 197.613 112.829 201.01 113.365C197.125 116.451 195.372 120.386 195.079 124.903C196.402 130.421 191.789 132.563 188.339 135.367L164.613 124.098L165.152 121.146V121.146Z" fill="#D80000"/>
<path d="M165.444 124.075L182.162 103.451C181.823 99.6502 178.25 97.3727 173.868 95.6379C169.588 94.2752 166.035 90.1198 164.986 86.8596C162.574 91.0087 163.315 92.1749 157.053 93.6873C146.926 94.622 146.505 99.5479 144.735 103.214L162.595 125.054L165.444 124.075V124.075Z" fill="#D80000"/>
<path d="M160.744 123.266L138.743 135.429C137.511 139.042 138.191 142.544 141.495 145.893C144.857 148.86 144.23 152.295 143.866 155.699C147.871 152.768 152.145 152.107 156.603 153.001C161.613 155.708 164.891 151.832 168.509 149.246L163.748 123.516L160.744 123.266V123.266Z" fill="#D80000"/>
<path d="M164.867 126.904L165.801 151.934C168.48 154.664 171.925 155.646 176.421 154.231C180.602 152.592 183.395 154.703 186.28 156.568C185.468 151.687 186.812 147.595 189.631 144.044C194.324 140.825 192.337 136.16 191.659 131.779L166.451 124.352L164.867 126.904Z" fill="#D80000"/>
<path d="M169.396 124.191C169.397 124.849 169.261 125.499 168.998 126.107C168.734 126.714 168.348 127.266 167.861 127.731C167.374 128.196 166.795 128.564 166.159 128.816C165.522 129.068 164.84 129.197 164.151 129.197C163.462 129.197 162.779 129.068 162.143 128.816C161.506 128.564 160.928 128.196 160.441 127.731C159.953 127.266 159.567 126.714 159.304 126.107C159.04 125.499 158.905 124.849 158.905 124.191C158.905 123.534 159.04 122.883 159.304 122.276C159.567 121.669 159.953 121.117 160.441 120.652C160.928 120.187 161.506 119.818 162.143 119.567C162.779 119.315 163.462 119.186 164.151 119.186C164.84 119.186 165.522 119.315 166.159 119.567C166.795 119.818 167.374 120.187 167.861 120.652C168.348 121.117 168.734 121.669 168.998 122.276C169.261 122.883 169.397 123.534 169.396 124.191V124.191Z" fill="#FED502"/>
<path d="M161.688 198.264L144.164 180.287C140.337 180.043 137.117 181.607 134.728 185.654C132.723 189.656 129.228 189.947 125.831 190.483C129.716 193.57 131.469 197.505 131.762 202.021C130.439 207.539 135.052 209.681 138.502 212.485L162.227 201.216L161.688 198.264V198.264Z" fill="#D80000"/>
<path d="M165.152 198.146L182.677 180.169C186.503 179.925 189.724 181.489 192.113 185.536C194.117 189.538 197.613 189.829 201.01 190.365C197.125 193.452 195.372 197.387 195.079 201.903C196.402 207.421 191.789 209.563 188.339 212.367L164.613 201.098L165.152 198.146V198.146Z" fill="#D80000"/>
<path d="M165.444 201.075L182.162 180.451C181.823 176.65 178.25 174.373 173.868 172.638C169.588 171.275 166.035 167.12 164.986 163.86C162.574 168.009 163.315 169.175 157.053 170.687C146.926 171.622 146.505 176.548 144.735 180.214L162.595 202.055L165.444 201.075V201.075Z" fill="#D80000"/>
<path d="M160.744 200.266L138.743 212.429C137.511 216.043 138.191 219.545 141.495 222.893C144.857 225.86 144.23 229.295 143.866 232.699C147.871 229.769 152.145 229.108 156.603 230.001C161.613 232.708 164.891 228.832 168.509 226.246L163.748 200.516L160.744 200.266V200.266Z" fill="#D80000"/>
<path d="M164.867 203.904L165.801 228.934C168.48 231.664 171.925 232.647 176.421 231.231C180.602 229.592 183.395 231.703 186.28 233.568C185.468 228.687 186.812 224.595 189.631 221.044C194.324 217.825 192.337 213.161 191.659 208.779L166.451 201.352L164.867 203.904V203.904Z" fill="#D80000"/>
<path d="M169.396 201.192C169.397 201.849 169.261 202.5 168.998 203.107C168.734 203.714 168.348 204.266 167.861 204.731C167.374 205.196 166.795 205.565 166.159 205.816C165.522 206.068 164.84 206.197 164.151 206.197C163.462 206.197 162.779 206.068 162.143 205.816C161.506 205.565 160.928 205.196 160.441 204.731C159.953 204.266 159.567 203.714 159.304 203.107C159.04 202.5 158.905 201.849 158.905 201.192C158.905 200.534 159.04 199.883 159.304 199.276C159.567 198.669 159.953 198.117 160.441 197.652C160.928 197.187 161.506 196.818 162.143 196.567C162.779 196.315 163.462 196.186 164.151 196.186C164.84 196.186 165.522 196.315 166.159 196.567C166.795 196.818 167.374 197.187 167.861 197.652C168.348 198.117 168.734 198.669 168.998 199.276C169.261 199.883 169.397 200.534 169.396 201.192V201.192Z" fill="#FED502"/>
<path d="M161.688 276.135L144.164 258.158C140.337 257.913 137.117 259.478 134.728 263.524C132.723 267.526 129.228 267.818 125.831 268.354C129.716 271.44 131.469 275.375 131.762 279.891C130.439 285.409 135.052 287.552 138.502 290.355L162.227 279.086L161.688 276.135V276.135Z" fill="#D80000"/>
<path d="M165.152 276.017L182.677 258.04C186.503 257.795 189.724 259.36 192.113 263.406C194.117 267.408 197.613 267.7 201.01 268.236C197.125 271.322 195.372 275.257 195.079 279.773C196.402 285.292 191.789 287.434 188.339 290.238L164.613 278.968L165.152 276.017V276.017Z" fill="#D80000"/>
<path d="M165.444 278.946L182.162 258.322C181.823 254.521 178.25 252.243 173.868 250.508C169.588 249.146 166.035 244.99 164.986 241.73C162.574 245.879 163.315 247.045 157.053 248.558C146.926 249.493 146.505 254.418 144.735 258.084L162.595 279.925L165.444 278.946V278.946Z" fill="#D80000"/>
<path d="M160.744 278.136L138.743 290.3C137.511 293.913 138.191 297.415 141.495 300.764C144.857 303.731 144.23 307.165 143.866 310.57C147.871 307.639 152.145 306.978 156.603 307.871C161.613 310.578 164.891 306.702 168.509 304.117L163.748 278.386L160.744 278.136V278.136Z" fill="#D80000"/>
<path d="M164.867 281.774L165.801 306.804C168.48 309.534 171.925 310.517 176.421 309.101C180.602 307.462 183.395 309.574 186.28 311.438C185.468 306.557 186.812 302.465 189.631 298.914C194.324 295.695 192.337 291.031 191.659 286.65L166.451 279.222L164.867 281.774V281.774Z" fill="#D80000"/>
<path d="M169.396 279.062C169.397 279.719 169.261 280.37 168.998 280.977C168.734 281.585 168.348 282.137 167.861 282.601C167.374 283.066 166.795 283.435 166.159 283.687C165.522 283.938 164.84 284.068 164.151 284.068C163.462 284.068 162.779 283.938 162.143 283.687C161.506 283.435 160.928 283.066 160.441 282.601C159.953 282.137 159.567 281.585 159.304 280.977C159.04 280.37 158.905 279.719 158.905 279.062C158.905 278.405 159.04 277.754 159.304 277.147C159.567 276.539 159.953 275.987 160.441 275.522C160.928 275.058 161.506 274.689 162.143 274.437C162.779 274.186 163.462 274.056 164.151 274.056C164.84 274.056 165.522 274.186 166.159 274.437C166.795 274.689 167.374 275.058 167.861 275.522C168.348 275.987 168.734 276.539 168.998 277.147C169.261 277.754 169.397 278.405 169.396 279.062V279.062Z" fill="#FED502"/>
<path d="M162.126 355.745L144.601 337.768C140.775 337.524 137.554 339.088 135.165 343.134C133.161 347.137 129.665 347.428 126.268 347.964C130.153 351.05 131.906 354.985 132.199 359.502C130.876 365.02 135.49 367.162 138.94 369.966L162.665 358.697L162.126 355.745V355.745Z" fill="#D80000"/>
<path d="M165.589 355.627L183.114 337.65C186.94 337.406 190.161 338.97 192.55 343.016C194.554 347.019 198.05 347.31 201.447 347.846C197.562 350.932 195.809 354.867 195.516 359.384C196.839 364.902 192.226 367.044 188.776 369.848L165.05 358.579L165.589 355.627V355.627Z" fill="#D80000"/>
<path d="M165.881 358.556L182.599 337.932C182.26 334.131 178.687 331.854 174.305 330.119C170.025 328.756 166.472 324.601 165.423 321.341C163.01 325.49 163.752 326.656 157.49 328.168C147.363 329.103 146.942 334.029 145.172 337.695L163.032 359.535L165.881 358.556V358.556Z" fill="#D80000"/>
<path d="M161.181 357.747L139.18 369.91C137.948 373.523 138.628 377.025 141.932 380.374C145.294 383.341 144.667 386.776 144.303 390.18C148.308 387.249 152.582 386.588 157.04 387.482C162.05 390.189 165.328 386.313 168.946 383.727L164.185 357.996L161.181 357.747V357.747Z" fill="#D80000"/>
<path d="M165.304 361.385L166.238 386.415C168.917 389.144 172.362 390.127 176.858 388.712C181.039 387.072 183.832 389.184 186.717 391.048C185.905 386.167 187.249 382.076 190.068 378.525C194.761 375.305 192.774 370.641 192.096 366.26L166.888 358.833L165.304 361.385Z" fill="#D80000"/>
<path d="M169.833 358.672C169.834 359.33 169.698 359.98 169.435 360.588C169.171 361.195 168.785 361.747 168.298 362.212C167.811 362.677 167.232 363.045 166.596 363.297C165.959 363.549 165.277 363.678 164.588 363.678C163.899 363.678 163.216 363.549 162.58 363.297C161.943 363.045 161.365 362.677 160.878 362.212C160.39 361.747 160.004 361.195 159.741 360.588C159.477 359.98 159.342 359.33 159.342 358.672C159.342 358.015 159.477 357.364 159.741 356.757C160.004 356.15 160.39 355.598 160.878 355.133C161.365 354.668 161.943 354.299 162.58 354.048C163.216 353.796 163.899 353.667 164.588 353.667C165.277 353.667 165.959 353.796 166.596 354.048C167.232 354.299 167.811 354.668 168.298 355.133C168.785 355.598 169.171 356.15 169.435 356.757C169.698 357.364 169.834 358.015 169.833 358.672V358.672Z" fill="#FED502"/>
<path d="M185.471 390.998C182.874 389.372 181.944 389.008 180.209 388.94C179.55 388.914 178.824 388.942 178.594 389.003C178.365 389.064 177.545 389.295 176.771 389.517C175.531 389.872 175.173 389.927 173.749 389.982C172.735 390.021 171.844 389.997 171.353 389.915C169.479 389.606 167.778 388.778 166.263 387.436L165.811 387.035L165.534 387.24C164.949 387.675 163.642 388.374 162.936 388.628C160.958 389.341 159.15 389.265 157.13 388.385C155.809 387.809 152.47 387.717 150.25 388.196C148.395 388.596 146.709 389.368 144.459 390.848C143.769 391.302 143.17 391.673 143.128 391.673C143.087 391.673 143.162 390.642 143.297 389.382C143.802 384.642 143.496 383.399 141.222 380.955C139.779 379.403 139.037 378.382 138.442 377.126C137.582 375.314 137.308 373.362 137.634 371.38C137.726 370.818 137.802 370.335 137.802 370.307C137.802 370.28 137.228 369.824 136.526 369.296C132.649 366.378 131.536 365.077 130.962 362.794C130.805 362.168 130.779 360.356 130.918 359.721C131.148 358.673 130.468 355.627 129.593 353.787C128.716 351.941 127.7 350.63 125.92 349.05C124.718 347.981 124.619 347.865 124.59 347.476C124.571 347.245 124.588 347.056 124.625 347.056C124.787 347.056 128.215 346.485 128.685 346.38C129.605 346.175 130.856 345.721 131.494 345.362C132.417 344.843 133.218 343.989 134.105 342.577C135.086 341.015 135.867 340.048 136.812 339.228C138.689 337.598 140.59 336.841 143.14 336.709C144.367 336.645 144.472 336.623 144.536 336.409C144.694 335.875 145.937 333.221 146.299 332.643C147.125 331.324 148.241 330.176 149.449 329.404C150.952 328.443 153.317 327.654 155.661 327.332C157.201 327.121 159.23 326.617 160.302 326.178C161.829 325.554 162.355 325.048 163.286 323.311C164.874 320.344 165.55 319.201 165.627 319.347C165.671 319.431 165.949 320.089 166.245 320.808C167.102 322.894 167.782 323.955 169.271 325.527C170.22 326.53 171.723 327.704 172.76 328.254C173.104 328.437 174.041 328.846 174.844 329.164C178.308 330.535 180.865 332.193 182.161 333.907C182.599 334.487 183.44 336.128 183.44 336.403C183.44 336.488 183.863 336.553 184.716 336.6C188.455 336.807 191.19 338.594 193.586 342.393C194.649 344.08 195.294 344.748 196.42 345.33C197.528 345.903 198.685 346.229 200.838 346.576L202.716 346.879V347.509V348.139L201.752 348.969C199.088 351.265 197.46 354.207 196.924 357.692C196.77 358.697 196.76 359.044 196.858 360.006C197.125 362.616 196.508 364.334 194.561 366.399L193.544 367.478L193.801 368.835C194.381 371.903 194.41 373.488 193.913 375.057C193.442 376.544 192.66 377.646 191.275 378.773C190.748 379.203 189.655 380.783 189.076 381.955C187.825 384.485 187.402 387.082 187.752 390.076C187.844 390.868 187.92 391.577 187.92 391.65C187.92 391.739 187.721 391.783 187.321 391.782C186.767 391.781 186.628 391.722 185.471 390.998L185.471 390.998ZM186.143 385.105C186.504 383.238 187.167 381.532 188.188 379.843C188.914 378.643 189.655 377.694 190.196 377.273C192.106 375.787 192.796 373.861 192.398 371.131C192.298 370.442 191.655 366.907 191.621 366.853C191.594 366.811 170.381 360.638 170.364 360.668C169.787 361.65 169.257 362.386 168.872 362.738C168.393 363.178 166.878 364.063 166.606 364.063C166.53 364.063 166.436 364.118 166.398 364.184C166.359 364.25 166.504 369.108 166.721 374.98C167.172 387.185 166.986 385.774 168.258 386.662C169.035 387.205 169.588 387.481 170.623 387.845C171.218 388.054 171.53 388.082 173.176 388.08C174.975 388.078 175.103 388.061 176.302 387.71C178.31 387.121 178.738 387.043 179.949 387.039C181.676 387.034 183.381 387.555 185.159 388.63L185.784 389.008L185.854 387.625C185.892 386.865 186.022 385.73 186.143 385.105H186.143ZM146.047 387.745C147.428 387.008 149.362 386.389 151.035 386.148C152.311 385.964 154.954 385.992 156.192 386.201C156.766 386.298 157.495 386.499 157.814 386.648C159.239 387.312 160.818 387.414 162.184 386.929C162.901 386.674 164.539 385.763 165.04 385.339L165.339 385.087L164.951 374.825C164.737 369.181 164.543 364.531 164.52 364.492C164.498 364.452 164.208 364.386 163.878 364.345C162.399 364.158 161.129 363.529 160.119 362.483C159.534 361.876 158.914 360.898 158.794 360.391C158.755 360.224 158.669 360.088 158.604 360.09C158.538 360.091 154.265 362.398 149.107 365.217L139.73 370.341L139.542 370.923C139.256 371.806 139.194 373.453 139.407 374.468C139.768 376.189 140.66 377.702 142.37 379.496C144.004 381.21 144.596 382.179 145.012 383.816C145.181 384.483 145.228 385.025 145.239 386.399C145.246 387.356 145.265 388.139 145.281 388.139C145.295 388.139 145.641 387.962 146.047 387.745L146.047 387.745ZM148.525 363.437C153.831 360.542 158.254 358.099 158.355 358.009C158.455 357.918 158.537 357.727 158.537 357.583C158.537 357.44 158.653 357.019 158.795 356.649L159.053 355.976L153.277 349.003C149.044 343.892 147.039 341.562 145.77 340.275L144.039 338.519L142.978 338.589C139.864 338.795 137.679 340.282 135.554 343.644C134.541 345.246 133.593 346.27 132.547 346.89C131.655 347.418 130.183 347.968 128.976 348.223L128.016 348.426L128.615 349.094C130.126 350.777 131.232 352.693 131.931 354.841C132.495 356.578 132.858 358.964 132.695 359.873C132.526 360.817 132.569 362.011 132.796 362.696C133.331 364.31 134.287 365.305 137.958 368.074C138.416 368.419 138.81 368.702 138.834 368.702C138.857 368.702 143.218 366.333 148.525 363.437H148.525ZM193.818 364.533C194.907 363.173 195.308 361.856 195.105 360.308C195.045 359.853 194.987 359.405 194.976 359.314C194.892 358.627 195.346 356.144 195.824 354.676C196.53 352.505 197.321 351.118 198.982 349.138L199.69 348.295L198.988 348.157C197.817 347.928 196.612 347.521 195.721 347.055C194.137 346.226 193.416 345.515 192.21 343.591C190.842 341.409 189.699 340.232 188.167 339.428C187.057 338.845 186.05 338.569 184.742 338.488L183.7 338.423L182.992 339.122C182.602 339.507 179.454 343.275 175.996 347.497L169.708 355.173L170.05 355.835C170.485 356.678 170.624 357.15 170.71 358.071L170.78 358.811L181.824 362.037C187.899 363.812 192.948 365.267 193.045 365.271C193.141 365.274 193.489 364.942 193.818 364.532L193.818 364.533ZM166.195 362.276C167.484 361.836 168.489 360.801 168.863 359.526C169.104 358.706 169.11 358.316 168.895 357.55C167.926 354.092 163.03 353.316 160.908 356.284C159.518 358.23 160.216 360.867 162.428 362.021C163.62 362.643 164.873 362.728 166.195 362.276H166.195ZM161.654 353.357C162.645 352.83 163.373 352.66 164.632 352.659C165.599 352.659 165.909 352.705 166.612 352.954C167.07 353.117 167.665 353.393 167.934 353.568L168.423 353.885L175.124 345.707C180.735 338.859 181.82 337.482 181.795 337.239C181.749 336.782 181.09 335.453 180.629 334.889C179.469 333.469 177.263 332.129 173.854 330.774C173.137 330.489 172.176 330.044 171.718 329.786C169.511 328.541 167.288 326.403 165.961 324.25C165.699 323.824 165.451 323.436 165.411 323.387C165.372 323.338 165.068 323.805 164.736 324.425C164.021 325.763 163.056 326.852 162.13 327.366C160.758 328.127 158.412 328.841 156.42 329.105C152.096 329.677 149.472 331.034 147.877 333.522C147.645 333.884 147.137 334.897 146.749 335.774L146.043 337.369L146.325 337.725C146.48 337.921 149.649 341.76 153.368 346.255L160.129 354.43L160.601 354.048C160.861 353.838 161.335 353.527 161.654 353.357V353.357ZM185.471 311.766C182.495 309.868 181.288 309.396 179.428 309.404C178.734 309.405 178.142 309.479 177.657 309.62C174.816 310.448 174.874 310.438 172.707 310.441C170.874 310.443 170.595 310.419 169.852 310.185C168.364 309.717 167.018 308.968 165.891 307.979C165.382 307.532 165.377 307.531 165.11 307.725C164.05 308.498 162.454 309.217 161.263 309.46C159.857 309.747 158.354 309.58 157.026 308.99C155.31 308.227 151.756 308.157 149.222 308.836C147.582 309.275 146.053 309.999 144.21 311.209C143.35 311.774 142.637 312.227 142.624 312.217C142.611 312.208 142.697 311.307 142.815 310.217C143.11 307.503 143.107 305.608 142.804 304.591C142.456 303.415 142.153 302.953 140.672 301.333C138.817 299.305 137.781 297.609 137.333 295.866C137.007 294.597 137.012 292.442 137.344 290.995C137.39 290.798 137.158 290.582 135.854 289.604C133.699 287.988 132.78 287.182 132.057 286.271C130.639 284.485 130.187 282.918 130.425 280.599C130.523 279.638 130.513 279.29 130.358 278.285C129.818 274.77 128.246 271.956 125.45 269.499L124.567 268.723L124.567 268.103L124.567 267.483L126.442 267.176C129.459 266.682 131.051 266.079 132.199 264.995C132.533 264.679 133.143 263.866 133.665 263.042C134.745 261.336 135.654 260.261 136.769 259.37C138.452 258.026 140.361 257.32 142.692 257.18L143.991 257.102L144.652 255.566C145.742 253.033 146.699 251.652 148.16 250.503C149.983 249.068 152.382 248.189 155.739 247.725C157.861 247.432 160.082 246.722 161.15 245.995C161.441 245.798 161.856 245.383 162.073 245.074C162.397 244.613 163.865 241.977 164.831 240.123C164.95 239.895 165.072 239.709 165.102 239.709C165.132 239.709 165.432 240.381 165.769 241.204C166.599 243.237 167.379 244.47 168.734 245.893C170.505 247.751 171.805 248.616 174.372 249.643C179.234 251.588 181.859 253.684 182.811 256.382L183.034 257.013L184.303 257.084C187.995 257.288 190.702 259.047 193.072 262.779C194.907 265.668 196.104 266.354 200.61 267.097C201.718 267.279 202.644 267.428 202.668 267.428C202.693 267.428 202.711 267.615 202.708 267.842C202.703 268.226 202.64 268.31 201.86 268.974C199.243 271.202 197.941 273.057 197.019 275.877C196.524 277.393 196.212 279.399 196.364 280.094C196.503 280.729 196.477 282.541 196.32 283.167C195.939 284.682 195.195 285.852 193.655 287.354L193.099 287.897L193.38 289.397C194.029 292.846 193.966 294.624 193.133 296.424C192.683 297.395 191.742 298.577 190.969 299.141C190.109 299.768 188.597 302.228 187.926 304.094C187.113 306.35 187.001 308.986 187.56 312.681C187.59 312.878 187.577 313.038 187.531 313.035C187.486 313.033 186.558 312.461 185.469 311.767L185.471 311.766ZM185.728 305.419C185.991 304.163 186.334 303.162 186.953 301.844C187.796 300.051 188.944 298.396 189.826 297.705C191.474 296.412 192.218 294.668 192.047 292.505C191.933 291.073 191.23 287.411 191.049 287.312C190.961 287.264 186.248 285.874 180.574 284.223C174.901 282.573 170.182 281.198 170.088 281.169C169.969 281.132 169.831 281.274 169.63 281.644C169.279 282.286 168.646 283.041 168.049 283.529C167.547 283.938 166.393 284.546 166.117 284.546C165.873 284.546 165.865 284.079 166.313 296.028C166.687 306.009 166.7 306.244 166.914 306.44C167.412 306.897 168.395 307.562 168.994 307.848C170.34 308.49 170.732 308.564 172.759 308.562C174.564 308.56 174.683 308.545 175.885 308.191C177.875 307.603 178.316 307.522 179.532 307.522C181.227 307.522 183.015 308.068 184.742 309.113L185.367 309.491L185.438 307.98C185.477 307.134 185.605 306.007 185.728 305.419H185.728ZM147.196 307.515C148.962 306.817 150.786 306.504 153.067 306.506C154.953 306.507 156.466 306.736 157.509 307.175C159.072 307.835 160.316 307.89 161.791 307.366C162.6 307.078 164.103 306.253 164.609 305.82L164.899 305.571L164.529 295.583C164.325 290.09 164.135 285.439 164.106 285.249C164.057 284.919 164.026 284.899 163.458 284.827C162.193 284.666 161.12 284.212 160.157 283.431C159.456 282.862 158.988 282.242 158.541 281.29L158.172 280.502L148.775 285.644C143.607 288.472 139.341 290.827 139.295 290.876C138.908 291.297 138.725 293.798 138.99 295.059C139.334 296.699 140.369 298.399 142.136 300.229C143.347 301.483 144.021 302.529 144.4 303.744C144.741 304.837 144.911 306.439 144.819 307.696L144.752 308.632L145.575 308.231C146.028 308.01 146.757 307.688 147.196 307.515H147.196ZM148.313 283.784C154.97 280.148 157.962 278.459 158.017 278.306C158.061 278.185 158.202 277.706 158.331 277.243L158.566 276.4L153.376 270.119C147.101 262.525 147.538 263.033 145.368 260.829L143.601 259.035L143.02 259.036C141.505 259.042 139.804 259.546 138.507 260.373C137.425 261.064 136.139 262.475 135.15 264.059C134.695 264.788 134.109 265.627 133.848 265.923C132.666 267.265 130.867 268.211 128.562 268.703L127.606 268.907L128.25 269.672C130.297 272.103 131.345 274.212 131.965 277.146C132.131 277.933 132.353 279.715 132.309 279.908C132.302 279.939 132.246 280.361 132.184 280.847C131.923 282.886 132.682 284.621 134.534 286.224C135.948 287.446 138.332 289.174 138.513 289.106C138.609 289.07 143.019 286.675 148.313 283.783V283.784ZM193.319 285.047C193.675 284.644 194.099 284.007 194.294 283.584C194.662 282.785 194.683 282.505 194.589 279.632C194.557 278.654 194.83 276.955 195.237 275.601C195.961 273.191 197.056 271.247 198.723 269.412L199.278 268.801L198.314 268.595C195.95 268.09 194.222 267.173 192.969 265.757C192.68 265.431 192.079 264.582 191.634 263.87C189.617 260.65 187.378 259.159 184.259 258.957L183.218 258.89L182.588 259.542C182.242 259.901 179.19 263.574 175.806 267.704C172.421 271.835 169.563 275.321 169.453 275.451C169.255 275.686 169.256 275.693 169.532 276.157C169.923 276.814 170.208 277.74 170.278 278.583L170.338 279.3L181.343 282.518C187.396 284.288 192.425 285.742 192.518 285.749C192.612 285.754 192.972 285.44 193.319 285.047H193.319ZM165.464 282.868C167.204 282.403 168.575 280.708 168.567 279.03C168.556 276.715 166.644 274.938 164.163 274.938C161.369 274.938 159.233 277.322 159.827 279.78C160.027 280.607 160.336 281.141 160.978 281.767C162.129 282.89 163.824 283.306 165.464 282.868H165.464ZM161.209 273.845C162.253 273.31 162.967 273.14 164.163 273.139C165.412 273.138 166.29 273.369 167.356 273.982L167.996 274.349L174.676 266.199C178.715 261.27 181.356 257.961 181.356 257.828C181.356 257.389 180.928 256.423 180.411 255.696C179.317 254.156 176.924 252.615 173.697 251.372C171.309 250.452 169.557 249.325 167.821 247.591C166.811 246.584 165.557 244.965 165.184 244.191C164.982 243.771 164.965 243.761 164.823 243.965C164.741 244.084 164.505 244.503 164.298 244.898C163.253 246.888 162.211 247.803 160.141 248.548C158.814 249.025 157.379 249.394 156.297 249.536C153.869 249.855 151.616 250.505 150.313 251.263C148.405 252.373 147.45 253.576 146.242 256.393C145.721 257.609 145.641 257.873 145.749 258.031C145.819 258.134 148.989 261.979 152.792 266.576L159.706 274.933L160.153 274.545C160.398 274.332 160.874 274.016 161.209 273.845ZM185.779 234.171C182.41 232.053 181.328 231.613 179.48 231.609C178.513 231.607 178.21 231.658 176.868 232.057C174.958 232.624 173.679 232.799 172.043 232.718C170.629 232.647 169.52 232.38 168.383 231.836C167.495 231.411 166.397 230.684 165.845 230.155L165.435 229.763L164.31 230.426C161.702 231.964 159.558 232.211 157.13 231.254C154.552 230.238 150.727 230.352 147.7 231.535C146.6 231.965 145.71 232.451 144.064 233.52C143.302 234.016 142.661 234.403 142.64 234.381C142.619 234.358 142.698 233.473 142.816 232.413C143.066 230.155 143.106 228.085 142.916 227.228C142.63 225.935 142.133 225.099 140.791 223.659C138.856 221.581 137.944 220.127 137.385 218.227C137.094 217.241 136.996 215.348 137.177 214.196C137.248 213.74 137.313 213.272 137.32 213.156C137.329 213.002 136.865 212.591 135.614 211.644C133.607 210.126 132.648 209.257 131.883 208.26C130.763 206.8 130.35 205.528 130.404 203.704C130.488 200.899 130.417 200.122 129.919 198.458C129.115 195.767 127.544 193.448 125.204 191.5L124.569 190.971V190.325C124.569 189.969 124.612 189.678 124.664 189.678C124.716 189.678 125.525 189.553 126.462 189.4C129.523 188.899 131.189 188.244 132.308 187.1C132.615 186.787 133.159 186.064 133.518 185.494C134.582 183.801 134.918 183.362 135.882 182.406C137.831 180.474 139.871 179.573 142.633 179.424L143.974 179.352L144.676 177.735C146.111 174.428 147.399 172.93 149.941 171.615C151.562 170.776 153.46 170.24 155.984 169.909C158.104 169.631 160.607 168.743 161.498 167.953C161.981 167.524 162.379 166.9 163.556 164.719C164.162 163.595 164.746 162.514 164.854 162.317C164.961 162.12 165.075 161.959 165.108 161.958C165.14 161.958 165.392 162.517 165.668 163.2C166.575 165.449 167.353 166.682 168.864 168.264C170.472 169.949 171.904 170.887 174.309 171.835C179.097 173.722 181.902 175.958 182.818 178.621L183.041 179.268L184.308 179.324C187.977 179.486 190.778 181.32 193.172 185.127C193.713 185.988 194.315 186.798 194.628 187.089C195.819 188.194 197.466 188.815 200.475 189.293C202.894 189.677 202.715 189.616 202.715 190.058C202.715 190.4 202.616 190.521 201.586 191.431C199.754 193.049 198.73 194.321 197.824 196.101C196.981 197.758 196.328 200.256 196.374 201.648C196.385 202.02 196.397 202.995 196.397 203.815C196.399 205.173 196.374 205.373 196.119 206.063C195.711 207.168 195.019 208.2 194.002 209.22L193.106 210.119L193.381 211.623C193.946 214.726 193.962 216.293 193.444 217.89C193.009 219.229 192.615 219.764 190.555 221.816C189.948 222.422 189.014 223.819 188.504 224.885C187.302 227.399 186.961 230.015 187.387 233.46C187.506 234.428 187.591 235.233 187.575 235.25C187.559 235.267 186.751 234.782 185.779 234.171L185.779 234.171ZM185.678 227.835C186.276 224.796 188.186 221.188 189.893 219.871C191.567 218.58 192.27 216.711 191.999 214.268C191.84 212.825 191.255 209.756 191.109 209.597C191.017 209.496 170.227 203.373 169.977 203.373C169.94 203.373 169.741 203.666 169.535 204.025C169.007 204.947 168.037 205.858 167.039 206.369C166.581 206.604 166.145 206.796 166.07 206.796C165.88 206.796 165.881 206.848 166.31 218.282C166.64 227.087 166.711 228.414 166.859 228.594C167.346 229.187 168.988 230.149 170.207 230.555C170.907 230.789 171.173 230.815 172.759 230.806C174.416 230.797 174.611 230.773 175.781 230.438C176.469 230.24 177.313 230.001 177.657 229.906C178.57 229.654 180.477 229.664 181.46 229.926C182.373 230.169 183.609 230.702 184.638 231.297L185.367 231.718L185.435 230.218C185.473 229.393 185.582 228.321 185.678 227.835L185.678 227.835ZM147.1 229.761C150.356 228.487 155.024 228.339 157.612 229.428C159.625 230.274 161.232 230.094 163.475 228.773C163.997 228.465 164.531 228.127 164.661 228.022L164.898 227.83L164.529 217.838C164.327 212.342 164.137 207.69 164.107 207.499C164.051 207.133 163.862 207.022 163.294 207.019C162.842 207.017 161.897 206.699 161.131 206.292C159.946 205.662 158.775 204.333 158.384 203.171C158.309 202.948 158.188 202.78 158.116 202.798C157.854 202.864 139.516 212.91 139.338 213.085C139.086 213.333 138.848 214.615 138.846 215.735C138.84 218.002 139.74 219.892 141.91 222.18C143.087 223.421 143.628 224.127 144.002 224.908C144.634 226.232 144.936 228.061 144.818 229.861L144.751 230.892L145.495 230.495C145.904 230.277 146.626 229.947 147.1 229.761H147.1ZM151.295 204.38L157.964 200.734L158.129 200.093C158.22 199.74 158.365 199.277 158.452 199.064L158.61 198.676L152.998 191.885C148.779 186.782 146.918 184.618 145.504 183.174L143.624 181.252L142.51 181.321C139.503 181.504 137.238 182.982 135.344 185.997C134.9 186.704 134.311 187.57 134.035 187.921C132.878 189.395 130.878 190.449 128.182 191.007L127.575 191.133L128.187 191.814C130.119 193.966 131.379 196.475 131.955 199.319C132.159 200.326 132.348 201.839 132.309 202.158C132.296 202.249 132.238 202.704 132.176 203.169C132.042 204.182 132.206 205.215 132.649 206.148C133.091 207.076 134.666 208.643 136.656 210.133L138.375 211.42L141.501 209.723C143.22 208.79 147.628 206.385 151.295 204.38H151.295ZM193.314 207.295C193.655 206.9 194.088 206.246 194.276 205.84C194.567 205.214 194.627 204.947 194.669 204.094C194.696 203.539 194.667 202.83 194.604 202.517C194.406 201.541 194.74 199.358 195.392 197.362C196.13 195.103 197.093 193.447 198.683 191.704L199.303 191.025L198.691 190.898C195.491 190.235 193.309 188.89 192.117 186.846C191.454 185.71 190.312 184.17 189.684 183.567C188.094 182.037 186.04 181.174 183.989 181.174H183.175L182.223 182.196C181.7 182.758 178.571 186.517 175.27 190.549L169.269 197.88L169.569 198.445C169.957 199.176 170.199 199.98 170.29 200.837L170.363 201.523L181.407 204.755C187.482 206.532 192.507 207.992 192.573 207.999C192.64 208.005 192.973 207.689 193.314 207.295L193.314 207.295ZM165.642 205.032C167.423 204.449 168.559 202.937 168.567 201.139C168.576 198.741 166.072 196.809 163.46 197.199C162.181 197.391 160.876 198.248 160.239 199.316C158.995 201.4 160.111 204.101 162.585 204.995C163.492 205.322 164.71 205.337 165.642 205.032V205.032ZM160.21 196.697C161.485 195.727 162.528 195.378 164.163 195.378C165.523 195.378 166.189 195.544 167.308 196.161L168.003 196.544L168.36 196.121C168.556 195.888 171.565 192.221 175.046 187.973L181.376 180.248L181.309 179.807C181.218 179.199 180.706 178.222 180.109 177.511C179.012 176.206 176.591 174.734 173.593 173.549C171.779 172.831 171.202 172.527 169.931 171.613C168.133 170.321 166.618 168.716 165.483 166.9C165.188 166.429 164.923 166.044 164.894 166.045C164.865 166.045 164.677 166.377 164.476 166.782C163.631 168.486 162.722 169.514 161.473 170.179C160.192 170.86 157.852 171.565 156.14 171.786C151.613 172.371 148.987 173.74 147.334 176.38C147.122 176.719 146.646 177.69 146.277 178.538L145.606 180.078L145.95 180.51C146.792 181.567 159.635 197.073 159.671 197.075C159.692 197.077 159.935 196.906 160.21 196.697H160.21ZM185.836 157.299C183.18 155.611 182.334 155.185 180.939 154.84C179.66 154.523 178.66 154.618 176.458 155.267C174.565 155.825 172.712 156.001 171.217 155.766C169.165 155.443 167.456 154.649 165.897 153.295L165.402 152.865L165.017 153.111C164.047 153.729 162.47 154.469 161.665 154.683C160.452 155.006 158.757 154.934 157.561 154.511C157.109 154.351 156.645 154.166 156.528 154.1C155.845 153.713 152.378 153.553 150.67 153.831C148.247 154.225 146.82 154.823 144.108 156.582C143.307 157.102 142.641 157.515 142.628 157.502C142.616 157.487 142.701 156.584 142.818 155.493C143.087 152.998 143.105 151.109 142.87 150.153C142.563 148.905 142.131 148.215 140.616 146.551C138.729 144.478 137.798 142.942 137.324 141.122C137.008 139.91 137.017 137.945 137.344 136.334C137.394 136.088 137.307 135.987 136.585 135.46C134.744 134.112 133.021 132.676 132.376 131.951C130.77 130.147 130.155 128.288 130.414 126.027C130.545 124.888 130.484 123.948 130.198 122.679C129.742 120.657 128.876 118.729 127.755 117.24C127.161 116.45 125.834 115.087 125.06 114.468C124.584 114.088 124.576 114.072 124.572 113.449C124.569 112.712 124.361 112.817 126.497 112.474C130.665 111.804 131.966 111.054 133.685 108.331C135.185 105.953 136.517 104.623 138.375 103.647C139.887 102.853 141.616 102.43 143.349 102.43H143.952L144.77 100.636C145.719 98.5515 146.181 97.8011 147.152 96.7624C149.036 94.7479 151.861 93.5208 155.724 93.0393C157.633 92.8012 160.262 91.9558 161.185 91.2828C161.748 90.8716 162.224 90.2604 162.78 89.2329C164.534 85.9925 165.04 85.0764 165.093 85.0417C165.126 85.0196 165.409 85.6308 165.722 86.3995C166.624 88.6196 167.346 89.7634 168.816 91.3043C170.406 92.97 172.067 94.0769 174.166 94.8688C178.928 96.6653 181.893 99.0214 182.861 101.779L183.039 102.288L184.124 102.358C188.063 102.613 190.745 104.35 193.164 108.209C194.939 111.041 196.179 111.708 201.127 112.489L202.716 112.741V113.142C202.716 113.517 202.646 113.603 201.632 114.481C198.719 117.004 197.124 119.731 196.522 123.221C196.339 124.279 196.326 124.677 196.421 126.381C196.501 127.805 196.397 128.491 195.94 129.564C195.501 130.595 195.067 131.214 194.037 132.276L193.101 133.241L193.33 134.484C193.455 135.169 193.599 135.952 193.649 136.225C193.828 137.2 193.879 138.606 193.766 139.456C193.483 141.583 192.692 143.01 191.017 144.413C189.719 145.5 188.293 148.005 187.661 150.307C187.138 152.212 187.07 153.822 187.396 156.602C187.509 157.567 187.591 158.365 187.578 158.374C187.567 158.383 186.781 157.9 185.836 157.299L185.836 157.299ZM185.451 153.205C185.542 150.978 185.996 149.124 186.934 147.15C187.7 145.538 189.022 143.594 189.669 143.128C191.632 141.714 192.336 139.777 191.937 136.888C191.769 135.672 191.211 132.719 191.134 132.637C191.114 132.616 186.338 131.209 180.522 129.51C171.376 126.84 169.932 126.445 169.842 126.592C169.068 127.849 168.807 128.187 168.227 128.68C167.652 129.17 166.898 129.591 166.117 129.86C165.871 129.945 165.869 129.804 166.299 141.085C166.5 146.339 166.664 150.845 166.664 151.098C166.664 151.538 166.696 151.585 167.367 152.121C169.197 153.584 171.562 154.229 173.906 153.905C174.421 153.834 175.383 153.622 176.042 153.436C177.863 152.92 178.513 152.8 179.48 152.797C181.022 152.794 182.392 153.186 184.117 154.125C184.747 154.468 185.291 154.756 185.325 154.764C185.359 154.773 185.416 154.071 185.451 153.205V153.205ZM145.513 153.564C146.314 153.135 147.64 152.623 148.69 152.335C151.581 151.544 155.522 151.633 157.65 152.538C158.814 153.032 160.14 153.151 161.246 152.861C162.022 152.658 164.054 151.618 164.561 151.164L164.903 150.859L164.53 140.864C164.326 135.367 164.134 130.707 164.104 130.51C164.053 130.173 164.023 130.151 163.627 130.151C162.68 130.151 161.221 129.581 160.279 128.843C159.513 128.244 159.013 127.602 158.566 126.644C158.361 126.204 158.176 125.844 158.156 125.844C158.135 125.844 153.877 128.164 148.693 130.999L139.268 136.154L139.101 136.659C139.007 136.944 138.908 137.716 138.875 138.434C138.755 141.03 139.476 142.614 142.069 145.447C143.226 146.712 143.565 147.158 143.928 147.9C144.619 149.309 144.803 150.213 144.809 152.211C144.813 153.138 144.831 153.896 144.853 153.896C144.875 153.896 145.172 153.747 145.512 153.564H145.513ZM142.184 132.44C156.912 124.437 158.006 123.819 158.072 123.469C158.106 123.287 158.23 122.826 158.345 122.444C158.524 121.856 158.535 121.721 158.416 121.563C158.339 121.461 155.811 118.394 152.799 114.748C148.748 109.846 146.834 107.62 145.453 106.206L143.585 104.294L142.61 104.364C140.128 104.542 138.075 105.605 136.437 107.56C136.116 107.944 135.491 108.833 135.049 109.537C133.467 112.056 131.778 113.254 128.809 113.967C128.418 114.06 127.985 114.137 127.845 114.137C127.494 114.137 127.524 114.245 128.018 114.75C128.667 115.413 129.594 116.644 130.094 117.506C131.637 120.166 132.539 123.802 132.203 126.01C131.843 128.376 132.716 130.095 135.333 132.173C137.162 133.626 138.262 134.449 138.375 134.451C138.432 134.452 140.146 133.547 142.184 132.44L142.184 132.44ZM193.332 130.399C193.625 130.05 194.036 129.4 194.247 128.954C194.58 128.248 194.635 128.018 194.673 127.176C194.697 126.644 194.666 125.956 194.603 125.648C194.416 124.725 194.778 122.242 195.355 120.487C196.067 118.323 196.953 116.807 198.747 114.682L199.266 114.068L198.464 113.926C195.534 113.406 193.145 111.833 191.908 109.609C191.09 108.137 189.753 106.577 188.636 105.79C187.319 104.862 185.95 104.375 184.28 104.241L183.354 104.167L182.761 104.707C182.434 105.004 179.7 108.253 176.685 111.928C173.671 115.603 170.768 119.141 170.234 119.789L169.264 120.968L169.626 121.666C170.033 122.451 170.311 123.455 170.311 124.138V124.595L172.473 125.226C173.662 125.573 178.597 127.017 183.44 128.434C188.282 129.852 192.369 131.017 192.522 131.023C192.736 131.033 192.923 130.887 193.332 130.399H193.332ZM165.235 128.221C167.393 127.737 168.889 125.698 168.535 123.722C168.035 120.923 164.8 119.399 162.12 120.7C160.891 121.296 160.131 122.244 159.824 123.562C159.665 124.246 159.665 124.35 159.826 125.043C160.199 126.652 161.406 127.839 163.058 128.22C163.896 128.413 164.38 128.413 165.235 128.221L165.235 128.221ZM161.209 119.123C162.509 118.432 164.47 118.242 165.92 118.668C166.703 118.898 167.64 119.346 167.757 119.547C167.793 119.609 167.862 119.659 167.91 119.659C167.959 119.659 170.992 116.003 174.651 111.535C182.159 102.368 181.583 103.24 180.983 101.936C180.048 99.909 177.404 98.0744 173.001 96.3978C170.021 95.2631 166.802 92.4191 165.166 89.4752L164.933 89.055L164.272 90.2483C163.165 92.2477 162.144 93.1322 160.076 93.8812C158.931 94.2959 157.012 94.7836 156.193 94.8678C152.99 95.1973 150.239 96.2846 148.656 97.8472C147.697 98.7936 147.12 99.7145 146.256 101.676L145.593 103.183L148.916 107.197C150.744 109.404 153.916 113.236 155.965 115.711L159.691 120.212L160.234 119.782C160.533 119.546 160.972 119.249 161.209 119.123L161.209 119.123ZM185.592 77.4617C184.455 76.7455 183.128 75.9835 182.643 75.7683C180.84 74.9681 179.307 74.8608 177.5 75.4083C175.479 76.021 174.212 76.2505 172.832 76.254C170.292 76.2595 167.837 75.3171 165.925 73.5997L165.55 73.2631L164.414 73.9341C162.562 75.0279 161 75.4306 159.313 75.2494C158.512 75.1635 157.931 75.0013 156.661 74.5099C155.546 74.0781 152.696 73.9248 150.983 74.2045C148.371 74.6309 146.938 75.2242 144.21 77.0084C143.061 77.7597 142.851 77.8631 142.823 77.6885C142.805 77.5753 142.887 76.5481 143.005 75.4061C143.259 72.9601 143.273 71.8445 143.063 70.7894C142.791 69.4241 142.399 68.7606 140.882 67.0999C139.37 65.4455 138.767 64.6069 138.133 63.2795C137.324 61.5849 137.024 59.6898 137.281 57.9089C137.355 57.4004 137.453 56.8759 137.499 56.7432C137.575 56.5262 137.414 56.3742 135.895 55.231C132.916 52.9876 131.893 51.9171 131.133 50.2475C130.597 49.068 130.461 48.266 130.558 46.8499C130.664 45.3152 130.639 44.5831 130.45 43.5843C130.102 41.746 129.425 39.9987 128.476 38.4843C127.859 37.5009 126.423 35.8963 125.365 35.0068L124.577 34.3442L124.573 33.7795L124.569 33.2148L125.377 33.082C129.013 32.4836 129.914 32.2475 131.136 31.5716C132.136 31.0183 132.792 30.3487 133.638 29.017C135.119 26.6856 136.013 25.6811 137.542 24.6294C139.174 23.5063 140.564 23.0473 142.633 22.9487L144.078 22.8799L144.832 21.2046C145.708 19.2593 146.151 18.4881 146.949 17.5197C148.784 15.2939 152.077 13.8454 156.401 13.3623C157.568 13.232 159.847 12.5081 160.941 11.9207C161.799 11.4601 162.293 10.8102 163.506 8.5482L164.632 6.44922L165.194 6.48143L165.755 6.51365L166.153 7.48746C166.773 9.00757 167.59 10.2246 168.948 11.6491C170.637 13.4219 172.045 14.3851 174.114 15.1839C177.676 16.559 179.831 17.8705 181.433 19.6397C182.085 20.359 182.37 20.7811 182.689 21.494C182.916 22.0017 183.127 22.4971 183.157 22.595C183.204 22.7415 183.44 22.783 184.499 22.8297C185.965 22.8943 187.099 23.1651 188.256 23.727C190.303 24.7201 191.692 26.0652 193.293 28.6025C195.027 31.3498 196.343 32.086 200.814 32.8069L202.716 33.1136V33.5848C202.716 34.0488 202.699 34.0705 201.628 35.0041C200.295 36.1665 199.448 37.1326 198.635 38.4206C197.234 40.6396 196.508 43.0427 196.564 45.2781C196.645 48.5229 196.58 48.9924 195.858 50.4688C195.583 51.0325 195.178 51.5666 194.365 52.4407L193.25 53.6396L193.556 55.257C194.402 59.7255 193.88 62.278 191.709 64.2888C190.215 65.6733 189.467 66.6861 188.625 68.4706C187.43 71.0009 187.114 73.3079 187.502 76.6767C187.63 77.7886 187.718 78.7131 187.697 78.7312C187.676 78.7494 186.729 78.1781 185.592 77.462L185.592 77.4617ZM185.523 74.4034C185.523 71.6185 186.352 68.6184 187.789 66.2061C188.415 65.1543 189.419 63.8053 189.718 63.6146C190.368 63.2004 191.235 62.2166 191.594 61.4864C192.401 59.8431 192.39 58.4249 191.538 54.1715L191.307 53.0152L180.991 50.0052C175.318 48.3496 170.529 46.9647 170.35 46.9274C170.044 46.8637 170.005 46.895 169.7 47.4492C169.107 48.5259 168.284 49.2979 167.073 49.913C166.651 50.1274 166.246 50.3027 166.172 50.3027C166.099 50.3027 166.038 50.3401 166.037 50.3856C166.024 50.7752 166.787 71.0337 166.83 71.4659C166.882 72.0081 166.912 72.0535 167.53 72.545C168.334 73.1842 169.429 73.7491 170.488 74.0712C171.161 74.2758 171.562 74.3186 172.812 74.3197C174.43 74.321 174.982 74.2258 177.136 73.5726C178.142 73.2676 178.441 73.2247 179.585 73.2221C181.413 73.2185 182.953 73.6767 184.742 74.7592C185.086 74.9672 185.403 75.1406 185.446 75.1446C185.489 75.1482 185.524 74.815 185.524 74.4034H185.523ZM145.727 73.934C147.181 73.1555 149.192 72.5468 151.225 72.269C153.057 72.0187 156.445 72.3156 157.502 72.8189C158.85 73.4613 160.46 73.5767 161.797 73.1265C162.551 72.8726 164.213 71.975 164.785 71.5121L165.043 71.3041L164.656 61.0147C164.443 55.3556 164.242 50.68 164.21 50.6245C164.178 50.569 163.936 50.5236 163.674 50.5236C163.138 50.5236 161.928 50.172 161.302 49.8343C160.676 49.4966 159.843 48.7963 159.426 48.2563C159.018 47.7293 158.433 46.6176 158.433 46.3709C158.433 46.286 158.407 46.2164 158.374 46.2164C158.29 46.2164 139.734 56.364 139.53 56.5219C139.033 56.9073 138.821 59.7684 139.193 61.0706C139.436 61.9223 139.994 63.087 140.535 63.8741C140.77 64.2152 141.577 65.1652 142.329 65.9852C143.505 67.2679 143.756 67.6073 144.129 68.4149C144.797 69.8604 144.924 70.5111 144.932 72.5286C144.936 73.4852 144.976 74.2679 145.021 74.268C145.065 74.2681 145.383 74.1177 145.726 73.9339L145.727 73.934ZM148.395 49.5306C153.658 46.6572 158.022 44.2579 158.094 44.1987C158.166 44.1396 158.224 43.9968 158.224 43.8816C158.224 43.7664 158.338 43.327 158.477 42.9051L158.73 42.1381L153.18 35.4249C149.128 30.5244 147.115 28.1824 145.725 26.7514L143.82 24.7911H142.995C139.932 24.7911 137.428 26.3967 135.353 29.6926C134.899 30.4143 134.32 31.2489 134.067 31.5473C132.935 32.8817 130.945 33.9541 128.789 34.3917C127.526 34.6481 127.576 34.5401 128.337 35.3724C129.948 37.1326 130.912 38.7996 131.667 41.1336C132.111 42.5051 132.416 44.3297 132.388 45.4434C132.309 48.5545 132.308 48.5373 132.653 49.3088C133.281 50.7124 134.103 51.5616 136.917 53.7133C137.911 54.4742 138.447 54.8172 138.601 54.7919C138.724 54.7715 143.132 52.4039 148.395 49.5306H148.395ZM193.445 50.7792C194.605 49.4647 195.037 48.0532 194.799 46.3574C194.651 45.2987 194.715 44.203 195.01 42.7928C195.627 39.8364 196.866 37.3468 198.785 35.2109C199.12 34.8373 199.357 34.5082 199.31 34.4796C199.263 34.451 198.993 34.3917 198.709 34.3482C197.942 34.23 196.51 33.7716 195.682 33.3791C194.126 32.6405 193.017 31.572 191.841 29.676C190.143 26.9389 188.373 25.4947 185.976 24.8914C185.418 24.7507 184.722 24.6627 184.181 24.6643L183.298 24.6661L182.488 25.529C182.042 26.0035 178.914 29.7661 175.536 33.8903L169.394 41.389L169.709 41.9318C170.125 42.6482 170.415 43.6639 170.415 44.4034C170.415 44.7321 170.45 45.0039 170.493 45.0074C170.536 45.011 175.542 46.471 181.616 48.252C187.691 50.0331 192.691 51.4962 192.727 51.5036C192.764 51.5108 193.087 51.1847 193.445 50.7786L193.445 50.7792ZM165.549 48.5825C166.373 48.356 166.811 48.1119 167.429 47.5347C169.513 45.5872 169.007 42.4237 166.404 41.1248C164.144 39.9977 161.293 40.9096 160.249 43.0932C159.983 43.6502 159.944 43.8513 159.944 44.6703C159.944 45.4697 159.986 45.7004 160.229 46.2243C161.128 48.1662 163.399 49.1728 165.549 48.5825V48.5825ZM160.349 40.2017C162.185 38.6072 165.368 38.3856 167.564 39.6994C167.885 39.8917 168.184 40.0079 168.228 39.9576C168.271 39.9074 171.291 36.2233 174.938 31.7709L181.569 23.6756L181.452 23.2136C181.035 21.5722 179.579 20.0076 177.188 18.632C176.317 18.131 174.523 17.3074 173.645 17.0059C172.625 16.6555 171.141 15.8641 170.071 15.1004C168.304 13.8398 166.286 11.6337 165.367 9.95968L165.076 9.43025L164.437 10.613C163.621 12.1257 162.837 12.985 161.715 13.5991C160.445 14.2937 157.947 15.0871 156.557 15.2368C154.38 15.4713 152.135 16.0863 150.741 16.8301C148.771 17.8811 147.801 19.0206 146.552 21.7514C145.907 23.1607 145.766 23.5543 145.862 23.6846C146.2 24.1459 159.813 40.5841 159.857 40.5841C159.885 40.5841 160.107 40.4121 160.349 40.2017H160.349Z" fill="#8D0000"/>
</g>
<defs>
<clipPath id="clip0_1_3981">
<rect width="600" height="400" fill="white"/>
</clipPath>
</defs>
</svg>
