<svg width="600" height="400" viewBox="0 0 600 400" fill="none" xmlns="http://www.w3.org/2000/svg" xmlns:cgf="https://coding.garden/flags"><metadata id="cgf-metadata">

<cgf:flag>
  <cgf:name>Landgraaf</cgf:name>
  <cgf:route>nl/li/landgraaf</cgf:route>
  <cgf:aspect-ratio>1.5</cgf:aspect-ratio>
</cgf:flag>

</metadata><g clip-path="url(#clip0_1_4022)">
<path d="M600 0H0V400H600V0Z" fill="#F8E000"/>
<path d="M150 0H0V400H150V0Z" fill="#0085CF"/>
<path d="M600 0H450V400H600V0Z" fill="#FA4139"/>
<path d="M307.879 191.035H292.323V331.035H307.879V191.035Z" fill="black"/>
<path d="M381.952 102.72C353.871 113.029 331.455 144.725 331.455 174.124C331.455 185.835 332.862 186.044 350.914 177.023C375.056 164.96 390.934 141.086 393.146 113.524C393.773 105.715 393.399 99.3967 392.315 99.4828C391.231 99.5689 386.568 101.026 381.952 102.72Z" fill="#2FB134"/>
<path d="M292.866 163.817C285.117 150.593 280.699 135.584 280.699 122.48C280.699 108.981 287.988 85.5974 294.843 77.1087C299.416 71.4456 300.677 70.9252 303.716 73.4473C305.664 75.0642 309.991 82.0348 313.331 88.9374C318.537 99.6953 319.418 104.351 319.496 121.533C319.581 140.112 319.019 142.706 311.81 157.009C307.532 165.496 302.858 172.784 301.423 173.204C299.989 173.624 296.138 169.4 292.866 163.817Z" fill="#2FB134"/>
<path d="M257.047 180.607C228.966 170.298 206.55 138.602 206.55 109.203C206.55 97.4925 207.957 97.2829 226.009 106.304C250.15 118.367 266.028 142.241 268.241 169.803C268.868 177.612 268.494 183.93 267.41 183.844C266.326 183.758 261.662 182.301 257.047 180.607Z" fill="#2FB134"/>
</g>
<defs>
<clipPath id="clip0_1_4022">
<rect width="600" height="400" fill="white"/>
</clipPath>
</defs>
</svg>
