<svg width="600" height="400" viewBox="0 0 600 400" fill="none" xmlns="http://www.w3.org/2000/svg" xmlns:cgf="https://coding.garden/flags"><metadata id="cgf-metadata">

<cgf:flag>
  <cgf:name>Leudal</cgf:name>
  <cgf:route>nl/li/leudal</cgf:route>
  <cgf:aspect-ratio>1.5</cgf:aspect-ratio>
</cgf:flag>

</metadata><g clip-path="url(#clip0_1_4032)">
<path d="M600 0H0V400H600V0Z" fill="#FCDD04"/>
<path d="M140.879 0H51.6895V400H140.879V0Z" fill="#0E44AF"/>
<path d="M357.729 360.098C353.114 359.751 349.175 359.154 344.95 358.162C325.947 353.698 309.642 342.55 299.206 326.886C291.704 315.627 287.354 302.386 286.305 287.617C286.186 285.948 286.16 281.387 286.159 261.864C286.157 248.815 286.183 238.139 286.216 238.139C286.248 238.139 286.828 238.302 287.504 238.502C296.899 241.272 312.136 242.383 325.554 241.275C332.216 240.725 338.049 239.597 341.7 238.151C342.452 237.853 342.607 237.817 342.525 237.957C342.469 238.051 342.378 238.154 342.323 238.186C342.257 238.223 342.223 246.068 342.223 261.172V284.103L342.684 285.722C344.828 293.252 348.518 299.374 353.699 303.994C358.437 308.219 363.719 310.665 370.155 311.616C371.706 311.845 376.539 311.846 378.063 311.616C381.445 311.109 384.188 310.3 387.089 308.957C394.598 305.478 400.742 298.956 404.455 290.521L405.085 289.092L407.284 266.866C408.493 254.641 409.511 244.387 409.544 244.077L409.605 243.515L407.407 242.243C406.198 241.544 405.188 240.956 405.164 240.936C405.114 240.896 405.651 237.912 405.753 237.657C405.808 237.521 405.908 237.557 406.472 237.916C411.026 240.819 418.625 242.391 425.817 241.918C431.879 241.519 436.723 239.919 439.73 237.322C440.125 236.981 440.324 236.863 440.357 236.95C440.383 237.02 440.636 237.9 440.92 238.905L441.436 240.732L439.594 242.484L437.752 244.236L436.411 270.722L435.069 297.207L434.664 299.224C431.645 314.219 425.747 326.652 416.873 336.725C413.354 340.72 408.638 344.893 404.299 347.851C394.636 354.441 383.382 358.525 371.282 359.833C367.517 360.24 361.252 360.362 357.729 360.097L357.729 360.098ZM419.604 238.744C414.174 238.17 409.757 236.657 407.199 234.495C406.799 234.156 406.471 233.817 406.471 233.74C406.471 233.428 407.167 232.432 407.785 231.861C410.419 229.425 415.583 228.086 422.344 228.087C429.197 228.087 435.306 229.552 438.349 231.923C439.153 232.55 439.193 232.672 438.816 233.364C437.654 235.494 434.683 237.223 430.615 238.136C429.521 238.382 429.18 238.442 427.433 238.7C426.341 238.86 420.991 238.89 419.604 238.744V238.744ZM308.583 238.502C299.63 238.038 291.574 236.765 286.864 235.069C285.886 234.717 285.872 234.688 286.297 233.854C287.783 230.93 293.96 228.788 303.431 227.911C306.932 227.587 309.417 227.506 314.221 227.56C319.57 227.62 322.452 227.813 326.969 228.413C333.206 229.242 338.202 230.631 340.907 232.288C341.56 232.688 342.93 233.892 342.93 234.067C342.93 234.18 341.575 234.862 340.514 235.282C336.69 236.795 331.262 237.782 323.483 238.379C321.237 238.551 311.135 238.635 308.583 238.502ZM261.154 184.317C235.772 183.508 212.716 170.971 199.35 150.711C191.906 139.427 187.645 126.337 186.6 111.544C186.396 108.653 186.374 62.1294 186.576 62.1999C188.895 63.0062 193.162 63.9495 197.107 64.5277C212.894 66.8413 233.077 65.8021 242.013 62.2156C242.446 62.0415 242.831 61.8991 242.868 61.8991C242.905 61.8991 242.841 62.0084 242.725 62.1421L242.516 62.3851V85.2622V108.139L242.978 109.758C244.113 113.737 245.786 117.556 247.769 120.699C253.159 129.242 261.408 134.59 270.963 135.737C272.735 135.95 276.156 135.948 277.873 135.733C283.448 135.037 288.357 133.081 292.975 129.716C293.587 129.271 294.793 128.262 295.656 127.474C297.93 125.398 299.75 123.26 301.509 120.6C302.76 118.708 304.763 114.824 305.338 113.176C305.498 112.717 309.921 67.5965 309.812 67.532C309.763 67.5028 308.762 66.9215 307.587 66.2403C306.412 65.5591 305.451 64.946 305.451 64.878C305.451 64.81 305.588 64.0506 305.754 63.1905C305.921 62.3304 306.058 61.6076 306.058 61.5843C306.058 61.561 306.501 61.8132 307.042 62.1448C310.458 64.2359 315.235 65.5669 320.754 65.9656C322.613 66.0998 326.332 66.0279 328.054 65.8244C333.301 65.2046 337.58 63.6138 340.077 61.354C340.417 61.0457 340.624 60.9168 340.654 60.9944C340.679 61.061 340.931 61.9377 341.215 62.9427L341.731 64.77L340.638 65.8272C340.037 66.4087 339.21 67.2158 338.799 67.6207L338.053 68.3569L336.705 94.8934L335.356 121.43L334.91 123.597C331.565 139.835 324.944 152.929 314.811 163.346C310.42 167.861 304.972 172.033 299.39 175.156C290.046 180.384 279.231 183.515 268.226 184.181C266.515 184.284 262.526 184.361 261.154 184.318L261.154 184.317ZM473.504 181.554C451.684 179.953 432.178 170.007 418.983 153.754C409.897 142.562 404.208 128.559 402.478 113.129C401.924 108.184 401.927 108.39 401.926 83.0414C401.926 70.1451 401.962 59.5935 402.007 59.5935C402.051 59.5935 402.563 59.7403 403.143 59.9197C404.552 60.3554 407.242 60.9888 409.35 61.3813C421.75 63.69 438.988 63.7486 450.516 61.5213C453.127 61.0168 456.163 60.1782 457.653 59.5499C458.348 59.2567 458.593 59.2365 458.244 59.5013C458.11 59.6028 458.092 62.2974 458.092 82.7353V105.854L458.594 107.555C462.63 121.256 472.085 130.51 484.408 132.821C487.746 133.447 491.998 133.442 495.419 132.81C504.073 131.211 511.648 126.037 516.9 118.138C517.935 116.582 519.531 113.63 520.307 111.838L520.905 110.455L523.14 87.8141C524.368 75.3615 525.373 65.1244 525.373 65.0649C525.372 65.0053 524.394 64.3882 523.198 63.6934C522.003 62.9986 521.001 62.3959 520.973 62.3541C520.923 62.2807 521.512 59.0294 521.587 58.9599C521.608 58.9411 521.797 59.0492 522.008 59.2001C522.696 59.6922 523.682 60.2165 525.07 60.8287C530.702 63.3133 538.999 64.1214 545.926 62.8601C549.974 62.1229 553.412 60.665 555.489 58.8049C555.816 58.5124 556.098 58.29 556.117 58.3108C556.135 58.3315 556.392 59.2084 556.687 60.2595L557.223 62.1704L555.819 63.5161C555.047 64.2562 554.219 65.0654 553.979 65.3143L553.543 65.7669L552.238 91.9383L550.932 118.11L550.514 120.323C546.783 140.083 537.081 156.542 522.773 167.382C511.655 175.804 498.079 180.704 483.365 181.603C481.292 181.73 475.506 181.701 473.504 181.555V181.554ZM321.615 62.9417C315.614 62.6186 309.935 60.8158 307.332 58.4074C306.763 57.8808 306.743 57.846 306.848 57.5724C307.043 57.0595 307.677 56.2893 308.426 55.6528C310.474 53.912 313.937 52.7774 318.685 52.291C320.179 52.138 325.03 52.1405 326.565 52.2953C331.336 52.7761 335.377 53.8785 337.724 55.34C338.452 55.793 339.394 56.6194 339.394 56.8045C339.394 57.1178 338.602 58.2749 337.953 58.9092C335.11 61.6882 328.523 63.314 321.615 62.942V62.9417ZM210.442 62.6271C201.11 62.2862 192.82 61.048 187.235 59.1607C186.115 58.7823 186.13 58.8153 186.635 57.8578C188.656 54.0271 199.005 51.5751 213.17 51.5709C225.751 51.5674 237.075 53.5865 241.667 56.6525C242.261 57.0486 243.242 58.0197 243.191 58.16C243.091 58.4341 240.647 59.4896 238.829 60.0439C232.311 62.0311 221.373 63.0264 210.442 62.6271V62.6271ZM537.393 60.324C531.288 60.0595 525.93 58.4237 522.922 55.9058C522.323 55.4046 522.248 55.3054 522.305 55.0896C522.498 54.3571 523.811 52.9633 524.975 52.2569C527.888 50.4895 532.471 49.5411 538.099 49.5411C545.145 49.5411 551.38 51.0747 554.325 53.5322C554.825 53.9495 554.884 54.0355 554.839 54.2877C554.694 55.1019 553.178 56.7515 551.839 57.5523C549.254 59.0976 545.145 60.1526 541.181 60.2883C540.403 60.3149 539.562 60.3481 539.312 60.3621C539.062 60.3761 538.199 60.3593 537.393 60.3241V60.324ZM427.433 60.0425C417.661 59.8339 408.839 58.5907 402.799 56.571L401.804 56.2382L401.859 55.931C402.017 55.042 403.346 53.628 404.784 52.8186C407.733 51.1592 413.103 49.9031 419.755 49.3166C425.406 48.8185 433.656 48.8941 439.656 49.4989C448.022 50.3421 454.337 52.0195 457.389 54.2089C457.935 54.5998 458.699 55.3786 458.699 55.5432C458.699 55.7725 456.29 56.82 454.5 57.3695C448.023 59.3569 438.656 60.282 427.433 60.0425H427.433Z" fill="#D90D15"/>
</g>
<defs>
<clipPath id="clip0_1_4032">
<rect width="600" height="400" fill="white"/>
</clipPath>
</defs>
</svg>
