<svg width="600" height="400" viewBox="0 0 600 400" fill="none" xmlns="http://www.w3.org/2000/svg" xmlns:cgf="https://coding.garden/flags"><metadata id="cgf-metadata">

<cgf:flag>
  <cgf:name>Maasgouw</cgf:name>
  <cgf:route>nl/li/maasgouw</cgf:route>
  <cgf:aspect-ratio>1.5</cgf:aspect-ratio>
</cgf:flag>

</metadata><g clip-path="url(#clip0_1_4037)">
<path d="M600 0H0V400H600V0Z" fill="#0F47AF"/>
<path d="M127.375 150.041C127.375 156.62 129.86 166.603 136.479 175.088C143.737 184.302 147.394 192.826 147.394 200.033L179.577 212.794L228.81 200.033C228.418 191.478 224.058 183.21 217.767 175.082C212.06 167.22 208.857 158.902 208.643 150.041L170.915 141.88L127.375 150.041Z" fill="white"/>
<path d="M127.38 250.025C127.38 243.447 129.865 233.463 136.484 224.979C143.742 215.765 147.398 207.24 147.398 200.033L179.582 187.272L228.815 200.033C228.423 208.589 224.063 216.857 217.771 224.985C212.065 232.846 208.862 241.164 208.648 250.025L170.92 258.186L127.38 250.025Z" fill="white"/>
<path d="M127.379 250.024C127.379 256.603 129.863 266.587 136.482 275.071C143.74 284.285 147.397 292.81 147.397 300.016L179.581 312.778L228.814 300.016C228.422 291.461 224.061 283.193 217.77 275.065C212.064 267.203 208.861 258.886 208.646 250.024L170.919 241.864L127.379 250.024Z" fill="white"/>
<path d="M127.383 350.009C127.383 343.43 129.868 333.446 136.487 324.962C143.745 315.748 147.401 307.223 147.401 300.016L179.585 287.255L228.818 300.016C228.426 308.572 224.065 316.84 217.774 324.968C212.068 332.83 208.865 341.147 208.651 350.009L170.923 358.169L127.383 350.009Z" fill="white"/>
<path d="M127.396 349.979C127.396 356.558 129.881 366.542 136.5 375.026C143.758 384.24 147.415 392.765 147.415 399.972L179.598 412.733L228.831 399.972C228.439 391.416 224.079 383.148 217.788 375.02C212.081 367.159 208.878 358.841 208.664 349.979L170.936 341.819L127.396 349.979Z" fill="white"/>
<path d="M127.353 50.0734C127.353 56.6523 129.837 66.6362 136.456 75.1204C143.714 84.3341 147.371 92.8589 147.371 100.066L179.554 112.827L228.788 100.066C228.395 91.5105 224.035 83.2427 217.744 75.1147C212.037 67.2528 208.834 58.9352 208.62 50.0734L170.892 41.9131L127.353 50.0734Z" fill="white"/>
<path d="M127.357 150.058C127.357 143.48 129.841 133.496 136.46 125.011C143.718 115.798 147.375 107.273 147.375 100.066L179.559 87.3047L228.792 100.066C228.4 108.621 224.039 116.889 217.748 125.017C212.042 132.879 208.839 141.197 208.624 150.058L170.897 158.219L127.357 150.058Z" fill="white"/>
<path d="M127.355 50.1633C127.355 43.5845 129.839 33.6008 136.458 25.1164C143.716 15.9027 147.373 7.37803 147.373 0.171031L179.557 -12.5901L228.79 0.171031C228.398 8.72638 224.037 16.9941 217.746 25.1223C212.04 32.984 208.837 41.3016 208.622 50.1633L170.895 58.324L127.355 50.1633Z" fill="white"/>
<path d="M81.4263 362.421C79.4654 362.295 77.5741 361.774 75.6248 360.818C74.0301 360.037 73.2431 359.448 71.836 357.985C69.5232 355.579 68.6208 353.832 68.3979 351.33C68.234 349.489 68.2421 349.448 68.7901 349.332C69.0979 349.267 72.8128 349.151 77.0456 349.075C81.2783 348.999 87.4321 348.864 90.7206 348.777L96.6997 348.618V349.864C96.6997 355.19 93.2183 359.64 87.5079 361.614C85.9682 362.146 83.0967 362.527 81.4263 362.42V362.421ZM76.5596 345.945C74.286 344.264 73.6052 343.007 73.6273 340.527C73.6373 339.327 73.7809 338.54 74.1043 337.901L74.566 336.99L81.1929 341.928L87.8198 346.865L86.0439 347.016C85.0671 347.1 82.9253 347.182 81.2843 347.199L78.3008 347.231L76.5596 345.944V345.945ZM82.9406 340.006C78.4611 336.837 74.5944 334.064 74.348 333.845C73.5347 333.119 72.788 331.109 72.7855 329.638C72.7822 328.226 73.1185 326.837 73.5885 326.312C73.7976 326.078 75.7693 327.432 82.3781 332.347C87.83 336.402 91.0646 338.965 91.3601 339.465C92.171 340.836 92.1189 345.767 91.2935 345.767C91.1789 345.767 87.4201 343.175 82.9406 340.006H82.9406ZM83.5105 330.193C79.0566 327.016 75.0991 324.106 74.7163 323.726C73.772 322.789 73.158 320.716 73.3266 319.033C73.4737 317.565 73.9481 316.365 74.3815 316.365C74.5408 316.365 78.507 319.219 83.1954 322.709C91.5437 328.922 91.7274 329.077 92.095 330.204C92.6986 332.055 92.4889 336.058 91.792 335.988C91.6911 335.972 87.9644 333.37 83.5105 330.193V330.193ZM83.8878 320.485C79.4083 317.317 75.5452 314.544 75.3032 314.324C75.0612 314.104 74.5959 313.381 74.2691 312.717C73.7471 311.657 73.6887 311.286 73.7879 309.667C73.906 307.739 74.341 306.391 74.7879 306.567C74.9323 306.624 78.9074 309.546 83.6214 313.06L92.1921 319.449L92.5515 320.696C93.1226 322.678 92.9042 326.247 92.2118 326.247C92.1132 326.247 88.3674 323.654 83.8878 320.485V320.485ZM85.1734 310.917C80.7224 307.74 76.8482 304.921 76.5641 304.652L76.0476 304.164L76.961 303.995C77.4634 303.903 79.5545 303.82 81.608 303.812L85.3416 303.796L89.3566 306.785C93.0404 309.527 93.4015 309.863 93.7333 310.854C94.3294 312.635 94.1287 316.777 93.4496 316.71C93.3487 316.693 89.6244 314.092 85.1734 310.914V310.917ZM52.7675 307.633C52.457 306.933 51.9211 305.317 51.5766 304.042C51.0247 302 50.9354 301.138 50.8262 296.801C50.7581 294.093 50.7714 291.401 50.8563 290.819L51.0104 289.76L53.0761 290.782C55.5848 292.024 58.0267 292.883 60.7066 293.465C63.6954 294.115 68.9893 294.056 72.5464 293.333C75.1215 292.81 80.2432 291.2 81.5095 290.517C82.0348 290.233 82.3452 290.327 84.7397 291.5C88.9372 293.556 93.6834 294.77 97.5285 294.77C102.415 294.77 107.905 292.878 111.814 289.847C112.507 289.31 113.112 288.908 113.158 288.955C113.204 289.002 113.409 290.279 113.614 291.792C114.097 295.364 114.098 300.939 113.617 303.559C113.323 305.153 112.489 308.023 112.216 308.375C112.189 308.41 111.248 307.994 110.125 307.452C107.313 306.094 101.653 304.194 98.2402 303.462C83.6592 300.334 67.6912 301.926 55.8323 307.69L53.3332 308.904L52.7687 307.632L52.7675 307.633ZM89.7468 305.646C88.5963 304.782 87.5855 304.003 87.5006 303.913C87.3592 303.764 88.5956 303.856 91.1942 304.188L92.2006 304.315L92.1833 305.337C92.1504 307.369 92.0582 307.381 89.7462 305.645L89.7468 305.646ZM92.0821 292.285C91.5612 292.152 90.3358 291.78 89.359 291.456L87.583 290.865L85.5262 283.484L83.4694 276.104L82.2111 191.678L80.9527 107.252L80.8304 192.654L80.7081 278.056L78.9335 284.147L77.159 290.239L75.2964 290.788C73.1426 291.424 69.7779 291.999 69.5547 291.769C69.3385 291.546 67.9999 94.2485 68.1414 83.4614C68.2055 78.563 68.3693 73.3475 68.505 71.8713C70.0344 55.2353 73.0833 45.7018 79.5274 37.4055C80.2832 36.4327 80.9871 35.6365 81.0918 35.6365C81.4554 35.6365 84.36 40.4116 85.7671 43.3227C89.9097 51.893 92.156 62.4113 92.906 76.7515C93.1166 80.7789 94.0965 251.925 94.0951 284.461V292.574L93.5623 292.549C93.2693 292.532 92.6033 292.416 92.0824 292.285H92.0821ZM83.8717 289.018L82.2916 288.194L80.5918 288.916C79.4879 289.385 78.9346 289.524 79.0135 289.312C79.0804 289.133 79.526 287.625 80.0039 285.961C80.4819 284.297 81.1475 282.003 81.4832 280.862L82.0934 278.788L83.8183 284.272C84.7671 287.287 85.5227 289.774 85.4976 289.798C85.4723 289.821 84.7408 289.47 83.8717 289.018V289.018Z" fill="#FCDD09"/>
<path d="M297.715 371.363C297.402 371.295 297.24 370.421 295.444 359.112C294.381 352.414 293.471 346.716 293.423 346.449L293.336 345.965L294.136 346.219C296.351 346.924 299.611 346.916 301.635 346.202C302.069 346.048 302.452 345.953 302.486 345.989C302.519 346.026 301.888 351.637 301.083 358.459C300.278 365.282 299.617 371.003 299.616 371.174C299.616 371.429 299.474 371.48 298.834 371.46C298.405 371.443 297.902 371.403 297.716 371.364L297.715 371.363ZM295.837 344.604C293.396 344.081 291.57 342.756 291.57 341.509C291.57 340.746 292.735 339.552 293.965 339.055C295.435 338.461 296.568 338.291 298.464 338.379C301.214 338.506 303.374 339.5 304.003 340.925C304.249 341.481 304.249 341.574 304.003 342.13C303.648 342.935 302.799 343.605 301.457 344.143C300.539 344.51 300.003 344.594 298.3 344.639C297.171 344.667 296.063 344.655 295.837 344.603V344.604ZM295.345 248.881V161.173H297.889H300.433V248.881V336.588L300.08 336.467C299.886 336.402 298.9 336.347 297.889 336.347C296.878 336.347 295.892 336.402 295.698 336.467L295.345 336.588V248.881ZM283.346 262.524C284.845 259.284 281.473 255.674 273.533 252.02C272.234 251.422 269.354 250.269 267.131 249.457C261.428 247.373 258.538 245.905 255.453 243.524C251.55 240.511 249.248 237.266 248.212 233.315C247.724 231.455 247.684 228.12 248.125 226.136C248.531 224.308 249.429 221.917 250.407 220.054C251.29 218.374 253.132 215.588 253.265 215.731C253.306 215.78 253.265 216.325 253.154 216.945C252.812 218.949 253.209 222.256 254.053 224.452C254.85 226.526 255.555 227.665 257.015 229.242C259.881 232.336 261.917 232.967 267.114 232.366C271.258 231.887 275.602 232.564 279.209 234.25C283.221 236.126 286.5 239.707 288.007 243.862C289.197 247.139 289.299 251.46 288.269 254.883C287.468 257.544 285.925 260.2 284.014 262.207L283.001 263.271L283.347 262.524H283.346ZM261.934 230.673C257.469 229.163 254.394 223.821 254.684 218.079C254.84 214.987 255.691 212.723 257.32 211.056C263.186 205.058 272.334 199.601 283.198 195.619C285.398 194.813 291.607 192.839 292.842 192.554L293.375 192.429V200.11L293.374 207.79L292.103 208.205C285.367 210.407 278.596 214.003 273.544 218.059C271.241 219.908 268.263 223.146 267.054 225.113C266.089 226.683 265.096 229.046 264.892 230.257L264.78 230.921L263.69 230.905C263.091 230.888 262.301 230.792 261.935 230.668L261.934 230.673ZM302.403 197.882V190.189L303.265 189.969C304.558 189.637 308.631 188.114 310.424 187.292C314.837 185.266 318.374 182.95 321.594 179.976C322.719 178.938 323.799 177.702 325.708 175.265L326.055 174.822L325.945 175.442C325.772 176.418 324.426 180.847 323.71 182.798C321.897 187.737 318.836 193.34 315.732 197.397C314.548 198.945 310.518 203.39 310.054 203.66C309.42 204.03 303.487 205.571 302.69 205.574C302.421 205.574 302.403 205.091 302.403 197.882H302.403ZM314.874 201.022C321.549 193.304 326.048 183.61 328.261 172.175C328.58 170.524 328.989 168.69 329.169 168.098C331.899 159.138 329.325 149.33 322.263 141.764C321.398 140.838 320.267 139.73 319.749 139.301L318.807 138.522L318.413 138.922C318.09 139.249 318.046 139.401 318.172 139.757C318.818 141.593 317.397 144.012 315.56 144.203C313.199 144.448 311.509 142.271 312.177 139.844C312.425 138.941 313.47 137.687 313.976 137.687C314.111 137.687 314.221 137.597 314.221 137.482C314.221 137.37 313.704 134.933 313.072 132.067C312.44 129.201 311.923 126.829 311.923 126.797C311.923 126.765 311.462 126.705 310.897 126.665C310.173 126.611 309.697 126.466 309.278 126.166C308.531 125.631 307.937 124.707 307.935 124.079C307.935 123.006 308.272 121.367 308.572 121.009C309.583 119.802 311.702 119.597 312.844 120.595C313.682 121.327 314.057 122.159 314.057 123.282C314.057 123.796 314.112 124.219 314.179 124.224C314.248 124.224 317.532 124.531 321.479 124.897L328.656 125.561L328.82 125.058C329.408 123.236 331.193 122.325 332.948 122.951C333.797 123.253 334.579 124.21 334.829 125.249C335.085 126.315 334.944 127.146 334.335 128.138L333.901 128.847L334.361 129.232C334.614 129.444 335.597 130.384 336.545 131.321C343.608 138.299 348.054 146.206 349.372 154.131C349.826 156.86 349.862 161.774 349.444 164.275C348.369 170.735 345.832 176.442 341.406 182.354C340.026 184.199 336.121 188.385 334.23 190.047C329.576 194.138 323.766 197.955 318.406 200.44C316.548 201.302 313.974 202.384 313.782 202.384C313.734 202.384 314.226 201.771 314.873 201.022L314.874 201.022ZM323.003 132.636C326.163 129.832 328.772 127.468 328.802 127.383C328.831 127.299 328.752 127.229 328.622 127.229C328.276 127.229 314.917 126.014 314.098 125.908C313.557 125.837 313.4 125.876 313.4 126.077C313.4 126.366 315.814 137.344 315.894 137.417C316.189 137.685 316.965 137.98 317.093 137.873C317.182 137.799 319.843 135.441 323.002 132.636L323.003 132.636ZM329.443 129.356C329.736 129.126 329.943 128.904 329.904 128.862C329.829 128.781 327.845 130.413 327.845 130.556C327.845 130.603 328.085 130.445 328.379 130.207C328.672 129.969 329.151 129.586 329.443 129.356ZM295.263 158.98C291.623 158.012 290.597 155.811 293.014 154.156C294.154 153.376 294.738 153.27 298.054 153.247L301.08 153.226L302.327 153.891C304.23 154.907 304.694 156.043 303.705 157.26C302.305 158.982 298.322 159.794 295.263 158.98V158.98ZM296.236 150.791C293.081 150.467 290.37 148.956 289.987 147.308C289.854 146.741 290.326 145.756 290.982 145.227C291.397 144.892 291.433 144.891 291.861 145.187C293.759 146.498 295.479 147.081 297.453 147.081C299.677 147.081 301.43 146.501 303.083 145.218L303.881 144.599L304.702 145.453C305.373 146.152 305.522 146.417 305.521 146.915C305.521 148.26 304.321 149.388 302.061 150.171C300.954 150.554 300.398 150.653 298.136 150.871C297.819 150.901 296.965 150.871 296.236 150.792V150.791ZM296.084 143.641C294 143.082 292.321 141.515 291.276 139.153C290.679 137.801 290.668 137.737 290.668 135.649C290.668 133.573 290.689 133.49 291.256 132.192C292.047 130.407 293.27 128.991 294.657 128.253C295.68 127.709 295.856 127.673 297.475 127.673C299.069 127.673 299.286 127.716 300.27 128.222C303.12 129.691 304.93 133.495 304.406 136.913C303.876 140.366 301.54 143.118 298.635 143.713C297.558 143.933 297.129 143.921 296.084 143.642V143.641ZM301.337 125.102C299.272 124.051 296.706 123.954 294.255 124.834C292.926 125.311 292.915 125.312 292.285 124.99C291.937 124.812 291.339 124.328 290.955 123.914C290.409 123.326 290.257 123.031 290.257 122.563C290.257 120.094 295.036 118.138 299.652 118.717C301.207 118.913 302.829 119.378 303.756 119.895C304.86 120.512 305.851 121.798 305.851 122.616C305.851 123.209 304.587 124.527 303.465 125.105C302.9 125.396 302.412 125.627 302.38 125.619C302.348 125.602 301.878 125.378 301.337 125.102V125.102ZM294.576 116.087C292.118 115.173 291.208 113.57 292.396 112.246C292.68 111.929 293.156 111.529 293.453 111.356L293.992 111.042L293.663 109.786C293.195 108.003 293.319 105.488 293.96 103.744C294.931 101.105 296.865 98.7347 299.613 96.8193C300.02 96.536 303.011 94.1518 306.261 91.521C310.968 87.7109 312.572 86.304 314.147 84.6057C321.594 76.571 323.854 67.7423 320.463 59.9294C319.382 57.4359 317.966 55.3873 315.446 52.67L313.122 50.1636L310.594 48.8275C306.906 46.878 303.887 45.8219 299.778 45.0447C297.349 44.5852 290.718 44.5847 288.452 45.0447C282.955 46.1578 279.078 47.9277 275.242 51.0739C271.039 54.5209 268.696 58.545 268.274 63.04C267.849 67.5701 269.624 71.592 273.374 74.5942C275.63 76.4003 277.563 77.1785 280.256 77.3638C282.921 77.5473 285.125 76.8198 286.773 75.2125C288.405 73.6219 288.837 72.3419 288.804 69.1957C288.782 68.0346 288.855 66.7904 288.946 66.4313C289.747 63.2167 293.927 62.243 296.001 64.788C296.867 65.8501 297.155 66.931 297.266 69.5346C297.703 79.7136 289.735 87.2703 279.438 86.4421C275.127 86.0953 271.441 84.5504 267.935 81.621C259.762 74.7914 257.47 63.8185 262.123 53.7962C263.234 51.4036 264.344 49.7744 266.524 47.3354C272.614 40.524 280.722 36.5698 290.587 35.6005C297.38 34.9327 305.011 36.2832 311.761 39.3478C315.11 40.8683 317.458 42.3261 319.295 44.0256C325.18 49.472 328.625 55.3347 330.014 62.2672C330.543 64.9058 330.537 69.8225 329.993 72.5388C328.523 79.9905 324.358 87.2423 318.236 93.0038C316.682 94.4662 306.735 102.623 303.949 104.719C303.237 105.255 302.442 106.02 302.184 106.419L301.715 107.143L301.993 108.176C302.184 108.878 302.239 109.503 302.17 110.128L302.071 111.048L302.735 111.371C303.634 111.809 304.366 112.737 304.366 113.438C304.366 113.756 304.191 114.24 303.953 114.577C303.47 115.261 301.644 116.265 300.87 116.272C300.581 116.272 299.377 116.255 298.194 116.238C297.011 116.217 295.903 116.255 295.732 116.302C295.561 116.359 295.038 116.262 294.569 116.088L294.576 116.087Z" fill="#FCDD09"/>
</g>
<defs>
<clipPath id="clip0_1_4037">
<rect width="600" height="400" fill="white"/>
</clipPath>
</defs>
</svg>
