<svg width="600" height="400" viewBox="0 0 600 400" fill="none" xmlns="http://www.w3.org/2000/svg" xmlns:cgf="https://coding.garden/flags"><metadata id="cgf-metadata">

<cgf:flag>
  <cgf:name>Maastricht</cgf:name>
  <cgf:route>nl/li/maastricht</cgf:route>
  <cgf:aspect-ratio>1.5</cgf:aspect-ratio>
</cgf:flag>

</metadata><g clip-path="url(#clip0_1_4050)">
<path d="M600 0H0V400H600V0Z" fill="#E5352C"/>
<path d="M214.175 72L173.178 198.176L236.266 218.674L214.175 72Z" fill="white"/>
<path d="M214.175 72L255.172 198.176L192.084 218.674L214.175 72Z" fill="white"/>
<path d="M340.143 163.672L207.682 164.121L207.89 230.006L340.143 163.672Z" fill="white"/>
<path d="M340.351 163.229L233.411 241.653L194.029 188.429L340.351 163.229Z" fill="white"/>
<path d="M87.9995 163.229L194.939 241.653L234.321 188.429L87.9995 163.229Z" fill="white"/>
<path d="M88.2075 163.672L220.668 164.121L220.461 230.006L88.2075 163.672Z" fill="white"/>
<path d="M292.156 312.034L251.204 185.825L188.071 206.29L292.156 312.034Z" fill="white"/>
<path d="M292.22 312L184.824 234.09L223.751 180.354L292.22 312Z" fill="white"/>
<path d="M136.13 312L243.525 234.09L204.599 180.354L136.13 312Z" fill="white"/>
<path d="M136.194 312.034L177.145 185.825L240.279 206.29L136.194 312.034Z" fill="white"/>
</g>
<defs>
<clipPath id="clip0_1_4050">
<rect width="600" height="400" fill="white"/>
</clipPath>
</defs>
</svg>
