<svg width="600" height="400" viewBox="0 0 600 400" fill="none" xmlns="http://www.w3.org/2000/svg" xmlns:cgf="https://coding.garden/flags"><metadata id="cgf-metadata">

<cgf:flag>
  <cgf:name>Meerssen</cgf:name>
  <cgf:route>nl/li/meerssen</cgf:route>
  <cgf:aspect-ratio>1.5</cgf:aspect-ratio>
</cgf:flag>

</metadata><g clip-path="url(#clip0_1_4068)">
<path d="M200.291 0H0V199.848H200.291V0Z" fill="#0F47AF"/>
<path d="M600 0H200.291V199.848H600V0Z" fill="#FCDD09"/>
<path d="M600 199.848H200.291V400H600V199.848Z" fill="#0F47AF"/>
<path d="M200.291 199.848H0V400H200.291V199.848Z" fill="#FCDD09"/>
<path d="M60.8322 165.563C54.5707 164.356 50.1623 158.678 49.635 151.139C49.3561 147.151 50.2918 143.003 52.2254 139.658C52.8485 138.581 53.8067 137.428 55.215 136.063L57.2874 134.053L57.4418 136.412C57.689 140.21 58.5671 142.752 60.5056 145.28C63.5583 149.262 68.3987 150.677 72.5417 148.799C74.9111 147.724 77.3072 145.254 78.8534 142.291C80.1485 139.81 81.4731 135.254 82.0175 131.409L82.1828 130.246H86.5455H90.9085L90.8396 131.621C90.4865 138.64 87.813 147.435 84.3236 153.056C78.8015 161.951 69.0458 167.146 60.8341 165.563H60.8322ZM132.782 165.589C123.214 163.817 115.452 156.229 111.561 144.841C110.166 140.758 109.062 135.322 108.876 131.62L108.807 130.245H113.17H117.533L117.698 131.409C118.242 135.254 119.567 139.809 120.862 142.291C122.419 145.274 124.587 147.538 127 148.7C128.387 149.368 128.855 149.483 130.492 149.558C132.015 149.626 132.652 149.558 133.764 149.191C136.175 148.401 138.028 147.015 139.52 144.885C141.282 142.372 142.037 140.048 142.273 136.412L142.426 134.053L144.499 136.062C147.722 139.187 149.446 142.691 149.971 147.184C150.453 151.303 149.828 155.014 148.069 158.475C146.376 161.807 143.355 164.353 139.913 165.348C138.255 165.828 134.717 165.947 132.782 165.589H132.782ZM99.1053 164.496C97.812 162.265 95.864 159.66 94.1589 157.881L92.4917 156.142L93.1684 154.616C95.4069 149.567 96.6765 141.673 96.6881 132.731V130.139H99.8533H103.019V132.629C103.019 135.831 103.379 141.238 103.791 144.206C104.371 148.388 105.244 151.689 106.544 154.621L107.223 156.153L105.83 157.591C103.758 159.731 102.02 162.075 100.007 165.448C99.8764 165.668 99.6332 165.414 99.1019 164.496H99.1053ZM77.9184 123.475V117.869L99.9112 117.922L121.904 117.976L121.963 123.528L122.021 129.081H99.9705H77.9193V123.474L77.9184 123.475ZM80.9756 115.914C77.5559 102.781 69.9026 93.215 60.3461 90.129C58.2181 89.4419 54.5824 89.4346 52.8151 90.1074C50.19 91.1165 48.4221 93.3647 47.6668 96.6547C46.8059 100.405 48.004 106.794 50.6325 112.471C51.3497 114.02 51.4503 114.45 51.014 114.102C50.8632 113.982 50.25 113.82 49.6499 113.741C44.8466 113.108 39.5716 110.521 36.6422 107.361C33.4364 103.904 31.3407 99.6707 30.2964 94.5458C29.9207 92.7022 29.8092 91.3983 29.8032 88.7791C29.8032 84.925 30.1675 82.5083 31.2402 79.472C32.6465 75.4904 34.0993 73.3465 37.8425 69.7288C43.0544 64.6916 48.4922 62.21 54.3431 62.1983C61.4589 62.1768 67.7529 65.3751 73.5773 71.9502C79.854 79.0364 84.8415 89.5007 87.8487 101.894C88.5949 104.969 89.8239 111.355 90.1284 113.739C90.2628 114.786 90.426 115.905 90.4928 116.225L90.6144 116.807H85.9122H81.2101L80.9759 115.907L80.9756 115.914ZM96.4732 114.634C96.4732 110.104 95.6896 103.319 94.5992 98.4102C93.8621 95.0909 92.7763 91.7964 91.3121 88.4345C86.8957 78.2955 85.5695 73.986 84.8821 67.5373C84.5746 64.6539 84.7367 59.0804 85.2001 56.6297C86.8251 48.0268 90.7852 40.9932 98.0897 33.7363L99.8455 31.9919L101.125 33.2075C106.193 38.0244 110.243 43.8528 112.479 49.5474C114.152 53.8082 114.791 56.9907 114.962 61.9217C115.244 70.0174 113.571 76.9596 108.795 87.5165C105.825 94.0794 104.17 100.968 103.461 109.705C103.34 111.205 103.24 113.418 103.24 114.623V116.813H99.8568H96.4732V114.634V114.634ZM109.221 116.232C109.288 115.911 109.452 114.793 109.587 113.746C109.915 111.189 110.968 105.698 111.778 102.323C117.105 80.1319 128.158 65.1563 141.126 62.5606C143.111 62.1632 146.679 62.105 148.58 62.4387C153.261 63.2613 157.626 65.6618 161.867 69.7469C165.615 73.3574 167.066 75.4942 168.473 79.4782C170.518 85.2679 170.436 92.7799 168.262 98.7827C165.207 107.219 158.673 112.591 150.064 113.745C149.463 113.826 148.849 113.989 148.699 114.108C148.261 114.458 148.365 114.023 149.097 112.443C150.033 110.426 151.365 106.473 151.831 104.333C152.426 101.603 152.391 97.4804 151.757 95.5269C150.888 92.8464 148.989 90.824 146.571 90.0024C144.896 89.4331 141.344 89.4962 139.368 90.1308C129.862 93.1805 122.147 102.824 118.738 115.914L118.504 116.813H113.802H109.1L109.221 116.231L109.221 116.232Z" fill="#F9D716"/>
<path d="M55.0437 363.942C53.8663 363.675 52.77 362.813 52.2819 361.772C51.9635 361.092 51.8763 360.414 51.8845 358.68C51.8845 357.459 51.9678 356.281 52.0552 356.063C52.1437 355.845 52.7825 355.122 53.4753 354.456C54.6716 353.307 54.7723 353.127 55.4845 350.854C55.8968 349.538 56.2077 348.435 56.1752 348.403C55.9535 348.189 51.9386 350.717 50.7523 351.819C49.1385 353.318 48.4949 353.569 47.2716 353.178C46.5828 352.957 46.2978 352.959 45.7085 353.178C43.8686 353.894 42.7623 354.999 42.349 356.533L42.087 357.505L41.8235 356.871C41.4437 355.956 41.3095 354.793 41.4816 353.904C41.6825 352.867 43.0837 351.429 44.447 350.86C45.0444 350.611 45.5334 350.311 45.5334 350.192C45.5334 350.074 45.7744 349.743 46.0691 349.458C46.56 348.982 46.7726 348.938 48.6038 348.938H50.6026L52.3793 347.894C55.309 346.173 55.2547 346.364 53.0352 345.586C51.9708 345.213 50.7232 344.632 50.2631 344.294L49.4265 343.68L48.4441 344.088C47.0086 344.685 45.8927 344.631 45.3308 343.938C45.082 343.632 44.8786 343.251 44.8786 343.092C44.8786 342.688 42.6971 342.709 41.6761 343.122C41.2431 343.298 40.5467 343.793 40.1285 344.222L39.3682 345.004L39.5297 344.062C39.9654 341.523 41.4702 340.265 44.0721 340.265C45.1752 340.265 45.5459 340.18 45.8498 339.854C46.8687 338.763 48.1656 339.193 49.7903 341.159C50.974 342.592 53.1811 343.628 56.1501 344.145C56.7924 344.256 57.4637 343.751 67.0646 335.919C76.9484 327.857 77.3455 327.56 78.7892 327.136C79.6112 326.895 80.3165 326.729 80.3568 326.769C80.3969 326.807 80.2766 327.885 80.0891 329.163L79.7481 331.487L70.9546 338.256C62.3039 344.915 61.2505 345.86 61.2505 346.963C61.2505 348.129 62.9798 349.14 65.3645 349.367C67.4864 349.571 68.0475 349.973 68.3698 351.527C68.5042 352.172 68.7246 353.009 68.861 353.389C69.3438 354.731 69.0081 356.446 68.0638 357.472C67.7097 357.856 66.1788 358.88 65.9588 358.88C65.9023 358.88 66.0463 358.475 66.2771 357.981C66.6935 357.091 66.8249 355.623 66.5702 354.702C66.4807 354.383 66.2727 354.226 65.935 354.226C65.1752 354.226 64.0831 353.21 63.522 351.98C63.0699 350.99 62.9175 350.85 61.9493 350.539C61.3597 350.348 60.4226 349.914 59.8671 349.573C58.692 348.851 58.9311 348.624 57.522 351.793C56.6574 353.739 56.5797 354.062 56.5584 355.813C56.5317 358.01 56.1047 359.136 55.1089 359.635C54.7648 359.808 54.4835 360.101 54.4835 360.288C54.4835 361.194 55.0972 362.445 55.9468 363.269C56.9666 364.259 56.8534 364.341 55.0433 363.93L55.0437 363.942ZM145.139 363.281C146.619 361.845 147.026 360.022 145.968 359.569C144.977 359.144 144.555 358.046 144.527 355.824C144.505 354.044 144.434 353.764 143.437 351.488C142.851 350.15 142.345 349.02 142.314 348.977C142.283 348.934 141.8 349.19 141.242 349.548C140.684 349.906 139.739 350.357 139.141 350.549C138.176 350.86 138.005 351.009 137.621 351.881C137.058 353.158 136.223 353.989 135.342 354.149C134.869 354.235 134.595 354.428 134.511 354.734C134.25 355.674 134.389 357.129 134.815 357.94C135.055 358.396 135.251 358.799 135.251 358.835C135.251 358.871 134.883 358.717 134.433 358.493C132.429 357.498 131.512 355.382 132.225 353.4C132.361 353.021 132.583 352.183 132.716 351.538C133.039 349.985 133.6 349.581 135.722 349.379C137.515 349.208 138.983 348.593 139.529 347.784C139.945 347.17 139.813 346.128 139.231 345.431C139.023 345.182 134.944 341.965 130.165 338.281C125.386 334.596 121.434 331.468 121.382 331.329C121.197 330.832 120.647 326.86 120.749 326.761C120.808 326.705 121.515 326.868 122.323 327.12C123.709 327.555 124.36 328.045 134.012 335.915C140.346 341.08 144.371 344.222 144.599 344.178C146.635 343.787 147.59 343.51 148.896 342.932C150.109 342.396 150.606 342.026 151.297 341.146C152.233 339.955 153.257 339.219 153.979 339.219C154.226 339.219 154.719 339.458 155.076 339.748C155.614 340.187 155.954 340.277 157.066 340.277C159.621 340.277 161.15 341.577 161.545 344.085L161.695 345.037L161.098 344.322C160.293 343.361 159.003 342.826 157.478 342.82C156.38 342.82 156.221 342.869 156.088 343.291C155.686 344.57 154.644 344.821 152.749 344.097L151.674 343.687L150.831 344.28C149.963 344.889 147.333 345.988 146.743 345.988C145.906 345.988 146.316 346.459 148.083 347.522C149.991 348.672 150.004 348.676 152.112 348.783C154.338 348.896 155.18 349.201 155.439 349.991C155.515 350.225 156.077 350.633 156.711 350.916C158.067 351.521 159.162 352.557 159.503 353.558C159.785 354.384 159.672 355.938 159.261 356.882L158.985 357.516L158.793 356.689C158.688 356.234 158.407 355.557 158.169 355.184C157.283 353.794 154.191 352.408 153.698 353.18C153.518 353.462 152.585 353.449 151.992 353.157C151.73 353.029 150.926 352.366 150.205 351.687C149.45 350.975 148.065 350.009 146.931 349.404C145.85 348.827 144.945 348.374 144.919 348.398C144.894 348.422 145.204 349.525 145.61 350.848C146.317 353.154 146.399 353.303 147.581 354.403C148.259 355.034 148.906 355.785 149.019 356.072C149.131 356.358 149.221 357.562 149.218 358.747C149.218 362.002 148.497 363.173 146.097 363.863C144.259 364.392 144.097 364.294 145.14 363.281L145.139 363.281ZM63.4338 244.871C63.4338 244.075 64.1284 242.955 64.949 242.429C65.3848 242.149 66.5728 241.648 67.5891 241.315C69.9843 240.53 71.4112 239.814 72.4928 238.856L73.366 238.083L72.4928 238.186C72.0125 238.241 70.8338 238.402 69.8733 238.54C67.6301 238.864 63.8321 238.675 61.6538 238.131C56.6965 236.893 53.8893 233.936 54.0897 230.163L54.1565 228.908L54.7344 229.86C55.0521 230.383 55.9071 231.361 56.6346 232.034C59.4798 234.663 63.2099 235.589 69.5062 235.231L72.8324 235.041L71.3051 234.153C67.9021 232.174 64.3306 230.979 61.1965 230.769C58.9575 230.62 58.8783 230.495 59.996 228.882C60.5151 228.133 61.0526 227.687 62.0001 227.219C63.1765 226.638 63.4762 226.582 65.2746 226.604C67.4182 226.63 68.993 227.041 71.3198 228.18C73.7968 229.391 76.8342 233.513 78.2075 237.526C79.0551 240.003 79.1557 239.794 76.5314 241.009C75.4984 241.487 73.3237 242.144 70.6375 242.789C66.3294 243.824 65.1206 244.216 64.0344 244.933C63.4383 245.326 63.434 245.325 63.434 244.871L63.4338 244.871ZM137.107 244.949C136.225 244.294 134.63 243.776 130.432 242.779C127.554 242.096 125.607 241.508 124.528 240.994C121.945 239.766 122.055 239.975 122.81 237.716C123.858 234.585 125.126 232.457 127.416 229.991C128.284 229.055 128.998 228.546 130.297 227.938C134.966 225.749 139.143 226.121 141.091 228.897C142.152 230.409 142.07 230.706 140.59 230.706C137.771 230.706 133.643 231.983 130.146 233.937L128.167 235.042L131.109 235.218C135.916 235.506 139.535 235.002 142.231 233.669C143.458 233.062 145.342 231.335 146.233 229.999L146.93 228.954L146.997 230.185C147.15 233.018 145.42 235.593 142.346 237.107C140.978 237.78 138.816 238.326 136.545 238.571C134.232 238.82 133.627 238.791 128.594 238.193L127.721 238.088L128.594 238.858C129.666 239.804 131.378 240.653 133.396 241.241C134.237 241.485 135.373 241.962 135.922 242.3C136.954 242.936 137.739 244.13 137.612 244.87C137.549 245.237 137.507 245.243 137.107 244.947L137.107 244.949Z" fill="#FF0000"/>
<path d="M99.4177 375.599C97.7209 373.428 96.9823 371.631 95.9454 367.151L95.4339 364.942L93.3837 365.006C90.0357 365.111 87.7129 364.287 85.3262 362.152C83.6271 360.632 82.7225 358.861 82.5561 356.728C82.4871 355.836 82.5016 355.106 82.591 355.106C82.6795 355.106 83.1943 355.483 83.7337 355.943C86.673 358.45 89.8364 358.496 91.7545 356.059C94.8434 352.134 96.4919 341.977 95.8485 330.834C95.6062 326.638 95.247 323.188 95.0305 322.977C94.9107 322.861 92.1248 325.309 89.9661 327.425C87.6405 329.706 85.8161 332.096 84.58 334.482C83.3223 336.91 82.8666 338.642 82.8407 341.092C82.8221 342.167 82.7985 343.048 82.7738 343.048C82.6322 343.051 80.9271 340.429 80.3554 339.331C79.2609 337.227 78.9369 335.66 79.0683 333.107C79.132 331.886 79.2512 330.672 79.3351 330.41C79.4804 329.957 79.4318 329.934 78.2965 329.934C76.5094 329.934 74.0274 329.234 71.4507 328.002L69.1445 326.9L70.998 326.314C74.7042 325.144 77.8415 323.169 81.6539 319.608C84.9251 316.553 87.4563 313.644 90.5567 309.379L91.2759 308.389L90.0777 307.255C89.4186 306.632 88.6719 305.727 88.4184 305.246C87.6494 303.785 87.0642 301.313 86.889 298.786C86.6886 295.892 86.1861 294.673 84.8372 293.807C82.8952 292.562 79.6848 293.061 77.9983 294.87C76.5888 296.382 76.5651 296.516 76.2607 304.763C76.1081 308.893 75.8886 312.563 75.7726 312.919C74.8758 315.672 72.4016 317.225 69.8781 316.619C68.5116 316.291 67.3817 315.547 66.7481 314.56L66.23 313.753L66.121 304.368L66.0121 294.982L63.8466 300.031C57.2394 315.437 53.0664 322.501 47.2427 328.138C42.4734 332.754 38.6488 334.552 35.4969 333.66C33.1129 332.985 31.5668 331.07 31.5488 328.771C31.5303 326.792 32.1061 325.839 34.9563 323.102C42.7963 315.573 48.4552 305.57 54.0277 289.391C55.0362 286.463 55.8615 283.993 55.8615 283.902C55.8615 283.81 54.3134 285.969 52.4214 288.697C44.3094 300.394 39.3154 305.719 34.3465 307.973C31.8666 309.097 28.6092 309.058 26.8273 307.883C25.6396 307.1 25.2151 306.381 25.2339 305.186C25.2606 303.467 26.103 302.126 29.0411 299.127C32.9865 295.099 36.2931 290.991 40.509 284.879C42.0532 282.64 46.7133 275.482 47.1709 274.647C47.3072 274.399 46.0512 275.444 44.3814 276.968C32.456 287.854 29.0007 290.942 28.1386 291.484C27.2902 292.018 26.9909 292.091 25.9457 292.023C25.1903 291.974 24.5211 291.789 24.1657 291.531C22.7711 290.521 21.5898 287.903 21.5898 285.825C21.5898 285.346 21.7461 284.439 21.9377 283.807C22.2637 282.73 22.6526 282.299 28.1249 276.946C31.3366 273.805 34.4103 270.616 34.9552 269.86C37.2133 266.727 38.3883 263.692 39.0543 259.276C39.2967 257.667 39.7456 255.512 40.0515 254.486C40.7579 252.118 42.6318 248.353 43.9492 246.656C46.1902 243.769 49.7749 242.43 52.9296 243.302C55.646 244.052 57.6148 245.883 58.517 248.496C58.9654 249.795 58.9925 250.267 59.0092 257.048L59.0277 264.225L60.6534 264.491C64.1933 265.071 66.955 266.546 68.6291 268.753C69.0467 269.304 69.7884 270.492 70.2768 271.394C70.7653 272.296 71.2109 273.033 71.2673 273.033C71.3239 273.033 71.9268 272.745 72.6084 272.392C74.6671 271.328 75.949 271.063 78.4401 271.186C79.8757 271.257 81.088 271.451 81.9341 271.743C83.4471 272.266 83.3032 272.383 84.2574 269.86C87.767 260.582 86.864 252.405 81.4713 244.63C80.1102 242.668 79.9907 242.554 79.4583 242.717C79.147 242.811 78.0572 242.888 77.0367 242.884C75.5705 242.884 74.9981 242.783 74.3081 242.426L73.4349 241.975L74.0888 241.731C76.306 240.904 77.2913 239.104 76.7874 236.802C76.524 235.599 75.4333 233.314 74.4592 231.925C74.1201 231.441 73.3824 230.397 72.8202 229.604C71.71 228.039 71.5666 227.333 72.1406 226.257C73.049 224.555 77.2398 223.887 81.3033 224.797C83.083 225.195 83.51 225.222 84.7167 225.011C85.4752 224.879 86.7834 224.473 87.6238 224.11C90.4466 222.891 92.6009 223.284 95.0038 225.456L96.1372 226.481L94.8274 226.503C94.0443 226.503 93.1597 226.674 92.6274 226.907C91.7534 227.292 90.789 228.235 90.789 228.705C90.789 228.836 91.288 229.657 91.898 230.528C95.1691 235.2 97.647 241.037 99.6447 248.777C100.089 250.497 100.479 251.877 100.512 251.844C100.545 251.81 100.985 250.213 101.489 248.294C103.491 240.675 105.843 235.191 109.108 230.528C109.718 229.657 110.217 228.837 110.217 228.705C110.217 228.235 109.253 227.292 108.379 226.907C107.838 226.669 106.978 226.514 106.189 226.511H104.889L105.696 225.71C106.139 225.27 107.064 224.58 107.751 224.177C109.463 223.172 111.153 223.156 113.383 224.123C114.224 224.488 115.55 224.894 116.33 225.025C117.562 225.232 117.991 225.207 119.603 224.83C123.783 223.856 127.932 224.521 128.892 226.319C129.438 227.343 129.283 228.071 128.186 229.617C127.624 230.409 126.886 231.454 126.547 231.937C125.573 233.327 124.482 235.612 124.219 236.815C123.715 239.117 124.7 240.916 126.917 241.743L127.571 241.987L126.698 242.431C126.019 242.776 125.411 242.878 123.969 242.889C122.949 242.889 121.859 242.825 121.548 242.731C121.016 242.568 120.896 242.682 119.539 244.637C114.136 252.427 113.234 260.584 116.749 269.874C117.689 272.361 117.599 272.27 118.746 271.878C122.268 270.67 125.801 270.903 128.701 272.534C129.203 272.816 129.668 273.047 129.735 273.047C129.802 273.047 130.166 272.452 130.545 271.725C132.789 267.412 135.278 265.47 139.577 264.677C140.658 264.478 141.679 264.279 141.846 264.234C142.101 264.166 142.131 263.113 142.035 257.759C141.968 254.006 142.01 250.798 142.135 249.99C142.857 245.38 146.916 242.418 151.437 243.201C154.733 243.772 156.888 245.707 159.114 250.096C160.671 253.164 161.366 255.42 161.95 259.29C162.616 263.711 163.795 266.752 166.052 269.874C166.599 270.63 169.672 273.819 172.881 276.96C178.344 282.307 178.738 282.745 179.065 283.82C179.257 284.452 179.414 285.36 179.414 285.838C179.414 287.917 178.233 290.534 176.838 291.545C176.483 291.803 175.814 291.988 175.059 292.037C174.012 292.105 173.715 292.037 172.866 291.497C172.325 291.156 169.133 288.374 165.771 285.313C162.41 282.253 158.29 278.503 156.617 276.98C154.944 275.457 153.661 274.353 153.765 274.528C155.057 276.681 159.45 283.387 161.236 285.933C165.392 291.857 168.13 295.228 171.963 299.141C174.901 302.14 175.744 303.481 175.77 305.2C175.789 306.395 175.365 307.113 174.177 307.897C173.104 308.604 171.87 308.852 169.909 308.753C164.344 308.472 158.494 302.974 148.586 288.714C146.692 285.988 145.143 283.83 145.143 283.919C145.143 284.009 145.975 286.499 146.993 289.455C150.709 300.251 154.373 308.027 158.798 314.506C161.194 318.015 163.075 320.248 166.054 323.119C168.901 325.863 169.471 326.812 169.455 328.784C169.437 331.07 167.888 333.001 165.541 333.662C162.733 334.453 159.897 333.358 155.592 329.819C149.128 324.504 144.192 316.526 137.156 300.017L134.992 294.94L134.883 304.353C134.776 313.651 134.769 313.775 134.284 314.53C133.659 315.504 132.438 316.316 131.126 316.632C128.627 317.233 126.12 315.66 125.231 312.932C125.115 312.577 124.896 308.906 124.744 304.776C124.439 296.529 124.415 296.395 123.006 294.883C121.32 293.074 118.109 292.576 116.167 293.821C114.818 294.686 114.316 295.906 114.115 298.8C113.941 301.326 113.355 303.799 112.586 305.26C112.332 305.741 111.592 306.639 110.941 307.256C110.19 307.966 109.816 308.472 109.919 308.638C110.31 309.267 112.408 312.023 113.904 313.872C116.287 316.817 121.516 321.777 123.86 323.315C126.318 324.928 127.66 325.587 129.992 326.323L131.832 326.904L129.81 327.88C126.868 329.301 125.246 329.778 123.246 329.813C121.543 329.843 121.542 329.843 121.674 330.371C121.747 330.662 121.862 331.899 121.929 333.121C122.069 335.672 121.749 337.227 120.651 339.344C120.138 340.333 118.342 343.065 118.207 343.062C118.188 343.062 118.178 342.181 118.169 341.105C118.169 339.986 117.995 338.561 117.782 337.774C117.263 335.857 115.693 332.924 114.036 330.772C112.358 328.592 106.26 322.71 105.971 322.992C105.756 323.202 105.396 326.668 105.155 330.847C104.512 341.991 106.16 352.148 109.249 356.072C110.139 357.203 111.45 357.87 112.782 357.87C114.189 357.87 115.485 357.33 117.051 356.095C117.731 355.558 118.351 355.12 118.43 355.12C118.509 355.12 118.518 355.843 118.449 356.727C118.284 358.835 117.53 360.334 115.798 361.996C113.443 364.256 111.085 365.127 107.62 365.02L105.57 364.955L105.062 367.176C104.048 371.615 103.038 373.934 101.143 376.172L100.473 376.962L99.4184 375.612L99.4177 375.599ZM77.3627 230.305C77.2886 230.189 77.3441 230.093 77.5007 230.093C77.6515 230.093 77.5819 229.958 77.3499 229.793C77.117 229.628 76.8938 229.524 76.854 229.563C76.7573 229.655 77.2357 230.516 77.383 230.516C77.4468 230.516 77.4375 230.422 77.3635 230.304L77.3627 230.305ZM124.186 229.604C124.186 229.495 124.044 229.52 123.872 229.659C123.7 229.798 123.283 230 122.945 230.108C122.349 230.299 122.353 230.303 123.05 230.203C123.575 230.128 123.733 230.171 123.634 230.361C123.56 230.504 123.653 230.438 123.842 230.211C124.031 229.985 124.185 229.712 124.185 229.604L124.186 229.604ZM78.3858 230.16C78.2279 230.098 78.04 230.107 77.9675 230.181C77.8945 230.252 78.0241 230.301 78.254 230.293C78.5083 230.293 78.5601 230.233 78.3866 230.164L78.3858 230.16ZM80.3095 229.523C82.5245 229.393 82.6653 229.333 81.9829 228.813C81.2383 228.246 79.7507 227.625 78.6779 227.433C77.8563 227.286 77.8302 227.298 78.1868 227.643C78.6711 228.112 78.6685 228.991 78.1868 229.53C77.8195 229.937 77.8215 229.946 78.2413 229.786C78.4814 229.694 79.4145 229.577 80.3152 229.523L80.3095 229.523ZM122.801 229.494C122.331 228.991 122.34 228.104 122.819 227.639C123.179 227.291 123.151 227.279 122.254 227.418C120.845 227.637 118.311 228.982 118.664 229.323C118.74 229.396 119.449 229.467 120.239 229.477C121.03 229.477 121.922 229.574 122.222 229.668C123.086 229.936 123.187 229.906 122.801 229.492L122.801 229.494ZM77.5782 228.184C77.4566 227.992 77.3748 227.998 77.2405 228.208C77.0105 228.569 77.2406 228.923 77.521 228.647C77.641 228.532 77.6664 228.322 77.5797 228.183L77.5782 228.184ZM123.82 228.274C123.737 228.062 123.617 228.021 123.478 228.156C123.228 228.398 123.478 228.885 123.755 228.714C123.862 228.65 123.891 228.452 123.821 228.274L123.82 228.274ZM77.6901 227.426C77.6901 227.381 77.5431 227.343 77.3627 227.343C77.1829 227.343 77.0352 227.435 77.0352 227.548C77.0352 227.661 77.1822 227.698 77.3627 227.632C77.5425 227.565 77.6901 227.473 77.6901 227.426V227.426ZM123.968 227.554C123.968 227.439 123.795 227.345 123.586 227.347C123.259 227.349 123.251 227.379 123.531 227.554C123.943 227.812 123.968 227.812 123.968 227.554H123.968Z" fill="black"/>
</g>
<defs>
<clipPath id="clip0_1_4068">
<rect width="600" height="400" fill="white"/>
</clipPath>
</defs>
</svg>
