<svg width="600" height="400" viewBox="0 0 600 400" fill="none" xmlns="http://www.w3.org/2000/svg" xmlns:cgf="https://coding.garden/flags"><metadata id="cgf-metadata">

<cgf:flag>
  <cgf:name>Peel en Maas</cgf:name>
  <cgf:route>nl/li/peel_en_maas</cgf:route>
  <cgf:aspect-ratio>1.5</cgf:aspect-ratio>
</cgf:flag>

</metadata><g clip-path="url(#clip0_1_4087)">
<path d="M599.99 0.14209H-0.104492V400.338H599.99V0.14209Z" fill="white"/>
<path d="M0.0052397 372.45V344.904L2.49511 344.612C7.11024 344.07 12.2229 342.052 16.3649 339.139C17.3772 338.428 20.7821 335.248 23.9313 332.073C31.3008 324.643 34.8283 322.215 41.3239 320.104C45.2891 318.816 52.7627 318.698 56.8553 319.859C63.1491 321.645 69.1606 325.724 75.2601 332.345C79.9302 337.416 82.5241 339.481 86.9963 341.693C92.9546 344.639 98.5827 345.428 104.813 344.19C111.631 342.836 116.565 339.703 123.977 332.024C132.812 322.868 138.773 319.611 147.791 319.011C154.365 318.573 160.919 320.481 166.501 324.458C168.168 325.646 172.018 329.139 175.055 332.219C178.091 335.3 181.636 338.541 182.931 339.422C192.963 346.242 204.571 346.473 215.029 340.062C216.307 339.278 220.124 335.844 223.511 332.43C234.121 321.734 240.841 318.445 250.923 319.015C259.902 319.521 266.24 322.969 274.849 332.03C281.47 338.998 285.051 341.463 291.618 343.57C295.519 344.822 302.288 344.942 306.342 343.831C312.479 342.149 318.32 338.204 323.881 331.985C329.104 326.143 334.957 322.08 340.902 320.167C344.877 318.887 351.01 318.583 355.096 319.462C362.278 321.007 366.852 323.947 375.267 332.43C383.425 340.654 387.302 342.98 395.043 344.299C398.232 344.842 399.519 344.869 402.672 344.455C410.438 343.437 416.476 339.933 423.723 332.239C432.7 322.707 438.648 319.504 448.285 319.011C453.541 318.743 457.773 319.692 462.782 322.262C466.63 324.237 471.939 328.538 474.954 332.125C479.631 337.69 486.251 342.113 492.434 343.806C495.959 344.772 502.777 344.778 506.34 343.822C507.802 343.429 510.724 342.211 512.833 341.116C516.262 339.336 517.346 338.448 523.066 332.727C529.838 325.954 532.306 324.007 537.107 321.651C544.29 318.127 553.588 317.996 560.911 321.317C565.297 323.307 568.978 326.165 575.278 332.475C583.23 340.438 587.056 342.799 594.31 344.22C598.553 345.05 599.312 344.921 599.641 343.313C599.785 342.612 599.924 355.08 599.951 371.019L599.999 400H300.002H0.0052397V372.454V372.45ZM599.707 199.785C599.711 198.618 599.79 198.19 599.884 198.836C599.978 199.481 599.975 200.437 599.878 200.959C599.781 201.481 599.704 200.952 599.707 199.785H599.707ZM146.63 80.1968C138.514 79.4323 132.606 76.107 124.544 67.767C114.795 57.6821 109.076 54.7193 99.3907 54.7345C94.3469 54.7427 91.5041 55.4181 86.9164 57.6991C82.6476 59.8216 79.6479 62.233 74.6549 67.5556C69.8376 72.6911 66.8137 75.1074 62.4366 77.3188C57.7077 79.708 54.1275 80.4126 48.11 80.1383C42.6559 79.8898 39.113 78.8882 34.8065 76.3776C31.4367 74.4132 29.8292 73.0371 23.7269 66.8934C20.6902 63.836 16.9937 60.5259 15.5127 59.5377C12.0425 57.2223 6.80247 55.2471 3.11752 54.8653L0.20966 54.5641L0.104835 27.2821L0 0H300H600L599.944 28.3436C599.913 43.9326 599.809 56.2573 599.711 55.7318C599.554 54.8852 599.289 54.7764 597.378 54.7764C592.601 54.7764 585.197 57.7565 580.894 61.4119C579.946 62.2171 577.002 65.1187 574.35 67.8599C565.467 77.0449 558.795 80.3314 549.097 80.3004C539.526 80.2698 533.93 77.3706 523.879 67.2353C517.623 60.9276 515.13 58.987 510.923 57.1484C503.133 53.7445 493.905 53.9833 486.65 57.7763C482.421 59.9872 480.671 61.4094 474.643 67.5326C465.003 77.3253 459.158 80.2896 449.49 80.2896C439.871 80.2896 432.834 76.7166 423.928 67.3099C418.905 62.0043 417.031 60.437 413.054 58.2117C408.811 55.8379 404.586 54.7749 399.425 54.7827C394.69 54.7895 391.337 55.5 387.491 57.3104C383.482 59.1979 380.272 61.7624 374.614 67.5978C368.98 73.4096 365.301 76.1759 360.621 78.1218C356.618 79.7859 354.06 80.2825 349.491 80.2825C339.736 80.2825 333.817 77.2488 323.723 67.0757C315.97 59.2615 312.142 56.8078 305.136 55.1622C302.111 54.4519 295.848 54.6588 292.378 55.5837C285.906 57.3089 282.384 59.7028 274.235 67.9137C269.419 72.7672 267.352 74.5329 264.624 76.1247C259.044 79.3807 256.491 80.0415 249.492 80.0415C242.494 80.0415 239.941 79.3807 234.361 76.1247C231.633 74.5329 229.566 72.7672 224.749 67.9137C216.606 59.708 213.093 57.3192 206.607 55.5777C203.128 54.6438 196.919 54.4384 193.869 55.1564C186.927 56.7909 182.958 59.2986 175.669 66.6547C169.748 72.6299 167.448 74.5583 163.604 76.7703C159 79.4187 152.437 80.7438 146.63 80.1968H146.63Z" fill="black"/>
<path d="M187.706 299.746C180.749 289.332 175.098 280.652 175.149 280.458C175.2 280.263 180.939 271.583 187.902 261.168L200.564 242.232L201.556 243.621C203.342 246.123 226.022 280.182 226.103 280.484C226.203 280.861 200.971 318.682 200.619 318.682C200.475 318.682 194.664 310.161 187.706 299.746V299.746ZM199.884 237.685C197.427 234.057 175.782 201.616 175.537 201.193C175.362 200.892 180.304 193.101 187.793 181.873C194.695 171.524 200.473 162.901 200.632 162.709C200.979 162.293 226.11 199.694 226.152 200.688C226.181 201.387 201.464 238.807 200.953 238.837C200.8 238.845 200.319 238.328 199.884 237.685V237.685ZM242.877 222.821C236.988 214.006 231.257 205.446 230.141 203.798L228.113 200.803L240.572 182.143C247.424 171.879 253.247 163.261 253.512 162.99C253.879 162.615 256.951 166.93 266.467 181.181C273.328 191.456 279.063 200.086 279.213 200.359C279.466 200.823 254.63 238.494 253.91 238.737C253.731 238.798 248.765 231.635 242.877 222.821V222.821ZM134.952 219.501C127.991 209.082 122.349 200.364 122.413 200.127C122.478 199.891 128.183 191.229 135.092 180.877C144.766 166.383 147.766 162.171 148.139 162.557C148.406 162.832 154.235 171.453 161.092 181.713L173.559 200.369L171.795 202.944C170.825 204.361 165.121 212.877 159.12 221.868C153.119 230.859 148.073 238.268 147.908 238.33C147.742 238.393 141.912 229.92 134.952 219.501ZM187.989 141.606C180.955 131.089 175.26 122.326 175.333 122.134C175.533 121.607 200.781 83.8906 200.867 83.9909C201.326 84.5272 226.386 122.199 226.386 122.353C226.386 122.55 201.643 159.716 201.052 160.407C200.901 160.583 195.022 152.123 187.989 141.606Z" fill="#E91A21"/>
</g>
<defs>
<clipPath id="clip0_1_4087">
<rect width="600" height="400" fill="white"/>
</clipPath>
</defs>
</svg>
