<svg width="600" height="400" viewBox="0 0 600 400" fill="none" xmlns="http://www.w3.org/2000/svg" xmlns:cgf="https://coding.garden/flags"><metadata id="cgf-metadata">

<cgf:flag>
  <cgf:name>Roermond</cgf:name>
  <cgf:route>nl/li/roermond</cgf:route>
  <cgf:aspect-ratio>1.5</cgf:aspect-ratio>
</cgf:flag>

</metadata><g clip-path="url(#clip0_1_4100)">
<path d="M599.923 199.981H0.081543V399.906H599.923V199.981Z" fill="#0058B9"/>
<path d="M599.926 0.0703125H0.0849609V199.995H599.926V0.0703125Z" fill="white"/>
<path d="M183.65 128.391C183.65 129.129 183.078 129.86 181.968 130.542C180.857 131.224 179.23 131.843 177.178 132.365C175.126 132.887 172.691 133.301 170.01 133.584C167.329 133.866 164.456 134.012 161.555 134.012C158.653 134.012 155.78 133.866 153.099 133.584C150.419 133.301 147.983 132.887 145.931 132.365C143.88 131.843 142.252 131.224 141.142 130.542C140.031 129.86 139.46 129.129 139.46 128.391C139.46 127.653 140.031 126.922 141.142 126.24C142.252 125.558 143.88 124.938 145.931 124.416C147.983 123.894 150.419 123.48 153.099 123.198C155.78 122.915 158.653 122.77 161.555 122.77C164.456 122.77 167.329 122.915 170.01 123.198C172.691 123.48 175.126 123.894 177.178 124.416C179.23 124.938 180.857 125.558 181.968 126.24C183.078 126.922 183.65 127.653 183.65 128.391V128.391Z" fill="#D40000"/>
<path d="M143.99 120.522C140.414 102.616 111.895 99.0983 119.296 124.796C73.6051 125.019 84.1056 63.5856 122.503 71.3764C139.779 76.2708 152.926 98.2759 152.97 120.522H143.99Z" fill="#D40000"/>
<path d="M178.551 120.617C182.127 102.711 210.646 99.193 203.246 124.891C248.936 125.113 238.436 63.6803 200.039 71.4711C182.762 76.3655 169.616 98.3706 169.571 120.617H178.551Z" fill="#D40000"/>
<path d="M161.328 30.0059C143.941 40.9672 130.301 54.0352 146.587 83.9346C151.737 94.6846 157.46 106.44 157.359 120.522H161.328L165.296 81.8425L161.328 30.0059Z" fill="#D40000"/>
<path d="M161.335 29.9644C178.721 40.9257 192.362 53.9937 176.075 83.893C170.925 94.6431 165.203 106.399 165.303 120.481H161.335L157.366 81.801L161.335 29.9644Z" fill="#D40000"/>
<path d="M119.536 137.124C126.883 152.698 141.9 148.743 145.433 137.124H154.974C146.606 181.919 105.415 159.459 119.536 137.124Z" fill="#D40000"/>
<path d="M205.147 137.197C197.8 152.771 182.783 148.816 179.25 137.197H169.709C178.077 181.993 219.267 159.532 205.147 137.197Z" fill="#D40000"/>
<path d="M157.219 137.124H163.553L161.328 187.622C149.4 177.556 147.975 167.489 153.13 157.423C156.246 150.656 157.604 143.89 157.3 137.124H157.219Z" fill="#D40000"/>
<path d="M165.46 137.205H159.126L161.352 187.703C173.28 177.637 174.705 167.57 169.549 157.504C166.434 150.738 165.075 143.971 165.38 137.205H165.46Z" fill="#D40000"/>
</g>
<defs>
<clipPath id="clip0_1_4100">
<rect width="600" height="400" fill="white"/>
</clipPath>
</defs>
</svg>
