<svg width="600" height="400" viewBox="0 0 600 400" fill="none" xmlns="http://www.w3.org/2000/svg" xmlns:cgf="https://coding.garden/flags"><metadata id="cgf-metadata">

<cgf:flag>
  <cgf:name>Simpelveld</cgf:name>
  <cgf:route>nl/li/simpelveld</cgf:route>
  <cgf:aspect-ratio>1.5</cgf:aspect-ratio>
</cgf:flag>

</metadata><g clip-path="url(#clip0_1_4118)">
<path d="M0.0488281 0.105957L0.1806 400.197L599.984 400.047V0.149799L0.0488281 0.105957Z" fill="white"/>
<path d="M0.0917969 -0.0369056L0.223569 137.918L600.027 137.862V-0.0258423L0.0917971 -0.0444336L0.0917969 -0.0369056Z" fill="#0F47AF"/>
<path d="M0.103516 273.234L0.235295 400.129L600.039 400.078V273.244L0.103523 273.228L0.103516 273.234Z" fill="#0F47AF"/>
<path d="M158.975 300.075C151.483 290.105 143.345 271.359 128.375 299.489C124.321 299.52 120.905 297.747 118.872 292.069C117.103 292.026 112.723 289.85 114.69 294.607C114.827 303.08 118.867 307.869 126.094 307.495L99.2954 359.437C100.789 368.475 107.498 370.468 117.664 368.719C118.255 368.617 143.634 294.936 119.252 369.201C123.418 380.885 133.85 375.453 136.738 372.911C136.924 373.071 136.754 373.148 136.778 372.859C143.222 289.991 138.089 372.89 138.222 373.053C145.785 382.306 155.353 377.366 157.626 372.797C157.704 372.639 157.54 372.813 157.601 372.656C157.795 372.74 157.737 372.953 157.702 372.716C145.385 289.789 158.743 372.704 158.906 372.767C170.711 377.43 175.49 372.14 175.399 365.375C175.397 365.155 161.352 334.62 161.339 334.396C161.582 334.471 176.29 364.807 176.524 364.886C188.815 369.065 194.065 359.16 192.426 354.946L164.297 306.714C171.781 303.519 172.498 297.344 173.04 291.092C171.674 289.562 170.606 286.658 168.288 289.53C166.626 294.774 163.676 298.474 158.975 300.075V300.075H158.975H158.975Z" fill="white"/>
<path d="M155.608 12.6128L114.318 28.6284C107.056 33.433 108.686 39.5725 110.386 44.377C113.18 54.4435 110.594 61.9688 98.343 64.9305C89.6948 65.9355 79.2162 64.842 81.8761 78.8109L77.9438 85.2171L86.0544 84.9501C92.1168 89.651 98.1792 89.7695 104.242 85.2171C115.091 82.3312 119.169 86.7998 124.395 90.0217C130.126 99.7232 132.989 111.5 146.023 115.914C170.6 121.424 195.178 117.179 219.755 116.181C217.39 112.522 222.962 107.473 201.813 107.105C202.394 97.9362 188.502 98.1977 176.499 97.2288L192.228 93.7586C190.676 88.1817 183.294 86.7014 170.6 88.9541C173.75 83.0686 169.322 78.9158 160.032 75.8745C176.032 70.6043 193.681 69.8092 210.907 67.8668L191.982 35.0347C179.034 44.164 165.771 50.5515 152.167 53.9864C146.33 56.5568 140.84 55.4683 143.565 48.1142C148.972 43.8803 153.359 39.739 143.32 36.9032L143.811 33.9671C158.43 28.3979 151.493 25.5302 150.201 21.9551C160.2 17.0605 154.324 15.6144 155.608 12.6128V12.6128Z" fill="white"/>
<path opacity="0.98" d="M96.839 74.7506C96.839 75.8551 96.2571 76.9144 95.2212 77.6954C94.1854 78.4764 92.7804 78.9152 91.3155 78.9152C89.8506 78.9152 88.4456 78.4764 87.4098 77.6954C86.3739 76.9144 85.792 75.8551 85.792 74.7506C85.792 73.646 86.3739 72.5867 87.4098 71.8057C88.4456 71.0247 89.8506 70.5859 91.3155 70.5859C92.7804 70.5859 94.1854 71.0247 95.2212 71.8057C96.2571 72.5867 96.839 73.646 96.839 74.7506V74.7506Z" fill="#005293"/>
</g>
<defs>
<clipPath id="clip0_1_4118">
<rect width="600" height="400" fill="white"/>
</clipPath>
</defs>
</svg>
