<svg width="600" height="400" viewBox="0 0 600 400" fill="none" xmlns="http://www.w3.org/2000/svg" xmlns:cgf="https://coding.garden/flags"><metadata id="cgf-metadata">

<cgf:flag>
  <cgf:name>Sittard-Geleen</cgf:name>
  <cgf:route>nl/li/sittard_geleen</cgf:route>
  <cgf:aspect-ratio>1.5</cgf:aspect-ratio>
</cgf:flag>

</metadata><g clip-path="url(#clip0_1_4113)">
<path d="M600 0H0V400H600V0Z" fill="#FCCC00"/>
<path d="M0.27586 400L-1.71356e-06 0L200 199.586L0.27586 400Z" fill="#CC112F"/>
<path d="M339.23 367.41C329.431 362.233 324.814 357.648 320.105 348.422C315.168 338.749 314.645 322.851 318.928 312.602C326.222 295.144 347.692 287.351 358.559 298.217L363.443 303.102L356.507 305.932C347.357 309.665 342.563 316.897 342.563 326.963C342.563 341.507 358.261 350.557 372.352 344.136C383.599 339.012 384.785 332.066 384.785 271.331V215.555L327.563 215.588C264.203 215.624 261.708 216.091 255.331 229.1C248.304 243.435 257.833 257.778 274.383 257.778C283.159 257.778 293.674 249.356 293.674 242.328C293.674 236.441 296.804 236.552 302.477 242.641C316.795 258.01 295.974 284.444 269.551 284.444C247.364 284.444 226.908 263.886 227.056 241.738C227.165 225.529 242.003 205.778 256.207 202.938C264.34 201.311 264.34 198.688 256.207 197.062C242.003 194.221 227.165 174.471 227.056 158.262C226.908 136.114 247.364 115.555 269.551 115.555C295.974 115.555 316.795 141.99 302.477 157.359C296.804 163.448 293.674 163.559 293.674 157.671C293.674 150.643 283.159 142.222 274.383 142.222C257.833 142.222 248.304 156.565 255.331 170.899C261.708 183.908 264.203 184.375 327.563 184.411L384.785 184.444V128.669C384.785 82.9228 384.167 71.59 381.345 65.6435C375.163 52.6164 360.634 49.6339 349.4 59.0862C337.385 69.1965 341.166 87.8076 356.507 94.0674L363.443 96.8977L358.559 101.782C347.692 112.648 326.222 104.855 318.928 87.3971C312.574 72.1911 317.06 49.6987 328.438 39.7122C340.523 29.1051 359.805 25.8194 374.336 31.891C382.839 35.4437 395.261 48.9172 397.216 56.7072C398.986 63.7586 401.696 63.7586 403.466 56.7072C405.421 48.9172 417.843 35.4437 426.346 31.891C440.877 25.8194 460.159 29.1051 472.244 39.7122C483.622 49.6987 488.108 72.1911 481.754 87.3971C474.46 104.855 452.99 112.648 442.123 101.782L437.239 96.8977L444.175 94.0674C453.325 90.3341 458.119 83.103 458.119 73.0362C458.119 58.4924 442.421 49.4429 428.33 55.8632C417.083 60.988 415.897 67.9339 415.897 128.669V184.444L473.119 184.411C536.479 184.375 538.974 183.908 545.351 170.899C552.378 156.565 542.849 142.222 526.299 142.222C517.523 142.222 507.008 150.643 507.008 157.671C507.008 163.559 503.878 163.448 498.205 157.359C483.887 141.99 504.708 115.555 531.131 115.555C553.318 115.555 573.774 136.114 573.626 158.262C573.517 174.471 558.679 194.221 544.475 197.062C536.342 198.688 536.342 201.311 544.475 202.938C558.679 205.778 573.517 225.529 573.626 241.738C573.774 263.886 553.318 284.444 531.131 284.444C504.708 284.444 483.887 258.01 498.205 242.641C503.878 236.552 507.008 236.441 507.008 242.328C507.008 249.356 517.523 257.778 526.299 257.778C542.849 257.778 552.378 243.435 545.351 229.1C538.974 216.091 536.479 215.624 473.119 215.588L415.897 215.555V271.331C415.897 317.077 416.515 328.41 419.337 334.356C425.519 347.383 440.048 350.366 451.282 340.913C463.297 330.803 459.516 312.192 444.175 305.932L437.239 303.102L442.123 298.217C452.99 287.351 474.46 295.144 481.754 312.602C488.108 327.808 483.622 350.301 472.244 360.287C460.159 370.894 440.877 374.18 426.346 368.109C417.843 364.556 405.421 351.082 403.466 343.292C401.696 336.241 398.986 336.241 397.216 343.292C395.261 351.082 382.839 364.556 374.336 368.109C364.757 372.111 347.475 371.767 339.23 367.41Z" fill="black"/>
</g>
<defs>
<clipPath id="clip0_1_4113">
<rect width="600" height="400" fill="white"/>
</clipPath>
</defs>
</svg>
