<svg width="600" height="400" viewBox="0 0 600 400" fill="none" xmlns="http://www.w3.org/2000/svg" xmlns:cgf="https://coding.garden/flags"><metadata id="cgf-metadata">

<cgf:flag>
  <cgf:name>Vaals</cgf:name>
  <cgf:route>nl/li/vaals</cgf:route>
  <cgf:aspect-ratio>1.5</cgf:aspect-ratio>
</cgf:flag>

</metadata><g clip-path="url(#clip0_1_4129)">
<path d="M0.0488281 0.105957L0.1806 400.197L599.984 400.047V0.149799L0.0488281 0.105957Z" fill="white"/>
<path d="M0.0917969 -0.0429405L0.223569 27.3188L600.027 27.3077V-0.040747L0.0917971 -0.0444336L0.0917969 -0.0429405Z" fill="#AA0000"/>
<path d="M0.103516 372.768L0.235295 400.129L600.039 400.118V372.77L0.103523 372.766L0.103516 372.768Z" fill="#AA0000"/>
<path d="M294.478 37.3273C284.668 38.0066 265.397 35.6208 268.711 40.5531C259.37 39.6454 253.005 41.7197 246.626 43.7789L247.776 63.1338L252.377 63.3642L254.218 66.59L256.058 63.3642L265.721 61.5208L275.613 61.7513C276.108 66.2828 278.563 70.8142 274.233 75.3457C272.963 80.7989 272.364 86.252 275.383 91.7052C267.615 91.0674 251.417 81.9882 253.297 91.0139C250.344 92.5238 247.171 93.8872 248.006 97.9264C251.101 95.1667 255.392 96.0026 259.279 95.6222L253.988 103.226C261.689 102.177 260.137 107.308 255.138 107.834L236.043 103.687L239.494 114.516H236.273L210.276 83.6407C210.597 81.0044 207.204 75.1995 215.107 79.0324C224.21 79.7122 225.204 66.035 215.797 69.5854L211.426 66.59L212.807 63.3642C223.659 56.9746 221.528 47.4823 212.116 53.9172H207.515V50.6914C210.775 32.0556 187.691 43.6684 196.932 51.8434L199.463 57.3734L196.702 60.1384L193.711 57.6038C184.798 51.0515 181.975 66.0516 189.34 66.3596L192.791 67.742L193.711 79.954C188.195 80.213 191.794 86.5588 191.181 90.0923C192.94 88.8066 192.356 84.7836 197.392 87.3273C189.958 106.425 197.274 112.321 203.834 118.894C197.046 121.826 192.24 126.413 194.585 136.967C198.642 133.714 202.848 132.176 207.515 135.945C200.422 142.343 194.98 149.55 202.1 162.914C206.868 157.305 212.821 158.221 218.788 159.217C215.042 161.757 215.926 166.616 217.638 171.89C214.908 174.483 214.374 178.395 208.926 179.355C203.347 181.198 200.51 185.785 196.932 189.631C189.85 191.132 188.546 185.036 186.119 180.415C179.575 164.437 168.772 180.734 173.696 182.949L174.156 186.866H171.396C161.349 180.943 163.427 203.158 171.165 198.387H175.307L175.077 202.074C160.777 203.774 179.776 222.771 185.199 211.521L187.96 207.834L189.34 208.756C193.389 218.2 203.556 209.444 200.153 205.069L200.613 203.456H207.975C212.808 206.454 214.792 204.696 216.948 203.226C220.76 199.118 222.087 202.976 224.54 203.226C227.507 204.513 230.306 204.726 232.362 200.231C234.816 197.744 237.27 198.235 239.724 199.078C248.065 203.509 247.786 194.03 251.227 190.553C257.497 197.716 268.863 195.137 278.144 196.544C285.679 198 296.264 203.126 296.319 212.443C281.44 213.132 262.675 207.982 254.448 218.664C244.754 220.705 233.87 225.303 228.221 218.664C225.774 231.94 231.871 235.125 241.334 234.332C233.755 234.488 224.269 235.551 228.451 251.613C232.566 246.325 236.367 246.695 240.184 246.774C243.395 256.054 231.34 264.831 216.027 273.502L210.736 273.042L205.675 267.512C198.991 256.848 180.428 271.988 193.481 274.655L195.782 277.419L194.632 279.724C184.083 276.23 186.706 292.587 193.021 288.71L196.932 291.244L196.242 295.392C186.372 301.246 201.688 307.195 204.064 300H206.595C207.382 305.015 217.469 306.371 213.957 299.77C213.7 295.92 215.594 294.941 219.938 297.235C224.241 306.171 228.107 296.751 232.132 294.009C232.995 292.892 234.668 292.471 234.138 290.073C233.485 287.119 237.045 284.966 242.715 286.636L245.475 291.244C247.289 288.82 250.9 286.16 247.446 279.553C244.956 274.792 251.133 270.103 259.739 275.346C262.253 270.415 261.951 265.25 260.597 260.952C258.232 253.448 266.959 252.421 271.242 256.452C268.473 236.358 285.347 237.43 291.257 235.714C292.554 249.906 289.185 265.806 314.494 271.198C311.27 263.285 314.174 259.464 317.254 255.76C317.955 264.717 320.562 271.668 327.377 274.194L332.208 263.134C332.113 269.278 335.203 275.423 341.181 281.567C347.107 295.315 343.809 309.063 342.331 322.811C337.579 328.793 335.131 325.544 331.978 325.115C320.801 313.848 309.693 339.97 323.006 337.788H329.448V342.396L326.917 343.779C320.643 346.544 325.923 358.314 332.438 352.074H337.5L338.19 355.53C336.338 361.065 347.787 366.904 347.623 356.452L351.534 353.917L353.834 355.761C360.611 357.478 360.347 352.145 362.346 349.078L361.656 346.314C361.55 341.061 366.632 341.005 370.629 339.862L369.478 330.645C369.875 325.965 372.008 325.342 375 326.728C378.169 324.194 376.918 321.659 373.159 319.125C370.696 308.718 374.104 303.015 380.291 299.539C370.415 284.799 359.343 269.427 379.831 270.737C379.302 265.625 375.596 261.011 369.873 258.18C363.68 255.116 365.828 248.276 376.61 249.309C380.536 238.606 372.377 235.176 361.382 233.835C353.668 232.894 346.36 227.799 343.021 220.507C370.204 229.859 389.508 225.905 385.583 182.719C411.362 164.231 418.924 137.137 391.628 118.588C390.196 117.615 389.891 113.274 388.573 111.982C394.965 105.295 398.885 97.5511 407.233 88.1299C412.346 82.3596 412.044 73.046 412.04 63.825C409.732 68.3317 408.914 73.4775 402.607 76.2674C403.652 61.5208 406.292 46.7743 388.343 32.0278C393.287 39.6314 396.566 47.2351 391.794 54.8388C389.981 61.6215 388.899 68.4829 393.022 77.1865C397.504 86.6488 391.407 97.5572 378.681 104.839C368.129 98.301 362.937 89.6849 371.319 75.8066C375.294 67.9993 378.25 60.2831 374.48 55.4567C368.143 47.3439 368.36 40.1125 368.098 31.7973C363.234 39.852 361.536 48.858 362.807 58.7559C360.762 53.7895 358.814 48.9197 357.975 45.1614C357.676 50.6146 354.87 56.0677 351.534 61.5208C350.413 62.8903 348.594 67.5413 351.571 71.1413C357.221 77.9729 357.249 84.2919 357.745 89.401C350.572 101.379 358.679 109.787 369.708 117.512C338.859 141.014 341.126 164.516 375.92 188.019C375.368 214.282 362.554 218.754 343.021 211.29C322.197 200.522 309.646 184.655 296.549 169.125L303.451 170.277L300.23 147.466C304.974 151.232 308.953 152.315 311.963 150C304.402 140.473 307.56 131.713 311.963 123.042C313.403 124.016 312.861 126.052 319.555 126.728C312.365 118.848 314.639 112.154 313.804 105.069C315.414 106.989 317.024 106.388 318.635 105.76C318.205 101.055 314.616 98.4591 311.733 95.3918C316.344 95.9152 320.071 94.2271 322.086 88.249C315.959 84.3319 316.776 80.4149 314.494 76.4978C319.887 76.325 324.41 75.1222 325.077 69.355C320.866 69.3952 319.73 66.9719 317.484 65.4379C324.031 60.6977 324.423 55.633 322.776 50.4609C319.402 54.1079 316.027 52.8056 312.653 52.3043C312.849 48.9159 310.127 49.0988 306.442 50.4609C310.85 45.1481 314.849 39.6988 320.475 34.7927C316.104 34.7579 311.733 34.5669 307.362 36.6361L309.662 29.7236C300.494 29.444 295.404 31.9588 294.478 37.3273V37.3273Z" fill="#AA0000" stroke="#1E1E1E"/>
<path d="M374.08 130.53C367.968 140.786 357.234 151.159 374.54 160.829C379.912 162.618 382.39 166.25 384.432 170.161C405.664 146.848 386.496 140.07 374.08 130.53Z" fill="white" stroke="#1E1E1E"/>
<path d="M272.971 46.6193C275.74 37.7179 285.173 45.5899 284.196 51.833C280.563 52.1603 276.93 52.8982 273.297 49.8778L272.971 46.6193V46.6193Z" fill="white" stroke="#1E1E1E"/>
<path d="M279.153 48.0854C279.153 48.4493 279.073 48.8096 278.918 49.1457C278.763 49.4819 278.535 49.7874 278.248 50.0447C277.961 50.3021 277.62 50.5062 277.245 50.6455C276.87 50.7847 276.468 50.8564 276.062 50.8564C275.656 50.8564 275.254 50.7847 274.879 50.6455C274.504 50.5062 274.163 50.3021 273.876 50.0447C273.589 49.7874 273.361 49.4819 273.206 49.1457C273.051 48.8096 272.971 48.4493 272.971 48.0854C272.971 47.7216 273.051 47.3613 273.206 47.0251C273.361 46.6889 273.589 46.3835 273.876 46.1261C274.163 45.8688 274.504 45.6647 274.879 45.5254C275.254 45.3861 275.656 45.3145 276.062 45.3145C276.468 45.3145 276.87 45.3861 277.245 45.5254C277.62 45.6647 277.961 45.8688 278.248 46.1261C278.535 46.3835 278.763 46.6889 278.918 47.0251C279.073 47.3613 279.153 47.7216 279.153 48.0854V48.0854Z" fill="black"/>
<path d="M272.508 80.8754C267.546 79.0268 266.806 71.9893 255.828 77.5344C245.904 79.8668 242.042 73.43 237.423 68.0874C234.902 78.1024 241.296 84.2525 252.492 84.4468C254.461 84.0253 256.082 84.0445 258.756 82.1019C263.418 78.7158 268.096 81.0838 272.508 80.8754Z" fill="#FFC700" stroke="#1E1E1E"/>
<path d="M215.383 52.8106C216.358 50.6969 217.13 50.095 216.522 46.7822C221.867 49.4765 220.904 53.484 219.938 55.4174C215.914 56.6612 215.143 54.0766 215.383 52.8106V52.8106Z" fill="#FFC700" stroke="#1E1E1E"/>
<path d="M197.162 42.1684C196.983 39.8472 197.364 38.9443 195.22 36.3495C201.198 36.0905 202.309 40.0592 202.407 42.2189C199.5 45.2705 197.568 43.3911 197.162 42.1684V42.1684Z" fill="#FFC700" stroke="#1E1E1E"/>
<path d="M220.246 70.2536C222.435 69.4723 223.405 69.6043 225.344 66.8516C227.16 72.5616 223.627 74.676 221.572 75.3371C217.87 73.3272 219.174 70.9669 220.246 70.2536V70.2536Z" fill="#FFC700" stroke="#1E1E1E"/>
<path d="M188.581 56.7283C186.751 55.2933 185.789 55.1112 184.82 51.8857C181.293 56.7269 183.976 59.8521 185.717 61.1305C189.864 60.3969 189.372 57.7446 188.581 56.7283Z" fill="#FFC700" stroke="#1E1E1E"/>
<path d="M174.834 177.219C173.24 175.524 172.971 174.582 169.676 173.91C174.167 169.95 177.52 172.341 178.95 173.96C178.599 178.164 175.917 177.915 174.834 177.219V177.219Z" fill="#FFC700" stroke="#1E1E1E"/>
<path d="M164.675 195.61C162.417 195.06 161.678 194.416 158.55 195.652C160.16 189.88 164.272 190.054 166.352 190.631C168.346 194.346 165.962 195.603 164.675 195.61V195.61Z" fill="#FFC700" stroke="#1E1E1E"/>
<path d="M173.27 213.445C170.989 213.893 170.049 213.618 167.725 216.053C166.774 210.136 170.58 208.569 172.711 208.221C176.075 210.758 174.435 212.899 173.27 213.445Z" fill="#FFC700" stroke="#1E1E1E"/>
<path d="M193.417 211.89C194.054 214.129 194.724 214.843 193.613 218.022C199.309 216.187 198.976 212.079 198.319 210.019C194.535 208.168 193.375 210.602 193.417 211.89V211.89Z" fill="#FFC700" stroke="#1E1E1E"/>
<path d="M189.737 270.139C187.816 268.828 187.351 267.965 183.989 268.018C187.526 263.184 191.313 264.798 193.057 266.071C193.616 270.252 190.944 270.587 189.737 270.139Z" fill="#FFC700" stroke="#1E1E1E"/>
<path d="M189.137 286.555C186.861 286.08 186.102 285.462 183.016 286.801C184.434 280.979 188.549 281.016 190.647 281.523C192.764 285.17 190.423 286.505 189.137 286.555Z" fill="#FFC700" stroke="#1E1E1E"/>
<path d="M197.789 302.714C195.583 303.446 194.616 303.292 192.616 306C190.928 300.251 194.508 298.216 196.577 297.602C200.234 299.694 198.877 302.025 197.789 302.714V302.714Z" fill="#FFC700" stroke="#1E1E1E"/>
<path d="M208.278 304.406C209.025 306.611 209.73 307.291 208.777 310.521C214.375 308.405 213.839 304.319 213.082 302.294C209.211 300.633 208.172 303.122 208.278 304.406Z" fill="#FFC700" stroke="#1E1E1E"/>
<path d="M320.023 330.582C317.752 330.088 316.997 329.463 313.9 330.776C315.367 324.966 319.482 325.038 321.576 325.563C323.661 329.227 321.309 330.542 320.023 330.582V330.582Z" fill="#FFC700" stroke="#1E1E1E"/>
<path d="M326.973 354.623C325.164 356.085 324.205 356.281 323.284 359.521C319.685 354.733 322.322 351.568 324.044 350.264C328.201 350.935 327.749 353.595 326.973 354.623V354.623Z" fill="#FFC700" stroke="#1E1E1E"/>
<path d="M345.647 361.572C344.686 363.692 343.916 364.298 344.545 367.607C339.184 364.945 340.122 360.932 341.076 358.993C345.093 357.725 345.88 360.305 345.647 361.572Z" fill="#FFC700" stroke="#1E1E1E"/>
<path d="M356.966 354.893C358.269 356.821 359.129 357.289 359.064 360.657C363.903 357.131 362.305 353.333 361.039 351.582C356.867 351.007 356.524 353.683 356.966 354.893V354.893Z" fill="#FFC700" stroke="#1E1E1E"/>
<path d="M290.785 236.348C291.63 232.429 293.4 228.469 296.66 224.542C299.74 220.831 298.48 215.677 296.072 211.909" stroke="#1E1E1E"/>
<path d="M217.661 171.422C219.99 176.31 219.259 181.197 227.096 186.085C226.84 182.609 227.556 179.134 234.58 175.658C237.539 180.22 233.894 184.782 245.316 189.344C243.975 185.416 246.242 183.094 248.733 180.872C252.434 184.395 253.577 189.084 261.584 190.647C259.852 185.559 263.674 181.756 267.441 177.939C270.989 182.593 272.203 188.137 284.359 189.507C280.695 185.3 284.79 180.607 287.775 175.984C294.694 169.944 290.172 165.432 291.192 160.18C292.34 163.7 293.073 167.636 297.048 168.326" stroke="#1E1E1E"/>
<path d="M236.206 114.886C223.892 110.427 214.362 108.757 208.551 110.813C216.067 115.145 223.461 119.457 203.02 119.122" stroke="#1E1E1E"/>
<path d="M308.435 35.8657C302.652 36.8732 299.444 40.3622 297.048 44.338" stroke="#1E1E1E"/>
</g>
<defs>
<clipPath id="clip0_1_4129">
<rect width="600" height="400" fill="white"/>
</clipPath>
</defs>
</svg>
