<svg width="600" height="400" viewBox="0 0 600 400" fill="none" xmlns="http://www.w3.org/2000/svg" xmlns:cgf="https://coding.garden/flags"><metadata id="cgf-metadata">

<cgf:flag>
  <cgf:name>Venlo</cgf:name>
  <cgf:route>nl/li/venlo</cgf:route>
  <cgf:aspect-ratio>1.5</cgf:aspect-ratio>
</cgf:flag>

</metadata><g clip-path="url(#clip0_1_4165)">
<path d="M599.873 0.119629H0.117188V201.907H599.873V0.119629Z" fill="#DA131B"/>
<path d="M599.919 198.115H0.163086V399.902H599.919V198.115Z" fill="#144BB1"/>
<path d="M285.591 263.705C269.356 276.687 252.148 286.125 234.223 292.953C242.944 294.208 250.401 295.682 253.248 297.956C231.658 311.672 209.696 328.541 188.881 335.67C177.094 339.448 168.287 338.06 168.27 321.431V221.373L161.929 219.834V378.387C165.227 371.399 170.027 363.691 183.807 355.681C209.582 344.266 231.657 322.372 255.151 304.498C256.845 310.784 255.545 317.069 254.834 323.355C268.377 303.121 277.726 282.933 285.591 263.705V263.705Z" fill="#FCDD09" stroke="black"/>
<path d="M255.359 302.508L267.886 290.712L255.574 305.121L255.359 302.508Z" fill="black"/>
<path d="M255.547 298.148L260.541 293.626L251.187 297.86L255.547 298.148V298.148Z" fill="black"/>
<path d="M259.114 300.457C260.05 302.648 259.727 306.663 259.907 309.789C260.886 306.284 261.628 302.246 261.017 298.244L259.114 300.457Z" fill="black"/>
<path d="M261.857 296.602C262.723 298.501 262.424 301.981 262.591 304.69C263.497 301.653 264.183 298.153 263.618 294.685L261.857 296.602Z" fill="black"/>
<path d="M264.948 293.64C265.64 295.082 265.401 297.725 265.534 299.784C266.257 297.476 266.806 294.818 266.354 292.183L264.948 293.64V293.64Z" fill="black"/>
<path d="M161.929 369.151C165.545 363.974 170.098 358.229 175.405 352.026C171.694 355.662 168.545 358.161 163.673 364.148L161.929 340.673V369.151V369.151Z" fill="black"/>
<path d="M38.2666 263.705C54.5011 276.687 71.7093 286.125 89.6339 292.953C80.9132 294.208 73.4564 295.682 70.6091 297.956C92.1996 311.672 114.161 328.541 134.977 335.67C146.763 339.448 155.57 338.06 155.587 321.431V221.373L161.929 219.834V378.387C158.63 371.399 153.831 363.691 140.05 355.681C114.275 344.266 92.2005 322.372 68.7066 304.498C67.0125 310.784 68.3121 317.069 69.0235 323.355C55.4798 303.121 46.1314 282.933 38.2666 263.705V263.705Z" fill="#FCDD09" stroke="black"/>
<path d="M68.4978 302.508L55.9712 290.712L68.2832 305.121L68.4978 302.508Z" fill="black"/>
<path d="M68.31 298.148L63.3159 293.626L72.6698 297.86L68.31 298.148V298.148Z" fill="black"/>
<path d="M64.7428 300.457C63.8067 302.648 64.1297 306.663 63.9501 309.789C62.971 306.284 62.2292 302.246 62.8403 298.244L64.7428 300.457Z" fill="black"/>
<path d="M62.0004 296.602C61.1341 298.501 61.4328 301.981 61.2667 304.69C60.3607 301.653 59.6742 298.153 60.2397 294.685L62.0004 296.602Z" fill="black"/>
<path d="M58.9087 293.64C58.2171 295.082 58.4556 297.725 58.323 299.784C57.5997 297.476 57.0514 294.818 57.503 292.183L58.9087 293.64V293.64Z" fill="black"/>
<path d="M161.929 369.151C158.312 363.974 153.76 358.229 148.453 352.026C152.163 355.662 155.312 358.161 160.185 364.148L161.929 340.673V369.151V369.151Z" fill="black"/>
<path d="M156.956 222.935L161.929 221.277L167.002 222.528L163.197 372.999L161.929 376.174L160.423 372.422L160.501 355.393L156.955 222.935H156.956Z" fill="#FCDD09"/>
<path d="M168.334 236.337L155.722 236.405C154.012 234.818 154.201 232.846 155.666 231.915L168.334 231.982C171.872 234.046 169.353 236.839 168.334 236.336L168.334 236.337Z" fill="#FCDD09" stroke="black"/>
<path d="M174.572 241.529L177.743 244.848C176.487 246.8 176.048 250.861 178.06 252.449C180.699 254.394 182.559 252.959 183.173 249.418C183.135 245.624 181.005 243.674 177.743 244.896L175.008 240.759C185.254 231.5 193.658 251.594 183.57 258.51C174.062 263.271 168.157 249.699 174.572 241.529V241.529Z" fill="#FCDD09" stroke="black"/>
<path d="M171.005 234.458C173.969 235.485 177.957 239.663 176.039 242.491C174.32 244.69 170.919 238.245 169.935 236.093L167.24 237.296C167.187 242.558 172.746 249.139 176.713 249.13C179.559 249.824 181.48 245.381 181.429 243.068C182.036 238.225 176.525 230.798 169.42 230.85L171.243 234.65L171.005 234.458V234.458Z" fill="#FCDD09" stroke="black"/>
<path d="M182.46 245.329C180.451 243.983 178.523 242.442 175.801 242.828L174.295 240.23C176.095 238.432 179.777 237.464 183.094 239.172L182.46 245.329V245.329Z" fill="#FCDD09" stroke="black"/>
<path d="M181.4 242.876C182.396 243.383 183.269 244.686 183.728 245.81L184.56 245.04L184.134 241.721C183.395 240.967 182.586 240.442 181.637 240.194L180.954 241.048L181.4 242.876V242.876Z" fill="#FCDD09"/>
<path d="M87.7396 18.298C90.3249 13.3788 85.9562 9.22351 79.5445 7.75244C82.5443 11.3761 84.04 14.9362 81.3367 18.3189C79.6966 17.8675 78.1462 17.0866 75.7927 19.2503C73.9396 17.9839 71.9844 18.3857 69.998 19.2969C64.5393 18.4361 58.3351 16.6217 55.3858 18.9709C58.5094 21.6281 61.8785 24.1592 62.1317 28.2896C57.9549 31.4158 57.3754 34.694 61.223 38.1592C56.4155 40.7028 56.1656 43.9891 55.7892 47.2547C52.0899 52.9112 48.816 51.6169 45.5422 50.3187C46.5192 55.0131 49.9659 57.788 56.9734 57.7955C59.2569 60.33 61.6157 61.6356 64.1994 59.2664L65.6697 70.1107C57.1473 70.9003 50.6034 73.6752 52.2789 84.6982C53.6826 81.7744 55.6825 79.3242 61.4164 79.8389C63.7052 80.6272 65.9147 82.7159 68.3563 81.0064C68.7077 86.1214 70.3555 91.4702 74.6753 97.3009C75.013 101.689 77.4969 104.533 81.439 106.329C60.825 137.114 46.1507 106.479 63.9837 107.631C52.4795 96.3295 42.2532 115.532 54.976 125.318C65.0649 131.479 75.9526 124.587 86.862 117.34C83.2231 125.068 80.464 132.975 70.2725 139.369C75.7794 139.496 81.2143 138.801 86.3853 135.096L73.8001 151.466C67.1875 158.537 60.2911 164.306 50.5874 157.188C55.6293 152.738 54.953 148.047 55.6976 143.416L49.3144 148.1C51.1526 138.385 48.1628 131.663 35.1076 131.181C40.305 137.251 41.7142 143.419 38.8522 149.698C35.8575 147.978 35.8211 150.042 35.383 151.591C23.4005 151.418 20.9009 158.35 22.1703 163.272C25.0221 162.066 26.4787 159.38 31.7735 160.764C32.293 161.854 31.1542 162.875 33.7062 164.051C29.5196 166.021 28.4049 168.416 29.9171 171.176L30.4185 172.946C21.9349 176.409 18.2478 181.706 22.6624 190.103C27.2537 186.012 32.197 183.697 37.6659 184.034C36.6112 185.155 35.6961 186.282 37.4524 187.522C41.2641 189.271 45.8323 186.477 50.5426 182.83C52.1868 181.929 60.6922 178.528 68.0352 185.9C73.0981 183.955 74.4075 179.355 76.3122 175.176C79.1904 173.258 82.0097 171.337 88.2396 169.561C88.1758 173.378 91.7484 174.057 95.878 174.255C99.1635 177.027 99.6842 179.975 97.7768 183.077C105.676 179.713 105.063 174.081 105.963 168.853C104.751 153.702 117.723 151.31 126.612 145.247C130.573 150.457 147.225 153.947 159.668 158.008C168.533 160.302 177.362 162.721 184.086 172.445C189.994 182.174 196.265 185.963 202.496 190.416L218.426 174.187C201.767 159.656 189.084 143.144 186.59 121.554C190.693 117.591 193.073 112.954 189.375 105.935C194.658 109.56 197.306 106.025 200.212 103.188C199.727 96.3752 203.073 92.2723 205.733 87.6847C206.999 83.1728 208.765 78.682 205.049 73.9595L203.011 77.3704C205.2 70.1131 210.243 59.7104 198.175 56.7674L198.031 54.1386L195.437 51.6977C197.472 43.4918 202.898 40.7716 206.788 35.5669C203.014 32.4094 200.941 34.3806 199.08 36.9897C194.872 34.1936 191.282 36.8679 191.785 41.6355C190.424 43.5937 182.839 43.717 184.772 36.6766C187.806 37.3755 191.276 35.105 187.185 32.1161C191.505 27.4313 183.908 24.6521 182.767 29.5981C177.715 27.0831 177.016 32.7411 180.354 34.1587C177.308 38.2455 171.173 38.033 170.883 32.2024C174.698 31.3045 174.694 25.0949 169.224 25.8475C167.753 20.3505 165.054 21.0299 162.368 21.6428C163.493 27.4255 164.972 33.2233 163.898 38.9132L184.142 48.0108L163.904 38.8104L141.833 49.0051C141.087 49.8932 140.666 50.7031 142.795 50.9002C139.022 54.8908 140.723 59.3757 142.54 63.8711L144.254 64.0465C144.504 65.7324 144.811 67.3858 146.81 68.0696L147.631 63.468C154.329 62.4468 159.547 67.6404 158.77 75.1688C157.018 84.5621 152.928 88.9914 141.207 85.6569L140.769 80.487C138.833 81.4567 136.934 83.5966 137.647 83.961L135.819 82.1323C135.948 86.888 132.65 89.9996 130.48 93.652C127.881 90.8581 125.179 88.6207 121.733 90.3977C113.32 89.6971 106.984 87.4786 106.352 81.0934C101.498 79.6335 98.7156 83.3664 99.081 83.671L87.6902 58.4629L87.0128 37.8284L91.0475 38.8231C95.044 40.3537 97.0852 36.7386 99.7088 34.6558C104.86 33.1129 107.729 29.812 106.85 23.6244C104.009 28.6969 99.7853 28.2219 95.5964 27.8882C94.6538 24.3665 93.2638 20.9314 87.7398 18.298H87.7396Z" fill="#FCDD09" stroke="black"/>
<path fill-rule="evenodd" clip-rule="evenodd" d="M168.833 28.716C168.784 29.5105 168.119 30.1282 167.347 30.0956C166.576 30.063 165.989 29.3924 166.038 28.5979C166.087 27.8033 166.752 27.1856 167.523 27.2182C168.295 27.2508 168.882 27.9214 168.833 28.716Z" fill="black"/>
<path fill-rule="evenodd" clip-rule="evenodd" d="M185.167 33.0118C185.119 33.8064 184.454 34.4241 183.682 34.3915C182.91 34.3589 182.324 33.6883 182.372 32.8938C182.421 32.0992 183.086 31.4815 183.858 31.5141C184.63 31.5467 185.216 32.2173 185.167 33.0118Z" fill="black"/>
<path fill-rule="evenodd" clip-rule="evenodd" d="M198.171 40.6705C198.122 41.4651 197.457 42.0828 196.685 42.0502C195.913 42.0176 195.327 41.347 195.376 40.5525C195.424 39.7579 196.09 39.1402 196.861 39.1728C197.633 39.2054 198.219 39.876 198.171 40.6705Z" fill="black"/>
<path fill-rule="evenodd" clip-rule="evenodd" d="M170.87 51.5161C170.703 54.2551 167.964 56.3655 164.752 56.2298C161.541 56.0941 159.073 53.7638 159.241 51.0248C159.408 48.2858 162.147 46.1754 165.359 46.3111C168.57 46.4468 171.038 48.7772 170.87 51.5161Z" fill="white"/>
<path fill-rule="evenodd" clip-rule="evenodd" d="M167.072 49.4429C167.025 50.2154 166.357 50.8151 165.58 50.7823C164.804 50.7495 164.212 50.0966 164.26 49.3241C164.307 48.5516 164.975 47.9519 165.751 47.9847C166.528 48.0175 167.119 48.6704 167.072 49.4429Z" fill="black"/>
<path fill-rule="evenodd" clip-rule="evenodd" d="M166.805 51.9454C166.758 52.7179 166.09 53.3175 165.313 53.2847C164.537 53.2519 163.945 52.5991 163.993 51.8265C164.04 51.054 164.708 50.4543 165.484 50.4871C166.261 50.52 166.852 51.1728 166.805 51.9454Z" fill="black"/>
<path fill-rule="evenodd" clip-rule="evenodd" d="M166.231 50.7373C166.154 52.0015 165.521 53.0022 164.818 52.9725C164.115 52.9428 163.607 51.8939 163.685 50.6298C163.762 49.3656 164.395 48.3649 165.098 48.3946C165.801 48.4243 166.308 49.4732 166.231 50.7373Z" fill="black"/>
<path d="M158.124 44.3662C158.124 45.2699 158.105 46.9179 159.308 48.6781C153.561 56.2575 165.989 61.2492 171.361 52.83C172.058 53.2372 173.698 53.63 173.558 51.1744C173.697 49.4008 174.867 49.5359 175.878 49.3782C171.771 46.6146 167.929 44.6104 165.363 46.2384C169.183 47.7007 172.588 50.9266 167.244 54.1131C158.248 58.7637 157.707 47.6822 165.401 46.24C162.952 45.777 160.411 45.9651 158.124 44.3662V44.3662Z" fill="black"/>
<path d="M115.492 67.9173C112.071 64.2912 113.12 56.5799 121.117 56.9357C115.468 59.7326 115.254 62.7591 116.229 65.8358L115.492 67.9173V67.9173Z" fill="black"/>
<path d="M183.495 60.3469C185.317 60.8243 187.341 62.149 188.919 58.0004C203.349 52.6196 181.936 48.4631 178.289 55.5937" stroke="black"/>
<path d="M184.799 55.7659L188.53 53.7856L187.135 55.0146L189.169 54.3535L187.627 55.3444L189.083 55.3279L187.211 55.97L188.699 56.3162L186.848 56.6243L187.604 57.0426L185.032 56.8052L184.611 56.195L184.799 55.765V55.7659Z" fill="black"/>
<path d="M177.367 58.3369C175.774 61.2409 173.726 65.2095 181.386 70.149C189.138 74.7926 188.151 80.087 182.314 83.1698" stroke="black"/>
<path d="M173.69 69.1025C174.769 72.4897 177.685 74.6861 181.393 70.0461" stroke="black"/>
<path d="M192.208 78.23C191.626 81.0883 189.751 83.3131 186.102 84.6689" stroke="black"/>
<path d="M171.143 71.9824C173.209 75.0576 172.078 77.9976 170.166 80.9047C168.11 83.7356 168.075 86.2921 172.357 89.1365" stroke="black"/>
<path d="M174.442 85.0005C177.483 89.3209 180.734 90.2068 184.143 88.5012C186.789 87.4013 189.226 87.1257 191.118 89.0019" stroke="black"/>
<path d="M138.093 94.283C139.938 90.8091 144.799 88.3022 151.087 93.2865C154.836 96.4206 158.635 95.1219 162.449 92.5303C162.698 95.1536 162.907 97.8282 166.491 96.307" stroke="black"/>
<path d="M177.533 99.6582C166.805 106.096 153.671 118.903 161.02 128.221C164.487 132.076 164.657 135.792 165.071 139.519C168.371 138.912 171.807 134.352 173.147 129.931C175.594 119.824 180.196 118.628 184.596 116.338L186.823 122.202" stroke="black"/>
<path d="M184.526 115.717C180.731 111.1 183.848 109.909 185.668 107.626" stroke="black"/>
<path d="M184.4 153.008C188.353 152.827 192.502 149.549 194.641 145.92L194.521 146.121" stroke="black"/>
<path d="M181.04 147.148C184.993 146.966 189.142 143.689 191.281 140.06L191.161 140.261" stroke="black"/>
<path d="M178.717 141.074C182.67 140.893 186.82 137.615 188.959 133.986L188.838 134.187" stroke="black"/>
<path d="M176.887 133.991C180.84 133.81 184.99 130.532 187.128 126.903L187.008 127.104" stroke="black"/>
<path d="M188.189 158.886C192.142 158.705 196.292 155.427 198.431 151.798L198.311 151.999" stroke="black"/>
<path d="M194.11 164.288C197.238 164.139 200.524 161.487 202.221 158.552L202.126 158.715" stroke="black"/>
<path d="M198.497 169.213C201.625 169.063 204.912 166.411 206.608 163.477L206.513 163.639" stroke="black"/>
<path d="M203.197 173.429C206.325 173.28 209.611 170.628 211.307 167.693L211.213 167.856" stroke="black"/>
<path d="M206.929 177.605C210.057 177.455 213.343 174.804 215.04 171.869L214.945 172.032" stroke="black"/>
<path d="M133.766 126.245C136.297 131.496 139.397 136.68 138.603 142.316" stroke="black"/>
<path d="M127.986 123.837C130.507 128.794 131.441 133.935 130.489 139.294C129.075 144.004 132.519 146.307 137.156 146.582C147.661 146.452 154.65 149.18 160.03 153.215" stroke="black"/>
<path d="M99.7947 82.5679C93.6055 86.1266 94.5299 92.0316 100.836 95.4905C88.3923 92.8388 86.3149 101.178 81.4087 106.518" stroke="black"/>
<path d="M76.2217 64.4691C80.6565 64.7912 85.1025 64.9347 89.7022 62.5659L90.3289 64.653C85.6272 66.8615 80.9248 66.9305 76.2217 64.4691V64.4691Z" fill="black"/>
<path d="M75.0244 58.49C79.4595 58.8122 83.9054 58.9558 88.5051 56.5869L89.1319 58.6739C84.4302 60.8825 79.7278 60.9515 75.0244 58.49V58.49Z" fill="black"/>
<path d="M73.8975 54.012C78.3325 54.3342 82.7785 54.4777 87.3782 52.1089L88.0049 54.1959C83.3032 56.4045 78.6008 56.4734 73.8975 54.012V54.012Z" fill="black"/>
<path d="M74.0093 48.6595C78.4443 48.9816 82.8903 49.1252 87.4898 46.7563L88.1166 48.8434C83.4149 51.052 78.7126 51.1209 74.0093 48.6595V48.6595Z" fill="black"/>
<path d="M73.894 43.5032C78.3291 43.8254 82.775 43.9689 87.3747 41.6001L88.0013 43.6872C83.2998 45.8957 78.5974 45.9647 73.894 43.5033V43.5032Z" fill="black"/>
<path d="M78.7466 69.8773C83.1816 70.1994 87.6276 70.3429 92.2273 67.9741L92.8539 70.0612C88.1523 72.2697 83.4499 72.3387 78.7466 69.8773V69.8773Z" fill="black"/>
<path d="M80.9995 75.3299C85.4345 75.652 89.8805 75.7956 94.4802 73.4268L95.107 75.5138C90.4053 77.7224 85.7028 77.7913 80.9995 75.3299V75.3299Z" fill="black"/>
<path d="M83.3735 82.3333C87.8086 82.6554 92.2545 82.799 96.8542 80.4302L97.4808 82.5172C92.7793 84.7258 88.0769 84.7947 83.3735 82.3333V82.3333Z" fill="black"/>
<path d="M87.2012 88.4709C90.2117 88.7328 93.2331 88.8162 96.4082 86.3872L96.7936 88.4641C93.5522 90.7343 90.3523 90.8667 87.2012 88.4714V88.4709Z" fill="black"/>
<path d="M68.1968 81.1301C70.9792 81.3439 72.7374 78.6417 73.1526 75.8789" stroke="black"/>
<path d="M73.0659 82.5723C74.5038 85.791 74.7276 88.4153 79.0009 93.0229C80.2284 94.5344 81.3211 96.1233 79.9198 99.1404L83.5252 101.868" stroke="black"/>
<path d="M60.0312 75.4274L68.2445 73.3018L63.2186 76.1803L60.0312 75.4274V75.4274Z" fill="black"/>
<path d="M44.9634 146.222L43.8682 138.206L46.1779 143.281L44.9634 146.222V146.222Z" fill="black"/>
<path d="M100.762 173.985L102.198 165.983L102.826 171.505L100.762 173.985Z" fill="black"/>
<path d="M35.0123 179.943L27.1011 182.966L31.7498 179.552L35.0123 179.943V179.943Z" fill="black"/>
<path d="M35.1302 155.668L26.9155 157.788L31.9436 154.913L35.1302 155.668V155.668Z" fill="black"/>
<path d="M49.9844 53.7573L58.4475 53.1392L52.9581 55.0712L49.9844 53.7573Z" fill="black"/>
<path d="M65.4858 18.6753L67.9467 26.3924L64.7905 21.7606L65.4858 18.6753Z" fill="black"/>
<path d="M81.417 18.2496C84.1734 19.223 86.573 19.4691 88.0702 17.875" stroke="black"/>
<path d="M70.0736 19.3003C72.1805 23.0122 69.8175 25.1463 67.6755 27.3584C65.4774 26.8286 61.9084 27.3354 61.6309 28.9972L62.0913 28.9438" stroke="black"/>
<path d="M75.9357 19.4023C76.6379 22.2225 75.5084 24.7443 72.9925 27.0401C67.583 31.2604 70.276 34.468 69.7754 35.3882" stroke="black"/>
<path d="M78.1138 33.6275C83.3994 28.5928 89.2594 27.119 95.6078 27.9556" stroke="black"/>
<path d="M95.165 27.7183C95.361 30.1168 94.2784 33.2102 99.536 34.751" stroke="black"/>
<path d="M55.7935 47.1821C58.6076 49.4029 61.6714 54.2836 57.4697 58.3994" stroke="black"/>
<path d="M89.0391 129.089C95.218 127.137 100.05 124.365 104.891 121.599" stroke="black"/>
<path d="M85.4326 135.712C87.9876 134.146 92.4763 132.177 98.5079 131.044C107.068 129.437 113.354 122.086 119.801 115.818L120.299 120.137" stroke="black"/>
<path d="M122.724 112.882L125.597 118.249" stroke="black"/>
<path d="M120.096 142.13C110.981 145.729 101.743 149.137 98.9502 162.655" stroke="black"/>
<path d="M89.8874 165.041C88.3561 165.969 87.8591 167.509 88.0915 169.482" stroke="black"/>
<path d="M69.3912 177.434C69.9072 175.137 68.1692 173.588 65.5889 172.32C59.837 168.312 67.0532 167.645 71.8611 169.452C74.1581 170.426 75.7428 172.115 76.7409 174.393" stroke="black"/>
<path d="M65.2412 163.052C68.4189 164.789 72.8771 165.957 71.9325 169.527" stroke="black"/>
<path d="M62.6878 173.654C54.4687 174.173 54.8557 177.148 52.5088 179.343" stroke="black"/>
<path d="M35.3067 151.588C37.007 154.425 37.9983 158.067 32.0684 160.922" stroke="black"/>
<path d="M39.2407 149.569C41.5241 151.283 42.5448 153.951 43.1333 156.946C44.104 160.398 47.5948 161.675 50.1064 163.797" stroke="black"/>
<path d="M45.5422 166.154C41.5547 164.067 37.5029 163.029 33.3262 164.035" stroke="black"/>
<path d="M30.3647 172.58C37.5503 174.295 42.9169 179.493 37.8312 183.823" stroke="black"/>
<path d="M236.51 182.528C245.995 177.292 254.946 166.391 252.883 154.078C191.689 134.114 223.472 78.3649 260.39 91.1597C267.703 79.8632 261.384 59.9403 245.306 68.6666C242.443 59.2513 250.855 54.2146 259.359 58.1869C254.2 37.8119 296.05 23.5079 293.411 54.6715C288.005 46.0328 279.52 48.7209 281.393 56.7865C279.758 66.2066 280.838 82.7708 271.347 71.5153C273.587 76.9845 275.222 85.1403 268.655 95.5886C273.259 99.6686 276.717 103.7 278.889 107.677C284.778 115.868 291.237 110.109 291.731 107.054C295.467 119.501 286.519 122.582 278.661 121.364C281.374 125.073 285.886 128.857 284.084 132.375C288.286 136.774 292.77 136.56 297.249 136.428C274.69 149.978 255.912 133.349 269.465 112.233L263.418 106.441C256.799 113.746 256.692 123.449 259.583 134.254C265.537 148.396 266.96 162.347 259.168 175.908C261.848 176.323 268.734 178.542 266.38 187.578C255.28 182.013 248.405 183.9 243.148 188.636L236.51 182.528V182.528Z" fill="#FCDD09" stroke="black"/>
<path d="M254.599 101.115C244.574 109.379 240.98 129.178 249.991 144.048C218.406 128.604 231.705 92.3658 254.599 101.115V101.115Z" fill="#E2401E" stroke="black"/>
<path d="M254.456 100.962C257.414 102.194 260.304 103.658 263.57 106.447" stroke="black"/>
<path d="M260.408 90.8691L269.236 96.0504" stroke="black"/>
<path d="M266.63 58.931C268.989 43.8045 276.459 41.5844 285.824 44.1516" stroke="black"/>
<path d="M260.308 109.952L254.719 111.61L259.736 111.822L260.308 109.952Z" fill="black"/>
<path d="M258.472 115.047L252.883 116.705L257.9 116.917L258.472 115.047Z" fill="black"/>
<path d="M258.473 120.001L252.885 121.659L257.902 121.871L258.473 120.001Z" fill="black"/>
<path d="M257.984 125.517L252.395 127.175L257.412 127.387L257.984 125.517Z" fill="black"/>
<path d="M258.933 129.929L253.345 131.587L258.362 131.799L258.933 129.929V129.929Z" fill="black"/>
<path d="M259.632 133.455L254.043 135.113L259.06 135.325L259.632 133.455Z" fill="black"/>
<path d="M261.055 137.595L255.467 139.253L260.484 139.465L261.055 137.595Z" fill="black"/>
<path d="M262.34 141.51L256.751 143.168L261.768 143.38L262.34 141.51V141.51Z" fill="black"/>
<path d="M263.808 146.162L258.22 147.82L263.236 148.032L263.808 146.162Z" fill="black"/>
<path d="M264.534 151.729L258.946 153.388L263.963 153.6L264.534 151.729Z" fill="black"/>
<path d="M264.178 156.304L258.59 157.962L263.607 158.174L264.178 156.304Z" fill="black"/>
<path d="M264.323 161.41L258.734 163.068L263.751 163.28L264.323 161.41Z" fill="black"/>
<path d="M262.501 167.525L256.912 169.183L261.929 169.395L262.501 167.525Z" fill="black"/>
<path d="M261.018 171.834L255.429 173.492L260.446 173.704L261.018 171.834Z" fill="black"/>
<path d="M279.033 67.9781L274.354 64.7222L277.13 68.6851L279.033 67.9781Z" fill="black"/>
<path d="M277.065 71.4651L272.88 67.6465L275.086 71.9297L277.065 71.4651Z" fill="black"/>
<path d="M233.291 106.844L227.703 108.502L232.719 108.714L233.291 106.844Z" fill="black"/>
<path d="M232.072 111.819L226.484 113.477L231.501 113.689L232.072 111.819Z" fill="black"/>
<path d="M231.837 116.909L226.249 118.567L231.266 118.779L231.837 116.909Z" fill="black"/>
<path d="M238.566 141.453C241.491 144.467 245.434 146.795 249.326 147.445" stroke="black"/>
<path d="M254.408 180.224C257.197 178.233 259.804 179.212 262.273 182.45L261.969 182.437" stroke="black"/>
<path d="M156.551 79.7923C152.978 78.311 143.722 78.3213 133.356 78.4157C105.165 78.1096 108.04 57.3544 115.369 53.7166C119.104 51.8628 124.705 52.59 129.615 57.8698C118.851 63.9987 121.728 73.0691 135.307 73.2381C148.218 72.7816 155.896 75.4884 157.679 75.9502" stroke="#EFEFEF" stroke-width="0.6"/>
</g>
<defs>
<clipPath id="clip0_1_4165">
<rect width="600" height="400" fill="white"/>
</clipPath>
</defs>
</svg>
