<svg width="600" height="400" viewBox="0 0 600 400" fill="none" xmlns="http://www.w3.org/2000/svg" xmlns:cgf="https://coding.garden/flags"><metadata id="cgf-metadata">

<cgf:flag>
  <cgf:name>Venray</cgf:name>
  <cgf:route>nl/li/venray</cgf:route>
  <cgf:aspect-ratio>1.5</cgf:aspect-ratio>
</cgf:flag>

</metadata><g clip-path="url(#clip0_1_4284)">
<path d="M-0.00945919 -0.0883789L-0.860352 401.607H604.132V-0.0883789H-0.00945919V-0.0883789Z" fill="white"/>
<path d="M204.915 0.847656L204.353 202.543H604.574V0.847656H204.915V0.847656Z" fill="#119CFE"/>
<path d="M-0.912954 202.555L-1.20215 404.25H204.403V202.555H-0.912954V202.555Z" fill="#119CFE"/>
<path d="M204.169 284.436L203.957 369.182H244.784C244.923 365.086 244.203 360.99 240.976 356.894C246.383 348.215 244.181 342.077 239.496 336.767C244.336 329.352 244.595 321.936 239.284 314.521C244.086 309.789 242.289 305.058 239.284 300.326C229.279 289.638 217.558 284.39 204.169 284.436V284.436Z" fill="#119CFE"/>
<path d="M204.388 284.436L204.45 369.182H163.773C163.634 365.086 164.354 360.99 167.581 356.894C162.174 348.215 164.376 342.077 169.061 336.767C164.221 329.352 163.962 321.936 169.273 314.521C164.471 309.789 166.268 305.058 169.273 300.326C179.278 289.638 190.999 284.39 204.389 284.436H204.388Z" fill="black"/>
<path d="M224.265 338.673H191.053V348.419H224.265V338.673Z" fill="black"/>
<path d="M162.448 31.8481V89.0515C164.536 108.459 180.105 124.143 205.179 127.187L204.968 31.6362L162.448 31.8481V31.8481Z" fill="#119CFE"/>
<path d="M247.624 31.7294V88.9328C245.536 108.34 229.624 124.099 204.55 127.143L204.806 31.5176L247.624 31.7294V31.7294Z" fill="white"/>
<path d="M204.423 202.547V187.716L73.6912 56.3605C70.1655 53.0689 66.6399 54.4197 63.1142 55.5131L52.5373 66.53L64.8065 79.6656L37.7295 106.361L62.6911 132.208L80.2489 114.623L71.3643 105.301L75.8066 101.276L84.0566 110.598L88.7105 105.513L92.9413 110.174L88.7105 114.835L97.3836 122.886L93.7874 127.123L84.4797 118.861L66.7104 136.445L93.5759 162.081L120.23 134.962L189.615 202.547H204.423V202.547Z" fill="black"/>
<path d="M204.401 202.555V187.725L335.132 56.3689C337.136 53.5463 340.328 52.7059 345.709 55.5214L356.286 66.5384L344.017 79.674L371.094 106.369L346.132 132.216L328.575 114.632L337.459 105.31L333.017 101.284L324.767 110.606L320.113 105.521L315.882 110.182L320.113 114.843L311.44 122.894L315.036 127.132L324.344 118.869L342.113 136.454L315.248 162.089L288.594 134.971L219.209 202.555H204.401V202.555Z" fill="white"/>
<path d="M204.389 202.583H189.573L103.572 287.825L38.236 287.99L38.0244 368.286L117.352 368.074L117.563 304.303L204.4 218.286L204.389 202.583V202.583H204.389Z" fill="white"/>
<path d="M63.1846 328.724L51.8164 340.559L66.0266 354.791L77.6939 342.656L88.4637 354.641L102.824 340.559L91.605 329.023L102.524 317.038L88.7629 303.705L77.6939 314.641L66.9241 304.304L52.2652 317.338L63.1846 328.724V328.724Z" fill="#119CFE"/>
<path d="M68.2706 305.353C68.2706 308.849 66.8601 312.202 64.3495 314.675C61.8388 317.147 58.4337 318.536 54.8831 318.536C51.3325 318.536 47.9273 317.147 45.4167 314.675C42.9061 312.202 41.4956 308.849 41.4956 305.353C41.4956 301.856 42.9061 298.503 45.4167 296.031C47.9273 293.558 51.3325 292.169 54.8831 292.169C58.4337 292.169 61.8388 293.558 64.3495 296.031C66.8601 298.503 68.2706 301.856 68.2706 305.353V305.353Z" fill="#119CFE"/>
<path d="M113.967 305.203C113.967 308.699 112.557 312.053 110.046 314.525C107.536 316.997 104.13 318.386 100.58 318.386C97.0293 318.386 93.6241 316.997 91.1135 314.525C88.6028 312.053 87.1924 308.699 87.1924 305.203C87.1924 301.706 88.6028 298.353 91.1135 295.881C93.6241 293.408 97.0293 292.02 100.58 292.02C104.13 292.02 107.536 293.408 110.046 295.881C112.557 298.353 113.967 301.706 113.967 305.203V305.203Z" fill="#119CFE"/>
<path d="M67.2979 351.794C67.2979 355.291 65.8875 358.644 63.3768 361.116C60.8662 363.589 57.461 364.978 53.9104 364.978C50.3598 364.978 46.9547 363.589 44.444 361.116C41.9334 358.644 40.5229 355.291 40.5229 351.794C40.5229 348.298 41.9334 344.945 44.444 342.472C46.9547 340 50.3598 338.611 53.9104 338.611C57.461 338.611 60.8662 340 63.3768 342.472C65.8875 344.945 67.2979 348.298 67.2979 351.794V351.794Z" fill="#119CFE"/>
<path d="M114.565 352.843C114.565 356.339 113.155 359.692 110.644 362.165C108.134 364.637 104.729 366.026 101.178 366.026C97.6274 366.026 94.2223 364.637 91.7116 362.165C89.201 359.692 87.7905 356.339 87.7905 352.843C87.7905 349.346 89.201 345.993 91.7116 343.52C94.2223 341.048 97.6274 339.659 101.178 339.659C104.729 339.659 108.134 341.048 110.644 343.52C113.155 345.993 114.565 349.346 114.565 352.843V352.843Z" fill="#119CFE"/>
<path d="M204.358 202.529H219.28L305.176 287.772L370.511 287.936L370.723 368.233L291.395 368.021L291.184 304.25L204.4 218.286L204.358 202.529V202.529H204.358Z" fill="black"/>
<path d="M345.562 328.67L356.93 340.505L342.72 354.737L331.053 342.603L320.283 354.588L305.923 340.505L317.142 328.97L306.222 316.985L319.984 303.652L331.053 314.588L341.823 304.251L356.482 317.285L345.562 328.67V328.67Z" fill="white"/>
<path d="M340.477 305.3C340.477 308.796 341.887 312.149 344.398 314.622C346.909 317.094 350.314 318.483 353.864 318.483C357.415 318.483 360.82 317.094 363.331 314.622C365.841 312.149 367.252 308.796 367.252 305.3C367.252 301.803 365.841 298.45 363.331 295.978C360.82 293.505 357.415 292.116 353.864 292.116C350.314 292.116 346.909 293.505 344.398 295.978C341.887 298.45 340.477 301.803 340.477 305.3V305.3Z" fill="white"/>
<path d="M294.78 305.15C294.78 308.647 296.19 312 298.701 314.472C301.211 316.945 304.617 318.333 308.167 318.333C311.718 318.333 315.123 316.945 317.634 314.472C320.144 312 321.555 308.647 321.555 305.15C321.555 301.654 320.144 298.3 317.634 295.828C315.123 293.356 311.718 291.967 308.167 291.967C304.617 291.967 301.211 293.356 298.701 295.828C296.19 298.3 294.78 301.654 294.78 305.15V305.15Z" fill="white"/>
<path d="M341.449 351.741C341.449 355.237 342.86 358.591 345.37 361.063C347.881 363.535 351.286 364.924 354.837 364.924C358.387 364.924 361.792 363.535 364.303 361.063C366.814 358.591 368.224 355.237 368.224 351.741C368.224 348.245 366.814 344.891 364.303 342.419C361.792 339.947 358.387 338.558 354.837 338.558C351.286 338.558 347.881 339.947 345.37 342.419C342.86 344.891 341.449 348.245 341.449 351.741V351.741Z" fill="white"/>
<path d="M294.182 352.79C294.182 356.286 295.592 359.639 298.103 362.112C300.613 364.584 304.018 365.973 307.569 365.973C311.12 365.973 314.525 364.584 317.035 362.112C319.546 359.639 320.957 356.286 320.957 352.79C320.957 349.293 319.546 345.94 317.035 343.468C314.525 340.995 311.12 339.606 307.569 339.606C304.018 339.606 300.613 340.995 298.103 343.468C295.592 345.94 294.182 349.293 294.182 352.79V352.79Z" fill="white"/>
</g>
<defs>
<clipPath id="clip0_1_4284">
<rect width="600" height="400" fill="white"/>
</clipPath>
</defs>
</svg>
