<svg width="600" height="400" viewBox="0 0 600 400" fill="none" xmlns="http://www.w3.org/2000/svg" xmlns:cgf="https://coding.garden/flags"><metadata id="cgf-metadata">

<cgf:flag>
  <cgf:name>Voerendaal</cgf:name>
  <cgf:route>nl/li/voerendaal</cgf:route>
  <cgf:aspect-ratio>1.5</cgf:aspect-ratio>
</cgf:flag>

</metadata><g clip-path="url(#clip0_1_4307)">
<path d="M600 0H0V400H600V0Z" fill="#FCDD09"/>
<path d="M92.2008 146.088C83.5346 145.581 74.6351 143.308 66.9828 139.648C65.0066 138.703 63.6805 137.976 60.8587 136.291C53.0221 131.61 44.9212 128.875 35.7957 127.826C31.2942 127.309 26.0006 127.31 21.2687 127.828C14.1602 128.606 6.86732 130.71 0.781542 133.74C0.022485 134.118 -0.623193 134.427 -0.653292 134.427C-0.683398 134.427 -0.708008 118.51 -0.708008 99.0562V63.6856L0.601496 63.068C7.77773 59.6835 16.165 57.5943 24.8251 57.0342C27.3284 56.8723 33.0932 56.9583 35.4764 57.1931C46.0061 58.2306 55.0075 61.1858 63.9983 66.5572C72.0887 71.3907 80.0438 74.1334 89.1145 75.2166C93.933 75.792 99.2729 75.8097 104.174 75.2665C110.419 74.5743 116.661 72.8905 122.413 70.3466C124.698 69.3357 126.38 68.4456 129.556 66.5655C134.225 63.8021 138.182 61.9735 142.859 60.4184C148.668 58.487 153.927 57.4631 160.257 57.0308C162.6 56.8708 168.926 56.9649 171.168 57.1932C178.076 57.8965 184.098 59.3664 190.325 61.869C192.702 62.8245 196.696 64.8558 199.743 66.6593C204.355 69.3887 207.698 70.9368 212.195 72.4248C218.566 74.5329 224.197 75.4836 231.085 75.6142C237.669 75.7389 243.201 75.0729 249.231 73.4293C254.535 71.9835 259.747 69.766 264.396 66.9776C268.326 64.6208 270.44 63.5293 273.868 62.0875C280.546 59.279 287.904 57.5691 295.579 57.0426C297.583 56.9051 302.564 56.9051 304.643 57.0426C310.469 57.4277 315.949 58.4811 321.387 60.2615C326.487 61.9313 330.177 63.6396 335.435 66.7642C345.537 72.7682 356.052 75.645 367.894 75.645C377.188 75.645 385.581 73.868 393.925 70.1333C395.994 69.2073 398.12 68.0643 401.259 66.1895C408.509 61.8587 416.523 59.0101 425.204 57.678C430.943 56.7973 437.475 56.6664 443.349 57.3144C453 58.379 461.89 61.3573 470.24 66.3238C472.978 67.9528 474.934 69.0275 476.362 69.6876C483.351 72.9196 490.096 74.713 498.052 75.4552C500.036 75.6403 506.817 75.6403 508.801 75.4552C519.129 74.4917 527.203 71.8644 536.152 66.5547C545.792 60.8352 554.891 57.9569 566.27 57.028C568.337 56.8592 574.121 56.8583 576.168 57.0267C584.547 57.7146 591.862 59.5384 598.932 62.7026L600.273 63.3025V84.8742V106.446L600.011 106.89L599.75 107.333L600.011 107.452L600.273 107.57V118.097C600.273 127.551 600.256 128.657 600.102 128.951C599.945 129.252 599.945 129.287 600.102 129.374C600.252 129.457 600.273 129.792 600.273 132.063C600.273 133.489 600.237 134.639 600.193 134.618C600.149 134.597 599.179 134.122 598.038 133.563C591.202 130.216 583.987 128.286 575.529 127.541C573.337 127.348 567.659 127.378 565.259 127.595C557.972 128.253 551.385 129.917 545.063 132.695C542.849 133.668 540.891 134.703 537.784 136.545C528.579 142 519.876 144.84 509.067 145.917C507.627 146.061 506.226 146.103 502.894 146.103C499.562 146.103 498.161 146.061 496.722 145.917C490.939 145.341 486.266 144.366 481.184 142.676C476.502 141.12 472.554 139.297 467.898 136.542C464.784 134.7 462.826 133.665 460.619 132.695C454.205 129.876 447.51 128.203 440.259 127.606C437.855 127.408 432.865 127.38 430.579 127.552C420.374 128.32 411.353 131.136 402.804 136.223C399.719 138.059 397.967 139.005 395.776 140.018C383.905 145.504 370.318 147.394 356.986 145.414C350.699 144.479 344.653 142.681 338.866 140.025C336.679 139.021 334.868 138.046 331.816 136.229C323.89 131.51 315.959 128.861 306.487 127.773C302.207 127.28 295.87 127.346 291.348 127.93C285.916 128.631 280.617 130.012 275.624 132.027C273.223 132.997 269.539 134.869 266.738 136.544C257.095 142.308 247.187 145.365 235.874 146.067C233.389 146.222 227.815 146.134 225.445 145.902C218.806 145.255 212.516 143.755 206.513 141.388C203.897 140.357 199.948 138.396 197.242 136.785C193.298 134.438 191.625 133.57 188.477 132.24C182.422 129.681 175.487 128.049 168.594 127.56C166.611 127.42 161.568 127.418 159.621 127.557C151.519 128.134 143.956 130.096 136.863 133.46C135.104 134.294 133.872 134.966 131.206 136.545C128.723 138.014 127.867 138.489 126.293 139.272C118.495 143.152 109.761 145.472 100.77 146.052C99.2371 146.151 93.6718 146.174 92.2009 146.088L92.2008 146.088Z" fill="#0F47AF"/>
<path d="M92.0973 346.191C83.4311 345.684 74.5316 343.411 66.8792 339.751C64.9031 338.806 63.5769 338.079 60.7552 336.393C52.9185 331.713 44.8176 328.977 35.6922 327.929C31.1907 327.412 25.897 327.413 21.1652 327.929C14.0567 328.707 6.7638 330.812 0.678022 333.841C-0.0810356 334.219 -0.726713 334.528 -0.756813 334.528C-0.786918 334.528 -0.811523 318.612 -0.811523 299.158V263.787L0.497976 263.17C7.6742 259.785 16.0615 257.696 24.7216 257.136C27.2249 256.974 32.9897 257.06 35.3729 257.295C45.9026 258.332 54.904 261.287 63.8948 266.659C71.9852 271.492 79.9403 274.235 89.011 275.318C93.8295 275.894 99.1694 275.911 104.07 275.368C110.315 274.676 116.557 272.992 122.309 270.448C124.595 269.437 126.276 268.547 129.452 266.667C134.121 263.904 138.078 262.075 142.756 260.52C148.565 258.589 153.824 257.565 160.154 257.132C162.497 256.972 168.823 257.066 171.065 257.295C177.972 257.998 183.994 259.468 190.221 261.971C192.598 262.926 196.592 264.957 199.64 266.761C204.251 269.49 207.595 271.038 212.091 272.526C218.462 274.634 224.093 275.585 230.982 275.716C237.566 275.84 243.098 275.174 249.127 273.531C254.431 272.085 259.644 269.868 264.293 267.079C268.222 264.722 270.336 263.631 273.764 262.189C280.442 259.381 287.801 257.671 295.475 257.144C297.479 257.007 302.46 257.007 304.539 257.144C310.366 257.529 315.846 258.583 321.283 260.363C326.383 262.033 330.074 263.741 335.331 266.866C345.434 272.87 355.948 275.747 367.791 275.747C377.084 275.747 385.477 273.97 393.822 270.235C395.891 269.309 398.016 268.166 401.155 266.291C408.406 261.96 416.42 259.112 425.101 257.78C430.84 256.899 437.372 256.768 443.246 257.416C452.897 258.481 461.786 261.459 470.136 266.425C472.875 268.054 474.831 269.129 476.258 269.789C483.248 273.021 489.992 274.815 497.948 275.557C499.932 275.742 506.713 275.742 508.697 275.557C519.026 274.593 527.099 271.966 536.048 266.656C545.688 260.937 554.788 258.058 566.167 257.13C568.234 256.961 574.017 256.96 576.064 257.128C584.443 257.816 591.758 259.64 598.829 262.804L600.169 263.404V284.976V306.547L599.908 306.991L599.646 307.435L599.908 307.553L600.169 307.672V318.198C600.169 327.652 600.152 328.758 599.999 329.053C599.842 329.354 599.842 329.388 599.999 329.476C600.148 329.559 600.169 329.894 600.169 332.164C600.169 333.591 600.133 334.74 600.09 334.719C600.046 334.698 599.076 334.224 597.934 333.665C591.098 330.318 583.883 328.388 575.426 327.643C573.233 327.45 567.556 327.479 565.156 327.696C557.868 328.355 551.282 330.018 544.959 332.797C542.745 333.77 540.788 334.805 537.68 336.646C528.475 342.101 519.773 344.942 508.963 346.019C507.524 346.162 506.123 346.204 502.791 346.204C499.459 346.204 498.058 346.163 496.618 346.019C490.835 345.443 486.162 344.468 481.08 342.778C476.399 341.222 472.451 339.399 467.795 336.644C464.68 334.801 462.723 333.767 460.515 332.797C454.102 329.978 447.407 328.305 440.155 327.707C437.751 327.51 432.762 327.482 430.475 327.654C420.271 328.422 411.25 331.238 402.701 336.325C399.615 338.161 397.863 339.107 395.672 340.12C383.801 345.606 370.214 347.496 356.883 345.515C350.595 344.581 344.55 342.783 338.763 340.127C336.575 339.123 334.765 338.148 331.713 336.331C323.787 331.611 315.855 328.963 306.384 327.874C302.103 327.382 295.766 327.448 291.245 328.032C285.812 328.733 280.513 330.113 275.521 332.129C273.12 333.098 269.435 334.971 266.634 336.645C256.992 342.409 247.083 345.467 235.771 346.169C233.286 346.324 227.712 346.235 225.341 346.004C218.702 345.357 212.412 343.857 206.41 341.49C203.794 340.458 199.844 338.498 197.139 336.887C193.194 334.539 191.522 333.672 188.373 332.342C182.318 329.783 175.383 328.15 168.49 327.662C166.508 327.522 161.464 327.52 159.517 327.656C151.415 328.234 143.852 330.195 136.759 333.559C135.001 334.394 133.768 335.066 131.102 336.644C128.62 338.113 127.764 338.588 126.19 339.371C118.391 343.251 109.658 345.571 100.666 346.151C99.1336 346.25 93.5682 346.274 92.0973 346.188L92.0973 346.191Z" fill="#0F47AF"/>
<path d="M299.53 240.627C296.824 237.811 295.386 234.187 294.652 228.331C294.355 225.966 294.417 226.055 293.964 227.326C292.601 231.155 290.163 233.804 286.754 235.162C285.835 235.528 284.353 235.995 284.113 235.995C284.062 235.995 284.319 235.728 284.682 235.402C286.268 233.976 287.843 231.309 288.796 228.436C289.248 227.072 289.937 224.438 290.414 222.252L290.609 221.353L299.996 221.326L309.382 221.299L309.437 221.538C309.468 221.669 309.639 222.442 309.818 223.256C311.186 229.478 312.72 232.892 315.227 235.29C315.942 235.973 315.963 236.007 315.637 235.94C315.011 235.812 313.424 235.258 312.609 234.884C310.861 234.082 309.228 232.762 308.024 231.177C307.382 230.331 306.441 228.496 306.024 227.273C305.865 226.808 305.701 226.389 305.66 226.342C305.619 226.294 305.551 226.603 305.51 227.029C305.398 228.195 305.058 230.421 304.814 231.595C303.999 235.517 302.729 238.214 300.713 240.309L299.968 241.083L299.53 240.627L299.53 240.627ZM433.06 240.157C431.669 238.677 430.623 236.838 429.863 234.536C429.183 232.475 428.96 231.335 428.31 226.598L428.246 226.134L427.929 227.074C427.046 229.695 425.436 232.082 423.657 233.411C422.296 234.427 420.428 235.336 418.875 235.736C418.54 235.823 418.181 235.924 418.077 235.962C417.972 236 418.282 235.63 418.765 235.141C420.298 233.586 421.228 232.139 422.123 229.916C422.868 228.066 424.067 223.74 424.388 221.744L424.459 221.3H433.862H443.265L443.321 221.538C443.352 221.669 443.521 222.418 443.698 223.203C444.511 226.816 445.232 229.113 446.154 231.021C447.004 232.782 447.81 233.956 448.933 235.072C449.972 236.104 449.993 236.088 448.326 235.552C446.257 234.888 444.661 233.973 443.273 232.656C441.86 231.315 440.66 229.391 439.914 227.273C439.75 226.808 439.583 226.389 439.541 226.342C439.5 226.294 439.433 226.603 439.392 227.029C438.934 231.784 437.798 235.768 436.187 238.269C435.557 239.247 434.095 240.964 433.892 240.964C433.851 240.964 433.477 240.601 433.06 240.157H433.06ZM166.284 240.198C163.798 237.566 162.456 234.296 161.672 228.965C161.561 228.209 161.437 227.243 161.396 226.817C161.355 226.392 161.287 226.083 161.246 226.13C161.205 226.177 161.037 226.597 160.874 227.062C160.128 229.18 158.928 231.103 157.515 232.444C156.127 233.761 154.531 234.676 152.462 235.341C150.795 235.876 150.816 235.893 151.855 234.86C154.252 232.479 155.689 229.22 157.09 222.992C157.266 222.207 157.436 221.458 157.467 221.327L157.523 221.089H166.92H176.317L176.458 221.802C177.03 224.7 177.924 227.875 178.709 229.803C179.585 231.955 180.519 233.397 182.026 234.928C182.507 235.417 182.829 235.792 182.741 235.762C182.653 235.731 182.294 235.626 181.943 235.527C177.366 234.242 174.397 231.408 172.857 226.855L172.542 225.923L172.478 226.387C171.828 231.124 171.605 232.263 170.925 234.325C170.44 235.794 169.761 237.226 169.023 238.333C168.508 239.106 167.056 240.753 166.889 240.753C166.845 240.753 166.572 240.503 166.284 240.198H166.284ZM289.485 219.883C288.426 219.589 287.702 219.003 287.237 218.064C286.943 217.472 286.892 217.253 286.887 216.557C286.881 215.842 286.923 215.656 287.229 215.037C287.612 214.264 288.188 213.695 288.953 213.333L289.432 213.107H300.128H310.824L311.384 213.359C312.119 213.689 312.918 214.556 313.221 215.354C313.865 217.05 312.976 219.019 311.231 219.761C310.725 219.976 310.567 219.979 300.341 219.997C292.277 220.012 289.857 219.986 289.485 219.883ZM423.261 219.827C422.262 219.524 421.279 218.607 420.956 217.676C420.664 216.836 420.713 215.795 421.08 215.032C421.48 214.201 422.319 213.465 423.191 213.181C423.836 212.971 424.081 212.966 433.853 212.964C444.94 212.961 444.747 212.95 445.789 213.635C446.404 214.04 446.926 214.722 447.175 215.446C447.394 216.085 447.312 217.266 447.001 217.944C446.671 218.666 445.851 219.438 445.132 219.705C444.544 219.924 444.434 219.926 434.033 219.917C428.255 219.912 423.408 219.871 423.261 219.827V219.827ZM156.277 219.613C155.335 219.39 154.377 218.504 153.997 217.503C153.663 216.623 153.742 215.412 154.184 214.631C154.609 213.88 155.403 213.242 156.257 212.965C156.921 212.75 157.107 212.746 166.831 212.746C173.166 212.746 176.956 212.786 177.36 212.856C178.215 213.003 178.903 213.37 179.418 213.95C179.965 214.567 180.184 215.032 180.294 215.808C180.513 217.347 179.669 218.817 178.194 219.465L177.627 219.714L167.12 219.704C161.342 219.698 156.462 219.657 156.277 219.613V219.613ZM289.753 211.653C289.728 211.581 289.632 211.069 289.54 210.517C288.418 203.814 284.854 199.038 280.142 197.922C279.378 197.741 278.983 197.711 277.885 197.751C275.716 197.83 274.242 198.436 272.699 199.881C271.196 201.289 270.221 203.248 269.95 205.404L269.874 206.012L269.616 205.701C268.386 204.213 266.862 201.468 266.24 199.621C265.486 197.383 265.331 194.646 265.85 192.703C266.996 188.407 270.761 185.386 275.536 184.932C279.66 184.54 283.814 186.229 287.148 189.654C288.918 191.473 290.041 193.106 291.352 195.769C293.045 199.208 294.186 203.097 294.857 207.715C295.075 209.218 295.314 211.669 295.248 211.735C295.22 211.763 293.982 211.786 292.497 211.786C290.433 211.786 289.787 211.754 289.753 211.653V211.653ZM297.148 211.698C297.148 211.436 296.599 204.156 296.504 203.169C295.916 197.003 294.73 191.289 293.037 186.466C290.969 180.574 290.592 179.367 289.955 176.592C289.34 173.919 289.23 172.908 289.231 169.974C289.231 167.522 289.257 167.105 289.471 166.115C290.324 162.166 292.302 158.956 295.528 156.28C296.555 155.428 298.398 154.161 299.456 153.58L300.008 153.277L300.467 153.525C300.72 153.662 301.453 154.119 302.098 154.541C307.02 157.762 309.708 161.577 310.629 166.644C310.912 168.202 310.884 171.831 310.574 173.815C310.129 176.667 309.213 180.165 308.106 183.241C306.306 188.246 305.969 189.325 305.23 192.437C304.157 196.96 303.595 201.139 303.092 208.323L302.85 211.786H299.999C298.431 211.786 297.148 211.746 297.148 211.698H297.148ZM304.755 211.019C305.132 207.049 305.869 203.23 306.84 200.212C309.528 191.861 314.532 186.443 320.774 185.128C321.985 184.872 324.276 184.824 325.404 185.03C329.827 185.837 333.116 188.732 334.138 192.717C335.112 196.519 333.95 200.884 330.851 205.059L330.154 205.997L330.091 205.588C329.508 201.766 327.538 199.197 324.328 198.074C323.549 197.801 323.368 197.78 321.838 197.779C320.403 197.778 320.085 197.81 319.395 198.025C316.446 198.945 314.064 201.117 312.412 204.389C311.409 206.376 310.819 208.329 310.296 211.389L310.228 211.786H307.455H304.682L304.755 211.019H304.755ZM423.485 210.808C422.601 204.999 419.804 200.437 415.992 198.587C414.598 197.91 413.641 197.686 412.14 197.683C410.102 197.681 408.587 198.195 407.04 199.416C405.358 200.744 404.121 203.008 403.835 205.278C403.794 205.601 403.736 205.865 403.705 205.865C403.622 205.865 403.441 205.621 402.501 204.24C401.136 202.235 400.328 200.506 399.781 198.412C399.501 197.345 399.477 197.097 399.479 195.399C399.479 193.942 399.522 193.403 399.674 192.862C400.245 190.824 401.042 189.439 402.437 188.057C405.187 185.331 409.134 184.27 413.299 185.138C418.356 186.191 422.798 190.281 425.624 196.485C427.346 200.265 428.683 205.68 429.063 210.411C429.098 210.847 429.149 211.311 429.176 211.442L429.225 211.68H426.421H423.617L423.485 210.808H423.485ZM431.03 211.592C431.03 211.19 430.463 203.882 430.336 202.641C429.618 195.66 428.333 189.998 426.177 184.332C425.033 181.324 423.924 177.338 423.399 174.349C423.142 172.886 423.113 172.456 423.108 170.079C423.101 167.93 423.139 167.239 423.3 166.379C423.695 164.275 424.562 162.085 425.683 160.353C427.252 157.931 430.028 155.433 433.125 153.655L433.89 153.216L434.562 153.604C437.434 155.264 440.145 157.599 441.639 159.699C444.981 164.397 445.592 169.954 443.629 177.797C443.184 179.576 442.212 182.72 441.702 184.034C438.976 191.049 437.751 197.336 436.978 208.27L436.737 211.68H433.883C432.314 211.68 431.03 211.64 431.03 211.592V211.592ZM438.638 210.966C439.607 200.849 442.574 193.391 447.397 188.943C450.185 186.372 453.219 185.041 456.697 184.864C461.88 184.6 466.425 187.57 467.883 192.175C469.021 195.765 468.122 200.002 465.349 204.121C464.919 204.761 464.448 205.427 464.304 205.601L464.042 205.918L463.973 205.495C463.576 203.066 462.792 201.425 461.325 199.955C459.266 197.891 456.25 197.151 453.327 197.992C448.839 199.284 445.52 203.835 444.388 210.253C444.296 210.776 444.197 211.311 444.168 211.442L444.117 211.68H441.343H438.57L438.638 210.966H438.638ZM156.619 211.231C156.591 211.1 156.492 210.565 156.4 210.041C155.267 203.624 151.949 199.073 147.461 197.781C145.178 197.123 142.906 197.409 140.895 198.605C140.115 199.069 138.968 200.147 138.442 200.909C137.693 201.993 137.081 203.639 136.814 205.284L136.746 205.707L136.484 205.39C136.339 205.215 135.869 204.549 135.439 203.909C131.417 197.935 131.416 191.836 135.437 187.842C137.674 185.62 140.76 184.483 144.091 184.653C147.569 184.83 150.603 186.16 153.391 188.732C158.211 193.177 161.181 200.644 162.15 210.755L162.218 211.468H159.445H156.671L156.62 211.231H156.619ZM163.81 208.059C163.037 197.124 161.812 190.838 159.086 183.822C158.29 181.772 157.074 177.549 156.621 175.26C155.94 171.813 155.865 168.371 156.413 165.692C156.827 163.671 157.892 161.255 159.149 159.487C160.643 157.388 163.354 155.052 166.226 153.393L166.898 153.004L167.662 153.443C169.487 154.491 171.025 155.637 172.454 157.015C174.679 159.16 176.015 161.233 176.889 163.892C177.57 165.964 177.687 166.851 177.68 169.868C177.675 172.245 177.646 172.675 177.389 174.138C176.863 177.131 175.768 181.065 174.617 184.097C172.449 189.804 171.171 195.43 170.452 202.429C170.325 203.671 169.757 210.979 169.757 211.38C169.757 211.429 168.474 211.468 166.904 211.468H164.051L163.81 208.059V208.059ZM171.612 211.231C171.639 211.1 171.69 210.636 171.725 210.2C172.176 204.579 173.876 198.426 176.095 194.378C178.443 190.096 181.71 186.988 185.355 185.57C189.259 184.052 193.43 184.375 196.642 186.445C198.784 187.826 200.239 189.771 201.007 192.28C201.277 193.162 201.298 193.371 201.302 195.135C201.307 197.148 201.249 197.531 200.665 199.364C200.253 200.655 199.26 202.607 198.298 204.015C197.305 205.47 197.126 205.709 197.073 205.646C197.052 205.621 196.977 205.244 196.907 204.808C196.436 201.876 194.731 199.472 192.266 198.266C191.024 197.658 190.166 197.47 188.648 197.472C187.235 197.475 186.294 197.676 185.014 198.253C181.122 200.006 178.204 204.677 177.303 210.596L177.17 211.468H174.366H171.563L171.612 211.231V211.231Z" fill="#DA121A"/>
</g>
<defs>
<clipPath id="clip0_1_4307">
<rect width="600" height="400" fill="white"/>
</clipPath>
</defs>
</svg>
