<svg width="600" height="400" viewBox="0 0 600 400" fill="none" xmlns="http://www.w3.org/2000/svg" xmlns:cgf="https://coding.garden/flags"><metadata id="cgf-metadata">

<cgf:flag>
  <cgf:name>Weert</cgf:name>
  <cgf:route>nl/li/weert</cgf:route>
  <cgf:aspect-ratio>1.5</cgf:aspect-ratio>
</cgf:flag>

</metadata><g clip-path="url(#clip0_1_4313)">
<path d="M600 0H0V400H600V0Z" fill="white"/>
<path d="M600 133.333H0V266.667H600V133.333Z" fill="#0085CF"/>
<path d="M200 0H0V400H200V0Z" fill="#FCCC00"/>
<path d="M78.3021 114.909C64.656 110.444 49.8819 99.336 42.235 87.7913C34.7702 76.5215 29.5517 56.3606 31.7905 47.4406C32.8716 43.1328 31.8269 40.3072 27.4722 35.762C23.9277 32.0624 22.2547 28.3925 23.1038 26.1798C28.7475 11.4728 92.977 13.037 92.977 27.8814C92.977 29.631 90.3555 33.684 87.1515 36.888C82.2438 41.7957 81.5121 44.1007 82.507 51.5181C84.9785 69.9449 98.2958 80.9977 116.165 79.4528C125.559 78.6407 128.346 77.2022 135.609 69.4152C142.88 61.6204 144.088 58.873 144.088 50.1291C144.088 44.5211 142.498 36.8581 140.555 33.1002C137.315 26.8349 137.322 25.9676 140.634 22.655C145.789 17.4999 169.197 17.6434 174.416 22.862C177.997 26.4437 178.002 26.9394 174.495 30.8148C171.708 33.8942 170.742 39.1522 170.706 51.4395C170.626 78.3027 158.344 98.1876 134.088 110.725C120.668 117.661 93.0447 119.733 78.3021 114.909Z" fill="#CC112F"/>
<path d="M78.3021 382.521C64.656 378.056 49.8819 366.947 42.235 355.403C34.7702 344.133 29.5517 323.972 31.7905 315.052C32.8716 310.744 31.8269 307.919 27.4722 303.373C23.9277 299.674 22.2547 296.004 23.1038 293.791C28.7475 279.084 92.977 280.648 92.977 295.493C92.977 297.242 90.3555 301.295 87.1515 304.499C82.2438 309.407 81.5121 311.712 82.507 319.129C84.9785 337.556 98.2958 348.609 116.165 347.064C125.559 346.252 128.346 344.814 135.609 337.027C142.88 329.232 144.088 326.484 144.088 317.74C144.088 312.132 142.498 304.469 140.555 300.711C137.315 294.446 137.322 293.579 140.634 290.266C145.789 285.111 169.197 285.255 174.416 290.473C177.997 294.055 178.002 294.551 174.495 298.426C171.708 301.505 170.742 306.764 170.706 319.051C170.626 345.914 158.344 365.799 134.088 378.336C120.668 385.272 93.0447 387.344 78.3021 382.521Z" fill="#CC112F"/>
<path d="M78.3021 248.715C64.656 244.25 49.8819 233.142 42.235 221.597C34.7702 210.327 29.5517 190.166 31.7905 181.246C32.8716 176.939 31.8269 174.113 27.4722 169.568C23.9277 165.868 22.2547 162.198 23.1038 159.985C28.7475 145.278 92.977 146.843 92.977 161.687C92.977 163.437 90.3555 167.49 87.1515 170.694C82.2438 175.601 81.5121 177.906 82.507 185.324C84.9785 203.751 98.2958 214.803 116.165 213.258C125.559 212.446 128.346 211.008 135.609 203.221C142.88 195.426 144.088 192.679 144.088 183.935C144.088 178.327 142.498 170.664 140.555 166.906C137.315 160.641 137.322 159.773 140.634 156.461C145.789 151.306 169.197 151.449 174.416 156.668C177.997 160.249 178.002 160.745 174.495 164.62C171.708 167.7 170.742 172.958 170.706 185.245C170.626 212.108 158.344 231.993 134.088 244.53C120.668 251.467 93.0447 253.539 78.3021 248.715Z" fill="#CC112F"/>
</g>
<defs>
<clipPath id="clip0_1_4313">
<rect width="600" height="400" fill="white"/>
</clipPath>
</defs>
</svg>
