<svg xmlns="http://www.w3.org/2000/svg" width="1920" height="1280"
	xmlns:cgf="https://coding.garden/flags">

	<metadata id="cgf-metadata">
		<cgf:flag>
			<cgf:name>Grand Rapids</cgf:name>
			<cgf:route>us/mi/grandrapids</cgf:route>
			<cgf:aspect-ratio>1.5</cgf:aspect-ratio>
		</cgf:flag>
	</metadata>

	<rect fill="#0249aa" width="1920" height="1280"/>
	<circle fill="#f8e119" cx="959.99" cy="640" r="568.54"/>
	<path fill="#0249aa" d="M1402.89,283.59c-49.55,33.93-60.61,104.09-79.36,162.67C1315,466.14,1298,486,1280.94,491.7c-34.09,11.37-22.72-39.76-39.77-56.8-14.21-8.52-31.24,2.84-36.93,17-17,39.76-19.87,96.57-59.63,107.92-51.12,17-96.57-51.11-150.53-65.31-48.29-11.37-96.57,39.76-113.62,88-36.91,93.74-14.19,193.14,22.72,281.19-34.07,5.67-65.31-11.37-93.72-25.57-90.88-48.35-204.53-48.35-286.88,25.51a29.53,29.53,0,0,1-6.91,5.84c-20.82,11.07-42,19.61-64.36,24.61a567.9,567.9,0,0,0,42.62,71.55c40.07-10.22,77.44-27.24,116.7-48,73.84-39.76,167.57,5.68,241.42,39.76,90.88,42.6,164.7-36.93,213-113.61,17-28.35,51.13-59.64,76.69-45.44,54,28.35,68.16,93.73,105.08,144.84,19.89,31.24,62.48,31.24,88,14.21,17-8.52,25.56-34.08,45.44-25.56a343.6,343.6,0,0,0,58.06,15.5A568.68,568.68,0,0,0,1402.89,283.59Z"/>
	<path fill="#d83d23" d="M970,834.41c51.11-42.6,73.83-99.41,116.44-147.69,22.72-22.72,48.29-22.72,73.85-2.84,51.12,42.6,88,88,116.44,147.69,2.85,5.68,14.2,22.72,19.88,14.2,28.36-39.76,17-85.2,11.37-130.64-2.85-34.09-17-68.16-2.85-96.57,8.52-17,28.35,8.52,34.09,19.87,17,36.93,39.76,71,54,108,5.69,19.87,17,36.92,22.72,56.79,8.71,33.13,33.5,54.48,62.48,70.62a569,569,0,0,0-75.46-590.27c-49.55,33.92-60.61,104.08-79.36,162.66C1315.05,466.13,1298,486,1281,491.69c-34.09,11.36-22.72-39.76-39.77-56.8-14.21-8.52-31.24,2.83-36.93,17-17,39.76-19.87,96.56-59.64,107.92-51.11,17-96.56-51.11-150.52-65.32-48.29-11.36-96.57,39.76-113.62,88-36.91,93.73-14.19,193.14,22.72,281.19-1.25.2-2.49.32-3.75.47C922.19,866.9,950.11,850.69,970,834.41Z"/>
</svg>