<svg width="600" height="400" viewBox="0 0 600 400" fill="none" xmlns="http://www.w3.org/2000/svg" xmlns:cgf="https://coding.garden/flags"><metadata id="cgf-metadata">

<cgf:flag>
  <cgf:name>Alkmaar</cgf:name>
  <cgf:route>nl/nh/alkmaar</cgf:route>
  <cgf:aspect-ratio>1.5</cgf:aspect-ratio>
</cgf:flag>

</metadata><g clip-path="url(#clip0_1_5843)">
<path d="M600 266.627H0V333.314H600V266.627Z" fill="white"/>
<path d="M600 133.294H0V199.941H600V133.294Z" fill="white"/>
<path d="M600 -2.80142e-06H0V66.6469H600V-2.80142e-06Z" fill="white"/>
<path d="M0 -0.0833582V66.6449V133.29V199.935V266.621H600V199.935H177.25V133.29H600V66.6449H177.25V-0.0833582H0Z" fill="#FF0000"/>
<path d="M600 333.314H0V400H600V333.314Z" fill="#FF0000"/>
<path d="M94.5413 164.091V164.883V174.635H96.1247V164.883V164.091H94.5413ZM94.5413 179.97V180.554V181.346H96.1247V180.554V179.97H94.5413ZM98.6663 169.092V169.759V174.635H99.9997V169.759V169.092H98.6663ZM98.6663 179.97V180.846V181.512H99.9997V180.846V179.97H98.6663ZM90.4997 162.674V163.507V174.635H92.1663V163.507V162.674H90.4997ZM90.4997 179.97V180.471V181.304H92.1663V180.471V179.97H90.4997ZM86.5413 164.091V164.883V174.635H88.1247V164.883V164.091H86.5413ZM86.5413 179.97V180.554V181.346H88.1247V180.554V179.97H86.5413ZM82.6663 169.092V169.759V174.635H83.9997V169.759V169.092H82.6663ZM82.6663 179.97V180.846V181.512H83.9997V180.846V179.97H82.6663ZM81.3747 175.933H101.333V178.642H81.3747V175.933ZM91.333 21.2147C89.519 21.2147 87.483 21.2309 85.333 21.298V31.301V31.9679H84.6663H76.958H75.6247H74.1663H73.4997V31.301V21.8815C70.9711 22.0337 68.4491 22.2033 65.958 22.3817V22.9652V32.0095V32.6347L65.333 32.6764L58.458 33.1349L54.958 33.385L54.2913 33.4266L54.2497 32.7598C54.2497 32.7598 54.1015 29.5417 53.8747 28.05C53.6618 26.6501 53.1844 24.5471 52.9163 23.4237C47.4353 23.8901 43.1247 24.2989 43.1247 24.2989C43.1247 24.2989 42.9306 40.4996 44.2913 44.0965L44.458 44.0548C44.458 44.0548 62.187 40.2203 91.333 40.2203C120.169 40.2203 138.208 44.0548 138.208 44.0548L138.375 44.0965C139.735 40.4996 139.541 24.2989 139.541 24.2989C139.541 24.2989 135.657 23.9486 129.916 23.4653C129.644 24.6089 129.168 26.6672 128.958 28.05C128.731 29.5417 128.583 32.7598 128.583 32.7598L128.541 33.4266L127.875 33.385L124.375 33.1349L117.5 32.6764L116.875 32.6347V32.0095V22.9652V22.4234C114.373 22.2442 111.881 22.0797 109.333 21.9232V31.301V31.9679H108.666H107.208H105.875H98.1663H97.4997V31.301V21.3397C95.2866 21.2668 93.1908 21.2147 91.333 21.2147V21.2147ZM76.2913 21.7148C75.8047 21.7416 75.3228 21.7699 74.833 21.7982V30.6341H76.2913V21.7148ZM106.541 21.7565V30.6341H108V21.8398C107.516 21.8112 107.022 21.7837 106.541 21.7565ZM56.4163 23.1319C55.6317 23.1962 54.9419 23.2787 54.208 23.3403C54.448 24.3461 54.9338 26.3123 55.1663 27.8416C55.3854 29.282 55.5065 31.3334 55.5413 32.0095L58.1663 31.8428C58.0217 28.9456 57.5593 26.0646 56.4163 23.1319ZM126.416 23.1736C125.284 26.0934 124.81 28.9578 124.666 31.8428L127.291 32.0095C127.326 31.3334 127.447 29.282 127.666 27.8416C127.899 26.3123 128.385 24.3461 128.625 23.3403C127.948 23.284 127.134 23.232 126.416 23.1736ZM91.333 41.5541C62.9594 41.5541 45.773 45.1815 44.9997 45.3469C45.7757 46.3213 46.8908 47.2212 48.0413 47.8893C49.3957 48.6757 50.8582 49.1025 51.6663 49.6398L52.0413 49.5565C52.0413 49.5565 67.5528 46.0554 91.333 46.0554C115.113 46.0554 130.625 49.5565 130.625 49.5565L131 49.6398C131.808 49.1025 133.27 48.6757 134.625 47.8893C135.775 47.2212 136.89 46.3213 137.666 45.3469C136.889 45.1834 119.411 41.5541 91.333 41.5541V41.5541ZM91.333 47.3891C67.684 47.3891 52.333 50.8485 52.333 50.8485C52.9242 53.7379 54.4545 68.4786 54.083 76.1477C53.0971 96.5019 48.2977 135.071 48.0413 137.124C48.608 137.027 64.6371 134.332 91.333 134.332C118.029 134.332 134.058 137.027 134.625 137.124C134.368 135.071 129.569 96.5019 128.583 76.1477C128.212 68.4786 129.742 53.7379 130.333 50.8485C130.333 50.8485 114.982 47.3891 91.333 47.3891V47.3891ZM83.833 69.4791H84.4997H97.833H98.4997V70.1459V84.5669V85.2338H97.833H84.4997H83.833V84.5669V70.1459V69.4791ZM85.1663 70.8128V83.9H97.1663V70.8128H85.1663ZM88.208 72.4383H94.2913V82.2745H88.208V72.4383ZM73.5413 100.488C73.5552 100.488 73.5691 100.488 73.583 100.488C73.5969 100.488 73.6108 100.488 73.6247 100.488C73.9737 100.412 74.34 100.681 74.4163 101.03C74.4927 101.379 74.2654 101.746 73.9163 101.822C71.1396 103.302 68.9414 106.717 67.708 111.617C67.0762 114.126 67.1928 116.372 66.833 118.577C66.4732 120.782 65.5373 122.928 62.8747 124.787C62.5967 125.051 62.0929 125.019 61.8747 124.704C61.6564 124.389 61.7796 123.871 62.1247 123.704C64.5317 122.023 65.215 120.369 65.5413 118.369C65.8677 116.369 65.7293 114.012 66.4163 111.283C67.7041 106.168 69.9878 102.394 73.2497 100.655C73.301 100.62 73.3573 100.591 73.4163 100.572C73.4431 100.556 73.471 100.542 73.4997 100.53C73.513 100.516 73.5269 100.502 73.5413 100.488ZM108.166 100.572C108.18 100.571 108.194 100.571 108.208 100.572C108.222 100.571 108.236 100.571 108.25 100.572C108.264 100.571 108.277 100.571 108.291 100.572C108.319 100.57 108.347 100.57 108.375 100.572C108.531 100.544 108.697 100.574 108.833 100.655C112.095 102.394 114.379 106.168 115.666 111.283C116.353 114.012 116.215 116.369 116.541 118.369C116.868 120.369 117.551 122.023 119.958 123.704C120.303 123.871 120.426 124.389 120.208 124.704C119.99 125.019 119.486 125.051 119.208 124.787C116.545 122.928 115.609 120.782 115.25 118.577C114.89 116.372 115.006 114.126 114.375 111.617C113.141 106.717 110.943 103.302 108.166 101.822C107.66 101.634 107.66 100.76 108.166 100.572ZM91.333 135.665C64.2482 135.665 48.083 138.458 48.083 138.458L47.7913 138.5C47.3429 139.675 45.9548 140.972 44.333 142.376C50.3345 141.621 67.8337 139.667 91.333 139.667C116.199 139.667 133.759 141.818 138.458 142.459C136.789 141.018 135.333 139.702 134.875 138.5L134.583 138.458C134.583 138.458 118.418 135.665 91.333 135.665ZM91.333 141C64.0989 141 44.7384 143.618 42.583 143.918C40.9452 145.358 39.3277 146.907 38.3747 148.586C40.9068 148.042 55.153 145.335 91.333 145.335C127.537 145.335 141.635 147.967 144.291 148.544C143.378 146.933 141.855 145.428 140.291 144.043C140.291 144.043 140.25 144.043 140.25 144.043C140.135 144.026 120.1 141 91.3331 141H91.333ZM91.333 146.669C51.1645 146.669 38.1663 149.961 38.1663 149.961L37.7497 150.086C36.5421 154.744 33.458 190.39 33.458 190.39C33.458 190.39 51.566 192.488 69.208 193.808L69.333 188.598V187.931H69.9997H74.458C74.4787 186.356 74.598 184.548 74.7497 182.638H70.6247H69.9163L69.9997 181.929C70.1632 179.887 70.3453 177.737 70.958 175.219L71.083 174.76L71.583 174.719L75.708 174.51H75.8747C76.1507 173.239 76.4876 171.995 76.8747 170.759L72.583 170.634H71.7913L71.9163 169.842C72.2492 167.792 72.63 165.667 73.9163 163.507L74.1663 163.132L74.583 163.174L79.6663 163.882L79.9997 163.924C80.2344 163.578 80.4951 163.251 80.7497 162.924L80.708 162.882L77.458 159.756L76.9997 159.298L77.4163 158.839C79.0911 156.767 80.9254 155.336 82.7913 154.088L83.2913 153.754L83.6663 154.213L86.7497 157.964L86.8747 158.131C87.0143 158.075 87.1493 158.014 87.2913 157.964V157.755V151.379V150.712H87.958H90.6247H91.2913H91.958H94.6247H95.2913V151.379V157.755V157.964C95.4286 158.012 95.573 158.036 95.708 158.089L95.833 157.964L98.9163 154.213L99.2913 153.754L99.7913 154.088C101.657 155.336 103.492 156.767 105.166 158.839L105.583 159.298L105.125 159.756L101.875 162.882C102.135 163.217 102.385 163.569 102.625 163.924L102.916 163.882L108 163.174L108.416 163.132L108.666 163.507C109.953 165.667 110.334 167.792 110.666 169.842L110.791 170.634H110L105.75 170.759C106.137 171.995 106.474 173.239 106.75 174.51H106.875L111 174.719L111.5 174.76L111.625 175.219C112.237 177.737 112.42 179.887 112.583 181.929L112.666 182.638H111.958H107.875C108.026 184.547 108.146 186.356 108.166 187.931H112.583H113.25V188.598L113.375 193.808C131.042 192.489 149.208 190.39 149.208 190.39C149.208 190.39 146.124 154.744 144.916 150.086L144.5 149.961C144.5 149.961 131.892 146.669 91.333 146.669V146.669ZM88.6247 152.045V157.589C89.2816 157.438 89.9663 157.337 90.6663 157.297C91.2392 157.264 91.4421 157.265 91.9997 157.297C92.669 157.336 93.329 157.407 93.958 157.547V152.045H91.958H91.2913H90.6247H88.6247ZM83.083 155.546C81.6053 156.565 80.1837 157.751 78.8747 159.256L81.583 161.882C82.7653 160.575 84.1476 159.512 85.6663 158.714L83.083 155.546ZM99.4997 155.546L96.9163 158.672C98.463 159.474 99.8438 160.552 101.041 161.882L103.708 159.256C102.399 157.751 100.977 156.565 99.4997 155.546ZM50.6663 157.339H55.9997V169.301H50.6663V157.339ZM126.625 157.339H131.916V169.301H126.625V157.339ZM91.333 158.506C85.8082 158.506 81.6383 162.63 79.333 167.883C74.7116 178.415 75.958 194.225 75.958 194.225V194.266C76.8553 194.322 77.7874 194.384 78.6663 194.433C78.6663 194.433 77.5517 179.072 81.6247 169.259C82.3086 167.611 83.4833 165.634 85.1247 164.049C86.6053 162.619 88.527 161.661 90.6663 161.423C91.302 161.352 91.4476 161.35 91.9997 161.423C94.1305 161.705 96.0626 162.62 97.5413 164.049C99.1828 165.634 100.357 167.611 101.041 169.259C105.114 179.072 104 194.433 104 194.433C104.865 194.384 105.783 194.321 106.666 194.266V194.225C106.666 194.225 107.913 178.415 103.291 167.883C100.986 162.63 96.8578 158.506 91.333 158.506ZM74.9163 164.591C74.0816 166.139 73.6964 167.726 73.4163 169.342L77.083 169.426H77.2913C77.5446 168.714 77.8262 168.022 78.1247 167.342C78.4509 166.598 78.8053 165.871 79.208 165.174L74.9163 164.591ZM107.666 164.591L103.416 165.174C103.818 165.871 104.173 166.598 104.5 167.342C104.798 168.022 105.08 168.714 105.333 169.426H105.5L109.166 169.342C108.886 167.726 108.501 166.139 107.666 164.591ZM75.583 175.844L72.208 176.011C71.7683 177.95 71.561 179.643 71.4163 181.304H74.7497H74.833C75.0074 179.527 75.2301 177.704 75.583 175.844ZM107.041 175.844C107.394 177.704 107.617 179.527 107.791 181.304H107.833H111.166C111.022 179.643 110.814 177.95 110.375 176.011L107.041 175.844ZM70.6663 189.265L70.5413 193.891C71.9088 193.991 73.2772 194.095 74.6247 194.183C74.6113 194.02 74.4678 192.073 74.458 189.265H70.6663ZM108.166 189.265C108.156 192.073 108.013 194.02 108 194.183C109.334 194.096 110.687 193.989 112.041 193.891L111.916 189.265H108.166Z" fill="white"/>
</g>
<defs>
<clipPath id="clip0_1_5843">
<rect width="600" height="400" fill="white"/>
</clipPath>
</defs>
</svg>
