<svg width="600" height="400" viewBox="0 0 600 400" fill="none" xmlns="http://www.w3.org/2000/svg" xmlns:cgf="https://coding.garden/flags"><metadata id="cgf-metadata">

<cgf:flag>
  <cgf:name>Amstelveen</cgf:name>
  <cgf:route>nl/nh/amstelveen</cgf:route>
  <cgf:aspect-ratio>1.5</cgf:aspect-ratio>
</cgf:flag>

</metadata><g clip-path="url(#clip0_1_5819)">
<path d="M600 0H0V400H600V0Z" fill="#F32737"/>
<path d="M600 80H0V160H600V80Z" fill="black"/>
<path d="M600 240H0V320H600V240Z" fill="black"/>
<rect x="262.667" y="101.523" width="26.6667" height="80" transform="rotate(-45 262.667 101.523)" fill="white"/>
<rect x="319.235" y="82.6667" width="26.6667" height="80" transform="rotate(45 319.235 82.6667)" fill="white"/>
<rect x="93.333" y="101.523" width="26.6667" height="80" transform="rotate(-45 93.333 101.523)" fill="white"/>
<rect x="149.901" y="82.6667" width="26.6667" height="80" transform="rotate(45 149.901 82.6667)" fill="white"/>
<rect x="432" y="101.523" width="26.6667" height="80" transform="rotate(-45 432 101.523)" fill="white"/>
<rect x="488.568" y="82.6667" width="26.6667" height="80" transform="rotate(45 488.568 82.6667)" fill="white"/>
<rect x="262.667" y="261.523" width="26.6667" height="80" transform="rotate(-45 262.667 261.523)" fill="white"/>
<rect x="319.235" y="242.667" width="26.6667" height="80" transform="rotate(45 319.235 242.667)" fill="white"/>
</g>
<defs>
<clipPath id="clip0_1_5819">
<rect width="600" height="400" fill="white"/>
</clipPath>
</defs>
</svg>
