<svg width="600" height="400" viewBox="0 0 600 400" fill="none" xmlns="http://www.w3.org/2000/svg" xmlns:cgf="https://coding.garden/flags"><metadata id="cgf-metadata">

<cgf:flag>
  <cgf:name>Bergen</cgf:name>
  <cgf:route>nl/nh/bergen</cgf:route>
  <cgf:aspect-ratio>1.5</cgf:aspect-ratio>
</cgf:flag>

</metadata><path d="M0.282227 0.264168V399.736H599.717V1.22444L0.282227 0.264168Z" fill="white"/>
<path d="M143.661 101.939L142.315 271.692L564.834 270.334L563.489 101.939H143.661Z" fill="#000067"/>
<path d="M372.961 180.522C347.394 168.702 321.828 166.684 296.262 161.51C254.527 150.277 213.796 134.995 170.448 130.275L86.3477 135.028C70.3321 136.792 56.8514 139.835 47.9981 145.213L50.6893 147.25C71.9339 141.433 98.3276 139.513 126.716 139.102L161.701 150.645C138.569 149.257 116.017 147.086 87.6933 152.682C73.0015 157.546 59.2358 163.345 53.3805 177.127L43.2885 187.312L44.6341 190.707L35.2148 205.645V211.756C40.4086 198.3 49.5615 190.17 60.1085 183.917L61.4541 189.349L70.8733 184.596L80.9653 185.954L97.7853 187.991C86.3748 192.092 72.0487 193.251 65.4909 202.25L85.6749 202.929L85.0021 207.003L73.5645 211.077L75.5829 214.473L78.2741 217.189L115.278 211.077H146.227C162.036 217.664 182.674 223.276 207.452 228.053L198.705 221.263L264.64 242.991L265.313 240.954L223.599 226.016L307.699 249.781L309.045 246.386L257.239 230.769C275.853 234.774 294.467 244.048 313.082 241.633H327.21V239.596H323.174V236.88H339.321L331.92 228.732L360.85 228.053L363.542 230.09H374.979V226.016C402.788 229.838 430.597 235.56 458.407 230.769L457.734 228.732L381.034 214.473L383.053 212.435L414.675 217.868L407.274 211.077C425.794 211.266 443.005 214.099 463.116 211.077L467.826 207.003H475.899L474.554 204.287L451.006 200.213L456.388 198.176L443.605 196.818V195.46L430.822 194.781L449.66 191.386L372.961 180.522Z" fill="#FF8A00"/>
<path d="M222.59 136.386L179.867 128.577C165.626 124.613 151.385 124.805 137.144 116.016L132.098 114.318H117.296L115.951 111.263H104.177L104.513 108.546L114.269 108.886V110.244L145.218 110.584C168.541 112.983 191.865 115.375 215.189 124.843L213.843 126.88H209.134V129.256L216.198 133.67L220.235 132.991L222.59 136.386Z" fill="#FF8A00"/>
<path d="M235.373 125.861L197.359 117.374L198.369 115.676L236.045 124.164L235.373 125.861Z" fill="#FF8A00"/>
<path d="M164.392 226.355L148.918 222.621L149.591 222.96V220.584L160.692 221.263V222.621L163.72 222.96V220.244L149.927 219.226V217.528H140.844V219.905H146.563V221.263L135.462 220.923L135.126 219.226L94.4211 219.565V221.942L90.0479 221.602V224.658L144.545 225.676L155.31 225.337V226.695L164.392 226.355Z" fill="#FF8A00"/>
<path d="M189.286 239.596L223.935 249.102L224.945 246.047L189.959 236.88L189.286 239.596Z" fill="#FF8A00"/>
<path d="M292.94 156.928L326.48 165.33L368.346 173.973L396.652 175.893V173.973L354.549 165.81L316.965 157.888L294.606 155.247L292.94 156.928Z" fill="#FF8A00"/>
<path d="M338.136 250.794L358.593 258.716L390.943 263.518V260.877L359.782 255.355L343.131 250.314L338.136 250.794Z" fill="#FF8A00"/>
<path d="M453.528 192.744H483.804V194.951H475.394V196.988L488.682 196.479L502.306 192.235H507.352L506.848 196.648L492.214 200.553L488.514 202.59L472.871 202.42L471.526 198.685L465.471 198.516L464.63 196.479L458.574 195.969L458.238 194.442H454.033L453.528 192.744Z" fill="#FF8A00"/>
<path d="M476.908 213.284L476.74 215.152L488.682 215.321V216.51L496.924 217.528L527.873 206.664H530.06V204.627H522.154L521.986 206.834L488.851 212.945L476.908 213.284Z" fill="#FF8A00"/>
<path d="M481.282 229.75L482.964 232.127L493.056 234.334L506.176 231.448V229.581H508.026L508.194 228.053H501.971V229.75H481.282Z" fill="#FF8A00"/>
</svg>
