<svg width="600" height="400" viewBox="0 0 600 400" fill="none" xmlns="http://www.w3.org/2000/svg" xmlns:cgf="https://coding.garden/flags"><metadata id="cgf-metadata">

<cgf:flag>
  <cgf:name>Beverwijk</cgf:name>
  <cgf:route>nl/nh/beverwijk</cgf:route>
  <cgf:aspect-ratio>1.5</cgf:aspect-ratio>
</cgf:flag>

</metadata><g clip-path="url(#clip0_1_5852)">
<path d="M600 0H0V400H600V0Z" fill="#CC112F"/>
<path d="M306.179 195.726C311.909 189.61 315.604 180.297 315.604 171.972V165.728L324.643 170.201C332.567 174.121 334.784 174.343 342.61 171.998C349.996 169.785 352.275 167.658 355.804 159.68C358.15 154.376 359.661 148.691 359.161 147.048C355.466 134.9 355.66 135.013 351.183 142.376C345.395 151.893 338.787 155.211 331.885 152.066C324.856 148.863 274.494 148.863 268.51 152.066C262.248 155.417 254.566 151.67 249.028 142.563C246.072 137.704 244.366 136.446 243.69 138.629C243.144 140.394 242.096 143.682 241.362 145.937C240.627 148.191 241.946 154.376 244.292 159.68C247.821 167.658 250.1 169.785 257.486 171.998C265.312 174.343 267.529 174.121 275.453 170.201L284.493 165.728V171.972C284.493 180.297 288.187 189.61 293.917 195.726C299.716 201.917 300.381 201.917 306.179 195.726Z" fill="white"/>
<path d="M333.382 142.949C333.382 138.702 331.9 138.504 300.048 138.504C268.196 138.504 266.715 138.702 266.715 142.949C266.715 147.195 268.196 147.393 300.048 147.393C331.9 147.393 333.382 147.195 333.382 142.949Z" fill="white"/>
<path d="M333.382 131.837C333.382 127.591 331.9 127.393 300.048 127.393C268.196 127.393 266.715 127.591 266.715 131.837C266.715 136.084 268.196 136.282 300.048 136.282C331.9 136.282 333.382 136.084 333.382 131.837Z" fill="white"/>
<path d="M236.114 114.825C234.827 103.41 238.452 98.5041 248.173 98.5041C254.587 98.5041 267.542 109.773 271.155 118.494L273.92 125.171H300.048H326.175L328.941 118.494C332.553 109.773 345.509 98.5041 351.923 98.5041C361.592 98.5041 365.268 103.421 364 114.662C362.988 123.645 363.277 124.577 366.45 122.573C373.867 117.889 378.654 108.62 379.61 97.0886C380.499 86.366 380.004 84.7849 373.819 78.6004C368.233 73.0136 365.268 71.8374 356.775 71.8374C351.12 71.8374 343.692 73.2863 340.267 75.0572C332.835 78.9008 321.042 91.8714 318.93 98.5255C315.836 108.272 315.885 101.186 318.992 89.5119C325.756 64.0963 320.895 42.0897 306.073 31.0232L300.048 26.5252L294.023 31.0232C279.201 42.0897 274.34 64.0963 281.103 89.5119C284.21 101.186 284.259 108.272 281.166 98.5255C279.054 91.8714 267.261 78.9008 259.828 75.0572C256.404 73.2863 248.975 71.8374 243.321 71.8374C229.369 71.8374 220.048 80.6114 220.048 93.7441C220.048 105.254 222.529 111.51 230.09 119.06C233.456 122.421 236.45 125.171 236.745 125.171C237.039 125.171 236.755 120.515 236.114 114.825Z" fill="white"/>
<path d="M164.646 367.61C170.376 361.493 174.071 352.181 174.071 343.855V337.612L183.11 342.084C191.034 346.004 193.251 346.226 201.077 343.881C208.463 341.669 210.742 339.541 214.271 331.563C216.617 326.259 218.128 320.574 217.628 318.931C213.933 306.783 214.127 306.896 209.649 314.259C203.862 323.777 197.254 327.094 190.352 323.949C183.323 320.747 132.961 320.747 126.977 323.949C120.715 327.301 113.033 323.553 107.494 314.446C104.539 309.587 102.833 308.329 102.157 310.512C101.611 312.277 100.563 315.565 99.8283 317.82C99.0939 320.074 100.413 326.259 102.759 331.563C106.288 339.541 108.567 341.669 115.953 343.881C123.779 346.226 125.996 346.004 133.92 342.084L142.959 337.612V343.855C142.959 352.181 146.654 361.493 152.384 367.61C158.182 373.8 158.847 373.8 164.646 367.61Z" fill="white"/>
<path d="M191.848 314.832C191.848 310.585 190.367 310.387 158.515 310.387C126.663 310.387 125.182 310.585 125.182 314.832C125.182 319.079 126.663 319.276 158.515 319.276C190.367 319.276 191.848 319.079 191.848 314.832Z" fill="white"/>
<path d="M191.848 303.721C191.848 299.474 190.367 299.276 158.515 299.276C126.663 299.276 125.182 299.474 125.182 303.721C125.182 307.968 126.663 308.165 158.515 308.165C190.367 308.165 191.848 307.968 191.848 303.721Z" fill="white"/>
<path d="M94.5804 286.708C93.2937 275.293 96.9184 270.387 106.64 270.387C113.054 270.387 126.009 281.656 129.622 290.377L132.387 297.054H158.515H184.642L187.408 290.377C191.02 281.656 203.976 270.387 210.389 270.387C220.059 270.387 223.734 275.304 222.467 286.545C221.455 295.528 221.743 296.46 224.917 294.456C232.334 289.772 237.12 280.504 238.077 268.972C238.966 258.249 238.471 256.668 232.286 250.484C226.699 244.897 223.735 243.721 215.242 243.721C209.587 243.721 202.159 245.17 198.734 246.941C191.302 250.784 179.509 263.755 177.397 270.409C174.303 280.155 174.352 273.069 177.459 261.395C184.223 235.98 179.362 213.973 164.539 202.907L158.515 198.408L152.49 202.907C137.668 213.973 132.807 235.98 139.57 261.395C142.677 273.069 142.726 280.155 139.633 270.409C137.521 263.755 125.728 250.784 118.295 246.941C114.871 245.17 107.442 243.721 101.787 243.721C87.8358 243.721 78.5146 252.495 78.5146 265.627C78.5146 277.138 80.996 283.393 88.5564 290.943C91.9223 294.304 94.917 297.054 95.2114 297.054C95.5057 297.054 95.2217 292.399 94.5804 286.708Z" fill="white"/>
<path d="M448.244 367.61C453.974 361.493 457.668 352.181 457.668 343.855V337.612L466.708 342.084C474.631 346.004 476.849 346.226 484.675 343.881C492.061 341.669 494.34 339.541 497.869 331.563C500.215 326.259 501.726 320.574 501.226 318.931C497.531 306.783 497.725 306.896 493.247 314.259C487.459 323.777 480.852 327.094 473.949 323.949C466.92 320.747 416.558 320.747 410.574 323.949C404.313 327.301 396.63 323.553 391.092 314.446C388.137 309.587 386.431 308.329 385.755 310.512C385.208 312.277 384.16 315.565 383.426 317.82C382.692 320.074 384.01 326.259 386.357 331.563C389.886 339.541 392.165 341.669 399.55 343.881C407.377 346.226 409.594 346.004 417.518 342.084L426.557 337.612V343.855C426.557 352.181 430.252 361.493 435.981 367.61C441.78 373.8 442.445 373.8 448.244 367.61Z" fill="white"/>
<path d="M475.446 314.832C475.446 310.585 473.964 310.387 442.113 310.387C410.261 310.387 408.779 310.585 408.779 314.832C408.779 319.079 410.261 319.276 442.113 319.276C473.964 319.276 475.446 319.079 475.446 314.832Z" fill="white"/>
<path d="M475.446 303.721C475.446 299.474 473.964 299.276 442.113 299.276C410.261 299.276 408.779 299.474 408.779 303.721C408.779 307.968 410.261 308.165 442.113 308.165C473.964 308.165 475.446 307.968 475.446 303.721Z" fill="white"/>
<path d="M378.178 286.708C376.891 275.293 380.516 270.387 390.238 270.387C396.651 270.387 409.607 281.656 413.219 290.377L415.985 297.054H442.112H468.24L471.005 290.377C474.618 281.656 487.573 270.387 493.987 270.387C503.657 270.387 507.332 275.304 506.065 286.545C505.052 295.528 505.341 296.46 508.515 294.456C515.932 289.772 520.718 280.504 521.674 268.972C522.564 258.249 522.068 256.668 515.884 250.484C510.297 244.897 507.333 243.721 498.84 243.721C493.185 243.721 485.756 245.17 482.332 246.941C474.899 250.784 463.106 263.755 460.994 270.409C457.901 280.155 457.95 273.069 461.057 261.395C467.82 235.98 462.959 213.973 448.137 202.907L442.112 198.408L436.088 202.907C421.265 213.973 416.404 235.98 423.168 261.395C426.275 273.069 426.324 280.155 423.23 270.409C421.118 263.755 409.325 250.784 401.893 246.941C398.468 245.17 391.04 243.721 385.385 243.721C371.433 243.721 362.112 252.495 362.112 265.627C362.112 277.138 364.594 283.393 372.154 290.943C375.52 294.304 378.515 297.054 378.809 297.054C379.103 297.054 378.819 292.399 378.178 286.708Z" fill="white"/>
</g>
<defs>
<clipPath id="clip0_1_5852">
<rect width="600" height="400" fill="white"/>
</clipPath>
</defs>
</svg>
