<svg width="600" height="400" viewBox="0 0 600 400" fill="none" xmlns="http://www.w3.org/2000/svg" xmlns:cgf="https://coding.garden/flags"><metadata id="cgf-metadata">

<cgf:flag>
  <cgf:name>Blaricum</cgf:name>
  <cgf:route>nl/nh/blaricum</cgf:route>
  <cgf:aspect-ratio>1.5</cgf:aspect-ratio>
</cgf:flag>

</metadata><g clip-path="url(#clip0_1_5890)">
<path d="M600 0H0V400H600V0Z" fill="#0F47AF"/>
<path d="M600 101.552H0V299.178H600V101.552Z" fill="white"/>
<path d="M600 150.867H0V249.863H600V150.867Z" fill="#078930"/>
<path d="M180.324 12.3502L79.3779 202.978L180.324 394.64L280.26 202.978L180.324 12.3502Z" fill="white" stroke="black" stroke-width="0.941529"/>
<path d="M180.551 378.886C179.882 378.749 179.246 378.145 179.053 377.465C178.988 377.232 178.446 365.984 177.849 352.469C177.253 338.955 176.753 327.884 176.738 327.866C176.724 327.847 176.407 327.999 176.035 328.202C175.663 328.404 175.102 328.666 174.79 328.784L174.222 328.999L174.221 330.814C174.22 332.875 174.102 333.616 173.468 335.583C172.495 338.598 172.834 341.835 174.435 344.809C175.353 346.516 175.656 347.22 175.943 348.314C176.325 349.772 176.32 351.757 175.93 353.277C175.394 355.366 175.02 355.898 174.085 355.898C173.612 355.898 173.47 355.835 173.162 355.48C172.705 354.957 172.691 354.458 173.099 353.149C173.263 352.621 173.438 351.787 173.488 351.295L173.579 350.4L173.314 350.643C173.023 350.909 172.86 351.412 172.318 353.724L171.958 355.258L172.51 355.888C173.822 357.385 174.413 359.127 174.05 360.424C173.6 362.03 171.902 362.655 171.02 361.54C170.684 361.115 170.733 360.281 171.122 359.807L171.445 359.414L171.186 358.87C171.043 358.571 170.794 358.158 170.631 357.952L170.336 357.577L169.849 357.817C169.581 357.95 169.018 358.081 168.597 358.11C167.837 358.161 167.83 358.159 167.255 357.596C166.621 356.974 166.516 356.521 166.853 355.855C167.118 355.331 167.863 355 168.351 355.19C168.579 355.279 168.697 355.253 168.845 355.087C169.204 354.681 169.546 353.701 169.861 352.179C170.033 351.348 170.333 350.321 170.528 349.895C170.915 349.047 171.815 348.037 172.407 347.786L172.785 347.626L172.046 346.198C171.319 344.794 170.424 342.311 170.424 341.7C170.424 341.227 170.203 341.325 170.048 341.867C169.682 343.145 169.798 345.648 170.264 346.546C170.568 347.131 170.529 348.222 170.18 348.921C169.799 349.683 168.88 350.573 167.954 351.078C167.225 351.476 167.183 351.526 166.985 352.226C166.193 355.038 163.904 356.712 162.32 355.639C160.949 354.71 161.371 352.959 162.96 352.984C163.526 352.984 163.59 352.96 163.869 352.528C164.034 352.273 164.261 351.661 164.374 351.168C164.744 349.553 164.853 349.418 166.301 348.765C167.167 348.375 167.731 347.852 167.611 347.552C167.088 346.24 166.944 342.878 167.346 341.388C167.654 340.249 168.187 339.142 168.893 338.174C170.392 336.119 171.054 334.629 171.385 332.566C171.542 331.586 171.562 331.054 171.474 330.193L171.361 329.083L170.674 328.863C170.296 328.742 169.58 328.433 169.084 328.176C168.588 327.918 168.097 327.707 167.994 327.707C167.821 327.707 167.301 328.559 167.301 328.84C167.301 328.905 167.455 329.015 167.644 329.084C168.173 329.272 169.006 330.207 169.424 331.077C169.883 332.033 170.217 333.587 170.107 334.253C169.964 335.122 169.052 335.574 168.238 335.178C167.742 334.937 167.502 334.55 167.374 333.78C167.238 332.964 166.929 332.088 166.713 331.904C166.531 331.75 166.519 331.904 166.587 333.652C166.628 334.707 166.749 336.059 166.856 336.657C167.096 337.998 167.104 340.026 166.873 341.132C166.526 342.792 165.992 343.891 164.935 345.121C164.664 345.435 164.405 345.86 164.359 346.065C164.312 346.27 164.082 346.854 163.848 347.362C163.042 349.109 161.677 350.097 160.351 349.894C159.618 349.782 158.807 349.003 158.807 348.413C158.807 347.487 159.556 346.8 160.411 346.944C160.826 347.012 160.894 346.981 161.148 346.594C161.417 346.186 161.7 345.424 161.858 344.683C161.899 344.49 162.247 343.974 162.63 343.535C163.511 342.524 163.865 341.904 164.109 340.945C164.352 339.99 164.354 338.039 164.112 336.849C164.013 336.357 163.895 335.005 163.852 333.844C163.765 331.505 163.933 330.066 164.482 328.449C164.645 327.971 164.758 327.579 164.734 327.579C164.71 327.579 164.359 327.862 163.954 328.207C163.078 328.953 162.114 330.224 161.919 330.889C161.792 331.324 161.813 331.428 162.164 332.062C163.234 333.996 163.241 334.023 163.24 335.762C163.239 337.596 162.962 338.687 162.255 339.635C161.776 340.278 161.361 340.457 160.727 340.292C159.735 340.035 159.52 339.102 160.142 337.744C160.445 337.081 160.493 336.82 160.493 335.826C160.493 334.66 160.394 334.372 159.694 333.511C159.631 333.432 159.456 333.122 159.306 332.82C158.746 331.697 159.163 329.615 160.238 328.173C160.501 327.82 160.529 327.716 160.392 327.599C160.156 327.399 159.351 327.062 158.65 326.87C158.09 326.716 158.045 326.724 157.865 326.983C157.501 327.513 157.183 328.855 157.184 329.862C157.185 331.091 157.308 331.552 158.061 333.141C158.766 334.629 158.925 335.238 158.927 336.465C158.93 337.941 158.489 339.182 157.392 340.79C156.69 341.819 155.994 342.135 155.27 341.756C154.408 341.305 154.32 340.367 155.042 339.331C155.909 338.088 156.084 337.617 156.103 336.475C156.121 335.474 156.102 335.401 155.476 334.1C154.687 332.457 154.436 331.444 154.43 329.873L154.426 328.666L154.118 329.05C153.79 329.457 152.536 331.93 152.097 333.035C151.788 333.811 151.371 334.135 150.681 334.135C149.815 334.135 149.254 333.344 149.458 332.412C149.594 331.795 150.672 329.354 151.214 328.44C152.241 326.704 153.653 325.21 154.838 324.601C155.636 324.192 156.803 323.872 157.499 323.872C158.753 323.872 160.791 324.511 161.964 325.273L162.55 325.653L163.271 325.219C165.321 323.983 167.225 324.118 170.457 325.729C171.538 326.268 171.773 326.338 172.518 326.342C173.133 326.342 173.561 326.26 174.109 326.031C175.102 325.613 177.168 324.242 177.169 323.999C177.169 323.894 177.616 318.515 178.161 312.045C179.002 302.073 179.173 299.582 179.286 295.68C179.359 293.148 179.418 290.523 179.418 289.845V288.614L177.872 289.232C176.287 289.865 174.344 290.422 173.235 290.561C172.891 290.604 172.38 290.667 172.099 290.704L171.587 290.767L171.646 292.018C171.73 293.813 171.461 295.062 170.6 296.861C169.784 298.565 169.492 299.781 169.614 300.968C169.788 302.659 170.502 304.25 171.835 305.914C173.391 307.857 173.559 308.096 173.941 308.912C174.672 310.475 174.87 312.288 174.479 313.84C174.216 314.882 173.463 316.495 173.05 316.901C172.417 317.521 171.213 317.297 170.918 316.505C170.725 315.985 170.774 315.714 171.252 314.629L171.706 313.601L171.554 312.727C171.47 312.247 171.349 311.821 171.285 311.78C171.221 311.74 170.974 311.78 170.736 311.853C170.11 312.064 169.465 312.904 169.171 313.892C168.807 315.115 168.485 315.433 167.612 315.433C167.271 315.433 167.062 315.334 166.776 315.042C166.409 314.666 166.397 314.619 166.456 313.776C166.575 312.062 167.798 310.212 169.327 309.43C169.746 309.215 170.19 309.04 170.312 309.04C170.63 309.04 170.706 308.842 170.466 308.639C170.352 308.543 169.88 307.961 169.415 307.346C168.365 305.957 167.398 303.959 167.094 302.551C166.969 301.971 166.825 301.496 166.775 301.496C166.724 301.496 166.596 301.633 166.489 301.799C166.202 302.248 165.053 305.837 165.053 306.286C165.053 306.5 165.165 306.977 165.303 307.347C165.44 307.717 165.553 308.197 165.553 308.414C165.553 309.378 164.437 310.06 163.64 309.583C163.421 309.452 163.118 309.119 162.966 308.841C162.642 308.251 162.109 308.065 161.496 308.327C160.941 308.565 160.216 309.453 160.057 310.087C159.982 310.39 159.859 310.798 159.784 310.994C159.324 312.198 157.535 312.118 157.231 310.879C157.104 310.36 157.396 309.087 157.837 308.239C158.605 306.759 160.154 305.574 161.57 305.382L162.146 305.303L162.218 304.454C162.386 302.484 163.396 300.714 165.24 299.157C166.963 297.703 168.288 295.807 168.698 294.208C168.918 293.35 168.97 292.013 168.822 291.016C168.742 290.476 168.711 290.439 168.238 290.334C167.963 290.273 167.233 290.058 166.614 289.855C165.232 289.403 163.768 289.014 163.01 288.898C162.442 288.811 162.434 288.815 161.816 289.495C161.231 290.137 160.611 291.15 160.318 291.938C160.194 292.272 160.21 292.289 160.791 292.465C162.752 293.061 164.125 294.67 164.575 296.901C164.716 297.598 164.708 297.712 164.487 298.131C164.186 298.704 163.683 298.941 163.069 298.8C162.514 298.673 162.109 298.213 161.921 297.499C161.615 296.336 160.759 295.231 160.163 295.231C159.925 295.231 159.91 295.281 159.987 295.838C160.033 296.172 160.218 297.078 160.397 297.851C161.141 301.066 160.634 303.503 158.807 305.502C157.077 307.396 155.464 307.908 154.879 306.749C154.458 305.917 154.735 305.217 155.764 304.507C156.101 304.275 156.448 303.997 156.535 303.891C156.621 303.783 156.974 302.727 157.32 301.541L157.947 299.386L157.69 298.363C156.869 295.105 157.085 291.87 158.262 289.786C158.425 289.498 158.557 289.227 158.557 289.184C158.557 289.09 157.736 289.376 157.205 289.657C156.885 289.826 156.812 289.955 156.748 290.467C156.527 292.23 155.964 293.769 155.054 295.096L154.534 295.856L154.78 296.214C156.051 298.065 155.879 300.623 154.345 302.643C153.828 303.325 153.488 303.541 152.936 303.541C152.417 303.541 152.01 303.318 151.77 302.903C151.419 302.295 151.549 301.748 152.278 300.766C152.908 299.918 153.079 298.464 152.606 297.979C152.446 297.816 152.364 297.833 151.936 298.124C151.668 298.305 150.902 298.75 150.235 299.112C149.11 299.722 148.984 299.829 148.521 300.586L148.021 301.401L148.824 302.164C151.66 304.862 152.344 305.899 152.674 308C152.929 309.627 152.294 312.545 151.544 313.191C151.337 313.368 151.074 313.521 150.959 313.529C150.129 313.584 149.632 313.284 149.424 312.599C149.3 312.194 149.326 311.989 149.616 311.07L149.95 310.009L149.233 307.855L148.516 305.702L147.622 304.883L146.728 304.064L146.644 305.561C146.548 307.285 146.365 308.102 145.862 309.048C144.646 311.336 141.841 312.359 140.761 310.909C140.399 310.424 140.366 310.077 140.631 309.552C140.893 309.035 141.294 308.784 141.859 308.784C142.452 308.784 142.927 308.51 143.298 307.955C143.721 307.324 143.799 306.882 143.926 304.373C143.993 303.043 144.116 301.855 144.217 301.56C144.382 301.077 144.372 301.003 144.039 300.23C143.845 299.779 143.596 299.044 143.486 298.597C143.267 297.706 143.295 297.712 142.541 298.409C142.283 298.647 142.031 299.245 141.498 300.883L140.794 303.044L141.1 304.044C141.446 305.176 141.422 305.691 141.004 306.153C140.457 306.757 139.655 306.738 139.08 306.108C138.43 305.395 137.867 302.958 138.007 301.46C138.2 299.389 138.99 297.988 141.115 295.947C143.79 293.378 144.548 292.069 144.769 289.636C144.869 288.527 144.87 288.527 143.59 289.155C141.624 290.119 139.913 291.765 138.288 294.256C137.973 294.74 137.556 295.243 137.362 295.374C136.403 296.021 135.204 295.249 135.357 294.083C135.478 293.162 137.56 290.318 139.204 288.827C140.415 287.729 141.088 287.271 142.491 286.591C144.212 285.757 145.517 285.469 147.565 285.47C149.918 285.47 151.934 285.922 154.946 287.116L155.52 287.344L156.597 286.87C158.192 286.169 159.211 285.969 161.181 285.971C163.112 285.971 164.33 286.203 167.245 287.111C171.099 288.313 173.101 288.16 177.607 286.322C178.569 285.93 179.418 285.544 179.495 285.465C179.722 285.23 180.476 277.958 180.307 277.629C180.111 277.249 176.11 273.09 174.813 271.919C168.169 265.917 161.752 263.111 152.374 262.106C151.618 262.026 147.29 261.912 142.756 261.855C134.768 261.754 133.826 261.708 130.889 261.281C122.318 260.033 116.304 256.25 112.124 249.479C111.404 248.312 109.56 244.589 109.655 244.492C109.685 244.461 110.081 244.775 110.534 245.189C115.744 249.956 120.935 252.598 127.454 253.802C130.886 254.437 135.671 254.712 142.693 254.679C153.279 254.629 154.314 254.644 156.059 254.879C163.217 255.84 169.067 258.4 173.859 262.669C176.08 264.647 178.94 268.096 180.238 270.363L180.605 271.002L180.638 267.23C180.675 263.082 180.519 258.556 180.334 258.427C180.269 258.38 180.002 257.827 179.741 257.194C179.06 255.545 177.413 252.266 176.508 250.758C175.882 249.714 174.171 247.643 167.592 239.969L159.451 230.472L157.595 228.968C156.575 228.14 155.077 226.977 154.266 226.381L152.793 225.299L152.306 225.553C151.148 226.157 149.204 226.421 147.584 226.192C145.249 225.864 142.64 224.764 140.452 223.187C139.217 222.296 137.299 220.384 136.346 219.093C135.532 217.99 134.295 215.437 133.993 214.235C133.671 212.953 133.693 210.538 134.036 209.542C135.198 206.165 138.448 204.412 142.421 205.02C145.721 205.525 148.911 207.245 151.568 209.952C153.23 211.645 154.011 212.717 154.873 214.49C155.828 216.457 156.104 217.717 156.03 219.767L155.972 221.335L157.232 222.26C161.017 225.037 164.71 228.262 168.246 231.875C172.487 236.209 175.335 239.696 178.534 244.472L179.69 246.198L179.611 245.24C179.467 243.488 178.807 236.178 178.232 229.971C177.261 219.48 176.596 209.369 176.242 199.723C176.055 194.611 176.154 195.144 174.788 191.955C170.899 182.88 165.204 174.634 157.413 166.793C153.248 162.601 149.854 159.618 143.817 154.842C137.108 149.535 134.174 147.03 131.7 144.494C127.456 140.145 125.685 136.652 125.684 132.628C125.684 131.765 125.723 130.822 125.771 130.533L125.858 130.006L126.63 131.591C129.877 138.255 136.515 144.258 150.438 153.12C156.268 156.832 157.827 157.919 160.79 160.343C167.895 166.154 172.506 172.67 175.042 180.481L175.913 183.166L175.917 177.477C175.918 174.348 175.98 169.544 176.053 166.801C176.211 160.916 176.837 151.897 176.708 151.825C175.267 151.022 174.152 149.987 173.309 148.805C169.027 142.8 172.992 133.751 175.503 130.647C180.106 124.956 185.892 129.148 188.035 136.179C189.697 141.633 189.031 148.167 182.006 152.017C182.083 152.068 182.046 153.873 181.906 156.956C181.558 164.646 181.415 170.99 181.422 178.5L181.428 185.468L182.026 183.614C184.427 176.172 188.453 170.224 194.969 164.494C197.625 162.158 200.422 160.137 205.491 156.891C214.84 150.903 219.442 147.529 223.575 143.634C226.766 140.626 228.906 137.841 230.47 134.657C231.087 133.401 231.27 133.122 231.347 133.315C231.528 133.772 231.436 137.208 231.216 138.2C230.752 140.282 229.637 142.475 227.908 144.705C225.465 147.856 222.026 150.955 213.394 157.783C197.25 170.554 188.478 181.015 182.473 194.659L181.635 196.562L181.72 199.262C181.999 208.136 182.78 219.556 184.039 233.157C184.514 238.291 184.992 243.67 185.102 245.112C185.212 246.553 185.33 247.868 185.364 248.034C185.415 248.288 185.62 248.034 186.643 246.497C191.057 239.827 196.405 233.816 202.762 228.379C204.383 226.992 208.799 223.535 209.1 223.417C209.201 223.376 209.225 222.887 209.181 221.738C209.113 219.923 209.247 219.113 209.899 217.381C210.613 215.487 212.467 212.862 214.177 211.325C216.618 209.132 219.523 207.595 222.232 207.065C224.244 206.671 226.489 206.926 228.028 207.724C228.956 208.205 230.37 209.695 230.808 210.655C232.084 213.449 231.538 216.966 229.294 220.418C228.412 221.775 225.922 224.36 224.636 225.252C220.822 227.901 216.623 228.872 213.638 227.794C213.126 227.61 212.619 227.428 212.512 227.39C212.176 227.273 206.865 231.373 205.505 232.799C205.116 233.207 201.312 237.613 197.052 242.589C188.574 252.492 188.878 252.087 186.814 256.233L185.892 258.085L185.983 259.11C186.033 259.673 186.108 262.461 186.149 265.304L186.226 270.473L186.552 269.967C186.731 269.69 187.383 268.859 187.999 268.123C195.106 259.623 205.112 255.82 218.289 256.611C220.351 256.734 222.164 256.74 226.323 256.633C231.841 256.49 233.635 256.38 236.129 256.03C243.282 255.027 249.153 252.246 254.401 247.374C255.004 246.814 255.521 246.379 255.549 246.408C255.627 246.488 254.688 248.558 253.975 249.877C252.293 252.986 250.176 255.65 247.746 257.716C246.039 259.166 243.386 260.684 241.031 261.556C236.067 263.395 231.393 263.922 220.327 263.888C214.396 263.869 212.573 263.987 209.085 264.599C200.393 266.126 193.845 269.875 187.067 277.203L185.826 278.546L185.739 279.696C185.692 280.329 185.538 281.904 185.398 283.195C185.257 284.486 185.189 285.586 185.247 285.64C185.451 285.83 187.992 286.759 189.099 287.049C189.931 287.267 190.58 287.344 191.597 287.346C193.128 287.346 193.838 287.221 195.844 286.578C198.463 285.737 199.709 285.506 201.606 285.509C203.489 285.509 204.987 285.862 206.508 286.656L206.961 286.893L208.19 286.392C212.39 284.68 216.381 284.565 219.555 286.066C221.818 287.136 223.922 289.115 225.763 291.905C226.514 293.044 226.686 293.581 226.467 294.115C226.238 294.677 225.98 294.868 225.355 294.939C224.691 295.014 224.338 294.755 223.611 293.653C221.906 291.068 220.014 289.284 218.141 288.494C217.011 288.018 216.969 288.042 217.071 289.099C217.285 291.325 217.988 292.557 220.458 295.039C222.496 297.087 223.071 297.875 223.488 299.194C224.016 300.86 223.962 302.434 223.312 304.362C222.958 305.408 222.754 305.669 222.136 305.858C221.509 306.051 220.806 305.72 220.56 305.119C220.379 304.674 220.399 304.517 220.831 303.03L221.034 302.326L220.335 300.225C219.637 298.126 219.491 297.842 218.877 297.394L218.551 297.156L218.327 298.016C218.205 298.488 217.951 299.208 217.764 299.615C217.438 300.325 217.431 300.376 217.61 300.893C217.725 301.226 217.838 302.305 217.907 303.723C218.043 306.523 218.13 306.888 218.838 307.613C219.286 308.071 219.443 308.158 219.699 308.092C220.08 307.994 220.737 308.262 221.076 308.651C221.428 309.054 221.399 309.962 221.023 310.372C220.671 310.755 219.753 310.998 219.087 310.885C217.871 310.677 216.624 309.664 215.932 308.32C215.452 307.388 215.273 306.55 215.179 304.793L215.106 303.425L214.281 304.154C213.828 304.555 213.418 304.939 213.371 305.006C213.324 305.073 212.97 306.086 212.583 307.257L211.881 309.386L212.2 310.321C212.575 311.418 212.594 311.748 212.312 312.237C212.061 312.671 211.662 312.875 211.061 312.875C210.393 312.875 209.891 312.265 209.528 311.012C208.787 308.458 209.011 306.448 210.257 304.475C210.702 303.77 211.217 303.219 213.074 301.461L213.815 300.76L213.32 299.945C212.859 299.187 212.74 299.085 211.605 298.472C210.934 298.11 210.177 297.674 209.923 297.502C209.668 297.331 209.39 297.213 209.306 297.243C209.221 297.272 209.09 297.529 209.016 297.813C208.829 298.523 209.058 299.439 209.606 300.174C209.842 300.49 210.092 300.902 210.162 301.089C210.485 301.96 209.812 302.902 208.865 302.902C208.411 302.902 208.28 302.827 207.738 302.25C206.04 300.447 205.701 297.415 207 295.644L207.307 295.226L206.783 294.462C205.84 293.086 205.272 291.517 205.086 289.772L205.002 288.979L204.193 288.703C203.749 288.551 203.356 288.458 203.32 288.495C203.284 288.533 203.393 288.811 203.563 289.116C204.748 291.237 204.972 294.626 204.134 297.76L203.885 298.691L204.409 300.509C204.697 301.509 204.985 302.516 205.048 302.748C205.132 303.051 205.382 303.332 205.938 303.748C206.909 304.474 207.142 304.775 207.146 305.308C207.152 306.208 206.597 306.767 205.767 306.699C204.172 306.568 201.803 303.893 201.272 301.623C201.003 300.469 201.07 298.682 201.442 297.149C201.621 296.41 201.805 295.502 201.851 295.131L201.935 294.457L201.575 294.596C200.825 294.885 200.209 295.729 199.906 296.881C199.688 297.711 199.185 298.17 198.495 298.17C197.464 298.17 196.999 297.403 197.259 296.13C197.682 294.056 199.238 292.306 201.119 291.787C201.622 291.648 201.638 291.629 201.515 291.298C201.237 290.549 200.619 289.513 200.142 288.994L199.639 288.448L198.616 288.698C198.053 288.836 196.958 289.153 196.182 289.402C195.406 289.652 194.396 289.918 193.937 289.993C193.478 290.068 193.08 290.153 193.053 290.182C193.025 290.211 192.974 290.746 192.939 291.373C192.861 292.778 193.021 293.547 193.692 294.975C194.16 295.971 194.367 296.228 196.161 298.044C198.78 300.694 199.444 301.805 199.616 303.829C199.687 304.654 199.704 304.692 200.015 304.694C200.882 304.694 202.152 305.343 202.988 306.2C203.921 307.158 204.644 308.747 204.649 309.85C204.652 310.32 204.315 310.897 203.937 311.074C203.064 311.481 202.169 310.973 201.907 309.925C201.68 309.018 201.533 308.71 201.12 308.277C200.238 307.354 199.319 307.286 198.929 308.116C198.388 309.269 196.983 309.418 196.458 308.378C196.22 307.907 196.235 307.553 196.531 306.673C196.668 306.264 196.781 305.781 196.781 305.598C196.781 305.093 195.551 301.427 195.25 301.035L194.985 300.691L194.811 301.57C194.431 303.495 193.409 305.533 191.921 307.335L191.163 308.253L191.629 308.407C192.569 308.718 193.258 309.166 193.895 309.878C194.648 310.722 195.059 311.492 195.332 312.569C195.662 313.872 195.284 314.637 194.25 314.756C193.461 314.847 192.994 314.411 192.663 313.273C192.384 312.314 191.771 311.47 191.167 311.214C190.587 310.968 190.452 311.101 190.28 312.087L190.124 312.982L190.579 313.964C191.064 315.009 191.12 315.354 190.89 315.87C190.576 316.577 189.567 316.837 188.937 316.374C188.523 316.069 187.608 314.236 187.351 313.198C187.247 312.779 187.162 312.019 187.162 311.51C187.162 309.401 187.799 307.884 189.542 305.841C192.382 302.512 192.943 299.633 191.36 296.508C190.446 294.703 190.223 293.782 190.223 291.823V290.142L189.169 289.931C188.127 289.721 186.038 289.063 185.132 288.659L184.664 288.45V288.853C184.664 289.075 184.469 290.759 184.231 292.595C183.993 294.43 183.71 296.623 183.602 297.467C183.495 298.311 183.095 302.626 182.714 307.056C182.082 314.415 181.857 318.434 181.798 323.393L181.791 324.005L183.196 324.942C184.941 326.105 185.464 326.379 186.416 326.628C187.411 326.889 188.117 326.738 189.767 325.911C192.59 324.496 194.564 324.409 196.571 325.61L197.299 326.046L197.633 325.805C198.697 325.037 200.44 324.402 201.777 324.295C204.129 324.107 206.386 325.434 208.05 327.982C209.262 329.839 210.396 332.377 210.396 333.234C210.396 333.978 209.866 334.48 209.082 334.48C208.359 334.48 207.977 334.113 207.537 332.999C207.117 331.932 206.066 329.886 205.705 329.43L205.401 329.047V330.209C205.401 331.731 205.071 333.023 204.257 334.699C203.621 336.01 203.616 336.028 203.685 336.96C203.76 337.974 204.007 338.597 204.745 339.634C205.033 340.04 205.204 340.442 205.245 340.814C205.301 341.328 205.268 341.418 204.866 341.829C204.357 342.35 203.805 342.424 203.245 342.046C202.477 341.527 201.309 339.534 201.032 338.269C200.678 336.654 200.905 335.226 201.801 333.425C202.438 332.146 202.649 331.337 202.651 330.161C202.652 329.222 202.344 327.995 201.954 327.386C201.788 327.126 201.714 327.107 201.277 327.207C200.852 327.305 199.435 327.885 199.31 328.013C199.286 328.039 199.489 328.411 199.762 328.843C200.754 330.413 201.05 332.15 200.512 333.239C200.366 333.535 200.169 333.823 200.075 333.879C199.981 333.935 199.904 334.039 199.904 334.11C199.904 334.18 199.763 334.45 199.592 334.708C199.322 335.115 199.28 335.318 199.282 336.204C199.286 337.034 199.349 337.375 199.619 337.996C199.841 338.504 199.956 338.994 199.96 339.447C199.966 340.056 199.926 340.163 199.592 340.437C198.073 341.681 196.441 339.213 196.552 335.84C196.588 334.725 196.643 334.446 196.944 333.841C197.451 332.82 197.749 332.288 197.898 332.135C198.305 331.719 197.71 330.499 196.469 329.203C195.952 328.664 195.42 328.163 195.287 328.09C195.048 327.959 195.048 327.967 195.277 328.647C195.848 330.346 195.969 331.254 195.956 333.713C195.947 335.359 195.88 336.389 195.737 337.101C195.481 338.376 195.473 340.33 195.719 341.297C195.978 342.318 196.274 342.862 197.056 343.759C197.738 344.542 197.913 344.868 198.148 345.795C198.219 346.076 198.414 346.537 198.582 346.818C198.877 347.315 198.906 347.329 199.572 347.329C200.119 347.329 200.321 347.39 200.569 347.628C201.483 348.507 200.78 350.056 199.36 350.292C199.109 350.335 198.672 350.273 198.31 350.153C197.12 349.749 196.18 348.611 195.614 346.891C195.415 346.286 195.144 345.805 194.736 345.331C193.986 344.461 193.207 342.859 192.971 341.705C192.733 340.54 192.734 338.125 192.972 336.91C193.076 336.383 193.197 335.088 193.242 334.033C193.316 332.281 193.305 332.13 193.122 332.286C192.877 332.493 192.591 333.278 192.407 334.247C192.123 335.749 190.929 336.227 190.001 335.21C189.646 334.821 189.633 334.768 189.706 333.963C189.787 333.077 190.082 332.065 190.512 331.203C190.826 330.573 191.851 329.514 192.245 329.413C192.611 329.319 192.607 329.198 192.216 328.516L191.899 327.962L190.874 328.494C190.309 328.786 189.539 329.124 189.161 329.245C188.497 329.458 188.471 329.484 188.372 330.023C188.232 330.792 188.359 332.965 188.606 333.97C188.897 335.161 189.775 336.958 190.639 338.134C191.935 339.895 192.477 341.232 192.695 343.203C192.839 344.509 192.713 345.997 192.329 347.506C192.106 348.379 192.199 348.502 193.592 349.183C194.888 349.817 195.097 350.059 195.326 351.183C195.517 352.121 195.906 353.05 196.185 353.235C196.272 353.293 196.605 353.341 196.925 353.341C197.583 353.341 197.963 353.606 198.228 354.246C198.432 354.74 198.339 355.153 197.919 355.62C197.417 356.177 196.944 356.38 196.291 356.316C195.522 356.239 194.887 355.912 194.276 355.275C193.756 354.733 192.872 353.032 192.721 352.281C192.652 351.938 192.52 351.802 191.992 351.53C191.048 351.045 190.141 350.202 189.721 349.422C189.283 348.606 189.224 347.485 189.583 346.78C189.93 346.099 190.105 344.364 189.938 343.262C189.859 342.745 189.73 342.155 189.651 341.95C189.507 341.581 189.504 341.585 189.346 342.344C189.028 343.866 188.279 345.783 187.465 347.154C187.215 347.575 187.03 347.938 187.055 347.96C187.08 347.982 187.268 348.087 187.474 348.196C187.998 348.469 188.689 349.184 189.066 349.842C189.41 350.443 189.757 351.579 190.103 353.233C190.223 353.807 190.468 354.555 190.647 354.895C190.969 355.504 190.982 355.513 191.597 355.52C192.384 355.539 192.695 355.703 192.965 356.285C193.286 356.977 193.106 357.567 192.409 358.112C191.903 358.507 191.796 358.539 191.164 358.49C190.784 358.462 190.26 358.333 190 358.205C189.554 357.986 189.515 357.985 189.292 358.186C189.162 358.307 188.9 358.709 188.709 359.082L188.363 359.758L188.699 360.167C189.088 360.64 189.141 361.257 188.842 361.847C188.353 362.816 186.768 362.62 186.038 361.502C185.769 361.089 185.726 360.879 185.726 359.984C185.726 359.04 185.769 358.856 186.198 357.967C186.458 357.429 186.95 356.676 187.291 356.294L187.911 355.6L187.734 355.088C187.637 354.806 187.439 353.988 187.293 353.269C187.035 351.995 186.689 351.079 186.395 350.893C186.181 350.758 186.352 352.239 186.677 353.339C186.822 353.828 186.968 354.504 187.001 354.84C187.058 355.414 187.033 355.48 186.604 355.895C185.626 356.839 184.685 356.286 184.113 354.432C183.272 351.707 183.427 349.097 184.567 346.796C184.806 346.313 185.259 345.4 185.575 344.767C186.379 343.152 186.794 341.621 186.877 339.963C186.958 338.372 186.824 337.46 186.238 335.61C185.714 333.957 185.478 332.149 185.579 330.575L185.654 329.397L184.789 329.05C184.313 328.859 183.463 328.419 182.899 328.072C182.336 327.726 181.85 327.467 181.821 327.498C181.791 327.529 181.711 330.88 181.643 334.945L181.519 342.338L182.291 359.757L183.063 377.176L182.804 377.72C182.393 378.581 181.454 379.064 180.551 378.878L180.551 378.886ZM146.9 297.841C147.222 297.59 147.996 297.122 148.618 296.802C151.997 295.07 153.587 293.163 153.985 290.367L154.068 289.787L152.846 289.325C151.409 288.783 149.59 288.364 148.409 288.305L147.566 288.263L147.515 289.477C147.45 290.999 147.166 292.194 146.556 293.505C145.983 294.736 145.814 296.101 146.064 297.461C146.149 297.922 146.24 298.299 146.266 298.299C146.292 298.299 146.577 298.093 146.9 297.841L146.9 297.841ZM215.814 295.482C215.826 294.032 215.818 293.991 215.365 293.041C214.752 291.754 214.413 290.448 214.312 288.988L214.23 287.784L213.441 287.866C212.354 287.98 210.568 288.462 209.116 289.032C207.732 289.576 207.724 289.591 208.097 290.892C208.686 292.947 210.517 294.857 213.054 296.062C213.55 296.298 214.322 296.753 214.768 297.072L215.58 297.653L215.691 297.305C215.752 297.112 215.807 296.293 215.814 295.482L215.814 295.482Z" fill="#078930" stroke="#080108" stroke-width="0.607823"/>
<path d="M146.259 225.089C146.259 224.696 146.229 224.376 146.192 224.376C146.155 224.376 145.667 224.609 145.107 224.894C144.547 225.18 144.06 225.413 144.025 225.413C143.964 225.413 143.571 224.704 143.571 224.594C143.571 224.565 144.167 224.243 144.895 223.879L146.22 223.217L146.38 221.056C146.468 219.868 146.645 218.16 146.772 217.26C146.9 216.36 146.987 215.605 146.965 215.583C146.793 215.41 142.223 218.218 142.099 218.574C142.047 218.722 141.652 223.112 141.652 223.539C141.652 223.643 141.584 223.728 141.502 223.728C141.419 223.728 141.245 223.826 141.115 223.945C140.642 224.378 140.591 224.028 140.787 221.699C140.888 220.497 140.958 219.496 140.941 219.474C140.925 219.453 140.384 219.943 139.739 220.566L138.566 221.697L138.224 221.351L137.883 221.006L138.77 220.1C139.258 219.602 139.986 218.918 140.389 218.581C141.098 217.988 141.124 217.943 141.208 217.185C141.35 215.903 142.004 212.075 142.282 210.898C142.424 210.296 142.515 209.777 142.483 209.746C142.381 209.642 138.354 211.207 138.124 211.44C138.04 211.524 137.571 214.661 137.433 216.059C137.36 216.798 137.301 217.862 137.301 218.425V219.449H136.769H136.237L136.319 217.731C136.392 216.207 136.595 214.295 136.865 212.592L136.955 212.025L136.328 212.39C135.983 212.592 135.289 213.035 134.785 213.375L133.87 213.995L133.688 213.707C133.589 213.549 133.47 213.355 133.424 213.276C133.33 213.113 134.517 212.257 136.149 211.314C137.147 210.736 137.246 210.642 137.352 210.172C137.736 208.472 138.612 205.106 138.693 205.022C138.797 204.914 139.604 205.157 139.604 205.297C139.604 205.344 139.545 205.586 139.472 205.835C139.225 206.688 138.452 209.81 138.452 209.96C138.452 210.056 138.689 210.011 139.124 209.833C139.494 209.681 140.485 209.309 141.326 209.008L142.856 208.461L143.352 206.953C143.863 205.401 143.916 205.338 144.515 205.569L144.837 205.692L144.446 206.872C144.231 207.522 144.079 208.076 144.107 208.105C144.136 208.134 144.696 208.047 145.353 207.91C146.01 207.773 147.089 207.597 147.751 207.517C148.923 207.374 148.96 207.378 149.183 207.657C149.404 207.933 149.403 207.992 149.177 209.19C148.595 212.277 148.355 213.742 148.433 213.742C148.479 213.742 148.944 213.594 149.467 213.413C151.03 212.87 153.455 212.302 153.84 212.388C154.033 212.431 154.192 212.488 154.192 212.513C154.192 212.539 154.109 212.957 154.009 213.443C153.718 214.844 153.195 218.615 153.097 220.013C153.012 221.224 153.02 221.288 153.248 221.221C154.03 220.992 155.644 220.738 155.731 220.831C155.787 220.89 155.853 221.112 155.877 221.322C155.919 221.697 155.902 221.708 155.088 221.873C154.63 221.965 153.954 222.104 153.584 222.18L152.912 222.319V223.801V225.283H152.4H151.889V223.913C151.889 222.669 151.868 222.549 151.665 222.609C151.541 222.647 151.066 222.769 150.609 222.884C150.151 222.999 149.216 223.271 148.529 223.49L147.282 223.888V224.845V225.802H146.77H146.258V225.088L146.259 225.089ZM148.905 222.313C149.596 222.097 150.565 221.815 151.057 221.688L151.953 221.456L152.109 219.719C152.242 218.226 152.586 215.613 152.863 213.978L152.944 213.499L152.129 213.688C150.656 214.028 148.188 214.933 148.125 215.155C147.908 215.924 147.282 221.3 147.282 222.398C147.282 222.734 147.328 222.83 147.465 222.777C147.565 222.738 148.213 222.529 148.905 222.313L148.905 222.313ZM143.494 216.299C144.081 215.921 145.169 215.303 145.912 214.924L147.264 214.235L147.414 213.308C147.497 212.799 147.722 211.536 147.914 210.502L148.263 208.622L147.907 208.581C147.544 208.54 145.046 208.961 144.183 209.208C143.679 209.352 143.718 209.279 143.331 210.825C142.995 212.168 142.292 216.203 142.292 216.789C142.292 216.897 142.322 216.985 142.359 216.985C142.396 216.985 142.907 216.676 143.494 216.298L143.494 216.299Z" fill="black"/>
<path d="M219.015 226.914C219.015 226.522 219.045 226.201 219.082 226.201C219.118 226.201 219.607 226.434 220.166 226.719C220.726 227.004 221.213 227.238 221.248 227.238C221.309 227.238 221.702 226.529 221.702 226.419C221.702 226.39 221.106 226.068 220.378 225.704L219.054 225.042L218.893 222.881C218.805 221.693 218.629 219.985 218.501 219.085C218.373 218.185 218.286 217.43 218.308 217.408C218.48 217.233 223.05 220.043 223.175 220.399C223.226 220.547 223.622 224.937 223.622 225.364C223.622 225.468 223.689 225.553 223.771 225.553C223.854 225.553 224.028 225.651 224.158 225.77C224.631 226.203 224.682 225.852 224.486 223.524C224.385 222.322 224.316 221.321 224.332 221.299C224.348 221.278 224.889 221.769 225.534 222.391L226.708 223.522L227.049 223.176L227.39 222.83L226.503 221.925C226.015 221.426 225.287 220.743 224.884 220.406C224.176 219.813 224.15 219.769 224.066 219.01C223.924 217.728 223.27 213.9 222.992 212.723C222.849 212.121 222.759 211.602 222.79 211.571C222.892 211.467 226.919 213.032 227.149 213.265C227.233 213.349 227.702 216.486 227.84 217.884C227.913 218.622 227.972 219.687 227.972 220.25V221.274H228.504H229.036L228.954 219.556C228.881 218.031 228.678 216.12 228.408 214.417L228.318 213.85L228.945 214.215C229.29 214.416 229.984 214.86 230.488 215.2L231.404 215.819L231.585 215.532C231.684 215.374 231.803 215.18 231.849 215.101C231.943 214.938 230.756 214.082 229.124 213.138C228.126 212.561 228.027 212.468 227.921 211.997C227.537 210.297 226.661 206.931 226.58 206.847C226.476 206.739 225.669 206.982 225.669 207.122C225.669 207.169 225.728 207.411 225.801 207.66C226.049 208.513 226.821 211.635 226.821 211.785C226.821 211.881 226.584 211.836 226.149 211.658C225.779 211.506 224.788 211.135 223.947 210.834L222.417 210.286L221.921 208.778C221.41 207.226 221.357 207.163 220.758 207.394L220.436 207.517L220.827 208.697C221.042 209.347 221.195 209.902 221.166 209.93C221.137 209.959 220.577 209.872 219.92 209.735C219.263 209.599 218.184 209.422 217.523 209.342C216.35 209.199 216.313 209.203 216.09 209.482C215.87 209.758 215.87 209.817 216.096 211.015C216.678 214.102 216.918 215.567 216.84 215.567C216.794 215.567 216.329 215.419 215.806 215.238C214.243 214.695 211.818 214.127 211.433 214.213C211.24 214.256 211.081 214.311 211.081 214.338C211.081 214.364 211.164 214.782 211.264 215.268C211.555 216.669 212.078 220.44 212.176 221.838C212.261 223.049 212.253 223.113 212.025 223.046C211.243 222.817 209.629 222.564 209.542 222.656C209.486 222.714 209.42 222.936 209.397 223.147C209.354 223.522 209.371 223.533 210.185 223.698C210.643 223.79 211.319 223.929 211.689 224.005L212.361 224.144V225.626V227.108H212.873H213.385V225.737C213.385 224.494 213.405 224.373 213.608 224.434C213.732 224.471 214.207 224.594 214.664 224.709C215.122 224.822 216.057 225.096 216.744 225.315L217.991 225.712V226.669V227.626H218.503H219.015V226.913L219.015 226.914ZM216.369 224.138C215.677 223.921 214.709 223.641 214.216 223.513L213.32 223.282L213.165 221.544C213.031 220.051 212.688 217.437 212.41 215.803L212.329 215.324L213.145 215.513C214.617 215.853 217.085 216.758 217.148 216.981C217.365 217.749 217.991 223.125 217.991 224.223C217.991 224.559 217.945 224.655 217.808 224.602C217.708 224.563 217.06 224.354 216.369 224.138L216.369 224.138ZM221.78 218.124C221.193 217.746 220.104 217.127 219.361 216.749L218.01 216.059L217.859 215.133C217.776 214.623 217.552 213.361 217.359 212.326L217.01 210.446L217.366 210.406C217.729 210.365 220.227 210.785 221.091 211.033C221.594 211.177 221.555 211.103 221.943 212.65C222.279 213.993 222.982 218.028 222.982 218.614C222.982 218.722 222.951 218.809 222.914 218.809C222.877 218.809 222.367 218.5 221.78 218.123L221.78 218.124Z" fill="black"/>
<path d="M173.302 146.567C173.617 146.362 173.859 146.169 173.839 146.138C173.819 146.107 173.369 145.829 172.839 145.519C172.309 145.208 171.86 144.931 171.841 144.902C171.808 144.852 172.166 144.157 172.255 144.099C172.278 144.08 172.857 144.405 173.541 144.812L174.785 145.553L176.607 144.551C177.61 143.999 179.077 143.248 179.869 142.881C180.661 142.513 181.314 142.189 181.32 142.159C181.368 141.926 176.654 139.644 176.301 139.729C176.153 139.764 172.414 141.743 172.071 141.968C171.987 142.021 171.883 142.01 171.839 141.942C171.795 141.875 171.622 141.782 171.456 141.738C170.854 141.577 171.109 141.351 173.085 140.29C174.105 139.742 174.947 139.274 174.956 139.249C174.964 139.223 174.279 139.037 173.432 138.834L171.892 138.463L171.987 138.001L172.081 137.539L173.286 137.793C173.948 137.933 174.889 138.172 175.376 138.326C176.234 138.597 176.284 138.595 176.938 138.267C178.045 137.71 181.472 136.239 182.567 135.85C183.127 135.65 183.593 135.453 183.602 135.41C183.63 135.272 180.208 132.783 179.897 132.717C179.783 132.691 177.011 133.953 175.814 134.573C175.181 134.901 174.294 135.411 173.841 135.706L173.019 136.244L172.733 135.807L172.447 135.37L173.872 134.535C175.136 133.795 176.781 132.958 178.294 132.287L178.799 132.063L178.168 131.739C177.821 131.562 177.091 131.224 176.547 130.988L175.557 130.561L175.691 130.261C175.764 130.095 175.856 129.896 175.895 129.817C175.976 129.654 177.301 130.181 178.937 131.027C179.937 131.545 180.066 131.577 180.501 131.417C182.073 130.84 185.249 129.793 185.36 129.816C185.502 129.845 185.741 130.636 185.629 130.709C185.591 130.734 185.365 130.812 185.125 130.884C184.307 131.128 181.383 132.132 181.263 132.211C181.185 132.26 181.348 132.432 181.726 132.696C182.047 132.92 182.877 133.54 183.572 134.073L184.835 135.043L186.313 134.66C187.834 134.265 187.914 134.275 188.05 134.889L188.124 135.218L186.965 135.516C186.328 135.68 185.8 135.847 185.792 135.885C185.785 135.924 186.156 136.339 186.619 136.807C187.081 137.275 187.804 138.069 188.224 138.571C188.968 139.46 188.985 139.492 188.881 139.822C188.777 140.148 188.73 140.179 187.646 140.622C184.852 141.764 183.546 142.336 183.588 142.4C183.613 142.438 183.982 142.742 184.408 143.077C185.685 144.077 187.445 145.772 187.583 146.133C187.652 146.316 187.692 146.475 187.672 146.488C187.651 146.507 187.271 146.653 186.826 146.825C185.544 147.322 182.233 148.871 181.057 149.525C180.038 150.091 179.991 150.131 180.167 150.283C180.772 150.806 181.843 151.999 181.816 152.118C181.798 152.195 181.656 152.366 181.499 152.496C181.221 152.727 181.203 152.72 180.632 152.137C180.312 151.81 179.837 151.326 179.577 151.063L179.104 150.583L177.914 151.361L176.723 152.139L176.448 151.718L176.172 151.297L177.273 150.578C178.273 149.925 178.358 149.845 178.2 149.71C178.105 149.628 177.75 149.302 177.412 148.986C177.074 148.67 176.352 148.044 175.808 147.595L174.817 146.778L174.048 147.281L173.279 147.783L173.004 147.362L172.729 146.942L173.302 146.567H173.302ZM176.955 147.285C177.5 147.74 178.247 148.389 178.614 148.727L179.282 149.341L180.761 148.558C182.033 147.883 184.318 146.794 185.78 146.164L186.208 145.979L185.619 145.408C184.554 144.376 182.5 142.822 182.287 142.888C181.553 143.113 176.897 145.42 176.015 145.996C175.744 146.173 175.692 146.261 175.809 146.345C175.894 146.406 176.41 146.83 176.955 147.285V147.285ZM178.879 139.681C179.498 139.966 180.58 140.535 181.284 140.948L182.564 141.697L183.389 141.334C183.843 141.134 184.979 140.656 185.913 140.272L187.612 139.572L187.453 139.258C187.29 138.939 185.61 137.106 184.947 136.526C184.56 136.188 184.64 136.181 183.189 136.674C181.929 137.103 178.309 138.643 177.838 138.95C177.752 139.007 177.698 139.077 177.717 139.108C177.737 139.139 178.26 139.396 178.879 139.681L178.879 139.681Z" fill="black"/>
<path d="M176.807 165.741C176.807 164.72 176.478 162.861 176.171 162.151C175.625 160.886 174.8 160.445 173.631 160.793C172.803 161.04 171.853 161.684 170.248 163.088L169 164.18L168.838 161.34C168.75 159.778 168.701 157.551 168.731 156.39C168.799 153.729 169.038 152.878 170.293 150.82C174.034 144.691 175.814 138.967 177.437 127.849C177.817 125.246 177.832 125.008 177.681 124.106C177.593 123.576 177.497 123.166 177.469 123.196C177.441 123.224 177.113 124.802 176.741 126.701C174.037 140.5 170.619 149.242 165.21 156.199C164.124 157.596 160.731 161.202 160.615 161.083C160.588 161.057 160.661 160.55 160.777 159.959C160.915 159.254 160.991 158.222 160.997 156.966C161.005 155.074 161.001 155.039 160.637 154.367C159.886 152.98 158.395 152.612 156.073 153.239C155.421 153.414 154.868 153.539 154.845 153.515C154.821 153.49 155.094 153.091 155.45 152.626C155.807 152.162 156.371 151.319 156.703 150.753C157.777 148.924 157.79 147.768 156.743 147.242C155.697 146.716 152.938 146.917 149.421 147.775C148.682 147.956 148.017 148.081 147.942 148.055C147.867 148.03 148.359 147.697 149.034 147.316C158.165 142.169 164.476 136.297 168.755 128.966C170.208 126.478 171.16 125.131 172.527 123.633C173.111 122.993 173.659 122.058 173.529 121.924C173.505 121.899 172.512 122.795 171.324 123.914L169.163 125.95L168.8 125.676C168.601 125.526 168.438 125.361 168.438 125.31C168.438 125.26 168.848 124.681 169.349 124.024C170.521 122.487 170.55 122.439 170.171 122.643C169.124 123.206 165.781 125.613 164.628 126.633C161.988 128.97 160.412 131.137 158.609 134.911C157.32 137.609 156.728 138.557 155.608 139.721C154.346 141.033 153.08 141.936 150.544 143.334C149.325 144.006 149.036 144.05 149.656 143.467C150.311 142.852 151.48 141.103 152.078 139.841C152.75 138.423 153.109 137.231 153.388 135.486C153.558 134.421 153.642 132.609 153.521 132.609C153.492 132.609 152.437 133.316 151.176 134.179C148.781 135.82 147.379 136.621 145.55 137.394C143.53 138.248 140.562 138.802 138.43 138.723L137.34 138.682L141.72 134.592L146.101 130.501L144.372 130.341C139.406 129.885 135.738 128.468 133.609 126.182L133.193 125.736L135.045 125.652C146.575 125.125 150.76 124.517 154.697 122.795C157.679 121.491 160.75 120.414 163.912 119.561C164.893 119.296 164.944 119.265 164.912 118.948C164.879 118.626 164.949 118.588 166.974 117.858C168.126 117.443 169.045 117.078 169.016 117.048C168.921 116.95 165.411 117.274 163.691 117.538C161.034 117.947 159.335 118.364 156.446 119.315C151.785 120.851 147.808 121.79 144.517 122.132C142.47 122.345 138.686 122.223 136.96 121.887C135.21 121.548 134.032 121.206 134.236 121.095C134.326 121.046 134.933 120.94 135.586 120.858C137.557 120.61 140.997 119.855 142.622 119.314C144.09 118.825 146.115 117.899 146.64 117.475C146.876 117.285 146.851 117.274 146.199 117.27C144.143 117.251 140.522 116.562 138.103 115.715C136.572 115.178 133.462 113.719 133.462 113.537C133.462 113.479 134.242 113.431 135.194 113.431C138.059 113.431 139.937 112.967 140.708 112.068C141.011 111.714 141.081 111.519 141.079 111.03C141.073 109.888 140.391 108.766 138.476 106.751C137.758 105.995 137.2 105.376 137.236 105.376C137.272 105.376 137.886 105.643 138.599 105.968C142.736 107.857 145.945 108.658 150.575 108.959C155.909 109.305 159.597 109.969 163.652 111.315C164.997 111.761 165.183 111.758 165.188 111.289C165.191 111.063 165.456 111.087 166.916 111.449C167.624 111.624 168.241 111.768 168.286 111.768C168.738 111.768 164.331 109.707 162.192 108.917C159.028 107.75 157.123 107.251 152.803 106.459C145.942 105.2 144.028 104.66 141.187 103.18C140.523 102.834 139.574 102.259 139.077 101.902L138.173 101.252L139.409 100.701C142.103 99.5002 144.13 99.097 147.468 99.0984C148.765 99.0984 149.826 99.0695 149.826 99.0311C149.826 98.9937 149.581 98.6368 149.283 98.2378C147.895 96.3848 146.858 94.2281 146.295 92.0261C145.938 90.6274 145.916 88.1057 146.248 86.6532L146.48 85.6392L146.922 86.2058C147.165 86.5176 147.967 87.383 148.704 88.129C150.69 90.1401 152.831 91.4996 155.311 92.3236C156.345 92.667 156.487 92.6656 156.377 92.3043C156.201 91.7373 156.275 87.8171 156.482 86.7537C156.813 85.0509 157.444 83.6162 158.378 82.4418C158.91 81.7732 160.05 80.7564 160.151 80.86C160.175 80.8856 160.277 81.5493 160.379 82.3379C161.146 88.2913 163.474 94.3526 167.995 102.17C169.688 105.097 169.416 104.706 170.525 105.802L171.419 106.684L170.312 104.395C168.064 99.7474 166.539 95.2274 165.376 89.768C164.785 86.9978 164.439 84.9619 163.57 79.1562C163.155 76.3786 162.792 74.0053 162.765 73.8821C162.737 73.7589 162.753 73.6584 162.801 73.6584C162.848 73.6584 163.767 74.9961 164.842 76.6311C166.977 79.8771 167.701 80.7978 168.552 81.3502C169.248 81.8019 169.681 81.8092 170.182 81.377C171.246 80.4609 171.987 77.4857 172.502 72.0597C172.602 71.005 172.684 70.0604 172.684 69.9608C172.684 69.6052 172.811 69.9212 173.192 71.2374C174.081 74.3046 175.487 76.5344 177.058 77.3636C179.135 78.4603 181.734 77.9435 185.582 75.6682C186.252 75.2722 186.8 74.9672 186.8 74.9906C186.8 75.0141 186.297 76.0326 185.683 77.2543C181.846 84.8854 179.589 93.6679 178.756 104.215L178.691 105.046L178.928 104.215C179.058 103.758 179.223 103.151 179.296 102.866C179.421 102.368 179.444 102.35 179.867 102.401C180.109 102.43 180.328 102.489 180.353 102.535C180.379 102.579 180.297 103.768 180.17 105.174C180.044 106.581 179.94 107.933 179.939 108.179C179.935 109.207 180.234 108.013 180.877 104.423C182.399 95.9285 183.777 90.7946 185.925 85.6081C187.204 82.5232 190.237 76.8921 190.425 77.2563C190.474 77.3524 190.548 77.7749 190.589 78.1969C190.696 79.2839 190.984 80.1785 191.428 80.8068C192.781 82.7174 195.656 81.6115 200.581 77.286C201.187 76.7537 201.707 76.3437 201.737 76.3745C201.767 76.4055 201.571 76.9143 201.3 77.5055C200.481 79.2956 200.147 80.484 200.081 81.8407C200.028 82.93 200.052 83.1146 200.313 83.6307C200.547 84.0946 200.748 84.2804 201.353 84.5895C202.067 84.9551 202.172 84.9725 203.601 84.9594C204.701 84.9401 205.513 84.8557 206.653 84.6093C207.506 84.4247 208.219 84.2877 208.237 84.3053C208.293 84.363 206.077 88.0744 204.977 89.7647C201.781 94.6764 198.649 98.5962 194.366 103.045C192.553 104.928 189.35 108.012 188.813 108.392C188.787 108.412 188.859 108.573 188.974 108.754C189.09 108.933 189.153 109.133 189.114 109.196C189.076 109.259 188.007 110.073 186.738 111.005C185.469 111.937 184.455 112.725 184.485 112.756C184.515 112.787 184.754 112.64 185.014 112.43C185.99 111.644 188.697 109.892 193.345 107.036C198.717 103.735 199.289 103.332 200.79 101.789C203.311 99.1972 205.394 95.6116 208.219 89.0005C208.896 87.4183 209.487 86.0784 209.534 86.0231C209.666 85.8671 211.091 88.8015 211.511 90.0951C212.22 92.279 212.328 94.5267 211.806 96.2445L211.579 96.9913H213.586C215.836 96.9913 216.465 97.1261 217.921 97.9049C218.668 98.3054 219.403 98.9088 219.268 99.0107C217.499 100.343 216.572 101.341 216.001 102.528C214.989 104.633 215.863 106.734 218.693 109.003C219.215 109.422 219.631 109.775 219.616 109.789C219.494 109.9 216.474 111.093 214.998 111.613C210.512 113.193 205.148 114.389 198.576 115.276C196.533 115.551 191.452 116.103 190.953 116.104C190.868 116.104 190.797 116.22 190.797 116.36C190.797 116.574 190.71 116.618 190.266 116.627C189.975 116.627 188.611 116.71 187.237 116.795C185.296 116.916 184.809 116.981 185.051 117.083C185.277 117.177 186.356 117.132 188.924 116.921C192.998 116.584 197.985 116.521 200.291 116.777C202.435 117.015 207.383 116.972 209.222 116.698C214.615 115.898 218.88 114.107 222.323 111.196C222.796 110.796 223.202 110.49 223.227 110.515C223.318 110.607 222.168 114.031 221.778 114.83C220.874 116.681 219.622 117.888 218.06 118.413C217.596 118.569 217.196 118.715 217.17 118.737C217.145 118.76 217.383 119.148 217.699 119.602C219.007 121.479 221.078 122.926 223.402 123.588C224.054 123.773 224.724 123.967 224.892 124.018C225.156 124.099 225.045 124.174 224.08 124.57C222.561 125.192 220.862 125.654 219.405 125.84C217.977 126.023 216.245 125.859 215.019 125.424C214.604 125.277 214.25 125.177 214.232 125.201C214.214 125.227 214.553 127.519 214.985 130.296C215.417 133.074 215.772 135.45 215.775 135.576C215.779 135.728 214.626 134.814 212.366 132.871C204.051 125.726 200.163 123.071 194.575 120.724C192.984 120.056 190.054 119.038 189.772 119.055C189.683 119.055 189.772 119.125 189.967 119.198C190.282 119.315 190.314 119.375 190.246 119.727C190.203 119.945 190.121 120.171 190.064 120.23C190.007 120.287 189.241 120.16 188.361 119.944C186.651 119.526 186.171 119.491 187.455 119.879C189.705 120.558 193.086 122.109 195.776 123.698C200.962 126.759 205.221 130.392 208.596 134.634C210.903 137.534 212.439 138.953 214.406 140C215.868 140.778 216.876 141.052 218.58 141.131C220.302 141.211 220.307 141.181 218.408 142.174C214.139 144.403 210.068 144.429 206.071 142.253C205.487 141.935 204.996 141.675 204.979 141.675C204.962 141.675 204.91 142.148 204.863 142.727C204.699 144.734 203.835 146.762 202.634 147.955L202.112 148.473L201.469 145.873C200.736 142.914 200.404 141.908 199.608 140.236C198.782 138.501 197.683 137.101 195.522 135.026C194.469 134.016 191.978 131.535 189.985 129.512L186.363 125.835L186.016 126.124L185.669 126.412L186.059 126.964C187.714 129.301 189.994 134.156 190.929 137.33C192.099 141.3 195.693 145.576 201.069 149.393C201.737 149.868 202.313 150.304 202.348 150.363C202.384 150.42 201.949 150.602 201.383 150.764C199.892 151.191 198.567 151.16 197.131 150.664C196.526 150.455 196.013 150.318 195.989 150.358C195.823 150.645 195.645 153.006 195.705 154.109C195.82 156.206 196.335 157.712 197.48 159.303C197.789 159.734 198.042 160.107 198.042 160.134C198.042 160.218 196.381 159.833 195.544 159.553C194.154 159.089 193.283 158.565 192.417 157.671C191.19 156.405 190.562 154.791 190.545 152.861L190.538 152.094L190.231 152.976C189.515 155.037 188.613 155.887 186.694 156.311L186.277 156.403L186.362 153.289C186.531 147.079 186.078 140.469 185.159 135.728C184.733 133.533 183.868 130.28 183.281 128.67C183.047 128.027 183.028 128.01 182.72 128.154C182.447 128.281 182.373 128.266 182.21 128.051C182.021 127.803 182.02 127.803 182.109 128.051C182.37 128.802 183.331 132.787 183.665 134.508C184.186 137.19 184.635 140.652 184.793 143.202C185.105 148.258 185.434 157.93 185.4 161.088L185.363 164.463L184.614 163.802C183.592 162.901 182.314 162.252 181.561 162.252C180.342 162.252 178.978 163.369 177.538 165.545C177.2 166.054 176.898 166.471 176.866 166.471C176.833 166.471 176.807 166.134 176.807 165.721L176.807 165.741Z" fill="#0F47AF" stroke="#080108" stroke-width="0.607823"/>
<path d="M178.55 128.629C178.48 128.29 178.21 126.908 177.949 125.558C177.689 124.208 177.457 123.122 177.434 123.146C177.411 123.169 177.062 124.495 176.658 126.092C176.255 127.688 175.903 129.016 175.877 129.043C175.851 129.071 175.617 129.062 175.356 129.014C174.883 128.935 174.883 128.935 174.953 128.411C175.083 127.43 175.427 123.092 175.385 122.963C175.362 122.893 174.651 124.015 173.806 125.456L172.27 128.078L171.87 127.87C171.651 127.756 171.455 127.649 171.437 127.632C171.418 127.613 171.883 126.35 172.471 124.819C173.059 123.287 173.515 122.009 173.485 121.979C173.455 121.948 172.596 122.714 171.576 123.681C170.556 124.647 169.578 125.572 169.402 125.736L169.083 126.033L168.744 125.671L168.404 125.309L170.219 122.906C171.216 121.585 172.033 120.481 172.033 120.454C172.033 120.428 170.923 120.974 169.566 121.668C168.209 122.362 166.986 122.965 166.849 123.008C166.658 123.067 166.546 122.989 166.375 122.686C166.252 122.465 166.196 122.242 166.25 122.189C166.305 122.138 167.41 121.312 168.706 120.355C170.002 119.399 171.014 118.617 170.954 118.617C170.895 118.617 169.566 118.847 168.001 119.128C166.436 119.41 165.132 119.64 165.103 119.64C165.045 119.64 164.776 118.71 164.823 118.672C164.838 118.653 166.102 118.199 167.631 117.648C169.161 117.098 170.341 116.609 170.255 116.563C170.168 116.517 168.846 116.345 167.317 116.18L164.538 115.881V115.347V114.812L166.693 114.716C167.878 114.665 169.24 114.585 169.72 114.541L170.593 114.46L167.971 113.337C166.53 112.719 165.273 112.165 165.179 112.106C164.918 111.94 165.231 111.037 165.517 111.128C166.051 111.297 171.076 112.477 171.111 112.442C171.133 112.418 170.113 111.541 168.845 110.49C167.578 109.439 166.54 108.55 166.539 108.515C166.538 108.479 166.667 108.285 166.825 108.083L167.113 107.715L169.653 109.205C171.05 110.024 172.214 110.673 172.239 110.648C172.264 110.622 171.532 109.484 170.612 108.12L168.94 105.638L169.269 105.355C169.449 105.199 169.653 105.075 169.722 105.078C169.791 105.078 170.746 106.048 171.846 107.225C172.945 108.403 173.862 109.353 173.884 109.336C173.906 109.317 173.527 108.059 173.041 106.534C172.555 105.008 172.158 103.686 172.158 103.595C172.158 103.505 172.256 103.401 172.376 103.366C172.497 103.331 172.688 103.262 172.802 103.214C172.97 103.143 173.256 103.615 174.339 105.754C175.071 107.199 175.722 108.414 175.786 108.454C175.854 108.497 175.878 108.298 175.846 107.978C175.814 107.675 175.759 106.298 175.723 104.916L175.658 102.405L176.125 102.346C176.382 102.313 176.607 102.297 176.625 102.313C176.644 102.332 176.93 103.715 177.262 105.396C177.837 108.306 177.872 108.427 178 107.94C178.075 107.659 178.368 106.508 178.651 105.383C178.935 104.258 179.223 103.119 179.291 102.853C179.412 102.379 179.425 102.371 179.877 102.455C180.132 102.501 180.352 102.549 180.366 102.56C180.381 102.58 180.281 103.844 180.143 105.388C180.006 106.932 179.91 108.298 179.929 108.423C179.95 108.556 180.608 107.553 181.502 106.026L183.038 103.401L183.438 103.609C183.658 103.722 183.853 103.83 183.872 103.846C183.89 103.865 183.425 105.128 182.837 106.66C182.249 108.191 181.793 109.469 181.823 109.5C181.853 109.531 182.712 108.765 183.732 107.798C184.752 106.831 185.73 105.906 185.906 105.743L186.225 105.445L186.565 105.807L186.904 106.17L185.089 108.573C184.092 109.894 183.275 110.997 183.275 111.024C183.275 111.051 184.385 110.505 185.742 109.811C187.099 109.117 188.322 108.513 188.459 108.47C188.65 108.411 188.762 108.489 188.933 108.792C189.056 109.013 189.112 109.237 189.058 109.289C189.003 109.341 187.898 110.167 186.602 111.123C185.306 112.079 184.294 112.862 184.354 112.861C184.413 112.861 185.742 112.631 187.307 112.35C188.872 112.069 190.176 111.839 190.205 111.839C190.263 111.839 190.532 112.768 190.486 112.806C190.47 112.825 189.206 113.28 187.677 113.83C186.147 114.381 184.967 114.869 185.053 114.915C185.14 114.962 186.462 115.134 187.991 115.298L190.77 115.597V116.132V116.666L188.615 116.763C187.43 116.814 186.068 116.893 185.588 116.938L184.715 117.018L187.337 118.141C188.778 118.758 190.035 119.313 190.129 119.372C190.39 119.538 190.077 120.441 189.791 120.35C189.258 120.181 184.232 119.001 184.197 119.036C184.175 119.06 185.195 119.937 186.463 120.988C187.73 122.039 188.768 122.928 188.769 122.963C188.77 122.998 188.641 123.192 188.483 123.395L188.195 123.762L185.655 122.273C184.258 121.454 183.094 120.805 183.069 120.83C183.044 120.856 183.776 121.993 184.696 123.358L186.368 125.84L186.04 126.123C185.859 126.279 185.655 126.403 185.586 126.399C185.517 126.399 184.562 125.43 183.463 124.253C182.363 123.075 181.446 122.125 181.424 122.142C181.402 122.161 181.781 123.419 182.267 124.944C182.753 126.469 183.15 127.792 183.15 127.882C183.15 127.973 183.052 128.076 182.932 128.112C182.811 128.147 182.62 128.215 182.506 128.264C182.338 128.334 182.052 127.862 180.969 125.724C180.237 124.279 179.586 123.064 179.522 123.024C179.454 122.981 179.43 123.179 179.463 123.5C179.494 123.803 179.549 125.186 179.585 126.575L179.651 129.1H179.35C179.184 129.1 178.965 129.133 178.863 129.173C178.724 129.227 178.646 129.093 178.55 128.63L178.55 128.629ZM179.403 120.892C180.643 120.586 182.048 119.478 182.692 118.298C184.13 115.665 183.26 112.415 180.708 110.883C178.021 109.272 174.454 110.342 173.089 113.169C172.291 114.821 172.292 116.403 173.09 118.058C174.225 120.409 176.755 121.545 179.402 120.892H179.403Z" fill="#0F47AF" stroke="#080108" stroke-width="0.4"/>
<path d="M127.602 159.476C127.602 160.405 127.301 162.098 127.022 162.744C126.524 163.895 125.772 164.296 124.706 163.98C123.951 163.755 123.086 163.169 121.623 161.891L120.485 160.897L120.337 163.482C120.256 164.904 120.212 166.931 120.239 167.987C120.302 170.41 120.519 171.185 121.664 173.058C125.073 178.636 126.696 183.847 128.175 193.968C128.522 196.337 128.536 196.553 128.398 197.374C128.318 197.856 128.231 198.229 128.205 198.203C128.179 198.176 127.881 196.741 127.541 195.012C125.076 182.452 121.961 174.494 117.029 168.162C116.039 166.89 112.947 163.607 112.841 163.716C112.816 163.741 112.883 164.201 112.989 164.739C113.115 165.381 113.184 166.32 113.189 167.464C113.196 169.186 113.192 169.218 112.861 169.829C112.177 171.091 110.817 171.427 108.701 170.856C108.106 170.696 107.602 170.583 107.581 170.604C107.559 170.626 107.808 170.991 108.133 171.414C108.458 171.837 108.972 172.604 109.275 173.118C110.254 174.784 110.266 175.836 109.311 176.315C108.358 176.793 105.843 176.61 102.636 175.83C101.963 175.666 101.357 175.551 101.289 175.574C101.22 175.598 101.668 175.9 102.284 176.247C110.608 180.933 116.36 186.278 120.261 192.951C121.585 195.215 122.454 196.441 123.7 197.805C124.232 198.388 124.732 199.239 124.613 199.36C124.591 199.384 123.686 198.568 122.603 197.549L120.633 195.695L120.303 195.945C120.121 196.082 119.972 196.232 119.972 196.278C119.972 196.324 120.346 196.851 120.803 197.449C121.871 198.848 121.897 198.892 121.552 198.706C120.598 198.194 117.55 196.003 116.499 195.074C114.092 192.946 112.656 190.974 111.012 187.539C109.837 185.083 109.298 184.22 108.277 183.161C107.126 181.966 105.972 181.144 103.66 179.871C102.55 179.26 102.286 179.22 102.851 179.75C103.448 180.31 104.513 181.903 105.058 183.051C105.671 184.341 105.998 185.427 106.253 187.015C106.408 187.985 106.484 189.634 106.374 189.634C106.347 189.634 105.386 188.99 104.236 188.204C102.053 186.711 100.776 185.982 99.1083 185.279C97.2663 184.501 94.5606 183.997 92.6177 184.069L91.624 184.106L95.6169 187.83L99.6098 191.553L98.0339 191.697C93.5067 192.113 90.1631 193.403 88.2224 195.483L87.8438 195.889L89.5319 195.966C100.043 196.446 103.857 197 107.446 198.566C110.165 199.753 112.964 200.734 115.847 201.51C116.74 201.751 116.787 201.779 116.758 202.068C116.728 202.362 116.792 202.395 118.637 203.06C119.688 203.439 120.526 203.77 120.5 203.797C120.413 203.886 117.213 203.592 115.645 203.352C113.223 202.98 111.674 202.6 109.041 201.734C104.792 200.336 101.166 199.481 98.1666 199.17C96.3003 198.976 92.8508 199.087 91.277 199.393C89.6819 199.702 88.6085 200.013 88.794 200.114C88.8758 200.158 89.4295 200.254 90.0244 200.33C91.8212 200.556 94.9571 201.243 96.4384 201.735C97.7767 202.18 99.6225 203.024 100.102 203.409C100.317 203.582 100.294 203.592 99.6999 203.595C97.8251 203.615 94.5242 204.24 92.3191 205.011C90.9234 205.5 88.0887 206.828 88.0887 206.993C88.0887 207.048 88.7993 207.09 89.6679 207.09C92.2788 207.09 93.9912 207.512 94.6939 208.33C94.9706 208.653 95.0342 208.83 95.0322 209.276C95.028 210.315 94.4054 211.336 92.6595 213.17C92.0045 213.858 91.4958 214.421 91.529 214.421C91.5621 214.421 92.1211 214.179 92.7711 213.883C96.5424 212.164 99.4684 211.434 103.689 211.161C108.551 210.846 111.913 210.241 115.609 209.016C116.836 208.61 117.005 208.612 117.01 209.04C117.013 209.246 117.254 209.222 118.585 208.893C119.23 208.734 119.793 208.603 119.834 208.603C120.246 208.603 116.228 210.479 114.279 211.198C111.394 212.261 109.657 212.715 105.72 213.436C99.4648 214.581 97.7203 215.073 95.1306 216.42C94.5257 216.735 93.6601 217.259 93.2069 217.584L92.3829 218.175L93.5095 218.677C95.9654 219.77 97.8131 220.137 100.856 220.135C102.038 220.135 103.006 220.162 103.006 220.196C103.006 220.232 102.783 220.555 102.51 220.918C101.246 222.605 100.3 224.568 99.7871 226.572C99.4612 227.845 99.4411 230.141 99.7442 231.463L99.9558 232.386L100.359 231.87C100.58 231.587 101.311 230.799 101.983 230.12C103.793 228.289 105.745 227.052 108.006 226.302C108.948 225.989 109.077 225.99 108.978 226.302C108.818 226.818 108.885 230.386 109.073 231.354C109.375 232.904 109.95 234.21 110.802 235.279C111.287 235.888 112.326 236.813 112.418 236.719C112.44 236.696 112.533 236.091 112.626 235.374C113.325 229.955 115.447 224.437 119.569 217.322C121.112 214.657 120.863 215.014 121.875 214.016L122.689 213.212L121.68 215.296C119.632 219.527 118.241 223.641 117.181 228.61C116.642 231.132 116.327 232.985 115.535 238.27C115.156 240.798 114.826 242.959 114.801 243.071C114.776 243.182 114.79 243.274 114.834 243.274C114.877 243.274 115.714 242.057 116.694 240.568C118.641 237.614 119.3 236.776 120.076 236.273C120.71 235.862 121.106 235.855 121.562 236.247C122.532 237.081 123.207 239.789 123.677 244.728C123.768 245.688 123.843 246.548 123.843 246.639C123.843 246.963 123.959 246.674 124.306 245.477C125.116 242.685 126.398 240.655 127.83 239.9C129.723 238.902 132.092 239.372 135.601 241.444C136.211 241.804 136.711 242.082 136.711 242.06C136.711 242.039 136.253 241.112 135.693 240C132.194 233.054 130.137 225.059 129.378 215.459L129.318 214.702L129.534 215.459C129.653 215.875 129.804 216.428 129.87 216.687C129.984 217.14 130.005 217.156 130.39 217.11C130.611 217.084 130.811 217.03 130.834 216.987C130.857 216.947 130.782 215.866 130.667 214.585C130.552 213.305 130.457 212.074 130.456 211.85C130.453 210.914 130.725 212.002 131.311 215.269C132.699 223.001 133.955 227.674 135.914 232.395C137.079 235.203 139.844 240.329 140.015 239.997C140.06 239.911 140.127 239.525 140.165 239.141C140.262 238.152 140.524 237.338 140.93 236.766C142.163 235.026 144.783 236.033 149.273 239.97C149.825 240.455 150.3 240.828 150.327 240.8C150.355 240.771 150.175 240.309 149.929 239.771C149.182 238.141 148.877 237.059 148.817 235.824C148.769 234.833 148.791 234.665 149.029 234.195C149.242 233.773 149.426 233.604 149.977 233.322C150.628 232.989 150.724 232.974 152.026 232.986C153.029 232.986 153.769 233.08 154.808 233.304C155.586 233.472 156.236 233.597 156.252 233.581C156.303 233.53 154.283 230.15 153.281 228.611C150.367 224.141 147.512 220.573 143.607 216.523C141.955 214.809 139.036 212.002 138.546 211.656C138.522 211.637 138.588 211.49 138.693 211.327C138.798 211.163 138.855 210.982 138.82 210.924C138.786 210.867 137.811 210.126 136.654 209.278C135.497 208.429 134.573 207.712 134.6 207.684C134.628 207.655 134.845 207.79 135.083 207.98C135.972 208.695 138.44 210.291 142.677 212.89C147.574 215.895 148.096 216.262 149.464 217.667C151.762 220.026 153.66 223.289 156.236 229.307C156.853 230.747 157.392 231.967 157.435 232.017C157.555 232.16 158.854 229.488 159.237 228.311C159.884 226.323 159.982 224.277 159.506 222.713L159.299 222.034H161.128C163.179 222.034 163.753 221.912 165.08 221.202C165.761 220.838 166.431 220.288 166.308 220.195C164.696 218.983 163.851 218.074 163.33 216.994C162.407 215.078 163.204 213.165 165.784 211.1C166.26 210.719 166.639 210.397 166.626 210.385C166.514 210.283 163.761 209.198 162.416 208.724C158.326 207.286 153.437 206.197 147.445 205.39C145.583 205.139 140.952 204.637 140.497 204.636C140.419 204.636 140.355 204.53 140.355 204.403C140.355 204.209 140.275 204.169 139.871 204.16C139.605 204.16 138.362 204.085 137.109 204.008C135.339 203.898 134.895 203.839 135.117 203.746C135.322 203.659 136.306 203.7 138.647 203.894C142.361 204.2 146.907 204.258 149.009 204.027C150.963 203.81 155.474 203.849 157.15 204.097C162.067 204.825 165.954 206.455 169.093 209.106C169.524 209.469 169.895 209.748 169.917 209.725C170 209.641 168.952 206.525 168.596 205.797C167.772 204.113 166.631 203.014 165.207 202.536C164.784 202.394 164.419 202.262 164.396 202.241C164.373 202.22 164.589 201.867 164.877 201.454C166.07 199.746 167.958 198.428 170.077 197.826C170.671 197.656 171.282 197.48 171.435 197.434C171.676 197.361 171.574 197.291 170.695 196.932C169.31 196.365 167.761 195.945 166.433 195.776C165.131 195.61 163.552 195.757 162.435 196.155C162.057 196.289 161.734 196.379 161.718 196.357C161.701 196.334 162.01 194.248 162.404 191.719C162.797 189.191 163.122 187.028 163.124 186.914C163.127 186.775 162.077 187.608 160.016 189.376C152.436 195.88 148.892 198.296 143.798 200.433C142.348 201.041 139.677 201.967 139.42 201.952C139.339 201.952 139.42 201.888 139.598 201.821C139.885 201.713 139.914 201.659 139.852 201.339C139.813 201.141 139.738 200.935 139.686 200.881C139.634 200.828 138.936 200.944 138.134 201.141C136.575 201.522 136.137 201.553 137.308 201.2C139.359 200.582 142.441 199.17 144.893 197.724C149.621 194.937 153.503 191.63 156.579 187.769C158.683 185.129 160.083 183.838 161.876 182.885C163.209 182.176 164.128 181.927 165.681 181.855C167.25 181.782 167.255 181.809 165.524 180.906C161.632 178.877 157.921 178.853 154.278 180.835C153.746 181.125 153.298 181.361 153.282 181.361C153.267 181.361 153.22 180.93 153.176 180.404C153.027 178.577 152.239 176.731 151.145 175.645L150.669 175.173L150.082 177.54C149.415 180.234 149.112 181.15 148.386 182.672C147.633 184.251 146.632 185.525 144.661 187.413C143.702 188.333 141.431 190.591 139.614 192.433L136.312 195.78L135.996 195.517L135.68 195.255L136.036 194.752C137.544 192.625 139.623 188.206 140.475 185.316C141.541 181.703 144.817 177.811 149.718 174.336C150.327 173.904 150.852 173.507 150.884 173.453C150.916 173.4 150.52 173.236 150.004 173.088C148.645 172.7 147.437 172.728 146.128 173.179C145.577 173.37 145.109 173.494 145.087 173.457C144.936 173.196 144.773 171.047 144.829 170.043C144.934 168.135 145.403 166.764 146.446 165.315C146.728 164.923 146.959 164.583 146.959 164.559C146.959 164.482 145.445 164.833 144.682 165.088C143.414 165.51 142.621 165.987 141.831 166.801C140.713 167.953 140.14 169.422 140.125 171.179L140.117 171.877L139.838 171.074C139.185 169.199 138.363 168.425 136.614 168.039L136.233 167.955L136.311 170.788C136.465 176.441 136.052 182.458 135.214 186.773C134.826 188.772 134.037 191.732 133.502 193.198C133.288 193.783 133.272 193.799 132.99 193.668C132.742 193.552 132.674 193.566 132.526 193.76C132.354 193.986 132.353 193.986 132.433 193.76C132.672 193.076 133.548 189.449 133.852 187.882C134.327 185.441 134.736 182.29 134.88 179.969C135.165 175.367 135.464 166.562 135.433 163.688L135.4 160.616L134.717 161.217C133.785 162.038 132.62 162.628 131.934 162.628C130.823 162.628 129.579 161.612 128.266 159.631C127.959 159.167 127.683 158.788 127.654 158.788C127.624 158.788 127.6 159.095 127.6 159.471L127.602 159.476Z" fill="#0F47AF" stroke="#080108" stroke-width="0.607823"/>
<path d="M129.19 193.257C129.126 193.565 128.88 194.824 128.642 196.053C128.405 197.282 128.194 198.27 128.173 198.248C128.152 198.227 127.834 197.02 127.466 195.567C127.098 194.114 126.777 192.904 126.754 192.88C126.73 192.854 126.516 192.861 126.279 192.908C125.847 192.978 125.847 192.978 125.911 193.457C126.029 194.35 126.343 198.298 126.305 198.416C126.284 198.479 125.636 197.459 124.866 196.147L123.465 193.76L123.101 193.949C122.901 194.053 122.723 194.15 122.706 194.165C122.688 194.184 123.113 195.332 123.649 196.726C124.184 198.12 124.601 199.284 124.573 199.311C124.546 199.34 123.763 198.642 122.833 197.762C121.903 196.882 121.012 196.04 120.851 195.891L120.56 195.621L120.251 195.95L119.942 196.28L121.595 198.467C122.505 199.67 123.249 200.674 123.249 200.699C123.249 200.725 122.237 200.226 121 199.595C119.763 198.963 118.649 198.413 118.524 198.374C118.35 198.318 118.248 198.393 118.092 198.668C117.979 198.869 117.928 199.072 117.978 199.12C118.027 199.167 119.035 199.918 120.216 200.789C121.398 201.659 122.32 202.371 122.266 202.371C122.212 202.371 121 202.162 119.574 201.906C118.147 201.65 116.959 201.44 116.932 201.44C116.879 201.44 116.634 202.286 116.676 202.321C116.691 202.34 117.842 202.752 119.237 203.253C120.631 203.754 121.707 204.199 121.628 204.241C121.549 204.284 120.344 204.44 118.951 204.589L116.417 204.862V205.348V205.835L118.381 205.921C119.462 205.97 120.703 206.04 121.141 206.081L121.936 206.154L119.547 207.176C118.232 207.738 117.087 208.242 117.002 208.297C116.764 208.447 117.048 209.269 117.31 209.187C117.796 209.033 122.377 207.958 122.409 207.991C122.429 208.012 121.499 208.81 120.344 209.767C119.188 210.724 118.242 211.533 118.241 211.565C118.24 211.598 118.358 211.774 118.502 211.958L118.764 212.293L121.08 210.937C122.354 210.191 123.414 209.6 123.437 209.624C123.46 209.647 122.793 210.682 121.954 211.925L120.43 214.184L120.729 214.441C120.894 214.584 121.08 214.696 121.143 214.693C121.205 214.693 122.076 213.811 123.078 212.739C124.08 211.667 124.917 210.803 124.937 210.817C124.957 210.836 124.611 211.98 124.168 213.369C123.725 214.757 123.363 215.96 123.363 216.043C123.363 216.125 123.453 216.22 123.562 216.252C123.672 216.285 123.846 216.346 123.95 216.39C124.103 216.455 124.364 216.025 125.352 214.079C126.019 212.763 126.612 211.657 126.671 211.62C126.732 211.582 126.755 211.763 126.725 212.054C126.696 212.33 126.646 213.583 126.613 214.841L126.553 217.126L126.979 217.181C127.214 217.212 127.419 217.225 127.436 217.212C127.452 217.193 127.713 215.936 128.016 214.406C128.54 211.757 128.572 211.647 128.689 212.09C128.757 212.346 129.024 213.393 129.282 214.418C129.541 215.442 129.804 216.478 129.866 216.72C129.976 217.151 129.988 217.159 130.4 217.083C130.632 217.04 130.832 216.997 130.846 216.987C130.859 216.968 130.767 215.818 130.642 214.413C130.517 213.008 130.429 211.765 130.447 211.651C130.466 211.529 131.066 212.442 131.881 213.833L133.281 216.222L133.646 216.033C133.846 215.93 134.024 215.832 134.041 215.817C134.058 215.798 133.634 214.65 133.098 213.256C132.562 211.862 132.146 210.699 132.173 210.671C132.201 210.642 132.984 211.34 133.914 212.22C134.843 213.1 135.735 213.942 135.895 214.091L136.187 214.362L136.496 214.032L136.805 213.702L135.151 211.515C134.242 210.312 133.497 209.308 133.497 209.284C133.497 209.258 134.509 209.756 135.746 210.388C136.983 211.019 138.098 211.569 138.223 211.608C138.397 211.662 138.499 211.589 138.655 211.315C138.767 211.114 138.819 210.91 138.769 210.862C138.719 210.813 137.712 210.064 136.53 209.193C135.349 208.323 134.426 207.611 134.481 207.611C134.535 207.611 135.746 207.821 137.173 208.076C138.599 208.332 139.788 208.542 139.815 208.542C139.867 208.542 140.113 207.696 140.07 207.661C140.056 207.642 138.904 207.23 137.51 206.729C136.115 206.228 135.039 205.784 135.119 205.742C135.198 205.699 136.403 205.543 137.796 205.393L140.33 205.121V204.634V204.148L138.365 204.061C137.285 204.013 136.043 203.942 135.606 203.901L134.81 203.829L137.2 202.806C138.514 202.244 139.66 201.74 139.745 201.685C139.983 201.535 139.698 200.713 139.437 200.795C138.951 200.949 134.369 202.024 134.338 201.991C134.318 201.972 135.247 201.172 136.403 200.215C137.559 199.258 138.505 198.449 138.505 198.417C138.507 198.384 138.389 198.208 138.245 198.024L137.983 197.69L135.667 199.045C134.393 199.791 133.332 200.382 133.31 200.359C133.287 200.335 133.954 199.3 134.793 198.057L136.317 195.799L136.017 195.541C135.853 195.399 135.667 195.286 135.604 195.289C135.541 195.289 134.67 196.172 133.668 197.243C132.666 198.315 131.83 199.18 131.81 199.165C131.79 199.146 132.136 198.002 132.579 196.614C133.021 195.225 133.384 194.022 133.384 193.939C133.384 193.857 133.294 193.762 133.184 193.731C133.075 193.698 132.9 193.637 132.797 193.592C132.643 193.527 132.382 193.958 131.395 195.904C130.728 197.219 130.134 198.325 130.076 198.362C130.014 198.4 129.992 198.22 130.022 197.928C130.05 197.653 130.101 196.393 130.134 195.129L130.194 192.831H129.919C129.768 192.831 129.569 192.802 129.476 192.765C129.349 192.715 129.278 192.838 129.19 193.26L129.19 193.257ZM129.968 200.3C131.098 200.579 132.379 201.587 132.966 202.661C134.277 205.057 133.484 208.017 131.157 209.41C128.708 210.877 125.456 209.903 124.212 207.33C123.485 205.826 123.485 204.386 124.213 202.879C125.248 200.739 127.554 199.706 129.967 200.3H129.968Z" fill="#0F47AF" stroke="#080108" stroke-width="0.4"/>
<path d="M231.185 160.207C231.185 161.136 231.486 162.828 231.765 163.474C232.263 164.626 233.015 165.027 234.081 164.71C234.836 164.486 235.701 163.9 237.164 162.622L238.302 161.628L238.449 164.212C238.53 165.635 238.574 167.662 238.547 168.718C238.485 171.141 238.267 171.916 237.123 173.788C233.713 179.367 232.091 184.578 230.611 194.698C230.265 197.068 230.251 197.284 230.388 198.105C230.469 198.587 230.556 198.96 230.582 198.934C230.607 198.907 230.906 197.471 231.245 195.743C233.711 183.183 236.826 175.225 241.757 168.892C242.747 167.621 245.84 164.338 245.946 164.446C245.97 164.472 245.904 164.932 245.798 165.47C245.672 166.111 245.603 167.05 245.598 168.194C245.59 169.917 245.594 169.948 245.925 170.56C246.61 171.822 247.969 172.158 250.086 171.587C250.68 171.427 251.184 171.313 251.206 171.335C251.227 171.358 250.979 171.721 250.654 172.144C250.328 172.567 249.815 173.334 249.512 173.849C248.533 175.515 248.521 176.566 249.476 177.046C250.428 177.524 252.944 177.341 256.15 176.561C256.823 176.397 257.43 176.282 257.498 176.305C257.566 176.329 257.118 176.631 256.502 176.978C248.179 181.663 242.426 187.008 238.525 193.681C237.201 195.946 236.333 197.172 235.087 198.536C234.555 199.118 234.055 199.969 234.173 200.091C234.196 200.114 235.1 199.298 236.184 198.279L238.154 196.426L238.484 196.676C238.666 196.812 238.814 196.963 238.814 197.009C238.814 197.056 238.441 197.582 237.984 198.18C236.915 199.578 236.889 199.622 237.235 199.437C238.189 198.925 241.236 196.734 242.288 195.804C244.694 193.677 246.131 191.705 247.774 188.27C248.95 185.814 249.489 184.951 250.51 183.891C251.661 182.697 252.815 181.875 255.126 180.602C256.237 179.991 256.501 179.951 255.936 180.481C255.338 181.041 254.273 182.633 253.728 183.781C253.116 185.072 252.788 186.157 252.534 187.746C252.378 188.715 252.302 190.364 252.413 190.364C252.439 190.364 253.401 189.721 254.551 188.935C256.734 187.442 258.011 186.713 259.678 186.009C261.52 185.231 264.226 184.727 266.169 184.799L267.163 184.837L263.17 188.56L259.177 192.283L260.753 192.428C265.28 192.843 268.623 194.133 270.564 196.214L270.943 196.62L269.255 196.697C258.744 197.176 254.93 197.73 251.34 199.297C248.622 200.483 245.823 201.464 242.94 202.241C242.046 202.481 242 202.51 242.029 202.798C242.059 203.092 241.995 203.126 240.149 203.79C239.099 204.169 238.261 204.501 238.287 204.527C238.374 204.616 241.574 204.323 243.142 204.082C245.563 203.71 247.113 203.33 249.746 202.464C253.995 201.066 257.62 200.211 260.62 199.9C262.486 199.706 265.936 199.818 267.51 200.123C269.105 200.432 270.178 200.744 269.993 200.844C269.911 200.887 269.357 200.986 268.762 201.06C266.965 201.286 263.829 201.973 262.348 202.465C261.01 202.91 259.164 203.754 258.685 204.139C258.47 204.312 258.493 204.322 259.087 204.326C260.962 204.345 264.262 204.97 266.468 205.741C267.863 206.23 270.698 207.558 270.698 207.724C270.698 207.778 269.987 207.82 269.119 207.82C266.508 207.82 264.795 208.243 264.093 209.061C263.816 209.383 263.752 209.56 263.754 210.006C263.759 211.045 264.381 212.066 266.127 213.901C266.782 214.589 267.291 215.152 267.258 215.152C267.225 215.152 266.666 214.909 266.016 214.613C262.244 212.894 259.318 212.164 255.098 211.891C250.235 211.576 246.874 210.971 243.177 209.746C241.951 209.34 241.782 209.343 241.777 209.77C241.774 209.976 241.533 209.954 240.202 209.624C239.556 209.464 238.994 209.333 238.953 209.333C238.541 209.333 242.558 211.209 244.508 211.928C247.393 212.991 249.129 213.445 253.067 214.166C259.322 215.311 261.066 215.803 263.656 217.15C264.261 217.465 265.127 217.989 265.58 218.314L266.404 218.906L265.277 219.407C262.821 220.5 260.974 220.867 257.93 220.866C256.748 220.866 255.781 220.892 255.781 220.927C255.781 220.962 256.004 221.286 256.276 221.649C257.541 223.335 258.486 225.298 259 227.303C259.325 228.576 259.346 230.871 259.042 232.193L258.831 233.116L258.428 232.601C258.206 232.317 257.475 231.529 256.804 230.85C254.993 229.019 253.041 227.782 250.78 227.032C249.838 226.719 249.709 226.721 249.809 227.032C249.969 227.548 249.902 231.117 249.713 232.084C249.412 233.634 248.837 234.94 247.985 236.009C247.5 236.618 246.461 237.544 246.369 237.449C246.347 237.428 246.253 236.822 246.161 236.104C245.462 230.685 243.34 225.167 239.218 218.052C237.675 215.387 237.923 215.744 236.912 214.746L236.097 213.943L237.106 216.026C239.155 220.257 240.545 224.371 241.606 229.34C242.144 231.862 242.46 233.716 243.252 239C243.631 241.528 243.961 243.689 243.986 243.801C244.011 243.912 243.997 244.004 243.953 244.004C243.91 244.004 243.073 242.787 242.092 241.298C240.146 238.344 239.486 237.506 238.711 237.003C238.076 236.592 237.681 236.585 237.224 236.977C236.255 237.811 235.579 240.519 235.11 245.458C235.018 246.419 234.944 247.278 234.943 247.369C234.943 247.693 234.828 247.404 234.481 246.207C233.671 243.415 232.388 241.385 230.957 240.631C229.063 239.632 226.694 240.103 223.186 242.174C222.575 242.534 222.076 242.812 222.076 242.791C222.076 242.769 222.534 241.842 223.094 240.73C226.592 233.784 228.649 225.789 229.408 216.189L229.468 215.432L229.252 216.189C229.133 216.605 228.983 217.158 228.917 217.417C228.802 217.87 228.782 217.887 228.396 217.841C228.175 217.814 227.976 217.76 227.953 217.717C227.929 217.677 228.004 216.596 228.12 215.315C228.235 214.035 228.329 212.804 228.33 212.58C228.333 211.645 228.062 212.733 227.475 215.999C226.088 223.731 224.832 228.404 222.873 233.125C221.708 235.934 218.943 241.059 218.772 240.727C218.727 240.641 218.659 240.255 218.622 239.871C218.524 238.882 218.262 238.068 217.857 237.496C216.624 235.757 214.003 236.763 209.514 240.7C208.961 241.185 208.487 241.558 208.459 241.53C208.432 241.501 208.611 241.039 208.858 240.501C209.605 238.871 209.909 237.79 209.969 236.555C210.017 235.563 209.996 235.395 209.758 234.925C209.544 234.503 209.361 234.334 208.81 234.052C208.159 233.719 208.063 233.704 206.76 233.716C205.757 233.716 205.017 233.81 203.979 234.034C203.2 234.204 202.55 234.327 202.535 234.311C202.483 234.26 204.503 230.88 205.506 229.342C208.42 224.871 211.275 221.303 215.179 217.253C216.831 215.54 219.751 212.732 220.241 212.386C220.265 212.367 220.199 212.22 220.094 212.057C219.989 211.894 219.931 211.712 219.966 211.655C220.001 211.596 220.976 210.856 222.133 210.008C223.29 209.159 224.214 208.442 224.186 208.414C224.159 208.385 223.941 208.52 223.704 208.71C222.814 209.426 220.347 211.021 216.11 213.62C211.212 216.625 210.691 216.992 209.322 218.397C207.025 220.756 205.126 224.02 202.55 230.037C201.934 231.477 201.394 232.697 201.352 232.748C201.232 232.89 199.933 230.219 199.55 229.041C198.903 227.053 198.805 225.007 199.281 223.444L199.488 222.764H197.658C195.607 222.764 195.034 222.643 193.707 221.932C193.026 221.568 192.356 221.018 192.479 220.926C194.091 219.713 194.936 218.804 195.456 217.724C196.379 215.808 195.583 213.895 193.003 211.83C192.527 211.449 192.148 211.127 192.161 211.115C192.272 211.014 195.026 209.928 196.371 209.455C200.46 208.016 205.35 206.927 211.341 206.12C213.204 205.87 217.835 205.367 218.29 205.366C218.368 205.366 218.432 205.263 218.432 205.133C218.432 204.939 218.511 204.899 218.916 204.89C219.182 204.89 220.425 204.815 221.677 204.736C223.447 204.627 223.891 204.567 223.67 204.474C223.465 204.387 222.481 204.428 220.14 204.622C216.426 204.929 211.88 204.987 209.778 204.755C207.824 204.538 203.313 204.578 201.636 204.825C196.72 205.553 192.833 207.184 189.694 209.834C189.263 210.197 188.892 210.476 188.87 210.454C188.787 210.369 189.835 207.253 190.191 206.525C191.015 204.841 192.156 203.743 193.58 203.265C194.003 203.122 194.368 202.99 194.391 202.969C194.414 202.948 194.197 202.595 193.909 202.182C192.716 200.474 190.828 199.156 188.71 198.554C188.116 198.385 187.505 198.208 187.352 198.162C187.111 198.089 187.213 198.019 188.092 197.66C189.477 197.093 191.026 196.673 192.354 196.504C193.655 196.339 195.234 196.485 196.352 196.883C196.73 197.016 197.053 197.108 197.069 197.085C197.086 197.062 196.777 194.976 196.383 192.448C195.989 189.919 195.665 187.757 195.663 187.642C195.659 187.503 196.71 188.336 198.771 190.104C206.35 196.608 209.895 199.024 214.989 201.161C216.438 201.769 219.11 202.696 219.367 202.68C219.448 202.68 219.367 202.617 219.189 202.549C218.901 202.441 218.872 202.387 218.935 202.067C218.974 201.869 219.048 201.663 219.1 201.609C219.152 201.555 219.851 201.673 220.653 201.869C222.212 202.25 222.65 202.282 221.479 201.928C219.428 201.31 216.346 199.898 213.893 198.452C209.166 195.665 205.284 192.358 202.207 188.497C200.104 185.857 198.704 184.566 196.911 183.613C195.578 182.904 194.659 182.655 193.106 182.583C191.536 182.511 191.532 182.537 193.263 181.634C197.154 179.605 200.866 179.581 204.509 181.561C205.041 181.851 205.489 182.088 205.504 182.088C205.52 182.088 205.567 181.657 205.61 181.13C205.759 179.303 206.547 177.457 207.642 176.371L208.118 175.9L208.704 178.266C209.372 180.96 209.675 181.876 210.401 183.398C211.154 184.977 212.155 186.251 214.126 188.14C215.085 189.059 217.356 191.318 219.172 193.159L222.474 196.506L222.791 196.243L223.107 195.981L222.751 195.478C221.243 193.351 219.164 188.932 218.312 186.043C217.246 182.429 213.969 178.537 209.069 175.062C208.46 174.63 207.935 174.233 207.902 174.179C207.87 174.126 208.266 173.962 208.782 173.814C210.141 173.426 211.35 173.454 212.659 173.905C213.21 174.096 213.678 174.22 213.699 174.183C213.85 173.922 214.013 171.773 213.958 170.769C213.853 168.861 213.384 167.49 212.34 166.041C212.058 165.649 211.828 165.309 211.828 165.285C211.828 165.208 213.342 165.559 214.105 165.814C215.372 166.236 216.166 166.713 216.956 167.527C218.074 168.679 218.646 170.148 218.662 171.905L218.669 172.603L218.949 171.8C219.602 169.925 220.424 169.151 222.173 168.765L222.553 168.681L222.476 171.515C222.322 177.167 222.735 183.184 223.573 187.499C223.961 189.498 224.75 192.459 225.284 193.924C225.498 194.51 225.515 194.525 225.796 194.394C226.045 194.278 226.113 194.292 226.261 194.486C226.433 194.712 226.434 194.712 226.353 194.486C226.115 193.802 225.239 190.175 224.934 188.609C224.46 186.167 224.05 183.016 223.907 180.695C223.622 176.093 223.322 167.289 223.353 164.414L223.386 161.342L224.07 161.943C225.002 162.764 226.166 163.354 226.852 163.354C227.964 163.354 229.208 162.338 230.52 160.357C230.828 159.893 231.104 159.514 231.133 159.514C231.162 159.514 231.186 159.821 231.186 160.197L231.185 160.207Z" fill="#0F47AF" stroke="#080108" stroke-width="0.607823"/>
<path d="M229.596 193.987C229.66 194.296 229.907 195.554 230.144 196.783C230.382 198.012 230.593 199.001 230.614 198.979C230.635 198.958 230.953 197.751 231.321 196.297C231.689 194.844 232.009 193.635 232.033 193.611C232.057 193.585 232.271 193.592 232.508 193.637C232.939 193.708 232.939 193.708 232.876 194.187C232.757 195.08 232.444 199.028 232.482 199.145C232.503 199.208 233.151 198.189 233.921 196.876L235.321 194.49L235.686 194.679C235.886 194.782 236.064 194.88 236.081 194.895C236.098 194.914 235.674 196.062 235.138 197.456C234.602 198.85 234.186 200.013 234.213 200.041C234.241 200.07 235.024 199.372 235.954 198.492C236.883 197.612 237.775 196.77 237.935 196.621L238.227 196.35L238.536 196.68L238.845 197.01L237.191 199.197C236.282 200.4 235.537 201.404 235.537 201.428C235.537 201.454 236.549 200.956 237.786 200.324C239.023 199.693 240.138 199.143 240.263 199.104C240.437 199.047 240.539 199.123 240.695 199.397C240.807 199.598 240.859 199.802 240.809 199.849C240.759 199.898 239.752 200.648 238.57 201.519C237.389 202.389 236.466 203.101 236.521 203.101C236.575 203.101 237.786 202.891 239.213 202.636C240.639 202.379 241.828 202.17 241.855 202.17C241.907 202.17 242.153 203.016 242.11 203.051C242.096 203.07 240.944 203.482 239.55 203.983C238.155 204.484 237.079 204.928 237.159 204.97C237.238 205.013 238.443 205.169 239.836 205.319L242.37 205.591V206.078V206.564L240.405 206.651C239.325 206.7 238.083 206.77 237.646 206.811L236.85 206.883L239.24 207.906C240.554 208.468 241.7 208.972 241.785 209.026C242.023 209.176 241.738 209.999 241.477 209.917C240.991 209.763 236.41 208.688 236.378 208.721C236.358 208.742 237.287 209.54 238.443 210.497C239.599 211.454 240.545 212.263 240.546 212.295C240.547 212.328 240.429 212.504 240.285 212.688L240.023 213.022L237.707 211.667C236.433 210.921 235.372 210.33 235.35 210.353C235.327 210.377 235.994 211.412 236.833 212.654L238.357 214.913L238.057 215.171C237.893 215.313 237.707 215.426 237.644 215.423C237.582 215.423 236.71 214.54 235.708 213.469C234.706 212.397 233.87 211.532 233.85 211.547C233.83 211.566 234.176 212.71 234.619 214.098C235.061 215.487 235.424 216.69 235.424 216.773C235.424 216.855 235.334 216.95 235.224 216.981C235.115 217.015 234.94 217.075 234.837 217.12C234.683 217.185 234.422 216.755 233.435 214.808C232.768 213.493 232.174 212.387 232.116 212.35C232.054 212.311 232.032 212.492 232.062 212.784C232.09 213.059 232.141 214.313 232.173 215.57L232.233 217.856L231.807 217.91C231.573 217.938 231.368 217.954 231.351 217.941C231.335 217.921 231.073 216.665 230.771 215.135C230.247 212.486 230.215 212.375 230.098 212.819C230.03 213.075 229.763 214.122 229.504 215.146C229.246 216.17 228.983 217.207 228.921 217.449C228.811 217.88 228.799 217.888 228.387 217.812C228.155 217.769 227.954 217.725 227.941 217.716C227.928 217.696 228.019 216.547 228.144 215.142C228.269 213.737 228.357 212.493 228.339 212.379C228.32 212.258 227.721 213.171 226.906 214.561L225.505 216.951L225.141 216.762C224.941 216.658 224.763 216.561 224.746 216.546C224.729 216.527 225.153 215.379 225.689 213.985C226.225 212.591 226.641 211.428 226.613 211.4C226.586 211.371 225.803 212.069 224.873 212.949C223.943 213.829 223.052 214.671 222.891 214.82L222.6 215.09L222.291 214.761L221.982 214.431L223.635 212.244C224.545 211.041 225.289 210.037 225.289 210.012C225.289 209.987 224.277 210.485 223.04 211.116C221.803 211.748 220.689 212.297 220.564 212.337C220.39 212.393 220.288 212.318 220.132 212.043C220.019 211.843 219.968 211.639 220.018 211.591C220.067 211.542 221.075 210.793 222.256 209.922C223.438 209.052 224.36 208.34 224.306 208.34C224.252 208.34 223.04 208.549 221.614 208.805C220.188 209.061 218.999 209.27 218.972 209.27C218.92 209.27 218.674 208.425 218.716 208.39C218.731 208.371 219.883 207.959 221.277 207.458C222.671 206.957 223.747 206.512 223.668 206.47C223.589 206.428 222.384 206.271 220.991 206.122L218.457 205.849V205.363V204.876L220.421 204.79C221.502 204.742 222.743 204.67 223.181 204.63L223.976 204.557L221.587 203.535C220.272 202.973 219.127 202.469 219.042 202.414C218.804 202.264 219.088 201.442 219.35 201.524C219.836 201.678 224.417 202.753 224.449 202.72C224.469 202.699 223.539 201.901 222.384 200.944C221.228 199.987 220.282 199.178 220.281 199.146C220.28 199.113 220.398 198.937 220.542 198.753L220.804 198.418L223.12 199.774C224.394 200.52 225.454 201.111 225.477 201.087C225.5 201.064 224.833 200.029 223.994 198.786L222.47 196.527L222.769 196.27C222.934 196.127 223.12 196.015 223.183 196.018C223.245 196.018 224.116 196.9 225.118 197.972C226.12 199.044 226.957 199.908 226.977 199.894C226.997 199.874 226.651 198.731 226.208 197.342C225.765 195.954 225.403 194.751 225.403 194.668C225.403 194.586 225.493 194.491 225.602 194.459C225.712 194.426 225.886 194.365 225.99 194.321C226.143 194.256 226.404 194.686 227.392 196.633C228.059 197.948 228.652 199.054 228.711 199.091C228.772 199.129 228.795 198.948 228.765 198.657C228.736 198.382 228.686 197.122 228.653 195.858L228.593 193.559H228.867C229.018 193.559 229.218 193.528 229.311 193.494C229.438 193.444 229.509 193.567 229.596 193.989L229.596 193.987ZM228.819 201.03C227.688 201.309 226.408 202.317 225.82 203.391C224.51 205.788 225.303 208.747 227.63 210.141C230.079 211.607 233.331 210.633 234.575 208.061C235.302 206.557 235.301 205.116 234.574 203.61C233.539 201.47 231.233 200.436 228.82 201.03H228.819Z" fill="#0F47AF" stroke="#080108" stroke-width="0.4"/>
</g>
<defs>
<clipPath id="clip0_1_5890">
<rect width="600" height="400" fill="white"/>
</clipPath>
</defs>
</svg>
