<svg width="600" height="400" viewBox="0 0 600 400" fill="none" xmlns="http://www.w3.org/2000/svg" xmlns:cgf="https://coding.garden/flags"><metadata id="cgf-metadata">

<cgf:flag>
  <cgf:name>Bloemendaal</cgf:name>
  <cgf:route>nl/nh/bloemendaal</cgf:route>
  <cgf:aspect-ratio>1.5</cgf:aspect-ratio>
</cgf:flag>

</metadata><g clip-path="url(#clip0_1_5906)">
<path d="M600 0H0V400H600V0Z" fill="white"/>
<path d="M600 0H200V57.1429H600V0Z" fill="#064A25"/>
<path d="M600 114.286H200V171.429H600V114.286Z" fill="#064A25"/>
<path d="M600 228.571H200V285.714H600V228.571Z" fill="#064A25"/>
<path d="M600 342.857H200V400H600V342.857Z" fill="#064A25"/>
<path d="M56.1426 82.8572C56.1426 107.079 75.7783 126.714 99.9997 126.714C124.221 126.714 143.857 107.079 143.857 82.8572C143.857 58.6357 125.623 46.4286 118.285 46.4286C110.948 46.4286 105 52.3772 105 59.7143C105 67.0514 106.571 69.9415 106.571 73.5715C106.571 77.2015 103.63 80.1429 99.9997 80.1429C96.3697 80.1429 93.4283 77.2015 93.4283 73.5715C93.4283 69.9415 94.9997 67.0514 94.9997 59.7143C94.9997 52.3772 89.0511 46.4286 81.714 46.4286C74.3769 46.4286 56.1426 58.6357 56.1426 82.8572Z" fill="black"/>
<path d="M56.1426 197.143C56.1426 221.364 75.7783 241 99.9997 241C124.221 241 143.857 221.364 143.857 197.143C143.857 172.921 125.623 160.714 118.285 160.714C110.948 160.714 105 166.663 105 174C105 181.337 106.571 184.227 106.571 187.857C106.571 191.487 103.63 194.429 99.9997 194.429C96.3697 194.429 93.4283 191.487 93.4283 187.857C93.4283 184.227 94.9997 181.337 94.9997 174C94.9997 166.663 89.0511 160.714 81.714 160.714C74.3769 160.714 56.1426 172.921 56.1426 197.143Z" fill="black"/>
<path d="M56.1426 311.429C56.1426 335.65 75.7783 355.286 99.9997 355.286C124.221 355.286 143.857 335.65 143.857 311.429C143.857 287.207 125.623 275 118.285 275C110.948 275 105 280.949 105 288.286C105 295.623 106.571 298.513 106.571 302.143C106.571 305.773 103.63 308.714 99.9997 308.714C96.3697 308.714 93.4283 305.773 93.4283 302.143C93.4283 298.513 94.9997 295.623 94.9997 288.286C94.9997 280.949 89.0511 275 81.714 275C74.3769 275 56.1426 287.207 56.1426 311.429Z" fill="black"/>
</g>
<defs>
<clipPath id="clip0_1_5906">
<rect width="600" height="400" fill="white"/>
</clipPath>
</defs>
</svg>
