<svg width="600" height="400" viewBox="0 0 600 400" fill="none" xmlns="http://www.w3.org/2000/svg" xmlns:cgf="https://coding.garden/flags"><metadata id="cgf-metadata">

<cgf:flag>
  <cgf:name>Den Helder</cgf:name>
  <cgf:route>nl/nh/den_helder</cgf:route>
  <cgf:aspect-ratio>1.5</cgf:aspect-ratio>
</cgf:flag>

</metadata><g clip-path="url(#clip0_1_6126)">
<path d="M600 0H0V57.1429H600V0Z" fill="#FF0000"/>
<path d="M600 114.286H0V171.429H600V114.286Z" fill="#FF0000"/>
<path d="M600 228.571H0V285.714H600V228.571Z" fill="#FF0000"/>
<path d="M600 342.857H0V400H600V342.857Z" fill="#FF0000"/>
<path d="M600 57.1429H0V114.286H600V57.1429Z" fill="#FFFF00"/>
<path d="M600 171.429H0V228.571H600V171.429Z" fill="#FFFF00"/>
<path d="M600 285.714H0V342.857H600V285.714Z" fill="#FFFF00"/>
<path d="M170.276 85.7143C170.279 96.6136 168.139 107.407 163.977 117.478C159.815 127.548 153.712 136.699 146.018 144.408C138.324 152.116 129.19 158.231 119.136 162.403C109.082 166.574 98.3057 168.722 87.423 168.722C76.5403 168.722 65.7642 166.574 55.7103 162.403C45.6564 158.231 36.5215 152.116 28.8276 144.408C21.1337 136.699 15.0314 127.548 10.8692 117.478C6.70711 107.407 4.56672 96.6136 4.57032 85.7143C4.56672 74.8149 6.70711 64.0215 10.8692 53.9508C15.0314 43.88 21.1337 34.7291 28.8276 27.0208C36.5215 19.3125 45.6564 13.1978 55.7103 9.02595C65.7642 4.8541 76.5403 2.70685 87.423 2.70685C98.3057 2.70685 109.082 4.8541 119.136 9.02595C129.19 13.1978 138.324 19.3125 146.018 27.0208C153.712 34.7291 159.815 43.88 163.977 53.9508C168.139 64.0215 170.279 74.8149 170.276 85.7143V85.7143Z" fill="black"/>
<path d="M32.5683 29.229C27.1804 34.6251 27.1804 43.3841 32.5683 48.7803C36.1883 52.4059 41.3339 53.5703 45.9485 52.324L31.9176 66.3765L34.5204 71.5902L50.1375 55.9491C51.4223 54.6711 54.0338 54.6465 55.3432 55.9491L121.594 122.301L129.524 130.244C132.127 132.851 132.127 135.458 129.524 138.065C122.987 144.509 118.899 147.371 110.003 149.796H107.4C106.042 148.451 104.781 147.205 104.797 144.582L90.4816 158.919C105.854 161.51 126.101 154.527 141.888 138.716C141.956 138.648 142.023 138.582 142.091 138.513C157.733 122.732 164.635 102.56 162.06 87.2313L147.744 101.569C150.363 101.553 151.607 102.815 152.95 104.176V106.783C150.529 115.692 147.672 119.787 141.237 126.334C138.634 128.941 136.031 128.941 133.429 126.334L59.2474 52.0389C57.9468 50.7398 57.9468 48.1365 59.2474 46.8252L74.8645 31.1841L69.6588 28.5772L55.6279 42.6298C56.8722 38.008 55.7096 32.8545 52.0896 29.229C46.7017 23.8328 37.9562 23.8328 32.5683 29.229ZM35.8218 32.4875C39.4137 28.8901 45.2441 28.8901 48.8361 32.4875C52.428 36.085 52.428 41.9243 48.8361 45.5217C45.2441 49.1192 39.4138 49.1192 35.8218 45.5217C32.2299 41.9243 32.2299 36.085 35.8218 32.4875Z" fill="black"/>
<path d="M141.981 29.229C136.593 23.8328 127.848 23.8328 122.46 29.229C118.84 32.8546 117.677 38.0081 118.922 42.6298L104.891 28.5773L99.685 31.1841L115.302 46.8252C116.578 48.112 116.603 50.7276 115.302 52.0389L49.0514 118.391L41.1209 126.334C38.5181 128.941 35.9152 128.941 33.3124 126.334C26.8777 119.787 24.0201 115.693 21.5995 106.783V104.176C22.9421 102.815 24.1866 101.553 26.8052 101.569L12.4896 87.2313C9.90341 102.627 16.8749 122.906 32.6616 138.717C32.7301 138.785 32.7964 138.852 32.865 138.92C48.6216 154.586 68.7626 161.498 84.0679 158.92L69.7522 144.582C69.768 147.205 68.5078 148.451 67.1494 149.796H64.5465C55.6503 147.371 51.5621 144.509 45.0252 138.065C42.4223 135.458 42.4223 132.851 45.0252 130.244L119.206 55.9492C120.503 54.6466 123.103 54.6466 124.412 55.9492L140.029 71.5903L142.632 66.3766L128.601 52.324C133.216 53.5703 138.361 52.4059 141.981 48.7804C147.369 43.3842 147.369 34.6252 141.981 29.229ZM138.728 32.4876C142.32 36.085 142.32 41.9243 138.728 45.5218C135.136 49.1192 129.305 49.1192 125.713 45.5218C122.121 41.9243 122.121 36.085 125.713 32.4876C129.305 28.8901 135.136 28.8901 138.728 32.4876Z" fill="black"/>
</g>
<defs>
<clipPath id="clip0_1_6126">
<rect width="600" height="400" fill="white"/>
</clipPath>
</defs>
</svg>
