<svg width="600" height="400" viewBox="0 0 600 400" fill="none" xmlns="http://www.w3.org/2000/svg" xmlns:cgf="https://coding.garden/flags"><metadata id="cgf-metadata">

<cgf:flag>
  <cgf:name>Diemen</cgf:name>
  <cgf:route>nl/nh/diemen</cgf:route>
  <cgf:aspect-ratio>1.5</cgf:aspect-ratio>
</cgf:flag>

</metadata><g clip-path="url(#clip0_1_6142)">
<path d="M0 0H600V400H0V0Z" fill="#00529B"/>
<path d="M0 133.333H600V266.667H0V133.333Z" fill="white"/>
<path d="M54.3918 185.12C51.9169 191.233 61.5485 195.271 74.1491 193.953C76.9638 199.281 78.4972 197.852 81.3551 200.693C84.9203 204.832 79.726 208.544 77.8685 213.477C76.011 218.411 74.7629 228.145 82.0524 229.283C89.3417 230.421 144.961 228.901 149.926 229.051C154.89 229.201 156.848 223.501 158.758 219.753C160.668 216.006 162.021 214.751 164.673 212.813C167.325 210.874 173.657 204.976 169.218 201.158C155.247 208.352 135.967 190.73 123.892 189.303C111.818 187.875 104.314 196.568 100.648 197.671C97.0282 195.062 104.917 186.262 101.346 181.865C97.774 177.468 89.3903 173.077 82.7503 175.821C76.1103 178.566 76.8123 182.056 73.4523 184.189C70.0927 186.323 57.0317 185.581 54.3923 185.119L54.3918 185.12Z" fill="#1F1F21"/>
<path d="M86.0674 188C87.172 188 88.0674 187.105 88.0674 186C88.0674 184.895 87.172 184 86.0674 184C84.9628 184 84.0674 184.895 84.0674 186C84.0674 187.105 84.9628 188 86.0674 188Z" fill="white"/>
<path d="M241.725 185.12C239.25 191.233 248.881 195.271 261.482 193.953C264.297 199.281 265.83 197.852 268.688 200.693C272.253 204.832 267.059 208.544 265.201 213.477C263.344 218.411 262.096 228.145 269.385 229.283C276.675 230.421 332.294 228.901 337.259 229.051C342.223 229.201 344.181 223.501 346.091 219.753C348.001 216.006 349.354 214.751 352.006 212.813C354.658 210.874 360.99 204.976 356.551 201.158C342.58 208.352 323.3 190.73 311.225 189.303C299.151 187.875 291.647 196.568 287.981 197.671C284.361 195.062 292.25 186.262 288.679 181.865C285.107 177.468 276.723 173.077 270.083 175.821C263.443 178.566 264.145 182.056 260.785 184.189C257.426 186.323 244.365 185.581 241.725 185.119L241.725 185.12Z" fill="#1F1F21"/>
<path d="M273.4 188C274.505 188 275.4 187.105 275.4 186C275.4 184.895 274.505 184 273.4 184C272.296 184 271.4 184.895 271.4 186C271.4 187.105 272.296 188 273.4 188Z" fill="white"/>
<path d="M429.058 185.12C426.583 191.233 436.214 195.271 448.815 193.953C451.63 199.281 453.163 197.852 456.021 200.693C459.586 204.832 454.392 208.544 452.534 213.477C450.677 218.411 449.429 228.145 456.718 229.283C464.008 230.421 519.627 228.901 524.592 229.051C529.556 229.201 531.514 223.501 533.424 219.753C535.334 216.006 536.687 214.751 539.339 212.813C541.991 210.874 548.323 204.976 543.884 201.158C529.913 208.352 510.633 190.73 498.558 189.303C486.484 187.875 478.98 196.568 475.314 197.671C471.694 195.062 479.583 186.262 476.012 181.865C472.44 177.468 464.056 173.077 457.416 175.821C450.776 178.566 451.478 182.056 448.118 184.189C444.759 186.323 431.698 185.581 429.058 185.119L429.058 185.12Z" fill="#1F1F21"/>
<path d="M460.733 188C461.838 188 462.733 187.105 462.733 186C462.733 184.895 461.838 184 460.733 184C459.629 184 458.733 184.895 458.733 186C458.733 187.105 459.629 188 460.733 188Z" fill="white"/>
</g>
<defs>
<clipPath id="clip0_1_6142">
<rect width="600" height="400" fill="white"/>
</clipPath>
</defs>
</svg>
