<svg width="600" height="400" viewBox="0 0 600 400" fill="none" xmlns="http://www.w3.org/2000/svg" xmlns:cgf="https://coding.garden/flags"><metadata id="cgf-metadata">

<cgf:flag>
  <cgf:name>Dijk en Waard</cgf:name>
  <cgf:route>nl/nh/dijk_en_waard</cgf:route>
  <cgf:aspect-ratio>1.5</cgf:aspect-ratio>
</cgf:flag>

</metadata><g clip-path="url(#clip0_3_11445)">
<rect width="600" height="400" fill="white"/>
<path d="M526.506 251.995C523.917 251.95 521.34 251.632 518.818 251.047C510.04 248.894 502.556 241.615 494.624 233.914L492.587 231.953C482.169 221.894 469.329 211.527 453.17 210.886C440.291 210.399 427.233 216.192 413.291 228.609C411.254 230.428 409.216 232.312 407.307 234.093C400.605 240.347 394.288 246.241 387.022 249.47C382.992 251.26 378.616 252.135 374.208 252.033H373.862C371.088 252 368.327 251.673 365.622 251.059C356.883 248.919 349.399 241.654 341.467 233.965L339.391 231.953C328.973 221.907 316.133 211.54 299.974 210.899C287.16 210.399 274.064 216.192 260.096 228.621C258.058 230.441 256.034 232.325 254.137 234.093C247.422 240.347 241.105 246.241 233.826 249.47C229.805 251.288 225.423 252.164 221.012 252.033H220.589C217.833 252.011 215.087 251.689 212.401 251.072C203.636 248.932 196.139 241.654 188.207 233.952L186.157 231.966C175.739 221.92 162.899 211.553 146.74 210.912C133.926 210.425 120.817 216.217 106.862 228.634C104.914 230.364 103.018 232.184 100.89 234.119C94.1885 240.359 87.871 246.254 80.5925 249.496C76.7774 251.195 72.6463 252.068 68.4701 252.059L66.1507 251.982C63.8064 251.906 61.4755 251.597 59.1925 251.059C50.4531 248.919 42.9695 241.666 35.0375 233.978L33 231.94L42.8542 221.791L44.9045 223.778C51.1579 229.839 57.5907 236.079 62.614 237.31C64.2264 237.663 65.8712 237.847 67.5219 237.861H69.4184C71.3069 237.783 73.1636 237.348 74.8901 236.579C80.0158 234.298 85.4876 229.185 91.2925 223.765C93.4325 221.779 95.4443 219.921 97.5202 218.062C114.333 203.095 130.633 196.124 147.342 196.778C168.255 197.598 183.697 209.887 196.037 221.804L198.1 223.803C204.328 229.852 210.773 236.105 215.81 237.335C217.617 237.713 219.46 237.902 221.307 237.899H221.743C223.922 237.946 226.084 237.509 228.073 236.618C233.199 234.337 238.67 229.224 244.488 223.803C246.449 221.971 248.55 220.023 250.716 218.101C267.541 203.121 283.828 196.163 300.538 196.816C321.451 197.636 336.892 209.925 349.232 221.843L351.296 223.842C357.549 229.903 363.982 236.144 369.018 237.374C370.822 237.751 372.66 237.94 374.502 237.938H374.874C377.077 237.979 379.264 237.542 381.281 236.656C386.407 234.388 391.879 229.275 397.671 223.842C399.644 221.996 401.759 219.997 403.911 218.127C420.724 203.172 437.036 196.214 453.746 196.842C474.659 197.662 490.101 209.951 502.441 221.868L504.478 223.842C510.719 229.903 517.165 236.156 522.213 237.399C523.834 237.753 525.488 237.938 527.147 237.95H528.633C530.648 237.923 532.636 237.488 534.477 236.669C539.602 234.388 545.074 229.275 550.892 223.855C552.891 221.996 554.736 220.305 556.543 218.652L566 229.185C564.232 230.761 562.476 232.389 560.541 234.209C553.839 240.449 547.522 246.344 540.243 249.586C536.416 251.288 532.271 252.161 528.082 252.149L526.506 251.995Z" fill="url(#paint0_linear_3_11445)"/>
<path d="M561.297 151.492H37.9336V165.639H561.297V151.492Z" fill="url(#paint1_linear_3_11445)"/>
<path d="M37.9336 116.111V28H106.554C127.724 28 134.233 36.6369 134.233 54.0388V90.9569C134.233 107.449 127.724 116.111 106.554 116.111H37.9336ZM120.138 54.0388C120.138 43.9026 117.152 41.0194 106.619 41.0194H52.0806V103.092H106.554C117.088 103.092 120.138 100.222 120.138 90.7903V54.0388Z" fill="url(#paint2_linear_3_11445)"/>
<path d="M157.85 116.111V28H170.843V116.111H157.85Z" fill="url(#paint3_linear_3_11445)"/>
<path d="M186.35 116.111V103.092H204.367C210.851 103.092 213.619 101.221 213.619 97.3384V28H227.778V97.3384C227.778 108.231 220.961 116.111 204.367 116.111H186.35Z" fill="url(#paint4_linear_3_11445)"/>
<path d="M274.512 63.8033L302.704 28H319.516L286.199 69.0059L319.388 116.06L303.126 116.111L274.82 76.8098H265.234V116.111H251.139V28H265.234V63.8033H274.512Z" fill="url(#paint5_linear_3_11445)"/>
<path d="M386.855 76.0666V103.092H448.364V116.111H372.695V28H448.377V41.0194H386.868V63.0472H445.199V76.0666H386.855Z" fill="url(#paint6_linear_3_11445)"/>
<path d="M561.335 28V116.111H554.377L477.35 47.5291V116.111H465.01V28H477.235L548.995 93.4557V28H561.335Z" fill="url(#paint7_linear_3_11445)"/>
<path d="M120.394 283.749L146.356 351.332L178.545 283.749H192.27L151.776 371.86H141.089L115.127 304.278L88.64 371.86H78.3116L37.9336 283.749H51.5424L83.5783 351.332L109.861 283.749H120.394Z" fill="url(#paint8_linear_3_11445)"/>
<path d="M430.821 371.86L413.265 338.466H373.784V371.86H359.688V283.749H423.312C440.342 283.749 446.826 292.386 446.826 305.021V317.194C446.826 328.586 441.611 336.724 428.309 338.223L445.98 371.86H430.821ZM432.628 304.893C432.628 299.639 429.642 296.756 423.26 296.756H373.784V325.46H423.26C429.668 325.46 432.628 322.577 432.628 317.323V304.893Z" fill="url(#paint9_linear_3_11445)"/>
<path d="M465.01 371.86V283.749H533.631C554.8 283.749 561.297 292.386 561.297 309.775V346.706C561.297 363.224 554.8 371.86 533.631 371.86H465.01ZM547.15 309.775C547.15 299.639 544.164 296.756 533.631 296.756H479.157V358.841H533.631C544.164 358.841 547.15 355.958 547.15 346.578V309.775Z" fill="url(#paint10_linear_3_11445)"/>
<path d="M229.637 283.749H219.103L178.751 371.86H192.027L224.421 304.278L251.908 362.544L258.495 348.154L229.637 283.749Z" fill="url(#paint11_linear_3_11445)"/>
<path d="M308.291 283.749L347.759 371.86H334.945L303.076 304.278L270.668 371.86H257.393L297.758 283.749H308.291Z" fill="url(#paint12_linear_3_11445)"/>
</g>
<defs>
<linearGradient id="paint0_linear_3_11445" x1="30.9241" y1="224.38" x2="555.236" y2="224.38" gradientUnits="userSpaceOnUse">
<stop offset="0.28" stop-color="#0068A3"/>
<stop offset="0.36" stop-color="#1D778C"/>
<stop offset="0.63" stop-color="#79A841"/>
<stop offset="0.82" stop-color="#B3C612"/>
<stop offset="0.91" stop-color="#CAD200"/>
</linearGradient>
<linearGradient id="paint1_linear_3_11445" x1="30.9241" y1="158.565" x2="555.236" y2="158.565" gradientUnits="userSpaceOnUse">
<stop offset="0.28" stop-color="#0068A3"/>
<stop offset="0.36" stop-color="#1D778C"/>
<stop offset="0.63" stop-color="#79A841"/>
<stop offset="0.82" stop-color="#B3C612"/>
<stop offset="0.91" stop-color="#CAD200"/>
</linearGradient>
<linearGradient id="paint2_linear_3_11445" x1="30.9241" y1="72.0557" x2="555.236" y2="72.0557" gradientUnits="userSpaceOnUse">
<stop offset="0.28" stop-color="#0068A3"/>
<stop offset="0.36" stop-color="#1D778C"/>
<stop offset="0.63" stop-color="#79A841"/>
<stop offset="0.82" stop-color="#B3C612"/>
<stop offset="0.91" stop-color="#CAD200"/>
</linearGradient>
<linearGradient id="paint3_linear_3_11445" x1="41.3416" y1="72.0557" x2="522.623" y2="72.0557" gradientUnits="userSpaceOnUse">
<stop offset="0.28" stop-color="#0068A3"/>
<stop offset="0.36" stop-color="#1D778C"/>
<stop offset="0.63" stop-color="#79A841"/>
<stop offset="0.82" stop-color="#B3C612"/>
<stop offset="0.91" stop-color="#CAD200"/>
</linearGradient>
<linearGradient id="paint4_linear_3_11445" x1="42.201" y1="72.0557" x2="536.489" y2="72.0557" gradientUnits="userSpaceOnUse">
<stop offset="0.28" stop-color="#0068A3"/>
<stop offset="0.36" stop-color="#1D778C"/>
<stop offset="0.63" stop-color="#79A841"/>
<stop offset="0.82" stop-color="#B3C612"/>
<stop offset="0.91" stop-color="#CAD200"/>
</linearGradient>
<linearGradient id="paint5_linear_3_11445" x1="30.9241" y1="72.0557" x2="555.236" y2="72.0557" gradientUnits="userSpaceOnUse">
<stop offset="0.28" stop-color="#0068A3"/>
<stop offset="0.36" stop-color="#1D778C"/>
<stop offset="0.63" stop-color="#79A841"/>
<stop offset="0.82" stop-color="#B3C612"/>
<stop offset="0.91" stop-color="#CAD200"/>
</linearGradient>
<linearGradient id="paint6_linear_3_11445" x1="30.9238" y1="72.0557" x2="555.236" y2="72.0557" gradientUnits="userSpaceOnUse">
<stop offset="0.28" stop-color="#0068A3"/>
<stop offset="0.36" stop-color="#1D778C"/>
<stop offset="0.63" stop-color="#79A841"/>
<stop offset="0.82" stop-color="#B3C612"/>
<stop offset="0.91" stop-color="#CAD200"/>
</linearGradient>
<linearGradient id="paint7_linear_3_11445" x1="30.9237" y1="72.0557" x2="555.236" y2="72.0557" gradientUnits="userSpaceOnUse">
<stop offset="0.28" stop-color="#0068A3"/>
<stop offset="0.36" stop-color="#1D778C"/>
<stop offset="0.63" stop-color="#79A841"/>
<stop offset="0.82" stop-color="#B3C612"/>
<stop offset="0.91" stop-color="#CAD200"/>
</linearGradient>
<linearGradient id="paint8_linear_3_11445" x1="30.9241" y1="327.805" x2="555.236" y2="327.805" gradientUnits="userSpaceOnUse">
<stop offset="0.28" stop-color="#0068A3"/>
<stop offset="0.36" stop-color="#1D778C"/>
<stop offset="0.63" stop-color="#79A841"/>
<stop offset="0.82" stop-color="#B3C612"/>
<stop offset="0.91" stop-color="#CAD200"/>
</linearGradient>
<linearGradient id="paint9_linear_3_11445" x1="30.9236" y1="327.805" x2="555.235" y2="327.805" gradientUnits="userSpaceOnUse">
<stop offset="0.28" stop-color="#0068A3"/>
<stop offset="0.36" stop-color="#1D778C"/>
<stop offset="0.63" stop-color="#79A841"/>
<stop offset="0.82" stop-color="#B3C612"/>
<stop offset="0.91" stop-color="#CAD200"/>
</linearGradient>
<linearGradient id="paint10_linear_3_11445" x1="30.9237" y1="327.805" x2="555.236" y2="327.805" gradientUnits="userSpaceOnUse">
<stop offset="0.28" stop-color="#0068A3"/>
<stop offset="0.36" stop-color="#1D778C"/>
<stop offset="0.63" stop-color="#79A841"/>
<stop offset="0.82" stop-color="#B3C612"/>
<stop offset="0.91" stop-color="#CAD200"/>
</linearGradient>
<linearGradient id="paint11_linear_3_11445" x1="30.9247" y1="327.805" x2="555.236" y2="327.805" gradientUnits="userSpaceOnUse">
<stop offset="0.28" stop-color="#0068A3"/>
<stop offset="0.36" stop-color="#1D778C"/>
<stop offset="0.63" stop-color="#79A841"/>
<stop offset="0.82" stop-color="#B3C612"/>
<stop offset="0.91" stop-color="#CAD200"/>
</linearGradient>
<linearGradient id="paint12_linear_3_11445" x1="30.9246" y1="327.805" x2="555.236" y2="327.805" gradientUnits="userSpaceOnUse">
<stop offset="0.28" stop-color="#0068A3"/>
<stop offset="0.36" stop-color="#1D778C"/>
<stop offset="0.63" stop-color="#79A841"/>
<stop offset="0.82" stop-color="#B3C612"/>
<stop offset="0.91" stop-color="#CAD200"/>
</linearGradient>
<clipPath id="clip0_3_11445">
<rect width="600" height="400" fill="white"/>
</clipPath>
</defs>
</svg>
