<svg width="600" height="400" viewBox="0 0 600 400" fill="none" xmlns="http://www.w3.org/2000/svg" xmlns:cgf="https://coding.garden/flags"><metadata id="cgf-metadata">

<cgf:flag>
  <cgf:name>Drechterland</cgf:name>
  <cgf:route>nl/nh/drechterland</cgf:route>
  <cgf:aspect-ratio>1.5</cgf:aspect-ratio>
</cgf:flag>

</metadata><g clip-path="url(#clip0_1_6154)">
<path d="M600 0H0V400H600V0Z" fill="#078930"/>
<path d="M0 0V138.249L397.546 400H600V261.751L202.454 0H0Z" fill="#FCDD09"/>
<path d="M30.5105 228.376C24.5891 224.361 12.9503 205.856 13.8534 204.52C14.7564 203.185 36.3046 207.186 42.1546 211.153L222.705 333.593C219.612 339.465 215.955 345.244 211.061 350.816L30.5105 228.376Z" fill="white"/>
<path d="M217.435 343.117L37.3828 220.597" stroke="#008833" stroke-width="1.713" stroke-linecap="round"/>
<path d="M231.111 316.648C224.409 334.841 214.307 350.686 199.336 363.166L212.703 372.702C219.696 354.71 229.886 338.926 244.66 326.311L231.111 316.648Z" fill="#FFD500" stroke="#008833" stroke-width="1.645"/>
<path d="M220.422 356.413L254.554 379.998L265.585 363.594L231.475 340.368C226.431 345.191 223.033 349.908 220.422 356.413V356.413Z" fill="#FFD500" stroke="#008833" stroke-width="1.645"/>
<path d="M223.952 348.941L239.441 345.229Z" fill="#FFD500"/>
<path d="M223.952 348.941L239.441 345.229" stroke="#008833" stroke-width="1.645"/>
<path d="M224.759 359.089L252.965 350.83Z" fill="#FFD500"/>
<path d="M224.759 359.089L252.965 350.83" stroke="#008833" stroke-width="1.645"/>
<path d="M235.483 366.639L258.83 358.938Z" fill="#FFD500"/>
<path d="M235.483 366.639L258.83 358.938" stroke="#008833" stroke-width="1.645"/>
<path d="M242.008 372.702L264.362 366.319Z" fill="#FFD500"/>
<path d="M242.008 372.702L264.362 366.319" stroke="#008833" stroke-width="1.645"/>
<path d="M252.396 383.912L268.431 359.854L274.594 363.813C279.584 376.949 271.657 389.005 258.237 387.948L252.396 383.912Z" fill="#FFD500" stroke="#008833" stroke-width="1.645"/>
<path d="M271.196 378.158C273 374.418 273.106 370.248 271.242 365.576Z" fill="#FFD500"/>
<path d="M271.196 378.158C273 374.418 273.106 370.248 271.242 365.576" stroke="#008833" stroke-width="1.645" stroke-linecap="round"/>
<path d="M390.184 0H600V138.249L390.184 0Z" fill="#FCDD0C"/>
<path d="M0 0H202.454L600 261.751V400L0 0Z" fill="white"/>
<path d="M528.924 136.188C536.317 131.196 538.556 118.474 536.028 107.946C534.355 108.102 533.762 108.588 532.972 109.592C533.262 107.181 531.758 106.441 528.924 103.563C526.09 106.441 524.586 107.181 524.876 109.592C524.086 108.588 523.494 108.102 521.821 107.946C519.293 118.474 521.531 131.196 528.924 136.188Z" fill="#FFD500" stroke="#008833" stroke-width="1.093"/>
<path d="M519.866 164.108C510.955 163.795 501.677 172.77 497.544 182.775C498.989 183.633 499.754 183.589 500.982 183.242C499.332 185.022 500.115 186.506 500.718 190.503C504.7 189.843 506.351 190.13 507.531 188.008C507.582 189.285 507.776 190.027 509.038 191.138C517.261 184.11 522.917 172.499 519.866 164.108Z" fill="#FFD500" stroke="#008833" stroke-width="1.093"/>
<path d="M537.982 164.108C534.931 172.499 540.586 184.11 548.81 191.138C550.072 190.027 550.266 189.285 550.316 188.008C551.496 190.13 553.147 189.843 557.129 190.503C557.733 186.506 558.516 185.022 556.866 183.242C558.094 183.589 558.859 183.633 560.304 182.775C556.17 172.77 546.893 163.795 537.982 164.108V164.108Z" fill="#FFD500" stroke="#008833" stroke-width="1.093"/>
<path d="M514.268 146.853C511.812 138.268 500.423 132.204 489.644 131.359C489.276 133.001 489.554 133.716 490.263 134.778C488.063 133.757 486.896 134.961 483.287 136.771C485.144 140.36 485.382 142.021 487.761 142.49C486.564 142.932 485.919 143.347 485.254 144.892C494.47 150.553 507.243 152.352 514.268 146.853Z" fill="#FFD500" stroke="#008833" stroke-width="1.093"/>
<path d="M543.58 146.853C550.605 152.352 563.378 150.553 572.594 144.892C571.928 143.347 571.284 142.932 570.087 142.49C572.466 142.021 572.704 140.36 574.561 136.771C570.952 134.961 569.785 133.757 567.585 134.778C568.294 133.716 568.572 133.001 568.203 131.359C557.425 132.204 546.036 138.268 543.58 146.853V146.853Z" fill="#FFD500" stroke="#008833" stroke-width="1.093"/>
<path d="M565.651 142.924C571.913 147.338 568.362 157.094 566.055 164.401C563.748 171.707 561.051 181.749 553.463 181.531C545.69 181.308 549.207 169.812 541.942 170.426C539.129 177.348 550.839 177.458 548.643 185.136C546.499 192.63 536.387 192.168 528.923 192.168C521.458 192.168 511.346 192.63 509.202 185.136C507.006 177.458 518.716 177.348 515.904 170.426C508.639 169.812 512.156 181.308 504.382 181.531C496.795 181.749 494.097 171.708 491.79 164.401C489.484 157.094 485.932 147.338 492.194 142.924C498.61 138.401 502.331 149.83 507.858 144.938C506.18 137.637 496.643 144.632 494.035 137.092C491.49 129.732 499.935 123.988 505.974 119.472C512.013 114.956 519.93 108.465 525.944 113.231C532.105 118.114 522.694 125.287 528.923 129.186C535.151 125.287 525.74 118.114 531.902 113.231C537.916 108.465 545.833 114.956 551.872 119.472C557.911 123.988 566.355 129.732 563.81 137.092C561.202 144.632 551.665 137.637 549.988 144.938C555.515 149.83 559.235 138.401 565.651 142.924V142.924Z" fill="#FCDD0C" stroke="#008833" stroke-width="1.093"/>
<path d="M517.725 189.468C517.467 189.467 517.205 189.469 516.929 189.451C515.095 189.33 513.603 188.559 512.169 187.483C511.19 186.747 510.475 185.447 510.475 185.447C511.773 185.566 512.665 188.134 516.98 188.314C518.852 188.392 520.73 188.184 522.688 187.313C524.646 186.442 526.68 186.075 528.802 186.075C530.925 186.075 532.976 186.442 534.934 187.313C536.892 188.184 538.77 188.392 540.642 188.314C544.957 188.134 545.832 185.566 547.129 185.447C547.129 185.447 546.432 186.747 545.453 187.483C544.019 188.559 542.527 189.33 540.693 189.451C538.484 189.596 536.918 189.172 534.951 188.297C532.984 187.422 530.605 186.855 528.802 186.855C527 186.855 524.638 187.422 522.671 188.297C520.95 189.063 519.532 189.474 517.725 189.468V189.468ZM554.159 180.375C554.67 179.141 557.3 179.063 558.8 174.895C559.45 173.087 559.83 171.178 559.63 168.992C559.43 166.806 559.736 164.708 560.392 162.63C561.048 160.553 562.014 158.663 563.424 157.015C564.834 155.368 565.593 153.596 566.1 151.739C567.267 147.46 565.182 145.803 565.473 144.496C565.474 144.496 566.468 145.583 566.845 146.769C567.397 148.505 567.639 150.212 567.184 152.045C566.636 154.252 565.755 155.649 564.339 157.304C562.922 158.959 561.677 161.103 561.12 162.868C560.563 164.633 560.344 167.136 560.544 169.331C560.745 171.527 560.65 173.186 559.833 175.303C559.155 177.061 558.001 178.286 556.564 179.357C555.582 180.089 554.159 180.375 554.159 180.375V180.375ZM503.615 180.154C503.615 180.154 502.21 179.868 501.227 179.136C499.79 178.066 498.62 176.84 497.941 175.082C497.124 172.965 497.029 171.289 497.23 169.094C497.43 166.898 497.211 164.412 496.654 162.647C496.097 160.883 494.852 158.738 493.436 157.083C492.019 155.428 491.138 154.014 490.59 151.807C490.135 149.974 490.377 148.284 490.929 146.548C491.306 145.362 492.301 144.275 492.301 144.275C492.592 145.582 490.507 147.24 491.674 151.519C492.181 153.375 492.94 155.147 494.35 156.795C495.76 158.442 496.726 160.332 497.382 162.41C498.038 164.487 498.344 166.585 498.144 168.771C497.945 170.957 498.324 172.866 498.974 174.675C500.474 178.843 503.105 178.921 503.615 180.154V180.154ZM562.95 136.065C561.968 135.183 562.712 132.578 559.325 129.822C557.855 128.626 556.223 127.655 554.142 127.175C552.06 126.695 550.201 125.762 548.485 124.478C546.768 123.194 545.32 121.668 544.233 119.779C543.146 117.89 541.744 116.574 540.185 115.504C536.591 113.04 534.426 114.564 533.308 113.875C533.308 113.875 534.619 113.267 535.832 113.265C537.606 113.261 539.242 113.542 540.795 114.554C542.665 115.773 543.7 117.067 544.792 118.965C545.884 120.862 547.466 122.743 548.925 123.833C550.383 124.924 552.627 125.896 554.718 126.378C556.809 126.86 558.316 127.486 560.019 128.94C561.434 130.147 562.218 131.646 562.763 133.384C563.136 134.572 562.95 136.064 562.95 136.065V136.065ZM495.079 135.929C495.079 135.929 494.893 134.436 495.265 133.248C495.81 131.511 496.594 129.994 498.009 128.787C499.713 127.333 501.22 126.724 503.311 126.242C505.401 125.76 507.645 124.788 509.103 123.698C510.562 122.607 512.145 120.71 513.236 118.812C514.328 116.914 515.364 115.637 517.234 114.418C518.787 113.406 520.422 113.109 522.197 113.112C523.409 113.114 524.72 113.74 524.72 113.74C523.603 114.429 521.437 112.904 517.843 115.368C516.285 116.438 514.882 117.737 513.795 119.626C512.709 121.516 511.261 123.041 509.544 124.325C507.827 125.609 505.968 126.56 503.887 127.04C501.805 127.519 500.174 128.491 498.703 129.686C495.316 132.442 496.061 135.048 495.079 135.929V135.929Z" fill="#078930"/>
<path d="M528.924 159.935C532.879 162.606 534.077 169.414 532.725 175.046C531.83 174.963 531.512 174.703 531.09 174.166C531.245 175.456 530.44 175.852 528.924 177.392C527.407 175.852 526.603 175.456 526.758 174.166C526.335 174.703 526.018 174.963 525.123 175.046C523.771 169.414 524.968 162.606 528.924 159.935Z" fill="#FFD500" stroke="#008833" stroke-width="0.793"/>
<path d="M524.077 144.996C519.309 145.164 514.345 140.362 512.134 135.009C512.907 134.55 513.316 134.573 513.973 134.759C513.091 133.807 513.509 133.013 513.832 130.874C515.963 131.227 516.846 131.074 517.478 132.209C517.504 131.526 517.609 131.129 518.284 130.534C522.684 134.295 525.71 140.507 524.077 144.996V144.996Z" fill="#FFD500" stroke="#008833" stroke-width="0.793"/>
<path d="M533.771 144.996C532.138 140.507 535.164 134.295 539.564 130.534C540.239 131.129 540.343 131.526 540.37 132.209C541.002 131.074 541.885 131.227 544.016 130.874C544.339 133.013 544.757 133.807 543.875 134.759C544.532 134.573 544.941 134.55 545.714 135.009C543.503 140.362 538.539 145.164 533.771 144.996V144.996Z" fill="#FFD500" stroke="#008833" stroke-width="0.793"/>
<path d="M521.082 154.229C519.768 158.822 513.674 162.067 507.907 162.519C507.71 161.641 507.859 161.258 508.238 160.69C507.061 161.236 506.437 160.592 504.506 159.623C505.499 157.703 505.627 156.814 506.9 156.564C506.259 156.327 505.914 156.105 505.558 155.278C510.489 152.249 517.323 151.287 521.082 154.229Z" fill="#FFD500" stroke="#008833" stroke-width="0.793"/>
<path d="M536.766 154.229C540.524 151.287 547.358 152.249 552.289 155.278C551.933 156.105 551.589 156.327 550.948 156.564C552.221 156.814 552.348 157.703 553.342 159.623C551.411 160.592 550.786 161.236 549.61 160.69C549.989 161.258 550.138 161.641 549.94 162.519C544.174 162.067 538.08 158.822 536.766 154.229V154.229Z" fill="#FFD500" stroke="#008833" stroke-width="0.793"/>
<path d="M548.511 156.636C551.851 154.282 549.957 149.079 548.727 145.182C547.497 141.285 546.058 135.93 542.011 136.046C537.865 136.165 539.741 142.296 535.866 141.969C534.366 138.277 540.612 138.218 539.44 134.123C538.297 130.126 532.904 130.373 528.923 130.373C524.942 130.373 519.549 130.126 518.405 134.123C517.234 138.218 523.479 138.277 521.98 141.969C518.105 142.296 519.98 136.165 515.835 136.046C511.788 135.93 510.349 141.285 509.119 145.182C507.889 149.079 505.995 154.282 509.334 156.636C512.756 159.048 514.741 152.953 517.688 155.562C516.793 159.456 511.707 155.725 510.316 159.747C508.959 163.672 513.463 166.736 516.683 169.144C519.904 171.553 524.127 175.015 527.334 172.473C530.62 169.868 525.601 166.043 528.923 163.963C532.245 166.043 527.226 169.868 530.512 172.473C533.719 175.015 537.942 171.553 541.162 169.144C544.383 166.736 548.887 163.672 547.529 159.747C546.139 155.725 541.052 159.456 540.158 155.562C543.105 152.953 545.09 159.048 548.511 156.636V156.636Z" fill="#FFD500" stroke="#008833" stroke-width="0.793"/>
<path d="M522.951 131.813C522.813 131.813 522.673 131.812 522.526 131.822C521.548 131.886 520.752 132.298 519.988 132.872C519.465 133.264 519.084 133.957 519.084 133.957C519.776 133.894 520.252 132.524 522.553 132.428C523.552 132.387 524.553 132.498 525.598 132.962C526.642 133.427 527.727 133.623 528.859 133.623C529.991 133.623 531.085 133.427 532.129 132.962C533.173 132.498 534.175 132.387 535.173 132.428C537.474 132.524 537.941 133.894 538.633 133.957C538.633 133.957 538.261 133.264 537.739 132.872C536.974 132.298 536.179 131.886 535.2 131.822C534.022 131.745 533.187 131.971 532.138 132.437C531.089 132.904 529.82 133.206 528.859 133.206C527.897 133.206 526.638 132.904 525.589 132.437C524.671 132.029 523.915 131.81 522.951 131.813V131.813ZM542.382 136.663C542.654 137.32 544.057 137.362 544.857 139.585C545.204 140.549 545.407 141.568 545.3 142.733C545.193 143.899 545.357 145.018 545.706 146.126C546.056 147.234 546.571 148.242 547.323 149.121C548.075 150 548.481 150.945 548.751 151.935C549.373 154.217 548.261 155.101 548.417 155.798C548.417 155.798 548.947 155.218 549.148 154.586C549.442 153.66 549.572 152.749 549.329 151.772C549.037 150.595 548.567 149.85 547.811 148.967C547.056 148.085 546.392 146.941 546.095 146C545.798 145.058 545.681 143.724 545.788 142.553C545.895 141.381 545.844 140.497 545.408 139.368C545.047 138.43 544.431 137.776 543.665 137.205C543.141 136.815 542.382 136.663 542.382 136.663V136.663ZM515.426 136.78C515.426 136.78 514.676 136.933 514.152 137.323C513.385 137.894 512.761 138.548 512.399 139.485C511.964 140.614 511.913 141.508 512.02 142.679C512.127 143.85 512.01 145.176 511.713 146.117C511.416 147.058 510.752 148.202 509.996 149.085C509.241 149.967 508.771 150.722 508.479 151.899C508.236 152.876 508.365 153.778 508.659 154.703C508.861 155.336 509.391 155.916 509.391 155.916C509.547 155.219 508.435 154.335 509.057 152.052C509.327 151.062 509.732 150.117 510.484 149.239C511.236 148.36 511.752 147.352 512.101 146.244C512.451 145.136 512.614 144.017 512.508 142.851C512.401 141.685 512.604 140.667 512.95 139.703C513.75 137.48 515.153 137.438 515.426 136.78ZM547.071 160.295C546.547 160.765 546.944 162.154 545.137 163.624C544.353 164.262 543.483 164.78 542.373 165.036C541.263 165.292 540.271 165.789 539.356 166.474C538.44 167.159 537.668 167.973 537.088 168.98C536.509 169.988 535.761 170.69 534.929 171.26C533.013 172.575 531.858 171.761 531.262 172.129C531.262 172.129 531.961 172.453 532.608 172.455C533.554 172.456 534.426 172.307 535.255 171.767C536.252 171.117 536.804 170.427 537.386 169.415C537.969 168.402 538.813 167.4 539.591 166.818C540.369 166.236 541.565 165.718 542.68 165.461C543.795 165.204 544.599 164.87 545.508 164.095C546.262 163.451 546.68 162.651 546.971 161.724C547.17 161.091 547.071 160.295 547.071 160.295V160.295ZM510.873 160.367C510.873 160.367 510.773 161.163 510.972 161.797C511.263 162.723 511.681 163.532 512.436 164.176C513.344 164.951 514.148 165.276 515.263 165.533C516.378 165.79 517.575 166.309 518.353 166.89C519.13 167.472 519.975 168.484 520.557 169.496C521.139 170.508 521.691 171.189 522.689 171.839C523.517 172.379 524.389 172.538 525.336 172.536C525.982 172.535 526.682 172.201 526.682 172.201C526.086 171.834 524.93 172.647 523.014 171.333C522.183 170.762 521.434 170.069 520.855 169.062C520.275 168.054 519.503 167.24 518.587 166.556C517.672 165.871 516.68 165.364 515.57 165.108C514.46 164.852 513.59 164.334 512.806 163.697C510.999 162.227 511.396 160.837 510.873 160.367V160.367Z" fill="#078930"/>
<path d="M531.196 142.544C530.076 140.95 527.599 141.854 525.744 142.441C523.889 143.029 521.34 143.716 521.395 145.648C521.452 147.627 524.37 146.732 524.214 148.582C522.457 149.298 522.429 146.316 520.48 146.875C518.578 147.421 518.695 149.996 518.695 151.897C518.695 153.798 518.578 156.373 520.48 156.919C522.429 157.478 522.457 154.496 524.214 155.212C524.37 157.062 521.452 156.167 521.395 158.146C521.34 160.078 523.889 160.765 525.744 161.353C527.599 161.94 530.076 162.844 531.196 161.25C532.344 159.616 529.443 158.668 530.685 157.261C532.538 157.688 530.763 160.117 532.677 160.781C534.545 161.429 536.003 159.279 537.15 157.741C538.296 156.203 539.944 154.187 538.734 152.656C537.495 151.087 535.673 153.483 534.684 151.897C535.673 150.311 537.495 152.707 538.734 151.138C539.944 149.607 538.296 147.591 537.15 146.053C536.003 144.515 534.545 142.365 532.677 143.013C530.763 143.677 532.538 146.106 530.685 146.533C529.443 145.125 532.344 144.178 531.196 142.544V142.544Z" fill="#FFD500" stroke="#008833" stroke-width="0.493"/>
<path d="M519.226 154.885C519.227 154.95 519.226 155.017 519.231 155.087C519.261 155.554 519.457 155.934 519.73 156.299C519.917 156.549 520.247 156.731 520.247 156.731C520.217 156.4 519.565 156.173 519.519 155.074C519.5 154.598 519.552 154.119 519.773 153.621C519.995 153.122 520.088 152.604 520.088 152.064C520.088 151.523 519.995 151.001 519.773 150.502C519.552 150.004 519.5 149.526 519.519 149.049C519.565 147.95 520.217 147.727 520.247 147.397C520.247 147.397 519.917 147.574 519.73 147.824C519.457 148.189 519.261 148.569 519.231 149.036C519.194 149.598 519.301 149.997 519.524 150.498C519.746 150.999 519.89 151.605 519.89 152.064C519.89 152.523 519.746 153.124 519.524 153.625C519.329 154.063 519.225 154.424 519.226 154.885H519.226ZM521.535 145.607C521.848 145.477 521.868 144.807 522.926 144.425C523.385 144.26 523.87 144.163 524.425 144.214C524.979 144.265 525.512 144.187 526.04 144.02C526.567 143.853 527.047 143.607 527.465 143.248C527.883 142.889 528.333 142.695 528.804 142.566C529.891 142.269 530.311 142.8 530.643 142.726C530.643 142.726 530.367 142.472 530.066 142.376C529.626 142.236 529.192 142.174 528.727 142.29C528.167 142.43 527.812 142.654 527.392 143.015C526.972 143.375 526.427 143.692 525.979 143.834C525.531 143.976 524.896 144.032 524.338 143.981C523.781 143.93 523.36 143.954 522.822 144.162C522.376 144.335 522.065 144.628 521.793 144.994C521.607 145.245 521.535 145.607 521.535 145.607ZM521.591 158.478C521.591 158.478 521.663 158.836 521.849 159.086C522.121 159.452 522.432 159.75 522.878 159.922C523.416 160.13 523.841 160.155 524.399 160.104C524.956 160.053 525.587 160.108 526.035 160.25C526.483 160.392 527.028 160.709 527.448 161.07C527.868 161.43 528.227 161.655 528.787 161.794C529.252 161.91 529.682 161.849 530.122 161.708C530.423 161.612 530.699 161.359 530.699 161.359C530.367 161.285 529.947 161.815 528.86 161.518C528.389 161.389 527.939 161.196 527.521 160.837C527.103 160.478 526.623 160.232 526.095 160.065C525.568 159.898 525.035 159.82 524.481 159.871C523.926 159.922 523.441 159.825 522.982 159.659C521.924 159.277 521.904 158.608 521.591 158.478V158.478ZM532.784 143.368C533.007 143.618 533.669 143.429 534.368 144.291C534.672 144.666 534.918 145.081 535.04 145.611C535.162 146.141 535.399 146.615 535.725 147.052C536.051 147.489 536.438 147.858 536.918 148.134C537.398 148.411 537.732 148.768 538.003 149.165C538.629 150.08 538.242 150.632 538.417 150.916C538.417 150.916 538.571 150.583 538.572 150.274C538.572 149.822 538.501 149.405 538.244 149.01C537.935 148.534 537.606 148.27 537.125 147.992C536.643 147.714 536.166 147.311 535.889 146.94C535.612 146.568 535.365 145.997 535.243 145.465C535.12 144.932 534.961 144.548 534.592 144.115C534.286 143.754 533.905 143.555 533.464 143.416C533.163 143.321 532.784 143.368 532.784 143.368V143.368ZM532.818 160.651C532.818 160.651 533.197 160.699 533.499 160.604C533.94 160.465 534.325 160.266 534.631 159.905C535 159.471 535.155 159.088 535.277 158.555C535.4 158.023 535.646 157.451 535.923 157.08C536.2 156.709 536.682 156.306 537.163 156.028C537.645 155.75 537.97 155.486 538.279 155.01C538.536 154.614 538.611 154.198 538.61 153.746C538.61 153.437 538.451 153.103 538.451 153.103C538.276 153.388 538.663 153.939 538.038 154.854C537.766 155.251 537.436 155.609 536.957 155.885C536.477 156.162 536.09 156.531 535.764 156.968C535.438 157.405 535.197 157.878 535.075 158.409C534.953 158.939 534.706 159.354 534.403 159.728C533.703 160.591 533.042 160.401 532.818 160.651V160.651Z" fill="#078930"/>
<path d="M524.728 151.902C524.301 152.721 524.599 153.171 525.057 153.535C525.09 154.085 524.99 154.645 525.956 154.872C526.148 155.651 526.592 155.977 527.293 155.775C527.663 156.339 528.186 156.529 528.936 156.107C529.884 156.535 530.283 156.087 530.583 155.776C531.193 155.876 531.694 155.705 531.926 154.873C532.766 154.664 532.822 154.116 532.831 153.536C533.269 153.154 533.49 152.658 533.163 151.902C533.488 151.207 533.317 150.674 532.831 150.269C532.98 149.506 532.537 149.149 531.926 148.932C531.622 148.13 531.136 147.988 530.583 148.029C530.055 147.471 529.499 147.357 528.936 147.698C528.284 147.357 527.696 147.308 527.293 148.029C526.493 148.014 526.077 148.352 525.956 148.932C525.473 149.155 524.929 149.241 525.057 150.269C524.699 150.637 524.342 150.967 524.728 151.902V151.902Z" fill="#FFD500" stroke="#008833" stroke-width="1.093"/>
<path d="M209.816 400H0V261.751L209.816 400Z" fill="white"/>
<path d="M408.538 57.3904C415.931 52.3983 418.17 39.6761 415.642 29.1486C413.969 29.3048 413.376 29.7906 412.586 30.7941C412.877 28.3833 411.373 27.6433 408.538 24.7654C405.704 27.6433 404.2 28.3833 404.491 30.7941C403.701 29.7906 403.108 29.3048 401.435 29.1486C398.907 39.6761 401.146 52.3983 408.538 57.3904Z" fill="#FFD500" stroke="#008833" stroke-width="1.093"/>
<path d="M399.48 85.3109C390.569 84.9975 381.292 93.9721 377.158 103.977C378.603 104.836 379.368 104.792 380.596 104.445C378.946 106.224 379.729 107.708 380.333 111.705C384.315 111.045 385.966 111.332 387.146 109.211C387.196 110.488 387.39 111.23 388.652 112.341C396.876 105.312 402.531 93.7017 399.48 85.3109Z" fill="#FFD500" stroke="#008833" stroke-width="1.093"/>
<path d="M417.596 85.3109C414.545 93.7017 420.201 105.312 428.424 112.341C429.686 111.23 429.88 110.488 429.93 109.211C431.111 111.332 432.762 111.045 436.743 111.705C437.347 107.708 438.13 106.224 436.48 104.445C437.708 104.792 438.473 104.836 439.918 103.977C435.785 93.9721 426.507 84.9975 417.596 85.3109V85.3109Z" fill="#FFD500" stroke="#008833" stroke-width="1.093"/>
<path d="M393.882 68.0551C391.426 59.4706 380.037 53.4069 369.259 52.5616C368.89 54.2033 369.168 54.9181 369.877 55.9807C367.677 54.9593 366.51 56.1632 362.901 57.9734C364.758 61.5623 364.996 63.2236 367.375 63.6921C366.178 64.1345 365.534 64.549 364.868 66.0942C374.084 71.7552 386.857 73.5544 393.882 68.0551Z" fill="#FFD500" stroke="#008833" stroke-width="1.093"/>
<path d="M423.194 68.0551C430.219 73.5544 442.992 71.7552 452.208 66.0942C451.543 64.549 450.898 64.1345 449.701 63.6921C452.08 63.2236 452.318 61.5623 454.175 57.9734C450.566 56.1632 449.399 54.9592 447.199 55.9807C447.908 54.9181 448.186 54.2033 447.818 52.5616C437.04 53.4069 425.65 59.4706 423.194 68.0551V68.0551Z" fill="#FFD500" stroke="#008833" stroke-width="1.093"/>
<path d="M445.265 64.1262C451.528 68.5404 447.976 78.296 445.669 85.603C443.363 92.9099 440.665 102.951 433.078 102.734C425.304 102.511 428.821 91.0142 421.556 91.628C418.744 98.55 430.454 98.6601 428.257 106.338C426.114 113.832 416.002 113.37 408.537 113.37C401.072 113.37 390.96 113.832 388.817 106.338C386.62 98.6601 398.33 98.55 395.518 91.628C388.253 91.0142 391.77 102.511 383.996 102.734C376.409 102.951 373.711 92.9099 371.404 85.603C369.098 78.296 365.546 68.5404 371.808 64.1262C378.225 59.6036 381.945 71.0323 387.472 66.1404C385.794 58.839 376.258 65.8343 373.65 58.2939C371.104 50.9341 379.549 45.1904 385.588 40.6744C391.627 36.1585 399.544 29.6672 405.558 34.4332C411.719 39.3162 402.309 46.4895 408.537 50.3882C414.765 46.4896 405.354 39.3162 411.516 34.4332C417.53 29.6672 425.447 36.1585 431.486 40.6744C437.525 45.1904 445.97 50.9341 443.424 58.2939C440.816 65.8343 431.28 58.839 429.602 66.1404C435.129 71.0323 438.849 59.6036 445.265 64.1262V64.1262Z" fill="#FCDD0C" stroke="#008833" stroke-width="1.093"/>
<path d="M397.339 110.67C397.081 110.669 396.819 110.671 396.543 110.653C394.709 110.532 393.217 109.761 391.783 108.685C390.804 107.95 390.09 106.65 390.09 106.65C391.387 106.768 392.279 109.336 396.594 109.516C398.466 109.594 400.344 109.387 402.302 108.516C404.26 107.644 406.294 107.277 408.417 107.277C410.539 107.277 412.59 107.644 414.548 108.516C416.506 109.387 418.384 109.594 420.256 109.516C424.571 109.336 425.446 106.768 426.744 106.65C426.744 106.65 426.046 107.95 425.067 108.685C423.633 109.761 422.141 110.532 420.307 110.653C418.099 110.799 416.532 110.375 414.565 109.5C412.598 108.625 410.219 108.058 408.417 108.058C406.614 108.058 404.252 108.625 402.285 109.5C400.564 110.265 399.147 110.676 397.339 110.67V110.67ZM433.773 101.577C434.284 100.344 436.914 100.266 438.414 96.0979C439.064 94.2894 439.444 92.3801 439.244 90.1943C439.044 88.0084 439.35 85.9102 440.006 83.8328C440.662 81.7554 441.628 79.8652 443.038 78.2177C444.448 76.5702 445.208 74.7983 445.714 72.9418C446.881 68.6628 444.796 67.0051 445.088 65.6982C445.088 65.6982 446.083 66.7851 446.46 67.9714C447.011 69.7071 447.254 71.4144 446.798 73.2472C446.25 75.4541 445.369 76.8511 443.953 78.5061C442.537 80.161 441.292 82.3056 440.735 84.0703C440.178 85.835 439.958 88.338 440.159 90.5336C440.359 92.7293 440.264 94.388 439.447 96.505C438.769 98.2632 437.616 99.4888 436.178 100.559C435.196 101.291 433.773 101.577 433.773 101.577V101.577ZM383.23 101.357C383.23 101.357 381.824 101.07 380.841 100.339C379.404 99.2683 378.234 98.0426 377.555 96.2845C376.739 94.1675 376.643 92.4918 376.844 90.2961C377.045 88.1005 376.825 85.6144 376.268 83.8498C375.711 82.0851 374.466 79.9405 373.05 78.2855C371.634 76.6306 370.752 75.2166 370.204 73.0097C369.749 71.1769 369.992 69.4865 370.543 67.7508C370.92 66.5646 371.915 65.4776 371.915 65.4776C372.206 66.7846 370.122 68.4422 371.288 72.7213C371.795 74.5778 372.555 76.3497 373.965 77.9971C375.375 79.6447 376.341 81.5349 376.997 83.6123C377.652 85.6896 377.959 87.7879 377.759 89.9738C377.559 92.1596 377.938 94.0688 378.589 95.8773C380.089 100.045 382.719 100.123 383.23 101.357V101.357ZM442.564 57.267C441.582 56.3859 442.327 53.7802 438.939 51.0242C437.469 49.8288 435.838 48.8577 433.756 48.3778C431.674 47.8979 429.816 46.9644 428.099 45.6805C426.382 44.3966 424.934 42.8708 423.847 40.9814C422.761 39.0922 421.358 37.7762 419.799 36.7065C416.206 34.2421 414.04 35.7669 412.922 35.0779C412.922 35.0778 414.233 34.4697 415.446 34.4672C417.22 34.4639 418.856 34.7445 420.409 35.7565C422.279 36.975 423.315 38.2693 424.406 40.1672C425.498 42.0649 427.081 43.9452 428.539 45.0359C429.998 46.1265 432.241 47.0984 434.332 47.5805C436.423 48.0625 437.93 48.6882 439.634 50.1421C441.049 51.3493 441.832 52.8488 442.378 54.5867C442.75 55.7744 442.564 57.2669 442.564 57.267V57.267ZM374.693 57.1313C374.693 57.1312 374.507 55.6387 374.879 54.4509C375.424 52.7131 376.208 51.1967 377.623 49.9894C379.327 48.5356 380.834 47.9268 382.925 47.4448C385.016 46.9627 387.259 45.9908 388.718 44.9002C390.176 43.8095 391.759 41.9122 392.851 40.0145C393.942 38.1167 394.978 36.8393 396.848 35.6208C398.401 34.6087 400.037 34.3111 401.811 34.3145C403.023 34.3168 404.335 34.9421 404.335 34.9422C403.217 35.6312 401.051 34.1064 397.458 36.5708C395.899 37.6405 394.496 38.9395 393.41 40.8288C392.323 42.7181 390.875 44.2439 389.158 45.5278C387.441 46.8117 385.582 47.7622 383.501 48.2421C381.419 48.7219 379.788 49.6931 378.318 50.8885C374.93 53.6445 375.675 56.2502 374.693 57.1313V57.1313Z" fill="#078930"/>
<path d="M408.538 81.1379C412.494 83.8089 413.691 90.616 412.339 96.2488C411.444 96.1652 411.127 95.9053 410.704 95.3683C410.859 96.6583 410.055 97.0542 408.538 98.594C407.022 97.0542 406.217 96.6583 406.372 95.3683C405.95 95.9053 405.632 96.1652 404.737 96.2488C403.385 90.616 404.583 83.8089 408.538 81.1379Z" fill="#FFD500" stroke="#008833" stroke-width="0.793"/>
<path d="M403.691 66.1989C398.924 66.3666 393.96 61.5647 391.748 56.2114C392.521 55.7521 392.93 55.7757 393.587 55.9612C392.705 55.0091 393.123 54.2151 393.447 52.0766C395.577 52.4297 396.46 52.2762 397.092 53.4112C397.119 52.728 397.223 52.331 397.898 51.7364C402.298 55.4972 405.324 61.7094 403.691 66.1989V66.1989Z" fill="#FFD500" stroke="#008833" stroke-width="0.793"/>
<path d="M413.385 66.1989C411.753 61.7094 414.779 55.4972 419.179 51.7364C419.854 52.331 419.958 52.728 419.985 53.4112C420.616 52.2762 421.499 52.4296 423.63 52.0766C423.953 54.2151 424.372 55.0091 423.489 55.9612C424.146 55.7757 424.555 55.7521 425.328 56.2114C423.117 61.5647 418.153 66.3666 413.385 66.1989V66.1989Z" fill="#FFD500" stroke="#008833" stroke-width="0.793"/>
<path d="M400.696 75.4317C399.382 80.0249 393.288 83.2692 387.522 83.7216C387.324 82.8431 387.473 82.4607 387.852 81.8921C386.676 82.4387 386.051 81.7945 384.12 80.8259C385.114 78.9057 385.241 78.0168 386.514 77.7661C385.873 77.5294 385.529 77.3077 385.173 76.4809C390.104 73.4519 396.938 72.4893 400.696 75.4317Z" fill="#FFD500" stroke="#008833" stroke-width="0.793"/>
<path d="M416.38 75.4317C420.139 72.4893 426.973 73.4519 431.904 76.4809C431.548 77.3077 431.203 77.5294 430.562 77.7661C431.835 78.0168 431.963 78.9057 432.956 80.8259C431.025 81.7945 430.401 82.4387 429.224 81.8921C429.603 82.4607 429.752 82.8431 429.555 83.7216C423.788 83.2692 417.694 80.0249 416.38 75.4317V75.4317Z" fill="#FFD500" stroke="#008833" stroke-width="0.793"/>
<path d="M428.126 77.8389C431.466 75.4846 429.571 70.2816 428.341 66.3846C427.111 62.4876 425.672 57.1323 421.626 57.2483C417.48 57.3671 419.355 63.4986 415.481 63.1712C413.981 59.4795 420.226 59.4208 419.055 55.3258C417.911 51.3289 412.518 51.5753 408.537 51.5753C404.556 51.5753 399.163 51.3289 398.02 55.3258C396.848 59.4208 403.094 59.4795 401.594 63.1712C397.719 63.4986 399.595 57.3671 395.449 57.2483C391.402 57.1323 389.963 62.4876 388.733 66.3846C387.503 70.2816 385.609 75.4846 388.949 77.8389C392.371 80.2509 394.355 74.1556 397.303 76.7646C396.408 80.6587 391.322 76.9279 389.931 80.9494C388.573 84.8746 393.077 87.938 396.298 90.3465C399.518 92.755 403.741 96.217 406.948 93.6751C410.235 91.0709 405.215 87.2451 408.537 85.1658C411.859 87.2451 406.84 91.0709 410.126 93.6751C413.334 96.217 417.556 92.755 420.777 90.3465C423.998 87.938 428.501 84.8746 427.144 80.9494C425.753 76.9279 420.667 80.6587 419.772 76.7646C422.72 74.1556 424.704 80.2509 428.126 77.8389V77.8389Z" fill="#FFD500" stroke="#008833" stroke-width="0.793"/>
<path d="M402.565 53.0155C402.427 53.0159 402.288 53.0148 402.14 53.0246C401.162 53.0889 400.366 53.5001 399.602 54.0741C399.079 54.4664 398.699 55.1597 398.699 55.1598C399.391 55.0965 399.866 53.7269 402.167 53.6308C403.166 53.5893 404.168 53.7 405.212 54.1646C406.256 54.6292 407.341 54.825 408.473 54.825C409.605 54.825 410.699 54.6292 411.743 54.1646C412.787 53.7 413.789 53.5893 414.787 53.6308C417.089 53.7269 417.555 55.0965 418.247 55.1598C418.247 55.1597 417.875 54.4664 417.353 54.0741C416.589 53.5001 415.793 53.0889 414.815 53.0246C413.637 52.947 412.801 53.1731 411.752 53.6398C410.703 54.1064 409.434 54.4089 408.473 54.4089C407.511 54.4089 406.252 54.1064 405.203 53.6398C404.285 53.2315 403.529 53.0123 402.565 53.0155V53.0155ZM421.996 57.865C422.269 58.5229 423.672 58.5646 424.472 60.7874C424.818 61.7519 425.021 62.7702 424.914 63.9359C424.808 65.1018 424.971 66.2208 425.321 67.3287C425.67 68.4367 426.186 69.4448 426.938 70.3235C427.69 71.2021 428.095 72.1471 428.365 73.1372C428.987 75.4194 427.875 76.3035 428.031 77.0005C428.031 77.0005 428.561 76.4208 428.763 75.7882C429.057 74.8625 429.186 73.9519 428.943 72.9744C428.651 71.7974 428.181 71.0523 427.426 70.1697C426.67 69.287 426.006 68.1432 425.709 67.2021C425.412 66.2609 425.295 64.926 425.402 63.755C425.509 62.5839 425.458 61.6993 425.023 60.5702C424.661 59.6325 424.046 58.9789 423.279 58.4079C422.755 58.0177 421.996 57.865 421.996 57.865V57.865ZM395.04 57.9826C395.04 57.9826 394.29 58.1353 393.766 58.5255C393 59.0965 392.375 59.7502 392.014 60.6878C391.578 61.8169 391.527 62.7106 391.634 63.8816C391.741 65.0526 391.624 66.3785 391.327 67.3197C391.03 68.2608 390.366 69.4046 389.611 70.2873C388.855 71.1699 388.385 71.9241 388.093 73.1011C387.85 74.0785 387.98 74.9801 388.274 75.9058C388.475 76.5384 389.005 77.1182 389.005 77.1182C389.161 76.4211 388.049 75.537 388.671 73.2549C388.941 72.2647 389.347 71.3197 390.099 70.4411C390.851 69.5624 391.366 68.5543 391.716 67.4464C392.065 66.3384 392.229 65.2194 392.122 64.0535C392.015 62.8878 392.218 61.8695 392.565 60.905C393.365 58.6822 394.768 58.6405 395.04 57.9826ZM426.685 81.4972C426.161 81.9671 426.558 83.3568 424.752 84.8267C423.968 85.4642 423.097 85.9821 421.987 86.2381C420.877 86.494 419.886 86.9919 418.97 87.6766C418.054 88.3614 417.282 89.1751 416.703 90.1828C416.123 91.1904 415.375 91.8923 414.544 92.4628C412.627 93.7771 411.472 92.9639 410.876 93.3313C410.876 93.3314 411.575 93.6557 412.222 93.657C413.168 93.6589 414.041 93.5092 414.869 92.9694C415.866 92.3196 416.419 91.6292 417.001 90.6171C417.583 89.605 418.427 88.6021 419.205 88.0204C419.983 87.4388 421.179 86.9204 422.294 86.6633C423.41 86.4062 424.213 86.0725 425.122 85.2971C425.877 84.6533 426.295 83.8535 426.585 82.9267C426.784 82.2932 426.685 81.4972 426.685 81.4972V81.4972ZM390.487 81.5695C390.487 81.5696 390.388 82.3656 390.586 82.9991C390.877 83.9259 391.295 84.7347 392.05 85.3786C392.958 86.1539 393.762 86.4786 394.877 86.7357C395.992 86.9928 397.189 87.5112 397.967 88.0928C398.745 88.6745 399.589 89.6864 400.171 90.6985C400.753 91.7107 401.306 92.392 402.303 93.0418C403.131 93.5816 404.004 93.7403 404.95 93.7385C405.597 93.7374 406.296 93.4038 406.296 93.4037C405.7 93.0362 404.545 93.8495 402.628 92.5352C401.797 91.9646 401.049 91.2718 400.469 90.2642C399.89 89.2566 399.117 88.4428 398.202 87.7581C397.286 87.0733 396.295 86.5664 395.184 86.3105C394.074 86.0545 393.204 85.5366 392.42 84.899C390.613 83.4292 391.011 82.0395 390.487 81.5695V81.5695Z" fill="#078930"/>
<path d="M410.81 63.7467C409.69 62.152 407.213 63.0564 405.358 63.6438C403.503 64.2312 400.954 64.9182 401.009 66.8502C401.066 68.8297 403.984 67.9342 403.829 69.7842C402.071 70.5003 402.043 67.5184 400.094 68.0777C398.192 68.6236 398.309 71.1985 398.309 73.0994C398.309 75.0002 398.192 77.5752 400.094 78.1211C402.043 78.6803 402.071 75.6984 403.829 76.4146C403.984 78.2646 401.066 77.3691 401.009 79.3485C400.954 81.2806 403.503 81.9676 405.358 82.555C407.213 83.1424 409.69 84.0468 410.81 82.4521C411.959 80.8183 409.057 79.8709 410.299 78.4635C412.153 78.8907 410.377 81.3192 412.291 81.9833C414.159 82.6315 415.618 80.4811 416.764 78.9433C417.91 77.4055 419.558 75.3894 418.348 73.858C417.109 72.289 415.288 74.6854 414.298 73.0994C415.288 71.5134 417.109 73.9098 418.348 72.3408C419.558 70.8093 417.91 68.7933 416.764 67.2555C415.618 65.7177 414.159 63.5673 412.291 64.2155C410.377 64.8796 412.153 67.308 410.299 67.7353C409.057 66.3278 411.959 65.3805 410.81 63.7467V63.7467Z" fill="#FFD500" stroke="#008833" stroke-width="0.493"/>
<path d="M398.841 76.0871C398.841 76.1528 398.84 76.2195 398.845 76.2898C398.876 76.7569 399.071 77.1368 399.345 77.5018C399.531 77.7513 399.861 77.9331 399.861 77.9331C399.831 77.6027 399.179 77.3755 399.134 76.2769C399.114 75.8002 399.167 75.3219 399.388 74.8233C399.609 74.3247 399.702 73.8067 399.702 73.2662C399.702 72.7258 399.609 72.2035 399.388 71.7049C399.167 71.2063 399.114 70.728 399.134 70.2513C399.179 69.1526 399.831 68.9298 399.861 68.5993C399.861 68.5993 399.531 68.7769 399.345 69.0264C399.071 69.3914 398.876 69.7713 398.845 70.2384C398.808 70.8008 398.916 71.1997 399.138 71.7005C399.36 72.2014 399.504 72.8072 399.504 73.2662C399.504 73.7253 399.36 74.3268 399.138 74.8276C398.943 75.2659 398.839 75.6268 398.841 76.0871H398.841ZM401.149 66.8094C401.462 66.6793 401.482 66.0095 402.54 65.6275C402.999 65.462 403.484 65.3653 404.039 65.4162C404.594 65.4671 405.126 65.3891 405.654 65.2221C406.181 65.0551 406.661 64.8091 407.079 64.45C407.497 64.091 407.947 63.8976 408.419 63.7686C409.505 63.4715 409.926 64.0023 410.258 63.9281C410.258 63.9281 409.982 63.6748 409.68 63.5788C409.24 63.4384 408.806 63.3766 408.341 63.4925C407.781 63.6321 407.426 63.8565 407.006 64.2171C406.586 64.5778 406.041 64.8948 405.593 65.0366C405.145 65.1785 404.51 65.2344 403.953 65.1833C403.395 65.1322 402.974 65.1564 402.437 65.3644C401.99 65.5372 401.679 65.8309 401.407 66.1969C401.222 66.4471 401.149 66.8093 401.149 66.8094ZM401.205 79.68C401.205 79.68 401.278 80.038 401.463 80.2881C401.735 80.6542 402.046 80.9522 402.493 81.1249C403.03 81.3329 403.456 81.3572 404.013 81.3061C404.57 81.255 405.201 81.3108 405.649 81.4527C406.097 81.5946 406.642 81.9116 407.062 82.2722C407.482 82.6329 407.841 82.8573 408.401 82.9968C408.867 83.1128 409.296 83.051 409.736 82.9106C410.038 82.8146 410.314 82.5612 410.314 82.5612C409.982 82.487 409.561 83.0179 408.475 82.7208C408.003 82.5918 407.553 82.3983 407.135 82.0393C406.717 81.6802 406.237 81.4342 405.71 81.2672C405.182 81.1002 404.65 81.0223 404.095 81.0731C403.54 81.124 403.055 81.0274 402.596 80.8618C401.538 80.4799 401.518 79.81 401.205 79.68V79.68ZM412.398 64.5708C412.622 64.8209 413.283 64.6312 413.983 65.4938C414.286 65.8682 414.533 66.2836 414.655 66.8137C414.776 67.3438 415.013 67.8171 415.339 68.2543C415.665 68.6915 416.053 69.0602 416.532 69.3369C417.012 69.6136 417.346 69.9708 417.617 70.3678C418.243 71.2828 417.856 71.8343 418.031 72.1189C418.031 72.1189 418.185 71.785 418.186 71.4763C418.187 71.0245 418.116 70.6079 417.859 70.2125C417.549 69.7363 417.221 69.4725 416.739 69.1946C416.257 68.9166 415.78 68.5135 415.503 68.1421C415.226 67.7708 414.979 67.1995 414.857 66.667C414.735 66.1346 414.576 65.7508 414.207 65.317C413.9 64.9567 413.52 64.7571 413.078 64.6183C412.777 64.5234 412.398 64.5708 412.398 64.5708V64.5708ZM412.432 81.8538C412.432 81.8539 412.811 81.9012 413.113 81.8064C413.554 81.6676 413.939 81.468 414.245 81.1077C414.615 80.6738 414.769 80.2901 414.891 79.7576C415.014 79.2252 415.261 78.6539 415.537 78.2825C415.814 77.9111 416.296 77.508 416.778 77.2301C417.259 76.9521 417.584 76.6883 417.893 76.2122C418.15 75.8167 418.226 75.4002 418.225 74.9484C418.224 74.6396 418.065 74.3057 418.065 74.3057C417.89 74.5903 418.278 75.1418 417.652 76.0569C417.38 76.4538 417.051 76.811 416.571 77.0877C416.091 77.3645 415.704 77.7332 415.378 78.1704C415.052 78.6076 414.811 79.0809 414.689 79.611C414.567 80.141 414.321 80.5565 414.017 80.9308C413.318 81.7934 412.656 81.6038 412.432 81.8538V81.8538Z" fill="#078930"/>
<path d="M404.342 73.1047C403.915 73.9238 404.213 74.3734 404.671 74.7377C404.704 75.2875 404.605 75.8479 405.57 76.0746C405.762 76.8535 406.207 77.1794 406.907 76.9778C407.277 77.541 407.801 77.7316 408.551 77.3095C409.498 77.7374 409.897 77.2899 410.197 76.978C410.807 77.0782 411.308 76.9076 411.54 76.0752C412.38 75.8662 412.436 75.318 412.445 74.7384C412.883 74.3564 413.105 73.86 412.777 73.1047C413.102 72.4096 412.931 71.8765 412.445 71.4711C412.594 70.7088 412.151 70.3514 411.54 70.1342C411.237 69.3323 410.75 69.19 410.197 69.2314C409.67 68.6739 409.114 68.5595 408.551 68.9C407.898 68.5591 407.31 68.5104 406.907 69.2317C406.107 69.2168 405.691 69.5546 405.57 70.1348C405.088 70.3571 404.544 70.4436 404.671 71.4717C404.314 71.8399 403.956 72.1696 404.342 73.1047V73.1047Z" fill="#FFD500" stroke="#008833" stroke-width="1.093"/>
</g>
<defs>
<clipPath id="clip0_1_6154">
<rect width="600" height="400" fill="white"/>
</clipPath>
</defs>
</svg>
