<svg width="600" height="400" viewBox="0 0 600 400" fill="none" xmlns="http://www.w3.org/2000/svg" xmlns:cgf="https://coding.garden/flags"><metadata id="cgf-metadata">

<cgf:flag>
  <cgf:name>Edam-Volendam</cgf:name>
  <cgf:route>nl/nh/edam_volendam</cgf:route>
  <cgf:aspect-ratio>1.5</cgf:aspect-ratio>
</cgf:flag>

</metadata><g clip-path="url(#clip0_1_6209)">
<path d="M600.246 -1.20154H0V400.87H600.246V-1.20154Z" fill="white"/>
<path d="M274.732 146.694C272.297 145.782 271.617 145.191 270.644 143.139C269.515 140.758 269.622 139.108 271.578 128.788C273.531 118.481 274.406 116.554 277.998 114.649C280.53 113.306 286.478 113.094 290.807 114.192C293.166 114.79 293.421 114.982 293.127 115.939C292.66 117.462 292.692 117.453 290.211 116.828C288.974 116.516 286.313 116.262 284.297 116.263C280.294 116.265 278.114 117.169 276.624 119.443C275.64 120.947 272.835 135.562 272.805 139.343C272.787 141.71 272.97 142.259 274.102 143.233C275.218 144.193 275.971 144.361 279.029 144.328C281.014 144.307 283.535 144.019 284.632 143.688L286.627 143.087L287.59 138.081C288.12 135.327 288.623 132.991 288.708 132.889C288.793 132.787 289.4 132.838 290.058 133.003L291.255 133.304L290.152 139.099C289.546 142.287 288.961 144.969 288.854 145.06C288.746 145.151 287.529 145.603 286.15 146.065C282.578 147.262 277.059 147.566 274.732 146.694V146.694ZM300.596 146.749C297.985 146.223 295.931 143.996 295.935 141.693C295.936 140.817 296.498 137.19 297.182 133.632C298.594 126.296 299.677 124.319 303.148 122.742C309.918 119.667 316.405 125.194 313.231 131.334C312.24 133.252 310.321 134.201 304.229 135.788L299.232 137.089L298.816 139.097C298.262 141.767 298.649 143.068 300.208 143.779C301.978 144.586 304.279 144.516 307.505 143.557C310.667 142.618 310.618 142.613 311.102 143.923C311.404 144.74 311.16 145.056 309.775 145.634C307.207 146.708 302.957 147.224 300.596 146.749V146.749ZM304.856 132.86C309.017 131.779 310.759 130.804 311.24 129.287C312.683 124.742 306.01 122.774 302.358 126.667C301.324 127.77 299.946 131.732 299.946 133.601C299.946 134.006 301.137 133.826 304.856 132.86ZM427.027 146.873C424.478 145.845 424.302 143.179 426.114 133.049C426.803 129.198 427.367 125.766 427.368 125.421C427.37 125.023 426.636 124.793 425.364 124.793C423.558 124.793 423.357 124.668 423.357 123.539C423.357 122.387 423.542 122.284 425.605 122.284C428.022 122.284 427.827 122.532 428.666 118.394C428.832 117.575 429.249 117.265 430.186 117.265C431.448 117.265 431.47 117.324 431.133 119.775L430.788 122.284H433.594C436.253 122.284 436.4 122.35 436.4 123.539C436.4 124.735 436.263 124.793 433.444 124.793C431.506 124.793 430.403 125.014 430.242 125.435C429.59 127.135 427.271 142.882 427.562 143.639C427.836 144.354 428.319 144.454 430.348 144.213C432.274 143.985 432.867 144.087 433.097 144.687C433.598 145.995 433.439 146.259 431.811 146.827C429.961 147.472 428.548 147.486 427.027 146.873V146.873ZM359.895 146.135C358.792 145.723 357.838 145.382 357.776 145.378C357.345 145.349 356.133 142.156 356.133 141.051C356.133 138.415 358.289 128.032 359.221 126.174C361.751 121.136 369.515 119.81 372.902 123.838C375.281 126.665 374.178 131.794 370.829 133.481C370.058 133.869 367.283 134.7 364.661 135.327C362.04 135.955 359.745 136.608 359.56 136.779C359.376 136.95 359.072 138.14 358.884 139.424C358.595 141.401 358.703 141.92 359.595 142.812C360.907 144.124 364.549 144.232 367.999 143.06C370.228 142.303 370.407 142.309 371.026 143.156C372.02 144.516 371.897 144.665 369.051 145.552C365.042 146.802 362.169 146.985 359.895 146.135V146.135ZM370.556 130.059C371.969 128.423 371.98 127.312 370.601 125.558C369.611 124.299 369.289 124.199 366.847 124.402C362.912 124.728 361.246 126.607 360.416 131.651L360.073 133.741L364.75 132.553C368.263 131.661 369.708 131.04 370.556 130.059H370.556ZM379.358 145.829C376.905 144.257 376.657 141.981 378.106 134.329C378.759 130.879 379.648 127.301 380.082 126.38C381.812 122.706 388.054 120.622 391.692 122.504C394.804 124.114 396.065 127.81 394.521 130.797C393.288 133.182 391.523 134.146 385.793 135.569C380.497 136.883 380.311 136.976 380.016 138.451C378.904 144.016 381.667 145.605 388.667 143.425C391.265 142.616 391.731 142.587 391.973 143.215C392.581 144.802 392.15 145.267 389.336 146.057C385.253 147.203 381.364 147.114 379.358 145.829V145.829ZM385.814 132.802C388.02 132.239 390.243 131.517 390.753 131.198C394.42 128.908 391.715 123.809 387.237 124.569C384.952 124.957 383.416 125.976 382.53 127.691C381.721 129.254 380.918 133.827 381.452 133.827C381.644 133.827 383.607 133.366 385.814 132.802V132.802ZM441.668 146.181C438.037 144.598 437.631 142.56 439.248 134.043C440.918 125.247 442.514 122.833 447.386 121.738C452.083 120.682 456.467 123.65 456.467 127.887C456.467 129.656 454.916 132.269 453.278 133.258C452.411 133.782 449.476 134.739 446.755 135.385C442.583 136.377 441.739 136.745 441.362 137.736C440.624 139.678 440.843 142.138 441.833 143.034C443.03 144.118 447 144.124 450.162 143.046C452.187 142.356 452.633 142.336 453.003 142.921C454.056 144.583 453.076 145.32 448.441 146.35C445.424 147.02 443.482 146.972 441.668 146.181V146.181ZM452.579 130.434C453.896 129.268 453.754 126.062 452.342 125.073C450.803 123.994 447.623 124.095 445.701 125.283C443.815 126.449 442.956 128.123 442.57 131.388L442.288 133.763L446.995 132.487C449.583 131.785 452.097 130.861 452.579 130.434ZM398.9 145.963C398.238 145.869 397.774 145.454 397.778 144.959C397.789 143.537 401.598 123.308 401.914 122.991C402.077 122.828 402.7 122.85 403.298 123.039C404.075 123.286 404.311 123.669 404.125 124.38C403.956 125.024 404.073 125.283 404.455 125.114C411.904 121.823 414.791 121.455 417.013 123.515C418.716 125.094 418.705 125.614 416.723 136.713C415.452 143.829 414.918 145.871 414.331 145.865C412.423 145.845 412.414 145.268 414.18 135.609C415.855 126.449 415.885 126.073 414.997 125.418C413.819 124.548 411.362 124.958 408.056 126.575C403.257 128.923 403.346 128.768 401.732 137.633C400.932 142.027 400.222 145.735 400.153 145.873C400.085 146.011 399.521 146.052 398.9 145.963V145.963ZM316.501 145.079C316.501 144.184 319.924 125.04 320.335 123.635C320.74 122.249 322.783 122.72 322.73 124.188C322.706 124.841 322.923 125.234 323.231 125.096C330.528 121.836 333.754 121.431 335.838 123.516C336.515 124.193 337.069 124.987 337.069 125.28C337.069 125.572 338.443 125.118 340.122 124.27C345.548 121.53 350.364 121.764 351.633 124.83C352.14 126.055 351.982 127.663 350.636 134.95C349.756 139.715 348.915 144.122 348.767 144.743C348.475 145.973 346.741 146.318 346.323 145.229C346.187 144.875 346.759 140.938 347.593 136.481C348.427 132.023 349.109 127.698 349.109 126.87C349.109 125.105 347.956 124.533 345.461 125.061C343.49 125.478 338.409 128.107 337.383 129.241C336.962 129.706 336.026 133.506 335.232 137.969C334.142 144.093 333.655 145.871 333.065 145.865C331.152 145.845 331.142 145.272 332.897 135.673C334.853 124.977 334.789 124.496 331.48 124.94C329.395 125.22 324.901 127.228 323.102 128.684C321.925 129.637 321.833 130.01 319.259 144.241C319.02 145.558 318.727 145.872 317.732 145.872C316.944 145.872 316.501 145.587 316.501 145.079V145.079Z" fill="#B6B613"/>
<path d="M309.757 260.627C306.462 259.489 302.813 256.1 301.357 252.825C299.811 249.346 299.652 241.542 301.047 237.543C302.265 234.05 305.248 230.769 308.526 229.315C312.253 227.663 318.626 227.639 322.215 229.265C325.482 230.745 328.14 233.38 329.584 236.571C330.584 238.782 330.741 239.929 330.729 244.906C330.716 249.879 330.555 251 329.57 253.008C328.08 256.044 325.287 258.839 322.466 260.119C319.39 261.515 313.058 261.768 309.757 260.627V260.627ZM319.475 254.818C322.95 253.065 324.209 250.365 324.216 244.655C324.221 240.917 324.026 239.771 323.087 238.012C320.458 233.09 314.024 231.975 309.878 235.722C307.626 237.758 306.767 240.043 306.709 244.153C306.648 248.497 307.251 250.706 309.062 252.769C311.964 256.076 315.574 256.786 319.475 254.818V254.818ZM279.069 260.339C278.946 259.994 276.379 252.71 273.363 244.153L267.879 228.595L271.173 228.445C273.452 228.341 274.589 228.493 274.865 228.939C275.084 229.294 276.885 234.443 278.866 240.382C280.848 246.321 282.647 251.377 282.864 251.617C283.08 251.858 284.979 246.72 287.083 240.2L290.909 228.344H294.37H297.83L296.903 230.979C296.394 232.428 294.125 238.808 291.862 245.157C289.6 251.506 287.411 257.66 287 258.833L286.251 260.966H282.771C280.44 260.966 279.217 260.759 279.069 260.339V260.339ZM336.513 244.906V228.846H339.774H343.035V242.146V255.445H351.061H359.088V258.206V260.966H347.8H336.513V244.906ZM363.722 244.78L363.854 228.595L375.769 228.46L387.683 228.326V231.095V233.865H378.882H370.081L370.228 237.503L370.376 241.142L378.528 241.28L386.68 241.418V243.902V246.387L378.528 246.525L370.376 246.663L370.231 251.054L370.086 255.445H379.135H388.185V258.206V260.966H375.887H363.589L363.722 244.78ZM393.822 244.78L393.954 228.595H397.134H400.314L406.666 239.01L413.018 249.425L413.269 239.01L413.519 228.595L416.404 228.444L419.289 228.294V244.63V260.966L416.153 260.964L413.018 260.962L406.747 250.691C403.298 245.041 400.307 240.412 400.1 240.404C399.893 240.396 399.723 245.019 399.723 250.678V260.966H396.707H393.69L393.822 244.78V244.78ZM426.312 244.598V228.23L434.966 228.425C442.762 228.6 443.856 228.735 446.003 229.782C451.115 232.273 453.152 236.653 453.152 245.157C453.152 250.183 453.026 250.933 451.752 253.529C448.77 259.604 445.518 260.966 433.997 260.966H426.312V244.598V244.598ZM443.274 254.429C445.758 252.914 446.564 250.543 446.597 244.655C446.62 240.511 446.45 239.339 445.624 237.932C443.869 234.943 442.477 234.275 437.4 233.986L432.834 233.725V244.585V255.445L437.223 255.443C440.741 255.442 441.943 255.24 443.274 254.429V254.429ZM456.125 260.088C456.28 259.605 459.069 252.321 462.323 243.902L468.239 228.595H471.704H475.169L481.593 244.644C485.127 253.472 488.018 260.765 488.018 260.852C488.018 260.939 486.418 260.944 484.462 260.863L480.906 260.715L479.557 257.202L478.209 253.689H471.728H465.246L463.965 257.326L462.683 260.964L459.263 260.965C456.233 260.966 455.875 260.866 456.125 260.088V260.088ZM475.735 247.039C475.542 246.556 474.58 243.936 473.597 241.217C472.38 237.851 471.68 236.504 471.405 236.996C471.006 237.71 467.449 247.357 467.449 247.726C467.449 247.831 469.392 247.917 471.767 247.917C475.678 247.917 476.052 247.835 475.735 247.039V247.039ZM491.53 244.637V228.308L496.391 228.451L501.252 228.595L504.041 239.259C505.575 245.124 506.943 249.922 507.081 249.923C507.219 249.923 508.574 245.124 510.091 239.259L512.851 228.595L517.742 228.451L522.633 228.308V244.637V260.966H519.623H516.613L516.566 248.545L516.52 236.123L513.402 248.419L510.283 260.715H507.081H503.879L500.761 248.419L497.643 236.123L497.596 248.545L497.55 260.966H494.54H491.53V244.637H491.53ZM271.295 187.942V171.631H283.085H294.874V174.392V177.152H286.346H277.817V180.916V184.68H285.844H293.871V187.19V189.699H285.844H277.817V194.216V198.733H286.596H295.376V201.493V204.254H283.336H271.295V187.942ZM301.396 187.934V171.515L309.799 171.734C319.068 171.976 320.924 172.44 323.812 175.236C326.477 177.816 327.642 181.191 327.884 187.035C328.139 193.185 327.243 196.656 324.606 199.738C321.394 203.492 319.9 203.946 310.05 204.163L301.396 204.353V187.934V187.934ZM317.711 197.941C320.389 196.67 321.212 194.378 321.212 188.193C321.212 179.43 319.526 177.474 311.931 177.428L307.667 177.403L307.531 188.068L307.396 198.733H311.72C314.618 198.733 316.593 198.472 317.711 197.941V197.941ZM331.723 201.117C332.808 198.244 342.299 173.713 342.888 172.259C343.056 171.844 344.288 171.631 346.521 171.631H349.899L355.985 187.064C359.332 195.552 362.214 202.892 362.389 203.375C362.673 204.158 362.327 204.254 359.209 204.254H355.711L354.338 200.489L352.966 196.725H346.531H340.097L339.121 199.36C338.585 200.809 337.989 202.503 337.797 203.124C337.48 204.152 337.139 204.254 333.993 204.254H330.538L331.723 201.117V201.117ZM350.557 190.828C350.555 190.526 348.057 183.548 346.739 180.163C346.408 179.313 346.41 179.307 343.766 186.562L342.075 191.205H346.317C348.65 191.205 350.558 191.035 350.557 190.828ZM366.111 187.942V171.631H371.028H375.945L378.601 181.754C380.062 187.322 381.408 192.286 381.593 192.785C381.805 193.36 382.719 190.619 384.089 185.296C385.277 180.679 386.588 175.715 387.002 174.266L387.755 171.631H392.485H397.215V187.942V204.254H394.205H391.195L391.146 192.083L391.098 179.912L388.021 192.083L384.945 204.254H381.818H378.692L378.195 202.371C377.922 201.336 376.502 195.747 375.04 189.95L372.382 179.41L372.248 191.832L372.114 204.254H369.113H366.111V187.942Z" fill="#50405A"/>
<path d="M98.9521 98.3077L113.715 113.077H211.213V169.385L225.976 184.154V98.3077H98.9521Z" fill="#50405A"/>
<path d="M77.7305 119.231L92.4935 134V175.538L77.7305 160.769V119.231Z" fill="#4E3857"/>
<path d="M78.0381 98.3077L209.099 229.423C211.46 224.174 211.478 217.482 211.213 210.615L98.9524 98.3077H78.0381Z" fill="#7EADDD"/>
<path d="M211.214 210.615C211.869 222.118 209.271 235.058 202.679 244.231L213.213 254.769C218.63 246.394 223.142 236.955 225.092 224.5L211.214 210.615Z" fill="#50405A"/>
<path d="M92.4941 134V154.923L203.55 266.025C207.022 262.488 210.24 258.734 213.205 254.761L92.4941 134Z" fill="#B6B613"/>
<path d="M77.7305 160.769L182.802 265.885L169.538 274.154L77.7305 182.308V160.769Z" fill="#E10144"/>
<path d="M77.7305 182.308L92.4935 197.077V217.379C95.4752 244.75 114.836 266.79 151.853 283.085C162.542 278.284 172.679 272.104 182.8 265.883L192.865 275.952C179.299 284.55 165.705 292.919 151.853 299.231C113.9 282.155 82.3597 260.151 77.7305 217.462V182.308Z" fill="#4E3857"/>
<path d="M134.322 113.077L225.976 204.769V184.154L154.929 113.077H134.322Z" fill="#EE602E"/>
</g>
<defs>
<clipPath id="clip0_1_6209">
<rect width="600" height="400" fill="white"/>
</clipPath>
</defs>
</svg>
