<svg width="600" height="400" viewBox="0 0 600 400" fill="none" xmlns="http://www.w3.org/2000/svg" xmlns:cgf="https://coding.garden/flags"><metadata id="cgf-metadata">

<cgf:flag>
  <cgf:name>Gooise Meren</cgf:name>
  <cgf:route>nl/nh/gooise_meren</cgf:route>
  <cgf:aspect-ratio>1.5</cgf:aspect-ratio>
</cgf:flag>

</metadata><g clip-path="url(#clip0_3_11489)">
<rect width="600" height="400" fill="white"/>
<path d="M253.022 176.091C257.675 176.091 259.784 173.983 259.784 169.579V166.848C258.046 168.71 255.504 170.135 252.155 170.135C245.147 170.135 240.618 164.802 240.618 155.313C240.618 146.071 246.324 140.116 255.877 140.116C260.28 140.116 264.436 140.86 268.344 142.287V169.578C268.344 177.888 263.94 183.408 253.396 183.408C248.991 183.408 244.898 182.539 241.488 181.113L243.72 174.351C247.13 175.596 250.046 176.091 253.022 176.091ZM259.784 159.222V147.81C258.605 147.561 257.24 147.437 255.815 147.437C251.66 147.437 249.55 149.979 249.55 155.314C249.55 160.834 251.411 162.819 254.077 162.819C256.621 162.819 258.543 161.331 259.784 159.222Z" fill="#441D42"/>
<path d="M287.263 140.118C296.133 140.118 300.289 146.816 300.289 156.864L299.855 157.547H282.179C282.612 161.455 284.659 163.44 289.497 163.44C292.475 163.44 295.265 162.694 297.56 161.704L299.607 168.278C296.259 169.89 293.157 170.758 288.444 170.758C278.21 170.758 273.31 164.432 273.31 155.563C273.308 145.824 278.642 140.118 287.263 140.118ZM291.978 152.089C291.666 148.926 290.304 147.065 287.511 147.065C284.534 147.065 282.674 148.864 282.303 152.089H291.978Z" fill="#441D42"/>
<path d="M305.19 140.739H312.073L312.881 144.585C314.742 141.732 317.533 140.119 321.191 140.119C325.657 140.119 328.51 142.166 329.874 145.142C331.798 142.228 334.465 140.119 338.62 140.119C345.566 140.119 348.73 144.833 348.73 152.027V170.137H340.171V152.647C340.171 149.172 338.931 147.437 336.388 147.437C334.341 147.437 332.479 148.801 331.239 151.468V170.137H322.68V152.647C322.68 149.172 321.501 147.437 319.207 147.437C316.912 147.437 314.927 148.925 313.747 151.468V170.137H305.188V140.739H305.19Z" fill="#441D42"/>
<path d="M367.154 140.118C376.025 140.118 380.18 146.816 380.18 156.864L379.747 157.547H362.07C362.504 161.455 364.55 163.44 369.389 163.44C372.367 163.44 375.157 162.694 377.452 161.704L379.498 168.278C376.151 169.89 373.048 170.758 368.336 170.758C358.102 170.758 353.201 164.432 353.201 155.563C353.2 145.824 358.533 140.118 367.154 140.118ZM371.87 152.089C371.558 148.926 370.196 147.065 367.403 147.065C364.426 147.065 362.566 148.864 362.195 152.089H371.87Z" fill="#441D42"/>
<path d="M398.912 140.118C407.781 140.118 411.938 146.816 411.938 156.864L411.505 157.547H393.827C394.26 161.455 396.307 163.44 401.145 163.44C404.123 163.44 406.913 162.694 409.208 161.704L411.255 168.278C407.905 169.89 404.805 170.758 400.091 170.758C389.856 170.758 384.956 164.432 384.956 155.563C384.956 145.824 390.291 140.118 398.912 140.118ZM403.627 152.089C403.316 148.926 401.952 147.065 399.16 147.065C396.184 147.065 394.324 148.864 393.952 152.089H403.627Z" fill="#441D42"/>
<path d="M416.84 140.739H423.724L424.469 144.399C426.453 141.731 429.059 140.119 433.337 140.119C440.285 140.119 443.447 144.833 443.447 152.027V170.137H434.888V152.647C434.888 149.172 433.647 147.437 431.104 147.437C428.624 147.437 426.7 148.925 425.398 151.468V170.137H416.839V140.739H416.84Z" fill="#441D42"/>
<path d="M452.691 146.878L447.355 146.383V140.739H452.875L453.933 131H461.189V140.739H469.314L468.322 146.878H461.189V159.035C461.189 161.951 462.306 163.44 464.91 163.44C466.399 163.44 467.702 163.128 469.128 162.694L470.555 169.332C468.013 170.199 466.028 170.758 462.493 170.758C455.173 170.758 452.692 166.354 452.692 160.09V146.878H452.691Z" fill="#441D42"/>
<path d="M486.807 140.118C495.677 140.118 499.831 146.816 499.831 156.864L499.398 157.547H481.72C482.153 161.455 484.2 163.44 489.038 163.44C492.016 163.44 494.806 162.694 497.101 161.704L499.148 168.278C495.8 169.89 492.698 170.758 487.985 170.758C477.751 170.758 472.851 164.432 472.851 155.563C472.851 145.824 478.186 140.118 486.807 140.118ZM491.522 152.089C491.21 148.926 489.847 147.065 487.055 147.065C484.078 147.065 482.218 148.864 481.845 152.089H491.522Z" fill="#441D42"/>
<path d="M253.022 230.715C257.675 230.715 259.784 228.606 259.784 224.202V221.473C258.046 223.334 255.504 224.76 252.155 224.76C245.147 224.76 240.618 219.426 240.618 209.937C240.618 200.695 246.324 194.741 255.877 194.741C260.28 194.741 264.436 195.485 268.344 196.911V224.202C268.344 232.513 263.94 238.033 253.396 238.033C248.991 238.033 244.898 237.163 241.488 235.738L243.72 228.976C247.13 230.219 250.046 230.715 253.022 230.715ZM259.784 213.845V202.433C258.605 202.184 257.24 202.06 255.815 202.06C251.66 202.06 249.55 204.602 249.55 209.937C249.55 215.457 251.411 217.442 254.077 217.442C256.621 217.442 258.543 215.954 259.784 213.845Z" fill="#887439"/>
<path d="M288.008 194.741C297.435 194.741 302.769 200.447 302.769 210.061C302.769 219.675 297.435 225.381 288.008 225.381C278.642 225.381 273.309 219.675 273.309 210.061C273.309 200.447 278.642 194.741 288.008 194.741ZM293.839 210.061C293.839 204.726 291.605 202.06 288.008 202.06C284.473 202.06 282.24 204.726 282.24 210.061C282.24 215.395 284.473 218.063 288.008 218.063C291.605 218.063 293.839 215.395 293.839 210.061Z" fill="#887439"/>
<path d="M321.067 194.741C330.494 194.741 335.829 200.447 335.829 210.061C335.829 219.675 330.494 225.381 321.067 225.381C311.701 225.381 306.367 219.675 306.367 210.061C306.367 200.447 311.701 194.741 321.067 194.741ZM326.897 210.061C326.897 204.726 324.663 202.06 321.067 202.06C317.531 202.06 315.299 204.726 315.299 210.061C315.299 215.395 317.531 218.063 321.067 218.063C324.663 218.063 326.897 215.395 326.897 210.061Z" fill="#887439"/>
<path d="M342.78 201.502L338.005 201.006V195.362H351.338V224.762H342.78V201.502ZM342.222 186.182C342.222 183.575 344.517 181.467 347.059 181.467C349.602 181.467 351.834 183.575 351.834 186.182C351.834 188.848 349.601 190.957 347.059 190.957C344.517 190.958 342.222 188.911 342.222 186.182Z" fill="#887439"/>
<path d="M358.782 216.016C362.005 217.193 365.48 218.063 368.21 218.063C370.318 218.063 371.434 217.442 371.434 216.016C371.434 212.294 357.664 213.845 357.664 203.857C357.664 198.834 361.943 194.741 369.201 194.741C373.418 194.741 376.458 195.545 379.93 197.036L377.326 203.61C374.783 202.619 371.867 202.06 369.822 202.06C367.713 202.06 366.783 202.618 366.783 203.919C366.783 207.641 380.49 206.153 380.49 215.827C380.49 221.286 377.265 225.379 368.645 225.379C364.427 225.379 360.395 224.263 356.612 222.9L358.782 216.016Z" fill="#887439"/>
<path d="M398.601 194.741C407.472 194.741 411.627 201.439 411.627 211.487L411.194 212.17H393.516C393.949 216.078 395.996 218.063 400.834 218.063C403.812 218.063 406.602 217.318 408.897 216.325L410.944 222.9C407.596 224.511 404.494 225.379 399.781 225.379C389.547 225.379 384.646 219.054 384.646 210.184C384.646 200.447 389.982 194.741 398.601 194.741ZM403.316 206.712C403.005 203.549 401.641 201.688 398.849 201.688C395.873 201.688 394.013 203.487 393.641 206.712H403.316Z" fill="#887439"/>
<path d="M416.281 195.362H423.164L423.971 199.208C425.832 196.355 428.622 194.742 432.282 194.742C436.746 194.742 439.601 196.789 440.965 199.765C442.888 196.851 445.556 194.742 449.711 194.742C456.657 194.742 459.821 199.456 459.821 206.65V224.761H451.262V207.27C451.262 203.795 450.022 202.06 447.478 202.06C445.432 202.06 443.57 203.424 442.33 206.091V224.76H433.771V207.27C433.771 203.795 432.592 202.06 430.297 202.06C428.002 202.06 426.018 203.548 424.838 206.091V224.76H416.279V195.362H416.281Z" fill="#441D42"/>
<path d="M478.246 194.741C487.117 194.741 491.27 201.439 491.27 211.487L490.837 212.17H473.159C473.593 216.078 475.639 218.063 480.477 218.063C483.455 218.063 486.246 217.318 488.541 216.325L490.587 222.9C487.239 224.511 484.137 225.379 479.425 225.379C469.19 225.379 464.29 219.054 464.29 210.184C464.29 200.447 469.625 194.741 478.246 194.741ZM482.961 206.712C482.65 203.549 481.286 201.688 478.494 201.688C475.518 201.688 473.657 203.487 473.285 206.712H482.961Z" fill="#441D42"/>
<path d="M496.173 195.362H503.056L504.05 199.888C506.096 196.665 508.825 194.742 512.36 194.742C513.911 194.742 515.214 194.991 516.453 195.424L514.779 202.433C513.849 202.185 512.918 202 511.556 202C507.896 202 505.539 205.223 504.732 209.318V224.761H496.173V195.362Z" fill="#441D42"/>
<path d="M531.463 194.741C540.334 194.741 544.489 201.439 544.489 211.487L544.056 212.17H526.379C526.813 216.078 528.858 218.063 533.696 218.063C536.674 218.063 539.465 217.318 541.76 216.325L543.806 222.9C540.458 224.511 537.356 225.379 532.642 225.379C522.409 225.379 517.509 219.054 517.509 210.184C517.509 200.447 522.844 194.741 531.463 194.741ZM536.179 206.712C535.867 203.549 534.503 201.688 531.712 201.688C528.735 201.688 526.876 203.487 526.504 206.712H536.179Z" fill="#441D42"/>
<path d="M549.392 195.362H556.275L557.021 199.022C559.005 196.354 561.611 194.742 565.889 194.742C572.837 194.742 575.998 199.456 575.998 206.65V224.761H567.44V207.27C567.44 203.795 566.199 202.06 563.656 202.06C561.176 202.06 559.252 203.548 557.949 206.091V224.76H549.391V195.362H549.392Z" fill="#441D42"/>
<path d="M79.2577 225L104 204.491L79.3442 138.384C75.96 138.117 72.4536 138 68.0329 138C40.4679 138.001 24 155.235 24 181.985C24 209.453 37.0658 224.894 57.2927 224.894C66.9606 224.894 74.2974 220.763 79.3112 215.38V223.279C79.3112 223.872 79.2838 224.437 79.2577 225ZM62.842 203.71C55.1455 203.71 49.7747 197.965 49.7747 181.985C49.7747 166.546 55.8622 160.041 67.8544 160.041C71.9703 160.041 75.9092 160.4 79.3112 161.117V193.297C75.7293 199.401 70.1815 203.71 62.842 203.71Z" fill="#887439"/>
<path d="M79.4416 225.001V225.004C78.9011 236.472 72.8236 241.99 60.1008 241.99C51.5584 241.99 43.1949 240.564 33.4078 237.003L27 256.412C36.7884 260.508 48.5326 263 61.1667 263C90.3601 263 103.143 248.239 104 225L79.4416 225.001Z" fill="#887439"/>
<path d="M80 225.001L80.001 225H80V225.001Z" fill="white"/>
<path d="M80 225H103.949C103.98 224.131 104 204.03 104 204.03L103.989 204L80 225Z" fill="white"/>
<path d="M176.689 138C164.642 138 156.909 144.113 151.334 152.561C147.38 143.934 139.109 138 126.162 138C117.197 138 110.038 141.353 104.778 147.375L102.54 141.456C92.1145 139.734 86.2628 138.733 80 138.243L104.768 204.428L104.779 204.419V170.509C108.215 163.381 113.875 159.212 120.409 159.212C127.062 159.212 130.479 164.245 130.479 174.311V225H155.292V170.895C158.888 163.167 164.285 159.211 170.218 159.211C177.591 159.211 181.186 164.244 181.186 174.31V224.999H206V172.513C205.999 151.661 196.829 138 176.689 138Z" fill="#441D42"/>
</g>
<defs>
<clipPath id="clip0_3_11489">
<rect width="600" height="400" fill="white"/>
</clipPath>
</defs>
</svg>
