<svg width="600" height="400" viewBox="0 0 600 400" fill="none" xmlns="http://www.w3.org/2000/svg" xmlns:cgf="https://coding.garden/flags"><metadata id="cgf-metadata">

<cgf:flag>
  <cgf:name>Haarlemmermeer</cgf:name>
  <cgf:route>nl/nh/haarlemmermeer</cgf:route>
  <cgf:aspect-ratio>1.5</cgf:aspect-ratio>
</cgf:flag>

</metadata><g clip-path="url(#clip0_1_6293)">
<path d="M600 0.00012207H0V400H600V0.00012207Z" fill="#0E46AF"/>
<path d="M89.247 83.9218C85.5931 76.9303 79.4006 70.0447 69.9121 63.2964C68.0933 60.041 65.8472 57.0338 61.1568 55.4479C55.6806 50.4913 47.569 45.0552 52.219 41.9411C58.524 38.8496 60.6933 35.0446 52.9485 29.5293L43.6682 38.4086C38.6651 31.9516 31.8556 41.397 36.4815 45.3491C34.2744 47.2582 32.6197 54.6843 38.5387 56.5431C36.1422 61.2816 39.3696 65.104 42.734 65.4868C45.3984 69.6979 46.0058 74.115 43.8285 78.8111C47.6945 78.7636 49.8236 75.9831 52.0366 73.3353C52.6513 79.1342 52.5073 84.506 50.2126 88.6674C53.6099 87.1312 56.8278 85.2362 58.7855 80.8189C56.9476 94.0495 65.204 95.8321 74.1074 96.8811L89.247 83.9218Z" fill="white"/>
<path d="M35.21 45.2265C35.7255 44.8834 38.1408 45.1459 39.5419 49.0139L44.9229 52.9838" fill="#DA1119"/>
<path d="M36.9775 28.0502C42.5181 29.9498 42.9277 34.0635 44.5228 37.6656C47.733 36.3177 50.1887 33.8913 52.1969 30.8251C48.3548 27.3228 43.1407 25.1083 36.9775 28.0502V28.0502Z" fill="#DA1119"/>
<path d="M24.5869 38.3161C31.092 40.1219 32.7293 43.1447 35.3537 45.1319C37.8598 42.7137 39.2084 39.8212 39.973 36.236C35.1252 34.3605 29.2703 33.3432 24.5869 38.3161Z" fill="#DA1119"/>
<path d="M24.665 57.6887C29.1112 53.874 32.8619 55.6074 36.7732 56.0589C37.2407 52.6066 36.3966 49.2581 34.7746 45.9711C29.8093 47.508 25.2574 50.8815 24.665 57.6887Z" fill="#DA1119"/>
<path d="M28.373 64.6891C33.8748 61.8699 36.0294 60.0071 38.648 58.075C40.9928 58.3712 43.0971 61.8968 42.9525 65.1163C38.1762 67.1673 33.2345 69.4879 28.373 64.6891V64.6891Z" fill="#DA1119"/>
<path d="M128.601 161.355C119.827 152.311 111.677 160.747 103.579 170.648C96.7544 167.914 91.5665 173.042 86.4249 178.391C81.8173 183.148 76.6839 186.911 69.0127 185.877C71.701 187.832 72.9603 190.787 78.8151 190.523C79.714 197.427 81.2316 204.089 89.9073 207.947C83.6809 212.66 79.2677 217.826 75.0747 223.048C71.4051 226.769 64.2479 229.398 63.9825 222.015C65.6139 206.878 49.7521 220.33 52.2454 227.178C51.7685 230.616 49.4663 237.977 55.8569 241.246C62.8324 249.365 66.933 248.551 70.6894 246.667C74.8503 249.433 87.1801 249.788 85.393 240.601L86.9407 247.699C92.547 243.043 92.8709 238.027 90.9391 232.857C96.4977 234.088 101.454 236.122 102.934 242.795C103.486 238.622 103.521 234.449 101.515 230.275C104.513 233.428 108.535 235.555 113.768 236.47C111.078 231.912 111.336 226.651 112.221 221.241C115.827 223.601 119.4 226.189 122.668 230.921C123.196 226.904 122.354 223.279 120.475 219.95C123.637 221.989 126.946 221.354 130.278 220.338C127.895 218.67 125.342 217.801 123.442 213.884C127.32 209.915 129.262 205.714 124.602 200.72L115.703 208.205C108.486 198.77 113.233 193.488 122.797 189.878C133.822 185.665 138.045 180.523 141.628 175.294C143.033 166.554 135.363 159.281 128.601 161.355V161.355Z" fill="white"/>
<path d="M44.4229 222.553C47.8693 221.577 50.1305 221.327 54.0151 223.014C57.0025 223.24 58.5394 219.325 58.1529 215.42C52.5852 214.202 45.085 214.607 44.4229 222.553V222.553Z" fill="#DA1119"/>
<path d="M44.6418 241.944C46.2257 237.393 50.9453 237.409 53.8398 237.436C54.8498 234.681 54.7369 231.415 51.9337 228.292C45.8901 230.005 41.7883 234.068 44.6418 241.944V241.944Z" fill="#DA1119"/>
<path d="M59.7403 257.765C58.4012 253.137 62.2597 250.417 64.6363 248.763C63.8673 245.932 61.8868 243.333 57.7948 242.408C53.856 247.305 52.8589 252.992 59.7403 257.765Z" fill="#DA1119"/>
<path d="M72.0137 256.098C75.4539 252.726 73.4299 248.459 72.1727 245.85C74.2334 243.763 77.2349 242.474 81.2527 243.681C82.277 249.883 80.3509 255.327 72.0137 256.098V256.098Z" fill="#DA1119"/>
<path d="M85.1484 114.956C86.424 136.264 94.4341 149.44 115.61 146.715L127.557 156.115L117.16 154.655L127.466 160.495C127.718 163.377 128.153 169.78 135.765 166.245C138.171 174.452 141.189 182.731 149.354 191.616C155.975 200.754 153.466 211.052 150.814 221.368C154.63 218.032 158.76 216.113 161.667 208.682C164.973 210.087 169.761 210.38 175.985 209.595C177.782 213.641 179.171 217.62 185.197 222.371C183.697 228.583 181.505 233.556 175.438 231.589C175.762 221.937 161.494 224.828 168.78 237.338C173.453 249.303 180.191 253.113 189.483 246.83C195.24 248.895 198.694 242.665 202.069 236.152C205.413 237.024 208.757 236.51 212.101 235.148C208.374 233.038 206.603 230.765 204.896 228.486C208.666 228.542 212.436 227.97 216.205 225.292C211.027 224.773 208.609 221.814 206.447 218.63C210.703 218.737 215.182 219.819 218.121 214.158C213.894 215.653 211.522 213.02 209.548 209.503C213.819 208.397 215.342 205.228 216.935 202.111C212.527 205.366 208.571 205.794 205.535 200.468C209.446 200.011 208.992 197.612 210.095 195.905C209.681 193.151 213.498 190.4 219.488 191.616C216.072 189.529 212.22 187.877 206.082 188.513C207.65 184.348 205.483 180.379 200.519 176.558C201.767 179.235 203.573 181.912 200.519 184.589C198.221 187.051 195.301 189.462 196.962 192.255C196.012 188.223 193.553 184.518 190.942 180.847C189.963 184.861 184.859 190.849 181.366 182.581C180.81 178.991 181.168 175.402 178.721 171.812C204.862 171.939 204.229 146.152 190.486 124.447C183.636 113.691 174.824 102.789 176.806 92.6874C181.412 81.9006 206.501 89.8308 183.008 95.6078C188.277 96.8988 194.198 103.282 197.874 92.1398C201.224 95.8552 202.533 100.794 203.528 105.921C206.597 122.968 215.96 123.697 226.511 121.344C219.502 117.753 213.434 113.377 214.564 103C216.409 86.7246 207.506 82.8336 198.239 79.3632C204.455 75.169 201.242 70.1544 199.971 65.3087C197.477 70.6298 194.773 75.4234 189.574 73.9787C166.247 69.9369 159.903 99.3769 184.285 128.28C201.347 154.94 180.989 165.76 168.507 158.579C151.116 141.309 142.411 122.797 131.844 104.552L85.1484 114.956Z" fill="white"/>
<path d="M199.264 252.146C200.875 247.605 197.185 244.661 194.91 242.869C195.846 240.088 197.977 237.612 202.116 236.931C205.758 242.053 206.416 247.79 199.264 252.146Z" fill="#DA1119"/>
<path d="M168.064 253.998C167.559 249.206 171.835 247.207 174.465 245.997C174.205 243.074 172.712 240.167 168.846 238.538C164.108 242.665 162.128 248.09 168.064 253.998V253.998Z" fill="#DA1119"/>
<path d="M159.737 239.613C161.825 235.271 166.513 235.82 169.386 236.174C170.7 233.551 170.957 230.293 168.525 226.873C162.326 227.892 157.792 231.464 159.737 239.613Z" fill="#DA1119"/>
<path d="M195.029 256.204C190.736 254.02 191.388 249.343 191.805 246.476C189.213 245.103 185.964 244.775 182.493 247.133C183.375 253.357 186.845 257.972 195.029 256.204Z" fill="#DA1119"/>
<path d="M85.6853 113.662C78.4312 116.753 71.0817 122.385 63.6082 131.316C60.221 132.873 57.0476 134.876 55.0965 139.429C49.7254 144.499 43.668 152.161 40.9336 147.276C38.3529 140.742 34.7342 138.277 28.627 145.566L36.738 155.526C29.9096 160.006 38.5753 168.577 42.8785 164.275C44.6057 166.628 52.0775 167.835 54.3975 162.078C58.9284 164.843 62.9917 161.926 63.6393 158.601C68.0452 156.276 72.4937 156.02 76.9995 158.563C77.2577 154.703 74.6569 152.359 72.1942 149.942C78.0197 149.787 83.3598 150.356 87.3236 152.975C86.0621 149.464 84.429 146.104 80.1834 143.802C93.2183 146.682 95.6476 138.587 97.3973 129.789L85.6853 113.662Z" fill="white"/>
<path d="M42.8605 164.503C42.5595 163.961 43.012 161.573 46.9764 160.481L51.3572 155.428" fill="#DA1119"/>
<path d="M25.8897 161.381C28.2206 156.004 32.3511 155.921 36.0657 154.615C34.977 151.306 32.7542 148.664 29.8586 146.418C26.0655 149.974 23.4468 155 25.8897 161.381V161.381Z" fill="#DA1119"/>
<path d="M35.1364 174.552C37.45 168.206 40.5911 166.812 42.7784 164.352C40.5677 161.66 37.7929 160.086 34.2817 159.04C32.0298 163.727 30.5531 169.487 35.1364 174.552Z" fill="#DA1119"/>
<path d="M54.4404 176.009C50.9922 171.271 53.0158 167.667 53.775 163.801C50.373 163.062 46.9704 163.639 43.5674 164.997C44.7056 170.071 47.706 174.879 54.4404 176.009Z" fill="#DA1119"/>
<path d="M61.7084 172.863C59.3354 167.152 57.6501 164.855 55.9326 162.09C56.4132 159.774 60.092 157.954 63.2879 158.354C64.953 163.28 66.8737 168.393 61.7084 172.863V172.863Z" fill="#DA1119"/>
<path d="M90.891 49.2798C80.6347 56.4922 89.5179 61.7433 101.835 59.5012C107.45 58.5847 113.829 58.7937 119.072 63.8819L117.431 67.076C114.163 62.598 108.042 62.8801 101.926 63.1518C64.9685 68.8418 76.9456 46.7909 90.891 49.2798Z" fill="#DA1119"/>
<path d="M109.222 35.8642C103.737 37.2608 92.926 36.5757 97.4572 41.8876C98.3803 46.5688 100.266 50.562 102.382 54.3906L104.297 51.8352C121.656 55.6606 117.221 70.2602 107.854 68.9925L105.027 65.6159L104.571 69.5401C99.2553 69.1087 94.2951 71.2894 96.8187 76.2022C98.9891 73.7621 101.411 71.8254 106.121 74.4683L111.32 74.6508C108.983 84.155 93.7822 88.3057 88.337 74.9245C86.0143 77.9388 84.706 81.4873 85.6398 86.2168C81.1857 82.9844 77.5823 88.0534 73.7737 91.1213C68.3662 96.0515 62.3281 99.2693 55.7168 100.93C62.0325 104.276 69.3975 104.238 77.2562 102.608C74.8684 104.036 73.5496 105.891 71.9681 107.641C68.8595 112.011 64.791 115.165 58.8122 115.902C68.7804 118.428 79.3968 122.484 84.7369 114.095C84.5362 122.167 83.2417 133.281 99.6985 136.036C97.4572 133.561 95.3912 131.031 98.5377 126.872C101.17 122.722 101.02 119.148 98.6667 116.031C102.163 121.524 104.911 127.765 112.854 128.808C109.143 125.969 110.439 123.129 111.952 120.29C116.171 116.246 117.053 112.202 115.95 108.158C120.673 114.914 125.934 119.933 132.201 121.71C127.877 111.872 129.895 105.148 134.652 99.7686C139.447 96.5215 142.576 92.3623 140.198 85.1842C145.851 92.7934 155.357 88.9731 145.486 81.9576C151.772 85.921 149.963 70.7593 150.516 61.1783C159.239 67.2632 160.362 63.1322 152.064 46.3358C161.948 45.7797 162.506 39.4843 152.709 41.6895L145.486 37.3012L146.002 28.6539L137.36 33.0421L118.4 32.6549C112.61 31.1524 109.171 31.8649 109.222 35.8642H109.222Z" fill="white"/>
<path fill-rule="evenodd" clip-rule="evenodd" d="M119.026 42.4123C119.026 43.937 118.261 45.1729 117.316 45.1729C116.372 45.1729 115.606 43.937 115.606 42.4123C115.606 40.8876 116.372 39.6516 117.316 39.6516C118.261 39.6516 119.026 40.8876 119.026 42.4123Z" fill="black"/>
<path d="M-36.3525 540.104C-24.2128 504.338 7.90905 484.074 34.8724 472.961C79.5925 453.344 102.889 428.653 114.188 385.785C133.602 316.261 163.762 284.167 200.838 270.275C243.845 254.151 273.75 235.76 289.559 166.551C300.067 122.362 329.409 84.9364 377.861 62.445C407.457 50.2111 445.639 25.4527 457.582 -33.8238C467.641 -76.3505 487.294 -105.558 512.663 -123.84L555.122 -132.762L569.376 -51.597C550.571 -45.7646 531.23 -24.7496 522.085 20.3882C507.471 69.2028 488.871 121.687 433.023 142.182C393.557 157.738 359.846 175.703 348.931 236.965C341.912 275.869 319.892 327.832 258.609 348.858C204.29 365.448 190.688 400.737 178.431 445.146C159.24 508.931 123.35 545.425 76.4176 557.303C58.3275 561.32 44.1864 567.721 28.2834 596.562L-24.4907 607.651L-36.3525 540.104Z" fill="white" stroke="black" stroke-width="1.11612"/>
<path d="M332.191 374.031C323.912 309.107 417.627 364.287 455.149 423.048L488.431 414.623C492.261 367.767 501.943 322.461 518.742 290.451C526.355 275.945 534.678 264.114 542.806 255.976C571.303 227.443 593.948 240.353 565.903 315.824C604.921 281.039 596.512 230.145 565.887 233.417C508.224 234.298 494.714 321.522 481.955 380.541C488.328 316.79 511.853 248.6 534.466 180.644C501.01 246.081 476.559 316.977 471.601 399.688C475.708 359.662 469.412 333.839 487.132 275.232C504.289 227.623 513.279 179.475 497.856 129.713C500.874 174.007 495.717 218.301 477.148 262.594C466.37 286.197 464.939 303.983 461.986 322.717L461.616 249.957L459.767 241.532L456.439 252.255V338.034C452.66 317.626 443.253 297.405 435.207 277.966C430.437 266.443 428.002 254.489 425.746 243.447C420.641 229.694 420.154 214.575 419.829 199.409C415.091 225.732 411.108 260.976 433.142 297.059L457.548 369.819L462.726 407.347C453.584 376.529 438.093 350.693 420.938 326.163L405.037 316.207L416.871 331.141C431.505 354.756 444.813 378.371 454.59 401.986C398.467 324.05 282.327 316.191 332.187 374.031H332.191Z" fill="#FCDD07" stroke="black"/>
<path d="M406.902 339.142C398.824 337.921 390.518 332.566 387.616 326.706C386.747 324.951 386.47 322.959 386.883 321.433C387.064 320.767 386.992 320.685 385.848 320.244C379.428 317.77 374.842 312.228 375.908 308.233L376.164 307.27L374.308 306.148C370.687 303.959 368.366 300.759 368.366 297.956C368.366 297.014 368.26 296.549 368.045 296.549C367.868 296.549 366.807 296.071 365.687 295.488C363.391 294.293 361.463 292.52 360.639 290.847C359.964 289.477 359.905 287.376 360.507 286.168C360.741 285.7 360.933 285.269 360.933 285.212C360.933 285.153 360.487 284.969 359.942 284.799C358.589 284.38 356.065 282.649 355.043 281.44C353.49 279.604 352.992 277.287 353.801 275.666C354.167 274.932 355.85 273.231 356.218 273.223C356.319 273.223 356.562 273.115 356.756 272.987C357.033 272.805 356.873 272.444 356.022 271.329C353.691 268.276 352.521 264.66 353.117 262.353C353.562 260.63 354.079 259.934 355.41 259.267C357.864 258.036 361.531 259.373 364.72 262.658L366.567 264.56L366.998 263.804C367.235 263.389 367.953 262.731 368.592 262.342C370.172 261.384 372.092 261.513 373.686 262.686C375.136 263.753 376.817 266.36 377.527 268.644L378.102 270.49L379.553 270.474C380.351 270.458 381.293 270.617 381.646 270.809C383.865 272.016 385.792 274.605 386.837 277.784L387.454 279.659H388.625C391.547 279.659 394.883 282.754 396.873 287.296L397.46 288.636L398.805 288.654C402.375 288.702 406.157 292.423 408.318 298.012C408.737 299.096 409.081 300.084 409.082 300.207C409.082 300.329 409.201 300.866 409.343 301.398C409.589 302.317 409.671 302.375 410.934 302.53C413.522 302.847 416.876 305.618 419.444 309.559C424.648 317.545 426.114 328.279 422.725 333.578C422.071 334.601 419.723 335.948 418.595 335.948C418.08 335.948 417.642 336.202 417.185 336.764C415.45 338.9 411.448 339.823 406.901 339.136L406.902 339.142ZM404.617 318.462C404.489 318.061 403.127 317.843 403.127 318.224C403.127 318.478 403.638 318.7 404.378 318.766C404.568 318.782 404.676 318.647 404.617 318.462V318.462ZM459.596 257.139C459.261 256.992 458.635 256.613 458.206 256.296C457.624 255.867 457.018 255.714 455.832 255.695C447.698 255.564 438.953 238.997 441.323 228.208C441.805 226.013 442.921 224.087 444.143 223.341C445.103 222.754 445.106 222.614 444.197 220.752C442.886 218.065 442.11 213.638 442.479 210.946C442.781 208.749 443.853 206.607 445.067 205.775L446.056 205.097L445.512 203.577C445.073 202.348 444.966 201.416 444.951 198.706C444.931 195.066 445.237 193.994 446.695 192.585L447.343 191.959L446.691 190.484C445.354 187.46 444.965 184.318 445.638 181.99C446.024 180.659 447.643 178.912 448.694 178.694C449.117 178.607 449.463 178.444 449.463 178.334C449.463 178.222 449.179 177.468 448.833 176.657C447.094 172.586 447.49 168.454 449.781 166.763C450.442 166.274 450.968 166.137 452.181 166.137C453.035 166.137 454.054 166.231 454.446 166.343L455.158 166.549V164.992C455.158 162.047 456.194 159.121 457.952 157.104C459.685 155.115 461.783 154.722 463.667 156.032C465.885 157.575 467.099 160.497 467.157 164.436L467.195 167.024L468.878 166.992C470.942 166.952 471.968 167.46 472.956 169.007C473.613 170.036 473.667 170.325 473.667 172.82C473.667 175.32 473.599 175.678 472.759 177.663L471.851 179.808L472.893 180.88C475.041 183.09 475.164 187.12 473.218 191.523L472.58 192.965L473.575 194.126C474.869 195.636 475.225 196.935 475.197 200.047C475.18 201.996 475.023 203.069 474.529 204.619L473.883 206.646L474.843 207.599C477.688 210.424 477.68 216.904 474.824 223.014L473.786 225.236L474.687 226.647C477.907 231.688 476.293 242.4 471.121 250.308C469.599 252.635 466.656 255.534 464.871 256.464C463.223 257.322 460.74 257.64 459.597 257.139L459.596 257.139ZM459.039 232.631C458.36 231.925 458.116 232.266 458.671 233.145C459.007 233.675 459.173 233.766 459.331 233.503C459.462 233.284 459.352 232.956 459.039 232.631V232.631ZM530.331 193.483C529.438 193.022 528.813 192.444 528.302 191.607C527.798 190.782 527.385 190.396 527.004 190.396C526.192 190.396 524.276 189.054 523.14 187.691C519.929 183.836 518.235 175.915 519.098 168.79C519.97 161.591 522.844 156.467 526.554 155.5L527.696 155.202L527.568 153.7C527.409 151.85 527.777 147.854 528.26 146.172C529.329 142.442 531.455 139.919 534.007 139.351C534.809 139.172 534.811 139.167 534.972 136.973C535.235 133.379 536.209 130.834 538.016 129.018C538.587 128.444 539.379 127.901 539.777 127.811L540.5 127.646V124.911C540.485 120.742 541.338 118.393 543.504 116.588C544.272 115.947 544.793 115.752 545.963 115.665L547.448 115.553L547.364 113.589C547.212 110.053 548.404 106.897 550.431 105.471C551.719 104.565 554.063 104.718 555.58 105.806C556.167 106.228 556.674 106.524 556.707 106.466C556.741 106.406 557.17 105.514 557.661 104.482C558.851 101.984 561.447 99.2514 563.22 98.63C564.805 98.0746 565.416 98.0703 566.706 98.6057C569.809 99.8913 570.484 105.433 568.196 110.829L567.778 111.814L568.615 111.995C569.942 112.281 571.61 113.408 572.093 114.345C572.365 114.873 572.54 115.828 572.547 116.819C572.563 119.059 571.419 121.417 569.218 123.685L567.565 125.389L568.12 126.194C568.572 126.851 568.673 127.372 568.664 129.01C568.649 131.62 567.781 133.521 565.419 136.111L563.706 137.991L564.193 139.063C565.015 140.868 564.73 143.517 563.419 146.256C562.836 147.476 561.886 149.029 561.31 149.707C560.135 151.089 560.089 151.273 560.68 152.207C561.256 153.117 561.446 156.042 561.033 157.621C560.256 160.587 558.203 163.843 555.356 166.624C553.502 168.435 553.499 168.44 553.792 169.359C554.628 171.981 553.746 176.428 551.629 180.264C546.371 189.794 535.849 196.326 530.339 193.483L530.331 193.483ZM537.397 170.398C537.443 170.255 537.308 169.9 537.098 169.611C536.734 169.113 536.714 169.132 536.706 169.979C536.706 170.808 537.173 171.095 537.397 170.398V170.398Z" fill="black"/>
<path d="M407.053 337.136C404.794 336.836 400.397 335.322 398 334.019C392.537 331.049 388.522 326.442 388.522 323.144C388.522 321.443 389.162 320.53 390.909 319.739C394.864 317.949 402.166 319.389 408.319 323.171C410.962 324.796 414.583 328.455 415.53 330.457C417.268 334.135 415.802 336.505 411.378 337.168C409.41 337.462 409.515 337.463 407.053 337.135V337.136ZM418.675 332.32C418.159 328.427 414.144 323.724 408.516 320.42C407.004 319.532 406.643 319.186 406.421 318.409C405.385 314.787 405.362 309.589 406.371 307.211C407.217 305.218 408.155 304.47 409.811 304.47C411.421 304.47 412.903 305.282 414.886 307.251C417.507 309.853 419.594 313.514 421.01 317.991C423.024 324.357 422.821 330.211 420.497 332.762C419.299 334.078 418.896 333.98 418.676 332.32H418.675ZM385.903 318.287C382.712 316.948 379.198 314.051 378.101 311.855C377.341 310.335 377.344 308.345 378.117 307.234C379.316 305.493 383.505 304.204 386.689 304.597C394.485 305.558 400.94 309.828 401.821 314.606C402.043 315.816 401.396 317.43 400.766 317.233C398.275 316.45 393.649 316.239 391.584 316.815C390.317 317.169 388.127 318.268 387.886 318.672C387.677 319.021 387.643 319.014 385.911 318.287H385.903ZM401.903 309.805C400.762 308.295 398.371 306.389 396.02 305.115C395.118 304.626 394.263 304.009 394.119 303.745C393.975 303.48 393.809 301.935 393.749 300.31C393.526 294.333 395.41 290.531 398.594 290.531C401.637 290.531 405.005 294.321 406.783 299.746L407.53 302.023L406.299 303.145C404.552 304.737 403.287 307.562 403.28 309.882C403.28 310.427 403.19 310.925 403.083 310.991C402.977 311.057 402.445 310.522 401.903 309.805ZM374.544 304.251C371.524 302.243 369.884 299.955 369.884 297.748C369.884 296.815 370.045 296.467 370.867 295.616C372.294 294.138 374.163 293.634 377.511 293.824C381.834 294.07 385.813 295.721 388.779 298.501C390.344 299.967 390.979 300.917 391.392 302.406C391.599 303.153 391.577 303.181 390.907 303.031C384.946 301.695 379.465 302.486 377.27 304.997C377.008 305.297 376.724 305.542 376.639 305.542C376.556 305.542 375.612 304.961 374.544 304.251V304.251ZM391.117 297.911C390.469 297.102 387.931 295.193 386.325 294.307C385.472 293.836 384.668 293.255 384.539 293.016C384.153 292.301 384.032 287.809 384.357 286.239C384.785 284.17 385.64 282.555 386.648 281.91C389.144 280.313 392.81 282.811 394.938 287.561L395.59 289.014L394.83 289.717C393.107 291.311 392.246 293.195 391.778 296.396C391.518 298.169 391.45 298.326 391.117 297.911ZM366.357 294.023C360.291 290.884 359.903 285.783 365.613 284.243C372.006 282.518 380.756 286.617 380.756 291.336V292.158L379.398 291.947C375.171 291.293 370.776 292.336 369.137 294.381C368.641 295 368.114 294.932 366.357 294.023ZM380.934 287.282C379.939 285.929 377.532 284.111 375.959 283.522C375.33 283.286 375.069 282.997 374.956 282.41C374.507 280.085 375.118 276.248 376.258 274.233C378.653 270.002 383.18 272.179 385.262 278.563L385.687 279.864L384.746 280.942C383.447 282.431 382.559 284.642 382.382 286.831C382.301 287.834 382.164 288.648 382.078 288.639C381.991 288.623 381.477 288.02 380.934 287.282V287.282ZM360.177 283.156C356.898 281.761 354.871 279.593 354.871 277.482C354.871 276.468 355.01 276.125 355.726 275.385C356.802 274.27 358.774 273.643 361.205 273.643C367.336 273.643 373.002 277.847 371.866 281.553C371.716 282.044 371.473 282.089 368.917 282.09C366.124 282.09 364.051 282.556 362.773 283.466C362.103 283.943 361.998 283.93 360.177 283.156V283.156ZM373.005 278.028C372.97 277.248 370.553 274.978 368.719 274.003L366.78 272.973L366.729 271.767C366.571 268.114 367.171 265.669 368.583 264.206C369.681 263.069 370.858 262.864 372.189 263.577C373.792 264.435 375.842 267.795 376.236 270.21C376.384 271.117 376.313 271.385 375.77 271.991C374.701 273.182 374.218 274.14 373.605 276.285C373.283 277.412 373.013 278.196 373.005 278.028H373.005ZM364.06 272.275C363.633 272.137 362.24 272.044 360.965 272.068L358.646 272.111L357.421 270.732C356.748 269.973 355.811 268.541 355.339 267.55C354.608 266.012 354.482 265.462 354.482 263.804C354.482 262.037 354.546 261.794 355.201 261.118C355.822 260.475 356.119 260.376 357.401 260.386C359.468 260.402 361.609 261.626 363.825 264.058L365.52 265.919L365.311 267.704C365.196 268.686 365.134 270.182 365.174 271.03C365.213 271.878 365.153 272.561 365.041 272.548C364.928 272.532 364.487 272.413 364.06 272.275L364.06 272.275ZM460.015 255.146C459.371 254.863 459.391 254.774 460.439 253.329C461.443 251.944 462.038 249.261 462.038 246.119C462.038 243.111 461.834 241.751 460.834 238.106L460.168 235.675L460.746 234.488C461.633 232.667 463.762 229.803 465.19 228.509C467.745 226.194 470.286 225.468 471.791 226.624C475.11 229.172 474.925 237.223 471.367 245.126C468.373 251.775 463.049 256.475 460.015 255.146V255.146ZM453.732 253.188C450.711 251.879 447.952 248.737 445.636 243.964C442.497 237.498 441.725 230.049 443.805 226.298C444.548 224.96 445.92 224.195 447.193 224.409C454.175 225.582 461.497 240.838 459.313 249.662C458.445 253.168 456.509 254.391 453.732 253.188V253.188ZM456.257 228.523C454.877 226.52 452.489 224.166 450.796 223.139C450.13 222.735 448.863 222.252 447.981 222.067L446.377 221.731L445.544 219.73C444.603 217.472 443.918 214.451 443.918 212.556C443.918 210.785 444.585 208.64 445.446 207.642C446.077 206.91 446.377 206.786 447.77 206.682C449.172 206.577 449.574 206.666 451.022 207.405C454.129 208.989 456.861 212.144 458.833 216.425C459.448 217.758 460.14 219.688 460.372 220.713C460.942 223.236 460.783 226.724 460.028 228.233C459.474 229.341 458.49 230.217 457.799 230.217C457.593 230.217 456.899 229.455 456.257 228.523V228.523ZM462.911 225.772C463.14 223.683 462.732 220.791 461.804 217.918L461.061 215.617L461.854 214.406C463.052 212.579 465.887 209.807 467.444 208.94C469.291 207.911 471.648 207.701 472.81 208.461C475.617 210.296 475.554 216.849 472.676 222.662L472.199 223.624L470.285 223.64C468.671 223.656 468.108 223.787 466.693 224.508C465.771 224.978 464.503 225.818 463.876 226.373L462.736 227.384L462.912 225.775L462.911 225.772ZM458.878 211.922C456.197 207.562 451.499 204.234 448.005 204.219C447.386 204.219 447.253 204.049 446.875 202.808C446.214 200.637 446.087 196.955 446.623 195.503C448.096 191.507 452.564 192.274 456.499 197.199C459.037 200.376 461.019 205.53 460.991 208.882C460.975 210.327 460.273 212.835 459.838 212.976C459.695 213.023 459.264 212.548 458.878 211.922ZM462.747 207.469C462.671 206.333 462.299 204.452 461.912 203.244L461.214 201.066L461.929 199.893C462.981 198.167 465.377 195.795 466.841 195.031C468.577 194.125 469.626 193.926 470.712 194.298C473.313 195.187 474.071 199.503 472.506 204.503C472.15 205.641 472.068 205.721 471.361 205.613C469.591 205.344 466.806 206.44 464.338 208.377L462.885 209.517L462.747 207.469H462.747ZM457.193 195.125C454.813 192.459 452.35 191.013 450.017 190.914C448.624 190.854 448.445 190.778 448.099 190.093C446.714 187.357 446.3 183.733 447.158 181.861C448.352 179.254 451.524 179.399 455.183 182.226C458.766 184.995 461.473 191.064 460.744 194.697C460.491 195.962 459.718 197.269 459.245 197.231C459.143 197.215 458.221 196.275 457.193 195.125V195.125ZM462.489 193.669C462.564 191.525 462.475 190.932 461.83 188.983L461.087 186.752L461.787 185.75C463.418 183.419 466.528 181.309 468.768 181.015C470.254 180.819 471.528 181.501 472.206 182.853C473.085 184.606 472.692 188.37 471.347 191.102C470.885 192.039 470.802 192.082 469.23 192.213C467.26 192.377 465.508 193.234 463.698 194.919L462.404 196.123L462.489 193.669H462.489ZM531.532 191.986C531.242 191.919 530.677 191.591 530.276 191.26L529.547 190.658L530.837 189.828C534.095 187.731 536.412 182.035 537.002 174.67L537.146 172.869L539.003 171.423C543.398 168.001 547.956 166.633 550.076 168.099C552.485 169.766 552.397 173.489 549.828 178.583C546.341 185.499 538.892 191.616 533.483 192.008C532.699 192.064 531.822 192.054 531.532 191.987L531.532 191.986ZM525.845 187.711C522.852 185.608 520.948 180.67 520.633 174.193C520.352 168.406 521.353 163.449 523.46 160.204C525.702 156.749 527.938 156.352 530.406 158.97C531.718 160.361 533.026 163.12 533.748 166.017C534.518 169.109 534.712 174.88 534.157 178.17C533.141 184.185 530.43 188.4 527.576 188.4C527.163 188.4 526.384 188.09 525.845 187.711V187.711ZM457.5 181.958C456.082 180.474 454.122 179.235 451.602 178.231C449.782 177.506 448.393 171.376 449.532 169.103C450.137 167.898 451.005 167.443 452.46 167.569C454.081 167.709 455.383 168.415 457.166 170.125C461.337 174.124 462.954 181.137 460.17 183.156C459.853 183.386 459.47 183.575 459.319 183.575C459.169 183.575 458.35 182.847 457.5 181.958V181.958ZM463.027 179.827C463.096 178.149 462.984 177.357 462.441 175.685C461.773 173.626 461.772 173.615 462.27 172.892C463.072 171.724 465.245 169.73 466.349 169.147C470.792 166.799 473.448 170.451 471.385 176.069C471.087 176.88 470.611 177.935 470.327 178.415C469.884 179.163 469.666 179.286 468.775 179.286C467.49 179.286 465.585 180.018 464.085 181.088L462.944 181.902L463.028 179.827H463.027ZM459.611 170.454C458.942 169.573 457.936 168.516 457.375 168.105C456.366 167.365 456.354 167.338 456.349 165.604C456.334 162.379 457.672 158.722 459.338 157.407C459.9 156.963 460.485 156.769 461.261 156.769C462.22 156.769 462.511 156.915 463.329 157.804C464.694 159.291 465.443 161.86 465.453 165.095L465.467 167.599L464.468 168.399C463.918 168.839 462.876 169.842 462.151 170.627L460.832 172.055L459.618 170.454H459.611ZM536.477 166.922C536.41 166.719 536.226 166.01 536.067 165.347C534.975 160.778 532.993 157.426 530.326 155.636L529.019 154.759L529.158 151.274C529.236 149.319 529.468 147.245 529.685 146.551C531.948 139.316 537.057 139.268 540.486 146.449C542.005 149.63 542.582 152.252 542.609 156.099C542.642 160.959 541.543 164.416 539.389 166.221C538.346 167.096 536.666 167.5 536.477 166.923L536.477 166.922ZM542.972 165.213C543.981 163.343 544.634 160.617 544.8 157.582C544.977 154.342 544.906 154.449 547.979 152.781C550.514 151.406 552.342 150.868 554.433 150.884C556.377 150.9 557.623 151.422 558.44 152.567C559.227 153.67 559.179 156.636 558.341 158.645C557.518 160.621 555.865 162.996 553.98 164.91L552.43 166.484L550.97 165.745C549.623 165.062 549.338 165.016 547.256 165.145C545.871 165.231 544.487 165.498 543.668 165.838L542.335 166.39L542.971 165.213H542.972ZM544.52 151.651C544.459 151.443 544.203 150.431 543.949 149.402C542.905 145.161 539.973 140.796 537.329 139.546L536.053 138.943L536.212 137.468C536.61 133.774 537.523 131.385 539.075 129.975C539.952 129.177 540.157 129.109 541.379 129.214C542.228 129.287 543.031 129.559 543.569 129.956C544.61 130.723 546.219 133.252 546.961 135.285C547.589 137.007 548.236 140.734 548.237 142.64C548.237 144.48 547.521 147.821 546.818 149.247C546.078 150.747 544.681 152.208 544.52 151.651H544.52ZM549.299 148.284C549.637 147.291 549.886 145.705 549.979 143.955L550.126 141.193L551.258 140.386C553.024 139.128 555.465 138.053 557.2 137.769C563.044 136.812 564.421 141.735 560.03 147.882C559.004 149.318 558.727 149.555 558.251 149.399C555.75 148.579 554.978 148.442 553.674 148.584C552.322 148.731 550.187 149.247 549.214 149.662C548.805 149.836 548.813 149.715 549.298 148.284H549.299ZM549.406 136.597C548.452 133.691 548.117 132.862 547.4 131.627C546.288 129.712 544.194 127.745 542.81 127.316L541.71 126.975L541.838 124.247C541.997 120.864 542.326 119.729 543.536 118.385C547.235 114.279 553.157 121.166 553.157 129.573C553.157 130.986 552.989 132.593 552.758 133.398C552.14 135.555 549.798 137.79 549.406 136.597H549.406ZM553.26 136.426C554.121 135.44 554.767 133.114 554.935 130.388L555.098 127.73L556.651 126.849C559.416 125.282 562.814 124.708 564.62 125.505C565.078 125.707 565.744 126.2 566.1 126.599C566.954 127.559 566.973 129.795 566.143 131.577C565.526 132.905 563.881 135.079 562.872 135.9C562.267 136.393 562.165 136.399 561.05 136.007C559.327 135.401 557.299 135.487 555.073 136.261C552.761 137.065 552.695 137.071 553.259 136.426L553.26 136.426ZM554.282 124.016C554.14 123.822 553.812 123.075 553.556 122.355C552.898 120.515 551.114 117.911 549.86 116.962C548.991 116.304 548.764 115.945 548.614 114.993C548.06 111.47 549.261 107.508 551.176 106.54C552.034 106.106 552.314 106.08 553.197 106.354C554.608 106.792 556.136 108.466 557.177 110.717C558.319 113.184 558.661 114.994 558.552 117.995C558.422 121.563 557.273 123.698 555.208 124.204C554.796 124.304 554.443 124.233 554.282 124.016V124.016ZM559.202 122.435C559.876 121.028 560.012 120.398 560.102 118.264L560.208 115.75L562.324 114.664C564.039 113.784 564.806 113.55 566.37 113.433C568.106 113.302 568.39 113.352 569.202 113.926C570.386 114.765 570.804 115.638 570.675 117.004C570.513 118.707 569.525 120.538 567.748 122.426C566.518 123.734 566.027 124.093 565.666 123.947C564.21 123.361 562.366 123.189 560.778 123.492C559.87 123.666 558.966 123.871 558.768 123.95C558.542 124.04 558.702 123.48 559.202 122.435H559.202ZM559.508 112.408C559.272 111.522 558.737 110.165 558.318 109.393C557.9 108.621 557.557 107.813 557.557 107.598C557.557 106.917 559.608 103.07 560.477 102.121C563.411 98.9166 566.413 98.8712 567.415 102.016C567.895 103.522 567.565 107.251 566.772 109.297C565.941 111.44 565.547 111.895 564.341 112.104C563.813 112.196 562.607 112.664 561.66 113.145L559.938 114.02L559.508 112.408V112.408Z" fill="#FCDD07"/>
<path d="M563.848 242.814C587.613 232.056 600.811 270.166 566.331 316.169" stroke="#105896" stroke-width="0.772902"/>
<path d="M333.615 356.688C336.193 336.975 371.284 332.825 422.972 368.41" stroke="#105896" stroke-width="0.772902"/>
<path d="M58.1634 256.562C57.2761 255.79 56.1239 254.441 55.6028 253.565C54.7982 252.212 54.6556 251.585 54.6556 249.403C54.6556 247.155 54.7947 246.584 55.7711 244.824C57.0439 242.529 56.9478 242.021 55.0287 240.902C54.3665 240.516 53.4661 239.652 53.0276 238.983C52.554 238.261 51.9491 237.766 51.5375 237.765C49.1752 237.754 46.3091 239.534 45.4752 241.524C45.2381 242.09 44.9366 242.554 44.8051 242.554C44.333 242.554 43.593 238.913 43.6201 236.723C43.6667 232.978 45.6345 230.296 49.6342 228.525C50.681 228.061 51.5888 227.651 51.6514 227.613C51.7141 227.575 51.8163 226.392 51.8785 224.985L51.9916 222.426L50.3425 222.21C49.3749 222.083 47.7321 222.192 46.367 222.476L44.0403 222.958L44.2617 221.539C45.0832 216.271 49.8076 213.507 56.3878 214.445C57.7216 214.635 59.5925 214.703 60.5452 214.595C62.9466 214.324 63.9899 215.153 64.5396 217.771C64.7611 218.826 64.8732 220.155 64.7886 220.724C64.5681 222.209 65.1548 224.577 65.9107 225.253C66.8584 226.101 69.2518 226.027 71.1014 225.093C73.5763 223.843 74.4714 223.056 77.2137 219.72C78.6354 217.99 81.8879 214.58 84.4416 212.142L89.0848 207.71L88.1756 207.3C87.1215 206.826 84.7283 205.018 83.8359 204.023C81.3168 201.214 79.7725 197.81 79.0776 193.535L78.6533 190.924L76.8324 190.739C74.4946 190.5 72.8299 189.625 70.246 187.277L68.1672 185.388L71.2853 185.366C74.9521 185.339 77.9242 184.45 80.8518 182.503C81.8784 181.821 85.0107 179.115 87.8126 176.489C91.5447 172.993 93.4909 171.432 95.0912 170.653C97.6939 169.387 100.28 169.003 102.135 169.608C103.429 170.03 103.481 170.014 104.471 168.88C110.527 161.941 114.18 158.82 117.492 157.758C118.565 157.414 119.578 157.022 119.743 156.888C119.909 156.754 119.402 156.32 118.617 155.924C117.833 155.528 117.19 154.976 117.19 154.697C117.19 154.079 116.953 154.078 121.512 154.711C123.574 154.997 125.314 155.179 125.379 155.115C125.443 155.051 123.318 153.276 120.656 151.17L115.817 147.341H111.016C103.827 147.341 99.1302 145.903 95.2257 142.505L93.7325 141.206L92.7751 142.194C91.2291 143.789 88.6649 144.701 85.6151 144.739L82.9687 144.772L84.1028 146.014C84.7265 146.697 85.6338 147.93 86.119 148.754C87.0815 150.388 88.5296 153.848 88.2513 153.848C88.1559 153.848 87.2617 153.397 86.2642 152.845C83.9173 151.547 80.9739 150.818 76.9455 150.536L73.7105 150.31L74.9585 151.822C76.7239 153.961 77.3777 155.363 77.5993 157.486L77.7923 159.334L75.7514 158.389C73.9958 157.576 73.2746 157.444 70.5924 157.446C68.1201 157.446 67.1337 157.603 65.8297 158.197C64.2395 158.921 64.1976 158.978 64.5651 159.908C64.7742 160.437 65.1439 161.977 65.3869 163.331C65.9135 166.266 65.5684 168.739 64.3739 170.589C63.5432 171.875 61.8429 173.595 61.6507 173.343C61.5901 173.263 61.0994 172.197 60.56 170.973C58.3127 165.872 55.8115 162.324 54.8686 162.9C54.7078 162.998 54.2278 164.712 53.8018 166.709C52.9266 170.812 53.0876 172.273 54.7201 175.043L55.6052 176.544L54.2642 176.301C49.2669 175.396 44.8616 171.173 43.6139 166.092C43.4866 165.574 43.2458 165.15 43.0787 165.15C42.9116 165.15 41.6113 166.373 40.1893 167.868C38.33 169.821 37.3321 171.216 36.6368 172.834C36.105 174.071 35.5667 175.083 35.4405 175.083C35.1029 175.083 33.9003 173.396 32.9905 171.647C32.4411 170.591 32.1467 169.321 32.0405 167.548C31.9045 165.279 32.0328 164.543 33.1406 161.24C33.8303 159.183 34.7955 156.981 35.2855 156.346L36.1764 155.191L35.1956 155.425C31.343 156.343 28.6737 158.006 27.289 160.35C26.7307 161.295 26.1755 162.068 26.0552 162.068C25.7037 162.068 25.0504 159.586 24.8144 157.354C24.5667 155.012 25.5112 151.407 26.8644 149.53C29.0206 146.538 28.9845 146.613 28.5782 145.97C28.2451 145.443 28.4653 145.092 30.0749 143.587C34.7988 139.171 37.9812 139.774 40.9845 145.656C42.3532 148.336 43.1526 148.712 45.3005 147.684C47.4322 146.663 54.5843 139.594 56.3981 136.714C57.5334 134.911 58.31 134.161 60.5555 132.697C62.0743 131.708 63.4336 130.783 63.5764 130.642C63.7191 130.502 65.7458 128.442 68.0802 126.064C70.4147 123.686 72.9448 121.259 73.7028 120.67L75.0809 119.599L73.876 119.586C70.5839 119.554 58.9862 116.733 58.9862 115.965C58.9862 115.71 59.4149 115.408 59.9389 115.293C65.0888 114.166 67.2919 112.607 73.1807 105.925C74.9882 103.874 75.256 103.431 74.5659 103.637C74.0954 103.777 71.8294 103.978 69.5303 104.083C66.3515 104.228 64.65 104.134 62.4279 103.692C59.8379 103.177 55.8738 101.771 55.0516 101.076C54.8883 100.938 56.1307 100.41 57.8124 99.9029C60.9731 98.9499 66.2617 96.5173 66.2617 96.0167C66.2617 95.8603 65.6606 95.5541 64.9259 95.3366C64.1912 95.1189 62.8748 94.3184 62.0005 93.5578C59.8714 91.705 58.6638 89.1902 58.398 86.0558L58.188 83.5802L56.9414 84.9447C55.6248 86.3858 53.5643 87.8421 51.0738 89.0919L49.5709 89.8461L49.8185 89.0532C49.9547 88.6171 50.2899 87.8258 50.5633 87.2947C50.8366 86.7636 51.2846 85.1704 51.5587 83.7539C52.0899 81.0095 52.2418 75.0742 51.781 75.0742C51.6291 75.0742 50.8886 75.7037 50.1354 76.4732C49.3821 77.2426 48.2202 78.1487 47.5532 78.4871C46.446 79.0486 43.3958 79.7618 43.3958 79.4593C43.3958 79.3893 43.7076 78.4545 44.0886 77.3827C44.9977 74.8257 44.9977 71.5608 44.0885 69.1585C42.8961 66.0081 42.8865 66.0027 40.2217 66.9944C36.9747 68.2025 34.876 68.4139 32.6164 67.7602C30.8761 67.2568 28.1518 65.4537 28.1518 64.8053C28.1518 64.6478 29.2821 63.9049 30.6636 63.1546C34.0535 61.3137 37.4722 58.7826 37.8237 57.8535C38.1875 56.8921 37.8999 56.7773 33.8113 56.2519C30.083 55.7729 28.4127 56.0808 26.1386 57.6658C25.3172 58.2385 24.566 58.6286 24.4692 58.533C24.3723 58.4369 24.4575 57.4853 24.6562 56.4174C25.1413 53.8234 26.8948 50.662 28.7387 49.0576C30.1132 47.8616 33.5855 45.9621 34.3974 45.9621C35.0566 45.9621 34.7127 45.4016 33.0887 43.8291C31.1038 41.907 28.0599 40.0526 25.9158 39.4592C25.0496 39.2193 24.3408 38.8437 24.3408 38.6244C24.3408 38.0182 27.5014 35.7653 29.2243 35.1433C31.5358 34.3088 35.0845 34.4525 38.9112 35.5352C40.7108 36.0443 42.612 36.7598 43.136 37.125C43.66 37.4902 44.0886 37.7175 44.0886 37.6302C44.0886 37.5437 43.606 36.338 43.016 34.9525C41.7571 31.9967 40.1432 30.2048 37.7204 29.073L35.9722 28.2565L38.0384 27.4656C42.0501 25.9302 47.0191 26.5095 50.36 28.902C51.6049 29.7934 51.9334 29.8922 52.4969 29.5443C53.0409 29.2085 53.2995 29.2451 53.9092 29.7448C59.3657 34.2157 59.9811 36.9063 56.2993 40.1947C55.559 40.8557 54.2968 41.7615 53.4943 42.2074C51.2626 43.4473 51.1829 44.9191 53.2096 47.4649C54.9849 49.6949 61.1148 54.8675 63.2594 55.9452C65.7219 57.1827 67.9366 59.1513 69.3961 61.3995C70.0503 62.4074 71.6941 64.0123 73.4861 65.3924C77.2825 68.3167 81.6324 72.4299 84.1662 75.4916L86.1361 77.8719L87.3597 75.9233L88.5833 73.9745L89.5751 76.0319C90.7551 78.4797 93.011 80.9099 95.0794 81.9614C97.3117 83.0963 101.175 83.2416 103.735 82.2868C104.813 81.8845 106.294 81.0866 107.026 80.5143C108.626 79.2619 110.743 76.2593 110.488 75.6032C110.367 75.2908 109.51 75.0788 107.945 74.9744C106.647 74.8879 104.75 74.571 103.73 74.2707C102.061 73.7795 101.748 73.7768 100.611 74.2454C99.9166 74.5315 98.7694 75.3231 98.0621 76.0043L96.7761 77.2431L96.3677 76.2445C95.7811 74.8106 95.9218 72.6801 96.6698 71.6665C97.6171 70.383 99.7545 69.4686 102.17 69.3136L104.299 69.1771L104.544 66.9162L104.789 64.6554L106.572 66.6209C108.155 68.3647 108.504 68.5853 109.669 68.5768C111.746 68.5613 114.765 66.6933 114.765 65.4224C114.765 65.2835 113.735 64.8555 112.477 64.4712C109.802 63.6546 103.756 63.5156 99.2865 64.1681C95.4479 64.7285 86.9638 64.7099 84.6237 64.1358C80.0191 63.0063 77.5635 61.1436 77.1583 58.473C76.9627 57.1835 77.081 56.5981 77.8519 55.0405C79.8678 50.9672 85.33 48.3439 90.4533 48.9886L92.2637 49.2164L90.413 50.6429C88.2386 52.3187 86.8298 54.6426 87.1718 55.9895C87.681 57.9953 91.6668 59.6733 95.8697 59.6514C97.0206 59.6406 99.9491 59.4312 102.377 59.1752C107.43 58.6427 110.853 58.8857 113.648 59.9747C114.644 60.3625 115.458 60.5989 115.458 60.5C115.458 59.8156 113.88 57.5156 112.668 56.4327C111.067 55.003 107.53 53.2296 105.69 52.9345C104.613 52.7616 104.427 52.8674 103.508 54.1788L102.504 55.6118L100.964 52.5853C99.4917 49.6906 97.4426 44.3894 97.4426 43.475C97.4426 43.2365 97.1308 42.4661 96.7497 41.7633C95.8564 40.1156 95.8757 39.3953 96.8362 38.5296C97.8734 37.5949 99.3248 37.1757 103.679 36.5527C108.83 35.8156 108.789 35.8301 109.047 34.6699C109.332 33.3852 110.886 32.0734 112.47 31.7797C113.141 31.6552 115.14 31.7797 116.912 32.061C119.013 32.3918 123.15 32.5918 128.797 32.6359L137.458 32.703L142.033 30.4331L146.608 28.1631L146.537 32.8378L146.466 37.5127L149.757 39.4816C152.837 41.3241 153.141 41.4338 154.495 41.1882C157.728 40.6021 160.708 41.8355 160.249 43.5697C159.921 44.8101 157.085 46.3284 154.216 46.7989L152.959 47.005L154.644 50.7366C158.002 58.1775 159.033 62.9033 157.538 64.0057C156.664 64.6496 155.02 64.3997 152.892 63.2996L151.258 62.455L150.894 70.9051C150.508 79.8465 150.152 81.7144 148.628 82.7693C147.934 83.2499 147.936 83.2618 148.813 84.2926C149.299 84.864 149.884 85.8918 150.113 86.5765C150.479 87.672 150.446 87.9299 149.841 88.7257C149.22 89.5421 148.931 89.6302 146.884 89.6302C144.897 89.6302 144.424 89.4961 143.063 88.548L141.51 87.4658L141.389 90.2605C141.228 93.9769 140.472 95.3541 136.466 99.2201C131.555 103.961 131.439 102.707 137.826 113.971C150.439 136.215 156.644 145.247 166.225 155.309C168.896 158.113 169.333 158.429 171.656 159.228C173.868 159.988 174.593 160.076 177.49 159.938C180.355 159.802 181.112 159.628 183.142 158.641C189.583 155.506 191.869 148.116 189.104 139.37C187.908 135.588 185.011 130.052 182.585 126.91C177.105 119.815 173.013 112.602 170.879 106.278C166.806 94.2044 167.961 83.3731 173.92 77.7539C176.214 75.591 177.954 74.6135 180.827 73.8738C182.945 73.3283 187.329 73.2303 190.018 73.6682C193.408 74.2202 195.757 72.4837 198.455 67.4324L200.136 64.2856L201.116 67.3681C202.931 73.0813 202.769 75.5398 200.4 78.2069L199.335 79.4061L202.113 80.529C205.585 81.9325 209.661 84.6014 211.206 86.483C212.837 88.4709 214.105 91.0896 214.761 93.8226C215.201 95.66 215.273 97.2123 215.109 101.347C214.992 104.298 215.051 107.343 215.245 108.368C216.096 112.879 219.063 116.535 224.356 119.597C225.819 120.443 226.965 121.291 226.901 121.48C226.716 122.031 222.621 122.648 219.028 122.665C214.468 122.686 212.075 121.87 209.321 119.348C206.712 116.96 204.824 113.305 203.615 108.296C201.69 100.324 201.319 99.1092 199.973 96.3945C199.203 94.8404 198.464 93.5689 198.33 93.5689C198.196 93.5689 197.724 94.2429 197.282 95.0668C195.911 97.6215 194.41 98.7961 192.295 98.9687C190.725 99.0969 189.863 98.8842 186.221 97.4717C183.887 96.5663 181.977 95.7387 181.977 95.6324C181.977 95.5264 183.263 95.0882 184.835 94.6592C188.434 93.6769 191.355 92.2181 192.013 91.0742C192.472 90.2751 192.459 90.1234 191.874 89.4843C191.518 89.0957 190.666 88.6237 189.98 88.4352C188.122 87.925 184.348 88.0178 182.627 88.6161C178.734 89.9693 177.127 92.0451 177.127 95.7169C177.127 101.076 179.942 107.408 187.367 118.742C196.884 133.271 200.191 141.958 200.144 152.307C200.125 156.599 200.024 157.383 199.184 159.786C198.071 162.967 196.082 165.994 193.991 167.688C191.109 170.022 185.43 172 181.609 172C180.668 172 179.898 172.135 179.898 172.301C179.898 172.466 180.142 173.179 180.441 173.885C180.739 174.59 181.211 176.881 181.489 178.975C181.879 181.911 182.194 183.079 182.866 184.083C184.407 186.385 186.214 186.595 188.135 184.697C189.061 183.781 189.55 182.938 190.512 180.599C190.84 179.802 190.885 179.829 192.189 181.623C192.926 182.637 194.153 184.612 194.917 186.011L196.305 188.555L197.318 187.384C202.329 181.592 202.211 181.873 200.995 178.66C199.893 175.749 200.531 175.56 203.05 178.05C205.772 180.741 206.922 182.995 206.922 185.64V187.658L209.78 187.843C211.352 187.944 213.418 188.289 214.37 188.607C216.937 189.465 219.765 190.934 219.63 191.339C219.564 191.534 218.293 191.733 216.803 191.781C213.516 191.887 211.449 192.825 210.949 194.436C209.73 198.359 208.384 200.427 207.048 200.427C205.881 200.427 207.36 202.464 209.13 203.295C210.849 204.101 212.08 203.987 214.482 202.801C215.653 202.222 216.768 201.845 216.959 201.962C217.469 202.274 215.794 205.353 214.167 207.099C213.412 207.908 212.291 208.769 211.677 209.01C211.062 209.252 210.504 209.491 210.436 209.542C210.368 209.593 210.754 210.242 211.295 210.986C213.155 213.544 215.092 214.268 217.924 213.466C218.542 213.29 219.048 213.219 219.048 213.307C219.048 213.654 217.826 215.387 216.82 216.468C215.163 218.247 213.996 218.702 210.559 218.907L207.441 219.093L209.121 220.877C210.874 222.739 213.701 224.384 215.218 224.426C215.705 224.44 216.408 224.568 216.781 224.712C217.35 224.932 217.1 225.17 215.221 226.2C212.65 227.609 209.798 228.512 207.919 228.512C207.202 228.512 206.521 228.664 206.405 228.85C206.105 229.329 209.095 232.39 211.113 233.671C212.047 234.263 212.811 234.861 212.811 235C212.811 235.596 208.37 236.56 205.623 236.56C204.052 236.56 202.812 236.638 202.868 236.731C204.487 239.437 205.016 241.17 205.011 243.753C205.007 246.129 204.885 246.678 204.09 247.891C203.187 249.27 200.427 251.889 199.179 252.55C198.593 252.86 198.563 252.791 198.827 251.746C199.42 249.393 198.986 247.485 197.404 245.489C196.888 244.838 196.867 244.839 196.093 245.558C195.661 245.959 194.548 246.62 193.621 247.025L191.935 247.763L192.107 249.883C192.325 252.565 193.053 253.956 194.856 255.135C196.234 256.037 196.255 256.076 195.453 256.298C194.063 256.683 189.935 256.621 188.493 256.194C186.618 255.638 184.256 253.487 183.484 251.633C182.893 250.211 182.747 250.092 181.599 250.09C179.643 250.09 177.301 249.247 175.387 247.858L173.627 246.58L171.974 247.696C170.006 249.024 168.825 250.612 168.777 251.994C168.758 252.548 168.637 253.376 168.507 253.835C168.276 254.652 168.244 254.637 167.018 253.15C164.858 250.532 164.135 248.819 164.135 246.322C164.135 243.773 164.88 242.048 167.133 239.384C169.217 236.919 168.571 235.828 165.284 236.259C163.219 236.53 161.653 237.512 160.506 239.255L159.65 240.557L159.36 239.586C158.87 237.945 158.98 233.583 159.544 232.255C159.83 231.582 160.575 230.455 161.2 229.751C162.715 228.046 163.962 227.429 170.074 225.363C170.673 225.16 171.594 225.101 172.121 225.232C173.605 225.6 175.302 227.505 175.765 229.32C176.077 230.548 176.362 230.965 176.998 231.122C179.775 231.811 182.373 229.539 183.8 225.171L184.667 222.518L182.168 219.95C179.718 217.431 177.901 214.758 176.477 211.576L175.763 209.979L172.027 210.202C168.663 210.403 166.656 210.244 163.065 209.493C162.047 209.28 161.952 209.356 161.08 211.099C159.623 214.012 157.81 216.096 153.931 219.317C151.939 220.97 150.274 222.287 150.229 222.243C150.185 222.199 150.682 219.932 151.333 217.204C152.931 210.511 153.435 205.644 152.912 201.952C152.196 196.89 150.926 194.086 147.471 189.933C145.151 187.146 142.688 183.576 141.124 180.734L139.993 178.679L136.993 181.603C133.368 185.135 130.094 187.202 123.9 189.867C118.968 191.989 118.174 192.414 116.028 194.081C112.865 196.539 112.143 200.141 114.035 204.024C115.838 207.725 115.405 207.749 120.255 203.677C122.608 201.701 124.653 200.085 124.799 200.085C125.18 200.085 126.765 202.432 127.394 203.927C127.689 204.627 127.929 205.783 127.927 206.496C127.923 207.988 126.722 210.729 125.386 212.293C124.88 212.885 124.466 213.617 124.466 213.919C124.466 214.765 126.825 217.151 129.256 218.764C130.462 219.564 131.319 220.298 131.159 220.395C131 220.493 129.623 220.827 128.101 221.139C125.621 221.646 124.14 221.64 122.328 221.116C121.81 220.967 121.823 221.139 122.452 222.762C123.254 224.833 123.795 231.595 123.159 231.595C122.957 231.595 122.244 230.863 121.574 229.968C120.07 227.96 116.503 224.51 114.419 223.047L112.859 221.952L112.641 222.921C112.52 223.453 112.403 225.364 112.381 227.166C112.338 230.565 112.844 232.977 114.117 235.448C114.907 236.981 114.842 236.995 111.349 236.038C108.666 235.303 106.438 234.291 104.259 232.819C103.162 232.078 102.968 232.03 103.132 232.539C103.61 234.028 103.993 238.648 103.794 240.529C103.522 243.099 102.845 243.141 101.905 240.645C100.665 237.355 97.9337 235.096 93.7158 233.872L91.8949 233.343L92.1568 234.267C92.3008 234.776 92.4165 236.501 92.4139 238.103C92.4087 241.636 91.6598 243.356 88.7914 246.43L86.8963 248.46L86.662 247.477C86.5331 246.936 86.3258 246.051 86.2013 245.51L85.9749 244.526L84.7699 245.918C84.1071 246.683 83.2662 247.403 82.9012 247.518C82.4617 247.656 82.0507 248.361 81.6844 249.607C80.6576 253.099 77.9566 255.228 73.487 256.07L71.0762 256.524L71.6217 255.79C73.2175 253.642 73.5344 252.919 73.5356 251.425C73.5382 247.863 72.1574 246.552 69.4108 247.51C68.5835 247.799 67.3026 248.035 66.5643 248.035C65.8261 248.035 65.2611 248.167 65.3087 248.328C65.3564 248.489 64.579 249.262 63.5814 250.045C61.2915 251.841 60.3717 253.568 60.3717 256.07C60.3717 257.113 60.2377 257.967 60.074 257.967C59.9103 257.967 59.0504 257.335 58.1631 256.563L58.1634 256.562ZM59.3327 255.044C59.3327 253.468 60.3797 251.654 62.3211 249.865L64.2361 248.101L63.7025 247.081C62.4619 244.709 59.4992 242.497 58.2158 242.984C57.3693 243.305 55.8221 246.625 55.6209 248.552C55.3875 250.788 56.1196 252.992 57.6789 254.748C58.911 256.135 59.3327 256.211 59.3327 255.044ZM193.14 255.573C193.277 255.573 193.005 255.008 192.534 254.323C191.347 252.593 190.873 250.598 191.11 248.332L191.312 246.405L189.761 245.975C187.973 245.48 186.063 245.655 184.32 246.473C183.114 247.038 183.103 247.063 183.421 248.481C184.048 251.284 185.725 253.785 187.634 254.767C188.85 255.393 191.275 255.896 192.198 255.714C192.579 255.639 193.003 255.576 193.14 255.573V255.573ZM76.1011 254.362C79.4601 252.974 81.3022 249.8 81.0913 245.765L80.986 243.752L78.8118 243.65C76.9844 243.564 76.3625 243.696 74.9141 244.475C73.9663 244.985 73.1959 245.57 73.2021 245.776C73.2073 245.981 73.5151 246.997 73.8837 248.033C74.6899 250.299 74.7504 252.097 74.0746 253.696C73.6084 254.798 73.6178 254.883 74.2056 254.883C74.5537 254.883 75.4067 254.649 76.1011 254.362V254.362ZM168.779 249.285C169.507 248.121 171.296 246.724 173.05 245.95C173.835 245.603 173.959 245.381 173.78 244.642C173.254 242.464 171.561 240.188 169.786 239.271C168.887 238.807 168.813 238.841 167.664 240.244C165.69 242.653 165.198 243.866 165.198 246.321C165.198 248.542 165.753 250.137 167.026 251.57C167.558 252.169 167.592 252.158 167.819 251.318C167.95 250.835 168.382 249.92 168.779 249.285V249.285ZM201.982 248.946C202.743 248.13 203.56 246.881 203.797 246.17C204.416 244.315 204.094 241.32 203.056 239.3C202.271 237.77 202.062 237.593 201.099 237.636C199.535 237.707 197.63 239.008 196.493 240.781L195.502 242.326L197.151 243.895C199.06 245.712 199.993 247.452 199.993 249.198C199.993 249.876 200.129 250.431 200.295 250.431C200.462 250.431 201.22 249.763 201.982 248.946V248.946ZM182.264 247.792C182.16 246.625 182.26 246.462 183.536 245.748C185.569 244.609 187.562 244.412 190.068 245.101C191.233 245.421 192.292 245.851 192.42 246.057C192.719 246.536 194.5 245.842 195.348 244.916C195.921 244.289 195.914 244.221 195.185 243.454C194.506 242.74 194.468 242.538 194.849 241.66C195.679 239.742 197.458 237.926 199.346 237.069C200.369 236.605 201.316 236.056 201.451 235.849C201.61 235.605 202.663 235.528 204.449 235.63C207.05 235.779 210.733 235.243 210.733 234.716C210.733 234.587 210.284 234.219 209.736 233.899C208.68 233.283 205.082 229.593 204.515 228.545C204.209 227.98 204.404 227.906 206.693 227.714C209.585 227.473 213.568 226.35 214.198 225.599C214.551 225.179 214.525 225.086 214.055 225.086C212.276 225.086 208.847 222.437 206.418 219.185L205.464 217.907L209.097 217.922C213.185 217.939 214.485 217.559 216.081 215.882L217.099 214.812H215.765C213.825 214.812 211.731 213.454 210.233 211.223C209.534 210.181 209.047 209.193 209.151 209.026C209.255 208.859 209.761 208.619 210.276 208.491C210.79 208.363 211.663 207.941 212.215 207.552C213.206 206.855 215.357 204.199 215.12 203.965C215.053 203.899 214.331 204.078 213.515 204.362C212.699 204.647 211.623 204.876 211.122 204.872C209.449 204.858 207.366 203.633 206.088 201.91C204.666 199.993 204.6 199.742 205.52 199.742C207.481 199.742 209.273 197.575 209.834 194.526C210.191 192.585 212.479 191.164 215.93 190.74C216.745 190.64 216.723 190.601 215.551 190.09C213.633 189.254 210.955 188.783 208.118 188.783C206.698 188.783 205.54 188.667 205.544 188.526C205.548 188.384 205.701 187.652 205.882 186.899C206.344 184.979 205.539 182.431 203.773 180.222C202.995 179.249 202.305 178.505 202.241 178.569C202.176 178.633 202.299 179.334 202.513 180.128C203.009 181.967 202.534 183.019 199.876 185.955C197.47 188.615 197.101 189.289 197.165 190.914C197.218 192.241 196.671 192.679 196.298 191.608C195.393 189.001 194.303 186.723 192.889 184.481C191.458 182.211 191.185 181.939 190.894 182.492C189.208 185.689 187.186 187.273 185.197 186.954C182.648 186.545 181.151 184.175 180.591 179.664C180.122 175.876 179.684 174.199 178.788 172.753C178.403 172.131 178.148 171.562 178.221 171.489C178.295 171.416 179.965 171.193 181.932 170.994C191.597 170.013 196.932 165.707 198.808 157.372C199.659 153.588 199.336 147.752 197.986 142.546C196.131 135.393 193.463 129.885 187.247 120.379C178.882 107.585 176.671 102.901 176.208 96.9941C175.854 92.4848 177.129 90.0655 180.794 88.2913C183.17 87.1415 187.419 86.7226 189.914 87.3924C191.678 87.8659 193.41 89.4081 193.41 90.5055C193.41 91.7675 191.222 93.4414 187.98 94.6588L184.987 95.7825L187.206 96.7869C188.487 97.3663 190.246 97.856 191.363 97.9436C193.144 98.0837 193.4 98.0097 194.532 97.027C195.252 96.4018 196.17 95.0355 196.743 93.7362C197.281 92.514 197.805 91.5142 197.907 91.5142C198.347 91.5142 201.042 95.9884 201.87 98.0926C202.368 99.3557 203.243 102.438 203.815 104.942C205.578 112.655 206.631 115.163 209.283 117.966C212.221 121.071 215.9 122.194 221.303 121.635C222.826 121.477 224.298 121.34 224.575 121.33C224.852 121.319 223.994 120.609 222.669 119.751C218.462 117.025 216.131 114.357 214.828 110.774C214.191 109.023 214.12 108.098 214.17 102.236C214.244 93.657 213.751 91.5588 210.717 87.5369C209.073 85.357 205.666 83.1024 201.157 81.2112C199.278 80.4233 197.693 79.7384 197.634 79.6895C197.575 79.6409 198.305 78.8308 199.256 77.8903C201.675 75.4996 201.944 73.5532 200.518 68.7764L199.916 66.7595L198.74 68.935C197.468 71.2887 195.533 73.4686 194.018 74.2544C193.252 74.652 192.073 74.7035 187.954 74.5199C183.654 74.3281 182.511 74.386 180.764 74.8847C174.942 76.546 171.133 81.1137 169.821 88.0075C169.175 91.4025 169.592 98.1899 170.698 102.287C172.846 110.244 176.901 117.989 183.014 125.808C185.797 129.368 189.18 135.921 190.282 139.886C192.837 149.08 190.367 156.195 183.446 159.577C180.845 160.848 180.736 160.869 176.799 160.863C171.029 160.852 169.62 160.245 165.539 155.996C156.189 146.26 149.713 136.891 137.601 115.579C134.521 110.161 131.948 105.668 131.881 105.595C131.648 105.336 131.055 107.312 130.692 109.558C130.232 112.407 130.726 115.958 132.1 119.684C132.638 121.144 132.94 122.339 132.77 122.339C131.831 122.339 128.261 120.691 126.093 119.256C123.698 117.672 120.256 114.4 118.019 111.582L116.958 110.245L116.893 112.05C116.812 114.319 115.722 116.855 113.852 119.124C111.575 121.888 111.158 122.918 111.262 125.519C111.289 126.179 111.81 126.963 112.946 128.056L114.592 129.638L113.32 129.403C108.866 128.579 106.299 127.105 103.349 123.677C102.31 122.47 101.378 121.482 101.28 121.482C101.181 121.482 100.984 122.154 100.842 122.974C100.7 123.794 100.034 125.455 99.3621 126.664C98.618 128.002 98.0562 129.565 97.9262 130.658C97.7202 132.391 97.7673 132.525 99.2805 134.503C100.143 135.63 100.798 136.602 100.737 136.663C100.676 136.723 100.026 136.609 99.294 136.408C96.8858 135.747 96.6687 135.853 95.4868 138.269L94.3972 140.496L95.908 141.811C96.7389 142.533 98.3986 143.599 99.5961 144.179C103.196 145.921 105.687 146.404 111.301 146.446L116.324 146.484L122.067 151.001C125.225 153.485 128.012 155.758 128.259 156.053C128.837 156.741 128.615 156.742 124.067 156.068C122.136 155.781 120.506 155.595 120.445 155.655C120.385 155.715 122.083 156.76 124.219 157.977L128.104 160.19L128.317 161.914C128.542 163.733 129.273 165.433 130.134 166.14C130.783 166.672 132.985 166.707 134.289 166.207C135.028 165.923 135.217 165.678 135.039 165.233C134.907 164.906 134.346 162.557 133.791 160.014C132.583 154.483 130.827 150.574 128.393 148.002C125.757 145.216 123.734 144.582 121.939 145.978C121.298 146.476 120.979 146.556 120.797 146.265C120.498 145.786 121.765 144.684 122.953 144.389C124.557 143.991 126.128 144.589 128.057 146.332C131.555 149.492 133.295 153.027 134.874 160.176C137.559 172.342 141.962 181.885 148.404 189.508C154.175 196.336 155.401 203.787 152.702 215.632C152.231 217.699 151.895 219.438 151.955 219.498C152.015 219.558 153.221 218.624 154.635 217.425C157.403 215.078 158.815 213.326 160.325 210.368C161.232 208.59 161.262 208.381 160.899 206.429C160.689 205.295 159.943 203.247 159.243 201.878C158.543 200.508 158.061 199.298 158.173 199.188C158.284 199.077 159.213 199.392 160.237 199.888C162.307 200.889 164.978 201.323 166.89 200.968L168.15 200.734L165.947 198.382C163.271 195.525 157.891 186.109 158.558 185.449C158.934 185.078 159.442 185.862 162.112 190.942C164.113 194.749 164.924 195.902 167.324 198.354C168.888 199.951 170.12 201.305 170.062 201.363C170.004 201.419 168.7 201.648 167.164 201.869C164.781 202.213 164.076 202.19 162.353 201.716C161.243 201.41 160.298 201.196 160.253 201.241C160.209 201.285 160.554 202.237 161.02 203.358C161.485 204.478 161.873 205.857 161.88 206.422C161.888 206.987 162.008 207.62 162.148 207.828C162.786 208.776 165.246 209.156 170.777 209.159H176.379L178.197 212.755C179.703 215.732 180.511 216.85 182.895 219.248L185.775 222.144L185.05 224.556C183.296 230.39 180.9 232.608 176.889 232.113C175.132 231.896 175.048 231.839 175.048 230.872C175.048 227.756 171.969 225.124 169.864 226.44C169.425 226.714 169.442 226.932 169.989 228.061C170.935 230.013 171.11 232.98 170.39 234.844C170.062 235.693 169.625 236.387 169.419 236.387C169.212 236.387 169.135 236.478 169.247 236.588C169.359 236.699 169.918 236.448 170.488 236.031C172.23 234.759 173.673 235.28 176.478 238.194C178.793 240.598 178.837 240.624 179.766 240.136C180.284 239.864 181.322 238.87 182.073 237.928C183.558 236.067 184.056 235.707 184.056 236.499C184.056 237.289 181.407 240.417 180.226 241.021C178.811 241.744 178.143 241.467 176.235 239.366C174.455 237.406 173.094 236.393 172.237 236.389C171.929 236.389 171.254 236.716 170.737 237.118L169.797 237.849L171.568 239.381C173.579 241.12 174.531 242.73 174.87 244.97C175.059 246.212 175.335 246.672 176.278 247.31C177.786 248.332 179.764 249.025 181.225 249.044C182.347 249.06 182.375 249.025 182.264 247.791L182.264 247.792ZM201.572 219.424C201.202 219.148 200.291 218.921 199.546 218.921C197.954 218.921 195.835 218.019 195.835 217.341C195.835 216.731 196.226 216.74 197.068 217.369C197.438 217.646 198.411 217.877 199.231 217.883C200.939 217.895 202.765 218.702 202.765 219.444C202.765 220.075 202.435 220.069 201.572 219.424V219.424ZM201.032 214.983C200.763 214.662 199.999 214.469 198.998 214.468C197.394 214.468 195.143 213.47 195.143 212.762C195.143 212.265 195.896 212.352 196.681 212.939C197.051 213.215 198.082 213.442 198.973 213.442C200.628 213.442 202.642 214.518 202.228 215.181C201.942 215.638 201.524 215.569 201.032 214.983ZM200.533 210.177C200.163 209.9 199.251 209.674 198.507 209.674C197.177 209.674 194.796 208.807 194.796 208.322C194.796 207.779 195.272 207.664 195.968 208.04C196.371 208.258 197.607 208.545 198.714 208.678C200.561 208.899 202.072 209.68 202.072 210.412C202.072 210.857 201.281 210.736 200.533 210.177V210.177ZM199.935 205.36C199.627 205.056 198.44 204.704 197.251 204.566C196.019 204.422 194.876 204.077 194.545 203.75C193.67 202.885 194.261 202.675 195.828 203.295C196.602 203.601 197.832 203.852 198.56 203.852C199.404 203.852 200.094 204.079 200.459 204.478C201.512 205.628 201.029 206.441 199.935 205.36V205.36ZM198.801 201.957C198.431 201.68 197.519 201.454 196.774 201.454C195.182 201.454 193.064 200.552 193.064 199.874C193.064 199.283 193.349 199.291 194.45 199.913C194.926 200.182 195.939 200.41 196.702 200.42C198.365 200.44 199.771 201.081 199.929 201.891C200.068 202.607 199.699 202.629 198.801 201.957V201.957ZM198.203 197.141C197.895 196.836 196.708 196.484 195.518 196.346C194.287 196.202 193.144 195.858 192.813 195.53C191.944 194.672 192.573 194.409 193.946 195.057C194.617 195.373 195.75 195.632 196.463 195.632C197.881 195.632 199.3 196.413 199.3 197.192C199.3 197.839 198.89 197.819 198.203 197.141V197.141ZM144.974 171.914C144.753 169.042 144.414 166.153 144.22 165.495C143.779 163.998 143.764 162.41 144.19 162.41C144.61 162.41 144.777 162.985 145.416 166.65C145.975 169.86 146.145 177.137 145.661 177.137C145.504 177.137 145.195 174.787 144.974 171.914H144.974ZM153.358 153.762C148.35 147.845 143.354 141.264 140.924 137.38C138.302 133.19 135.553 128.062 135.553 127.361C135.553 126.051 136.33 127.009 138.202 130.626C141.598 137.189 147.628 145.636 155.27 154.533C156.807 156.322 158.066 157.902 158.068 158.043C158.082 158.97 156.716 157.729 153.358 153.762ZM69.3004 246.476C70.0066 246.184 70.9328 246.032 71.3587 246.137C71.9379 246.281 72.0845 246.204 71.9407 245.834C71.7095 245.238 74.0606 243.46 75.8509 242.876C76.9969 242.502 81.2656 242.544 81.6592 242.933C81.7583 243.032 81.9592 243.933 82.1056 244.937L82.3719 246.763L83.4748 245.846C84.7166 244.813 85.46 242.989 85.2409 241.513C85.0454 240.196 85.9235 239.832 86.2141 241.11C86.3304 241.621 86.5502 242.579 86.7025 243.238C86.8549 243.898 87.0814 244.882 87.2059 245.425L87.4324 246.414L88.4636 245.437C89.0307 244.9 89.9578 243.544 90.5238 242.425C91.7333 240.032 91.908 237.01 91.0097 234.019C90.7109 233.024 90.5319 232.146 90.612 232.067C90.9435 231.739 97.25 234.063 98.6927 235.044C100.068 235.979 100.694 236.674 102.566 239.347C103.274 240.358 102.812 234.815 101.987 232.398C100.968 229.415 101.366 229.18 103.901 231.268C105.703 232.752 109.684 234.776 111.611 235.186C112.73 235.425 112.775 235.397 112.535 234.628C111.426 231.072 111.233 229.545 111.415 225.771C111.519 223.605 111.74 221.473 111.904 221.034C112.198 220.248 112.248 220.267 114.957 222.261C116.471 223.375 118.763 225.394 120.049 226.748L122.387 229.209V227.733C122.387 225.802 121.571 222.758 120.485 220.639C120.007 219.707 119.616 218.873 119.616 218.785C119.616 218.699 120.356 219.04 121.261 219.545C122.676 220.333 123.286 220.458 125.605 220.432C127.152 220.415 128.476 220.232 128.706 220.004C129.004 219.709 129.006 219.606 128.711 219.606C127.749 219.606 123.079 214.677 123.079 213.662C123.079 213.576 123.648 212.836 124.343 212.018C126.856 209.059 127.474 206.351 126.244 203.68C125.004 200.985 124.957 200.995 120.299 204.933C117.994 206.881 115.999 208.514 115.865 208.562C115.491 208.696 113.336 205.284 112.625 203.434C111.87 201.471 111.805 198.556 112.481 196.958C113.707 194.056 116.153 192.234 122.808 189.262C125.514 188.053 128.867 186.42 130.259 185.633C132.815 184.187 137.347 180.343 138.684 178.486L139.41 177.479L138.462 175.167C137.941 173.896 137.093 171.546 136.578 169.944C135.802 167.535 135.528 167.052 134.989 167.142C134.632 167.203 133.474 167.334 132.417 167.436C130.704 167.599 130.377 167.522 129.416 166.722C128.297 165.791 127.236 163.342 127.236 161.688C127.236 160.868 126.893 160.558 124.607 159.31C122.283 158.042 121.782 157.894 120.285 158.037C116.498 158.396 111.983 161.743 105.872 168.721L103.794 171.093L102.172 170.644C98.205 169.546 95.1089 170.973 89.01 176.709C83.6597 181.741 81.6115 183.405 79.4216 184.503C77.3956 185.517 74.0458 186.384 72.1491 186.384H70.689L72.3076 187.706C74.1978 189.25 75.8306 189.809 78.4538 189.809C79.9685 189.809 80.6535 189.608 81.8845 188.802C82.7304 188.248 83.7751 187.323 84.2062 186.747C84.6372 186.171 85.1034 185.699 85.2423 185.699C85.3813 185.699 85.8475 186.662 86.2785 187.84C86.7094 189.017 87.5527 190.751 88.1524 191.693L89.2429 193.405L89.733 192.207C90.8904 189.376 96.2744 182.011 96.8035 182.534C97.0044 182.733 96.1014 184.273 94.4261 186.589C92.9405 188.644 91.2021 191.45 90.5631 192.825L89.4013 195.326L88.5502 194.195C88.082 193.572 87.0744 191.821 86.3109 190.304L84.9227 187.545L83.7369 188.651C83.0847 189.259 81.9258 190.029 81.1616 190.362C79.5721 191.056 79.5379 191.228 80.2916 194.745C81.4013 199.924 84.1157 203.737 88.5434 206.337L90.93 207.739L89.4219 208.949C86.5164 211.281 81.3931 216.388 78.0441 220.291C74.0053 224.998 71.8125 226.509 68.6926 226.732C65.0549 226.992 64.148 225.884 63.8184 220.779C63.5505 216.631 63.0267 215.496 61.3794 215.496C59.6547 215.496 59.0905 216.004 58.8196 217.798C58.291 221.301 56.761 223.187 54.4484 223.187C52.9355 223.187 52.5851 223.712 52.8084 225.644C52.9098 226.521 53.0391 226.616 54.007 226.52C56.6019 226.264 58.68 228.143 57.9372 230.075C57.2873 231.764 57.5096 232.946 58.5519 233.342C59.9297 233.865 61.7164 233.472 62.8524 232.396C63.539 231.746 63.9503 231.57 64.2019 231.819C64.7296 232.34 62.4044 234.246 60.9002 234.525C59.3468 234.814 58.1205 234.506 57.2026 233.599C56.6143 233.017 56.5146 232.611 56.6754 231.451C56.7844 230.665 56.971 229.77 57.09 229.464C57.4431 228.554 56.0637 227.484 54.5389 227.484C53.8084 227.484 53.1157 227.577 52.9995 227.692C52.8833 227.807 53.1724 228.503 53.6418 229.238C54.9527 231.291 55.3752 233.589 54.86 235.865C54.5792 237.106 54.2567 237.758 53.9244 237.758C53.0999 237.758 53.9693 239.01 55.4802 239.999L56.796 240.86L58.3647 239.309C59.2781 238.406 60.2527 237.758 60.6983 237.758C61.4147 237.758 62.4837 238.648 63.9351 240.451C65.3981 242.27 68.2874 239.419 67.9316 236.508C67.762 235.121 68.6077 235.115 68.871 236.497C69.1484 237.96 68.0877 240.539 66.8993 241.293C65.1056 242.43 63.7198 242.077 62.3662 240.14C61.844 239.392 61.1659 238.781 60.8592 238.781C60.1484 238.781 57.8271 241.054 58.097 241.486C58.2086 241.664 58.757 241.91 59.3154 242.031C60.7643 242.345 62.9759 244.026 64.048 245.628C64.8889 246.884 65.0961 247.001 66.491 247.001C67.3292 247.001 68.5929 246.762 69.2991 246.47L69.3004 246.476ZM97.5853 224.96C97.2493 224.094 97.6024 220.863 98.0489 220.718C98.368 220.614 98.482 221.215 98.482 223.003C98.482 225.246 98.0567 226.174 97.5853 224.96ZM100.722 221.986C100.406 221.48 100.907 217.551 101.288 217.551C101.459 217.551 101.6 218.63 101.6 219.949C101.6 222.156 101.286 222.886 100.722 221.986ZM103.821 218.795C103.485 217.929 103.838 214.698 104.285 214.553C104.604 214.449 104.718 215.05 104.718 216.838C104.718 219.081 104.293 220.009 103.821 218.795V218.795ZM108.599 214.931C108.728 212.007 109.395 211.954 109.395 214.868C109.395 216.295 109.249 217.028 108.946 217.128C108.6 217.242 108.52 216.734 108.599 214.93V214.931ZM117.537 182.788C117.537 181.038 117.648 180.562 118.057 180.562C118.465 180.562 118.576 181.038 118.576 182.788C118.576 184.539 118.465 185.014 118.057 185.014C117.648 185.014 117.537 184.539 117.537 182.788ZM120.184 182.722C119.669 182.213 120.126 178.165 120.698 178.165C121.091 178.165 121.096 182.519 120.704 182.759C120.54 182.859 120.306 182.843 120.184 182.722L120.184 182.722ZM123.427 178.507C123.427 176.696 123.54 176.09 123.86 176.196C124.145 176.289 124.293 177.077 124.293 178.507C124.293 179.938 124.145 180.725 123.86 180.819C123.54 180.925 123.427 180.319 123.427 178.507ZM127.086 178.885C126.799 178.425 127.29 174.398 127.633 174.398C127.797 174.398 127.931 175.476 127.931 176.795C127.931 178.955 127.616 179.733 127.086 178.885V178.885ZM107.365 173.497C106.702 173.142 106.489 172.852 106.721 172.623C106.954 172.393 107.315 172.409 107.812 172.672C108.221 172.888 109.204 173.018 109.997 172.961C111.278 172.868 111.606 172.647 112.957 170.972C115.545 167.764 116.825 166.52 117.541 166.52C117.92 166.52 118.23 166.594 118.23 166.684C118.23 166.774 117.411 167.684 116.411 168.705C115.411 169.727 113.88 171.348 113.01 172.309C111.551 173.919 111.308 174.054 109.892 174.041C109.047 174.03 107.91 173.789 107.365 173.497V173.497ZM49.0392 237.248C50.0061 236.964 51.4608 236.731 52.2721 236.731H53.7469L53.976 235.222C54.2528 233.397 53.9551 231.853 52.9951 230.138C52.1842 228.69 51.7729 228.607 49.8052 229.494C45.9605 231.226 44.0623 234.519 44.6155 238.495L44.857 240.231L46.0692 238.997C46.8352 238.218 47.9282 237.574 49.0392 237.248V237.248ZM166.035 235.414C168.874 235.304 169.103 235.24 169.464 234.456C170.211 232.837 169.783 229.165 168.683 227.744C168.257 227.195 168.085 227.188 166.495 227.656C164.482 228.247 162.291 229.723 161.22 231.211C160.306 232.479 159.603 235.55 159.93 236.839L160.169 237.778L161.581 236.655C162.896 235.61 163.2 235.525 166.035 235.415V235.414ZM56.2086 221.378C57.2429 220.355 57.9417 218.447 57.9449 216.637C57.9462 215.552 57.9453 215.551 55.6707 215.31C52.8006 215.006 50.0925 215.528 48.2359 216.743C46.7767 217.697 45.4745 219.698 45.4745 220.986C45.4745 221.579 45.614 221.664 46.2541 221.463C47.6237 221.033 51.4893 221.211 52.7501 221.761C54.509 222.529 55.1113 222.463 56.2086 221.378V221.378ZM53.443 174.953C53.443 174.882 53.2091 174.27 52.9233 173.594C52.2887 172.093 52.273 169.117 52.8848 166.3L53.3417 164.196L52.1947 164.012C50.8897 163.803 47.4435 164.222 45.645 164.809C44.5666 165.16 44.4596 165.302 44.6581 166.118C45.0576 167.761 46.5284 170.318 47.9502 171.843C49.4417 173.443 53.443 175.708 53.443 174.953H53.443ZM39.9597 166.663L42.3964 164.238L41.0031 162.994C39.6798 161.812 37.1512 160.364 35.5634 159.878C34.9368 159.687 34.7239 159.911 34.0623 161.461C33.141 163.619 32.7581 167.818 33.3042 169.774C33.5146 170.527 34.0147 171.672 34.4156 172.317L35.1446 173.49L36.3338 171.289C37.0093 170.039 38.5754 168.041 39.9597 166.663V166.663ZM63.3834 170.326C65.0136 167.947 65.0914 164.642 63.6208 160.239C63.0692 158.587 63.0624 158.581 61.8062 158.802C60.1323 159.097 57.5578 160.375 57.1006 161.138C56.8116 161.621 56.9748 162.163 57.8738 163.707C58.5005 164.783 59.6697 167.004 60.4722 168.642C61.2746 170.28 62.087 171.578 62.2776 171.527C62.4681 171.475 62.9657 170.935 63.3834 170.326V170.326ZM46.3966 163.609C47.494 163.326 49.5317 163.095 50.9248 163.095C53.2854 163.095 53.4845 163.038 53.8494 162.246C54.1496 161.594 54.4236 161.441 55.022 161.59C55.6081 161.735 55.86 161.605 56.0322 161.069C56.1582 160.676 56.7664 159.974 57.3836 159.509C58.5403 158.636 62.5488 157.423 63.1201 157.772C63.2972 157.88 64.6107 157.581 66.039 157.107C69.1626 156.07 71.6648 156.008 74.5458 156.894C76.2975 157.433 76.6554 157.461 76.6554 157.055C76.6554 155.916 75.4544 153.898 73.4488 151.667L71.3045 149.282L75.7988 149.501C79.8718 149.7 81.5774 150.015 85.812 151.351C87.1279 151.767 84.2735 147.343 82.1268 145.64C80.1105 144.04 79.7947 143.029 81.4553 143.49C81.9594 143.629 83.6971 143.741 85.3168 143.738C88.7458 143.727 90.8306 142.935 92.5777 140.968C93.6979 139.707 95.3685 136.699 95.357 135.964C95.3531 135.722 94.2986 135.036 93.0133 134.44C86.9812 131.64 84.2774 126.622 84.2774 118.227V116.22L82.5218 117.388C81.5562 118.03 79.7239 118.862 78.4501 119.237C76.4997 119.812 75.6371 120.348 72.9864 122.632C71.2551 124.124 68.5358 126.787 66.9435 128.551C65.0305 130.669 63.4167 132.098 62.1867 132.761C59.7704 134.065 57.8781 135.905 56.5376 138.253C55.8662 139.429 53.9602 141.556 51.4759 143.901C44.786 150.216 42.1578 150.779 40.2082 146.313C39.2976 144.227 38.0364 142.657 36.739 141.994C35.2509 141.233 33.6754 141.751 31.3541 143.764L29.5326 145.343L31.1661 146.677C33.19 148.331 34.8818 150.411 36.0233 152.649C36.5036 153.591 36.9315 154.402 36.9741 154.451C37.0167 154.501 37.7385 154.299 38.578 154.004C40.6696 153.27 42.093 153.592 43.3363 155.084L44.3453 156.293L46.1744 154.214C47.1805 153.071 48.1362 152.135 48.2981 152.135C49.0357 152.135 48.4026 153.207 46.0857 155.881L43.5821 158.77L43.2975 157.347C42.97 155.709 41.7125 154.533 40.2904 154.533C39.0586 154.533 36.2314 156.409 35.5763 157.662C35.0992 158.574 35.1073 158.672 35.6752 158.857C37.4407 159.434 39.9493 160.818 41.3014 161.963C42.4102 162.901 42.8678 163.12 42.9863 162.769C43.2455 162 44.7536 160.762 45.9411 160.344C46.5932 160.115 47.9158 158.935 49.2221 157.418C51.3044 154.999 52.0572 154.422 52.0572 155.245C52.0572 155.985 47.3975 160.876 46.1793 161.416C44.7133 162.064 43.7423 162.948 43.7423 163.634C43.7423 164.244 43.9359 164.242 46.3966 163.609V163.609ZM30.671 155.976C31.5697 155.558 33.0158 155.028 33.8845 154.799C35.2988 154.425 35.4425 154.296 35.2586 153.572C34.8385 151.917 31.1723 147.341 30.2669 147.341C29.6931 147.341 27.7101 149.861 26.8891 151.634C25.9028 153.763 25.5579 155.993 25.883 158.136L26.1259 159.738L27.5815 158.237C28.382 157.411 29.7723 156.393 30.671 155.976ZM97.4118 133.581C96.3575 131.538 96.6226 129.283 98.2303 126.62C100.392 123.039 100.694 120.095 99.1574 117.597C98.5168 116.556 98.5062 115.831 99.1315 115.831C99.2757 115.831 99.7594 116.486 100.206 117.287C101.689 119.942 104.435 123.685 105.786 124.892C107.086 126.053 110.208 127.818 110.962 127.818C111.186 127.818 111.121 127.509 110.801 127.057C110.042 125.986 110.116 123.278 110.947 121.667C111.324 120.936 112.399 119.338 113.335 118.115C115.449 115.355 115.943 113.938 115.891 110.785C115.868 109.423 115.985 108.226 116.15 108.125C116.316 108.024 117.485 109.252 118.75 110.853C121.878 114.812 125.431 117.936 128.749 119.642C130.968 120.783 131.455 120.934 131.253 120.414C130.247 117.836 129.589 114.38 129.603 111.746C129.632 106.27 131.673 102.028 136.168 98.1007C139.38 95.2955 140.512 93.1286 140.469 89.8718C140.452 88.6087 140.289 87.0855 140.106 86.4868C139.64 84.9636 140.394 84.7715 141.662 86.0904C143.207 87.6968 145.378 88.8139 146.999 88.836C150.075 88.8777 150.125 86.9989 147.124 84.1025C146.078 83.0928 145.346 82.2416 145.497 82.2109C145.649 82.1798 146.318 82.142 146.985 82.1254C148.016 82.1 148.288 81.9142 148.796 80.8873C149.571 79.3222 150.097 73.4216 150.1 66.2551C150.104 63.1941 150.174 60.6895 150.259 60.6895C150.345 60.6895 151.319 61.2287 152.425 61.8876C154.784 63.2944 156.608 63.7485 157.08 63.0466C157.845 61.91 156.357 56.8284 153.353 50.3105C152.328 48.0869 151.489 46.2203 151.489 46.1626C151.489 46.1052 152.263 45.9672 153.208 45.8565C155.765 45.557 157.643 44.9176 158.636 44.0078C159.312 43.3886 159.431 43.089 159.138 42.7403C158.622 42.1258 156.523 41.8815 154.443 42.1934C152.777 42.4435 152.656 42.399 148.961 40.1813L145.182 37.9136L145.358 33.8893C145.455 31.676 145.448 29.865 145.343 29.865C145.239 29.865 143.514 30.734 141.511 31.7959L137.87 33.7268L127.963 33.5369C122.515 33.4326 117.135 33.1677 116.008 32.9484C112.183 32.2039 109.915 33.3514 109.915 36.0307C109.915 38.5225 112.198 39.8085 115.74 39.3109C122.436 38.3701 125.311 38.809 128.047 41.1898C128.936 41.963 129.663 42.7366 129.663 42.9089C129.663 43.5206 128.732 43.2094 127.904 42.3207C126.388 40.6938 123.922 39.8045 120.915 39.8008C118.268 39.8008 117.848 39.9685 118.623 40.7346C119.137 41.2422 119.129 43.5703 118.612 44.5275C117.565 46.4604 115.568 44.5917 115.926 42.0145L116.138 40.4823H114.486C111.829 40.4823 109.246 38.8474 108.681 36.8075C108.599 36.5105 98.6597 38.4581 97.9663 38.9073C97.0905 39.4746 96.8042 40.6059 97.4385 40.9933C97.6265 41.1082 98.0266 42.0806 98.3275 43.1541C99.3458 46.7872 102.168 53.4971 102.678 53.4971C102.847 53.4971 102.991 53.3816 102.998 53.2403C103.003 53.099 103.307 52.6299 103.672 52.1981L104.334 51.4127L107 52.2973C110.215 53.3643 112.127 54.4337 113.887 56.1492C118.964 61.0995 116.597 69.0503 109.904 69.5288C107.836 69.6768 107.796 69.6626 106.625 68.3521L105.44 67.0256L105.426 68.1107C105.399 70.1013 105.188 70.2794 102.849 70.2794C99.1048 70.2794 96.323 72.3184 96.9105 74.6324L97.1333 75.51L98.0676 74.649C98.5815 74.1754 99.3424 73.615 99.7586 73.4036C100.866 72.8413 103.45 72.9343 105.125 73.5967C106.197 74.0208 107.694 74.18 110.762 74.1961C114.749 74.2165 115.022 74.1727 116.764 73.2186C118.637 72.1926 120.251 70.2356 121.069 67.9975C121.299 67.3688 121.69 66.8545 121.937 66.8545C122.536 66.8545 122.505 67.2607 121.791 68.8121C119.986 72.7321 117.906 74.4181 114.068 75.0735C111.831 75.4556 111.806 75.4721 111.163 77.009C110.307 79.0547 107.662 81.6238 105.168 82.832C103.39 83.6931 102.781 83.805 99.8681 83.8054C97.0756 83.8054 96.3404 83.6831 95.0177 82.9949C92.6077 81.7414 90.7861 80.1161 89.6476 78.2038C89.076 77.2435 88.4828 76.4548 88.3294 76.451C88.176 76.451 87.6327 77.3303 87.122 78.4135C86.312 80.1318 86.1947 80.8088 86.2018 83.7222C86.2057 85.5589 86.1595 87.0615 86.0977 87.0615C86.036 87.0615 85.5961 86.8093 85.1203 86.5011C84.0289 85.7942 81.9628 85.781 80.6273 86.472C80.0626 86.7644 77.5737 88.7295 75.0966 90.8391C72.6194 92.9484 69.7352 95.2251 68.6872 95.8983C66.4034 97.3649 61.4326 99.8108 59.5062 100.416C56.8892 101.238 57.0693 101.427 61.4609 102.467C64.883 103.278 70.2005 103.359 74.4036 102.664C77.7345 102.112 78.4299 102.444 76.7164 103.767C76.0828 104.256 74.0801 106.332 72.266 108.38C68.5125 112.618 66.606 114.14 63.7216 115.2C62.4369 115.673 61.8691 116.032 62.1626 116.188C63.5093 116.901 70.9761 118.342 74.0572 118.482C79.1808 118.715 81.5027 117.681 84.5598 113.801C85.2118 112.973 85.2157 112.994 85.4106 118.424C85.5364 121.932 85.8032 124.509 86.1578 125.644C86.9144 128.064 88.6227 130.463 90.6797 131.994C92.3455 133.234 96.2766 134.952 97.5365 134.991C98.1025 135.009 98.0929 134.901 97.412 133.581L97.4118 133.581ZM93.0788 104.738C92.7256 103.828 93.6958 99.8923 94.762 97.9097C96.4982 94.6808 98.9755 92.9211 104.684 90.8617C108.27 89.5678 111.036 87.7335 112.244 85.8479C113.151 84.4328 114.072 83.8562 114.072 84.7037C114.072 85.3055 111.816 88.1846 110.716 88.9856C109.246 90.0567 107.192 91.0358 104.006 92.1856C98.9429 94.0122 96.3495 96.185 94.9803 99.7474C94.081 102.087 94.1506 102.337 95.4101 101.289C96.0072 100.792 97.0756 100.094 97.7842 99.7362C99.2582 98.9929 103.419 98.1921 104.223 98.497C105.024 98.8009 104.471 99.3912 103.385 99.3912C101.715 99.3912 98.3485 100.423 96.9877 101.352C96.261 101.848 95.2718 102.92 94.7894 103.734C93.8798 105.268 93.3951 105.553 93.0788 104.738ZM135.465 79.6687C135.354 79.5585 135.426 79.0048 135.626 78.4382C136.092 77.1161 135.779 74.1104 135.021 72.6297C134.697 71.9961 133.826 70.6931 133.087 69.734C131.638 67.8551 131.505 67.536 132.175 67.5454C133.457 67.5638 136.434 72.5816 136.848 75.4244L137.112 77.2294L137.978 75.5525C138.722 74.1118 138.844 73.4168 138.844 70.6218V67.3681L136.857 63.2581C134.397 58.1688 133.636 55.3399 134.045 52.8116C134.207 51.8069 134.549 50.9163 134.805 50.832C135.178 50.7093 135.222 51.1191 135.029 52.905C134.727 55.6851 135.31 57.8377 137.646 62.5732C138.575 64.4568 139.494 66.6917 139.687 67.5394C140.543 71.2829 139.825 74.9266 137.597 78.1588C136.493 79.7606 135.948 80.1462 135.465 79.6687V79.6687ZM121.988 52.6638C121.777 52.2056 121.151 51.6451 120.597 51.418C119.339 50.9029 118.375 49.3869 119.306 49.3869C119.66 49.3869 121.012 50.3319 122.474 51.6007C123.128 52.1686 123.305 53.4968 122.726 53.4968C122.532 53.4968 122.2 53.122 121.988 52.6638V52.6638ZM124.639 51.0991C124.518 50.7222 124.079 50.2404 123.663 50.0288C122.703 49.5402 121.348 48.3273 121.348 47.9573C121.348 47.4402 121.99 47.6636 123.609 48.7441C125.11 49.7451 125.969 50.9368 125.617 51.5275C125.336 51.9996 124.861 51.7917 124.639 51.0991ZM140.056 51.2593C140.056 50.9704 140.448 49.9712 140.925 49.0389C141.403 48.1063 142.027 46.4609 142.311 45.3821C142.824 43.4343 143.008 40.8246 142.632 40.8246C142.524 40.8246 141.907 41.2229 141.262 41.7097C139.967 42.6859 137.387 43.5645 135.815 43.5645C134.239 43.5645 134.851 42.7436 136.621 42.4845C139.072 42.1253 140.127 41.5723 141.826 39.7564L143.422 38.0503L143.656 40.3131C143.788 41.5861 143.726 43.4767 143.513 44.635C142.881 48.0825 140.056 53.4949 140.056 51.2593V51.2593ZM126.024 48.0131C125.902 47.6344 125.385 47.1107 124.874 46.8495C123.576 46.1864 122.593 45.0607 123.062 44.7747C123.687 44.3928 127.238 47.2823 127.238 48.1726C127.238 48.9456 126.283 48.8202 126.024 48.0131V48.0131ZM101.6 42.8794C101.6 42.6911 101.985 42.537 102.456 42.537C103.005 42.537 103.587 42.1686 104.082 41.5072C104.538 40.8974 104.979 40.603 105.164 40.7855C105.496 41.114 104.892 42.525 104.233 42.9599C103.663 43.3364 101.6 43.2734 101.6 42.8794V42.8794ZM69.9518 93.7734C71.0663 92.9442 73.5114 90.9373 75.3853 89.3133C80.003 85.3118 82.0578 84.3725 84.5106 85.1421C85.0852 85.3224 85.1464 85.1888 85.0319 84.002C84.9605 83.2628 85.0771 81.8513 85.2911 80.8657C85.6606 79.1621 85.6322 79.0039 84.7188 77.6731C83.2528 75.537 76.1618 68.6368 72.7566 66.0324C70.8825 64.5992 69.2546 63.0139 68.4953 61.8831C66.9275 59.5481 64.9103 57.7497 62.7483 56.7594C60.0985 55.5459 53.3446 49.6067 51.659 47.008C49.9804 44.4201 50.3562 42.8313 53.002 41.3315C55.368 39.9902 57.2121 38.1398 57.4542 36.864C57.73 35.4105 56.6598 33.3773 54.7829 31.7891L53.3273 30.5575L52.204 32.2064C50.8559 34.1854 47.9234 36.8566 46.0763 37.7881C45.3393 38.1598 44.7937 38.5712 44.8638 38.7024C46.4939 41.7502 46.4743 43.5173 44.7936 45.0153C44.2153 45.5307 43.7422 46.0019 43.7422 46.0624C43.7422 46.1226 44.7556 46.9079 45.9942 47.807C48.1623 49.3808 48.7292 50.0834 47.8131 50.0617C47.5749 50.0509 45.9807 49.0301 44.2705 47.7814L41.1609 45.5114L42.5382 45.0488C44.9448 44.2408 45.7096 42.5873 44.6309 40.5249C44.0322 39.3806 41.4061 36.9707 40.929 37.128C40.742 37.1904 40.2301 38.2556 39.7914 39.4969C39.3526 40.7383 38.503 42.4587 37.9034 43.3202C36.6823 45.0747 36.6171 45.2771 37.2725 45.2771C37.8528 45.2771 38.9956 46.5015 39.6966 47.8742C39.9931 48.4551 41.4145 49.8073 42.8552 50.8793C45.2831 52.6858 45.9864 53.4968 45.1248 53.4968C44.2271 53.4968 39.6086 49.6584 38.7368 48.1879C37.8612 46.7109 36.3789 45.5922 35.9107 46.055C35.797 46.1674 36.0515 47.2327 36.4761 48.4224C36.9008 49.6122 37.3276 51.7159 37.4246 53.0974C37.5822 55.3423 37.6904 55.6495 38.4428 55.9885C39.0137 56.2456 39.2313 56.5691 39.1189 56.994C39.0058 57.4219 39.2457 57.771 39.8753 58.0949C41.8953 59.1339 43.0915 61.133 43.7123 64.5064C43.8979 65.5151 44.4443 67.4193 44.9264 68.7378C45.8804 71.3469 46.0782 74.3161 45.4474 76.5618C45.244 77.2857 45.1596 77.9592 45.2599 78.0585C45.8337 78.6257 47.6647 77.4873 50.0181 75.1003L52.6561 72.4245L52.8763 74.9998C52.9975 76.4159 53.0965 78.3608 53.0965 79.3212C53.0964 81.0062 52.3476 85.5722 51.8692 86.8045C51.1541 88.6467 55.6754 85.3125 57.254 82.8336C58.9929 80.1028 59.3327 80.2836 59.3327 83.9395C59.3327 88.0348 60.0561 90.1912 62.1162 92.2364C63.4314 93.5422 66.4196 95.162 67.6998 95.2633C67.8238 95.2741 68.8373 94.6027 69.9518 93.7734V93.7734ZM40.2682 65.9303C43.0284 64.8687 43.1467 64.6013 41.9809 62.0594C41.1961 60.3481 40.0389 58.9769 39.3795 58.9769C39.1424 58.9769 37.2526 60.0943 35.18 61.4599C33.1073 62.8257 30.973 64.1898 30.437 64.4914L29.4623 65.0399L30.7175 65.8067C31.4078 66.2285 32.3992 66.7097 32.9205 66.876C34.4286 67.3574 37.629 66.945 40.2682 65.9303V65.9303ZM115.586 63.6862C115.971 62.2688 115.814 62.0257 113.986 61.1995C110.845 59.7803 107.964 59.5406 101.898 60.1942C95.937 60.8363 92.8727 60.6973 90.0596 59.6568C85.7076 58.047 85.003 55.0199 88.1276 51.3566L89.5829 49.6505L87.7096 49.9019C83.2032 50.5065 79.2809 53.1545 78.3521 56.219C76.6328 61.892 84.9659 64.8903 98.0345 63.3008C105.389 62.4063 111.659 62.6649 114.07 63.9621C115.244 64.5935 115.345 64.5751 115.586 63.6862V63.6862ZM30.7378 55.0991C31.6974 55.0882 33.379 55.2014 34.4746 55.3435L36.4668 55.6012V53.66C36.4668 51.5802 35.7105 48.5307 34.9346 47.4817C34.4738 46.8588 34.4042 46.8648 32.6276 47.6851C30.1617 48.8235 27.621 51.337 26.5768 53.6712C25.3273 56.4644 25.406 56.6812 27.3598 55.8267C28.2841 55.4225 29.7502 55.1067 30.7378 55.0991V55.0991ZM38.0122 41.0161C38.6564 39.6864 39.274 38.1857 39.3846 37.6811C39.5744 36.815 39.474 36.7303 37.5932 36.1693C33.5717 34.9699 28.4521 35.7111 26.5718 37.7652C26.0093 38.3797 26.0283 38.4273 26.9802 38.7825C29.3207 39.6563 31.0444 40.7168 33.2043 42.6123C35.4214 44.5578 35.5276 44.6086 36.1722 44.0319C36.5399 43.7029 37.3679 42.346 38.0122 41.0161V41.0161ZM46.8904 36.0845C48.2867 35.2093 51.7108 31.7406 51.7108 31.2016C51.7108 30.8497 49.2449 29.2716 47.3801 28.4305C46.0421 27.8269 45.0169 27.6477 42.8761 27.6438C41.3517 27.6438 39.8215 27.8045 39.4756 28.0073C38.9012 28.344 38.9462 28.4438 39.9953 29.1583C41.6453 30.282 42.8919 32.0099 43.9928 34.699C44.5219 35.9914 45.0413 37.0507 45.1469 37.0531C45.2524 37.0531 46.0371 36.6196 46.8904 36.0845V36.0845Z" fill="#01060E"/>
<path d="M265.724 112.144H248.732V142.876H265.724V112.144Z" fill="white" stroke="black"/>
<path d="M234.44 13.8236H217.448V44.5556H234.44V13.8236Z" fill="white" stroke="black"/>
<path d="M312.005 51.3193H295.013V82.0513H312.005V51.3193Z" fill="white" stroke="black"/>
<path d="M35.5339 86.6758H18.542V117.408H35.5339V86.6758Z" fill="white" stroke="black"/>
<path d="M119.007 281.904H102.015V312.636H119.007V281.904Z" fill="white" stroke="black"/>
<path d="M40.5602 302.866H23.5684V333.598H40.5602V302.866Z" fill="white" stroke="black"/>
<path d="M80.7399 363.896H63.748V394.628H80.7399V363.896Z" fill="white" stroke="black"/>
</g>
<defs>
<clipPath id="clip0_1_6293">
<rect width="600" height="400" fill="white"/>
</clipPath>
</defs>
</svg>
