<svg width="600" height="400" viewBox="0 0 600 400" fill="none" xmlns="http://www.w3.org/2000/svg" xmlns:cgf="https://coding.garden/flags"><metadata id="cgf-metadata">

<cgf:flag>
  <cgf:name>Haarlem</cgf:name>
  <cgf:route>nl/nh/haarlem</cgf:route>
  <cgf:aspect-ratio>1.5</cgf:aspect-ratio>
</cgf:flag>

</metadata><g clip-path="url(#clip0_1_6221)">
<path d="M600 0H0V400H600V0Z" fill="#CC112F"/>
<path fill-rule="evenodd" clip-rule="evenodd" d="M201.983 347.42C200.35 348.394 199.127 350.131 199.137 352.238C199.153 355.602 201.752 357.831 204.798 357.903C207.675 357.971 210.439 355.436 210.459 352.238C210.473 349.956 209.171 347.989 207.095 347.089" fill="#FFCF00"/>
<path d="M201.983 347.42C200.35 348.394 199.127 350.131 199.137 352.238C199.153 355.602 201.752 357.831 204.798 357.903C207.675 357.971 210.439 355.436 210.459 352.238C210.473 349.956 209.171 347.989 207.095 347.089" stroke="#FFCF00" stroke-width="4"/>
<g opacity="0.96">
<path fill-rule="evenodd" clip-rule="evenodd" d="M217.179 278.482V130.801L205.187 112.944L193.194 130.801V278.529" fill="white"/>
<path d="M217.179 278.482V130.801L205.187 112.944L193.194 130.801V278.529" stroke="white" stroke-width="4"/>
</g>
<path fill-rule="evenodd" clip-rule="evenodd" d="M216.834 291.315C217.013 293.029 217.037 294.803 216.41 296.842C217.002 299.502 217.494 302.215 216.41 305.853C216.856 308.856 217.597 311.859 216.41 314.863C216.703 317.671 217.434 320.187 216.41 323.873C216.02 328.203 215.588 332.473 214.298 335.301C213.04 339.797 211.141 343.721 208.049 346.521C205.873 348.027 203.758 347.885 200.733 347.125C198.49 344.938 197.757 343.04 197.281 340.707C195.575 338.398 195.865 336.311 195.268 334.11C194.354 332.353 193.953 330.264 193.931 327.599C193.168 324.468 192.511 321.329 193.451 318.482C192.853 315.663 192.898 312.844 193.437 310.025C192.341 307.077 192.63 302.693 193.451 300.461C192.584 298.908 191.66 294.276 191.827 291.202" fill="#FFCF00"/>
<path d="M216.834 291.315C217.013 293.029 217.037 294.803 216.41 296.842C217.002 299.502 217.494 302.215 216.41 305.853C216.856 308.856 217.597 311.859 216.41 314.863C216.703 317.671 217.434 320.187 216.41 323.873C216.02 328.203 215.588 332.473 214.298 335.301C213.04 339.797 211.141 343.721 208.049 346.521C205.873 348.027 203.758 347.885 200.733 347.125C198.49 344.938 197.757 343.04 197.281 340.707C195.575 338.398 195.865 336.311 195.268 334.11C194.354 332.353 193.953 330.264 193.931 327.599C193.168 324.468 192.511 321.329 193.451 318.482C192.853 315.663 192.898 312.844 193.437 310.025C192.341 307.077 192.63 302.693 193.451 300.461C192.584 298.908 191.66 294.276 191.827 291.202" stroke="#CC112F" stroke-width="4"/>
<path fill-rule="evenodd" clip-rule="evenodd" d="M168.532 291.245C160.915 291.477 158.905 292.607 156.314 293.659C153.742 288.052 153.707 281.357 156.314 276.045C158.263 277.469 160.622 278.624 168.569 278.906L193.918 278.822C197.23 278.068 201.885 277.395 205.146 274.091C207.685 275.875 208.199 277.084 216.411 278.822L241.76 278.906C248.849 278.688 251.908 277.632 254.015 276.045C256.598 281.924 256.741 287.251 254.015 293.659C251.019 292.086 246.456 291.372 241.798 291.245H168.532Z" fill="#F7D117" stroke="#CC112F" stroke-width="4" stroke-linecap="square"/>
<path fill-rule="evenodd" clip-rule="evenodd" d="M160.564 284.852H249.764Z" fill="#FFCF00"/>
<path d="M160.564 284.852H249.764" stroke="#CC112F" stroke-width="2.5"/>
<path fill-rule="evenodd" clip-rule="evenodd" d="M254.015 293.66C253.369 289.59 252.886 288.712 249.765 284.852Z" fill="#FFCF00"/>
<path d="M254.015 293.66C253.369 289.59 252.886 288.712 249.765 284.852" stroke="#CC112F" stroke-width="2.5"/>
<path fill-rule="evenodd" clip-rule="evenodd" d="M254.015 276.045C253.369 280.114 252.886 280.993 249.765 284.852Z" fill="#FFCF00"/>
<path d="M254.015 276.045C253.369 280.114 252.886 280.993 249.765 284.852" stroke="#CC112F" stroke-width="2.5"/>
<path fill-rule="evenodd" clip-rule="evenodd" d="M205.164 280.152C208.425 283.362 213.133 283.987 216.444 284.719Z" fill="#FFCF00"/>
<path d="M205.164 280.152C208.425 283.362 213.133 283.987 216.444 284.719" stroke="#CC112F" stroke-width="2.5" stroke-linecap="square"/>
<path fill-rule="evenodd" clip-rule="evenodd" d="M156.314 293.66C156.96 289.59 157.443 288.712 160.565 284.852Z" fill="#FFCF00"/>
<path d="M156.314 293.66C156.96 289.59 157.443 288.712 160.565 284.852" stroke="#CC112F" stroke-width="2.5"/>
<path fill-rule="evenodd" clip-rule="evenodd" d="M156.314 276.045C156.96 280.114 157.443 280.993 160.565 284.852Z" fill="#FFCF00"/>
<path d="M156.314 276.045C156.96 280.114 157.443 280.993 160.565 284.852" stroke="#CC112F" stroke-width="2.5"/>
<path fill-rule="evenodd" clip-rule="evenodd" d="M205.164 280.152C201.903 283.362 197.195 283.987 193.884 284.719Z" fill="#FFCF00"/>
<path d="M205.164 280.152C201.903 283.362 197.195 283.987 193.884 284.719" stroke="#CC112F" stroke-width="2.5" stroke-linecap="square"/>
<path fill-rule="evenodd" clip-rule="evenodd" d="M193.451 318.482C196.417 314.615 200.69 310.749 205.662 306.882C209.833 303.83 213.826 300.688 216.411 296.842" fill="#FFCF00"/>
<path d="M193.451 318.482C196.417 314.615 200.69 310.749 205.662 306.882C209.833 303.83 213.826 300.688 216.411 296.842" stroke="#CC112F" stroke-width="2.5"/>
<path fill-rule="evenodd" clip-rule="evenodd" d="M193.451 327.492C196.417 323.626 200.69 319.759 205.662 315.893C209.833 312.84 213.826 309.699 216.411 305.853" fill="#FFCF00"/>
<path d="M193.451 327.492C196.417 323.626 200.69 319.759 205.662 315.893C209.833 312.84 213.826 309.699 216.411 305.853" stroke="#CC112F" stroke-width="2.5"/>
<path fill-rule="evenodd" clip-rule="evenodd" d="M195.269 334.11C198.041 331.014 201.68 327.999 205.662 324.903C209.833 321.85 213.826 318.709 216.411 314.863" fill="#FFCF00"/>
<path d="M195.269 334.11C198.041 331.014 201.68 327.999 205.662 324.903C209.833 321.85 213.826 318.709 216.411 314.863" stroke="#CC112F" stroke-width="2.5"/>
<path fill-rule="evenodd" clip-rule="evenodd" d="M197.281 340.707C199.679 338.313 202.583 336.307 205.662 333.913C209.833 330.861 213.826 327.719 216.411 323.873" fill="#FFCF00"/>
<path d="M197.281 340.707C199.679 338.313 202.583 336.307 205.662 333.913C209.833 330.861 213.826 327.719 216.411 323.873" stroke="#CC112F" stroke-width="2.5"/>
<path fill-rule="evenodd" clip-rule="evenodd" d="M193.438 310.025C196.403 306.159 200.689 301.739 205.662 297.872C208.522 295.778 211.299 293.643 213.596 291.267" fill="#FFCF00"/>
<path d="M193.438 310.025C196.403 306.159 200.689 301.739 205.662 297.872C208.522 295.778 211.299 293.643 213.596 291.267" stroke="#CC112F" stroke-width="2.5"/>
<path fill-rule="evenodd" clip-rule="evenodd" d="M200.138 347.106C201.771 345.658 203.801 344.371 205.663 342.924C208.463 340.873 211.89 337.756 214.298 335.301" fill="#FFCF00"/>
<path d="M200.138 347.106C201.771 345.658 203.801 344.371 205.663 342.924C208.463 340.873 211.89 337.756 214.298 335.301" stroke="#CC112F" stroke-width="2.5"/>
<path fill-rule="evenodd" clip-rule="evenodd" d="M193.451 300.461C195.817 297.376 199.015 294.292 202.737 291.207Z" fill="#FFCF00"/>
<path d="M193.451 300.461C195.817 297.376 199.015 294.292 202.737 291.207" stroke="#CC112F" stroke-width="2.5"/>
<path fill-rule="evenodd" clip-rule="evenodd" d="M211.075 64.252C211.694 51.0514 213.618 45.9212 215.541 42.0961H194.788C197.165 46.9929 198.883 53.7361 199.254 64.252C183.328 63.1898 181.587 61.4179 177.112 59.7828V80.5491C181.261 78.4125 187.124 76.6191 199.254 76.08C198.49 83.0458 199.103 89.2132 194.788 98.2359H215.541C212.061 91.1163 211.622 83.5909 211.075 76.08C218.776 76.2867 226.314 77.1492 233.217 80.5491V59.7828C226.913 62.8889 219.388 64.1611 211.075 64.252Z" fill="white" stroke="white" stroke-width="4" stroke-linecap="square"/>
<path fill-rule="evenodd" clip-rule="evenodd" d="M153.694 141.11L133.006 140.525L123.169 158.74L113.331 140.525L92.6436 141.11L103.494 123.48L92.6436 105.85L113.331 106.435L123.169 88.2196L133.006 106.435L153.694 105.85L142.844 123.48L153.694 141.11Z" fill="white" stroke="white" stroke-width="4"/>
<path fill-rule="evenodd" clip-rule="evenodd" d="M123.24 123.71L132.506 139.657L123.171 156.953L123.24 123.71Z" fill="white" stroke="white" stroke-width="0.501486"/>
<path fill-rule="evenodd" clip-rule="evenodd" d="M94.2031 140.211L122.893 123.844L113.834 139.656L94.2031 140.211Z" fill="white" stroke="white" stroke-width="0.501486"/>
<path fill-rule="evenodd" clip-rule="evenodd" d="M94.1992 106.748L121.971 123.21L104.496 123.478L94.1992 106.748Z" fill="white" stroke="white" stroke-width="0.501486"/>
<path fill-rule="evenodd" clip-rule="evenodd" d="M113.831 107.3L123.169 90.0128L123.159 123.59L113.831 107.3Z" fill="white" stroke="white" stroke-width="0.501486"/>
<path fill-rule="evenodd" clip-rule="evenodd" d="M123.227 122.713L132.509 107.303L152.142 106.747L123.247 122.72L123.227 122.713Z" fill="white" stroke="white" stroke-width="0.501486"/>
<path fill-rule="evenodd" clip-rule="evenodd" d="M124 123.467L141.839 123.479L152.139 140.213L124 123.467Z" fill="white" stroke="white" stroke-width="0.501486"/>
<path fill-rule="evenodd" clip-rule="evenodd" d="M98.7422 137.376L147.318 109.317Z" fill="white"/>
<path d="M98.7422 137.376L147.318 109.317" stroke="white" stroke-width="5"/>
<path fill-rule="evenodd" clip-rule="evenodd" d="M98.7422 109.317L147.318 137.376Z" fill="white"/>
<path d="M98.7422 109.317L147.318 137.376" stroke="white" stroke-width="4"/>
<path fill-rule="evenodd" clip-rule="evenodd" d="M113.51 139.85L123.03 157.993Z" fill="white"/>
<path d="M113.51 139.85L123.03 157.993" stroke="white"/>
<path fill-rule="evenodd" clip-rule="evenodd" d="M123.03 151.41V95.2823Z" fill="white"/>
<path d="M123.03 151.41V95.2823" stroke="white" stroke-width="4"/>
<path fill-rule="evenodd" clip-rule="evenodd" d="M317.685 141.11L296.997 140.525L287.16 158.74L277.322 140.525L256.635 141.11L267.485 123.48L256.635 105.85L277.322 106.435L287.16 88.2196L296.998 106.435L317.685 105.85L306.835 123.48L317.685 141.11Z" fill="white" stroke="white" stroke-width="4"/>
<path fill-rule="evenodd" clip-rule="evenodd" d="M287.231 123.71L296.498 139.657L287.162 156.953L287.231 123.71Z" fill="white" stroke="white" stroke-width="0.501486"/>
<path fill-rule="evenodd" clip-rule="evenodd" d="M258.194 140.211L286.884 123.844L277.825 139.656L258.194 140.211Z" fill="white" stroke="white" stroke-width="0.501486"/>
<path fill-rule="evenodd" clip-rule="evenodd" d="M258.19 106.748L285.962 123.21L268.487 123.478L258.19 106.748Z" fill="white" stroke="white" stroke-width="0.501486"/>
<path fill-rule="evenodd" clip-rule="evenodd" d="M277.822 107.3L287.16 90.0128L287.15 123.59L277.822 107.3Z" fill="white" stroke="white" stroke-width="0.501486"/>
<path fill-rule="evenodd" clip-rule="evenodd" d="M287.218 122.713L296.5 107.303L316.133 106.747L287.238 122.72L287.218 122.713Z" fill="white" stroke="white" stroke-width="0.501486"/>
<path fill-rule="evenodd" clip-rule="evenodd" d="M287.991 123.467L305.83 123.479L316.131 140.213L287.991 123.467Z" fill="white" stroke="white" stroke-width="0.501486"/>
<path fill-rule="evenodd" clip-rule="evenodd" d="M262.733 137.376L311.31 109.317Z" fill="white"/>
<path d="M262.733 137.376L311.31 109.317" stroke="white" stroke-width="5"/>
<path fill-rule="evenodd" clip-rule="evenodd" d="M262.733 109.317L311.31 137.376Z" fill="white"/>
<path d="M262.733 109.317L311.31 137.376" stroke="white" stroke-width="4"/>
<path fill-rule="evenodd" clip-rule="evenodd" d="M277.501 139.85L287.021 157.993Z" fill="white"/>
<path d="M277.501 139.85L287.021 157.993" stroke="white"/>
<path fill-rule="evenodd" clip-rule="evenodd" d="M287.021 151.41V95.2823Z" fill="white"/>
<path d="M287.021 151.41V95.2823" stroke="white" stroke-width="4"/>
<path fill-rule="evenodd" clip-rule="evenodd" d="M317.685 265.523L296.997 264.938L287.16 283.153L277.322 264.938L256.635 265.523L267.485 247.892L256.635 230.262L277.322 230.847L287.16 212.632L296.998 230.847L317.685 230.262L306.835 247.892L317.685 265.523Z" fill="white" stroke="white" stroke-width="4"/>
<path fill-rule="evenodd" clip-rule="evenodd" d="M287.231 248.123L296.498 264.069L287.162 281.366L287.231 248.123Z" fill="white" stroke="white" stroke-width="0.501486"/>
<path fill-rule="evenodd" clip-rule="evenodd" d="M258.194 264.623L286.884 248.256L277.825 264.068L258.194 264.623Z" fill="white" stroke="white" stroke-width="0.501486"/>
<path fill-rule="evenodd" clip-rule="evenodd" d="M258.19 231.161L285.962 247.622L268.487 247.89L258.19 231.161Z" fill="white" stroke="white" stroke-width="0.501486"/>
<path fill-rule="evenodd" clip-rule="evenodd" d="M277.822 231.713L287.16 214.425L287.15 248.003L277.822 231.713Z" fill="white" stroke="white" stroke-width="0.501486"/>
<path fill-rule="evenodd" clip-rule="evenodd" d="M287.218 247.126L296.5 231.716L316.133 231.16L287.238 247.132L287.218 247.126Z" fill="white" stroke="white" stroke-width="0.501486"/>
<path fill-rule="evenodd" clip-rule="evenodd" d="M287.991 247.879L305.83 247.891L316.131 264.625L287.991 247.879Z" fill="white" stroke="white" stroke-width="0.501486"/>
<path fill-rule="evenodd" clip-rule="evenodd" d="M262.733 261.788L311.31 233.729Z" fill="white"/>
<path d="M262.733 261.788L311.31 233.729" stroke="white" stroke-width="5"/>
<path fill-rule="evenodd" clip-rule="evenodd" d="M262.733 233.729L311.31 261.788Z" fill="white"/>
<path d="M262.733 233.729L311.31 261.788" stroke="white" stroke-width="4"/>
<path fill-rule="evenodd" clip-rule="evenodd" d="M277.501 264.263L287.021 282.406Z" fill="white"/>
<path d="M277.501 264.263L287.021 282.406" stroke="white"/>
<path fill-rule="evenodd" clip-rule="evenodd" d="M287.021 275.823V219.695Z" fill="white"/>
<path d="M287.021 275.823V219.695" stroke="white" stroke-width="4"/>
<path fill-rule="evenodd" clip-rule="evenodd" d="M153.694 265.523L133.006 264.938L123.169 283.153L113.331 264.938L92.6436 265.523L103.494 247.892L92.6436 230.262L113.331 230.847L123.169 212.632L133.006 230.847L153.694 230.262L142.844 247.892L153.694 265.523Z" fill="white" stroke="white" stroke-width="4"/>
<path fill-rule="evenodd" clip-rule="evenodd" d="M123.24 248.123L132.506 264.069L123.171 281.366L123.24 248.123Z" fill="white" stroke="white" stroke-width="0.501486"/>
<path fill-rule="evenodd" clip-rule="evenodd" d="M94.2031 264.623L122.893 248.256L113.834 264.068L94.2031 264.623Z" fill="white" stroke="white" stroke-width="0.501486"/>
<path fill-rule="evenodd" clip-rule="evenodd" d="M94.1992 231.161L121.971 247.622L104.496 247.89L94.1992 231.161Z" fill="white" stroke="white" stroke-width="0.501486"/>
<path fill-rule="evenodd" clip-rule="evenodd" d="M113.831 231.713L123.169 214.425L123.159 248.003L113.831 231.713Z" fill="white" stroke="white" stroke-width="0.501486"/>
<path fill-rule="evenodd" clip-rule="evenodd" d="M123.227 247.126L132.509 231.716L152.142 231.16L123.247 247.132L123.227 247.126Z" fill="white" stroke="white" stroke-width="0.501486"/>
<path fill-rule="evenodd" clip-rule="evenodd" d="M124 247.879L141.839 247.891L152.139 264.625L124 247.879Z" fill="white" stroke="white" stroke-width="0.501486"/>
<path fill-rule="evenodd" clip-rule="evenodd" d="M98.7422 261.788L147.318 233.729Z" fill="white"/>
<path d="M98.7422 261.788L147.318 233.729" stroke="white" stroke-width="5"/>
<path fill-rule="evenodd" clip-rule="evenodd" d="M98.7422 233.729L147.318 261.788Z" fill="white"/>
<path d="M98.7422 233.729L147.318 261.788" stroke="white" stroke-width="4"/>
<path fill-rule="evenodd" clip-rule="evenodd" d="M113.51 264.263L123.03 282.406Z" fill="white"/>
<path d="M113.51 264.263L123.03 282.406" stroke="white"/>
<path fill-rule="evenodd" clip-rule="evenodd" d="M123.03 275.823V219.695Z" fill="white"/>
<path d="M123.03 275.823V219.695" stroke="white" stroke-width="4"/>
</g>
<defs>
<clipPath id="clip0_1_6221">
<rect width="600" height="400" fill="white"/>
</clipPath>
</defs>
</svg>
