<svg width="600" height="400" viewBox="0 0 600 400" fill="none" xmlns="http://www.w3.org/2000/svg" xmlns:cgf="https://coding.garden/flags"><metadata id="cgf-metadata">

<cgf:flag>
  <cgf:name>Hilversum</cgf:name>
  <cgf:route>nl/nh/hilversum</cgf:route>
  <cgf:aspect-ratio>1.5</cgf:aspect-ratio>
</cgf:flag>

</metadata><g clip-path="url(#clip0_1_6837)">
<path d="M0 0V400H600L599.996 0H0Z" fill="#0099FF"/>
<path d="M533.54 37.5743C455.069 -8.56583 416.302 71.1097 412.977 123.565C468.697 138.807 542.545 124.7 538.027 43.2664L539.822 37.5737L533.54 37.5743Z" fill="#FFFB5C"/>
<path d="M416.981 120.831C436.428 103.046 458.381 85.0083 480.153 67.2092C496.951 53.4746 515.727 45.7161 531.848 42.8645C513.34 54.3556 494.433 63.0378 476.426 78.0332C454.748 89.9657 436.66 106.393 416.983 120.829L416.981 120.831Z" fill="#F79408"/>
<path d="M518.944 75.917C508.956 89.8394 499.627 96.5013 490.176 104.518C496.564 100.755 508.684 93.8646 510.484 90.5349C515.579 83.8289 515.863 80.6138 518.945 75.9163L518.944 75.917Z" fill="#F79408"/>
<path d="M449.559 121.467C476.719 117.023 503.651 116.405 533.54 66.5935C526.119 79.8481 522.296 92.6322 502.655 107.484C485.3 119.383 467.47 121.292 449.559 121.467V121.467Z" fill="#F79408"/>
<path d="M77.9227 39.5464C156.394 -6.59366 195.16 73.0819 198.486 125.537C142.765 140.779 68.9172 126.672 73.4356 45.2386L71.6406 39.5459L77.9227 39.5464Z" fill="#FFFB5C"/>
<path d="M194.485 122.805C175.038 105.02 153.085 86.9824 131.314 69.1833C114.515 55.4488 95.739 47.6902 79.6182 44.8386C98.1261 56.3297 117.034 65.0119 135.041 80.0073C156.718 91.9398 174.807 108.367 194.483 122.804L194.485 122.805Z" fill="#F79408"/>
<path d="M92.5273 77.8894C102.515 91.8118 111.845 98.4737 121.296 106.49C114.907 102.727 102.788 95.8371 100.988 92.5073C95.893 85.8013 95.6085 82.5862 92.5264 77.8887L92.5273 77.8894Z" fill="#F79408"/>
<path d="M161.911 123.442C134.751 118.997 107.819 118.379 77.9297 68.5679C85.3509 81.8224 89.174 94.6066 108.815 109.458C126.17 121.357 144 123.266 161.911 123.441V123.442Z" fill="#F79408"/>
<path d="M76.3672 347.06C60.1433 257.384 148.18 248.376 198.497 263.316C193.593 320.958 154.936 385.535 80.1586 353.241L74.2041 352.968L76.3672 347.06Z" fill="#FFFB5C"/>
<path d="M194.559 266.12C171.19 278.28 146.721 292.71 122.538 307.049C103.878 318.114 90.1384 333.097 81.915 347.272C99.0607 333.828 113.711 319.04 133.97 307.272C152.621 290.999 174.249 279.65 194.559 266.12V266.12Z" fill="#F79408"/>
<path d="M117.339 346.525C133.829 341.929 143.288 335.452 154.058 329.325C148.331 334.036 137.698 343.059 133.957 343.604C125.916 346.085 122.804 345.245 117.339 346.525L117.339 346.525Z" fill="#F79408"/>
<path d="M183.934 296.977C170.413 320.984 160.558 346.094 103.572 357.043C118.553 354.631 131.853 355.439 152.539 342.086C169.669 329.866 177.6 313.76 183.934 296.979V296.977Z" fill="#F79408"/>
<path d="M532.178 345.29C548.402 255.615 460.366 246.606 410.049 261.547C414.952 319.189 453.61 383.766 528.387 351.471L534.341 351.198L532.178 345.29Z" fill="#FFFB5C"/>
<path d="M413.981 264.369C437.35 276.528 461.82 290.959 486.002 305.298C504.662 316.362 518.402 331.346 526.625 345.521C509.479 332.076 494.829 317.288 474.57 305.521C455.919 289.248 434.291 277.899 413.981 264.369V264.369Z" fill="#F79408"/>
<path d="M491.209 344.756C474.718 340.159 465.26 333.682 454.489 327.556C460.217 332.267 470.85 341.289 474.591 341.834C482.632 344.315 485.744 343.476 491.209 344.756L491.209 344.756Z" fill="#F79408"/>
<path d="M424.62 295.207C438.141 319.215 447.996 344.324 504.981 355.274C490.001 352.861 476.7 353.669 456.015 340.317C438.884 328.097 430.953 311.99 424.62 295.209V295.207Z" fill="#F79408"/>
</g>
<defs>
<clipPath id="clip0_1_6837">
<rect width="600" height="400" fill="white"/>
</clipPath>
</defs>
</svg>
