<svg width="600" height="400" viewBox="0 0 600 400" fill="none" xmlns="http://www.w3.org/2000/svg" xmlns:cgf="https://coding.garden/flags"><metadata id="cgf-metadata">

<cgf:flag>
  <cgf:name>Hollands Kroon</cgf:name>
  <cgf:route>nl/nh/hollands_kroon</cgf:route>
  <cgf:aspect-ratio>1.5</cgf:aspect-ratio>
</cgf:flag>

</metadata><g clip-path="url(#clip0_1_6860)">
<path d="M599.496 0.442139H0.503906V399.544H599.496V0.442139Z" fill="#ECECEC"/>
<path d="M158.45 129.392C187.791 161.103 195.129 197.804 158.216 231.571C124.6 196.399 124.679 162.34 158.45 129.392Z" fill="#EA5D27"/>
<path d="M78.0674 158.528C123.932 162.838 158.018 184.445 158.22 231.588C106.584 227.478 79.8676 203.124 78.0674 158.528V158.528Z" fill="#A3C900"/>
<path d="M43.8047 224.889C81.1735 200.802 122.736 196.6 158.211 231.57C116.695 259.241 78.5602 257.013 43.8047 224.889V224.889Z" fill="#339ED4"/>
<path d="M238.358 158.522C192.493 162.832 158.407 184.439 158.205 231.582C209.841 227.472 236.557 203.118 238.358 158.522V158.522Z" fill="#A3C900"/>
<path d="M272.606 224.89C235.237 200.802 193.675 196.6 158.2 231.571C199.715 259.242 237.851 257.014 272.606 224.89Z" fill="#339ED4"/>
<path d="M133.121 177.354C152.272 192.067 157.941 210.972 158.201 231.558C141.725 214.955 131.703 194.136 133.121 177.354V177.354Z" fill="#990C2D"/>
<path d="M183.005 177.491C163.854 192.524 158.461 211.226 158.2 231.579C176.173 215.809 185.399 194.817 183.005 177.491Z" fill="#990C2D"/>
<path d="M95.4512 206.239C110.037 221.745 131.53 229.556 158.212 231.587C145.183 219.737 128.342 204.74 95.4512 206.239V206.239Z" fill="#01852F"/>
<path d="M220.972 206.233C206.386 221.739 184.893 229.55 158.211 231.581C171.24 219.731 188.584 204.361 220.972 206.233V206.233Z" fill="#01852F"/>
</g>
<defs>
<clipPath id="clip0_1_6860">
<rect width="600" height="400" fill="white"/>
</clipPath>
</defs>
</svg>
