<svg width="600" height="400" viewBox="0 0 600 400" fill="none" xmlns="http://www.w3.org/2000/svg" xmlns:cgf="https://coding.garden/flags"><metadata id="cgf-metadata">

<cgf:flag>
  <cgf:name>Huizen</cgf:name>
  <cgf:route>nl/nh/huizen</cgf:route>
  <cgf:aspect-ratio>1.5</cgf:aspect-ratio>
</cgf:flag>

</metadata><g clip-path="url(#clip0_1_6883)">
<path d="M0.283203 1.50951V399.736L599.72 398.503V0.276611L0.283203 1.50951V1.50951Z" fill="#DA1219"/>
<path d="M0.203125 194.402V399.811L599.8 399.175V193.766L0.203125 194.402V194.402Z" fill="#FCDD09"/>
<path d="M276.268 178.592C275.788 178.56 273.679 178.458 271.583 178.364C265.148 178.078 259.841 177.59 250.047 176.383C246.333 175.926 245.681 175.79 244.62 175.252C243.681 174.777 243.446 174.569 243.244 174.039C243.027 173.468 243.351 172.968 244.307 172.395C245.869 171.461 248.525 171.039 255.62 170.598C257.755 170.465 261.962 170.604 262.487 170.824C262.672 170.903 262.922 170.807 263.249 170.531C263.9 169.984 269.013 167.496 269.915 167.288C272.006 166.805 273.918 166.703 280.3 166.736C283.871 166.755 286.829 166.807 286.874 166.851C286.918 166.896 286.641 167.329 286.258 167.813C284.214 170.394 283.861 170.917 283.419 172.014C282.663 173.892 282.814 175.971 283.742 176.468C284.824 177.046 288.649 175.568 291.755 173.37C292.192 173.061 292.931 172.548 293.397 172.23C293.864 171.912 294.435 171.365 294.667 171.015C295.031 170.466 295.09 170.21 295.09 169.175C295.09 168.513 295.055 167.657 295.011 167.272C294.935 166.604 294.953 166.566 295.408 166.439C295.67 166.366 296.877 166.234 298.09 166.146C299.303 166.057 300.572 165.941 300.91 165.887L301.523 165.789V166.37C301.523 168.18 302.959 169.144 306.371 169.626C309.808 170.112 311.282 170.476 313.56 171.403C317.562 173.032 320.057 173.057 320.354 171.471C320.534 170.513 320.303 169.823 319.521 168.988C318.626 168.032 317.801 167.633 314.071 166.355L311.133 165.348L312.483 165.426C313.226 165.469 315.012 165.576 316.454 165.665C320.399 165.908 326.039 165.909 329.19 165.668C332.538 165.413 332.939 165.487 335.832 166.89C336.837 167.377 338.445 168.057 339.406 168.401C341.672 169.213 345.358 170.114 346.409 170.114C349.776 170.114 355.745 171.397 356.183 172.214C356.44 172.695 356.105 173.652 355.5 174.16C354.82 174.732 353.137 175.546 351.795 175.951C349.328 176.698 347.074 176.902 339.168 177.099C335.629 177.187 331.091 177.329 329.081 177.415C327.072 177.501 320.496 177.563 314.468 177.553C304.057 177.536 299.995 177.65 296.679 178.052C294.118 178.362 290.332 178.518 283.813 178.583C280.144 178.62 276.749 178.623 276.268 178.591V178.592ZM284.528 175.555C284.081 175.403 283.892 174.975 283.892 174.116C283.892 173.353 283.95 173.204 284.405 172.779C284.907 172.311 284.944 172.303 286.271 172.369C287.136 172.413 287.816 172.538 288.153 172.714C288.74 173.023 289.134 172.865 289.134 172.321C289.134 171.664 287.353 171.125 285.786 171.306L284.82 171.419L285.093 170.886C285.243 170.593 285.845 169.846 286.431 169.227C287.018 168.608 287.664 167.805 287.868 167.442L288.24 166.782L289.441 166.767C290.102 166.759 291.311 166.705 292.127 166.648C292.943 166.59 293.669 166.579 293.74 166.623C293.811 166.667 293.985 167.261 294.126 167.943C294.575 170.112 294.222 170.679 291.162 172.715C288.49 174.493 285.353 175.836 284.528 175.555V175.555ZM316.851 171.545C316.414 171.481 315.485 171.197 314.786 170.915C311.979 169.781 310.404 169.36 306.818 168.783C304.048 168.338 303.102 167.986 302.64 167.229C302.247 166.585 302.241 166.434 302.596 166.001C302.819 165.727 303.122 165.638 304.144 165.547C305.363 165.438 305.415 165.417 305.415 165.036V164.639L303.867 164.698C302.555 164.747 302.252 164.71 301.881 164.46C301.5 164.201 301.121 164.163 298.903 164.163C296.067 164.163 295.38 164.311 294.685 165.071L294.258 165.538L292.212 165.565C289.168 165.605 289.357 165.739 289.22 163.439C289.156 162.384 289.143 161.483 289.191 161.435C289.238 161.388 289.905 161.465 290.674 161.606C291.444 161.747 292.693 161.863 293.451 161.862H294.829L294.748 162.696C294.693 163.258 294.735 163.618 294.878 163.804C295.259 164.296 295.544 163.887 295.617 162.744C295.675 161.836 295.728 161.691 296.023 161.624C296.209 161.582 297.04 161.395 297.87 161.208C299.697 160.795 300.027 160.801 301.314 161.262L302.318 161.621V162.526C302.318 163.476 302.494 163.764 302.881 163.444C303.031 163.319 303.112 162.952 303.112 162.398V161.545L303.787 161.543C304.158 161.543 305.318 161.364 306.365 161.147C307.411 160.929 308.465 160.751 308.707 160.751H309.148L309.158 162.298C309.17 164.388 309.343 165.346 309.768 165.69C309.957 165.843 310.984 166.251 312.052 166.597C316.625 168.079 318.312 168.917 319.113 170.105C319.555 170.76 319.562 170.978 319.155 171.384C318.816 171.723 318.301 171.759 316.852 171.545L316.851 171.545ZM290.873 160.741C290.389 160.67 289.586 160.46 289.09 160.275C287.485 159.675 287.612 160.472 287.463 150.087C287.294 138.382 287.292 136.048 287.445 128.852C287.519 125.401 287.509 121.133 287.421 118.694C287.295 115.194 287.311 114.174 287.513 112.615C287.737 110.883 287.735 110.722 287.491 110.478C287.245 110.232 287.206 110.235 286.921 110.526C286.342 111.119 286.1 114.168 285.952 122.741C285.878 127.018 285.745 133.875 285.656 137.977C285.567 142.08 285.447 148.525 285.389 152.3L285.284 159.164L283.596 159.16C281.842 159.157 280.158 158.978 279.024 158.673C278.466 158.523 278.35 158.42 278.266 157.997C278.212 157.722 278.089 154.176 277.992 150.117C277.794 141.781 278 128.69 278.412 123.217C278.686 119.593 279.252 113.691 279.371 113.219C279.415 113.044 279.517 111.187 279.598 109.092C279.748 105.25 279.913 103.057 280.318 99.5699C280.44 98.5225 280.622 96.7727 280.724 95.6816C281.096 91.6854 282.147 84.6509 282.696 82.4775C283.96 77.4778 285.561 73.5477 288.067 69.291C288.416 68.6985 288.758 68.2343 288.827 68.2594C289.074 68.3486 292.265 71.3094 294.555 73.574C296.727 75.7215 297.07 76.1294 297.293 76.8307C297.341 76.9809 297.575 77.1525 297.813 77.2122C298.165 77.3005 298.306 77.2415 298.574 76.894C299.05 76.276 301.052 73.9774 301.831 73.1536C302.723 72.2105 302.964 72.3733 303.873 74.5332C304.123 75.1258 304.45 75.2778 304.775 74.9526C305.125 74.6028 305.075 73.8293 304.615 72.4919C304.394 71.8476 304.173 71.2046 304.125 71.063C304.071 70.9004 304.315 70.4908 304.788 69.952C305.931 68.6508 307.576 66.9561 307.696 66.9561C307.814 66.9561 308.899 68.5806 309.752 70.0333C311.44 72.9095 313.511 78.5821 314.545 83.1612C314.907 84.7666 315.521 87.3655 315.909 88.9367C316.726 92.2409 317.57 97.1911 318.035 101.395C318.572 106.256 319.141 111.679 319.317 113.615C319.408 114.619 319.589 116.547 319.719 117.9C319.849 119.253 320.061 122.253 320.191 124.566C320.32 126.879 320.496 129.914 320.582 131.311C321.174 140.939 321.453 154.504 321.111 157.021C320.991 157.902 320.939 157.993 320.425 158.241C320.119 158.389 319.422 158.559 318.876 158.619L317.884 158.728V155.732C317.884 152.113 317.569 143.263 316.928 128.534C316.831 126.308 316.612 122.951 316.44 121.074C316.269 119.198 315.989 116.063 315.817 114.108C315.371 109.018 314.944 106.785 314.344 106.407C314.158 106.29 314.027 106.299 313.888 106.438C313.733 106.593 313.751 107.285 313.975 109.767C314.475 115.288 314.531 116.26 314.79 123.852C315.065 131.878 315.207 158.93 314.981 159.997C314.826 160.725 314.734 160.732 312.566 160.193C310.438 159.664 309.08 159.681 306.107 160.274C304.795 160.536 303.415 160.751 303.041 160.751C302.365 160.751 302.361 160.747 302.247 160.076C302.185 159.705 302.107 155.974 302.075 151.784C302.004 142.439 301.617 133.599 300.974 126.629C300.85 125.276 300.662 122.955 300.558 121.471C300.395 119.145 300.324 118.724 300.046 118.416C299.869 118.22 299.647 118.059 299.553 118.059C299.432 118.059 299.387 122.326 299.398 132.62C299.409 143.288 299.354 148.178 299.193 150.911C299.072 152.962 298.93 155.872 298.877 157.378C298.823 158.884 298.766 160.116 298.748 160.116C298.73 160.116 297.908 160.294 296.92 160.513C295.035 160.929 292.745 161.016 290.877 160.741L290.873 160.741ZM305.859 83.2225C306.021 82.2658 305.724 78.3375 305.446 77.756C305.216 77.274 304.678 77.1546 304.376 77.5184C304.192 77.7402 304.202 78.0354 304.446 79.4702C304.604 80.4 304.771 81.7321 304.817 82.4304C304.905 83.7589 305.06 84.1426 305.476 84.0625C305.64 84.031 305.772 83.7418 305.859 83.2225H305.859ZM336.785 159.155C333.895 159.033 331.977 158.827 330.352 158.464C328.605 158.073 325.709 157.271 324.928 156.962L324.157 156.656L324.211 155.41C324.24 154.725 324.295 154.134 324.333 154.096C324.371 154.057 325.741 154.357 327.377 154.762C329.014 155.167 330.996 155.603 331.782 155.731C333.093 155.945 334 156.046 338.374 156.463C340.353 156.651 350.873 156.545 352.907 156.316C355.889 155.98 360.829 155.007 363.596 154.21C364.349 153.993 364.808 153.931 364.909 154.032C364.994 154.117 365.144 154.64 365.241 155.194C365.459 156.426 365.392 156.496 363.646 156.877C362.981 157.022 361.484 157.382 360.319 157.678C357.914 158.288 355.16 158.758 352.034 159.091C349.723 159.337 341.897 159.37 336.785 159.155H336.785ZM249.584 158.437C248.579 158.327 247.4 158.165 246.963 158.076C241.344 156.938 238.942 156.184 237.265 155.032C236.623 154.591 236.546 154.477 236.637 154.109C236.694 153.878 236.802 153.626 236.877 153.549C236.956 153.468 237.611 153.646 238.415 153.964C240.518 154.799 243.493 155.632 247.095 156.396C249.967 157.005 253.17 157.001 260.464 156.379C265.628 155.94 271.191 154.998 274.867 153.943C275.45 153.776 275.968 153.68 276.018 153.73C276.069 153.78 276.109 154.083 276.109 154.404C276.109 155.065 276.142 155.043 273.844 155.924C270.037 157.383 264.268 158.297 257.843 158.459C256.227 158.5 254.119 158.557 253.158 158.585C252.197 158.614 250.588 158.547 249.584 158.437V158.437ZM251.252 155.893C247.735 155.593 242.384 154.405 239.264 153.231C237.003 152.381 237.094 152.666 237.908 149.007C238.655 145.653 238.74 145.357 238.968 145.357C239.051 145.357 239.776 145.566 240.579 145.822C243.303 146.69 247.798 147.766 251.649 148.471C254.806 149.048 264.423 148.334 269.239 147.165C270.135 146.947 271.658 146.444 272.624 146.046C273.591 145.649 274.408 145.35 274.441 145.382C274.703 145.645 276.04 152.543 275.879 152.804C275.835 152.873 275.495 152.973 275.121 153.024C274.747 153.076 273.798 153.309 273.012 153.541C269.509 154.577 263.817 155.329 256.89 155.672C255.099 155.76 253.241 155.858 252.761 155.89C252.28 155.921 251.601 155.923 251.252 155.894V155.893ZM338.612 155.67C334.754 155.362 331.564 154.835 327.35 153.809L324.348 153.079L324.443 150.21C324.522 147.852 324.781 145.096 324.941 144.921C324.961 144.899 325.793 145.171 326.791 145.523C331.438 147.168 335.35 148.017 339.376 148.257C345.709 148.634 352.712 147.828 359.871 145.897C361.343 145.5 362.577 145.206 362.615 145.244C362.825 145.454 363.355 147.35 363.863 149.711C364.181 151.19 364.479 152.461 364.525 152.535C364.709 152.834 364.178 153.13 363.02 153.374C362.35 153.515 360.823 153.873 359.627 154.17C357.353 154.735 354.331 155.219 351.239 155.515C348.808 155.747 340.803 155.845 338.612 155.67V155.67ZM252.919 147.637C250.536 147.296 246.807 146.584 244.183 145.969C242.564 145.589 239.398 144.589 239.19 144.391C239.009 144.219 239.534 141.865 239.755 141.865C239.837 141.865 240.171 141.978 240.496 142.115C242.569 142.991 246.163 143.965 250.06 144.709C250.541 144.8 251.327 144.956 251.807 145.054C254.006 145.503 258.759 145.399 263.244 144.803C267.39 144.252 269.521 143.731 272.105 142.637C272.916 142.293 273.643 142.051 273.72 142.099C273.856 142.183 274.203 143.557 274.203 144.012C274.203 144.292 273.715 144.548 271.806 145.268C268.87 146.376 265.267 147.059 260.07 147.493C257.414 147.714 253.946 147.784 252.919 147.637V147.637ZM338.453 147.324C335.315 147.023 333.148 146.571 328.684 145.29C325.852 144.476 325.586 144.386 325.25 144.117C324.934 143.865 324.922 143.77 325.05 142.509C325.126 141.773 325.245 141.112 325.316 141.041C325.387 140.97 326.205 141.297 327.134 141.769C329.803 143.123 332.583 143.949 336.308 144.494C340.955 145.173 352.508 144.149 358.989 142.483C360.674 142.05 362.116 141.735 362.192 141.782C362.359 141.885 362.675 143.284 362.675 143.919C362.675 144.315 362.604 144.382 362.08 144.476C361.752 144.534 360.233 144.895 358.704 145.278C351.351 147.119 350.157 147.287 344.091 147.341C341.34 147.365 338.802 147.358 338.453 147.324V147.324ZM253.714 144.241C251.873 144.057 245.572 142.864 243.661 142.337C242.133 141.916 240.625 141.3 240.109 140.888C239.974 140.78 240.085 140.128 240.531 138.407C241.202 135.815 241.428 135.145 241.603 135.235C244.142 136.537 246.666 137.337 250.775 138.141C251.911 138.364 253.09 138.609 253.396 138.686C258.061 139.859 264.747 139.063 270.759 136.618C271.381 136.365 271.945 136.213 272.012 136.28C272.225 136.493 273.578 140.769 273.482 140.924C273.332 141.166 272.644 141.469 270.868 142.074C267.444 143.24 264.721 143.753 259.774 144.163C256.686 144.419 255.631 144.433 253.714 144.241V144.241ZM336.308 143.664C334.356 143.357 332.102 142.831 330.537 142.315C328.578 141.67 326.039 140.489 325.678 140.054C325.503 139.844 325.525 139.573 325.811 138.413C326.236 136.69 327.221 134.092 327.487 133.99C327.596 133.948 328.321 134.229 329.098 134.615C330.619 135.37 334.15 136.589 336.262 137.087C336.98 137.257 337.633 137.436 337.714 137.486C337.796 137.537 338.924 137.763 340.222 137.99C343.806 138.615 346.598 138.594 349.651 137.917C355.217 136.683 356.887 136.121 358.823 134.832C360.297 133.85 360.129 133.137 358.63 134.015C357.607 134.614 356.239 135.117 353.066 136.06C349.265 137.19 347.525 137.497 345.044 137.476C341.654 137.448 338.724 136.943 334.177 135.603C331.114 134.7 328.655 133.733 328.021 133.182C327.781 132.973 327.777 132.888 327.985 132.299C328.594 130.575 330.138 127.881 331.461 126.233C333.304 123.938 336.38 121.781 339.009 120.938C339.747 120.702 342.701 120.288 343.677 120.284L344.455 120.282L344.343 118.526C344.182 115.971 344.224 100.504 344.404 96.238C344.813 86.5804 344.812 87.2657 344.418 86.4941C344.223 86.1113 343.995 85.7189 343.911 85.6221C343.381 85.0064 342.165 83.1712 342.111 82.9068C342.076 82.7322 342.008 82.1371 341.959 81.5843C341.879 80.6742 341.8 80.4973 341.128 79.7112C339.737 78.0845 337.479 76.453 332.424 73.4215C328.826 71.2645 327.279 70.158 325.627 68.5632C324.724 67.6909 324.714 67.6709 324.714 66.7708C324.714 65.2142 325.67 63.0383 326.928 61.7294C327.564 61.0688 329.2 60.2112 329.561 60.3496C329.767 60.4285 331.396 62.3141 338.444 70.6269C341.038 73.6858 343.516 76.3509 343.905 76.4985C344.207 76.6133 344.365 76.5918 344.546 76.4117C344.758 76.1997 344.763 75.3314 344.594 68.827C344.489 64.7871 344.334 59.482 344.25 57.0379C343.995 49.6885 343.77 41.2901 343.773 39.2185V37.2696L340.318 37.3648C338.418 37.4171 335.13 37.5203 333.013 37.5941L329.162 37.7283L328.493 38.3009C328.125 38.6157 327.463 38.9822 327.022 39.1151C325.943 39.4406 320.497 39.6909 318.782 39.4938C316.574 39.24 315.595 39.291 315.246 39.6778C314.945 40.0116 314.947 40.0163 315.653 40.5904C320.483 44.5178 321.756 46.1846 321.97 48.8646C322.063 50.0225 322.208 50.2463 324.378 52.5934C326.695 55.1001 329.636 58.7822 329.636 59.177C329.636 59.2428 329.102 59.4914 328.448 59.7295C327.452 60.0927 327.125 60.3095 326.423 61.0747C325.385 62.2056 324.649 63.4235 324.15 64.8384C323.699 66.1154 323.675 66.5213 324 67.4418C324.332 68.3812 324.144 68.5276 323.084 68.1545C319.633 66.9394 317.397 64.8957 314.181 60.0149C312.039 56.7659 311.635 56.0568 311.213 54.8179C311.016 54.2395 310.861 54.0225 310.643 54.0225C310.387 54.0225 310.288 54.2949 309.973 55.8476C309.614 57.6167 308.535 61.1311 307.491 63.9262C307.025 65.1719 306.864 65.4079 305.634 66.6396C303.208 69.0682 299.744 72.917 298.517 74.5484C298.305 74.8294 298.087 75.0396 298.031 75.0154C297.975 74.9913 297.444 74.4002 296.85 73.7019C295.547 72.167 293.243 69.9536 290.544 67.6415L288.541 65.9254L288.433 65.0197C288.078 62.0534 287.041 58.4013 285.791 55.7117C284.962 53.9295 284.627 53.8149 284.568 55.2937C284.435 58.661 284.182 62.5975 284.037 63.5448C283.687 65.8346 282.663 68.4989 281.996 68.8554C281.527 69.1067 281.061 69.0526 280.886 68.7265C280.8 68.565 280.665 67.7947 280.586 67.0146C280.462 65.774 280.339 65.3846 279.609 63.9045C278.709 62.0824 277.739 60.922 276.78 60.5219C276.08 60.2294 275.656 60.2312 274.941 60.5294C274.628 60.6603 274.306 60.7674 274.227 60.7674C274.046 60.7674 275.134 55.4587 276.293 50.6897C276.782 48.6771 277.851 45.2125 278.2 44.5089C278.376 44.155 279.276 43.1311 280.202 42.2335C282.355 40.145 282.327 40.082 279.364 40.3757C272.905 41.0162 270.811 41.1 269.445 40.7726C268.896 40.641 268.311 40.3135 267.573 39.7244C266.961 39.2367 266.263 38.8231 265.951 38.7641C265.319 38.6445 258.304 38.8152 257.628 38.9666L257.175 39.068L257.269 41.6254C257.479 47.2765 257.538 59.7922 257.385 66.0047C257.295 69.6271 257.201 75.3035 257.175 78.6188C257.131 84.1174 257.15 84.6512 257.389 84.6979C257.68 84.7547 258.678 83.1909 260.001 80.6055C261.737 77.2117 266.275 71.0245 270.768 65.9254C273.615 62.6948 275.033 61.2608 275.479 61.163C276.486 60.942 277.804 62.1909 278.895 64.3996C279.69 66.0108 279.878 66.8945 279.691 68.1436C279.599 68.7579 279.381 69.1003 278.298 70.3346C275.933 73.0293 273.096 75.7785 267.778 80.5272C266.086 82.0382 265.513 82.6011 262.282 85.9226C259.706 88.571 259.271 89.2042 258.932 90.8057C258.835 91.2621 258.657 91.8298 258.536 92.0672C258.29 92.5475 257.764 92.8943 257.514 92.7401C257.425 92.6849 257.261 92.7151 257.15 92.8071C256.905 93.0105 256.81 98.5318 256.81 112.585V122.107L258.008 122.145C259.723 122.199 261.484 122.69 263.401 123.647C264.871 124.381 265.257 124.668 266.657 126.071C268.493 127.909 269.325 129.216 270.624 132.297C271.871 135.255 271.862 135.115 270.843 135.565C268.889 136.429 265.547 137.367 262.448 137.922C261.719 138.053 260.116 138.133 258.319 138.129C255.885 138.123 255.08 138.059 253.633 137.757C252.672 137.557 251.171 137.263 250.297 137.105C246.354 136.392 244.132 135.694 242.753 134.735C241.702 134.005 241.702 133.999 242.62 131.48C243.456 129.185 243.933 128.186 244.746 127.027C246.447 124.6 248.17 123.637 252.567 122.656C253.465 122.456 254.297 122.215 254.414 122.12C254.584 121.983 254.667 120.133 254.822 113.061C254.93 108.173 255.065 102.745 255.123 100.999C255.181 99.2533 255.201 97.7 255.167 97.5473C255.123 97.3509 254.95 97.2695 254.576 97.2695C254.246 97.2695 253.88 97.1255 253.602 96.8865L253.156 96.5034L253.202 93.6727C253.228 92.1158 253.32 90.2707 253.407 89.5724L253.567 88.3027L254.489 87.4299L255.411 86.557L255.518 81.0023C255.576 77.9472 255.676 73.8408 255.74 71.8768C255.902 66.9068 255.854 52.6381 255.651 45.6363C255.508 40.6795 255.444 39.7468 255.23 39.5108C254.939 39.189 254.131 38.9287 252.998 38.7917C252.561 38.7389 251.9 38.6583 251.529 38.6126C251.135 38.5642 250.656 38.3626 250.378 38.1284C249.985 37.7981 249.9 37.6076 249.9 37.0516C249.9 36.5665 249.994 36.291 250.235 36.0738C250.554 35.7848 250.839 35.7747 256.707 35.8433C266.838 35.9618 272.218 35.9261 275.235 35.7203C278.686 35.4849 287.459 34.9574 290.345 34.8118C291.492 34.7539 292.573 34.7518 292.748 34.807C292.922 34.8622 293.337 35.3161 293.669 35.8155C294.195 36.6067 294.28 36.8648 294.33 37.8208C294.424 39.6142 296.428 44.0393 297.949 45.8094C298.268 46.1804 298.625 46.4839 298.742 46.4839C299.139 46.4839 300.519 44.7339 301.192 43.3783C302.642 40.4544 303.554 37.2966 303.208 36.3971C303.014 35.891 302.531 36.5693 302.321 37.6433C302.121 38.6658 301.333 40.846 300.726 42.0562C300.222 43.0602 298.948 45.2156 298.806 45.3031C298.637 45.4075 297.006 42.918 296.504 41.7889C295.222 38.9069 294.566 36.7984 294.952 36.8054C295.028 36.8068 295.518 36.9113 296.042 37.0378C297.943 37.4965 300.162 37.245 301.955 36.3676C302.442 36.1292 303.366 35.4441 304.008 34.8452L305.175 33.7562L305.751 34.0956C307.084 34.8817 306.915 34.8767 329.557 34.7944C352.16 34.7123 351.559 34.6939 351.421 35.4627C351.318 36.0297 350.661 36.2422 347.982 36.5744C346.933 36.7044 345.879 36.8891 345.639 36.9848L345.202 37.1588V40.3533C345.202 42.1103 345.306 47.4044 345.435 52.1179C345.752 63.7111 346.002 74.7315 346 76.984V78.838L346.48 79.1796C346.744 79.3675 347.103 79.801 347.277 80.143C347.647 80.8667 348.382 83.8501 348.382 84.6257C348.382 85.394 347.484 87.0768 346.629 87.9103L345.892 88.6289L345.778 91.1637C345.375 100.132 345.396 119.9 345.808 120.312C345.878 120.382 346.682 120.546 347.596 120.677C350.017 121.025 351.424 121.438 352.729 122.184C356.01 124.06 358.089 127.082 359.715 132.343C360.868 136.075 362.034 140.768 361.826 140.844C361.223 141.064 357.745 141.92 356.404 142.179C353.529 142.734 349.13 143.285 344.984 143.609C343.045 143.761 337.165 143.798 336.311 143.664L336.308 143.664ZM260.941 135.668C264.308 135.283 269.915 133.865 269.915 133.398C269.915 133.109 268.635 130.738 267.838 129.553C266.947 128.228 265.377 126.591 264.311 125.875C263.079 125.047 261.037 124.135 259.59 123.766C258.397 123.462 257.954 123.432 255.778 123.505C252.831 123.604 251.235 123.953 249.266 124.929C247.297 125.905 245.954 127.293 244.853 129.489C244.393 130.408 243.974 131.419 243.922 131.737C243.837 132.263 243.873 132.338 244.317 132.568C245.147 132.997 249.911 134.523 251.252 134.79C252.63 135.064 254.05 135.265 256.89 135.59C259.256 135.86 259.263 135.86 260.941 135.668V135.668ZM255.778 134.495C253.091 134.152 251.811 133.941 250.439 133.616C248.98 133.271 245.931 132.182 245.931 132.006C245.931 131.827 249.779 130.629 251.561 130.254C253.704 129.803 256.185 129.808 258.717 130.267C262.347 130.925 265.296 131.863 266.824 132.848L267.612 133.355L266.103 133.713C262.231 134.634 258.868 134.889 255.778 134.495V134.495ZM349.55 134.73C352.32 134.133 358.387 132.02 358.387 131.652C358.387 131.372 356.768 127.757 356.263 126.907C355.706 125.97 354.29 124.674 352.962 123.886C351.653 123.109 348.856 122.226 347.013 122.009C345.247 121.801 342.45 122.017 340.438 122.516C336.197 123.57 332.326 126.578 330.193 130.48L329.606 131.553L330.216 131.807C333.609 133.224 338.42 134.667 340.994 135.041C342.727 135.292 347.792 135.108 349.55 134.73V134.73ZM340.121 133.919C338.208 133.546 337.257 133.293 334.402 132.393C331.919 131.611 331.527 131.422 331.92 131.202C332.32 130.979 335.863 130.292 337.604 130.102C340.107 129.827 343.735 130.017 348.142 130.654C353.775 131.468 355.389 131.751 355.241 131.899C355.115 132.026 354.14 132.415 352.748 132.896C351.71 133.255 349.507 133.784 348.062 134.02C346.112 134.34 342.017 134.288 340.121 133.919V133.919ZM300.134 53.9033C304.687 49.2416 306.911 44.4656 307.562 37.9582C307.803 35.541 307.7 35.3134 306.327 35.2479C305.596 35.2131 305.335 35.2549 305.334 35.4066C305.326 36.3152 304.793 40.144 304.531 41.1566C303.745 44.2022 301.957 47.0312 299.601 48.9573L298.47 49.8812L298.012 49.3331C296.526 47.5588 294.85 44.5695 293.59 41.445C292.965 39.8947 292.792 39.2861 292.481 37.5243C292.288 36.4308 292.098 36.1883 291.347 36.0758C290.71 35.9804 289.769 36.4775 289.769 36.9093C289.769 37.4291 290.892 41.7228 291.437 43.2864C292.601 46.6296 293.807 48.7992 296.124 51.7211C297.935 54.0054 298.816 55.0539 298.925 55.0539C298.972 55.0539 299.516 54.5361 300.134 53.9033ZM313.724 39.6177C313.796 39.2448 312.853 38.279 311.159 36.9894C309.691 35.8725 309.066 35.6223 308.89 36.0806C308.773 36.3864 308.973 36.6004 310.661 37.9768C313.09 39.9564 313.604 40.2318 313.724 39.6177V39.6177ZM284.695 38.8248C285.433 38.3657 286.696 37.5979 287.502 37.1187C288.919 36.2758 289.234 35.9818 289.046 35.6776C288.843 35.3494 288.203 35.5962 286.234 36.7632C283.999 38.0876 282.651 39.1637 282.842 39.4719C283.036 39.7854 283.298 39.6937 284.695 38.8248V38.8248ZM295.768 36.1751C293.302 35.3971 292.342 32.7297 291.293 23.7494C291.245 23.3348 291.224 22.9956 291.248 22.9956C291.272 22.9956 292.207 23.1714 293.327 23.3863C296.184 23.9345 298.373 24.1493 299.855 24.0268C302.359 23.82 304.613 23.4625 306.036 23.0467C306.327 22.9615 306.335 23.0411 306.236 25.0796C306.053 28.836 305.292 31.6912 304.008 33.439C303.278 34.4317 302.634 34.9214 301.087 35.6597C299.908 36.222 299.776 36.2488 298.029 36.2798C297.024 36.2977 296.006 36.2506 295.767 36.1751H295.768ZM299.55 33.2503C300.356 32.8754 301.047 32.1957 301.047 31.7773C301.047 31.4386 300.595 31.3399 300.146 31.5802C299.762 31.7857 297.402 31.8612 296.202 31.7064C295.818 31.6568 295.717 31.7078 295.679 31.9717C295.653 32.1514 295.775 32.4802 295.95 32.7025C296.708 33.665 298.178 33.8887 299.55 33.2503V33.2503ZM296.202 26.8329C296.996 26.6929 297.159 26.1767 296.538 25.77C296.205 25.5518 296.001 25.5357 295.297 25.6718C294.834 25.7614 294.085 25.8803 293.633 25.936C292.561 26.0683 292.378 26.5222 293.264 26.85C293.604 26.9759 295.452 26.9651 296.202 26.8329V26.8329ZM303.872 26.2578C304.166 25.9836 303.949 25.5692 303.456 25.4634C302.882 25.3405 300.045 25.6232 299.632 25.8445C299.227 26.0608 299.219 26.1542 299.578 26.4189C299.934 26.6818 303.563 26.5457 303.872 26.2578H303.872ZM307.263 29.2294C306.928 29.1658 306.897 29.0958 306.979 28.5765C307.091 27.8662 307.388 24.6397 307.441 23.553C307.479 22.7626 307.481 22.7612 308.115 22.6496C309.246 22.4505 311.752 22.5082 312.573 22.7521C313.004 22.8801 313.607 23.1939 313.913 23.4495L314.468 23.9143L314.488 25.6371C314.513 27.8216 314.505 27.7567 314.782 27.7567C315.269 27.7567 315.534 26.8442 315.476 25.3684C315.427 24.1194 315.371 23.9031 314.939 23.2867C313.659 21.4586 310.696 21.0494 306.006 22.0527C302.112 22.8856 301.101 23.0295 299.061 23.0407C296.478 23.0549 294.612 22.8105 291.675 22.0734C289.766 21.5943 289.087 21.4948 287.704 21.4917C286.223 21.4882 285.935 21.5354 285.128 21.9132C283.992 22.4452 282.706 23.6326 282.213 24.6045C281.773 25.4721 281.254 27.2371 281.397 27.3799C281.637 27.6193 281.953 27.2371 282.352 26.2265C282.891 24.8568 284.186 23.456 285.468 22.8554C286.263 22.483 286.526 22.4426 288.022 22.4641C288.939 22.4773 289.886 22.5648 290.127 22.6585C290.554 22.8254 290.563 22.8571 290.564 24.1422C290.564 24.8645 290.672 26.1637 290.803 27.0292C290.933 27.8948 291.022 28.6198 291 28.6403C290.978 28.6608 289.602 28.7118 287.943 28.7536C283.363 28.8689 281.747 28.6082 280.703 27.5854C279.792 26.6935 279.551 26.111 279.648 25.0405C279.809 23.259 281.121 21.6199 283.166 20.6438C285.568 19.4975 287.991 19.5566 294.761 20.9267C299.478 21.8811 300.21 21.8315 305.143 20.223C309.326 18.8592 310.826 18.64 312.698 19.1189C314.306 19.5301 315.804 20.3428 316.826 21.3588C318.114 22.6387 318.584 23.4707 318.443 24.2201C318.152 25.7706 317.098 27.0086 315.423 27.7676C313.102 28.8192 308.988 29.5562 307.263 29.2294H307.263ZM298.426 20.0384C296.123 19.7311 290.405 18.428 290.405 18.2105C290.405 18.1365 290.843 17.1754 291.379 16.0747C292.581 13.6029 293.493 12.59 294.945 12.1147C295.754 11.8497 296.348 11.8069 299.22 11.8069C303.016 11.8069 302.968 11.7926 304.107 13.2881C304.722 14.097 306.764 17.7288 306.765 18.0158C306.765 18.1137 306.468 18.2414 306.104 18.2994C305.741 18.3575 304.401 18.7534 303.126 19.1793C300.91 19.9197 299.487 20.1799 298.426 20.0384Z" fill="#FCDD09"/>
</g>
<defs>
<clipPath id="clip0_1_6883">
<rect width="600" height="400" fill="white"/>
</clipPath>
</defs>
</svg>
