<svg width="600" height="400" viewBox="0 0 600 400" fill="none" xmlns="http://www.w3.org/2000/svg" xmlns:cgf="https://coding.garden/flags"><metadata id="cgf-metadata">

<cgf:flag>
  <cgf:name>Landsmeer</cgf:name>
  <cgf:route>nl/nh/landsmeer</cgf:route>
  <cgf:aspect-ratio>1.5</cgf:aspect-ratio>
</cgf:flag>

</metadata><g clip-path="url(#clip0_1_6893)">
<path d="M0.746933 0.336914L-0.100586 402.032H602.498V0.336914H0.746933V0.336914Z" fill="#D40000"/>
<path d="M227.192 286.208L230.86 297.257L233.136 294.881L270.785 335.796L270.811 340.005L277.13 348.16L277.736 341.012L285.413 340.985L276.7 333.301L273.132 333.867L235.646 292.834L238.603 290.717L227.192 286.208L227.192 286.208Z" fill="white" stroke="#0E0004"/>
<path d="M235.751 279.127L235.921 290.769L238.806 289.191L262.385 339.573L261.142 343.593L264.711 353.277L267.442 346.645L274.769 348.938L268.775 338.98L265.203 338.442L241.817 287.998L245.273 286.873L235.751 279.128L235.751 279.127Z" fill="white" stroke="#0E0004"/>
<path d="M247.322 275.781L243.855 286.895L247.088 286.298L253.789 341.533L251.356 344.964L251.729 355.279L256.39 349.833L262.636 354.301L260.045 342.967L256.819 341.339L250.32 286.105L253.955 286.116L247.322 275.782L247.322 275.781Z" fill="white" stroke="#0E0004"/>
<path d="M260.253 276.454L253.85 286.172L257.121 286.495L248.288 341.428L245.001 344.05L242.507 354.066L248.491 350.125L253.258 356.151L253.902 344.541L251.252 342.082L260.279 287.206L263.769 288.225L260.253 276.455L260.253 276.454Z" fill="white" stroke="#0E0004"/>
<path d="M273.006 281.37L263.897 288.604L266.905 289.933L241.414 339.37L237.474 340.835L231.987 349.574L238.9 347.697L241.554 354.911L245.779 344.082L244.027 340.918L269.685 291.594L272.684 293.652L273.006 281.37L273.006 281.37Z" fill="white" stroke="#0E0004"/>
<path d="M284.008 289.342L272.995 293.068L275.378 295.336L234.708 333.242L230.507 333.288L222.395 339.655L229.534 340.229L229.598 347.916L237.228 339.153L236.646 335.582L277.433 297.841L279.562 300.792L284.008 289.342H284.008Z" fill="white" stroke="#0E0004"/>
<path d="M219.993 295.814L226.782 305.266L228.248 302.318L276.364 330.133L277.64 334.142L286.099 340.041L284.551 333.037L291.87 330.719L281.266 325.986L278.029 327.591L230.035 299.615L232.227 296.711L219.993 295.814L219.993 295.814Z" fill="white" stroke="#0E0004"/>
<path d="M223.776 64.9006L197.787 74.0534C194.386 75.8314 188.267 86.9593 212.638 84.3503L211.21 87.2106L234.914 86.6385C240.625 89.5855 246.337 92.8803 252.049 83.2062C249.242 88.7513 248.63 93.5639 254.905 96.0773C254.119 103.738 253.449 111.326 249.178 116.528C234.93 133.879 217.785 147.823 209.782 168.156C206.476 171.265 202.784 174.319 204.641 178.167C172.612 231.671 198.676 261.539 264.043 275.415C276.933 280.875 283.979 287.31 287.747 294.293L269.184 307.736C239.089 309.747 239.438 316.537 233.2 322.037L248.051 319.463L242.053 323.467L254.333 320.607L253.477 325.184C261.449 322.277 276.669 329.221 275.181 313.457C282.818 308.35 289.13 302.979 300.313 298.583L296.6 292.863L301.17 291.147L290.032 274.557L293.459 274.843L289.461 263.402C301.586 279.687 318.298 285.251 334.869 291.147V300.013L323.16 313.457C299.921 321.107 296.613 331.715 293.459 342.345C300.69 336.703 308.413 333.036 317.162 333.478C338.129 331.973 329.297 321.941 330.871 314.887C330.871 314.887 350.005 297.725 349.148 296.295C348.291 294.865 342.865 288 342.865 288L346.864 286.856C346.864 286.856 338.296 278.847 338.01 276.845C337.725 274.843 335.44 267.406 335.44 267.406C335.44 267.406 330.585 262.544 332.013 263.974C333.441 265.404 337.439 266.548 337.439 266.548L365.427 248.529L340.866 252.819C368.474 248.131 391.065 240.017 401.982 223.931L358.858 229.365C383.903 224.848 410.831 223.163 425.685 203.337L404.838 208.199C404.838 212.532 436.538 194.007 435.395 187.033C435.21 185.904 423.972 189.322 423.972 189.322C436.149 185.885 440.521 178.541 440.536 169.014C421.592 179.74 404.459 184.116 388.559 184.173C376.596 176.671 368.217 178.145 359.144 177.881C346.399 161.641 339.33 169.087 330.871 170.73L342.865 164.437C289.514 160.335 283.385 180.826 265.757 195.328L262.615 198.76L265.471 194.47C254.041 197.318 248.428 193.044 243.767 187.605C243.767 187.605 228.345 187.605 229.487 187.605C230.63 187.605 245.48 186.747 245.48 186.747L245.195 175.306L244.094 174.965L244.623 174.734C240.905 171.546 242.917 169.178 244.338 166.726C262.086 132.993 305.505 110.278 269.47 53.4596C265.507 48.7239 263.435 50.6128 260.902 50.8854C256.04 42.5159 247.367 45.5975 237.198 53.1736C222.487 51.9561 221.935 57.8292 223.776 64.9006V64.9006Z" fill="white" stroke="black"/>
<path d="M205.212 177.88C215.634 189.878 230.724 189.359 244.908 186.318" stroke="black"/>
<path d="M209.496 168.728C221.361 176.014 233.523 176.436 245.766 175.02" stroke="black"/>
<path d="M218.054 226.754C218.836 235.272 227.599 241.791 236.834 248.192" stroke="black"/>
<path d="M204.928 223.316C213.169 243.781 229.15 255.483 249.758 261.945" stroke="black"/>
<path d="M234.342 207.627C241.909 219.332 257.044 236.141 259.759 220.498" stroke="black"/>
<path d="M255.618 212.324C260.634 219.497 270.668 229.799 272.468 220.212" stroke="black"/>
<path d="M264.186 211.466C269.202 218.639 279.235 228.941 281.035 219.354" stroke="black"/>
<path d="M271.04 208.033C276.056 215.207 286.09 225.508 287.89 215.922" stroke="black"/>
<path d="M285.748 213.92C291.427 216.934 298.941 217.592 292.888 208.485C302.962 217.546 306.394 203.596 304.311 200.477" stroke="black"/>
<path d="M285.462 222.214C300.035 227.314 353.077 241.034 330.87 223.93" stroke="black"/>
<path d="M269.502 231.208C281.698 236.162 326.087 249.491 307.503 232.875" stroke="black"/>
<path d="M307.485 213.76C322.059 218.86 375.101 232.58 352.894 215.476" stroke="black"/>
<path d="M319.479 203.463C331.839 208.563 376.825 222.283 357.991 205.179" stroke="black"/>
<path d="M385.703 196.186C399.638 196.195 414.327 192.428 430.54 181.027" stroke="black"/>
<path d="M374.708 208.914C387.311 208.92 400.597 206.29 415.261 198.331" stroke="black"/>
<path d="M366.74 220.612C376.908 221.512 387.856 219.835 400.381 212.948" stroke="black"/>
<path d="M348.892 240.522C359.059 241.422 370.007 239.746 382.533 232.858" stroke="black"/>
<path d="M321.446 254.821C315.709 261.826 318.253 266.278 322.303 270.267" stroke="black"/>
<path d="M328.3 270.553C332.346 273.699 332.783 276.845 332.298 279.992" stroke="black"/>
<path d="M287.461 294.007L297.456 292.291" stroke="black"/>
<path d="M334.868 290.861L344.864 288" stroke="black"/>
<path d="M333.155 201.335C340.009 203.03 346.871 204.743 346.292 193.04" stroke="black"/>
<path d="M350.576 185.031C366.079 187.9 365.467 184.193 360.572 178.739" stroke="black"/>
<path d="M223.507 65.1558C229.009 68.9952 233.763 61.2837 234.412 60.7063C236.155 58.266 240.261 55.5238 246.124 58.6838" stroke="black"/>
<path d="M229.767 65.1558C230.778 73.9192 238.684 73.2985 235.623 59.6951L229.767 65.1558V65.1558Z" fill="black" stroke="black"/>
<path fill-rule="evenodd" clip-rule="evenodd" d="M232.998 66.9762C232.998 67.4053 232.827 67.8168 232.524 68.1203C232.221 68.4237 231.811 68.5942 231.382 68.5942C230.954 68.5942 230.543 68.4237 230.24 68.1203C229.937 67.8168 229.767 67.4053 229.767 66.9762C229.767 66.547 229.937 66.1355 230.24 65.8321C230.543 65.5286 230.954 65.3582 231.382 65.3582C231.811 65.3582 232.221 65.5286 232.524 65.8321C232.827 66.1355 232.998 66.547 232.998 66.9762V66.9762Z" fill="white"/>
<path d="M223.507 64.5491C223 67.7909 223.218 71.1647 228.555 75.4706C234.806 78.0762 238.799 81.3101 235.421 86.5944" stroke="black"/>
<path d="M212.399 84.3695C221.489 76.669 228.67 80.439 236.228 81.9425" stroke="black"/>
<path d="M209.743 167.803C204.729 169.697 202.322 173.075 204.049 178.805C214.952 188.638 229.017 190.974 245.747 186.985C246.969 182.686 247.838 178.423 246.035 174.427C234.728 177.441 222.584 174.926 209.743 167.803V167.803Z" fill="white" stroke="black"/>
</g>
<defs>
<clipPath id="clip0_1_6893">
<rect width="600" height="400" fill="white"/>
</clipPath>
</defs>
</svg>
