<svg width="600" height="400" viewBox="0 0 600 400" fill="none" xmlns="http://www.w3.org/2000/svg" xmlns:cgf="https://coding.garden/flags"><metadata id="cgf-metadata">

<cgf:flag>
  <cgf:name>Laren</cgf:name>
  <cgf:route>nl/nh/laren</cgf:route>
  <cgf:aspect-ratio>1.5</cgf:aspect-ratio>
</cgf:flag>

</metadata><g clip-path="url(#clip0_1_6889)">
<path d="M600 0H0V400H600V0Z" fill="#0063BE"/>
<path d="M286.513 212.171C293.01 218.933 297.81 226.337 300.914 234.383C304.018 242.429 305.57 251.794 305.57 262.477C305.57 287.901 295.536 308.862 275.469 325.36C255.402 341.859 230.498 350.108 200.758 350.108C187.043 350.108 173.328 348.113 159.613 344.124C145.897 340.134 134.059 335.3 124.098 329.62L114.786 344.428H97.4614L94.4297 245.844H111.971C115.58 258.015 119.803 269.002 124.639 278.807C129.475 288.611 135.864 297.773 143.804 306.293C151.311 314.271 160.082 320.627 170.115 325.36C180.149 330.094 191.807 332.46 205.089 332.46C215.05 332.46 223.749 331.243 231.184 328.809C238.619 326.375 244.646 322.926 249.266 318.464C253.886 314.001 257.315 308.761 259.552 302.743C261.79 296.725 262.909 289.794 262.909 281.951C262.909 270.456 259.444 259.739 252.514 249.799C245.585 239.86 235.262 232.321 221.547 227.182C212.163 223.666 201.407 219.778 189.281 215.518C177.153 211.258 166.687 207.235 157.88 203.449C140.556 196.146 127.093 186.578 117.493 174.745C107.892 162.913 103.092 147.463 103.092 128.395C103.092 117.441 105.474 107.231 110.238 97.7645C115.002 88.2985 121.788 79.8465 130.594 72.4085C138.968 65.3767 148.857 59.866 160.262 55.8764C171.667 51.8873 183.578 49.8926 195.994 49.8923C210.142 49.8926 222.81 51.9211 233.999 55.9778C245.188 60.035 255.402 64.7682 264.641 70.1772L273.52 56.3835H290.845L292.577 151.925H275.036C271.86 140.971 268.287 130.491 264.317 120.484C260.346 110.477 255.185 101.416 248.833 93.3019C242.625 85.4587 235.046 79.2042 226.095 74.5384C217.144 69.8732 206.172 67.5404 193.179 67.5401C179.463 67.5404 167.769 71.665 158.097 79.9139C148.424 88.1633 143.587 98.2381 143.588 110.138C143.587 122.58 146.691 132.891 152.899 141.073C159.107 149.254 168.13 155.982 179.969 161.256C190.508 165.989 200.866 170.08 211.044 173.528C221.222 176.977 231.075 180.662 240.604 184.584C249.266 188.1 257.603 192.089 265.616 196.552C273.628 201.014 280.594 206.221 286.513 212.171Z" fill="#FCCC00"/>
</g>
<defs>
<clipPath id="clip0_1_6889">
<rect width="600" height="400" fill="white"/>
</clipPath>
</defs>
</svg>
