<svg width="600" height="400" viewBox="0 0 600 400" fill="none" xmlns="http://www.w3.org/2000/svg" xmlns:cgf="https://coding.garden/flags"><metadata id="cgf-metadata">

<cgf:flag>
  <cgf:name>Medemblik</cgf:name>
  <cgf:route>nl/nh/medemblik</cgf:route>
  <cgf:aspect-ratio>1.5</cgf:aspect-ratio>
</cgf:flag>

</metadata><g clip-path="url(#clip0_1_6934)">
<path d="M-3.66016 0.00292969L-2.80594 402.458L601.98 403.307V0.00292969H-3.66016V0.00292969Z" fill="black"/>
<path d="M-3.34082 0.0705566L-3.04166 130.979L400.858 402.535L602.43 402.889L-3.34082 0.0705566Z" fill="#FFE401"/>
<path d="M-2.375 264.825V403.339H201.461L-2.375 264.825Z" fill="#FFE401"/>
<path d="M198.902 -1.08789H406.15L602.311 133.151V269.955L198.902 -1.08789Z" fill="#FFE401"/>
<path d="M32.9359 18.9801L32.6367 60.6275L52.9797 60.9271L53.2789 109.166L32.6367 122.649V155.008L78.4085 154.709V113.061C79.5384 91.2593 118.347 85.974 124.18 112.462L124.779 155.008L168.755 154.709V121.451L149.609 107.368V61.826H168.456V18.6805H148.712L148.412 44.1483H130.164V18.6805L109.521 18.3809L109.821 43.8487H91.5716V18.9801L71.8269 19.2797L72.1261 43.8487H53.5781L53.2789 18.9801H32.9359V18.9801Z" fill="#2559AD"/>
</g>
<defs>
<clipPath id="clip0_1_6934">
<rect width="600" height="400" fill="white"/>
</clipPath>
</defs>
</svg>
