<svg width="600" height="400" viewBox="0 0 600 400" fill="none" xmlns="http://www.w3.org/2000/svg" xmlns:cgf="https://coding.garden/flags"><metadata id="cgf-metadata">

<cgf:flag>
  <cgf:name>Oostzaan</cgf:name>
  <cgf:route>nl/nh/oostzaan</cgf:route>
  <cgf:aspect-ratio>1.5</cgf:aspect-ratio>
</cgf:flag>

</metadata><g clip-path="url(#clip0_1_6940)">
<path d="M-2.26758 -3.45108L-1.50886 405.21L605.446 402.914L604.024 -3.73804L-2.26758 -3.45105V-3.45108Z" fill="#FFDC00"/>
<path d="M122.005 72.7121L122.607 109.477L604.17 109.271L603.826 72.5208L122.005 72.7121V72.7121Z" fill="#0033CC"/>
<path d="M-2.11523 182.561L-1.35801 219.326L604.435 219.119L604.003 182.369L-2.11523 182.561V182.561V182.561Z" fill="#0033CC"/>
<path d="M-2.53809 292.73L-1.77906 329.495L605.456 329.289L605.023 292.539L-2.53809 292.73V292.73V292.73Z" fill="#0033CC"/>
<path d="M26.625 35.6603V38.9562H28.7191L28.7191 74.0119C46.9626 73.912 47.4666 73.8121 57.1395 73.7123V164.198L43.3781 164.348V169.591H75.9867V164.048L62.8236 164.048L62.5244 74.0119L90.3465 73.7123L89.449 38.9562H92.7398L92.1415 34.7615H83.4658L83.1666 38.9562H84.9616L85.2608 68.0195H62.5244L62.2253 38.9562H64.3194L64.1698 34.9113L53.8487 35.2109V38.6566H56.9899L57.1395 68.3191H33.2066L32.9074 38.6566H34.4032V35.6603H26.625L26.625 35.6603Z" fill="black"/>
<path d="M26.9242 17.0837C27.4181 23.5279 22.6578 30.5239 18.6973 36.2595L33.9545 35.8101C39.6856 29.6678 41.7328 23.5256 42.1815 17.3834L26.9242 17.0837Z" fill="#00CC00" stroke="#3E542A"/>
<path d="M56.766 15.8853C57.2599 22.3294 52.4996 29.3254 48.5391 35.061L63.7963 34.6116C69.5274 28.4694 71.5746 22.3271 72.0233 16.1849L56.766 15.8853Z" fill="#00CC00" stroke="#3E542A"/>
<path d="M85.4857 15.5857C85.9796 22.0299 81.2193 29.0258 77.2588 34.7615L92.5161 34.312C98.2472 28.1698 100.294 22.0276 100.743 15.8853L85.4857 15.5857Z" fill="#00CC00" stroke="#3E542A"/>
</g>
<defs>
<clipPath id="clip0_1_6940">
<rect width="600" height="400" fill="white"/>
</clipPath>
</defs>
</svg>
