<svg width="600" height="400" viewBox="0 0 600 400" fill="none" xmlns="http://www.w3.org/2000/svg" xmlns:cgf="https://coding.garden/flags"><metadata id="cgf-metadata">

<cgf:flag>
  <cgf:name>Opmeer</cgf:name>
  <cgf:route>nl/nh/opmeer</cgf:route>
  <cgf:aspect-ratio>1.5</cgf:aspect-ratio>
</cgf:flag>

</metadata><g clip-path="url(#clip0_1_6958)">
<path d="M-2.60449 0.0275879L-1.75328 401.926L600.906 402.774V0.0275879H-2.60449V0.0275879Z" fill="#00489B"/>
<path d="M-2.47852 0.2771L-2.29952 402.203L124.432 403.051V0.2771H-2.47852H-2.47852Z" fill="#E71C02"/>
<path d="M123.266 102.736L123.941 302.97L601.877 303.392V102.736H123.266V102.736Z" fill="#FFDC00"/>
<path d="M233.919 124.776L228.838 124.459C228.132 119.836 234.859 118.115 239.445 117.168C244.132 113.766 248.532 116.155 252.995 117.273C254.837 120.321 256.679 118.836 258.521 119.387C260.131 115.323 273.713 116.957 263.335 129.742C264.862 131.548 266.646 132.796 266.811 137.562C267.593 141.162 266.524 145.677 269.842 148.024C268.594 150.203 267.346 150.002 266.098 149.397C266.992 154.357 269.654 159.449 263.335 163.874C264.827 169.709 262.104 172.109 259.948 174.97C259.434 178.656 259.654 181.907 262.443 183.635C259.134 184.161 257.247 181.797 255.58 178.985C254.938 181.474 254.961 184.258 252.549 185.96C252.878 188.222 253.888 190.283 256.115 191.983C251.588 192.827 249.368 190.728 247.914 187.65C245.415 190.257 242.773 192.863 245.596 195.47C246.993 196.274 248.389 195.732 249.786 195.47C248.819 197.483 247.573 198.669 246.131 199.274C250.186 202.502 254.829 205.193 255.936 211.109C259.105 211.633 261.152 214.548 263.157 217.555C267.705 222.341 272.127 222.315 276.438 218.084L276.349 212.906C272.011 211.849 269.099 208.961 267.614 204.241C263.829 203.062 263.556 207.181 262.176 209.63C260.963 206.159 259.634 202.682 263.513 199.486C260.288 193.41 261.791 189.283 263.959 185.431C264.071 189.149 263.651 193.39 267.881 193.04C268.312 185.185 269.574 177.33 267.792 169.475C265.34 163.724 266.979 160.398 269.218 157.428C275.442 148.341 282.719 139.33 277.686 129.425C282.837 133.199 284.382 139.466 283.837 147.178C286.643 143.46 285.731 138.567 285.085 133.758C289.963 140.141 291.161 147.57 284.194 157.323C289.419 155.712 290.439 150.69 291.236 145.488C295.747 159.179 285.322 171.148 272.962 182.895L272.605 195.153C272.693 191.129 273.868 179.237 284.283 182.684C282.989 184.52 278.328 186.493 283.302 188.073C287.53 186.806 289.405 189.072 290.077 193.145C283.713 190.521 286.11 199.821 285.62 205.192C285.143 207.339 284.376 209.296 281.787 210.053C282.962 214.275 285.946 217.96 279.915 224.318C280.313 225.761 280.742 227.189 282.767 227.805C279.728 229.972 279.342 227.596 278.31 226.326L272.873 229.179C274.555 230.665 275.509 232.349 274.121 234.674C273.203 231.183 269.95 230.595 267.257 229.496C268.507 233.214 266.408 238.612 273.229 239.535C270.644 242.031 268.059 243.091 265.474 239.429C266.359 243.203 266.361 247.975 272.249 246.087C273.483 245.641 274.628 243.926 276.082 246.615C278.841 249.696 283.301 251.807 280.004 258.344C279.453 262.114 279.302 265.748 283.659 267.855L278.132 268.278C277.692 270.295 278.069 271.989 276.349 274.512C275.762 276.387 275.455 278.595 275.815 281.592C273.746 280.82 273.107 278.918 272.427 277.048C270.163 281.966 268.209 287.366 262.265 286.559C260.996 294.998 258.543 291.17 256.382 290.363C254.448 291.421 254.587 293.503 255.491 295.964C252.076 294.771 249.541 292.962 251.301 288.144L250.231 283.706L249.964 287.298C247.282 286.198 246.096 289.232 244.794 291.948C242.328 288.304 242.507 285.131 244.794 282.332L245.061 280.218C243.576 279.496 242.09 281.201 240.604 282.332C240.313 277.196 243.409 276.075 247.112 275.675C248.675 272.725 253.709 271.911 254.421 277.894L262.711 274.407C262.895 269.45 261.771 264.353 266.901 259.93C266.759 256.832 265.188 255.006 263.157 253.589C263.118 258.622 264.353 264.351 258.432 266.164C260.066 262.748 258.949 260.586 257.541 258.556C257.04 262.971 257.102 270.801 250.142 268.806C253.25 266.279 253.06 263.407 248.092 260.035C246.901 257.637 247.016 256.787 246.488 255.174C250.341 266.607 246.877 275.74 238.376 268.278C241.785 267.773 244.535 266.666 240.694 259.507C238.267 253.565 240.125 250.831 242.12 248.2C242.152 244.681 242.544 241.163 240.017 237.644C238.312 235.271 239.363 231.508 239.802 228.44C234.655 230.977 230.045 233.857 230.977 240.275C230.446 243.831 232.754 243.762 235.256 243.445C234.671 246.56 232.721 248.326 229.284 248.623C226.857 255.663 236.5 257.624 234.365 250.948C235.576 251.184 237.997 249.295 236.682 256.337C234.095 260.368 231.395 261.322 228.571 258.873C227.294 263.746 225.935 268.436 222.331 268.066C224.882 263.619 222.942 262.93 221.618 261.726C219.86 265.569 218.132 269.422 214.754 272.716C215.193 273.642 215.253 274.748 216.804 275.146C214.541 276.246 213.867 274.833 212.971 273.773C210.535 277.211 208.098 278.454 205.662 280.324C206.329 282.259 207.587 282.559 208.96 282.543C208.039 283.218 207.118 285.014 206.197 283.917C205.923 290.125 202.507 288.051 200.313 289.201C201.165 287.877 202.711 286.759 202.72 285.185C200.842 285.458 199.475 285.247 199.957 283.283C196.686 284.489 193.884 284.831 192.736 282.121C190.768 282.58 190.617 284.656 190.508 286.77C187.947 284.553 184.975 282.427 188.636 278.845L187.032 277.26C184.778 277.406 184.4 279.776 184.001 282.121C180.466 279.479 183.012 276.837 184.179 274.195L184.625 270.18C183.267 270.032 181.819 270.312 179.99 272.399C180.583 268.101 181.701 264.657 186.051 266.481C187.563 265.577 191.721 258.908 194.965 270.074L197.104 269.546C197.855 266.458 198.995 269.382 199.957 269.546H204.77L206.018 262.571C203.374 264.348 200.729 265.247 198.085 261.726C202.285 263.29 201.409 256.713 201.829 252.216C197.096 251.35 192.005 250.815 195.589 242.282C198.085 248.737 201.005 244.873 203.968 239.958C205.038 235.133 208.316 234.421 210.921 232.455C212.769 222.542 221.779 217.767 232.582 214.28L230.175 209.63L233.117 210.053C227.773 205.853 221.287 202.052 219.746 196.527C217.988 198.079 219.566 200.869 216.626 206.037C215.853 203.125 215.081 201.916 214.308 200.648C212.517 203.563 210.267 205.988 210.743 211.321C209.039 209.243 208.644 207.164 209.316 205.086L205.216 209.313C207.499 213.856 204.795 216.508 201.205 218.823C202.378 216.39 204.3 213.907 201.383 211.743C199.553 213.835 197.707 215.816 195.411 214.597C194.505 217.901 194.029 222.11 188.993 216.71C187.747 217.889 187.15 219.618 187.567 222.205C186.211 220.257 183.811 219.07 185.338 215.019C181.662 212.448 184.359 209.877 186.675 207.305L183.466 208.468C181.118 208.502 179.033 208.965 178.563 212.06C176.53 207.114 178.695 205.25 181.594 203.924C180.996 202.044 182.414 200.96 183.11 199.591L179.633 199.486C181.763 198.076 182.583 194.491 186.853 196.633C192.984 193.895 192.059 199.199 192.291 203.184L196.124 203.079C199.613 195.585 202.335 186.877 208.514 183.635C206.03 181.887 202.868 181.17 201.918 177.083C202.903 174.846 201.447 174.675 200.937 173.702C200.214 176.513 199.325 179.057 196.035 177.717C198.525 175.674 196.943 173.631 196.302 171.588L196.035 161.55L192.826 158.274C191.073 160.846 189.32 160.052 187.567 159.331C184.721 161.686 181.974 161.339 179.366 157.217C180.732 157.492 182.099 157.592 183.466 156.477V154.364C180.566 152.497 182.356 150.63 182.753 148.763C180.467 149.9 179.794 148.699 179.633 146.756C177.372 146.462 176.483 148.446 175.354 150.032C174.384 142.496 177.501 141.845 180.97 141.789L183.02 138.408C181.445 137.501 179.997 134.337 178.207 137.245C177.461 132.622 181.366 130.165 186.853 134.075L189.884 133.124L185.784 129.954C189.432 128.423 192.771 127.846 194.074 133.547C202.003 133.692 197.729 141.054 196.837 142.423C196.745 144.004 196.772 146.356 198.237 147.166C202.191 149.354 203.191 153.444 205.038 156.583C205.335 152.356 206.939 149.82 209.851 148.975L209.94 156.055L222.509 152.568C227.137 151.899 232.025 152.462 237.128 154.047C241.45 153.964 245.718 148.904 238.287 148.869L236.95 148.024L235.88 148.341C232.118 151.951 230.937 149.781 229.195 148.869L232.671 145.699L231.869 144.854L231.958 141.789L232.76 140.415H237.217C237.259 141.953 238.189 143.386 240.604 144.642C242.106 144.361 242.294 143.457 242.655 142.635L237.663 139.359L230.086 139.147C225.759 142.202 221.518 143.02 217.428 139.887C214.691 136.527 214.334 133.6 214.665 130.799C215.677 128.409 213.946 127.374 212.169 126.361C217.73 123.322 219.704 131.271 222.598 136.4C227.412 137.723 232.225 136.749 237.039 136.823L243.724 140.31C243.793 137.072 243.504 135.104 243.1 133.547C240.783 129.647 237.051 132.171 236.861 133.652L236.771 135.555L232.671 135.449C230.792 131.856 230.094 128.263 229.373 124.67L233.919 124.776L233.919 124.776Z" fill="#E71C02"/>
<path d="M233.212 209.999L241.154 219.265C241.189 221.393 240.953 224.921 239.83 228.605" fill="#FF0000"/>
<path d="M232.393 214.109L236.237 220.087C233.779 224.035 234.781 226.521 239.704 228.679" fill="#FF0000"/>
<path d="M245.818 120.023L244.716 123.135L244.615 124.541L246.52 125.846L249.527 126.047L251.332 125.244L250.129 126.549C250.129 126.549 248.424 126.95 248.024 126.95C247.623 126.95 245.016 126.448 245.016 126.448L244.415 127.452L242.711 126.649L242.61 125.444L243.212 124.541L243.312 123.336L243.011 122.232L244.114 120.525L245.818 120.023H245.818Z" fill="#FFDC00"/>
</g>
<defs>
<clipPath id="clip0_1_6958">
<rect width="600" height="400" fill="white"/>
</clipPath>
</defs>
</svg>
