<svg width="600" height="400" viewBox="0 0 600 400" fill="none" xmlns="http://www.w3.org/2000/svg" xmlns:cgf="https://coding.garden/flags"><metadata id="cgf-metadata">

<cgf:flag>
  <cgf:name>Stede Broec</cgf:name>
  <cgf:route>nl/nh/stede_broec</cgf:route>
  <cgf:aspect-ratio>1.5</cgf:aspect-ratio>
</cgf:flag>

</metadata><g clip-path="url(#clip0_1_6995)">
<path d="M-2.26758 -3.45108L-1.50886 405.21L605.446 402.914L604.024 -3.73804L-2.26758 -3.45105V-3.45108Z" fill="white"/>
<path d="M79.6316 261.754C69.7322 269.351 74.1287 276.372 78.1179 283.409C56.486 271.611 57.0012 283.191 61.4671 294.999C50.0587 298.558 53.985 302.116 56.6233 305.674C59.2955 310.597 61.6668 315.57 69.0357 319.704C72.2622 324.1 76.2167 321.896 80.2371 319.094L86.292 320.314C87.9456 327.266 92.309 325.118 96.2824 324.279C98.4579 334.875 99.743 345.919 98.7044 358.134C96.9617 365.759 96.2086 373.384 91.4386 381.009L44.5136 381.619C39.8685 384.872 40.9308 388.126 40.8807 391.379L167.124 391.074C166.581 387.617 166.961 384.161 163.188 380.704L116.566 381.009C111.934 374.299 111.199 367.589 110.511 360.879V324.889C115.456 326.842 120.401 331.043 125.346 322.144C132.787 324.027 136.719 319.549 140.18 314.214C145.536 313.141 150.704 311.264 152.895 301.404C156.382 290.564 149.348 288.556 143.51 285.544C146.257 281.268 139.917 265.222 129.281 277.614C120.538 281.858 124.555 271.665 129.281 273.954C136.387 272.698 129.971 268.581 129.887 266.024C130.923 265.428 133.071 265.391 131.098 263.279C135.257 258.652 132.398 257.795 130.795 256.264C130.276 252.126 128.475 250.568 126.254 249.859C125.764 243.776 123.227 240.993 119.896 239.489C119.5 235.772 117.957 233.018 114.144 232.169C111.117 227.587 108.089 229.836 105.062 230.034C97.3626 229.422 92.2198 231.642 90.2276 237.354C82.9592 238.848 82.7525 242.476 80.8426 245.589C69.9178 250.599 75.0006 256.185 79.6316 261.754V261.754Z" fill="#00CC00"/>
<path d="M-0.897461 -2.68053L-0.594709 177.082H39.9727L40.2754 220.551H80.5401V177.082H119.897L120.199 220.551H161.372L161.069 177.082H200.328L200.426 -3.29053L-0.897443 -2.68053H-0.897461Z" fill="#00CC00"/>
<path d="M102.034 8.90942L77.2095 55.5744H19.0831L59.6505 87.2943L16.9639 171.779L101.429 114.134L184.38 171.169L141.693 86.6843L184.986 55.5744L126.254 55.8794L102.034 8.90942Z" fill="white"/>
<path d="M200.328 220.767L200.002 404.516L606.308 403.653L605.88 177.634L565.635 177.202L565.207 220.767L525.041 220.551L525.389 177.082H484.716L485.144 220.767L444.471 220.336V177.202H403.797L403.829 220.551L363.552 220.336L363.98 177.082H319.304L319.453 220.767L281.559 220.336L281.777 177.202H239.391V220.767H200.328H200.328Z" fill="#00CC00"/>
</g>
<defs>
<clipPath id="clip0_1_6995">
<rect width="600" height="400" fill="white"/>
</clipPath>
</defs>
</svg>
