<svg width="600" height="400" viewBox="0 0 600 400" fill="none" xmlns="http://www.w3.org/2000/svg" xmlns:cgf="https://coding.garden/flags"><metadata id="cgf-metadata">

<cgf:flag>
  <cgf:name>Uitgeest</cgf:name>
  <cgf:route>nl/nh/uitgeest</cgf:route>
  <cgf:aspect-ratio>1.5</cgf:aspect-ratio>
</cgf:flag>

</metadata><g clip-path="url(#clip0_1_7026)">
<path d="M0.251953 405.409L1.00734 0.116211L605.298 2.3931L603.882 405.694L0.251953 405.409V405.409Z" fill="white"/>
<path d="M-0.111328 202.845L0.646052 -0.875977L606.534 0.268508L605.114 202.988L-0.111328 202.845Z" fill="black"/>
<path d="M112.868 5.63454C112.596 3.67504 111.075 4.19839 110.06 3.7168L110.933 5.91657C109.074 6.36216 108.446 7.29482 109.249 8.79316L109.561 9.58282C108.185 8.75396 106.851 8.0923 106.129 9.92125C104.441 9.72905 103.326 10.2285 103.134 11.839C103.937 11.7026 104.795 11.2178 105.442 12.0646C105.333 13.9126 106.638 13.7502 107.626 14.0387L108.001 17.0846L110.622 16.8589L111.682 17.6486L110.185 17.3102C108.187 17.7494 106.496 18.3228 109.561 20.9764C109.004 21.9825 108.162 22.4704 106.94 22.2737C108.146 22.9171 109.353 23.2685 110.559 22.2737C112.377 23.733 113.206 21.6149 114.428 20.92L115.239 22.0481L114.428 21.8225L113.18 22.6686L117.86 27.4065L117.797 30.3959L120.855 31.4676L122.415 32.9341C122.135 35.8144 121.503 38.5809 118.92 40.7179C120.855 40.7442 122.789 40.4483 124.723 38.6873L123.288 41.6767L111.62 44.8918L111.557 45.625C110.624 44.9192 110.874 43.533 108.313 43.7637C106.189 41.0557 104.863 40.7785 104.07 42.1279C102.042 42.1849 100.69 42.73 100.326 43.9893C101.407 43.3247 102.489 43.225 103.57 43.7637V45.3994L102.322 47.2043C100.326 47.5725 100.069 49.0637 100.388 50.927C100.658 49.7474 101.388 49.0432 102.822 49.0656L104.444 50.7578C102.769 50.7857 102.674 52.2415 102.447 53.578C103.178 52.8182 103.957 52.12 105.505 52.3935C107.837 53.2165 108.615 52.0324 108.625 49.8553L112.556 49.9681C112.768 51.1695 112.899 52.4076 115.052 52.7319C115.449 53.6309 115.919 54.5189 117.298 55.2701C116.457 53.9465 116.823 53.2468 117.111 52.5063C119.793 53.2788 119.02 51.3184 119.232 50.1373C123.349 49.4447 127.539 48.8474 130.526 46.6967L128.155 46.0762L130.714 44.6661L132.461 44.7789L134.769 42.8612L136.517 42.8047L135.269 43.5379L133.958 45.6249L129.403 46.1325L130.651 46.6402L133.896 46.5837L135.893 47.0349L135.768 45.9633L137.141 44.6096L137.952 43.4815L137.265 45.6812L136.205 47.5426C140.324 47.8981 144.733 48.5534 153.426 53.6342V54.5931L155.486 54.7623L153.177 57.5825L151.055 57.8646C144.393 52.2581 130.619 51.4752 127.531 61.5308C126.47 64.9854 124.425 66.8823 122.04 68.2429C123.954 68.8721 124.702 71.3463 128.405 69.1454C129.76 69.1918 131.722 67.2772 132.024 70.7247V74.2217C130.139 76.0884 128.065 77.8193 126.97 80.257L122.227 80.8774C122.346 78.5562 121.753 76.98 118.733 77.9444C116.474 77.8848 114.694 78.4991 113.929 80.539C115.135 80.3691 116.341 79.5224 117.548 80.8774C115.99 81.5844 114.71 82.4251 115.613 84.3181C114.027 85.1334 112.99 86.2545 113.554 88.2663C114.143 86.8552 115.402 86.3535 116.986 86.2922C116.739 87.0748 116.428 87.8458 116.986 88.774C116.448 89.9209 117.051 91.0677 118.172 92.2146C117.959 90.8953 118.425 90.1122 119.544 89.8457C120.303 90.3685 121.622 89.6247 123.039 88.6612C124.739 89.4797 126.199 89.2443 126.907 85.7282C126.822 88.4493 127.435 90.2874 130.651 88.8304C132.653 88.7243 132.8 89.9898 133.022 91.1994C133.959 89.6764 135.01 88.1535 133.522 86.6306C135.43 85.4918 134.128 84.5236 133.334 83.5284L136.829 80.4262L134.582 80.9902L134.707 80.4826L137.515 78.0572L136.329 80.4262L136.953 80.3699L140.26 77.0984C147.583 77.287 149.363 70.9885 143.131 68.6378C143.629 62.7333 147.809 62.5323 152.927 63.7871L155.236 72.9245C158.22 70.3083 161.081 67.6604 157.233 63.2794C158.784 65.0486 159.429 67.0227 162.162 68.525C163.516 67.0021 162.287 65.4792 161.788 63.9563C165.49 69.7293 169.192 69.3151 172.895 70.612L170.461 70.3863L178.323 79.1854L178.386 82.5132L172.333 83.1901C170.586 79.9763 168.839 81.1072 167.092 82.626C165.743 82.9048 164.431 83.3881 163.41 85.4462C164.409 85.3226 165.407 84.2068 166.405 85.1642C166.347 86.0694 164.816 86.8084 167.154 87.9844C166.176 88.3977 165.5 89.3554 165.844 92.1583C166.529 91.208 166.838 89.832 168.776 90.297L170.524 89.3381L170.648 87.646L171.335 87.928L171.147 89.7893L172.707 90.2406C170.857 91.3122 172.325 92.3839 172.583 93.4556C172.792 92.5111 171.983 91.0402 174.33 91.1994C174.33 91.1994 176.243 91.0672 176.701 91.2559C177.326 91.5136 178.132 89.2613 178.25 88.4197C178.313 87.9757 184.665 87.6313 184.563 87.082C185.69 87.6819 188.105 87.6996 186.809 89.3946C189.009 86.9999 187.916 86.0931 186.872 85.1643C188.421 84.337 188.264 83.5097 187.496 82.6825C186.373 79.4903 185.25 77.8669 184.126 77.3805C183.95 74.9261 185.423 71.8503 181.568 70.7812L180.445 70.33L179.946 68.0174L178.947 66.7766L180.258 66.8329L180.445 65.4792L178.823 64.0691L180.32 64.4639L181.007 65.2536L180.944 68.0173L181.88 69.0326L181.568 67.0021L181.506 63.8434C179.537 59.8428 178.433 60.529 177.45 61.8693C172.415 62.086 169.119 60.8453 170.524 55.6649C179.977 56.8551 183.879 48.9646 176.951 43.0304C178.427 38.4147 178.049 34.1832 173.893 30.7343L173.269 32.652C173.035 30.3583 172.197 28.0645 173.955 25.7707C172.4 26.4893 171.279 27.6002 170.898 29.3806L169.463 26.4476L168.028 31.1291C162.865 23.8397 161.502 6.24948 175.079 8.68026L175.203 10.6544C171.743 14.189 169.831 17.7237 175.453 21.2584L181.693 28.2525C185.521 22.9698 192.617 12.5892 181.505 10.88C178.011 4.32124 170.609 3.78475 164.408 9.07509C160.231 16.1923 161.849 24.881 164.658 33.8929C160.909 33.5904 156.089 32.0125 156.921 37.1643C161.676 33.3519 163.022 37.5982 164.845 40.7178C167.787 43.6595 171.015 46.0498 175.702 45.6249C180.877 52.1012 173.546 55.2509 166.717 52.7318L166.842 49.5168C163.701 46.1403 160.56 45.4029 157.42 43.538L151.492 36.6003L151.742 38.1796L150.806 35.7542C153.067 32.7944 152.799 29.9341 151.242 27.1244C152.09 29.4305 153.628 30.613 155.298 31.5803C154.53 27.35 155.422 23.1197 152.99 18.8894L155.298 20.4687C155.064 16.9795 155.037 13.428 153.364 10.3724C155.775 9.31363 157.483 7.55712 158.231 4.84478C155.923 5.2175 153.777 3.67971 151.305 5.97286L150.603 4.84077L145.252 4.73194C144.61 4.44551 144.11 4.04634 140.884 5.80362C138.473 5.32147 137.748 6.2111 136.953 7.04452L138.513 7.15729L139.387 7.49571L138.888 7.83413L138.076 8.6802L137.889 11.0492H137.14L137.078 8.11616L136.766 7.21368L136.08 7.72133L136.329 11.3312C137.494 12.0573 138.659 11.8409 139.823 11.2184C143.477 9.98536 142.974 14.5602 143.131 18.2125C140.644 17.3896 136.341 14.2996 137.016 17.4229C136.944 17.0575 135.04 19.4291 135.393 19.961C135.522 20.1545 137.702 19.1714 137.702 19.1714C137.706 18.1626 136.092 20.2235 136.08 22.1044C137.42 21.3269 138.774 20.5632 141.321 21.0327C140.525 22.9016 139.401 24.5279 135.705 24.2478C130.148 22.8077 128.276 24.3285 125.534 25.1502C123.872 26.5562 123.174 28.5843 122.664 30.7342L122.352 30.283L124.786 24.8682L115.675 13.5874C116.373 12.3265 119.305 12.2767 117.048 9.4135C119.102 8.0598 118.365 6.7061 116.611 5.3524C117.114 6.23514 117.276 7.09979 114.989 7.83418L112.868 5.63442L112.868 5.63454Z" fill="#D40000"/>
<path d="M138.663 13.5454C136.948 12.5567 134.473 12.1866 130.412 13.1067C126.483 14.1409 126.63 10.1218 127.776 8.93911C129.526 7.13151 128.858 6.08493 128.691 5.09009C126.323 8.40601 119.68 11.2277 126.617 15.6194C130.738 17.0279 134.649 14.2719 138.663 13.5454V13.5454Z" fill="#D40000"/>
<path d="M156.025 6.32647L155.032 6.98454L152.275 7.06427L151.48 7.86193V8.36047H152.782L155.518 7.38333L156.135 6.62554L156.025 6.32642L156.025 6.32647Z" fill="black"/>
<path d="M144.2 6.88471L144.222 7.40321L144.796 7.44299L144.818 8.87881L145.877 9.05828L146.517 9.45712C146.517 9.45712 147.421 9.4969 147.532 9.45712C147.642 9.41718 148.105 8.95858 148.105 8.95858L148.149 8.44008L145.48 8.46014L145.37 7.42316L146.473 7.4031L146.517 8.57967L148.149 8.40021V7.42305L147.532 6.94445L144.201 6.88452L144.2 6.88471Z" fill="black"/>
<path d="M144.244 11.0326L144.641 12.4883L144.818 15.7987H145.259C145.259 15.7987 145.347 12.5681 145.347 12.4684C145.347 12.3687 144.774 11.0924 144.774 11.0924L144.244 11.0325L144.244 11.0326Z" fill="black"/>
<path d="M137.078 37.39L135.206 39.6461L133.459 41.451L129.466 42.6919L132.711 42.5227L131.587 44.0456L135.394 41.2254L135.269 42.4663L137.702 38.6872L137.765 37.3899H137.079L137.078 37.39Z" fill="black"/>
<path d="M139.574 39.1384L138.451 41.169L137.328 42.9739L138.95 41.8458L139.574 39.1384Z" fill="black"/>
<path d="M143.88 40.5486L142.444 41.7331L140.136 42.9176L142.07 43.0304L142.569 45.2301L140.385 45.8506L143.817 46.3582L146.875 46.6966L150.369 48.3323L148.185 46.5838L147.062 45.3429L143.568 44.6097L142.694 42.7483L143.817 41.2818L143.88 40.5486L143.88 40.5486Z" fill="black"/>
<path d="M147.249 34.2314L146.812 37.3901L149.059 40.0411L151.43 41.4512L150.556 39.7026L147.686 36.9952L147.249 34.2314V34.2314Z" fill="black"/>
<path d="M129.092 39.0821L130.589 37.5592L130.777 35.1902L129.778 37.1079L129.092 39.0821Z" fill="black"/>
<path d="M168.964 35.5288L169.837 37.7286L170.586 38.4054L172.957 39.4207L171.273 37.4465L170.212 36.3749L168.964 35.5288Z" fill="black"/>
<path d="M144.442 61.4746C144.442 61.4746 142.071 63.054 142.32 63.054C142.57 63.054 143.381 63.054 143.381 63.054L141.26 65.2537L141.135 67.3971L142.445 64.8025L143.818 63.5052L145.815 62.6027L146.751 61.8695L147 62.9412L148.56 62.2079L149.246 60.5722L147.499 61.8131L147.063 62.2643L146.688 61.5311L147.375 60.3466L148.123 59.3877L146.751 60.3466L145.877 61.8695L145.315 62.6591L143.568 63.6744L144.255 62.5463L145.066 61.5311L144.442 61.4746L144.442 61.4746Z" fill="black"/>
<path d="M143.943 70.9504L144.816 72.1349L144.941 72.8118L144.192 73.8834L142.819 75.2371L144.941 74.5603C144.941 74.5603 145.253 73.8271 145.378 73.6014C145.502 73.3758 145.565 71.7965 145.565 71.7965L144.878 71.2889L143.943 70.9504H143.943Z" fill="black"/>
<path d="M166.156 66.7201L167.966 67.8482H169.9L173.644 69.5967L174.954 70.612L176.514 71.1196L178.324 72.0785L178.885 72.6989L178.511 71.0632L176.951 70.1044L175.204 69.6531L174.268 69.0327L172.646 69.1455L170.524 68.0174L170.275 67.6226L168.964 67.5661L168.028 66.8893L166.718 66.72H166.156V66.7201Z" fill="black"/>
<path d="M-0.663086 407.006L0.0942939 305.133L605.982 305.705L604.562 407.078L-0.663086 407.006V407.006Z" fill="#D40000"/>
<path opacity="0.98" d="M96.3707 -5.86768H91.5732V219.809H96.3707V-5.86768Z" fill="white"/>
<path opacity="0.98" d="M196.317 -2.63232H191.52V223.045H196.317V-2.63232Z" fill="white"/>
<path opacity="0.98" d="M195.917 101.309V96.4553H-27.1638V101.309H195.917Z" fill="white"/>
<path d="M13.8717 111.6C13.5996 109.64 12.0791 110.163 11.0638 109.682L11.9374 111.882C10.0779 112.327 9.45011 113.26 10.2526 114.758L10.5646 115.548C9.18917 114.719 7.85481 114.057 7.13273 115.886C5.44453 115.694 4.33019 116.194 4.13765 117.804C4.94066 117.668 5.79873 117.183 6.44636 118.03C6.33668 119.878 7.6422 119.715 8.63029 120.004L9.00468 123.05L11.6254 122.824L12.6862 123.614L11.1886 123.275C9.19066 123.714 7.49978 124.288 10.5646 126.942C10.0084 127.948 9.16547 128.436 7.94391 128.239C9.15028 128.882 10.3566 129.234 11.563 128.239C13.3809 129.698 14.2095 127.58 15.4317 126.885L16.2428 128.013L15.4317 127.788L14.1837 128.634L18.8636 133.372L18.8011 136.361L21.8586 137.433L23.4185 138.899C23.1389 141.78 22.5066 144.546 19.9243 146.683C21.8586 146.709 23.793 146.413 25.7273 144.652L24.2921 147.642L12.6237 150.857L12.5612 151.59C11.6281 150.884 11.8777 149.498 9.31657 149.729C7.19328 147.021 5.86681 146.744 5.07349 148.093C3.04638 148.15 1.69414 148.695 1.32963 149.954C2.41118 149.29 3.49273 149.19 4.5743 149.729V151.364L3.32635 153.169C1.32985 153.538 1.07288 155.029 1.39201 156.892C1.66195 155.712 2.39202 155.008 3.82552 155.031L5.44787 156.723C3.7732 156.751 3.67816 158.207 3.45115 159.543C4.18191 158.783 4.96138 158.085 6.50864 158.359C8.84115 159.182 9.61936 157.998 9.62854 155.82L13.5596 155.933C13.7717 157.135 13.9028 158.373 16.0555 158.697C16.4532 159.596 16.9233 160.484 18.3019 161.235C17.4607 159.912 17.8272 159.212 18.1147 158.471C20.7969 159.244 20.0239 157.283 20.2362 156.102C24.3527 155.41 28.5429 154.812 31.5302 152.662L29.1591 152.041L31.7174 150.631L33.4646 150.744L35.7733 148.826L37.5205 148.77L36.2725 149.503L34.9621 151.59L30.4071 152.098L31.6551 152.605L34.8997 152.549L36.8965 153L36.7717 151.928L38.1445 150.575L38.9557 149.447L38.2693 151.646L37.2085 153.508C41.3277 153.863 45.7372 154.519 54.4304 159.599V160.558L56.4895 160.727L54.1808 163.548L52.0592 163.83C45.3972 158.223 31.6233 157.44 28.5352 167.496C27.4743 170.95 25.4287 172.847 23.0442 174.208C24.9581 174.837 25.7058 177.311 29.4088 175.11C30.7638 175.157 32.7263 173.242 33.0278 176.69V180.187C31.1424 182.053 29.0693 183.784 27.9736 186.222L23.2314 186.842C23.3502 184.521 22.7573 182.945 19.7371 183.909C17.4781 183.85 15.6983 184.464 14.9324 186.504C16.1388 186.334 17.3452 185.487 18.5515 186.842C16.9943 187.549 15.7143 188.39 16.6172 190.283C15.0306 191.098 13.9937 192.22 14.558 194.231C15.1466 192.82 16.4059 192.319 17.9899 192.257C17.7429 193.04 17.4317 193.811 17.9899 194.739C17.4523 195.886 18.0546 197.033 19.1755 198.18C18.9634 196.86 19.4292 196.077 20.5483 195.811C21.307 196.334 22.6261 195.59 24.0425 194.626C25.7432 195.445 27.2027 195.209 27.9112 191.693C27.8262 194.414 28.4387 196.253 31.6551 194.795C33.6566 194.689 33.8036 195.955 34.0262 197.164C34.9625 195.642 36.0135 194.119 34.5254 192.596C36.4339 191.457 35.1324 190.489 34.3382 189.493L37.8325 186.391L35.5862 186.955L35.7109 186.448L38.5188 184.022L37.3333 186.391L37.9572 186.335L41.2643 183.064C48.5873 183.252 50.3671 176.954 44.1346 174.603C44.6332 168.699 48.8125 168.498 53.9311 169.752L56.2399 178.89C59.2242 176.274 62.0853 173.626 58.2366 169.245C59.7882 171.014 60.4334 172.988 63.166 174.49C64.5204 172.967 63.2911 171.445 62.7916 169.922C66.4939 175.695 70.1962 175.28 73.8985 176.577L71.465 176.352L79.3271 185.151L79.3896 188.479L73.337 189.155C71.5898 185.942 69.8427 187.073 68.0955 188.591C66.7464 188.87 65.4351 189.353 64.4141 191.412C65.4124 191.288 66.4108 190.172 67.4092 191.13C67.3506 192.035 65.8203 192.774 68.1579 193.95C67.1802 194.363 66.5036 195.321 66.8476 198.124C67.5332 197.173 67.8421 195.797 69.7803 196.262L71.5274 195.303L71.6522 193.611L72.3386 193.893L72.1514 195.755L73.7113 196.206C71.8612 197.278 73.3291 198.349 73.5866 199.421C73.7964 198.476 72.9872 197.006 75.3337 197.165C75.3337 197.165 77.2471 197.032 77.7048 197.221C78.33 197.479 79.1363 195.227 79.2543 194.385C79.3166 193.941 85.6685 193.597 85.567 193.047C86.6941 193.647 89.1091 193.665 87.8133 195.36C90.0126 192.965 88.9197 192.058 87.8758 191.13C89.425 190.302 89.2678 189.475 88.4998 188.648C87.3766 185.456 86.2534 183.832 85.1302 183.346C84.9537 180.891 86.4266 177.816 82.572 176.747L81.4488 176.295L80.9496 173.983L79.9512 172.742L81.2616 172.798L81.4488 171.444L79.8264 170.034L81.324 170.429L82.0104 171.219L81.9479 173.983L82.8839 174.998L82.5719 172.967L82.5094 169.809C80.5412 165.808 79.4371 166.494 78.4536 167.835C73.419 168.051 70.123 166.811 71.5274 161.63C80.9811 162.82 84.8825 154.93 77.9544 148.996C79.4309 144.38 79.0526 140.148 74.8969 136.7L74.2729 138.617C74.0388 136.324 73.2011 134.03 74.9593 131.736C73.4038 132.455 72.2825 133.565 71.9018 135.346L70.4666 132.413L69.0314 137.094C63.8693 129.805 62.5056 112.215 76.0824 114.646L76.2072 116.62C72.7466 120.154 70.835 123.689 76.4568 127.224L82.6966 134.218C86.5252 128.935 93.621 118.555 82.5094 116.845C79.0154 110.287 71.6127 109.75 65.4123 115.04C61.2351 122.158 62.8527 130.846 65.6619 139.858C61.9128 139.556 57.0924 137.978 57.9246 143.13C62.6797 139.317 64.0261 143.563 65.8491 146.683C68.7909 149.625 72.0187 152.015 76.7063 151.59C81.8812 158.067 74.55 161.216 67.721 158.697L67.8458 155.482C64.7051 152.106 61.5644 151.368 58.4237 149.503L52.4959 142.566L52.7455 144.145L51.8095 141.719C54.071 138.76 53.8024 135.899 52.2463 133.09C53.0938 135.396 54.6319 136.578 56.3022 137.546C55.534 133.315 56.4262 129.085 53.9934 124.855L56.3022 126.434C56.068 122.945 56.0407 119.393 54.3678 116.338C56.7784 115.279 58.4873 113.522 59.2349 110.81C56.9264 111.183 54.7806 109.645 52.3087 111.938L51.6072 110.806L46.2561 110.697C45.6139 110.411 45.1143 110.012 41.8882 111.769C39.4768 111.287 38.7515 112.176 37.9572 113.01L39.5171 113.123L40.3907 113.461L39.8915 113.799L39.0803 114.645L38.8931 117.014H38.1444L38.0819 114.081L37.7699 113.179L37.0835 113.687L37.3331 117.296C38.4979 118.023 39.6626 117.806 40.8274 117.184C44.4812 115.951 43.9777 120.525 44.1345 124.178C41.6477 123.355 37.3449 120.265 38.0195 123.388C37.948 123.023 36.0437 125.394 36.3971 125.926C36.5256 126.12 38.7059 125.137 38.7059 125.137C38.7096 124.128 37.0962 126.189 37.0835 128.07C38.4239 127.292 39.7775 126.528 42.3249 126.998C41.5285 128.867 40.4049 130.493 36.7091 130.213C31.1522 128.773 29.2802 130.294 26.5383 131.115C24.8763 132.521 24.1777 134.55 23.668 136.699L23.356 136.248L25.7895 130.833L16.6794 119.552C17.3774 118.292 20.3084 118.242 18.0521 115.379C20.106 114.025 19.3689 112.671 17.6153 111.317C18.118 112.2 18.2803 113.065 15.993 113.799L13.8715 111.6L13.8717 111.6Z" fill="#D40000"/>
<path d="M39.6665 119.51C37.9519 118.522 35.4767 118.151 31.4157 119.072C27.4867 120.106 27.6344 116.087 28.7795 114.904C30.5295 113.096 29.8617 112.05 29.6949 111.055C27.3271 114.371 20.6843 117.193 27.6212 121.584C31.7419 122.993 35.6532 120.237 39.6665 119.51Z" fill="#D40000"/>
<path d="M57.0289 112.291L56.0362 112.949L53.2785 113.029L52.4844 113.827V114.325H53.7859L56.5215 113.348L57.1392 112.59L57.029 112.291L57.0289 112.291Z" fill="black"/>
<path d="M45.2041 112.85L45.2263 113.368L45.7999 113.408L45.8221 114.844L46.8811 115.023L47.5208 115.422C47.5208 115.422 48.4253 115.462 48.5357 115.422C48.6459 115.382 49.1092 114.924 49.1092 114.924L49.1533 114.405L46.484 114.425L46.3737 113.388L47.4767 113.368L47.5208 114.545L49.1533 114.365V113.388L48.5356 112.91L45.2044 112.85L45.2041 112.85Z" fill="black"/>
<path d="M45.248 116.998L45.6452 118.453L45.8217 121.764H46.2629C46.2629 121.764 46.3511 118.533 46.3511 118.433C46.3511 118.334 45.7775 117.057 45.7775 117.057L45.2481 116.998L45.248 116.998Z" fill="black"/>
<path d="M38.0823 143.355L36.2104 145.611L34.4632 147.416L30.4697 148.657L33.7144 148.488L32.5913 150.011L36.3975 147.19L36.2728 148.431L38.7063 144.652L38.7688 143.355H38.0824L38.0823 143.355Z" fill="black"/>
<path d="M40.5784 145.104L39.4552 147.134L38.332 148.939L39.9544 147.811L40.5784 145.104V145.104Z" fill="black"/>
<path d="M44.8835 146.514L43.4484 147.698L41.1396 148.883L43.074 148.995L43.5732 151.195L41.3893 151.816L44.8211 152.323L47.8787 152.662L51.3729 154.297L49.189 152.549L48.0658 151.308L44.5715 150.575L43.698 148.713L44.8211 147.247L44.8836 146.514L44.8835 146.514Z" fill="black"/>
<path d="M48.2532 140.196L47.8164 143.355L50.0627 146.006L52.4339 147.416L51.5603 145.667L48.69 142.96L48.2532 140.196Z" fill="black"/>
<path d="M30.0957 145.047L31.5933 143.524L31.7805 141.155L30.7821 143.073L30.0957 145.047V145.047Z" fill="black"/>
<path d="M69.9678 141.494L70.8414 143.693L71.5901 144.37L73.9612 145.386L72.2765 143.411L71.2157 142.34L69.9678 141.494V141.494Z" fill="black"/>
<path d="M45.4457 167.44C45.4457 167.44 43.0746 169.019 43.3242 169.019C43.5738 169.019 44.3849 169.019 44.3849 169.019L42.2634 171.219L42.1387 173.362L43.449 170.767L44.8218 169.47L46.8185 168.568L47.7545 167.834L48.0041 168.906L49.564 168.173L50.2504 166.537L48.5033 167.778L48.0665 168.229L47.6921 167.496L48.3785 166.311L49.1272 165.353L47.7545 166.311L46.8809 167.834L46.3193 168.624L44.5722 169.639L45.2586 168.511L46.0697 167.496L45.4458 167.439L45.4457 167.44Z" fill="black"/>
<path d="M44.9465 176.915L45.82 178.1L45.9448 178.777L45.196 179.848L43.8232 181.202L45.9448 180.525C45.9448 180.525 46.2568 179.792 46.3816 179.566C46.5063 179.341 46.5688 177.761 46.5688 177.761L45.8824 177.254L44.9464 176.915H44.9465Z" fill="black"/>
<path d="M67.1602 172.685L68.9697 173.813H70.904L74.6479 175.562L75.9583 176.577L77.5182 177.085L79.3278 178.044L79.8894 178.664L79.515 177.028L77.955 176.069L76.2079 175.618L75.2719 174.998L73.6495 175.111L71.528 173.982L71.2784 173.588L69.9681 173.531L69.0321 172.854L67.7218 172.685H67.1602V172.685Z" fill="black"/>
<path d="M12.7409 5.78639C12.4688 3.8269 10.9482 4.35025 9.93295 3.86865L10.8065 6.06842C8.94708 6.51401 8.31925 7.44668 9.12177 8.94502L9.43378 9.73468C8.05831 8.90581 6.72395 8.24416 6.00187 10.0731C4.31367 9.88091 3.19933 10.3804 3.00679 11.9908C3.8098 11.8545 4.66787 11.3697 5.3155 12.2165C5.20582 14.0644 6.51134 13.902 7.49943 14.1906L7.87382 17.2364L10.4945 17.0108L11.5553 17.8005L10.0578 17.462C8.0598 17.9012 6.36892 18.4747 9.43378 21.1283C8.87751 22.1344 8.03461 22.6223 6.81305 22.4256C8.01942 23.069 9.22577 23.4204 10.4321 22.4256C12.2501 23.8849 13.0786 21.7667 14.3008 21.0719L15.112 22.2L14.3008 21.9744L13.0528 22.8204L17.7327 27.5583L17.6702 30.5478L20.7277 31.6195L22.2877 33.086C22.0081 35.9663 21.3758 38.7328 18.7934 40.8697C20.7277 40.896 22.6621 40.6002 24.5964 38.8392L23.1613 41.8286L11.4929 45.0436L11.4304 45.7769C10.4973 45.071 10.7469 43.6848 8.18571 43.9155C6.06242 41.2075 4.73595 40.9304 3.94263 42.2798C1.91552 42.3368 0.563277 42.8818 0.198774 44.1412C1.28032 43.4766 2.36187 43.3769 3.44344 43.9155V45.5512L2.19549 47.3562C0.198994 47.7243 -0.0579766 49.2156 0.261147 51.0788C0.531089 49.8992 1.26116 49.195 2.69466 49.2175L4.31701 50.9096C2.64234 50.9375 2.5473 52.3933 2.32029 53.7298C3.05105 52.97 3.83052 52.2718 5.37778 52.5454C7.71029 53.3684 8.4885 52.1843 8.49768 50.0072L12.4288 50.12C12.6409 51.3214 12.7719 52.5594 14.9247 52.8837C15.3223 53.7827 15.7924 54.6707 17.171 55.4219C16.3298 54.0984 16.6963 53.3987 16.9838 52.6581C19.6661 53.4306 18.8931 51.4702 19.1053 50.2891C23.2218 49.5966 27.4121 48.9993 30.3994 46.8485L28.0283 46.2281L30.5866 44.818L32.3337 44.9308L34.6424 43.013L36.3896 42.9565L35.1416 43.6898L33.8313 45.7767L29.2762 46.2844L30.5242 46.792L33.7689 46.7355L35.7656 47.1868L35.6409 46.1151L37.0136 44.7614L37.8248 43.6333L37.1384 45.8331L36.0777 47.6944C40.1969 48.0499 44.6063 48.7053 53.2995 53.786V54.7449L55.3586 54.9142L53.0499 57.7344L50.9284 58.0164C44.2663 52.4099 30.4924 51.6271 27.4043 61.6827C26.3434 65.1372 24.2979 67.0341 21.9133 68.3948C23.8273 69.024 24.5749 71.4981 28.2779 69.2972C29.6329 69.3437 31.5954 67.429 31.897 70.8765V74.3736C30.0116 76.2402 27.9385 77.9711 26.8427 80.4088L22.1005 81.0293C22.2194 78.708 21.6264 77.1319 18.6062 78.0963C16.3472 78.0367 14.5675 78.651 13.8016 80.6908C15.0079 80.5209 16.2143 79.6743 17.4207 81.0293C15.8634 81.7362 14.5835 82.5769 15.4863 84.4699C13.8997 85.2852 12.8629 86.4064 13.4272 88.4182C14.0157 87.007 15.275 86.5054 16.8591 86.444C16.612 87.2267 16.3008 87.9976 16.8591 88.9258C16.3215 90.0727 16.9237 91.2196 18.0446 92.3665C17.8325 91.0471 18.2984 90.264 19.4174 89.9975C20.1761 90.5203 21.4953 89.7765 22.9117 88.813C24.6124 89.6316 26.0718 89.3961 26.7803 85.88C26.6953 88.6011 27.3078 90.4393 30.5242 88.9822C32.5257 88.8761 32.6727 90.1417 32.8953 91.3512C33.8317 89.8283 34.8827 88.3054 33.3946 86.7825C35.303 85.6436 34.0015 84.6754 33.2073 83.6803L36.7016 80.578L34.4553 81.1421L34.5801 80.6344L37.388 78.2091L36.2024 80.578L36.8264 80.5217L40.1335 77.2503C47.4565 77.4388 49.2362 71.1403 43.0038 68.7897C43.5024 62.8851 47.6816 62.6842 52.8003 63.9389L55.109 73.0764C58.0933 70.4602 60.9544 67.8122 57.1057 63.4313C58.6573 65.2005 59.3025 67.1745 62.0352 68.6768C63.3895 67.1539 62.1603 65.631 61.6608 64.1081C65.3631 69.8812 69.0653 69.467 72.7676 70.7638L70.3341 70.5382L78.1962 79.3372L78.2587 82.665L72.2061 83.3419C70.459 80.1281 68.7118 81.2591 66.9647 82.7779C65.6156 83.0566 64.3042 83.54 63.2832 85.5981C64.2816 85.4744 65.2799 84.3587 66.2783 85.316C66.2197 86.2213 64.6895 86.9602 67.0271 88.1362C66.0493 88.5495 65.3727 89.5072 65.7167 92.3101C66.4023 91.3598 66.7112 89.9838 68.6494 90.4488L70.3966 89.4899L70.5213 87.7978L71.2077 88.0798L71.0205 89.9412L72.5805 90.3924C70.7303 91.4641 72.1982 92.5358 72.4557 93.6074C72.6655 92.6629 71.8563 91.1921 74.2028 91.3513C74.2028 91.3513 76.1162 91.219 76.574 91.4078C77.1992 91.6654 78.0054 89.4131 78.1234 88.5715C78.1857 88.1276 84.5376 87.7831 84.4361 87.2339C85.5632 87.8337 87.9783 87.8515 86.6824 89.5464C88.8817 87.1517 87.7889 86.2449 86.7449 85.3161C88.2941 84.4889 88.1369 83.6616 87.3689 82.8343C86.2457 79.6421 85.1226 78.0188 83.9994 77.5324C83.8228 75.0779 85.2958 72.0022 81.4411 70.9331L80.3179 70.4818L79.8187 68.1693L78.8204 66.9284L80.1307 66.9847L80.3179 65.631L78.6956 64.2209L80.1931 64.6157L80.8795 65.4054L80.817 68.1692L81.753 69.1845L81.441 67.1539L81.3786 63.9953C79.4103 59.9947 78.3062 60.6808 77.3227 62.0212C72.2881 62.2378 68.9922 60.9971 70.3965 55.8167C79.8503 57.0069 83.7517 49.1165 76.8235 43.1822C78.3 38.5665 77.9217 34.3351 73.766 30.8861L73.142 32.8038C72.9079 30.5101 72.0703 28.2163 73.8284 25.9226C72.273 26.6411 71.1516 27.752 70.7709 29.5324L69.3357 26.5994L67.9006 31.2809C62.7385 23.9915 61.3747 6.40134 74.9516 8.83212L75.0763 10.8063C71.6157 14.3409 69.7041 17.8756 75.3259 21.4102L81.5657 28.4043C85.3943 23.1216 92.4901 12.7411 81.3785 11.0319C77.8845 4.47309 70.4819 3.9366 64.2815 9.22695C60.1042 16.3442 61.7219 25.0329 64.531 34.0447C60.7819 33.7423 55.9616 32.1644 56.7937 37.3162C61.5488 33.5037 62.8952 37.75 64.7182 40.8696C67.6601 43.8114 70.8878 46.2017 75.5755 45.7768C80.7503 52.2531 73.4191 55.4028 66.5902 52.8837L66.7149 49.6686C63.5742 46.2922 60.4335 45.5547 57.2928 43.6898L51.365 36.7521L51.6146 38.3314L50.6787 35.9061C52.9401 32.9463 52.6715 30.086 51.1154 27.2762C51.9629 29.5824 53.501 30.7648 55.1713 31.7322C54.4031 27.5019 55.2953 23.2715 52.8626 19.0412L55.1713 20.6206C54.9372 17.1314 54.9098 13.5799 53.237 10.5242C55.6476 9.46548 57.3564 7.70898 58.104 4.99663C55.7956 5.36936 53.6497 3.83157 51.1778 6.12472L50.4763 4.99262L45.1252 4.8838C44.4831 4.59736 43.9834 4.19819 40.7574 5.95547C38.3459 5.47332 37.6207 6.36296 36.8263 7.19637L38.3862 7.30915L39.2598 7.64757L38.7606 7.98599L37.9495 8.83206L37.7623 11.201H37.0135L36.951 8.26802L36.639 7.36554L35.9526 7.87319L36.2022 11.4831C37.367 12.2092 38.5318 11.9928 39.6965 11.3703C43.3504 10.1372 42.8468 14.712 43.0036 18.3644C40.5169 17.5414 36.214 14.4514 36.8886 17.5747C36.8172 17.2093 34.9128 19.5809 35.2663 20.1129C35.3947 20.3063 37.575 19.3232 37.575 19.3232C37.5787 18.3145 35.9654 20.3754 35.9526 22.2563C37.293 21.4788 38.6466 20.715 41.1941 21.1846C40.3976 23.0534 39.274 24.6798 35.5782 24.3996C30.0213 22.9595 28.1493 24.4804 25.4074 25.3021C23.7454 26.7081 23.0468 28.7361 22.5371 30.8861L22.2251 30.4348L24.6586 25.0201L15.5485 13.7393C16.2465 12.4784 19.1775 12.4286 16.9213 9.56536C18.9751 8.21165 18.2381 6.85795 16.4845 5.50425C16.9871 6.387 17.1495 7.25165 14.8621 7.98603L12.7406 5.78628L12.7409 5.78639Z" fill="white"/>
<path d="M38.5356 13.697C36.821 12.7083 34.3458 12.3382 30.2848 13.2583C26.3558 14.2926 26.5035 10.2735 27.6486 9.09072C29.3987 7.28312 28.7308 6.23654 28.5641 5.2417C26.1962 8.55762 19.5534 11.3793 26.4903 15.771C30.611 17.1795 34.5223 14.4236 38.5356 13.697Z" fill="#F9F9F9"/>
<path d="M55.8981 6.47833L54.9053 7.1364L52.1477 7.21612L51.3535 8.01379V8.51233H52.6551L55.3907 7.53519L56.0084 6.7774L55.8981 6.47827L55.8981 6.47833Z" fill="black"/>
<path d="M44.0732 7.03657L44.0955 7.55506L44.6691 7.59484L44.6913 9.03066L45.7502 9.21013L46.39 9.60897C46.39 9.60897 47.2945 9.64875 47.4048 9.60897C47.515 9.56903 47.9784 9.11043 47.9784 9.11043L48.0225 8.59194L45.3531 8.612L45.2428 7.57502L46.3459 7.55496L46.39 8.73153L48.0225 8.55206V7.5749L47.4048 7.0963L44.0735 7.03638L44.0732 7.03657Z" fill="black"/>
<path d="M44.1172 11.1844L44.5143 12.6402L44.6909 15.9505H45.1321C45.1321 15.9505 45.2203 12.7199 45.2203 12.6202C45.2203 12.5205 44.6467 11.2442 44.6467 11.2442L44.1172 11.1843L44.1172 11.1844Z" fill="black"/>
<path d="M36.9514 37.5418L35.0795 39.798L33.3323 41.6029L29.3389 42.8438L32.5836 42.6745L31.4604 44.1974L35.2667 41.3772L35.1419 42.6181L37.5755 38.839L37.6379 37.5417H36.9516L36.9514 37.5418Z" fill="black"/>
<path d="M39.4475 39.2903L38.3243 41.3208L37.2012 43.1258L38.8235 41.9977L39.4475 39.2903V39.2903Z" fill="black"/>
<path d="M43.7527 40.7005L42.3175 41.885L40.0088 43.0694L41.9431 43.1822L42.4423 45.382L40.2584 46.0024L43.6903 46.5101L46.7478 46.8485L50.2421 48.4842L48.0581 46.7357L46.935 45.4948L43.4407 44.7615L42.5671 42.9002L43.6903 41.4337L43.7528 40.7004L43.7527 40.7005Z" fill="black"/>
<path d="M47.1223 34.3833L46.6855 37.5419L48.9319 40.1929L51.303 41.603L50.4294 39.8545L47.5591 37.1471L47.1223 34.3833Z" fill="black"/>
<path d="M28.9648 39.2339L30.4624 37.711L30.6496 35.342L29.6512 37.2598L28.9648 39.2339V39.2339Z" fill="black"/>
<path d="M68.8369 35.6804L69.7105 37.8802L70.4592 38.557L72.8304 39.5723L71.1456 37.5982L70.0849 36.5265L68.8369 35.6804V35.6804Z" fill="black"/>
<path d="M44.3149 61.6263C44.3149 61.6263 41.9437 63.2056 42.1933 63.2056C42.4429 63.2056 43.2541 63.2056 43.2541 63.2056L41.1326 65.4053L41.0078 67.5487L42.3182 64.9541L43.6909 63.6568L45.6877 62.7543L46.6236 62.0211L46.8732 63.0928L48.4332 62.3595L49.1195 60.7238L47.3724 61.9647L46.9356 62.4159L46.5612 61.6827L47.2476 60.4982L47.9964 59.5393L46.6236 60.4982L45.7501 62.0211L45.1885 62.8107L43.4413 63.826L44.1277 62.6979L44.9389 61.6827L44.3149 61.6262L44.3149 61.6263Z" fill="black"/>
<path d="M43.8156 71.1023L44.6892 72.2868L44.8139 72.9636L44.0651 74.0353L42.6924 75.389L44.8139 74.7122C44.8139 74.7122 45.1259 73.9789 45.2507 73.7533C45.3754 73.5277 45.4379 71.9484 45.4379 71.9484L44.7515 71.4407L43.8156 71.1023H43.8156Z" fill="black"/>
<path d="M66.0293 66.872L67.8388 68.0001H69.7732L73.5171 69.7486L74.8274 70.7638L76.3874 71.2715L78.1969 72.2304L78.7585 72.8508L78.3841 71.2151L76.8242 70.2562L75.077 69.805L74.141 69.1845L72.5187 69.2974L70.3972 68.1693L70.1476 67.7744L68.8372 67.718L67.9012 67.0411L66.5909 66.8718H66.0293V66.872Z" fill="black"/>
<path d="M112.249 111.028C111.977 109.068 110.456 109.591 109.441 109.11L110.314 111.31C108.455 111.755 107.827 112.688 108.63 114.186L108.942 114.976C107.566 114.147 106.232 113.485 105.51 115.314C103.821 115.122 102.707 115.622 102.515 117.232C103.318 117.096 104.176 116.611 104.823 117.458C104.714 119.306 106.019 119.143 107.007 119.432L107.382 122.478L110.002 122.252L111.063 123.042L109.566 122.703C107.568 123.142 105.877 123.716 108.942 126.37C108.385 127.376 107.542 127.864 106.321 127.667C107.527 128.31 108.734 128.662 109.94 127.667C111.758 129.126 112.586 127.008 113.809 126.313L114.62 127.441L113.809 127.216L112.561 128.062L117.241 132.8L117.178 135.789L120.236 136.861L121.796 138.327C121.516 141.208 120.884 143.974 118.301 146.111C120.236 146.137 122.17 145.841 124.104 144.08L122.669 147.07L111.001 150.285L110.938 151.018C110.005 150.312 110.255 148.926 107.694 149.157C105.57 146.449 104.244 146.172 103.45 147.521C101.423 147.578 100.071 148.123 99.7066 149.382C100.788 148.718 101.87 148.618 102.951 149.157V150.792L101.703 152.597C99.7068 152.966 99.4498 154.457 99.769 156.32C100.039 155.14 100.769 154.436 102.202 154.459L103.825 156.151C102.15 156.179 102.055 157.635 101.828 158.971C102.559 158.211 103.338 157.513 104.886 157.787C107.218 158.61 107.996 157.425 108.005 155.248L111.937 155.361C112.149 156.563 112.28 157.801 114.432 158.125C114.83 159.024 115.3 159.912 116.679 160.663C115.838 159.34 116.204 158.64 116.492 157.899C119.174 158.672 118.401 156.711 118.613 155.53C122.73 154.838 126.92 154.24 129.907 152.09L127.536 151.469L130.094 150.059L131.842 150.172L134.15 148.254L135.897 148.198L134.649 148.931L133.339 151.018L128.784 151.526L130.032 152.033L133.277 151.977L135.273 152.428L135.149 151.356L136.521 150.003L137.333 148.875L136.646 151.074L135.585 152.936C139.705 153.291 144.114 153.947 152.807 159.027V159.986L154.866 160.155L152.558 162.976L150.436 163.258C143.774 157.651 130 156.868 126.912 166.924C125.851 170.378 123.806 172.275 121.421 173.636C123.335 174.265 124.083 176.739 127.786 174.538C129.141 174.585 131.103 172.67 131.405 176.118V179.615C129.519 181.481 127.446 183.212 126.351 185.65L121.608 186.27C121.727 183.949 121.134 182.373 118.114 183.337C115.855 183.278 114.075 183.892 113.309 185.932C114.516 185.762 115.722 184.915 116.928 186.27C115.371 186.977 114.091 187.818 114.994 189.711C113.408 190.526 112.371 191.648 112.935 193.659C113.524 192.248 114.783 191.747 116.367 191.685C116.12 192.468 115.809 193.239 116.367 194.167C115.829 195.314 116.432 196.461 117.552 197.608C117.34 196.288 117.806 195.505 118.925 195.239C119.684 195.762 121.003 195.018 122.419 194.054C124.12 194.873 125.58 194.637 126.288 191.121C126.203 193.842 126.816 195.681 130.032 194.223C132.034 194.117 132.181 195.383 132.403 196.592C133.339 195.07 134.39 193.547 132.902 192.024C134.811 190.885 133.509 189.917 132.715 188.921L136.209 185.819L133.963 186.383L134.088 185.876L136.896 183.45L135.71 185.819L136.334 185.763L139.641 182.492C146.964 182.68 148.744 176.382 142.512 174.031C143.01 168.126 147.189 167.925 152.308 169.18L154.617 178.318C157.601 175.701 160.462 173.054 156.614 168.673C158.165 170.442 158.81 172.416 161.543 173.918C162.897 172.395 161.668 170.872 161.169 169.349C164.871 175.122 168.573 174.708 172.275 176.005L169.842 175.779L177.704 184.579L177.767 187.906L171.714 188.583C169.967 185.369 168.22 186.5 166.473 188.019C165.123 188.298 163.812 188.781 162.791 190.839C163.789 190.716 164.788 189.6 165.786 190.557C165.728 191.463 164.197 192.202 166.535 193.378C165.557 193.791 164.881 194.749 165.225 197.551C165.91 196.601 166.219 195.225 168.157 195.69L169.904 194.731L170.029 193.039L170.716 193.321L170.528 195.182L172.088 195.634C170.238 196.705 171.706 197.777 171.964 198.849C172.173 197.904 171.364 196.433 173.711 196.593C173.711 196.593 175.624 196.46 176.082 196.649C176.707 196.907 177.513 194.654 177.631 193.813C177.694 193.369 184.045 193.024 183.944 192.475C185.071 193.075 187.486 193.093 186.19 194.788C188.39 192.393 187.297 191.486 186.253 190.557C187.802 189.73 187.645 188.903 186.877 188.076C185.754 184.883 184.631 183.26 183.507 182.774C183.331 180.319 184.804 177.243 180.949 176.174L179.826 175.723L179.327 173.411L178.328 172.17L179.639 172.226L179.826 170.872L178.204 169.462L179.701 169.857L180.387 170.647L180.325 173.41L181.261 174.426L180.949 172.395L180.886 169.237C178.918 165.236 177.814 165.922 176.831 167.262C171.796 167.479 168.5 166.238 169.904 161.058C179.358 162.248 183.26 154.358 176.331 148.423C177.808 143.808 177.43 139.576 173.274 136.127L172.65 138.045C172.416 135.751 171.578 133.458 173.336 131.164C171.781 131.882 170.66 132.993 170.279 134.774L168.844 131.84L167.409 136.522C162.246 129.233 160.883 111.643 174.459 114.073L174.584 116.047C171.124 119.582 169.212 123.117 174.834 126.651L181.074 133.646C184.902 128.363 191.998 117.982 180.886 116.273C177.392 109.714 169.99 109.178 163.789 114.468C159.612 121.585 161.23 130.274 164.039 139.286C160.29 138.983 155.469 137.406 156.302 142.557C161.057 138.745 162.403 142.991 164.226 146.111C167.168 149.053 170.396 151.443 175.083 151.018C180.258 157.494 172.927 160.644 166.098 158.125L166.223 154.91C163.082 151.533 159.941 150.796 156.801 148.931L150.873 141.993L151.123 143.573L150.187 141.147C152.448 138.187 152.179 135.327 150.623 132.517C151.471 134.824 153.009 136.006 154.679 136.973C153.911 132.743 154.803 128.513 152.37 124.282L154.679 125.862C154.445 122.373 154.418 118.821 152.745 115.765C155.155 114.707 156.864 112.95 157.612 110.238C155.303 110.611 153.158 109.073 150.686 111.366L149.984 110.234L144.633 110.125C143.991 109.839 143.491 109.439 140.265 111.197C137.854 110.715 137.129 111.604 136.334 112.438L137.894 112.55L138.768 112.889L138.269 113.227L137.457 114.073L137.27 116.442H136.521L136.459 113.509L136.147 112.607L135.461 113.114L135.71 116.724C136.875 117.45 138.04 117.234 139.204 116.611C142.858 115.378 142.355 119.953 142.512 123.606C140.025 122.783 135.722 119.693 136.397 122.816C136.325 122.451 134.421 124.822 134.774 125.354C134.903 125.548 137.083 124.564 137.083 124.564C137.087 123.556 135.473 125.617 135.461 127.497C136.801 126.72 138.155 125.956 140.702 126.426C139.906 128.295 138.782 129.921 135.086 129.641C129.529 128.201 127.657 129.722 124.915 130.543C123.253 131.949 122.555 133.977 122.045 136.127L121.733 135.676L124.167 130.261L115.056 118.98C115.754 117.72 118.685 117.67 116.429 114.807C118.483 113.453 117.746 112.099 115.992 110.745C116.495 111.628 116.657 112.493 114.37 113.227L112.248 111.027L112.249 111.028Z" fill="white"/>
<path d="M138.043 118.938C136.329 117.949 133.854 117.579 129.793 118.5C125.864 119.534 126.011 115.515 127.156 114.332C128.906 112.524 128.239 111.478 128.072 110.483C125.704 113.799 119.061 116.62 125.998 121.012C130.119 122.421 134.03 119.665 138.043 118.938Z" fill="white"/>
<path d="M155.406 111.719L154.413 112.377L151.656 112.457L150.861 113.255V113.753H152.163L154.898 112.776L155.516 112.018L155.406 111.719L155.406 111.719Z" fill="black"/>
<path d="M143.581 112.278L143.603 112.796L144.177 112.836L144.199 114.272L145.258 114.451L145.898 114.85C145.898 114.85 146.802 114.89 146.913 114.85C147.023 114.81 147.486 114.352 147.486 114.352L147.53 113.833L144.861 113.853L144.751 112.816L145.854 112.796L145.898 113.973L147.53 113.793V112.816L146.913 112.338L143.581 112.278L143.581 112.278Z" fill="black"/>
<path d="M143.625 116.426L144.022 117.881L144.199 121.192H144.64C144.64 121.192 144.728 117.961 144.728 117.861C144.728 117.762 144.154 116.485 144.154 116.485L143.625 116.426L143.625 116.426Z" fill="black"/>
<path d="M136.459 142.783L134.587 145.039L132.84 146.844L128.847 148.085L132.091 147.916L130.968 149.439L134.775 146.618L134.65 147.859L137.083 144.08L137.146 142.783H136.459L136.459 142.783Z" fill="black"/>
<path d="M138.955 144.531L137.832 146.562L136.709 148.367L138.331 147.239L138.955 144.531V144.531Z" fill="black"/>
<path d="M143.26 145.942L141.825 147.126L139.517 148.311L141.451 148.423L141.95 150.623L139.766 151.244L143.198 151.751L146.256 152.09L149.75 153.725L147.566 151.977L146.443 150.736L142.948 150.003L142.075 148.141L143.198 146.675L143.261 145.942L143.26 145.942Z" fill="black"/>
<path d="M146.63 139.625L146.193 142.783L148.44 145.434L150.811 146.844L149.937 145.096L147.067 142.388L146.63 139.625V139.625Z" fill="black"/>
<path d="M128.473 144.475L129.97 142.952L130.157 140.583L129.159 142.501L128.473 144.475V144.475Z" fill="black"/>
<path d="M168.345 140.922L169.218 143.121L169.967 143.798L172.338 144.813L170.653 142.839L169.593 141.768L168.345 140.922V140.922Z" fill="black"/>
<path d="M143.822 166.867C143.822 166.867 141.451 168.447 141.7 168.447C141.95 168.447 142.761 168.447 142.761 168.447L140.639 170.647L140.515 172.79L141.825 170.195L143.198 168.898L145.194 167.996L146.13 167.262L146.38 168.334L147.94 167.601L148.626 165.965L146.879 167.206L146.442 167.657L146.068 166.924L146.754 165.739L147.503 164.781L146.13 165.739L145.257 167.262L144.695 168.052L142.948 169.067L143.635 167.939L144.446 166.924L143.822 166.867L143.822 166.867Z" fill="black"/>
<path d="M143.323 176.344L144.197 177.528L144.322 178.205L143.573 179.277L142.2 180.63L144.322 179.953C144.322 179.953 144.634 179.22 144.759 178.994C144.883 178.769 144.946 177.19 144.946 177.19L144.259 176.682L143.323 176.344H143.323Z" fill="black"/>
<path d="M165.537 172.113L167.347 173.241H169.281L173.025 174.99L174.335 176.005L175.895 176.513L177.705 177.472L178.266 178.092L177.892 176.456L176.332 175.497L174.585 175.046L173.649 174.426L172.026 174.539L169.905 173.41L169.655 173.016L168.345 172.959L167.409 172.282L166.099 172.113H165.537V172.113Z" fill="black"/>
</g>
<defs>
<clipPath id="clip0_1_7026">
<rect width="600" height="400" fill="white"/>
</clipPath>
</defs>
</svg>
