<svg width="600" height="400" viewBox="0 0 600 400" fill="none" xmlns="http://www.w3.org/2000/svg" xmlns:cgf="https://coding.garden/flags"><metadata id="cgf-metadata">

<cgf:flag>
  <cgf:name>Uithoorn</cgf:name>
  <cgf:route>nl/nh/uithoorn</cgf:route>
  <cgf:aspect-ratio>1.5</cgf:aspect-ratio>
</cgf:flag>

</metadata><g clip-path="url(#clip0_1_7004)">
<path d="M1.78072 0.510986L0.93457 402.206H602.553V0.510986H1.78072V0.510986Z" fill="#3195FF"/>
<path d="M238.133 151.314C236.672 129.235 201.638 136.169 182.788 145.621L151.376 165.696C135.106 170.84 84.1616 221.696 138.811 223.223C138.314 230.936 141.949 236.458 154.966 237.006C154.602 247.36 163.742 251.898 177.702 253.485C293.06 351.601 401.471 320.172 461.607 197.156C464.17 191.828 467.78 187.724 465.795 177.082C469.57 165.268 477.655 162.088 486.138 159.704C491.794 156.191 495.371 142.604 487.036 136.333C465.174 134.868 455.796 150.32 447.247 166.894C433.913 144.444 406.461 175.676 435.879 185.771C392.111 240.001 293.568 256.001 259.918 217.232C254.665 211.18 250.201 204.878 249.202 196.257C270.002 188.292 252.412 166.408 240.526 174.085C241.381 166.164 241.243 158.441 238.133 151.314V151.314Z" fill="#FFDC00" stroke="#2C2C2C"/>
<path d="M138.347 223.517C187.279 220.487 233.4 176.611 238.193 151.271" stroke="#2C2C2C"/>
<path d="M154.847 237.076C191.639 230.013 221.958 211.808 240.732 173.729" stroke="#2C2C2C"/>
<path d="M177.271 253.602C206.887 242.545 235.82 230.496 249.405 196.187" stroke="#2C2C2C"/>
<path d="M239.568 181.356L249.088 193.22C253.308 190.295 256.792 184.829 252.155 179.979C247.45 175.392 242.694 178.558 239.568 181.356V181.356Z" fill="#3195FF" stroke="#2C2C2C"/>
<path d="M239.145 181.568C234.918 189.341 243.618 196.235 249.299 193.432" stroke="#2C2C2C"/>
<path d="M235.232 183.792C233.917 195.519 243.916 199.363 249.828 195.869" stroke="#2C2C2C"/>
<path d="M127.769 127.966C126.562 131.78 127.441 135.593 132.423 139.407L132.212 152.754C131.164 160.025 134.572 157.812 137.923 155.72L138.981 160.805L141.52 161.441L140.673 163.983C147.42 172.995 150.013 168.14 153.577 166.526C155.845 168.409 158.496 169.526 159.712 173.517C160.944 187.756 159.677 199.743 155.27 208.898C181.832 202.702 204.282 187.518 224.655 167.797C225.106 153.418 216.202 159.482 211.116 157.203C193.141 159.697 190.41 149.333 182.135 143.644L174.097 113.983L151.25 112.924L127.769 127.966Z" fill="#FFCCCC" stroke="#2C2C2C"/>
<path d="M153.47 166.445L165.287 153.262" stroke="#2C2C2C"/>
<path opacity="0.98" d="M140.008 138.355C140.008 138.877 139.94 139.393 139.809 139.875C139.677 140.356 139.484 140.794 139.241 141.163C138.998 141.531 138.709 141.824 138.392 142.023C138.074 142.223 137.734 142.325 137.39 142.325C137.046 142.325 136.706 142.223 136.388 142.023C136.071 141.824 135.782 141.531 135.539 141.163C135.296 140.794 135.103 140.356 134.972 139.875C134.84 139.393 134.772 138.877 134.772 138.355C134.772 137.834 134.84 137.318 134.972 136.836C135.103 136.355 135.296 135.917 135.539 135.548C135.782 135.18 136.071 134.887 136.388 134.688C136.706 134.488 137.046 134.385 137.39 134.385C137.734 134.385 138.074 134.488 138.392 134.688C138.709 134.887 138.998 135.18 139.241 135.548C139.484 135.917 139.677 136.355 139.809 136.836C139.94 137.318 140.008 137.834 140.008 138.355V138.355Z" fill="black"/>
<path opacity="0.98" d="M138.587 138.355C138.587 138.67 138.556 138.982 138.496 139.273C138.435 139.564 138.347 139.828 138.236 140.05C138.125 140.273 137.993 140.45 137.848 140.57C137.703 140.69 137.547 140.752 137.39 140.752C137.233 140.752 137.077 140.69 136.932 140.57C136.787 140.45 136.655 140.273 136.544 140.05C136.433 139.828 136.345 139.564 136.284 139.273C136.224 138.982 136.193 138.67 136.193 138.355C136.193 138.041 136.224 137.729 136.284 137.438C136.345 137.147 136.433 136.883 136.544 136.661C136.655 136.438 136.787 136.261 136.932 136.141C137.077 136.02 137.233 135.958 137.39 135.958C137.547 135.958 137.703 136.02 137.848 136.141C137.993 136.261 138.125 136.438 138.236 136.661C138.347 136.883 138.435 137.147 138.496 137.438C138.556 137.729 138.587 138.041 138.587 138.355V138.355Z" fill="#0000FF"/>
<path d="M126.395 115.959C119.342 123.224 121.324 120.214 129.689 128.411C132.927 131.584 140.379 126.688 146.739 122.401L154.068 122.251C158.209 125.135 157.935 133.029 167.381 129.891C167.754 133.985 167.866 138.359 173.663 136.633C177.951 137.386 183.458 151.561 186.527 138.88L188.771 133.936C192.845 131.839 191.69 129.741 188.621 127.644C186.719 123.894 188.552 122.282 189.219 120.004C191.231 114.173 189.827 110.669 181.89 111.614C182.139 107.869 180.878 105.385 176.355 105.622C174.891 93.6185 169.44 98.0881 164.987 98.4309C162.195 91.8951 159.403 95.3776 156.611 97.2324C151.664 95.8462 147.9 96.6803 146.14 101.277C138.184 97.7531 137.714 102.608 136.268 106.371C127.829 103.469 127.388 108.197 127.143 113.112L126.395 115.959L126.395 115.959V115.959Z" fill="#FF9933" stroke="#2C2C2C"/>
<path d="M122.059 190.254C122.215 211.996 141.19 211.402 155.693 208.263" stroke="#2C2C2C"/>
<path d="M487.634 136.183C478.462 136.155 473.399 157.437 486.886 159.104" stroke="#2C2C2C"/>
<path opacity="0.98" d="M443.657 171.314C443.657 173.678 442.775 175.945 441.204 177.617C439.633 179.289 437.502 180.228 435.281 180.228C433.059 180.228 430.929 179.289 429.358 177.617C427.787 175.945 426.904 173.678 426.904 171.314C426.904 170.143 427.121 168.984 427.542 167.903C427.963 166.821 428.58 165.839 429.358 165.011C430.136 164.183 431.059 163.527 432.075 163.079C433.092 162.631 434.181 162.4 435.281 162.4C436.381 162.4 437.47 162.631 438.486 163.079C439.503 163.527 440.426 164.183 441.204 165.011C441.982 165.839 442.599 166.821 443.02 167.903C443.441 168.984 443.657 170.143 443.657 171.314V171.314Z" fill="black"/>
<path opacity="0.98" d="M442.162 171.389C442.162 173.276 441.437 175.086 440.147 176.421C438.856 177.755 437.106 178.505 435.281 178.505C433.456 178.505 431.706 177.755 430.416 176.421C429.125 175.086 428.4 173.276 428.4 171.389C428.4 170.454 428.578 169.529 428.924 168.666C429.27 167.802 429.777 167.018 430.416 166.357C431.055 165.696 431.813 165.172 432.648 164.814C433.483 164.457 434.378 164.273 435.281 164.273C436.185 164.273 437.079 164.457 437.914 164.814C438.749 165.172 439.508 165.696 440.147 166.357C440.785 167.018 441.292 167.802 441.638 168.666C441.984 169.529 442.162 170.454 442.162 171.389V171.389Z" fill="#3195FF"/>
<path d="M447.098 166.595C455.046 167.353 462.5 173.036 465.795 177.081" stroke="#2C2C2C"/>
<path d="M435.58 185.771L461.757 197.755" stroke="#2C2C2C"/>
<path d="M256.382 177.082C274.558 167.631 291.636 159.001 311.054 147.573C321.158 141.626 329.231 131.595 337.156 119.554C341.298 113.262 343.458 106.97 345.233 100.678C349.305 79.5141 325.84 74.3441 320.103 96.1837C317.1 109.367 319.882 122.709 324.011 135.893C320.431 139.675 312.239 146.76 311.727 146.52C304.936 122.151 297.765 97.7817 317.411 73.4125C335.525 58.7257 355.839 71.3856 358.695 85.9966C365.209 114.113 348.072 133.44 334.463 147.419C363.967 166.733 394.226 167.139 424.511 166.894L426.306 180.377C388.484 182.935 351.222 183.762 322.796 157.307C303.222 170.515 281.837 180.549 259.074 188.168L256.382 177.082Z" fill="#D40000" stroke="#2C2C2C"/>
<path d="M322.796 157.157L334.762 147.119" stroke="#2C2C2C"/>
</g>
<defs>
<clipPath id="clip0_1_7004">
<rect width="600" height="400" fill="white"/>
</clipPath>
</defs>
</svg>
