<svg width="600" height="400" viewBox="0 0 600 400" fill="none" xmlns="http://www.w3.org/2000/svg" xmlns:cgf="https://coding.garden/flags"><metadata id="cgf-metadata">

<cgf:flag>
  <cgf:name>Velsen</cgf:name>
  <cgf:route>nl/nh/velsen</cgf:route>
  <cgf:aspect-ratio>1.5</cgf:aspect-ratio>
</cgf:flag>

</metadata><g clip-path="url(#clip0_1_7089)">
<path d="M600 0H0.000976562V200.014H600V0Z" fill="#0F47AF"/>
<path d="M599.999 199.986H0V400H599.999V199.986Z" fill="#FCDD09"/>
<path d="M85.7668 184.369C85.7668 183.442 85.7487 183.209 85.6326 182.794C85.4709 182.217 85.1074 181.515 84.7039 181.001C84.359 180.562 83.5337 179.733 83.4406 179.733C83.4044 179.733 83.1014 179.982 82.7665 180.286C80.8783 182.001 79.4707 182.774 78.2368 182.774C77.9978 182.774 77.9886 182.762 78.0241 182.61C78.2278 181.708 78.1984 180.731 77.9357 179.673C77.7942 179.103 77.491 178.239 77.4352 178.247C77.4141 178.247 77.1416 178.537 76.8275 178.885C75.459 180.402 73.493 181.705 71.7833 182.229C71.2988 182.377 69.991 182.66 69.9534 182.625C69.9394 182.61 70.2433 181.989 70.6289 181.241C71.5694 179.42 71.915 178.581 72.1908 177.451C72.3014 176.999 72.4812 175.71 72.4812 175.37V175.149L72.0179 175.577C71.4649 176.089 71.158 176.294 70.6625 176.486C69.7868 176.824 69.2736 176.569 68.6782 175.497C68.3803 174.961 68.1788 174.316 68.1242 173.725C68.1021 173.487 68.073 173.292 68.06 173.292C68.0459 173.292 67.7288 173.458 67.3555 173.661C65.8384 174.484 64.7976 174.843 63.7898 174.888C63.0296 174.921 62.5736 174.838 61.8727 174.534L61.4464 174.35L61.6187 174.229C62.392 173.685 62.6779 173.162 62.7538 172.151L62.792 171.636L62.4498 171.723C62.2117 171.785 61.8863 171.802 61.378 171.787C60.7418 171.765 60.5673 171.737 60.0139 171.553C59.665 171.437 59.3263 171.321 59.261 171.295C59.1598 171.255 59.149 171.268 59.1877 171.382C59.2751 171.645 59.2409 173.012 59.1335 173.429C58.8908 174.382 58.3174 174.955 57.3255 175.236C57.1666 175.281 57.0257 175.307 57.0123 175.293C56.9982 175.281 57.0263 175.114 57.0665 174.923C57.4254 173.337 56.6475 171.84 54.6886 170.344L54.0936 169.889L53.0148 170.396C51.005 171.34 49.8331 171.734 48.288 171.984C47.5656 172.101 46.0509 172.143 45.4281 172.062L45.1339 172.024V171.629C45.1339 170.158 46.2422 168.409 48.6141 166.121C48.8438 165.9 49.002 165.718 48.9658 165.718C48.9297 165.718 48.6461 165.798 48.3355 165.898C46.8875 166.358 45.1823 166.651 43.5942 166.712C42.596 166.752 42.5947 166.752 42.5947 166.62C42.5947 166.472 43.3602 165.36 43.8924 164.734C44.7167 163.766 46.5519 162.043 47.9677 160.908C48.2878 160.651 48.552 160.427 48.5543 160.411C48.5543 160.395 48.2659 160.242 47.9084 160.071C46.5215 159.41 45.2663 158.488 43.3403 156.718C43.0001 156.405 42.7228 156.122 42.7242 156.089C42.7242 156.025 42.9107 155.901 44.2424 155.061C45.8032 154.076 47.398 153.478 49.4709 153.1L50.0337 152.998L49.9946 152.695C49.9745 152.528 49.8717 152.229 49.7669 152.03C49.4782 151.479 49.0766 151.217 47.9297 150.833C47.5949 150.721 47.1947 150.586 47.0406 150.532L46.7604 150.435L47.358 150.262C49.3642 149.68 50.8155 149.757 52.4911 150.532C52.857 150.702 53.1781 150.849 53.2047 150.86C53.2921 150.895 53.2559 149.577 53.1575 149.138C52.8958 147.97 52.1913 146.886 50.7895 145.496C50.2229 144.934 50.2136 144.92 50.335 144.817C50.4214 144.742 50.4831 144.729 50.5395 144.77C50.5837 144.803 50.9057 144.846 51.2545 144.864C51.9784 144.904 52.6314 145.084 53.1219 145.38C53.4792 145.596 54.2681 146.351 54.5888 146.786L54.8078 147.082L54.853 146.426C54.9333 145.227 55.1736 144.133 55.5667 143.177C55.816 142.571 56.5018 141.273 56.5282 141.357C56.5423 141.39 56.6361 141.967 56.7435 142.639C57.05 144.544 57.3424 145.567 57.8583 146.54C58.1634 147.116 58.5212 147.668 58.5631 147.629C58.5772 147.614 58.6862 147.199 58.8042 146.704C59.2626 144.78 59.8881 143.676 61.237 142.409C61.7376 141.939 63.1453 140.824 63.1876 140.864C63.2017 140.877 63.1213 141.269 63.0173 141.745C62.6669 143.356 62.5699 144.493 62.7123 145.323C62.8162 145.923 63.0946 146.729 63.167 146.633C63.1811 146.617 63.2968 146.35 63.4279 146.039C64.2658 144.059 65.9123 142.26 68.0383 141.003C68.5973 140.672 70.7508 139.598 70.855 139.598C70.8731 139.598 70.6442 139.981 70.3466 140.448C69.403 141.929 68.927 142.936 68.7319 143.862C68.6034 144.475 68.6455 146.221 68.7881 146.216C68.8112 146.216 68.959 146.023 69.1162 145.789C69.2731 145.555 69.6301 145.145 69.9093 144.879C70.7807 144.05 71.8266 143.478 73.3355 143.008C74.0529 142.784 75.632 142.421 75.6797 142.469C75.6938 142.481 75.5318 142.759 75.3245 143.087C74.5106 144.373 73.9886 145.536 73.732 146.632C73.4958 147.642 73.5471 149.031 73.8537 149.935L73.9522 150.223L74.1087 149.786C74.4401 148.86 75.0272 148.054 75.7541 147.527C76.2038 147.201 76.9783 146.729 77.0113 146.761C77.0253 146.774 76.9912 146.999 76.937 147.261C76.8767 147.557 76.8358 148.101 76.832 148.692C76.832 149.689 76.8923 150.126 77.1884 150.988C77.3654 151.505 77.8489 152.479 77.9284 152.479C78.0087 152.479 79.2115 151.554 79.309 151.418C79.3492 151.362 79.626 150.511 79.925 149.527C80.4343 147.851 80.4787 147.659 80.6282 146.486C81.2174 141.865 81.4354 136.156 81.2329 130.653L81.1687 128.894L79.0664 124.004C77.9102 121.314 76.9588 119.107 76.952 119.098C76.935 119.076 62.8957 124.314 62.8465 124.361C62.8244 124.382 62.8887 124.685 62.9893 125.036C63.433 126.589 63.533 127.597 63.2929 128.099C63.1291 128.441 62.9465 128.585 62.4701 128.746C62.2521 128.819 62.0735 128.89 62.0735 128.903C62.0735 128.916 62.2129 129.093 62.383 129.297C63.1827 130.258 63.8503 131.414 64.1112 132.293C64.2941 132.908 64.3113 133.755 64.1513 134.243C63.8359 135.202 62.7478 136.035 61.7342 136.095L61.489 136.11L61.0748 134.99C60.847 134.375 60.6534 133.878 60.6447 133.887C60.6307 133.899 60.714 134.44 60.8205 135.096C60.9893 136.145 61.0039 136.336 60.9422 136.681C60.7482 137.772 60.0962 138.525 59.3455 138.525C59.0683 138.525 58.6817 138.369 58.5113 138.189C58.453 138.126 58.05 136.822 57.6021 135.246C57.1596 133.688 56.792 132.408 56.7857 132.402C56.7857 132.39 56.1199 133.182 55.3208 134.149C54.4328 135.223 53.7431 136 53.5477 136.147C53.3714 136.278 53.0122 136.485 52.7491 136.606C52.2948 136.815 52.2387 136.826 51.6363 136.826C51.0704 136.826 50.9669 136.809 50.6788 136.666C50.0313 136.344 49.6345 135.715 49.5864 134.933C49.5452 134.249 49.7109 133.764 50.2058 133.13C50.3344 132.965 51.6671 131.26 53.1674 129.342C54.6678 127.423 55.9157 125.821 55.9407 125.781C56.0301 125.642 56.7498 122.436 56.9704 121.201C58.7459 111.258 61.4154 106.434 65.9281 105.013C66.8032 104.737 67.5539 104.634 68.6865 104.634H69.6838L69.487 104.424C69.0252 103.929 68.9284 103.327 69.2169 102.745C69.3073 102.564 69.4183 102.376 69.4663 102.326C69.5406 102.249 69.5135 102.178 69.2691 101.821C68.6165 100.867 68.5799 100.154 69.1197 98.8967C69.191 98.7304 69.1779 98.689 68.9553 98.3614C68.5184 97.7194 68.3758 97.0063 68.4679 95.9258L68.5181 95.339L68.1605 94.8523C67.6908 94.213 67.5717 93.9086 67.6046 93.4291C67.6327 93.0113 67.8029 92.6301 68.1508 92.2015C68.3271 91.9845 68.3577 91.9101 68.3014 91.8354C68.0806 91.5433 67.8901 91.204 67.7747 90.897C67.6642 90.6028 67.649 90.4524 67.6753 89.9229C67.7074 89.2609 67.8221 88.8916 68.2293 88.1337L68.4187 87.781L68.2876 87.2865C68.1193 86.6555 68.0577 85.4387 68.1618 84.808C68.2482 84.2844 68.487 83.4955 68.7118 82.9923C68.8375 82.7094 68.864 82.5496 68.864 82.056C68.864 81.7287 68.8951 81.3186 68.9313 81.1447C69.1175 80.2825 69.6436 79.4016 70.3275 78.8063L70.7133 78.4706L70.7314 77.9204C70.7525 77.2942 70.9178 76.8063 71.3344 76.1475C71.6141 75.7051 72.4523 74.7625 72.8514 74.4414C72.9994 74.322 73.1094 74.2147 73.096 74.2022C73.0819 74.189 72.9028 74.2335 72.6963 74.3012C72.0582 74.5087 71.3986 74.656 70.6715 74.754C69.7621 74.8765 67.8684 74.8758 66.9135 74.754L66.2014 74.6611L65.7398 74.8935C65.1088 75.2116 64.5897 75.3294 63.819 75.3294C62.8474 75.3294 62.1504 75.1224 61.6285 74.6792C60.986 74.1338 60.9082 73.5281 61.3846 72.7793L61.5741 72.481L62.996 71.9177C63.7779 71.6078 64.4106 71.3476 64.4019 71.3395C64.3888 71.3263 63.7303 71.389 62.9286 71.4694C62.127 71.5482 61.4247 71.6146 61.3674 71.6153C61.1399 71.6153 60.077 70.2209 59.627 69.3281C59.2154 68.5117 59.0695 67.8687 59.111 67.0543C59.1752 65.7735 59.6877 64.8504 60.9861 63.6718C61.7994 62.9337 62.6824 62.308 64.1311 61.4428C64.7272 61.087 65.5414 60.5982 65.9402 60.3564L66.6657 59.9171L66.1395 59.6846C65.4384 59.3748 64.9143 59.0146 64.3838 58.4782C63.1379 57.2178 62.8839 55.9647 63.6651 54.9307L63.9037 54.6147L64.2524 55.0256C65.1541 56.0876 65.9311 56.4222 66.9613 56.1917C67.659 56.0357 68.7644 56.0519 69.3019 56.226C69.7769 56.3798 70.1762 56.6243 70.5479 56.9889L70.8135 57.2493L71.0171 56.9512C71.8208 55.7739 73.7098 54.921 76.255 54.586C77.2854 54.4504 79.5053 54.4509 80.6331 54.586C83.4791 54.9293 85.6043 55.8089 86.5053 57.0158C86.9083 57.5561 87.0262 57.8946 87.0257 58.5107C87.0257 58.7976 87.0398 59.0325 87.0538 59.0325C87.0689 59.0325 87.5611 58.9396 88.1466 58.8264C91.2114 58.2331 93.4316 58.0008 95.2581 58.0821C96.9895 58.1589 97.9262 58.5808 98.1151 59.3679C98.4751 60.868 95.411 63.3692 90.407 65.6606L89.4857 66.0825L89.7352 66.3491C90.1852 66.8293 90.313 67.5609 90.0823 68.3343L89.9774 68.6841L90.1356 68.8825C90.7154 69.609 90.8067 70.3953 90.3997 71.1567C90.3083 71.3271 90.2643 71.4722 90.2993 71.4833C90.543 71.5601 90.8863 71.8855 91.0466 72.1924C91.2047 72.4951 91.2321 72.6272 91.2599 73.2203L91.292 73.901L99.1965 63.2018C103.544 57.3172 107.121 52.4699 107.146 52.4302C107.171 52.3898 107.078 51.809 106.937 51.138C106.639 49.7074 106.351 47.9024 106.193 46.4795C106.035 45.0623 106.032 41.7552 106.193 40.6054C106.729 36.6274 108.104 33.7707 110.678 31.2831C111.144 30.8327 111.247 30.7047 111.126 30.73C110.216 30.9196 109.065 30.8688 108.492 30.6142C107.302 30.0849 107.086 28.8149 107.889 27.0567C108.485 25.7532 109.684 24.3138 110.872 23.4779C112.677 22.2071 114.201 22.3234 114.997 23.7927C115.175 24.1215 115.384 24.7619 115.484 25.2796L115.535 25.548H116.534C117.084 25.548 119.386 25.5349 121.651 25.5329L125.767 25.5187L126.158 24.9372L126.548 24.3557L126.499 23.8787C126.412 23.0129 126.451 22.0756 126.6 21.4957C126.945 20.1484 127.718 19.2958 128.914 18.944C129.583 18.7472 130.671 18.7644 131.46 18.9844C134.316 19.7801 136.081 22.1441 135.38 24.2369C135.042 25.2477 134.307 26.1266 133.087 26.9767C132.768 27.1992 132.507 27.4231 132.507 27.4742C132.507 27.5863 134.144 38.4946 134.188 38.6778C134.207 38.7566 134.58 39.0583 135.167 39.468L136.114 40.1297L136.579 40.0378C136.834 39.9883 137.305 39.9294 137.625 39.9098C139.662 39.7835 140.535 40.8064 139.965 42.6511C139.377 44.5507 137.29 46.8724 135.638 47.4656C135.184 47.6285 134.488 47.6479 134.156 47.5071C133.706 47.3158 133.33 46.8622 133.112 46.2462C132.985 45.8871 132.827 44.8804 132.823 44.3934V44.0356L131.754 43.4243C131.166 43.0882 130.661 42.8134 130.63 42.8136C130.547 42.8136 130.132 43.4452 129.886 43.9466C129.266 45.2105 129.01 46.626 129.15 48.0272C129.484 51.3889 131.772 54.4766 135.086 56.0399C136.699 56.8006 138.243 57.1304 140.178 57.1275C142.318 57.1275 143.831 56.7993 146.374 55.7967C149.032 54.7491 150.878 54.3135 153.11 54.2081C159.169 53.9217 164.698 56.7196 170.128 62.8205C171.888 64.7981 173.284 65.8431 175.251 66.6568C177.105 67.4236 178.856 67.7644 182.826 68.1308C183.402 68.1843 183.878 68.2321 183.884 68.238C183.884 68.238 183.914 68.3188 183.938 68.4076C183.98 68.5653 183.973 68.5697 183.325 68.754C182.964 68.8564 182.497 68.9911 182.288 69.0526C180.509 69.575 178.401 69.9531 176.592 70.0745C173.868 70.2571 171.456 69.7184 169.505 68.4913C169.213 68.3077 168.968 68.1645 168.96 68.1729C168.946 68.1851 168.984 68.4295 169.034 68.7247C169.343 70.6304 169.444 73.732 169.26 75.6125C169.11 77.1429 168.879 79.0676 168.838 79.1299C168.816 79.1623 168.73 79.1915 168.648 79.1915C168.517 79.1915 168.477 79.1299 168.326 78.6997C167.464 76.24 166.182 73.5347 164.984 71.6478C163.75 69.7037 162.706 68.4464 161.12 66.9959C158.268 64.386 154.946 62.9073 150.944 62.4667C149.886 62.3496 147.441 62.3485 146.249 62.4667C144.083 62.6749 142.016 63.0906 139.555 63.8137C137.578 64.3947 135.203 64.9612 133.337 65.2974C126.57 66.5162 121.492 65.9873 117.348 63.6318C115.925 62.8233 114.532 61.8047 112.205 59.8722C110.451 58.4158 109.986 58.063 109.911 58.1333C109.874 58.1697 106.468 63.1966 102.342 69.3076L94.8408 80.4184L95.4752 80.4901C96.1768 80.5689 96.5065 80.6719 96.8767 80.9277C97.104 81.0849 97.5707 81.6062 97.6276 81.7664C97.6416 81.8068 97.807 81.7321 98.0261 81.5874C98.8261 81.0608 99.6334 80.9847 101.253 81.2834L102.223 81.4624L102.623 81.315C103.087 81.1439 103.603 81.0449 104.031 81.0449C104.858 81.0449 105.914 81.4258 106.851 82.0617L107.393 82.4294L107.786 82.2494C108.356 81.9884 108.808 81.8795 109.317 81.8813C109.905 81.8813 110.237 81.9591 110.801 82.2199C111.254 82.4298 111.27 82.4325 111.477 82.3393C111.593 82.2868 111.868 82.2138 112.086 82.1767C112.615 82.0868 113.054 82.1615 114.195 82.54C114.925 82.7817 115.145 82.8316 115.358 82.8033C115.775 82.7488 116.951 82.8841 117.475 83.0501C118.1 83.2471 118.541 83.4893 118.997 83.8862L119.37 84.2108L119.834 84.0748C120.502 83.8791 121.452 83.8815 122.099 84.0748C122.671 84.2507 123.369 84.6702 123.842 85.1224L124.196 85.4606L124.675 85.3879C125.666 85.2377 126.251 85.4414 127.199 86.2695L127.818 86.8097H128.753C130.174 86.8097 131.235 87.0613 132.673 87.7455C137.358 89.9755 142.208 95.9492 144.998 102.925C145.693 104.662 146.229 106.597 146.507 108.366C146.646 109.255 146.695 110.995 146.602 111.751C146.428 113.161 146.012 114.263 145.33 115.12L145.14 115.359L145.855 116.701C147.005 118.859 147.312 120.026 147.08 121.361C146.877 122.534 146.304 123.662 145.381 124.71C145.213 124.9 145.075 125.101 145.074 125.157C145.074 125.212 144.933 127.799 144.761 130.904C144.48 135.992 144.458 136.584 144.538 136.904C145.051 138.972 145.404 141.029 145.53 142.681C145.62 143.86 145.53 145.079 145.303 145.796C145.224 146.045 145.147 146.29 145.133 146.339C145.072 146.549 145.377 146.389 146.231 145.765C148.537 144.076 150.79 142.829 153.588 141.692C154.239 141.427 154.79 141.21 154.811 141.21C154.831 141.21 154.339 141.848 153.716 142.627C153.094 143.406 152.463 144.211 152.316 144.417C151.924 144.965 151.438 145.944 151.295 146.477C151.18 146.902 151.102 147.848 151.175 147.917C151.192 147.933 151.475 147.917 151.804 147.88C152.934 147.758 154.366 147.893 156.268 148.296L157.342 148.524L156.415 148.988C155.157 149.617 154.538 150.158 154.343 150.797L154.289 150.972L155.091 151.011C157.682 151.136 159.493 151.872 161.334 153.549C161.745 153.923 162.073 154.236 162.064 154.244C162.05 154.257 161.454 154.156 160.729 154.03C160.003 153.903 159.061 153.768 158.635 153.729C157.31 153.608 155.911 153.747 154.941 154.096C154.498 154.255 154.427 154.221 155.727 154.48C157.033 154.74 157.924 155.058 158.653 155.524C159.006 155.75 159.881 156.475 159.843 156.511C159.829 156.524 159.395 156.463 158.873 156.378C158.117 156.256 157.69 156.224 156.781 156.218C155.55 156.205 155.026 156.272 154.18 156.52C153.648 156.677 152.689 157.101 152.689 157.18C152.689 157.205 152.895 157.275 153.148 157.335C154.581 157.677 155.936 158.192 156.788 158.72C157.374 159.081 158.197 159.869 158.517 160.372C158.711 160.679 159.235 161.793 159.2 161.827C159.187 161.839 158.682 161.603 158.068 161.312C156.053 160.359 154.5 159.995 152.791 160.073C150.879 160.162 149.2 160.789 147.184 162.166C146.896 162.363 146.661 162.541 146.661 162.561C146.661 162.583 146.892 162.646 147.176 162.703C149.638 163.2 151.907 164.598 153.622 166.674C153.947 167.069 154.782 168.242 154.782 168.305C154.782 168.325 154.076 168.011 153.212 167.609C151.009 166.583 150.187 166.33 148.866 166.272C148.456 166.254 148.12 166.257 148.12 166.284C148.12 166.491 149.029 168.84 149.327 169.401C149.817 170.327 150.233 170.832 150.936 171.353L151.506 171.776L150.812 171.794C149.741 171.824 149.075 171.638 148.477 171.143L148.183 170.901V171.099C148.183 171.445 148.369 172.533 148.502 172.988C148.744 173.819 149.044 174.193 149.735 174.527C149.997 174.654 150.212 174.773 150.212 174.792C150.212 174.832 149.37 175.005 148.912 175.058C148.502 175.105 147.79 174.965 147.285 174.737L146.896 174.562L146.938 175.03C146.995 175.664 147.168 176.154 147.545 176.74C147.719 177.01 147.848 177.232 147.832 177.232C147.721 177.232 146.455 176.596 146.163 176.393C145.965 176.256 145.452 175.805 145.022 175.392L144.241 174.641L144.292 174.967C144.321 175.147 144.341 175.562 144.337 175.89C144.337 176.367 144.296 176.582 144.159 176.964C144.019 177.353 143.529 178.246 143.454 178.246C143.44 178.246 143.278 178.035 143.086 177.778C142.671 177.22 142.208 176.818 141.394 176.307C140.836 175.956 139.326 175.204 139.179 175.204C139.142 175.204 139.155 175.308 139.211 175.458C139.43 176.04 139.507 176.531 139.479 177.169C139.454 177.741 139.432 177.833 139.246 178.157C139.133 178.353 138.961 178.602 138.864 178.709L138.688 178.903L138.355 178.53C137.489 177.556 136.244 176.731 134.796 176.17C134.082 175.893 133.15 175.598 133.109 175.637C133.092 175.652 133.138 175.889 133.206 176.164C133.633 177.866 133.511 179.183 132.779 180.775C132.572 181.225 132.552 181.222 132.386 180.721C132.153 180.015 131.52 179.297 130.557 178.646C130.003 178.271 128.783 177.59 128.665 177.59C128.625 177.59 128.573 177.718 128.549 177.873C128.454 178.479 128.172 179.564 127.908 180.322C127.379 181.839 126.732 182.897 125.757 183.84L125.183 184.395L124.517 184.161C123.685 183.87 122.93 183.515 122.233 183.087C121.555 182.671 120.368 181.564 119.824 180.84C119.602 180.545 119.399 180.28 119.372 180.251C119.346 180.222 119.232 180.371 119.12 180.579C118.433 181.862 117.418 182.884 116.364 183.354C114.549 184.163 112.224 183.863 109.595 182.48L108.895 182.111L108.251 182.349C106.888 182.852 105.981 183.056 104.784 183.13C103.478 183.209 102.445 183.082 101.136 182.679C100.639 182.526 98.7842 181.742 98.4076 181.526C98.1896 181.401 96.0515 180.393 96.0038 180.393C95.9857 180.393 95.8794 180.557 95.7656 180.758C95.491 181.242 95.0991 181.642 94.6994 181.847C94.4367 181.981 94.2947 182.013 93.9723 182.011C93.2315 182.011 92.6074 181.684 91.3575 180.666C91.0143 180.386 90.7167 180.177 90.6962 180.201C90.6761 180.224 90.5663 180.508 90.4531 180.83C89.5447 183.415 88.1771 184.93 86.3548 185.37C85.7214 185.524 85.7715 185.61 85.7739 184.374L85.7668 184.369ZM132.917 148.063C133.259 147.965 133.443 147.858 133.852 147.525C135.29 146.358 136.813 145.746 138.68 145.587C139.073 145.554 139.185 145.523 139.238 145.43C139.346 145.24 139.594 143.741 139.709 142.573C139.839 141.267 139.806 138.68 139.646 137.601C139.123 134.079 137.953 131.018 135.498 126.753L135.055 125.982L133.637 125.525C130.466 124.501 128.15 123.446 125.78 121.943C124.322 121.019 122.995 119.975 120.72 117.962C120.084 117.399 119.539 116.938 119.51 116.938C119.481 116.938 119.32 117.293 119.153 117.728C117.734 121.435 115.217 125.709 111.547 130.644L110.867 131.558L110.42 133.238C109.506 136.672 108.676 139.43 108.021 141.207C107.847 141.682 107.709 142.073 107.716 142.076C108.86 142.643 110.259 143.874 111.08 145.035L111.531 145.673L111.698 145.245C112.084 144.254 112.622 143.444 113.396 142.688C113.904 142.191 114.589 141.643 114.64 141.693C114.689 141.739 115.458 143.404 115.765 144.125C115.937 144.532 116.194 145.203 116.336 145.616C116.477 146.029 116.611 146.415 116.633 146.472C116.67 146.565 116.726 146.545 117.093 146.313C117.863 145.827 118.386 145.135 118.651 144.25C118.833 143.644 118.806 141.864 118.597 140.804L118.442 140.012L118.637 140.051C119.743 140.275 120.597 140.647 121.177 141.158C121.991 141.876 122.308 142.674 122.514 144.519C122.683 146.03 122.796 146.427 123.172 146.83C123.605 147.293 124.403 147.38 125.32 147.063C126.092 146.796 126.657 146.417 127.229 145.78C129.49 143.261 131.132 142.185 133.848 141.445C134.325 141.316 134.731 141.209 134.751 141.209C134.77 141.209 134.567 141.471 134.3 141.791C132.522 143.921 131.237 146.566 131.483 147.592C131.62 148.165 132.062 148.311 132.917 148.063L132.917 148.063ZM98.9822 143.878C102.832 139.013 105.152 134.526 105.943 130.415C106.2 129.08 106.266 128.372 106.26 127.016C106.245 124.595 105.82 122.545 104.833 120.179C104.16 118.565 102.441 115.495 102.149 115.386C101.96 115.315 98.3901 114.999 95.4275 114.79C94.0367 114.693 92.24 114.532 91.4344 114.433C90.6292 114.334 89.919 114.254 89.8563 114.254C89.7055 114.254 89.6969 114.303 89.5814 115.805C89.1945 120.833 88.333 127.243 87.3282 132.573C87.0032 134.295 87.0064 134.96 87.3613 139.48C87.4436 140.546 87.5479 141.919 87.5896 142.531L87.666 143.643L88.4014 143.016C89.2283 142.311 90.9931 141.17 91.0964 141.273C91.1416 141.317 91.3937 142.826 91.4402 143.32L91.4854 143.792L91.8232 143.255C92.0092 142.959 92.3511 142.479 92.5831 142.187C93.045 141.606 94.5578 140.163 94.6268 140.238C94.6509 140.263 94.7359 140.446 94.8163 140.642C95.0411 141.192 95.6714 142.362 95.9992 142.839C96.4681 143.52 97.0294 144.122 97.5749 144.529C97.8531 144.737 98.1006 144.906 98.1248 144.906C98.1499 144.906 98.5352 144.443 98.983 143.878H98.9822ZM130.708 33.3191C130.457 31.4937 130.238 29.987 130.221 29.9712C130.191 29.9449 127.295 33.7416 127.25 33.8653C127.233 33.9108 131.116 36.6804 131.152 36.6484C131.152 36.6484 130.959 35.1444 130.708 33.3191ZM122.905 29.7367L123.678 28.5893L120.811 28.5499C119.233 28.5277 117.936 28.5176 117.927 28.5256C117.902 28.5479 121.996 30.876 122.067 30.8803C122.102 30.8803 122.479 30.3678 122.905 29.7368V29.7367Z" fill="#FFFF00"/>
<path d="M85.6064 184.459C85.6064 183.457 85.5924 183.247 85.4723 182.815C85.223 181.928 84.599 180.983 83.755 180.215L83.433 179.922L82.8272 180.444C81.3342 181.732 80.8733 182.06 79.969 182.478C79.2573 182.806 78.7812 182.922 78.1363 182.923H77.8263L77.8695 182.639C78.0278 181.594 78.042 181.343 77.9745 180.757C77.9113 180.205 77.6413 179.091 77.4686 178.671L77.4013 178.504L77.1977 178.731C75.5921 180.514 73.8273 181.711 71.8802 182.339C71.3184 182.52 69.7142 182.875 69.6654 182.829C69.6503 182.814 69.9964 182.112 70.4351 181.267C71.3509 179.505 71.6813 178.735 71.9439 177.749C72.1154 177.106 72.3498 175.651 72.2911 175.596C72.277 175.582 72.074 175.738 71.8392 175.94C71.3745 176.34 70.6577 176.71 70.2459 176.762C70.1038 176.78 69.8424 176.762 69.665 176.722C69.3874 176.659 69.3028 176.602 69.0567 176.312C68.4892 175.643 68.0832 174.718 67.9753 173.849L67.9341 173.513L67.3853 173.811C66.253 174.426 65.3078 174.806 64.5169 174.962C63.9378 175.076 63.1254 175.075 62.6464 174.962C62.3075 174.879 61.3332 174.497 61.2012 174.394C61.1721 174.372 61.3398 174.226 61.5725 174.07C62.2214 173.635 62.5078 173.123 62.595 172.241L62.6342 171.842L62.3876 171.897C61.7263 172.044 60.6076 171.939 59.8172 171.657C59.6297 171.59 59.4574 171.535 59.4345 171.535C59.4114 171.535 59.3933 171.877 59.3943 172.295C59.3943 174.111 58.8429 174.922 57.2674 175.409C57.0296 175.482 56.8246 175.533 56.8119 175.521C56.7988 175.509 56.833 175.312 56.8852 175.083C57.1478 173.955 56.9304 172.984 56.1973 172.012C55.7344 171.399 54.2769 170.104 54.0491 170.104C54.0029 170.104 53.764 170.207 53.5169 170.335C52.3129 170.953 50.5297 171.641 49.4189 171.914C48.1772 172.22 46.7172 172.328 45.3978 172.211L44.9619 172.172L44.994 171.54C45.0302 170.824 45.1739 170.324 45.5457 169.62C45.9972 168.766 46.9008 167.627 48.0012 166.526C48.3835 166.143 48.4622 166.037 48.3404 166.07C46.2367 166.631 44.604 166.883 43.0581 166.883H42.4396V166.671C42.4396 166.518 42.531 166.323 42.7694 165.97C43.7843 164.467 45.3781 162.834 47.6424 160.978C47.9739 160.706 48.2522 160.467 48.2607 160.448C48.2748 160.428 48.0113 160.286 47.6872 160.131C46.4667 159.547 45.1579 158.583 43.4974 157.045L42.4297 156.055L43.4102 155.416C44.6264 154.623 44.9703 154.426 45.7707 154.061C46.8357 153.576 48.02 153.213 49.2604 152.994L49.8316 152.892L49.8175 152.672C49.7974 152.338 49.559 151.88 49.2876 151.649C48.9466 151.36 48.6559 151.231 47.3954 150.81C46.7883 150.607 46.3172 150.428 46.3485 150.411C46.4523 150.355 47.9219 149.952 48.3404 149.864C49.7166 149.575 51.1454 149.747 52.4888 150.363L53.1159 150.651L53.0828 149.926C53.0145 148.421 52.3644 147.247 50.7264 145.667L50.0922 145.056L50.3398 144.818C50.5041 144.659 50.6083 144.599 50.6503 144.639C50.6854 144.671 50.8805 144.7 51.0844 144.7C51.6483 144.7 52.3805 144.862 52.9064 145.105C53.3832 145.324 54.0425 145.867 54.4759 146.396L54.6684 146.631L54.7135 146.157C54.8099 145.136 55.0342 144.107 55.3272 143.341C55.4868 142.925 56.5341 140.883 56.5884 140.883C56.6105 140.883 56.7341 141.557 56.8648 142.38C57.1213 144 57.4187 145.206 57.7416 145.937C57.9833 146.484 58.4212 147.264 58.4868 147.264C58.5129 147.264 58.5852 147.007 58.6476 146.693C58.803 145.917 59.2322 144.757 59.5677 144.206C60.216 143.141 61.1655 142.169 62.649 141.05C63.0677 140.734 63.4176 140.483 63.4269 140.491C63.4399 140.504 63.3305 141.054 63.1916 141.724C62.891 143.176 62.8069 143.779 62.8097 144.46C62.8097 145.011 62.9312 145.744 63.0701 146.061L63.1564 146.26L63.3937 145.733C64.2648 143.8 66.0164 141.977 68.194 140.737C69.1692 140.182 71.3281 139.188 71.2462 139.332C71.207 139.399 70.8893 139.903 70.538 140.451C69.6188 141.886 69.2081 142.691 68.9932 143.477C68.8424 144.029 68.7614 144.917 68.8167 145.414L68.8669 145.86L69.1602 145.474C70.0335 144.323 71.4383 143.439 73.3082 142.864C74.1071 142.618 75.9169 142.212 75.9742 142.266C75.9923 142.283 75.7746 142.67 75.4899 143.126C73.9576 145.577 73.4724 147.411 73.8533 149.311L73.9356 149.718L74.2009 149.185C74.6914 148.199 75.3196 147.567 76.5166 146.855C76.9103 146.621 77.2396 146.436 77.2483 146.444C77.2624 146.457 77.2031 146.754 77.1308 147.115C77.0314 147.6 76.9956 148.011 76.9939 148.695C76.9939 149.624 77.0602 150.089 77.3191 150.872C77.4516 151.273 77.9176 152.273 77.9718 152.273C77.9949 152.273 78.2858 152.063 78.6163 151.805L79.2173 151.338L79.768 149.524C80.2854 147.821 80.3282 147.636 80.4776 146.459C81.0659 141.832 81.2825 136.154 81.0801 130.683L81.0159 128.921L77.8502 121.568C76.1092 117.524 74.673 114.204 74.6588 114.191C74.6257 114.16 70.6067 113.617 70.5831 113.641C70.569 113.655 68.8608 116.087 66.778 119.054C64.0326 122.965 62.9994 124.482 63.022 124.571C63.04 124.638 63.1545 125.062 63.2796 125.514C63.6577 126.885 63.681 127.804 63.3509 128.332C63.1861 128.597 63.0416 128.706 62.6828 128.835C62.3376 128.96 62.3292 128.992 62.5681 129.267C62.9455 129.701 63.5138 130.568 63.8315 131.192C64.5361 132.578 64.633 133.773 64.1179 134.726C63.6816 135.534 62.7104 136.157 61.719 136.267L61.3799 136.305L61.233 135.876C61.1507 135.64 61.0788 135.456 61.0699 135.467C61.0558 135.48 61.0829 135.703 61.1171 135.967C61.1683 136.356 61.1602 136.528 61.0769 136.877C60.809 137.991 60.1448 138.675 59.329 138.677C59.019 138.677 58.5294 138.457 58.3611 138.241C58.3049 138.168 57.9237 136.929 57.5143 135.486C57.1053 134.044 56.7483 132.841 56.721 132.814C56.6929 132.788 56.0716 133.493 55.3386 134.382C53.894 136.135 53.6259 136.385 52.785 136.762C52.3343 136.963 52.2744 136.975 51.643 136.976C51.0405 136.976 50.9464 136.962 50.6595 136.819C49.5011 136.237 49.076 134.798 49.7104 133.607C49.7888 133.458 51.0612 131.794 52.5356 129.909C54.0102 128.024 55.356 126.303 55.5263 126.083L55.8362 125.683L56.2392 123.965C56.4606 123.02 56.6887 121.965 56.7459 121.621C57.9815 114.177 59.9162 109.283 62.6067 106.795C64.2709 105.256 66.1527 104.516 68.4729 104.487C68.9178 104.487 69.2733 104.464 69.263 104.447C69.249 104.431 69.1626 104.26 69.0647 104.067C68.9067 103.759 68.8894 103.67 68.9183 103.322C68.9474 102.968 69.0969 102.557 69.2899 102.299C69.3432 102.23 69.307 102.138 69.1344 101.898C68.5103 101.026 68.4252 100.072 68.8827 99.0752L69.0353 98.7425L68.8079 98.4191C68.3963 97.8334 68.3083 97.4604 68.3175 96.3366L68.3315 95.3526L67.9969 94.8755C67.5679 94.2643 67.448 93.9723 67.448 93.54C67.448 93.1099 67.5682 92.7785 67.8951 92.3067L68.1468 91.9437L67.845 91.3836L67.5432 90.8238V90.1064C67.5432 89.3159 67.6426 88.9382 68.054 88.1637L68.2614 87.7733L68.1301 87.299C68.0224 86.908 67.9988 86.6367 67.9961 85.7514C67.9961 84.7764 68.0092 84.6258 68.1581 84.1065C68.2495 83.792 68.4118 83.3271 68.5199 83.0731C68.6952 82.6619 68.7165 82.545 68.7165 81.9996C68.7165 80.7117 69.201 79.6535 70.2228 78.7084C70.5738 78.3837 70.5792 78.3736 70.564 78.0653C70.5198 77.176 71.0437 76.1058 72.0566 75.0143C72.2834 74.7699 72.4454 74.5706 72.417 74.5714C72.3879 74.5714 72.1509 74.6269 71.8891 74.6932C70.6803 74.9984 68.3777 75.0967 66.9083 74.9059C66.2646 74.8231 66.198 74.8231 66.0518 74.9181C64.988 75.5845 63.1925 75.682 62.0454 75.1357C61.0153 74.645 60.6773 73.7977 61.1515 72.8928C61.2621 72.6808 61.4039 72.4655 61.4659 72.4141C61.5282 72.3626 61.9925 72.1577 62.4986 71.9582C63.0046 71.7586 63.3615 71.5952 63.2917 71.5948C63.2224 71.5948 62.7935 71.6342 62.3398 71.6827C61.1251 71.8118 61.247 71.8432 60.7724 71.2795C59.8941 70.2363 59.3157 69.2182 59.0703 68.2829C58.8813 67.5634 58.9158 66.591 59.1526 65.9458C59.7348 64.3629 61.0422 63.1349 64.094 61.3052C64.6294 60.9842 65.353 60.5473 65.7015 60.3346L66.3353 59.9478L65.9767 59.7845C64.3585 59.0486 63.0691 57.4618 63.0691 56.2069C63.0691 55.7198 63.2303 55.282 63.5895 54.7935L63.9053 54.3641L64.2761 54.8026C65.1967 55.8914 65.924 56.2644 66.7808 56.0871C67.589 55.9199 68.222 55.8867 68.8128 55.981C69.515 56.0919 70.0055 56.3037 70.4504 56.6859L70.7893 56.977L71.101 56.6107C72.1923 55.3287 74.413 54.5327 77.3909 54.3562C80.4521 54.1745 83.5789 54.7664 85.435 55.8788C86.0005 56.2176 86.6806 56.8916 86.9152 57.3454C87.1268 57.7548 87.2614 58.3732 87.2011 58.6574C87.1539 58.8778 87.1468 58.8778 88.2819 58.6574C91.1358 58.101 93.481 57.8611 95.2705 57.9429C97.3222 58.0368 98.3098 58.5912 98.3022 59.6454C98.2882 61.2244 95.2424 63.63 90.4969 65.8053L89.7907 66.1289L89.9788 66.3861C90.0827 66.5275 90.2113 66.7574 90.2652 66.8972C90.3896 67.2183 90.3868 67.9483 90.2652 68.3419C90.1708 68.6352 90.1728 68.6405 90.3556 68.909C90.6968 69.4087 90.8144 69.7321 90.8204 70.1864C90.8204 70.5863 90.6948 71.0746 90.5278 71.2816C90.4836 71.3351 90.5499 71.4248 90.7572 71.5967C91.1572 71.9277 91.377 72.3722 91.4271 72.9512L91.4673 73.413L91.6329 73.2042C91.7243 73.0897 95.1474 68.4603 99.2409 62.9173C103.334 57.3742 106.765 52.7305 106.865 52.5981L107.047 52.3571L106.917 51.7632C106.566 50.163 106.243 48.2042 106.049 46.488C105.909 45.2489 105.889 41.8019 106.017 40.7929C106.141 39.813 106.386 38.5911 106.631 37.7228C107.28 35.4332 108.524 33.2705 110.149 31.6092C110.341 31.4124 110.565 31.1819 110.645 31.0971L110.792 30.943L110.425 30.9905C110.223 31.0157 109.778 31.0127 109.435 30.9774C107.482 30.8031 106.796 29.4885 107.581 27.425C108.422 25.2127 110.757 22.9073 112.556 22.5115C112.995 22.4155 113.658 22.464 114.026 22.6211C114.796 22.9499 115.408 23.9341 115.641 25.2189L115.683 25.4517L116.868 25.4123C117.519 25.3901 119.77 25.3729 121.87 25.3729H125.687L126.044 24.8408L126.401 24.3091L126.332 23.528C126.222 22.3005 126.381 21.3405 126.844 20.4525C127.223 19.7279 127.894 19.1437 128.657 18.8753C131.005 18.0497 134.4 19.5776 135.412 21.9154C136.089 23.4783 135.579 25.0941 133.965 26.5023C133.659 26.7696 133.245 27.0876 133.044 27.2093C132.798 27.3585 132.681 27.469 132.682 27.5496C132.682 27.6152 133.061 30.1511 133.522 33.185L134.361 38.7012L135.264 39.335L136.167 39.9691L136.564 39.8892C137.201 39.7596 138.197 39.7181 138.652 39.8024C139.759 40.0071 140.304 40.6338 140.302 41.6986C140.302 43.5883 138.066 46.575 135.971 47.4962C134.553 48.1199 133.474 47.6812 132.967 46.2759C132.848 45.945 132.683 44.8895 132.679 44.4272V44.1291L131.871 43.6663C131.427 43.4118 130.973 43.1487 130.862 43.0818L130.661 42.96L130.4 43.3729C127.756 47.5564 130.013 53.4806 135.179 55.9174C136.337 56.4635 137.885 56.87 139.18 56.968C139.974 57.0286 141.648 56.9549 142.358 56.8323C143.759 56.5871 144.646 56.3252 146.355 55.6513C148.998 54.6095 150.882 54.168 153.125 54.0643C159.22 53.7824 164.799 56.5974 170.241 62.7007C172.001 64.675 173.396 65.7257 175.302 66.5139C177.046 67.2355 178.897 67.6125 182.236 67.9267C183.161 68.0136 183.921 68.0886 183.926 68.0933C183.926 68.0933 183.954 68.241 183.979 68.4109L184.025 68.7197L183.401 68.9004C181.023 69.5882 179.505 69.9198 177.796 70.1238C174.527 70.5142 171.831 70.0571 169.605 68.7337C169.384 68.6024 169.196 68.5021 169.186 68.5109C169.172 68.5231 169.2 68.686 169.233 68.8809C169.507 70.4479 169.608 73.8514 169.433 75.6158C169.289 77.0557 169.043 79.1224 169.011 79.1525C168.994 79.1687 168.84 79.194 168.669 79.2091L168.358 79.2364L168.183 78.7375C167.103 75.6637 165.597 72.6749 164.016 70.4686C161.788 67.3594 159.094 65.1514 155.938 63.8503C153.735 62.9417 151.441 62.5254 148.642 62.5267C145.684 62.5267 143.066 62.9412 139.632 63.9486C134.326 65.5048 129.242 66.2664 125.602 66.0498C120.861 65.7676 117.632 64.4607 113.586 61.1865C113.219 60.89 112.463 60.2705 111.904 59.81C111.346 59.3493 110.691 58.8157 110.448 58.6241L110.006 58.2755L109.908 58.4116C109.853 58.4854 106.509 63.4343 102.474 69.407L95.1386 80.2663L95.4627 80.3138C96.5082 80.4682 96.9772 80.6897 97.4632 81.2587L97.7433 81.5864L98.0479 81.3937C98.5796 81.0575 98.9197 80.9808 99.8481 80.9874C100.474 80.9874 100.856 81.0299 101.432 81.1462L102.191 81.2988L102.748 81.1234C103.477 80.8938 104.131 80.846 104.791 80.9746C105.412 81.0952 106.29 81.4838 106.939 81.9246L107.431 82.2591L107.637 82.1457C108.071 81.9067 108.795 81.7266 109.313 81.7281C109.947 81.7281 110.271 81.8008 110.835 82.0622C111.271 82.2637 111.297 82.2685 111.479 82.1791C111.584 82.1286 111.865 82.0585 112.104 82.0236C112.662 81.9428 113.193 82.0367 114.315 82.408C114.971 82.6262 115.192 82.6753 115.393 82.6474C115.793 82.5929 116.959 82.7292 117.501 82.8941C118.076 83.0694 118.69 83.3981 119.134 83.7694L119.448 84.0318L119.832 83.9123C120.412 83.7321 121.59 83.7376 122.151 83.9244C122.741 84.1198 123.325 84.4611 123.848 84.9165L124.303 85.3121L124.689 85.2403C125.618 85.0684 126.403 85.3417 127.328 86.1593L127.893 86.6583H128.813C129.528 86.6583 129.875 86.6896 130.367 86.7928C133.916 87.5359 137.619 90.4644 140.962 95.1726C143.984 99.4273 146.051 104.204 146.678 108.382C146.817 109.308 146.866 111.047 146.774 111.756C146.581 113.225 146.105 114.479 145.453 115.235L145.333 115.375L145.92 116.455C146.635 117.772 146.905 118.39 147.111 119.19C147.319 119.996 147.366 120.582 147.274 121.235C147.106 122.432 146.55 123.571 145.556 124.757L145.251 125.121L144.938 130.811L144.624 136.501L144.87 137.574C145.739 141.356 145.949 144.046 145.505 145.713C145.441 145.959 145.392 146.165 145.397 146.172C145.397 146.184 145.823 145.883 146.329 145.516C148.91 143.642 150.814 142.644 155.135 140.902C155.404 140.794 155.482 140.68 154.084 142.423C152.228 144.737 151.738 145.501 151.469 146.496C151.353 146.926 151.273 147.704 151.34 147.759C151.357 147.773 151.598 147.759 151.877 147.727C152.475 147.662 153.737 147.709 154.593 147.83C155.108 147.903 157.744 148.435 157.787 148.475C157.8 148.488 157.368 148.7 156.838 148.958C155.735 149.496 155.175 149.847 154.906 150.169C154.74 150.368 154.51 150.734 154.51 150.8C154.51 150.814 154.832 150.841 155.224 150.864C157.486 150.989 159.244 151.631 160.881 152.928C161.532 153.443 162.624 154.479 162.517 154.479C162.473 154.479 161.745 154.359 160.9 154.213C158.199 153.743 157.056 153.712 155.572 154.064C155.265 154.137 155.111 154.241 155.309 154.241C155.369 154.241 155.77 154.322 156.201 154.422C157.079 154.625 157.999 154.954 158.544 155.259C158.894 155.456 160.38 156.676 160.328 156.724C160.314 156.738 159.749 156.663 159.072 156.559C158.025 156.398 157.672 156.369 156.699 156.367C155.245 156.367 154.295 156.541 153.344 156.995L153.036 157.143L153.662 157.309C156.223 157.989 157.786 158.921 158.648 160.279C158.869 160.629 159.353 161.643 159.487 162.04C159.524 162.152 159.33 162.077 158.23 161.55C156.861 160.896 155.857 160.544 154.796 160.344C153.993 160.194 152.336 160.195 151.592 160.344C150.397 160.588 149.159 161.103 147.93 161.867C147.142 162.357 146.929 162.528 147.104 162.528C147.283 162.528 148.322 162.832 148.958 163.071C149.784 163.38 150.65 163.843 151.436 164.396C152.098 164.861 153.2 165.885 153.695 166.494C153.994 166.862 155.065 168.358 155.2 168.595C155.258 168.698 154.865 168.538 153.449 167.877C151.024 166.745 150.256 166.496 148.971 166.422L148.348 166.387L148.395 166.56C148.518 167.031 149.158 168.705 149.399 169.184C149.928 170.236 150.433 170.814 151.455 171.534L151.92 171.862L151.645 171.903C151.214 171.966 150.001 171.957 149.721 171.888C149.345 171.797 148.993 171.65 148.686 171.456C148.535 171.361 148.4 171.294 148.387 171.307C148.35 171.341 148.536 172.464 148.645 172.869C148.881 173.747 149.19 174.1 150.089 174.524C150.435 174.687 150.708 174.83 150.695 174.841C150.654 174.879 149.343 175.158 149.023 175.198C148.617 175.249 147.94 175.147 147.457 174.963L147.079 174.818L147.122 175.159C147.189 175.698 147.384 176.166 147.829 176.86C148.056 177.214 148.229 177.517 148.213 177.532C148.154 177.588 146.473 176.777 146.104 176.515C145.894 176.366 145.443 175.983 145.101 175.663L144.48 175.082L144.521 175.469C144.57 175.924 144.463 176.67 144.281 177.139C144.156 177.463 143.537 178.511 143.472 178.51C143.453 178.51 143.3 178.309 143.131 178.065C142.756 177.523 142.021 176.852 141.343 176.434C140.838 176.122 139.481 175.441 139.441 175.48C139.427 175.492 139.476 175.714 139.543 175.976C139.682 176.516 139.708 177.36 139.596 177.75C139.556 177.889 139.466 178.111 139.395 178.242C139.256 178.501 138.79 179.077 138.721 179.077C138.698 179.077 138.438 178.826 138.144 178.518C137.048 177.369 135.74 176.594 133.895 176C133.601 175.905 133.35 175.838 133.337 175.85C133.322 175.862 133.355 176.044 133.404 176.252C133.707 177.499 133.683 178.821 133.34 179.852C133.167 180.37 132.605 181.561 132.557 181.511C132.532 181.485 132.42 181.221 132.308 180.926C132.196 180.631 132.037 180.28 131.954 180.146C131.573 179.532 130.782 178.893 129.521 178.182C128.775 177.762 128.691 177.75 128.687 178.063C128.687 178.306 128.303 179.729 128.055 180.426C127.487 182.022 126.72 183.218 125.615 184.234L125.259 184.561L124.736 184.391C124.113 184.188 123.054 183.726 122.511 183.422C121.524 182.867 120.488 181.945 119.725 180.944C119.421 180.545 119.352 180.484 119.313 180.578C119.073 181.136 118.316 182.109 117.692 182.661C116.691 183.546 115.609 183.939 114.169 183.941C112.792 183.941 111.238 183.499 109.567 182.625L108.887 182.269L108.365 182.47C106.289 183.267 104.205 183.494 102.321 183.13C101.219 182.916 99.907 182.43 98.3895 181.673C97.6245 181.291 96.1562 180.597 96.1124 180.597C96.0973 180.597 95.9719 180.765 95.8341 180.97C95.2831 181.789 94.6766 182.171 93.9471 182.159C93.2184 182.146 92.6319 181.858 91.4566 180.929C91.1018 180.648 90.7963 180.419 90.7775 180.419C90.7585 180.419 90.7444 180.46 90.7444 180.511C90.7444 180.56 90.6116 180.93 90.4504 181.331C89.6102 183.414 88.597 184.628 87.1842 185.246C86.7262 185.447 86.1205 185.607 85.8221 185.607H85.6222V184.459L85.6064 184.459ZM87.061 184.548C87.9414 184.117 88.7645 183.202 89.377 181.971C89.5316 181.662 89.8269 180.925 90.0338 180.335C90.2408 179.745 90.421 179.251 90.4346 179.238C90.4487 179.226 90.874 179.564 91.3813 179.989C92.3724 180.821 93.1219 181.33 93.5011 181.429C94.3296 181.645 94.8595 181.303 95.4576 180.165C95.5916 179.91 95.7238 179.702 95.7524 179.702C95.7815 179.702 96.4387 180.004 97.2138 180.372C100.41 181.891 100.893 182.094 101.922 182.354C102.831 182.584 103.456 182.645 104.518 182.606C105.806 182.558 106.815 182.337 108.248 181.787C108.585 181.657 108.892 181.551 108.928 181.551C108.964 181.551 109.243 181.69 109.548 181.859C111.619 183.009 113.659 183.491 115.183 183.191C115.757 183.078 116.546 182.707 117.006 182.334C117.757 181.724 118.225 181.104 118.859 179.881L119.26 179.107L119.779 179.853C120.653 181.107 121.303 181.794 122.253 182.465C122.787 182.841 123.979 183.434 124.628 183.646L125.063 183.787L125.472 183.375C126.736 182.1 127.544 180.273 128.034 177.585C128.111 177.159 128.183 176.802 128.192 176.791C128.22 176.761 129.22 177.245 129.854 177.595C130.995 178.225 132.175 179.163 132.455 179.664L132.56 179.851L132.674 179.507C132.837 179.01 132.911 178.156 132.852 177.466C132.793 176.779 132.74 176.527 132.465 175.601C132.354 175.232 132.282 174.913 132.304 174.892C132.349 174.851 133.544 175.168 134.187 175.39C136.018 176.024 137.129 176.643 138.225 177.642L138.686 178.062L138.794 177.854C138.858 177.728 138.913 177.443 138.931 177.135C138.964 176.54 138.831 175.958 138.424 174.912C138.286 174.557 138.184 174.255 138.199 174.242C138.213 174.228 138.551 174.353 138.95 174.518C140.885 175.322 141.992 175.954 142.894 176.771L143.448 177.272L143.519 177.101C143.861 176.288 143.845 174.956 143.483 174.09C143.452 174.019 143.523 173.949 143.742 173.828L144.042 173.663L144.392 174.014C145.902 175.526 146.648 176.188 146.535 175.915C146.419 175.635 146.222 173.679 146.309 173.679C146.333 173.679 146.615 173.816 146.937 173.982C147.618 174.336 148.131 174.514 148.466 174.514H148.705L148.433 174.134C148.015 173.548 147.851 172.967 147.636 171.313C147.469 170.032 147.456 170.13 147.812 170.015C148.152 169.906 148.069 169.857 148.52 170.43C148.639 170.582 148.854 170.78 148.996 170.87C149.248 171.03 149.732 171.234 149.86 171.234C149.896 171.234 149.77 171.046 149.584 170.815C149.176 170.312 148.753 169.57 148.411 168.759C148.145 168.128 147.383 165.905 147.383 165.758C147.383 165.686 147.529 165.677 148.319 165.705C149.881 165.758 150.965 166.013 152.431 166.668C153.346 167.077 153.325 167.025 152.117 165.895C150.408 164.295 148.869 163.542 146.337 163.065C145.778 162.961 145.314 162.867 145.304 162.858C145.29 162.846 145.723 162.536 146.256 162.161C148.886 160.308 150.571 159.643 152.834 159.564C154.472 159.506 155.881 159.785 157.56 160.497C157.801 160.599 158.009 160.672 158.022 160.659C158.069 160.615 157.489 159.931 157.169 159.652C156.238 158.84 154.95 158.308 152.507 157.725C151.853 157.569 151.318 157.426 151.318 157.406C151.318 157.343 152.597 156.585 153.062 156.37C154.14 155.87 155.031 155.705 156.657 155.702C157.343 155.702 157.871 155.68 157.831 155.656C157.791 155.631 157.535 155.53 157.263 155.43C156.626 155.197 155.572 154.955 154.141 154.714C153.513 154.608 152.978 154.503 152.952 154.482C152.882 154.425 154.514 153.667 155.066 153.501C155.76 153.292 156.708 153.166 157.577 153.166C158.29 153.166 159.595 153.285 160.164 153.402L160.422 153.455L160.2 153.276C159.46 152.679 158.128 152.048 157.046 151.782C156.349 151.611 156.204 151.596 154.924 151.57L153.551 151.543L153.704 151.003C153.788 150.707 153.936 150.328 154.031 150.163C154.247 149.786 154.763 149.303 155.292 148.982C155.515 148.846 155.686 148.724 155.672 148.711C155.611 148.654 154.244 148.455 153.496 148.394C152.644 148.325 152.09 148.348 151.195 148.488C150.9 148.535 150.647 148.56 150.631 148.545C150.616 148.53 150.601 148.148 150.599 147.696C150.599 146.697 150.721 146.17 151.185 145.257C151.544 144.55 151.86 144.078 152.613 143.121L153.155 142.434L152.791 142.585C152.101 142.871 150.458 143.695 149.567 144.201C148.555 144.776 147.564 145.432 146.284 146.376C145.527 146.934 145.384 147.018 145.237 146.985C145.145 146.964 145.056 146.937 145.041 146.925C145.027 146.912 144.849 147.053 144.647 147.234C144.223 147.614 143.852 147.787 143.31 147.859C143.1 147.888 142.918 147.921 142.904 147.933C142.891 147.945 143.063 149.872 143.288 152.214C143.513 154.555 143.683 156.485 143.665 156.501C143.648 156.517 142.571 156.47 141.273 156.394C137.739 156.189 137.866 156.199 137.866 156.108C137.866 156.065 137.844 156.025 137.819 156.022C137.793 156.022 136.915 155.945 135.868 155.856C134.785 155.763 133.969 155.669 133.976 155.636C133.976 155.605 134.978 153.593 136.187 151.166C137.396 148.739 138.455 146.609 138.539 146.432L138.692 146.11L138.295 146.15C137.325 146.244 136.004 146.71 135.086 147.284C134.853 147.429 134.434 147.738 134.155 147.971C133.515 148.502 133.084 148.661 132.283 148.662C131.827 148.662 131.706 148.641 131.505 148.523C131.001 148.228 130.791 147.555 130.951 146.745C131.15 145.74 131.904 144.164 132.815 142.849C133.076 142.472 133.282 142.157 133.273 142.149C133.238 142.117 132.228 142.533 131.68 142.805C131.366 142.961 130.838 143.269 130.506 143.49C129.841 143.934 128.523 145.133 127.743 146.006C127.141 146.679 126.682 147.039 126.054 147.331C125.366 147.651 124.909 147.763 124.288 147.763C123.655 147.763 123.262 147.628 122.871 147.273C122.336 146.787 122.184 146.364 122.001 144.851C121.75 142.769 121.499 142.095 120.744 141.47C120.477 141.249 119.657 140.834 119.283 140.73C119.139 140.69 119.134 140.699 119.175 140.902C119.358 141.817 119.395 143.43 119.248 144.086C118.927 145.52 118.154 146.442 116.695 147.133L116.302 147.318L116.2 146.977C115.804 145.645 115.221 144.139 114.622 142.902L114.41 142.464L114.013 142.82C112.971 143.752 112.407 144.721 111.852 146.531C111.779 146.768 111.709 146.963 111.696 146.963C111.683 146.963 111.522 146.715 111.338 146.411C110.545 145.097 109.718 144.115 108.828 143.431C108.365 143.076 107.746 142.669 107.668 142.669C107.641 142.669 107.54 142.85 107.443 143.072C106.839 144.44 106.004 145.508 105.354 145.742C105.077 145.842 104.609 145.844 104.365 145.742C104.281 145.707 104.279 145.939 104.344 147.777C104.384 148.917 104.42 150.004 104.422 150.193V150.536H104.228C104.046 150.536 104.018 150.567 103.78 151.052C103.471 151.681 103.422 151.996 103.559 152.496C103.72 153.089 103.73 153.093 104.03 152.72C104.174 152.54 104.682 152.022 105.158 151.569L106.023 150.744L106.291 151.281C106.644 151.986 107.059 152.981 107.187 153.428C107.322 153.9 107.384 154.918 107.283 155.031C107.162 155.169 106.914 155.181 106.771 155.056C106.676 154.971 106.643 154.868 106.643 154.652C106.643 154.051 106.279 152.823 105.885 152.094L105.777 151.894L105.171 152.524C104.388 153.338 104.218 153.586 103.974 154.273C103.864 154.584 103.752 154.816 103.726 154.789C103.677 154.739 102.954 153.02 102.864 152.741C102.838 152.66 102.799 152.431 102.777 152.234L102.736 151.877L102.602 152.115C102.388 152.496 102.276 152.929 102.099 154.048C102.008 154.625 101.926 155.105 101.915 155.116C101.884 155.146 101.22 154.113 100.976 153.66C100.777 153.287 100.516 152.579 100.376 152.03C100.322 151.827 100.32 151.831 100.094 152.387C99.7799 153.159 99.6709 153.583 99.5455 154.527L99.4377 155.335L99.0112 154.761C98.7764 154.445 98.4855 153.988 98.3646 153.747C98.1317 153.282 97.8224 152.347 97.8224 152.108C97.8224 151.841 97.7009 151.965 97.568 152.368C97.4023 152.872 97.2991 153.594 97.3509 153.891C97.4272 154.328 97.0575 154.592 96.7607 154.313C96.6057 154.167 96.602 154.145 96.6308 153.527C96.6709 152.68 96.86 152.057 97.3573 151.134L97.7588 150.389V147.846V145.303L97.489 145.136C97.0148 144.841 96.0884 143.911 95.6505 143.289C95.2533 142.725 94.4594 141.318 94.4594 141.177C94.4594 141.037 94.3253 141.134 93.7795 141.671C92.9266 142.51 92.1602 143.568 91.7038 144.538C91.6074 144.744 91.5169 144.859 91.4652 144.842C91.419 144.827 91.2665 144.789 91.1253 144.754L90.8684 144.693L90.8935 144.14C90.9156 143.658 90.7623 142.15 90.6842 142.077C90.6451 142.039 90.0648 142.392 89.5421 142.767C89.2978 142.942 88.824 143.338 88.4889 143.649L87.88 144.212L87.8408 145.51C87.7826 147.47 87.5531 148.281 86.9559 148.645C86.6366 148.84 86.2959 148.853 85.9026 148.685C85.7504 148.62 85.619 148.566 85.6105 148.566C85.5964 148.566 85.6617 148.842 85.7418 149.178C86.0667 150.524 86.0694 151.585 85.7559 152.724C85.6398 153.139 85.5872 153.241 85.4642 153.285C85.3184 153.338 85.3262 153.351 85.7409 153.752C85.9755 153.98 86.2771 154.303 86.4109 154.47L86.6543 154.775L86.7497 154.561C86.8999 154.224 86.9648 153.777 86.9063 153.484C86.8772 153.336 86.7338 152.974 86.5879 152.679C86.4421 152.384 86.3386 152.128 86.358 152.11C86.377 152.092 86.6942 152.21 87.0621 152.373C88.0813 152.825 88.5215 153.337 88.8069 154.402L88.9243 154.841L89.0266 154.6C89.2197 154.146 89.4408 153.188 89.5831 152.189C89.6614 151.64 89.7439 151.19 89.7669 151.19C89.791 151.19 89.8831 151.358 89.9746 151.563C90.066 151.768 90.3678 152.446 90.6461 153.069C90.9246 153.692 91.2171 154.412 91.2963 154.67L91.4405 155.137L91.5607 154.85C91.7786 154.328 91.9189 153.62 92.0187 152.536C92.0729 151.949 92.1279 151.458 92.1403 151.446C92.1734 151.415 92.8833 152.513 93.1508 153.009C93.6173 153.874 93.8906 155.015 93.7937 155.693C93.7415 156.056 93.6763 156.14 93.4449 156.14C93.1386 156.14 93.0674 156.011 93.0674 155.454C93.0674 154.92 92.95 154.285 92.7733 153.871L92.6655 153.616L92.4895 154.289C92.3931 154.659 92.2112 155.164 92.0862 155.412C91.8833 155.813 91.0408 157.058 90.9988 157.018C90.9847 157.005 90.9365 156.667 90.8799 156.258C90.8236 155.849 90.7331 155.34 90.678 155.126C90.5426 154.601 90.1404 153.618 90.0855 153.677C90.0624 153.702 89.9951 153.905 89.9397 154.124C89.776 154.769 89.5345 155.286 89.0183 156.095C88.6621 156.653 88.5228 156.828 88.4931 156.751C88.4711 156.695 88.4028 156.311 88.3422 155.902C88.1849 154.837 88.0758 154.379 87.8821 153.974L87.7123 153.619L87.631 154.072C87.5436 154.564 86.733 156.594 86.6569 156.515C86.6328 156.49 86.5353 156.248 86.441 155.98C86.3466 155.711 86.1631 155.335 86.0318 155.144C85.7975 154.803 84.7249 153.695 84.6294 153.695C84.5641 153.695 84.3506 154.172 84.0799 154.932C83.9156 155.394 83.8429 155.716 83.8206 156.08C83.8036 156.364 83.7513 156.646 83.7004 156.722C83.5734 156.912 83.2693 156.903 83.1308 156.704C82.9159 156.396 83.1448 155.236 83.6368 154.076C83.7902 153.719 83.9102 153.42 83.9038 153.413C83.8867 153.395 82.0652 153.51 81.7262 153.55C81.5135 153.576 81.4566 153.607 81.4566 153.698C81.4566 153.762 81.4204 153.814 81.3763 153.814C81.2939 153.814 78.7234 153.054 78.6856 153.018C78.6715 153.005 78.6996 152.912 78.7358 152.807C78.7749 152.703 78.794 152.603 78.778 152.588C78.7609 152.573 78.5379 152.722 78.2803 152.919C78.0224 153.117 77.7839 153.27 77.7503 153.259C77.6273 153.22 76.8891 151.768 76.6756 151.145C76.3632 150.233 76.2421 149.468 76.2663 148.557C76.2894 147.684 76.3095 147.695 75.7264 148.252C74.9551 148.991 74.6194 149.692 74.2828 151.264C74.2004 151.648 74.1128 151.944 74.0885 151.92C73.9845 151.82 73.3736 150.282 73.2285 149.759C73.0332 149.055 72.9651 147.867 73.0777 147.129C73.238 146.077 73.6117 145.025 74.2488 143.831C74.4339 143.483 74.5684 143.199 74.5477 143.2C74.5266 143.2 74.2384 143.278 73.9069 143.374C72.2421 143.851 71.3378 144.309 70.4272 145.133C69.8045 145.697 69.5847 145.99 69.0467 146.976C68.7176 147.578 68.5816 147.778 68.5553 147.696C68.4475 147.36 68.1919 146.177 68.1349 145.751C68.0476 145.086 68.0536 144.648 68.163 143.964C68.2875 143.189 68.52 142.551 69.0231 141.605L69.4431 140.815L69.1529 140.974C67.7687 141.73 67.0645 142.223 66.1926 143.046C64.9209 144.245 64.0889 145.584 63.4993 147.38C63.3914 147.706 63.284 147.961 63.2591 147.947C63.1333 147.874 62.4015 146.388 62.2863 145.972C62.0389 145.079 62.0566 143.694 62.3335 142.305C62.3737 142.104 62.3486 142.121 61.6999 142.722C60.6616 143.685 60.0758 144.517 59.705 145.555C59.6 145.85 59.3654 146.722 59.1848 147.493C59.0042 148.264 58.8484 148.903 58.8383 148.913C58.8242 148.926 58.5727 148.594 58.2699 148.181C57.301 146.859 56.8121 145.774 56.4614 144.165C56.355 143.678 56.2681 143.215 56.2675 143.135C56.2675 142.904 56.1681 143.092 55.9246 143.796C55.4988 145.025 55.3535 146.231 55.4459 147.768C55.478 148.286 55.4931 148.719 55.481 148.73C55.468 148.742 55.096 148.292 54.6518 147.731C53.7104 146.542 53.277 146.085 52.8405 145.822C52.5257 145.632 51.8652 145.406 51.6265 145.406C51.5063 145.406 51.5063 145.418 51.6486 145.576C52.384 146.425 52.574 146.663 52.8412 147.067C53.513 148.086 53.8123 149.036 53.8106 150.147C53.8106 150.768 53.7112 151.646 53.6355 151.717C53.6214 151.732 53.3235 151.575 52.9734 151.371C52.2361 150.943 51.4449 150.624 50.8101 150.5C50.3439 150.408 49.2103 150.379 48.8199 150.447L48.5925 150.488L49.0396 150.689C50.0349 151.137 50.5298 151.894 50.575 153.035L50.5901 153.419L49.575 153.611C47.944 153.918 46.821 154.269 45.7362 154.811C45.1454 155.106 43.5789 156.069 43.5789 156.137C43.5789 156.221 45.1412 157.611 45.7996 158.115C47.031 159.058 47.9913 159.602 49.115 159.992C49.3853 160.086 49.6066 160.181 49.6066 160.203C49.6066 160.227 49.0428 160.709 48.3536 161.276C46.7966 162.557 45.6499 163.603 44.8498 164.471C44.2943 165.075 43.4245 166.156 43.4669 166.19C43.481 166.203 43.8121 166.178 44.2133 166.15C45.5929 166.048 46.9009 165.786 48.5915 165.269L49.575 164.969L49.6827 165.101C49.742 165.174 49.8252 165.293 49.8669 165.366C49.9593 165.527 49.9623 165.524 48.7881 166.705C47.3222 168.178 46.6179 169.057 46.1374 170.01C45.8652 170.55 45.633 171.342 45.6993 171.505C45.7525 171.632 47.1937 171.609 48.1288 171.465C49.7849 171.211 51.1589 170.727 53.5003 169.573L54.1314 169.263L54.7732 169.735C56.6672 171.129 57.593 172.468 57.7072 173.978L57.7453 174.502L57.93 174.378C58.5961 173.933 58.8279 172.753 58.5855 171.048C58.5363 170.704 58.5052 170.415 58.5152 170.405C58.5293 170.392 58.8735 170.533 59.2882 170.71C60.7507 171.337 61.6251 171.431 62.6986 171.079L63.3247 170.873L63.2946 171.81C63.2595 172.874 63.1529 173.293 62.7746 173.85C62.6517 174.031 62.5513 174.196 62.5504 174.218C62.5504 174.283 63.1641 174.387 63.5512 174.386C64.2404 174.386 65.1843 174.129 66.102 173.698C66.3287 173.592 66.9682 173.259 67.5228 172.96C68.0774 172.661 68.5451 172.429 68.5621 172.445C68.5792 172.461 68.6163 172.804 68.6444 173.207C68.6726 173.61 68.7288 174.087 68.7703 174.267C68.8657 174.689 69.2066 175.387 69.4999 175.763C69.721 176.046 69.7406 176.057 70.0433 176.057C70.529 176.057 70.924 175.832 71.6572 175.139C72.008 174.807 72.4565 174.362 72.6538 174.148L73.0124 173.761V174.778C73.0124 177.087 72.5422 178.805 71.1992 181.319C71.042 181.613 70.9275 181.867 70.9449 181.883C71.0031 181.937 72.0197 181.594 72.6796 181.298C74.2488 180.594 75.5873 179.526 77.1008 177.768C77.3761 177.448 77.6094 177.194 77.6186 177.203C77.6327 177.216 77.7513 177.506 77.8932 177.856C78.5098 179.382 78.7701 180.589 78.7042 181.622L78.667 182.207L78.8709 182.169C79.2189 182.103 80.0666 181.694 80.5974 181.335C81.1684 180.949 81.7515 180.473 82.6965 179.62C83.0508 179.3 83.377 179.038 83.4212 179.038C83.5414 179.038 84.6503 180.081 85.0393 180.559C85.9539 181.683 86.3397 182.783 86.3397 184.265C86.3397 184.923 86.3015 184.908 87.0552 184.539L87.061 184.548ZM107.517 176.736C107.501 176.712 107.425 176.476 107.348 176.214C107.185 175.66 106.889 175.032 106.575 174.57C106.292 174.155 105.558 173.328 105.476 173.331C105.441 173.331 105.38 173.54 105.343 173.793C105.247 174.421 105.039 175.006 104.747 175.468C104.497 175.862 103.955 176.482 103.86 176.482C103.761 176.482 103.216 175.737 102.965 175.26C102.804 174.953 102.621 174.437 102.452 173.816C102.203 172.892 102.195 172.842 102.296 172.698C102.424 172.516 102.673 172.497 102.819 172.658C102.876 172.721 103.028 173.17 103.159 173.659C103.387 174.511 103.743 175.345 103.901 175.393C103.997 175.422 104.4 174.644 104.525 174.186C104.629 173.805 104.744 172.704 104.746 172.078V171.698L105.377 172.246C106.451 173.176 107.378 174.329 107.739 175.184C107.819 175.373 107.899 175.528 107.917 175.527C107.981 175.527 108.442 174.895 108.614 174.574C108.868 174.098 109.1 173.395 109.282 172.553C109.369 172.147 109.441 171.805 109.441 171.794C109.441 171.781 109.508 171.731 109.592 171.681C109.715 171.605 109.773 171.602 109.908 171.659C109.999 171.698 110.09 171.778 110.11 171.839C110.155 171.97 109.865 173.355 109.684 173.876C109.407 174.677 109.073 175.286 108.631 175.801C108.359 176.118 107.553 176.793 107.517 176.736L107.517 176.736ZM95.1993 169.576C94.0286 168.801 93.322 167.924 92.3532 166.046L91.8457 165.062L91.7925 165.301C91.7643 165.432 91.7202 165.877 91.6981 166.291C91.6489 167.153 91.7342 167.813 91.9735 168.461C92.0579 168.691 92.1421 168.921 92.1595 168.973C92.1806 169.034 92.1033 169.121 91.9339 169.226C91.7928 169.314 91.6621 169.386 91.6438 169.386C91.5494 169.386 89.7456 167.974 89.3873 167.62C88.8964 167.134 88.7693 166.969 88.3703 166.301C88.0314 165.732 88.0523 165.72 87.8938 166.583C87.7693 167.261 87.8034 168.01 87.9891 168.668C88.0574 168.912 88.1025 169.124 88.0886 169.138C88.0484 169.176 86.813 168.687 86.408 168.474C85.5637 168.03 84.6198 167.172 83.998 166.281L83.6228 165.744L83.5736 165.97C83.5475 166.094 83.5234 166.638 83.5224 167.179C83.5224 168.301 83.5866 168.565 83.9651 168.909C84.2108 169.133 84.2455 169.317 84.07 169.466C83.8909 169.618 83.702 169.584 83.4267 169.35C82.9207 168.92 82.6733 168.042 82.7559 166.97C82.8051 166.341 83.0943 163.875 83.1445 163.664C83.1736 163.545 83.2814 163.698 83.7479 164.519C84.0607 165.069 84.4629 165.725 84.6413 165.976C85.0825 166.597 86.0755 167.517 86.6031 167.794C86.8332 167.914 87.0364 168.014 87.0543 168.014C87.0723 168.014 87.1045 167.644 87.1225 167.194C87.1456 166.663 87.2049 166.205 87.29 165.896C87.516 165.073 88.0125 163.656 88.0585 163.704C88.0836 163.729 88.2221 164.09 88.368 164.505C88.9385 166.13 89.5506 166.988 90.81 167.929C91.1086 168.153 91.1203 168.156 91.0818 168.01C90.8658 167.197 90.9132 165.83 91.1978 164.645C91.3898 163.847 91.5888 163.121 91.6248 163.087C91.6388 163.073 91.7601 163.284 91.8944 163.555C92.5685 164.92 93.7211 167.071 93.9529 167.398C94.0971 167.602 94.3787 167.938 94.5786 168.145L94.9421 168.522V167.418C94.9421 166.538 94.9743 166.168 95.0865 165.599C95.2431 164.807 95.8387 163.021 95.919 163.101C95.9471 163.13 96.2911 163.622 96.6831 164.196C97.9623 166.069 98.4655 166.572 99.7559 167.268C100.255 167.538 100.407 167.731 100.272 167.923C100.138 168.113 99.8806 168.102 99.4495 167.889C98.29 167.314 97.409 166.5 96.455 165.124L96.0848 164.59L95.9411 165.124C95.7113 165.979 95.6434 166.73 95.6878 167.924C95.7099 168.515 95.7471 169.206 95.7692 169.46C95.7923 169.722 95.7863 169.919 95.7551 169.916C95.723 169.916 95.4713 169.76 95.1936 169.576L95.1993 169.576ZM112.573 167.472C112.596 167.196 112.632 166.474 112.654 165.867C112.696 164.703 112.622 163.956 112.371 163.037L112.258 162.622L111.667 163.438C110.803 164.631 109.899 165.434 108.856 165.932C108.298 166.199 108.011 166.139 108.056 165.766C108.07 165.64 108.152 165.555 108.385 165.42C109.889 164.548 110.263 164.195 111.412 162.557C111.895 161.869 112.33 161.253 112.379 161.189C112.459 161.083 112.493 161.144 112.762 161.904C113.272 163.346 113.484 164.665 113.404 165.897L113.361 166.553L113.596 166.344C114.247 165.766 114.645 165.135 115.815 162.831C116.478 161.523 116.713 161.113 116.749 161.195C116.848 161.419 117.18 162.763 117.276 163.324C117.388 163.976 117.407 165.413 117.311 165.778C117.205 166.179 117.233 166.19 117.609 165.894C118.891 164.89 119.409 164.155 119.977 162.537C120.123 162.122 120.263 161.761 120.288 161.735C120.348 161.671 121.021 163.739 121.144 164.368C121.198 164.642 121.242 165.131 121.242 165.456C121.242 165.78 121.261 166.046 121.286 166.046C121.465 166.046 122.317 165.461 122.8 165.006C123.469 164.377 123.936 163.734 124.639 162.475C125.009 161.812 125.155 161.598 125.187 161.676C125.282 161.911 125.579 164.691 125.58 165.36C125.58 166.424 125.37 167.033 124.86 167.437C124.625 167.623 124.413 167.64 124.266 167.487C124.105 167.32 124.138 167.162 124.382 166.94C124.753 166.602 124.827 166.327 124.826 165.27C124.826 164.761 124.803 164.219 124.775 164.064L124.724 163.782L124.335 164.332C123.839 165.032 122.826 165.991 122.193 166.358C121.757 166.61 120.307 167.214 120.255 167.165C120.241 167.152 120.289 166.944 120.358 166.699C120.551 166.018 120.581 165.338 120.453 164.609C120.393 164.267 120.32 163.949 120.292 163.902C120.256 163.84 120.173 163.944 120.005 164.258C119.515 165.173 118.976 165.733 117.57 166.79C116.65 167.481 116.685 167.47 116.31 167.18L116.166 167.069L116.353 166.542C116.617 165.796 116.702 165.15 116.65 164.289C116.627 163.894 116.584 163.463 116.554 163.332L116.503 163.093L116.118 163.839C115.664 164.715 115.227 165.469 114.906 165.926C114.453 166.573 113.389 167.503 112.62 167.923C112.546 167.965 112.538 167.892 112.573 167.471L112.573 167.472ZM62.869 162.935C61.7977 162.359 60.8814 161.363 60.1913 160.023C59.9113 159.48 59.1256 157.384 59.1256 157.181C59.1256 157.142 59.5222 157.335 60.0069 157.61C60.4918 157.886 61.1418 158.216 61.4514 158.344C62.0175 158.578 63.1019 158.87 63.1695 158.806C63.1886 158.788 63.1564 158.497 63.0962 158.16C62.8293 156.682 62.909 155.169 63.3067 154.167C63.4767 153.739 63.9573 152.857 64.1612 152.599C64.2536 152.482 64.2566 152.482 64.291 152.628C64.3101 152.71 64.4586 153.341 64.619 154.029C64.9905 155.626 65.2831 156.691 65.5367 157.369C65.8134 158.108 65.8175 158.112 65.9111 157.716C66.0105 157.293 66.3525 156.265 66.5801 155.702C66.8757 154.972 67.8286 153.299 68.0086 153.194C68.0819 153.152 68.9429 154.389 69.3776 155.162C69.5622 155.49 69.803 155.973 69.9132 156.236C70.0237 156.498 70.1231 156.722 70.1352 156.734C70.1804 156.775 70.4103 156.283 70.5525 155.847C70.7639 155.199 70.747 154.587 70.4932 153.66C70.3841 153.26 70.2936 152.917 70.2936 152.898C70.2936 152.81 71.8727 154.01 72.2084 154.354C72.8552 155.017 73.2525 155.759 73.4071 156.593C73.5025 157.105 73.4242 157.279 73.1032 157.279C72.9206 157.279 72.876 157.25 72.8044 157.086C72.7582 156.978 72.6996 156.758 72.6745 156.594C72.5871 156.022 72.1052 155.169 71.6327 154.749L71.4356 154.574V154.898C71.4356 155.288 71.2988 155.918 71.1169 156.377C70.9487 156.803 70.0325 158.591 69.9826 158.591C69.9615 158.591 69.8484 158.263 69.7305 157.861C69.4956 157.062 69.1981 156.289 68.9319 155.784C68.6708 155.29 68.1118 154.419 68.0544 154.418C67.9771 154.418 67.2853 155.804 67.0589 156.415C66.7839 157.156 66.4758 158.326 66.2621 159.441C66.1627 159.958 66.063 160.361 66.0396 160.336C65.9513 160.242 65.125 158.292 64.8577 157.548C64.5911 156.805 64.0185 154.757 64.0078 154.507C63.9937 154.246 63.8149 154.802 63.7185 155.392C63.59 156.181 63.6371 157.092 63.8833 158.5C63.9861 159.089 64.062 159.579 64.0524 159.588C64.0383 159.601 63.6944 159.563 63.2782 159.512C62.4487 159.411 61.6804 159.193 60.8828 158.835C60.5979 158.707 60.3579 158.608 60.3497 158.616C60.3165 158.646 60.6798 159.459 60.9428 159.944C61.5226 161.012 62.2712 161.814 63.143 162.303C63.7093 162.62 63.8069 162.781 63.5689 163.005C63.3967 163.167 63.2793 163.155 62.8709 162.935L62.869 162.935ZM123.377 157.428C123.324 157.379 123.265 157.211 123.244 157.055C123.184 156.589 122.962 155.909 122.694 155.372C122.428 154.837 121.438 153.394 121.365 153.436C121.342 153.45 121.305 153.572 121.282 153.707C121.2 154.189 120.797 155.23 120.499 155.729C120.273 156.108 120.039 156.383 119.569 156.819C119.224 157.14 118.932 157.393 118.919 157.381C118.906 157.368 118.81 157.085 118.704 156.748C118.399 155.783 117.888 154.946 117.132 154.174L116.815 153.851L116.772 154.149C116.687 154.748 116.48 155.413 116.236 155.878C115.978 156.371 115.318 157.131 115.205 157.065C115.169 157.043 114.97 156.811 114.761 156.546C114.29 155.95 113.73 154.884 113.594 154.328C113.43 153.658 113.577 153.165 113.94 153.165C114.218 153.165 114.293 153.301 114.297 153.814C114.297 154.177 114.341 154.361 114.499 154.733C114.705 155.218 115.194 156.027 115.28 156.027C115.357 156.027 115.624 155.566 115.781 155.167C115.972 154.681 116.103 153.802 116.104 153.001C116.104 152.632 116.129 152.33 116.158 152.33C116.186 152.33 116.624 152.726 117.128 153.21C118.106 154.148 118.74 154.955 119.061 155.67C119.156 155.883 119.253 156.077 119.275 156.102C119.335 156.17 119.752 155.626 119.996 155.16C120.306 154.57 120.504 153.937 120.737 152.792C120.849 152.243 120.959 151.794 120.981 151.795C121.034 151.795 122.35 153.489 122.733 154.049C123.118 154.611 123.675 155.718 123.803 156.177C123.858 156.374 123.921 156.703 123.946 156.909C123.982 157.222 123.971 157.302 123.876 157.401C123.741 157.541 123.512 157.553 123.379 157.428L123.377 157.428ZM142.879 155.675C142.879 155.613 142.71 153.781 142.503 151.605C142.296 149.429 142.118 147.542 142.107 147.412L142.088 147.176L142.627 147.193C143.331 147.216 143.699 147.124 144.039 146.843C145.283 145.814 145.318 142.783 144.146 137.689L143.885 136.557L144.208 130.714L144.53 124.872L144.725 124.643C145.351 123.912 145.652 123.486 145.959 122.9C146.392 122.073 146.558 121.441 146.559 120.617C146.559 119.438 146.284 118.632 145.189 116.618L144.464 115.286L144.772 114.918C144.942 114.717 145.155 114.43 145.246 114.282C145.764 113.441 146.115 111.944 146.115 110.586C146.115 107.24 144.69 102.768 142.293 98.5697C140.599 95.6041 138.799 93.2683 136.634 91.2275C134.637 89.3448 132.866 88.2195 131.026 87.6637C130.078 87.3773 129.52 87.3059 128.514 87.3419L127.666 87.3722L126.977 86.7778C126.086 86.0099 125.809 85.8716 125.177 85.8787C124.915 85.8787 124.559 85.9262 124.386 85.9787L124.071 86.0727L123.561 85.6066C122.584 84.7137 121.972 84.4405 120.957 84.4443C120.417 84.4443 120.243 84.4736 119.784 84.6268L119.244 84.807L118.763 84.3823C118.257 83.9359 117.707 83.6325 117.118 83.476C116.924 83.4245 116.333 83.3639 115.786 83.3387C114.819 83.2943 114.788 83.2892 113.946 83.0013C113.147 82.728 113.049 82.7085 112.487 82.7082C111.95 82.7082 111.847 82.7254 111.548 82.8739L111.211 83.0402L110.85 82.8342C110.651 82.7209 110.302 82.5693 110.076 82.4974C109.338 82.2633 108.477 82.4034 107.651 82.894C107.512 82.9778 107.366 83.0317 107.325 83.0169C107.284 83.0018 107 82.8121 106.692 82.594C106.385 82.376 105.932 82.1023 105.686 81.986C105.199 81.7554 104.414 81.5436 104.054 81.5453C103.705 81.5453 103 81.7024 102.635 81.8578L102.308 81.9972L101.417 81.8297C99.4176 81.4536 98.795 81.5486 97.877 82.3696C97.676 82.5492 97.5017 82.6854 97.4895 82.672C97.4755 82.6578 97.3456 82.4256 97.1966 82.1541C96.7316 81.3064 96.2454 81.0288 95.1704 80.9968C94.6458 80.9806 94.6342 80.9847 94.4865 81.1583C94.4041 81.2553 90.3033 86.7027 85.3738 93.2625L76.411 105.189L73.8438 105.168L71.2763 105.147L71.402 105.278L71.5277 105.409L71.3066 105.373C69.4178 105.072 67.5525 105.097 66.295 105.439C64.9708 105.799 63.6287 106.641 62.6143 107.749C60.3137 110.261 58.7399 114.439 57.5359 121.231C57.4309 121.822 57.1536 123.11 56.9188 124.094L56.4919 125.883V126.867C56.506 128.684 56.9308 130.881 58.0162 134.709C59.0075 138.203 58.8952 137.872 59.117 137.958C59.6369 138.16 60.1262 137.677 60.3598 136.73C60.4552 136.345 60.4522 136.319 60.1046 134.162C59.9112 132.964 59.7533 131.95 59.7533 131.908C59.7533 131.843 60.3826 131.674 60.4365 131.723C60.4506 131.737 60.7715 132.602 61.16 133.657C61.8198 135.449 61.8753 135.573 61.9995 135.537C62.5845 135.366 63.1784 134.925 63.4481 134.459C64.1369 133.269 63.5466 131.548 61.6751 129.29C61.3797 128.934 61.1621 128.62 61.1913 128.594C61.2204 128.568 61.4898 128.479 61.7899 128.398C62.5176 128.201 62.7072 128.102 62.792 127.873C62.9655 127.405 62.8151 126.322 62.3967 125.024L62.1877 124.376L62.3902 123.102C63.0331 119.054 63.8388 116.315 64.8877 114.612C65.546 113.543 66.3959 112.816 67.2992 112.549C68.0622 112.323 69.2803 112.42 70.266 112.786C70.4678 112.859 71.4269 113.021 72.8018 113.21C74.0179 113.378 75.2985 113.579 75.6476 113.657C77.7856 114.137 78.8406 114.283 80.5096 114.326C81.8441 114.36 82.6273 114.308 83.4836 114.126C85.8019 113.633 87.3402 112.68 88.9861 110.717C89.3521 110.281 89.6609 109.932 89.672 109.943C89.6861 109.955 89.7393 110.806 89.7966 111.839C89.8528 112.871 89.9057 113.719 89.9125 113.723C90.0166 113.787 93.7128 114.151 95.6307 114.285C97.0244 114.382 99.0231 114.543 100.072 114.64C101.121 114.737 102.094 114.827 102.233 114.84C102.389 114.854 102.706 114.981 103.052 115.168C104.111 115.739 104.62 115.792 105.293 115.402L105.662 115.188L106.601 115.284C107.382 115.364 107.605 115.367 107.932 115.305C108.471 115.203 108.911 114.918 109.28 114.431C109.526 114.107 109.604 114.042 109.713 114.071C110.418 114.253 111.166 114.353 111.641 114.326C112.488 114.279 112.859 114.059 113.864 113.007L114.258 112.596L114.527 112.673C114.992 112.808 115.355 112.841 115.748 112.783C116.121 112.728 116.646 112.533 116.882 112.363C116.992 112.284 116.994 112.265 116.901 112.098C116.711 111.754 116.584 110.959 116.62 110.344L116.653 109.77L116.454 109.662C115.465 109.129 115.112 108.489 115.008 107.041C114.955 106.302 114.921 106.117 114.819 105.995C114.752 105.913 114.607 105.676 114.499 105.468C114.311 105.107 114.304 105.066 114.332 104.514C114.359 104.004 114.396 103.861 114.645 103.282C114.975 102.518 115.13 102.376 115.428 102.559C115.646 102.694 115.628 102.84 115.3 103.579C114.885 104.513 114.931 105.09 115.468 105.664L115.683 105.895L115.72 106.854C115.757 107.755 115.771 107.837 115.948 108.203C116.167 108.65 116.505 108.956 117.045 109.194C117.238 109.28 117.403 109.354 117.412 109.361C117.426 109.374 117.397 109.658 117.361 110.005C117.247 111.062 117.438 111.863 117.928 112.387C118.038 112.506 118.457 112.813 118.858 113.071L119.587 113.538L119.538 113.807C119.458 114.253 119.498 114.769 119.642 115.119C119.929 115.816 120.506 116.325 121.1 116.405C121.261 116.428 121.443 116.485 121.504 116.536C121.631 116.641 121.651 116.91 121.539 117.015C121.425 117.123 120.96 117.102 120.585 116.969L120.251 116.852L120.568 117.126C120.743 117.277 121.257 117.727 121.711 118.127C125.854 121.777 129.088 123.587 134.401 125.226L135.416 125.539L135.691 126.009C138.867 131.437 140.127 135.094 140.332 139.476C140.413 141.231 140.31 142.719 139.981 144.577L139.828 145.442L137.447 150.227C136.138 152.858 135.067 155.034 135.067 155.061C135.067 155.108 137.78 155.347 137.823 155.303C137.837 155.29 138.06 154.561 138.323 153.68C138.586 152.8 138.814 152.068 138.828 152.054C138.873 152.013 139.508 152.168 139.508 152.221C139.508 152.247 139.336 152.999 139.126 153.888C138.915 154.778 138.757 155.52 138.774 155.536C138.806 155.566 141.863 155.767 142.506 155.781C142.826 155.793 142.871 155.767 142.871 155.675L142.879 155.675ZM141.115 116.12C140.954 115.968 141.032 115.725 141.333 115.432C141.932 114.852 142.087 114.189 141.765 113.582C141.57 113.214 141.327 113.005 140.709 112.669C140.454 112.53 140.236 112.41 140.225 112.401C140.212 112.388 140.364 112.201 140.561 111.977C140.996 111.482 141.209 111.086 141.299 110.608C141.47 109.696 140.927 108.671 140.074 108.292C139.666 108.111 139.58 108.034 139.58 107.848C139.58 107.204 140.813 107.663 141.47 108.55C142.192 109.525 142.239 110.667 141.603 111.775L141.347 112.221L141.526 112.338C141.864 112.56 142.303 113.04 142.478 113.378C142.625 113.664 142.652 113.795 142.654 114.225C142.654 114.68 142.635 114.774 142.451 115.126C142.181 115.642 141.626 116.192 141.374 116.192C141.273 116.192 141.157 116.16 141.115 116.12L141.115 116.12ZM105.337 110.116C104.693 109.891 103.985 109.354 103.985 109.091C103.985 108.958 104.198 108.737 104.327 108.737C104.376 108.737 104.553 108.847 104.723 108.98C105.221 109.372 105.606 109.533 106.047 109.533C106.72 109.533 107.257 109.141 107.691 108.329C107.814 108.099 107.942 107.896 107.976 107.876C108.009 107.857 108.217 107.97 108.437 108.127C109.19 108.662 109.931 108.848 110.712 108.698C111.445 108.558 111.994 108.134 112.336 107.448C112.56 106.997 112.684 106.911 112.942 107.031C113.171 107.138 113.168 107.429 112.928 107.875C112.364 108.951 111.011 109.593 109.708 109.403C109.275 109.34 109.107 109.28 108.227 108.871C108.209 108.858 108.14 108.95 108.075 109.065C107.901 109.369 107.264 109.916 106.914 110.062C106.482 110.243 105.762 110.267 105.33 110.116L105.337 110.116ZM95.1332 108.25C94.6664 108.167 93.9764 107.833 93.5791 107.497L93.2303 107.203L92.9503 107.434C92.7963 107.562 92.4829 107.752 92.2536 107.859C91.8769 108.033 91.7811 108.052 91.2643 108.052C90.7341 108.052 90.6625 108.036 90.296 107.85C89.8618 107.629 89.4424 107.243 89.1827 106.827C88.9915 106.52 89.0076 106.346 89.2379 106.23C89.4472 106.126 89.6291 106.217 89.8588 106.564C90.2743 107.181 90.9387 107.494 91.5658 107.368C92.0089 107.279 92.3198 107.084 92.8344 106.571L93.2638 106.143L93.4983 106.412C93.9096 106.883 94.3141 107.215 94.6973 107.397C95.0403 107.56 95.1232 107.575 95.7363 107.575C96.342 107.575 96.434 107.558 96.7514 107.407C97.1348 107.222 97.5371 106.888 97.6759 106.64C97.8348 106.355 98.2999 106.34 98.3739 106.616C98.4322 106.832 98.2454 107.138 97.8262 107.513C97.1088 108.157 96.1232 108.426 95.1333 108.25H95.1332ZM137.918 102.319C137.827 102.234 137.818 102.1 137.846 101.32C137.879 100.419 137.879 100.418 137.698 100.091C137.564 99.8463 137.422 99.7005 137.143 99.5185L136.769 99.2742L136.47 98.4597C135.937 97.0112 135.565 96.6816 134.241 96.4842C134.012 96.4508 134.009 96.4458 133.931 96.0487C133.694 94.8438 133.265 94.085 132.622 93.7306C132.464 93.6427 131.959 93.4605 131.5 93.3242L130.665 93.0762L130.585 92.6623C130.477 92.101 130.24 91.6727 129.828 91.2914C129.37 90.8676 128.923 90.7033 128.348 90.7467C127.902 90.78 127.763 90.7295 127.687 90.5049C127.654 90.4049 127.687 90.3325 127.809 90.2152C127.971 90.0632 127.995 90.059 128.59 90.0837C129.129 90.1059 129.254 90.1332 129.607 90.3027C130.368 90.6692 131.127 91.5842 131.255 92.29L131.3 92.5366L131.952 92.7387C133.434 93.198 134.044 93.8119 134.486 95.2912L134.653 95.8475L134.939 95.9162C136.034 96.1754 136.671 96.8456 137.166 98.2604C137.349 98.7838 137.396 98.8598 137.609 98.9864C138.182 99.3265 138.537 99.9402 138.603 100.708C138.655 101.306 138.536 102.246 138.394 102.342C138.245 102.445 138.04 102.436 137.917 102.32L137.918 102.319ZM113.074 88.6279C112.623 88.0737 112.294 87.7471 112.011 87.5737C111.777 87.43 111.703 87.418 111.059 87.4169H110.361L109.727 87.074C108.42 86.3672 107.793 86.3283 106.815 86.8933C106.563 87.0386 106.414 87.0917 106.358 87.0555C105.089 86.2209 104.681 86.0311 104.036 85.9741C103.56 85.9327 103.22 86.0185 102.298 86.4144L101.531 86.7439L101.118 86.4494C100.132 85.7483 98.7171 85.8027 98.0737 86.5665C97.8549 86.8263 97.648 86.8607 97.4461 86.6709C97.2904 86.5247 97.3216 86.3781 97.5704 86.0807C98.2839 85.2302 99.8285 85.0265 101.097 85.6155C101.237 85.6801 101.412 85.7858 101.486 85.85C101.622 85.9658 101.623 85.9658 102.007 85.7844C103.536 85.059 104.63 85.133 106.119 86.062L106.458 86.2735L106.886 86.0714C107.296 85.8783 107.346 85.8692 108.013 85.8692C108.814 85.8692 109.007 85.9228 109.916 86.3998L110.488 86.6992H111.122C111.664 86.6992 111.809 86.7265 112.119 86.8616C112.569 87.0555 113.029 87.4513 113.512 88.0602C113.912 88.565 113.984 88.8196 113.76 88.9325C113.508 89.0592 113.381 89.0022 113.073 88.6238L113.074 88.6279ZM99.6706 151.593C99.8778 151.133 100.037 150.747 100.024 150.735C100.01 150.722 99.6415 150.735 99.2018 150.756L98.4018 150.798L98.439 151.221C98.4922 151.807 98.6766 152.65 98.8465 153.071L98.9887 153.424L99.1411 152.928C99.2245 152.654 99.4632 152.054 99.6702 151.594L99.6706 151.593ZM101.634 152.628C101.857 151.756 102.404 151.077 103.16 150.734L103.572 150.548H102.287C101.186 150.548 101.002 150.561 101.002 150.634C101.002 150.683 100.971 150.723 100.937 150.723C100.868 150.723 100.879 150.834 101.042 151.64C101.165 152.25 101.444 153.078 101.504 153.011C101.53 152.983 101.587 152.812 101.635 152.632L101.634 152.628ZM80.784 152.524C80.8051 152.302 80.8523 151.625 80.8889 151.018C80.9261 150.411 80.9713 149.801 80.9902 149.661L81.0233 149.408H81.3683H81.7136V151.14V152.873L82.237 152.835C82.5249 152.813 83.2743 152.765 83.9026 152.727L85.0447 152.657L85.158 152.151C85.3392 151.342 85.2755 150.217 84.986 149.109C84.8614 148.634 84.7596 148.195 84.7594 148.134C84.7594 148.073 84.8177 147.947 84.8906 147.851C85.0736 147.61 85.2945 147.626 85.9101 147.928C86.4575 148.196 86.5146 148.195 86.7392 147.912C87.0072 147.574 87.2033 145.874 87.1378 144.458C87.0866 143.34 86.9306 141.005 86.82 139.687C86.659 137.773 86.536 135.633 86.536 134.745C86.536 133.975 86.5752 133.668 86.913 131.763C88.0057 125.607 88.7096 120.209 89.064 115.267C89.1443 114.142 89.1652 113.432 89.1323 112.911C89.1072 112.501 89.0821 112.075 89.0791 111.965V111.765L88.3507 112.423C86.5937 114.01 84.6869 114.789 82.0362 115.002C80.4551 115.13 78.3702 114.945 76.2385 114.485C75.8592 114.404 75.5421 114.345 75.5338 114.355C75.5197 114.367 76.9143 117.612 78.6199 121.572L81.7209 128.772L81.7811 130.189C81.8615 132.06 81.8615 137.651 81.7811 139.369C81.654 142.078 81.4609 144.387 81.1721 146.634C81.0157 147.85 80.9906 147.954 80.3098 150.183C79.9241 151.445 79.6049 152.503 79.6004 152.533C79.6004 152.575 80.5522 152.913 80.7103 152.923C80.7324 152.923 80.7665 152.745 80.7876 152.523L80.784 152.524ZM100.304 149.537C100.304 149.247 100.324 148.402 100.346 147.658L100.388 146.307H100.758H101.129V148.096V149.885H102.398H103.667V149.482C103.667 149.261 103.626 147.981 103.574 146.637C103.524 145.294 103.494 144.184 103.508 144.171C103.521 144.157 103.756 144.362 104.029 144.624C104.631 145.203 104.801 145.26 105.224 145.027C105.55 144.847 106.021 144.259 106.394 143.564C107.382 141.725 108.28 139.051 109.818 133.366L110.375 131.309L111.063 130.385C114.957 125.153 117.47 120.806 118.93 116.774C119.093 116.323 119.246 115.965 119.269 115.978C119.292 115.993 119.219 115.828 119.11 115.615C118.874 115.157 118.753 114.64 118.776 114.177C118.791 113.87 118.776 113.834 118.61 113.721C118.509 113.653 118.191 113.432 117.902 113.23C117.383 112.866 117.375 112.863 117.232 112.968C116.648 113.397 115.545 113.611 114.777 113.445L114.498 113.383L113.921 113.942C113.451 114.397 113.25 114.545 112.84 114.734C112.354 114.959 112.308 114.969 111.602 114.986C111.142 115 110.693 114.972 110.396 114.92L109.923 114.833L109.54 115.205C108.933 115.794 108.361 116.01 107.405 116.011C107.105 116.011 106.628 115.982 106.345 115.946C105.861 115.885 105.818 115.89 105.641 116.008C105.175 116.32 104.3 116.421 103.739 116.227C103.586 116.175 103.438 116.132 103.41 116.132C103.382 116.132 103.484 116.346 103.64 116.608C105.326 119.473 106.273 122.01 106.691 124.785C106.847 125.816 106.846 128.254 106.691 129.341C106.014 134.052 103.666 138.849 99.4255 144.184L98.5294 145.311V147.688V150.064H99.4178H100.306V149.536L100.304 149.537ZM132.895 147.91C133.245 147.808 133.405 147.717 133.719 147.441C134.942 146.367 136.605 145.663 138.387 145.468C138.746 145.428 139.063 145.377 139.09 145.354C139.149 145.306 139.407 143.877 139.528 142.938C139.641 142.059 139.641 138.672 139.528 137.898C138.995 134.237 137.935 131.368 135.587 127.233L134.946 126.103L133.789 125.736C132.082 125.194 130.702 124.663 129.206 123.973C126.164 122.571 124.274 121.29 120.989 118.404C120.448 117.929 119.901 117.448 119.774 117.337L119.544 117.134L119.432 117.453C119.179 118.175 118.396 119.937 117.805 121.111C116.409 123.887 114.652 126.669 112.081 130.172C111.528 130.925 111.052 131.595 111.021 131.663C110.991 131.731 110.792 132.443 110.58 133.247C109.747 136.404 108.835 139.445 108.207 141.164C108.048 141.599 107.918 141.966 107.918 141.979C107.918 141.993 108.155 142.15 108.444 142.331C109.489 142.984 110.485 143.922 111.229 144.951L111.488 145.31L111.633 144.977C112.24 143.573 113.097 142.561 114.587 141.49C114.677 141.425 114.743 141.531 115.137 142.356C115.709 143.555 116.168 144.639 116.497 145.57C116.64 145.975 116.778 146.307 116.804 146.307C116.83 146.307 117.024 146.185 117.236 146.036C117.906 145.562 118.357 144.838 118.551 143.921C118.697 143.234 118.644 141.945 118.42 140.739C118.329 140.251 118.265 139.842 118.277 139.831C118.291 139.819 118.626 139.888 119.026 139.987C121.101 140.493 122.115 141.452 122.487 143.263C122.537 143.508 122.635 144.179 122.705 144.754C122.846 145.921 122.94 146.293 123.178 146.619C123.667 147.292 124.853 147.266 126.065 146.558C126.518 146.293 126.668 146.159 127.32 145.442C129.023 143.567 130.556 142.451 132.41 141.737C132.895 141.551 135.135 140.916 135.173 140.954C135.187 140.966 134.918 141.291 134.586 141.685C133.013 143.553 131.846 145.65 131.648 146.967C131.501 147.943 131.856 148.211 132.895 147.91L132.895 147.91ZM98.829 143.817C102.695 138.91 104.925 134.643 105.753 130.563C106.028 129.21 106.1 128.488 106.099 127.075C106.099 124.024 105.436 121.524 103.793 118.368C103.148 117.129 102.338 115.755 102.155 115.589C102.035 115.479 98.776 115.168 95.0381 114.908C93.8691 114.827 92.2415 114.68 91.4214 114.582C90.6013 114.484 89.9122 114.403 89.8905 114.403C89.8684 114.403 89.8312 114.664 89.8081 114.984C89.4245 120.282 88.5575 126.861 87.4874 132.591C87.1569 134.361 87.1596 134.68 87.5516 139.956C87.6539 141.333 87.7555 142.656 87.7766 142.895L87.8157 143.33L88.279 142.916C88.9092 142.354 89.5324 141.922 90.4374 141.422L91.1988 141L91.244 141.164C91.3323 141.492 91.5484 142.75 91.5484 142.942C91.5484 143.257 91.6428 143.229 91.9003 142.836C92.3059 142.218 93.0972 141.341 93.8758 140.647C94.2831 140.283 94.6368 139.986 94.6618 139.986C94.6859 139.986 94.8005 140.207 94.9148 140.478C95.4748 141.802 96.2449 143.043 96.9634 143.78C97.326 144.152 97.9976 144.697 98.094 144.697C98.1181 144.697 98.4479 144.301 98.829 143.817V143.817ZM52.1997 136.256C52.3816 136.205 52.7442 136.024 53.0056 135.853C53.439 135.57 53.615 135.381 54.9955 133.707L56.51 131.872L56.3281 131.065C56.0961 130.036 55.8361 128.39 55.7769 127.574L55.7307 126.941L53.2562 130.103C51.8951 131.842 50.6741 133.413 50.5425 133.594C50.2285 134.025 50.091 134.476 50.131 134.944C50.2214 135.997 51.1085 136.56 52.1995 136.256H52.1997ZM66.5392 118.182C68.3594 115.586 69.8486 113.435 69.8486 113.401C69.8486 113.311 68.7848 113.091 68.347 113.091C68.1407 113.091 67.8018 113.132 67.5941 113.183C65.7345 113.639 64.3416 116.444 63.3765 121.678C63.1283 123.025 63.1307 123.008 63.1844 122.95C63.2085 122.924 64.719 120.778 66.5392 118.182V118.182ZM85.2315 92.275L94.4433 80.0171L102.11 68.6598C106.327 62.4133 109.783 57.295 109.79 57.2861C109.814 57.2568 111.336 58.4542 112.423 59.3573C114.025 60.6873 114.673 61.2033 115.469 61.7814C118.405 63.9136 121.038 64.9318 124.57 65.3015C125.71 65.421 128.847 65.3854 130.094 65.2369C132.103 65.0001 133.851 64.6938 135.868 64.2252C137.111 63.9365 138.871 63.478 139.326 63.325C140.064 63.076 141.992 62.6018 143.228 62.3648C145.187 61.989 146.724 61.8403 148.622 61.843C150.103 61.843 150.774 61.8914 152.016 62.0827C157.354 62.902 161.753 65.8288 165.041 70.7494C166.305 72.6402 167.284 74.5607 168.412 77.3626L168.493 77.5651L168.535 77.1837C168.742 75.272 168.784 74.5717 168.783 73.0155C168.783 71.1515 168.703 70.194 168.383 68.1798C168.278 67.5177 168.201 66.9674 168.212 66.9569C168.226 66.9448 168.545 67.1669 168.928 67.4466C170.825 68.834 172.409 69.4072 174.742 69.5518C175.626 69.6063 177.009 69.5518 177.903 69.436C179.019 69.2862 181.629 68.7446 181.886 68.6094C181.935 68.5842 181.627 68.5326 181.203 68.4935C179.369 68.3248 177.659 68.0084 176.313 67.5885C173.699 66.7726 171.792 65.5137 169.855 63.3255C166.366 59.3827 163.062 56.9534 159.404 55.6426C157.629 55.0065 155.883 54.7093 153.919 54.7093C151.436 54.7093 149.342 55.1615 146.464 56.3188C144.089 57.274 142.261 57.6579 140.119 57.6516C138.806 57.6516 137.894 57.5334 136.808 57.2381C133.687 56.388 131.061 54.3117 129.648 51.5776C129.206 50.7226 128.955 50.0336 128.75 49.1089C128.535 48.1386 128.506 46.5871 128.687 45.7409C128.907 44.7102 129.331 43.6751 129.834 42.9354C129.964 42.7451 130.061 42.5831 130.05 42.5749C130.036 42.5618 125.981 39.913 121.031 36.6773L112.031 30.7942L111.628 31.1269C110.859 31.7618 109.843 32.8909 109.191 33.8363C107.871 35.7511 107.047 38.1084 106.702 40.9626C106.596 41.8435 106.594 44.9126 106.702 45.9718C106.882 47.7655 107.205 49.8047 107.597 51.6075L107.784 52.472L107.621 52.7073C107.502 52.8773 94.9056 69.9341 91.4432 74.6125C90.8291 75.4426 70.735 104.401 70.7583 104.423C70.7854 104.448 75.0464 104.55 75.6477 104.54L76.0205 104.527L85.2323 92.2689L85.2315 92.275ZM123.686 55.4505C122.08 55.3747 120.594 55.3119 120.382 55.3094H119.996L119.216 54.5192C117.082 52.3582 115.684 50.3109 114.922 48.2346L114.744 47.7496L114.393 47.6462C113.381 47.3463 111.909 46.6236 111.366 46.16L111.011 45.8566L111.058 42.8308C111.085 41.1666 111.123 39.8062 111.146 39.8076C111.168 39.8076 111.386 40.0841 111.631 40.4187C112.152 41.1298 112.578 41.4502 113.801 42.0499C114.921 42.599 114.834 42.6133 114.835 41.8813C114.835 40.6941 115.236 39.5436 116.054 38.3568L116.333 37.9525L118.613 39.4229C119.867 40.2318 120.984 40.9567 121.094 41.0337L121.294 41.174L121.161 41.6374C120.968 42.3127 120.972 43.6156 121.175 44.374L121.317 44.9179L122.186 45.3087C123.535 45.9151 124.469 46.2039 125.911 46.4591C126.225 46.5147 126.502 46.5773 126.526 46.5969C126.578 46.6384 126.798 51.783 126.75 51.8277C126.674 51.8994 124.032 51.1233 123.189 50.7815C123.019 50.7118 122.87 50.6644 122.858 50.6742C122.817 50.7136 123.901 52.4914 124.248 52.9538C124.764 53.6396 125.427 54.3048 126.24 54.9527C126.63 55.2637 126.951 55.538 126.954 55.5628C126.954 55.587 126.879 55.6042 126.783 55.5992C126.688 55.5992 125.296 55.5294 123.69 55.4547L123.686 55.4505ZM124.853 54.7234C124.806 54.6668 124.637 54.4848 124.477 54.3208C124.051 53.8858 123.501 53.1686 123.074 52.4934C122.7 51.9014 121.091 48.9257 121.128 48.8943C121.141 48.8822 121.49 49.0887 121.909 49.3467C122.328 49.6047 122.956 49.9339 123.305 50.0784C123.962 50.3502 125.934 50.9749 125.985 50.9273C126.011 50.904 125.877 47.1824 125.85 47.1531C125.85 47.141 125.612 47.0975 125.335 47.0435C123.987 46.7817 122.554 46.286 121.267 45.6363L120.69 45.3447L120.583 44.9724C120.285 43.9226 120.202 42.6647 120.375 41.8232L120.456 41.4316L118.52 40.1832C117.455 39.4966 116.568 38.9377 116.549 38.9411C116.462 38.9572 116.085 39.6363 115.911 40.0873C115.561 40.9961 115.46 41.9468 115.591 43.1092C115.62 43.3717 115.64 43.5919 115.633 43.5987C115.61 43.6229 113.775 42.8044 113.215 42.5203C112.901 42.3607 112.462 42.1114 112.24 41.9662C112.018 41.8209 111.829 41.7101 111.821 41.7199C111.808 41.732 111.787 42.6011 111.765 43.6564L111.725 45.5751L111.962 45.7511C112.488 46.1413 113.895 46.7818 114.878 47.0781L115.335 47.216L115.605 47.9654C116.342 50.0036 117.816 52.1598 119.805 54.1109L120.321 54.6167L122.415 54.7127C123.567 54.7662 124.605 54.8127 124.723 54.8171C124.917 54.8303 124.929 54.8171 124.851 54.7212L124.853 54.7234ZM80.3192 89.356C85.844 81.4024 90.4142 74.8141 90.4751 74.7158C90.7103 74.3354 90.8009 73.0584 90.6259 72.5922C90.487 72.2221 90.2561 72.0247 89.7928 71.8799L89.3903 71.7539L89.554 71.5054C89.6444 71.3688 89.8012 71.0959 89.9034 70.8991C90.2307 70.2679 90.1245 69.6837 89.5627 69.0244L89.3372 68.7599L89.463 68.4579C89.5313 68.2918 89.6055 67.9507 89.6255 67.6996C89.6747 67.093 89.5371 66.8186 88.9565 66.3573C88.7244 66.1731 88.5269 66.0044 88.5174 65.9824C88.5034 65.9602 89.0065 65.7159 89.625 65.4391C92.8023 64.017 94.9745 62.7116 96.4065 61.3631C96.9847 60.8188 97.2218 60.5483 97.3744 60.2598C97.6173 59.7996 97.6404 59.4526 97.4426 59.2173C96.6106 58.2231 92.1493 58.4231 86.4403 59.711L85.6786 59.8826L85.5398 59.6063C85.4634 59.4545 85.3993 59.3124 85.3972 59.2909C85.3972 59.2687 85.6388 59.122 85.9389 58.9637L86.4846 58.6757L86.4605 58.3172C86.3761 57.0888 84.87 56.0141 82.4024 55.4219C80.1121 54.8723 77.0609 54.8482 74.8917 55.3623C73.1079 55.7852 71.8033 56.5564 71.3576 57.4516C71.2672 57.632 71.1314 57.9075 71.0545 58.0639C70.9591 58.2577 70.8004 58.4305 70.5559 58.6071C70.1228 58.92 69.8621 59.0455 68.5475 59.5743C67.989 59.7989 67.3468 60.1008 67.1199 60.2453C66.8931 60.3898 65.9936 60.9364 65.1212 61.4599C62.2633 63.1745 61.1663 64.0163 60.3913 65.0886C59.2213 66.7082 59.4298 68.4972 61.0212 70.4858C61.3692 70.921 61.4814 71.0218 61.6346 71.036C61.7384 71.0481 62.6613 70.9713 63.6868 70.8719C64.7126 70.7719 65.5894 70.6905 65.6354 70.6905C65.7037 70.6905 65.948 71.2751 65.8979 71.322C65.8849 71.3351 62.3754 72.7348 61.9992 72.8784C61.8216 72.9471 61.6375 73.4653 61.6562 73.8464C61.6693 74.0614 62.1577 74.4711 62.5931 74.6277C63.0464 74.7908 64.0609 74.8534 64.5868 74.7508C64.9264 74.6851 65.5082 74.4473 65.8628 74.2305C66.0246 74.1315 66.0788 74.1315 66.9413 74.2305C68.6073 74.4175 70.4667 74.3401 71.7571 74.0309C72.7568 73.791 73.877 73.2794 74.7083 72.6828C74.8626 72.5718 75.0123 72.4817 75.041 72.4817C75.0702 72.4817 75.1839 72.5877 75.2945 72.7171L75.4961 72.9526L74.7501 73.5302C73.7654 74.2929 72.3651 75.6254 71.9882 76.1582C71.4223 76.959 71.2163 77.5854 71.278 78.3197L71.3111 78.7136L70.9328 78.9982C69.9199 79.7606 69.3892 80.8547 69.4075 82.1424C69.4216 82.7354 69.4075 82.7964 69.1864 83.2938C68.587 84.6614 68.49 86.0752 68.9023 87.4373L69.0156 87.8125L68.703 88.4213C67.9993 89.7917 68.0308 90.6355 68.8218 91.6164L69.08 91.9363L68.7643 92.3022C68.372 92.7568 68.1858 93.1105 68.1488 93.4713C68.1156 93.7974 68.2291 94.0391 68.7299 94.7161L69.0544 95.1541V96.2666C69.0544 97.3551 69.0544 97.3866 69.2286 97.7283C69.324 97.9206 69.5022 98.2053 69.624 98.3611L69.8453 98.6447L69.6258 99.1212C69.123 100.212 69.1699 100.741 69.8553 101.704L70.2375 102.241L70.0413 102.474C69.5613 103.044 69.4903 103.517 69.8157 103.979L69.9852 104.22L70.1288 104.02C70.2071 103.91 74.7931 97.3119 80.3181 89.3583L80.3192 89.356ZM73.8671 93.7075C73.6335 93.4769 73.3871 93.2027 73.3194 93.0981C73.1631 92.8568 73.1546 92.435 73.3003 92.1487C73.3907 91.9723 73.3967 91.9041 73.3374 91.7993C73.1096 91.3992 72.8833 90.6175 72.8833 90.2311C72.8833 90.007 72.8973 89.8102 72.9154 89.7938C72.9335 89.7776 72.8371 89.5445 72.7003 89.2766C72.1794 88.2498 72.1279 87.4811 72.5318 86.7661L72.7498 86.3802L72.5394 86.1018C72.0529 85.4586 72.0131 84.8385 72.4095 84.084L72.6467 83.6328L72.4739 83.1399C72.2243 82.4286 72.2211 81.6591 72.4598 81.1665C72.5677 80.9495 72.7729 80.6918 73.0062 80.4807L73.38 80.1425L73.4152 79.4865C73.4373 79.065 73.4915 78.7265 73.5661 78.5394C73.8019 77.9517 74.4405 77.4796 75.1168 77.393C75.4967 77.3445 75.6815 77.4344 75.6815 77.6684C75.6815 77.8701 75.5338 77.9818 75.1359 78.0801C74.793 78.1659 74.4786 78.3693 74.3345 78.6011C74.2103 78.802 74.0975 79.536 74.0942 80.1724V80.56L73.7801 80.7687C72.9392 81.3269 72.8117 81.9438 73.2696 83.2359L73.4686 83.7971L73.2195 84.1311C72.6697 84.8687 72.7409 85.3768 73.5006 86.1357L73.7095 86.3446L73.425 86.7008C73.0849 87.1271 72.9247 87.586 72.9848 87.9626C73.045 88.3472 73.2396 88.8422 73.4985 89.2774C73.7095 89.6318 73.7197 89.6728 73.6494 89.8735C73.5333 90.204 73.6143 90.6318 73.9351 91.3784L74.2275 92.059L74.0672 92.2865C73.9778 92.4117 73.907 92.5687 73.907 92.6352C73.907 92.7029 74.1041 92.9564 74.3511 93.2066C74.6763 93.5364 74.7951 93.7006 74.7951 93.8203C74.7951 94.0286 74.6902 94.1268 74.4658 94.1268C74.329 94.1268 74.1921 94.0318 73.8644 93.7075H73.8671ZM75.566 60.5516C74.2655 60.4245 73.5015 60.0026 73.6236 59.4796C73.7799 58.8112 75.6841 58.4158 77.6381 58.6462C78.8193 58.7854 79.4584 59.1164 79.4584 59.5892C79.4584 60.0027 79.0245 60.2849 78.1127 60.4643C77.5683 60.5715 76.2354 60.6169 75.566 60.5522V60.5516ZM68.1988 58.973C69.7305 58.3615 70.4195 57.97 70.4195 57.7111C70.4195 57.6536 70.2412 57.4423 70.023 57.2425C69.6898 56.9374 69.5529 56.8572 69.1656 56.7403C68.5954 56.5684 67.7391 56.5544 67.1202 56.708C66.8183 56.7827 66.5752 56.8009 66.2129 56.7757C65.5331 56.7282 65.0293 56.4951 64.4127 55.9448C63.8908 55.4788 63.8593 55.4792 63.7825 55.9569C63.6623 56.7026 64.2571 57.7574 65.2316 58.5284C65.9576 59.1028 66.8002 59.4621 67.1838 59.3607C67.2701 59.3375 67.7277 59.1649 68.1988 58.9768V58.973ZM135.759 46.8303C136.894 46.3123 138.25 44.9146 139.006 43.4836C139.454 42.6343 139.608 42.0954 139.565 41.5256C139.526 41.0254 139.332 40.7459 138.889 40.5531C138.643 40.447 138.484 40.4268 137.898 40.4309C137.018 40.4441 136.574 40.5249 135.917 40.8253C134.983 41.2512 134.026 42.2772 133.598 43.3099C133.412 43.7612 133.41 43.7741 133.444 44.66C133.53 46.8431 134.25 47.5193 135.759 46.8303V46.8303ZM133.015 42.8704C133.136 42.6084 133.369 42.206 133.532 41.9766C133.873 41.4987 134.815 40.6017 135.16 40.4272C135.288 40.3625 135.39 40.2955 135.388 40.2782C135.388 40.261 134.408 39.5696 133.215 38.7414C132.022 37.9134 130.118 36.5865 128.984 35.7931C127.355 34.6535 126.442 34.0692 124.637 33.0115C122.653 31.8484 115.992 28.0355 115.233 27.6288C115.086 27.55 114.934 27.4182 114.894 27.3362C114.663 26.8526 114.588 26.7638 114.301 26.627C114.024 26.4957 113.974 26.4899 113.668 26.5543C112.998 26.6953 112.194 27.3649 111.795 28.1147C111.385 28.8845 111.389 29.4881 111.809 29.8111C111.922 29.8989 116.183 32.6929 121.278 36.0207C126.373 39.3486 130.619 42.1277 130.715 42.1965C131.016 42.4133 132.696 43.3754 132.748 43.3609C132.775 43.3478 132.897 43.1326 133.018 42.8705L133.015 42.8704ZM133.511 37.9363C133.498 37.8625 133.16 35.6314 132.76 32.9782C132.36 30.3251 132.023 28.1449 132.01 28.1333C131.957 28.0848 130.761 29.4639 130.762 29.5725C130.762 29.6382 130.987 31.3104 131.262 33.289C131.694 36.4126 131.775 36.8966 131.879 36.9669C131.943 37.0103 132.326 37.2767 132.727 37.5567C133.129 37.8367 133.474 38.0668 133.496 38.068C133.516 38.068 133.523 38.0084 133.51 37.9363H133.511ZM130.575 33.4695C130.363 31.9166 130.168 30.5734 130.142 30.4848C130.097 30.3358 129.994 30.4555 128.793 32.0466C128.078 32.9944 127.493 33.8032 127.493 33.844C127.493 33.9127 130.892 36.3416 130.939 36.3077C130.953 36.2946 130.786 35.0223 130.575 33.4695ZM128.413 31.4104C129.268 30.2756 129.979 29.3173 129.993 29.2809C130.032 29.1809 130.44 28.7107 130.75 28.4097C130.902 28.2621 131.109 28.0443 131.21 27.9257L131.392 27.7099L130.902 27.6361C129.436 27.414 127.896 26.5031 126.882 25.259L126.719 25.0599L126.211 25.8255C125.932 26.2467 125.407 27.0671 125.044 27.6485C124.681 28.23 124.355 28.7067 124.32 28.7075C124.244 28.7075 122.755 30.8799 122.743 31.0059C122.743 31.0595 123.51 31.5489 124.764 32.2849C125.881 32.9402 126.809 33.4756 126.826 33.475C126.844 33.475 127.558 32.5455 128.413 31.4108V31.4104ZM122.747 29.6869C123.33 28.8319 123.38 28.7364 123.254 28.7251C122.849 28.6877 118.524 28.6806 118.564 28.7119C118.694 28.8314 121.982 30.6661 122.036 30.6499C122.071 30.6368 122.391 30.2038 122.747 29.6818V29.6869ZM111.037 30.2307C111.129 30.1953 111.124 30.161 110.981 29.9228C110.789 29.5987 110.726 29.0477 110.831 28.5903C111.062 27.578 112.001 26.4933 113.041 26.0368C113.343 25.9046 113.497 25.8763 113.919 25.8759C114.379 25.8759 114.464 25.8941 114.744 26.0554C114.961 26.1807 115.146 26.3623 115.349 26.6516C115.631 27.0506 115.678 27.0868 116.492 27.524L117.341 27.98L120.6 28.0012L123.86 28.0225L124.518 27.0516C124.88 26.5176 125.177 26.0661 125.177 26.0482C125.177 26.03 122.898 26.034 120.112 26.0603L115.048 26.1047L114.964 25.5745C114.769 24.3406 114.406 23.6184 113.819 23.293C113.582 23.1615 113.458 23.1353 113.089 23.1371C112.287 23.1371 111.441 23.6005 110.357 24.6208C108.921 25.9733 107.985 27.6618 107.982 28.9063C107.982 29.665 108.31 30.0855 109.042 30.2597C109.299 30.3213 110.862 30.3001 111.036 30.2344L111.037 30.2307ZM132.554 26.7069C132.806 26.5465 133.299 26.1462 133.65 25.8172C134.594 24.9311 134.966 24.1967 134.957 23.2382C134.943 21.6085 133.341 19.9891 131.212 19.4532C130.578 19.2934 129.605 19.2819 129.096 19.428C128.347 19.6424 127.708 20.1897 127.376 20.9009C127.095 21.503 127.048 21.8085 127.05 23.0425V24.2054L127.23 24.5132C127.457 24.9005 128.118 25.5852 128.608 25.9395C129.572 26.6365 130.808 27.058 131.759 27.0138C132.04 26.9997 132.167 26.9512 132.552 26.7068L132.554 26.7069Z" fill="black"/>
<path d="M63.0693 124.628L63.2097 124.225L66.8604 118.92L70.585 113.628L72.7904 113.915L74.6626 114.183L76.9821 119.494L63.0693 124.628Z" fill="#0F47AF"/>
<path d="M107.382 52.3018C107.796 53.8441 108.088 55.6226 109.911 57.7709" stroke="black" stroke-width="0.7"/>
</g>
<defs>
<clipPath id="clip0_1_7089">
<rect width="600" height="400" fill="white"/>
</clipPath>
</defs>
</svg>
