<svg width="600" height="400" viewBox="0 0 600 400" fill="none" xmlns="http://www.w3.org/2000/svg" xmlns:cgf="https://coding.garden/flags"><metadata id="cgf-metadata">

<cgf:flag>
  <cgf:name>Wijdemeren</cgf:name>
  <cgf:route>nl/nh/wijdemeren</cgf:route>
  <cgf:aspect-ratio>1.5</cgf:aspect-ratio>
</cgf:flag>

</metadata><g clip-path="url(#clip0_1_7140)">
<path d="M-0.431718 -0.0883789L-1.2832 401.607H604.13V-0.0883789H-0.431718V-0.0883789Z" fill="#0856A5"/>
<path d="M-0.623125 202.542L-1.47461 400.848H603.939V202.542H-0.623125V202.542Z" fill="#2B9684"/>
<path d="M677.956 199.428C678.935 216.636 670.268 234.282 652.45 251.36C634.632 268.437 608.012 284.611 574.11 298.957C540.208 313.304 499.689 325.542 454.865 334.974C410.042 344.405 361.792 350.845 312.872 353.925C263.952 357.005 215.319 356.665 169.75 352.925C124.182 349.185 82.571 342.118 47.2932 332.127C12.0154 322.136 -16.238 309.417 -35.8538 294.697C-55.4696 279.976 -66.0634 263.543 -67.0304 246.334C-68.0093 229.126 -59.3423 211.48 -41.5243 194.403C-23.7063 177.325 2.91359 161.152 36.8154 146.805C70.7171 132.459 111.237 120.22 156.06 110.789C200.884 101.357 249.133 94.9178 298.054 91.8377C346.974 88.7575 395.607 89.0973 441.175 92.8374C486.743 96.5775 528.355 103.645 563.632 113.636C598.91 123.627 627.164 136.345 646.779 151.066C666.395 165.786 676.989 182.22 677.956 199.428V199.428Z" fill="white"/>
<path d="M107.192 77.8128L109.73 79.9221V104.6L117.575 102.491V82.0313C120.729 76.9241 123.882 77.0251 127.036 80.3439L127.266 99.7489L134.65 97.8505L133.958 78.2347C136.353 74.83 139.188 73.0347 143.418 76.3364V96.585L151.032 94.2648L150.801 74.438C145.358 61.2204 132.544 69.8849 131.189 73.3834C123.684 68.6896 119.661 71.2729 116.422 75.4927C115.497 74.2525 107.091 71.9088 107.192 77.8128V77.8128Z" fill="white"/>
<path d="M98.7712 99.2217L99.1173 105.76C95.2849 110.465 84.6304 111.155 81.1199 107.87C76.5338 104.821 74.1869 94.1557 76.6206 88.8865C82.1519 78.778 97.1883 78.3555 99.1173 81.1878C102.487 82.8363 103.595 98.4529 81.8121 98.4835L81.9275 93.6323C84.5547 93.5896 92.8576 92.681 93.5797 89.8356C96.4404 84.9281 90.9722 84.624 88.9649 85.5117C86.1263 85.6955 83.125 89.1768 82.7351 90.6793C81.5697 95.6069 82.8121 96.8664 82.8505 99.96C86.4463 108.995 98.5469 98.8183 98.7712 99.2217Z" fill="white"/>
<path d="M182.163 80.6729L181.771 87.2093C177.429 91.528 166.753 91.2128 163.631 87.6141C159.413 84.1506 158.279 73.3208 161.293 68.3085C167.933 58.7741 182.937 59.7685 184.537 62.7672C187.704 64.724 187.047 80.3619 165.377 78.343L166.038 73.5284C168.656 73.733 177.017 73.6106 178.055 70.8482C181.454 66.2359 176.049 65.4189 173.952 66.1131C171.108 66.0289 167.73 69.2093 167.173 70.6671C165.459 75.4589 166.553 76.8286 166.243 79.9093C168.803 89.2346 181.985 80.2504 182.163 80.6729V80.6729Z" fill="white"/>
<path d="M215.126 75.9944L214.428 82.5095C209.888 86.6539 199.237 85.9204 196.286 82.2026C192.234 78.5769 191.61 67.7126 194.856 62.8231C201.937 53.5578 216.881 55.1396 218.339 58.1983C221.41 60.2775 220.021 75.8752 198.465 73.0085L199.351 68.2242C201.957 68.5313 210.317 68.7368 211.484 66.0177C215.095 61.5428 209.734 60.5147 207.606 61.126C204.769 60.9303 201.245 63.9754 200.62 65.4101C198.683 70.1303 199.712 71.5416 199.257 74.6073C201.377 84.0244 214.969 75.5653 215.126 75.9944V75.9944Z" fill="white"/>
<path d="M312.385 68.9755L311.563 75.4785C306.944 79.55 296.309 78.647 293.43 74.8828C289.447 71.1931 289.03 60.3205 292.369 55.4834C299.626 46.3323 314.537 48.1518 315.936 51.2333C318.968 53.361 317.281 68.9343 295.783 65.7247L296.761 60.9553C299.361 61.3039 307.714 61.6424 308.933 58.9423C312.629 54.5256 307.288 53.4123 305.15 53.9896C302.316 53.7488 298.735 56.7373 298.083 58.1618C296.056 62.8505 297.058 64.2779 296.545 67.336C298.485 76.7853 312.236 68.544 312.385 68.9755V68.9755Z" fill="white"/>
<path d="M227.747 56.2087L229.357 58.4734L226.455 83.2214L234.545 81.3016L237.271 61.4124C241.052 56.8589 245.553 59.0034 246.729 60.7816L244.382 80.387L252.094 78.7509L253.914 59.7339C253.407 51.4121 240.799 47.2497 237.284 54.8433C232.215 51.4464 227.59 52.0469 227.747 56.2087V56.2087Z" fill="white"/>
<path d="M268.823 50.0767C264.545 49.9326 260.202 49.7347 262.824 55.3498L266.977 55.5608C267.02 60.2213 261.45 73.952 269.169 77.7077C274.092 79.0329 278.084 77.2716 280.244 75.2821L280.36 69.0598C279.346 69.9492 274.864 73.2834 272.399 70.6418C270.432 66.6359 272.383 58.937 273.438 55.6662H281.744C284.177 55.7751 284.305 53.9012 281.513 50.0767L274.591 50.2877L275.976 43.96H269.977L268.823 50.0767V50.0767Z" fill="white"/>
<path d="M59.7766 90.9955C60.9812 89.0463 64.3689 83.8115 64.1606 92.8938C71.4903 100.706 63.5517 109.815 60.9303 111.244C69.983 107.255 77.9336 118.73 67.3909 126.536C61.2646 129.905 53.181 129.598 49.5089 128.856L49.6243 124.216C53.4314 124.758 57.2385 124.517 61.0457 123.372C64.9819 121.086 64.7627 119.054 64.1606 117.045C61.5316 117.011 58.519 117.012 52.8546 117.255C50.9848 115.365 51.5591 113.699 52.7392 112.088L55.9695 108.08C61.8597 105.133 60.4387 98.7814 58.7383 98.4832C58.4948 96.1191 52.8441 96.1817 51.4702 98.4832C49.1824 101.631 49.8703 106.017 53.2007 106.92C54.4813 107.191 55.9227 107.314 57.8154 107.026L55.7388 110.189L52.7392 112.193C45.8209 113.664 40.1642 105.806 44.5481 96.4795C48.5186 90.1824 58.2808 89.4829 59.7766 90.9955V90.9955Z" fill="white"/>
<path d="M242.712 292.602C243.315 302.597 233.542 312.786 215.542 320.928C197.542 329.071 172.79 334.499 146.732 336.019C120.673 337.539 95.442 335.026 76.5893 329.033C57.7367 323.041 46.8065 314.059 46.2035 304.064C45.9049 299.115 48.1507 294.066 52.8125 289.206C57.4744 284.346 64.4611 279.769 73.3737 275.737C82.2863 271.706 92.9503 268.298 104.757 265.709C116.563 263.119 129.281 261.399 142.184 260.647C155.087 259.894 167.922 260.124 179.957 261.322C191.992 262.521 202.991 264.665 212.326 267.632C221.661 270.599 229.149 274.332 234.363 278.616C239.576 282.9 242.413 287.653 242.712 292.602V292.602Z" fill="#299484"/>
<path d="M222.949 321.857C222.461 323.7 219.098 324.698 213.601 324.631C208.104 324.564 200.923 323.438 193.638 321.5C186.353 319.562 179.561 316.971 174.755 314.297C169.95 311.624 167.525 309.086 168.013 307.243C168.502 305.4 171.865 304.402 177.362 304.469C182.859 304.536 190.039 305.662 197.324 307.6C204.609 309.538 211.402 312.128 216.207 314.802C221.013 317.476 223.438 320.013 222.949 321.857V321.857Z" fill="white"/>
<path d="M611.936 323.464C610.333 329.897 595.864 332.834 571.713 331.629C547.562 330.423 515.707 325.174 483.156 317.037C450.605 308.899 420.024 298.539 398.14 288.236C376.256 277.933 364.863 268.531 366.466 262.098C367.26 258.912 371.221 256.552 378.122 255.151C385.024 253.75 394.731 253.336 406.689 253.933C418.648 254.53 432.623 256.126 447.818 258.629C463.012 261.133 479.129 264.496 495.247 268.525C511.364 272.554 527.168 277.172 541.755 282.113C556.342 287.055 569.427 292.224 580.262 297.326C591.098 302.427 599.472 307.361 604.907 311.846C610.341 316.331 612.73 320.279 611.936 323.464Z" fill="#2B9684"/>
<path d="M259.612 230.141C260.163 242.439 250.681 254.762 233.251 264.399C215.821 274.036 191.871 280.197 166.67 281.528C141.469 282.859 117.081 279.25 98.8707 271.495C80.6609 263.74 70.1209 252.474 69.5694 240.176C69.018 227.878 78.5003 215.555 95.9302 205.918C113.36 196.281 137.31 190.12 162.511 188.789C187.712 187.458 212.1 191.067 230.31 198.822C248.52 206.577 259.06 217.843 259.612 230.141V230.141Z" fill="#ADD6C6"/>
<path d="M116.626 237.882C116.785 239.783 113.953 241.855 108.753 243.644C103.554 245.432 96.4135 246.79 88.9021 247.418C81.3907 248.047 74.124 247.895 68.7005 246.995C63.2771 246.096 60.1411 244.523 59.9826 242.622C59.824 240.722 62.6558 238.65 67.8551 236.861C73.0543 235.073 80.1951 233.715 87.7065 233.087C95.2178 232.458 102.485 232.61 107.908 233.51C113.332 234.409 116.467 235.982 116.626 237.882V237.882Z" fill="white"/>
<path d="M349.957 261.241C350.55 271.485 340.351 281.75 321.605 289.778C302.858 297.805 277.099 302.938 249.994 304.046C222.889 305.154 196.659 302.148 177.073 295.688C157.488 289.229 146.152 279.844 145.559 269.6C144.965 259.356 155.164 249.091 173.911 241.064C192.657 233.037 218.417 227.904 245.521 226.796C272.626 225.687 298.857 228.693 318.442 235.153C338.028 241.613 349.364 250.997 349.957 261.241V261.241Z" fill="#5AAD98"/>
<path d="M325.734 236.48C325.871 238.382 323.016 240.422 317.797 242.151C312.577 243.879 305.422 245.155 297.903 245.698C290.385 246.241 283.121 246.005 277.708 245.044C272.295 244.083 269.177 242.474 269.041 240.572C268.904 238.669 271.759 236.63 276.978 234.901C282.197 233.172 289.353 231.896 296.871 231.353C304.389 230.811 311.654 231.046 317.067 232.007C322.48 232.969 325.597 234.577 325.734 236.48V236.48Z" fill="white"/>
<path d="M49.457 165.438L38.0889 172.629C43.8284 178.522 45.0609 184.414 45.2688 190.307C42.5254 208.384 46.5176 226.461 58.1327 244.538L65.6118 243.639C82.342 208.857 93.2636 196.784 99.9588 194.478C120.724 187.325 118.014 224.329 115.871 246.036L123.35 250.531C139.733 229.85 161.717 210.941 164.036 185.812L169.421 182.517L164.036 181.917C166.65 166.359 155.947 157.522 146.086 153.753C143.43 153.328 141.133 153.244 139.175 153.473C116.522 156.115 130.534 191.111 158.651 184.914H161.044V181.618L153.565 178.921C147.278 175.789 144.188 172.328 141.748 169.932C136.329 165.072 138.366 160.596 146.086 162.292C156.014 166.598 158.177 173.695 160.446 179.82C153.849 205.443 139.566 219.946 126.042 235.55L125.743 200.793C124.101 185.711 107.235 177.195 94.6305 189.108C83.4215 199.372 72.734 213.814 62.321 230.456C55.4193 213.977 54.6557 197.498 54.8419 181.018C53.6805 175.825 55.64 170.632 49.457 165.438V165.438Z" fill="#0852A5"/>
<path d="M173.637 157.433L165.81 164C166.543 168.147 169.796 175.861 181.781 172.793L185.271 168.873C178.259 167.795 174.311 162.982 173.637 157.433Z" fill="#0852A5"/>
<path d="M204.804 154.425L197.895 162.665C199.83 166.519 205.527 173.24 217.997 167.413L220.811 162.776C212.737 163.394 207.054 159.656 204.804 154.425Z" fill="#0852A5"/>
<path d="M169.935 192.814L183.685 181.797L187.069 184.657C184.56 188.782 166.505 224.921 185.377 207.115L188.021 209.763L174.271 221.839C171.89 224.26 166.106 224.573 168.242 216.225L173.531 193.026L169.935 192.814V192.814Z" fill="#0852A5"/>
<path d="M216.473 178.513L201.876 189.954H206.107L198.915 232.962C193.908 227.374 195.903 243.604 195.53 252.454C197.435 263.335 203.328 256.925 204.415 252.454L217.953 181.056L216.473 178.513V178.513Z" fill="#0852A5"/>
<path d="M312.121 200.943L314.215 203.64C307.543 210.673 295.52 218.616 286.243 209.932C281.513 205.359 281.875 189.308 294.62 178.322C310.215 163.555 311.432 178.121 308.531 183.715C303.698 192.017 297.793 196.561 292.226 202.292V198.397L300.304 188.509C304.22 181.397 298.635 179.793 296.714 182.667C293.18 185.785 291.245 194.258 292.376 198.247C291.378 212.408 305.613 205.553 312.121 200.943V200.943Z" fill="#0852A5"/>
<path d="M421.415 192.781L423.509 195.478C416.836 202.511 404.814 210.454 395.537 201.77C390.807 197.197 391.169 181.146 403.914 170.16C419.509 155.393 420.726 169.959 417.825 175.553C412.992 183.854 407.087 188.399 401.52 194.13V190.235L409.598 180.347C413.514 173.235 407.929 171.631 406.008 174.504C402.474 177.623 400.539 186.096 401.67 190.085C400.671 204.246 414.907 197.391 421.415 192.781V192.781Z" fill="#0852A5"/>
<path d="M493.761 188.12L495.855 190.817C489.183 197.85 477.161 205.793 467.884 197.109C463.154 192.536 463.515 176.485 476.26 165.499C491.856 150.732 493.073 165.298 490.171 170.892C485.338 179.193 479.433 183.738 473.867 189.469V185.573L481.944 175.686C485.86 168.574 480.276 166.97 478.354 169.843C474.82 172.962 472.886 181.435 474.017 185.424C473.018 199.585 487.254 192.73 493.761 188.12V188.12Z" fill="#0852A5"/>
<path d="M512.11 160.345L500.294 165.289C514.049 173.43 507.059 186.322 499.695 198.696L503.584 201.243C508.412 198.272 513.237 195.506 514.977 191.147C518.055 183.433 524.325 177.712 529.611 171.88C532.185 169.894 536.151 164.653 533.052 175.925C525.713 191.022 529.329 200.371 536.642 194.352L547.711 187.011V183.565L540.68 188.06C538.701 188.963 535.459 189.45 538.736 181.019L543.672 165.139C544.607 161.681 542.294 156.824 538.138 160.045C529.632 165.204 523.828 172.392 516.747 178.622C517.914 170.649 516.127 164.724 512.11 160.345V160.345Z" fill="#0852A5"/>
<path d="M426.4 177.723L434.777 166.487C440.639 157.318 444.05 168.145 445.248 173.079C451.285 162.573 456.402 155.757 456.915 167.386C458.648 170.468 460.97 171.781 463.496 172.479L463.048 176.225C458.055 177.161 454.311 174.411 450.483 173.228C446.263 182.523 442.746 192.052 440.91 202.142L433.879 205.737L438.965 177.123C435.026 174.75 430.339 175.764 426.4 177.723V177.723Z" fill="#0852A5"/>
<path d="M256.398 178.445C243.917 183.843 233.887 192.431 230.044 209.075C225.96 229.392 237.894 221.385 240.455 215.266C247.289 205.436 252.704 195.607 257.374 185.777H254.608L238.503 208.749C236.35 197.787 243.183 192.961 250.379 188.383L252.331 188.546L258.35 189.198L260.953 215.755C262.664 222.748 268.394 219.796 269.737 217.548C273.778 212.931 275.611 208.315 278.034 203.699L277.058 199.3L272.991 205.98C270.56 208.221 268.191 210.104 267.46 202.558C266.353 186.891 265.242 171.524 269.9 155.472C269.756 153.571 271.256 151.67 267.948 149.77C258.341 150.039 258.736 166.446 256.398 178.445V178.445V178.445Z" fill="#0852A5"/>
<path d="M324.291 184.467L320.035 185.504C324.479 178.523 329.725 175.564 331.193 174.328C331.193 174.328 329.237 196.563 329.698 196.448C330.158 196.333 352.819 173.637 352.819 173.637C359.371 171.402 357.014 176.373 355.925 180.319L350.288 203.13L371.684 179.282C376.718 174.841 378.894 179.667 378.24 182.739L376.63 203.476C379.121 203.47 381.343 202.114 383.532 200.596L385.142 198.752L387.098 199.098C385.814 202.936 383.739 206.696 376.4 209.928C374.291 210.925 372.182 211.801 370.073 210.388L368.923 187.462L350.748 211.54C347.296 215.146 341.067 213.203 342.121 207.393L345.802 185.849L326.937 208.775C326.557 208.867 321.008 212.491 319.92 206.817L324.521 184.006L324.291 184.467V184.467Z" fill="#0852A5"/>
<path d="M331.078 174.444L330.388 188.038L334.184 180.089C336.136 172.222 333.231 174.087 331.078 174.444Z" fill="#0852A5"/>
<path d="M519.383 207.854C521.877 207.736 523.972 210.75 519.843 212.923C450.634 217.717 381.192 223.681 309.567 240.573C306.377 238.576 306.552 236.579 308.877 234.582C377.99 217.601 454.532 209.739 519.383 207.854V207.854Z" fill="#0852A5"/>
</g>
<defs>
<clipPath id="clip0_1_7140">
<rect width="600" height="400" fill="white"/>
</clipPath>
</defs>
</svg>
