<svg width="600" height="400" viewBox="0 0 600 400" fill="none" xmlns="http://www.w3.org/2000/svg" xmlns:cgf="https://coding.garden/flags"><metadata id="cgf-metadata">

<cgf:flag>
  <cgf:name>Wormerland</cgf:name>
  <cgf:route>nl/nh/wormerland</cgf:route>
  <cgf:aspect-ratio>1.5</cgf:aspect-ratio>
</cgf:flag>

</metadata><g clip-path="url(#clip0_1_7174)">
<path d="M595.932 0H4.0681C1.82135 0 0 1.82135 0 4.0681V395.932C0 398.179 1.82135 400 4.0681 400H595.932C598.179 400 600 398.179 600 395.932V4.0681C600 1.82135 598.179 0 595.932 0Z" fill="#0099FF"/>
<path fill-rule="evenodd" clip-rule="evenodd" d="M237.807 167.155C218.181 156.103 199.339 149.095 199.033 147.443C197.886 141.242 204.376 118.422 207.788 110.499C211.915 100.916 215.603 94.1671 216.335 91.482C219.58 79.589 218.957 73.1528 218.484 70.7039C217.524 65.7383 212.476 57.7613 211.93 57.1205C209.356 54.0985 203.115 50.9239 200.118 50.2999C195.879 49.4173 193.104 49.9188 190.014 50.5729C186.372 51.3438 179.4 54.8801 173.733 59.095C172.832 59.7653 171.071 65.0474 170.714 65.9998C170.356 66.9521 163.095 81.595 163.095 81.595C163.095 81.595 175.118 79.4522 176.666 78.6188C178.214 77.7855 180.168 79.8646 180.882 80.817C181.596 81.7693 188.446 85.5995 192.204 85.3769C194.134 85.2626 194.56 85.4994 198.095 79.4522C177.491 118.262 169.16 137.259 164.107 153.449C161.809 160.812 162.967 179.115 164.191 183.164C167.578 194.365 169.2 196.843 181.448 211.028C191.175 222.303 197.741 227.891 200.809 229.294C202.113 229.891 203.3 230.493 203.3 230.493C203.3 230.493 203.999 246.493 206.197 259.515C209.285 270.345 209.285 270.285 209.285 270.285L214.642 270.345C214.642 270.345 217.202 264.571 218.035 262.25C218.868 259.928 219.88 257.25 221.13 253.024C222.38 248.797 224.583 240.345 224.583 240.345C224.583 240.345 225.178 241.119 227.856 241.655C230.535 242.19 235.059 241.952 235.059 241.952C235.059 241.952 235.297 245.286 236.785 249.809C238.273 254.333 239.94 258.5 242.023 261.476C244.106 264.452 249.94 271.059 249.94 271.059L256.785 271.416L256.845 251.714C263.868 255.464 274.285 255.166 274.285 255.166L275.714 256.178C275.714 256.178 280.237 264.631 283.63 268.738C287.023 272.845 289.999 275.762 291.904 277.547C293.809 279.333 296.964 281.655 296.964 281.655L296.666 264.631C296.666 264.631 298.987 265.226 301.487 266.416C303.987 267.607 305.475 268.321 305.475 268.321C305.475 268.321 303.511 266.536 302.975 265.405C302.44 264.274 296.964 250.702 296.964 250.702L294.821 245.762L292.44 241.119L274.166 207.607C269.031 194.187 262.558 186.339 254.117 179.313C249.177 175.201 247.107 173.36 247.107 173.36" fill="#FFFFF7"/>
<path d="M170.952 65.0474C171.905 64.3331 170.893 60.5483 176.457 56.9666C187.868 49.6218 195.701 48.9169 200.392 50.3986C209.899 53.4018 211.978 56.1576 215.348 62.669C216.781 65.4372 219.414 69.3859 218.766 77.4428C218.09 85.8397 217.53 86.9233 216.269 91.9138C215.59 94.606 209.025 105.977 204.762 118.619C201.852 127.248 200.238 136.714 200.238 136.714C200.238 136.714 196.933 147.173 200.557 148.735C205.264 150.764 220.929 157.995 220.929 157.995C220.929 157.995 243.903 169.365 252.995 177.951C262.086 186.537 263.307 187.095 268.069 194.865C272.924 202.786 272.783 205.135 278.844 215.91C284.905 226.685 284.567 226.357 287.935 232.409C297.127 248.923 301.105 261.61 303.593 265.913C304.621 267.692 306.623 269.111 306.623 269.111" stroke="black" stroke-linecap="round"/>
<path d="M182.741 76.0225C179.389 77.4032 180.129 80.8471 181.195 81.5596C183.851 83.3346 193.79 88.1381 196.221 82.9486C197.755 79.6736 198.368 79.2026 198.368 79.2026C186.162 101.51 181.488 111.146 175.808 123.313C172.866 129.614 171.599 131.731 166.548 145.536C162.686 156.091 162.844 163.382 162.844 167.423C162.844 171.463 162.555 180.817 165.875 189.141C169.462 198.136 174.837 203.125 180.185 209.681C185.404 216.078 186.92 218.267 191.97 222.308C193.911 223.86 198.514 228.112 199.546 228.705C205.524 232.137 202.893 227.901 203.419 233.106C203.572 234.623 203.813 247.347 205.944 258.505C206.304 260.39 208.301 267.091 208.301 267.091" stroke="black" stroke-linecap="round" stroke-linejoin="round"/>
<path d="M215.793 267.68C215.937 267.608 220.231 257.774 222.864 247.309C223.888 243.237 224.548 240.49 224.548 240.49" stroke="black" stroke-linecap="round"/>
<path d="M234.817 238.975C236.08 258.757 248.707 269.7 248.707 269.7M213.772 235.776C213.772 235.776 215.404 235.325 224.337 240.322C229.304 243.1 234.944 241.942 234.944 241.942" stroke="black" stroke-linecap="round"/>
<path d="M206.281 169.948C201.651 166.101 194.595 163.591 191.959 170.686C190.215 175.378 191.063 183.354 191.634 186.447C194.5 201.978 198.147 211.628 203.082 214.226C205.78 215.647 209.648 214.395 209.648 214.395" stroke="black" stroke-linecap="round"/>
<path d="M207.737 207.547C209.773 219.826 220.413 222.669 220.413 222.669" stroke="black" stroke-linecap="round"/>
<path d="M229.262 226.769C229.262 226.769 217.729 227.611 216.635 211.28C263.102 229.042 251.485 194.781 251.485 194.781C270.356 209.988 272.607 214.906 272.737 218.381C272.806 220.22 272.589 226.906 272.589 226.906" stroke="black" stroke-linecap="round"/>
<path d="M225.895 214.395C228.336 240.238 248.278 233.235 248.278 233.235" stroke="black" stroke-linecap="round"/>
<path d="M235.07 216.331C240.289 237.797 254.926 233.251 254.926 233.251" stroke="black" stroke-linecap="round"/>
<path d="M242.394 216.247C249.465 241.5 263.27 231.736 263.27 231.736" stroke="black" stroke-linecap="round"/>
<path d="M247.865 214.142C257.041 232.83 263.438 231.651 263.438 231.651" stroke="black" stroke-linecap="round"/>
<path d="M251.401 210.102C264.795 222.748 269.087 220.597 271.436 223.907C272.946 226.035 273.27 228.884 270.559 230.36C268.689 231.378 263.444 231.652 263.444 231.652" stroke="black" stroke-linecap="round"/>
<path d="M272.678 222.071C280.713 228.857 285.773 228.619 285.773 228.619" stroke="black" stroke-linecap="round"/>
<path d="M271.189 230.047C278.689 240.107 283.842 244.37 288.392 246.595C294.751 249.705 296.904 250.881 296.904 250.881" stroke="black" stroke-linecap="round"/>
<path d="M261.334 232.83C270.736 243.974 281.334 253.297 288.975 255.77C293.388 257.199 300.319 258.673 300.319 258.673" stroke="black"/>
<path d="M254.025 233.15C267.954 251.007 277.32 260.172 291.308 263.024C297.951 264.378 306.621 269.112 306.621 269.112" stroke="black" stroke-linecap="round"/>
<path d="M239.672 233.961C239.672 233.961 243.241 242.402 251.964 248.678C259.169 253.862 263.571 254.214 265.833 254.571C268.095 254.928 274.345 255.226 274.345 255.226" stroke="black" stroke-linecap="round"/>
<path d="M256.785 251.773C256.845 271.238 256.845 271.238 256.845 271.238" stroke="black" stroke-linecap="round"/>
<path d="M275.595 256.119C284.107 272.964 297.023 281.773 297.023 281.773L296.596 264.627" stroke="black" stroke-linecap="round"/>
<path d="M195.127 64.2185C195.128 64.6609 194.996 65.0991 194.741 65.508C194.485 65.9169 194.11 66.2885 193.637 66.6015C193.164 66.9145 192.603 67.1628 191.984 67.3322C191.366 67.5017 190.703 67.5889 190.034 67.5889C189.365 67.5889 188.702 67.5017 188.084 67.3322C187.466 67.1628 186.904 66.9145 186.431 66.6015C185.958 66.2885 185.583 65.9169 185.328 65.508C185.072 65.0991 184.941 64.6609 184.941 64.2185C184.941 63.776 185.072 63.3379 185.328 62.929C185.583 62.5201 185.958 62.1485 186.431 61.8355C186.904 61.5225 187.466 61.2742 188.084 61.1048C188.702 60.9353 189.365 60.8481 190.034 60.8481C190.703 60.8481 191.366 60.9353 191.984 61.1048C192.603 61.2742 193.164 61.5225 193.637 61.8355C194.11 62.1485 194.485 62.5201 194.741 62.929C194.996 63.3379 195.128 63.776 195.127 64.2185V64.2185Z" fill="black"/>
<path fill-rule="evenodd" clip-rule="evenodd" d="M170.776 64.7606C140.977 87.489 126.833 90.4155 114.593 96.0386C110.909 97.7313 105.266 109.507 107.286 109.507C109.306 109.507 121.839 110.903 123.701 109.625C164.848 81.3914 180.619 80.8863 180.619 80.8863C180.619 80.8863 179.854 79.3374 180.754 77.8559C181.444 76.7195 182.694 75.9029 182.694 75.9029C182.694 75.9029 169.714 79.5395 169.882 76.8457C170.05 74.152 175.635 64.814 173.951 64.6456C172.268 64.4773 170.796 64.7736 170.776 64.7606Z" fill="black"/>
<path fill-rule="evenodd" clip-rule="evenodd" d="M207.662 265.677C191.399 318.003 176.903 334.148 176.903 334.148C176.903 334.148 160.639 334.737 157.929 336.034C152.017 338.861 144.022 340.63 144.022 346.994C144.022 353.358 144.965 353.476 144.965 353.476C144.965 353.476 149.561 347.23 152.626 346.287C155.69 345.344 159.932 346.758 159.932 346.758C159.932 346.758 152.626 351.472 151.918 353.122C151.211 354.772 148.383 365.968 148.383 365.968C148.383 365.968 150.538 357.571 159.343 355.833C168.3 354.065 167.739 352.122 174.428 349.94C178.821 348.507 181.735 345.226 181.735 345.226C181.735 345.226 183.385 351.001 188.334 351.001C193.284 351.001 204.244 349.587 203.773 353.358C203.302 357.129 203.537 359.015 203.537 359.015C203.537 359.015 210.137 350.53 206.955 345.698C205.378 343.303 187.156 338.98 187.156 338.98C187.156 338.98 189.513 325.309 203.891 302.446C217.303 281.118 216.253 266.515 216.253 266.515C216.661 266.768 211.896 266.078 209.994 263.351C207.295 259.483 205.077 253.518 205.077 253.518L207.662 265.677Z" fill="black"/>
<path fill-rule="evenodd" clip-rule="evenodd" d="M244.119 264.643C251.285 277.976 250.785 269.893 250.285 288.976C249.785 308.059 242.119 340.976 242.119 340.976C242.119 340.976 231.285 338.809 222.785 342.309C214.285 345.809 207.452 360.059 207.452 360.059C207.452 360.059 210.285 357.976 211.619 357.643C213.074 357.279 214.035 357.476 214.035 357.476C214.035 357.476 210.785 362.393 212.119 367.559C212.753 370.017 214.702 373.309 214.702 373.309C214.702 373.309 217.285 364.976 220.119 363.976C222.952 362.976 224.952 361.476 224.952 361.476C224.952 361.476 222.703 362.916 223.452 370.476C223.905 375.043 226.869 379.393 226.869 379.393C226.869 379.393 228.619 368.893 234.452 365.809C235.969 365.007 242.285 361.893 246.452 356.476C247.642 354.93 247.619 351.143 247.619 351.143C247.619 351.143 253.536 353.939 255.535 353.976C273.535 354.309 274.619 359.893 274.619 359.893C274.619 359.893 274.035 349.893 269.535 348.559C265.035 347.226 251.452 342.476 251.452 342.476C251.452 342.476 251.952 325.643 256.619 306.976C261.285 288.309 260.785 287.476 260.952 280.143C261.119 272.809 260.119 273.809 258.285 269.976C256.452 266.143 252.44 267.113 249.169 265.496C246.928 264.388 238.976 256.024 238.976 256.024L244.119 264.643Z" fill="black"/>
</g>
<defs>
<clipPath id="clip0_1_7174">
<rect width="600" height="400" fill="white"/>
</clipPath>
</defs>
</svg>
