<svg width="600" height="400" viewBox="0 0 600 400" fill="none" xmlns="http://www.w3.org/2000/svg" xmlns:cgf="https://coding.garden/flags"><metadata id="cgf-metadata">

<cgf:flag>
  <cgf:name>Ameland</cgf:name>
  <cgf:route>nl/fl/ameland</cgf:route>
  <cgf:aspect-ratio>1.5</cgf:aspect-ratio>
</cgf:flag>

</metadata><g clip-path="url(#clip0_1_2224)">
<path d="M600 0H0V400H600V0Z" fill="#253C80"/>
<path d="M600 100H0V200H600V100Z" fill="#F5DD00"/>
<path d="M600 300H0V400H600V300Z" fill="#F5DD00"/>
<path d="M289.333 90.6667C312.161 90.6667 330.667 72.1611 330.667 49.3333C330.667 26.5056 312.161 8 289.333 8C266.506 8 248 26.5056 248 49.3333C248 72.1611 266.506 90.6667 289.333 90.6667Z" fill="#E1E1E1"/>
<path d="M300 82.6667C318.41 82.6667 333.333 67.7428 333.333 49.3333C333.333 30.9238 318.41 16 300 16C281.591 16 266.667 30.9238 266.667 49.3333C266.667 67.7428 281.591 82.6667 300 82.6667Z" fill="#253C80"/>
<path d="M289.333 290.667C312.161 290.667 330.667 272.161 330.667 249.333C330.667 226.506 312.161 208 289.333 208C266.506 208 248 226.506 248 249.333C248 272.161 266.506 290.667 289.333 290.667Z" fill="#E1E1E1"/>
<path d="M300 282.667C318.41 282.667 333.333 267.743 333.333 249.333C333.333 230.924 318.41 216 300 216C281.591 216 266.667 230.924 266.667 249.333C266.667 267.743 281.591 282.667 300 282.667Z" fill="#253C80"/>
<path d="M222.667 113.333H246.667L282.667 186.667H258.667L222.667 113.333Z" fill="black"/>
<path d="M269.333 113.333H293.333L329.333 186.667H305.333L269.333 113.333Z" fill="black"/>
<path d="M316 113.333H340L376 186.667H352L316 113.333Z" fill="black"/>
<path d="M222.667 313.333H246.667L282.667 386.667H258.667L222.667 313.333Z" fill="black"/>
<path d="M269.333 313.333H293.333L329.333 386.667H305.333L269.333 313.333Z" fill="black"/>
<path d="M316 313.333H340L376 386.667H352L316 313.333Z" fill="black"/>
</g>
<defs>
<clipPath id="clip0_1_2224">
<rect width="600" height="400" fill="white"/>
</clipPath>
</defs>
</svg>
