<svg width="600" height="400" viewBox="0 0 600 400" fill="none" xmlns="http://www.w3.org/2000/svg" xmlns:cgf="https://coding.garden/flags"><metadata id="cgf-metadata">

<cgf:flag>
  <cgf:name>De Friese Meren</cgf:name>
  <cgf:route>nl/fl/de_friese_meren</cgf:route>
  <cgf:aspect-ratio>1.5</cgf:aspect-ratio>
</cgf:flag>

</metadata><g clip-path="url(#clip0_1_2248)">
<path d="M600 0H0V162.712H600V0Z" fill="white"/>
<path d="M600 162.712H0V242.373H600V162.712Z" fill="#F4E118"/>
<path d="M600 242.373H0V400H600V242.373Z" fill="#2F4694"/>
<path d="M74.3699 51.1843C84.1152 38.901 93.444 30.7198 101.788 32.2369C100.095 37.0778 97.1693 40.5411 94.1053 43.8499C100.433 42.0247 106.76 41.6979 113.087 41.2522C105.947 50.3479 94.6362 54.5417 83.861 57.6021C92.3264 69.5716 115.546 67.7582 130.412 66.7702C144.22 65.2736 158.327 59.5207 171.389 68.6038C177.085 71.7892 183.884 72.5755 190.974 72.7295C186.756 77.6219 182.135 80.2648 177.114 80.6751C180.575 85.734 186.569 90.7153 193.836 97.3306C203.984 98.5102 214.01 101.042 223.364 111.083C226.349 115.158 222.518 117.057 220.652 115.056C214.586 109.838 208.152 107.233 201.519 106.04L213.572 119.334C215.537 121.991 213.903 126.022 210.408 122.696C202.726 114.595 194.081 107.96 181.332 107.568C159.984 104.357 155.079 95.256 148.901 86.9215C139.498 87.5158 130.7 89.2695 122.88 92.8993C111.292 97.1748 100.018 102.899 85.9701 95.8026C84.3245 101.406 65.5284 101.059 52.6183 101.493C46.4059 104.936 42.7358 108.421 41.528 101.762C38.7316 101.992 37.1045 99.7256 38.3643 96.8722C41.8576 91.0718 50.291 92.6193 56.5932 91.5241C62.1385 90.9302 66.9121 89.055 71.357 86.6344C72.1851 83.0929 70.9734 79.422 70.3024 75.7855C61.0829 76.24 50.573 77.7204 51.471 70.1318C50.1626 69.7412 49.9423 68.7435 51.471 66.7702C57.7699 55.2604 65.6668 51.3138 74.3699 51.1843V51.1843Z" fill="#D00018"/>
<path d="M211.689 124.447C210.698 124.157 209.925 123.529 207.373 120.941C205.366 118.907 201.835 115.932 199.629 114.417C195.659 111.692 191.243 109.78 186.895 108.904C185.371 108.597 182.724 108.267 181.779 108.267C180.478 108.267 174.969 107.128 171.935 106.231C163.768 103.817 158.006 100.107 153.075 94.0882C152.319 93.1653 149.519 89.4517 148.756 88.3602L148.244 87.6272L147.325 87.6952C142.197 88.075 136.759 88.9746 132.318 90.1777C129.528 90.9335 127.571 91.6068 124.553 92.8494C121.573 94.0762 114.85 96.6002 112.647 97.3197C109.165 98.4566 106.909 99.0111 103.881 99.4745C102.568 99.6753 101.835 99.7163 99.4837 99.7204C96.4159 99.7255 95.4451 99.6359 93.086 99.129C91.0963 98.7015 90.4299 98.495 88.1517 97.5996C86.2958 96.8703 86.1973 96.8441 86.0612 97.0455C85.9828 97.1619 85.5656 97.5586 85.1344 97.9273C83.7123 99.1432 80.9345 100.113 77.0648 100.743C72.88 101.425 69.0705 101.679 58.4615 101.985L52.7071 102.151L51.1909 103.034C46.8509 105.561 45.466 106.174 44.1545 106.149C42.48 106.117 41.4795 105.233 40.8409 103.22L40.5907 102.432L39.8928 102.286C38.9495 102.088 38.4173 101.8 37.8882 101.199C36.9634 100.149 36.7135 99.059 37.0674 97.6192C37.5736 95.5601 39.4787 93.7335 42.2309 92.6685C44.2137 91.9013 46.361 91.5725 51.5738 91.2379C55.7605 90.9692 59.2805 90.4273 62.111 89.6158C64.3025 88.9875 68.695 87.1723 70.1225 86.3051C70.4993 86.0761 70.6665 84.4144 70.488 82.6713C70.3365 81.1919 69.5127 76.8283 69.3614 76.7041C69.2248 76.5919 67.2748 76.6198 63.781 76.7838C57.8033 77.0643 54.6536 76.6052 52.4754 75.1355C51.1953 74.2719 50.4193 72.8345 50.4031 71.2969C50.3928 70.6527 50.3573 70.5485 50.0136 70.2676C49.4558 69.811 49.2598 69.1829 49.4472 68.4519C49.627 67.7504 52.4483 63.0926 53.7279 61.3849C55.3252 59.2531 56.7972 57.7056 58.7957 56.0572C60.7168 54.4727 62.0587 53.6026 63.9801 52.6957C66.2581 51.6205 69.3506 50.8249 72.1834 50.5852C73.0135 50.515 73.7278 50.4255 73.7706 50.3864C73.8134 50.3473 74.7239 49.2592 75.7939 47.9685C83.3892 38.8058 89.9143 33.5571 95.7286 31.9334C96.8942 31.6079 98.5261 31.3559 99.4654 31.3564C100.2 31.3569 102.474 31.6189 102.594 31.717C102.693 31.7986 102.013 33.546 101.312 35.0083C100.241 37.2427 98.5027 39.8384 96.6754 41.9313C96.4201 42.2238 96.2255 42.4749 96.2431 42.4893C96.2605 42.503 96.9233 42.3783 97.7154 42.2104C99.6204 41.8068 102.537 41.4008 105.515 41.1247C108.16 40.8795 114.578 40.4073 114.578 40.4579C114.578 40.5549 112.029 43.488 111.192 44.3536C109.016 46.6048 105.018 49.5864 101.781 51.3723C97.8102 53.5625 91.7179 55.9944 86.2601 57.5677C85.5923 57.7602 85.046 57.9541 85.046 57.9986C85.046 58.2089 86.39 59.5487 87.5249 60.4699C91.6394 63.8094 97.7288 65.7443 106.44 66.4801C110.173 66.7954 117.405 66.8204 122.322 66.5352C130.436 66.0642 131.723 65.9241 138.468 64.7769C145.792 63.5312 146.659 63.4037 149.884 63.0958C152.191 62.8756 156.134 62.8805 158.284 63.1061C162.889 63.5896 167.25 65.111 170.896 67.5057C173.112 68.9615 176.403 70.2104 179.931 70.9345C182.87 71.5378 185.213 71.7687 190.998 72.0253L192.409 72.088L191.14 73.4473C187.914 76.9047 185.043 79.0108 181.975 80.1708C180.924 80.5683 179.047 81.0905 178.669 81.0905C178.502 81.0905 178.366 81.1429 178.366 81.207C178.366 81.3569 179.714 83.0022 180.911 84.3129C182.753 86.3296 185.906 89.3103 191.933 94.7325L194.022 96.6123L196.333 96.9474C204.535 98.1366 210.104 100.099 215.895 103.843C218.716 105.665 223.339 109.803 224.29 111.355C224.852 112.272 225.137 113.319 225.039 114.106C224.811 115.947 222.81 116.996 220.957 116.246C220.741 116.159 219.884 115.544 219.054 114.88C214.522 111.255 210.197 109.023 204.758 107.503C204.15 107.333 203.626 107.215 203.594 107.242C203.563 107.268 205.898 109.892 208.785 113.073C211.671 116.254 214.153 119.049 214.3 119.285C214.823 120.124 215.018 120.91 214.962 121.952C214.918 122.767 214.848 123.02 214.546 123.474C213.902 124.439 212.867 124.791 211.689 124.446V124.447ZM213.057 122.768C213.377 122.263 213.308 120.882 212.929 120.191C212.783 119.925 209.93 116.695 206.587 113.013C200.671 106.495 200.485 106.304 199.512 105.741C198.303 105.043 196.623 104.314 194.225 103.447C189.812 101.854 188.081 100.985 186.175 99.4086C184.638 98.1362 183.248 96.6803 181.804 94.8283C180.262 92.852 179.289 91.3778 176.333 86.5403L173.657 82.1613L174.434 81.8401L175.212 81.5189L178.012 86.1117C179.553 88.6378 181.219 91.2845 181.715 91.9935C184.618 96.1443 187.467 98.9165 190.201 100.252C190.894 100.59 192.736 101.343 194.293 101.925C198.227 103.394 199.95 104.169 201.467 105.156C201.649 105.274 202.446 105.512 203.239 105.684C207.669 106.648 211.493 108.141 215.296 110.39C216.89 111.332 217.996 112.112 220 113.707C221.566 114.954 221.699 115.035 222.189 115.035C223.44 115.035 223.717 113.677 222.797 112.053C222.294 111.164 220.532 109.458 217.884 107.297C214.568 104.591 211.911 102.982 208.328 101.511C204.538 99.9545 200.746 98.9883 195.58 98.2626L193.132 97.9186L190.572 95.611C181.771 87.6758 179.245 85.1432 176.553 81.5545L175.491 80.1386L175.846 80.0803C176.041 80.0481 176.732 79.9487 177.382 79.8593C179.734 79.5353 181.809 78.809 183.928 77.5672C185.095 76.8838 187.279 75.1731 188.343 74.1085L189.042 73.4103L188.068 73.3325C183.001 72.928 181.563 72.7454 178.957 72.1761C175.493 71.4196 172.483 70.2465 169.858 68.6304C167.132 66.9518 165.309 66.1261 162.667 65.3736C159.804 64.5582 157.207 64.2805 153.204 64.3623C149.329 64.4414 147.792 64.6327 138.812 66.1535C132.466 67.2282 131.151 67.3962 127.047 67.6567C113.481 68.5178 105.915 68.2931 98.6962 66.8151C92.4269 65.5314 87.5 63.0953 84.4444 59.7682C83.6604 58.9145 82.4193 57.3695 82.4229 57.2517C82.4229 57.2178 83.4132 56.9041 84.6213 56.5544C94.8231 53.602 101.886 50.2676 107.162 45.9125C108.533 44.7808 110.878 42.5171 111.015 42.1935C111.069 42.0653 110.453 42.1028 106.282 42.4817C102.256 42.8473 99.8818 43.1772 97.4493 43.7088C95.4014 44.1563 94.3906 44.4668 94.1939 44.7088C94.0887 44.8384 91.6101 47.5416 88.6861 50.7158L83.3698 56.4871L82.7313 56.0954C82.3801 55.8799 82.0742 55.6926 82.0514 55.679C82.0289 55.6652 84.852 52.5487 88.3256 48.7531C96.3959 39.9344 96.8968 39.3421 98.5087 36.7117C99.4221 35.2212 100.394 33.229 100.401 32.8331C100.401 32.7395 99.0248 32.7266 98.6163 32.8159C98.4047 32.8624 98.3009 33.0201 98.1752 33.4858C97.9453 34.3379 97.1458 35.6657 96.0808 36.9642C94.7787 38.5518 92.5389 40.8094 87.4343 45.6796C84.9668 48.0338 82.3542 50.5836 81.6285 51.3459C80.9028 52.1082 80.2807 52.7319 80.246 52.7319C80.2113 52.7319 79.8911 52.5536 79.5344 52.3357C79.143 52.0965 78.9268 51.8943 78.989 51.8255C79.9489 50.7618 83.4363 47.3123 86.3088 44.585C90.5976 40.513 93.2417 37.851 94.5009 36.3374C95.4316 35.2186 96.2436 33.9965 96.4042 33.4726L96.4958 33.1751L95.8246 33.3917C93.0976 34.2714 90.4715 35.8229 87.2768 38.4419C83.9742 41.1495 80.7857 44.4397 76.7987 49.2546L74.6542 51.8445L73.3862 51.9163C70.4032 52.0851 67.9481 52.6185 65.5868 53.6105C61.3413 55.3943 57.9667 58.251 54.6973 62.8291C53.4459 64.5814 51.172 68.4244 51.1439 68.8347C51.1204 69.1688 51.1744 69.2385 51.595 69.4261L52.0723 69.6387L52.1365 70.9335C52.211 72.4262 52.419 73.0111 53.1127 73.6744C54.2081 74.7218 55.7532 75.183 58.9085 75.4044C60.7199 75.5316 63.7569 75.4468 68.5741 75.1344C70.4816 75.0107 70.7464 74.9682 71.4617 74.67C72.8837 74.0772 73.6574 73.2032 74.4867 71.2529C74.761 70.6077 74.9994 70.064 75.0164 70.0447C75.0449 70.0124 76.6461 70.3553 76.6461 70.3938C76.6461 70.6087 75.7033 72.6821 75.3032 73.3471C74.4911 74.6971 72.8482 75.9302 71.4945 76.2061C71.296 76.2466 71.1335 76.3195 71.1335 76.3682C71.1335 76.4169 71.343 77.5114 71.599 78.8003C72.2513 82.0853 72.398 83.7634 72.186 85.515C72.0554 86.5947 71.9642 86.9493 71.7818 87.0879C71.3723 87.3989 68.2231 88.9049 66.5957 89.5681C62.0269 91.4297 58.1425 92.2157 51.1833 92.6867C47.293 92.95 45.8234 93.1253 44.3577 93.5011C42.7043 93.925 41.7907 94.3637 40.6747 95.2693C39.4772 96.2412 39.0234 96.8572 38.7687 97.8573C38.4407 99.1445 38.8013 100.193 39.753 100.718C39.9971 100.852 40.2353 100.962 40.2822 100.962C40.329 100.962 40.4325 100.651 40.5121 100.271C40.9573 98.1439 43.0165 96.7161 46.852 95.8749C48.6282 95.4854 49.7957 95.3263 54.4646 94.8384C59.2002 94.3434 59.9262 94.2458 62.7733 93.7205C65.3301 93.2489 66.5026 92.926 68.1364 92.2437C71.7639 90.7289 74.5822 88.1337 77.6242 83.5071C77.9738 82.9754 78.2749 82.5248 78.2933 82.5059C78.3361 82.4624 79.2582 82.8511 79.5762 83.0465C79.8017 83.185 79.7656 83.2666 78.9554 84.4518C75.6687 89.2588 72.9899 91.7264 69.2759 93.3677C66.3385 94.6659 62.4075 95.4396 54.7262 96.2315C48.9233 96.8297 46.7847 97.1983 44.9562 97.9152C43.354 98.5435 42.371 99.4688 42.1758 100.532C42.0349 101.3 42.4686 103.152 42.9838 103.983C43.3612 104.592 43.566 104.722 44.1489 104.721C45.0914 104.72 46.1895 104.207 49.9893 101.999C51.1734 101.311 52.2366 100.747 52.3518 100.747C53.3576 100.741 64.251 100.403 66.1459 100.317C75.5162 99.8941 80.9057 98.938 83.5429 97.231C84.7212 96.4684 85.1485 95.5343 85.5008 92.9507C85.7473 91.143 86.0612 90.1508 86.5541 89.6219C87.1288 89.0053 88.0376 88.7852 88.9429 89.0435L89.335 89.1554L89.0623 89.7924C88.806 90.3913 88.766 90.4279 88.3945 90.4056C87.7145 90.3646 87.4985 90.9812 87.0127 94.3502C86.8293 95.6226 86.6711 95.4563 88.9182 96.3523C92.6637 97.8457 96.337 98.4877 100.337 98.348C103.968 98.2212 107.48 97.5149 112.084 95.9857C114.491 95.1864 121.892 92.4034 123.831 91.5685C129.72 89.0333 136.624 87.3597 144.674 86.516C145.526 86.4267 146.427 86.3537 146.676 86.3537C147.287 86.3537 147.258 86.1569 146.57 85.6386C145.354 84.7221 143.518 83.9106 141.616 83.4476C141.074 83.316 140.613 83.196 140.591 83.1812C140.568 83.1657 140.645 82.8887 140.76 82.564L140.969 81.9738L142.178 82.2785C142.843 82.4462 144.058 82.8587 144.876 83.1953C146.151 83.7195 146.529 83.9403 147.507 84.7315C149.009 85.9468 148.869 85.7863 151.184 88.9318C154.958 94.0606 156.763 96.0947 159.522 98.3308C163.195 101.308 167.318 103.393 172.585 104.936C175.751 105.863 180.473 106.79 182.697 106.92C187.617 107.208 192.664 108.69 197.201 111.18C201.434 113.502 204.838 116.166 209.363 120.696C211.253 122.588 212.115 123.243 212.623 123.171C212.731 123.156 212.927 122.975 213.057 122.768L213.057 122.768ZM64.2426 61.7192C63.5074 61.5215 63.1809 61.365 62.5862 60.9253L62.0687 60.5427L61.7775 60.7605C61.3403 61.0875 60.695 61.3257 60.246 61.3257C59.8489 61.3257 59.8457 61.3205 59.8457 60.7432C59.8457 60.1791 59.8594 60.1571 60.2804 60.0433C60.7978 59.9036 61.3855 59.4157 62.3771 58.3023C63.5952 56.9347 64.6373 56.4433 66.2903 56.4566C67.3382 56.4652 67.6364 56.5224 69.3973 57.0539C70.5864 57.4128 70.5518 57.3596 70.1359 58.1917C70 58.4635 69.8996 58.5336 69.7153 58.4858C69.5191 58.4348 69.381 58.5715 68.9874 59.2062C67.7078 61.2693 65.9774 62.1859 64.2426 61.7192V61.7192ZM65.6657 60.3192C66.223 60.1287 66.9254 59.451 67.4369 58.6105L67.8438 57.9421L67.3557 57.8161C66.6618 57.6369 65.8231 57.6464 65.2556 57.84C64.7008 58.0291 63.8952 58.6322 63.4978 59.1558C63.2414 59.4937 63.2396 59.5197 63.458 59.7173C63.6793 59.9174 64.9015 60.4665 65.1256 60.4665C65.1857 60.4665 65.4289 60.4002 65.6655 60.3193L65.6657 60.3192Z" fill="#75000D"/>
</g>
<defs>
<clipPath id="clip0_1_2248">
<rect width="600" height="400" fill="white"/>
</clipPath>
</defs>
</svg>
