<svg width="600" height="400" viewBox="0 0 600 400" fill="none" xmlns="http://www.w3.org/2000/svg" xmlns:cgf="https://coding.garden/flags"><metadata id="cgf-metadata">

<cgf:flag>
  <cgf:name>Harlingen</cgf:name>
  <cgf:route>nl/fl/harlingen</cgf:route>
  <cgf:aspect-ratio>1.5</cgf:aspect-ratio>
</cgf:flag>

</metadata><g clip-path="url(#clip0_1_2255)">
<path d="M0 0H600V400H0V0Z" fill="#FCCC00"/>
<path d="M300 335.333C374.743 335.333 435.333 274.743 435.333 200C435.333 125.258 374.743 64.6667 300 64.6667C225.258 64.6667 164.667 125.258 164.667 200C164.667 274.743 225.258 335.333 300 335.333Z" fill="#0063BE"/>
<path d="M300 200H204.667L204.8 195.067L205.2 190.267L205.733 185.467L206.667 180.8L207.733 176.267L208.933 171.733L210.4 167.333L212.133 162.933L214.133 158.667L216.133 154.667L218.533 150.667L220.933 146.8L223.6 143.067L226.533 139.467L229.467 136L232.667 132.667L236 129.467L239.467 126.533L243.067 123.6L246.8 120.933L250.667 118.533L254.667 116.133L258.667 114.133L262.933 112.133L267.333 110.4L271.733 108.933L276.267 107.733L280.8 106.667L285.467 105.733L290.267 105.2L295.067 104.8L300 104.667V200Z" fill="#CC112F"/>
<path d="M300 200H395.333L395.2 204.933L394.8 209.733L394.267 214.533L393.333 219.2L392.267 223.733L391.067 228.267L389.6 232.667L387.867 237.067L385.867 241.333L383.867 245.333L381.467 249.333L379.067 253.2L376.4 256.933L373.467 260.533L370.533 264L367.333 267.333L364 270.533L360.533 273.467L356.933 276.4L353.2 279.067L349.333 281.467L345.333 283.867L341.333 285.867L337.067 287.867L332.667 289.6L328.267 291.067L323.733 292.267L319.2 293.333L314.533 294.267L309.733 294.8L304.933 295.2L300 295.333V200Z" fill="#CC112F"/>
<path d="M300 200V104.667L304.933 104.8L309.733 105.2L314.533 105.733L319.2 106.667L323.733 107.733L328.267 108.933L332.667 110.4L337.067 112.133L341.333 114.133L345.333 116.133L349.333 118.533L353.2 120.933L356.933 123.6L360.533 126.533L364 129.467L367.333 132.667L370.533 136L373.467 139.467L376.4 143.067L379.067 146.8L381.467 150.667L383.867 154.667L385.867 158.667L387.867 162.933L389.6 167.333L391.067 171.733L392.267 176.267L393.333 180.8L394.267 185.467L394.8 190.267L395.2 195.067L395.333 200H300Z" fill="white"/>
<path d="M300 200V295.333L295.067 295.2L290.267 294.8L285.467 294.267L280.8 293.333L276.267 292.267L271.733 291.067L267.333 289.6L262.933 287.867L258.667 285.867L254.667 283.867L250.667 281.467L246.8 279.067L243.067 276.4L239.467 273.467L236 270.533L232.667 267.333L229.467 264L226.533 260.533L223.6 256.933L220.933 253.2L218.533 249.333L216.133 245.333L214.133 241.333L212.133 237.067L210.4 232.667L208.933 228.267L207.733 223.733L206.667 219.2L205.733 214.533L205.2 209.733L204.8 204.933L204.667 200H300Z" fill="white"/>
<path fill-rule="evenodd" clip-rule="evenodd" d="M278.667 185.333H276.4L276 186.533L275.333 187.333L274.4 188L273.067 188.133L274.4 188.667L275.6 188.933H276.533L277.333 188.533L277.867 188L278.267 187.333L278.533 186.4L278.667 185.333ZM281.733 185.333H279.733L279.6 185.867V186.4L279.467 186.933L279.333 187.467L279.2 188L279.067 188.533V188.933L278.933 189.467V190.133L279.067 190.8L279.2 191.333L279.333 191.867L279.6 192.4L279.867 192.933L280.267 193.467L280.8 194L281.333 193.467L281.733 192.933L282 192.4L282.267 191.867L282.4 191.333L282.533 190.8L282.667 190.133V189.467L282.533 188.933V188.533L282.4 188L282.267 187.467L282 186.933L281.867 186.4V185.867L281.733 185.333ZM285.333 185.333H283.067L283.2 186.4L283.333 187.333L283.867 188L284.4 188.533L285.2 188.933H286.133L287.333 188.667L288.667 188.133L287.2 188L286.267 187.333L285.6 186.533L285.333 185.333ZM274.267 184.533H287.467V182.667H285.467L285.733 181.733L286 180.933L286.4 180L286.8 179.333L287.333 178.667L288 178.267L288.667 178L289.6 177.867L290.933 178.133L291.867 178.8L292.267 179.867L292 181.2L293.733 180.267L294.8 179.333L295.6 178.267L295.867 177.067V176L295.6 175.067L295.2 174.267L294.533 173.733L293.467 173.333L291.867 173.2L290.267 173.467L288.4 174.133L286.667 175.333L285.067 177.067L283.867 179.6L283.067 182.667H282L282.267 180.8L282.8 178.933L283.2 177.2L283.733 175.467L284.133 173.867L284.533 172.133L284.8 170.533L284.933 168.8L284.8 167.6L284.667 166.533L284.267 165.6L283.733 164.667L283.067 163.867L282.4 163.067L281.6 162.267L280.8 161.6L280 162.267L279.2 163.067L278.533 163.867L277.867 164.667L277.333 165.6L276.933 166.533L276.8 167.6L276.667 168.8L276.8 170.533L277.067 172.133L277.467 173.867L277.867 175.467L278.4 177.2L278.8 178.933L279.333 180.8L279.6 182.667H278.533L277.867 179.6L276.667 177.067L275.2 175.333L273.467 174.133L271.6 173.333L269.867 173.2L268.4 173.333L267.333 173.733L266.667 174.267L266.133 175.067L265.867 176V177.067L266.133 178.267L266.933 179.333L268 180.267L269.733 181.2L269.6 179.867L270 178.8L270.933 178.133L272.267 177.867L273.067 178L273.867 178.267L274.533 178.667L275.067 179.333L275.467 180.133L275.867 180.933L276.133 181.867L276.267 182.667H274.267V184.533Z" fill="#F5DC0F"/>
<path fill-rule="evenodd" clip-rule="evenodd" d="M235.067 185.333H232.8L232.4 186.533L231.733 187.333L230.8 188L229.467 188.133L230.8 188.667L232 188.933H232.933L233.733 188.533L234.267 188L234.667 187.333L234.933 186.4L235.067 185.333ZM238.133 185.333H236.133L236 185.867V186.4L235.867 186.933L235.733 187.467L235.6 188L235.467 188.533V188.933L235.333 189.467V190.133L235.467 190.8L235.6 191.333L235.733 191.867L236 192.4L236.267 192.933L236.667 193.467L237.2 194L237.733 193.467L238.133 192.933L238.4 192.4L238.667 191.867L238.8 191.333L238.933 190.8L239.067 190.133V189.467L238.933 188.933V188.533L238.8 188L238.667 187.467L238.4 186.933L238.267 186.4V185.867L238.133 185.333ZM241.733 185.333H239.467L239.6 186.4L239.733 187.333L240.267 188L240.8 188.533L241.6 188.933H242.533L243.733 188.667L245.067 188.133L243.6 188L242.667 187.333L242 186.533L241.733 185.333ZM230.667 184.533H243.867V182.667H241.867L242.133 181.733L242.4 180.933L242.8 180L243.2 179.333L243.733 178.667L244.4 178.267L245.067 178L246 177.867L247.333 178.133L248.267 178.8L248.667 179.867L248.4 181.2L250.133 180.267L251.2 179.333L252 178.267L252.267 177.067V176L252 175.067L251.6 174.267L250.933 173.733L249.867 173.333L248.267 173.2L246.667 173.467L244.8 174.133L243.067 175.333L241.467 177.067L240.267 179.6L239.467 182.667H238.4L238.667 180.8L239.2 178.933L239.6 177.2L240.133 175.467L240.533 173.867L240.933 172.133L241.2 170.533L241.333 168.8L241.2 167.6L241.067 166.533L240.667 165.6L240.133 164.667L239.467 163.867L238.8 163.067L238 162.267L237.2 161.6L236.4 162.267L235.6 163.067L234.933 163.867L234.267 164.667L233.733 165.6L233.333 166.533L233.2 167.6L233.067 168.8L233.2 170.533L233.467 172.133L233.867 173.867L234.267 175.467L234.8 177.2L235.2 178.933L235.733 180.8L236 182.667H234.933L234.267 179.6L233.067 177.067L231.6 175.333L229.867 174.133L228 173.333L226.267 173.2L224.8 173.333L223.733 173.733L223.067 174.267L222.533 175.067L222.267 176V177.067L222.533 178.267L223.333 179.333L224.4 180.267L226.133 181.2L226 179.867L226.4 178.8L227.333 178.133L228.667 177.867L229.467 178L230.267 178.267L230.933 178.667L231.467 179.333L231.867 180.133L232.267 180.933L232.533 181.867L232.667 182.667H230.667V184.533Z" fill="#F5DC0F"/>
<path fill-rule="evenodd" clip-rule="evenodd" d="M262 144.667H259.733L259.333 145.867L258.667 146.667L257.733 147.333L256.4 147.467L257.733 148L258.933 148.267H259.867L260.667 147.867L261.2 147.333L261.6 146.667L261.867 145.733L262 144.667ZM265.067 144.667H263.067L262.933 145.2V145.733L262.8 146.267L262.667 146.8L262.533 147.333L262.4 147.867V148.267L262.267 148.8V149.467L262.4 150.133L262.533 150.667L262.667 151.2L262.933 151.733L263.2 152.267L263.6 152.8L264.133 153.333L264.667 152.8L265.067 152.267L265.333 151.733L265.6 151.2L265.733 150.667L265.867 150.133L266 149.467V148.8L265.867 148.267V147.867L265.733 147.333L265.6 146.8L265.333 146.267L265.2 145.733V145.2L265.067 144.667ZM268.667 144.667H266.4L266.533 145.733L266.667 146.667L267.2 147.333L267.733 147.867L268.533 148.267H269.467L270.667 148L272 147.467L270.533 147.333L269.6 146.667L268.933 145.867L268.667 144.667ZM257.6 143.867H270.8V142H268.8L269.067 141.067L269.333 140.267L269.733 139.333L270.133 138.667L270.667 138L271.333 137.6L272 137.333L272.933 137.2L274.267 137.467L275.2 138.133L275.6 139.2L275.333 140.533L277.067 139.6L278.133 138.667L278.933 137.6L279.2 136.4V135.333L278.933 134.4L278.533 133.6L277.867 133.067L276.8 132.667L275.2 132.533L273.6 132.8L271.733 133.467L270 134.667L268.4 136.4L267.2 138.933L266.4 142H265.333L265.6 140.133L266.133 138.267L266.533 136.533L267.067 134.8L267.467 133.2L267.867 131.467L268.133 129.867L268.267 128.133L268.133 126.933L268 125.867L267.6 124.933L267.067 124L266.4 123.2L265.733 122.4L264.933 121.6L264.133 120.933L263.333 121.6L262.533 122.4L261.867 123.2L261.2 124L260.667 124.933L260.267 125.867L260.133 126.933L260 128.133L260.133 129.867L260.4 131.467L260.8 133.2L261.2 134.8L261.733 136.533L262.133 138.267L262.667 140.133L262.933 142H261.867L261.2 138.933L260 136.4L258.533 134.667L256.8 133.467L254.933 132.667L253.2 132.533L251.733 132.667L250.667 133.067L250 133.6L249.467 134.4L249.2 135.333V136.4L249.467 137.6L250.267 138.667L251.333 139.6L253.067 140.533L252.933 139.2L253.333 138.133L254.267 137.467L255.6 137.2L256.4 137.333L257.2 137.6L257.867 138L258.4 138.667L258.8 139.467L259.2 140.267L259.467 141.2L259.6 142H257.6V143.867Z" fill="#F5DC0F"/>
<path fill-rule="evenodd" clip-rule="evenodd" d="M318 229.6H315.733L315.333 230.8L314.667 231.6L313.733 232.267L312.4 232.4L313.733 232.933L314.933 233.2H315.867L316.667 232.8L317.2 232.267L317.6 231.6L317.867 230.667L318 229.6ZM321.067 229.6H319.067L318.933 230.133V230.667L318.8 231.2L318.667 231.733L318.533 232.267L318.4 232.8V233.2L318.267 233.733V234.4L318.4 235.067L318.533 235.6L318.667 236.133L318.933 236.667L319.2 237.2L319.6 237.733L320.133 238.267L320.667 237.733L321.067 237.2L321.333 236.667L321.6 236.133L321.733 235.6L321.867 235.067L322 234.4V233.733L321.867 233.2V232.8L321.733 232.267L321.6 231.733L321.333 231.2L321.2 230.667V230.133L321.067 229.6ZM324.667 229.6H322.4L322.533 230.667L322.667 231.6L323.2 232.267L323.733 232.8L324.533 233.2H325.467L326.667 232.933L328 232.4L326.533 232.267L325.6 231.6L324.933 230.8L324.667 229.6ZM313.6 228.8H326.8V226.933H324.8L325.067 226L325.333 225.2L325.733 224.267L326.133 223.6L326.667 222.933L327.333 222.533L328 222.267L328.933 222.133L330.267 222.4L331.2 223.067L331.6 224.133L331.333 225.467L333.067 224.533L334.133 223.6L334.933 222.533L335.2 221.333V220.267L334.933 219.333L334.533 218.533L333.867 218L332.8 217.6L331.2 217.467L329.6 217.733L327.733 218.4L326 219.6L324.4 221.333L323.2 223.867L322.4 226.933H321.333L321.6 225.067L322.133 223.2L322.533 221.467L323.067 219.733L323.467 218.133L323.867 216.4L324.133 214.8L324.267 213.067L324.133 211.867L324 210.8L323.6 209.867L323.067 208.933L322.4 208.133L321.733 207.333L320.933 206.533L320.133 205.867L319.333 206.533L318.533 207.333L317.867 208.133L317.2 208.933L316.667 209.867L316.267 210.8L316.133 211.867L316 213.067L316.133 214.8L316.4 216.4L316.8 218.133L317.2 219.733L317.733 221.467L318.133 223.2L318.667 225.067L318.933 226.933H317.867L317.2 223.867L316 221.333L314.533 219.6L312.8 218.4L310.933 217.6L309.2 217.467L307.733 217.6L306.667 218L306 218.533L305.467 219.333L305.2 220.267V221.333L305.467 222.533L306.267 223.6L307.333 224.533L309.067 225.467L308.933 224.133L309.333 223.067L310.267 222.4L311.6 222.133L312.4 222.267L313.2 222.533L313.867 222.933L314.4 223.6L314.8 224.4L315.2 225.2L315.467 226.133L315.6 226.933H313.6V228.8Z" fill="#F5DC0F"/>
<path fill-rule="evenodd" clip-rule="evenodd" d="M361.6 229.6H359.333L358.933 230.8L358.267 231.6L357.333 232.267L356 232.4L357.333 232.933L358.533 233.2H359.467L360.267 232.8L360.8 232.267L361.2 231.6L361.467 230.667L361.6 229.6ZM364.667 229.6H362.667L362.533 230.133V230.667L362.4 231.2L362.267 231.733L362.133 232.267L362 232.8V233.2L361.867 233.733V234.4L362 235.067L362.133 235.6L362.267 236.133L362.533 236.667L362.8 237.2L363.2 237.733L363.733 238.267L364.267 237.733L364.667 237.2L364.933 236.667L365.2 236.133L365.333 235.6L365.467 235.067L365.6 234.4V233.733L365.467 233.2V232.8L365.333 232.267L365.2 231.733L364.933 231.2L364.8 230.667V230.133L364.667 229.6ZM368.267 229.6H366L366.133 230.667L366.267 231.6L366.8 232.267L367.333 232.8L368.133 233.2H369.067L370.267 232.933L371.6 232.4L370.133 232.267L369.2 231.6L368.533 230.8L368.267 229.6ZM357.2 228.8H370.4V226.933H368.4L368.667 226L368.933 225.2L369.333 224.267L369.733 223.6L370.267 222.933L370.933 222.533L371.6 222.267L372.533 222.133L373.867 222.4L374.8 223.067L375.2 224.133L374.933 225.467L376.667 224.533L377.733 223.6L378.533 222.533L378.8 221.333V220.267L378.533 219.333L378.133 218.533L377.467 218L376.4 217.6L374.8 217.467L373.2 217.733L371.333 218.4L369.6 219.6L368 221.333L366.8 223.867L366 226.933H364.933L365.2 225.067L365.733 223.2L366.133 221.467L366.667 219.733L367.067 218.133L367.467 216.4L367.733 214.8L367.867 213.067L367.733 211.867L367.6 210.8L367.2 209.867L366.667 208.933L366 208.133L365.333 207.333L364.533 206.533L363.733 205.867L362.933 206.533L362.133 207.333L361.467 208.133L360.8 208.933L360.267 209.867L359.867 210.8L359.733 211.867L359.6 213.067L359.733 214.8L360 216.4L360.4 218.133L360.8 219.733L361.333 221.467L361.733 223.2L362.267 225.067L362.533 226.933H361.467L360.8 223.867L359.6 221.333L358.133 219.6L356.4 218.4L354.533 217.6L352.8 217.467L351.333 217.6L350.267 218L349.6 218.533L349.067 219.333L348.8 220.267V221.333L349.067 222.533L349.867 223.6L350.933 224.533L352.667 225.467L352.533 224.133L352.933 223.067L353.867 222.4L355.2 222.133L356 222.267L356.8 222.533L357.467 222.933L358 223.6L358.4 224.4L358.8 225.2L359.067 226.133L359.2 226.933H357.2V228.8Z" fill="#F5DC0F"/>
<path fill-rule="evenodd" clip-rule="evenodd" d="M335.2 266.933H332.933L332.533 268.133L331.867 268.933L330.933 269.6L329.6 269.733L330.933 270.267L332.133 270.533H333.067L333.867 270.133L334.4 269.6L334.8 268.933L335.067 268L335.2 266.933ZM338.267 266.933H336.267L336.133 267.467V268L336 268.533L335.867 269.067L335.733 269.6L335.6 270.133V270.533L335.467 271.067V271.733L335.6 272.4L335.733 272.933L335.867 273.467L336.133 274L336.4 274.533L336.8 275.067L337.333 275.6L337.867 275.067L338.267 274.533L338.533 274L338.8 273.467L338.933 272.933L339.067 272.4L339.2 271.733V271.067L339.067 270.533V270.133L338.933 269.6L338.8 269.067L338.533 268.533L338.4 268V267.467L338.267 266.933ZM341.867 266.933H339.6L339.733 268L339.867 268.933L340.4 269.6L340.933 270.133L341.733 270.533H342.667L343.867 270.267L345.2 269.733L343.733 269.6L342.8 268.933L342.133 268.133L341.867 266.933ZM330.8 266.133H344V264.267H342L342.267 263.333L342.533 262.533L342.933 261.6L343.333 260.933L343.867 260.267L344.533 259.867L345.2 259.6L346.133 259.467L347.467 259.733L348.4 260.4L348.8 261.467L348.533 262.8L350.267 261.867L351.333 260.933L352.133 259.867L352.4 258.667V257.6L352.133 256.667L351.733 255.867L351.067 255.333L350 254.933L348.4 254.8L346.8 255.067L344.933 255.733L343.2 256.933L341.6 258.667L340.4 261.2L339.6 264.267H338.533L338.8 262.4L339.333 260.533L339.733 258.8L340.267 257.067L340.667 255.467L341.067 253.733L341.333 252.133L341.467 250.4L341.333 249.2L341.2 248.133L340.8 247.2L340.267 246.267L339.6 245.467L338.933 244.667L338.133 243.867L337.333 243.2L336.533 243.867L335.733 244.667L335.067 245.467L334.4 246.267L333.867 247.2L333.467 248.133L333.333 249.2L333.2 250.4L333.333 252.133L333.6 253.733L334 255.467L334.4 257.067L334.933 258.8L335.333 260.533L335.867 262.4L336.133 264.267H335.067L334.4 261.2L333.2 258.667L331.733 256.933L330 255.733L328.133 254.933L326.4 254.8L324.933 254.933L323.867 255.333L323.2 255.867L322.667 256.667L322.4 257.6V258.667L322.667 259.867L323.467 260.933L324.533 261.867L326.267 262.8L326.133 261.467L326.533 260.4L327.467 259.733L328.8 259.467L329.6 259.6L330.4 259.867L331.067 260.267L331.6 260.933L332 261.733L332.4 262.533L332.667 263.467L332.8 264.267H330.8V266.133Z" fill="#F5DC0F"/>
<path d="M0 355.467H600V400H0V355.467Z" fill="#0063BE"/>
<path d="M0 0H600V44.5333H0V0Z" fill="#0063BE"/>
<path d="M318.533 181.467L317.067 181.6H315.733L314.267 181.733L312.933 181.867L311.6 182.133L310.267 182.267L308.933 182.533L307.6 182.8L307.733 182.133V181.6L307.867 180.933V180.267L308 179.733V179.067V178.533V177.867V177.2V176.667V176L307.867 175.333V174.8L307.733 174.133V173.6L307.6 172.933L308.933 173.067L310.267 173.333L311.6 173.467L312.933 173.733L314.267 173.867L315.733 174L317.067 174.133L318.533 174.267L318.4 172.8L318.267 171.467L318.133 170L318 168.667L317.733 167.333L317.6 166L317.333 164.667L317.2 163.333L317.867 163.467H318.4L319.067 163.6H319.733L320.267 163.733H320.933H321.467H322.133H322.8H323.333H324L324.533 163.6H325.2L325.733 163.467H326.4L327.067 163.333L326.8 164.667L326.533 166L326.4 167.333L326.267 168.667L326 170L325.867 171.467V172.8L325.733 174.267L327.2 174.133L328.533 174L330 173.867L331.333 173.733L332.667 173.467L334 173.333L335.333 173.067L336.667 172.933L336.533 173.6V174.133L336.4 174.8V175.333L336.267 176V176.667V177.2V177.867V178.533V179.067V179.733L336.4 180.267V180.933L336.533 181.6V182.133L336.667 182.8L335.333 182.533L334 182.267L332.667 182.133L331.333 181.867L330 181.733L328.533 181.6H327.2L325.733 181.467L325.867 182.933V184.267L326 185.733L326.267 187.067L326.4 188.4L326.533 189.733L326.8 191.067L327.067 192.4L326.4 192.267H325.867L325.2 192.133H324.667L324 192H323.333H322.8H322.133H321.467H320.933H320.267L319.733 192.133H319.067L318.4 192.267H317.867L317.2 192.4L317.333 191.067L317.6 189.733L317.733 188.4L318 187.067L318.133 185.733L318.267 184.267L318.4 182.933L318.533 181.467Z" fill="#CC112F"/>
<path d="M366.533 181.467L365.067 181.6H363.733L362.267 181.733L360.933 181.867L359.6 182.133L358.267 182.267L356.933 182.533L355.6 182.8L355.733 182.133V181.6L355.867 180.933V180.267L356 179.733V179.067V178.533V177.867V177.2V176.667V176L355.867 175.333V174.8L355.733 174.133V173.6L355.6 172.933L356.933 173.067L358.267 173.333L359.6 173.467L360.933 173.733L362.267 173.867L363.733 174L365.067 174.133L366.533 174.267L366.4 172.8L366.267 171.467L366.133 170L366 168.667L365.733 167.333L365.6 166L365.333 164.667L365.2 163.333L365.867 163.467H366.4L367.067 163.6H367.733L368.267 163.733H368.933H369.467H370.133H370.8H371.333H372L372.533 163.6H373.2L373.733 163.467H374.4L375.067 163.333L374.8 164.667L374.533 166L374.4 167.333L374.267 168.667L374 170L373.867 171.467V172.8L373.733 174.267L375.2 174.133L376.533 174L378 173.867L379.333 173.733L380.667 173.467L382 173.333L383.333 173.067L384.667 172.933L384.533 173.6V174.133L384.4 174.8V175.333L384.267 176V176.667V177.2V177.867V178.533V179.067V179.733L384.4 180.267V180.933L384.533 181.6V182.133L384.667 182.8L383.333 182.533L382 182.267L380.667 182.133L379.333 181.867L378 181.733L376.533 181.6H375.2L373.733 181.467L373.867 182.933V184.267L374 185.733L374.267 187.067L374.4 188.4L374.533 189.733L374.8 191.067L375.067 192.4L374.4 192.267H373.867L373.2 192.133H372.667L372 192H371.333H370.8H370.133H369.467H368.933H368.267L367.733 192.133H367.067L366.4 192.267H365.867L365.2 192.4L365.333 191.067L365.6 189.733L365.733 188.4L366 187.067L366.133 185.733L366.267 184.267L366.4 182.933L366.533 181.467Z" fill="#CC112F"/>
<path d="M348.533 151.467L347.067 151.6H345.733L344.267 151.733L342.933 151.867L341.6 152.133L340.267 152.267L338.933 152.533L337.6 152.8L337.733 152.133V151.6L337.867 150.933V150.267L338 149.733V149.067V148.533V147.867V147.2V146.667V146L337.867 145.333V144.8L337.733 144.133V143.6L337.6 142.933L338.933 143.067L340.267 143.333L341.6 143.467L342.933 143.733L344.267 143.867L345.733 144L347.067 144.133L348.533 144.267L348.4 142.8L348.267 141.467L348.133 140L348 138.667L347.733 137.333L347.6 136L347.333 134.667L347.2 133.333L347.867 133.467H348.4L349.067 133.6H349.733L350.267 133.733H350.933H351.467H352.133H352.8H353.333H354L354.533 133.6H355.2L355.733 133.467H356.4L357.067 133.333L356.8 134.667L356.533 136L356.4 137.333L356.267 138.667L356 140L355.867 141.467V142.8L355.733 144.267L357.2 144.133L358.533 144L360 143.867L361.333 143.733L362.667 143.467L364 143.333L365.333 143.067L366.667 142.933L366.533 143.6V144.133L366.4 144.8V145.333L366.267 146V146.667V147.2V147.867V148.533V149.067V149.733L366.4 150.267V150.933L366.533 151.6V152.133L366.667 152.8L365.333 152.533L364 152.267L362.667 152.133L361.333 151.867L360 151.733L358.533 151.6H357.2L355.733 151.467L355.867 152.933V154.267L356 155.733L356.267 157.067L356.4 158.4L356.533 159.733L356.8 161.067L357.067 162.4L356.4 162.267H355.867L355.2 162.133H354.667L354 162H353.333H352.8H352.133H351.467H350.933H350.267L349.733 162.133H349.067L348.4 162.267H347.867L347.2 162.4L347.333 161.067L347.6 159.733L347.733 158.4L348 157.067L348.133 155.733L348.267 154.267L348.4 152.933L348.533 151.467Z" fill="#CC112F"/>
<path d="M318.533 133.467L317.067 133.6H315.733L314.267 133.733L312.933 133.867L311.6 134.133L310.267 134.267L308.933 134.533L307.6 134.8L307.733 134.133V133.6L307.867 132.933V132.267L308 131.733V131.067V130.533V129.867V129.2V128.667V128L307.867 127.333V126.8L307.733 126.133V125.6L307.6 124.933L308.933 125.067L310.267 125.333L311.6 125.467L312.933 125.733L314.267 125.867L315.733 126L317.067 126.133L318.533 126.267L318.4 124.8L318.267 123.467L318.133 122L318 120.667L317.733 119.333L317.6 118L317.333 116.667L317.2 115.333L317.867 115.467H318.4L319.067 115.6H319.733L320.267 115.733H320.933H321.467H322.133H322.8H323.333H324L324.533 115.6H325.2L325.733 115.467H326.4L327.067 115.333L326.8 116.667L326.533 118L326.4 119.333L326.267 120.667L326 122L325.867 123.467V124.8L325.733 126.267L327.2 126.133L328.533 126L330 125.867L331.333 125.733L332.667 125.467L334 125.333L335.333 125.067L336.667 124.933L336.533 125.6V126.133L336.4 126.8V127.333L336.267 128V128.667V129.2V129.867V130.533V131.067V131.733L336.4 132.267V132.933L336.533 133.6V134.133L336.667 134.8L335.333 134.533L334 134.267L332.667 134.133L331.333 133.867L330 133.733L328.533 133.6H327.2L325.733 133.467L325.867 134.933V136.267L326 137.733L326.267 139.067L326.4 140.4L326.533 141.733L326.8 143.067L327.067 144.4L326.4 144.267H325.867L325.2 144.133H324.667L324 144H323.333H322.8H322.133H321.467H320.933H320.267L319.733 144.133H319.067L318.4 144.267H317.867L317.2 144.4L317.333 143.067L317.6 141.733L317.733 140.4L318 139.067L318.133 137.733L318.267 136.267L318.4 134.933L318.533 133.467Z" fill="#CC112F"/>
<path d="M281.467 218.533L282.933 218.4H284.267L285.733 218.267L287.067 218L288.4 217.867L289.733 217.733L291.067 217.467L292.4 217.2L292.267 217.867V218.4L292.133 219.067V219.6L292 220.267V220.933V221.467V222.133V222.8V223.333V224L292.133 224.533V225.2L292.267 225.867V226.4L292.4 227.067L291.067 226.933L289.733 226.667L288.4 226.533L287.067 226.267L285.733 226.133L284.267 226L282.933 225.867L281.467 225.733L281.6 227.2L281.733 228.533L281.867 230L282 231.333L282.267 232.667L282.4 234L282.667 235.333L282.8 236.667L282.133 236.533H281.6L280.933 236.4H280.4L279.733 236.267H279.067H278.533H277.867H277.2H276.667H276L275.467 236.4H274.8L274.267 236.533H273.6L272.933 236.667L273.2 235.333L273.467 234L273.6 232.667L273.867 231.333L274 230L274.133 228.533V227.2L274.267 225.733L272.8 225.867L271.467 226L270 226.133L268.667 226.267L267.333 226.533L266 226.667L264.667 226.933L263.333 227.067L263.467 226.4V225.867L263.6 225.2V224.533L263.733 224V223.333V222.8V222.133V221.467V220.933V220.267L263.6 219.6V219.067L263.467 218.4V217.867L263.333 217.2L264.667 217.467L266 217.733L267.333 217.867L268.667 218L270 218.267L271.467 218.4H272.8L274.267 218.533L274.133 217.067V215.733L274 214.267L273.867 212.933L273.6 211.6L273.467 210.267L273.2 208.933L272.933 207.6L273.6 207.733H274.133L274.8 207.867H275.467L276 208H276.667H277.2H277.867H278.533H279.067H279.733L280.4 207.867H280.933L281.6 207.733H282.133L282.8 207.6L282.667 208.933L282.4 210.267L282.267 211.6L282 212.933L281.867 214.267L281.733 215.733L281.6 217.067L281.467 218.533Z" fill="#CC112F"/>
<path d="M233.467 218.533L234.933 218.4H236.267L237.733 218.267L239.067 218L240.4 217.867L241.733 217.733L243.067 217.467L244.4 217.2L244.267 217.867V218.4L244.133 219.067V219.6L244 220.267V220.933V221.467V222.133V222.8V223.333V224L244.133 224.533V225.2L244.267 225.867V226.4L244.4 227.067L243.067 226.933L241.733 226.667L240.4 226.533L239.067 226.267L237.733 226.133L236.267 226L234.933 225.867L233.467 225.733L233.6 227.2L233.733 228.533L233.867 230L234 231.333L234.267 232.667L234.4 234L234.667 235.333L234.8 236.667L234.133 236.533H233.6L232.933 236.4H232.4L231.733 236.267H231.067H230.533H229.867H229.2H228.667H228L227.467 236.4H226.8L226.267 236.533H225.6L224.933 236.667L225.2 235.333L225.467 234L225.6 232.667L225.867 231.333L226 230L226.133 228.533V227.2L226.267 225.733L224.8 225.867L223.467 226L222 226.133L220.667 226.267L219.333 226.533L218 226.667L216.667 226.933L215.333 227.067L215.467 226.4V225.867L215.6 225.2V224.533L215.733 224V223.333V222.8V222.133V221.467V220.933V220.267L215.6 219.6V219.067L215.467 218.4V217.867L215.333 217.2L216.667 217.467L218 217.733L219.333 217.867L220.667 218L222 218.267L223.467 218.4H224.8L226.267 218.533L226.133 217.067V215.733L226 214.267L225.867 212.933L225.6 211.6L225.467 210.267L225.2 208.933L224.933 207.6L225.6 207.733H226.133L226.8 207.867H227.467L228 208H228.667H229.2H229.867H230.533H231.067H231.733L232.4 207.867H232.933L233.6 207.733H234.133L234.8 207.6L234.667 208.933L234.4 210.267L234.267 211.6L234 212.933L233.867 214.267L233.733 215.733L233.6 217.067L233.467 218.533Z" fill="#CC112F"/>
<path d="M251.467 248.533L252.933 248.4H254.267L255.733 248.267L257.067 248L258.4 247.867L259.733 247.733L261.067 247.467L262.4 247.2L262.267 247.867V248.4L262.133 249.067V249.6L262 250.267V250.933V251.467V252.133V252.8V253.333V254L262.133 254.533V255.2L262.267 255.867V256.4L262.4 257.067L261.067 256.933L259.733 256.667L258.4 256.533L257.067 256.267L255.733 256.133L254.267 256L252.933 255.867L251.467 255.733L251.6 257.2L251.733 258.533L251.867 260L252 261.333L252.267 262.667L252.4 264L252.667 265.333L252.8 266.667L252.133 266.533H251.6L250.933 266.4H250.4L249.733 266.267H249.067H248.533H247.867H247.2H246.667H246L245.467 266.4H244.8L244.267 266.533H243.6L242.933 266.667L243.2 265.333L243.467 264L243.6 262.667L243.867 261.333L244 260L244.133 258.533V257.2L244.267 255.733L242.8 255.867L241.467 256L240 256.133L238.667 256.267L237.333 256.533L236 256.667L234.667 256.933L233.333 257.067L233.467 256.4V255.867L233.6 255.2V254.533L233.733 254V253.333V252.8V252.133V251.467V250.933V250.267L233.6 249.6V249.067L233.467 248.4V247.867L233.333 247.2L234.667 247.467L236 247.733L237.333 247.867L238.667 248L240 248.267L241.467 248.4H242.8L244.267 248.533L244.133 247.067V245.733L244 244.267L243.867 242.933L243.6 241.6L243.467 240.267L243.2 238.933L242.933 237.6L243.6 237.733H244.133L244.8 237.867H245.467L246 238H246.667H247.2H247.867H248.533H249.067H249.733L250.4 237.867H250.933L251.6 237.733H252.133L252.8 237.6L252.667 238.933L252.4 240.267L252.267 241.6L252 242.933L251.867 244.267L251.733 245.733L251.6 247.067L251.467 248.533Z" fill="#CC112F"/>
<path d="M281.467 266.533L282.933 266.4H284.267L285.733 266.267L287.067 266L288.4 265.867L289.733 265.733L291.067 265.467L292.4 265.2L292.267 265.867V266.4L292.133 267.067V267.6L292 268.267V268.933V269.467V270.133V270.8V271.333V272L292.133 272.533V273.2L292.267 273.867V274.4L292.4 275.067L291.067 274.933L289.733 274.667L288.4 274.533L287.067 274.267L285.733 274.133L284.267 274L282.933 273.867L281.467 273.733L281.6 275.2L281.733 276.533L281.867 278L282 279.333L282.267 280.667L282.4 282L282.667 283.333L282.8 284.667L282.133 284.533H281.6L280.933 284.4H280.4L279.733 284.267H279.067H278.533H277.867H277.2H276.667H276L275.467 284.4H274.8L274.267 284.533H273.6L272.933 284.667L273.2 283.333L273.467 282L273.6 280.667L273.867 279.333L274 278L274.133 276.533V275.2L274.267 273.733L272.8 273.867L271.467 274L270 274.133L268.667 274.267L267.333 274.533L266 274.667L264.667 274.933L263.333 275.067L263.467 274.4V273.867L263.6 273.2V272.533L263.733 272V271.333V270.8V270.133V269.467V268.933V268.267L263.6 267.6V267.067L263.467 266.4V265.867L263.333 265.2L264.667 265.467L266 265.733L267.333 265.867L268.667 266L270 266.267L271.467 266.4H272.8L274.267 266.533L274.133 265.067V263.733L274 262.267L273.867 260.933L273.6 259.6L273.467 258.267L273.2 256.933L272.933 255.6L273.6 255.733H274.133L274.8 255.867H275.467L276 256H276.667H277.2H277.867H278.533H279.067H279.733L280.4 255.867H280.933L281.6 255.733H282.133L282.8 255.6L282.667 256.933L282.4 258.267L282.267 259.6L282 260.933L281.867 262.267L281.733 263.733L281.6 265.067L281.467 266.533Z" fill="#CC112F"/>
</g>
<defs>
<clipPath id="clip0_1_2255">
<rect width="600" height="400" fill="white"/>
</clipPath>
</defs>
</svg>
