<svg width="600" height="400" viewBox="0 0 600 400" fill="none" xmlns="http://www.w3.org/2000/svg" xmlns:cgf="https://coding.garden/flags"><metadata id="cgf-metadata">

<cgf:flag>
  <cgf:name>Heerenveen</cgf:name>
  <cgf:route>nl/fl/heerenveen</cgf:route>
  <cgf:aspect-ratio>1.5</cgf:aspect-ratio>
</cgf:flag>

</metadata><g clip-path="url(#clip0_1_1266)">
<path d="M0 0H133.333V400H0V0Z" fill="#0039A6"/>
<path d="M66.7999 101.2H103.6L108.133 88.1333V87.8666L108.267 87.5999V87.1999V86.9333L108 85.5999L107.467 84.3999L106.4 83.1999L105.067 81.9999L103.333 80.9333L101.2 79.8666L98.7999 78.9333L96.1333 77.9999L93.1999 77.1999L89.9999 76.3999L86.5333 75.8666L82.9333 75.3333L79.1999 74.7999L75.1999 74.5333L71.0666 74.2666H66.7999H62.5333L58.3999 74.5333L54.3999 74.7999L50.6666 75.3333L47.0666 75.8666L43.5999 76.3999L40.3999 77.1999L37.4666 77.9999L34.7999 78.9333L32.3999 79.8666L30.2666 80.9333L28.5333 81.9999L27.1999 83.1999L26.1333 84.3999L25.5999 85.5999L25.3333 86.9333V87.1999L25.4666 87.5999V87.8666V88.1333L29.9999 101.2H66.7999Z" fill="black"/>
<path d="M102.133 100.667L103.6 99.6001H66.8V102.8H103.6L105.067 101.733L103.6 102.8L104.8 102.267L105.2 101.2L104.8 100.133L103.6 99.6001L102.133 100.667Z" fill="black"/>
<path d="M106.533 88.1334L106.667 87.6001L102.133 100.667L105.067 101.733L109.6 88.6667L109.733 88.1334L109.6 88.6667L109.467 87.4667L108.667 86.6667H107.467L106.667 87.6001L106.533 88.1334Z" fill="black"/>
<path d="M106.667 86.9333V87.2V87.3333L106.533 87.4667V88.1333H109.733V88.2667L109.867 87.8667V87.2V86.9333H106.667Z" fill="black"/>
<path d="M66.8 75.8667H71.0666L75.0666 76.1334L79.0666 76.4001L82.6666 76.9334L86.2666 77.4667L89.7333 78.0001L92.8 78.8001L95.6 79.4667L98.2666 80.4001L100.533 81.3334L102.533 82.4001L104.133 83.3334L105.333 84.2667L106.133 85.3334L106.533 86.1334L106.667 86.9334H109.867L109.467 85.0667L108.8 83.4667L107.467 82.1334L106 80.6667L104.133 79.4667L101.867 78.4001L99.3333 77.4667L96.6666 76.5334L93.6 75.6001L90.2666 74.8001L86.8 74.2667L83.2 73.7334L79.3333 73.2001L75.3333 72.9334L71.0666 72.6667H66.8L65.6 73.2001L65.2 74.2667L65.6 75.3334L66.8 75.8667Z" fill="black"/>
<path d="M26.9334 86.9334L27.0667 86.1334L27.4667 85.3334L28.2667 84.2667L29.4667 83.3334L31.0667 82.4001L33.0667 81.3334L35.3334 80.4001L38.0001 79.4667L40.8001 78.8001L43.8667 78.0001L47.3334 77.4667L50.9334 76.9334L54.5334 76.4001L58.5334 76.1334L62.5334 75.8667H66.8001V72.6667H62.5334L58.2667 72.9334L54.2667 73.2001L50.4001 73.7334L46.8001 74.2667L43.3334 74.8001L40.0001 75.6001L36.9334 76.5334L34.2667 77.4667L31.7334 78.4001L29.4667 79.4667L27.6001 80.6667L26.1334 82.1334L24.8001 83.4667L24.1334 85.0667L23.7334 86.9334H26.9334Z" fill="black"/>
<path d="M26.9334 87.6L27.0667 88.1333V87.8667V87.3333L26.9334 86.9333H23.7334V87.4667L23.8667 87.8667V88.1333L24.0001 88.6667L23.8667 88.1333L24.4001 89.3333L25.4667 89.7333L26.5334 89.3333L27.0667 88.1333L26.9334 87.6Z" fill="black"/>
<path d="M30 99.6001L31.4667 100.667L26.9333 87.6001L24 88.6668L28.5333 101.733L30 102.8L28.5333 101.733L29.3333 102.667L30.5333 102.533L31.3333 101.867L31.4667 100.667L30 99.6001Z" fill="black"/>
<path d="M66.8 99.6001H30V102.8H66.8L68 102.267L68.4 101.2L68 100.133L66.8 99.6001Z" fill="black"/>
<path d="M66.7999 112.133C86.9031 112.133 103.2 107.119 103.2 100.933C103.2 94.7478 86.9031 89.7334 66.7999 89.7334C46.6967 89.7334 30.3999 94.7478 30.3999 100.933C30.3999 107.119 46.6967 112.133 66.7999 112.133Z" fill="black"/>
<path d="M104.8 100.933L104.533 99.2L103.733 97.7333L102.667 96.5333L101.2 95.2L99.6001 94.2666L97.6001 93.2L95.3334 92.4L93.0667 91.6L90.2667 90.6666L87.3334 90L84.4 89.4666L81.0667 89.0666L77.7334 88.6666L74.2667 88.4L70.5334 88.1333H66.8V91.3333H70.5334L74 91.6L77.4667 91.8666L80.8 92.2666L83.8667 92.6666L86.8 93.2L89.4667 93.8666L92.0001 94.5333L94.2667 95.3333L96.2667 96.1333L98.0001 96.9333L99.3334 97.8666L100.533 98.6666L101.067 99.6L101.6 100.267V100.933H104.8Z" fill="black"/>
<path d="M66.8 113.733H70.5334L74.2667 113.467L77.7334 113.2L81.0667 112.8L84.4 112.4L87.3334 111.867L90.2667 111.2L93.0667 110.267L95.3334 109.467L97.6001 108.667L99.6001 107.6L101.2 106.667L102.667 105.333L103.733 104.133L104.533 102.667L104.8 100.933H101.6V101.6L101.067 102.267L100.533 103.2L99.3334 104L98.0001 104.933L96.2667 105.733L94.2667 106.533L92.0001 107.333L89.4667 108L86.8 108.667L83.8667 109.2L80.8 109.6L77.4667 110L74 110.267L70.5334 110.533H66.8V113.733Z" fill="black"/>
<path d="M28.8 100.933L29.0667 102.667L29.8667 104.133L30.9334 105.333L32.4 106.667L34 107.6L36 108.667L38.2667 109.467L40.5334 110.267L43.3334 111.2L46.2667 111.867L49.2 112.4L52.5334 112.8L55.8667 113.2L59.3334 113.467L63.0667 113.733H66.8001V110.533H63.0667L59.6001 110.267L56.1334 110L52.8001 109.6L49.7334 109.2L46.8 108.667L44.1334 108L41.6 107.333L39.3334 106.533L37.3334 105.733L35.6 104.933L34.2667 104L33.0667 103.2L32.5334 102.267L32 101.6V100.933H28.8Z" fill="black"/>
<path d="M66.8001 88.1333H63.0667L59.3334 88.4L55.8667 88.6666L52.5334 89.0666L49.2 89.4666L46.2667 90L43.3334 90.6666L40.5334 91.6L38.2667 92.4L36 93.2L34 94.2666L32.4 95.2L30.9334 96.5333L29.8667 97.7333L29.0667 99.2L28.8 100.933H32V100.267L32.5334 99.6L33.0667 98.6666L34.2667 97.8666L35.6 96.9333L37.3334 96.1333L39.3334 95.3333L41.6 94.5333L44.1334 93.8666L46.8 93.2L49.7334 92.6666L52.8001 92.2666L56.1334 91.8666L59.6001 91.6L63.0667 91.3333H66.8001V88.1333Z" fill="black"/>
<path d="M27.7334 98.3999L28.2667 99.5999L29.3334 99.9999L30.4001 99.5999L30.9334 98.3999H27.7334Z" fill="black"/>
<path d="M66.8001 85.3333H62.9334L59.0667 85.5999L55.6001 85.8666L52.1334 86.2666L48.6667 86.6666L45.4667 87.3333L42.5334 87.9999L39.7334 88.7999L37.3334 89.7333L35.0667 90.5333L33.0667 91.5999L31.3334 92.6666L30.0001 93.9999L28.8001 95.1999L28.0001 96.6666L27.7334 98.3999H30.9334V97.7333L31.4667 97.0666L32.1334 96.1333L33.2001 95.3333L34.6667 94.2666L36.4001 93.4666L38.4001 92.6666L40.8001 91.7333L43.3334 91.1999L46.2667 90.5333L49.2001 89.8666L52.4001 89.4666L55.8667 89.0666L59.3334 88.7999L62.9334 88.5333H66.8001V85.3333Z" fill="black"/>
<path d="M105.867 98.3999L105.6 96.6666L104.8 95.1999L103.6 93.9999L102.267 92.6666L100.533 91.5999L98.5334 90.5333L96.2667 89.7333L93.8667 88.7999L91.0667 87.9999L88.1334 87.3333L84.9334 86.6666L81.4667 86.2666L78 85.8666L74.5334 85.5999L70.6667 85.3333H66.8V88.5333H70.6667L74.2667 88.7999L77.7334 89.0666L81.2 89.4666L84.4 89.8666L87.3334 90.5333L90.2667 91.1999L92.8 91.7333L95.2 92.6666L97.2 93.4666L98.9334 94.2666L100.4 95.3333L101.467 96.1333L102.133 97.0666L102.667 97.7333V98.3999H105.867Z" fill="black"/>
<path d="M102.667 98.3999L103.2 99.5999L104.267 99.9999L105.333 99.5999L105.867 98.3999H102.667Z" fill="black"/>
<path d="M24.3999 89.4666L24.9332 90.6666L25.9999 91.0666L27.0666 90.6666L27.5999 89.4666H24.3999Z" fill="black"/>
<path d="M66.7999 75.3333H62.6666L58.5332 75.5999L54.5332 75.8666L50.6666 76.2666L47.1999 76.7999L43.7332 77.4666L40.5332 78.1333L37.4666 79.0666L34.7999 79.9999L32.3999 80.9333L30.1332 81.9999L28.2666 83.1999L26.7999 84.6666L25.4666 85.9999L24.7999 87.5999L24.3999 89.4666H27.5999L27.7332 88.6666L28.1332 87.8666L28.9332 86.7999L30.1332 85.8666L31.7332 84.9333L33.7332 83.8666L35.8666 82.9333L38.5332 81.9999L41.3332 81.3333L44.2666 80.6666L47.7332 79.9999L51.1999 79.4666L54.7999 79.0666L58.7999 78.7999L62.6666 78.5333H66.7999V75.3333Z" fill="black"/>
<path d="M109.2 89.4666L108.8 87.5999L108.133 85.9999L106.8 84.6666L105.333 83.1999L103.467 81.9999L101.2 80.9333L98.8001 79.9999L96.1334 79.0666L93.0667 78.1333L89.8667 77.4666L86.4 76.7999L82.9334 76.2666L79.0667 75.8666L75.0667 75.5999L70.9334 75.3333H66.8V78.5333H70.9334L74.8 78.7999L78.8 79.0666L82.4 79.4666L85.8667 79.9999L89.3334 80.6666L92.2667 81.3333L95.0667 81.9999L97.7334 82.9333L99.8667 83.8666L101.867 84.9333L103.467 85.8666L104.667 86.7999L105.467 87.8666L105.867 88.6666L106 89.4666H109.2Z" fill="black"/>
<path d="M106 89.4666L106.533 90.6666L107.6 91.0666L108.667 90.6666L109.2 89.4666H106Z" fill="black"/>
<path d="M66.8001 109.867C82.8531 109.867 95.8667 105.867 95.8667 100.933C95.8667 95.9996 82.8531 92 66.8001 92C50.747 92 37.7334 95.9996 37.7334 100.933C37.7334 105.867 50.747 109.867 66.8001 109.867Z" fill="black"/>
<path d="M97.4667 100.933L97.3334 99.5999L96.6667 98.1332L95.6 97.0666L94.5334 96.1332L93.2 95.1999L91.6 94.5332L89.7334 93.7332L87.8667 93.1999L85.7334 92.3999L83.3334 91.8666L80.9334 91.4666L78.4 91.0666L75.6 90.7999L72.8 90.5332L69.7334 90.3999H66.8V93.5999H69.7334L72.5334 93.7332L75.3334 93.9999L77.8667 94.2666L80.4 94.6666L82.8 95.0666L84.9334 95.5999L86.8 96.1332L88.6667 96.6666L90.2667 97.4666L91.6 98.1332L92.6667 98.7999L93.4667 99.4666L94 99.9999L94.1334 100.4L94.2667 100.933H97.4667Z" fill="black"/>
<path d="M66.8 111.467H69.7334L72.8 111.333L75.6 111.067L78.4 110.8L80.9334 110.4L83.3334 110L85.7334 109.467L87.8667 108.667L89.7334 108.133L91.6 107.333L93.2 106.667L94.5334 105.733L95.6 104.8L96.6667 103.733L97.3334 102.267L97.4667 100.933H94.2667L94.1334 101.467L94 101.867L93.4667 102.4L92.6667 103.067L91.6 103.733L90.2667 104.4L88.6667 105.2L86.8 105.733L84.9334 106.267L82.8 106.8L80.4 107.2L77.8667 107.6L75.3334 107.867L72.5334 108.133L69.7334 108.267H66.8V111.467Z" fill="black"/>
<path d="M36.1333 100.933L36.2666 102.267L36.9333 103.733L38 104.8L39.0666 105.733L40.4 106.667L42 107.333L43.8666 108.133L45.7333 108.667L47.8666 109.467L50.2666 110L52.6666 110.4L55.2 110.8L58 111.067L60.8 111.333L63.8666 111.467H66.8V108.267H63.8666L61.0666 108.133L58.2666 107.867L55.7333 107.6L53.2 107.2L50.8 106.8L48.6666 106.267L46.8 105.733L44.9333 105.2L43.3333 104.4L42 103.733L40.9333 103.067L40.1333 102.4L39.6 101.867L39.4666 101.467L39.3333 100.933H36.1333Z" fill="black"/>
<path d="M66.8 90.3999H63.8666L60.8 90.5332L58 90.7999L55.2 91.0666L52.6666 91.4666L50.2666 91.8666L47.8666 92.3999L45.7333 93.1999L43.8666 93.7332L42 94.5332L40.4 95.1999L39.0666 96.1332L38 97.0666L36.9333 98.1332L36.2666 99.5999L36.1333 100.933H39.3333L39.4666 100.4L39.6 99.9999L40.1333 99.4666L40.9333 98.7999L42 98.1332L43.3333 97.4666L44.9333 96.6666L46.8 96.1332L48.6666 95.5999L50.8 95.0666L53.2 94.6666L55.7333 94.2666L58.2666 93.9999L61.0666 93.7332L63.8666 93.5999H66.8V90.3999Z" fill="black"/>
<path d="M66.6667 57.8667L67.3334 60.9333L68.0001 63.8667L68.8001 66.6667L69.8667 69.2L71.0667 71.4667L72.6667 73.0667L74.6667 74.2667L76.9334 74.8L79.3334 74.5333L81.6001 73.7333L83.6001 72.4L85.6001 70.4L87.3334 68.1333L88.9334 65.4667L90.2667 62.5333L91.4667 59.3333L91.2001 63.0667L91.3334 66.5333L91.7334 69.6L92.4001 72.4L93.4667 74.8L94.6667 76.6667L96.2667 78.1333L98.1334 79.0667L100.133 79.4667L102.133 79.3333L104 78.6667L105.867 77.4667L107.467 75.8667L109.2 73.8667L110.667 71.6L112.133 69.0667L113.467 66.4L114.667 63.6L115.733 60.6667L116.8 57.7333L117.733 54.9333L118.4 52.1333L119.067 49.4667L119.6 47.0667L116.4 46.5333L115.6 49.3333L114.8 52.1333L113.867 54.8L112.933 57.6L111.867 60.1333L110.8 62.6667L109.6 65.0667L108.533 67.2L107.333 69.3333L106.133 71.0667L104.933 72.6667L103.733 73.8667L102.533 74.8L101.467 75.4667L100.267 75.7333L99.2001 75.6L98.0001 74.9333L97.0667 73.8667L96.2667 72.4L95.6001 70.5333L95.2001 68.5333L94.9334 66.1333V63.6V60.9333V58.2667L95.2001 55.4667L95.3334 52.6667L95.7334 49.8667L96.0001 47.2L96.2667 44.6667L96.6667 42.4L96.9334 40.2667L93.2001 39.4667L92.6667 42.4L92.0001 45.3333L91.3334 48.1333L90.5334 51.0667L89.7334 53.7333L88.8001 56.4L87.8667 58.9333L86.9334 61.3333L85.8667 63.4667L84.8001 65.4667L83.7334 67.2L82.5334 68.6667L81.2001 69.7333L80.0001 70.6667L78.5334 71.0667L77.2001 71.2L75.8667 70.8L74.6667 70L73.6001 68.6667L72.6667 66.9333L71.8667 64.9333L71.2001 62.6667L70.5334 60.1333L70.0001 57.3333L69.6001 54.5333L69.3334 51.7333L69.0667 48.9333L68.9334 46.1333L68.8001 43.6V41.0667V38.9333V37.0667H64.5334V38.9333V41.0667V43.6L64.4001 46.1333L64.2667 48.9333L64.0001 51.7333L63.7334 54.5333L63.3334 57.3333L62.8001 60.1333L62.1334 62.6667L61.4667 64.9333L60.6667 66.9333L59.7334 68.6667L58.6667 70L57.4667 70.8L56.1334 71.2L54.8001 71.0667L53.3334 70.6667L52.1334 69.7333L50.8001 68.6667L49.6001 67.2L48.5334 65.4667L47.4667 63.4667L46.4001 61.3333L45.4667 58.9333L44.5334 56.4L43.6001 53.7333L42.8001 51.0667L42.0001 48.1333L41.3334 45.3333L40.6667 42.4L40.1334 39.4667L36.4001 40.2667L36.6667 42.4L37.0667 44.6667L37.3334 47.2L37.6001 49.8667L38.0001 52.6667L38.1334 55.4667L38.4001 58.2667L38.5334 60.9333L38.4001 63.6V66.1333L38.1334 68.5333L37.7334 70.5333L37.0667 72.4L36.2667 73.8667L35.3334 74.9333L34.1334 75.6L33.0667 75.7333L31.8667 75.4667L30.8001 74.8L29.6001 73.8667L28.4001 72.6667L27.2001 71.0667L26.0001 69.3333L24.8001 67.2L23.7334 65.0667L22.5334 62.6667L21.4667 60.1333L20.4001 57.6L19.4667 54.8L18.5334 52.1333L17.7334 49.3333L16.9334 46.5333L13.7334 47.0667L14.2667 49.4667L14.9334 52.1333L15.6001 54.9333L16.5334 57.7333L17.6001 60.6667L18.6667 63.6L19.8667 66.4L21.2001 69.0667L22.6667 71.6L24.1334 73.8667L25.8667 75.8667L27.4667 77.4667L29.3334 78.6667L31.2001 79.3333L33.2001 79.4667L35.2001 79.0667L37.0667 78.1333L38.6667 76.6667L39.8667 74.8L40.9334 72.4L41.6001 69.6L42.0001 66.5333L42.1334 63.0667L41.8667 59.3333L43.0667 62.5333L44.4001 65.4667L46.0001 68.1333L47.7334 70.4L49.7334 72.4L51.7334 73.7333L54.0001 74.5333L56.4001 74.8L58.6667 74.2667L60.6667 73.0667L62.2667 71.4667L63.4667 69.2L64.5334 66.6667L65.3334 63.8667L66.0001 60.9333L66.6667 57.8667Z" fill="black"/>
<path d="M76.9333 73.2001H77.0667L75.3333 72.8001L73.6 71.8668L72.4 70.5334L71.3333 68.5334L70.2667 66.1334L69.6 63.4668L68.9333 60.5334L68.2667 57.6001L65.0667 58.1334L65.7333 61.3334L66.4 64.2668L67.3333 67.2001L68.4 69.8668L69.7333 72.4001L71.7333 74.2668L74 75.7334L76.8 76.4001H76.9333H76.8L78 76.0001L78.5333 74.9334L78.2667 73.7334L77.0667 73.2001H76.9333Z" fill="black"/>
<path d="M93.0667 59.4667L90 58.8L88.8 61.8667L87.4667 64.6667L86 67.2L84.4 69.3334L82.5333 71.2L80.9333 72.2667L78.9333 72.9334L76.9333 73.2V76.4L79.7333 76.1334L82.2667 75.2L84.6667 73.6L86.8 71.4667L88.6667 69.0667L90.4 66.2667L91.7333 63.2L92.9333 59.8667L89.8667 59.2L92.9333 59.8667L92.8 58.6667L92 57.8667H90.8L90 58.8L93.0667 59.4667Z" fill="black"/>
<path d="M98.6668 77.6L97.2001 76.8L95.8668 75.6L94.9334 74L93.8668 71.8666L93.3334 69.3333L92.9334 66.4L92.8001 63.0666L93.0668 59.4666L89.8668 59.2L89.6001 63.0666L89.7334 66.6666L90.1334 69.8666L90.9334 72.9333L92.0001 75.6L93.4668 77.7333L95.3334 79.4666L97.6001 80.5333L98.8001 80.4L99.6001 79.6V78.4L98.6668 77.6Z" fill="black"/>
<path d="M119.333 48.6666L118 46.7999L117.467 49.0666L116.8 51.7332L116.133 54.5332L115.333 57.1999L114.267 60.1332L113.2 63.0666L112 65.7332L110.667 68.2666L109.333 70.7999L107.867 72.9332L106.267 74.7999L104.8 76.2666L103.333 77.1999L101.867 77.7332L100.267 77.8666L98.6668 77.5999L97.6001 80.5332L100 81.0666L102.4 80.9332L104.667 80.1332L106.933 78.6666L108.667 76.9332L110.533 74.7999L112 72.3999L113.6 69.8666L114.933 67.0666L116.133 64.1332L117.2 61.1999L118.267 58.2666L119.333 55.3332L120 52.5332L120.667 49.8666L121.2 47.3332L119.867 45.4666L121.2 47.3332L120.8 45.9999L119.867 45.4666L118.667 45.7332L118 46.7999L119.333 48.6666Z" fill="black"/>
<path d="M118 46.9333L116.133 48.1333L119.333 48.6667L119.867 45.4667L116.667 44.9333L114.8 46.1333L116.667 44.9333L115.333 45.3333L114.8 46.2667L115.067 47.4667L116.133 48.1333L118 46.9333Z" fill="black"/>
<path d="M98.6667 77.0666H98.8L100.4 77.3333L102.133 76.9333L103.467 76.1333L104.8 75.0666L106.133 73.7333L107.467 72L108.667 70.1333L110 68L111.067 65.7333L112.267 63.3333L113.333 60.8L114.4 58.1333L115.333 55.3333L116.267 52.6666L117.2 49.7333L118 46.9333L114.8 46.1333L114 48.9333L113.333 51.6L112.4 54.2666L111.467 57.0666L110.4 59.4666L109.333 62L108.133 64.4L107.067 66.4L106 68.5333L104.8 70.1333L103.733 71.6L102.667 72.6666L101.6 73.4666L100.8 74L100.133 74.1333H99.6H99.7334H99.6L98.4 74.2666L97.8667 75.2V76.2666L98.8 77.0666H98.6667Z" fill="black"/>
<path d="M96.6666 41.8667L95.3333 40.0001L95.0666 42.1334L94.6666 44.4001L94.3999 47.0667L94.1333 49.7334L93.7333 52.5334L93.5999 55.3334L93.3333 58.1334V60.9334V63.6001V66.2667L93.5999 68.8001L93.9999 70.9334L94.7999 73.0667L95.7333 74.8001L96.9333 76.1334L98.6666 77.0668L99.7333 74.1334L99.0666 73.7334L98.3999 72.9334L97.7333 71.7334L97.1999 70.1334L96.7999 68.2667L96.5333 66.0001V63.6001V60.9334V58.4001L96.7999 55.6001L96.9333 52.8001L97.3333 50.0001L97.5999 47.3334L97.8666 44.9334L98.2666 42.6667L98.5333 40.5334L97.1999 38.6667L98.5333 40.5334L98.1333 39.2001L97.1999 38.6667L95.9999 38.9334L95.3333 40.0001L96.6666 41.8667Z" fill="black"/>
<path d="M94.8001 39.7334L92.9334 41.0667L96.6668 41.8667L97.2001 38.6667L93.4668 37.8667L91.6001 39.2L93.4668 37.8667L92.1334 38.2667L91.6001 39.2L91.8668 40.4L92.9334 41.0667L94.8001 39.7334Z" fill="black"/>
<path d="M77.0668 72.7999L78.8001 72.6666L80.6668 72.1333L82.1334 70.9333L83.6001 69.7333L85.0668 68.1333L86.1334 66.2666L87.3334 64.1333L88.4001 61.9999L89.3334 59.4666L90.2668 56.9333L91.2001 54.2666L92.1334 51.4666L92.9334 48.5333L93.6001 45.7333L94.2668 42.6666L94.8001 39.7333L91.6001 39.2L91.0668 42.1333L90.4001 44.9333L89.7334 47.7333L88.9334 50.6666L88.2668 53.2L87.3334 55.8666L86.4001 58.4L85.4668 60.6666L84.4001 62.7999L83.4668 64.6666L82.4001 66.2666L81.4668 67.5999L80.2668 68.5333L79.3334 69.1999L78.2668 69.4666L77.3334 69.5999L76.1334 69.9999L75.6001 71.0666L75.8668 72.2666L77.0668 72.7999Z" fill="black"/>
<path d="M68.8 38.6666L67.2 36.9332V38.9332V41.0666V43.5999L67.3333 46.2666L67.4666 49.0666L67.7333 51.8666L68 54.6666L68.4 57.5999L68.9333 60.5332L69.6 63.0666L70.4 65.4666L71.2 67.5999L72.2666 69.5999L73.6 71.1999L75.2 72.2666L77.0666 72.7999L77.3333 69.5999L76.5333 69.3332L75.7333 68.7999L74.9333 67.7332L74.1333 66.2666L73.3333 64.3999L72.8 62.2666L72.1333 59.7332L71.6 57.0666L71.2 54.3999L70.9333 51.5999L70.6666 48.7999L70.5333 45.9999L70.4 43.5999V41.0666V38.9332V37.1999L68.8 35.4666L70.4 37.1999L70 35.9999L68.9333 35.4666L67.7333 35.7332L67.2 36.9332L68.8 38.6666Z" fill="black"/>
<path d="M66.1333 36.9332L64.5333 38.6666H68.8V35.4666H64.5333L62.9333 37.1999L64.5333 35.4666L63.3333 35.9999L62.9333 37.0666L63.3333 38.1332L64.5333 38.6666L66.1333 36.9332Z" fill="black"/>
<path d="M56.2668 72.8L58.1334 72.2667L59.7334 71.2L61.0668 69.6L62.1334 67.6L62.9334 65.4667L63.7334 63.0667L64.4001 60.5333L64.9334 57.6L65.3334 54.6667L65.6001 51.8667L65.8668 49.0667L66.0001 46.2667L66.1334 43.6V41.0667V38.9333V36.9333L62.9334 37.2V38.9333V41.0667V43.6L62.8001 46L62.6668 48.8L62.4001 51.6L62.1334 54.4L61.7334 57.0667L61.2001 59.7333L60.5334 62.2667L60.0001 64.4L59.2001 66.2667L58.4001 67.7333L57.6001 68.8L56.8001 69.3333L56.0001 69.6L54.8001 70.1333L54.5334 71.3333L55.0668 72.4L56.2668 72.8Z" fill="black"/>
<path d="M40.4001 41.0667L38.5334 39.7334L39.0668 42.6667L39.7334 45.7334L40.4001 48.5334L41.2001 51.4667L42.1334 54.2667L43.0668 56.9334L44.0001 59.4667L44.9334 62L46.0001 64.1334L47.2001 66.2667L48.2668 68.1334L49.7334 69.7334L51.2001 70.9334L52.6668 72.1334L54.5334 72.6667L56.2668 72.8L56.0001 69.6L55.0668 69.4667L54.0001 69.2L53.0668 68.5334L51.8668 67.6L50.9334 66.2667L49.8668 64.6667L48.9334 62.8L47.8668 60.6667L46.9334 58.4L46.0001 55.8667L45.0668 53.2L44.4001 50.6667L43.6001 47.7334L42.9334 44.9334L42.2668 42.1334L41.7334 39.2L39.8668 37.8667L41.7334 39.2L41.0668 38.1334L40.0001 37.8667L38.9334 38.4L38.5334 39.7334L40.4001 41.0667Z" fill="black"/>
<path d="M38 40L36.6667 41.8667L40.4 41.0667L39.8667 37.8667L36.1334 38.6667L34.8 40.5334L36.1334 38.6667L35.0667 39.3334L34.8 40.4L35.3334 41.4667L36.6667 41.8667L38 40Z" fill="black"/>
<path d="M34.5334 77.0667H34.6667L36.4001 76.1333L37.6001 74.8L38.5334 73.0667L39.3334 70.9333L39.7334 68.8L40.0001 66.2667V63.6L40.1334 60.9333L40.0001 58.1333L39.7334 55.3333L39.6001 52.5333L39.2001 49.7333L38.9334 47.0667L38.6667 44.4L38.2667 42.1333L38.0001 40L34.8001 40.5333L35.0667 42.6667L35.4667 44.9333L35.7334 47.3333L36.0001 50L36.4001 52.8L36.5334 55.6L36.8001 58.4L36.9334 60.9333L36.8001 63.6V66L36.5334 68.2667L36.1334 70.1333L35.6001 71.7333L34.9334 72.9333L34.2667 73.7333L33.6001 74.1333H33.7334H33.6001L32.6667 74.9333L32.8001 76.1333L33.4667 76.9333L34.6667 77.0667H34.5334Z" fill="black"/>
<path d="M17.1999 48.1333L15.3333 46.9333L16.1333 49.7333L17.0666 52.6667L17.9999 55.3334L18.9333 58.1334L19.9999 60.8L21.0666 63.3334L22.2666 65.7334L23.3333 68L24.6666 70.1334L25.8666 72L27.1999 73.7334L28.5333 75.0667L29.8666 76.1334L31.1999 76.9334L32.9333 77.3334L34.5333 77.0667L33.7333 74.1334H33.1999L32.5333 74L31.7333 73.4667L30.6666 72.6667L29.5999 71.6L28.5333 70.1334L27.3333 68.5334L26.2666 66.4L25.1999 64.4L23.9999 62L22.9333 59.4667L21.8666 57.0667L20.9333 54.2667L19.9999 51.6L19.3333 48.9333L18.5333 46.1333L16.6666 44.9333L18.5333 46.1333L17.7333 45.0667L16.5333 44.9333L15.5999 45.6L15.3333 46.9333L17.1999 48.1333Z" fill="black"/>
<path d="M15.3333 46.8L14 48.6667L17.2 48.1333L16.6666 44.9333L13.4666 45.4667L12.1333 47.3333L13.4666 45.4667L12.4 46.1333L12.1333 47.2L12.6666 48.2667L14 48.6667L15.3333 46.8Z" fill="black"/>
<path d="M34.6666 77.6L33.0666 77.8667L31.4666 77.7334L30 77.2L28.5333 76.2667L27.0666 74.8L25.4666 72.9334L24 70.8L22.6666 68.2667L21.3333 65.7334L20.1333 63.0667L19.0666 60.1334L18 57.2L17.2 54.5334L16.5333 51.7334L15.8666 49.0667L15.3333 46.8L12.1333 47.3334L12.6666 49.8667L13.3333 52.5334L14 55.3334L15.0666 58.2667L16.1333 61.2L17.2 64.1334L18.4 67.0667L19.7333 69.8667L21.3333 72.4L22.8 74.8L24.6666 76.9334L26.4 78.6667L28.6666 80.1334L30.9333 80.9334L33.3333 81.0667L35.7333 80.5334L36.6666 79.7334V78.5334L35.8666 77.7334L34.6666 77.6Z" fill="black"/>
<path d="M43.3334 58.8001L40.2667 59.4667L40.5334 63.0667L40.4001 66.4001L40.0001 69.3334L39.4667 71.8667L38.4001 74.0001L37.4667 75.6001L36.1334 76.8001L34.6667 77.6001L35.7334 80.5334L38.0001 79.4667L39.8667 77.7334L41.3334 75.6001L42.4001 72.9334L43.2001 69.8667L43.6001 66.6667L43.7334 63.0667L43.4667 59.2001L40.4001 59.8667L43.4667 59.2001L42.9334 58.0001L41.7334 57.7334L40.6667 58.2667L40.2667 59.4667L43.3334 58.8001Z" fill="black"/>
<path d="M56.2666 73.2H56.3999L54.3999 72.9334L52.3999 72.2667L50.7999 71.2L48.9332 69.3334L47.3332 67.2L45.8666 64.6667L44.5332 61.8667L43.3332 58.8L40.3999 59.8667L41.5999 63.2L42.9332 66.2667L44.6666 69.0667L46.5332 71.4667L48.6666 73.6L51.0666 75.2L53.5999 76.1334L56.3999 76.4H56.5332H56.3999L57.5999 75.8667L57.9999 74.8L57.5999 73.7334L56.3999 73.2H56.2666Z" fill="black"/>
<path d="M68.2666 57.5999H65.0666L64.3999 60.5333L63.7333 63.4666L63.0666 66.1333L61.9999 68.5333L60.9333 70.5333L59.7333 71.8666L57.9999 72.7999L56.2666 73.1999L56.5333 76.3999L59.3333 75.7333L61.5999 74.2666L63.5999 72.3999L64.9333 69.8666L65.9999 67.1999L66.9333 64.2666L67.5999 61.3333L68.2666 58.1333H65.0666H68.2666L67.8666 56.7999L66.9333 56.2666L65.7333 56.5333L65.0666 57.5999H68.2666Z" fill="black"/>
<path d="M66.5333 39.3332C70.657 39.3332 74 35.9903 74 31.8666C74 27.7428 70.657 24.3999 66.5333 24.3999C62.4096 24.3999 59.0667 27.7428 59.0667 31.8666C59.0667 35.9903 62.4096 39.3332 66.5333 39.3332Z" fill="black"/>
<path d="M75.7334 32L75.6001 30.1334L75.0667 28.4L74.1334 26.9334L73.0667 25.4667L71.7334 24.4L70.2667 23.4667L68.4001 22.9334L66.6667 22.8V26L67.8667 26.1334L68.9334 26.4L69.8667 27.0667L70.9334 27.6L71.4667 28.5334L72.1334 29.7334L72.4001 30.6667L72.5334 32H75.7334Z" fill="black"/>
<path d="M66.6667 41.0667L68.4001 40.9333L70.2667 40.4L71.7334 39.4667L73.0667 38.4L74.1334 37.0667L75.0667 35.6L75.6001 33.7333L75.7334 32H72.5334L72.4001 33.2L72.1334 34.2667L71.4667 35.2L70.9334 36.2667L69.8667 36.8L68.9334 37.4667L67.8667 37.7333L66.6667 37.8667V41.0667Z" fill="black"/>
<path d="M57.4666 32L57.5999 33.7333L58.1332 35.6L59.0666 37.0667L60.2666 38.4L61.4666 39.4667L63.0666 40.4L64.7999 40.9333L66.6666 41.0667V37.8667L65.3332 37.7333L64.3999 37.4667L63.3332 36.8L62.3999 36.2667L61.7332 35.2L61.0666 34.2667L60.7999 33.2L60.6666 32H57.4666Z" fill="black"/>
<path d="M66.6666 22.8L64.7999 22.9334L63.0666 23.4667L61.4666 24.4L60.2666 25.4667L59.0666 26.8L58.1332 28.4L57.5999 30.1334L57.4666 32H60.6666L60.7999 30.6667L61.0666 29.7334L61.7332 28.6667L62.3999 27.6L63.3332 27.0667L64.3999 26.4L65.3332 26.1334L66.6666 26V22.8Z" fill="black"/>
<path d="M37.0668 42C41.1905 42 44.5334 38.657 44.5334 34.5333C44.5334 30.4096 41.1905 27.0667 37.0668 27.0667C32.943 27.0667 29.6001 30.4096 29.6001 34.5333C29.6001 38.657 32.943 42 37.0668 42Z" fill="black"/>
<path d="M46.2666 34.6666L46.1333 32.7999L45.6 31.0666L44.6666 29.5999L43.6 28.1332L42.2666 27.0666L40.8 26.1332L38.9333 25.5999L37.2 25.4666V28.6666L38.4 28.7999L39.4666 29.0666L40.4 29.7332L41.4666 30.2666L42 31.1999L42.6666 32.3999L42.9333 33.3332L43.0666 34.6666H46.2666Z" fill="black"/>
<path d="M37.2 43.7334L38.9333 43.6001L40.8 43.0667L42.2666 42.1334L43.6 41.0667L44.6666 39.7334L45.6 38.2667L46.1333 36.4001L46.2666 34.6667H43.0666L42.9333 35.8667L42.6666 36.9334L42 37.8667L41.4666 38.9334L40.4 39.4667L39.4666 40.1334L38.4 40.4001L37.2 40.5334V43.7334Z" fill="black"/>
<path d="M28 34.6667L28.1333 36.4001L28.6667 38.2667L29.6 39.7334L30.8 41.0667L32 42.1334L33.6 43.0667L35.3333 43.6001L37.2 43.7334V40.5334L35.8667 40.4001L34.9333 40.1334L33.8667 39.4667L32.9333 38.9334L32.2667 37.8667L31.6 36.9334L31.3333 35.8667L31.2 34.6667H28Z" fill="black"/>
<path d="M37.2 25.4666L35.3333 25.5999L33.6 26.1332L32 27.0666L30.8 28.1332L29.6 29.4666L28.6667 31.0666L28.1333 32.7999L28 34.6666H31.2L31.3333 33.3332L31.6 32.3999L32.2667 31.3332L32.9333 30.2666L33.8667 29.7332L34.9333 29.0666L35.8667 28.7999L37.2 28.6666V25.4666Z" fill="black"/>
<path d="M96.0001 42C100.124 42 103.467 38.657 103.467 34.5333C103.467 30.4096 100.124 27.0667 96.0001 27.0667C91.8764 27.0667 88.5334 30.4096 88.5334 34.5333C88.5334 38.657 91.8764 42 96.0001 42Z" fill="black"/>
<path d="M90.1333 34.6666L90.2667 33.3332L90.5333 32.3999L91.2 31.1999L91.7333 30.2666L92.8 29.7332L93.7333 29.0666L94.8 28.7999L96 28.6666V25.4666L94.2667 25.5999L92.4 26.1332L90.9333 27.0666L89.6 28.1332L88.5333 29.5999L87.6 31.0666L87.0667 32.7999L86.9333 34.6666H90.1333Z" fill="black"/>
<path d="M96 40.5334L94.8 40.4001L93.7333 40.1334L92.8 39.4667L91.7333 38.9334L91.2 37.8667L90.5333 36.9334L90.2667 35.8667L90.1333 34.6667H86.9333L87.0667 36.4001L87.6 38.2667L88.5333 39.7334L89.6 41.0667L90.9333 42.1334L92.4 43.0667L94.2667 43.6001L96 43.7334V40.5334Z" fill="black"/>
<path d="M102 34.6667L101.867 35.8667L101.6 36.9334L100.933 37.8667L100.4 38.9334L99.4667 39.4667L98.2667 40.1334L97.3333 40.4001L96 40.5334V43.7334L97.8667 43.6001L99.6 43.0667L101.067 42.1334L102.533 41.0667L103.6 39.7334L104.533 38.2667L105.067 36.4001L105.2 34.6667H102Z" fill="black"/>
<path d="M96 28.6666L97.3333 28.7999L98.2667 29.0666L99.4667 29.7332L100.4 30.2666L100.933 31.1999L101.6 32.3999L101.867 33.3332L102 34.6666H105.2L105.067 32.7999L104.533 31.0666L103.6 29.5999L102.533 28.1332L101.067 27.0666L99.6 26.1332L97.8667 25.5999L96 25.4666V28.6666Z" fill="black"/>
<path d="M14.2667 50.1333C18.3904 50.1333 21.7334 46.7903 21.7334 42.6666C21.7334 38.5429 18.3904 35.2 14.2667 35.2C10.143 35.2 6.80005 38.5429 6.80005 42.6666C6.80005 46.7903 10.143 50.1333 14.2667 50.1333Z" fill="black"/>
<path d="M23.4666 42.8001L23.3332 40.9334L22.7999 39.2001L21.8666 37.7334L20.7999 36.2668L19.4666 35.2001L17.9999 34.2668L16.1332 33.7334L14.3999 33.6001V36.8001L15.5999 36.9334L16.6666 37.2001L17.5999 37.8668L18.6666 38.4001L19.1999 39.3334L19.8666 40.5334L20.1332 41.4668L20.2666 42.8001H23.4666Z" fill="black"/>
<path d="M14.3999 51.8667L16.1332 51.7334L17.9999 51.2L19.4666 50.2667L20.7999 49.2L21.8666 47.8667L22.7999 46.4L23.3332 44.5334L23.4666 42.8H20.2666L20.1332 44L19.8666 45.0667L19.1999 46L18.6666 47.0667L17.5999 47.6L16.6666 48.2667L15.5999 48.5334L14.3999 48.6667V51.8667Z" fill="black"/>
<path d="M5.19995 42.8L5.33328 44.5334L5.86662 46.4L6.79995 47.8667L7.99995 49.2L9.19995 50.2667L10.8 51.2L12.5333 51.7334L14.4 51.8667V48.6667L13.0666 48.5334L12.1333 48.2667L11.0666 47.6L10.1333 47.0667L9.46662 46L8.79995 45.0667L8.53328 44L8.39995 42.8H5.19995Z" fill="black"/>
<path d="M14.4 33.6001L12.5333 33.7334L10.8 34.2668L9.19995 35.2001L7.99995 36.2668L6.79995 37.6001L5.86662 39.2001L5.33328 40.9334L5.19995 42.8001H8.39995L8.53328 41.4668L8.79995 40.5334L9.46662 39.4668L10.1333 38.4001L11.0666 37.8668L12.1333 37.2001L13.0666 36.9334L14.4 36.8001V33.6001Z" fill="black"/>
<path d="M118.8 50.1333C122.924 50.1333 126.267 46.7903 126.267 42.6666C126.267 38.5429 122.924 35.2 118.8 35.2C114.676 35.2 111.333 38.5429 111.333 42.6666C111.333 46.7903 114.676 50.1333 118.8 50.1333Z" fill="black"/>
<path d="M112.933 42.8001L113.067 41.4668L113.333 40.5334L114 39.3334L114.533 38.4001L115.6 37.8668L116.533 37.2001L117.6 36.9334L118.8 36.8001V33.6001L117.067 33.7334L115.2 34.2668L113.733 35.2001L112.4 36.2668L111.333 37.7334L110.4 39.2001L109.867 40.9334L109.733 42.8001H112.933Z" fill="black"/>
<path d="M118.8 48.6667L117.6 48.5334L116.533 48.2667L115.6 47.6L114.533 47.0667L114 46L113.333 45.0667L113.067 44L112.933 42.8H109.733L109.867 44.5334L110.4 46.4L111.333 47.8667L112.4 49.2L113.733 50.2667L115.2 51.2L117.067 51.7334L118.8 51.8667V48.6667Z" fill="black"/>
<path d="M124.8 42.8L124.667 44L124.4 45.0667L123.733 46L123.2 47.0667L122.267 47.6L121.067 48.2667L120.133 48.5334L118.8 48.6667V51.8667L120.667 51.7334L122.4 51.2L123.867 50.2667L125.333 49.2L126.4 47.8667L127.333 46.4L127.867 44.5334L128 42.8H124.8Z" fill="black"/>
<path d="M118.8 36.8001L120.133 36.9334L121.067 37.2001L122.267 37.8668L123.2 38.4001L123.733 39.3334L124.4 40.5334L124.667 41.4668L124.8 42.8001H128L127.867 40.9334L127.333 39.2001L126.4 37.7334L125.333 36.2668L123.867 35.2001L122.4 34.2668L120.667 33.7334L118.8 33.6001V36.8001Z" fill="black"/>
<path d="M66.7999 101.2H103.6L108.133 88.1333V87.8666L108.267 87.5999V87.1999V86.9333L108 85.5999L107.467 84.3999L106.4 83.1999L105.067 81.9999L103.333 80.9333L101.2 79.8666L98.7999 78.9333L96.1333 77.9999L93.1999 77.1999L89.9999 76.3999L86.5333 75.8666L82.9333 75.3333L79.1999 74.7999L75.1999 74.5333L71.0666 74.2666H66.7999H62.5333L58.3999 74.5333L54.3999 74.7999L50.6666 75.3333L47.0666 75.8666L43.5999 76.3999L40.3999 77.1999L37.4666 77.9999L34.7999 78.9333L32.3999 79.8666L30.2666 80.9333L28.5333 81.9999L27.1999 83.1999L26.1333 84.3999L25.5999 85.5999L25.3333 86.9333V87.1999L25.4666 87.5999V87.8666V88.1333L29.9999 101.2H66.7999Z" fill="#FCCC00"/>
<path d="M102.8 100.933L103.6 100.4H66.8V102H103.6L104.4 101.467L103.6 102L104.267 101.733L104.4 101.2L104.267 100.667L103.6 100.4L102.8 100.933Z" fill="black"/>
<path d="M107.333 88.1333V87.8666L102.8 100.933L104.4 101.467L108.933 88.3999V88.1333V88.3999L108.8 87.7333L108.4 87.3333H107.733L107.333 87.8666V88.1333Z" fill="black"/>
<path d="M107.467 86.9333V87.2V87.4667L107.333 87.7333V88.1333H108.933V88L109.067 87.7333V87.2V86.9333H107.467Z" fill="black"/>
<path d="M66.8 75.0666H71.0667L75.2 75.3332L79.0667 75.5999L82.8 76.1332L86.4 76.6666L89.8667 77.1999L92.9333 77.9999L95.8667 78.7999L98.5333 79.7332L100.933 80.5332L102.933 81.5999L104.533 82.6666L105.867 83.7332L106.8 84.7999L107.2 85.8666L107.467 86.9332H109.067L108.8 85.3332L108.133 83.9999L106.933 82.6666L105.6 81.3332L103.733 80.2666L101.467 79.1999L99.0667 78.1332L96.4 77.1999L93.4667 76.3999L90.1333 75.5999L86.6667 75.0666L83.0667 74.5332L79.3333 73.9999L75.2 73.7332L71.0667 73.4666H66.8L66.2667 73.7332L66 74.2666L66.2667 74.7999L66.8 75.0666Z" fill="black"/>
<path d="M26.1334 86.9332L26.4001 85.8666L26.8001 84.7999L27.7334 83.7332L29.0668 82.6666L30.6668 81.5999L32.6668 80.5332L35.0668 79.7332L37.7334 78.7999L40.6668 77.9999L43.7334 77.1999L47.2001 76.6666L50.8001 76.1332L54.5334 75.5999L58.4001 75.3332L62.5334 75.0666H66.8001V73.4666H62.5334L58.4001 73.7332L54.2668 73.9999L50.5334 74.5332L46.9334 75.0666L43.4668 75.5999L40.1334 76.3999L37.2001 77.1999L34.5334 78.1332L32.1334 79.1999L29.8668 80.2666L28.0001 81.3332L26.6668 82.6666L25.4668 83.9999L24.8001 85.3332L24.5334 86.9332H26.1334Z" fill="black"/>
<path d="M26.2668 87.8667V88.1333V87.8667V87.4667L26.1334 87.0667V86.9333H24.5334V87.3333L24.6668 87.7333V87.8667V88.1333V88.4V88.1333L24.9334 88.6667L25.4668 88.9333L26.0001 88.6667L26.2668 88.1333V87.8667Z" fill="black"/>
<path d="M30.0001 100.4L30.8001 100.933L26.2667 87.8667L24.6667 88.4L29.2001 101.467L30.0001 102L29.2001 101.467L29.6001 102H30.2667L30.6667 101.6L30.8001 100.933L30.0001 100.4Z" fill="black"/>
<path d="M66.8 100.4H30V102H66.8L67.4667 101.733L67.6 101.2L67.4667 100.667L66.8 100.4Z" fill="black"/>
<path d="M66.7999 112.133C86.9031 112.133 103.2 107.119 103.2 100.933C103.2 94.7478 86.9031 89.7334 66.7999 89.7334C46.6967 89.7334 30.3999 94.7478 30.3999 100.933C30.3999 107.119 46.6967 112.133 66.7999 112.133Z" fill="#FCCC00"/>
<path d="M104 100.933L103.867 99.4667L103.067 98.2667L102.133 97.0667L100.667 95.8667L99.2001 94.9333L97.2001 94L95.0667 93.0667L92.8001 92.2667L90.1334 91.4667L87.2 90.8L84.2667 90.2667L81.0667 89.8667L77.7334 89.4667L74.1334 89.2L70.5334 88.9333H66.8V90.5333H70.5334L74.1334 90.8L77.4667 91.0667L80.8 91.4667L84 91.8667L86.9334 92.4L89.6001 93.0667L92.2667 93.8667L94.5334 94.6667L96.6667 95.3333L98.4001 96.2667L99.8667 97.2L101.067 98.1334L101.733 99.0667L102.267 100L102.4 100.933H104Z" fill="black"/>
<path d="M66.8 112.933H70.5334L74.1334 112.667L77.7334 112.4L81.0667 112L84.2667 111.6L87.2 111.067L90.1334 110.4L92.8001 109.6L95.0667 108.8L97.2001 107.867L99.2001 106.933L100.667 106L102.133 104.8L103.067 103.6L103.867 102.4L104 100.933H102.4L102.267 101.867L101.733 102.8L101.067 103.733L99.8667 104.667L98.4001 105.6L96.6667 106.533L94.5334 107.2L92.2667 108L89.6001 108.8L86.9334 109.467L84 110L80.8 110.4L77.4667 110.8L74.1334 111.067L70.5334 111.333H66.8V112.933Z" fill="black"/>
<path d="M29.6001 100.933L29.7334 102.4L30.5334 103.6L31.4668 104.8L32.9334 106L34.4001 106.933L36.4001 107.867L38.5334 108.8L40.8001 109.6L43.4668 110.4L46.4001 111.067L49.3334 111.6L52.5334 112L55.8668 112.4L59.4668 112.667L63.0668 112.933H66.8001V111.333H63.0668L59.4668 111.067L56.1334 110.8L52.8001 110.4L49.6001 110L46.6668 109.467L44.0001 108.8L41.3334 108L39.0668 107.2L36.9334 106.533L35.2001 105.6L33.7334 104.667L32.5334 103.733L31.8668 102.8L31.3334 101.867L31.2001 100.933H29.6001Z" fill="black"/>
<path d="M66.8001 88.9333H63.0668L59.4668 89.2L55.8668 89.4667L52.5334 89.8667L49.3334 90.2667L46.4001 90.8L43.4668 91.4667L40.8001 92.2667L38.5334 93.0667L36.4001 94L34.4001 94.9333L32.9334 95.8667L31.4668 97.0667L30.5334 98.2667L29.7334 99.4667L29.6001 100.933H31.2001L31.3334 100L31.8668 99.0667L32.5334 98.1334L33.7334 97.2L35.2001 96.2667L36.9334 95.3333L39.0668 94.6667L41.3334 93.8667L44.0001 93.0667L46.6668 92.4L49.6001 91.8667L52.8001 91.4667L56.1334 91.0667L59.4668 90.8L63.0668 90.5333H66.8001V88.9333Z" fill="black"/>
<path d="M28.5334 98.3999L28.8001 98.9332L29.3334 99.1999L29.8668 98.9332L30.1334 98.3999H28.5334Z" fill="black"/>
<path d="M66.8001 86.1333H62.9334L59.2001 86.4L55.6001 86.6666L52.1334 87.0666L48.8001 87.4666L45.7334 88.1333L42.8001 88.8L40.0001 89.4666L37.6001 90.4L35.4668 91.3333L33.4668 92.2666L31.7334 93.3333L30.5334 94.5333L29.4668 95.6L28.6668 96.9333L28.5334 98.4H30.1334L30.2668 97.4666L30.8001 96.6666L31.6001 95.6L32.8001 94.6666L34.2668 93.6L36.0001 92.6666L38.1334 92L40.5334 91.0666L43.0668 90.4L46.0001 89.7333L49.0668 89.0666L52.4001 88.6666L55.8668 88.2666L59.2001 88L62.9334 87.7333H66.8001V86.1333Z" fill="black"/>
<path d="M105.067 98.4L104.933 96.9333L104.133 95.6L103.067 94.5333L101.867 93.3333L100.133 92.2666L98.1334 91.3333L96 90.4L93.6 89.4666L90.8 88.8L87.8667 88.1333L84.8 87.4666L81.4667 87.0666L78 86.6666L74.4 86.4L70.6667 86.1333H66.8V87.7333H70.6667L74.4 88L77.7334 88.2666L81.2 88.6666L84.5334 89.0666L87.6 89.7333L90.5334 90.4L93.0667 91.0666L95.4667 92L97.6 92.6666L99.3334 93.6L100.8 94.6666L102 95.6L102.8 96.6666L103.333 97.4666L103.467 98.4H105.067Z" fill="black"/>
<path d="M103.467 98.3999L103.733 98.9332L104.267 99.1999L104.8 98.9332L105.067 98.3999H103.467Z" fill="black"/>
<path d="M25.2 89.4666L25.4666 89.9999L26 90.2666L26.5333 89.9999L26.8 89.4666H25.2Z" fill="black"/>
<path d="M66.7999 76.1333H62.6666L58.6666 76.4L54.6666 76.6666L50.7999 77.0666L47.3333 77.6L43.8666 78.2666L40.8 78.9333L37.7333 79.7333L35.0666 80.6666L32.8 81.7333L30.5333 82.8L28.6666 83.8666L27.3333 85.2L26.1333 86.5333L25.4666 87.8666L25.2 89.4666H26.8L27.0666 88.4L27.4666 87.3333L28.4 86.2666L29.7333 85.2L31.3333 84.1333L33.3333 83.0666L35.6 82.2666L38.2666 81.3333L41.0666 80.5333L44.1333 79.8666L47.5999 79.2L51.0666 78.6666L54.6666 78.2666L58.6666 78L62.6666 77.7333H66.7999V76.1333Z" fill="black"/>
<path d="M108.4 89.4666L108.133 87.8666L107.467 86.5333L106.267 85.2L104.933 83.8666L103.067 82.8L100.8 81.7333L98.5334 80.6666L95.8667 79.7333L92.8 78.9333L89.7334 78.2666L86.2667 77.6L82.8 77.0666L78.9334 76.6666L74.9334 76.4L70.9334 76.1333H66.8V77.7333H70.9334L74.9334 78L78.9334 78.2666L82.5334 78.6666L86 79.2L89.4667 79.8666L92.5334 80.5333L95.3334 81.3333L98 82.2666L100.267 83.0666L102.267 84.1333L103.867 85.2L105.2 86.2666L106.133 87.3333L106.533 88.4L106.8 89.4666H108.4Z" fill="black"/>
<path d="M106.8 89.4666L107.067 89.9999L107.6 90.2666L108.133 89.9999L108.4 89.4666H106.8Z" fill="black"/>
<path d="M66.8001 109.867C82.8531 109.867 95.8667 105.867 95.8667 100.933C95.8667 95.9996 82.8531 92 66.8001 92C50.747 92 37.7334 95.9996 37.7334 100.933C37.7334 105.867 50.747 109.867 66.8001 109.867Z" fill="#CC112F"/>
<path d="M96.6667 100.933L96.5334 99.7333L96.0001 98.6666L95.0667 97.7333L94.1334 96.8L92.8001 96L91.2001 95.3333L89.4667 94.4L87.6 93.8666L85.6 93.2L83.2 92.6666L80.8 92.2666L78.2667 91.8666L75.6 91.6L72.6667 91.3333L69.7334 91.2H66.8V92.8H69.7334L72.6667 92.9333L75.3334 93.2L78 93.4666L80.5334 93.8666L82.9334 94.2666L85.0667 94.8L87.0667 95.4666L88.9334 96L90.6667 96.6666L92.0001 97.3333L93.0667 98.1333L94.0001 98.8L94.6667 99.4666L94.9334 100.267L95.0667 100.933H96.6667Z" fill="black"/>
<path d="M66.8 110.667H69.7334L72.6667 110.533L75.6 110.267L78.2667 110L80.8 109.6L83.2 109.2L85.6 108.667L87.6 108L89.4667 107.467L91.2001 106.533L92.8001 105.867L94.1334 105.067L95.0667 104.133L96.0001 103.2L96.5334 102.133L96.6667 100.933H95.0667L94.9334 101.6L94.6667 102.4L94.0001 103.067L93.0667 103.733L92.0001 104.533L90.6667 105.2L88.9334 105.867L87.0667 106.4L85.0667 107.067L82.9334 107.6L80.5334 108L78 108.4L75.3334 108.667L72.6667 108.933L69.7334 109.067H66.8V110.667Z" fill="black"/>
<path d="M36.9333 100.933L37.0667 102.133L37.6 103.2L38.5333 104.133L39.4667 105.067L40.8 105.867L42.4 106.533L44.1333 107.467L46 108L48 108.667L50.4 109.2L52.8 109.6L55.3334 110L58 110.267L60.9334 110.533L63.8667 110.667H66.8V109.067H63.8667L60.9334 108.933L58.2667 108.667L55.6 108.4L53.0667 108L50.6667 107.6L48.5334 107.067L46.5334 106.4L44.6667 105.867L42.9333 105.2L41.6 104.533L40.5333 103.733L39.6 103.067L38.9333 102.4L38.6667 101.6L38.5333 100.933H36.9333Z" fill="black"/>
<path d="M66.8 91.2H63.8667L60.9334 91.3333L58 91.6L55.3334 91.8666L52.8 92.2666L50.4 92.6666L48 93.2L46 93.8666L44.1333 94.4L42.4 95.3333L40.8 96L39.4667 96.8L38.5333 97.7333L37.6 98.6666L37.0667 99.7333L36.9333 100.933H38.5333L38.6667 100.267L38.9333 99.4666L39.6 98.8L40.5333 98.1333L41.6 97.3333L42.9333 96.6666L44.6667 96L46.5334 95.4666L48.5334 94.8L50.6667 94.2666L53.0667 93.8666L55.6 93.4666L58.2667 93.2L60.9334 92.9333L63.8667 92.8H66.8V91.2Z" fill="black"/>
<path d="M66.6667 57.8667L67.3334 60.9333L68.0001 63.8667L68.8001 66.6667L69.8667 69.2L71.0667 71.4667L72.6667 73.0667L74.6667 74.2667L76.9334 74.8L79.3334 74.5333L81.6001 73.7333L83.6001 72.4L85.6001 70.4L87.3334 68.1333L88.9334 65.4667L90.2667 62.5333L91.4667 59.3333L91.2001 63.0667L91.3334 66.5333L91.7334 69.6L92.4001 72.4L93.4667 74.8L94.6667 76.6667L96.2667 78.1333L98.1334 79.0667L100.133 79.4667L102.133 79.3333L104 78.6667L105.867 77.4667L107.467 75.8667L109.2 73.8667L110.667 71.6L112.133 69.0667L113.467 66.4L114.667 63.6L115.733 60.6667L116.8 57.7333L117.733 54.9333L118.4 52.1333L119.067 49.4667L119.6 47.0667L116.4 46.5333L115.6 49.3333L114.8 52.1333L113.867 54.8L112.933 57.6L111.867 60.1333L110.8 62.6667L109.6 65.0667L108.533 67.2L107.333 69.3333L106.133 71.0667L104.933 72.6667L103.733 73.8667L102.533 74.8L101.467 75.4667L100.267 75.7333L99.2001 75.6L98.0001 74.9333L97.0667 73.8667L96.2667 72.4L95.6001 70.5333L95.2001 68.5333L94.9334 66.1333V63.6V60.9333V58.2667L95.2001 55.4667L95.3334 52.6667L95.7334 49.8667L96.0001 47.2L96.2667 44.6667L96.6667 42.4L96.9334 40.2667L93.2001 39.4667L92.6667 42.4L92.0001 45.3333L91.3334 48.1333L90.5334 51.0667L89.7334 53.7333L88.8001 56.4L87.8667 58.9333L86.9334 61.3333L85.8667 63.4667L84.8001 65.4667L83.7334 67.2L82.5334 68.6667L81.2001 69.7333L80.0001 70.6667L78.5334 71.0667L77.2001 71.2L75.8667 70.8L74.6667 70L73.6001 68.6667L72.6667 66.9333L71.8667 64.9333L71.2001 62.6667L70.5334 60.1333L70.0001 57.3333L69.6001 54.5333L69.3334 51.7333L69.0667 48.9333L68.9334 46.1333L68.8001 43.6V41.0667V38.9333V37.0667H64.5334V38.9333V41.0667V43.6L64.4001 46.1333L64.2667 48.9333L64.0001 51.7333L63.7334 54.5333L63.3334 57.3333L62.8001 60.1333L62.1334 62.6667L61.4667 64.9333L60.6667 66.9333L59.7334 68.6667L58.6667 70L57.4667 70.8L56.1334 71.2L54.8001 71.0667L53.3334 70.6667L52.1334 69.7333L50.8001 68.6667L49.6001 67.2L48.5334 65.4667L47.4667 63.4667L46.4001 61.3333L45.4667 58.9333L44.5334 56.4L43.6001 53.7333L42.8001 51.0667L42.0001 48.1333L41.3334 45.3333L40.6667 42.4L40.1334 39.4667L36.4001 40.2667L36.6667 42.4L37.0667 44.6667L37.3334 47.2L37.6001 49.8667L38.0001 52.6667L38.1334 55.4667L38.4001 58.2667L38.5334 60.9333L38.4001 63.6V66.1333L38.1334 68.5333L37.7334 70.5333L37.0667 72.4L36.2667 73.8667L35.3334 74.9333L34.1334 75.6L33.0667 75.7333L31.8667 75.4667L30.8001 74.8L29.6001 73.8667L28.4001 72.6667L27.2001 71.0667L26.0001 69.3333L24.8001 67.2L23.7334 65.0667L22.5334 62.6667L21.4667 60.1333L20.4001 57.6L19.4667 54.8L18.5334 52.1333L17.7334 49.3333L16.9334 46.5333L13.7334 47.0667L14.2667 49.4667L14.9334 52.1333L15.6001 54.9333L16.5334 57.7333L17.6001 60.6667L18.6667 63.6L19.8667 66.4L21.2001 69.0667L22.6667 71.6L24.1334 73.8667L25.8667 75.8667L27.4667 77.4667L29.3334 78.6667L31.2001 79.3333L33.2001 79.4667L35.2001 79.0667L37.0667 78.1333L38.6667 76.6667L39.8667 74.8L40.9334 72.4L41.6001 69.6L42.0001 66.5333L42.1334 63.0667L41.8667 59.3333L43.0667 62.5333L44.4001 65.4667L46.0001 68.1333L47.7334 70.4L49.7334 72.4L51.7334 73.7333L54.0001 74.5333L56.4001 74.8L58.6667 74.2667L60.6667 73.0667L62.2667 71.4667L63.4667 69.2L64.5334 66.6667L65.3334 63.8667L66.0001 60.9333L66.6667 57.8667Z" fill="#FCCC00"/>
<path d="M76.9334 74.0001L74.9334 73.4667L73.2 72.4001L71.7334 70.9334L70.5334 68.8001L69.6 66.4001L68.8 63.7334L68.1334 60.8001L67.4667 57.7334L65.8667 58.0001L66.5334 61.0667L67.2 64.0001L68 66.9334L69.2 69.6001L70.4 72.0001L72.1334 73.7334L74.4 75.0667L76.9334 75.6001L77.6 75.3334L77.7334 74.8001L77.6 74.2667L76.9334 74.0001Z" fill="black"/>
<path d="M92.2667 59.4668L90.6667 59.0668L89.4667 62.2668L88.2667 65.0668L86.6667 67.7334L84.9333 69.8668L83.0667 71.7334L81.2 73.0668L79.2 73.7334L76.9333 74.0001V75.6001L79.4667 75.3334L82 74.4001L84.1333 73.0668L86.2667 70.9334L88 68.5334L89.6 65.8668L91.0667 62.8001L92.2667 59.6001L90.6667 59.2001L92.2667 59.6001L92.1333 58.9334L91.7333 58.5334H91.0667L90.6667 59.0668L92.2667 59.4668Z" fill="black"/>
<path d="M98.3999 78.2666L96.6666 77.4666L95.3332 76.1333L94.1332 74.4L93.1999 72.1333L92.5332 69.4666L92.1332 66.5333L91.9999 63.0666L92.2666 59.4666L90.6666 59.2L90.3999 63.0666L90.5332 66.5333L90.9332 69.7333L91.5999 72.6666L92.7999 75.2L93.9999 77.2L95.8666 78.8L97.8666 79.8666L98.5332 79.7333L98.9332 79.1999V78.6666L98.3999 78.2666Z" fill="black"/>
<path d="M119.467 47.8666L118.8 46.9333L118.267 49.3333L117.6 51.9999L116.933 54.6666L116 57.4666L114.933 60.3999L113.867 63.3333L112.8 65.9999L111.467 68.6666L110 71.1999L108.533 73.3333L106.933 75.3333L105.333 76.7999L103.6 77.9999L102 78.5333L100.133 78.6666L98.4 78.2666L97.8667 79.8666L100.133 80.2666L102.267 80.1333L104.4 79.3333L106.4 78.1333L108 76.3999L109.867 74.3999L111.333 71.9999L112.8 69.4666L114.133 66.7999L115.467 63.8666L116.533 60.9333L117.6 57.9999L118.533 55.1999L119.2 52.2666L119.867 49.5999L120.4 47.1999L119.733 46.2666L120.4 47.1999L120.267 46.5333L119.733 46.2666L119.067 46.3999L118.8 46.9333L119.467 47.8666Z" fill="black"/>
<path d="M117.2 46.8001L116.267 47.3334L119.467 47.8667L119.733 46.2667L116.533 45.7334L115.6 46.2667L116.533 45.7334L115.867 45.8667L115.6 46.4001L115.733 47.0667L116.267 47.3334L117.2 46.8001Z" fill="black"/>
<path d="M98.9332 76.3999L100.267 76.5333L101.733 76.2666L102.933 75.4666L104.267 74.3999L105.6 73.1999L106.8 71.4666L108 69.7333L109.2 67.5999L110.267 65.4666L111.467 62.9333L112.667 60.3999L113.733 57.8666L114.667 55.0666L115.6 52.3999L116.4 49.5999L117.2 46.7999L115.6 46.2666L114.8 49.0666L114 51.8666L113.067 54.5333L112.133 57.3333L111.067 59.8666L110.133 62.3999L108.933 64.6666L107.867 66.7999L106.667 68.9333L105.467 70.6666L104.267 72.1333L103.2 73.3333L102.133 74.1333L101.2 74.6666L100.267 74.9333L99.4666 74.7999L98.7999 74.9333L98.3999 75.3333V75.9999L98.9332 76.3999Z" fill="black"/>
<path d="M96.8 41.0666L96.1333 40.1332L95.8666 42.2666L95.4666 44.5332L95.2 47.0666L94.9333 49.7332L94.5333 52.5332L94.4 55.4666L94.1333 58.2666V60.9332V63.5999V66.1332L94.4 68.6666L94.8 70.7999L95.6 72.6666L96.4 74.2666L97.4666 75.5999L98.9333 76.3999L99.4666 74.7999L98.5333 74.2666L97.7333 73.4666L96.9333 72.1332L96.4 70.2666L96 68.3999L95.7333 66.1332V63.5999V60.9332V58.2666L96 55.4666L96.1333 52.7999L96.5333 49.9999L96.8 47.3332L97.0666 44.7999L97.4666 42.5332L97.7333 40.3999L97.0666 39.4666L97.7333 40.3999L97.6 39.7332L97.0666 39.4666L96.4 39.5999L96.1333 40.1332L96.8 41.0666Z" fill="black"/>
<path d="M93.9999 39.6001L93.0666 40.2667L96.7999 41.0667L97.0666 39.4667L93.3332 38.6667L92.3999 39.3334L93.3332 38.6667L92.6666 38.8001L92.3999 39.3334L92.5332 40.0001L93.0666 40.2667L93.9999 39.6001Z" fill="black"/>
<path d="M77.1999 71.9999L78.6666 71.8666L80.3999 71.3333L81.7332 70.3999L83.0666 69.1999L84.3999 67.5999L85.4666 65.8666L86.5332 63.8666L87.5999 61.5999L88.6666 59.1999L89.5999 56.6666L90.5332 53.9999L91.3332 51.3333L92.1332 48.2666L92.7999 45.4666L93.4666 42.5333L93.9999 39.5999L92.3999 39.3333L91.8666 42.2666L91.1999 45.1999L90.5332 47.9999L89.7332 50.7999L88.9332 53.4666L87.9999 56.1333L87.0666 58.6666L86.2666 61.0666L85.1999 63.0666L84.1332 65.0666L83.0666 66.7999L81.9999 68.1333L80.6666 69.0666L79.5999 69.9999L78.3999 70.2666L77.1999 70.3999L76.6666 70.6666L76.3999 71.1999L76.6666 71.7333L77.1999 71.9999Z" fill="black"/>
<path d="M68.8 37.8666L68 37.0666V38.9333V41.0666V43.5999L68.1333 46.1333L68.2667 48.9333L68.5333 51.8666L68.8 54.6666L69.2 57.4666L69.7333 60.2666L70.4 62.9333L71.0667 65.1999L72 67.3333L72.9333 69.0666L74.1333 70.5333L75.4667 71.4666L77.2 71.9999V70.3999L76.2667 70.1333L75.2 69.4666L74.2667 68.2666L73.3333 66.5333L72.6667 64.6666L72 62.3999L71.3333 59.9999L70.8 57.1999L70.4 54.3999L70.1333 51.5999L69.8667 48.9333L69.7333 46.1333L69.6 43.5999V41.0666V38.9333V37.0666L68.8 36.2666L69.6 37.0666L69.3333 36.3999L68.8 36.2666L68.2667 36.3999L68 37.0666L68.8 37.8666Z" fill="black"/>
<path d="M65.3334 37.0666L64.5334 37.8666H68.8001V36.2666H64.5334L63.7334 37.0666L64.5334 36.2666L64.0001 36.5333L63.7334 37.0666L64.0001 37.5999L64.5334 37.8666L65.3334 37.0666Z" fill="black"/>
<path d="M56.1333 72L57.8666 71.4667L59.1999 70.5333L60.3999 69.0667L61.3333 67.3333L62.2666 65.2L62.9333 62.9333L63.5999 60.2667L64.1333 57.4667L64.5333 54.6667L64.7999 51.8667L65.0666 48.9333L65.1999 46.1333L65.3333 43.6V41.0667V38.9333V37.0667H63.7333V38.9333V41.0667V43.6L63.5999 46.1333L63.4666 48.9333L63.1999 51.6L62.9333 54.4L62.5333 57.2L61.9999 60L61.3333 62.4L60.6666 64.6667L59.9999 66.5333L59.0666 68.2667L58.1333 69.4667L57.0666 70.1333L56.1333 70.4L55.5999 70.6667L55.3333 71.2L55.5999 71.7333L56.1333 72Z" fill="black"/>
<path d="M40.2666 40.2667L39.3333 39.6001L39.8666 42.5334L40.5333 45.4667L41.1999 48.2667L41.9999 51.3334L42.7999 54.0001L43.7333 56.6667L44.6666 59.2001L45.7333 61.6001L46.7999 63.8667L47.8666 65.8667L48.9333 67.6001L50.2666 69.2001L51.5999 70.4001L52.9333 71.3334L54.6666 71.8667L56.1333 72.0001V70.4001L54.9333 70.2667L53.7333 70.0001L52.6666 69.0667L51.3333 68.1334L50.2666 66.8001L49.1999 65.0667L48.1333 63.0667L47.0666 61.0667L46.2666 58.6667L45.3333 56.1334L44.3999 53.4667L43.5999 50.8001L42.7999 48.0001L42.1333 45.2001L41.4666 42.2667L40.9333 39.3334L39.9999 38.6667L40.9333 39.3334L40.6666 38.8001L39.9999 38.6667L39.4666 38.9334L39.3333 39.6001L40.2666 40.2667Z" fill="black"/>
<path d="M37.2001 40.1334L36.5334 41.0667L40.2668 40.2667L40.0001 38.6667L36.2668 39.4667L35.6001 40.4001L36.2668 39.4667L35.7334 39.7334L35.6001 40.4001L35.8668 40.9334L36.5334 41.0667L37.2001 40.1334Z" fill="black"/>
<path d="M34.3999 76.4L35.8666 75.6L36.9333 74.2666L37.7333 72.6666L38.5333 70.8L38.9333 68.6666L39.1999 66.1333V63.6L39.3333 60.9333L39.1999 58.2666L38.9333 55.4666L38.7999 52.5333L38.3999 49.7333L38.1333 47.0666L37.8666 44.5333L37.4666 42.2666L37.1999 40.1333L35.5999 40.4L35.8666 42.5333L36.2666 44.8L36.5333 47.3333L36.7999 50L37.1999 52.8L37.3333 55.4666L37.5999 58.2666L37.7333 60.9333L37.5999 63.6V66.1333L37.3333 68.4L36.9333 70.2666L36.3999 72.1333L35.5999 73.4666L34.7999 74.2666L33.8666 74.8L33.3333 75.2V75.7333L33.7333 76.2666L34.3999 76.4Z" fill="black"/>
<path d="M17.0666 47.3334L16.1333 46.8001L16.9333 49.6001L17.7333 52.4001L18.6666 55.0667L19.6 57.8667L20.6666 60.4001L21.8666 62.9334L23.0666 65.4667L24.1333 67.6001L25.3333 69.7334L26.5333 71.4667L27.7333 73.2001L29.0666 74.4001L30.4 75.4667L31.6 76.2667L33.0666 76.5334L34.4 76.4001L33.8666 74.8001L33.0666 74.9334L32.1333 74.6667L31.2 74.1334L30.1333 73.3334L29.0666 72.1334L27.8666 70.6667L26.6666 68.9334L25.4666 66.8001L24.4 64.6667L23.2 62.4001L22.2666 59.8667L21.2 57.3334L20.2666 54.5334L19.3333 51.8667L18.5333 49.0667L17.7333 46.2667L16.8 45.7334L17.7333 46.2667L17.3333 45.7334H16.8L16.2666 46.1334L16.1333 46.8001L17.0666 47.3334Z" fill="black"/>
<path d="M14.5333 46.9334L13.8667 47.8667L17.0667 47.3334L16.8 45.7334L13.6 46.2667L12.9333 47.2001L13.6 46.2667L13.0667 46.5334L12.9333 47.2001L13.2 47.7334L13.8667 47.8667L14.5333 46.9334Z" fill="black"/>
<path d="M34.9333 78.2667L33.2 78.6667L31.3333 78.5333L29.7333 78L28 76.8L26.4 75.3333L24.8 73.3333L23.3333 71.2L21.8667 68.6667L20.5333 66L19.4667 63.3333L18.4 60.4L17.3333 57.4667L16.4 54.6667L15.7333 52L15.0667 49.3333L14.5333 46.9333L12.9333 47.2L13.4667 49.6L14.1333 52.2667L14.8 55.2L15.7333 58L16.8 60.9333L17.8667 63.8667L19.2 66.8L20.5333 69.4667L22 72L23.4667 74.4L25.3333 76.4L26.9333 78.1333L28.9333 79.3333L31.0667 80.1333L33.2 80.2667L35.4667 79.8667L36 79.4667V78.8L35.6 78.4L34.9333 78.2667Z" fill="black"/>
<path d="M42.6667 59.0668L41.0667 59.4668L41.3333 63.0668L41.2 66.5334L40.8 69.4668L40.1333 72.1334L39.2 74.4001L38 76.1334L36.6667 77.4668L34.9333 78.2668L35.4667 79.8668L37.4667 78.8001L39.3333 77.2001L40.5333 75.2001L41.7333 72.6668L42.4 69.7334L42.8 66.5334L42.9334 63.0668L42.6667 59.2001L41.0667 59.6001L42.6667 59.2001L42.4 58.6668L41.7333 58.5334L41.2 58.8001L41.0667 59.4668L42.6667 59.0668Z" fill="black"/>
<path d="M56.4 74L54.1333 73.7333L52.1333 73.0666L50.2666 71.7333L48.4 69.8666L46.6667 67.7333L45.0667 65.0667L43.8667 62.2667L42.6667 59.0667L41.0667 59.6L42.2667 62.8L43.7333 65.8666L45.3333 68.5333L47.0667 70.9333L49.2 73.0666L51.3333 74.4L53.8666 75.3333L56.4 75.6L57.0666 75.3333L57.2 74.8L57.0666 74.2666L56.4 74Z" fill="black"/>
<path d="M67.4666 57.7333H65.8666L65.1999 60.8L64.5332 63.7333L63.7332 66.4L62.7999 68.8L61.5999 70.9333L60.1332 72.4L58.3999 73.4666L56.3999 74V75.6L58.9332 75.0666L61.1999 73.7333L62.9332 72L64.1332 69.6L65.3332 66.9333L66.1332 64L66.7999 61.0667L67.4666 58H65.8666H67.4666L67.3332 57.3333L66.7999 57.0667L66.1332 57.2L65.8666 57.7333H67.4666Z" fill="black"/>
<path d="M66.5333 39.3332C70.657 39.3332 74 35.9903 74 31.8666C74 27.7428 70.657 24.3999 66.5333 24.3999C62.4096 24.3999 59.0667 27.7428 59.0667 31.8666C59.0667 35.9903 62.4096 39.3332 66.5333 39.3332Z" fill="white"/>
<path d="M74.9334 32.0001L74.8001 30.2668L74.2667 28.8001L73.4667 27.3334L72.5334 26.0001L71.2001 25.0668L69.8667 24.2668L68.2667 23.7334L66.6667 23.6001V25.2001L68.0001 25.3334L69.3334 25.6001L70.4001 26.4001L71.4667 27.0668L72.1334 28.1334L72.9334 29.3334L73.2001 30.5334L73.3334 32.0001H74.9334Z" fill="black"/>
<path d="M66.6667 40.2667L68.2667 40.1333L69.8667 39.6L71.2001 38.8L72.5334 37.8667L73.4667 36.5333L74.2667 35.2L74.8001 33.6L74.9334 32H73.3334L73.2001 33.3333L72.9334 34.6667L72.1334 35.7333L71.4667 36.8L70.4001 37.4667L69.3334 38.2667L68.0001 38.5333L66.6667 38.6667V40.2667Z" fill="black"/>
<path d="M58.2666 32L58.3999 33.6L58.9333 35.2L59.7333 36.5333L60.7999 37.8667L61.9999 38.8L63.4666 39.6L64.9333 40.1333L66.6666 40.2667V38.6667L65.1999 38.5333L63.9999 38.2667L62.7999 37.4667L61.8666 36.8L61.0666 35.7333L60.2666 34.6667L59.9999 33.3333L59.8666 32H58.2666Z" fill="black"/>
<path d="M66.6666 23.6001L64.9333 23.7334L63.4666 24.2668L61.9999 25.0668L60.7999 26.0001L59.7333 27.3334L58.9333 28.8001L58.3999 30.2668L58.2666 32.0001H59.8666L59.9999 30.5334L60.2666 29.3334L61.0666 28.1334L61.8666 27.0668L62.7999 26.4001L63.9999 25.6001L65.1999 25.3334L66.6666 25.2001V23.6001Z" fill="black"/>
<path d="M37.0668 42C41.1905 42 44.5334 38.657 44.5334 34.5333C44.5334 30.4096 41.1905 27.0667 37.0668 27.0667C32.943 27.0667 29.6001 30.4096 29.6001 34.5333C29.6001 38.657 32.943 42 37.0668 42Z" fill="white"/>
<path d="M45.4666 34.6666L45.3333 32.9333L44.8 31.4666L44 29.9999L43.0666 28.6666L41.7333 27.7333L40.4 26.9333L38.8 26.3999L37.2 26.2666V27.8666L38.5333 27.9999L39.8666 28.2666L40.9333 29.0666L42 29.7333L42.6666 30.7999L43.4666 31.9999L43.7333 33.1999L43.8666 34.6666H45.4666Z" fill="black"/>
<path d="M37.2 42.9334L38.8 42.8001L40.4 42.2667L41.7333 41.4667L43.0666 40.5334L44 39.2001L44.8 37.8667L45.3333 36.2667L45.4666 34.6667H43.8666L43.7333 36.0001L43.4666 37.3334L42.6666 38.4001L42 39.4667L40.9333 40.1334L39.8666 40.9334L38.5333 41.2001L37.2 41.3334V42.9334Z" fill="black"/>
<path d="M28.8 34.6667L28.9334 36.2667L29.4667 37.8667L30.2667 39.2001L31.3334 40.5334L32.5334 41.4667L34 42.2667L35.4667 42.8001L37.2 42.9334V41.3334L35.7334 41.2001L34.5334 40.9334L33.3334 40.1334L32.4 39.4667L31.6 38.4001L30.8 37.3334L30.5334 36.0001L30.4 34.6667H28.8Z" fill="black"/>
<path d="M37.2 26.2666L35.4667 26.3999L34 26.9333L32.5334 27.7333L31.3334 28.6666L30.2667 29.9999L29.4667 31.4666L28.9334 32.9333L28.8 34.6666H30.4L30.5334 33.1999L30.8 31.9999L31.6 30.7999L32.4 29.7333L33.3334 29.0666L34.5334 28.2666L35.7334 27.9999L37.2 27.8666V26.2666Z" fill="black"/>
<path d="M96.0001 42C100.124 42 103.467 38.657 103.467 34.5333C103.467 30.4096 100.124 27.0667 96.0001 27.0667C91.8764 27.0667 88.5334 30.4096 88.5334 34.5333C88.5334 38.657 91.8764 42 96.0001 42Z" fill="white"/>
<path d="M89.3334 34.6666L89.4667 33.1999L89.7334 31.9999L90.5334 30.7999L91.2001 29.7333L92.2667 29.0666L93.3334 28.2666L94.6667 27.9999L96.0001 27.8666V26.2666L94.4001 26.3999L92.8001 26.9333L91.4667 27.7333L90.1334 28.6666L89.2001 29.9999L88.4001 31.4666L87.8667 32.9333L87.7334 34.6666H89.3334Z" fill="black"/>
<path d="M96.0001 41.3334L94.6667 41.2001L93.3334 40.9334L92.2667 40.1334L91.2001 39.4667L90.5334 38.4001L89.7334 37.3334L89.4667 36.0001L89.3334 34.6667H87.7334L87.8667 36.2667L88.4001 37.8667L89.2001 39.2001L90.1334 40.5334L91.4667 41.4667L92.8001 42.2667L94.4001 42.8001L96.0001 42.9334V41.3334Z" fill="black"/>
<path d="M102.8 34.6667L102.667 36.0001L102.4 37.3334L101.6 38.4001L100.933 39.4667L99.8667 40.1334L98.6667 40.9334L97.4667 41.2001L96 41.3334V42.9334L97.7333 42.8001L99.2 42.2667L100.667 41.4667L102 40.5334L102.933 39.2001L103.733 37.8667L104.267 36.2667L104.4 34.6667H102.8Z" fill="black"/>
<path d="M96 27.8666L97.4667 27.9999L98.6667 28.2666L99.8667 29.0666L100.933 29.7333L101.6 30.7999L102.4 31.9999L102.667 33.1999L102.8 34.6666H104.4L104.267 32.9333L103.733 31.4666L102.933 29.9999L102 28.6666L100.667 27.7333L99.2 26.9333L97.7333 26.3999L96 26.2666V27.8666Z" fill="black"/>
<path d="M14.2667 50.1333C18.3904 50.1333 21.7334 46.7903 21.7334 42.6666C21.7334 38.5429 18.3904 35.2 14.2667 35.2C10.143 35.2 6.80005 38.5429 6.80005 42.6666C6.80005 46.7903 10.143 50.1333 14.2667 50.1333Z" fill="white"/>
<path d="M22.6666 42.7999L22.5332 41.0666L21.9999 39.5999L21.1999 38.1332L20.2666 36.7999L18.9332 35.8666L17.5999 35.0666L15.9999 34.5332L14.3999 34.3999V35.9999L15.7332 36.1332L17.0666 36.3999L18.1332 37.1999L19.1999 37.8666L19.8666 38.9332L20.6666 40.1332L20.9332 41.3332L21.0666 42.7999H22.6666Z" fill="black"/>
<path d="M14.3999 51.0667L15.9999 50.9334L17.5999 50.4L18.9332 49.6L20.2666 48.6667L21.1999 47.3334L21.9999 46L22.5332 44.4L22.6666 42.8H21.0666L20.9332 44.1334L20.6666 45.4667L19.8666 46.5334L19.1999 47.6L18.1332 48.2667L17.0666 49.0667L15.7332 49.3334L14.3999 49.4667V51.0667Z" fill="black"/>
<path d="M6 42.8L6.13333 44.4L6.66667 46L7.46667 47.3334L8.53333 48.6667L9.73333 49.6L11.2 50.4L12.6667 50.9334L14.4 51.0667V49.4667L12.9333 49.3334L11.7333 49.0667L10.5333 48.2667L9.6 47.6L8.8 46.5334L8 45.4667L7.73333 44.1334L7.6 42.8H6Z" fill="black"/>
<path d="M14.4 34.3999L12.6667 34.5332L11.2 35.0666L9.73333 35.8666L8.53333 36.7999L7.46667 38.1332L6.66667 39.5999L6.13333 41.0666L6 42.7999H7.6L7.73333 41.3332L8 40.1332L8.8 38.9332L9.6 37.8666L10.5333 37.1999L11.7333 36.3999L12.9333 36.1332L14.4 35.9999V34.3999Z" fill="black"/>
<path d="M118.8 50.1333C122.924 50.1333 126.267 46.7903 126.267 42.6666C126.267 38.5429 122.924 35.2 118.8 35.2C114.676 35.2 111.333 38.5429 111.333 42.6666C111.333 46.7903 114.676 50.1333 118.8 50.1333Z" fill="white"/>
<path d="M112.133 42.7999L112.267 41.3332L112.533 40.1332L113.333 38.9332L114 37.8666L115.067 37.1999L116.133 36.3999L117.467 36.1332L118.8 35.9999V34.3999L117.2 34.5332L115.6 35.0666L114.267 35.8666L112.933 36.7999L112 38.1332L111.2 39.5999L110.667 41.0666L110.533 42.7999H112.133Z" fill="black"/>
<path d="M118.8 49.4667L117.467 49.3334L116.133 49.0667L115.067 48.2667L114 47.6L113.333 46.5334L112.533 45.4667L112.267 44.1334L112.133 42.8H110.533L110.667 44.4L111.2 46L112 47.3334L112.933 48.6667L114.267 49.6L115.6 50.4L117.2 50.9334L118.8 51.0667V49.4667Z" fill="black"/>
<path d="M125.6 42.8L125.467 44.1334L125.2 45.4667L124.4 46.5334L123.733 47.6L122.667 48.2667L121.467 49.0667L120.267 49.3334L118.8 49.4667V51.0667L120.533 50.9334L122 50.4L123.467 49.6L124.8 48.6667L125.733 47.3334L126.533 46L127.067 44.4L127.2 42.8H125.6Z" fill="black"/>
<path d="M118.8 35.9999L120.267 36.1332L121.467 36.3999L122.667 37.1999L123.733 37.8666L124.4 38.9332L125.2 40.1332L125.467 41.3332L125.6 42.7999H127.2L127.067 41.0666L126.533 39.5999L125.733 38.1332L124.8 36.7999L123.467 35.8666L122 35.0666L120.533 34.5332L118.8 34.3999V35.9999Z" fill="black"/>
<path d="M133.333 0H600V133.333H133.333V0Z" fill="white"/>
<path d="M133.333 133.333H600V266.667H133.333V133.333Z" fill="black"/>
<path d="M133.333 266.667H600V400H133.333V266.667Z" fill="white"/>
</g>
<defs>
<clipPath id="clip0_1_1266">
<rect width="600" height="400" fill="white"/>
</clipPath>
</defs>
</svg>
