<svg width="600" height="400" viewBox="0 0 600 400" fill="none" xmlns="http://www.w3.org/2000/svg" xmlns:cgf="https://coding.garden/flags"><metadata id="cgf-metadata">

<cgf:flag>
  <cgf:name>Leeuwarden</cgf:name>
  <cgf:route>nl/fl/leeuwarden</cgf:route>
  <cgf:aspect-ratio>1.5</cgf:aspect-ratio>
</cgf:flag>

</metadata><g clip-path="url(#clip0_1_1420)">
<path d="M600 0H68.7023V400H600V0Z" fill="#0F47AF"/>
<path d="M68.7022 0H24.7327V400H68.7022V0Z" fill="white"/>
<path d="M34.4488 0H0V400H34.4488V0Z" fill="#DA131B"/>
<path d="M400.175 371.747C396.735 371.321 394.288 369.07 393.102 365.238C392.237 362.445 392.325 360.626 393.385 359.358C394.141 358.452 394.874 358.125 396.157 358.118C397.586 358.112 398.987 358.663 399.916 359.598L400.424 360.11L400.135 360.669C399.975 360.976 399.712 361.662 399.549 362.193C399.292 363.029 399.247 363.341 399.209 364.53C399.161 366.094 399.277 366.88 399.743 368.134C400.122 369.153 400.713 370.124 401.499 371.021C402.074 371.676 402.112 371.745 401.9 371.745C401.771 371.745 401.479 371.764 401.251 371.787C401.023 371.81 400.539 371.792 400.175 371.747V371.747ZM379.335 369.456C375.312 368.268 373.204 364.958 373.428 360.18C373.533 357.915 373.879 356.829 374.814 355.823C376.014 354.533 377.614 354.348 379.425 355.291C380.348 355.772 381.362 356.774 381.702 357.54L381.914 358.02L381.56 358.353C381.098 358.788 380.163 360.147 379.814 360.891C379.176 362.251 378.798 364.219 378.923 365.534C379.045 366.822 379.501 368.372 380.013 369.241C380.166 369.5 380.26 369.709 380.222 369.705C380.184 369.7 379.785 369.589 379.335 369.456V369.456ZM390.816 361.903C389.55 360.908 388.707 359.172 388.814 357.779C388.871 357.049 389.392 355.918 390.02 355.162C390.829 354.187 392.203 353.325 393.738 352.829C394.11 352.708 394.499 352.547 394.603 352.471C394.707 352.394 395.26 352.174 395.831 351.982C398.16 351.197 398.847 350.261 398.85 347.864C398.85 346.609 398.576 344.916 398.31 344.553C397.956 344.069 397.292 344.349 397.275 344.989C397.262 345.152 397.317 345.51 397.378 345.787C397.552 346.572 397.644 348.061 397.557 348.662C397.39 349.808 397.065 350.117 395.407 350.709C394.759 350.941 394.183 351.17 394.128 351.22C394.073 351.269 393.668 351.43 393.229 351.578C390.747 352.411 388.853 354.026 387.989 356.045C387.584 356.991 387.462 357.608 387.486 358.585C387.502 359.178 387.465 359.484 387.351 359.716C387.051 360.33 386.211 360.908 385.153 361.228C384.492 361.428 381.373 361.556 381.15 361.393C380.948 361.245 381.56 360.296 382.485 359.321L383.233 358.532L383.166 358.056C382.925 356.325 381.234 354.488 379.15 353.693C377.437 353.04 375.611 353.337 374.28 354.485C373.515 355.145 372.632 356.592 372.506 357.392C372.469 357.629 372.401 357.823 372.355 357.823C372.251 357.823 371.549 356.877 371.356 356.475C370.976 355.686 371.049 354.568 371.53 353.785C371.661 353.573 371.841 353.125 371.931 352.791C372.021 352.457 372.269 351.822 372.482 351.38C373.958 348.318 377.81 347.088 381.71 348.433C382.43 348.681 382.661 348.711 383.93 348.719C385.029 348.726 385.466 348.689 385.878 348.551C387.412 348.04 388.306 346.636 388.616 344.255C388.722 343.436 388.718 343.367 388.54 343.109C388.124 342.506 387.531 342.803 387.427 343.665C387.207 345.487 386.793 346.483 386.055 346.968C385.187 347.538 383.585 347.568 381.805 347.046C379.385 346.335 377.16 346.385 375.104 347.196C373.142 347.97 371.483 349.865 370.807 352.106C370.62 352.727 370.166 353.2 369.292 353.684C368.824 353.943 368.61 354 368.064 354.005C367.258 354.013 366.74 353.771 365.986 353.029C365.541 352.591 364.806 351.638 364.806 351.499C364.806 351.374 366.214 350.775 366.987 350.571L367.855 350.342L368.039 349.84C368.756 347.894 367.911 345.041 366.151 343.466C364.995 342.431 363.652 342.024 362.275 342.292L361.5 342.444V341.924C361.5 340.748 362.076 339.226 362.981 338.007C364.463 336.012 366.881 334.727 368.834 334.896C370.866 335.072 372.174 336.483 372.802 339.176C373.095 340.431 374.309 341.953 375.356 342.378C375.798 342.558 376.043 342.592 376.634 342.556C377.816 342.485 378.552 342.029 380.625 340.081C383.933 336.971 385.178 335.928 386.528 335.136C388.71 333.855 390.669 333.826 392.507 335.049L392.832 335.265L393.215 334.72L393.597 334.174L393.121 333.678C392.47 332.999 391.737 331.923 391.221 330.892C389.432 327.313 389.15 323.394 390.478 320.563C391.129 319.177 391.972 318.25 393.728 316.992C394.236 316.628 394.64 316.319 394.627 316.304C394.613 316.29 393.655 316.135 392.498 315.962C389.306 315.482 387.492 315.036 385.253 314.179C379.995 312.168 376.712 308.903 375.698 304.677C375.2 302.6 375.325 299.866 376.002 298.02C376.343 297.09 376.894 295.204 376.894 294.968C376.894 294.897 376.638 294.745 376.324 294.631L375.753 294.423L375.673 294.647C375.63 294.77 375.459 295.23 375.296 295.67C375.133 296.109 374.878 296.936 374.729 297.507C374.158 299.696 372.657 302.273 370.96 303.978C369.102 305.846 366.992 306.852 364.657 306.983C361.737 307.148 358.989 305.942 356.732 303.505C355.588 302.27 355.013 301.351 354.845 300.489C354.699 299.736 354.435 299.123 354.007 298.537L353.716 298.139L354.091 298.211C354.86 298.357 356.561 298.396 357.298 298.284C360.113 297.855 362.053 296.662 363.625 294.395C364.015 293.832 364.334 293.336 364.334 293.293C364.334 293.25 363.941 293.139 363.461 293.046C361.584 292.684 360.16 292.166 358.932 291.399C358.201 290.941 356.843 289.485 356.414 288.698C355.966 287.877 355.583 286.611 355.404 285.367C355.006 282.593 354.357 281.001 352.98 279.416L352.439 278.794L353.411 278.735C354.703 278.656 355.252 278.414 356.296 277.462L356.617 277.17L355.541 276.371C354.269 275.425 352.842 273.939 352.179 272.87C351.701 272.099 350.734 270.319 350.734 270.208C350.734 270.175 351.565 270.115 352.58 270.074C353.595 270.033 354.413 269.963 354.398 269.918C354.383 269.874 353.822 269.39 353.152 268.844C351.605 267.583 350.966 266.945 350.307 266.002C349.443 264.767 349.138 263.836 349.103 262.331C349.08 261.3 348.97 261.092 348.446 261.085C348.011 261.08 347.853 261.474 347.858 262.551C347.871 264.502 348.641 266.247 350.273 268.003L350.992 268.777L350.226 268.841C349.804 268.877 349.279 268.906 349.058 268.906C348.837 268.906 348.657 268.935 348.657 268.969C348.657 269.115 350.622 272.795 351.147 273.632C351.746 274.588 353.201 276.234 353.969 276.826C354.216 277.017 354.396 277.195 354.37 277.223C354.343 277.251 354.085 277.308 353.794 277.351C353.189 277.439 351.985 277.325 350.546 277.042C350 276.935 349.337 276.818 349.071 276.782C348.523 276.707 348.514 276.718 348.413 277.531L348.353 278.027L348.995 278.25C350.229 278.679 351.146 279.311 352.077 280.373C353.202 281.655 353.789 283.086 354.128 285.369C354.356 286.911 354.603 287.81 355.083 288.85C355.892 290.601 357.216 292.001 358.946 292.936C359.763 293.378 361.177 293.932 361.816 294.061C362.007 294.099 362.163 294.167 362.163 294.212C362.163 294.256 361.94 294.51 361.667 294.775C360.136 296.267 358.296 296.981 355.977 296.983C354.161 296.983 352.502 296.528 351.087 295.638L350.458 295.243L350.125 295.743C349.941 296.018 349.791 296.283 349.791 296.333C349.791 296.418 350.338 296.913 351.683 298.043C352.472 298.707 353.119 299.452 353.377 299.995C353.488 300.23 353.616 300.751 353.661 301.152C353.796 302.36 354.811 304.978 355.679 306.353C356.5 307.655 358.365 309.487 359.684 310.288C359.961 310.457 360.169 310.616 360.145 310.642C360.018 310.779 356.705 309.9 355.609 309.438C353.97 308.747 352.521 307.692 351.729 306.612C351.522 306.33 351.298 306.099 351.23 306.099C351.162 306.099 350.901 306.211 350.65 306.348L350.193 306.597L350.377 307.441C351.475 312.487 352.775 315.291 355.269 317.994C356.57 319.405 357.793 320.417 359.765 321.714C359.924 321.818 359.875 321.866 359.313 322.143C357.08 323.248 354.64 323.205 352.471 322.022C351.288 321.376 350.005 319.973 349.388 318.649C348.887 317.574 348.752 316.862 348.752 315.296C348.752 313.661 348.779 313.721 348.001 313.721C347.569 313.721 347.545 313.735 347.489 314.038C347.328 314.904 347.56 318.817 347.851 320.148C348.209 321.788 348.914 323.426 349.817 324.715C350.117 325.145 350.853 325.996 351.45 326.607C352.048 327.217 352.77 328.032 353.055 328.416C353.646 329.214 354.304 330.535 354.591 331.504C355.627 334.995 354.606 339.122 351.64 343.438C351.049 344.298 349.407 346.368 349.358 346.315C349.341 346.296 349.388 346.055 349.466 345.78C349.982 343.933 350.234 341.181 350.079 339.084C349.779 335.037 348.506 331.539 346.092 328.128C344.94 326.499 344.231 325.049 343.794 323.425C343.334 321.712 343.258 320.858 343.206 316.744L343.158 312.908H342.569H341.98L341.913 314.407C341.655 320.261 340.128 324.71 337.439 327.45C335.952 328.964 334.491 329.664 332.635 329.751C330.95 329.831 329.504 329.374 327.901 328.257L327.172 327.748L328.588 327.743C333.848 327.729 336.323 325.654 337.199 320.528C337.482 318.867 337.423 315.484 337.055 312.373C336.891 310.99 336.758 309.468 336.758 308.99C336.758 306.666 337.54 304.785 339.172 303.187C339.61 302.758 339.968 302.38 339.967 302.347C339.967 302.314 339.785 302.068 339.565 301.8L339.166 301.313L338.321 302.138C336.903 303.521 335.462 304.436 333.972 304.898C333.328 305.097 332.999 305.132 331.752 305.132C330.947 305.132 330.165 305.096 330.014 305.05L329.74 304.968L330.514 304.154C331.998 302.591 333.466 300.529 335.146 297.645L336.172 295.885L335.737 295.404C335.363 294.988 335.281 294.939 335.139 295.048C333.981 295.934 332.638 296.839 332.011 297.154C331.188 297.568 330.155 297.899 329.848 297.847C329.621 297.809 329.689 297.691 332.795 292.735C334.021 290.779 335.234 288.813 335.49 288.366L335.955 287.554L336.023 288.722C336.143 290.82 336.622 292.898 337.429 294.831C338.275 296.857 338.722 297.393 339.254 297.018C339.625 296.756 339.564 296.402 338.907 295.005C337.597 292.224 337.006 288.956 337.319 286.223C337.471 284.888 337.561 284.514 338.061 283.132C338.823 281.025 339.035 280.031 339.093 278.302C339.137 276.963 339.118 276.67 338.942 275.918C338.528 274.157 338.051 273.341 336.329 271.446C334.533 269.469 333.651 267.898 332.89 265.319C331.857 261.817 331.495 258.635 331.237 250.797C330.961 242.423 330.735 237.976 330.473 235.782C329.602 228.489 327.863 223.549 324.864 219.854C321.626 215.863 316.718 213.463 310.759 212.956C309.976 212.889 309.917 212.898 309.697 213.12C309.437 213.383 309.416 213.502 309.57 213.866C309.698 214.17 309.746 214.183 311.353 214.382C320.02 215.455 325.36 220.056 327.808 228.563C328.287 230.228 328.907 233.136 328.783 233.136C328.756 233.136 328.642 232.941 328.53 232.704C328.005 231.594 326.653 229.707 325.41 228.352C323.276 226.024 320.464 224.124 317.775 223.194C316.31 222.688 316.108 222.666 311.447 222.518C306.03 222.345 304.038 222.208 301.011 221.798C296.353 221.168 292.997 220.057 291.726 218.724C290.937 217.897 290.867 217.104 291.485 215.994C291.979 215.107 292.563 214.529 293.677 213.827C295.569 212.634 296.905 211.646 296.9 211.444C296.9 211.386 296.734 211.135 296.534 210.887L296.172 210.436L295.522 210.947C291.331 214.246 286.452 215.199 281.563 213.675C278.697 212.781 276.318 210.853 276.315 209.421C276.315 209.101 276.38 208.957 276.668 208.649C277.112 208.174 277.788 207.898 279.431 207.521C281.546 207.035 282.557 206.705 282.505 206.519C282.48 206.431 282.412 206.138 282.349 205.868L282.237 205.376L281.896 205.443C281.708 205.479 280.896 205.685 280.091 205.9C278.14 206.422 277.01 206.553 275.085 206.48C271.474 206.344 268.569 205.293 265.622 203.056C264.817 202.445 262.996 200.687 262.996 200.521C262.996 200.481 263.228 200.276 263.512 200.066C264.251 199.518 265.16 198.532 265.728 197.661L266.219 196.908L267.889 196.858L269.558 196.807L268.485 195.892C267.895 195.389 267.329 194.906 267.228 194.819C267.049 194.666 267.048 194.633 267.192 193.814C267.589 191.562 267.293 188.697 266.342 185.551L266.077 184.675L267.072 183.627C269.023 181.573 269.586 179.844 269.677 175.624L269.726 173.343L269.94 173.632C270.331 174.16 271.003 175.557 271.289 176.439C271.735 177.812 271.91 179.176 271.842 180.745C271.771 182.382 271.555 183.482 270.887 185.606C270.243 187.656 270.073 188.675 270.07 190.506C270.057 195.354 272.354 199.956 276.168 202.744C276.689 203.125 277.389 203.585 277.724 203.766C279.17 204.549 281.087 205.115 282.762 205.254L283.584 205.322V204.658V203.994L283.041 203.924C281.063 203.669 279.944 201.857 279.962 198.941C279.978 196.387 280.904 193.747 282.567 191.514C284.306 189.181 285.997 186.269 286.9 184.054C287.117 183.523 287.493 182.459 287.736 181.69L288.178 180.291L288.384 181.412C288.809 183.729 289.583 185.819 290.681 187.61C291.766 189.38 293.767 191.297 295.744 192.461C296.668 193.004 299.17 194.246 299.225 194.187C299.248 194.163 298.97 193.387 298.61 192.463C297.801 190.387 297.323 188.825 297.034 187.311C296.912 186.671 296.826 186.132 296.843 186.114C296.859 186.096 296.992 186.437 297.137 186.871C297.643 188.381 298.511 190.066 299.398 191.26C301.573 194.186 304.798 196.027 308.942 196.708C309.755 196.841 314.642 197.109 314.721 197.025C314.736 197.008 314.11 196.408 313.329 195.691C309.576 192.246 307.655 189.371 307.054 186.296C306.774 184.861 306.902 182.83 307.374 181.259C308.058 178.976 309.53 176.408 311.308 174.397C311.831 173.805 312.461 173.017 312.707 172.645C314.562 169.849 315.793 166.118 316.547 161.01C316.655 160.279 316.66 160.27 317.096 159.998C317.727 159.604 318.432 159.068 318.788 158.713C318.985 158.515 319.127 158.44 319.186 158.503C319.236 158.557 321.101 163.082 323.33 168.559L327.383 178.517L334.955 189.793L342.528 201.069L344.387 202.091C346.464 203.233 347.19 203.677 348.705 204.734C352.54 207.409 355.877 210.76 358.728 214.8C359.99 216.589 361.715 219.536 363.481 222.923C364.613 225.093 365.773 226.744 367.541 228.701C370.474 231.948 373.698 233.96 377.272 234.774C378.623 235.082 381.299 235.107 382.702 234.826C386.331 234.097 389.793 231.968 393.045 228.464C396.532 224.706 398.975 220.3 400.207 215.548C401.929 208.911 401.516 201.151 398.955 191.995C398.679 191.008 397.984 188.738 397.411 186.95C394.313 177.289 393.021 170.62 392.8 163.157C392.569 155.365 394.334 148.074 397.783 142.569C398.25 141.824 410.129 118.191 410.736 116.799C412.859 111.932 413.56 106.411 412.683 101.454C411.68 95.7771 408.642 90.7644 404.307 87.6302C402.782 86.5282 400.47 85.497 398.6 85.0843C395.423 84.3836 391.9 84.9967 389.046 86.7464C386.52 88.2953 384.113 90.9475 382.352 94.1208C381.167 96.2571 380.713 97.9895 380.796 100.066C380.852 101.48 381.063 102.388 381.607 103.553C382.324 105.087 383.404 106.327 384.801 107.22C387.333 108.838 390.744 108.981 393.729 107.592C394.151 107.396 394.507 107.246 394.519 107.259C394.587 107.332 394.223 109.134 393.987 109.891C393.42 111.711 392.668 113.031 391.483 114.285C389.847 116.017 387.909 116.779 385.464 116.654C383.409 116.548 381.421 115.906 379.712 114.795C378.691 114.131 377.63 113.638 377.212 113.634C377.052 113.631 376.989 113.724 376.905 114.083C376.726 114.847 376.749 114.915 377.235 115.047C379.875 115.762 381.401 118.628 382.181 124.338C382.523 126.843 383.356 128.914 384.542 130.208C385.321 131.059 386.084 131.54 387.235 131.907C388.058 132.17 389.75 132.349 390.604 132.263C391.007 132.223 391.249 132.236 391.249 132.299C391.249 132.552 390.458 133.668 389.811 134.325C386.456 137.74 380.563 137.551 376.629 133.903C374.106 131.564 372.374 127.914 371.746 123.616L371.683 123.184H371.044H370.404L370.345 123.666C370.313 123.932 370.203 124.84 370.101 125.684C369.466 130.913 369.713 135.637 370.811 139.29C371.482 141.523 372.812 143.994 374.139 145.472C375.849 147.377 378.076 148.808 380.766 149.73C381.103 149.845 381.889 150.064 382.513 150.215L383.646 150.49L383.613 150.783C383.553 151.315 383.156 152.338 382.838 152.784C382.431 153.355 381.846 153.833 381.219 154.107C380.783 154.299 380.542 154.326 379.349 154.321C378.111 154.316 377.907 154.289 377.224 154.037C374.807 153.146 373.112 151.58 371.284 148.551C370.72 147.617 370.237 146.876 370.211 146.904C370.186 146.932 370.224 147.791 370.293 148.813C370.458 151.164 370.458 155.494 370.293 156.972C369.786 161.527 368.533 164.837 366.41 167.226C364.383 169.508 362.038 170.741 358.429 171.424C357.665 171.568 356.924 171.603 354.556 171.604C352.946 171.604 351.547 171.569 351.446 171.525C351.305 171.463 351.663 171.246 353.052 170.553C355.048 169.558 356.063 168.961 357.248 168.09C360.1 165.991 361.952 163.288 362.772 160.027C363.209 158.292 363.325 157.228 363.327 154.94C363.327 153.324 363.29 152.572 363.162 151.843C362.472 147.852 362.355 143.456 362.873 140.989C363.09 139.959 363.471 138.76 363.822 138.003C364.75 136.006 365.333 133.51 365.39 131.299C365.414 130.353 365.403 130.191 365.237 130.003C365.06 129.791 364.665 129.722 364.463 129.867C364.235 130.031 364.142 130.424 364.142 131.23C364.142 132.877 363.67 135.028 362.951 136.663C362.31 138.122 360.496 140.3 358.901 141.526C357.871 142.318 356.396 143.151 355.123 143.662C354.139 144.057 352.065 144.656 351.251 144.78L350.779 144.853L351.534 144.105C354.038 141.626 355.868 139.071 357.311 136.039C359.797 130.815 360.926 125.241 361.214 116.773C361.267 115.232 361.372 113.463 361.448 112.844C362.409 105 365.743 99.6619 371.675 96.4678L372.266 96.1497L371.98 95.5412L371.695 94.9326L371.127 95.2409C369.651 96.0426 367.71 96.4837 366.56 96.2787C364.487 95.909 363.154 94.173 362.81 91.3928C362.535 89.1669 363.174 86.4354 364.386 84.6596C364.782 84.0784 365.742 83.1303 365.857 83.2067C365.901 83.2358 365.938 83.3836 365.938 83.5351C365.938 83.9716 366.292 85.2311 366.623 85.9726C367.009 86.8362 367.87 87.7881 368.6 88.1579C370.019 88.877 372.145 88.6108 374.49 87.4207C376.359 86.472 378.082 85.2566 380.307 83.316C384.578 79.5906 388.971 77.3092 393.657 76.3829C394.774 76.1622 398.183 76.0684 399.33 76.2268C402.416 76.6536 405.46 77.8258 407.918 79.5342C413.642 83.5121 417.864 90.4101 419.52 98.4904C420.07 101.17 420.192 102.544 420.19 106.01C420.19 108.984 420.169 109.343 419.927 111.068C419.525 113.927 418.916 116.414 418.014 118.88C417.786 119.503 414.553 126.363 410.83 134.123C407.107 141.883 403.838 148.759 403.566 149.401C400.223 157.308 399.892 168.95 402.668 181.056C403.223 183.477 403.795 185.37 404.837 188.236C405.783 190.837 406.393 192.653 406.915 194.419C409.488 203.128 409.993 210.671 408.44 217.232C407.382 221.7 405.44 225.67 401.946 230.507C401.517 231.102 401.165 231.621 401.165 231.66C401.165 231.7 401.496 232.112 401.899 232.576C402.953 233.788 403.69 235.373 404.043 237.186C404.115 237.556 404.162 237.872 404.147 237.888C404.132 237.904 403.869 237.765 403.563 237.58C402.313 236.824 401.308 236.475 399.813 236.278C398.944 236.164 398.541 236.17 396.802 236.324C395.698 236.421 394.78 236.517 394.762 236.537C394.744 236.556 395.235 236.984 395.855 237.487C397.691 238.979 398.333 239.758 398.703 240.94C398.811 241.283 398.899 241.75 398.899 241.978C398.899 242.427 398.66 243.669 398.53 243.892C398.47 243.997 398.215 243.858 397.436 243.293C394.761 241.356 392.711 240.589 388.776 240.057C387.643 239.903 386.716 239.792 386.716 239.81C386.716 239.827 387.327 240.366 388.075 241.007C389.502 242.231 389.994 242.826 390.246 243.631C390.409 244.149 390.446 244.677 390.326 244.757C390.286 244.783 389.82 244.494 389.29 244.113C387.059 242.51 384.707 241.631 382.088 241.423C381.646 241.388 381.089 241.335 380.848 241.304L380.412 241.249L380.353 241.816C380.319 242.128 380.268 242.633 380.236 242.938L380.178 243.493L379.834 243.305C378.787 242.73 377.267 242.215 375.713 241.909C374.935 241.756 374.328 241.725 372.266 241.737C370.889 241.745 369.587 241.791 369.371 241.839L368.979 241.925L369.598 243.043C371.276 246.077 372.446 249.14 373.718 253.83C374.685 257.398 375.566 261.378 377.335 270.173L377.6 271.492L378.734 272.726C380.854 275.032 382.665 276.193 385.346 276.965C385.991 277.15 386.358 277.182 387.849 277.18C389.487 277.18 389.649 277.16 390.446 276.896C391.837 276.436 392.684 275.897 393.661 274.85C394.602 273.841 395.041 273.03 395.367 271.7C395.591 270.784 395.594 269.041 395.38 268.023C395.057 266.532 394.414 264.938 393.57 263.533C393.335 263.143 393.143 262.797 393.143 262.765C393.143 262.733 393.7 262.706 394.38 262.706C397.132 262.706 399.214 263.551 400.893 265.347C402.201 266.747 402.722 268.053 402.718 269.921C402.705 271.552 402.284 272.935 401.327 274.392L400.893 275.052L401.288 275.484C401.505 275.722 401.733 275.917 401.795 275.917C402.007 275.917 404.27 273.476 404.883 272.586C406.598 270.097 407.707 267.191 409.059 261.639C409.827 258.487 410.987 256.083 412.887 253.706C415.581 250.337 419.562 248.186 422.691 248.407C425.792 248.627 427.79 250.794 428.551 254.762C428.713 255.607 428.853 258.106 428.784 258.924L428.723 259.663L428.394 259.076C427.634 257.718 426.589 256.539 425.409 255.71C422.443 253.627 418.7 254.013 416.229 256.657C414.925 258.053 414.13 259.814 413.776 262.097C413.552 263.534 412.826 266.655 412.392 268.041C411.757 270.066 411.231 271.005 410.153 272.036C409.784 272.389 409.483 272.734 409.483 272.803C409.483 272.871 409.663 273.117 409.884 273.349L410.285 273.77L411.134 272.962C412.58 271.586 414.142 270.94 416.027 270.938C419.846 270.933 422.953 273.65 423.992 277.898C424.195 278.728 424.249 279.217 424.286 280.565C424.334 282.227 424.256 283.188 423.962 284.598L423.815 285.301L423.492 284.09C422.518 280.442 420.425 277.529 417.771 276.125C416.646 275.53 415.689 275.283 414.488 275.277C412.01 275.265 410.231 276.433 408.666 279.102C407.685 280.772 407.229 281.402 406.261 282.426C405.28 283.461 404.123 284.367 402.425 285.429C401.044 286.292 401.123 286.164 401.397 287.095L401.503 287.451L402.258 287.515C404.002 287.663 405.38 288.641 407.116 290.964C407.516 291.5 408.094 292.346 408.399 292.844C408.704 293.343 409.1 293.946 409.279 294.185C409.75 294.815 410.865 295.578 411.759 295.882C412.73 296.212 414.463 296.381 415.903 296.285C417.18 296.201 417.184 296.23 416.015 297.036C414.051 298.39 412.488 298.958 410.475 299.053C408.62 299.14 407.062 298.764 405.292 297.802C404.201 297.209 403.403 296.618 401.833 295.242C401.132 294.627 400.55 294.133 400.539 294.144C400.507 294.178 401.239 297.075 401.398 297.544C401.738 298.55 402.172 299.252 403.012 300.155C404.271 301.51 405.369 302.09 407.802 302.685C410.259 303.286 411.941 303.99 412.793 304.773L413.119 305.073L412.222 305.078C410.587 305.086 409.24 305.413 405.706 306.656C404.381 307.122 403.134 307.536 402.935 307.576C402.737 307.616 402.557 307.7 402.536 307.763C402.516 307.826 402.552 308.128 402.617 308.436L402.735 308.995L403.252 308.944C406.159 308.658 408.341 309.605 410.71 312.183C411.749 313.313 412.853 314.86 413.68 316.344C413.895 316.731 414.213 317.124 414.476 317.33C415.022 317.758 416.244 318.424 416.991 318.7C418.236 319.16 419.982 319.329 421.135 319.099C421.433 319.04 421.717 319.006 421.765 319.023C421.895 319.07 420.874 320.266 420.098 320.977C418.848 322.122 417.335 322.933 415.677 323.347C414.608 323.615 411.749 323.577 410.285 323.276C408.627 322.935 408.73 322.915 408.514 323.609C408.413 323.934 408.345 324.211 408.363 324.225C408.381 324.238 408.74 324.416 409.16 324.619C413.825 326.874 416.754 327.253 419.678 325.983C420.34 325.695 420.343 325.67 419.586 326.88C418.418 328.745 416.658 330.291 415.079 330.839C414.806 330.934 414.583 331.068 414.583 331.137C414.583 331.44 414.884 332.316 414.988 332.315C415.051 332.315 415.591 332.221 416.188 332.107C417.783 331.803 420.424 331.725 421.477 331.952C424.485 332.601 425.347 334.577 424.44 338.743C424.357 339.121 424.26 339.429 424.222 339.429C424.185 339.429 424.053 339.313 423.928 339.17C423.635 338.835 422.544 338.196 421.761 337.902C420.934 337.592 419.504 337.564 418.712 337.844C417.133 338.401 415.767 339.984 415.176 341.942C414.851 343.018 414.838 344.304 415.144 345.152C415.379 345.804 415.414 345.83 416.425 346.077C416.788 346.166 417.407 346.38 417.799 346.553C418.528 346.875 419.788 347.721 419.847 347.928C419.865 347.991 419.549 348.331 419.144 348.683C416.782 350.735 414.61 351.577 413.004 351.064C412.074 350.767 411.218 349.624 410.758 348.067C410.667 347.76 410.561 347.47 410.522 347.424C410.483 347.377 409.861 347.608 409.14 347.936C406.138 349.301 404.959 350.485 405.062 352.032C405.089 352.447 405.132 352.516 405.564 352.842C406.286 353.388 406.961 354.16 407.206 354.722C407.491 355.375 407.456 356.412 407.124 357.111C406.616 358.182 405.505 359.373 404.136 360.316C403.164 360.985 400.984 362.087 400.984 361.909C400.984 361.866 401.179 361.467 401.417 361.021L401.85 360.211L401.594 359.676C400.66 357.728 397.384 356.309 395.055 356.842C393.171 357.274 391.873 358.628 391.387 360.668C391.3 361.031 391.225 361.523 391.219 361.76C391.206 361.998 391.204 362.192 391.199 362.192C391.186 362.192 391.023 362.062 390.821 361.903L390.816 361.903ZM405.917 318.234C407.086 316.852 407.393 315.633 406.852 314.52C406.399 313.586 405.35 312.926 404.034 312.747C403.15 312.627 402.496 313.055 402.637 313.662C402.722 314.026 402.916 314.114 403.629 314.115C404.968 314.115 406.012 314.908 405.837 315.786C405.744 316.249 405.582 316.556 405.076 317.224C404.436 318.069 404.488 318.7 405.198 318.7C405.463 318.7 405.595 318.615 405.917 318.234H405.917ZM401.37 309.021C402.844 307.297 402.851 305.443 401.386 304.358C400.547 303.737 399.125 303.413 398.491 303.698C398.095 303.876 397.916 304.243 398.046 304.612C398.157 304.922 398.316 304.981 399.034 304.981C399.752 304.981 400.356 305.191 400.816 305.598C401.454 306.164 401.357 306.901 400.491 308.061C400.24 308.397 400.03 308.723 400.024 308.783C399.974 309.286 400.187 309.554 400.634 309.554C400.851 309.554 401.017 309.434 401.371 309.021H401.37ZM398.981 298.869C399.598 298.054 399.866 297.416 399.915 296.649C399.953 296.067 399.928 295.922 399.684 295.43C399.211 294.465 398.168 293.816 396.817 293.647C395.896 293.532 395.268 294.01 395.496 294.653C395.606 294.963 395.765 295.023 396.483 295.023C397.533 295.023 398.507 295.582 398.669 296.277C398.763 296.679 398.489 297.367 397.946 298.095C397.473 298.729 397.447 298.787 397.482 299.138C397.509 299.415 397.646 299.576 397.892 299.62C398.216 299.678 398.536 299.457 398.981 298.869V298.869ZM395.076 289.205C396.173 287.994 397.007 286.4 397.205 285.137C397.575 282.776 396.153 280.825 393.375 279.884C392.941 279.737 392.374 279.644 391.723 279.613C390.811 279.569 390.701 279.584 390.353 279.802C389.887 280.094 389.792 280.548 390.122 280.903C390.295 281.089 390.382 281.111 390.671 281.04C392.461 280.606 395.02 281.726 395.728 283.255C396.032 283.912 396.057 284.81 395.793 285.616C395.571 286.296 394.913 287.402 394.288 288.145C394.027 288.455 393.766 288.805 393.707 288.922C393.584 289.17 393.666 289.53 393.885 289.71C394.209 289.975 394.484 289.858 395.076 289.205H395.076ZM341.897 206.353C342.107 206.127 342.117 205.87 341.936 205.37C341.874 205.199 341.763 205.09 341.652 205.09C341.364 205.09 340.896 204.795 340.511 204.371C340.237 204.068 340.157 203.899 340.157 203.621C340.157 203.364 340.116 203.261 340.01 203.261C339.931 203.261 339.71 203.1 339.521 202.903C339.333 202.706 339.069 202.518 338.936 202.487C338.637 202.416 338.182 202.191 337.961 202.005C337.834 201.899 337.796 201.715 337.796 201.211C337.796 200.56 337.783 200.554 337.462 200.384C337.278 200.289 337.021 200.212 336.891 200.212C336.76 200.212 336.553 200.104 336.43 199.971C336.271 199.8 336.046 199.708 335.663 199.657C334.826 199.544 334.588 199.36 334.586 198.819C334.586 198.567 334.492 198.398 334.183 198.085C333.962 197.86 333.696 197.676 333.592 197.674C333.488 197.674 333.243 197.58 333.049 197.469C332.855 197.357 332.643 197.264 332.578 197.263C332.513 197.263 332.353 197.172 332.223 197.062C332.094 196.953 331.913 196.863 331.822 196.861C331.672 196.861 331.657 196.716 331.657 195.303V193.747L331.397 193.479C331.108 193.181 330.302 192.693 330.1 192.693C330.028 192.693 329.754 192.467 329.491 192.191C329.076 191.756 329.012 191.637 329.012 191.289C329.012 191.057 328.953 190.835 328.871 190.762C328.772 190.674 328.729 190.44 328.729 189.995C328.729 189.375 328.716 189.341 328.328 188.936C327.989 188.582 327.879 188.524 327.628 188.564C327.412 188.599 327.282 188.557 327.164 188.417C327.061 188.296 326.876 188.221 326.675 188.221C326.496 188.221 326.232 188.131 326.088 188.021C325.944 187.91 325.723 187.778 325.597 187.726C325.472 187.675 325.245 187.441 325.094 187.207C324.87 186.859 324.807 186.628 324.75 185.951C324.622 184.437 324.632 184.458 323.912 184.046C323.679 183.912 323.281 183.608 323.029 183.37C322.776 183.132 322.512 182.937 322.441 182.937C322.37 182.937 322.242 182.823 322.157 182.683C322.072 182.543 321.942 182.429 321.869 182.429C321.675 182.429 321.551 181.993 321.551 181.308C321.551 180.783 321.514 180.664 321.259 180.351C321.085 180.137 320.809 179.943 320.575 179.868C320.359 179.8 320.139 179.683 320.086 179.609C320.033 179.535 319.799 179.46 319.567 179.443C319.334 179.426 318.985 179.325 318.791 179.219L318.439 179.025L318.427 176.916C318.414 174.945 318.411 174.794 318.235 174.604C318.013 174.364 317.696 174.347 317.433 174.561C317.254 174.706 317.242 174.852 317.216 177.235L317.189 179.755L317.571 180.126C317.782 180.331 318.049 180.5 318.166 180.502C318.283 180.502 318.485 180.571 318.614 180.651C318.744 180.731 318.941 180.798 319.051 180.8C319.162 180.8 319.305 180.872 319.37 180.956C319.435 181.04 319.606 181.108 319.752 181.108C320.277 181.108 320.314 181.168 320.314 182.013C320.314 182.443 320.35 182.838 320.395 182.891C320.44 182.945 320.531 183.285 320.598 183.649C320.769 184.578 320.834 184.672 320.975 184.197C321.04 183.979 321.125 183.763 321.165 183.716C321.203 183.669 321.464 183.981 321.741 184.408L322.246 185.185L322.344 184.868L322.443 184.552L322.675 184.817C322.801 184.963 323.013 185.137 323.145 185.204C323.365 185.318 323.387 185.392 323.433 186.19C323.473 186.874 323.536 187.156 323.74 187.551C323.881 187.824 323.997 188.109 323.997 188.183C323.997 188.258 324.114 188.397 324.257 188.494C324.4 188.591 324.637 188.775 324.783 188.903C324.93 189.031 325.126 189.136 325.217 189.136C325.31 189.136 325.46 189.226 325.554 189.337C325.646 189.448 325.877 189.565 326.064 189.597C326.252 189.63 326.518 189.722 326.656 189.803C326.794 189.883 327.017 189.949 327.152 189.949C327.382 189.949 327.397 189.979 327.397 190.443C327.397 190.784 327.455 191.018 327.586 191.196C327.695 191.346 327.775 191.608 327.775 191.819C327.775 192.02 327.849 192.28 327.94 192.397C328.257 192.803 329.428 194.009 329.508 194.011C329.553 194.011 329.715 194.128 329.87 194.268C330.024 194.407 330.21 194.522 330.282 194.522C330.389 194.522 330.419 194.831 330.44 196.108L330.467 197.694L331.128 198.081C331.492 198.294 331.923 198.496 332.087 198.53C332.251 198.564 332.436 198.659 332.5 198.742C332.563 198.824 332.698 198.891 332.799 198.891C333.11 198.891 333.348 199.088 333.348 199.346C333.348 199.481 333.39 199.619 333.441 199.654C333.493 199.688 333.535 199.802 333.535 199.907C333.535 200.012 333.717 200.258 333.94 200.454C334.246 200.724 334.484 200.835 334.923 200.911C335.242 200.966 335.674 201.128 335.886 201.272C336.097 201.416 336.335 201.533 336.414 201.533C336.519 201.533 336.557 201.645 336.557 201.949C336.557 202.253 336.637 202.484 336.857 202.812C337.021 203.059 337.202 203.261 337.258 203.261C337.314 203.261 337.509 203.364 337.691 203.488C337.872 203.612 338.165 203.761 338.341 203.818C338.585 203.897 338.721 204.04 338.908 204.416C339.044 204.688 339.24 205.008 339.344 205.127C339.448 205.247 339.619 205.458 339.722 205.598C339.989 205.959 341.002 206.477 341.485 206.501C341.624 206.507 341.805 206.441 341.887 206.353H341.897ZM358.706 357.6C356.899 355.574 356.286 353.475 356.768 350.962C357.159 348.924 358.445 346.54 360.009 344.953C361.304 343.64 363.159 343.233 364.57 343.954C366.074 344.722 367.258 347.024 367.022 348.721C366.967 349.118 366.919 349.196 366.708 349.244C366.112 349.38 364.983 349.847 364.264 350.255C363.268 350.82 362.538 351.427 361.743 352.352C360.438 353.868 359.82 355.414 359.539 357.861L359.471 358.457L358.706 357.6H358.706ZM423.83 353.595C423.811 352.288 423.275 350.384 422.59 349.186C422.027 348.202 420.955 346.995 420.067 346.348C419.26 345.759 417.892 345.075 417.081 344.854C416.717 344.756 416.367 344.606 416.302 344.523C416.135 344.308 416.154 343.134 416.335 342.472C417.082 339.735 419.258 338.39 421.529 339.262C422.647 339.691 423.424 340.389 424.509 341.941C426.299 344.501 427.002 347.104 426.52 349.386C426.236 350.728 425.37 352.259 424.283 353.341C423.923 353.698 423.834 353.749 423.831 353.595H423.83ZM249.449 348.754C251.627 345.809 251.874 341.993 250.102 338.696C249.87 338.264 249.68 337.869 249.68 337.819C249.68 337.65 250.436 336.887 250.962 336.524C252.447 335.503 254.469 335.237 255.707 335.901C256.363 336.253 256.806 336.73 257.162 337.469C257.689 338.56 257.756 338.992 257.623 340.426C257.207 344.887 255.288 347.871 252.041 349.103C251.342 349.368 250.142 349.592 249.42 349.592H248.829L249.449 348.754V348.754ZM222.902 346.632C221.685 345.266 221.082 344.005 220.878 342.401C220.552 339.841 221.729 336.8 224.027 334.269C225.844 332.267 228.258 332.071 229.886 333.795C230.824 334.789 231.477 336.647 231.288 337.79L231.215 338.234L230.413 338.479C227.568 339.351 225.3 341.459 224.281 344.178C223.991 344.953 223.819 345.756 223.725 346.785L223.661 347.483L222.902 346.632V346.632ZM248.169 342.467C247.06 342.33 245.658 341.901 244.859 341.454C243.973 340.958 243.355 340.326 243.002 339.552C242.761 339.023 242.738 338.877 242.741 337.855C242.754 336.87 242.778 336.632 243.035 335.853C243.195 335.367 243.672 334.287 244.095 333.454C244.517 332.621 244.863 331.913 244.863 331.882C244.863 331.786 241.082 333.59 240.33 334.045C239.279 334.68 238.301 335.518 237.667 336.325C236.937 337.254 236.3 338.656 236.246 339.454C236.219 339.839 236.145 340.11 236.025 340.252C235.303 341.111 233.29 341.25 230.95 340.603C229.487 340.199 229.495 340.207 230.366 339.91C230.782 339.769 231.328 339.62 231.581 339.579C232.027 339.507 232.047 339.489 232.267 338.952C232.762 337.748 232.632 336.13 231.912 334.552C231.601 333.872 231.355 333.515 230.753 332.87C229.657 331.696 228.803 331.298 227.368 331.288C225.947 331.279 224.487 331.904 223.448 332.965C223.123 333.297 222.858 333.502 222.858 333.421C222.858 333.092 223.142 332.135 223.371 331.695C223.699 331.065 224.606 330.017 225.231 329.546C226.24 328.785 226.903 328.351 227.264 328.214C229.107 327.514 231.512 328.466 233.928 330.852C234.682 331.596 235.315 331.849 236.41 331.841C237.688 331.832 238.779 331.33 240.351 330.029C241.33 329.218 244.284 326.321 244.346 326.11C244.404 325.915 244.251 325.513 244.07 325.383C243.824 325.206 243.471 325.324 243.01 325.737C242.744 325.975 241.973 326.71 241.297 327.372C238.89 329.727 237.706 330.477 236.384 330.484C235.647 330.49 235.21 330.299 234.663 329.737C232.688 327.706 230.164 326.504 228.197 326.659C227.111 326.744 225.784 327.272 225.161 327.867C224.863 328.152 224.083 328.44 223.406 328.514C221.989 328.67 220.273 327.738 219.028 326.136C218.206 325.078 218.205 325.072 218.86 325.153C219.163 325.191 219.768 325.309 220.206 325.418L221.001 325.614L221.433 325.225C222.015 324.702 222.58 323.78 222.849 322.916C223.114 322.063 223.21 320.555 223.056 319.665C222.734 317.811 221.493 316.341 219.788 315.798C219.026 315.555 217.049 315.552 216.445 315.793C216.216 315.884 216.015 315.944 215.998 315.926C215.982 315.908 216.011 315.599 216.064 315.239C216.358 313.218 217.329 311.566 218.673 310.801C218.975 310.629 219.577 310.387 220.011 310.262C220.739 310.052 220.863 310.044 221.616 310.156C223.984 310.507 225.556 311.321 226.08 312.467C226.271 312.884 226.304 313.104 226.299 313.924C226.287 314.785 226.252 315.018 225.906 316.073C225.394 317.641 225.251 318.592 225.403 319.435C225.544 320.218 225.86 320.824 226.328 321.208C227.518 322.185 229.122 322.351 233.492 321.946C234.733 321.831 236.314 321.725 237.004 321.71C238.345 321.682 238.46 321.64 238.566 321.139C238.625 320.856 238.498 320.622 238.188 320.444C237.872 320.263 236.485 320.304 233.577 320.58C229.797 320.938 228.453 320.897 227.491 320.393C226.813 320.038 226.683 319.76 226.683 318.667C226.683 317.83 226.724 317.606 227.092 316.474C227.929 313.89 227.743 312.19 226.471 310.822C225.421 309.692 223.615 309 220.898 308.688C220.54 308.646 220.308 308.572 220.308 308.499C220.308 308.432 220.503 308.202 220.742 307.988C221.305 307.481 221.754 306.717 222.068 305.726C222.278 305.065 222.322 304.742 222.33 303.813C222.342 302.593 222.23 302.019 221.814 301.12C221.312 300.035 220.369 299.144 219.336 298.782L218.858 298.614L219.243 298.212C221.526 295.828 227.196 297.081 230.423 300.683C231.788 302.206 232.391 303.561 232.471 305.276C232.539 306.75 232.224 307.924 231.336 309.504L230.879 310.316L231.373 310.811C232.849 312.289 234.58 313.271 236.836 313.911C238.348 314.341 239.64 314.532 241.511 314.603C251.177 314.971 263.157 309.49 266.003 303.398C266.562 302.202 266.629 301.884 266.605 300.55C266.567 298.422 266.955 297.043 267.973 295.689C268.885 294.475 270.913 293.093 273.196 292.128C273.69 291.92 275.447 291.255 277.101 290.65C278.756 290.045 280.133 289.524 280.162 289.492C280.192 289.461 280.138 289.16 280.043 288.823C279.912 288.356 279.835 288.223 279.721 288.261C275.485 289.674 272.293 290.312 268.946 290.417C265.924 290.512 263.741 290.099 261.839 289.072C259.105 287.596 257.6 285.282 256.886 281.457C256.746 280.702 256.718 280.079 256.728 277.9C256.74 276.447 256.776 275.13 256.824 274.973L256.908 274.687L257.237 275.16C257.418 275.42 257.757 275.783 257.991 275.967C258.397 276.287 259.852 277.24 259.934 277.24C259.956 277.24 259.974 276.839 259.974 276.35C259.974 274.067 260.63 271.8 261.635 270.59C261.859 270.321 261.892 270.31 261.975 270.47C262.181 270.866 262.691 271.394 263.273 271.814L263.889 272.259L264.233 270.749C264.718 268.616 265.06 267.877 265.895 267.163L266.229 266.878L266.416 267.133C266.662 267.469 267.187 267.75 267.792 267.868L268.281 267.964L268.728 267.19C269.504 265.845 271.086 264.32 273.479 262.611C274.574 261.828 274.896 261.516 274.896 261.235C274.896 260.94 274.559 260.574 274.287 260.574C273.894 260.574 271.051 262.69 269.567 264.087C268.9 264.715 267.796 266.075 267.691 266.397C267.627 266.594 267.291 266.209 266.993 265.596C266.847 265.293 266.703 265.046 266.675 265.046C266.648 265.046 266.281 265.272 265.862 265.55C264.546 266.421 263.624 267.75 263.273 269.283C263.206 269.573 263.122 269.792 263.087 269.769C263.051 269.745 262.905 269.37 262.76 268.935C262.615 268.5 262.466 268.107 262.427 268.061C262.389 268.014 261.89 268.472 261.319 269.077C260.26 270.199 259.803 270.912 259.387 272.088C259.132 272.81 258.843 274.07 258.842 274.47C258.829 275.226 258.29 274.63 257.575 273.095C257.159 272.203 256.94 271.955 256.567 271.955C256.385 271.955 256.101 272.372 256.1 272.641C256.1 272.878 255.987 272.998 255.368 273.424C254.449 274.057 253.173 275.421 252.516 276.47C252.239 276.913 251.812 277.736 251.567 278.299L251.121 279.323L250.955 278.522C250.824 277.895 250.799 277.446 250.838 276.439C250.897 274.951 251.054 274.244 251.808 272.082C252.092 271.268 252.305 270.581 252.282 270.556C252.215 270.484 249.565 272.239 248.757 272.889C246.218 274.936 244.407 277.504 243.152 280.839L242.926 281.44L242.898 280.127C242.837 277.335 243.338 274.721 244.412 272.234L244.806 271.321L244.386 270.93C244.155 270.715 243.93 270.537 243.886 270.536C243.8 270.531 241.704 272.239 239.904 273.778C234.402 278.483 231.687 282.001 230.524 285.936C230.36 286.491 230.177 287.15 230.117 287.401L230.008 287.859L229.785 286.995C229.447 285.688 229.249 283.867 229.32 282.731C229.48 280.197 230.205 278.299 231.806 276.223C233.308 274.276 235.474 272.472 239.308 269.973C240.846 268.971 240.761 269.12 240.27 268.279L240.052 267.905L238.892 268.614C237.214 269.64 234.065 271.333 232.284 272.168C221.661 277.146 214.117 277.425 210.718 272.967C209.987 272.009 209.192 270.304 209.004 269.297C208.948 268.995 208.962 269.001 209.693 269.634C211.135 270.883 212.482 271.695 214.027 272.248C216.371 273.087 219.195 273.109 222.102 272.312C224.654 271.612 226.765 270.652 232.396 267.627C239.016 264.072 241.829 262.781 244.674 261.995C246.891 261.382 250.029 260.99 251.627 261.127L252.394 261.192L252.506 260.705C252.566 260.437 252.638 260.14 252.664 260.044C252.702 259.91 252.545 259.78 251.975 259.472C250.555 258.703 249.551 257.703 249.053 256.56C248.732 255.822 248.78 255.696 249.176 256.242C249.572 256.789 250.489 257.568 251.06 257.843C252.363 258.471 254.096 258.502 256.082 257.932L257.242 257.599L256.122 256.368C255.199 255.355 254.936 254.995 254.631 254.329C254.292 253.589 254.261 253.452 254.264 252.703C254.276 251.775 254.439 251.311 254.995 250.736L255.321 250.4L255.372 250.819C255.492 251.783 256.205 252.879 257.17 253.584C257.791 254.038 259.059 254.616 259.681 254.729C259.894 254.768 260.088 254.836 260.114 254.881C260.14 254.926 259.936 255.145 259.661 255.368C258.612 256.22 257.505 257.567 256.844 258.796C256.437 259.551 256.007 260.697 256.007 261.025C256.007 261.377 256.41 261.693 256.741 261.601C257.007 261.527 257.013 261.516 257.761 259.868C258.555 258.116 259.925 256.632 261.846 255.442C262.297 255.163 262.815 254.814 262.996 254.666C263.515 254.245 265.471 252.951 267.212 251.875C273.161 248.2 278.852 245.836 286.749 243.758C288.099 243.403 289.447 243.056 289.745 242.987C290.279 242.863 290.294 242.85 291.041 241.819C293.7 238.155 296.793 234.881 300.099 232.235C304.083 229.046 308.484 226.534 313.499 224.587C314.343 224.259 315.16 223.991 315.314 223.991C315.714 223.991 317.041 224.338 317.869 224.659C320.703 225.757 323.568 227.948 325.587 230.559C326.042 231.149 326.493 231.763 326.588 231.925L326.762 232.219L326.21 231.956C319.291 228.654 315.137 227.277 310.309 226.688L309.788 226.624L309.011 228.444C308.584 229.444 308.234 230.304 308.234 230.354C308.234 230.403 308.649 230.623 309.155 230.842C311.846 232.006 314.855 233.527 316.876 234.744C318.677 235.83 321.487 237.834 322.574 238.808L322.89 239.091L322.622 240.102C322.381 241.016 322.355 241.266 322.354 242.689C322.354 244.058 322.382 244.364 322.575 245.026C323.407 247.89 325.321 249.931 328.197 251.023C328.623 251.185 329.146 251.347 329.357 251.384C329.568 251.42 329.797 251.487 329.866 251.533C329.957 251.593 330.01 252.133 330.063 253.58C330.103 254.66 330.158 255.738 330.186 255.976L330.235 256.407L329.499 256.806C328.547 257.321 325.278 258.897 324.014 259.45C320.64 260.929 317.044 262.199 311.633 263.826C305.413 265.696 300.887 268.747 298.887 272.417C297.732 274.535 297.688 276.926 298.771 278.717C299.721 280.288 301.669 281.745 303.937 282.582C304.352 282.735 304.728 282.894 304.772 282.936C304.867 283.025 304.018 283.726 303.417 284.054C303.112 284.221 302.774 284.299 302.215 284.332C301.048 284.401 300.251 284.098 298.289 282.838C297.422 282.281 296.712 281.852 296.712 281.886C296.712 282.045 298.201 284.973 298.514 285.43C299.421 286.754 301.039 287.895 302.606 288.318C303.625 288.593 305.108 288.591 306.117 288.313C307.311 287.985 308.956 287.05 309.509 286.384L309.698 286.157L309.745 286.753C309.888 288.557 309.348 290.755 308.519 291.739C307.793 292.602 306.911 293.006 306.223 292.794C306.004 292.726 305.75 292.648 305.659 292.619C305.528 292.579 305.438 292.696 305.252 293.15C304.946 293.892 305.006 293.965 306.125 294.228C306.584 294.335 307.235 294.493 307.573 294.577C308.451 294.798 310.552 294.876 311.282 294.715C313.797 294.162 315.508 291.969 316.038 288.62C316.213 287.516 316.395 286.903 316.793 286.076C317.721 284.152 319.57 282.864 322.401 282.174C322.935 282.044 322.99 282.043 322.826 282.174C322.062 282.772 321.648 283.173 321.173 283.774C320.162 285.055 319.632 286.44 319.459 288.259C319.366 289.249 319.377 289.589 319.554 291.115C319.791 293.15 319.803 293.904 319.612 294.869C319.241 296.753 318.333 297.649 316.455 297.983C315.734 298.111 315.698 298.157 315.695 298.964C315.695 299.223 315.743 299.416 315.812 299.441C319.166 300.639 320.797 302.03 321.174 304.015C321.602 306.277 320.108 309.521 317.085 312.896L316.272 313.803L316.326 311.856C316.359 310.659 316.339 309.554 316.273 308.986C315.851 305.32 314.356 303.107 311.803 302.369C311.054 302.152 309.263 302.134 307.762 302.327C306.435 302.498 304.07 302.51 303.203 302.351C301.81 302.095 300.893 301.536 300.194 300.516C299.943 300.15 299.736 299.796 299.735 299.73C299.723 299.522 300.175 299.226 301.152 298.782C302.245 298.286 302.729 297.8 303.006 296.92C303.204 296.293 303.224 295.11 303.05 294.312C302.873 293.499 302.087 291.815 301.558 291.114C300.694 289.969 299.073 288.723 298.448 288.723C298.181 288.723 297.846 289.091 297.846 289.384C297.846 289.657 298.126 289.932 298.786 290.309C300.46 291.263 301.906 293.707 301.906 295.58C301.906 296.765 301.69 297.073 300.476 297.615C299.151 298.206 298.411 298.931 298.413 299.636C298.413 300.077 298.778 300.865 299.294 301.543C300.581 303.236 302.214 306.405 302.895 308.532C303.334 309.903 303.689 311.803 303.775 313.241C303.856 314.608 303.815 316.769 303.707 316.769C303.664 316.769 303.245 316.294 302.775 315.714C300.674 313.121 297.629 310.853 294.325 309.42L293.514 309.068L293.172 309.622L292.83 310.176L293.811 311.278C296.379 314.161 297.276 316.216 297.288 319.241C297.301 320.715 297.075 322.005 296.511 323.821C295.955 325.609 296.004 325.564 295.567 324.698C295.07 323.712 294.724 323.174 293.956 322.191C292.135 319.863 289.523 318.088 285.82 316.664C284.98 316.341 284.28 316.09 284.265 316.106C284.249 316.122 284.434 316.609 284.676 317.189C285.761 319.795 286.045 321.557 285.749 323.845C285.54 325.463 284.883 327.607 284.058 329.365C283.775 329.968 283.753 329.953 283.628 329.065C283.384 327.333 282.261 325.459 280.791 324.33C279.994 323.719 278.607 323.034 277.634 322.771C276.856 322.561 274.277 322.278 274.172 322.391C274.144 322.422 274.274 322.942 274.459 323.546C275.568 327.147 275.627 330.077 274.655 333.289C274.271 334.559 272.895 337.515 272.757 337.366C272.731 337.34 272.59 336.753 272.44 336.063C271.586 332.128 270.081 329.181 267.887 327.15C267.425 326.723 265.217 325.081 264.537 324.66C264.477 324.622 264.742 325.608 265.128 326.852C266.12 330.047 266.255 330.765 266.248 332.774C266.235 334.537 266.14 335.029 265.577 336.065C265.29 336.592 265.266 336.567 265.085 335.521C264.664 333.09 262.356 330.61 259.643 329.673C259.054 329.47 258.807 329.447 257.381 329.462C256.501 329.471 255.77 329.49 255.757 329.504C255.744 329.518 256.506 330.027 257.452 330.635C259.507 331.958 260.31 332.589 261.131 333.525C263.171 335.851 262.672 338.025 259.649 339.981C259.34 340.181 259.053 340.345 259.011 340.345C258.969 340.345 258.935 339.974 258.935 339.522C258.935 336.798 257.225 334.606 254.802 334.226C253.497 334.022 251.877 334.389 250.53 335.195C249.787 335.64 248.641 336.912 248.39 337.571L248.188 338.101L248.563 338.638C249.265 339.644 249.957 341.48 249.962 342.352C249.962 342.564 249.925 342.579 249.42 342.567C249.121 342.561 248.558 342.515 248.169 342.467V342.467ZM209.704 328.692C209.678 328.645 209.558 328.242 209.437 327.795C209.149 326.727 209.127 324.769 209.392 323.832C210.175 321.069 212.549 318.797 216.178 317.338C217.007 317.005 217.197 316.967 218.033 316.964C219.116 316.959 219.798 317.139 220.443 317.598C221.556 318.392 222.094 319.996 221.823 321.721C221.694 322.542 221.294 323.518 220.944 323.865L220.705 324.102L219.735 323.927C217.237 323.478 214.525 324.109 212.449 325.623C211.687 326.179 210.624 327.336 210.134 328.144C209.923 328.492 209.729 328.738 209.703 328.692H209.704ZM208.695 310.799C208.44 309.861 208.339 308.15 208.489 307.291C208.925 304.793 210.85 302.475 213.744 300.964C214.315 300.665 215.165 300.277 215.633 300.101C216.428 299.801 216.547 299.783 217.474 299.827C219.018 299.899 219.933 300.383 220.568 301.466C221.394 302.874 221.223 305.431 220.225 306.607L219.883 307.01L219.33 306.866C217.485 306.386 214.916 306.696 213.061 307.622C211.619 308.342 210.081 309.745 209.352 311.005C209.171 311.32 208.996 311.579 208.966 311.582C208.935 311.587 208.813 311.232 208.695 310.799ZM196.225 252.198C193.608 251.573 191.669 249.987 190.645 247.633C190.135 246.459 189.879 245.151 189.827 243.451C189.769 241.573 189.89 240.634 190.294 239.821C190.732 238.936 191.215 238.404 191.938 238.009C192.537 237.682 192.638 237.659 193.481 237.661C194.167 237.661 194.533 237.719 195.009 237.894C196.191 238.329 197.262 239.179 197.84 240.14L198.11 240.589L197.704 241.105C196.416 242.745 195.717 244.548 195.6 246.538C195.495 248.313 195.98 250.298 196.87 251.731L197.249 252.343L196.997 252.333C196.858 252.326 196.51 252.266 196.225 252.198V252.198ZM328.823 249.815C327.327 249.286 326.285 248.594 325.313 247.486C324.225 246.245 323.67 244.866 323.565 243.142C323.495 242.014 323.622 241.168 324.075 239.719L324.416 238.63L324.145 238.398C320.329 235.143 316.021 232.441 311.283 230.331C310.544 230.002 309.939 229.674 309.937 229.603C309.937 229.532 310.08 229.162 310.259 228.781C310.628 227.991 310.441 228.038 312.107 228.318C315.971 228.966 319.058 230.093 326.576 233.6L327.87 234.204L328.239 235.068C329.298 237.542 329.607 239.749 329.812 246.297C329.841 247.247 329.89 248.493 329.917 249.066C329.977 250.291 330.042 250.247 328.823 249.815H328.823ZM219.795 246.988C220.186 246.29 220.621 245.096 220.788 244.264C220.968 243.369 220.946 241.672 220.742 240.715C220.404 239.125 219.581 237.486 218.567 236.382L218.142 235.919L218.345 235.468C218.832 234.39 220.491 233.118 221.788 232.828C223.209 232.511 224.449 232.901 225.337 233.946C226.311 235.091 226.606 236.362 226.515 239.031C226.461 240.608 226.291 241.516 225.831 242.692C224.9 245.073 222.933 246.767 220.353 247.411C219.432 247.641 219.431 247.64 219.795 246.988H219.795ZM198.586 242.101C198.586 242.057 198.793 241.801 199.047 241.532L199.508 241.044L199.345 240.469C199.086 239.552 198.894 239.234 198.066 238.361C196.81 237.034 195.173 236.287 193.523 236.287C191.794 236.287 190.442 237.066 189.511 238.599C189.264 239.004 189.046 239.391 189.025 239.459C188.958 239.673 187.345 238.437 186.527 237.544C185.407 236.322 184.792 235.06 184.603 233.599C184.461 232.503 184.689 230.958 185.104 230.194C185.567 229.345 186.892 227.97 187.637 227.567C189.964 226.308 192.471 227.477 192.909 230.023C193.019 230.665 193.43 231.574 193.87 232.148C194.199 232.578 195.027 233.041 195.646 233.143C197.847 233.505 201.142 231.173 204.233 227.066C205.737 225.067 205.984 224.547 205.615 224.151C205.534 224.063 205.337 223.991 205.179 223.991C204.85 223.991 204.807 224.038 203.64 225.678C201.166 229.152 198.252 231.609 196.391 231.791C195.163 231.911 194.414 231.16 194.088 229.486C193.911 228.577 193.56 227.876 192.949 227.213C192.028 226.215 190.888 225.719 189.512 225.719C188.033 225.719 186.715 226.337 185.444 227.627C184.727 228.354 183.738 229.865 183.296 230.907C182.983 231.645 182.48 232.16 181.604 232.638C180.663 233.151 179.509 232.99 178.658 232.227L178.422 232.016L178.706 231.759C179.219 231.295 180.723 230.561 181.708 230.293L182.665 230.034L182.878 229.375C183.537 227.344 182.602 224.478 180.802 223.018C179.267 221.771 177.719 221.56 175.849 222.342L175.353 222.549V221.962C175.353 221.267 175.579 219.777 175.793 219.063C176.056 218.187 176.486 217.374 176.99 216.801C177.943 215.717 178.903 215.357 180.633 215.436C181.021 215.454 181.101 215.512 181.816 216.294C182.674 217.231 183.418 218.376 184.383 220.242C184.763 220.977 185.219 221.702 185.481 221.987C185.983 222.533 186.836 223.011 187.624 223.187C188.466 223.376 190.333 223.251 191.455 222.931C193.264 222.416 195.522 221.362 195.802 220.903C196.071 220.461 195.789 219.926 195.299 219.926C195.197 219.926 194.675 220.152 194.135 220.427C191.25 221.901 188.577 222.337 187.129 221.569C186.804 221.397 186.447 221.151 186.336 221.023C186.225 220.895 185.807 220.173 185.406 219.418C184.583 217.869 184.124 217.11 183.451 216.192C183.196 215.843 183.037 215.557 183.099 215.557C183.226 215.557 182.111 214.678 180.972 213.88C180.557 213.589 180.009 213.152 179.756 212.909C179.242 212.417 178.342 211.29 178.407 211.22C178.43 211.196 178.845 211.335 179.33 211.531L180.211 211.887L180.651 211.629C181.588 211.08 182.437 209.846 182.878 208.393C183.081 207.724 183.124 207.39 183.123 206.513C183.123 205.368 182.961 204.688 182.485 203.814C181.916 202.768 180.532 201.841 179.201 201.613C178.799 201.544 178.469 201.45 178.469 201.403C178.469 201.207 179.307 200.016 179.971 199.267C181.238 197.841 182.634 196.966 184.082 196.692C185.993 196.331 187.618 197.139 189.014 199.145C189.837 200.328 190.548 202.208 191.069 204.584C191.269 205.497 191.288 205.718 191.199 206.108C191.141 206.359 191.096 207.112 191.096 207.783C191.109 210.35 191.939 212.556 193.617 214.425C194.792 215.734 196.217 216.646 197.783 217.091C198.807 217.382 200.69 217.41 201.702 217.149C203.724 216.627 205.478 215.491 207.13 213.634C208.675 211.897 209.192 211.355 211.005 209.563C212.911 207.678 216.445 203.925 218.25 201.866L219.339 200.623L220.461 201.679C221.078 202.259 221.598 202.718 221.616 202.698C221.688 202.622 221.12 200.234 220.896 199.678C220.685 199.156 220.674 199.071 220.797 198.915C220.873 198.818 221.507 198.03 222.206 197.164C222.905 196.297 224.088 194.789 224.835 193.81C226.597 191.504 226.452 191.661 226.328 192.196C226.149 192.968 226.205 195.173 226.426 196.055C227.159 198.982 229.208 201.518 232.812 203.961C233.315 204.303 233.759 204.582 233.797 204.582C233.835 204.582 234.051 204.38 234.276 204.133L234.685 203.685L234.354 203.092C232.919 200.524 232.778 198.185 233.944 196.294C234.9 194.745 236.834 193.296 240.045 191.721C243.155 190.196 246.143 188.235 248.687 186.051C250.007 184.917 252.519 182.177 253.405 180.905L254.148 179.838L254.086 180.295C253.539 184.351 253.671 187.226 254.512 189.573C255.061 191.105 256.072 192.736 256.97 193.538L257.339 193.869L256.932 194.179C256.709 194.35 256.377 194.544 256.196 194.611C256.014 194.677 255.717 194.84 255.534 194.971C255.247 195.18 255.048 195.22 254.023 195.275C252.297 195.369 252.003 195.464 251.36 196.131C250.891 196.617 250.83 196.726 250.877 196.98C250.937 197.306 250.733 198.485 250.616 198.485C250.575 198.485 250.515 198.572 250.484 198.679C250.436 198.843 250.297 198.885 249.604 198.947C249.023 198.999 248.715 199.076 248.556 199.21C248.433 199.314 248.253 199.399 248.158 199.399C248.049 199.399 247.83 199.653 247.566 200.085C247.335 200.463 246.983 200.938 246.783 201.141L246.42 201.511L245.239 201.577C243.636 201.666 243.457 201.757 243.027 202.707C242.659 203.519 242.467 203.649 242.17 203.288C242.02 203.106 241.842 203.045 241.306 202.994C240.499 202.916 240.248 202.973 239.864 203.321C239.664 203.501 239.573 203.675 239.573 203.873C239.573 204.078 239.424 204.347 239.063 204.792C238.783 205.138 238.497 205.541 238.427 205.687C238.358 205.834 238.169 206.125 238.008 206.334C237.847 206.543 237.616 206.92 237.496 207.172C237.295 207.591 237.247 207.631 236.924 207.631C236.731 207.631 236.451 207.562 236.302 207.479C236.153 207.395 235.934 207.327 235.814 207.326C235.695 207.326 235.5 207.204 235.381 207.055C235.227 206.863 235.073 206.784 234.852 206.784C234.317 206.784 234.13 207.313 234.437 207.966C234.725 208.579 234.938 208.748 235.422 208.748C235.7 208.748 235.91 208.805 235.983 208.899C236.177 209.15 237.725 208.99 238.174 208.672C238.365 208.536 238.502 208.369 238.477 208.301C238.453 208.233 238.519 208.092 238.625 207.989C238.73 207.886 238.817 207.714 238.817 207.606C238.817 207.497 238.966 207.222 239.148 206.993C239.33 206.765 239.478 206.528 239.478 206.467C239.478 206.406 239.712 206.083 239.997 205.748C240.283 205.414 240.591 204.947 240.682 204.709C240.774 204.472 240.872 204.278 240.901 204.277C240.931 204.277 241.204 204.414 241.509 204.582C241.814 204.75 242.14 204.887 242.235 204.887C242.368 204.887 242.406 204.967 242.406 205.248V205.61L243.067 205.025C243.431 204.703 243.728 204.387 243.728 204.323C243.728 204.259 243.813 204.124 243.917 204.023C244.021 203.922 244.106 203.729 244.106 203.594C244.106 203.031 244.191 202.991 245.538 202.912C246.287 202.868 246.889 202.783 247.04 202.699C247.314 202.546 248.734 200.912 248.734 200.75C248.734 200.566 249.434 200.329 250.133 200.276C250.604 200.24 250.92 200.156 251.125 200.015C251.29 199.9 251.542 199.726 251.685 199.628C251.897 199.482 251.944 199.376 251.944 199.037C251.944 198.809 252.003 198.398 252.078 198.122C252.151 197.847 252.204 197.513 252.196 197.38C252.183 197.228 252.27 197.067 252.427 196.94C252.634 196.772 252.945 196.719 254.342 196.613C255.945 196.491 256.02 196.476 256.273 196.215C256.418 196.066 256.592 195.944 256.661 195.944C256.811 195.944 257.39 195.582 257.672 195.311C257.784 195.204 258.017 195.04 258.192 194.946C258.506 194.777 258.515 194.779 259.17 195.148C260.429 195.857 262.436 196.47 264.294 196.712L264.79 196.776L264.578 197.097C263.904 198.12 262.263 199.483 260.91 200.144C259.478 200.843 257.301 201.482 255.487 201.735C254.301 201.901 254.306 201.898 254.306 202.29C254.306 202.475 254.332 202.762 254.364 202.929L254.42 203.232L255.332 203.291C256.382 203.358 257.037 203.573 258.303 204.268C259.172 204.744 260.768 205.825 260.874 206.009C260.908 206.069 260.38 206.106 259.477 206.106C257.903 206.106 256.718 205.937 255.535 205.544C252.653 204.586 248.238 204.266 245.239 204.799C244.521 204.927 244.489 204.97 244.487 205.814C244.487 206.256 244.503 206.288 244.771 206.345C245.382 206.477 247.042 207.252 247.95 207.83C248.474 208.163 249.322 208.789 249.834 209.22C252.229 211.238 254.693 212.499 257.165 212.974C257.671 213.071 258.074 213.164 258.06 213.179C258.044 213.195 257.574 213.35 257.012 213.525C253.61 214.583 251.15 214.411 248.31 212.918C245.13 211.246 241.647 210.377 238.845 210.557C238.198 210.599 238.196 210.601 238.133 211.584L238.11 211.93L239.243 212.424C242.088 213.665 243.23 214.464 244.631 216.195C246.569 218.588 247.849 219.688 249.207 220.129L249.726 220.297L249.207 220.442C248.859 220.539 248.206 220.584 247.224 220.579C245.919 220.573 245.67 220.542 244.934 220.3C243.783 219.922 242.528 219.232 241.366 218.337C238.852 216.403 236.778 215.298 234.712 214.795C233.773 214.566 230.979 214.596 230.979 214.835C230.979 215.013 231.597 216.6 231.89 217.176C232.626 218.621 234.237 220.524 236.032 222.066C236.861 222.779 239.261 224.529 240.357 225.221L240.903 225.566L240.404 225.644C239.797 225.739 238.697 225.658 237.893 225.46C236.556 225.129 234.966 224.254 233.104 222.825C231.53 221.616 229.485 220.23 228.288 219.561C226.273 218.435 224.692 217.967 222.857 217.953C221.876 217.945 219.646 218.171 219.646 218.278C219.646 218.418 222.208 221.463 224.227 223.721C227.663 227.565 228.041 228.052 228.588 229.338C228.799 229.833 228.825 230.008 228.788 230.686C228.74 231.615 228.43 232.32 227.601 233.402L227.074 234.088L226.831 233.74C226.039 232.607 225.199 231.915 224.179 231.557C223.504 231.32 222.173 231.314 221.346 231.544C219.921 231.941 218.398 233.018 217.607 234.187C217.228 234.747 216.813 235.832 216.813 236.26C216.813 236.346 217.082 236.699 217.412 237.044C217.986 237.647 218.598 238.52 218.921 239.197L219.073 239.516L218.462 239.681C217.104 240.048 215.898 239.994 214.957 239.524C214.3 239.196 213.526 238.303 213.116 237.4C212.369 235.753 212.109 234.356 211.569 229.06C211.333 226.747 211.13 224.817 211.117 224.771C211.105 224.725 209.867 226.598 208.367 228.933L205.639 233.179L205.853 233.59C206.94 235.668 207.195 236.395 207.208 237.455C207.22 238.556 206.991 239.15 206.244 239.954C205.208 241.068 203.567 241.78 201.371 242.068C200.389 242.198 198.585 242.218 198.585 242.101L198.586 242.101ZM173.502 237.283C171.245 234.753 170.81 231.864 172.193 228.599C172.97 226.763 174.657 224.512 175.702 223.916C177.359 222.969 178.979 223.086 180.233 224.241C181.255 225.182 182.004 227.141 181.827 228.411C181.773 228.801 181.726 228.877 181.51 228.926C180.401 229.18 178.681 230.05 177.727 230.839C176.955 231.479 175.975 232.644 175.526 233.459C174.855 234.673 174.541 235.752 174.335 237.544L174.267 238.141L173.502 237.283H173.502ZM168.505 212.839C168.427 212.295 168.433 210.711 168.518 210.171C168.81 208.246 169.989 206.414 171.767 205.121C172.932 204.273 175.034 203.366 176.678 203.003C179.023 202.484 181.052 203.347 181.671 205.128C182.188 206.614 181.703 208.801 180.598 209.967L180.185 210.404L179.635 210.19C178.592 209.782 177.948 209.651 176.692 209.592C173.646 209.447 171.244 210.426 169.202 212.644L168.578 213.323L168.508 212.839H168.505ZM278.616 202.712C275.344 201.03 272.855 197.937 271.842 194.296C271.469 192.956 271.39 192.427 271.336 190.914C271.272 189.119 271.424 188.114 272.076 186.037C272.827 183.646 273.012 182.653 273.072 180.702C273.112 179.401 273.089 178.809 272.968 178.063C272.649 176.096 271.865 174.155 270.743 172.559C270.137 171.695 268.406 169.661 268.343 169.738C268.327 169.76 268.356 171.081 268.409 172.674C268.555 177.023 268.338 179.078 267.553 180.803C267.265 181.436 267.002 181.785 266.006 182.86C264.69 184.28 264.085 185.203 263.707 186.368C262.77 189.253 263.486 192.514 265.58 194.904C265.838 195.198 266.029 195.46 266.005 195.486C265.937 195.558 263.611 195.261 262.761 195.072C260.772 194.629 258.9 193.635 257.629 192.345C256.958 191.664 256.097 190.26 255.74 189.265C255.214 187.797 255.031 186.573 255.029 184.512C255.016 181.467 255.556 178.579 256.865 174.511C257.231 173.375 257.31 173.027 257.216 172.963C257.05 172.849 256.19 172.543 256.163 172.587C256.15 172.607 255.978 173.08 255.779 173.639C255.298 174.992 254.208 177.262 253.436 178.517C250.455 183.368 245.962 187.224 239.424 190.541C236.37 192.091 234.999 193.035 233.753 194.446C231.97 196.467 231.489 198.604 232.219 201.264C232.325 201.646 232.396 201.975 232.378 201.994C232.318 202.06 230.95 200.892 230.252 200.179C227.547 197.413 226.798 194.18 228.063 190.727C228.908 188.423 230.309 186.372 232.898 183.649C236.854 179.486 237.676 178.577 238.334 177.628C239.745 175.594 240.803 173.49 242.023 170.29C242.342 169.454 242.584 168.718 242.561 168.654C242.539 168.59 242.321 168.412 242.078 168.259L241.636 167.98L241.397 168.218C240.996 168.618 239.857 170.102 238.678 171.759C236.69 174.553 235.772 175.747 234.664 176.98C232.387 179.514 229.231 182.108 225.314 184.666C223.743 185.692 221.981 187.346 220.767 188.933C219.91 190.054 219.169 191.501 218.791 192.794C218.597 193.455 218.567 193.766 218.565 195.131C218.552 196.47 218.592 196.825 218.774 197.495C218.89 197.929 218.986 198.312 218.986 198.346C218.986 198.568 217.578 196.799 216.727 195.508C215.578 193.765 214.653 191.48 214.354 189.644C214.294 189.281 214.246 188.458 214.248 187.815C214.26 184.906 215.332 182.636 217.606 180.774C218.593 179.965 220.21 178.227 220.936 177.196C222.372 175.154 223.215 172.953 223.401 170.761L223.473 169.916L224.417 169.532C228.35 167.931 231.183 165.137 231.183 162.858C231.183 162.3 230.995 161.11 230.897 161.047C230.865 161.026 230.361 161.296 229.777 161.646C228.221 162.579 227.158 162.934 225.739 162.994C224.867 163.031 224.466 163.003 224 162.871C222.63 162.485 221.543 161.597 221.011 160.429C220.757 159.869 220.734 159.731 220.737 158.752C220.75 157.777 220.766 157.628 221.03 157.024C221.576 155.778 222.541 154.658 223.874 153.722C224.095 153.567 224.276 153.425 224.276 153.405C224.276 153.284 223.676 152.35 223.598 152.35C223.39 152.35 222.098 153.409 221.457 154.106C220.188 155.484 219.628 156.634 219.465 158.196C219.242 160.322 220.261 162.401 222.053 163.479C224.038 164.674 226.38 164.708 228.995 163.579C229.435 163.389 229.816 163.257 229.843 163.285C229.87 163.314 229.764 163.596 229.61 163.912C229.062 165.039 227.505 166.454 225.736 167.433C224.449 168.146 223.612 168.458 222.009 168.823C220.731 169.114 220.365 169.156 219.128 169.158C217.234 169.158 216.354 168.866 215.381 167.91C214.389 166.934 213.972 165.988 213.651 163.985C213.416 162.519 213.508 162.63 212.635 162.762L212.186 162.829L212.24 163.255C212.27 163.489 212.353 164.009 212.426 164.412C212.671 165.772 212.789 167.432 212.789 169.523C212.789 171.773 212.677 173.053 212.31 174.96C210.794 182.841 205.582 188.403 198.634 189.553C197.441 189.75 195.049 189.703 193.768 189.458C191.239 188.973 188.83 187.82 186.828 186.137C186.12 185.543 184.852 184.264 184.912 184.206C184.927 184.192 185.343 184.29 185.836 184.425C189.595 185.454 193.099 185.48 195.895 184.5C199.508 183.233 202.226 180.127 203.55 175.751C204.484 172.666 204.835 168.949 204.507 165.611C204.259 163.095 204.244 162.775 204.249 160.232C204.262 154.299 205.229 149.975 207.276 146.708C208.595 144.604 210.808 142.912 212.658 142.596C215.101 142.178 217.382 141.383 220.472 139.873C221.668 139.288 223.811 138.038 224.065 137.777C224.163 137.676 224.139 137.561 223.94 137.177C223.804 136.916 223.652 136.675 223.603 136.642C223.554 136.609 223.099 136.832 222.595 137.138C219.399 139.076 217.293 139.932 213.051 141.015C211.336 141.453 210.169 141.553 208.793 141.381C205.895 141.018 203.721 139.909 201.536 137.677C201.158 137.291 200.868 136.955 200.892 136.929C200.915 136.904 201.459 136.999 202.098 137.141C207.24 138.285 212.236 137.742 217.085 135.513C219.707 134.308 221.871 132.993 226.164 129.994C228.046 128.68 228.996 128.121 230.367 127.521C233.254 126.257 236.022 125.624 238.914 125.568C240.291 125.54 241.802 125.395 241.91 125.279C241.925 125.264 241.91 124.969 241.875 124.625L241.815 123.998L240.86 123.999C240.335 123.999 239.428 124.046 238.844 124.101C237.998 124.182 237.588 124.171 236.814 124.046C233.545 123.52 230.786 122.194 229.086 120.331C228.102 119.253 227.747 118.473 227.693 117.27C227.634 115.979 227.676 115.94 228.285 116.714C229.698 118.507 231.474 119.794 233.483 120.482C234.689 120.895 235.801 121.064 237.309 121.063C239.512 121.062 240.752 120.771 243.806 119.54C245.239 118.962 246.294 118.784 248.311 118.781C250.847 118.778 252.691 119.125 256.244 120.277C257.179 120.58 257.959 120.813 257.976 120.796C257.993 120.778 257.664 120.272 257.243 119.671C256.038 117.948 255.728 117.1 255.726 115.511C255.713 112.495 257.718 109.641 260.778 108.284C261.489 107.969 262.739 107.639 263.226 107.638L263.597 107.637L263.403 107.866C262.793 108.586 262.429 109.58 262.363 110.708C262.239 112.793 263.041 114.701 264.816 116.543C266.479 118.269 268.403 119.356 270.77 119.906C271.865 120.16 274.535 120.158 275.652 119.902C277.981 119.368 280.151 118.201 282.198 116.38C282.624 116.001 283.546 115.053 284.247 114.273C285.643 112.72 286.074 112.389 287.74 111.597L288.756 111.114L288.87 111.535C289.148 112.557 289.823 113.363 290.802 113.84C291.645 114.251 292.402 114.382 293.577 114.318C295.067 114.238 296.319 113.715 297.263 112.78C297.707 112.339 298.51 111.268 298.503 111.126C298.49 111.08 298.068 110.722 297.542 110.331C295.82 109.05 294.591 107.634 294.003 106.253C293.792 105.757 293.749 105.511 293.748 104.793C293.748 104.046 293.782 103.846 294.018 103.319C294.521 102.194 295.81 100.955 297.327 100.139C299.025 99.2239 300.762 98.7354 302.852 98.5848C304.947 98.4338 305.785 98.2101 306.756 97.5414C308.075 96.6338 308.882 94.8422 308.892 92.8015C308.905 91.6205 308.531 89.7176 308.027 88.3202C307.79 87.6617 307.823 87.6714 307.035 88.0345L306.638 88.2173L306.863 88.813C307.191 89.6795 307.486 90.9991 307.575 91.9886C307.732 93.7304 307.361 95.1616 306.538 95.9901C305.692 96.841 305.089 97.0454 302.898 97.2231C301.05 97.3729 300.264 97.5261 298.885 98.0054C295.998 99.0087 293.851 100.698 292.935 102.687C292.59 103.436 292.531 103.661 292.488 104.411C292.411 105.733 292.699 106.763 293.507 108.062C293.973 108.811 295.402 110.355 296.171 110.94C296.464 111.164 296.706 111.384 296.708 111.43C296.722 111.688 295.647 112.437 294.824 112.743C293.936 113.073 292.372 113.064 291.566 112.724C290.089 112.102 289.682 110.862 290.407 109.193C290.764 108.373 290.839 107.566 290.63 106.793C290.51 106.346 290.346 106.069 289.895 105.551L289.315 104.884L288.41 105.886C287.336 107.074 286.567 107.682 285.354 108.3C283.933 109.024 283.146 109.205 281.413 109.205C280.208 109.205 279.811 109.166 279.164 108.982C277.739 108.578 276.268 107.715 275.227 106.675L274.755 106.202L275.085 106.264C276.888 106.599 278.918 106.582 280.213 106.221C283.045 105.433 285.027 103.473 285.17 101.319C285.239 100.268 284.961 99.4534 284.154 98.3575C283.573 97.567 283.207 96.7963 283.208 96.3656C283.208 96.2778 283.253 96.0345 283.307 95.825C283.476 95.1692 283.484 95.1679 287.67 95.0841C290.318 95.0312 291.424 94.9757 291.423 94.8961C291.423 94.834 291.359 94.5317 291.282 94.2243C290.978 93.0044 291.168 92.3571 292.143 91.3028L292.777 90.6169L292.903 91.5314C293.074 92.7782 293.336 93.6563 293.741 94.3514L294.083 94.9357H298.27H302.458L302.792 93.8433C304.308 88.8818 304.294 83.5838 302.751 78.8146C302.343 77.5539 301.282 75.2487 300.583 74.1038C298.113 70.0605 294.518 67.3068 290.896 66.6842C289.948 66.5213 288.169 66.5468 287.315 66.7358C285.121 67.2213 282.946 68.5434 281.359 70.3565C280.642 71.1758 280.331 71.9405 280.331 72.8845C280.331 73.4264 280.379 73.7448 280.501 73.9863C280.594 74.1732 280.654 74.3445 280.633 74.3671C280.495 74.5149 279.018 73.7804 278.013 73.0648C277.78 72.8995 277.759 72.9094 276.7 73.6608C275.404 74.5809 275.16 74.6446 272.913 74.6508C271.611 74.6534 271.217 74.6182 270.523 74.4309C266.959 73.4702 264.752 70.6023 263.366 65.1293C263.026 63.7869 262.902 63.5164 261.884 61.9096C260.463 59.6674 260.265 58.9366 260.832 58.0165C261.188 57.4374 262.148 56.7267 263.327 56.169C263.872 55.911 264.414 55.554 264.838 55.1733C268.541 51.849 274.773 48.9727 284.928 45.9022L285.846 45.6246L286.2 45.9589C286.648 46.382 287.513 46.8061 288.464 47.0682C289.155 47.2588 291.046 47.4993 291.471 47.4507C291.652 47.4298 291.658 47.4747 291.612 48.496C291.484 51.3942 291.591 52.1444 292.354 53.7187C293.106 55.2682 294.467 56.5041 295.629 56.6914C295.974 56.7471 297.37 57.5142 297.372 57.6498C297.372 57.6822 296.86 57.7935 296.232 57.8972L295.089 58.0856L295.154 58.6512C295.189 58.9623 295.256 59.2599 295.303 59.3127C295.406 59.4281 297.188 59.1412 298.224 58.8425C301.302 57.9542 302.825 55.4219 303.316 50.3759C303.52 48.2766 304.1 46.7463 305.102 45.6635C305.836 44.8703 306.596 44.4082 307.638 44.1218C308.044 44.0103 308.389 43.8781 308.405 43.8282C308.435 43.7348 309.521 44.0219 310.804 44.4621L311.533 44.7119L311.692 44.1905C311.78 43.9037 311.87 43.6147 311.892 43.5482C311.932 43.4312 310.557 42.9224 309.226 42.562C307.064 41.9762 304.328 41.7033 302.406 41.8816C299.481 42.1528 297.465 42.9139 295.559 44.4659C293.946 45.7802 292.898 46.1212 290.763 46.0267C289.377 45.9654 288.585 45.788 287.693 45.339C287.04 45.0101 286.87 44.8752 286.714 44.5582C286.652 44.4325 286.546 44.3296 286.48 44.3296C286.413 44.3296 286.234 44.1894 286.082 44.0181C285.831 43.7366 285.804 43.6408 285.804 43.0234C285.804 42.4228 285.843 42.2695 286.133 41.7567C287.546 39.2483 291.846 36.661 296.891 35.2842C301.413 34.0502 306.77 33.9401 311.21 34.9901C311.677 35.1006 312.133 35.2152 312.223 35.2446C312.348 35.2854 312.513 35.0843 312.918 34.4027C315.342 30.3138 317.685 27.7843 319.455 27.3445C319.873 27.2407 319.968 27.2515 320.336 27.4452C321.585 28.1029 321.9 30.5203 321.41 35.692C321.28 37.0613 321.174 38.2235 321.173 38.2747C321.173 38.3259 321.592 37.7314 322.104 36.9537C323.148 35.3685 323.554 34.8846 324.408 34.207C326.44 32.5956 329.245 31.8232 334.141 31.5267C335.117 31.4676 336.18 31.3531 336.501 31.2724C337.311 31.0691 338.411 30.4621 338.947 29.9218C339.254 29.6133 339.411 29.513 339.438 29.6079C339.517 29.8755 339.684 32.1025 339.684 32.8673C339.684 34.0442 339.512 35.595 339.265 36.6425C338.739 38.8737 337.922 40.3287 336.137 42.2109C334.031 44.4327 333.348 45.7794 333.343 47.7208C333.33 48.5193 333.58 50.1849 333.72 50.3455C333.754 50.3847 334.041 50.3465 334.357 50.2608L334.932 50.1049L334.759 49.3258C334.412 47.766 334.599 46.3852 335.314 45.2234C335.992 44.121 337.459 42.6551 338.296 42.2426C340.237 41.2863 343.013 42.4194 345.64 45.2403C346.24 45.8852 347.014 46.8243 347.36 47.3274C348.733 49.3266 349.78 51.6868 350.231 53.7958C350.542 55.2508 350.58 57.2038 350.316 58.2511C349.77 60.4217 348.754 61.8279 347.091 62.7146C346.014 63.2886 345.066 63.5356 343.939 63.5356C341.763 63.5356 340.12 62.5159 339.236 60.6176C339.029 60.1715 338.841 59.747 338.818 59.6742C338.786 59.5703 338.656 59.5857 338.215 59.7456C337.55 59.9868 337.55 59.9862 338.076 61.1476C338.895 62.9564 340.312 64.186 342.187 64.7131C343.121 64.976 344.847 64.9517 345.87 64.6614C346.745 64.4131 347.79 63.9035 348.635 63.3126L349.228 62.8981L349.816 63.2292C350.509 63.6205 350.708 63.779 351.385 64.4808C353.12 66.2783 353.97 69.2333 354.096 73.9008C354.165 76.4973 354.326 77.3873 354.963 78.7095C355.553 79.933 356.455 80.8186 357.575 81.2733L358.041 81.4627L357.528 81.7048C356.267 82.2996 354.548 82.6442 352.833 82.646C351.414 82.647 350.427 82.4664 349.114 81.9643C348.077 81.5674 348.096 81.564 347.668 82.2273L347.414 82.623L348.004 83.419C352.212 89.0945 352.69 95.0163 349.406 100.789C348.612 102.185 347.66 105.981 347.433 108.654C347.172 111.736 347.446 114.904 348.228 118.156C348.405 118.882 348.581 119.565 348.619 119.672C348.678 119.836 348.6 119.813 348.129 119.528C345.709 118.06 343.881 116.054 342.755 113.634C342.56 113.215 342.389 112.857 342.374 112.839C342.351 112.811 341.392 113.3 341.304 113.385C341.286 113.402 341.467 113.877 341.707 114.441C343.33 118.251 343.092 122.115 340.983 126.202C339.84 128.417 339.272 131.921 339.583 134.84C339.722 136.142 340.127 138.047 340.514 139.219C340.839 140.203 340.883 140.188 339.637 139.522C337.905 138.596 336.27 137.143 335.313 135.68C334.646 134.659 333.923 133.059 333.273 131.162C332.948 130.214 332.667 129.422 332.649 129.403C332.596 129.346 331.076 132.156 330.349 133.653C328.859 136.724 327.988 139.381 327.647 141.897C326.995 146.703 328.632 150.613 332.435 153.337C333.373 154.009 334.727 154.797 335.528 155.137L335.953 155.317L335.623 155.499C335.441 155.599 334.952 155.788 334.537 155.92C333.888 156.125 333.574 156.159 332.317 156.16C330.614 156.161 330.03 156.031 328.663 155.345C326.482 154.25 324.797 152.41 323.198 149.376C322.941 148.889 322.707 148.49 322.677 148.49C322.646 148.49 322.418 149.209 322.169 150.089C321.452 152.629 320.8 154.164 319.844 155.566C318.94 156.89 317.635 158.132 316.347 158.893C315.766 159.237 315.675 159.259 314.418 159.348C310.789 159.607 307.32 158.752 304.882 156.996C304.57 156.772 303.946 156.185 303.495 155.693C302.827 154.964 302.594 154.624 302.241 153.854C301.79 152.87 301.533 151.837 301.53 150.991V150.495L301.837 150.766C303.174 151.944 304.014 152.468 305.218 152.874C305.815 153.076 306.108 153.111 307.15 153.102C308.217 153.093 308.483 153.054 309.18 152.81C310.525 152.341 311.542 151.678 312.548 150.615C314.054 149.025 315.009 147.128 315.507 144.742C315.718 143.727 316.422 141.207 316.844 139.953C317.477 138.075 318.385 136.534 319.403 135.61C319.856 135.2 321.142 134.517 321.653 134.415C322.237 134.299 322.259 134.26 322.121 133.561C322.053 133.22 321.99 132.941 321.98 132.941C321.967 132.941 321.29 133.103 320.469 133.301C316.33 134.299 314.043 134.455 312.523 133.843C311.703 133.513 310.659 132.273 310.451 131.385L310.388 131.112L311.178 131.112C313.622 131.112 316.672 130.527 318.664 129.678C320.701 128.809 321.718 128.021 323.938 125.59L325.71 123.651L325.263 123.163L324.816 122.675L323.256 124.423C321.176 126.751 320.05 127.64 318.172 128.435C316.189 129.275 313.991 129.67 310.81 129.76C309.245 129.804 308.614 129.856 308.614 129.94C308.614 130.004 308.745 130.443 308.905 130.915C309.8 133.553 310.891 134.806 312.758 135.337C313.824 135.641 315.299 135.635 317.427 135.317L317.881 135.249L317.355 136.001C316.417 137.341 315.809 138.822 314.941 141.884C314.679 142.806 314.383 143.949 314.283 144.424C313.841 146.518 313.064 148.139 311.888 149.425C310.418 151.032 308.889 151.775 307.056 151.774C305.018 151.773 303.331 150.741 301.578 148.422C301.119 147.816 300.714 147.283 300.678 147.237C300.608 147.149 300.463 148.075 300.299 149.651C300.117 151.413 300.484 153.304 301.316 154.883C301.87 155.934 303.141 157.356 304.213 158.125C306.774 159.962 310.459 160.938 314.078 160.74L315.339 160.671L315.273 161.109C315.124 162.119 314.716 164.161 314.465 165.155C313.52 168.892 312.322 171.347 310.425 173.437C308.122 175.972 306.362 179.434 305.773 182.582C305.608 183.464 305.634 185.677 305.821 186.593C306.37 189.286 307.661 191.611 310.147 194.377L311.288 195.648L310.919 195.594C310.716 195.565 310.146 195.492 309.653 195.434C307.876 195.223 305.651 194.56 304.341 193.851C302.7 192.964 300.732 191.108 299.785 189.555C298.529 187.496 297.602 184.614 297.282 181.769C297.114 180.285 297.179 180.397 296.484 180.397H295.88L295.781 180.889C295.546 182.068 295.472 182.872 295.479 184.157C295.492 186.281 295.826 188.249 296.559 190.508C296.74 191.066 296.873 191.539 296.854 191.56C296.835 191.58 296.476 191.377 296.056 191.108C291.961 188.487 289.94 184.845 289.295 178.924C289.182 177.893 288.875 171.817 288.875 170.617V170.235H288.272H287.669L287.621 173.309C287.571 176.546 287.486 177.439 287.032 179.466C286.221 183.088 284.484 186.701 281.746 190.458C280.815 191.735 280.35 192.537 279.832 193.76C279.01 195.702 278.726 197.059 278.727 199.044C278.727 200.588 278.907 201.549 279.389 202.581C279.516 202.853 279.62 203.094 279.62 203.118C279.62 203.209 279.445 203.139 278.617 202.713L278.616 202.712ZM279.052 166.942C279.052 166.919 278.898 166.611 278.711 166.256C277.524 164.007 277.089 162.747 277.002 161.304C276.872 159.153 277.696 157.114 279.413 155.337C280.509 154.201 281.585 153.464 284.144 152.096C287.909 150.084 290.035 148.715 292.132 146.955C293.229 146.034 294.804 144.357 295.464 143.407C297.13 141.013 297.887 138.405 297.707 135.684C297.648 134.799 297.508 133.763 297.438 133.687C297.421 133.67 297.142 133.706 296.816 133.768C296.24 133.877 296.225 133.888 296.284 134.147C296.419 134.731 296.453 137.449 296.334 138.161C295.741 141.733 293.182 144.929 288.354 148.128C287.115 148.949 286.266 149.439 283.537 150.91C280.866 152.35 279.834 153.058 278.661 154.259C277.062 155.895 276.233 157.395 275.874 159.303C275.656 160.457 275.742 162.268 276.066 163.372C276.197 163.817 276.286 164.2 276.263 164.224C276.19 164.302 275.196 163.511 274.662 162.95C272.212 160.376 271.495 156.446 272.878 153.174C273.053 152.761 273.195 152.385 273.195 152.337C273.195 152.29 272.976 152.132 272.707 151.986L272.219 151.72L272.049 151.959C271.833 152.263 271.364 153.527 271.149 154.382C271.026 154.873 270.983 155.448 270.98 156.618C270.967 157.961 271.01 158.328 271.2 159.108C271.65 160.941 272.558 162.626 273.777 163.892C274.939 165.098 275.58 165.517 277.682 166.437C278.886 166.964 279.051 167.025 279.051 166.942L279.052 166.942ZM253.174 159.26C253.201 152.452 255.444 148.581 261.174 145.46C263.767 144.048 268.339 142.344 271.449 141.632C276.82 140.402 280.646 138.623 283.178 136.178C284.847 134.567 285.875 132.768 286.377 130.579C286.549 129.83 286.661 127.529 286.566 126.708L286.499 126.132L286.105 126.133C285.283 126.136 285.328 126.031 285.325 127.941C285.313 129.97 285.172 130.704 284.438 132.28C282.839 135.714 279.053 138.221 273.008 139.848C272.202 140.065 271.289 140.296 270.977 140.363C269.512 140.675 265.495 142.015 263.469 142.867C260.91 143.943 258.069 145.65 256.663 146.955C255.86 147.701 254.687 149.074 254.254 149.775C253.1 151.647 252.323 153.98 252.087 156.287C252.051 156.637 251.995 156.922 251.96 156.921C251.859 156.918 250.936 155.481 250.45 154.571C247.877 149.744 248.223 144.255 251.299 141.112C252.223 140.169 252.968 139.665 254.142 139.191C254.389 139.091 254.591 138.986 254.591 138.956C254.591 138.927 254.517 138.654 254.429 138.351C254.271 137.813 254.259 137.8 253.967 137.851C253.802 137.88 253.346 138.063 252.953 138.258C249.552 139.949 247.481 143.615 247.49 147.929C247.503 151.169 248.496 154.229 250.475 157.067C251.393 158.383 253.014 160.277 253.101 160.135C253.14 160.073 253.172 159.679 253.173 159.26L253.174 159.26ZM304.308 120.988C304.956 118.971 305.827 117.434 307.097 116.067C308.726 114.315 310.874 113.07 314.1 112.009L315.102 111.679L314.924 111.06C314.825 110.72 314.734 110.43 314.72 110.416C314.684 110.377 312.563 111.118 311.644 111.49C309.233 112.464 307.036 114.002 305.712 115.641C305.037 116.477 304.13 117.956 303.751 118.842C303.231 120.056 302.743 121.662 302.877 121.716C303.041 121.782 303.831 122.045 303.902 122.057C303.936 122.063 304.118 121.582 304.308 120.988V120.988ZM331.657 103.137C331.657 103.121 331.293 102.584 330.849 101.943C330.029 100.761 329.186 99.08 328.836 97.9331C328.492 96.8024 328.343 95.8063 328.289 94.2748C328.185 91.3084 328.804 88.3182 330.308 84.5194C330.961 82.8716 331.719 81.2172 332.164 80.4684C333.629 78.0034 334.52 74.6998 334.357 72.3318C334.206 70.1449 333.542 68.2086 332.265 66.228C331.649 65.2725 329.554 63.036 328.446 62.1509C327.661 61.5239 325.943 60.2833 325.859 60.2833C325.812 60.2833 325.234 61.3056 325.238 61.3824C325.251 61.4206 325.74 61.8036 326.348 62.2333C330.064 64.8589 332.327 67.8757 332.93 71.0105C333.099 71.8878 333.127 73.5951 332.988 74.5099C332.72 76.2603 332.046 78.1014 330.996 79.9476C330.476 80.8605 329.89 82.1377 329.247 83.7572C327.683 87.699 327.028 90.6363 327.031 93.6935C327.044 96.3821 327.505 98.5498 328.526 100.579C328.69 100.903 328.8 101.194 328.772 101.224C328.704 101.296 327.896 100.991 327.144 100.609C325.584 99.816 323.589 98.0029 322.571 96.4523C321.256 94.4483 320.623 92.1645 320.881 90.3539C320.946 89.8917 321.066 89.3369 321.146 89.1209C321.227 88.9049 321.274 88.7087 321.251 88.6849C321.229 88.6611 320.973 88.5285 320.682 88.3901L320.153 88.1385L319.958 88.717C319.311 90.6232 319.493 92.9685 320.46 95.1937C321.704 98.058 323.943 100.451 326.686 101.849C327.834 102.434 328.679 102.696 330.245 102.952C331.552 103.165 331.657 103.179 331.657 103.137H331.657ZM346.253 58.2596C348.21 57.0518 348.469 54.4664 346.95 51.29C345.945 49.1879 344.355 47.2545 342.641 46.0502C341.691 45.3829 341.024 45.1238 340.105 45.0654C339.464 45.0247 339.268 45.0525 338.857 45.2429C338.408 45.4509 337.512 46.3186 337.512 46.546C337.512 46.5964 337.735 46.7955 338.008 46.9886L338.504 47.3395L338.777 46.9983C339.387 46.2352 340.124 46.1782 341.323 46.8014C344.48 48.4424 347.462 53.7823 346.497 56.067C346.303 56.5258 345.739 57.1045 345.338 57.2546L345.072 57.3545L345.22 57.7265C345.301 57.9311 345.405 58.2013 345.451 58.3271C345.56 58.6244 345.678 58.6146 346.253 58.2596V58.2596ZM265.72 192.931C264.492 190.933 264.223 188.733 264.951 186.621C265.032 186.383 265.132 186.189 265.171 186.189C265.253 186.189 265.585 187.467 265.844 188.78C266.047 189.816 266.171 192.339 266.049 192.936L265.968 193.331L265.721 192.931H265.72ZM233.109 181.413C233.42 180.816 235.028 178.566 235.652 177.856C236.57 176.81 237.969 175.008 238.906 173.665C239.286 173.12 239.617 172.674 239.64 172.674C239.663 172.674 239.465 173.12 239.199 173.665C238.115 175.881 236.274 178.43 234.559 180.087C234.071 180.559 233.527 181.084 233.35 181.255C233.174 181.426 233.065 181.497 233.109 181.413V181.413ZM219.684 131.476C217.819 129.645 216.719 126.82 216.403 123.053L216.29 121.712L215.668 121.682L215.046 121.653L214.989 122.394C214.887 123.699 213.979 125.358 212.335 127.236L211.589 128.089L211.644 126.882C211.711 125.418 211.887 124.493 212.334 123.258C212.521 122.743 212.78 122.025 212.909 121.661C213.269 120.655 213.76 118.49 213.937 117.134C214.176 115.302 214.136 112.709 213.835 110.483L213.787 110.128L214.161 110.566C214.601 111.082 215.278 111.597 215.52 111.599C215.614 111.6 215.774 111.648 215.874 111.706C216.041 111.802 216.057 111.93 216.056 113.154V114.497L216.906 115.379C217.373 115.864 217.834 116.288 217.931 116.321C218.192 116.41 218.324 116.817 218.324 117.535C218.324 118.206 218.459 118.796 218.65 118.968C218.712 119.024 218.839 119.196 218.932 119.349C219.059 119.559 219.178 119.629 219.406 119.629C219.574 119.629 219.92 119.697 220.175 119.78C220.429 119.864 220.772 119.932 220.935 119.933C221.098 119.934 221.331 120.021 221.454 120.128C221.671 120.317 221.678 120.37 221.706 122.146C221.736 123.962 221.737 123.972 221.966 124.103C222.103 124.182 222.197 124.327 222.197 124.459C222.197 124.582 222.281 124.799 222.385 124.941C222.489 125.083 222.574 125.241 222.574 125.292C222.574 125.344 222.681 125.493 222.81 125.624C222.94 125.756 223.046 125.918 223.046 125.984C223.046 126.254 223.439 126.641 223.714 126.641C224.029 126.641 224.369 126.329 224.369 126.039C224.369 125.789 224.038 124.957 223.904 124.867C223.782 124.786 223.424 124.016 223.424 123.835C223.424 123.766 223.323 123.58 223.2 123.422C222.987 123.149 222.973 123.047 222.937 121.418L222.898 119.702L222.335 119.16C221.852 118.695 221.717 118.617 221.387 118.615C220.906 118.613 220.074 118.351 219.83 118.127C219.678 117.987 219.647 117.825 219.647 117.18C219.647 116.612 219.608 116.368 219.505 116.275C219.427 116.206 219.363 116.044 219.363 115.916C219.363 115.755 219.221 115.571 218.902 115.319C218.648 115.118 218.402 114.954 218.356 114.954C218.308 114.954 218.049 114.713 217.778 114.418L217.285 113.881V112.634C217.285 111.041 217.231 110.921 216.294 110.423C215.589 110.048 215.412 109.802 215.774 109.7C215.891 109.667 215.963 109.561 215.963 109.424C215.963 109.301 216.025 109.112 216.102 109.004C216.308 108.71 216.284 107.857 216.058 107.458C215.868 107.123 215.67 106.993 215.176 106.879C215.029 106.844 214.774 106.665 214.61 106.48C214.445 106.295 214.004 105.928 213.628 105.665C213.253 105.402 212.919 105.141 212.887 105.085C212.855 105.03 212.6 104.867 212.319 104.724C211.86 104.49 211.808 104.432 211.81 104.146C211.81 103.97 211.895 103.713 211.997 103.573C212.1 103.433 212.183 103.219 212.184 103.096C212.184 102.959 212.293 102.806 212.463 102.697C212.887 102.428 212.939 101.879 212.57 101.569C212.368 101.4 212.058 101.409 211.641 101.596C211.095 101.842 210.864 102.129 210.864 102.562C210.864 102.773 210.802 102.994 210.722 103.065C210.616 103.161 210.581 103.418 210.581 104.11V105.028L211.166 105.901C211.487 106.381 211.895 106.98 212.072 107.231L212.393 107.689L212.325 106.977L212.257 106.266L212.482 106.483C212.605 106.602 212.835 106.77 212.994 106.856C213.152 106.942 213.458 107.197 213.674 107.422C213.89 107.648 214.25 107.932 214.473 108.053C214.695 108.174 214.892 108.286 214.909 108.302C214.925 108.318 214.788 108.569 214.602 108.86C214.416 109.15 214.264 109.458 214.264 109.542C214.264 109.666 214.187 109.683 213.877 109.63C213.59 109.58 213.501 109.596 213.53 109.69C213.595 109.902 212.114 113.107 211.497 114.086C211.129 114.671 210.437 115.522 209.593 116.426C206.804 119.415 205.736 121.152 205.008 123.891L204.752 124.85L204.6 124.348C203.586 121.005 203.851 117.82 205.337 115.5C206.52 113.653 207.438 111.763 207.97 110.077C208.547 108.251 208.609 107.813 208.663 105.148C208.69 103.807 208.69 102.732 208.663 102.76C208.636 102.788 208.08 103.811 207.426 105.032C205.292 109.02 204.734 109.705 202.271 111.366C200.194 112.766 199.148 113.815 198.502 115.146L198.138 115.896L198.024 115.383C197.863 114.664 197.879 113.202 198.056 112.391C198.386 110.872 199.18 109.462 200.616 107.841C202.933 105.228 204.018 103.565 204.693 101.592C205.014 100.655 205.21 98.5785 205.042 97.9029C204.992 97.7013 204.943 97.6784 204.689 97.7372C202.674 98.2032 200.898 99.1261 198.985 100.701C197.961 101.545 195.194 104.508 194.19 105.837L193.439 106.831L193.412 106.074C193.375 105.067 193.586 104.133 194.102 103.014C194.647 101.834 195.264 100.953 196.559 99.5085C200.158 95.4923 201.566 93.3716 202.194 91.0234C202.386 90.3049 202.411 89.99 202.411 88.3135C202.411 87.2702 202.38 86.3842 202.345 86.3447C202.251 86.2437 199.132 88.408 196.86 90.1508C192.8 93.2648 191.563 94.0556 190.327 94.3271C189.053 94.6068 187.735 94.1023 186.332 92.7991L185.947 92.4408L186.589 92.0625C187.793 91.3542 188.611 90.2301 188.871 88.9247C189.12 87.6737 188.744 85.9864 187.927 84.6919C187.14 83.4451 185.74 82.3369 184.75 82.1771C184.372 82.1161 184.298 82.1418 183.928 82.4647C183.175 83.1229 181.49 84.0625 181.063 84.0625C180.889 84.0625 180.705 82.75 180.757 81.8851C180.904 79.4364 182.827 78.1894 187.111 77.7648C188.064 77.6704 194.118 77.4586 195.891 77.4577C196.533 77.4577 196.623 77.4368 196.505 77.3179C196.299 77.1101 188.611 71.4703 188.435 71.3975C188.352 71.3631 187.914 71.4988 187.461 71.6989C186.1 72.3016 185.245 72.5168 184.231 72.5119C182.747 72.5055 181.753 71.9873 180.988 70.824C180.089 69.4575 179.793 68.2722 179.724 65.7586C179.697 64.7406 179.711 63.8954 179.763 63.8C179.837 63.6566 179.933 63.7135 180.425 64.1921L181 64.752L181.553 64.6447C183.417 64.2833 185.375 62.2623 185.969 60.0873C186.167 59.3661 186.164 58.1217 185.957 57.4818C185.622 56.4124 184.886 55.4831 183.826 54.7924C183.528 54.5988 183.284 54.3923 183.282 54.3334C183.27 54.1206 184.855 52.5345 185.594 52.0103C186.945 51.0509 188.187 50.634 189.702 50.6311C190.686 50.6285 192.137 50.873 192.583 51.1147C193.688 51.7148 195 53.0941 195.476 54.1573C196.093 55.5367 195.836 56.9774 194.793 57.9869C194.23 58.5314 193.569 58.817 192.558 58.9535C190.747 59.1978 189.519 60.1057 189.227 61.4151C188.78 63.4171 190.161 66.0509 193.286 69.1581C194.603 70.4679 196.739 72.173 197.062 72.173C197.42 72.173 197.656 71.8667 197.618 71.4504C197.591 71.1525 197.455 71.007 196.392 70.1452C193.042 67.4279 190.898 64.7551 190.461 62.7523C190.244 61.7558 190.542 61.1323 191.451 60.6744C191.831 60.4831 192.301 60.3471 192.791 60.2869C195.336 59.9746 197.07 58.0975 197.065 55.6599C197.052 54.2258 196.539 53.0162 195.372 51.7423C194.487 50.7771 193.807 50.2474 192.557 49.5486C192.103 49.2953 191.557 48.9047 191.342 48.6806C190.89 48.2087 190.463 47.3606 190.392 46.7936C190.324 46.2519 190.643 45.4913 191.171 44.9341C191.576 44.506 191.594 44.4982 191.732 44.6901C192.399 45.6168 193.051 47.2335 193.16 48.2317C193.194 48.5327 193.246 48.821 193.28 48.8724C193.313 48.9236 193.593 49.0772 193.905 49.2134C194.415 49.4363 194.604 49.4607 195.794 49.4562C196.987 49.4524 197.19 49.4238 197.872 49.1701C198.975 48.7592 199.774 48.2435 200.476 47.4876C201.2 46.7082 201.58 45.9291 201.707 44.9607C201.8 44.2552 201.695 43.3473 201.452 42.7172C201.379 42.5284 201.319 42.3566 201.319 42.3355C201.319 42.2491 202.102 42.3066 202.889 42.4509C206.652 43.1416 208.547 45.0332 208.172 47.7252C208.095 48.2783 207.902 48.5045 206.891 49.2272C206.01 49.8572 204.868 50.4579 203.171 51.1836C201.59 51.8601 201.191 52.1024 200.683 52.6957C199.929 53.5756 199.619 54.58 199.619 56.1428C199.619 56.6923 199.686 57.4944 199.767 57.9252C200.061 59.4865 200.954 61.925 201.44 62.4937C201.682 62.7768 202.014 62.7871 202.263 62.5192C202.532 62.2303 202.499 61.9032 202.121 61.0955C201.297 59.3338 200.788 57.1705 200.87 55.7683C200.958 54.2408 201.519 53.3776 202.783 52.8217C205.086 51.8085 206.218 51.2574 206.909 50.8119C207.341 50.5333 207.751 50.2951 207.822 50.2824C207.892 50.2694 208.614 49.5292 209.427 48.6369C210.8 47.1303 211.651 46.4023 212.393 46.1022C212.638 46.0028 212.601 46.1333 212.134 47.0141L211.711 47.8138L212.045 48.4055C212.889 49.9011 214.907 51.0107 216.973 51.1155C219.023 51.2194 220.47 50.5374 221.425 49.0181C221.816 48.3951 222.191 47.4167 222.191 47.0186C222.191 46.8809 222.226 46.7683 222.268 46.7683C222.31 46.7683 222.669 47.0084 223.065 47.3018C225.578 49.1632 226.938 51.4365 226.792 53.5284C226.594 56.3568 223.632 58.2454 218.207 59.002C217.311 59.1271 217.16 59.1219 216.335 58.9388C215.032 58.6492 212.795 58.7285 211.522 59.1095C208.345 60.0597 206.01 62.26 205.097 65.1636C204.816 66.0571 204.738 67.8738 204.938 68.8837C205.143 69.9197 205.609 71.0562 206.264 72.1168C206.805 72.9926 207.459 73.7432 209.502 75.8314C209.966 76.3064 211.322 77.8099 212.514 79.1724C216.572 83.8087 221.532 88.7302 226.724 93.272C230.437 96.5199 232.29 97.9884 234.799 99.6711C242.354 104.739 247.959 109.762 251.6 114.729C252.227 115.585 253.753 118.017 253.699 118.076C253.679 118.097 253.392 118.048 253.061 117.966C251.436 117.565 250.388 117.451 248.304 117.452C245.946 117.453 245.055 117.601 243.367 118.272C242.862 118.472 242.118 118.768 241.714 118.928C240.564 119.384 239.293 119.632 237.767 119.699C235.646 119.791 234.193 119.481 232.438 118.56C230.848 117.725 229.445 116.336 228.236 114.397C227.862 113.797 227.523 113.346 227.483 113.394C227.442 113.442 227.211 113.953 226.968 114.529C226.664 115.252 226.493 115.824 226.419 116.37C225.983 119.585 228.649 122.814 233.099 124.462C233.91 124.763 234.156 124.913 233.836 124.913C233.565 124.913 231.094 125.734 230.173 126.13C228.821 126.711 227.089 127.726 225.26 129.007C222.939 130.634 220.648 132.128 220.477 132.128C220.403 132.128 220.043 131.835 219.678 131.477L219.684 131.476ZM253.93 97.2033C247.423 96.9112 242.32 93.9569 240.272 89.2955C239.661 87.9058 239.47 87.068 239.412 85.5356C239.337 83.4993 239.619 82.0868 240.461 80.3022C241.024 79.1067 241.636 78.1993 242.638 77.0696C244.725 74.717 246.178 73.952 248.782 73.8326C250.08 73.7731 250.981 73.8971 252.174 74.2992C254.71 75.1534 256.465 76.9704 256.249 78.5175C256.117 79.4674 255.249 80.3896 253.801 81.1202C252.957 81.546 252.78 81.7736 252.133 83.2698C251.029 85.8207 251.662 88.2709 253.776 89.6374C255.985 91.0651 259.919 91.3009 264.954 90.3074C269.865 89.3383 276.498 86.8294 283.349 83.3491C285.717 82.146 289.701 80.4625 291.996 79.6957C293.521 79.1858 295.706 78.6118 296.999 78.3817C298.244 78.16 300.91 77.9184 301.055 78.0142C301.28 78.1642 302.284 81.5565 302.146 81.7044C302.114 81.739 301.462 81.8008 300.697 81.8417C294.953 82.1491 288.233 84.0802 281.129 87.4647C279.424 88.2771 275.755 90.2229 274.093 91.1959C272.96 91.8595 270.298 93.2302 269.002 93.818C263.812 96.1706 258.334 97.4009 253.93 97.2033V97.2033ZM180.783 91.5171C179.023 91.2391 177.792 90.8374 176.552 90.1367C175.465 89.5218 174.215 88.1814 173.684 87.0599C173.472 86.6127 173.232 86.0183 173.15 85.7388C172.987 85.1799 172.784 84.0486 172.837 83.9916C172.855 83.9718 173.157 84.1426 173.506 84.3713C176.706 86.4626 180.916 86.3143 184.109 83.9978L184.75 83.5329L185.245 83.8094C185.896 84.1736 186.871 85.2967 187.245 86.1144C188.263 88.3394 187.576 90.1747 185.337 91.2078C184.662 91.519 184.638 91.5222 182.861 91.5419C181.874 91.5535 180.939 91.5419 180.783 91.5171V91.5171ZM180.69 62.6501C179.818 61.8962 178.206 61.0082 177.148 60.7C174.884 60.0401 172.444 60.2551 170.379 61.2964C169.946 61.5144 169.593 61.6843 169.594 61.6739C169.607 61.5331 170.008 60.2967 170.191 59.8543C171.022 57.8351 172.689 56.3071 174.867 55.5685C176.248 55.1001 177.279 54.9714 179.131 55.036C181.713 55.126 182.81 55.4684 183.876 56.517C184.607 57.2359 184.846 57.8006 184.844 58.8098C184.844 59.5355 184.805 59.7078 184.492 60.4149C183.953 61.6342 182.922 62.7129 181.906 63.1194L181.445 63.3037L180.69 62.6501V62.6501ZM298.469 56.6697C298.11 56.4776 297.792 56.2953 297.764 56.2647C297.736 56.2341 297.855 56.0652 298.03 55.8896C298.204 55.714 298.477 55.2703 298.636 54.9036C298.91 54.2726 298.925 54.1691 298.927 52.9667C298.927 51.5693 298.805 50.9649 298.294 49.8674C297.903 49.027 297.571 48.5254 297.029 47.9607C296.43 47.3353 296.028 47.0487 295.397 46.797C294.893 46.5958 294.888 46.5898 295.114 46.4597C295.241 46.3868 295.727 46.0192 296.194 45.6427C297.642 44.4765 298.933 43.8548 300.74 43.4543C301.535 43.2778 304.951 43.1357 305.54 43.2546L305.871 43.3214L305.142 43.8547C303.378 45.146 302.374 47.2458 302.051 50.3234C301.769 53.0031 301.326 54.5198 300.448 55.8068C300.166 56.2201 299.288 57.0489 299.156 57.0253C299.137 57.0227 298.828 56.8619 298.469 56.6697V56.6697ZM295.296 54.96C295.062 54.8256 294.637 54.4491 294.352 54.1233L293.833 53.531L294.164 53.471C295.469 53.2337 295.939 51.5779 295.165 49.9415C294.903 49.387 294.35 48.7598 293.96 48.5741C293.301 48.2601 294.11 47.9699 294.899 48.2374C295.327 48.3826 295.557 48.553 296.053 49.0923C297.563 50.7338 298.053 53.5114 297.053 54.7563C296.785 55.0892 296.693 55.1356 296.237 55.168C295.83 55.1967 295.633 55.1532 295.296 54.9601V54.96ZM216.373 49.7113C215.359 49.516 214.293 48.9749 213.563 48.2851C213.173 47.9165 213.157 47.8186 213.415 47.3487C213.716 46.8004 214.061 45.6362 214.227 44.6123C214.4 43.547 214.361 42.271 214.121 41.179C213.798 39.7118 212.569 37.5441 211.498 36.5529L211.101 36.1852L212.518 36.2383C214.231 36.3026 215.028 36.5008 216.255 37.1677C218.63 38.4585 220.326 41.2373 220.934 44.8341C221.215 46.5011 220.911 47.751 219.979 48.7592C219.367 49.4213 218.664 49.7227 217.618 49.7708C217.202 49.7898 216.642 49.763 216.373 49.7111L216.373 49.7113ZM194.739 48.0842C194.519 48.0108 194.418 47.9048 194.377 47.7054C193.897 45.3464 192.521 43.1445 190.701 41.822C189.384 40.8655 188.136 40.3594 186.507 40.1225L185.714 40.0071L186.224 39.5972C187.919 38.2349 189.378 37.686 191.315 37.6809C193.932 37.6745 196.392 38.8002 198.931 41.1666C199.544 41.7382 199.737 41.9949 200.041 42.649C200.716 44.1018 200.61 45.3481 199.722 46.388C198.823 47.4423 197.456 48.078 195.942 48.1458C195.449 48.1681 194.908 48.1393 194.739 48.0841V48.0842Z" fill="#FCDD04"/>
</g>
<defs>
<clipPath id="clip0_1_1420">
<rect width="600" height="400" fill="white"/>
</clipPath>
</defs>
</svg>
