<svg width="600" height="400" viewBox="0 0 600 400" fill="none" xmlns="http://www.w3.org/2000/svg" xmlns:cgf="https://coding.garden/flags"><metadata id="cgf-metadata">

<cgf:flag>
  <cgf:name>Noardeast-Fryslan</cgf:name>
  <cgf:route>nl/fl/noardeast_fryslan</cgf:route>
  <cgf:aspect-ratio>1.5</cgf:aspect-ratio>
</cgf:flag>

</metadata><g clip-path="url(#clip0_1_1426)">
<path d="M600 95.9914C600 162.974 599.971 229.958 599.913 296.942C599.913 297.476 598.594 298.478 597.891 298.478C398.595 298.546 199.298 298.569 0 298.545V95.9914C1.0125 95.9582 2.02185 95.894 3.03435 95.894H522.225C548.15 95.8972 574.075 95.9297 600 95.9914ZM157.404 233.114L128.967 200.442L157.132 167.193L114.401 175.493L100.485 134.145L86.5813 175.751L43.4536 167.077L72.1924 199.749C63.0393 211.784 53.3894 220.472 44.0238 232.784L86.3824 224.351L100.314 266.221L114.616 224.654L157.404 233.114Z" fill="#36925F"/>
<path d="M600 95.9912C574.075 95.958 548.15 95.9255 522.225 95.8939C349.163 95.8939 176.099 95.8939 3.03435 95.8939C2.02185 95.8939 1.0125 95.958 0 95.9912V47.2217C1.875 46.1246 3.88434 45.1439 5.58435 43.9115C16.6312 35.9115 29.5593 32.7176 44.6875 34.7598C56.1344 36.3033 63.975 42.1353 72.1219 47.6918C86.4687 57.48 105.281 60.0089 120.559 53.4669C127.466 50.5129 133.372 46.1721 139.553 42.2849C156.081 31.8794 177.403 31.6775 194.103 41.9192C200.041 45.5666 205.475 49.8124 211.897 52.8685C228.6 60.8044 248.203 58.057 265.625 45.9323C287.5 30.7087 308.541 30.7776 330.666 45.6948C336.416 49.5678 342.822 53.531 349.875 55.5114C367.25 60.3865 382.213 56.2238 395.916 47.0507C402.85 42.4036 411.228 38.0272 419.928 36.0777C437.8 32.0622 452.075 38.5116 464.541 47.9887C476.55 57.1143 491.484 60.5551 507.291 56.1264C516.503 53.5476 524.55 48.1003 532.4 43.268C549.181 32.9337 569.588 32.4707 586.525 42.7052C591.159 45.5048 595.522 48.5633 600.009 51.5031L600 95.9912Z" fill="#F2CF01"/>
<path d="M600 51.4938C595.513 48.554 591.15 45.4956 586.516 42.6959C569.572 32.4614 549.172 32.9244 532.391 43.2587C524.541 48.091 516.494 53.5383 507.281 56.1172C491.475 60.5458 476.541 57.105 464.531 47.9794C452.066 38.5024 437.791 32.0529 419.919 36.0684C411.209 38.0251 402.841 42.3943 395.906 47.0414C382.203 56.2169 367.241 60.3772 349.866 55.5021C342.813 53.5241 336.406 49.5656 330.656 45.6855C308.531 30.7778 287.481 30.7089 265.616 45.923C248.203 58.0477 228.6 60.7951 211.916 52.8592C205.494 49.8031 200.066 45.5573 194.122 41.9099C177.422 31.6683 156.1 31.8701 139.572 42.2756C133.397 46.1628 127.484 50.5036 120.578 53.4576C105.287 59.9996 86.475 57.4707 72.1406 47.6826C63.9938 42.126 56.1531 36.2845 44.7062 34.7505C29.5719 32.7083 16.6438 35.9022 5.59688 43.9022C3.88439 45.1441 1.875 46.1248 0 47.2219V-5.46338H600V51.4938Z" fill="#0172C8"/>
<path d="M157.404 233.114L114.616 224.655L100.314 266.221L86.3824 224.351L44.0238 232.785C53.3988 220.472 63.0393 211.784 72.1924 199.749L43.4536 167.078L86.5813 175.751L100.485 134.146L114.401 175.493L157.132 167.194L128.967 200.442L157.404 233.114Z" fill="#F1D202"/>
<path d="M600 298.545C574.075 298.578 548.15 298.611 522.225 298.642C349.163 298.642 176.099 298.642 3.03435 298.642C2.02185 298.642 1.0125 298.578 0 298.545V347.314C1.875 348.412 3.88434 349.392 5.58435 350.625C16.6312 358.625 29.5593 361.819 44.6875 359.776C56.1344 358.233 63.975 352.401 72.1219 346.844C86.4687 337.056 105.281 334.527 120.559 341.069C127.466 344.023 133.372 348.364 139.553 352.251C156.081 362.657 177.403 362.859 194.103 352.617C200.041 348.97 205.475 344.724 211.897 341.668C228.6 333.732 248.203 336.479 265.625 348.604C287.5 363.827 308.541 363.759 330.666 348.841C336.416 344.968 342.822 341.005 349.875 339.025C367.25 334.15 382.213 338.312 395.916 347.485C402.85 352.133 411.228 356.509 419.928 358.458C437.8 362.474 452.075 356.025 464.541 346.547C476.55 337.422 491.484 333.981 507.291 338.41C516.503 340.989 524.55 346.436 532.4 351.268C549.181 361.602 569.588 362.066 586.525 351.831C591.159 349.031 595.522 345.973 600.009 343.033L600 298.545Z" fill="#F2CF01"/>
<path d="M600 343.042C595.513 345.982 591.15 349.041 586.516 351.84C569.572 362.075 549.172 361.612 532.391 351.277C524.541 346.445 516.494 340.998 507.281 338.419C491.475 333.99 476.541 337.431 464.531 346.557C452.066 356.034 437.791 362.483 419.919 358.468C411.209 356.511 402.841 352.142 395.906 347.495C382.203 338.319 367.241 334.159 349.866 339.034C342.813 341.012 336.406 344.971 330.656 348.851C308.531 363.758 287.481 363.827 265.616 348.613C248.203 336.488 228.6 333.741 211.916 341.677C205.494 344.733 200.066 348.979 194.122 352.626C177.422 362.868 156.1 362.666 139.572 352.261C133.397 348.373 127.484 344.033 120.578 341.079C105.287 334.537 86.475 337.065 72.1406 346.854C63.9938 352.41 56.1531 358.252 44.7062 359.786C29.5719 361.828 16.6438 358.634 5.59688 350.634C3.88439 349.392 1.875 348.411 0 347.314V400H600V343.042Z" fill="#0172C8"/>
</g>
<defs>
<clipPath id="clip0_1_1426">
<rect width="600" height="400" fill="white"/>
</clipPath>
</defs>
</svg>
