<svg width="600" height="400" viewBox="0 0 600 400" fill="none" xmlns="http://www.w3.org/2000/svg" xmlns:cgf="https://coding.garden/flags"><metadata id="cgf-metadata">

<cgf:flag>
  <cgf:name>Smallingerland</cgf:name>
  <cgf:route>nl/fl/smallingerland</cgf:route>
  <cgf:aspect-ratio>1.5</cgf:aspect-ratio>
</cgf:flag>

</metadata><g clip-path="url(#clip0_1_1445)">
<path d="M600 0H0V400H600V0Z" fill="#0F9B49"/>
<path d="M600 0H0V200H600V0Z" fill="white"/>
<path d="M297.2 65.0665C294.821 65.7406 292.631 66.992 290.757 68.5952C289.981 69.2659 289.13 69.8462 288.447 70.6192C287.714 71.2511 287.072 71.9704 286.442 72.7026C285.326 73.872 284.343 75.1594 283.333 76.4192C283.117 76.7034 282.905 77.1533 282.67 76.6246C281.469 75.2164 280.268 73.8081 279.067 72.3999C280.42 70.4405 281.962 68.6132 283.596 66.8836C284.858 65.7277 286.155 64.5987 287.616 63.7C288.259 63.2803 288.941 62.9259 289.6 62.5332L297.2 65.0665V65.0665Z" fill="#E81C35" stroke="black" stroke-width="4" stroke-linejoin="round"/>
<path d="M398.933 43.2C398.794 41.6208 397.128 40.544 395.776 41.6452C393.905 42.5968 394.134 45.1962 393.253 46.9069C391.796 51.2616 390.363 56.8017 385.467 58.4C381.61 59.8361 376.979 58.4866 374.762 54.9509C371.904 51.069 370.921 46.1688 370.4 41.4667C369.549 40.4033 367.305 39.3044 366.8 41.2667C366.275 47.324 368.591 53.2881 368.252 59.3422C368.088 63.4179 363.926 65.4098 360.398 65.9737C356.277 67.047 351.179 66.2356 348.844 62.3036C345.762 57.6098 345.621 51.7059 345.467 46.2667C344.59 44.6176 341.742 44.765 341.692 46.8134C340.982 52.8604 341.706 58.9582 341.222 65.0037C341.202 67.4846 338.784 69.3844 336.376 68.6909C330.916 67.7331 324.839 67.05 320.6 63.1334C317.334 59.8706 318.644 54.8671 320.286 51.143C321.017 49.9784 321.126 47.4297 319.133 47.8001C316.09 48.5473 314.104 51.7472 313.501 54.6723C313.153 56.9905 313.378 60.5005 310.398 61.0523C306.185 61.7973 301.839 61.0052 297.663 60.2895C290.237 58.781 282.312 56.3293 277.267 50.3334C275.885 49.0752 275.772 46.8258 274.209 45.8397C272.755 45.3064 270.098 46.1469 270.082 47.8617C271.913 54.7505 277.382 60.2866 283.733 63.1937C298.987 67.1066 314.238 71.0537 329.451 75.1127C339.37 78.881 350.912 77.7518 360 72.3334C367.173 68.8128 375.173 67.9271 382.933 66.5334C389.063 63.4537 395.502 58.9002 396.933 51.7334C397.627 48.8969 397.942 45.9601 398.933 43.2L398.933 43.2Z" fill="#E81C35" stroke="black" stroke-width="4" stroke-linejoin="round"/>
<path d="M409.867 267.6C412.278 274.893 417.332 281.412 424.4 284.667C427.995 286.185 429.69 290.005 429.592 293.733C430.872 305.429 432.742 317.501 438.933 327.733C436.404 328.575 433.122 330.852 434.601 333.907C435.387 337.048 439.043 336.903 441.6 336.667C445.768 340.699 449.973 345.934 449.015 352.134C449.169 354.447 448.52 355.555 446.141 354.523C437.798 352.55 431.375 346.166 426.2 339.667C423.697 336.317 422.769 332.192 422.733 328.067C421.84 319.005 421.577 309.892 421.333 300.8C420.206 296.534 416.115 294.125 413.2 291.133C395.742 276.2 373.916 267.507 356.478 252.564C349.77 246.637 344.042 238.967 342.4 230L409.867 267.6V267.6Z" fill="#E81C35" stroke="black" stroke-width="4" stroke-linejoin="round"/>
<path d="M215.564 76.5645C215.371 74.58 214.819 72.2612 216.072 70.4958C217.582 68.4226 220.401 68.3384 222.737 68.293C228.651 68.5587 234.543 69.372 240.471 69.2407C245.414 69.1317 250.33 68.4102 255.107 67.1354C260.281 65.9385 265.634 65.2037 270.94 65.8153C275.575 66.2539 280.328 67.3203 284.102 70.1961C286.1 71.6221 287.875 73.3361 289.466 75.2002C292.374 74.6513 295.35 74.6626 298.294 74.821C301.352 75.1332 304.358 75.8336 307.254 76.8626C310.151 77.8692 312.851 79.3854 315.398 81.0813C316.664 81.9724 318.027 82.8695 318.726 84.304C319.404 85.622 319.74 87.1468 319.564 88.6255C319.371 89.7211 319 90.8156 318.214 91.6306C316.49 93.2735 314.522 94.6745 312.346 95.6602C309.84 96.8245 307.167 97.6169 304.421 97.955C300.743 98.4743 296.978 98.3034 293.35 97.5087C292.718 97.38 292.095 97.2117 291.466 97.0669C289.546 103.553 282.637 106.964 280.642 113.434C276.657 123.654 272.604 133.956 270.666 144.8C270.549 149.666 272.948 154.56 277.133 157.134C280.199 159.165 284.141 159.951 286.469 163.021C288.004 164.747 288.844 167.08 290.965 168.255C296.904 172.381 304.494 174.027 311.619 172.762C319.904 171.483 328.274 170.678 336.666 170.867C345.89 171.09 355.173 172.7 363.598 176.574C369.829 179.301 375.489 183.095 381.333 186.534C384.051 187.477 387.699 188.154 389.852 185.727C397.913 177.108 404.901 167.523 410.945 157.396C412.115 155.762 412.869 153.013 415.266 153C417.003 153.657 417.072 155.941 417.159 157.537C417.188 164.147 416.734 170.945 414.244 177.138C412.443 181.72 409.127 185.687 404.767 188.024C401.933 189.726 398.683 190.522 395.712 191.902C394.209 192.728 393.719 194.523 393.733 196.134C394.115 199.196 397.01 200.917 398.657 203.289C405.43 211.33 410.841 220.572 414.213 230.541C415.793 235.131 416.891 239.866 417.6 244.667C422.228 254.069 428.215 263.337 437.213 269.079C441.44 271.786 446.342 273.335 451.333 273.734L452.066 274.134C454.84 276.302 454.527 280.094 454.932 283.225C456.839 294.311 462.724 304.312 469.909 312.805C472.798 316.166 476.104 319.149 479.6 321.867C477.937 322.323 475.408 322.965 475.533 325.134C476.641 328.028 479.943 329.506 482.91 329.134C484.087 329.181 485.332 328.602 486.411 328.644C490.884 331.876 494.684 336.266 496.311 341.619C497.279 343.087 495.77 342.872 494.691 342.927C487.31 343.097 479.566 342.384 473.069 338.579C468.232 335.749 464.713 331.083 462.718 325.898C459.667 318.47 455.93 311.347 451.8 304.467C449.659 301.039 447.7 297.445 445.02 294.398C443.871 293.091 442.529 291.983 441.2 290.867C427.899 280.354 412.271 273.32 396.267 268.004C379.681 262.021 361.675 257.555 348.271 245.438C342.595 240.412 338.439 233.847 335.733 226.8C326.124 223.657 315.973 226.53 306.466 228.667C289.302 232.017 270.659 234.001 254.167 226.825C253.162 226.36 252.18 225.849 251.2 225.334C248.968 227.868 245.205 227.583 242.198 226.99C237.487 226.001 233.502 223.121 229.164 221.171C223.94 218.703 218.948 215.743 214.35 212.24C209.684 208.889 205.691 204.33 200.074 202.54C193.699 201.13 187.423 199.276 181.253 197.146C178.88 196.191 176.413 195.437 174.133 194.267H138.133C133.774 195.677 129.426 197.123 125.066 198.534C125.955 196.852 126.963 194.352 125.333 192.8C122.353 191.712 119.421 194.182 118.266 196.8C113.045 196.323 107.159 195.001 104.089 190.318C102.659 189.121 104.816 188.403 105.663 187.692C111.958 184.101 119.47 184.059 126.518 184.157C133.907 184.474 141.286 185.21 148.692 185C158.023 185.123 167.339 184.507 176.635 183.788C185.677 183.31 194.728 184.496 203.51 186.609C204.748 186.859 205.956 187.238 207.2 187.467C201.024 182.693 193.512 180.107 187.159 175.61C185.951 174.749 184.875 173.633 183.715 172.779C175.451 171.606 167.095 171.302 158.767 170.914C154.37 170.871 149.952 170.51 145.569 170.741C141.816 171.776 138.751 174.695 134.754 174.989C134.371 175.027 133.984 175.039 133.6 175.067C134.104 173.472 135.402 171.185 133.871 169.836C131.725 169.074 129.143 169.582 127.2 170.734C126.073 171.34 125.469 172.633 124.584 173.372C118.944 174.385 113.459 171.708 108.8 168.8C109.657 164.337 114.328 162.136 118.348 161.226C128.081 159.283 137.909 161.672 147.678 161.967C159.683 162.738 171.682 163.885 183.72 163.914C192.807 164.439 202.02 165.578 210.53 168.962C212.167 169.67 213.67 170.627 215.066 171.734C215.583 160.448 219.827 149.675 225.522 140.036C231.452 129.74 238.867 120.37 244.59 109.953C245.969 107.168 247.344 104.353 248.133 101.334C241.934 98.6493 237.677 92.7271 231.133 90.6671C230.076 90.0597 229 90.1634 227.891 90.5422C224.313 91.2155 219.958 90.7466 217.533 87.7337C216.598 86.3847 216.423 84.5758 217.066 83.0671C214.855 81.7264 215.014 78.7643 215.564 76.5646L215.564 76.5645Z" fill="#E81C35" stroke="black" stroke-width="4" stroke-linejoin="round"/>
<path d="M297.2 65.0665C294.821 65.7406 292.631 66.992 290.757 68.5952C289.981 69.2659 289.13 69.8462 288.447 70.6192C287.714 71.2511 287.072 71.9704 286.442 72.7026C285.326 73.872 284.343 75.1594 283.333 76.4192C283.117 76.7034 282.905 77.1533 282.67 76.6246C281.469 75.2164 280.268 73.8081 279.067 72.3999C280.42 70.4405 281.962 68.6132 283.596 66.8836C284.858 65.7277 286.155 64.5987 287.616 63.7C288.259 63.2803 288.941 62.9259 289.6 62.5332L297.2 65.0665V65.0665Z" fill="#E81C35" stroke="black" stroke-width="3" stroke-linejoin="round"/>
<path d="M398.933 43.2C398.794 41.6208 397.128 40.544 395.776 41.6452C393.905 42.5968 394.134 45.1962 393.253 46.9069C391.796 51.2616 390.363 56.8017 385.467 58.4C381.61 59.8361 376.979 58.4866 374.762 54.9509C371.904 51.069 370.921 46.1688 370.4 41.4667C369.549 40.4033 367.305 39.3044 366.8 41.2667C366.275 47.324 368.591 53.2881 368.252 59.3422C368.088 63.4179 363.926 65.4098 360.398 65.9737C356.277 67.047 351.179 66.2356 348.844 62.3036C345.762 57.6098 345.621 51.7059 345.467 46.2667C344.59 44.6176 341.742 44.765 341.692 46.8134C340.982 52.8604 341.706 58.9582 341.222 65.0037C341.202 67.4846 338.784 69.3844 336.376 68.6909C330.916 67.7331 324.839 67.05 320.6 63.1334C317.334 59.8706 318.644 54.8671 320.286 51.143C321.017 49.9784 321.126 47.4297 319.133 47.8001C316.09 48.5473 314.104 51.7472 313.501 54.6723C313.153 56.9905 313.378 60.5005 310.398 61.0523C306.185 61.7973 301.839 61.0052 297.663 60.2895C290.237 58.781 282.312 56.3293 277.267 50.3334C275.885 49.0752 275.772 46.8258 274.209 45.8397C272.755 45.3064 270.098 46.1469 270.082 47.8617C271.913 54.7505 277.382 60.2866 283.733 63.1937C298.987 67.1066 314.238 71.0537 329.451 75.1127C339.37 78.881 350.912 77.7518 360 72.3334C367.173 68.8128 375.173 67.9271 382.933 66.5334C389.063 63.4537 395.502 58.9002 396.933 51.7334C397.627 48.8969 397.942 45.9601 398.933 43.2L398.933 43.2Z" fill="#E81C35" stroke="black" stroke-width="3" stroke-linejoin="round"/>
<path d="M409.867 267.6C412.278 274.893 417.332 281.412 424.4 284.667C427.995 286.185 429.69 290.005 429.592 293.733C430.872 305.429 432.742 317.501 438.933 327.733C436.404 328.575 433.122 330.852 434.601 333.907C435.387 337.048 439.043 336.903 441.6 336.667C445.768 340.699 449.973 345.934 449.015 352.134C449.169 354.447 448.52 355.555 446.141 354.523C437.798 352.55 431.375 346.166 426.2 339.667C423.697 336.317 422.769 332.192 422.733 328.067C421.84 319.005 421.577 309.892 421.333 300.8C420.206 296.534 416.115 294.125 413.2 291.133C395.742 276.2 373.916 267.507 356.478 252.564C349.77 246.637 344.042 238.967 342.4 230L409.867 267.6V267.6Z" fill="#E81C35" stroke="black" stroke-width="3" stroke-linejoin="round"/>
<path d="M215.564 76.5645C215.371 74.58 214.819 72.2612 216.072 70.4958C217.582 68.4226 220.401 68.3384 222.737 68.293C228.651 68.5587 234.543 69.372 240.471 69.2407C245.414 69.1317 250.33 68.4102 255.107 67.1354C260.281 65.9385 265.634 65.2037 270.94 65.8153C275.575 66.2539 280.328 67.3203 284.102 70.1961C286.1 71.6221 287.875 73.3361 289.466 75.2002C292.374 74.6513 295.35 74.6626 298.294 74.821C301.352 75.1332 304.358 75.8336 307.254 76.8626C310.151 77.8692 312.851 79.3854 315.398 81.0813C316.664 81.9724 318.027 82.8695 318.726 84.304C319.404 85.622 319.74 87.1468 319.564 88.6255C319.371 89.7211 319 90.8156 318.214 91.6306C316.49 93.2735 314.522 94.6745 312.346 95.6602C309.84 96.8245 307.167 97.6169 304.421 97.955C300.743 98.4743 296.978 98.3034 293.35 97.5087C292.718 97.38 292.095 97.2117 291.466 97.0669C289.546 103.553 282.637 106.964 280.642 113.434C276.657 123.654 272.604 133.956 270.666 144.8C270.549 149.666 272.948 154.56 277.133 157.134C280.199 159.165 284.141 159.951 286.469 163.021C288.004 164.747 288.844 167.08 290.965 168.255C296.904 172.381 304.494 174.027 311.619 172.762C319.904 171.483 328.274 170.678 336.666 170.867C345.89 171.09 355.173 172.7 363.598 176.574C369.829 179.301 375.489 183.095 381.333 186.534C384.051 187.477 387.699 188.154 389.852 185.727C397.913 177.108 404.901 167.523 410.945 157.396C412.115 155.762 412.869 153.013 415.266 153C417.003 153.657 417.072 155.941 417.159 157.537C417.188 164.147 416.734 170.945 414.244 177.138C412.443 181.72 409.127 185.687 404.767 188.024C401.933 189.726 398.683 190.522 395.712 191.902C394.209 192.728 393.719 194.523 393.733 196.134C394.115 199.196 397.01 200.917 398.657 203.289C405.43 211.33 410.841 220.572 414.213 230.541C415.793 235.131 416.891 239.866 417.6 244.667C422.228 254.069 428.215 263.337 437.213 269.079C441.44 271.786 446.342 273.335 451.333 273.734L452.066 274.134C454.84 276.302 454.527 280.094 454.932 283.225C456.839 294.311 462.724 304.312 469.909 312.805C472.798 316.166 476.104 319.149 479.6 321.867C477.937 322.323 475.408 322.965 475.533 325.134C476.641 328.028 479.943 329.506 482.91 329.134C484.087 329.181 485.332 328.602 486.411 328.644C490.884 331.876 494.684 336.266 496.311 341.619C497.279 343.087 495.77 342.872 494.691 342.927C487.31 343.097 479.566 342.384 473.069 338.579C468.232 335.749 464.713 331.083 462.718 325.898C459.667 318.47 455.93 311.347 451.8 304.467C449.659 301.039 447.7 297.445 445.02 294.398C443.871 293.091 442.529 291.983 441.2 290.867C427.899 280.354 412.271 273.32 396.267 268.004C379.681 262.021 361.675 257.555 348.271 245.438C342.595 240.412 338.439 233.847 335.733 226.8C326.124 223.657 315.973 226.53 306.466 228.667C289.302 232.017 270.659 234.001 254.167 226.825C253.162 226.36 252.18 225.849 251.2 225.334C248.968 227.868 245.205 227.583 242.198 226.99C237.487 226.001 233.502 223.121 229.164 221.171C223.94 218.703 218.948 215.743 214.35 212.24C209.684 208.889 205.691 204.33 200.074 202.54C193.699 201.13 187.423 199.276 181.253 197.146C178.88 196.191 176.413 195.437 174.133 194.267H138.133C133.774 195.677 129.426 197.123 125.066 198.534C125.955 196.852 126.963 194.352 125.333 192.8C122.353 191.712 119.421 194.182 118.266 196.8C113.045 196.323 107.159 195.001 104.089 190.318C102.659 189.121 104.816 188.403 105.663 187.692C111.958 184.101 119.47 184.059 126.518 184.157C133.907 184.474 141.286 185.21 148.692 185C158.023 185.123 167.339 184.507 176.635 183.788C185.677 183.31 194.728 184.496 203.51 186.609C204.748 186.859 205.956 187.238 207.2 187.467C201.024 182.693 193.512 180.107 187.159 175.61C185.951 174.749 184.875 173.633 183.715 172.779C175.451 171.606 167.095 171.302 158.767 170.914C154.37 170.871 149.952 170.51 145.569 170.741C141.816 171.776 138.751 174.695 134.754 174.989C134.371 175.027 133.984 175.039 133.6 175.067C134.104 173.472 135.402 171.185 133.871 169.836C131.725 169.074 129.143 169.582 127.2 170.734C126.073 171.34 125.469 172.633 124.584 173.372C118.944 174.385 113.459 171.708 108.8 168.8C109.657 164.337 114.328 162.136 118.348 161.226C128.081 159.283 137.909 161.672 147.678 161.967C159.683 162.738 171.682 163.885 183.72 163.914C192.807 164.439 202.02 165.578 210.53 168.962C212.167 169.67 213.67 170.627 215.066 171.734C215.583 160.448 219.827 149.675 225.522 140.036C231.452 129.74 238.867 120.37 244.59 109.953C245.969 107.168 247.344 104.353 248.133 101.334C241.934 98.6493 237.677 92.7271 231.133 90.6671C230.076 90.0597 229 90.1634 227.891 90.5422C224.313 91.2155 219.958 90.7466 217.533 87.7337C216.598 86.3847 216.423 84.5758 217.066 83.0671C214.855 81.7264 215.014 78.7643 215.564 76.5646L215.564 76.5645Z" fill="#E81C35" stroke="black" stroke-width="3" stroke-linejoin="round"/>
<path d="M266.133 206.533C263.938 208.675 262.147 211.18 260.283 213.604C259.592 214.601 258.957 215.638 258.212 216.599C257.148 218.12 256.144 219.684 255.01 221.154C253.941 222.848 252.741 224.458 251.436 225.977C251.287 226.374 250.953 226.215 250.643 226.127C250.117 225.996 249.592 225.865 249.066 225.733C250.084 224.951 250.898 223.951 251.728 222.982C252.987 221.258 254.244 219.533 255.431 217.758C257.152 215.578 258.624 213.2 260.536 211.174C261.808 209.734 263.289 208.496 264.822 207.345C265.259 207.074 265.696 206.804 266.133 206.533V206.533Z" fill="black"/>
<path d="M259.6 164.933C255.608 167.667 251.26 169.843 246.779 171.649C243.574 172.917 240.351 174.138 237.142 175.391C233.848 176.681 230.599 178.087 227.509 179.818C225.029 181.183 222.535 182.627 220.451 184.559C218.373 186.869 217.561 190.026 217.166 193.037C216.969 193.44 217.19 195.115 216.658 194.55C214.45 192.744 212.162 190.979 209.641 189.631C208.247 188.969 206.816 188.417 205.333 188C205.629 187.405 205.687 186.373 206.12 186.031C208.372 186.605 210.686 187.115 212.641 188.443C213.657 189.023 214.482 189.875 215.333 190.666C215.708 187.305 217.263 183.855 220.242 182.046C224.092 179.216 228.407 177.082 232.868 175.405C236.141 174.243 239.413 173.08 242.738 172.079C248.556 170.2 254.341 168.103 259.6 164.933H259.6Z" fill="black"/>
<path d="M216.666 191.2C216.598 190.097 216.414 189.007 216.32 187.908C216.263 186.18 216.013 184.462 216.066 182.73C216.066 181.713 215.952 180.698 216.048 179.682C216.076 178.507 216.059 177.331 216.144 176.157C216.271 173.808 216.27 171.445 216.65 169.117C216.71 168.613 216.748 168.105 216.8 167.6L214.666 167.333C214.563 169.039 214.218 170.721 214.172 172.431C214.085 174.774 213.913 177.115 213.925 179.461C213.849 180.428 213.883 181.396 213.933 182.364C213.9 183.933 214.003 185.499 214.142 187.061C214.146 188.068 214.298 189.062 214.416 190.06C214.455 190.529 214.494 190.998 214.533 191.466L216.666 191.2H216.666Z" fill="black"/>
<path d="M247.066 99.7333C247.625 100.07 248.196 100.382 248.815 100.593C249.458 100.866 250.073 101.208 250.758 101.37C251.517 101.608 252.293 101.787 253.088 101.846C253.885 101.933 254.686 101.945 255.485 101.873C256.323 101.813 257.155 101.702 257.971 101.501C258.908 101.242 259.808 100.865 260.686 100.451C261.585 100.012 262.464 99.5327 263.293 98.9708C264.006 98.512 264.661 97.9648 265.322 97.4353L266.666 96.2666C265.935 97.1206 265.235 98.0081 264.443 98.8049C263.713 99.4303 263.017 100.102 262.259 100.691C261.19 101.419 260.042 102.023 258.893 102.613C258.155 102.88 257.404 103.1 256.631 103.245C255.795 103.409 254.95 103.511 254.097 103.528C252.87 103.445 251.64 103.276 250.452 102.946C249.725 102.748 249.035 102.424 248.342 102.127C248.057 101.975 247.693 101.885 247.458 101.692C247.328 101.039 247.197 100.386 247.066 99.7333V99.7333Z" fill="black"/>
<path d="M291.2 75.7333L289.267 76.2L287.533 76.7333L286 77.4667L284.6 78.3333L283.467 79.4667L282.533 80.7333L281.8 82.2667L281.333 84L281.467 82.1333L281.933 80.4667L282.733 79L283.8 77.7333L285.133 76.6667L286.733 75.6667L288.467 74.8L290.4 74L291.2 75.7333V75.7333Z" fill="black"/>
<path d="M293.733 96.5331C293.02 96.3664 292.291 96.2575 291.6 96.0089C291.046 95.8428 290.5 95.655 289.969 95.4273C289.318 95.1808 288.694 94.8692 288.071 94.5619C287.657 94.2951 287.216 94.0678 286.82 93.7748C286.35 93.3848 285.852 93.0249 285.438 92.5717C285.101 92.2423 284.767 91.9092 284.485 91.53C284.323 91.331 284.161 91.1321 284 90.9331C284.235 91.3841 284.425 91.8623 284.742 92.2646C285.09 92.7845 285.482 93.2748 285.882 93.7552C286.279 94.1748 286.649 94.6221 287.106 94.9804C287.685 95.5008 288.308 95.9694 288.927 96.4394C289.589 96.8674 290.24 97.3145 290.938 97.6835L293.733 96.5331Z" fill="black"/>
<path d="M306.267 92.9334C307.405 92.7515 308.483 92.3266 309.574 91.9704C311.049 91.3662 312.488 90.6451 313.8 89.7334C314.386 89.085 315.173 88.6056 315.516 87.7682C315.993 86.9635 315.817 85.8567 315.107 85.2458C313.74 84.0396 312.214 83.018 310.583 82.2014C308.29 81.0794 305.834 80.2991 303.322 79.8451C301.617 79.5005 299.867 79.4512 298.135 79.3354C296.326 79.3719 294.503 79.4608 292.743 79.9122C291.533 80.1905 290.354 80.5917 289.245 81.1542C288.378 81.6122 287.524 82.1241 286.825 82.822C286.278 83.2271 286.485 83.2131 287.021 83.016C289.286 82.3149 291.636 81.9104 293.988 81.638C296.66 81.4155 299.359 81.3581 302.017 81.7688C304.19 82.125 306.359 82.7268 308.272 83.8427C309.488 84.6078 310.727 85.4574 311.447 86.7359C311.827 87.2453 312.072 87.8503 312.191 88.4642C312.122 88.9238 312.132 89.4154 311.762 89.7525C311.202 90.5062 310.334 90.9543 309.524 91.3978C308.463 91.9637 307.371 92.4605 306.267 92.9334H306.267Z" fill="black"/>
<path d="M264.533 76.7998C263.991 76.7307 263.45 76.6559 262.932 76.4757C262.202 76.254 261.495 75.9514 260.821 75.5972C259.514 74.7994 258.214 73.9907 256.921 73.1718C256.087 72.6676 255.241 72.1738 254.357 71.7623C253.749 71.4992 253.134 71.2424 252.502 71.0482C251.769 70.9191 251.038 70.7549 250.301 70.6665H249.2C250.068 71.0073 250.893 71.4449 251.676 71.9492C252.599 72.5509 253.52 73.1577 254.425 73.7856C255.42 74.5883 256.58 75.1407 257.697 75.7462C258.267 76.0063 258.848 76.2329 259.452 76.3996C260.088 76.5796 260.728 76.7659 261.391 76.8062C262.154 76.9078 262.928 76.8691 263.695 76.8398C263.974 76.8265 264.254 76.8132 264.533 76.7999V76.7998Z" fill="black"/>
<path d="M260.4 76.6663C259.968 76.8941 259.548 77.1479 259.09 77.3227C258.818 77.4419 258.548 77.566 258.255 77.6249C257.921 77.7106 257.592 77.8225 257.246 77.8439C256.779 77.9101 256.31 77.9557 255.839 77.9764C255.101 78.016 254.364 78.0817 253.624 78.0663C253.037 78.0806 252.452 78.0283 251.866 77.9996C252.556 77.8536 253.245 77.7009 253.943 77.5981C254.484 77.52 255.007 77.3576 255.538 77.2295C255.845 77.1395 256.164 77.0787 256.465 76.9701C256.799 76.8136 257.148 76.6833 257.451 76.4677C257.569 76.3953 257.698 76.334 257.756 76.1994C257.807 76.0973 257.918 76.0089 257.928 75.8977C257.908 75.7539 257.887 75.6101 257.866 75.4663C258.099 75.5462 258.316 75.6573 258.521 75.7924C258.737 75.8763 258.95 75.9657 259.142 76.0982C259.446 76.2801 259.789 76.3782 260.1 76.5462C260.2 76.5862 260.3 76.6263 260.4 76.6663H260.4Z" fill="black"/>
<path d="M253.8 77.3332C255.089 77.3332 256.133 76.2885 256.133 74.9998C256.133 73.7112 255.089 72.6665 253.8 72.6665C252.511 72.6665 251.467 73.7112 251.467 74.9998C251.467 76.2885 252.511 77.3332 253.8 77.3332Z" fill="black"/>
<path d="M217.067 84.1332C219.508 84.9333 222.012 85.5143 224.536 85.987C227.093 86.5513 229.72 86.6782 232.286 87.1973C233.7 87.4723 235.133 87.6812 236.525 88.0509C237.994 88.4682 239.453 88.962 240.759 89.7684C241.142 89.9987 240.472 89.4873 240.353 89.3637C239.584 88.6892 238.726 88.1182 237.803 87.6754C236.885 87.2003 235.928 86.8077 234.932 86.5297C233.063 85.9245 231.151 85.4664 229.231 85.0593C227.705 84.7565 226.196 84.3762 224.667 84.0872C222.039 83.4971 219.404 82.8748 216.913 81.8296L217.067 84.1332Z" fill="black"/>
<path d="M253.666 74.6666C254.365 74.6666 254.932 74.0995 254.932 73.4C254.932 72.7004 254.365 72.1333 253.666 72.1333C252.966 72.1333 252.399 72.7004 252.399 73.4C252.399 74.0995 252.966 74.6666 253.666 74.6666Z" fill="#E81C35"/>
</g>
<defs>
<clipPath id="clip0_1_1445">
<rect width="600" height="400" fill="white"/>
</clipPath>
</defs>
</svg>
