<svg width="600" height="400" viewBox="0 0 600 400" fill="none" xmlns="http://www.w3.org/2000/svg" xmlns:cgf="https://coding.garden/flags"><metadata id="cgf-metadata">

<cgf:flag>
  <cgf:name>Sudwest-Fryslan</cgf:name>
  <cgf:route>nl/fl/sudwest_fryslan</cgf:route>
  <cgf:aspect-ratio>1.5</cgf:aspect-ratio>
</cgf:flag>

</metadata><g clip-path="url(#clip0_1_2279)">
<path d="M600 0H0V400H600V0Z" fill="white"/>
<path fill-rule="evenodd" clip-rule="evenodd" d="M233.885 127.538C233.885 181.194 183.834 224.69 122.092 224.69C60.3503 224.69 10.2989 181.194 10.2989 127.538C10.2989 73.8827 60.3503 30.3862 122.092 30.3862C183.834 30.3862 233.885 73.8827 233.885 127.538V127.538Z" fill="#BF0043"/>
<path d="M221.515 23.1748H121.176V79.4629H221.515V23.1748Z" fill="white"/>
<path d="M121.799 176.289H21.4596V232.577H121.799V176.289Z" fill="white"/>
<path d="M237.53 79.499H459.128V224.258C424.446 224.258 403.728 198.501 403.728 178.649V224.258C294.547 224.258 237.599 142.236 237.53 79.499V79.499Z" fill="#01B1ED"/>
<path fill-rule="evenodd" clip-rule="evenodd" d="M580.618 77.0955C580.618 102.986 556.105 123.975 525.867 123.975C495.628 123.975 471.115 102.986 471.115 77.0955C471.115 51.2046 495.628 30.2158 525.867 30.2158C556.105 30.2158 580.618 51.2046 580.618 77.0955V77.0955Z" fill="#91C612"/>
<path d="M582.322 23.7759H526.197V79.4992H582.322V23.7759Z" fill="white"/>
<path d="M580.618 79.499H471.192V127.091H580.618V79.499Z" fill="#91C612"/>
<path fill-rule="evenodd" clip-rule="evenodd" d="M580.622 177.352C580.622 203.243 556.109 224.232 525.871 224.232C495.632 224.232 471.119 203.243 471.119 177.352C471.119 151.461 495.632 130.473 525.871 130.473C556.109 130.473 580.622 151.461 580.622 177.352V177.352Z" fill="#91C612"/>
<path d="M580.861 127.025H525.87V230.423H580.861V127.025Z" fill="white"/>
<path d="M525.867 79.499H471.188V179.782H525.867V79.499Z" fill="#91C612"/>
<path d="M420.319 351.44C419.544 351.287 418.91 351.059 418.91 350.934C418.91 350.809 418.755 349.661 418.565 348.383C418.376 347.105 418.26 346.026 418.307 345.987C418.355 345.947 418.923 346.01 419.571 346.125C420.218 346.241 421.594 346.306 422.627 346.27C424.289 346.212 424.62 346.138 425.484 345.632C426.572 344.995 427.475 343.673 428.562 341.127L429.203 339.622L422.761 325.58C419.217 317.856 416.255 311.594 416.178 311.664C416.101 311.733 415.605 312.763 415.076 313.953C414.547 315.142 414.08 316.149 414.038 316.19C413.996 316.231 413.329 316.028 412.556 315.738C411.47 315.331 410.792 315.209 409.565 315.198C406.327 315.169 404.457 316.716 403.451 320.256C403.14 321.353 403.061 323.08 402.973 330.737L402.868 339.904H399.62H396.372V325.048V310.192H399.414H402.457V311.928V313.664L403.05 312.915C404.067 311.632 405.636 310.418 406.831 309.989C409.098 309.175 411.864 309.344 414.652 310.466C416.078 311.04 416.046 311.037 415.868 310.568C415.729 310.202 415.827 310.192 419.297 310.192H422.87L427.181 320.112C429.551 325.568 431.715 330.666 431.989 331.442L432.487 332.852L433.803 329.561C434.527 327.751 436.723 322.674 438.684 318.278L442.249 310.286L445.596 310.233C448.71 310.185 448.935 310.205 448.834 310.516C448.631 311.143 435.101 340.93 433.862 343.477C432.485 346.308 431.694 347.548 430.38 348.935C428.111 351.33 424.415 352.25 420.319 351.44V351.44ZM58.8566 341.858C54.7288 341.242 51.3062 340.099 51.3062 339.336C51.3062 339.103 52.5526 335.964 53.9121 332.774C53.9903 332.59 54.392 332.828 55.2108 333.545C56.5491 334.716 58.311 335.502 61.1135 336.178C62.6202 336.542 63.428 336.611 66.069 336.606C70.785 336.597 73.5405 335.855 75.7744 333.992C77.4492 332.595 78.2226 331.142 78.2322 329.373C78.2443 327.117 77.756 326.682 71.4369 323.317C64.2862 319.509 62.3501 317.573 62.3501 314.231C62.3501 312.679 63.0575 310.461 64.0603 308.869C66.7803 304.55 72.657 301.277 79.7607 300.126C82.1666 299.736 88.3299 299.725 90.9116 300.107C92.8786 300.398 95.1834 301.164 95.3805 301.592C95.4736 301.795 93.1498 307.832 92.8781 308.093C92.8416 308.129 92.2715 307.821 91.6112 307.41C90.9509 306.999 90.1019 306.533 89.7245 306.374C87.6871 305.516 82.7861 305.073 79.7401 305.471C77.5709 305.755 74.9125 306.627 73.5068 307.517C71.2452 308.949 69.6958 311.707 70.2272 313.354C70.7449 314.958 71.4482 315.45 78.611 319.219C81.7323 320.861 84.1898 322.876 85.1632 324.591C85.8684 325.834 85.9025 325.996 85.8942 328.057C85.8851 330.041 85.8255 330.344 85.1651 331.724C82.4824 337.329 76.313 340.982 67.8795 341.961C65.5148 342.235 61.0398 342.184 58.8566 341.859V341.858ZM97.55 341.972C94.9669 341.516 92.927 340.298 91.9419 338.622C91.3556 337.625 91.314 337.397 91.317 335.203C91.317 332.288 91.2379 332.541 96.092 320.77L99.8341 311.696H103.293C105.195 311.696 106.751 311.771 106.751 311.862C106.751 311.953 105.077 316.073 103.031 321.017C100.985 325.961 99.1464 330.682 98.946 331.507C98.1257 334.885 99.2564 336.673 102.424 337.006C107.126 337.501 112.439 334.678 114.999 330.323C115.336 329.749 117.214 325.406 119.172 320.673C121.13 315.939 122.793 311.983 122.868 311.881C122.948 311.773 124.452 311.696 126.501 311.696C129.731 311.696 129.986 311.721 129.861 312.025C129.786 312.206 127.014 318.913 123.7 326.929L117.675 341.503L114.129 341.555C112.178 341.583 110.583 341.575 110.583 341.537C110.583 341.499 110.786 340.975 111.034 340.373C111.282 339.771 111.441 339.241 111.387 339.196C111.333 339.151 110.952 339.32 110.541 339.572C109.205 340.392 107.751 341.008 105.937 341.522C104.459 341.942 103.685 342.036 101.342 342.085C99.7923 342.117 98.086 342.066 97.55 341.972V341.972ZM136.336 341.871C133.545 341.244 131.495 339.91 130.365 337.984C129.523 336.548 129.301 335.599 129.299 333.417C129.29 326.827 134.63 318.541 141.461 314.534C145.732 312.028 149.656 311.007 154.36 311.176C157.721 311.297 159.12 311.732 160.891 313.21L162.182 314.287L162.603 313.321C162.835 312.789 164.334 309.161 165.935 305.257L168.845 298.159H172.387H175.929L174.01 302.814C172.955 305.374 168.927 315.127 165.059 324.487L158.026 341.506L154.488 341.558L150.95 341.61L151.502 340.256C151.805 339.511 152.054 338.842 152.054 338.769C152.054 338.696 151.234 339.086 150.232 339.636C148.304 340.694 145.565 341.623 143.375 341.961C141.556 342.241 137.762 342.195 136.336 341.874V341.871ZM145.463 336.801C149.297 336.046 153.211 333.414 155.387 330.126C156.202 328.894 158.489 323.506 158.818 322.039C159.509 318.965 157.251 316.534 153.457 316.269C147.484 315.851 141.767 319.482 138.537 325.744C136.57 329.558 136.206 332.786 137.518 334.796C138.816 336.786 141.761 337.529 145.463 336.801V336.801ZM226.663 341.773C222.913 340.954 220.459 338.949 219.537 335.951C219.249 335.015 219.19 334.232 219.282 332.57C219.799 323.217 228.35 313.998 238.747 311.583C239.473 311.415 241.284 311.236 242.771 311.186C247.186 311.038 249.754 311.748 251.904 313.71C253.394 315.071 253.958 316.369 254.098 318.764C254.231 321.042 253.862 322.785 252.535 326.129L251.621 328.433H239.395H227.169L226.913 329.499C226.471 331.336 226.584 333.279 227.198 334.379C228.236 336.24 230.056 336.956 233.756 336.96C238.056 336.966 240.947 336.141 246.656 333.284L247.384 332.919L246.092 336.083L244.8 339.246L243.109 339.955C239.57 341.439 235.574 342.166 231.051 342.15C229.123 342.144 227.864 342.035 226.663 341.773V341.773ZM246.696 322.462C247.616 319.553 246.922 317.544 244.708 316.714C243.293 316.184 240.376 316.2 238.53 316.749C235.724 317.583 232.716 319.538 230.808 321.768C230.26 322.409 229.812 322.986 229.812 323.05C229.812 323.115 233.56 323.168 238.142 323.168H246.473L246.696 322.462V322.462ZM256.411 341.867C254.702 341.558 253.507 341.184 252.188 340.545L251.238 340.084L252.499 337.032C253.193 335.354 253.796 333.948 253.839 333.907C253.882 333.866 254.501 334.235 255.216 334.725C256.745 335.776 257.667 336.192 259.344 336.589C263.657 337.609 268.704 336.766 270.368 334.749C271.215 333.722 271.617 332.457 271.311 331.785C270.976 331.05 269.838 330.415 266.153 328.906C260.907 326.757 259.402 325.505 259.17 323.1C258.692 318.134 263.912 313.361 271.733 311.612C273.835 311.142 278.823 311.015 280.862 311.379C282.357 311.646 284.595 312.276 285.194 312.598C285.399 312.709 285.168 313.472 284.284 315.598C283.632 317.166 283.038 318.499 282.964 318.561C282.89 318.623 282.24 318.329 281.52 317.908C276.49 314.967 268.23 316.183 266.879 320.062C266.257 321.848 266.87 322.369 272.184 324.539C274.982 325.683 275.665 326.053 276.928 327.107C278.597 328.5 278.948 329.196 278.941 331.088C278.932 332.651 278.139 334.533 276.785 336.187C274.559 338.905 270.444 340.962 265.54 341.806C263.086 342.229 258.578 342.259 256.411 341.867V341.867ZM290.969 341.977C288.881 341.607 287.185 340.467 286.578 339.027C286.408 338.625 286.286 337.641 286.3 336.802C286.329 335.153 286.607 334.391 291.533 322.462L293.804 316.962H290.883C289.267 316.962 287.961 316.885 287.961 316.79C287.961 316.695 288.43 315.51 289.002 314.157L290.044 311.696H293.029H296.015L297.291 308.546C297.993 306.814 298.65 305.285 298.752 305.149C298.881 304.977 306.054 303.053 306.594 303.046C306.633 303.046 303.461 310.755 303.17 311.367C303.024 311.674 303.31 311.696 307.32 311.696C309.689 311.696 311.627 311.764 311.627 311.846C311.627 311.993 310.03 315.983 309.711 316.633C309.566 316.93 309.132 316.962 305.21 316.962H300.87L297.375 325.471C295.453 330.151 293.816 334.362 293.738 334.827C293.549 335.959 293.933 336.547 295.067 336.862C296.421 337.238 298.094 336.99 300.074 336.119C301.005 335.71 301.808 335.411 301.859 335.453C301.91 335.496 301.416 336.79 300.76 338.329L299.569 341.127L297.991 341.575C296.248 342.07 292.656 342.276 290.969 341.977V341.977ZM173.54 339.016C173.618 337.591 173.89 331.39 174.143 325.236C174.395 319.082 174.659 313.518 174.728 312.871L174.853 311.696H178.457H182.061L181.923 313.154C181.672 315.816 180.452 332.821 180.509 332.865C180.539 332.889 184.318 328.138 188.904 322.306L197.243 311.705L200.36 311.698L203.477 311.692L203.344 312.867C203.087 315.126 201.836 332.403 201.915 332.6C201.959 332.71 205.532 328.05 209.856 322.245L217.718 311.692H221.286C223.248 311.692 224.853 311.74 224.853 311.8C224.853 311.859 219.657 318.587 213.306 326.75L201.76 341.593H198.431H195.102V340.417C195.102 339.771 195.354 335.226 195.658 330.318C195.962 325.41 196.179 321.369 196.142 321.337C196.103 321.306 192.471 325.829 188.07 331.389L180.068 341.499L176.731 341.551L173.395 341.603L173.538 339.012L173.54 339.016ZM464.213 340.449C458.372 340.119 454.39 338.152 452.382 334.605C451.568 333.167 450.779 330.928 451.017 330.73C451.092 330.667 452.546 330.436 454.247 330.217C457.415 329.808 457.666 329.832 457.673 330.542C457.673 330.719 457.894 331.349 458.16 331.943C458.763 333.286 460.264 334.658 461.691 335.17C465.096 336.392 470.103 336.089 472.288 334.529C474.772 332.755 474.742 330.241 472.223 329.062C471.368 328.661 470.609 328.466 462.928 326.673C456.697 325.218 454.375 324.024 452.894 321.514C452.277 320.468 452.159 320.039 452.081 318.552C452.013 317.249 452.09 316.56 452.38 315.806C453.519 312.866 456.374 310.84 460.719 309.887C463.048 309.377 468.383 309.425 470.862 309.979C474.749 310.848 477.002 312.185 478.291 314.388C479.146 315.85 479.867 317.902 479.595 318.102C479.453 318.206 474.212 318.842 473.495 318.842C473.366 318.842 473.091 318.356 472.883 317.761C472.593 316.927 472.241 316.458 471.346 315.711C469.747 314.376 468.454 314.069 464.888 314.175C462.526 314.245 462.118 314.311 460.924 314.808C458.051 316.006 457.597 318.351 459.96 319.779C460.558 320.14 462.09 320.588 465.049 321.267C474.773 323.497 477.417 324.416 479.046 326.132C481.256 328.46 481.584 331.781 479.898 334.755C477.574 338.852 471.97 340.887 464.213 340.449H464.213ZM511.093 340.455C506.486 340.128 503.236 338.415 501.562 335.43C500.193 332.99 500.494 329.664 502.293 327.342C503.398 325.916 504.723 324.991 506.923 324.11C508.983 323.286 510.669 322.956 515.601 322.414C518.996 322.041 522.63 321.496 524.456 321.086L525.353 320.884L525.241 319.25C525.065 316.674 524.158 315.559 521.521 314.678C520.367 314.293 519.855 314.245 516.953 314.253C513.493 314.262 512.493 314.439 511.051 315.296C510.19 315.807 509.191 317.106 508.575 318.515C508.217 319.334 507.995 319.596 507.657 319.596C506.593 319.596 501.627 318.961 501.627 318.825C501.627 318.743 501.877 318.015 502.182 317.208C502.77 315.655 503.962 313.835 504.966 312.955C506.709 311.428 510.136 310.176 513.892 309.695C516.583 309.35 521.459 309.453 523.657 309.902C526.807 310.544 529.402 311.952 530.585 313.662C531.851 315.49 531.88 315.735 532.059 326.084C532.243 336.815 532.238 336.781 534.035 339.765C534.082 339.843 532.534 339.906 530.596 339.906H527.072L526.759 339.279C526.586 338.935 526.323 338.237 526.173 337.728C526.024 337.219 525.877 336.777 525.846 336.744C525.814 336.712 525.103 337.077 524.265 337.556C521.301 339.249 518.458 340.181 515.652 340.38C514.818 340.439 513.882 340.511 513.572 340.539C513.262 340.568 512.147 340.53 511.093 340.455V340.455ZM517.215 335.873C522.65 334.912 525.284 331.945 525.291 326.777C525.291 325.553 525.249 325.412 524.898 325.5C522.833 326.02 520.487 326.45 517.066 326.937C514.834 327.254 512.429 327.646 511.722 327.809C509.47 328.325 507.728 329.989 507.718 331.632C507.699 335.001 511.797 336.831 517.215 335.873V335.873ZM355.802 319.408V298.91H372.593H389.385V301.637V304.364H376.087H362.789V310.287V316.211H374.284H385.779V318.842V321.473L374.34 321.522L362.902 321.572L362.844 330.739L362.785 339.907H359.294H355.803V319.409L355.802 319.408ZM487.428 319.408V298.91H490.696H493.964V319.408V339.906H490.696H487.428V319.408ZM540.619 325.05V310.193H543.661H546.704V311.909V313.624L548.227 312.426C550.984 310.258 554.458 309.283 558.645 309.502C563.322 309.747 566.882 311.336 568.513 313.907C570.05 316.329 570.001 315.877 570.091 328.482L570.173 339.906H566.788H563.403L563.336 329.14L563.269 318.374L562.593 317.246C561.8 315.922 560.538 315.042 558.824 314.618C555.159 313.709 550.461 315.083 548.866 317.528C547.53 319.576 547.53 319.584 547.438 330.174L547.354 339.906H543.986H540.618V325.05H540.619ZM322.72 324.721L322.783 322.511H332.024H341.265L341.328 324.721L341.392 326.93H332.024H322.656L322.72 324.721H322.72ZM113.932 306.009C115.746 304.535 118.607 302.206 120.289 300.833L123.348 298.337L127.371 298.389L131.394 298.44L124.313 303.556L117.232 308.672L113.932 308.681L110.632 308.689L113.932 306.01V306.009ZM510.022 302.859L513.886 298.722H517.211H520.536L524.337 302.624C526.428 304.77 528.214 306.632 528.307 306.761C528.438 306.946 527.657 306.996 524.686 306.992L520.897 306.986L519.176 304.808L517.454 302.631L515.682 304.805L513.91 306.979L510.034 306.987L506.158 306.995L510.022 302.857V302.859ZM60.9978 287.707C59.0125 287.272 56.6599 286.212 55.421 285.194C53.0414 283.24 51.8873 280.681 51.8965 277.378C51.9139 270.978 56.0513 266.983 63.2016 266.463C68.1012 266.106 72.3441 267.803 73.9716 270.769C74.8956 272.453 74.8517 272.58 73.2125 272.972C71.8856 273.289 71.7831 273.29 71.6668 272.994C70.5617 270.177 68.256 268.846 64.455 268.83C59.1375 268.807 55.9336 271.326 55.3781 275.965C54.9508 279.533 56.1617 282.554 58.6065 284.019C60.4336 285.114 61.7517 285.442 64.3786 285.454C67.0292 285.466 68.8543 285.066 70.7702 284.052L71.8164 283.498V281.524V279.55L68.1538 279.498L64.4913 279.447L64.4243 278.271L64.3574 277.096H69.7774H75.1975V280.935V284.774L74.2395 285.367C72.8364 286.236 69.8904 287.381 68.2104 287.711C66.3767 288.07 62.6463 288.068 60.9981 287.704L60.9978 287.707ZM84.5024 287.741C81.2331 286.853 79.3394 284.872 78.7846 281.76C78.4573 279.924 78.7937 277.676 79.6247 276.129C80.4896 274.521 82.3965 273.093 84.3535 272.589C90.3906 271.033 95.4818 274.402 95.4818 279.952V280.857H88.6383H81.7948L82.0078 281.835C82.2918 283.139 82.867 284.034 83.9414 284.844C85.1014 285.718 86.1965 286.007 87.8666 285.881C89.5551 285.753 90.735 285.127 91.5652 283.917C91.904 283.424 92.2093 282.988 92.2436 282.95C92.2775 282.911 92.9698 282.94 93.7812 283.012C95.4776 283.164 95.528 283.249 94.7119 284.578C93.9987 285.74 92.4917 286.941 91.0868 287.468C89.6794 287.996 86.002 288.148 84.5024 287.741V287.741ZM92.1011 278.199C92.1011 277.311 91.5062 276.216 90.6216 275.477C88.3429 273.573 84.3426 274.088 82.8147 276.482C82.5001 276.975 82.1813 277.653 82.1063 277.989L81.9699 278.601H87.0355C92.0568 278.601 92.1011 278.594 92.1011 278.199V278.199ZM133.528 287.752C130.726 287.092 128.526 284.978 127.941 282.383C126.725 276.998 129.896 272.645 135.31 272.267C140.576 271.899 144.235 274.776 144.444 279.447L144.503 280.763L137.666 280.813L130.829 280.863L130.986 281.659C131.352 283.511 132.429 284.83 134.109 285.483C136.737 286.504 139.518 285.726 140.825 283.607L141.274 282.877L142.769 283.005C143.591 283.075 144.302 283.165 144.35 283.205C144.551 283.373 143.251 285.381 142.481 286.092C141.132 287.338 139.524 287.865 136.84 287.939C135.426 287.978 134.192 287.908 133.528 287.752L133.528 287.752ZM141.235 278.353C141.235 277.64 140.485 276.164 139.846 275.619C138.722 274.659 137.921 274.382 136.277 274.383C134.693 274.383 133.435 274.797 132.515 275.62C131.904 276.167 131.104 277.61 131.098 278.177L131.089 278.601H136.16C140.207 278.601 141.231 278.55 141.231 278.353H141.235ZM152.8 287.624C150.137 286.9 148.136 284.857 147.567 282.28C146.628 278.028 148.479 274.27 152.235 272.804C153.357 272.366 153.803 272.303 155.772 272.303C157.735 272.303 158.19 272.367 159.293 272.797C162.052 273.875 163.58 275.76 164.045 278.664C164.184 279.53 164.234 280.378 164.156 280.548C164.028 280.825 163.317 280.857 157.227 280.857H150.44L150.589 281.468C151.144 283.741 151.887 284.704 153.655 285.439C156.273 286.528 159.105 285.762 160.433 283.607L160.883 282.877L162.377 283.005C163.199 283.075 163.911 283.166 163.959 283.206C164.007 283.246 163.867 283.671 163.648 284.151C163.09 285.37 161.521 286.755 159.991 287.38C158.25 288.09 154.931 288.203 152.8 287.624V287.624ZM160.748 277.801C160.524 276.631 159.628 275.486 158.509 274.939C155.342 273.39 151.532 274.898 150.79 277.994L150.645 278.601H155.773H160.901L160.748 277.801ZM191.363 287.793C189.936 287.647 189.174 287.241 188.647 286.347C188.286 285.735 188.228 284.991 188.154 280.058L188.071 274.463H186.966H185.862V273.523V272.583H186.981H188.1L188.164 270.67L188.228 268.758L189.581 268.051C190.324 267.662 191.009 267.338 191.102 267.33C191.195 267.323 191.271 268.502 191.271 269.95V272.583H192.849H194.426V273.523V274.463H192.849H191.271V279.549V284.635L191.852 285.12C192.347 285.533 192.577 285.591 193.417 285.512L194.401 285.419L194.56 286.476C194.647 287.058 194.728 287.576 194.741 287.627C194.784 287.8 192.524 287.911 191.364 287.793H191.363ZM201.931 287.663C199.596 286.969 198.312 285.961 197.211 283.953C196.699 283.021 196.58 282.501 196.498 280.845C196.443 279.735 196.512 278.419 196.654 277.868C197.253 275.537 198.903 273.767 201.374 272.802C202.49 272.366 202.94 272.303 204.907 272.302C206.917 272.302 207.298 272.357 208.437 272.824C211.486 274.073 213.133 276.498 213.133 279.738V280.857H206.372H199.61V281.306C199.61 283.012 201.559 285.314 203.356 285.73C204.652 286.03 206.141 285.971 207.176 285.579C208.157 285.207 209.459 284.044 209.672 283.349C209.813 282.887 210.041 282.856 211.938 283.046L213.109 283.164L212.687 284.09C212.037 285.518 210.858 286.579 209.14 287.285C207.791 287.839 207.406 287.908 205.37 287.957C203.61 288 202.841 287.934 201.931 287.663V287.663ZM209.86 277.989C209.135 275.102 206.303 273.648 203.189 274.565C201.451 275.077 199.853 276.756 199.84 278.083L199.831 278.601H204.92H210.009L209.856 277.989H209.86ZM99.3133 280.105V272.583H100.666H102.018V273.545V274.507L102.909 273.835C104.52 272.621 105.499 272.305 107.653 272.305C110.27 272.305 111.225 272.74 112.766 274.631C112.799 274.672 113.23 274.358 113.724 273.934C114.903 272.92 116.229 272.375 117.808 272.256C120.461 272.055 122.685 272.997 123.57 274.694C123.943 275.411 123.996 276.15 124.061 281.562L124.134 287.627H122.542H120.951V282.074C120.951 275.902 120.876 275.516 119.556 274.844C118.678 274.398 117.009 274.339 115.925 274.717C114.962 275.053 113.821 276.16 113.526 277.044C113.389 277.456 113.289 279.826 113.289 282.691V287.627H111.711H110.133L110.12 282.127C110.111 278.38 110.022 276.418 109.839 275.974C109.085 274.148 105.85 273.927 103.761 275.559C102.644 276.43 102.47 277.402 102.47 282.772V287.627H100.892H99.3145V280.105H99.3133ZM168.056 280.105V272.583H169.408H170.761V273.618V274.652L171.551 273.922C173.091 272.5 176.207 271.861 178.68 272.461C180.531 272.91 181.374 273.463 182.13 274.725L182.793 275.833L182.891 281.73L182.989 287.627H181.383H179.776V282.503C179.776 279.392 179.678 277.083 179.529 276.626C179.068 275.215 177.801 274.461 175.901 274.467C173.838 274.475 172.323 275.286 171.514 276.817C171.178 277.455 171.105 278.316 171.031 282.597L170.944 287.627H169.501H168.057V280.105H168.056Z" fill="black"/>
</g>
<defs>
<clipPath id="clip0_1_2279">
<rect width="600" height="400" fill="white"/>
</clipPath>
</defs>
</svg>
