<svg width="600" height="400" viewBox="0 0 600 400" fill="none" xmlns="http://www.w3.org/2000/svg" xmlns:cgf="https://coding.garden/flags"><metadata id="cgf-metadata">

<cgf:flag>
  <cgf:name>Tietjerksteradeel</cgf:name>
  <cgf:route>nl/fl/tietjerksteradeel</cgf:route>
  <cgf:aspect-ratio>1.5</cgf:aspect-ratio>
</cgf:flag>

</metadata><g clip-path="url(#clip0_1_1478)">
<path d="M300 0H600L300 200V0Z" fill="#CC112F"/>
<path d="M0 0L300 200H0V0Z" fill="#CC112F"/>
<path d="M300 200V400H600L300 200Z" fill="white"/>
<path d="M0 0H300V200L0 0Z" fill="white"/>
<path d="M0 200V400L300 200H0Z" fill="white"/>
<path d="M600 400V200H300L600 400Z" fill="#CC112F"/>
<path d="M0 400H300V200L0 400Z" fill="#CC112F"/>
<path d="M600 0V200H300L600 0Z" fill="white"/>
<path d="M230.533 119.733V212.4L230.6 215.933L230.867 219.467L231.333 222.933L231.933 226.4L232.733 229.733L233.667 233L234.733 236.267L236 239.4L237.4 242.467L238.933 245.467L240.6 248.4L242.4 251.2L244.333 253.933L246.4 256.533L248.6 259.067L250.933 261.467L253.333 263.8L255.867 266L258.467 268.067L261.2 270L264 271.8L266.933 273.467L269.933 275L273 276.4L276.133 277.667L279.4 278.733L282.667 279.667L286 280.467L289.467 281.067L292.933 281.533L296.467 281.8L300 281.867L303.533 281.8L307.067 281.533L310.533 281.067L314 280.467L317.333 279.667L320.6 278.733L323.867 277.667L327 276.4L330.067 275L333.067 273.467L336 271.8L338.8 270L341.533 268.067L344.133 266L346.667 263.8L349.067 261.467L351.4 259.067L353.6 256.533L355.667 253.933L357.6 251.2L359.4 248.4L361.067 245.467L362.6 242.467L364 239.4L365.267 236.267L366.333 233L367.267 229.733L368.067 226.4L368.667 222.933L369.133 219.467L369.4 215.933L369.467 212.4V119.733H230.533Z" fill="#00A0E0"/>
<path d="M231.6 212.4V119.733H229.467V212.4L229.533 212.867L229.8 213.2L230.133 213.4L230.533 213.467L230.933 213.4L231.267 213.2L231.533 212.867L231.6 212.4Z" fill="black"/>
<path d="M300 280.8L296.533 280.733L293.067 280.467L289.6 280L286.2 279.4L282.933 278.667L279.733 277.733L276.533 276.667L273.4 275.4L270.4 274.067L267.467 272.533L264.533 270.867L261.8 269.133L259.133 267.2L256.533 265.2L254.067 263L251.667 260.733L249.4 258.333L247.2 255.867L245.2 253.267L243.267 250.6L241.533 247.867L239.867 244.933L238.333 242L237 239L235.733 235.867L234.667 232.667L233.733 229.467L233 226.2L232.4 222.8L231.933 219.333L231.667 215.867L231.6 212.4H229.467L229.533 216L229.8 219.6L230.267 223.067L230.867 226.6L231.733 230L232.667 233.333L233.733 236.667L235 239.8L236.467 242.933L238 246L239.667 248.933L241.533 251.8L243.467 254.6L245.6 257.2L247.8 259.8L250.2 262.2L252.6 264.6L255.2 266.8L257.8 268.933L260.6 270.867L263.467 272.733L266.4 274.4L269.467 275.933L272.6 277.4L275.733 278.667L279.067 279.733L282.4 280.667L285.8 281.533L289.333 282.133L292.8 282.6L296.4 282.867L300 282.933L300.467 282.867L300.8 282.6L301 282.267L301.067 281.867L301 281.467L300.8 281.133L300.467 280.867L300 280.8Z" fill="black"/>
<path d="M368.4 212.4L368.333 215.867L368.067 219.333L367.6 222.8L367 226.2L366.267 229.467L365.333 232.667L364.267 235.867L363 239L361.667 242L360.133 244.933L358.467 247.867L356.733 250.6L354.8 253.267L352.8 255.867L350.6 258.333L348.333 260.733L345.933 263L343.467 265.2L340.867 267.2L338.2 269.133L335.467 270.867L332.533 272.533L329.6 274.067L326.6 275.4L323.467 276.667L320.267 277.733L317.067 278.667L313.8 279.4L310.4 280L306.933 280.467L303.467 280.733L300 280.8V282.933L303.6 282.867L307.2 282.6L310.667 282.133L314.2 281.533L317.6 280.667L320.933 279.733L324.267 278.667L327.4 277.4L330.533 275.933L333.6 274.4L336.533 272.733L339.4 270.867L342.2 268.933L344.8 266.8L347.4 264.6L349.8 262.2L352.2 259.8L354.4 257.2L356.533 254.6L358.467 251.8L360.333 248.933L362 246L363.533 242.933L365 239.8L366.267 236.667L367.333 233.333L368.267 230L369.133 226.6L369.733 223.067L370.2 219.6L370.467 216L370.533 212.4L370.467 211.933L370.2 211.6L369.867 211.4L369.467 211.333L369.067 211.4L368.733 211.6L368.467 211.933L368.4 212.4Z" fill="black"/>
<path d="M369.467 120.8L368.4 119.733V212.4H370.533V119.733L369.467 118.667L370.533 119.733L370.467 119.267L370.2 118.933L369.867 118.733L369.467 118.667L369.067 118.733L368.733 118.933L368.467 119.267L368.4 119.733L369.467 120.8Z" fill="black"/>
<path d="M231.6 119.733L230.533 120.8H369.467V118.667H230.533L229.467 119.733L230.533 118.667L230.067 118.733L229.733 119L229.533 119.333L229.467 119.733L229.533 120.133L229.733 120.467L230.067 120.733L230.533 120.8L231.6 119.733Z" fill="black"/>
<path d="M541.2 127.533L541.4 128.267L541.533 129.2L541.667 130.333V131.6L541.467 132.867L541.067 134.267L540.333 135.6L539.333 136.867L538.867 137.333L538.4 137.8L537.8 138.267L537.133 138.8L536.4 139.267L535.533 139.733L534.667 140.2L533.667 140.6L532.6 141L531.4 141.333L530.133 141.6L528.8 141.733L527.333 141.867H525.733L524.067 141.733L522.333 141.533L520.2 141.467L518.333 142L516.8 143L515.667 144.333L515.067 145.867L515.133 147.467L515.933 149.067L517.667 150.533L518.467 151.067L519.133 151.667L519.8 152.333L520.333 153.067L520.8 153.8L521.267 154.6L521.533 155.467L521.8 156.333L522 157.2L522.067 158.067V159L522 159.867L521.867 160.8L521.6 161.667L521.267 162.533L520.867 163.333L520.267 164.067L519.267 164.867L518.067 165.667L516.733 166.4L515.267 167.067L513.733 167.467L512.267 167.667L510.867 167.533L509.8 167.2L508.667 166.8L507.6 166.267L506.467 165.733L505.267 165.2L504.133 164.533L503 163.867L501.933 163.2L500.8 162.467L499.733 161.733L498.667 161L497.667 160.267L496.733 159.467L495.8 158.733L495 158.067L494.2 157.333L493.067 156.533L491.933 156L490.8 155.733H489.667L488.667 155.933L487.667 156.333L486.8 156.867L486.067 157.533L485.467 158.333L485 159.2L484.8 160.133V161.067L485.067 162L485.6 162.933L486.4 163.733L487.533 164.533L488.733 165.267L489.733 166.133L490.6 167.133L491.333 168.2L491.933 169.333L492.333 170.533L492.667 171.733L492.8 172.933L492.867 174.133L492.8 175.267L492.6 176.4L492.333 177.467L492 178.467L491.533 179.333L490.933 180.067L490.333 180.667L489.4 181.333L488.4 181.8L487.267 182.133L486.067 182.333H484.733L483.333 182.267L481.8 182.133L480.2 181.867L477.467 181.2L475 180.4L472.667 179.467L470.533 178.333L468.4 177.133L466.4 175.8L464.333 174.333L462.2 172.733L459.933 171.067L457.6 169.333L455 167.533L452.133 165.667L449 163.8L445.533 161.867L441.667 159.867L437.333 157.867L441.2 156L444.4 154L446.933 151.867L449 149.6L450.533 147.2L451.733 144.733L452.667 142.133L453.333 139.467L453.867 136.8L454.333 134.067L454.8 131.333L455.4 128.6L456.133 125.8L457.133 123.133L458.467 120.467L460.2 117.867L461.2 116.6L462.333 115.533L463.4 114.6L464.533 113.933L465.667 113.4L466.8 113.133L467.933 112.933L469 113L469.867 113.133L470.733 113.467L471.6 113.867L472.533 114.467L473.333 115.2L474.133 116L474.867 116.933L475.533 117.933L476.067 119L476.533 120.2L476.867 121.4L477.067 122.667V123.933L476.867 125.2L476.533 126.533L476 127.867L475.533 129.133L475.333 130.333L475.4 131.333L475.733 132.267L476.267 133.067L477 133.667L477.867 134.133L478.8 134.4L479.733 134.533H480.8L481.8 134.267L482.8 133.867L483.667 133.2L484.467 132.333L485.067 131.267L485.533 130L485.8 129L486.133 127.867L486.467 126.733L486.8 125.6L487.2 124.4L487.6 123.2L488.067 122L488.6 120.8L489.133 119.6L489.667 118.4L490.2 117.267L490.867 116.133L491.467 115.067L492.133 114L492.8 113.067L493.533 112.2L494.6 111.267L495.867 110.6L497.333 110.067L498.867 109.733L500.4 109.533L501.867 109.467L503.067 109.6L504 109.867L504.8 110.333L505.6 110.8L506.333 111.4L506.933 112.067L507.533 112.733L508.067 113.467L508.533 114.267L508.867 115.067L509.2 115.933L509.4 116.8L509.533 117.733L509.6 118.6L509.533 119.533L509.4 120.4L509.2 121.333L508.867 122.2L508.467 123.333L508.267 124.333V125.267L508.467 126.067L508.8 126.8L509.333 127.467L509.933 128L510.667 128.4L511.467 128.667L512.333 128.8L513.267 128.867L514.2 128.733L515.2 128.467L516.133 128.133L517 127.533L517.867 126.867L519.2 125.667L520.467 124.667L521.733 123.8L523 123.067L524.2 122.4L525.4 121.933L526.533 121.467L527.6 121.2L528.667 120.933L529.667 120.8L530.667 120.733L531.533 120.667L532.4 120.733L533.2 120.8L533.867 120.867L534.533 121L536.067 121.533L537.4 122.2L538.467 123.133L539.333 124.067L540.067 125.067L540.533 126L540.933 126.867L541.2 127.533Z" fill="#008D38"/>
<path d="M63.7333 279.533L63.5333 278.8L63.3999 277.867L63.2666 276.733V275.467L63.4666 274.2L63.8666 272.8L64.5999 271.467L65.5999 270.2L66.0666 269.733L66.5333 269.267L67.1333 268.8L67.7999 268.267L68.5333 267.8L69.3999 267.333L70.2666 266.867L71.2666 266.467L72.3333 266.067L73.5333 265.733L74.7999 265.467L76.1333 265.333L77.5999 265.2H79.1999L80.8666 265.333L82.5999 265.533L84.7333 265.6L86.5999 265.067L88.1333 264.067L89.2666 262.733L89.8666 261.2L89.7999 259.6L88.9999 258L87.2666 256.533L86.4666 256L85.7999 255.4L85.1333 254.733L84.5999 254L84.1333 253.267L83.6666 252.467L83.3999 251.6L83.1333 250.733L82.9333 249.867L82.8666 249V248.067L82.9333 247.2L83.0666 246.267L83.3333 245.4L83.6666 244.533L84.0666 243.733L84.6666 243L85.6666 242.2L86.8666 241.4L88.1999 240.6L89.6666 240L91.1999 239.6L92.6666 239.4L94.0666 239.533L95.1333 239.867L96.2666 240.267L97.3333 240.8L98.4666 241.333L99.6666 241.867L100.8 242.533L101.933 243.2L103 243.867L104.133 244.6L105.2 245.333L106.267 246.067L107.267 246.8L108.2 247.6L109.133 248.333L109.933 249L110.733 249.733L111.867 250.533L113 251.067L114.133 251.333H115.267L116.267 251.133L117.267 250.733L118.133 250.2L118.867 249.533L119.467 248.733L119.933 247.867L120.133 246.933V246L119.867 245.067L119.333 244.133L118.533 243.333L117.4 242.533L116.2 241.8L115.2 240.933L114.333 239.933L113.6 238.867L113 237.733L112.6 236.533L112.267 235.333L112.133 234.133L112.067 232.933L112.133 231.8L112.333 230.667L112.6 229.6L112.933 228.6L113.4 227.733L114 227L114.6 226.4L115.533 225.733L116.533 225.267L117.667 224.933L118.867 224.733H120.2L121.6 224.8L123.133 224.933L124.733 225.2L127.467 225.867L129.933 226.667L132.267 227.6L134.4 228.733L136.533 229.933L138.533 231.267L140.6 232.733L142.733 234.333L145 236L147.333 237.733L149.933 239.533L152.8 241.4L155.933 243.267L159.4 245.2L163.267 247.2L167.6 249.2L163.733 251.067L160.533 253.067L158 255.2L155.933 257.467L154.4 259.867L153.2 262.333L152.267 264.933L151.6 267.6L151.067 270.267L150.6 273L150.133 275.733L149.533 278.467L148.8 281.267L147.8 283.933L146.467 286.6L144.733 289.2L143.733 290.467L142.6 291.533L141.533 292.467L140.4 293.133L139.267 293.667L138.133 293.933L137 294.133L135.933 294.067L135.067 293.933L134.2 293.6L133.333 293.2L132.4 292.6L131.6 291.867L130.8 291.067L130.067 290.133L129.4 289.133L128.867 288.067L128.4 286.867L128.067 285.667L127.867 284.4V283.133L128.067 281.867L128.4 280.533L128.933 279.2L129.4 277.933L129.6 276.733L129.533 275.733L129.2 274.8L128.667 274L127.933 273.4L127.067 272.933L126.2 272.6L125.2 272.533H124.133L123.133 272.8L122.133 273.2L121.267 273.867L120.467 274.733L119.867 275.8L119.4 277.067L119.133 278.067L118.8 279.2L118.467 280.333L118.133 281.467L117.733 282.667L117.333 283.867L116.867 285.067L116.333 286.267L115.8 287.467L115.267 288.667L114.733 289.8L114.067 290.933L113.467 292L112.8 293.067L112.133 294L111.4 294.867L110.333 295.8L109.067 296.467L107.6 297L106.067 297.333L104.533 297.533L103.067 297.6L101.867 297.467L100.933 297.2L100.133 296.733L99.3333 296.267L98.5999 295.667L97.9999 295L97.3999 294.333L96.8666 293.6L96.3999 292.8L96.0666 292L95.7333 291.133L95.5333 290.267L95.3999 289.333L95.3333 288.467L95.3999 287.533L95.5333 286.667L95.7333 285.733L96.0666 284.867L96.4666 283.733L96.6666 282.733V281.8L96.4666 281L96.1333 280.267L95.5999 279.6L94.9999 279.067L94.2666 278.667L93.4666 278.4L92.5999 278.267L91.6666 278.2L90.7333 278.333L89.7333 278.6L88.7999 278.933L87.9333 279.533L87.0666 280.2L85.7333 281.4L84.4666 282.4L83.1999 283.267L81.9333 284L80.7333 284.667L79.5333 285.133L78.3999 285.6L77.3333 285.867L76.2666 286.133L75.2666 286.267L74.2666 286.333L73.3999 286.4L72.5333 286.333L71.7333 286.267L71.0666 286.2L70.3999 286.067L68.8666 285.533L67.5333 284.867L66.4666 283.933L65.5999 283L64.8666 282L64.3999 281.067L63.9999 280.2L63.7333 279.533Z" fill="#008D38"/>
<path d="M179.933 13.2668L180.6 12.8668L181.467 12.4668L182.467 12.0668L183.667 11.7334L185 11.6001H186.4L187.867 11.8001L189.4 12.4001L189.933 12.7334L190.6 13.0668L191.2 13.5334L191.867 14.0668L192.533 14.6001L193.267 15.2668L193.933 16.0001L194.6 16.8668L195.267 17.8001L195.933 18.8668L196.533 20.0001L197.067 21.2668L197.533 22.6668L198 24.2001L198.333 25.8001L198.6 27.6001L199.2 29.6001L200.267 31.2668L201.667 32.4668L203.267 33.2001L204.933 33.3334L206.467 32.8001L207.733 31.6001L208.6 29.6001L208.867 28.6668L209.267 27.8001L209.733 27.0001L210.267 26.2668L210.867 25.6001L211.533 25.0001L212.267 24.4001L213 23.9334L213.8 23.5334L214.667 23.2001L215.533 22.9334L216.4 22.7334L217.267 22.6668H218.133L219.067 22.7334L219.933 22.9334L220.8 23.3334L221.867 24.0001L223 24.9334L224.067 26.0001L225.067 27.2668L225.933 28.6001L226.467 29.9334L226.733 31.2668V32.4001L226.6 33.6001L226.467 34.8001L226.267 36.0668L226 37.3334L225.733 38.6001L225.4 39.8668L225.067 41.1334L224.667 42.4001L224.267 43.6668L223.8 44.8668L223.4 46.0001L222.933 47.2001L222.467 48.2668L222.067 49.2668L221.6 50.2668L221.133 51.5334L220.933 52.8001L221 53.9334L221.333 55.0001L221.8 55.9334L222.467 56.8001L223.267 57.4668L224.133 58.0001L225.067 58.3334L226 58.5334H226.933L227.867 58.2668L228.667 57.8001L229.4 57.0001L230 56.0001L230.4 54.7334L230.8 53.3334L231.4 52.0668L232.067 50.9334L232.933 49.9334L233.867 49.0668L234.867 48.3334L235.933 47.7334L237.067 47.2001L238.267 46.8668L239.4 46.6001L240.533 46.4668L241.6 46.4001L242.667 46.4668L243.667 46.6668L244.533 47.0001L245.267 47.4001L246.067 48.1334L246.8 48.9334L247.4 49.9334L247.867 51.0668L248.267 52.3334L248.6 53.7334L248.867 55.2668L249.067 56.9334L249.133 58.3334L249.2 59.7334V61.0001L249.133 62.3334L249 63.5334L248.8 64.8001L248.6 66.0001L248.4 67.2001L248.067 68.3334L247.8 69.5334L247.4 70.6668L247.067 71.8668L246.667 73.0668L246.2 74.2668L245.733 75.4668L245.333 76.7334L244.8 78.0001L244.333 79.3334L243.867 80.6668L243.333 82.0668L242.8 83.5334L242.333 85.0668L241.8 86.6668L241.333 88.3334L240.867 90.0668L240.333 91.8668L239.933 93.7334L239.467 95.7334L239.067 97.8668L238.667 100L238.267 102.333L237.933 104.733L236.533 103L235.067 101.467L233.667 100.133L232.267 99.0001L230.867 97.9334L229.467 97.0668L228.067 96.3334L226.733 95.7334L225.333 95.2668L223.933 94.8668L222.6 94.6001L221.2 94.4668L219.867 94.3334L218.533 94.2668L217.133 94.3334L215.8 94.4001L214.4 94.4668L213.067 94.6001L211.667 94.8001L210.267 94.9334L208.933 95.1334L207.533 95.2668L206.133 95.4001L204.733 95.4668L203.333 95.5334H201.933L200.533 95.4668L199.067 95.3334L197.667 95.1334L196.2 94.8668L194.733 94.4668L193.267 93.9334L191.733 93.2668L190.333 92.5334L189.133 91.6668L188.133 90.7334L187.333 89.8001L186.667 88.8001L186.2 87.7334L185.933 86.6001L185.867 85.7334L185.933 84.8668L186.067 83.8668L186.4 82.8668L186.867 81.8668L187.467 80.9334L188.133 79.9334L188.933 79.0668L189.8 78.2668L190.8 77.4668L191.867 76.8668L193.067 76.3334L194.267 76.0001L195.6 75.8001L196.933 75.7334L198.4 75.9334L199.8 76.0668L200.933 75.8668L201.933 75.4668L202.733 74.9334L203.333 74.2001L203.733 73.3334L203.933 72.3334L204 71.4001L203.8 70.4001L203.467 69.4001L202.933 68.4668L202.267 67.6668L201.4 67.0001L200.333 66.4668L199.133 66.1334L197.733 66.0668H196.667L195.533 66.1334L194.4 66.0668H193.133L191.933 66.0001L190.6 65.9334L189.333 65.8001L188 65.6668L186.733 65.5334L185.4 65.3334L184.133 65.0668L182.933 64.8001L181.667 64.5334L180.533 64.2001L179.467 63.8001L178.4 63.4001L177.2 62.6668L176.133 61.6001L175.2 60.3334L174.467 58.9334L173.867 57.4668L173.467 56.1334L173.267 54.8668V53.9334L173.733 52.1334L174.533 50.4668L175.6 49.0001L176.933 47.8001L178.467 46.8668L180.133 46.2001L181.867 45.8668L183.733 45.9334L184.933 46.0001L185.933 45.9334L186.867 45.6668L187.6 45.2001L188.2 44.6668L188.733 44.0001L189.067 43.2668L189.267 42.4001V41.6001L189.2 40.6668L189 39.8001L188.6 38.9334L188.133 38.0668L187.467 37.2668L186.667 36.5334L185.733 35.9334L184.267 35.0001L182.933 34.0668L181.733 33.0668L180.667 32.0668L179.733 31.0668L178.933 30.0668L178.267 29.0668L177.667 28.1334L177.2 27.1334L176.733 26.2001L176.4 25.3334L176.133 24.4668L175.933 23.6668L175.8 22.9334L175.667 22.2001L175.6 21.6001L175.667 20.0001L175.933 18.5334L176.467 17.2668L177.133 16.1334L177.867 15.1334L178.667 14.3334L179.333 13.7334L179.933 13.2668Z" fill="#008D38"/>
<path d="M419.8 387L419.133 387.4L418.267 387.8L417.267 388.2L416.067 388.533L414.733 388.667H413.333L411.867 388.467L410.333 387.867L409.8 387.533L409.133 387.2L408.533 386.733L407.867 386.2L407.2 385.667L406.467 385L405.8 384.267L405.133 383.4L404.467 382.467L403.8 381.4L403.2 380.267L402.667 379L402.2 377.6L401.733 376.067L401.4 374.467L401.133 372.667L400.533 370.667L399.467 369L398.067 367.8L396.467 367.067L394.8 366.933L393.267 367.467L392 368.667L391.133 370.667L390.867 371.6L390.467 372.467L390 373.267L389.467 374L388.867 374.667L388.2 375.267L387.467 375.867L386.733 376.333L385.933 376.733L385.067 377.067L384.2 377.333L383.333 377.533L382.467 377.6H381.6L380.667 377.533L379.8 377.333L378.933 376.933L377.867 376.267L376.733 375.333L375.667 374.267L374.667 373L373.8 371.667L373.267 370.333L373 369V367.867L373.133 366.667L373.267 365.467L373.467 364.2L373.733 362.933L374 361.667L374.333 360.4L374.667 359.133L375.067 357.867L375.467 356.6L375.933 355.4L376.333 354.267L376.8 353.067L377.267 352L377.667 351L378.133 350L378.6 348.733L378.8 347.467L378.733 346.333L378.4 345.267L377.933 344.333L377.267 343.467L376.467 342.8L375.6 342.267L374.667 341.933L373.733 341.733H372.8L371.867 342L371.067 342.467L370.333 343.267L369.733 344.267L369.333 345.533L368.933 346.933L368.333 348.2L367.667 349.333L366.8 350.333L365.867 351.2L364.867 351.933L363.8 352.533L362.667 353.067L361.467 353.4L360.333 353.667L359.2 353.8L358.133 353.867L357.067 353.8L356.067 353.6L355.2 353.267L354.467 352.867L353.667 352.133L352.933 351.333L352.333 350.333L351.867 349.2L351.467 347.933L351.133 346.533L350.867 345L350.667 343.333L350.6 341.933L350.533 340.533V339.267L350.6 337.933L350.733 336.733L350.933 335.467L351.133 334.267L351.333 333.067L351.667 331.933L351.933 330.733L352.333 329.6L352.667 328.4L353.067 327.2L353.533 326L354 324.8L354.467 323.533L354.933 322.267L355.4 320.933L355.867 319.6L356.4 318.2L356.933 316.733L357.4 315.2L357.933 313.6L358.4 311.933L358.867 310.2L359.4 308.4L359.8 306.533L360.267 304.533L360.667 302.4L361.067 300.267L361.467 297.933L361.8 295.533L363.2 297.267L364.667 298.8L366.067 300.133L367.467 301.267L368.867 302.333L370.267 303.2L371.667 303.933L373 304.533L374.4 305L375.8 305.4L377.133 305.667L378.533 305.8L379.867 305.933L381.2 306L382.6 305.933L383.933 305.867L385.333 305.8L386.667 305.667L388.067 305.467L389.467 305.333L390.8 305.133L392.2 305L393.6 304.867L395 304.8L396.4 304.733H397.8L399.2 304.8L400.667 304.933L402.067 305.133L403.533 305.4L405 305.8L406.467 306.333L408 307L409.4 307.733L410.6 308.6L411.6 309.467L412.4 310.467L413.067 311.467L413.533 312.533L413.8 313.667L413.867 314.533L413.8 315.4L413.667 316.4L413.333 317.4L412.867 318.4L412.267 319.333L411.6 320.333L410.8 321.2L409.933 322L408.933 322.8L407.867 323.4L406.667 323.933L405.467 324.267L404.133 324.467L402.8 324.533L401.333 324.333L399.933 324.2L398.8 324.4L397.8 324.8L397 325.333L396.4 326.067L396 326.933L395.8 327.933V328.867L395.933 329.867L396.267 330.867L396.8 331.8L397.467 332.6L398.333 333.267L399.4 333.8L400.6 334.133L402 334.2H403.067L404.2 334.133L405.333 334.2H406.6L407.8 334.267L409.133 334.333L410.4 334.467L411.733 334.6L413 334.733L414.333 334.933L415.6 335.2L416.8 335.467L418.067 335.733L419.2 336.067L420.267 336.467L421.333 336.867L422.533 337.6L423.6 338.667L424.533 339.933L425.267 341.333L425.867 342.8L426.267 344.133L426.467 345.4V346.333L426 348.133L425.2 349.8L424.133 351.267L422.8 352.467L421.267 353.4L419.6 354.067L417.867 354.4L416 354.333L414.8 354.267L413.8 354.333L412.867 354.6L412.133 355.067L411.533 355.6L411 356.267L410.667 357L410.533 357.8L410.467 358.667L410.533 359.6L410.733 360.467L411.133 361.333L411.6 362.2L412.267 363L413.067 363.733L414 364.333L415.467 365.267L416.8 366.2L418 367.2L419.067 368.2L420 369.2L420.8 370.2L421.467 371.2L422.067 372.133L422.533 373.133L423 374.067L423.333 374.933L423.6 375.8L423.8 376.6L423.933 377.333L424.067 378.067L424.133 378.667L424.067 380.267L423.8 381.733L423.267 383L422.6 384.133L421.867 385.133L421.067 385.933L420.4 386.533L419.8 387Z" fill="#008D38"/>
<path fill-rule="evenodd" clip-rule="evenodd" d="M331.467 156.933L332.2 155.4L332.733 154.067L333.067 152.867L333.2 151.733L333.133 150.8L333 150L332.667 149.267L332.2 148.667L331.6 148.133L330.933 147.733L330.133 147.333L329.2 147.067L328.267 146.867L327.2 146.667L326.067 146.533L324.933 146.4L323.467 146.267L322 146.2L320.533 146.067L319.067 146L317.6 145.933L316.133 145.867L314.667 145.8L313.2 145.733L311.733 145.667L310.267 145.6H308.8L307.333 145.533H305.867H304.4L302.933 145.467H301.467H300H298.533L297.133 145.533H295.667H294.2L292.733 145.6H291.267L289.8 145.667L288.333 145.733L286.867 145.8L285.467 145.867L284 145.933L282.533 146L281.067 146.067L279.6 146.2L278.133 146.267L276.6 146.467L275.267 146.933L274.2 147.533L273.333 148.4L272.8 149.4L272.533 150.6L272.667 151.867L273.067 153.333L274 155.4L275.133 157.533L276.467 159.733L277.933 162L279.667 164.333L281.533 166.8L283.533 169.267L285.733 171.867L288.067 174.533L290.6 177.333L293.2 180.133L295.933 183.067L298.867 186.133L301.8 189.2L304.933 192.4L308.133 195.733L309.733 193.4L311.267 191.067L312.867 188.667L314.4 186.333L315.933 184L317.4 181.6L318.867 179.2L320.333 176.8L321.8 174.4L323.2 172L324.667 169.533L326.067 167.067L327.4 164.6L328.8 162.067L330.133 159.533L331.467 156.933ZM316.133 203.067L317.067 201.667L318 200.267L318.867 198.867L319.8 197.467L320.667 196.133L321.6 194.733L322.467 193.333L323.4 191.933L324.267 190.533L325.133 189.133L326 187.733L326.867 186.267L327.733 184.867L328.6 183.467L329.4 182.067L330.267 180.667L331.067 179.267L331.933 177.867L332.733 176.467L333.533 175.067L334.333 173.667L335.133 172.267L335.933 170.867L336.733 169.467L337.467 168.067L338.267 166.733L339 165.333L339.733 163.933L340.467 162.533L341.2 161.133L341.933 159.8L342.667 158.4L343.6 156.267L344.2 154.2L344.4 152.133L344.333 150.2L343.933 148.267L343.333 146.467L342.4 144.8L341.333 143.2L340 141.733L338.533 140.4L336.933 139.267L335.2 138.2L333.333 137.4L331.4 136.733L329.467 136.267L327.467 136L325.933 135.867L324.4 135.733L322.933 135.667L321.4 135.533L319.867 135.467L318.333 135.4L316.867 135.333L315.333 135.267L313.8 135.2L312.333 135.133L310.8 135.067L309.333 135H307.8L306.333 134.933H304.8L303.333 134.867H301.8H300.333H298.8H297.333H295.8H294.333H292.8L291.333 134.933H289.8H288.333L286.8 135H285.333L283.8 135.067L282.333 135.133H280.8L279.333 135.2L277.733 135.267L276.2 135.4L274.667 135.533L273.267 135.733L271.933 136L270.667 136.267L269.467 136.6L268.4 136.933L267.333 137.4L266.333 137.867L265.4 138.4L264.6 138.933L263.867 139.6L263.133 140.267L262.533 140.933L262 141.733L261.533 142.6L261.133 143.533L260.8 144.4L260.533 145.4L260.4 146.4L260.267 147.4V148.467L260.333 149.533L260.467 150.6L260.667 151.733L260.933 152.933L261.333 154.067L261.8 155.267L262.333 156.467L263 157.667L263.733 158.933L264.533 160.267L265.4 161.6L266.267 162.933L267.133 164.267L268 165.6L268.933 167L269.933 168.333L270.867 169.733L271.867 171.067L272.933 172.467L274 173.867L275.067 175.267L276.133 176.667L277.267 178.067L278.4 179.467L279.6 180.867L280.8 182.267L282 183.733L283.267 185.133L284.533 186.6L285.8 188.067L287.133 189.467L288.467 190.933L289.867 192.4L291.267 193.867L292.667 195.4L294.133 196.867L295.6 198.333L297.067 199.867L298.6 201.333L300.133 202.867L301.733 204.4L300.667 206L299.667 207.667L298.533 209.267L297.467 210.933L296.333 212.6L295.133 214.2L294 215.867L292.8 217.533L291.6 219.2L290.333 220.933L289.067 222.6L287.8 224.267L286.533 226L285.2 227.733L283.867 229.467L282.533 231.2L290.933 237.733L309.6 212.267L332.933 233.2L339.867 225.2L338.333 223.867L336.8 222.467L335.333 221.133L333.8 219.8L332.267 218.4L330.8 217.067L329.267 215.667L327.8 214.267L326.333 212.867L324.867 211.533L323.4 210.133L321.933 208.733L320.467 207.333L319 205.933L317.533 204.467L316.133 203.067Z" fill="#F5DC0F"/>
<path d="M324.867 147.467L325.933 147.6L327 147.733L328.067 147.933L328.933 148.067L329.733 148.333L330.4 148.667L331 149L331.4 149.4L331.733 149.8L332 150.333L332.067 150.933L332.133 151.667L332 152.667L331.733 153.667L331.2 154.933L330.533 156.467L332.4 157.4L333.2 155.867L333.733 154.467L334.133 153.067L334.267 151.8L334.2 150.667L334 149.667L333.6 148.733L333 147.933L332.2 147.267L331.467 146.8L330.533 146.333L329.467 146.067L328.467 145.8L327.4 145.6L326.2 145.467L325 145.333L324.533 145.4L324.2 145.6L324 145.933L323.867 146.333L323.933 146.733L324.133 147.067L324.4 147.333L324.867 147.467Z" fill="black"/>
<path d="M278.2 147.333L279.667 147.267L281.133 147.133L282.6 147.067L284.067 147L285.533 146.933L286.933 146.867L288.4 146.8L289.867 146.733L291.333 146.667H292.8L294.267 146.6H295.667H297.2L298.6 146.533H300H301.467H302.867L304.333 146.6H305.867H307.267L308.733 146.667H310.2L311.667 146.733L313.133 146.8L314.6 146.867L316.067 146.933L317.533 147L319 147.067L320.467 147.133L321.933 147.267L323.4 147.333L324.867 147.467L325 145.333L323.533 145.2L322.067 145.133L320.6 145L319.133 144.933L317.667 144.867L316.2 144.8L314.733 144.733L313.267 144.667L311.8 144.6L310.333 144.533H308.867L307.4 144.467H305.867H304.467L303 144.4H301.467H300H298.467L297.067 144.467H295.667H294.133L292.667 144.533H291.2L289.733 144.6L288.267 144.667L286.8 144.733L285.4 144.8L283.933 144.867L282.467 144.933L281 145L279.533 145.133L278.067 145.2L277.6 145.333L277.333 145.6L277.133 145.933L277.067 146.333L277.2 146.733L277.4 147.067L277.733 147.267L278.2 147.333Z" fill="black"/>
<path d="M274.067 152.934L273.733 151.667L273.6 150.667L273.8 149.734L274.2 149.067L274.8 148.4L275.733 147.934L276.867 147.534L278.2 147.334L278.067 145.2L276.333 145.4L274.8 145.934L273.6 146.667L272.467 147.734L271.8 149.067L271.467 150.534L271.6 152.067L272.067 153.734L272.333 154.134L272.667 154.334L273.067 154.4L273.467 154.334L273.8 154.134L274.067 153.8L274.133 153.4L274.067 152.934Z" fill="black"/>
<path d="M307.267 195.133L308.933 195L305.667 191.666L302.533 188.466L299.667 185.4L296.733 182.333L294 179.4L291.4 176.6L288.867 173.8L286.533 171.2L284.333 168.6L282.4 166.133L280.533 163.666L278.8 161.4L277.4 159.2L276.067 157L274.933 154.933L274.067 152.933L272.067 153.733L273.067 155.866L274.2 158.066L275.533 160.266L277.067 162.6L278.8 165L280.667 167.466L282.733 169.933L284.933 172.533L287.267 175.266L289.8 178.066L292.4 180.866L295.133 183.8L298.067 186.866L301.067 189.933L304.2 193.133L307.333 196.466L309 196.333L307.4 196.466L307.8 196.733H308.133L308.533 196.666L308.867 196.4L309.067 196.133L309.133 195.733V195.4L308.867 195L307.267 195.133Z" fill="black"/>
<path d="M330.533 156.466L329.2 159.066L327.867 161.533L326.467 164.066L325.133 166.533L323.733 169L322.267 171.466L320.867 173.866L319.4 176.266L317.933 178.666L316.467 181.066L315.067 183.4L313.533 185.733L312 188.066L310.4 190.466L308.867 192.8L307.267 195.133L309 196.333L310.6 194L312.133 191.666L313.733 189.266L315.267 186.933L316.8 184.6L318.333 182.133L319.8 179.733L321.267 177.333L322.733 174.933L324.133 172.533L325.6 170.066L327 167.6L328.333 165.133L329.733 162.6L331.067 160L332.4 157.4L332.533 156.933L332.467 156.6L332.2 156.266L331.933 156L331.533 155.933H331.133L330.8 156.133L330.533 156.466Z" fill="black"/>
<path d="M341.733 157.933L341 159.333L340.267 160.667L339.533 162.067L338.8 163.467L338.067 164.867L337.333 166.2L336.533 167.533L335.8 168.933L335 170.333L334.2 171.733L333.4 173.133L332.6 174.533L331.8 175.933L331 177.333L330.133 178.733L329.333 180.133L328.467 181.533L327.667 182.933L326.8 184.333L325.933 185.733L325.067 187.2L324.2 188.6L323.333 190L322.533 191.333L321.6 192.733L320.733 194.133L319.8 195.533L318.933 196.867L318 198.267L317.133 199.667L316.2 201.067L315.267 202.467L317 203.667L317.933 202.267L318.867 200.867L319.733 199.467L320.667 198.067L321.533 196.733L322.467 195.333L323.333 193.933L324.267 192.533L325.2 191.067L326.067 189.667L326.933 188.267L327.8 186.8L328.667 185.4L329.533 184L330.333 182.6L331.2 181.2L332 179.8L332.867 178.4L333.667 177L334.467 175.6L335.267 174.2L336.067 172.8L336.867 171.4L337.667 170L338.4 168.6L339.2 167.267L339.933 165.8L340.667 164.4L341.4 163L342.133 161.6L342.867 160.267L343.6 158.867L343.733 158.4L343.667 158.067L343.4 157.733L343.133 157.467L342.733 157.4H342.333L342 157.6L341.733 157.933Z" fill="black"/>
<path d="M327.4 137.066L329.267 137.333L331.067 137.733L332.933 138.4L334.733 139.133L336.333 140.133L337.867 141.2L339.267 142.466L340.467 143.866L341.467 145.333L342.333 146.933L342.933 148.533L343.267 150.333L343.333 152.066L343.133 154L342.6 155.866L341.733 157.933L343.6 158.866L344.6 156.666L345.267 154.4L345.467 152.2L345.4 150.066L344.933 148L344.333 146L343.333 144.266L342.2 142.533L340.733 141L339.2 139.6L337.533 138.4L335.667 137.266L333.733 136.4L331.733 135.733L329.667 135.2L327.533 134.933L327.067 135L326.733 135.2L326.533 135.533L326.4 135.933L326.467 136.333L326.667 136.666L326.933 136.933L327.4 137.066Z" fill="black"/>
<path d="M279.333 136.266H279.4L280.867 136.2H282.4L283.867 136.133L285.4 136.066H286.867L288.4 136H289.8H291.4L292.867 135.933H294.333H295.8H297.333H298.8H300.333H301.8H303.267L304.733 136H306.267L307.733 136.066H309.267L310.733 136.133L312.267 136.2L313.733 136.266L315.267 136.333L316.8 136.4L318.267 136.466L319.8 136.533L321.333 136.6L322.867 136.733L324.333 136.8L325.867 136.933L327.4 137.066L327.533 134.933L326 134.8L324.467 134.666L323 134.6L321.467 134.466L319.933 134.4L318.4 134.333L316.933 134.266L315.4 134.2L313.867 134.133L312.4 134.066L310.867 134L309.4 133.933H307.867L306.4 133.866H304.867L303.4 133.8H301.8H300.333H298.8H297.333H295.8H294.333H292.733L291.267 133.866H289.8H288.267L286.733 133.933H285.267L283.733 134L282.267 134.066H280.733L279.267 134.133H279.333H279.267L278.8 134.266L278.533 134.533L278.333 134.866L278.267 135.266L278.4 135.666L278.6 136L278.933 136.2L279.4 136.266H279.333Z" fill="black"/>
<path d="M262.933 142.267L263.333 141.6L263.867 141L264.6 140.4L265.267 139.8L265.933 139.333L266.867 138.8L267.733 138.4L268.8 137.933L269.8 137.6L270.933 137.267L272.133 137.067L273.467 136.8L274.8 136.6L276.267 136.467L277.8 136.333L279.333 136.267V134.133L277.667 134.2L276.133 134.333L274.533 134.467L273.067 134.667L271.733 134.933L270.4 135.267L269.133 135.6L268 135.933L266.933 136.4L265.8 136.933L264.867 137.467L263.933 138.067L263.133 138.8L262.4 139.533L261.733 140.267L261.067 141.2L260.933 141.667L261 142.067L261.2 142.4L261.533 142.6L261.867 142.8H262.267L262.667 142.6L262.933 142.267Z" fill="black"/>
<path d="M264.667 158.4L263.933 157.134L263.267 156L262.8 154.8L262.333 153.667L261.933 152.667L261.733 151.534L261.533 150.4L261.4 149.4L261.333 148.4V147.467L261.467 146.534L261.6 145.6L261.8 144.734L262.133 143.934L262.467 143.067L262.933 142.267L261.067 141.2L260.6 142.134L260.133 143.134L259.8 144.067L259.467 145.2L259.333 146.267L259.2 147.334V148.534L259.267 149.667L259.4 150.8L259.6 151.934L259.933 153.2L260.333 154.467L260.8 155.734L261.4 156.934L262.067 158.2L262.8 159.467L263.067 159.8L263.467 160H263.867L264.267 159.8L264.533 159.6L264.733 159.267L264.8 158.867L264.667 158.4Z" fill="black"/>
<path d="M302.667 205L302.467 203.6L300.867 202.067L299.333 200.6L297.8 199.133L296.4 197.6L294.867 196.133L293.467 194.667L292.067 193.133L290.667 191.667L289.267 190.2L287.933 188.733L286.6 187.333L285.333 185.933L284.067 184.467L282.8 183.067L281.6 181.6L280.4 180.2L279.2 178.8L278.067 177.4L276.933 176L275.933 174.6L274.867 173.2L273.8 171.8L272.733 170.4L271.733 169.133L270.8 167.733L269.8 166.4L268.867 165L268 163.667L267.133 162.333L266.267 161L265.4 159.667L264.667 158.4L262.8 159.467L263.667 160.867L264.533 162.2L265.4 163.533L266.267 164.867L267.133 166.2L268.067 167.6L269.067 168.933L270 170.333L271 171.733L272.067 173.133L273.133 174.533L274.2 175.933L275.333 177.333L276.467 178.733L277.6 180.133L278.8 181.533L280 182.933L281.2 184.4L282.467 185.8L283.733 187.267L285 188.8L286.333 190.2L287.667 191.667L289.067 193.133L290.467 194.6L291.867 196.133L293.4 197.6L294.8 199.067L296.333 200.6L297.867 202.067L299.4 203.667L301 205.2L300.8 203.8L301 205.2L301.4 205.467H301.8L302.2 205.333L302.533 205.067L302.733 204.733L302.867 204.4L302.733 204L302.467 203.6L302.667 205Z" fill="black"/>
<path d="M283.2 230.333L283.4 231.866L284.733 230.133L286.067 228.4L287.4 226.666L288.667 224.866L289.933 223.266L291.2 221.533L292.467 219.8L293.667 218.133L294.867 216.466L296 214.8L297.2 213.2L298.333 211.533L299.4 209.866L300.533 208.266L301.533 206.6L302.667 205L300.8 203.8L299.8 205.4L298.8 207.066L297.667 208.666L296.6 210.333L295.467 212L294.267 213.6L293.133 215.266L291.933 216.933L290.733 218.6L289.467 220.333L288.2 221.933L286.933 223.666L285.667 225.333L284.333 227.066L283 228.8L281.667 230.533L281.867 232.066L281.667 230.533L281.467 230.933V231.4L281.6 231.733L281.867 232.066L282.267 232.266H282.667L283.067 232.2L283.4 231.866L283.2 230.333Z" fill="black"/>
<path d="M290.067 237.133L291.6 236.867L283.2 230.333L281.867 232.067L290.267 238.6L291.8 238.333L290.267 238.6L290.667 238.8H291.133L291.467 238.667L291.8 238.4L292 238V237.6L291.933 237.2L291.6 236.867L290.067 237.133Z" fill="black"/>
<path d="M310.333 211.467L308.733 211.667L290.067 237.134L291.8 238.334L310.467 212.867L308.867 213.067L310.467 212.867L310.667 212.467V212.067L310.467 211.667L310.2 211.4L309.867 211.267L309.467 211.2L309.067 211.334L308.733 211.667L310.333 211.467Z" fill="black"/>
<path d="M332.133 232.467L333.667 232.4L310.333 211.467L308.867 213.067L332.2 234L333.733 233.933L332.2 234L332.6 234.267H333L333.4 234.133L333.733 233.867L333.933 233.533L334.067 233.2L333.933 232.8L333.667 232.4L332.133 232.467Z" fill="black"/>
<path d="M339.133 226L339.067 224.467L332.133 232.467L333.733 233.933L340.667 225.933L340.6 224.4L340.667 225.867L340.867 225.467L340.933 225.067L340.8 224.667L340.533 224.4L340.2 224.2L339.8 224.133L339.4 224.267L339.067 224.533L339.133 226Z" fill="black"/>
<path d="M315.267 202.467L315.4 203.8L316.8 205.2L318.267 206.667L319.733 208.134L321.2 209.534L322.667 210.934L324.133 212.334L325.6 213.667L327.067 215.067L328.533 216.467L330.067 217.867L331.533 219.2L333.067 220.6L334.667 221.934L336.067 223.267L337.6 224.667L339.133 226L340.6 224.4L339.067 223.067L337.533 221.667L336 220.334L334.533 219L333 217.6L331.533 216.267L330 214.867L328.533 213.467L327.067 212.067L325.6 210.734L324.133 209.334L322.667 207.934L321.2 206.534L319.733 205.2L318.267 203.734L316.867 202.334L317 203.667L316.867 202.334L316.467 202.067H316.133L315.733 202.134L315.467 202.334L315.2 202.667L315.133 203.067V203.4L315.4 203.8L315.267 202.467Z" fill="black"/>
<path d="M355.867 208.267L355.8 211.467L355.533 214.6L355.2 217.667L354.667 220.667L354 223.533L353.2 226.333L352.333 229L351.267 231.6L350.133 234.133L348.867 236.533L347.467 238.867L345.933 241.133L344.333 243.267L342.667 245.267L340.867 247.2L339 249.067L337.067 250.8L335 252.4L332.867 253.933L330.667 255.333L328.467 256.667L326.133 257.867L323.733 259L321.333 259.933L318.867 260.867L316.333 261.6L313.8 262.267L311.2 262.8L308.533 263.2L305.933 263.467L303.2 263.667L300.533 263.733L297.8 263.667L295.133 263.467L292.533 263.2L289.867 262.733L287.333 262.2L284.8 261.6L282.267 260.8L279.8 259.933L277.4 258.933L275.067 257.867L272.8 256.667L270.6 255.4L268.467 254L266.4 252.533L264.4 251L262.467 249.333L260.667 247.6L258.933 245.733L257.267 243.8L255.733 241.8L254.267 239.733L252.933 237.6L251.667 235.4L250.533 233.067L249.533 230.733L248.667 228.267L247.933 225.8L247.267 223.2L246.8 220.6L246.4 217.933L246.2 215.2L246.133 212.4H275.2L275.4 215.8L275.867 219L276.733 222L277.867 224.867L279.333 227.533L281 230L282.933 232.267L285.067 234.333L287.467 236.2L290 237.867L292.667 239.267L295.533 240.4L298.467 241.333L301.533 242L304.667 242.4L307.867 242.533L311.933 242.333L315.8 241.8L319.333 240.933L322.6 239.667L325.6 238.2L328.333 236.4L330.867 234.333L333.067 232.067L335 229.6L336.667 226.933L338.133 224.133L339.267 221.133L340.2 218.067L340.8 214.867L341.2 211.6L341.333 208.267H355.867Z" fill="#F5DC0F"/>
<path d="M300.533 264.8L303.267 264.733L306.067 264.533L308.667 264.267L311.4 263.867L314.067 263.333L316.6 262.6L319.2 261.867L321.733 260.933L324.2 260L326.6 258.8L329 257.6L331.267 256.2L333.467 254.8L335.667 253.267L337.733 251.6L339.733 249.867L341.667 247.933L343.467 245.933L345.133 243.933L346.8 241.733L348.4 239.467L349.8 237.067L351.067 234.6L352.267 232L353.333 229.4L354.2 226.667L355.067 223.8L355.733 220.867L356.267 217.8L356.6 214.733L356.867 211.533L356.933 208.267H354.8L354.733 211.4L354.467 214.467L354.133 217.533L353.6 220.467L352.933 223.267L352.2 226L351.333 228.6L350.267 231.2L349.2 233.667L347.933 236L346.533 238.267L345.067 240.533L343.533 242.6L341.867 244.6L340.067 246.467L338.267 248.267L336.4 250L334.333 251.533L332.267 253.067L330.067 254.467L327.933 255.733L325.667 256.933L323.267 258L320.933 258.933L318.533 259.867L316.067 260.6L313.533 261.2L311 261.733L308.4 262.133L305.8 262.4L303.133 262.6L300.533 262.667V264.8Z" fill="black"/>
<path d="M246.133 211.333L245.067 212.4L245.133 215.267L245.333 218.067L245.733 220.8L246.2 223.467L246.933 226.067L247.667 228.6L248.533 231.133L249.533 233.533L250.733 235.867L252 238.133L253.4 240.333L254.867 242.467L256.467 244.467L258.133 246.467L259.933 248.333L261.733 250.133L263.733 251.8L265.733 253.4L267.867 254.867L270.067 256.333L272.267 257.6L274.6 258.8L276.933 259.933L279.4 260.933L281.933 261.8L284.533 262.6L287.067 263.267L289.667 263.8L292.4 264.267L295 264.533L297.733 264.733L300.533 264.8V262.667L297.867 262.6L295.267 262.4L292.667 262.133L290.067 261.667L287.6 261.133L285.067 260.6L282.6 259.8L280.2 258.933L277.867 257.933L275.533 256.933L273.333 255.733L271.133 254.467L269.067 253.133L267.067 251.667L265.067 250.2L263.2 248.533L261.4 246.867L259.733 245L258.067 243.133L256.6 241.133L255.133 239.133L253.867 237.067L252.6 234.933L251.533 232.6L250.533 230.333L249.667 227.933L248.933 225.533L248.333 222.933L247.867 220.4L247.467 217.8L247.267 215.133L247.2 212.4L246.133 213.467L247.2 212.4L247.133 211.933L246.867 211.6L246.533 211.4L246.133 211.333L245.733 211.4L245.4 211.6L245.133 211.933L245.067 212.4L246.133 211.333Z" fill="black"/>
<path d="M276.267 212.4L275.2 211.333H246.133V213.467H275.2L274.133 212.4L275.2 213.467L275.667 213.4L276 213.133L276.2 212.8L276.267 212.4L276.2 212L276 211.667L275.667 211.4L275.2 211.333L276.267 212.4Z" fill="black"/>
<path d="M307.867 241.467L304.733 241.333L301.733 240.933L298.733 240.333L295.867 239.4L293.133 238.267L290.533 236.933L288.067 235.333L285.8 233.533L283.733 231.533L281.867 229.333L280.267 227L278.8 224.4L277.733 221.667L276.933 218.8L276.467 215.667L276.267 212.4H274.133L274.333 215.933L274.8 219.2L275.733 222.333L276.933 225.333L278.4 228.067L280.133 230.667L282.133 233L284.333 235.133L286.867 237.067L289.467 238.8L292.2 240.267L295.2 241.4L298.2 242.333L301.333 243.067L304.6 243.467L307.867 243.6L308.333 243.533L308.667 243.267L308.867 242.933L308.933 242.533L308.867 242.133L308.667 241.8L308.333 241.533L307.867 241.467Z" fill="black"/>
<path d="M341.333 207.2L340.267 208.267L340.133 211.534L339.733 214.667L339.133 217.8L338.267 220.8L337.133 223.667L335.733 226.4L334.133 229L332.267 231.4L330.133 233.534L327.733 235.534L325.067 237.267L322.133 238.667L319 239.934L315.6 240.734L311.8 241.267L307.867 241.467V243.6L312.067 243.4L316 242.867L319.667 241.934L323.067 240.667L326.133 239.134L328.933 237.267L331.6 235.134L333.867 232.734L335.867 230.2L337.6 227.467L339.133 224.6L340.267 221.467L341.267 218.334L341.867 215.067L342.267 211.667L342.4 208.267L341.333 209.334L342.4 208.267L342.333 207.8L342.067 207.467L341.733 207.267L341.333 207.2L340.933 207.267L340.6 207.467L340.333 207.8L340.267 208.267L341.333 207.2Z" fill="black"/>
<path d="M356.933 208.267L355.867 207.2H341.333V209.334H355.867L354.8 208.267L355.867 209.334L356.333 209.267L356.667 209L356.867 208.667L356.933 208.267L356.867 207.867L356.667 207.534L356.333 207.267L355.867 207.2L356.933 208.267Z" fill="black"/>
<path d="M259.2 246L260.533 244.8L261.933 243.667L263.2 242.467L264.533 241.267L265.8 240.133L267.067 238.933L268.333 237.733L269.6 236.533L270.8 235.333L272 234.133L273.2 232.933L274.333 231.733L275.533 230.533L276.667 229.267L277.8 228.067L278.933 226.8L279.4 226.333L279.933 226L280.467 225.8L281 225.733L281.467 225.8L282 226L282.4 226.333L282.8 226.8L283.4 227.533L284 228.267L284.6 229.067L285.267 229.8L286 230.6L286.8 231.333L287.6 232.067L288.467 232.8L289.333 233.533L290.333 234.267L291.333 234.933L292.4 235.6L293.467 236.267L294.667 236.8L295.933 237.4L297.2 237.867L297.6 238.067L297.867 238.333L298.067 238.733L298.2 239.267L298.267 239.8L298.2 240.333L298.133 240.867L298 241.333L297.4 242.6L296.8 243.933L296.2 245.2L295.6 246.533L294.933 247.8L294.267 249.133L293.6 250.4L292.933 251.733L292.2 253L291.533 254.333L290.8 255.6L290 256.867L289.267 258.133L288.533 259.467L287.733 260.733L286.933 262L286.4 262.8L285.8 263.467L285.267 264L284.733 264.333L284.133 264.6L283.533 264.667H282.933L282.267 264.533L280.4 263.933L278.533 263.267L276.733 262.533L275 261.8L273.333 261.067L271.667 260.2L270.067 259.4L268.6 258.467L267.067 257.533L265.667 256.6L264.333 255.6L263.067 254.6L261.867 253.533L260.733 252.4L259.667 251.267L258.667 250.133L258.467 249.733L258.267 249.267L258.133 248.8V248.2L258.2 247.667L258.4 247.067L258.733 246.533L259.2 246Z" fill="#F5DC0F"/>
<path d="M278.133 226.133V226.067L277 227.333L275.867 228.533L274.733 229.8L273.6 231L272.467 232.2L271.267 233.4L270.067 234.6L268.867 235.733L267.6 236.933L266.333 238.133L265.067 239.333L263.8 240.467L262.467 241.667L261.2 242.867L259.867 244L258.533 245.2L259.867 246.8L261.2 245.6L262.667 244.467L263.933 243.267L265.267 242.067L266.533 240.933L267.8 239.733L269.067 238.533L270.333 237.333L271.533 236.067L272.733 234.867L273.933 233.667L275.067 232.467L276.333 231.267L277.467 230L278.6 228.8L279.733 227.533V227.467V227.533L280 227.133V226.733L279.867 226.333L279.667 226L279.267 225.8L278.933 225.667L278.533 225.8L278.133 226.067V226.133Z" fill="black"/>
<path d="M283.667 226.133V226.2L283.133 225.6L282.533 225.067L281.733 224.733L281 224.667L280.2 224.733L279.467 225.067L278.733 225.467L278.133 226.133L279.733 227.467L280.067 227.2L280.4 226.933L280.733 226.867L281 226.8L281.2 226.867L281.467 226.933L281.667 227.067L281.933 227.4V227.467V227.4L282.267 227.733L282.667 227.867L283.067 227.8L283.4 227.667L283.667 227.4L283.867 227V226.6L283.667 226.2V226.133Z" fill="black"/>
<path d="M297.4 236.8L297.533 236.867L296.333 236.4L295.133 235.867L293.933 235.333L292.933 234.667L291.867 234L290.933 233.4L290 232.667L289.133 232L288.267 231.267L287.533 230.533L286.733 229.867L286.067 229.067L285.4 228.4L284.867 227.6L284.2 226.867L283.667 226.133L281.933 227.467L282.6 228.2L283.133 228.933L283.8 229.733L284.467 230.533L285.267 231.333L286.067 232.133L286.933 232.867L287.8 233.6L288.667 234.4L289.733 235.133L290.8 235.867L291.867 236.533L293 237.2L294.2 237.733L295.533 238.4L296.867 238.867L297 238.933L296.867 238.867L297.333 238.933L297.733 238.8L298 238.533L298.2 238.133L298.267 237.8L298.2 237.4L297.933 237.067L297.533 236.867L297.4 236.8Z" fill="black"/>
<path d="M299 241.733V241.666L299.2 241.133L299.267 240.466L299.333 239.8L299.267 239L299.067 238.333L298.733 237.666L298.267 237.2L297.4 236.8L297 238.933H296.933L297 239L297.067 239.133L297.133 239.533L297.2 239.8L297.133 240.2L297.067 240.6L297 241V240.933V241L296.933 241.466L297.067 241.866L297.333 242.133L297.733 242.333L298.067 242.4L298.467 242.333L298.8 242.066L299 241.666V241.733Z" fill="black"/>
<path d="M287.867 262.533L288.667 261.333L289.467 260L290.2 258.666L290.933 257.466L291.733 256.2L292.467 254.866L293.133 253.533L293.867 252.266L294.533 250.866L295.2 249.6L295.867 248.266L296.533 247L297.2 245.666L297.8 244.4L298.4 243.066L299 241.733L297 240.933L296.4 242.133L295.8 243.466L295.2 244.733L294.667 246.066L294 247.333L293.333 248.666L292.667 249.933L292 251.2L291.267 252.466L290.6 253.8L289.867 255L289.067 256.266L288.333 257.6L287.6 258.933L286.8 260.133L286 261.466V261.4L285.8 261.866L285.867 262.266L286 262.6L286.333 262.866L286.733 263.066H287.133L287.533 262.933L287.867 262.6V262.533Z" fill="black"/>
<path d="M281.933 265.533L282.8 265.733H283.667L284.467 265.6L285.267 265.267L286 264.8L286.533 264.2L287.2 263.467L287.867 262.533L286 261.467L285.6 262.133L285.067 262.733L284.533 263.2L284.2 263.4L283.8 263.6H283.4H283.067L282.6 263.533L282.133 263.467L281.733 263.6L281.467 263.867L281.267 264.2L281.2 264.6L281.267 265L281.533 265.333L281.933 265.533Z" fill="black"/>
<path d="M257.8 250.734L257.867 250.8L258.867 252L260 253.134L261.133 254.334L262.4 255.4L263.667 256.467L265.067 257.467L266.467 258.467L268.067 259.4L269.533 260.334L271.2 261.134L272.867 262L274.6 262.8L276.333 263.534L278.133 264.267L280.067 264.934L281.933 265.534L282.6 263.534L280.733 262.934L278.933 262.267L277.133 261.534L275.4 260.8L273.8 260.134L272.133 259.267L270.6 258.467L269.133 257.534L267.667 256.6L266.267 255.734L265 254.734L263.733 253.8L262.6 252.734L261.467 251.667L260.467 250.534L259.467 249.467L259.533 249.534L259.467 249.467L259.133 249.2L258.733 249.067L258.333 249.134L258 249.334L257.733 249.6L257.6 250L257.667 250.4L257.867 250.8L257.8 250.734Z" fill="black"/>
<path d="M258.533 245.2H258.467L257.867 245.866L257.4 246.666L257.133 247.466L257.067 248.066V248.933L257.267 249.666L257.467 250.133L257.8 250.733L259.533 249.533L259.467 249.333L259.267 248.866L259.2 248.666V248.333L259.267 247.866L259.4 247.466L259.6 247.2L259.933 246.8H259.867H259.933L260.2 246.4L260.333 246L260.2 245.666L260 245.266L259.667 245.066L259.267 244.933H258.867L258.467 245.2H258.533Z" fill="black"/>
<path d="M329.867 235.2L329.533 234.867L329.267 234.4L329.067 233.933L329 233.467L328.933 233L329 232.533L329.067 232.2L329.2 232L329.667 231.533L330.2 231L330.667 230.467L331.133 229.867L331.667 229.333L332.133 228.667L332.667 228.067L333.2 227.333L333.667 226.667L334.133 225.933L334.667 225.2L335.133 224.4L335.6 223.6L336.067 222.733L336.533 221.867L336.933 220.933L337.133 220.667L337.4 220.467L337.667 220.4H338.067L338.4 220.467L338.733 220.6L339.067 220.667L339.333 220.8L340.2 221.133L341 221.533L341.867 221.933L342.733 222.333L343.6 222.8L344.4 223.2L345.267 223.733L346.133 224.2L346.933 224.733L347.8 225.2L348.667 225.733L349.467 226.267L350.333 226.8L351.133 227.333L352 227.867L352.8 228.4L353.333 228.867L353.8 229.333L354.067 229.867L354.2 230.333L354.267 230.867V231.333L354.2 231.8L354.133 232.133L353.8 233.133L353.4 234.067L353 235.067L352.6 236L352.133 236.933L351.667 237.8L351.133 238.667L350.6 239.533L350.067 240.4L349.467 241.2L348.933 242.067L348.333 242.867L347.733 243.6L347.133 244.4L346.467 245.133L345.867 245.867L345.4 246.267L344.867 246.6L344.333 246.8L343.733 246.867L343.133 246.8L342.6 246.667L342.2 246.467L341.867 246.133L341.267 245.467L340.667 244.733L340 244.067L339.333 243.333L338.667 242.667L337.933 242L337.2 241.267L336.4 240.6L335.667 239.933L334.867 239.267L334.067 238.6L333.2 237.933L332.4 237.2L331.533 236.533L330.733 235.867L329.867 235.2Z" fill="#F5DC0F"/>
<path d="M328.467 231.267L328.133 231.733L327.933 232.333L327.867 233L327.933 233.6L328.067 234.2L328.333 234.933L328.733 235.533L329.2 236.067L330.533 234.333L330.333 234.2L330.2 233.867L330.067 233.667V233.333L330 233L330.067 232.733L330 232.667L329.933 232.733L330.2 232.333V232L330.133 231.6L329.933 231.267L329.6 231.067L329.2 231H328.867L328.467 231.267Z" fill="black"/>
<path d="M335.933 220.533V220.466L335.6 221.4L335.133 222.2L334.667 223.066L334.2 223.866L333.8 224.6L333.267 225.333L332.8 226.066L332.333 226.733L331.867 227.4L331.333 228L330.867 228.6L330.333 229.133L329.8 229.8L329.467 230.266L328.933 230.8L328.467 231.266L329.933 232.733L330.4 232.266L330.933 231.733L331.533 231.133L331.933 230.6L332.467 230.066L332.933 229.333L333.467 228.733L334.067 227.933L334.533 227.266L335 226.533L335.533 225.8L336.067 224.933L336.533 224.133L337 223.266L337.467 222.333L337.933 221.4V221.333V221.4L338.067 220.933L337.933 220.533L337.733 220.2L337.4 219.933L337 219.8L336.6 219.866L336.2 220.066L335.933 220.466V220.533Z" fill="black"/>
<path d="M339.733 219.8L339.467 219.667L339.133 219.6L338.8 219.467L338.267 219.333H337.467L336.933 219.533L336.4 219.933L335.933 220.533L337.933 221.333L337.867 221.4V221.467H338L338.333 221.6L338.667 221.667L338.933 221.8L339.4 221.867L339.8 221.8L340.133 221.533L340.333 221.2L340.4 220.8L340.333 220.4L340.133 220.067L339.733 219.8Z" fill="black"/>
<path d="M353.333 227.466H353.4L352.533 226.933L351.667 226.4L350.867 225.866L350 225.333L349.2 224.8L348.333 224.266L347.467 223.8L346.667 223.266L345.8 222.8L344.933 222.266L344.133 221.866L343.267 221.4L342.333 220.933L341.467 220.533L340.667 220.133L339.733 219.8L338.933 221.8L339.733 222.133L340.533 222.533L341.4 222.933L342.2 223.266L343.067 223.733L343.867 224.133L344.733 224.666L345.6 225.133L346.4 225.666L347.267 226.133L348.133 226.666L348.933 227.2L349.8 227.733L350.6 228.266L351.467 228.8L352.2 229.333H352.267L352.2 229.266L352.6 229.466H353L353.4 229.266L353.667 229L353.8 228.666L353.867 228.266L353.733 227.866L353.4 227.533L353.333 227.466Z" fill="black"/>
<path d="M355.133 232.467L355.267 232L355.333 231.467V230.733L355.267 230.067L355.067 229.467L354.667 228.667L354.067 228.067L353.333 227.467L352.267 229.333L352.6 229.667L352.933 230L353.067 230.267L353.133 230.6L353.2 231V231.2L353.133 231.6V231.8L353.067 232.267L353.2 232.667L353.467 232.933L353.867 233.133L354.2 233.2L354.6 233.133L354.933 232.867L355.133 232.467Z" fill="black"/>
<path d="M346.667 246.533L347.267 245.866L347.933 245.066L348.6 244.266L349.2 243.533L349.8 242.666L350.333 241.8L350.933 241L351.533 240.066L352.067 239.2L352.6 238.333L353.067 237.4L353.533 236.466L354 235.466L354.4 234.466L354.8 233.533L355.133 232.466L353.133 231.8L352.8 232.733L352.4 233.666L352 234.666L351.667 235.533L351.2 236.466L350.733 237.266L350.2 238.133L349.667 239L349.2 239.8L348.6 240.6L348.067 241.466L347.467 242.2L346.867 242.933L346.333 243.733L345.667 244.4L345.067 245.2L344.867 245.6L344.8 246L344.933 246.4L345.2 246.666L345.533 246.866L345.933 246.933L346.333 246.8L346.667 246.533Z" fill="black"/>
<path d="M341.067 246.8L341 246.734L341.6 247.334L342.2 247.667L342.933 247.867L343.733 247.934L344.533 247.867L345.333 247.534L346.067 247.134L346.667 246.534L345.067 245.2L344.733 245.4L344.4 245.667L344.133 245.734L343.733 245.8L343.333 245.734L343 245.667L342.8 245.6L342.733 245.534L342.667 245.467L342.733 245.534L342.4 245.2L342 245.067L341.6 245.134L341.267 245.267L341 245.534L340.8 245.934V246.334L341 246.734L341.067 246.8Z" fill="black"/>
<path d="M329.2 236.067L330.067 236.733L330.867 237.4L331.733 238L332.533 238.733L333.4 239.467L334.2 240.067L335 240.733L335.733 241.4L336.467 242.067L337.2 242.733L337.933 243.467L338.533 244.067L339.2 244.8L339.867 245.467L340.467 246.133L341.067 246.8L342.667 245.467L342.067 244.8L341.467 244L340.8 243.333L340.133 242.6L339.4 241.867L338.667 241.267L337.933 240.467L337.067 239.8L336.333 239.133L335.533 238.467L334.733 237.733L333.867 237.133L333.067 236.4L332.2 235.667L331.4 235L330.533 234.333L330.133 234.133H329.667L329.333 234.267L329 234.533L328.8 234.933V235.333L328.867 235.733L329.2 236.067Z" fill="black"/>
<path d="M244.133 189.467L246.2 189.533L248.2 189.667L250.267 189.733H252.333L254.333 189.8L256.4 189.867H258.467H260.533H262.533H264.6L266.667 189.8L268.733 189.733H270.8L272.867 189.667L275 189.533L277.067 189.467L277.667 189.533L278.267 189.733L278.8 190L279.267 190.333L279.6 190.867L279.867 191.4L280.067 192L280.133 192.667V211.2L280.067 211.867L279.867 212.467L279.6 213L279.267 213.467L278.8 213.867L278.267 214.133L277.667 214.333L277.067 214.4L275 214.533L272.933 214.667L270.933 214.8L268.867 214.867L266.8 214.933L264.733 215L262.667 215.067H260.6H258.533L256.467 215H254.4L252.333 214.933L250.267 214.8L248.267 214.733L246.2 214.533L244.133 214.4L243.533 214.333L242.933 214.133L242.4 213.867L241.933 213.467L241.6 213L241.333 212.467L241.133 211.867L241.067 211.2V192.667L241.133 192L241.333 191.4L241.6 190.867L241.933 190.333L242.4 190L242.933 189.733L243.533 189.533L244.133 189.467Z" fill="#F5DC0F"/>
<path d="M277.067 188.4H277L274.933 188.467L272.8 188.6L270.733 188.667H268.667L266.6 188.733L264.533 188.8H262.533H260.533H258.467H256.467L254.4 188.733L252.4 188.667H250.333L248.267 188.6L246.267 188.467L244.2 188.4L244.067 190.533L246.133 190.6L248.133 190.733L250.2 190.8H252.267L254.267 190.867L256.333 190.933H258.467H260.533H262.533H264.667L266.733 190.867L268.8 190.8H270.867L272.933 190.733L275.067 190.6L277.133 190.533H277.067H277.133L277.6 190.4L277.933 190.133L278.067 189.8L278.133 189.4L278 189L277.8 188.667L277.467 188.467L277 188.4H277.067Z" fill="black"/>
<path d="M281.2 192.667L281.133 191.8L280.867 191L280.533 190.333L280.067 189.667L279.333 189.067L278.667 188.733L277.867 188.467L277.067 188.4V190.533L277.467 190.6L277.867 190.733L278.267 190.933L278.467 191L278.667 191.4L278.867 191.8L279 192.2L279.067 192.667L279.133 193.133L279.4 193.467L279.733 193.667L280.133 193.733L280.533 193.667L280.867 193.467L281.133 193.133L281.2 192.667Z" fill="black"/>
<path d="M281.2 211.2V192.667H279.067V211.2L279.133 211.667L279.4 212L279.733 212.2L280.133 212.267L280.533 212.2L280.867 212L281.133 211.667L281.2 211.2Z" fill="black"/>
<path d="M277.133 215.467H277.067L277.867 215.4L278.667 215.134L279.333 214.8L280.067 214.134L280.533 213.534L280.867 212.867L281.133 212.067L281.2 211.2H279.067L279 211.667L278.867 212.067L278.667 212.467L278.467 212.8L278.267 212.934L277.867 213.134L277.467 213.267L277.067 213.334H277H277.067L276.6 213.4L276.267 213.667L276.067 214L276 214.4L276.067 214.8L276.267 215.134L276.6 215.4L277.067 215.467H277.133Z" fill="black"/>
<path d="M244.133 215.467H244.067L246.067 215.6L248.2 215.8L250.2 215.867L252.267 216L254.333 216.067H256.4L258.467 216.133H260.6H262.733L264.8 216.067L266.867 216L268.933 215.933L271 215.867L273 215.733L275.067 215.6L277.133 215.467L277 213.333L274.933 213.467L272.867 213.6L270.867 213.733L268.8 213.8L266.733 213.867L264.667 213.933L262.6 214H260.6H258.6L256.533 213.933H254.467L252.4 213.867L250.333 213.733L248.333 213.667L246.333 213.467L244.2 213.333H244.133H244.2L243.733 213.4L243.4 213.6L243.2 213.933L243.067 214.333L243.133 214.733L243.333 215.067L243.6 215.333L244.067 215.467H244.133Z" fill="black"/>
<path d="M240 211.2L240.067 212.067L240.333 212.867L240.667 213.533L241.133 214.133L241.867 214.8L242.533 215.133L243.333 215.4L244.133 215.467V213.333L243.733 213.267L243.333 213.133L242.933 212.933L242.733 212.8L242.533 212.467L242.333 212.067L242.2 211.667L242.133 211.2L242.067 210.733L241.8 210.4L241.467 210.2L241.067 210.133L240.667 210.2L240.333 210.4L240.067 210.733L240 211.2Z" fill="black"/>
<path d="M240 192.667V211.2H242.133V192.667L242.067 192.2L241.8 191.867L241.467 191.667L241.067 191.6L240.667 191.667L240.333 191.867L240.067 192.2L240 192.667Z" fill="black"/>
<path d="M244.2 188.4H244.133L243.333 188.467L242.533 188.733L241.867 189.067L241.133 189.667L240.667 190.333L240.333 191L240.067 191.8L240 192.667H242.133L242.2 192.2L242.333 191.8L242.533 191.4L242.733 191L242.933 190.933L243.333 190.733L243.733 190.6L244.133 190.533H244.067H244.133L244.6 190.467L244.933 190.2L245.133 189.867L245.2 189.467L245.133 189.067L244.933 188.733L244.6 188.467L244.133 188.4H244.2Z" fill="black"/>
<path d="M340.133 194.267L341.2 194.2L342.333 194.067L343.4 194L344.533 193.933H345.6L346.733 193.867H347.867H348.933H350H351.067L352.133 193.933H353.133L354.133 194L355.133 194.067L356.067 194.2L356.933 194.267L357.4 194.333L357.8 194.4L358.133 194.6L358.467 194.867L358.733 195.2L358.933 195.533L359 195.933L359.067 196.4V207.733L359 208.2L358.933 208.6L358.733 208.933L358.467 209.267L358.133 209.533L357.8 209.733L357.4 209.8L356.933 209.867L355.867 209.8L354.8 209.733L353.8 209.667L352.733 209.6L351.667 209.533H350.6L349.533 209.467H348.467H347.4H346.4H345.333L344.267 209.533L343.267 209.6L342.2 209.667L341.133 209.733L340.133 209.867L339.667 209.8L339.267 209.733L338.933 209.533L338.6 209.267L338.333 208.933L338.133 208.6L338.067 208.2L338 207.733V196.4L338.067 195.933L338.133 195.533L338.333 195.2L338.6 194.867L338.933 194.6L339.267 194.4L339.667 194.333L340.133 194.267Z" fill="#F5DC0F"/>
<path d="M356.933 193.2H357.067L356.2 193.133L355.267 193L354.2 192.933L353.2 192.866H352.2L351.133 192.8H350H348.933H347.867H346.667L345.533 192.866H344.467L343.333 192.933L342.2 193L341.067 193.133L340.067 193.2L340.2 195.333L341.333 195.266L342.467 195.133L343.467 195.066L344.6 195H345.667L346.8 194.933H347.867H348.933H350H351L352.067 195H353.067L354.067 195.066L355 195.133L355.933 195.266L356.8 195.333H356.933H356.8L357.267 195.266L357.6 195.066L357.867 194.733L358 194.333V194L357.8 193.6L357.533 193.333L357.067 193.2H356.933Z" fill="black"/>
<path d="M360.133 196.4L360.067 195.8L359.933 195.2L359.6 194.534L359.2 194.134L358.8 193.734L358.133 193.4L357.533 193.267L356.933 193.2V195.334L357.267 195.4H357.467V195.467L357.733 195.6L357.867 195.867H357.933V196.067L358 196.4L358.067 196.867L358.333 197.2L358.667 197.4L359.067 197.467L359.467 197.4L359.8 197.2L360.067 196.867L360.133 196.4Z" fill="black"/>
<path d="M360.133 207.733V196.4H358V207.733L358.067 208.2L358.333 208.533L358.667 208.733L359.067 208.8L359.467 208.733L359.8 208.533L360.067 208.2L360.133 207.733Z" fill="black"/>
<path d="M356.867 210.933H356.933L357.533 210.867L358.133 210.733L358.8 210.4L359.2 210L359.6 209.6L359.933 208.933L360.067 208.333L360.133 207.733H358L357.933 208.067V208.267H357.867L357.733 208.533L357.467 208.667V208.733H357.267L356.933 208.8H357H356.933L356.467 208.867L356.133 209.133L355.933 209.467L355.867 209.867L355.933 210.267L356.133 210.6L356.467 210.867L356.933 210.933H356.867Z" fill="black"/>
<path d="M340.133 210.933H340.267L341.267 210.8L342.267 210.733L343.333 210.667L344.333 210.6L345.4 210.533H346.4H347.4H348.467H349.467L350.533 210.6H351.6L352.667 210.667L353.733 210.733L354.733 210.8L355.8 210.867L356.867 210.933L357 208.8L355.933 208.733L354.867 208.667L353.867 208.6L352.8 208.533L351.733 208.467H350.667L349.6 208.4H348.467H347.4H346.4H345.267L344.2 208.467L343.2 208.533L342.133 208.6L341 208.667L340 208.8H340.133H340L339.533 208.933L339.267 209.2L339.133 209.6L339.067 209.933L339.2 210.333L339.467 210.667L339.8 210.867L340.267 210.933H340.133Z" fill="black"/>
<path d="M336.933 207.733L337 208.333L337.133 208.933L337.467 209.6L337.867 210L338.267 210.4L338.933 210.733L339.533 210.867L340.133 210.933V208.8L339.8 208.733H339.6V208.667L339.333 208.533L339.2 208.267H339.133V208.067L339.067 207.733L339 207.267L338.733 206.933L338.4 206.733L338 206.667L337.6 206.733L337.267 206.933L337 207.267L336.933 207.733Z" fill="black"/>
<path d="M336.933 196.4V207.733H339.067V196.4L339 195.933L338.733 195.6L338.4 195.4L338 195.333L337.6 195.4L337.267 195.6L337 195.933L336.933 196.4Z" fill="black"/>
<path d="M340.067 193.2H340.133L339.533 193.267L338.933 193.4L338.267 193.734L337.867 194.134L337.467 194.534L337.133 195.2L337 195.8L336.933 196.4H339.067L339.133 196.067V195.867H339.2L339.333 195.6L339.6 195.467V195.4H339.8L340.133 195.334H340.2H340.133L340.6 195.267L340.933 195L341.133 194.667L341.2 194.267L341.133 193.867L340.933 193.534L340.6 193.267L340.133 193.2H340.067Z" fill="black"/>
<path d="M308.467 194.533L308.067 194.267H307.667L307.267 194.4L306.933 194.6L306.733 195L306.6 195.333L306.733 195.733L307 196.133L308.467 194.533Z" fill="black"/>
<path d="M316.667 203.733L317.4 202.933L308.467 194.533L307 196.133L315.933 204.533L316.667 203.733Z" fill="black"/>
<path d="M315.933 204.533L316.333 204.8H316.733L317.133 204.666L317.467 204.4L317.667 204.066L317.8 203.733L317.667 203.333L317.4 202.933L315.933 204.533Z" fill="black"/>
<path d="M301.933 203.133L301.533 202.867H301.2L300.8 202.933L300.533 203.133L300.267 203.467L300.2 203.867V204.2L300.467 204.6L301.933 203.133Z" fill="black"/>
<path d="M310.533 213.2L311.267 212.467L301.933 203.133L300.467 204.6L309.8 213.933L310.533 213.2Z" fill="black"/>
<path d="M309.8 213.933L310.2 214.2H310.533L310.933 214.133L311.267 213.867L311.467 213.6L311.533 213.2V212.867L311.267 212.467L309.8 213.933Z" fill="black"/>
<path d="M272.133 153.467L271.6 152.333L271.067 151.133L270.667 149.933L270.4 148.6V147.333L270.667 146.067L271.267 144.933L272.267 143.867L271.867 145L271.733 146.067V147.067L271.933 148.133L272.267 149.2L272.667 150.333L273.133 151.533L273.6 152.8L272.133 153.467Z" fill="black"/>
<path d="M332.133 151.467L332.4 150.6L332.6 149.733V148.8L332.533 147.867L332.267 146.933L332 145.933L331.6 144.933L331.067 143.867L332 144.867L332.8 145.867L333.4 146.867L333.867 147.867L334.2 148.867L334.4 149.867V150.8L334.267 151.733L332.133 151.467Z" fill="black"/>
</g>
<defs>
<clipPath id="clip0_1_1478">
<rect width="600" height="400" fill="white"/>
</clipPath>
</defs>
</svg>
