<svg width="600" height="400" viewBox="0 0 600 400" fill="none" xmlns="http://www.w3.org/2000/svg" xmlns:cgf="https://coding.garden/flags"><metadata id="cgf-metadata">

<cgf:flag>
  <cgf:name>Waadhoeke</cgf:name>
  <cgf:route>nl/fl/waadhoeke</cgf:route>
  <cgf:aspect-ratio>1.5</cgf:aspect-ratio>
</cgf:flag>

</metadata><g clip-path="url(#clip0_1_1570)">
<path d="M599.921 0H398.322H0.00195312V400H599.921V0Z" fill="#0F47AF"/>
<path d="M5.34797e-05 354.059V308.12L1.42515 306.229C4.18045 302.573 7.13661 298.066 9.08735 294.548C14.1629 285.396 20.4019 277.942 27.9561 272.006C31.944 268.873 37.4023 265.339 42.066 262.87C47.7453 259.865 53.1125 257.764 59.2756 256.135C63.6082 254.99 66.2982 254.487 72.8571 253.596C78.6457 252.809 82.7534 251.956 87.0203 250.656C97.7979 247.373 106.486 242.042 114.439 233.833C116.827 231.368 119.216 228.555 121.34 225.707C123.995 222.15 127.036 217.506 128.638 214.565C131.996 208.397 135.469 203.583 140.172 198.578C142.901 195.673 145.217 193.5 148.022 191.21C157.689 183.321 169.342 177.761 181.912 175.038C184.632 174.449 186.582 174.125 191.209 173.493C197.777 172.596 202.345 171.631 206.801 170.198C221.508 165.47 232.667 156.658 242.914 141.681C244.847 138.856 246.289 136.542 247.614 134.135C249.662 130.415 252.046 126.803 254.752 123.32C256.345 121.269 261.23 116.076 263.209 114.331C270.82 107.617 279.314 102.832 289.392 99.5824C297.441 96.9867 301.788 95.9971 310.088 94.8711C312.409 94.5562 315.583 94.0449 317.143 93.7349C336.186 89.9485 349.638 80.7296 361.607 63.2607C363.3 60.7902 365.292 57.599 366.462 55.4818C372.118 45.2552 379.379 37.0476 388.351 30.7413C392.005 28.1737 394.792 26.5844 400.154 24.0124C411.084 18.7687 417.653 16.846 430.549 15.1147C443.105 13.4292 452.562 10.1137 461.274 4.34296C462.639 3.43891 465.52 1.29463 466.414 0.516941L466.873 0.118164H533.436H600L599.967 51.7905L599.934 103.463L554.439 133.641C529.417 150.24 508.796 163.959 508.615 164.128C508.143 164.57 335.091 279.358 334.615 279.545C334.398 279.631 319.948 289.172 302.505 300.748L270.791 321.795L270.725 322.506L270.659 323.216L212.796 361.607L154.933 399.998H77.4667H0V354.059H5.34797e-05Z" fill="#FCDD09"/>
<path d="M155.486 400L599.921 101.621V400H155.486Z" fill="#06882F"/>
</g>
<defs>
<clipPath id="clip0_1_1570">
<rect width="600" height="400" fill="white"/>
</clipPath>
</defs>
</svg>
