<svg width="600" height="400" viewBox="0 0 600 400" fill="none" xmlns="http://www.w3.org/2000/svg" xmlns:cgf="https://coding.garden/flags"><metadata id="cgf-metadata">

<cgf:flag>
  <cgf:name>Weststellingwerf</cgf:name>
  <cgf:route>nl/fl/weststellingwerf</cgf:route>
  <cgf:aspect-ratio>1.5</cgf:aspect-ratio>
</cgf:flag>

</metadata><g clip-path="url(#clip0_1_2293)">
<path d="M0 0H155.467V155.467H0V0Z" fill="white"/>
<path d="M0 244.533H155.467V400H0V244.533Z" fill="#CC112F"/>
<path d="M244.533 0H600V155.467H244.533V0Z" fill="#CC112F"/>
<path d="M244.533 244.533H600V400H244.533V244.533Z" fill="white"/>
<path d="M0 200V155.467H155.467V0H200V200H0Z" fill="#CC112F"/>
<path d="M0 244.533H155.467V400H200V200H0V244.533Z" fill="white"/>
<path d="M244.533 0V155.467H600V200H200V0H244.533Z" fill="white"/>
<path d="M200 400H244.533V244.533H600V200H200V400Z" fill="#CC112F"/>
<path d="M109.792 149.142C108.566 148.888 107.759 148.283 107.444 147.38C107.33 147.054 107.298 146.84 107.296 146.405C107.294 145.884 107.37 145.419 107.543 144.878L107.615 144.654L107.49 144.551C107.121 144.249 106.929 143.861 106.929 143.422C106.929 142.936 107.156 142.441 107.623 141.909L107.831 141.673H107.142C106.456 141.673 106.453 141.673 106.152 141.601C105.8 141.518 105.479 141.421 105.166 141.305L104.942 141.222L104.821 141.315C104.475 141.58 104.039 142.016 103.814 142.32C103.373 142.919 103.199 143.423 103.231 144.017C103.256 144.482 103.396 144.852 103.766 145.429C103.79 145.466 103.763 145.458 103.63 145.39C102.828 144.978 102.223 144.366 101.987 143.729C101.606 142.696 101.988 141.463 103.106 140.115L103.37 139.797L103.355 139.667C103.292 139.141 103.437 138.738 103.861 138.262C104.533 137.506 105.613 137.053 106.857 137.007C107.853 136.97 108.831 137.229 109.691 137.757C109.971 137.928 110.117 137.953 110.863 137.953C111.477 137.953 111.691 137.932 112.224 137.813C113.975 137.419 115.915 136.309 117.602 134.734C119.091 133.344 120.329 131.613 120.939 130.067L121.059 129.762L120.984 129.594C120.47 128.443 120.619 126.644 121.423 124.278C121.699 123.467 121.928 122.893 122.509 121.554C122.751 120.998 122.854 120.736 122.846 120.701C122.84 120.673 122.784 120.598 122.723 120.535C122.24 120.04 120.706 119.437 119.35 119.207C118.811 119.116 118.602 119.1 117.979 119.101C117.298 119.101 117.001 119.137 116.498 119.276C114.675 119.779 113.729 121.283 113.731 123.677C113.731 124.414 113.791 125.02 113.953 125.931C114.102 126.763 114.1 127.198 113.949 127.714C113.5 129.242 111.643 130.428 109.053 130.841C106.546 131.241 103.907 130.854 102.186 129.834C101.974 129.709 101.456 129.327 101.33 129.203L101.246 129.121L101.56 129.203C102.738 129.508 103.829 129.622 104.689 129.531C105.953 129.398 106.807 128.938 107.382 128.08C107.635 127.704 107.834 127.161 107.925 126.604C107.972 126.313 107.978 125.492 107.936 125.164C107.751 123.734 107.148 122.281 106.227 121.046C105.417 119.96 104.441 117.791 103.794 115.641C102.725 112.091 102.464 108.838 103.071 106.626C103.112 106.477 103.149 106.333 103.154 106.307C103.163 106.265 103.108 106.236 102.645 106.041C102.192 105.851 100.788 105.304 100.752 105.304C100.745 105.304 100.727 105.392 100.713 105.499C100.674 105.79 100.533 106.525 100.449 106.874C99.6565 110.142 97.6571 114.147 94.9854 117.817C94.7146 118.189 94.6143 118.351 94.3433 118.855C93.7986 119.869 93.6647 120.148 93.4935 120.627C93.0468 121.876 93.2259 122.901 94.0648 123.894C94.3851 124.274 94.8852 124.711 95.4226 125.081C95.5742 125.185 95.6926 125.271 95.6857 125.271C95.6788 125.271 95.5619 125.302 95.4259 125.341C94.1485 125.705 92.9525 125.524 91.8106 124.795C91.0047 124.281 90.1333 123.367 89.3185 122.183C89.2174 122.036 89.1301 121.921 89.1244 121.928C89.0796 121.978 88.8318 123.175 88.7744 123.618C88.6464 124.607 88.6879 125.637 88.8896 126.474C89.1029 127.359 89.4632 128.212 89.9901 129.079C90.0758 129.22 90.143 129.338 90.1395 129.342C90.1286 129.353 89.5971 129.22 89.3027 129.132C88.7557 128.967 88.3017 128.778 87.8309 128.516C87.112 128.117 86.6549 127.737 85.8956 126.909C85.706 126.702 85.5797 126.576 85.615 126.628C85.9217 127.079 86.2265 127.853 86.3631 128.527C86.5841 129.619 86.5158 130.717 86.1808 131.457L86.0886 131.661L86.1376 131.868C86.2663 132.411 86.3216 133.104 86.2736 133.57C86.1176 135.082 85.121 135.945 83.3626 136.092L83.1847 136.107L83.3578 135.989C83.9987 135.553 84.3479 135.087 84.4979 134.469C84.5372 134.307 84.545 134.215 84.5447 133.92C84.5447 133.531 84.521 133.376 84.3963 132.938C84.3176 132.661 84.3138 132.658 84.1161 132.658C83.9868 132.658 83.6828 132.592 83.394 132.501C82.7456 132.297 82.0342 131.921 81.239 131.363L80.9675 131.173L80.8094 131.522C80.3539 132.526 79.6914 133.332 78.8106 133.954C78.585 134.114 77.9838 134.452 77.7391 134.558L77.5885 134.623L77.8124 134.814C78.0849 135.047 78.4474 135.448 78.5681 135.651C78.8338 136.096 78.8781 136.464 78.7093 136.822C78.3727 137.537 77.0692 138.04 75.3938 138.101L74.9699 138.117L74.917 138.305C74.7936 138.746 74.774 138.893 74.7726 139.384C74.771 139.915 74.7912 140.035 74.9398 140.388C75.1641 140.92 75.5795 141.34 76.1945 141.657L76.3619 141.743H76.0314C75.319 141.743 74.7223 141.602 74.2379 141.316C73.538 140.904 73.124 140.236 72.9801 139.289C72.9356 138.997 72.9245 138.329 72.9586 138.003C72.9682 137.912 72.9749 137.836 72.9737 137.834C72.9723 137.831 72.8551 137.786 72.7129 137.732C71.855 137.409 71.3786 136.951 71.285 136.361C71.255 136.172 71.2753 135.934 71.341 135.707C71.3607 135.639 71.3731 135.579 71.3684 135.575C71.3637 135.57 71.115 135.559 70.8158 135.551L70.2716 135.536L70.0937 135.715C69.1943 136.62 68.1117 137.16 66.7765 137.37C66.3995 137.429 65.369 137.429 64.9871 137.37C64.3394 137.269 63.6629 137.074 63.2221 136.86C63.1665 136.833 63.104 136.811 63.0834 136.811C63.0293 136.811 62.6467 137.159 62.4242 137.411C61.9071 137.995 61.6733 138.537 61.6757 139.144C61.6774 139.607 61.7993 140.019 62.0708 140.48C62.1087 140.544 62.1357 140.601 62.1309 140.606C62.1163 140.623 61.7712 140.402 61.5464 140.233C60.9102 139.753 60.5247 139.189 60.392 138.544C60.3531 138.354 60.3478 137.916 60.3822 137.708C60.4872 137.07 60.8887 136.271 61.4055 135.672C61.5063 135.555 61.5193 135.53 61.4974 135.495C61.247 135.091 61.1694 134.629 61.2879 134.246C61.4384 133.76 61.8355 133.35 62.5153 132.98C62.6828 132.889 62.8107 132.811 62.7995 132.807C62.7883 132.803 62.504 132.7 62.1676 132.578C61.6291 132.382 61.5289 132.338 61.3304 132.207C61.0281 132.009 60.6364 131.713 60.4525 131.544C60.37 131.468 60.2888 131.406 60.2721 131.406C60.2553 131.406 60.1313 131.444 59.9965 131.49C58.811 131.896 58.0207 132.512 57.7018 133.281C57.5878 133.555 57.5508 133.766 57.5504 134.144C57.5504 134.462 57.5632 134.582 57.6319 134.885C57.6473 134.954 57.6472 134.954 57.5972 134.915C57.4973 134.837 57.1748 134.41 57.0201 134.15C56.5379 133.34 56.4731 132.548 56.8253 131.774C56.947 131.506 57.0759 131.311 57.3159 131.032C57.7422 130.536 58.2341 130.153 59.0151 129.71L59.3531 129.519L59.3785 129.395C59.5033 128.786 60.0804 128.274 60.9123 128.032C61.3366 127.908 61.5611 127.879 62.0781 127.879C62.7596 127.879 63.2489 127.968 63.8675 128.205C64.6868 128.519 65.4747 129.112 66.016 129.822C66.1234 129.963 66.179 130.013 66.3101 130.087C67.4002 130.705 68.9486 130.934 70.6795 130.733C73.1184 130.449 75.7936 129.366 77.8375 127.835C78.3778 127.43 78.8272 127.034 79.2999 126.544L79.5589 126.276L79.5458 126.121C79.4781 125.325 79.4662 125.012 79.4761 124.291C79.4863 123.551 79.5049 123.292 79.5838 122.796C79.6264 122.528 79.7287 122.102 79.801 121.892L79.8604 121.718L79.4716 122.156C78.951 122.743 78.5451 123.11 77.9404 123.542C76.76 124.384 75.4819 124.911 74.1121 125.121C73.676 125.188 72.6012 125.182 72.1972 125.11C70.9617 124.892 69.9202 124.34 69.0578 123.446C67.7707 122.111 66.9177 120.148 66.483 117.519C66.4552 117.351 66.435 117.21 66.438 117.207C66.4411 117.203 66.4963 117.283 66.5607 117.383C66.8879 117.891 67.493 118.613 67.8963 118.976C68.5749 119.588 69.324 120.009 70.1043 120.22C71.0561 120.477 72.1036 120.428 73.1494 120.079C73.9109 119.824 74.7896 119.341 75.5039 118.784C76.4735 118.027 77.371 117.023 78.0452 115.941C78.499 115.213 78.8877 114.354 79.0884 113.635C79.1229 113.512 79.217 113.241 79.2976 113.033C79.9576 111.329 80.9215 109.679 82.1536 108.144C82.5073 107.703 83.1194 107.011 83.4525 106.675C83.5992 106.527 83.7164 106.403 83.7128 106.399C83.7093 106.395 82.9439 106.727 82.012 107.136C79.9582 108.039 78.4917 108.667 77.8528 108.918C77.0485 109.233 76.2475 109.565 74.3842 110.355C70.8702 111.845 69.5636 112.361 68.0009 112.876C66.5484 113.355 65.08 113.72 63.857 113.905C61.6995 114.232 59.7367 114.143 57.8743 113.634C57.6859 113.583 57.5204 113.541 57.5064 113.541C57.4924 113.541 57.3993 113.652 57.2994 113.787C56.5588 114.792 55.4133 115.924 53.9159 117.132C52.1514 118.555 49.543 120.298 46.5663 122.044C43.3257 123.945 40.2642 125.591 35.1009 128.211L33.0394 129.257L32.8511 129.477C32.4034 130.001 32.1544 130.522 32.0872 131.076C32.004 131.761 32.3033 132.496 32.9466 133.186C33.3518 133.621 33.4984 133.738 35.2219 135.003L36.3998 135.867L36.6555 135.821C37.4886 135.671 38.3099 135.684 38.9623 135.856C40.5612 136.278 41.5861 137.568 41.8214 139.454C41.8595 139.76 41.8535 140.454 41.8099 140.776C41.7365 141.319 41.6059 141.801 41.41 142.252L41.3176 142.465L41.3884 142.822C41.5019 143.393 41.5328 143.733 41.5196 144.269C41.5075 144.764 41.4836 144.935 41.3762 145.296C41.1505 146.053 40.6514 146.611 39.9228 146.921C39.7334 147.002 39.3451 147.113 39.1293 147.148C38.9658 147.174 38.2579 147.221 38.2433 147.206C38.2393 147.202 38.3051 147.159 38.3898 147.112C38.8214 146.869 39.1006 146.628 39.3331 146.299C39.7391 145.724 39.8459 144.961 39.6406 144.104C39.6173 144.006 39.5881 143.897 39.5758 143.861C39.5509 143.789 39.5623 143.789 39.2657 143.857C39.1909 143.874 38.9906 143.901 38.8205 143.917C38.2381 143.971 37.6046 143.866 37.1289 143.636C35.9108 143.048 35.0873 141.714 34.8361 139.922C34.7774 139.504 34.7832 138.577 34.8471 138.171C34.8734 138.004 34.8994 137.854 34.9051 137.838C34.9172 137.802 34.1204 137.198 33.5732 136.828C31.4887 135.42 29.3998 134.535 27.5143 134.262C25.9371 134.035 24.5626 134.285 23.708 134.956C23.6203 135.024 23.3721 135.26 23.1564 135.48C22.0537 136.602 21.0855 137.421 19.9276 138.211C17.5485 139.833 14.8181 140.874 11.8353 141.297L11.4552 141.351L11.2492 141.634C10.2458 143.017 9.24775 143.95 8.33307 144.359C7.97103 144.52 7.60747 144.599 7.22633 144.599C6.46963 144.599 5.87447 144.329 5.0753 143.624C5.02667 143.581 5.02438 143.582 4.82221 143.704C4.53526 143.878 4.37686 143.992 4.14231 144.193C3.46033 144.778 3.13834 145.507 3.22321 146.274C3.24983 146.514 3.31061 146.778 3.39174 147.004C3.41678 147.074 3.43337 147.135 3.42859 147.141C3.40929 147.162 3.07607 146.843 2.85593 146.591C2.48849 146.171 2.2658 145.756 2.15596 145.288C2.09048 145.009 2.09489 144.589 2.16662 144.281C2.35382 143.476 2.97826 142.651 3.97889 141.887C4.12219 141.778 4.30025 141.648 4.37459 141.599L4.50977 141.51L4.5139 141.102C4.51817 140.655 4.54605 140.45 4.64845 140.108C4.93127 139.164 5.69181 138.559 6.88918 138.323C7.34239 138.234 7.57266 138.217 8.28095 138.217C8.95026 138.217 9.17057 138.231 9.82658 138.314C10.0968 138.348 10.1828 138.349 10.4843 138.324C12.8885 138.123 14.9669 137.151 17.4268 135.077C17.8171 134.748 18.8395 133.843 18.8395 133.827C18.8395 133.822 18.7289 133.871 18.5936 133.936C17.0608 134.668 15.477 135.019 14.0468 134.945C13.1359 134.897 12.3022 134.706 11.4961 134.358L11.2789 134.265L11.0357 134.522C10.366 135.231 9.65025 135.726 8.86513 136.022C7.39431 136.576 5.90674 136.334 4.95478 135.386C4.82654 135.259 4.60201 134.968 4.54879 134.861C4.53129 134.825 4.51283 134.827 4.33334 134.876C3.86211 135.005 3.31802 135.242 2.98705 135.46C2.37785 135.863 2.03453 136.338 1.88362 136.988C1.83311 137.206 1.82245 137.714 1.86333 137.954C1.87639 138.031 1.88357 138.098 1.87925 138.102C1.86605 138.117 1.60738 137.756 1.47847 137.543C1.31279 137.269 1.14395 136.865 1.07779 136.584C1.0063 136.281 0.997702 135.809 1.05897 135.549C1.16585 135.095 1.36205 134.732 1.71807 134.332C2.07794 133.927 2.41909 133.657 2.98594 133.328C3.26394 133.166 3.92243 132.846 4.04978 132.81C4.08235 132.801 4.11171 132.781 4.11501 132.767C4.11821 132.752 4.1359 132.654 4.1541 132.548C4.34698 131.427 5.22085 130.726 6.66942 130.53C7.00178 130.485 7.86726 130.492 8.25999 130.543C9.46831 130.699 10.6088 131.057 11.6117 131.596C12.0145 131.812 12.8126 132.102 13.4504 132.264C15.0101 132.661 16.419 132.613 17.5733 132.123C17.863 132 18.404 131.705 18.4815 131.628C18.4889 131.621 18.3983 131.331 18.1023 130.415C17.9726 130.014 17.7288 129.45 17.5723 129.188C17.048 128.312 16.2787 127.581 15.1148 126.852C14.9827 126.77 14.865 126.702 14.8532 126.702C14.8413 126.702 14.6951 126.762 14.5282 126.834C13.3973 127.323 12.265 127.538 11.3365 127.441C9.95378 127.297 8.97109 126.668 8.42979 125.582L8.36294 125.447L8.12311 125.44C7.83989 125.431 7.29879 125.47 7.00427 125.522C5.7761 125.735 5.02806 126.325 4.73533 127.313C4.7005 127.431 4.65883 127.62 4.64275 127.733C4.62666 127.846 4.6089 127.944 4.60327 127.95C4.58661 127.969 4.46277 127.639 4.37685 127.347C4.17919 126.676 4.1831 126.035 4.38805 125.506C4.79077 124.469 5.9249 123.765 7.72466 123.437L8.08931 123.371L8.15061 123.217C8.31383 122.809 8.71053 122.3 9.08678 122.018C10.2576 121.138 11.7519 121.216 13.2799 122.236C13.9178 122.662 14.4787 123.176 15.1769 123.972C15.5939 124.447 15.6184 124.471 16.0455 124.8C18.6105 126.776 20.0889 128.479 20.7338 130.202C20.81 130.405 20.8346 130.445 21.0161 130.651C21.517 131.221 22.1553 131.523 23.1927 131.681C23.4246 131.717 23.6138 131.724 24.2496 131.724C24.6755 131.724 25.1558 131.71 25.3169 131.695C26.505 131.58 27.7678 131.446 27.7787 131.434C27.7859 131.425 27.8695 131.254 27.9645 131.053C28.4655 129.992 28.8921 129.342 29.6279 128.519C29.8981 128.217 30.2941 127.839 31.6688 126.572C36.4167 122.196 38.6774 119.966 40.8356 117.53C43.9299 114.038 45.8339 111.065 46.7531 108.29C47.0919 107.267 47.3151 106.164 47.358 105.3C47.3656 105.148 47.3774 105.015 47.3843 105.004C47.398 104.983 47.9589 104.744 48.4851 104.536C49.1719 104.264 49.8567 103.932 50.46 103.58C50.6368 103.476 50.7765 103.405 50.7704 103.422C50.556 103.997 50.4358 104.402 50.3511 104.832C50.2542 105.325 50.2295 105.575 50.218 106.177C50.2029 106.971 50.2372 107.314 50.4317 108.313C50.5719 109.034 50.5966 109.269 50.5964 109.883C50.5964 110.598 50.5355 111.013 50.3361 111.666C50.0835 112.492 49.7459 113.122 48.7384 114.65C48.4088 115.15 48.1472 115.562 48.157 115.565C48.1827 115.575 49.5561 115.098 49.9436 114.945C51.9555 114.149 53.4811 112.82 54.5072 110.968C54.9355 110.195 55.122 109.734 55.7052 108.006C56.4135 105.908 57.2423 104.155 58.121 102.897C58.2957 102.647 58.5607 102.302 58.809 102.001L58.9738 101.802L59.0003 102.025C59.0792 102.688 59.2144 103.182 59.4642 103.72C59.6253 104.067 59.8001 104.339 60.0466 104.627C60.3104 104.935 60.4276 105.039 61.0319 105.505C63.0025 107.025 64.0733 108.127 64.5743 109.151C64.6908 109.389 64.7835 109.662 64.9348 110.213C65.0349 110.578 65.1396 110.889 65.3062 111.317C65.4338 111.646 65.5446 111.919 65.5526 111.924C65.5605 111.93 65.6313 111.783 65.7098 111.599C65.9923 110.935 66.1779 110.525 66.3783 110.12C66.7963 109.276 66.9564 108.869 67.0717 108.355C67.2309 107.647 67.2114 106.998 67.0084 106.243C66.7677 105.348 66.1447 104.148 65.5136 103.362C64.8087 102.484 64.4341 101.754 64.2827 100.961C64.2541 100.812 64.2449 100.666 64.246 100.383C64.248 99.8938 64.3062 99.5637 64.5203 98.8284L64.6775 98.2882L64.9005 98.535C66.4448 100.244 68.2187 101.12 70.5545 101.328C70.7675 101.347 71.0604 101.363 71.2055 101.363C71.5096 101.363 72.2856 101.434 72.7387 101.504C73.7768 101.663 74.6317 101.931 75.3814 102.331C76.0009 102.661 76.5094 103.056 77.2936 103.817C77.8408 104.347 78.867 105.308 78.8759 105.298C78.8872 105.285 78.6351 103.373 78.5377 102.734C78.202 100.532 77.6386 99.0347 76.6061 97.602C76.1441 96.961 75.7285 96.5035 74.8872 95.7101C74.0756 94.9448 73.6275 94.4548 73.1604 93.8224C72.6685 93.1564 72.3405 92.59 72.0304 91.8708C71.7247 91.1618 71.5283 90.4846 71.4156 89.7513C71.3571 89.3703 71.3515 89.3157 71.3199 88.8212C71.2938 88.4126 71.2879 88.3746 71.2376 88.2927C71.088 88.0494 70.7846 88.0419 70.6255 88.2776L70.565 88.3673L70.567 88.7112C70.5693 89.1047 70.5983 89.4328 70.6721 89.9046C70.9936 91.9601 71.9675 93.86 73.5544 95.5279C73.7519 95.7355 74.1725 96.1494 74.4891 96.4478C75.1154 97.0381 75.5849 97.5483 75.9269 98.0105C76.9051 99.3323 77.4201 100.634 77.753 102.625C77.8215 103.035 77.8441 103.204 77.8307 103.204C77.8254 103.204 77.7095 103.097 77.573 102.966C76.4257 101.864 75.4217 101.282 74.0193 100.903C73.2385 100.693 71.978 100.514 71.2578 100.513C70.9518 100.513 70.3817 100.464 69.9998 100.407C68.3482 100.161 66.993 99.4889 65.8154 98.3328C65.5097 98.0326 65.2822 97.7743 64.8154 97.1973C64.5739 96.8988 64.3694 96.6515 64.3611 96.648C64.3527 96.6445 64.291 96.8462 64.224 97.0964C64.1569 97.3466 64.0097 97.8607 63.8968 98.2389C63.5566 99.379 63.494 99.7156 63.4934 100.407C63.4934 100.809 63.5001 100.915 63.5401 101.124C63.7272 102.099 64.1535 102.944 64.965 103.947C65.2882 104.347 65.7103 105.056 65.9685 105.632C66.5345 106.896 66.5648 107.803 66.0787 108.939C65.9241 109.3 65.6432 109.868 65.6307 109.844C65.6247 109.833 65.596 109.739 65.5668 109.635C65.4593 109.253 65.3516 108.969 65.1998 108.667C64.6379 107.551 63.4963 106.372 61.4503 104.796C60.7169 104.231 60.495 103.996 60.2091 103.481C60.0078 103.119 59.8635 102.664 59.7731 102.105C59.7332 101.858 59.7259 101.707 59.7152 100.899L59.7029 99.9757L59.2195 100.439C58.6028 101.03 58.395 101.248 58.0955 101.618C57.2495 102.663 56.5981 103.773 55.9109 105.34C55.5218 106.227 55.2596 106.917 54.875 108.065C54.7598 108.409 54.6234 108.808 54.5718 108.951C53.7983 111.092 52.6015 112.585 50.8629 113.579C50.5355 113.766 50.1879 113.942 50.146 113.942C50.1352 113.942 50.1643 113.879 50.2107 113.802C50.4599 113.388 50.786 112.713 50.9242 112.325C51.2552 111.394 51.3846 110.595 51.3555 109.659C51.339 109.13 51.291 108.748 51.145 107.988C50.9931 107.197 50.9564 106.813 50.971 106.167C50.9897 105.34 51.1222 104.66 51.4147 103.888C51.6689 103.218 52.1316 102.395 52.5037 101.953C52.7226 101.693 52.843 101.533 52.9933 101.305C53.0791 101.175 53.0957 101.136 53.0743 101.114C53.0596 101.099 52.9277 100.978 52.7811 100.845L52.5147 100.604L52.4019 100.741C52.2518 100.925 52.0142 101.236 51.9064 101.391C51.757 101.606 51.3995 101.937 50.9747 102.254C50.2733 102.777 49.3454 103.281 48.3176 103.696C48.0874 103.789 47.7955 103.909 47.6688 103.963C47.1814 104.168 47.0214 104.229 46.0624 104.574C44.6968 105.066 44.1632 105.294 43.5982 105.626C42.4135 106.321 41.7133 107.297 41.5022 108.547C41.2829 109.846 40.9215 110.863 40.4222 111.586C40.2666 111.811 39.8263 112.203 39.4025 112.493C39.1012 112.7 38.6326 112.855 37.7384 113.046C37.3163 113.135 36.7736 113.263 36.6708 113.296C36.6323 113.308 36.6708 113.25 36.8173 113.078C37.0764 112.771 37.2179 112.573 37.4099 112.249C37.7515 111.673 37.9858 111.05 38.1139 110.378C38.2566 109.63 38.2568 108.659 38.1139 107.771C38.0474 107.356 38.0247 106.905 38.0367 106.236C38.053 105.32 38.1424 104.74 38.3633 104.117C38.7014 103.164 39.3468 102.484 40.2234 102.158L40.4269 102.083L40.0293 102.075C39.2897 102.062 38.6025 102.12 38.1222 102.236C36.8273 102.549 35.6319 103.535 34.1867 105.481C33.7665 106.047 33.314 106.544 32.8918 106.902C31.2407 108.304 29.2236 108.662 26.8621 107.971C25.3262 107.522 23.6221 106.62 21.8117 105.297C21.0111 104.712 20.9152 104.645 20.6627 104.49C19.8087 103.966 18.9219 103.636 18.0227 103.508C17.7402 103.467 16.9276 103.466 16.6414 103.505C15.8534 103.614 15.0043 103.926 14.3049 104.362C13.9997 104.553 13.5428 104.899 13.2614 105.152C12.9705 105.414 12.3483 106.113 12.1219 106.431C12.0268 106.565 11.9462 106.672 11.9426 106.668C11.9306 106.654 12.0335 105.957 12.0987 105.61C12.7683 102.043 14.712 99.8677 18.0227 98.9808C20.2327 98.3888 23.0501 98.3298 27.1895 98.7888C28.2125 98.9022 29.0097 98.8845 29.8175 98.7304C31.8017 98.3519 33.3333 97.1881 34.6009 95.0957C34.9239 94.5625 35.0082 94.3844 35.1715 93.8903C35.3675 93.2974 35.5359 92.8497 35.764 92.3153L35.9434 91.8949L35.8935 91.8558C35.8271 91.8039 35.2435 91.2742 35.0064 91.0508C33.7102 89.8291 32.1868 88.1409 30.9141 86.5158C28.761 83.7666 26.8354 80.7426 24.9712 77.1827C24.2846 75.8717 23.9266 75.2883 23.3091 74.4743C21.8586 72.5624 19.8443 70.9547 18.1751 70.3768C17.697 70.2112 17.2949 70.1584 17.0475 70.2286C16.9059 70.2687 16.8796 70.2945 15.7463 71.5031L14.787 72.5262L14.8161 72.8012C14.8547 73.1668 14.8372 73.8561 14.7807 74.1972C14.6136 75.2053 14.1458 76.0011 13.387 76.5682C12.8107 76.9988 12.1956 77.2396 11.2941 77.3874C10.9945 77.4366 9.97971 77.4293 9.64071 77.3756C8.97274 77.2698 8.32894 77.0694 7.80555 76.8045L7.54782 76.674L7.31762 76.7004C4.81899 76.9855 3.28539 76.1898 2.98494 74.4525C2.94334 74.212 2.92316 73.654 2.94799 73.4303L2.96631 73.2651L3.0208 73.3831C3.26719 73.9167 3.64618 74.3567 4.07364 74.6054C4.59358 74.9079 5.25327 75.0144 5.9991 74.9163C6.37226 74.8672 6.3527 74.8779 6.33524 74.7317C6.25107 74.0261 6.30892 73.4694 6.51915 72.962C6.80275 72.2777 7.29474 71.7566 8.05012 71.3404C8.63536 71.018 9.28435 70.8183 10.1325 70.6997C10.4255 70.6588 11.5508 70.6591 11.8592 70.6997C12.1179 70.7342 12.6114 70.8282 12.8001 70.8789L12.9248 70.9124L13.1659 70.6725C13.502 70.3379 14.3419 69.3893 14.656 68.9894C16.2108 67.0099 17.1362 65.084 17.3931 63.2933C17.437 62.987 17.4565 62.4959 17.4368 62.1899C17.4017 61.6442 17.319 61.2808 17.1322 60.8506C16.9754 60.4896 16.8054 60.2478 16.3858 59.7887C14.3461 57.557 12.9873 55.2476 12.1807 52.6415C11.7804 51.3479 11.5064 49.8353 11.4299 48.4956C11.3969 47.9171 11.4211 47.9827 11.1626 47.7707C9.4743 46.3859 8.57614 45.164 8.43583 44.0607C8.35532 43.4279 8.56926 42.7691 9.04408 42.1875C9.17023 42.033 9.46382 41.7412 9.6041 41.6308C9.6415 41.6014 9.67211 41.5672 9.67211 41.5547C9.67211 41.5423 9.62074 41.436 9.55795 41.3185C9.04482 40.3587 8.42311 39.8109 7.642 39.6304C7.2819 39.5473 6.6915 39.5678 6.27604 39.678C6.12671 39.7177 6.13558 39.7009 6.37082 39.499C6.86184 39.0775 7.45851 38.7674 7.97687 38.6644C8.26424 38.6073 8.72207 38.6121 8.99327 38.6751C9.76544 38.8544 10.4424 39.3248 11.1131 40.1481C11.2983 40.3755 11.6297 40.8553 11.7876 41.1245L11.8592 41.2467L12.058 41.2609C13.0884 41.3356 13.7498 41.6044 14.2343 42.1456C14.5684 42.5188 14.7647 42.9526 14.885 43.5834C14.941 43.8772 14.9629 44.6548 14.9267 45.0638C14.8816 45.5734 14.7852 46.1535 14.6523 46.7156C14.5967 46.9504 14.5904 47.0132 14.5907 47.3292C14.593 49.6675 15.4205 51.7756 17.3417 54.3367C17.6454 54.7416 18.4489 55.7617 18.4575 55.7533C18.4607 55.7501 18.4289 55.6586 18.387 55.5496C18.027 54.6137 17.8234 53.8269 17.7159 52.9561C17.6699 52.5839 17.6643 51.6671 17.7058 51.304C17.7499 50.9174 17.8459 50.4525 17.9615 50.0654C18.0843 49.6545 18.3542 49.0213 18.5587 48.6646L18.6986 48.4207L18.5228 48.2418C17.7102 47.4143 17.1979 46.4963 16.9949 45.5036C16.9322 45.197 16.9173 44.5679 16.9651 44.2458C17.0813 43.4618 17.451 42.7803 18.021 42.2995C18.1526 42.1886 18.5934 41.9095 18.7281 41.8519C18.7304 41.8519 18.7047 41.7257 18.6709 41.5736C18.3736 40.2373 17.7256 39.4045 16.767 39.1267C16.5037 39.0504 16.3324 39.0257 15.9613 39.0106L15.6055 38.9961L15.7938 38.8869C16.4826 38.4879 17.2535 38.2948 17.8619 38.369C18.9269 38.4989 19.7669 39.2137 20.4266 40.5517C20.5432 40.788 20.7584 41.3175 20.8302 41.5444L20.8599 41.6382L21.1209 41.7129C21.6451 41.863 21.9588 42.0516 22.2723 42.4048C22.4666 42.6238 22.5726 42.7913 22.6918 43.0673C22.9849 43.7458 23.0235 44.7688 22.7956 45.82C22.5556 46.927 22.0374 48.1125 21.4147 48.9793C21.0854 49.4377 20.6266 50.4278 20.3873 51.1964C19.9553 52.5838 19.9771 53.8868 20.451 55.0055C20.5315 55.1955 20.7182 55.5736 20.7534 55.6176C20.7671 55.6348 22.3025 55.3043 22.6062 55.2189C23.8652 54.8644 24.8427 54.1643 25.9365 52.8334L26.1633 52.5574L26.1 52.3982C25.9974 52.1404 25.8574 51.6872 25.7907 51.397C25.3783 49.603 25.7412 48.0397 26.7886 47.0984C27.076 46.8402 27.5271 46.5777 27.8936 46.4555C28.0439 46.4054 28.0332 46.4383 28.0709 45.9111C28.2017 44.082 27.4837 42.9442 25.9861 42.6077L25.7559 42.556L26.028 42.4817C26.465 42.3626 26.699 42.3296 27.1163 42.3285C27.3887 42.3285 27.551 42.3392 27.7023 42.3695C29.0513 42.6404 29.8675 43.773 30.1186 45.7223C30.1421 45.9041 30.1614 46.0952 30.1616 46.1472C30.1616 46.2652 30.181 46.3478 30.2076 46.3478C30.2566 46.3478 30.6328 46.5705 30.8125 46.7058C31.0367 46.8747 31.3809 47.2494 31.5279 47.4847C32.0446 48.3118 32.093 49.2697 31.6663 50.2284C31.2099 51.2542 30.2526 52.2436 28.7616 53.2306C28.4283 53.4513 28.3664 53.5035 28.0225 53.8538C26.952 54.9446 25.9446 55.8251 25.0757 56.4295C24.0452 57.1464 23.0452 57.6397 22.0934 57.9006C21.6605 58.0193 21.418 58.1736 21.0668 58.5534C20.4606 59.2092 20.1718 60.1354 20.0933 61.6765C20.0712 62.111 20.0812 64.1141 20.1073 64.4437C20.1188 64.5882 20.118 64.5912 20.0675 64.5912C19.881 64.5912 19.9716 64.8836 20.3572 65.5258C21.2389 66.9943 23.2788 69.6342 25.3678 72.01C26.8755 73.7246 28.0522 74.9105 28.8429 75.5121C29.1068 75.7129 31.3203 77.7979 32.6938 79.1396C34.3548 80.7619 35.4213 81.872 36.651 83.258C37.8214 84.5773 38.4511 85.3556 39.1587 86.357C39.3123 86.5744 39.4418 86.7523 39.4465 86.7523C39.4512 86.7523 39.5411 86.6667 39.6463 86.562C40.7247 85.4887 42.0983 84.4562 43.6504 83.5522L44.0843 83.2995L44.0719 83.1083C44.0651 83.0032 43.9541 80.5914 43.8253 77.7486C43.6964 74.9059 43.5882 72.5761 43.5848 72.5712C43.5813 72.5663 43.5146 72.6152 43.4364 72.6798C42.6959 73.292 41.888 73.6895 41.0026 73.8773C40.3426 74.0173 39.5372 74.0218 38.8469 73.8894C37.6826 73.6661 36.5416 73.09 35.4878 72.1931C35.3042 72.0368 34.9354 71.6993 34.8514 71.6107C34.8338 71.5922 34.8857 71.6024 34.981 71.6366C35.6702 71.8834 36.5404 71.8965 37.3183 71.6718C38.4084 71.3569 39.2829 70.5643 39.786 69.4353C39.8308 69.3346 39.9354 69.0611 40.0184 68.8275C40.4284 67.6731 40.8968 66.7952 41.5031 66.0441C41.5631 65.9698 41.5677 65.9585 41.5258 65.9874C41.222 66.1968 40.6862 66.4704 40.291 66.6179C38.7932 67.1771 37.3045 67.1166 35.8989 66.4396C34.8659 65.9421 33.8972 65.0598 33.1528 63.9383C33.0047 63.715 32.652 63.1221 32.652 63.0963C32.652 63.0882 32.7188 63.1304 32.8004 63.1899C33.4439 63.6593 34.4767 63.9246 35.3204 63.8371C36.2877 63.7369 37.0698 63.3569 37.7978 62.6335C37.9718 62.4606 38.1382 62.2565 38.512 61.7577C39.2186 60.8149 39.9969 60.0424 40.6739 59.612C40.7406 59.5695 40.7918 59.531 40.7877 59.5263C40.7837 59.5217 40.6865 59.5382 40.5722 59.5631C40.0605 59.6746 39.881 59.6927 39.2969 59.6919C38.8182 59.6919 38.6857 59.6831 38.4306 59.6384C36.764 59.3467 35.4022 58.381 34.371 56.7596C34.2746 56.6081 34.1396 56.378 34.0709 56.2482C33.9295 55.9814 33.5485 55.1232 33.5637 55.1061C33.5691 55.0998 33.6088 55.1325 33.6517 55.1784C33.9257 55.4713 34.5172 55.8126 35.0483 55.984C35.5257 56.1382 36.2493 56.2073 36.7249 56.1442C37.3358 56.0631 37.9158 55.8374 38.475 55.4631C38.7414 55.2847 39.0435 55.0157 39.4748 54.5728C39.9578 54.0766 40.286 53.7739 40.6572 53.4819C41.4842 52.8315 42.2892 52.4126 43.2314 52.1426L43.587 52.0407L43.3988 52.0264C42.4319 51.9528 41.6426 51.7241 40.8901 51.2993C39.0429 50.2566 38.026 48.2188 38.1009 45.7105C38.1167 45.1811 38.1354 44.9317 38.1593 44.9317C38.169 44.9317 38.1772 44.9454 38.1772 44.9625C38.1772 45.014 38.3379 45.3716 38.4292 45.5232C38.9132 46.3269 39.7323 46.9625 40.6174 47.2212C41.0144 47.3373 41.2811 47.3729 41.7351 47.3704C42.4006 47.3669 42.752 47.2901 43.7227 46.9361C44.0741 46.8079 44.5377 46.6528 44.7529 46.5913L45.1443 46.4796L45.2114 46.3134C45.7174 45.0606 46.326 44.0048 46.9979 43.2141C47.1192 43.0714 47.2184 42.9477 47.2184 42.9393C47.2184 42.9309 47.1211 42.7783 47.0021 42.6003C45.3484 40.1258 44.1785 37.7379 43.5052 35.4625C43.1513 34.2666 42.9502 33.2127 42.8307 31.9277C42.7849 31.4348 42.7784 30.0509 42.8196 29.5558C42.8573 29.1041 42.9201 28.5801 42.9825 28.1988C43.0583 27.7346 43.1979 27.0479 43.2425 26.9187C43.363 26.5702 43.6189 26.4563 43.9111 26.6209C44.3771 26.8835 44.9404 27.879 45.4625 29.3621C45.5091 29.4946 45.5536 29.6101 45.5613 29.6187C45.5691 29.6274 45.6752 29.6456 45.7971 29.6592C46.2522 29.7101 46.5563 29.8767 46.8953 30.261C47.039 30.4239 47.1601 30.5922 47.2762 30.7905C47.4443 31.0774 47.7005 31.6353 47.8175 31.9696L47.8776 32.1413L47.9927 32.1771C48.056 32.1968 48.2131 32.2559 48.3417 32.3083C49.0765 32.6076 49.5211 33.2298 49.7393 34.2641C49.7709 34.4134 49.7995 34.5471 49.8031 34.5612C49.8067 34.5752 49.9194 34.6101 50.0536 34.6386C51.4354 34.932 52.1973 35.8524 52.4201 37.4975C52.4729 37.888 52.4839 38.8093 52.4419 39.3383C52.4228 39.5785 52.4018 39.7949 52.3953 39.8192C52.3813 39.8706 52.3772 39.8728 52.5866 39.7156C53.5085 39.0235 54.76 38.5113 56.1863 38.2423C56.3705 38.2076 56.5417 38.1745 56.5667 38.1687C56.6098 38.1588 56.6015 38.1331 56.4171 37.704C55.8455 36.3732 55.4776 35.1804 55.2579 33.9455C55.1237 33.1912 55.0683 32.6225 55.0521 31.8324C55.0301 30.7606 55.1102 29.9046 55.3366 28.795C55.4103 28.4336 55.455 28.3215 55.5619 28.2296C55.7255 28.0889 55.9442 28.1591 56.1857 28.4301C56.4932 28.7751 56.7924 29.3747 57.1415 30.345C57.2089 30.5324 57.2759 30.6942 57.2903 30.7046C57.3047 30.7148 57.3644 30.7234 57.423 30.7237C57.5788 30.7237 57.8364 30.8058 57.9945 30.9047C58.1799 31.0207 58.4601 31.3395 58.6239 31.6209C58.7688 31.8696 58.9325 32.2273 59.053 32.5582L59.1322 32.7757L59.2498 32.813C59.4166 32.8658 59.5748 32.9365 59.7442 33.0338C59.9187 33.1341 60.2293 33.4713 60.3358 33.6761C60.4402 33.8768 60.5485 34.1953 60.6142 34.4948C60.6468 34.6436 60.6776 34.77 60.6827 34.7757C60.6878 34.7814 60.7811 34.8066 60.8902 34.8317C61.8589 35.0549 62.4501 35.6789 62.6845 36.7256C62.7732 37.1217 62.7907 37.291 62.8039 37.8809L62.8161 38.4178L62.8917 38.4401C62.9333 38.4525 63.0662 38.4902 63.1871 38.524C64.3536 38.8509 65.1577 39.3015 65.3351 39.7277C65.3621 39.7926 65.3843 39.8781 65.3844 39.9178C65.3844 40.0215 65.2887 40.2236 65.2001 40.306L65.1239 40.3767H65.1862C65.2205 40.3767 65.4134 40.3874 65.6148 40.4001C69.8732 40.6682 74.0272 41.9965 77.2617 44.1245C79.992 45.9207 81.9611 48.1706 83.1215 50.8197C83.5667 51.8361 83.8524 52.7512 84.0647 53.8407L84.1337 54.1947L84.1353 53.5967C84.1454 49.6545 84.9595 46.4731 86.7256 43.4731C87.854 41.5563 89.4697 39.6497 91.4829 37.8593C92.4701 36.9813 93.8426 35.9141 94.9989 35.1254C95.1658 35.0116 95.519 34.7565 95.7837 34.5585C98.7489 32.3412 100.557 29.814 101.441 26.6525C101.644 25.9261 101.806 25.1593 101.917 24.3915C101.963 24.0778 101.98 24.0014 102 24.0257C102.064 24.1034 102.347 24.6697 102.551 25.1303C103.056 26.2676 103.335 27.2939 103.455 28.4462C103.492 28.7943 103.486 29.6162 103.445 29.9566C103.337 30.8486 103.068 31.6201 102.677 32.164C102.531 32.3665 102.535 32.3674 102.777 32.1855C106.182 29.6177 110.099 26.4242 112.67 24.1202C112.863 23.9465 113.026 23.8096 113.032 23.8159C113.065 23.8526 112.708 25.3352 112.514 25.9738C111.314 29.905 108.941 32.8285 104.958 35.2806C103.833 35.9727 103.589 36.1257 103.213 36.3713C99.3817 38.879 96.5656 41.5177 94.5564 44.4829C93.3638 46.2432 92.4275 48.2479 91.8395 50.3006C91.2977 52.1916 91.0163 54.0759 90.8931 56.6374C90.8531 57.4696 90.8626 59.8422 90.9138 61.8059C90.9787 64.2899 90.9885 65.1571 90.9619 66.0305C90.949 66.4524 90.9326 66.8729 90.9255 66.9651L90.9125 67.1328L90.4913 67.1492C89.3816 67.1921 88.2756 67.3512 87.3419 67.602C84.6136 68.335 82.7867 69.9524 81.8907 72.4281C81.5085 73.4841 81.294 74.6641 81.228 76.0727C81.2165 76.3194 81.207 76.5696 81.2069 76.6289V76.7367L81.0447 76.7792C80.8563 76.8286 80.2676 77.0265 80.0244 77.1223C78.7276 77.633 77.8513 78.3512 77.4605 79.2234C77.0924 80.0451 77.1354 81.005 77.5883 82.077C77.6564 82.2381 77.7094 82.3729 77.7062 82.3765C77.703 82.3803 77.5922 82.4359 77.4601 82.5002C77.0923 82.6795 76.9715 82.7448 76.6653 82.9295C75.4237 83.6783 74.6288 84.5844 74.3052 85.6196C74.1834 86.0092 74.1643 86.1529 74.1651 86.6695C74.1663 87.083 74.172 87.1693 74.2149 87.3657C74.3921 88.1762 74.7616 88.8906 75.3669 89.5931C76.4808 90.8858 78.1179 91.8424 79.9407 92.2659C80.4433 92.3827 80.9118 92.4406 81.479 92.456C82.2375 92.4767 82.8299 92.4117 83.4479 92.2402L83.6693 92.1788L84.4525 92.652C89.191 95.5154 93.2871 97.2946 96.5686 97.9149C97.6221 98.114 98.3734 98.1866 99.3521 98.1838C100.658 98.1801 101.673 98.0113 102.837 97.6042C103.443 97.3922 104.046 97.113 105.348 96.44C106.223 95.9882 106.708 95.8114 107.227 95.7555L107.368 95.7402V95.3198V94.8995L107.3 94.8861C107.262 94.8785 107.152 94.861 107.054 94.8468C106.076 94.7045 104.851 94.3958 103.81 94.0291C101.092 93.0715 98.5513 91.3144 96.2864 88.8257C95.6792 88.1585 94.8117 87.1406 94.8337 87.1213C94.8382 87.1173 95.2987 87.2286 95.857 87.3686C97.1987 87.7052 98.4275 87.9974 99.0591 88.1302C101.831 88.7131 104.052 88.8793 106.164 88.6623C109.126 88.358 111.721 87.2805 114.02 85.4002L114.237 85.2227L114.481 85.3358C115.163 85.6524 115.927 86.0726 116.556 86.4765C117.475 87.0668 118.307 87.7267 119.088 88.4834C119.384 88.7708 120.183 89.6737 120.437 90.0089C120.975 90.7188 121.488 91.5414 121.841 92.2569C121.896 92.3704 121.953 92.4633 121.966 92.4633C122.014 92.4633 122.6 92.3237 122.902 92.2403C126.06 91.3683 128.797 89.5832 131.3 86.7638C133.371 84.4306 135.222 81.5316 137.426 77.17C138.002 76.0289 137.943 76.1598 138.093 75.6878C138.527 74.3155 138.793 73.0643 138.911 71.8363C138.953 71.4065 138.947 70.177 138.901 69.7594C138.694 67.8829 138.041 66.2764 136.839 64.6852C136.559 64.3145 135.873 63.5401 135.554 63.2338C135.432 63.1169 135.336 63.0177 135.34 63.0133C135.353 62.998 135.947 63.157 136.344 63.282C137.84 63.7533 138.848 64.3407 139.597 65.1785C139.973 65.5989 140.209 65.9508 140.666 66.7739C141.057 67.4761 141.367 67.9845 141.39 67.959C141.395 67.9535 141.29 67.43 141.157 66.7952C139.626 59.4946 138.898 53.4004 138.956 48.3889C138.976 46.6892 139.061 45.3428 139.234 43.9873C139.695 40.3802 140.666 37.6303 142.223 35.5264C142.478 35.1807 143.023 34.5615 143.333 34.2643C145.178 32.4926 147.571 31.5444 150.596 31.3854C151.123 31.3577 152.037 31.3528 152.059 31.3774C152.067 31.3865 151.925 31.4325 151.743 31.4796C149.989 31.9342 148.578 32.6734 147.426 33.7405C147.13 34.0143 146.619 34.5919 146.377 34.9246C145.207 36.5385 144.518 38.6177 144.246 41.3558C144.107 42.7539 144.078 44.5161 144.161 46.5715C144.175 46.935 144.193 47.2454 144.201 47.2612C144.209 47.2787 144.337 47.1264 144.527 46.8723C145.058 46.1659 145.606 45.5762 146.149 45.1286C147.382 44.1121 148.94 43.5402 150.957 43.3635C151.162 43.3458 151.331 43.3336 151.334 43.3366C151.337 43.3398 151.238 43.4043 151.114 43.4802C150.405 43.9149 149.803 44.4049 149.291 44.9666C148.505 45.8281 148.009 46.7673 147.76 47.8695C147.456 49.218 147.52 50.664 147.963 52.4009L148.059 52.7785L148.061 53.2977C148.063 53.6075 148.052 53.9216 148.035 54.0765C147.904 55.2839 147.518 56.3025 146.766 57.4278C146.427 57.935 146.21 58.2109 145.236 59.371L145.011 59.6386L145.261 59.4513C146.496 58.5249 147.815 57.9696 149.225 57.7829C149.675 57.7234 150.37 57.6902 150.743 57.7106C150.959 57.7224 151.066 57.7364 151.046 57.7503C151.029 57.7621 150.857 57.8768 150.664 58.0053C149.981 58.4603 149.258 59.0376 148.713 59.5648C148.371 59.8948 147.691 60.6674 147.426 61.0264C146.828 61.8367 146.407 62.5644 145.991 63.505C145.5 64.6173 145.177 65.6231 144.833 67.116C144.635 67.9745 144.598 68.2036 144.578 68.6972C144.478 71.1081 144.073 72.8019 143.325 73.9312C142.915 74.5506 142.449 74.9906 141.539 75.617C141.016 75.9769 140.497 76.3585 140.4 76.4549C140.346 76.5081 140.292 76.6362 140.123 77.1154C139.733 78.2179 139.242 79.428 138.764 80.4669C135.648 87.2386 131.104 91.9883 124.822 95.0408C124.421 95.2357 123.531 95.6393 123.247 95.7548C123.158 95.7911 123.085 95.8308 123.085 95.843C123.085 95.8552 123.117 96.0423 123.157 96.2588C123.354 97.3485 123.433 98.3759 123.414 99.5907C123.386 101.281 123.177 102.801 122.716 104.653C122.547 105.332 122.154 106.608 121.898 107.306C121.888 107.331 121.899 107.336 121.941 107.327C121.983 107.318 121.997 107.324 121.997 107.353C121.997 107.374 121.978 107.709 121.955 108.099C121.874 109.479 121.91 109.95 122.136 110.468C122.309 110.866 122.618 111.158 123.051 111.333C123.29 111.429 123.595 111.499 123.922 111.532C124.338 111.574 124.425 111.566 124.749 111.461C127.116 110.695 128.404 110.348 129.448 110.198C129.816 110.145 130.584 110.126 130.866 110.163C131.985 110.309 132.616 110.889 132.836 111.972C132.908 112.326 132.928 112.564 132.927 113.055C132.925 113.55 132.897 113.883 132.806 114.486C132.663 115.429 132.324 116.81 132.112 117.314C131.903 117.812 131.769 118.239 131.686 118.679C131.622 119.016 131.607 119.615 131.655 119.937C131.792 120.861 132.274 121.601 133.122 122.19C133.764 122.635 134.466 122.922 135.674 123.232L135.758 123.254L135.54 123.414C134.119 124.461 132.474 124.545 130.557 123.67C129.996 123.414 129.261 122.985 128.631 122.545C128.47 122.433 128.41 122.401 128.405 122.427C128.396 122.469 128.45 122.864 128.519 123.274C128.692 124.294 128.999 125.237 129.397 125.98C129.962 127.034 130.765 127.956 131.839 128.785C131.962 128.881 132.064 128.966 132.064 128.974C132.064 128.982 131.953 129.002 131.818 129.017C130.68 129.147 129.759 129.096 128.879 128.854C128.362 128.711 127.55 128.366 126.998 128.053C126.904 128 126.824 127.96 126.819 127.965C126.815 127.97 126.88 128.027 126.963 128.092C127.854 128.792 128.663 129.987 128.979 131.071C129.11 131.519 129.138 131.7 129.146 132.139L129.154 132.556L129.328 132.817C129.745 133.443 130.022 134.1 130.11 134.672C130.155 134.965 130.139 135.455 130.076 135.699C129.87 136.5 129.246 137.149 128.215 137.634C128.13 137.674 128.07 137.693 128.081 137.677C128.092 137.66 128.152 137.576 128.215 137.49C128.449 137.166 128.621 136.774 128.687 136.414C128.731 136.174 128.715 135.761 128.651 135.511C128.555 135.131 128.311 134.669 128.002 134.282L127.864 134.109L127.656 134.16C127.341 134.237 127.085 134.263 126.651 134.263C126.015 134.263 125.363 134.167 124.542 133.952C124.347 133.901 124.186 133.859 124.184 133.859C124.182 133.859 124.174 133.996 124.167 134.163C124.134 134.949 123.996 135.572 123.703 136.255C123.436 136.88 123.119 137.363 122.614 137.915C122.445 138.1 122.31 138.254 122.314 138.258C122.318 138.261 122.434 138.304 122.571 138.353C123.375 138.64 123.903 139.031 124.086 139.476C124.162 139.66 124.172 139.913 124.114 140.131C123.909 140.892 122.812 141.763 121.341 142.335L121.136 142.414L121.149 142.568C121.258 143.777 121.771 144.642 122.614 145.038C122.891 145.168 123.413 145.306 123.631 145.306C123.774 145.306 123.735 145.342 123.497 145.429C122.935 145.636 122.64 145.692 122.122 145.692C121.78 145.692 121.68 145.684 121.5 145.64C120.658 145.435 120.02 144.87 119.561 143.925C119.44 143.675 119.292 143.283 119.212 143L119.164 142.83L119.036 142.843C118.878 142.86 118.314 142.813 118.116 142.767C117.627 142.652 117.25 142.403 117.05 142.064C116.961 141.912 116.878 141.643 116.858 141.441C116.85 141.36 116.835 141.293 116.826 141.293C116.816 141.293 116.585 141.368 116.313 141.459C116.041 141.55 115.815 141.624 115.81 141.624C115.806 141.624 115.754 141.731 115.696 141.863C115.062 143.288 113.958 144.318 112.443 144.896C111.672 145.191 110.99 145.312 110.091 145.315L109.518 145.318L109.425 145.495C109.117 146.08 108.969 146.559 108.944 147.048C108.906 147.81 109.218 148.472 109.878 149.023C110.035 149.155 110.095 149.212 110.062 149.198C110.059 149.198 109.938 149.171 109.792 149.141L109.792 149.142ZM71.9005 79.615C72.3483 79.1478 73.0397 78.653 73.7355 78.3019C73.8679 78.2351 73.9841 78.1724 73.9939 78.1626C74.0036 78.1529 73.9558 78.0506 73.8876 77.9357C73.6312 77.5032 73.4457 77.0506 73.3544 76.6346C73.2895 76.3386 73.289 75.8637 73.3532 75.6108C73.4472 75.2414 73.5882 74.9675 73.8421 74.6609C74.3291 74.0729 75.1356 73.595 76.4037 73.1433C76.5921 73.0761 76.6529 73.0449 76.6473 73.0184C76.6244 72.9107 76.6204 71.4791 76.642 71.1657C76.7277 69.9269 76.9395 69.0018 77.3423 68.1073C77.729 67.2487 78.3135 66.489 79.0292 65.915C80.3118 64.8863 82.1909 64.2618 84.4697 64.107L84.7084 64.0908L84.6951 63.2622C84.6829 62.5021 84.6524 61.8172 84.5969 61.0529C84.5552 60.4784 84.4475 59.2004 84.4401 59.1921C84.436 59.1875 84.2947 59.2379 84.1261 59.3041C83.5705 59.5226 83.0604 59.6422 82.5113 59.6829C82.3017 59.6985 82.1728 59.7213 82.044 59.7658C81.6029 59.9181 81.0888 59.9993 80.5685 59.9987C80.155 59.9987 79.9083 59.9711 79.5116 59.882C77.8178 59.5017 76.1046 58.1889 74.3411 55.9197C73.7123 55.1107 73.2665 54.6364 72.6377 54.1073C71.465 53.1208 70.0543 52.3675 68.5659 51.9333C68.185 51.8222 67.6874 51.6984 67.6755 51.7119C67.6717 51.7161 67.8022 51.7765 67.9655 51.846C69.5349 52.5143 70.9699 53.5099 72.3218 54.8683C73.4027 55.9543 74.4567 57.3381 75.4147 58.9288C75.6819 59.3725 76.0626 60.0411 76.0538 60.051C76.0502 60.0551 75.8184 59.8633 75.5386 59.625C74.3672 58.6276 73.5631 58.0506 72.5946 57.5126C71.9144 57.1347 71.3942 56.9022 70.7151 56.6725C69.6367 56.3078 68.3545 56.0987 67.1873 56.0972H66.8029L66.3837 56.5595C64.7908 58.3161 63.2204 59.274 61.5512 59.507C60.4118 59.6661 59.1645 59.4583 58.0018 58.9156C57.9067 58.8712 57.821 58.8349 57.8112 58.8349C57.7886 58.8349 57.6557 59.5932 57.6004 60.0385C57.4492 61.2536 57.4356 62.4647 57.5596 63.6612C57.8839 66.7894 59.1309 69.8763 61.5208 73.4669C62.163 74.4317 63.2041 75.8679 63.3425 75.9798C63.743 76.3038 64.665 76.9085 65.3324 77.2849C66.8072 78.1169 68.7943 78.9318 70.9203 79.5765C71.4554 79.7388 71.6683 79.8034 71.7015 79.8139C71.7053 79.8139 71.7947 79.7258 71.9003 79.6156L71.9005 79.615ZM43.2283 64.5484C43.3185 64.4914 43.3968 64.4315 43.4024 64.4152C43.408 64.3987 43.4094 64.347 43.4058 64.3001L43.3993 64.2147L43.2117 64.4429C43.1086 64.5683 43.0332 64.6667 43.0443 64.6614C43.0553 64.6564 43.1382 64.6053 43.2284 64.5484H43.2283ZM84.4022 58.6632C84.3637 58.0948 84.3148 57.6239 84.3047 57.7251L84.294 57.8313L84.2234 57.6425C83.415 55.4823 81.3713 53.1519 78.8316 51.4946C76.8579 50.2066 74.761 49.4486 72.7626 49.3007C71.5547 49.2113 70.3222 49.3868 69.2083 49.8067C68.9084 49.9198 68.4109 50.1473 68.4261 50.1645C68.4309 50.1699 68.5606 50.1901 68.7144 50.2093C69.253 50.2767 69.8188 50.3995 70.287 50.5506C70.4212 50.594 70.6198 50.6339 70.8159 50.657C72.5056 50.8561 74.0637 51.5122 75.4307 52.6005C75.9918 53.0472 76.36 53.4072 76.9271 54.0638C77.7459 55.0118 78.3447 55.6808 78.5909 55.9225C80.1959 57.498 81.8226 58.4767 83.3139 58.7642C83.5707 58.8137 83.6354 58.8099 83.9016 58.73C83.962 58.7117 84.0115 58.7006 84.0115 58.7052C84.0115 58.7098 83.9729 58.7379 83.9257 58.7677C83.8445 58.8192 83.8425 58.823 83.8891 58.8377C83.9161 58.8464 84.0456 58.8544 84.1768 58.8558L84.4153 58.8585L84.4022 58.6638L84.4022 58.6632ZM43.0471 58.5738C43.1947 58.5344 43.3354 58.4974 43.3597 58.4916C43.3979 58.4825 43.4054 58.4594 43.4153 58.3214C43.4217 58.2335 43.4236 58.158 43.4197 58.1536C43.4159 58.149 43.292 58.2352 43.1443 58.3447C42.9967 58.4542 42.843 58.5665 42.8027 58.5943C42.7064 58.6606 42.7292 58.6586 43.047 58.5738H43.0471ZM42.5191 107.841C42.6795 107.505 42.8954 107.212 43.1713 106.957L43.3364 106.804L43.1585 107.023C42.8841 107.36 42.7497 107.54 42.6102 107.759C42.4403 108.025 42.4252 108.038 42.5191 107.841ZM98.85 97.3366C97.4205 97.2607 96.0567 97.0063 94.494 96.5238C91.7013 95.6616 88.5482 94.1532 84.7231 91.8496L83.7499 91.2635L83.572 91.3229C82.8992 91.5474 82.2916 91.6311 81.5001 91.6084C79.9709 91.5647 78.4152 91.029 77.1155 90.0984C75.9817 89.2866 75.2234 88.2894 74.9779 87.2872C74.9052 86.9902 74.8871 86.5162 74.9377 86.2338C75.0827 85.4253 75.5892 84.7029 76.4667 84.0531C77.0307 83.6354 77.5614 83.3515 78.6433 82.8888C78.7354 82.8494 78.8091 82.8082 78.8071 82.7973C78.805 82.7863 78.6986 82.5755 78.5704 82.3289C78.2959 81.8006 78.2025 81.5863 78.1018 81.2532C77.8282 80.3485 77.9716 79.6247 78.547 79.0072C79.1056 78.4078 80.0162 77.9481 81.432 77.5507L81.9605 77.4024V76.9982C81.9617 75.0055 82.2342 73.4868 82.8255 72.1806C83.6554 70.3474 85.1419 69.1267 87.3232 68.4873C88.3529 68.1854 89.4321 68.0356 90.8921 67.9919C91.2887 67.9801 91.6161 67.9672 91.6196 67.9631C91.6334 67.9475 91.6937 66.7701 91.7158 66.085C91.7433 65.2289 91.7305 64.049 91.6682 61.7136C91.6171 59.7947 91.6076 57.5105 91.6474 56.6748C91.723 55.0845 91.8629 53.7784 92.0871 52.5683C92.9015 48.1728 94.9465 44.4984 98.4522 41.1314C99.6549 39.9763 101.112 38.802 102.701 37.7072C103.379 37.2395 104.335 36.6231 104.909 36.2835C107.664 34.6512 109.754 32.7582 111.213 30.5723C112.196 29.1007 112.955 27.3705 113.439 25.5001C113.495 25.2805 113.545 25.0972 113.549 25.0926C113.553 25.088 113.6 25.1987 113.652 25.3385C114.167 26.7044 114.421 27.9906 114.421 29.2323C114.421 30.6662 114.075 31.871 113.421 32.7214C113.283 32.9006 113.25 32.9276 112.859 33.1849C112.63 33.3352 112.42 33.4659 112.391 33.4753C112.362 33.4848 112.308 33.5184 112.27 33.55C112.043 33.7419 112.099 34.1528 112.369 34.2746C112.414 34.295 112.461 34.3315 112.472 34.3557C112.487 34.387 112.51 34.3969 112.552 34.3901C112.651 34.3739 113.276 34.6604 113.708 34.9202C114.732 35.5352 115.377 36.2598 115.643 37.0938C115.751 37.4335 115.77 37.5744 115.77 38.0302C115.77 38.4798 115.754 38.6066 115.642 39.0332C115.309 40.2924 114.319 41.6982 112.931 42.8808C112.237 43.4722 111.762 43.7914 110.647 44.4173C110.017 44.7709 109.885 44.8529 109.925 44.8669C109.952 44.8763 110.355 44.9648 110.821 45.0635C111.738 45.2577 112.088 45.3487 112.558 45.5155C114.022 46.0347 114.895 46.8503 115.083 47.8758C115.13 48.1317 115.114 48.6465 115.051 48.9179C114.705 50.4038 113.297 51.8928 111.668 52.4944C111.321 52.6224 111.155 52.6604 110.256 52.8159C109.801 52.8946 109.406 52.9649 109.377 52.972C109.339 52.9816 109.576 53.0945 110.288 53.4056C111.519 53.9436 111.836 54.1084 112.345 54.4733C112.776 54.7818 113.19 55.1942 113.429 55.5538C113.587 55.7907 113.774 56.2023 113.836 56.4506C113.893 56.6782 113.914 57.1566 113.877 57.4129C113.82 57.815 113.649 58.2603 113.402 58.6515C113.25 58.8916 112.853 59.3464 112.63 59.5358C111.791 60.2487 110.806 60.644 109.748 60.6919C109.486 60.7038 109.44 60.7116 109.439 60.7436C109.437 60.7644 109.425 60.9513 109.41 61.159C109.396 61.3667 109.385 61.5394 109.388 61.5428C109.39 61.5463 109.526 61.5756 109.69 61.6081C110.488 61.766 111.131 61.9947 111.773 62.3495C113.441 63.2705 114.256 64.8287 113.886 66.3874C113.544 67.8289 112.251 68.913 110.455 69.2644C109.969 69.3595 109.802 69.3721 109.042 69.3709C108.358 69.3709 108.249 69.3635 107.661 69.2943C107.31 69.2528 107.001 69.2188 106.974 69.2187C106.935 69.2187 107.017 69.3321 107.404 69.8146C107.667 70.1423 107.963 70.5233 108.061 70.6613C108.663 71.5081 109.054 72.4352 109.17 73.2898C109.211 73.5998 109.202 74.1216 109.149 74.4171C109.047 74.9904 108.833 75.4758 108.481 75.9307C107.917 76.6609 106.942 77.2359 105.861 77.4762C104.885 77.6931 104.039 77.7098 102.685 77.5386C102.332 77.4939 102.04 77.461 102.036 77.4654C102.032 77.4697 102.124 77.6797 102.239 77.932C102.538 78.5844 102.606 78.8354 102.631 79.3681C102.672 80.2856 102.302 81.376 101.621 82.3407C101.427 82.6145 100.894 83.2119 100.639 83.4399C98.6207 85.2464 95.957 85.7432 93.3246 84.8041C93.1577 84.7445 92.7538 84.5745 92.427 84.4262C92.1002 84.2779 91.83 84.1598 91.8266 84.1638C91.8231 84.1678 91.8706 84.4415 91.9322 84.7721C92.0771 85.5504 92.0993 85.7754 92.0834 86.3005C92.0593 87.091 91.8854 87.7605 91.5365 88.4061C91.0284 89.3463 90.2057 90.0137 89.2121 90.2917C88.8057 90.4055 88.6696 90.4215 88.1134 90.4213C87.6644 90.4213 87.5351 90.4127 87.299 90.3693C86.2602 90.1781 85.1982 89.7024 84.1474 88.9578C84.0207 88.8681 83.8908 88.7816 83.8586 88.7656C83.7843 88.7287 83.6166 88.7294 83.5596 88.7656C83.3965 88.8729 83.3329 88.9946 83.3461 89.1743C83.3609 89.3751 83.4208 89.4499 83.7523 89.6821C84.8099 90.4229 85.8429 90.9112 86.8367 91.1402C87.3038 91.2479 87.5378 91.272 88.1134 91.2719C88.7206 91.2719 88.9179 91.2483 89.3804 91.1204C90.7743 90.7351 91.8895 89.703 92.4486 88.281C92.6991 87.6437 92.8179 87.05 92.8402 86.3251L92.8537 85.8856L93.506 86.7263C94.2804 87.7243 94.6363 88.1643 95.0907 88.6856C96.4444 90.2386 97.5803 91.3201 98.9021 92.3148C100.72 93.6824 102.773 94.6861 104.93 95.2605C105.16 95.3218 105.386 95.3828 105.432 95.3961L105.516 95.42L105.453 95.452C105.418 95.4695 105.192 95.5862 104.951 95.711C104.26 96.0675 103.635 96.3753 103.342 96.5032C102.356 96.9328 101.441 97.1763 100.388 97.289C100.058 97.3244 99.1557 97.3515 98.8498 97.3353L98.85 97.3366ZM103.737 87.8946C103.416 87.8841 102.749 87.8387 102.387 87.8029C100.776 87.6434 99.271 87.3522 96.6071 86.6851C95.2679 86.3497 94.9439 86.2727 93.9132 86.0447C93.3332 85.9164 92.8565 85.8084 92.8539 85.8048C92.8417 85.7876 92.8237 85.5268 92.8347 85.5268C92.8416 85.5268 92.9806 85.5744 93.1436 85.6326C94.69 86.1848 96.3596 86.2714 97.8559 85.8769C99.8542 85.3501 101.592 84.0225 102.607 82.2463C103.016 81.5301 103.256 80.8252 103.361 80.0278C103.406 79.6825 103.393 79.1154 103.331 78.7586C103.308 78.6252 103.283 78.5049 103.275 78.4913C103.266 78.4741 103.337 78.4724 103.51 78.4862C103.862 78.514 104.713 78.5058 105.034 78.4719C106.673 78.2981 107.976 77.7047 108.841 76.7387C109.432 76.0784 109.77 75.3604 109.913 74.4583C109.957 74.1858 109.962 73.5048 109.924 73.2075C109.806 72.3012 109.477 71.4238 108.915 70.5236C108.824 70.3779 108.749 70.2523 108.749 70.2444C108.749 70.2366 108.808 70.2371 108.88 70.2444C109.042 70.2638 109.837 70.2194 110.18 70.1719C111.182 70.0337 112.059 69.7085 112.796 69.2021C113.42 68.7736 113.958 68.1612 114.299 67.4926C114.592 66.9164 114.76 66.1244 114.728 65.4747C114.638 63.7031 113.493 62.1814 111.607 61.3262L111.384 61.2253L111.6 61.1364C111.938 60.9971 112.459 60.6984 112.768 60.4665C114.046 59.5078 114.741 58.1635 114.651 56.8273C114.593 55.9791 114.278 55.266 113.649 54.5602C113.26 54.1233 112.815 53.7612 112.26 53.4299C112.125 53.3491 112.014 53.2794 112.014 53.275C112.014 53.2708 112.114 53.2238 112.235 53.1709C113.917 52.4382 115.336 50.8583 115.752 49.2541C115.871 48.7952 115.907 48.1701 115.837 47.7636C115.601 46.3894 114.55 45.3285 112.81 44.7087C112.643 44.6492 112.431 44.5788 112.339 44.5522C112.247 44.5255 112.168 44.5006 112.165 44.4968C112.162 44.4931 112.256 44.4233 112.374 44.3418C113.542 43.5388 114.633 42.4642 115.345 41.416C115.944 40.5333 116.3 39.7175 116.463 38.8553C116.529 38.502 116.553 37.9338 116.516 37.5743C116.454 36.979 116.257 36.4136 115.924 35.8812C115.755 35.6099 115.267 35.0556 114.997 34.828C114.61 34.502 114.009 34.1075 113.621 33.9235C113.543 33.8867 113.479 33.8493 113.479 33.8403C113.479 33.8 113.709 33.6119 113.975 33.4355C121.019 28.7513 126.485 24.6305 131.719 20.0597C134.846 17.3279 137.736 14.5628 140.691 11.4746C140.948 11.2065 141.189 10.9543 141.228 10.9141L141.299 10.8412L141.284 11.1716C141.236 12.2944 141.038 13.5835 140.738 14.7389C139.374 19.9857 135.412 25.5147 128.282 32.1249C124.835 35.3202 120.355 38.9974 115.258 42.8145C114.723 43.2155 114.288 43.556 114.292 43.5712C114.306 43.6299 114.551 44.2843 114.564 44.3C114.595 44.3365 116.057 43.9611 116.974 43.6812C121.533 42.2901 126.004 39.8963 131.415 35.9499C133.639 34.3279 135.219 33.0865 140.163 29.0774L141.325 28.1355L141.332 28.5274C141.344 29.2898 141.252 30.1984 141.073 31.0788C140.667 33.0814 139.817 34.9752 138.478 36.861C137.733 37.911 136.596 39.1952 135.517 40.2057C132.974 42.588 129.578 44.8794 125.304 47.0963C122.502 48.5498 119.498 49.9084 115.269 51.6352C114.67 51.8796 114.164 52.0869 114.144 52.0959C114.124 52.1047 114.107 52.1273 114.107 52.1459C114.107 52.1774 114.275 52.9134 114.285 52.9282C114.302 52.9519 115.925 52.6124 116.755 52.4116C121.127 51.3529 125.552 49.5491 130.693 46.7305C131.315 46.3895 133.089 45.38 133.592 45.0807C134.564 44.5023 135.274 44.0771 135.499 43.9387C135.645 43.8492 135.771 43.7761 135.779 43.7761C135.819 43.7761 135.693 44.6747 135.568 45.2731C135.354 46.3022 135.097 47.1051 134.669 48.0832C134.019 49.5693 133.23 50.7784 132.071 52.0606C130.948 53.3042 129.621 54.4008 127.983 55.4385C124.399 57.709 119.694 59.4225 113.605 60.6744C113.219 60.7537 112.887 60.824 112.867 60.8306C112.834 60.8413 112.83 60.8829 112.83 61.2611V61.6797L113.233 61.7666C114.641 62.0703 115.735 62.1845 117.239 62.1846C119.994 62.1846 122.848 61.6537 126.643 60.4346C127.911 60.0273 129.288 59.5401 131.802 58.6085C132.554 58.3298 133.179 58.1018 133.191 58.1018C133.247 58.1018 132.679 59.489 132.325 60.214C130.223 64.5203 126.947 67.4209 122.301 69.0887C119.613 70.0535 116.518 70.596 112.464 70.8127C112.05 70.8348 111.704 70.8594 111.696 70.8673C111.679 70.8842 111.588 71.6711 111.601 71.6863C111.62 71.7079 112.31 71.9303 112.715 72.0457C113.919 72.3887 115.022 72.5871 116.441 72.7157C116.668 72.7364 117.191 72.7455 118.073 72.7445C119.221 72.7418 119.437 72.7369 119.946 72.6903C121.856 72.5157 123.693 72.1793 125.709 71.6351C125.927 71.5765 126.108 71.5322 126.112 71.5366C126.129 71.5563 125.23 72.5977 124.852 72.996C123.22 74.7146 121.737 75.9012 119.957 76.9121C117.474 78.3222 115.036 79.0408 111.868 79.2966C111.368 79.337 109.619 79.3519 109.021 79.3208C107.395 79.2363 106.457 79.1221 103.978 78.7067C103.673 78.6556 103.422 78.6158 103.42 78.6182C103.411 78.6287 105.103 80.2121 105.365 80.439C106.916 81.7789 108.476 82.6658 110.102 83.1321C111.645 83.5745 113.299 83.6341 114.889 83.3045C115.014 83.2787 115.119 83.2607 115.122 83.2647C115.132 83.2761 114.586 83.8206 114.295 84.0891C112.918 85.3627 111.324 86.363 109.681 86.9845C107.898 87.6587 105.897 87.9647 103.737 87.8937L103.737 87.8946ZM116.095 61.3112C115.606 61.2805 115.151 61.2344 115.169 61.2173C115.178 61.2082 115.246 61.1879 115.321 61.1723C115.7 61.093 117.504 60.6469 117.675 60.5899C117.735 60.57 117.631 60.6851 117.267 61.0393L116.964 61.335L116.671 61.332C116.51 61.3293 116.251 61.321 116.095 61.3113V61.3112ZM122.374 40.4618C122.76 40.1927 123.083 39.9673 123.092 39.9609C123.101 39.9545 123.106 40.0161 123.102 40.0977L123.096 40.2459L122.845 40.3745C122.588 40.5061 121.761 40.9148 121.704 40.9382C121.687 40.9455 121.988 40.7309 122.374 40.4618H122.374ZM114.831 31.6336C115.093 30.7934 115.189 30.0528 115.168 29.0186C115.134 27.3248 114.716 25.6851 113.845 23.8316C113.713 23.551 113.606 23.3121 113.606 23.3006C113.608 23.289 113.995 22.9239 114.469 22.4891C118.341 18.9308 122.182 14.8848 125.685 10.6742L126.178 10.0815L126.191 10.214C126.248 10.7827 126.244 12.0324 126.183 12.7655C125.763 17.8587 122.85 23.1667 116.912 29.6605C116.063 30.5889 114.783 31.9294 114.746 31.9294C114.742 31.9294 114.78 31.7963 114.831 31.6336H114.831Z" fill="#CC112F"/>
</g>
<defs>
<clipPath id="clip0_1_2293">
<rect width="600" height="400" fill="white"/>
</clipPath>
</defs>
</svg>
