<?xml version="1.0" encoding="UTF-8" standalone="no"?>
<!-- Created with Inkscape (http://www.inkscape.org/) -->
<svg xmlns:dc="http://purl.org/dc/elements/1.1/" xmlns:cc="http://web.resource.org/cc/"
  xmlns:rdf="http://www.w3.org/1999/02/22-rdf-syntax-ns#" xmlns:svg="http://www.w3.org/2000/svg"
  xmlns="http://www.w3.org/2000/svg"
  xmlns:sodipodi="http://sodipodi.sourceforge.net/DTD/sodipodi-0.dtd"
  xmlns:inkscape="http://www.inkscape.org/namespaces/inkscape" height="942.61151" width="1422.3037"
  id="svg2" sodipodi:version="0.32" inkscape:version="0.44"
  sodipodi:docbase="D:\dokumenty\kot\do wiki" sodipodi:docname="POL Sieradz flag.svg" version="1.0"
  xmlns:cgf="https://coding.garden/flags">
  <cgf:flag>
    <cgf:name>Sieradz</cgf:name>
    <cgf:route>pl/ld/sieradz</cgf:route>
    <cgf:aspect-ratio>1.5</cgf:aspect-ratio>
  </cgf:flag>

  <defs id="defs4">
    <marker orient="auto" markerHeight="3" markerWidth="4" markerUnits="strokeWidth" refY="5"
      refX="10" viewBox="0 0 10 10" id="ArrowStart">
      <path id="path2039" d="M 10,0 L 0,5 L 10,10 L 10,0 z " />
    </marker>
    <marker orient="auto" markerHeight="3" markerWidth="4" markerUnits="strokeWidth" refY="5"
      refX="0" viewBox="0 0 10 10" id="ArrowEnd">
      <path id="path2036" d="M 0,0 L 10,5 L 0,10 L 0,0 z " />
    </marker>
    <marker orient="auto" markerHeight="3" markerWidth="4" markerUnits="strokeWidth" refY="5"
      refX="10" viewBox="0 0 10 10" id="marker2504">
      <path id="path2486" d="M 10,0 L 0,5 L 10,10 L 10,0 z " />
    </marker>
    <marker orient="auto" markerHeight="3" markerWidth="4" markerUnits="strokeWidth" refY="5"
      refX="0" viewBox="0 0 10 10" id="marker2501">
      <path id="path2483" d="M 0,0 L 10,5 L 0,10 L 0,0 z " />
    </marker>
    <marker id="marker4412" viewBox="0 0 10 10" refX="0" refY="5" markerUnits="strokeWidth"
      markerWidth="4" markerHeight="3" orient="auto">
      <path d="M 0,0 L 10,5 L 0,10 L 0,0 z " id="path4414" />
    </marker>
    <marker id="marker4408" viewBox="0 0 10 10" refX="10" refY="5" markerUnits="strokeWidth"
      markerWidth="4" markerHeight="3" orient="auto">
      <path d="M 10,0 L 0,5 L 10,10 L 10,0 z " id="path4410" />
    </marker>
    <marker id="marker4404" viewBox="0 0 10 10" refX="0" refY="5" markerUnits="strokeWidth"
      markerWidth="4" markerHeight="3" orient="auto">
      <path d="M 0,0 L 10,5 L 0,10 L 0,0 z " id="path4406" />
    </marker>
    <marker id="marker4400" viewBox="0 0 10 10" refX="10" refY="5" markerUnits="strokeWidth"
      markerWidth="4" markerHeight="3" orient="auto">
      <path d="M 10,0 L 0,5 L 10,10 L 10,0 z " id="path4402" />
    </marker>
    <marker orient="auto" markerHeight="3" markerWidth="4" markerUnits="strokeWidth" refY="5"
      refX="10" viewBox="0 0 10 10" id="marker4494">
      <path id="path4466" d="M 10,0 L 0,5 L 10,10 L 10,0 z " />
    </marker>
    <marker orient="auto" markerHeight="3" markerWidth="4" markerUnits="strokeWidth" refY="5"
      refX="0" viewBox="0 0 10 10" id="marker4491">
      <path id="path4463" d="M 0,0 L 10,5 L 0,10 L 0,0 z " />
    </marker>
    <marker orient="auto" markerHeight="3" markerWidth="4" markerUnits="strokeWidth" refY="5"
      refX="10" viewBox="0 0 10 10" id="marker6467">
      <path id="path6451" d="M 10,0 L 0,5 L 10,10 L 10,0 z " />
    </marker>
    <marker orient="auto" markerHeight="3" markerWidth="4" markerUnits="strokeWidth" refY="5"
      refX="0" viewBox="0 0 10 10" id="marker6464">
      <path id="path6448" d="M 0,0 L 10,5 L 0,10 L 0,0 z " />
    </marker>
  </defs>
  <sodipodi:namedview id="base" pagecolor="#ffffff" bordercolor="#666666" borderopacity="1.0"
    inkscape:pageopacity="0.0" inkscape:pageshadow="2" inkscape:cx="1429.4362"
    inkscape:cy="-222.53868" inkscape:zoom="0.18075182" inkscape:document-units="px"
    inkscape:current-layer="layer1" inkscape:window-width="1024" inkscape:window-height="682"
    inkscape:window-x="-4" inkscape:window-y="-4" showguides="true" inkscape:guide-bbox="true" />
  <metadata id="metadata7">
    <rdf:RDF>
      <cc:Work rdf:about="">
        <dc:format>image/svg+xml</dc:format>
        <dc:type rdf:resource="http://purl.org/dc/dcmitype/StillImage" />
      </cc:Work>
    </rdf:RDF>
  </metadata>
  <g inkscape:groupmode="layer" inkscape:label="Warstwa 1" id="layer1"
    transform="translate(261.5674,-496.4541)">
    <path
      style="fill:white;fill-opacity:1;stroke:none;stroke-width:5;stroke-linecap:round;stroke-linejoin:round;stroke-miterlimit:4;stroke-dashoffset:0;stroke-opacity:1"
      d="M -261.56745,496.45408 L 1160.7362,496.45408 L 1160.7362,733.28276 L 1160.7362,1206.6386 L 1160.7362,1439.0656 L -261.56745,1439.0656 L -261.56745,1210.5506 L -261.56745,733.28276 L -261.56745,496.45408 z "
      id="rect6517" sodipodi:nodetypes="ccccccccc" />
    <path sodipodi:nodetypes="ccccc" id="path7479"
      d="M 1160.7362,733.28276 L 1160.7362,1206.6386 L -261.56745,1210.5506 L -261.56745,733.28276 L 1160.7362,733.28276 z "
      style="fill:#ec2a32;fill-opacity:1;stroke:none;stroke-width:5;stroke-linecap:round;stroke-linejoin:round;stroke-miterlimit:4;stroke-dashoffset:0;stroke-opacity:1" />
    <g id="g6453" transform="matrix(0.641301,0,0,0.641301,280.3159,766.8492)">
      <path id="path6455"
        d="M 0.160198,0.00396729 L 527.891,0.00396729 L 527.891,311.39 C 527.891,428.82 508.61,498.64 448.301,556.953 C 382.602,617.984 272.61,645.781 178.797,612.07 C 104.11,581.715 44.6172,520.363 16.3438,447.347 C 3.5977,401.656 0,357.558 0,311.707 L 0.160198,0"
        style="fill:#222;fill-rule:evenodd;stroke:none" />
      <path id="path6457"
        d="M 232.317,231.449 C 231.727,229.07 228.461,225.195 224.297,224.894 C 223.114,222.512 220.438,220.726 221.336,217.453 L 235.364,188.031 C 235.364,186.844 234.774,185.652 234.184,183.867 L 230.004,193.379 L 219.262,214.179 C 209.149,215.648 209.754,207.027 204.985,212.969 C 210.93,213.867 212.414,216.25 214.789,218.336 C 214.789,219.82 214.786,220.715 213.004,221.008 C 210.332,218.625 204.688,214.453 200.813,220.097 C 205.274,218.918 210.032,219.82 211.211,226.363 C 202.289,226.937 198.723,226.047 196.926,232.582 C 203.477,227.242 217.758,225.781 232.325,231.457 L 232.317,231.449 z M 324.633,228.945 C 322.856,226.265 317.801,223.879 314.235,222.683 C 317.508,220.906 319.59,220.613 323.754,221.512 C 321.082,219.429 321.09,214.965 313.348,218.82 C 312.16,218.82 311.27,217.332 312.465,215.547 C 314.547,213.765 316.93,213.176 319.61,211.992 C 317.235,209.312 314.555,211.687 313.067,212.871 C 311.875,214.949 309.789,216.433 306.813,217.617 C 304.434,217.613 301.758,216.125 300.871,213.742 C 296.426,204.219 295.848,195.59 291.996,186.062 C 291.703,185.172 288.43,185.762 287.536,186.648 C 292.575,195.879 297.317,205.105 299.082,216.711 L 298.778,220.574 C 296.395,223.543 291.633,225.32 291.926,228.89 C 304.723,223.558 313.645,224.765 324.645,228.945 L 324.633,228.945 z M 269.653,185.441 C 263.106,187.808 264.286,193.762 269.926,197.933 L 269.653,185.441 z M 255.129,181.386 L 253.914,196.254 C 262.246,192.996 260.184,181.691 255.129,181.386 z M 284.496,186.316 L 286.586,180.969 C 288.672,178.89 292.235,181.57 294.91,182.765 C 294.914,179.496 289.278,174.133 289.582,169.074 C 289.59,164.316 291.086,158.668 291.985,155.101 L 283.965,149.734 C 279.782,161.922 273.508,177.379 282.711,188.101 L 284.496,186.32 L 284.496,186.316 z M 241.473,185.199 C 243.559,182.226 245.352,176.879 247.739,173.312 C 248.637,167.367 242.696,165.574 243.895,159.328 C 240.926,155.758 241.528,153.078 239.453,148.316 C 239.457,145.344 236.481,148.605 236.481,148.605 L 229.883,179.824 C 234.946,176.859 238.211,180.133 239.387,187.574 L 241.473,185.199 z M 263.786,186.164 L 268.258,178.441 L 261.438,168.316 L 257.266,175.445 L 263.789,186.164 L 263.786,186.164 z M 271.868,174.726 L 276.649,159.269 L 271.309,153.015 L 263.555,164.601 L 271.868,174.73 L 271.868,174.726 z M 259.286,164.097 L 252.16,155.762 L 248.586,160.515 L 254.215,173.312 L 259.286,164.101 L 259.286,164.097 z M 336.723,169.996 C 330.2,158.383 324.868,144.394 322.512,131.008 C 319.539,130.41 317.461,127.133 315.387,124.75 C 313.305,124.746 314.196,126.828 312.707,127.121 C 311.817,127.121 310.926,126.824 309.735,127.711 L 306.743,139.601 C 312.965,152.101 329.297,167.301 336.731,169.992 L 336.723,169.996 z M 309.606,167.465 L 303.41,139.195 C 300.442,138.597 299.254,135.324 297.176,133.238 C 295.692,132.941 295.387,136.801 293.602,137.691 L 285.875,133.812 L 284.973,140.945 C 289.114,152.847 300.106,160.304 309.614,167.461 L 309.606,167.465 z M 360.715,167.168 C 352.707,154.363 345.301,137.398 342.946,122.519 L 332.246,117.148 L 326.59,121.597 C 327.774,124.871 327.465,129.629 326.274,133.195 C 333.985,146.293 347.051,159.406 360.719,167.164 L 360.715,167.168 z M 187.418,164.633 C 198.731,160.191 207.078,147.414 214.532,137.91 C 212.754,134.933 210.68,130.765 212.77,126.012 C 212.473,125.418 212.77,126.012 211.879,124.82 L 201.762,128.668 L 189.211,162.554 L 187.426,164.633 L 187.418,164.633 z M 215.801,163.742 C 225.328,157.515 230.993,150.683 238.145,140.879 L 238.457,132.851 C 237.868,130.769 235.188,131.656 233.996,132.547 C 232.805,133.734 231.317,135.515 230.422,135.808 C 229.235,135.808 228.641,135.808 227.45,135.508 C 226.559,134.914 226.563,133.426 225.371,133.129 C 222.692,134.609 221.797,138.176 217.926,139.359 C 218.504,149.176 214.625,156.605 212.828,164.929 L 215.801,163.746 L 215.801,163.742 z M 188.828,141.051 C 191.809,136.297 194.793,132.14 197.18,127.98 L 198.383,117.574 C 198.383,117.277 198.09,116.386 197.2,115.789 C 197.2,115.789 193.039,115.785 192.442,115.781 L 189.461,118.75 C 188.571,119.64 185.891,119.34 184.106,119.929 C 183.215,119.336 181.434,118.437 181.141,116.953 C 178.754,122.301 179.633,129.441 176.649,135.386 C 173.36,146.383 170.375,153.222 165.899,162.136 C 175.723,155.91 179.598,151.453 188.836,141.058 L 188.828,141.051 z M 268.969,149.429 L 261.254,138.117 L 254.395,150 L 261.516,160.422 C 264.793,156.265 262.707,159.234 268.969,149.429 z M 381.985,160.426 C 377.836,152.09 364.2,125.297 364.219,113.398 C 361.852,107.449 359.176,105.062 358.891,100.008 C 358.891,99.715 360.672,99.715 361.571,99.121 C 362.164,99.121 363.348,101.5 364.239,102.398 C 367.496,109.242 373.137,115.5 377.59,121.754 C 386.2,130.988 393.618,141.41 403.719,149.461 C 401.356,140.535 396.91,129.519 394.25,119.996 C 391.582,114.937 392.188,108.691 388.922,105.117 C 384.786,90.238 382.723,78.039 378.582,64.347 C 374.141,52.742 366.414,47.668 355.715,44.082 C 349.176,43.777 342.332,44.652 339.051,49.703 C 336.965,52.078 334.879,55.051 335.766,58.027 C 336.649,61 341.993,67.851 349.145,61.914 L 349.746,55.078 C 350.938,54.187 352.719,54.488 355.989,55.976 C 361.637,55.691 365.203,57.777 367.282,59.863 L 367.567,65.808 C 370.832,67.597 374.696,69.09 376.774,73.258 C 374.688,75.929 371.711,77.707 367.543,78.594 L 367.832,82.758 C 367.536,82.758 366.938,84.836 364.856,85.429 C 365.739,88.996 368.418,88.707 369.903,90.492 C 369.903,90.789 370.496,91.679 370.493,92.5699 C 369.004,94.9449 363.352,94.344 360.078,95.824 L 359.184,98.496 C 358.887,99.09 356.211,99.679 355.02,99.679 C 354.719,102.648 359.473,104.441 357.086,108.902 C 353.516,110.086 348.762,108.89 344.594,109.472 C 341.606,119.879 351.403,128.222 355.555,135.367 C 362.379,144.004 372.172,156.812 381.985,160.398 L 381.985,160.426 z M 140.219,158.484 C 152.422,153.156 161.668,138.89 169.125,127.898 C 171.512,121.957 173.899,118.984 176.879,113.933 L 181.938,110.375 C 180.157,108.886 178.078,108.285 176.891,105.609 L 168.852,110.054 C 167.071,110.051 165.289,106.777 164.996,104.398 L 167.688,95.7809 C 167.391,94.89 165.313,94.886 164.121,93.992 C 163.231,94.586 160.254,95.172 158.469,95.172 C 158.172,96.3589 160.547,97.554 160.84,99.34 C 157.547,111.23 156.641,121.344 152.754,131.746 C 148.875,140.363 144.696,150.469 140.219,158.492 L 140.219,158.484 z M 249.93,150.152 L 242.215,141.219 L 246.352,155.203 C 246.946,154.312 249.036,151.047 249.926,150.152 L 249.93,150.152 z M 276.637,155.133 C 278.727,149.785 278.434,146.512 280.532,138.484 C 278.149,139.668 273.379,146.797 273.075,150.367 L 276.633,155.129 L 276.637,155.133 z M 252.278,145.894 L 258.543,133.711 L 251.125,122.992 L 243.965,135.469 L 252.274,145.89 L 252.278,145.894 z M 270.789,145.34 L 277.946,134.347 L 269.938,122.734 L 263.375,133.726 L 270.793,145.34 L 270.789,145.34 z M 119.286,142.84 L 127.621,136.906 L 154.746,102.75 C 155.641,100.969 157.129,100.375 156.539,98.293 L 151.489,96.203 L 158.645,84.617 L 155.676,82.2339 C 155.676,81.344 156.571,78.074 156.871,76.586 C 155.387,74.504 150.328,76.578 147.063,74.191 C 145.282,73.297 146.77,70.625 146.18,68.836 C 147.375,64.379 152.133,64.386 155.414,60.5229 L 154.832,54.578 C 160.485,53.3979 166.438,50.433 172.684,51.336 C 176.844,52.5309 171.786,56.687 173.262,59.664 C 173.852,62.043 176.825,62.64 180.094,62.9449 C 184.258,62.3589 189.621,57.015 185.77,49.2729 C 182.504,46.293 181.02,44.804 177.75,43.015 C 174.485,41.226 164.371,39.722 158.121,42.687 C 149.489,47.429 147.098,53.969 142.024,63.777 C 134.555,82.504 133.93,101.539 127.653,120.566 C 124.371,127.992 122.578,133.047 119.293,139.883 C 119.293,140.179 118.696,143.449 119.289,142.855 L 119.286,142.84 z M 217.629,135.312 C 222.993,130.863 223.289,129.969 223.301,122.832 L 218.243,124.605 C 214.672,126.976 213.766,134.113 217.629,135.308 L 217.629,135.312 z M 305.731,131.558 C 306.328,129.179 305.739,126.207 304.555,123.824 C 303.664,122.633 302.774,122.039 300.696,121.734 C 298.91,122.922 300.391,126.195 300.688,128.574 C 300.981,130.355 303.063,130.66 304.547,132.148 L 305.735,131.558 L 305.731,131.558 z M 231.973,129.883 C 234.055,128.101 237.922,127.219 239.121,123.652 L 241.809,115.328 C 219.219,106.965 200.2,97.41 183.868,80.429 C 176.743,72.687 170.211,66.133 168.149,54.824 L 156.844,56.586 C 156.84,59.558 160.993,65.219 162.18,65.816 C 162.477,66.113 169.907,68.801 169.907,69.6949 C 169.313,71.179 168.121,70.879 166.039,71.765 L 163.063,74.7339 C 162.172,75.0309 159.489,78.89 159.485,80.379 L 167.512,81.879 C 170.485,82.179 173.762,80.699 174.352,81.594 C 173.457,85.457 168.098,86.636 168.985,91.3979 C 174.036,92.89 177.907,92.004 181.477,90.5309 L 181.457,103.617 C 186.211,106.894 191.578,99.769 196.039,98.886 C 196.328,103.644 194.239,108.996 196.907,112.57 L 210.895,107.539 C 211.786,107.539 212.676,107.836 212.676,108.136 L 212.953,118.543 C 214.731,121.816 221.282,118.554 224.258,117.375 C 225.45,116.187 226.34,115.597 226.934,115.597 L 229.582,132.258 L 231.965,129.883 L 231.973,129.883 z M 292.321,131 L 293.508,130.707 L 295.012,120.004 C 295.012,118.816 296.801,117.035 298.289,116.144 L 309.282,122.109 C 309.871,122.109 310.77,121.519 310.77,121.219 L 311.676,110.812 C 314.653,110.816 318.813,113.203 321.188,114.695 C 323.27,114.695 324.457,115.886 327.137,114.703 L 325.965,104.886 C 325.965,103.996 326.563,103.105 327.453,102.512 C 331.024,101.328 331.317,103.707 334.586,105.496 C 336.368,105.496 339.637,106.988 341.129,106.097 C 341.133,102.531 339.063,97.769 339.368,94.199 C 340.262,92.418 342.637,93.312 344.426,92.722 C 347.098,95.402 349.18,95.703 352.746,96.601 C 355.719,96.605 354.828,94.824 354.832,92.742 L 349.196,86.488 C 348.606,85.301 349.793,84.41 350.684,83.816 C 355.442,85.308 360.793,84.722 363.477,81.461 C 362,77.594 360.219,75.508 356.055,73.719 C 355.168,73.422 355.172,70.4449 356.059,69.258 C 359.629,68.672 362.606,66.297 364.696,63.328 C 364.407,58.867 356.375,61.2339 352.805,59.738 C 349.207,77.875 336.399,88.562 321.211,98.6479 C 308.707,105.168 297.692,109.613 284.305,112.566 C 283.407,117.023 284.875,124.465 288.141,128.336 C 290.219,129.824 290.215,131.609 291.407,131.015 L 292.297,131.015 L 292.321,131 z M 261.813,130.512 L 265.989,121.597 L 269.868,115.656 L 280.848,129.058 C 281.145,129.058 281.446,126.383 281.743,126.386 C 280.266,121.625 281.758,115.679 278.2,111.508 C 266.918,99.293 264.266,84.715 268.754,70.4449 C 269.66,61.8199 273.828,57.961 271.172,46.355 C 269.692,43.676 267.91,41.297 264.942,39.508 C 259.594,38.012 255.43,37.41 253.344,38.894 C 252.453,39.785 250.067,42.754 249.77,44.242 C 250.657,46.324 250.95,47.812 250.946,50.191 C 250.946,51.082 251.836,50.789 253.024,51.679 C 254.801,55.25 253.602,61.793 250.625,64.762 C 255.66,76.664 254.743,91.242 248.481,103.722 C 246.09,110.558 244.59,119.183 242.2,126.019 C 243.981,126.617 247.86,120.676 249.051,118.597 C 250.239,118.301 250.536,117.707 252.621,117.711 L 261.817,130.515 L 261.813,130.512 z M 324.731,125.969 L 321.77,117.636 L 317.91,115.547 C 316.426,115.547 316.719,119.113 316.715,120.898 L 323.25,126.262 L 324.735,125.969 L 324.731,125.969 z M 201.125,125.515 C 203.504,125.226 207.973,121.363 208.571,118.39 L 208.575,114.226 C 205.309,113.328 202.922,115.402 201.731,116.293 C 200.836,117.777 197.258,121.933 201.121,125.512 L 201.125,125.515 z M 189.953,112.086 C 191.739,111.195 191.446,108.222 191.45,106.14 L 185.2,108.804 C 184.008,110.289 184.301,113.859 185.188,116.238 C 187.266,116.242 187.27,115.351 189.95,112.086 L 189.953,112.086 z M 340.41,115.984 C 341.012,110.929 337.453,107.949 330.61,107.344 C 331.782,116.265 336.246,115.976 340.41,115.984 z M 177.028,96.418 C 171.969,97.597 167.801,100.265 168.684,105.621 C 175.223,105.633 176.719,101.472 177.028,96.418 z M 353.563,105.332 C 353.868,101.172 347.922,98.7809 344.95,98.777 C 343.164,100.855 348.207,107.406 353.563,105.332 z M 167.668,85.687 C 160.832,84.191 159.336,89.242 157.246,92.808 C 162.895,93.113 164.981,92.23 167.668,85.687 z M 364.582,91.437 C 364.293,87.2729 359.235,87.265 356.262,87.855 C 355.664,91.121 360.118,91.726 364.582,91.437 z M 373.336,73.117 C 372.45,70.738 365.02,68.047 361.743,69.824 C 361.735,75.476 369.762,75.785 373.336,73.117 z M 160.883,71.742 C 160.598,65.797 151.676,63.3979 149.282,72.015 C 150.164,76.179 159.391,72.926 160.883,71.742 z M 250.184,60.144 C 249.895,56.871 251.379,56.2809 251.082,54.793 C 249.008,51.222 244.84,53 241.571,52.101 C 243.348,55.668 244.231,60.433 250.18,60.144 L 250.184,60.144 z M 259.352,49.418 C 260.243,49.418 260.836,49.418 262.028,49.422 C 262.918,48.828 262.922,47.64 264.114,46.75 C 265.004,46.453 266.192,47.644 267.977,47.347 C 267.09,44.672 264.715,42.289 262.039,41.39 L 257.578,42.277 L 253.707,45.539 C 254.598,46.726 256.676,47.625 258.457,49.41 L 259.348,49.41 L 259.352,49.418 z M 246.555,48.129 C 247.153,46.051 242.399,44.258 240.91,44.254 C 237.938,43.6559 231.688,46.613 231.379,51.672 C 235.246,49.004 241.797,48.121 246.555,48.129 z M 262.649,194.453 C 256.7,196.226 259.364,203.668 262.036,205.457 C 264.711,203.679 268.293,198.332 262.649,194.453 z M 262.305,220.398 C 266.387,220.398 269.692,223.008 269.692,226.199 C 269.692,229.398 266.387,232.012 262.305,232.012 C 258.231,232.012 254.922,229.402 254.922,226.199 C 254.922,223.008 258.227,220.398 262.305,220.398 z M 262.305,210.804 C 266.387,210.804 269.692,211.949 269.692,213.347 C 269.692,214.75 266.387,215.894 262.305,215.894 C 258.231,215.894 254.922,214.754 254.922,213.347 C 254.922,211.949 258.227,210.804 262.305,210.804 z M 269.047,237.406 L 271.985,255.457 C 275.254,265.199 292.25,261.207 299.278,258.332 C 304.18,253.379 301.239,244.594 302.383,237.722 C 304.18,233.73 309.407,234.687 314.477,235.808 C 319.379,242.515 316.438,255.937 314.317,265.844 L 215.438,265.844 C 209.231,258.976 210.7,249.39 208.578,240.601 C 210.7,235.812 215.602,238.527 220.832,237.726 C 226.715,241.398 221.813,249.39 223.774,255.457 C 225.895,264.242 241.914,261.207 248.121,258.332 L 253.024,237.722 L 269.036,237.406 L 269.047,237.406 z M 218.364,274.926 L 310.864,274.926 L 309.723,279.238 L 218.692,279.238 L 218.368,274.926 L 218.364,274.926 z M 288.289,284.582 L 304.793,284.582 L 304.793,302.152 L 288.289,302.152 L 288.289,284.582 z M 249.336,284.582 L 280.059,284.582 L 280.059,302.152 L 249.336,302.152 L 249.336,284.582 z M 227.68,284.582 L 241.899,284.582 L 241.899,302.152 L 227.68,302.152 L 227.68,284.582 z M 227.68,311.965 L 249.743,311.965 L 249.743,329.695 L 227.68,329.695 L 227.68,311.965 z M 280,311.965 L 304.84,311.965 L 304.84,329.695 L 280,329.695 L 280,311.965 z M 264.293,429.281 C 241.414,430.558 220.985,443.816 215.754,465.226 L 215.715,610.297 L 202.36,607.582 L 202.36,474.176 C 202.36,439.187 232.754,417.14 265.282,417.457 C 297.477,417.617 327.055,439.82 327.055,474.176 L 327.055,606.621 C 326.078,609.816 318.559,609.656 314.473,611.414 L 314.473,468.422 C 311.536,444.14 288.653,430.558 264.301,429.281 L 264.293,429.281 z M 326.899,438.965 L 326.899,452.222 L 319.871,438.965 L 326.899,438.965 z M 335.922,438.808 L 390.996,438.808 L 390.996,465.008 L 335.922,465.008 L 335.922,438.808 z M 400.606,438.808 L 453.067,438.808 L 453.067,465.008 L 400.606,465.008 L 400.606,438.808 z M 434.293,400.332 L 453.414,400.332 L 453.414,429.566 L 434.293,429.566 L 434.293,400.332 z M 369.051,400.332 L 423.473,400.332 L 423.473,429.566 L 369.051,429.566 L 369.051,400.332 z M 304.848,400.332 L 359.434,400.332 L 359.434,429.566 L 315.961,429.566 L 304.848,419.504 L 304.848,400.332 z M 236.297,400.332 L 293.825,400.332 L 293.664,416.785 C 275.36,409.918 255.262,411.195 236.137,416.785 L 236.301,400.332 L 236.297,400.332 z M 173.086,400.332 L 227.508,400.332 L 227.508,419.504 L 212.797,429.566 L 173.086,429.566 L 173.086,400.332 z M 105.703,400.332 L 161.762,400.332 L 161.762,429.566 L 105.703,429.566 L 105.703,400.332 z M 72.7347,400.332 L 98.2267,400.332 L 98.2267,429.566 L 72.7347,429.566 L 72.7347,400.332 z M 72.5857,367.523 L 129.133,367.523 L 129.133,390.847 L 72.5857,390.847 L 72.5857,367.523 z M 140.118,367.523 L 193.559,367.523 L 193.559,390.847 L 140.118,390.847 L 140.118,367.523 z M 202.442,367.523 L 259.481,367.523 L 259.641,390.847 L 202.442,390.847 L 202.442,367.523 z M 272.203,367.523 L 327.118,367.523 L 327.118,390.847 L 272.203,390.847 L 272.203,367.523 z M 335.774,367.523 L 390.848,367.523 L 390.848,390.847 L 335.774,390.847 L 335.774,367.523 z M 400.606,367.523 L 453.067,367.523 L 453.067,390.847 L 400.606,390.847 L 400.606,367.523 z M 415.528,338.386 L 433.993,338.386 L 433.993,359.156 L 415.528,359.156 L 415.528,338.386 z M 375.036,338.386 L 407.231,338.386 L 407.231,359.156 L 375.036,359.156 L 375.036,338.386 z M 353.641,338.386 L 369,338.386 L 369,359.156 L 353.641,359.156 L 353.641,338.386 z M 353.641,311.965 L 390.739,311.965 L 390.739,329.695 L 353.641,329.695 L 353.641,311.965 z M 400.914,311.965 L 434.254,311.965 L 434.254,329.695 L 400.914,329.695 L 400.914,311.965 z M 415.528,284.738 L 433.993,284.738 L 433.993,302.312 L 415.528,302.312 L 415.528,284.738 z M 375.036,284.738 L 407.231,284.738 L 407.231,302.312 L 375.036,302.312 L 375.036,284.738 z M 353.641,284.738 L 369,284.738 L 369,302.312 L 353.641,302.312 L 353.641,284.738 z M 353.641,261.117 L 380.278,261.117 L 380.278,277.094 L 353.641,277.094 L 353.641,261.117 z M 401.016,261.117 L 434.356,261.117 L 434.356,277.094 L 401.016,277.094 L 401.016,261.117 z M 415.528,234.691 L 433.993,234.691 L 433.993,252.422 L 415.528,252.422 L 415.528,234.691 z M 375.036,234.691 L 407.231,234.691 L 407.231,252.422 L 375.036,252.422 L 375.036,234.691 z M 353.641,234.691 L 369,234.691 L 369,252.422 L 353.641,252.422 L 353.641,234.691 z M 346.325,224.074 L 438.825,224.074 L 437.684,228.386 L 346.653,228.386 L 346.328,224.074 L 346.325,224.074 z M 338.7,187.437 C 340.496,187.437 344.582,187.437 347.688,187.437 C 352.754,190.312 348.668,197.179 350.629,202.293 C 353.567,212.035 366.809,205.965 374.981,208.043 C 382.825,208.043 379.879,199.097 380.864,193.344 C 383.969,188.234 390.996,192.226 396.059,190.308 C 400.961,192.226 398.02,197.176 399,202.289 C 402.106,212.031 415.18,205.961 423.352,208.039 C 431.196,208.039 428.25,199.094 429.395,193.34 C 431.192,188.23 436.422,191.426 441.489,190.304 C 448.512,196.215 442.301,208.039 438.547,213.949 L 342.121,213.949 C 337.059,208.84 336.731,196.215 335.586,188.226 L 338.692,187.429 L 338.7,187.437 z M 75.5117,187.437 L 90.3787,187.437 C 95.4457,190.312 91.5237,197.179 93.6487,202.293 C 96.5897,212.035 109.664,205.965 117.672,208.043 C 126.66,207.086 122.575,197.179 123.719,190.308 C 126.657,185.519 133.688,189.351 138.914,187.433 C 143.981,190.308 139.895,197.176 141.856,202.289 C 144.961,212.031 158.036,205.961 166.203,208.039 C 175.356,207.082 171.266,197.176 172.086,190.304 C 174.211,185.515 179.11,188.23 184.34,187.429 C 189.407,192.222 187.282,204.289 184.34,210.039 L 75.4927,210.039 C 71.4067,206.047 73.5357,195.097 72.3867,188.226 L 75.4927,187.429 L 75.5117,187.437 z M 288.289,338.386 L 304.793,338.386 L 304.793,359.156 L 288.289,359.156 L 288.289,338.386 z M 249.336,338.386 L 280.059,338.386 L 280.059,359.156 L 249.336,359.156 L 249.336,338.386 z M 227.68,338.386 L 241.899,338.386 L 241.899,359.156 L 227.68,359.156 L 227.68,338.386 z M 157.668,338.469 L 173.192,338.469 L 173.192,359.234 L 157.668,359.234 L 157.668,338.469 z M 115.215,338.469 L 149.696,338.469 L 149.696,359.234 L 115.215,359.234 L 115.215,338.469 z M 91.0117,338.469 L 107.844,338.469 L 107.844,359.234 L 91.0117,359.234 L 91.0117,338.469 z M 91.0117,311.484 L 129.578,311.484 L 129.578,329.215 L 91.0117,329.215 L 91.0117,311.484 z M 140.118,311.484 L 173.293,311.484 L 173.293,329.215 L 140.118,329.215 L 140.118,311.484 z M 157.668,284.664 L 173.192,284.664 L 173.192,302.238 L 157.668,302.238 L 157.668,284.664 z M 116.25,284.664 L 150.571,284.664 L 150.571,302.238 L 116.25,302.238 L 116.25,284.664 z M 91.0117,284.664 L 107.844,284.664 L 107.844,302.238 L 91.0117,302.238 L 91.0117,284.664 z M 91.0117,261.195 L 121.246,261.195 L 121.246,277.168 L 91.0117,277.168 L 91.0117,261.195 z M 149.641,261.195 L 172.52,261.195 L 172.52,277.168 L 149.641,277.168 L 149.641,261.195 z M 157.668,234.933 L 173.192,234.933 L 173.192,252.664 L 157.668,252.664 L 157.668,234.933 z M 116.25,234.933 L 150.571,234.933 L 150.571,252.664 L 116.25,252.664 L 116.25,234.933 z M 91.0117,234.933 L 107.844,234.933 L 107.844,252.664 L 91.0117,252.664 L 91.0117,234.933 z M 87.8047,219.844 L 172.461,219.844 C 177.36,222.719 172.95,225.754 172.95,225.754 L 87.8007,225.597 C 83.7187,225.597 84.8637,218.89 87.8007,219.847 L 87.8047,219.844 z M 72.7347,439.051 L 129.282,439.051 L 129.282,465.25 L 72.7347,465.25 L 72.7347,439.051 z M 140.118,439.051 L 193.559,439.051 L 193.559,465.25 L 140.118,465.25 L 140.118,439.051 z M 208.352,439.207 L 202.469,452.465 L 202.469,439.207 L 208.352,439.207 z M 72.7347,473.933 L 98.2267,473.933 L 98.2267,503.652 L 72.7347,503.652 L 72.7347,473.933 z M 106.508,473.933 L 162.563,473.933 L 162.563,503.652 L 106.508,503.652 L 106.508,473.933 z M 173.086,473.933 L 193.352,473.933 L 193.352,503.652 L 173.086,503.652 L 173.086,473.933 z M 69.6287,512.648 L 129.282,512.804 L 129.282,542.039 L 91.2027,542.039 C 81.7267,533.254 75.0237,522.867 69.6327,512.644 L 69.6287,512.648 z M 140.118,512.808 L 193.559,512.808 L 193.559,542.043 L 140.118,542.043 L 140.118,512.808 z M 101.453,551.367 L 161.762,551.207 L 161.762,575.011 L 130.383,574.851 C 123.032,574.851 108.157,559.195 101.453,551.371 L 101.453,551.367 z M 173.086,551.207 L 193.352,551.207 L 193.352,575.011 L 173.086,575.011 L 173.086,551.207 z M 144.801,584.172 L 193.34,584.332 L 193.34,601.902 L 144.801,584.172 z M 335.922,473.691 L 359.618,473.691 L 359.618,503.406 L 335.922,503.406 L 335.922,473.691 z M 369.051,473.691 L 423.473,473.691 L 423.473,503.406 L 369.051,503.406 L 369.051,473.691 z M 434.293,473.691 L 453.414,473.691 L 453.414,503.406 L 434.293,503.406 L 434.293,473.691 z M 335.922,512.726 L 390.996,512.726 L 390.996,541.965 L 335.922,541.965 L 335.922,512.726 z M 401.016,512.726 L 453.477,512.726 L 453.477,535.414 L 446.778,541.965 L 401.02,541.965 L 401.02,512.726 L 401.016,512.726 z M 335.922,551.125 L 359.618,551.125 L 359.618,574.929 L 335.922,574.929 L 335.922,551.125 z M 369.051,551.125 L 433.606,551.125 C 423.473,561.187 415.141,568.695 400.266,574.929 L 369.051,574.929 L 369.051,551.125 z M 335.922,586.969 L 387.895,586.969 L 335.922,607.258 L 335.922,586.969"
        style="fill:#fffdfd;fill-rule:evenodd;stroke:none" />
      <path id="path6459"
        d="M 313.364,229.512 C 312.086,228.457 309.36,228.375 307.973,229.609 C 309.352,229.472 312.078,229.554 313.364,229.512 z M 288.453,232.793 C 288.328,232.883 288.227,232.984 288.157,233.078 C 287.012,234.836 287.34,238.988 289.137,239.945 C 291.094,239.945 291.422,239.469 293.387,240.582 C 293.387,242.656 293.387,246.652 293.387,249.527 C 291.426,253.519 286.196,252.402 282.274,251.441 L 277.371,234.988 L 268.262,234.937 C 271.813,233.179 274.192,229.918 274.192,226.187 C 274.192,223.183 272.629,220.472 270.157,218.613 C 272.625,217.32 274.192,215.437 274.192,213.34 C 274.192,210.133 270.543,207.418 265.567,206.574 L 269.485,201.738 L 276.907,208.59 C 276.918,200.859 273.66,194.012 274.27,185.98 C 274.567,184.793 274.868,183.902 276.055,184.496 L 283.766,197 C 285.848,196.707 284.664,192.84 287.043,192.246 C 289.711,197.304 290.887,204.746 295.043,209.808 C 295.039,213.078 295.625,215.758 295.032,218.136 L 286.395,225.855 C 284.996,227.25 285.473,231.051 288.453,232.781 L 288.453,232.793 z M 256.164,234.883 L 248.442,234.844 L 242.067,249.543 C 240.926,252.418 237.004,253.535 233.899,251.617 L 235.762,234.156 C 236.211,234.125 236.633,234.039 237,233.816 C 238.203,223.707 226.313,222.793 223.348,217.136 L 233.786,198.715 L 238.543,198.129 L 249.879,178.519 C 250.473,178.519 251.067,178.519 251.66,179.414 L 246.262,204.984 C 247.45,204.984 248.043,207.066 249.532,205.879 L 254.594,202.023 C 256.696,202.445 256.418,204.957 257.442,206.918 C 253.274,208.015 250.348,210.488 250.348,213.355 C 250.348,215.449 251.914,217.336 254.383,218.629 C 251.914,220.484 250.348,223.195 250.348,226.203 C 250.348,229.886 252.676,233.109 256.149,234.883 L 256.164,234.883 z M 198.414,235.109 C 197.493,237.972 195.246,239.976 198.59,241.547 L 201.528,267.429 C 203.653,271.418 210.676,275.414 216.563,277.172 L 216.563,358.972 L 184.532,358.972 L 184.532,223.012 C 192.539,212.949 198.586,200.324 196.625,184.668 C 192.539,174.605 178.485,180.676 169.332,178.601 C 160.18,179.554 164.27,189.461 163.125,196.332 C 161.164,200.324 156.098,199.207 152.012,198.406 L 151.196,184.668 C 148.258,173.965 129.133,178.918 120.637,178.758 C 111.649,179.715 115.735,189.461 114.918,196.332 C 112.793,200.324 107.891,199.207 103.805,198.406 L 103.965,178.758 L 69.4847,178.601 C 58.3711,182.594 64.4219,200.328 66.5467,208.156 C 69.4847,214.066 73.5707,215.023 75.5357,220.136 C 75.5357,221.894 75.5357,225.886 76.5157,228.922 C 77.3277,229.879 78.4727,230.679 81.4137,231.797 L 81.4137,356.097 C 80.5977,358.172 78.4727,358.972 75.5317,358.972 C 70.3007,360.09 65.3985,365.043 63.2735,370.953 L 65.3985,509.953 C 3.9493,445.726 10.9766,332.449 12.1211,243.617 C 12.1211,170.601 12.1211,87.844 12.1211,12.91 L 514.356,12.91 L 514.516,329.414 C 520.727,396.515 505.368,475.441 464.836,520.816 L 464.836,359.133 L 446.207,359.133 L 446.207,234.832 C 447.676,231.957 448.164,231.16 448.657,227.008 C 447.516,223.972 450.782,226.051 442.61,220.14 C 450.782,211.195 449.961,198.414 453.723,187.547 C 449.637,177.484 435.582,183.554 426.594,181.48 C 418.586,181.48 421.532,190.426 420.547,196.336 C 418.586,200.328 413.36,199.211 409.434,198.41 L 408.293,187.547 C 404.211,176.683 388.192,184.672 378.223,181.48 C 370.051,181.48 373.16,190.426 372.012,196.336 C 370.051,200.328 364.989,199.211 360.903,198.41 L 360.086,187.547 C 356.004,177.484 341.95,183.554 332.797,181.48 C 323.645,185.472 326.586,199.211 328.711,208.16 C 330.672,210.078 331.653,214.07 335.739,216.945 C 336.879,219.019 335.739,223.015 336.879,225.89 L 346.028,235.793 L 346.192,359.133 L 313.996,359.133 L 313.996,277.172 C 320.981,268.117 326.973,247.472 323.59,232.027 C 324.875,232.648 326.145,233.258 327.442,233.66 C 330.422,229.801 327.45,226.82 325.379,223.844 C 325.379,223.547 325.977,221.168 326.575,220.277 C 325.688,218.195 322.422,215.215 320.34,214.32 C 321.235,212.539 323.317,212.84 325.102,211.949 C 323.028,209.566 319.164,205.695 314.407,206.578 C 311.133,207.758 306.664,213.703 303.387,214.293 L 297.481,189.297 C 297.485,187.219 299.266,189.004 301.051,188.41 C 301.957,179.195 287.996,170.84 295.45,160.441 C 301.684,166.101 308.516,172.363 317.137,174.754 C 315.071,167.91 312.407,160.769 310.926,153.625 C 313.004,155.707 334.086,177.16 344.496,176.586 C 340.352,166.765 334.715,157.535 331.164,147.113 C 331.164,148.004 352.246,167.375 366.215,174.242 C 367.403,174.242 368.293,174.246 369.485,174.246 C 363.852,163.828 352.578,147.449 351.11,135.551 C 351.11,135.254 353.782,137.933 354.672,137.933 C 359.719,142.996 364.168,149.551 368.918,154.316 C 375.153,159.976 381.094,164.449 387.336,168.621 C 387.633,168.621 389.121,168.625 389.418,168.625 C 386.461,159.101 379.938,148.383 376.086,137.371 C 373.715,133.203 372.832,129.039 370.754,125.765 C 369.571,121.304 366.602,118.324 367.801,114.457 C 379.973,128.16 395.996,151.687 412.348,155.582 C 408.496,148.437 399.313,125.816 397.243,119.566 C 390.137,100.222 387.793,80.586 382.176,61.539 C 377.438,50.527 370.606,44.269 358.418,40.976 C 352.473,40.074 347.711,40.664 342.95,42.136 C 337.59,44.207 333.422,48.066 332.223,53.418 C 331.922,56.9839 332.801,61.449 334.879,64.426 C 337.547,67.105 342.008,68.601 346.176,68.312 C 344.684,72.769 339.618,77.519 336.633,81.976 C 321.442,95.929 304.172,105.418 282.45,109.844 C 278.586,108.945 272.957,96.1479 271.774,92.574 C 270,87.816 270.305,82.461 270.91,77.1089 C 272.121,64.3199 279.582,49.164 270.68,39.633 C 266.821,36.355 261.766,34.8589 257.305,34.554 C 255.227,34.254 253.438,34.844 252.25,35.433 C 249.575,36.0229 247.192,38.6949 247.188,41.375 C 243.024,42.554 238.864,39.875 234.696,41.058 C 226.66,44.613 227.239,54.726 231.696,57.41 C 232.594,53.25 235.571,52.363 237.95,52.066 C 240.313,58.91 244.77,62.191 248.629,67.254 C 254.852,80.9449 246.805,92.535 244.7,105.023 C 244.102,107.101 242.61,110.074 241.418,112.156 C 211.094,104.668 178.121,76.355 176.649,67.429 C 176.649,66.539 177.543,64.754 177.84,64.758 C 181.11,64.762 184.086,64.765 186.172,62.691 C 189.45,59.426 191.246,51.3979 188.278,47.226 C 182.938,39.785 172.832,35.601 163.903,37.371 C 154.684,38.84 149.317,44.7809 144.547,51.019 C 139.778,57.851 136.196,65.2809 133.504,72.715 C 129.317,88.769 128.395,104.234 123.61,119.992 C 120.328,127.125 121.211,131.886 116.739,137.824 L 111.364,150.605 C 118.5,150.914 126.848,138.738 133.7,133.988 C 141.446,125.379 146.817,116.762 153.969,108.742 C 154.266,108.742 155.157,108.742 155.453,109.039 C 149.473,128.656 146.176,142.633 134.547,158.972 C 134.547,160.16 133.055,163.73 133.946,164.918 C 143.762,164.043 151.813,153.054 159.559,145.926 C 164.922,139.988 171.184,131.969 174.766,124.539 C 173.563,133.758 171.168,143.269 166.989,150.996 L 158.036,167.636 C 158.036,168.23 158.032,170.312 158.621,170.609 C 168.145,166.465 178.875,154.883 186.918,147.758 L 193.477,139.144 C 193.457,151.933 186.301,160.844 179.743,170.945 C 179.743,171.242 177.953,174.215 178.25,174.512 C 191.344,171.859 201.778,157.004 211.907,147.801 C 212.5,147.801 213.391,148.101 213.688,148.992 L 207.11,170.097 C 207.11,170.988 208.297,171.285 208.594,171.289 L 217.825,165.656 L 228.547,155.859 C 229.735,155.566 230.625,155.566 230.922,156.754 C 230.606,167.457 226.129,177.863 219.868,186.179 C 219.868,186.476 222.539,188.265 222.836,188.859 L 229.684,184.711 L 221.918,205.219 L 217.746,210.269 C 214.176,211.75 213.59,206.097 205.258,206.976 C 203.477,207.269 200.493,211.726 201.086,213.808 C 198.703,216.48 194.832,218.258 195.125,222.719 C 197.207,222.719 199.887,221.238 201.965,222.726 C 199.289,224.504 196.016,225.094 193.926,227.769 C 191.547,228.953 191.532,237.281 194.801,237.289 C 195.973,236.422 197.2,235.691 198.457,235.09 L 198.414,235.109 z M 310.219,464.269 L 310.219,477.308 L 290.446,477.308 L 290.446,457.097 L 307.008,457.097 C 308.274,459.32 309.356,461.707 310.219,464.269 z M 310.219,481.644 L 310.219,610.297 C 284.071,620.84 247.786,613.969 219.676,612.054 L 219.676,481.644 L 239.75,481.644 L 239.75,498.914 L 244.082,498.914 L 244.082,481.644 L 262.063,481.644 L 262.063,498.914 L 266.395,498.914 L 266.395,481.644 L 286.106,481.644 L 286.106,498.914 L 290.438,498.914 L 290.438,481.644 L 310.211,481.644 L 310.219,481.644 z M 219.676,477.312 L 219.676,465.39 C 220.512,462.406 221.653,459.652 223.051,457.101 L 239.75,457.101 L 239.75,477.312 L 219.676,477.312 z M 225.813,452.765 C 229.504,447.746 234.301,443.773 239.75,440.859 L 239.75,452.765 L 225.813,452.765 z M 244.082,438.816 C 249.711,436.496 255.848,435.179 262.063,434.883 L 262.063,452.765 L 244.082,452.765 L 244.082,438.82 L 244.082,438.816 z M 266.399,434.84 C 273.18,435.027 279.942,436.426 286.11,439.031 L 286.11,452.762 L 266.399,452.762 L 266.399,434.84 z M 290.442,441.109 C 295.743,443.996 300.453,447.883 304.149,452.762 L 290.442,452.762 L 290.442,441.109 z M 262.063,457.097 L 244.086,457.097 L 244.086,477.308 L 262.063,477.308 L 262.063,457.097 z M 286.11,457.097 L 266.399,457.097 L 266.399,477.308 L 286.11,477.308"
        style="fill:#ec2a32;fill-rule:evenodd;stroke:none" />
    </g>
  </g>
</svg>