<svg width="600" height="400" viewBox="0 0 600 400" fill="none" xmlns="http://www.w3.org/2000/svg" xmlns:cgf="https://coding.garden/flags"><metadata id="cgf-metadata">

<cgf:flag>
  <cgf:name>Deventer</cgf:name>
  <cgf:route>nl/ov/deventer</cgf:route>
  <cgf:aspect-ratio>1.5</cgf:aspect-ratio>
</cgf:flag>

</metadata><g clip-path="url(#clip0_1_7232)">
<path d="M-0.00292969 -1.00244V201.235L600.166 200.386V-1.00244H-0.00292969V-1.00244Z" fill="#F9F9F9" stroke="black" stroke-width="0.0157868"/>
<path d="M0.0878906 200.274V400.151L600.257 399.311V200.274H0.0878906V200.274Z" fill="#FF0000" stroke="black" stroke-width="0.0156944"/>
<path d="M272.179 244.093C262.912 254.243 253.645 262.971 244.378 267.197C239.182 268.587 233.985 269.676 228.788 268.129C227.346 260.305 224.551 254.72 217.141 256.763C209.254 253.136 205.057 256.607 204.932 261.794C209.127 259.274 211.256 259.416 215.451 258.999C209.775 268.016 221.8 269.718 226.909 274.278C217.649 274.657 201.489 267.667 203.993 280.613C204.667 282.911 205.141 285.209 207.749 287.507L208.501 281.358C213.518 286.089 218.062 283.294 222.589 280.24L231.793 279.495C224.781 281.328 216.126 296.803 232.169 298.5C234.736 299.639 237.303 299.225 239.87 297.382L234.611 295.147C235.758 294.205 240.151 289.824 237.408 289.444C224.914 287.712 238.293 283.246 239.682 279.868L249.826 280.24C252.218 279.663 254.61 280.695 257.002 282.34C258.617 283.45 257.039 288.008 261.848 286.203L259.594 293.656C265.656 291.897 269.625 288.984 266.732 282.29C268.726 280.26 266.694 275.951 262.811 276.814C257.698 277.949 252.977 273.093 250.014 271.11C259.701 268.2 268.69 263.213 276.875 255.831L278.941 241.111C276.687 241.48 274.433 240.082 272.179 244.093V244.093Z" stroke="black" stroke-width="3.33057"/>
<path d="M305.992 142.778C298.022 142.945 290.053 142.491 282.083 143.305C277.237 141.994 272.674 141.808 268.535 143.305C262.26 143.305 255.809 143.305 246.752 143.305C243.901 143.35 240.853 143.708 241.439 138.298C242.92 133.646 245.756 128.844 241.174 124.859C239.417 117.789 240.566 112.592 252.862 114.582C259.16 116.261 272.109 111.595 262.957 93.7653C257.488 84.8358 244.609 82.1252 230.016 80.8534L202.389 63.4619C202.699 72.4212 210.095 81.3804 218.062 90.3397C211.421 89.0284 204.78 84.508 198.139 79.0089C200.607 83.4885 202.298 87.9681 207.436 92.4478C201.778 91.9023 197.967 87.6927 193.623 84.5425C192.315 102.023 205.203 111.456 223.641 117.745C212.332 118.252 202.496 115.106 192.56 112.211C199.32 116.079 205.697 120.036 224.172 121.17C213.103 125.277 202.035 123.971 190.966 120.38C195.518 132.687 207.192 144.046 225.5 144.622C213.723 150.566 201.946 154.565 190.169 154.899L190.435 157.798C202.778 159.108 215.372 157.173 228.422 149.366C223.167 156.384 228.678 159.767 192.294 177.297C211.547 192.082 224.727 177.614 239.314 169.919C230.018 180.814 221.602 192.247 210.234 201.877C204.668 206.592 196.536 208.24 190.966 214.452C210.651 212.817 224.931 194.331 239.845 177.824C222.04 216.691 204.888 230.71 187.778 238.695C194.166 240.791 200.277 243.161 210.093 241.857C227.175 232.474 237.408 217.146 249.143 203.121C239.641 219.377 230.217 235.665 217.265 250.553H222.844C236.755 238.096 245.93 217.183 256.581 198.905C250.872 219.72 244.599 239.338 234.001 249.762C258.706 245.878 269.665 211.691 282.083 180.723C283.65 188.16 285.934 195.776 290.318 203.912C280.537 209.729 271.842 222.011 262.691 231.58C272.693 234.765 265.518 242.21 262.16 248.708C267.384 245.827 272.609 241.501 277.833 241.857C273.932 255.037 279.455 257.936 282.083 263.991C283.07 260.001 280.512 254.253 287.928 253.451C292.233 248.972 292.571 244.492 292.709 240.012C294.476 250.846 297.341 261.498 303.335 271.633C303.889 287.993 288.974 287.901 289.521 278.484C290.355 273.606 292.935 274.788 295.1 274.532C294.661 273.885 290.13 268.582 285.537 276.903C280.844 271.809 276.15 274.152 271.457 275.059C286.964 279.512 283.033 284.679 279.958 289.815C284.217 293.377 289.386 292.419 294.303 292.714C294.103 307.108 276.968 312.94 269.864 303.518C268.94 300.468 271.594 299.193 273.317 297.457C270.339 297.714 265.53 296.907 266.676 301.937C261.363 298.781 251.534 295.345 245.69 298.774C261.718 302.654 251.018 308.522 241.97 302.2C245.103 306.931 249.111 309.058 253.659 309.578C242.912 307.621 238.197 311.273 238.783 319.855C238.614 318.655 244.154 309.965 254.722 313.004C264.986 324.844 276.837 320.947 288.459 319.328C288.758 321.792 290.381 323.73 287.396 327.497C277.703 336.506 270.236 330.602 264.551 330.395C272.692 339.791 284.218 344.61 293.772 334.348C300.577 333.837 303.64 337.655 306.257 341.99L305.992 142.778Z" fill="black" stroke="black" stroke-width="3.33057"/>
<path d="M306.788 142.382C314.758 142.55 322.727 142.095 330.696 142.909C335.543 141.598 340.106 141.412 344.244 142.909C350.519 142.909 356.971 142.909 366.028 142.909C368.878 142.954 371.927 143.312 371.341 137.903C369.86 133.25 367.024 128.448 371.606 124.464C373.363 117.394 372.213 112.197 359.918 114.187C353.62 115.865 340.671 111.199 349.823 93.3698C355.292 84.4403 368.171 81.7297 382.763 80.4579L410.391 63.0664C410.081 72.0257 402.684 80.9849 394.718 89.9442C401.359 88.6329 408 84.1125 414.641 78.6134C412.172 83.093 410.482 87.5726 405.343 92.0523C411.001 91.5068 414.812 87.2972 419.157 84.147C420.465 101.627 407.576 111.061 389.139 117.349C400.448 117.857 410.283 114.711 420.22 111.815C413.46 115.684 407.083 119.641 388.608 120.775C399.676 124.882 410.745 123.575 421.814 119.984C417.262 132.291 405.588 143.65 387.279 144.227C399.056 150.17 410.834 154.17 422.611 154.504L422.345 157.402C410.002 158.712 397.407 156.777 384.357 148.97C389.613 155.989 384.102 159.372 420.485 176.902C401.233 191.686 388.052 177.219 373.466 169.524C382.762 180.419 391.178 191.851 402.546 201.482C408.111 206.197 416.244 207.845 421.814 214.056C402.129 212.421 387.849 193.935 372.934 177.429C390.74 216.296 407.892 230.314 425.001 238.299C418.614 240.395 412.503 242.766 402.687 241.461C385.605 232.078 375.372 216.75 363.637 202.726C373.139 218.982 382.563 235.269 395.515 250.157H389.936C376.025 237.7 366.849 216.788 356.199 198.509C361.908 219.325 368.181 238.942 378.779 249.367C354.073 245.482 343.115 211.296 330.696 180.327C329.13 187.765 326.845 195.38 322.461 203.516C332.243 209.334 340.938 221.616 350.089 231.184C340.087 234.37 347.262 241.814 350.62 248.312C345.396 245.431 340.171 241.106 334.947 241.461C338.848 254.642 333.325 257.54 330.696 263.596C329.71 259.606 332.268 253.857 324.852 253.056C320.547 248.576 320.209 244.096 320.071 239.617C318.303 250.45 315.439 261.103 309.445 271.238C308.89 287.597 323.806 287.506 323.258 278.089C322.424 273.211 319.845 274.393 317.68 274.136C318.118 273.489 322.65 268.186 327.243 276.508C331.936 271.413 336.629 273.756 341.322 274.663C325.816 279.117 329.747 284.284 332.822 289.42C328.563 292.981 323.394 292.024 318.477 292.318C318.677 306.713 335.812 312.544 342.916 303.122C343.84 300.073 341.186 298.798 339.463 297.061C342.441 297.319 347.25 296.511 346.104 301.541C351.417 298.385 361.246 294.95 367.09 298.379C351.062 302.258 361.762 308.126 370.809 301.805C367.676 306.535 363.669 308.663 359.121 309.183C369.868 307.225 374.583 310.878 373.997 319.46C374.166 318.259 368.626 309.569 358.058 312.608C347.794 324.449 335.942 320.551 324.321 318.933C324.022 321.396 322.399 323.335 325.383 327.101C335.077 336.11 342.544 330.207 348.229 330C340.088 339.396 328.562 344.215 319.008 333.953C312.203 333.441 309.14 337.26 306.522 341.594L306.788 142.382V142.382Z" fill="black" stroke="black" stroke-width="3.33057"/>
<path d="M341.827 243.759C351.094 253.909 360.36 262.638 369.627 266.864C374.824 268.253 380.021 269.342 385.218 267.795C386.659 259.971 389.455 254.386 396.864 256.429C404.752 252.803 408.949 256.273 409.074 261.46C404.879 258.94 402.75 259.083 398.555 258.665C404.23 267.683 392.206 269.384 387.097 273.944C396.357 274.324 412.517 267.333 410.013 280.279C409.339 282.577 408.865 284.876 406.256 287.174L405.505 281.025C400.487 285.755 395.944 282.96 391.417 279.907L382.213 279.161C389.225 280.994 397.88 296.47 381.837 298.167C379.27 299.306 376.703 298.891 374.135 297.049L379.395 294.813C378.248 293.871 373.854 289.49 376.597 289.11C389.092 287.379 375.713 282.913 374.323 279.534L364.18 279.907C361.788 279.329 359.396 280.361 357.004 282.006C355.389 283.117 356.967 287.674 352.158 285.869L354.412 293.322C348.35 291.563 344.38 288.651 347.274 281.956C345.28 279.926 347.312 275.618 351.195 276.48C356.308 277.616 361.029 272.759 363.992 270.777C354.305 267.867 345.316 262.879 337.131 255.498L335.064 240.778C337.319 241.146 339.573 239.749 341.827 243.759V243.759Z" stroke="black" stroke-width="3.33057"/>
<path d="M292.654 76.5833C297.131 79.3574 301.222 81.6206 307.118 86.2724C308.258 85.5973 315.115 87.6382 313.317 94.8434C315.486 97.1488 318.761 104.98 309.936 110.495L309.748 119.439C305.047 120.339 300.085 120.678 298.29 127.824C297.188 132.932 289.524 133.972 285.141 133.227C287.358 135.276 287.11 137.297 293.406 137.513L293.593 146.829L318.576 146.084L317.637 138.072C320.768 138.555 323.899 138.842 327.029 133.972C324.9 134.577 322.772 136.315 320.643 134.159C318.767 131.177 321.079 128.196 322.521 125.215C325.839 121.286 328.075 117.089 327.405 112.172C330.16 111.687 332.915 111.341 335.67 108.445C323.63 106.754 325.925 95.2038 324.963 93.1665C325.501 90.1602 328 89.0989 331.537 89.0673C328.782 85.6689 326.027 85.5153 323.272 85.527C326.471 84.5413 329.379 83.1233 330.598 79.1919C328.031 80.1854 325.464 82.5928 322.897 80.8688C312.709 70.3279 297.858 72.5197 292.654 76.5833V76.5833Z" fill="black" stroke="black" stroke-width="3.33057"/>
<path opacity="0.453061" d="M307.682 80.4963C307.682 81.3116 307.365 82.0937 306.802 82.6702C306.238 83.2468 305.473 83.5707 304.676 83.5707C303.879 83.5707 303.115 83.2468 302.551 82.6702C301.988 82.0937 301.671 81.3116 301.671 80.4963C301.671 79.6809 301.988 78.8989 302.551 78.3223C303.115 77.7457 303.879 77.4219 304.676 77.4219C305.473 77.4219 306.238 77.7457 306.802 78.3223C307.365 78.8989 307.682 79.6809 307.682 80.4963Z" fill="white" stroke="black" stroke-width="3.33057" stroke-linecap="square" stroke-dasharray="19.98 3.33"/>
<path opacity="0.453061" d="M307.682 80.4963C307.682 81.3116 307.365 82.0937 306.802 82.6702C306.238 83.2468 305.473 83.5707 304.676 83.5707C303.879 83.5707 303.115 83.2468 302.551 82.6702C301.988 82.0937 301.671 81.3116 301.671 80.4963C301.671 79.6809 301.988 78.8989 302.551 78.3223C303.115 77.7457 303.879 77.4219 304.676 77.4219C305.473 77.4219 306.238 77.7457 306.802 78.3223C307.365 78.8989 307.682 79.6809 307.682 80.4963Z" fill="white" stroke="black" stroke-width="3.33057" stroke-linecap="square" stroke-dasharray="19.98 3.33"/>
<path opacity="0.453061" d="M307.682 80.4963C307.682 81.3116 307.365 82.0937 306.802 82.6702C306.238 83.2468 305.473 83.5707 304.676 83.5707C303.879 83.5707 303.115 83.2468 302.551 82.6702C301.988 82.0937 301.671 81.3116 301.671 80.4963C301.671 79.6809 301.988 78.8989 302.551 78.3223C303.115 77.7457 303.879 77.4219 304.676 77.4219C305.473 77.4219 306.238 77.7457 306.802 78.3223C307.365 78.8989 307.682 79.6809 307.682 80.4963Z" fill="white" stroke="black" stroke-width="3.33057" stroke-linecap="square" stroke-dasharray="19.98 3.33"/>
<path opacity="0.453061" d="M307.682 80.4963C307.682 81.3116 307.365 82.0937 306.802 82.6702C306.238 83.2468 305.473 83.5707 304.676 83.5707C303.879 83.5707 303.115 83.2468 302.551 82.6702C301.988 82.0937 301.671 81.3116 301.671 80.4963C301.671 79.6809 301.988 78.8989 302.551 78.3223C303.115 77.7457 303.879 77.4219 304.676 77.4219C305.473 77.4219 306.238 77.7457 306.802 78.3223C307.365 78.8989 307.682 79.6809 307.682 80.4963Z" fill="white" stroke="black" stroke-width="3.33057" stroke-linecap="square" stroke-dasharray="19.98 3.33"/>
<path opacity="0.453061" d="M307.682 80.4963C307.682 81.3116 307.365 82.0937 306.802 82.6702C306.238 83.2468 305.473 83.5707 304.676 83.5707C303.879 83.5707 303.115 83.2468 302.551 82.6702C301.988 82.0937 301.671 81.3116 301.671 80.4963C301.671 79.6809 301.988 78.8989 302.551 78.3223C303.115 77.7457 303.879 77.4219 304.676 77.4219C305.473 77.4219 306.238 77.7457 306.802 78.3223C307.365 78.8989 307.682 79.6809 307.682 80.4963Z" fill="white" stroke="black" stroke-width="3.33057" stroke-linecap="square" stroke-dasharray="19.98 3.33"/>
<path opacity="0.453061" d="M307.682 80.4963C307.682 81.3116 307.365 82.0937 306.802 82.6702C306.238 83.2468 305.473 83.5707 304.676 83.5707C303.879 83.5707 303.115 83.2468 302.551 82.6702C301.988 82.0937 301.671 81.3116 301.671 80.4963C301.671 79.6809 301.988 78.8989 302.551 78.3223C303.115 77.7457 303.879 77.4219 304.676 77.4219C305.473 77.4219 306.238 77.7457 306.802 78.3223C307.365 78.8989 307.682 79.6809 307.682 80.4963Z" fill="white" stroke="black" stroke-width="3.33057" stroke-linecap="square" stroke-dasharray="19.98 3.33"/>
<path d="M291.049 76.4948C281.129 75.2488 279.113 81.7425 276.686 87.8324C290.098 83.4901 297.571 88.169 305.858 91.6116C306.961 93.1503 309.346 95.0668 305.969 95.2858C302.707 93.3085 290.743 92.999 281.489 93.5195C278.551 93.6846 276.083 93.0738 274.57 92.7663C267.951 89.4967 270.005 86.3592 271.341 82.1636C259.714 80.9396 261.854 92.1268 271.564 96.8605C274.739 97.8328 279.826 98.8284 285.262 97.8105C294.997 95.9878 300.58 96.8254 304.967 97.1754C310.369 98.4482 307.857 101.522 304.299 100.955C296.109 101.033 283.24 93.7573 280.583 102.529C288.991 101.917 298.822 102.508 308.308 110.298C310.193 109.998 320.624 103.394 312.093 95.2858C313.305 91.7413 311.809 88.9627 307.083 87.0976L291.049 76.4948V76.4948Z" fill="#FF0000" stroke="black" stroke-width="0.0156738"/>
</g>
<defs>
<clipPath id="clip0_1_7232">
<rect width="600" height="400" fill="white"/>
</clipPath>
</defs>
</svg>
