<svg width="600" height="400" viewBox="0 0 600 400" fill="none" xmlns="http://www.w3.org/2000/svg" xmlns:cgf="https://coding.garden/flags"><metadata id="cgf-metadata">

<cgf:flag>
  <cgf:name>Hardenberg</cgf:name>
  <cgf:route>nl/ov/hardenberg</cgf:route>
  <cgf:aspect-ratio>1.5</cgf:aspect-ratio>
</cgf:flag>

</metadata><g clip-path="url(#clip0_1_7252)">
<path d="M600 0H0V400H600V0Z" fill="#FFFF00"/>
<path d="M0 40C40 22.6667 80 22.6667 120 40C160 57.3333 200 57.3333 240 40C280 22.6667 320 22.6667 360 40C400 57.3333 440 57.3333 480 40C520 22.6667 560 22.6667 600 40V80C560 62.6667 520 62.6667 480 80C440 97.3333 400 97.3333 360 80C320 62.6667 280 62.6667 240 80C200 97.3333 160 97.3333 120 80C80 62.6667 40 62.6667 0 80" fill="#0000FF"/>
<path d="M0 320C40 302.667 80 302.667 120 320C160 337.333 200 337.333 240 320C280 302.667 320 302.667 360 320C400 337.333 440 337.333 480 320C520 302.667 560 302.667 600 320V360C560 342.667 520 342.667 480 360C440 377.333 400 377.333 360 360C320 342.667 280 342.667 240 360C200 377.333 160 377.333 120 360C80 342.667 40 342.667 0 360" fill="#0000FF"/>
<path d="M118.4 184C141.6 156 124.8 128 100 128C75.2002 128 58.4002 156 81.6002 184C49.6002 165.6 24.8002 185.6 28.8002 211.2C32.8002 236.8 69.6002 250.4 94.4002 211.2C96.8002 218.4 97.6002 223.2 94.4002 235.2C91.2002 247.2 92.8002 260 103.2 265.6C98.4002 258.4 99.2002 247.2 103.2 236.8C107.2 226.4 107.2 219.2 105.6 211.2C130.4 250.4 167.2 236.8 171.2 211.2C175.2 185.6 150.4 165.6 118.4 184Z" fill="#FF0000"/>
</g>
<defs>
<clipPath id="clip0_1_7252">
<rect width="600" height="400" fill="white"/>
</clipPath>
</defs>
</svg>
