<svg width="600" height="400" viewBox="0 0 600 400" fill="none" xmlns="http://www.w3.org/2000/svg" xmlns:cgf="https://coding.garden/flags"><metadata id="cgf-metadata">

<cgf:flag>
  <cgf:name>Hengelo</cgf:name>
  <cgf:route>nl/ov/hengelo</cgf:route>
  <cgf:aspect-ratio>1.5</cgf:aspect-ratio>
</cgf:flag>

</metadata><g clip-path="url(#clip0_1_7257)">
<path d="M600 0.239746H0V399.76H600V0.239746Z" fill="#0039A6"/>
<path d="M600 338.199V276.696L586.008 263.969C542.305 224.22 480.162 195.988 423.134 189.975C381.516 185.586 342.092 170.9 301.119 144.522C275.614 128.102 258.134 112.75 239.181 90.1234C210.379 55.7392 184.644 35.6472 140.914 13.4032L117.916 0L58.7687 0.0906704L0 0.181341V55.0614V109.942L11.7537 112.422C44.2153 119.272 84.2687 137.195 118.043 159.984C135.89 172.026 154.052 189.335 183.582 222.446C209.581 251.597 241.814 273.894 284.799 292.464C309.313 303.054 331.796 308.836 364.925 313.072C396.369 317.093 421.662 324.9 450.993 339.639C484.172 356.312 524.161 387.016 530.429 398.24C531.96 400.981 538.404 399.702 565.772 399.702H600V338.199Z" fill="white"/>
</g>
<defs>
<clipPath id="clip0_1_7257">
<rect width="600" height="400" fill="white"/>
</clipPath>
</defs>
</svg>
