<svg width="600" height="400" viewBox="0 0 600 400" fill="none" xmlns="http://www.w3.org/2000/svg" xmlns:cgf="https://coding.garden/flags"><metadata id="cgf-metadata">

<cgf:flag>
  <cgf:name>Hof van Twente</cgf:name>
  <cgf:route>nl/ov/hof_van_twente</cgf:route>
  <cgf:aspect-ratio>1.5</cgf:aspect-ratio>
</cgf:flag>

</metadata><g clip-path="url(#clip0_1_7291)">
<path d="M1.06543 0.35498L2.84969 397.753H599.966L598.181 0.35498H1.06543V0.35498Z" fill="white" stroke="black" stroke-width="0.010389"/>
<path d="M0.0361328 0.0341797L0.572839 177.204H180.245L179.708 0.0341797H0.0361328V0.0341797Z" fill="#FFE715" stroke="black" stroke-width="0.0038051"/>
<path d="M222.009 217.899L223.134 396.727H599.67L598.544 217.899H222.009V217.899Z" fill="#FFE715" stroke="black" stroke-width="0.00553412"/>
<path d="M221.414 0.034668L222.542 177.204H599.959L598.831 0.034668H221.414V0.034668Z" fill="#038240" stroke="black" stroke-width="0.00551487"/>
<path d="M2.35156 217.899L2.88303 399.976H180.776L180.245 217.899H2.35156Z" fill="#038240" stroke="black" stroke-width="0.00383827"/>
<path d="M302.78 95.079C299.929 103.569 293.414 109.945 287.547 114.326C276.233 120.759 253.28 96.6245 268.798 78.5426C271.915 75.7971 276.298 72.1407 282.137 70.1881C297.277 65.1261 313.382 56.4714 316.256 46.8252C327.327 58.7433 335.147 71.5287 338.663 88.1336C339.157 91.7803 343.885 110.787 327.973 123.001C315.768 131.196 305.715 131.141 298.972 118.393C295.934 122.525 292.21 128.024 298.391 139.977L297.214 140.622C288.646 133.487 288.734 122.155 291.062 118.122C294.956 111.813 299.41 107.079 301.358 104.189C304.44 99.6155 303.174 97.4608 302.78 95.079V95.079Z" fill="#FFE715"/>
<path d="M74.083 260.896C72.2416 265.677 72.3007 270.457 66.73 275.237C61.3706 281.266 58.6092 288.06 58.1516 295.531C46.8568 309.997 45.651 321.723 48.2164 335.469C48.5421 337.175 50.0284 337.539 49.9105 338.076C49.7466 338.825 49.5737 343.737 51.4719 344.101C52.9266 344.381 53.3089 341.343 53.5316 341.604C54.5268 342.774 60.2045 338.359 59.5024 336.119L61.4215 321.229C65.2692 318.745 68.6663 315.097 70.1 309.06L70.7129 313.39L64.2789 323.131C63.1023 326.864 60.1718 329.978 62.747 335.036C65.0032 337.923 65.4414 340.809 72.2447 343.695C72.8183 347.041 75.1439 350 78.9849 352.624L80.2106 342.613C84.3726 339.389 85.0802 334.838 81.6551 331.519C81.5716 323.07 82.6535 317.26 84.806 313.66C83.2305 321.915 84.5472 331.022 87.8698 340.719C91.6258 348.335 97.9847 351.354 104.108 354.789C104.796 350.189 106.546 345.589 102.576 340.989C98.7391 336.314 97.6718 335.67 96.142 332.872L96.7546 331.789C98.8029 334.258 99.807 336.112 104.108 339.907C114.422 343.463 112.939 338.611 112.38 335.307C112.983 331.448 106.827 328.784 103.801 325.566L102.882 318.531L105.027 319.072C103.307 320.728 104.952 324.059 108.105 326.432C109.932 328.651 112.736 330.597 117.282 332.06L118.376 334.468L121.483 337.168C121.229 334.563 121.893 331.959 122.797 329.354C131.405 320.446 125.127 315.921 122.184 310.413L113.912 301.484C117.327 282.705 101.808 265.886 74.083 260.896V260.896Z" fill="#FFE715"/>
<path d="M88.5534 138.862C86.8046 134.984 85.6544 131.267 85.3433 128.489L85.0066 125.483L83.6123 126.514C80.6212 128.726 75.8599 129.021 72.1605 127.222C69.7383 126.044 67.4117 122.633 66.9699 119.613L66.5827 116.965L64.821 117.383C58.6815 118.84 53.1021 115.997 51.5647 110.628C50.7284 107.707 51.3536 104.837 53.4586 101.933C55.136 99.619 55.8788 99.2054 68.0954 93.7848C79.5067 88.7215 81.0286 88.1747 81.5247 88.9589C82.8391 91.0364 85.8946 93.8304 87.7647 94.6649L89.7817 95.565L89.4407 99.3231C89.2531 101.39 88.9325 106.438 88.7281 110.541L88.3565 118L91.2478 121.051C94.1774 124.142 95.5598 127.16 94.8607 128.94C94.6496 129.477 93.4688 131.272 92.2369 132.929C90.8874 134.744 89.8515 136.836 89.6311 138.191L89.2653 140.44L88.5534 138.862V138.862ZM100.573 126.352C99.3546 125.703 97.6119 124.174 96.7002 122.954C95.1059 120.821 94.9921 120.27 93.722 108.549C92.9956 101.846 92.5155 96.2539 92.6549 96.1227C92.7943 95.9916 93.9982 95.6559 95.3301 95.3768C98.2292 94.7692 100.842 93.1832 102.288 91.1534C102.871 90.3357 103.543 89.6659 103.783 89.6651C104.022 89.664 108.72 91.4394 114.222 93.6099C119.724 95.7805 124.47 97.5563 124.768 97.5563C125.067 97.5563 126.787 96.9421 128.593 96.1914C132.325 94.6393 135.917 94.3892 137.692 95.558C138.357 95.9964 139.845 97.6316 140.999 99.192C142.152 100.752 143.929 102.423 144.948 102.904C145.967 103.385 146.97 103.942 147.177 104.142C147.632 104.583 134.716 104.107 132.671 103.607L131.219 103.253L131.79 105.874C133.249 112.57 126.506 118.721 119.52 117.067C116.037 116.242 115.937 116.287 115.937 118.689C115.937 125.514 107.19 129.876 100.573 126.352ZM40.3974 98.5363C38.2811 97.8156 36.5681 97.5791 34.9129 97.7791C33.5891 97.939 32.6369 97.8707 32.7968 97.6272C33.4484 96.6359 41.4159 91.8625 43.862 90.998L46.4873 90.0702L44.8167 88.7483C41.1561 85.8518 40.0498 81.3319 42.0088 77.2764C42.9687 75.2891 46.0382 72.2994 47.1186 72.2994C47.3827 72.2994 48.2617 72.0624 49.0718 71.7727L50.5449 71.2461L49.2764 69.5709C46.5126 65.9209 47.5448 59.392 51.3281 56.5935C54.6516 54.1351 60.4955 53.8051 63.9788 55.8791C65.4879 56.7776 83.4831 75.6645 83.4831 76.3498C83.4831 76.5137 82.9831 77.4086 82.3719 78.3386C81.7607 79.2685 81.0655 81.3046 80.8269 82.8632L80.3932 85.6971L67.5297 88.3707L54.6661 91.0444L53.1588 93.6426C52.3298 95.0717 50.7598 97.0104 49.6698 97.951C47.3036 99.9928 45.0861 100.133 40.3974 98.5363V98.5363ZM89.6385 92.2295C84.6345 90.3531 82.4199 84.1908 85.3036 80.1669C90.2062 73.3258 101.389 76.3722 101.389 84.5489C101.389 87.9327 99.8441 90.3064 96.7147 91.731C94.1379 92.904 91.8644 93.0642 89.6385 92.2295ZM116.217 88.6818L105.026 86.7572L104.699 83.6062C104.337 80.1088 103.323 77.9203 101.201 76.0568L99.7878 74.8154L106.994 66.3601L114.2 57.9049L113.873 52.8625C113.558 47.9975 113.597 47.7634 114.988 46.2086C115.98 45.1007 117.516 44.288 119.905 43.6079C122.289 42.9289 123.983 42.0339 125.305 40.7537L127.231 38.8887L126.815 40.9924C126.163 44.2911 123.942 50.0745 122.696 51.7206L121.562 53.2174L124.16 53.5523C132.083 54.5736 136.162 61.7264 132.508 68.1905L131.172 70.5525L133.067 71.197C138.636 73.0907 141.332 78.0746 139.657 83.3789C138.353 87.5081 133.404 90.8285 128.807 90.6582C128.038 90.6298 122.372 89.7404 116.217 88.6818V88.6818ZM78.9697 65.0721C75.4509 59.7297 72.4406 55.1595 72.2801 54.916C72.1197 54.6725 70.1856 54.1198 67.9821 53.6878C61.0688 52.3323 59.3868 50.5184 59.4838 44.5234C59.5236 42.0613 59.2401 40.3447 58.6018 39.184C58.0844 38.2431 57.7646 37.376 57.8912 37.257C58.3233 36.8507 65.8524 42.1452 67.954 44.3332C70.2984 46.774 70.6134 46.9223 70.6134 45.5861C70.6134 43.9911 73.349 40.7795 75.6461 39.6774C78.0922 38.5039 82.8073 38.2632 84.7789 39.2111C85.4511 39.5343 87.0214 40.7215 88.2683 41.8493L90.5356 43.8998L91.8208 42.265C95.7382 37.2825 104.773 37.6081 108.472 42.8651C109.707 44.619 110.072 45.8141 110.212 48.5629L110.39 52.0412L104.01 62.565L97.6301 73.0887L93.9641 72.9116C91.2319 72.7797 89.6702 72.9958 87.8329 73.7601L85.3676 74.7855L78.9697 65.0721V65.0721Z" fill="#038240"/>
</g>
<defs>
<clipPath id="clip0_1_7291">
<rect width="600" height="400" fill="white"/>
</clipPath>
</defs>
</svg>
