<svg width="600" height="400" viewBox="0 0 600 400" fill="none" xmlns="http://www.w3.org/2000/svg" xmlns:cgf="https://coding.garden/flags"><metadata id="cgf-metadata">

<cgf:flag>
  <cgf:name>Losser</cgf:name>
  <cgf:route>nl/ov/losser</cgf:route>
  <cgf:aspect-ratio>1.5</cgf:aspect-ratio>
</cgf:flag>

</metadata><g clip-path="url(#clip0_1_7301)">
<path d="M600 0H0V400H600V0Z" fill="white"/>
<path d="M79.5756 38.0464H0V119.744H79.5756V38.0464Z" fill="#CC112F"/>
<path d="M273.434 195.766C245.081 189.787 221.02 168.383 208.654 138.139L201.348 120.269H160.674H120V79.1575V38.0464H183.333H246.667V52.0239C246.667 74.9571 255.723 102.579 267.473 115.485C284.256 133.919 315.744 133.919 332.527 115.485C344.277 102.579 353.333 74.9571 353.333 52.0239V38.0464H416.667H480V79.1575V120.269H439.326H398.652L391.181 138.602C381.383 162.644 361.468 183.585 341.111 191.253C325.98 196.952 290.331 199.329 273.434 195.766Z" fill="#CC112F"/>
<path d="M600 38.0464H520.425V119.744H600V38.0464Z" fill="#CC112F"/>
<path d="M520.424 360.743H600V279.045H520.424V360.743Z" fill="#CC112F"/>
<path d="M326.566 203.023C354.919 209.002 378.98 230.406 391.346 260.651L398.652 278.52H439.326H480V319.632V360.743H416.667H353.333V346.765C353.333 323.832 344.277 296.21 332.527 283.304C315.744 264.87 284.256 264.87 267.473 283.304C255.723 296.21 246.667 323.832 246.667 346.765V360.743H183.333H120V319.632V278.52H160.674H201.348L208.819 260.187C218.617 236.145 238.532 215.204 258.889 207.537C274.02 201.837 309.669 199.46 326.566 203.023Z" fill="#CC112F"/>
<path d="M-0.000404358 360.743H79.5752V279.045H-0.000404358V360.743Z" fill="#CC112F"/>
</g>
<defs>
<clipPath id="clip0_1_7301">
<rect width="600" height="400" fill="white"/>
</clipPath>
</defs>
</svg>
