<svg width="600" height="400" viewBox="0 0 600 400" fill="none" xmlns="http://www.w3.org/2000/svg" xmlns:cgf="https://coding.garden/flags"><metadata id="cgf-metadata">

<cgf:flag>
  <cgf:name>Oldenzaal</cgf:name>
  <cgf:route>nl/ov/oldenzaal</cgf:route>
  <cgf:aspect-ratio>1.5</cgf:aspect-ratio>
</cgf:flag>

</metadata><g clip-path="url(#clip0_1_7312)">
<path d="M600 0H0V400H600V0Z" fill="#083882"/>
<path d="M600 180.723H0V217.67H600V180.723Z" fill="#FCD614"/>
<path d="M313.673 0H276.676V400H313.673V0Z" fill="#FCD614"/>
<path d="M71.6038 168.2C71.2291 168.09 70.5559 167.71 70.1078 167.355C69.1524 166.597 71.7621 167.459 46.3209 159.497C36.2039 156.331 27.8951 153.715 27.8568 153.683C27.7923 153.63 27.4306 84.3715 27.407 67.4519L27.3967 59.797L36.1776 59.8402L44.9586 59.8833V59.1288C44.9586 58.6667 45.1041 58.0142 45.3338 57.4453L45.709 56.5164L45.3099 55.5937L44.9108 54.671L44.2913 54.6646C43.248 54.6547 42.388 54.4471 41.9784 54.1066C41.479 53.6916 41.03 52.8142 41.0257 52.2457C41.0178 51.6248 41.5303 50.4858 42.0975 49.8485C42.5708 49.3168 42.5737 49.3041 42.332 48.8463C42.1547 48.5108 41.9873 48.3826 41.7265 48.3826C40.956 48.3826 40.1139 47.4006 40.1139 46.5021C40.1139 46.2901 40.2402 45.8929 40.3946 45.6196C40.6693 45.1332 40.6689 45.1094 40.3755 44.4971C40.2104 44.1531 39.999 43.871 39.9056 43.8703C39.4938 43.8671 38.1032 43.1581 37.4624 42.6248C36.6712 41.9663 36.1802 41.2702 35.6576 40.0662C35.4118 39.5 34.8126 38.7003 33.7581 37.5313C32.0947 35.6873 31.8015 35.1324 31.7696 33.7686C31.7529 33.0391 31.5401 31.9494 31.5026 32.3987C31.493 32.5168 31.2421 32.8692 30.9457 33.1819C29.98 34.2004 28.4843 34.3596 27.6677 33.5308C26.8022 32.6521 26.4214 30.6773 26.8569 29.3248C27.0594 28.6961 27.2769 28.3879 27.8984 27.8487C29.0248 26.8715 29.6625 26.6122 31.1175 26.5401C32.0394 26.4944 32.4538 26.5321 32.8029 26.6956C33.4099 26.979 34.1678 28.0257 34.467 28.9938L34.706 29.7677L35.0825 29.3637C36.3864 27.9646 38.3682 28.1527 40.1818 29.8476C41.3164 30.908 42.0068 32.0985 42.3459 33.5793C42.5632 34.5282 42.5736 34.8021 42.4128 35.3564C42.1798 36.163 41.5554 36.9999 40.8797 37.411C40.4122 37.6955 40.0599 37.8071 38.8463 38.055C38.4306 38.14 38.4161 38.1687 38.5122 38.7181C38.7256 39.9376 40.107 41.0281 41.1488 40.7994C42.1337 40.5832 42.6431 40.0988 43.4491 38.6125C43.8781 37.8213 44.2877 37.1413 44.3593 37.1013C44.431 37.0614 45.1693 37.1843 46.0001 37.3745C48.4531 37.9359 49.4436 37.7942 50.1909 36.7747C50.8025 35.9402 51.2821 33.6339 50.9134 33.3009C50.8585 33.2511 50.4179 33.5506 49.935 33.9665C48.9316 34.8307 48.2753 35.1231 47.3391 35.1231C44.2958 35.1231 41.9606 29.2236 43.9071 26.4524C44.3451 25.8287 45.0926 25.3998 46.0602 25.2166L46.4813 25.137L46.1011 24.687C45.5346 24.0163 45.2359 23.1397 45.2092 22.0686C45.1781 20.8415 45.6193 19.9996 46.699 19.223C48.9449 17.608 51.8435 17.3154 53.4325 18.5434C54.4598 19.3374 54.7229 19.935 54.7229 21.4735V22.7922L55.1636 22.5864C55.8895 22.2474 57.2413 22.4043 57.9378 22.9084C60.6036 24.8377 61.0555 30.2035 58.6948 31.8952C57.98 32.4074 56.7584 32.5277 55.542 32.2057C55.0976 32.0881 54.7065 32.0167 54.6729 32.0471C54.6386 32.0774 54.5766 32.3838 54.5337 32.7278C54.4573 33.3417 54.4724 33.3684 55.3462 34.1562C56.3753 35.0836 57.1839 35.3709 58.1454 35.1505C58.8949 34.9788 59.3745 34.6099 60.6247 33.2435C61.1924 32.6232 61.7138 32.1158 61.7835 32.1158C61.8535 32.1158 62.4731 32.3992 63.1611 32.7457C65.6408 33.9941 66.9648 34.1913 68.1418 33.4874C68.9031 33.0321 69.6368 32.181 70.089 31.2285C70.3565 30.6651 70.4958 29.9286 70.335 29.9286C70.3031 29.9286 69.8831 30.1431 69.4011 30.4052C68.4103 30.9439 67.7736 31.0894 66.8805 30.9812C66.0991 30.8866 65.163 30.0888 64.459 28.9171L63.958 28.0832V25.7594V23.4356L64.4473 22.5901C65.1356 21.4007 65.7717 20.9957 67.0543 20.9303L68.0644 20.8788L67.7951 20.1751C67.4577 19.2937 67.4358 17.7908 67.7505 17.109C68.0451 16.4705 68.9215 15.6424 69.7112 15.2564C70.2437 14.9961 70.5542 14.9604 72.2849 14.9604C73.6424 14.9604 74.4175 15.021 74.783 15.1557C76.3387 15.729 77.2395 16.9786 77.2233 18.5414C77.2153 19.0529 77.1103 19.779 76.9839 20.1549C76.8577 20.5308 76.7536 20.8537 76.7527 20.8725C76.7527 20.8913 77.1291 20.9067 77.5913 20.9067C78.9818 20.9067 79.6053 21.3412 80.3908 22.8576L80.8703 23.7832L80.8106 25.9332C80.7548 27.9337 80.7223 28.1365 80.3406 28.8483C79.1224 31.1197 77.1367 31.6181 74.9377 30.2043C74.3814 29.8467 74.3286 29.8554 74.3288 30.3046C74.3288 31.2241 75.7861 33.2373 76.7908 33.7064C77.8527 34.2022 79.4125 33.8804 81.7845 32.6763L83.1086 32.0041L83.4429 32.4359C85.1759 34.6748 86.1807 35.3639 87.468 35.1964C89.1678 34.9753 90.7471 33.2085 90.0868 32.2669C89.9774 32.111 89.8281 32.1048 89.2651 32.2328C88.1435 32.4878 87.027 32.4297 86.2907 32.0782C84.9314 31.4291 84.26 29.488 84.5901 27.1611C85.0901 23.6374 87.1565 21.7236 89.5046 22.6094L90.0323 22.8085L89.9582 21.8816C89.8606 20.6497 90.2079 19.5717 90.9371 18.8429C91.6885 18.092 92.3387 17.8591 93.7065 17.8509C96.8599 17.8318 99.5969 19.8015 99.6076 22.0977C99.6076 22.8689 99.1715 24.0964 98.6964 24.6419C98.5332 24.8291 98.3998 25.0164 98.3998 25.0581C98.3998 25.0996 98.662 25.1975 98.9825 25.2754C99.937 25.5075 100.556 25.9773 101.018 26.8196C102.382 29.3069 100.892 33.8642 98.3516 34.9744C97.1383 35.5047 96.3534 35.2857 94.8172 33.9882C93.7108 33.0536 93.6064 33.1052 93.7655 34.5077C94.101 37.464 95.4194 38.2194 98.7793 37.3803C99.5282 37.1932 100.191 37.0395 100.253 37.0385C100.314 37.0369 100.701 37.6419 101.112 38.3815C101.524 39.121 102.037 39.9166 102.254 40.1494C103.003 40.9523 104.307 41.0533 105.196 40.3772C105.715 39.9828 106.272 39.019 106.272 38.5148C106.272 38.2172 106.188 38.1527 105.705 38.0803C104.889 37.958 103.701 37.4143 103.134 36.9033C102.527 36.3572 102.338 35.7645 102.337 34.4106C102.337 33.167 102.671 32.2394 103.552 31.0489C104.527 29.7297 105.591 28.8627 106.539 28.6139C107.784 28.2871 108.569 28.4413 109.378 29.1715L110.03 29.7603L110.202 29.1426C110.722 27.2796 112.206 26.1908 113.893 26.4344C115.487 26.6646 117.414 28.0482 117.871 29.2919C118.38 30.6743 117.843 32.9279 116.819 33.7054C116.41 34.0166 116.25 34.0516 115.475 34.0009C114.428 33.9325 113.921 33.6364 113.438 32.8114C113.128 32.2826 113.09 32.2588 113.023 32.5488C112.982 32.7241 112.924 33.3961 112.894 34.0421C112.828 35.4733 112.607 35.8588 110.743 37.8036C110.033 38.545 109.375 39.3678 109.282 39.632C108.973 40.5062 108.058 41.9538 107.467 42.504C107.146 42.802 106.514 43.2345 106.062 43.465C105.326 43.8401 105.2 43.9732 104.865 44.7322C104.575 45.3884 104.507 45.7398 104.566 46.2848C104.627 46.8477 104.574 47.0992 104.303 47.5355C104.116 47.8359 103.809 48.1557 103.622 48.2463C103.435 48.3368 103.134 48.6967 102.954 49.046L102.626 49.6812L103.162 50.6381C103.797 51.773 103.846 52.4379 103.358 53.3008C102.918 54.0775 102.4 54.408 101.318 54.6019L100.444 54.7586L99.8892 55.9219L99.3346 57.0851L99.624 58.027C99.8801 58.861 99.8906 59.0492 99.7157 59.6694L99.518 60.3699L109.114 60.4468C114.392 60.4891 118.733 60.5447 118.761 60.5703C118.789 60.5959 118.859 81.5696 118.918 107.179L119.025 153.74L117.455 154.22C115.218 154.905 83.4904 164.774 79.809 165.93C77.7614 166.573 76.5491 167.031 76.1755 167.3C74.8831 168.234 72.9921 168.606 71.6029 168.2L71.6038 168.2Z" fill="white" stroke="white" stroke-width="2.00688"/>
<path fill-rule="evenodd" clip-rule="evenodd" d="M98.491 58.4259C98.491 65.4207 87.0911 71.0911 73.0287 71.0911C58.9663 71.0911 47.5664 65.4207 47.5664 58.4259C47.5664 51.4311 58.9663 45.7607 73.0287 45.7607C87.0911 45.7607 98.491 51.4311 98.491 58.4259V58.4259Z" fill="#AA0000"/>
<path d="M46.1319 60.5106C45.1706 60.0685 45.0421 58.8899 45.7911 57.3799L46.1937 56.568L45.6735 55.3872L45.1534 54.2064H43.9993C43.0427 54.2064 42.7658 54.1545 42.3816 53.9016C41.0941 53.0535 41.1465 51.417 42.5076 49.9784L43.052 49.4028L42.6999 48.6439C42.3983 47.994 42.303 47.894 42.0361 47.9479C41.5074 48.0548 41.0611 47.8518 40.7894 47.3807C40.4333 46.7635 40.4564 46.1317 40.8531 45.6331L41.1781 45.2248L40.8006 44.3812C40.4565 43.6121 40.378 43.529 39.9127 43.4397C38.1277 43.0973 36.5719 41.6135 35.9389 39.6501C35.764 39.1073 35.4322 38.6816 34.2059 37.4264C33.3718 36.5725 32.5823 35.6532 32.4519 35.3833C32.2794 35.0269 32.1879 34.3861 32.1176 33.0415C32.061 31.9597 31.9532 31.0928 31.8582 30.9554C31.6 30.5824 31.2958 30.8268 31.1914 31.4909C31.0047 32.6788 30.4967 33.2674 29.388 33.5809C28.8924 33.721 28.7308 33.7108 28.3428 33.5151C27.4553 33.0675 26.9153 31.6325 27.0634 30.1156C27.1544 29.1851 27.4361 28.6779 28.2045 28.0615C29.4046 27.099 29.8805 26.9175 31.2042 26.9175C32.298 26.9175 32.4472 26.9505 32.8624 27.2855C33.4554 27.7635 33.9762 28.7948 34.1783 29.8913C34.267 30.3724 34.3833 30.7659 34.4368 30.7659C34.4902 30.7659 34.706 30.503 34.916 30.1816C36.1129 28.3514 38.0784 28.3655 39.9311 30.2176C40.834 31.1201 41.4103 32.0603 41.7334 33.1577C42.1994 34.7401 42.0176 35.7953 41.1385 36.6111C40.5656 37.1428 39.9956 37.416 39.1904 37.545C37.7612 37.7739 37.8419 37.7161 37.9098 38.4629C38.0448 39.9486 39.1756 41.1083 40.6117 41.2343C41.1901 41.285 41.4543 41.2261 42.0585 40.9139C42.9062 40.4756 43.3959 39.8487 44.0007 38.428C44.222 37.9084 44.4835 37.4833 44.582 37.4833C44.6807 37.4833 45.3347 37.6408 46.0352 37.8332C46.7358 38.0256 47.6641 38.183 48.0976 38.183C49.9586 38.183 51.0879 37.0104 51.3959 34.7577C51.5458 33.6623 51.4341 33.0455 51.0343 32.769C50.7255 32.555 50.6946 32.5708 49.9523 33.3192C48.2016 35.0842 46.7634 35.1909 45.3013 33.6643C43.4778 31.7607 43.0052 27.8768 44.4154 26.3862C44.9397 25.8319 45.6473 25.5879 46.7299 25.5879H47.5391L46.9369 25.0012C46.0373 24.1248 45.6659 23.3639 45.5953 22.2537C45.5459 21.4635 45.5849 21.2226 45.8518 20.6898C46.2687 19.8585 47.4847 18.9912 48.8933 18.5209C52.5938 17.2853 55.102 19.381 54.1001 22.8717C53.9916 23.2496 53.9022 23.6013 53.9014 23.6535C53.9014 23.7055 54.2391 23.5324 54.6537 23.2686C56.0973 22.3497 57.569 22.6822 58.5623 24.1516C59.3957 25.3844 59.7239 26.5292 59.7249 28.2067C59.7249 31.193 58.1577 32.5679 55.6212 31.8023C54.2434 31.3864 54.3514 31.3611 54.1008 32.1588C53.806 33.0969 53.903 33.4413 54.6996 34.2833C55.574 35.2075 56.5101 35.6609 57.5481 35.6627C58.7261 35.6658 59.4895 35.2102 60.7625 33.7488L61.7998 32.5582L62.7156 33.0439C65.2578 34.3924 66.981 34.6767 68.2653 33.9596C69.4207 33.3145 70.3534 32.1263 70.7866 30.7473C70.9924 30.0925 70.99 30.0552 70.7157 29.6479L70.4317 29.2263L69.8781 29.6206C68.5818 30.5441 67.3427 30.838 66.4406 30.4361C65.8296 30.1638 64.8437 28.9853 64.5474 28.173C64.3438 27.6154 64.2934 27.1158 64.2934 25.6579C64.2934 23.8502 64.2934 23.8329 64.7488 22.9509C65.3827 21.7149 65.8851 21.3404 66.9984 21.2739C67.6038 21.2377 68.0373 21.2913 68.3861 21.4454C68.6652 21.5686 68.9097 21.6695 68.9293 21.6695C68.9492 21.6695 68.7285 21.1798 68.4391 20.5813C67.8677 19.3989 67.747 18.4249 68.0517 17.4496C68.2506 16.8123 69.0286 16.0247 69.8541 15.6248C70.4438 15.3392 70.7185 15.3042 72.3697 15.3042C74.4047 15.3042 74.9265 15.4512 75.864 16.2886C77.0261 17.3266 77.1173 19.2275 76.0881 20.9509C75.8998 21.2661 75.7459 21.5539 75.7459 21.5905C75.7459 21.6271 75.9917 21.5655 76.2921 21.4533C76.5926 21.3413 77.1766 21.2496 77.5902 21.2496C78.6967 21.2496 79.3824 21.7489 79.9773 22.9881C80.4182 23.9062 80.4321 23.9851 80.4321 25.5663C80.4321 27.6195 80.2022 28.5035 79.4276 29.4337C78.2146 30.8903 76.878 31.001 75.1077 29.7917L74.2992 29.2393L74.0296 29.6016C73.6642 30.0925 73.6892 30.4316 74.1643 31.4366C74.693 32.555 75.5555 33.5545 76.3588 33.9794C77.6976 34.6878 79.1945 34.4847 81.5701 33.2725L82.9591 32.5637L83.4861 33.2392C84.2861 34.2651 85.1499 35.0798 85.78 35.403C86.4949 35.7696 87.9759 35.7254 88.7871 35.3133C89.4697 34.9664 90.6679 33.7072 90.7852 33.2135C90.8983 32.7372 90.4151 31.6056 90.0987 31.6056C89.9808 31.6056 89.5184 31.7067 89.0709 31.8301C88.0428 32.114 86.9114 32.0237 86.2736 31.607C84.4777 30.4338 84.5269 26.04 86.3608 23.8323C87.327 22.669 88.5376 22.4798 89.9689 23.2685C90.4476 23.5322 90.8386 23.7368 90.8378 23.7233C90.8378 23.7098 90.7451 23.3838 90.6336 22.9989C90.0533 20.9977 90.554 19.3203 91.9606 18.5584C93.5021 17.7231 96.763 18.4265 98.1952 19.9033C99.6042 21.3564 99.5268 23.0861 97.9751 24.8204L97.2883 25.5879L98.135 25.5911C99.6313 25.5974 100.565 26.2991 100.964 27.7192C101.232 28.6723 101.219 29.384 100.909 30.6623C100.563 32.0925 100.224 32.7496 99.3347 33.7088C98.59 34.5124 97.9914 34.8237 97.1942 34.8223C96.6118 34.8223 95.5607 34.18 94.8154 33.3709C94.4176 32.9388 94.0197 32.5853 93.9314 32.5853C93.8433 32.5853 93.641 32.7584 93.482 32.9701C93.2202 33.3188 93.2011 33.4588 93.2784 34.4583C93.4152 36.2261 94.1301 37.4748 95.3033 37.9944C95.968 38.2888 97.3915 38.2241 98.7899 37.8359C99.4779 37.6449 100.085 37.4875 100.138 37.486C100.192 37.486 100.474 37.9839 100.765 38.5957C101.7 40.5603 102.522 41.2619 103.888 41.2619C104.812 41.2619 105.372 40.9904 106.05 40.2137C106.571 39.6158 106.857 38.8851 106.859 38.1481C106.859 37.8226 106.804 37.7625 106.495 37.7583C105.845 37.749 104.619 37.3764 104.019 37.0052C103.046 36.4024 102.821 35.9392 102.821 34.5416C102.821 33.4677 102.866 33.252 103.274 32.3724C103.797 31.2449 105.142 29.7241 106.049 29.2352C106.821 28.819 107.845 28.7195 108.467 29.0001C108.962 29.2235 109.637 29.8579 109.996 30.438C110.258 30.8598 110.434 30.856 110.434 30.4287C110.434 29.8488 110.922 28.4004 111.29 27.8916C112.236 26.5807 114.085 26.452 115.795 27.5782C116.907 28.3108 117.415 28.9041 117.59 29.6767C117.872 30.9202 117.486 32.5503 116.735 33.2805C116.445 33.5623 116.249 33.6237 115.668 33.6149C115.226 33.6077 114.79 33.5027 114.516 33.3364C114.002 33.0248 113.479 32.0344 113.479 31.3744C113.479 30.8764 113.347 30.7212 113.03 30.8495C112.713 30.9781 112.554 31.8114 112.553 33.3458C112.553 35.2352 112.387 35.5631 110.482 37.4465C109.198 38.7168 108.945 39.0374 108.822 39.5504C108.641 40.3125 107.851 41.6121 107.209 42.2069C106.674 42.7021 105.532 43.3612 105.21 43.3612C105.091 43.3612 104.791 43.8192 104.475 44.484C104.052 45.3722 103.969 45.6627 104.076 45.8743C104.254 46.2251 104.248 46.8023 104.064 47.1839C103.877 47.5708 103.413 47.9722 103.148 47.9763C103.031 47.9795 102.763 48.3688 102.516 48.8993L102.086 49.8193L102.442 50.2638C103.986 52.1979 103.297 54.045 100.949 54.2676L100.112 54.347L99.4917 55.7071L98.872 57.0673L99.1839 58.0362C99.4622 58.9005 99.4782 59.0681 99.3312 59.5867C99.0433 60.6021 98.1271 60.9516 97.2839 60.3676C97.1138 60.2498 96.7798 59.7437 96.5418 59.2429C95.2464 56.5181 90.0971 54.4766 82.1103 53.4544C79.7191 53.1484 79.5844 52.9242 71.2153 52.9238C63.6673 52.9238 63.6246 53.1664 61.9787 53.3754C56.8731 54.0237 53.2806 55.3019 51.0855 56.4605C49.5067 57.2936 48.8498 57.8951 48.2912 59.0188C47.8174 59.9718 47.1297 60.7206 46.7388 60.709C46.6365 60.7051 46.3635 60.6166 46.1324 60.5103L46.1319 60.5106Z" fill="#FFDA00" stroke="black" stroke-width="1.15168"/>
<path d="M42.9854 49.3712C64.2769 38.0518 87.8332 42.3118 102.175 49.6835" stroke="black" stroke-width="1.04698"/>
<path d="M46.0664 56.6597C61.0643 44.0396 98.9811 52.201 98.88 57.1803" stroke="black" stroke-width="1.04698"/>
<path d="M27.7197 60.1846L28.1447 153.479L69.7648 166.494C71.3283 168.758 74.848 168.366 76.3771 166.641L118.606 153.536L118.456 60.9135L27.7197 60.1846Z" fill="#083882" stroke="black" stroke-width="1.04698"/>
<path d="M27.874 96.7514L64.505 96.6961L64.5798 60.4351L81.4114 60.5823L82.127 96.7842L118.523 96.8362L118.416 113.132H82.1801L81.9676 164.881L76.3324 166.654C75.211 167.696 72.2851 169.35 69.6882 166.473L64.4871 164.829L64.5396 113.236L27.9858 113.262L27.874 96.7514Z" fill="#FFDA00" stroke="black" stroke-width="1.04698"/>
<path d="M27.9316 104.958H118.469" stroke="black" stroke-width="1.04698"/>
<path d="M72.9883 60.9136V167.849" stroke="black" stroke-width="1.04698"/>
<path d="M64.4297 113.188L82.2755 96.8433" stroke="black" stroke-width="1.04698"/>
<path d="M64.3164 96.5854L82.2748 113.188" stroke="black" stroke-width="1.04698"/>
<path d="M34.5908 96.6948C34.7608 90.1354 33.7765 83.3908 39.7136 83.7425L39.828 80.6446L39.3154 79.418L39.9395 77.6252C39.7013 73.8088 39.3075 70.1129 44.0837 67.0566C48.2429 70.4949 48.6617 74.1213 48.0688 77.8334L48.6942 79.4742L48.0948 80.7494L48.1219 83.7685L53.1165 83.6644L53.1515 96.7103L34.5908 96.6948Z" fill="#FFDA00" stroke="#080808" stroke-width="1.04698"/>
<path d="M52.9043 83.8729L56.6235 77.5213C57.5813 76.1969 57.4301 75.4653 56.8362 74.9703C51.3013 70.8672 60.028 66.2654 60.1303 73.2523" stroke="#040404" stroke-width="1.04698" stroke-linecap="round"/>
<path d="M39.6738 83.7164C39.7641 91.2975 47.0968 92.0627 48.2282 83.6123" stroke="black" stroke-width="1.04698"/>
<path d="M38.1865 94.2331H44.1905L44.1379 89.5996" stroke="black" stroke-width="1.04698" stroke-linecap="round"/>
<path d="M53.143 87.3867C50.6357 93.8486 47.2585 98.8981 44.3496 94.1808" stroke="black" stroke-width="1.04698"/>
<path d="M39.833 77.7295C42.9273 78.8966 45.6917 78.8791 48.1483 77.7555" stroke="black" stroke-width="1.04698"/>
<path d="M44.1904 80.6968V81.9983" stroke="black" stroke-width="1.04698" stroke-linecap="round"/>
<path d="M43.5 83.5864H44.8284" stroke="black" stroke-width="1.04698" stroke-linecap="round"/>
<path fill-rule="evenodd" clip-rule="evenodd" d="M43.1273 79.7525C43.1273 80.0524 42.8708 80.2955 42.5544 80.2955C42.2379 80.2955 41.9814 80.0524 41.9814 79.7525C41.9814 79.4526 42.2379 79.2095 42.5544 79.2095C42.8708 79.2095 43.1273 79.4526 43.1273 79.7525Z" fill="black"/>
<path fill-rule="evenodd" clip-rule="evenodd" d="M46.3861 79.9092C46.3861 80.2091 46.1296 80.4522 45.8132 80.4522C45.4967 80.4522 45.2402 80.2091 45.2402 79.9092C45.2402 79.6093 45.4967 79.3662 45.8132 79.3662C46.1296 79.3662 46.3861 79.6093 46.3861 79.9092Z" fill="black"/>
<path d="M43.8223 69.9326L43.8406 74.9024" stroke="black" stroke-width="1.04698"/>
<path d="M42.3379 71.9575L45.4749 71.9759" stroke="black" stroke-width="1.04698"/>
</g>
<defs>
<clipPath id="clip0_1_7312">
<rect width="600" height="400" fill="white"/>
</clipPath>
</defs>
</svg>
