<svg width="600" height="400" viewBox="0 0 600 400" fill="none" xmlns="http://www.w3.org/2000/svg" xmlns:cgf="https://coding.garden/flags"><metadata id="cgf-metadata">

<cgf:flag>
  <cgf:name>Olst-Wijhe</cgf:name>
  <cgf:route>nl/ov/olst_wijhe</cgf:route>
  <cgf:aspect-ratio>1.5</cgf:aspect-ratio>
</cgf:flag>

</metadata><g clip-path="url(#clip0_1_7340)">
<path d="M0.617343 0.0533065L0.142578 400.151L600.257 399.661L599.307 -0.437012L0.617343 0.0533065Z" fill="#000099" stroke="black" stroke-width="0.00881635"/>
<path d="M105.542 74.0912C104.793 85.5319 104.894 96.9726 107.916 108.413C175.727 52.7493 230.171 59.7401 281.683 80.4653C347.994 116.869 411.415 106.873 451.178 72.1299C391.253 106.112 337.036 98.0011 285.956 66.7364C239.532 36.3955 168.032 27.65 105.542 74.0912Z" fill="#009900" stroke="black" stroke-width="0.00881635"/>
<path d="M120.551 142.121C121.075 153.575 122.443 164.929 126.713 175.937C187.909 112.622 242.769 113.131 296.241 127.63C366.151 155.955 428.047 138.527 463.697 99.3116C407.933 140.155 353.173 138.507 298.964 113.486C249.482 88.833 177.482 88.5978 120.551 142.121V142.121Z" fill="#009900" stroke="black" stroke-width="0.00881635"/>
<path d="M599.307 -0.927246C557.461 20.9056 516.322 61.2194 478.239 132.439C446.992 171.389 387.376 187.183 326.787 180.49C266.544 164.279 207.119 167.478 150.646 240.798L139.251 213.831C108.22 241.507 90.105 279.854 78.0053 323.171C50.5133 382.821 25.6569 389.396 0.617188 399.661H599.782L599.307 -0.927246V-0.927246Z" fill="#009900" stroke="black" stroke-width="0.00881635"/>
<path d="M167.268 270.1C169.997 281.215 173.534 292.058 179.848 301.963C227.561 227.298 281.413 216.477 336.612 219.65C410.592 232.979 467.869 203.131 495.213 157.351C448.475 208.877 394.5 218.561 336.544 205.23C283.29 191.284 212.696 205.909 167.268 270.1Z" fill="#000099" stroke="black" stroke-width="0.00881635"/>
<path d="M202.31 330.538C206.208 341.274 210.88 351.648 218.212 360.775C257.671 281.137 310.041 264.256 365.242 261.132C440.194 265.964 493.939 229.783 516.234 181.17C475.277 237.699 422.662 253.464 363.637 246.807C309.22 239.003 240.616 261.57 202.31 330.538Z" fill="#000099" stroke="black" stroke-width="0.00881635"/>
</g>
<defs>
<clipPath id="clip0_1_7340">
<rect width="600" height="400" fill="white"/>
</clipPath>
</defs>
</svg>
