<svg width="600" height="400" viewBox="0 0 600 400" fill="none" xmlns="http://www.w3.org/2000/svg" xmlns:cgf="https://coding.garden/flags"><metadata id="cgf-metadata">

<cgf:flag>
  <cgf:name>Raalte</cgf:name>
  <cgf:route>nl/ov/raalte</cgf:route>
  <cgf:aspect-ratio>1.5</cgf:aspect-ratio>
</cgf:flag>

</metadata><g clip-path="url(#clip0_1_7396)">
<path d="M600 0H0V400H600V0Z" fill="black"/>
<path d="M351.14 0H248.248V400H351.14V0Z" fill="#FCDD09"/>
<path d="M600 148.964H0V251.052H600V148.964Z" fill="#FCDD09"/>
<path d="M122.161 135.745C121.113 135.31 120.214 134.386 119.783 133.3C119.388 132.307 119.362 131.757 119.287 123.141L119.208 114.032L120.202 113.425C121.225 112.799 122.464 111.053 122.464 110.235C122.464 109.949 122.614 109.819 122.942 109.819C123.304 109.819 123.448 109.973 123.532 110.453C123.746 111.661 124.914 113.297 126.002 113.911L127.023 114.487L127.16 118.566C127.235 120.809 127.297 124.806 127.295 127.447C127.293 132.037 127.271 132.302 126.81 133.424C126.441 134.319 126.104 134.746 125.39 135.219C124.341 135.914 123.068 136.121 122.161 135.745H122.161ZM127.527 112.667C126.561 112.326 125.798 111.627 125.364 110.684C124.949 109.781 124.99 109.692 126.036 109.241C127.285 108.701 128.982 106.772 129.642 105.141C129.925 104.442 130.206 103.257 130.266 102.507C130.365 101.266 130.432 101.11 131.001 100.774C131.347 100.57 132.311 100.359 133.155 100.302C134.401 100.219 134.858 100.288 135.632 100.674L136.581 101.149L138.232 99.274C141.751 95.2791 144.094 90.0693 144.836 84.5899L145.09 82.7186H145.884H146.678L146.537 84.0281C145.876 90.1495 143.462 95.7653 139.497 100.404L137.64 102.577L137.658 104.093C137.676 105.365 137.567 105.854 137.015 107.124C135.882 109.73 133.47 111.877 130.786 112.667C129.397 113.076 128.691 113.076 127.531 112.667L127.527 112.667ZM114.563 112.017C112.148 111.087 110.287 109.326 109.055 106.805C108.558 105.789 108.467 105.34 108.453 103.864L108.435 102.123L107.241 100.997C105.678 99.5235 103.803 97.2385 102.631 95.3813C100.832 92.5311 98.8975 87.5644 98.3916 84.4981C98.2563 83.6737 98.2654 83.6559 98.9874 83.5029C99.3913 83.4173 99.7467 83.3852 99.7774 83.4314C99.8085 83.4776 100.032 84.3755 100.275 85.4263C101.59 91.1105 104.838 96.6712 108.888 100.172L109.513 100.713L110.482 100.228C111.702 99.6182 113.818 99.7084 115.261 100.432C116.073 100.839 116.218 101.008 116.22 101.551C116.238 104.177 117.985 107.529 120.032 108.83C120.938 109.407 120.991 109.49 120.817 110.057C120.382 111.467 118.643 112.557 116.847 112.546C116.335 112.544 115.306 112.305 114.561 112.017H114.563ZM121.758 107.722C120.408 107.188 119.188 105.856 118.466 104.125C117.764 102.443 117.712 99.5414 118.356 97.9651C120.055 93.808 124.145 92.84 126.891 95.9451C128.264 97.4979 128.772 99.0942 128.664 101.516C128.534 104.398 127.408 106.441 125.344 107.539C124.4 108.04 122.774 108.123 121.758 107.722L121.758 107.722ZM129.968 98.1363C129.839 97.5916 129.425 96.6266 129.047 95.9917L128.36 94.8376L128.842 94.1418C129.64 92.9886 130.352 90.9717 130.467 89.5366L130.574 88.183L131.59 87.842C132.996 87.3698 134.858 87.4126 135.887 87.9407L136.724 88.3704L138.522 86.2847C139.511 85.1375 140.7 83.5603 141.164 82.7797C143.167 79.4135 144.558 75.2561 145.128 70.9336C145.254 69.9845 145.271 69.9657 146.044 69.9657C146.477 69.9657 146.832 70.0548 146.832 70.1636C146.832 70.7991 146.148 74.6478 145.795 76.0006C145.207 78.2529 143.632 81.9342 142.369 84.0101C141.777 84.982 140.477 86.7031 139.478 87.8347C137.835 89.6986 137.674 89.9565 137.774 90.5754C138.088 92.5262 137.224 94.9716 135.548 96.8754C134.56 97.9977 134.283 98.184 133.422 98.31C132.375 98.4631 130.963 98.7965 130.487 99.0031C130.286 99.0904 130.133 98.8356 129.968 98.1364L129.968 98.1363ZM115.313 98.4993C114.87 98.315 113.964 98.1056 113.299 98.0339C112.144 97.9093 112.038 97.843 110.873 96.5169C109.216 94.6302 108.685 93.334 108.675 91.1473V89.4419L107.567 88.395C105.919 86.8372 103.488 83.8321 102.467 82.0913C100.703 79.0825 98.9624 74.4859 98.591 71.8556C98.4649 70.9596 98.4886 70.8895 98.9832 70.7494C99.8147 70.5134 100.025 70.7383 100.298 72.163C101.191 76.8036 104.043 82.2695 107.441 85.8507C109.491 88.0114 109.551 88.0434 110.499 87.4824C111.551 86.8607 114.05 86.9578 115.472 87.6757C116.361 88.1242 116.429 88.2176 116.429 88.9903C116.429 90.264 116.989 92.1609 117.718 93.3571L118.375 94.4358L117.602 95.788C117.177 96.5317 116.736 97.5333 116.621 98.0138C116.506 98.4944 116.349 98.8756 116.27 98.861C116.191 98.8462 115.764 98.6838 115.321 98.4993L115.313 98.4993ZM125.988 92.9739C124.609 92.1842 121.805 92.1388 120.507 92.885L119.658 93.3728L119.065 92.3156C117.491 89.5115 117.707 85.7581 119.577 83.4063C120.78 81.8935 122 81.2787 123.562 81.3981C125.013 81.5092 125.936 81.9733 126.986 83.1211C128.253 84.5064 128.807 86.1153 128.807 88.4118C128.807 90.0618 128.725 90.5354 128.254 91.6208C127.418 93.5447 127.206 93.6716 125.988 92.9738V92.9739ZM130.318 86.0291C130.318 85.5472 128.942 82.5959 128.512 82.1562C128.112 81.7469 128.113 81.7403 128.709 80.9727C129.747 79.6357 130.357 77.8188 130.569 75.4312C130.613 74.9356 130.789 74.8109 131.929 74.4679C133.385 74.0299 134.714 74.0982 135.993 74.6771L136.795 75.04L138.103 73.5846C141.68 69.606 144.07 64.4923 144.895 59.0514C145.075 57.8708 145.221 56.8268 145.221 56.7315C145.221 56.5823 146.617 56.7149 146.796 56.8814C146.939 57.0135 146.182 61.3085 145.731 62.9246C144.501 67.3347 142.659 70.7874 139.667 74.2927C137.846 76.4263 137.642 76.7477 137.773 77.2765C137.964 78.0455 137.693 79.9622 137.255 80.9319C136.22 83.2294 133.887 85.6793 132.734 85.6793C132.437 85.6793 131.772 85.8231 131.256 85.9986C130.513 86.2516 130.318 86.2579 130.318 86.0291V86.0291ZM116.018 85.9208C115.852 85.8108 115.055 85.5661 114.246 85.3771C113.437 85.188 112.535 84.855 112.241 84.6371C111.163 83.8382 109.84 82.1116 109.201 80.6689C108.635 79.3906 108.551 78.9825 108.587 77.6771L108.629 76.1655L107.238 74.8114C104.302 71.9523 102.347 69.0788 100.618 65.0799C99.2214 61.8487 98.1801 57.8956 98.6475 57.5991C99.1327 57.2913 99.9216 57.228 99.9856 57.4917C100.024 57.6514 100.263 58.653 100.516 59.7177C101.709 64.7396 104.594 69.8843 108.129 73.2947L109.618 74.7316L110.428 74.2642C111.447 73.6764 113.485 73.6404 114.911 74.1848C116.261 74.7007 116.421 74.8836 116.421 75.9058C116.421 77.051 117.081 79.0116 117.943 80.4294L118.634 81.5641L117.851 82.8277C117.42 83.5227 116.948 84.551 116.801 85.1128C116.517 86.1997 116.487 86.2309 116.018 85.9207L116.018 85.9208ZM119.466 79.6397C118.17 77.9717 117.693 74.9828 118.333 72.5466C119.295 68.8856 122.678 67.095 125.59 68.7061C126.852 69.4042 127.56 70.2732 128.286 72.0151C128.719 73.0559 128.807 73.5948 128.807 75.2034C128.807 76.8534 128.725 77.327 128.254 78.4124C127.95 79.1127 127.525 79.8656 127.311 80.0853C126.938 80.4671 126.869 80.4636 125.792 80.0074C124.344 79.3951 122.421 79.3768 121.058 79.9623L120.052 80.3947L119.466 79.6394V79.6397ZM115.414 72.4375C114.805 72.2205 114.08 72.0361 113.803 72.0278C112.641 71.9928 111.794 71.5155 110.702 70.2811C109.134 68.5079 108.305 66.5384 108.282 64.532L108.264 62.9937L106.809 61.5777C102.755 57.6331 99.7933 52.1925 98.4861 46.2909C98.2792 45.3567 98.1287 44.5716 98.1517 44.5463C98.1755 44.521 98.5295 44.4293 98.9399 44.3426C99.6423 44.1941 99.6931 44.223 99.8046 44.8346C100.088 46.385 101.164 49.8469 101.833 51.3584C103.413 54.9312 106.231 58.9157 108.615 60.9487C109.359 61.5829 109.38 61.5867 110.076 61.2135C111.091 60.6686 112.586 60.5271 113.83 60.858C115.603 61.3294 115.962 61.6231 116.117 62.7301C116.377 64.593 116.817 65.915 117.617 67.2401L118.422 68.5738L117.724 69.7474C117.34 70.3929 116.912 71.351 116.773 71.8766L116.521 72.8321L115.413 72.4375L115.414 72.4375ZM130.031 71.8444C129.856 71.2494 129.362 70.2402 128.934 69.6017L128.155 68.4408L128.538 67.8937C129.49 66.535 130.31 64.0635 130.315 62.5373C130.317 61.8669 130.383 61.8064 131.489 61.4556C133.053 60.9593 134.451 60.9928 135.542 61.5527L136.437 62.0116L138.118 60.1244C139.042 59.0864 140.255 57.4925 140.812 56.5823C142.657 53.5715 144.346 48.8566 144.71 45.702C144.944 43.6775 144.992 43.5485 145.511 43.5485C146.289 43.5485 146.576 43.764 146.51 44.3C145.642 51.3598 143.383 56.7275 139.327 61.3724L137.491 63.475L137.538 64.9552C137.578 66.1963 137.489 66.6638 136.986 67.8478C136.339 69.3725 135.081 71.0622 134.066 71.7716C133.607 72.0927 130.959 72.9225 130.384 72.9256C130.364 72.9258 130.207 72.439 130.032 71.8441L130.031 71.8444ZM119.287 66.7197C119.053 66.4375 118.621 65.6144 118.328 64.8904C117.313 62.383 117.711 59.1183 119.276 57.1073C120.429 55.6257 121.454 55.0726 123.067 55.0596C126.241 55.034 128.567 58.0018 128.594 62.1088C128.594 63.6508 128.52 64.1263 128.053 65.204C127.748 65.9043 127.326 66.6547 127.114 66.8716C126.755 67.2395 126.686 67.2409 126.091 66.8928C124.621 66.0327 122.112 66.0322 120.589 66.8917C119.812 67.3299 119.792 67.3272 119.287 66.7194V66.7197ZM130.051 59.796C129.977 59.7111 129.914 59.4787 129.914 59.2793C129.914 58.7701 128.955 56.7572 128.38 56.0614C128.116 55.7415 127.9 55.3963 127.9 55.2944C127.9 55.1926 128.186 54.7417 128.535 54.2925C129.432 53.1363 130.115 51.3175 130.278 49.6497C130.417 48.2318 130.424 48.2159 131.223 47.8947C132.398 47.422 134.889 47.4401 135.726 47.9271C136.186 48.1947 136.512 48.2542 136.745 48.1132C137.313 47.7696 139.842 44.653 140.853 43.0506C142.8 39.9653 144.505 34.989 144.925 31.169L145.071 29.8345L145.775 29.9636C146.162 30.0345 146.52 30.1397 146.571 30.197C146.735 30.3826 146.198 33.8188 145.702 35.7528C145.094 38.1287 143.711 41.4897 142.467 43.6152C141.939 44.5179 140.643 46.2661 139.587 47.5002L137.668 49.7439L137.65 51.3716C137.65 52.6714 137.525 53.2599 137.079 54.2934C136.08 56.6034 133.857 58.7973 131.929 59.3746C131.426 59.5251 130.827 59.7162 130.598 59.7992C130.368 59.8823 130.119 59.8806 130.044 59.7974L130.051 59.796ZM114.597 59.1816C112.838 58.5303 111.668 57.7139 110.54 56.351C109.085 54.5922 108.492 53.1003 108.449 51.0966L108.415 49.4214L107.131 48.1827C103.839 45.0041 101.292 40.9781 99.663 36.3751C98.9678 34.4113 98.1527 31.1079 98.3177 30.9241C98.3616 30.8758 98.7248 30.767 99.126 30.6823C99.8461 30.5303 99.8574 30.5397 99.9921 31.4021C100.418 34.1282 101.927 38.116 103.683 41.1575C104.656 42.8418 108.967 47.8756 109.437 47.8756C109.589 47.8756 110.022 47.6964 110.399 47.4776C111.331 46.9362 113.553 46.9812 115.012 47.5711L116.12 48.0189L116.246 49.1652C116.474 51.2554 117.132 52.9896 118.191 54.2937L118.687 54.9045L117.965 55.9008C117.199 56.9585 116.434 58.6572 116.427 59.3191C116.427 59.8088 116.261 59.7967 114.599 59.1817L114.597 59.1816ZM125.182 53.5335C124.057 53.053 121.874 53.0865 120.711 53.602C120.146 53.8525 120.015 53.8351 119.649 53.4602C119.419 53.225 118.949 52.3855 118.605 51.5947C115.618 44.7357 122.233 37.9503 126.815 43.1728C128.249 44.8073 128.775 46.4412 128.66 48.9003C128.569 50.8329 128.193 51.9591 127.188 53.3106C126.586 54.1185 126.559 54.1215 125.182 53.5334V53.5335ZM130.116 46.0121C130.116 45.4853 128.972 43.0075 128.35 42.1862L127.749 41.393L128.412 40.478C129.229 39.3518 129.894 37.4962 130.078 35.83C130.217 34.5782 130.221 34.572 131.123 34.2602C132.179 33.8956 134.425 33.8375 135.15 34.1557C135.609 34.3575 135.723 34.2678 136.491 33.0983C138.063 30.7058 139.47 27.0298 140.015 23.8908C140.329 22.0897 140.333 16.7385 140.015 14.9865C139.884 14.2452 139.811 13.6002 139.853 13.5534C139.895 13.5067 140.243 13.4107 140.627 13.3401L141.327 13.2117L141.557 14.5454C142.005 17.148 142.062 20.2844 141.71 22.9867C141.162 27.1869 140.025 30.4646 137.915 33.9261C136.961 35.4909 136.922 35.6121 137.162 36.2675C137.555 37.3407 137.313 39.6371 136.666 40.9824C135.618 43.1599 133.357 45.3398 131.624 45.845C131.179 45.9745 130.657 46.1327 130.463 46.1963C130.254 46.2648 130.11 46.1908 130.11 46.012L130.116 46.0121ZM115.616 45.8436C115.449 45.7354 114.77 45.5263 114.105 45.3781C110.476 44.5692 107.264 39.5148 108.263 36.1858L108.576 35.1453L107.761 33.9383C106.48 32.0385 104.803 28.0091 104.226 25.4439C103.579 22.5661 103.384 18.7576 103.723 15.6266C103.86 14.3647 104.041 13.2062 104.125 13.052C104.345 12.65 105.809 12.9774 105.666 13.3967C105.61 13.5663 105.455 14.6041 105.325 15.703C104.99 18.5352 105.21 22.6486 105.833 25.1927C106.75 28.9349 109.387 34.2271 110.147 33.8506C110.883 33.4865 113.158 33.4826 114.232 33.8433C114.827 34.0433 115.421 34.2871 115.553 34.385C115.685 34.483 115.888 35.2266 116.003 36.0374C116.251 37.7787 117.162 39.9862 118.012 40.9071L118.618 41.5639L117.918 42.4887C117.533 42.9972 117.027 44.0073 116.793 44.7332C116.369 46.0475 116.19 46.2161 115.616 45.8431V45.8436ZM119.035 39.4427C118.121 38.1387 117.604 36.4467 117.604 34.7612C117.604 32.9554 117.868 31.8617 118.629 30.5043C119.211 29.4669 120.813 28.0628 121.415 28.0628C121.656 28.0628 121.677 26.6608 121.554 18.6688C121.475 13.5022 121.397 9.17243 121.382 9.04718C121.34 8.69212 122.696 8.62572 122.891 8.97332C122.985 9.1391 123.061 10.6673 123.063 12.3692C123.065 14.071 123.125 18.2471 123.199 21.6492C123.328 27.6577 123.343 27.835 123.739 27.835C124.871 27.835 126.969 29.6484 127.698 31.2566C128.22 32.4073 128.575 34.6999 128.416 35.8965C128.266 37.0318 127.288 39.4076 126.741 39.9674C126.418 40.2971 126.285 40.2883 125.18 39.8635C123.811 39.3376 122.098 39.3932 120.806 40.0053C119.784 40.4896 119.761 40.4823 119.033 39.4424L119.035 39.4427Z" fill="#FCDD09"/>
<path d="M118.684 366.732C118.666 344.905 118.385 336.776 117.651 336.776C117.334 336.776 117.048 337.63 116.876 339.088C116.19 344.92 113.196 351.697 109.634 355.479C106.508 358.798 101.322 361.768 96.1556 363.199C92.2966 364.268 86.0584 364.166 82.6499 362.979C72.1432 359.318 65.0326 347.961 64.86 334.565C64.7961 329.521 65.393 326.595 67.333 322.466C70.9575 314.75 78.1097 310.514 86.2803 311.243C89.5112 311.531 93.5812 312.349 96.8796 313.372C98.729 313.945 99.2958 314.406 101.519 317.142C105.518 322.062 109.694 325.313 114.65 327.363L116.875 328.283L115.699 328.755C109.359 331.301 94.4788 335.606 93.9349 335.052C93.5106 334.62 95.103 330.815 97.2539 327.121C98.3466 325.244 99.1812 323.646 99.1084 323.569C98.8743 323.323 95.2909 325.996 93.7411 327.574C91.8859 329.462 90.6854 331.795 90.3723 334.121C90.1608 335.691 89.9998 335.919 88.9477 336.133C88.2954 336.266 86.8949 336.374 85.8359 336.374H83.9102V338.317V340.26L87.4645 339.642L91.019 339.024L92.501 340.471C94.3216 342.249 96.485 343.371 99.2364 343.964C101.607 344.476 105.637 344.57 105.635 344.114C105.634 343.949 104.167 343.224 102.376 342.504C98.7787 341.059 94.9707 338.962 94.9707 338.425C94.9707 338.236 96.1704 337.776 97.6369 337.404C101.517 336.418 108.773 334.069 113.514 332.263C117.433 330.769 117.787 330.705 120.619 330.975C122.882 331.191 124.653 331.719 127.975 333.167C130.381 334.215 134.511 335.841 137.152 336.779C141.511 338.327 141.909 338.549 141.469 339.189C140.733 340.258 138.105 342.401 135.058 344.416C132.348 346.208 132.334 346.227 133.588 346.351C135.235 346.514 139.391 345.422 141.018 344.398C142.347 343.562 144.916 340.869 145.194 340.022C145.311 339.667 146.828 339.913 150.776 340.925L156.198 342.316V340.42V338.525L151.654 337.875C149.156 337.517 146.957 337.128 146.769 337.01C146.58 336.891 146.319 336.112 146.188 335.277C145.774 332.647 143.611 329.535 140.591 327.227C139.072 326.066 137.691 325.116 137.521 325.116C137.351 325.116 138.111 326.47 139.208 328.125C141.557 331.669 143.163 334.651 143.163 335.473C143.163 335.911 142.887 335.99 142.076 335.787C140.446 335.377 130.788 331.439 126.986 329.634L123.647 328.049L125.801 327.225C130.561 325.404 134.218 322.876 139.542 317.725L142.835 314.54L149.22 314.809C160.665 315.292 166.092 317.067 171.482 322.089C180.233 330.243 182.491 341.003 177.561 351.05C173.653 359.012 167.018 364.441 158.573 366.588C150.162 368.726 140.371 366.032 133.575 359.709C129.5 355.918 126.896 349.107 125.653 338.988C125.203 335.328 125.081 334.955 124.285 334.839L123.412 334.71V357.113V379.516L121.93 381.321C121.116 382.314 120.056 383.599 119.575 384.177L118.7 385.228L118.682 366.732H118.684ZM115.314 325.601C100.654 317.628 92.1669 304.206 93.1413 290.536C93.7985 281.315 98.2289 274.038 105.744 269.834C113.255 265.633 121.65 265.586 130.772 269.693C132.895 270.649 137.986 275.491 140.175 278.637C147.231 288.774 148.085 301.906 142.324 311.694C139.562 316.387 133.979 321.525 128.68 324.251C126.87 325.182 121.94 327.126 121.39 327.126C121.198 327.126 121.042 322.965 121.042 317.878C121.042 311.789 121.18 308.63 121.449 308.63C122.429 308.63 124.928 310.012 128.383 312.463C130.428 313.915 132.102 315.001 132.102 314.876C132.102 314.306 129.604 310.231 128.314 308.697C126.83 306.932 124.475 305.466 122.424 305.03L121.239 304.778L121.131 297.631C121.023 290.498 121.022 290.483 120.144 290.61C119.277 290.736 119.263 290.842 119.157 297.794L119.049 304.85L117.229 305.345C113.854 306.264 111.022 308.975 108.82 313.397C108.306 314.428 108.163 315.013 108.471 314.819C108.758 314.639 110.633 313.359 112.636 311.977C114.64 310.594 116.862 309.309 117.574 309.12L118.869 308.776L119.002 310.613C119.195 313.267 118.632 327.128 118.332 327.116C118.193 327.11 116.834 326.428 115.313 325.601L115.314 325.601Z" fill="white"/>
<path d="M473.091 114.919C473.072 93.0916 472.792 84.9633 472.058 84.9633C471.74 84.9633 471.454 85.817 471.283 87.2753C470.597 93.1069 467.603 99.8835 464.04 103.666C460.914 106.985 455.729 109.955 450.562 111.386C446.703 112.455 440.465 112.353 437.056 111.166C426.55 107.505 419.439 96.1481 419.267 82.7518C419.201 77.7079 419.8 74.7824 421.739 70.6529C425.364 62.9372 432.516 58.7007 440.687 59.4298C443.918 59.7182 447.988 60.5356 451.286 61.5588C453.136 62.1325 453.702 62.593 455.926 65.329C459.925 70.2493 464.101 73.4996 469.056 75.5497L471.281 76.4704L470.106 76.9423C463.765 79.4878 448.885 83.7926 448.341 83.2388C447.917 82.8071 449.509 79.0019 451.66 75.3075C452.753 73.4309 453.588 71.8329 453.515 71.7563C453.281 71.5096 449.697 74.1831 448.148 75.7606C446.292 77.6489 445.092 79.9822 444.779 82.308C444.567 83.8781 444.406 84.1056 443.354 84.3198C442.702 84.4526 441.301 84.5613 440.242 84.5613H438.317V86.5044V88.4475L441.871 87.8293L445.425 87.2112L446.908 88.6582C448.728 90.4357 450.892 91.5578 453.643 92.1514C456.013 92.6627 460.043 92.7572 460.041 92.3015C460.04 92.1355 458.574 91.4111 456.782 90.6913C453.185 89.2464 449.377 87.1488 449.377 86.6125C449.377 86.4227 450.577 85.9628 452.043 85.5905C455.923 84.6054 463.18 82.2559 467.92 80.4497C471.84 78.9562 472.193 78.8921 475.025 79.1623C477.288 79.3781 479.059 79.9057 482.381 81.3535C484.788 82.4023 488.917 84.0279 491.558 84.9659C495.917 86.5142 496.315 86.7364 495.875 87.3761C495.14 88.4447 492.512 90.5875 489.464 92.603C486.755 94.3949 486.741 94.4136 487.994 94.5379C489.642 94.7011 493.797 93.6091 495.425 92.5853C496.754 91.7493 499.323 89.0563 499.6 88.2086C499.717 87.8538 501.235 88.0996 505.182 89.112L510.604 90.5028V88.6074V86.7119L506.061 86.0619C503.562 85.7044 501.363 85.3149 501.175 85.1965C500.987 85.0781 500.725 84.2987 500.594 83.4645C500.18 80.8337 498.017 77.7217 494.998 75.4139C493.479 74.253 492.098 73.303 491.928 73.303C491.758 73.3029 492.517 74.657 493.614 76.312C495.964 79.8555 497.569 82.8384 497.569 83.6596C497.569 84.0978 497.294 84.1773 496.483 83.9735C494.853 83.5641 485.194 79.6263 481.392 77.8212L478.054 76.2361L480.207 75.412C484.968 73.5906 488.624 71.0626 493.949 65.9118L497.241 62.7268L503.627 62.9963C515.072 63.4794 520.499 65.2541 525.888 70.2761C534.64 78.4305 536.898 89.1903 531.967 99.2374C528.06 107.199 521.425 112.628 512.979 114.775C504.569 116.913 494.778 114.219 487.981 107.896C483.906 104.105 481.302 97.2937 480.059 87.1748C479.61 83.5148 479.487 83.1425 478.692 83.0255L477.818 82.897V105.3V127.703L476.337 129.508C475.522 130.501 474.462 131.786 473.981 132.364L473.106 133.415L473.088 114.919H473.091ZM469.72 73.7883C455.06 65.815 446.573 52.3933 447.548 38.7234C448.205 29.5023 452.635 22.2246 460.151 18.0209C467.661 13.8199 476.057 13.7727 485.179 17.8802C487.302 18.8362 492.392 23.6777 494.582 26.8236C501.638 36.9609 502.491 50.0934 496.73 59.8814C493.969 64.5738 488.385 69.7125 483.087 72.4376C481.276 73.3687 476.346 75.3133 475.796 75.3133C475.605 75.3133 475.448 71.1517 475.448 66.0653C475.448 59.9762 475.587 56.8173 475.856 56.8173C476.836 56.8173 479.335 58.1989 482.789 60.6505C484.835 62.1022 486.509 63.1879 486.509 63.0632C486.509 62.4932 484.01 58.4178 482.72 56.8843C481.236 55.1189 478.881 53.6525 476.831 53.2169L475.646 52.9652L475.538 45.8176C475.43 38.6851 475.428 38.6703 474.55 38.7973C473.684 38.9227 473.669 39.0294 473.563 45.9805L473.455 53.0366L471.635 53.532C468.26 54.4509 465.428 57.1623 463.226 61.5838C462.713 62.6151 462.569 63.1997 462.877 63.0062C463.165 62.8255 465.039 61.5465 467.043 60.164C469.046 58.7815 471.268 57.4957 471.98 57.3066L473.275 56.9627L473.409 58.7999C473.602 61.4536 473.039 75.3152 472.739 75.3027C472.6 75.2972 471.241 74.6154 469.72 73.7883H469.72Z" fill="white"/>
<path d="M476.624 389.267C475.576 388.832 474.677 387.907 474.246 386.821C473.851 385.829 473.825 385.279 473.75 376.662L473.671 367.553L474.664 366.946C475.688 366.32 476.926 364.574 476.926 363.757C476.926 363.47 477.076 363.34 477.405 363.34C477.767 363.34 477.91 363.494 477.995 363.974C478.209 365.182 479.377 366.818 480.465 367.432L481.486 368.009L481.623 372.087C481.698 374.331 481.76 378.327 481.758 380.969C481.756 385.558 481.734 385.824 481.273 386.946C480.904 387.841 480.567 388.267 479.853 388.74C478.804 389.435 477.531 389.643 476.624 389.267H476.624ZM481.99 366.188C481.023 365.847 480.261 365.149 479.827 364.205C479.412 363.302 479.453 363.214 480.499 362.762C481.748 362.223 483.445 360.294 484.105 358.662C484.388 357.964 484.669 356.779 484.729 356.028C484.827 354.787 484.895 354.631 485.464 354.295C485.81 354.091 486.774 353.88 487.618 353.824C488.863 353.74 489.321 353.809 490.095 354.196L491.044 354.671L492.695 352.795C496.214 348.801 498.557 343.591 499.299 338.111L499.552 336.24H500.346H501.14L501 337.55C500.338 343.671 497.924 349.287 493.96 353.925L492.102 356.098L492.121 357.615C492.139 358.887 492.029 359.375 491.478 360.645C490.345 363.251 487.933 365.398 485.249 366.189C483.86 366.598 483.154 366.598 481.994 366.188L481.99 366.188ZM469.025 365.539C466.61 364.608 464.75 362.847 463.518 360.326C463.021 359.31 462.929 358.861 462.916 357.386L462.897 355.645L461.704 354.519C460.141 353.045 458.265 350.76 457.093 348.903C455.295 346.053 453.36 341.086 452.855 338.02C452.719 337.195 452.728 337.177 453.45 337.024C453.854 336.939 454.21 336.907 454.24 336.953C454.271 336.999 454.495 337.897 454.738 338.948C456.053 344.632 459.301 350.193 463.351 353.694L463.976 354.235L464.945 353.75C466.165 353.14 468.281 353.23 469.724 353.953C470.536 354.36 470.681 354.53 470.683 355.072C470.683 357.699 472.448 361.051 474.495 362.352C475.401 362.928 475.454 363.011 475.279 363.579C474.845 364.989 473.106 366.078 471.31 366.067C470.798 366.065 469.769 365.826 469.023 365.539H469.025ZM476.221 361.243C474.87 360.71 473.651 359.378 472.929 357.647C472.227 355.964 472.175 353.063 472.819 351.487C474.518 347.329 478.608 346.361 481.354 349.467C482.727 351.019 483.235 352.616 483.127 355.037C482.997 357.919 481.871 359.963 479.807 361.06C478.863 361.562 477.237 361.645 476.221 361.244L476.221 361.243ZM484.431 351.658C484.301 351.113 483.888 350.148 483.51 349.513L482.823 348.359L483.305 347.663C484.103 346.51 484.814 344.493 484.929 343.058L485.037 341.705L486.053 341.363C487.459 340.891 489.321 340.934 490.35 341.462L491.187 341.892L492.985 339.806C493.973 338.659 495.163 337.082 495.627 336.301C497.629 332.935 499.021 328.778 499.591 324.455C499.717 323.506 499.734 323.487 500.507 323.487C500.94 323.487 501.295 323.576 501.295 323.685C501.295 324.321 500.611 328.169 500.258 329.522C499.67 331.774 498.095 335.456 496.832 337.532C496.24 338.503 494.939 340.225 493.941 341.356C492.297 343.22 492.137 343.478 492.237 344.097C492.551 346.048 491.687 348.493 490.01 350.397C489.022 351.519 488.746 351.705 487.885 351.831C486.837 351.985 485.426 352.318 484.95 352.525C484.748 352.612 484.596 352.357 484.43 351.658L484.431 351.658ZM469.776 352.021C469.333 351.836 468.427 351.627 467.762 351.555C466.607 351.431 466.501 351.364 465.336 350.038C463.678 348.152 463.148 346.855 463.138 344.669V342.963L462.03 341.916C460.382 340.359 457.95 337.354 456.93 335.613C455.166 332.604 453.425 328.007 453.054 325.377C452.928 324.481 452.952 324.411 453.446 324.271C454.277 324.035 454.487 324.26 454.761 325.684C455.654 330.325 458.506 335.791 461.903 339.372C463.954 341.533 464.014 341.565 464.962 341.004C466.014 340.382 468.513 340.479 469.935 341.197C470.824 341.646 470.892 341.739 470.892 342.512C470.892 343.785 471.452 345.682 472.181 346.879L472.838 347.957L472.065 349.309C471.64 350.053 471.199 351.055 471.084 351.535C470.969 352.016 470.812 352.397 470.733 352.382C470.654 352.368 470.227 352.205 469.784 352.021L469.776 352.021ZM480.45 346.495C479.072 345.706 476.268 345.66 474.969 346.406L474.12 346.894L473.527 345.837C471.954 343.033 472.17 339.28 474.04 336.928C475.243 335.415 476.463 334.8 478.025 334.92C479.476 335.031 480.399 335.495 481.449 336.643C482.716 338.028 483.27 339.637 483.27 341.933C483.27 343.583 483.188 344.057 482.717 345.142C481.881 347.066 481.669 347.193 480.45 346.495V346.495ZM484.78 339.551C484.78 339.069 483.404 336.117 482.975 335.678C482.575 335.268 482.576 335.262 483.172 334.494C484.21 333.157 484.82 331.34 485.032 328.953C485.076 328.457 485.252 328.332 486.392 327.989C487.847 327.551 489.177 327.62 490.456 328.199L491.258 328.561L492.566 327.106C496.143 323.127 498.532 318.014 499.358 312.573C499.537 311.392 499.684 310.348 499.684 310.253C499.684 310.104 501.079 310.236 501.259 310.403C501.402 310.535 500.644 314.83 500.194 316.446C498.964 320.856 497.122 324.309 494.13 327.814C492.309 329.948 492.105 330.269 492.236 330.798C492.427 331.567 492.156 333.484 491.718 334.453C490.683 336.751 488.349 339.201 487.197 339.201C486.9 339.201 486.235 339.345 485.719 339.52C484.975 339.773 484.78 339.779 484.78 339.551V339.551ZM470.481 339.442C470.315 339.332 469.517 339.088 468.709 338.899C467.9 338.709 466.998 338.376 466.704 338.159C465.626 337.36 464.303 335.633 463.664 334.19C463.097 332.912 463.014 332.504 463.05 331.199L463.092 329.687L461.701 328.333C458.764 325.474 456.81 322.6 455.081 318.601C453.684 315.37 452.643 311.417 453.11 311.121C453.595 310.813 454.384 310.749 454.449 311.013C454.487 311.173 454.726 312.174 454.979 313.239C456.172 318.261 459.057 323.406 462.591 326.816L464.081 328.253L464.891 327.786C465.91 327.198 467.948 327.162 469.373 327.706C470.723 328.222 470.884 328.405 470.884 329.427C470.884 330.572 471.544 332.533 472.406 333.951L473.096 335.086L472.314 336.349C471.883 337.044 471.411 338.072 471.264 338.634C470.98 339.721 470.95 339.752 470.481 339.442L470.481 339.442ZM473.929 333.161C472.633 331.493 472.156 328.504 472.796 326.068C473.757 322.407 477.141 320.616 480.053 322.228C481.315 322.926 482.023 323.795 482.748 325.537C483.182 326.577 483.27 327.116 483.27 328.725C483.27 330.375 483.188 330.848 482.717 331.934C482.413 332.634 481.988 333.387 481.773 333.607C481.4 333.989 481.332 333.985 480.255 333.529C478.807 332.917 476.884 332.898 475.521 333.484L474.515 333.916L473.929 333.161V333.161ZM469.877 325.959C469.268 325.742 468.543 325.558 468.266 325.549C467.104 325.514 466.257 325.037 465.165 323.803C463.597 322.029 462.768 320.06 462.745 318.053L462.726 316.515L461.271 315.099C457.218 311.155 454.256 305.714 452.949 299.812C452.742 298.878 452.591 298.093 452.615 298.068C452.638 298.043 452.992 297.951 453.403 297.864C454.105 297.716 454.156 297.745 454.268 298.356C454.551 299.906 455.627 303.368 456.295 304.88C457.876 308.453 460.694 312.437 463.078 314.47C463.822 315.104 463.843 315.108 464.538 314.735C465.554 314.19 467.049 314.049 468.293 314.38C470.066 314.851 470.425 315.145 470.58 316.252C470.84 318.114 471.28 319.436 472.08 320.762L472.885 322.095L472.186 323.269C471.802 323.914 471.375 324.873 471.236 325.398L470.984 326.354L469.876 325.959L469.877 325.959ZM484.494 325.366C484.318 324.771 483.825 323.762 483.396 323.123L482.618 321.962L483.001 321.415C483.953 320.057 484.773 317.585 484.778 316.059C484.778 315.388 484.846 315.328 485.952 314.977C487.516 314.481 488.913 314.514 490.005 315.074L490.9 315.533L492.58 313.646C493.505 312.608 494.717 311.014 495.275 310.104C497.12 307.093 498.809 302.378 499.173 299.223C499.407 297.199 499.455 297.07 499.974 297.07C500.752 297.07 501.038 297.285 500.973 297.821C500.104 304.881 497.846 310.249 493.79 314.894L491.953 316.996L492.001 318.477C492.041 319.718 491.952 320.185 491.449 321.369C490.801 322.894 489.544 324.584 488.529 325.293C488.069 325.614 485.422 326.444 484.847 326.447C484.827 326.447 484.67 325.961 484.494 325.366L484.494 325.366ZM473.75 320.241C473.516 319.959 473.084 319.136 472.791 318.412C471.776 315.904 472.174 312.64 473.739 310.629C474.892 309.147 475.916 308.594 477.53 308.581C480.703 308.556 483.03 311.523 483.057 315.63C483.057 317.172 482.983 317.648 482.515 318.725C482.211 319.426 481.789 320.176 481.577 320.393C481.218 320.761 481.149 320.762 480.554 320.414C479.083 319.554 476.575 319.554 475.052 320.413C474.275 320.851 474.255 320.849 473.75 320.241V320.241ZM484.514 313.318C484.439 313.233 484.377 313 484.377 312.801C484.377 312.292 483.418 310.279 482.843 309.583C482.579 309.263 482.363 308.918 482.363 308.816C482.363 308.714 482.648 308.263 482.997 307.814C483.895 306.658 484.578 304.839 484.741 303.171C484.88 301.753 484.887 301.737 485.686 301.416C486.861 300.944 489.351 300.962 490.189 301.449C490.649 301.716 490.975 301.776 491.208 301.635C491.776 301.291 494.305 298.175 495.316 296.572C497.263 293.487 498.968 288.51 499.387 284.69L499.534 283.356L500.238 283.485C500.625 283.556 500.983 283.661 501.034 283.718C501.198 283.904 500.661 287.34 500.165 289.274C499.557 291.65 498.173 295.011 496.93 297.137C496.401 298.039 495.106 299.788 494.05 301.022L492.131 303.265L492.113 304.893C492.113 306.193 491.988 306.781 491.541 307.815C490.543 310.125 488.319 312.319 486.392 312.896C485.889 313.047 485.29 313.238 485.061 313.321C484.831 313.404 484.582 313.402 484.507 313.319L484.514 313.318ZM469.06 312.703C467.301 312.052 466.13 311.235 465.003 309.873C463.548 308.114 462.954 306.622 462.912 304.618L462.877 302.943L461.594 301.704C458.301 298.526 455.755 294.5 454.126 289.897C453.431 287.933 452.615 284.629 452.78 284.446C452.824 284.397 453.188 284.288 453.589 284.204C454.309 284.052 454.32 284.061 454.455 284.924C454.881 287.65 456.39 291.638 458.146 294.679C459.119 296.363 463.43 301.397 463.9 301.397C464.052 301.397 464.485 301.218 464.862 300.999C465.794 300.458 468.016 300.503 469.475 301.093L470.582 301.54L470.709 302.687C470.937 304.777 471.595 306.511 472.654 307.815L473.15 308.426L472.428 309.422C471.662 310.48 470.897 312.179 470.89 312.841C470.89 313.33 470.723 313.318 469.061 312.703L469.06 312.703ZM479.645 307.055C478.52 306.574 476.336 306.608 475.174 307.123C474.609 307.374 474.478 307.357 474.112 306.982C473.882 306.746 473.412 305.907 473.068 305.116C470.081 298.257 476.696 291.472 481.278 296.694C482.712 298.329 483.238 299.963 483.123 302.422C483.031 304.354 482.656 305.481 481.651 306.832C481.049 307.64 481.022 307.643 479.645 307.055V307.055ZM484.579 299.534C484.579 299.007 483.435 296.529 482.813 295.708L482.212 294.914L482.875 293.999C483.691 292.873 484.356 291.018 484.541 289.351C484.68 288.1 484.683 288.093 485.586 287.782C486.642 287.417 488.888 287.359 489.613 287.677C490.072 287.879 490.186 287.789 490.954 286.62C492.526 284.227 493.933 280.551 494.478 277.412C494.791 275.611 494.796 270.26 494.478 268.508C494.347 267.767 494.274 267.122 494.316 267.075C494.358 267.028 494.706 266.932 495.09 266.862L495.79 266.733L496.019 268.067C496.468 270.669 496.524 273.806 496.171 276.508C495.623 280.708 494.486 283.986 492.376 287.447C491.422 289.012 491.383 289.133 491.623 289.789C492.016 290.862 491.774 293.158 491.127 294.504C490.079 296.681 487.818 298.861 486.085 299.366C485.64 299.496 485.118 299.654 484.924 299.718C484.715 299.786 484.571 299.712 484.571 299.533L484.579 299.534ZM470.078 299.365C469.912 299.257 469.232 299.048 468.568 298.9C464.939 298.091 461.727 293.036 462.726 289.707L463.038 288.667L462.224 287.46C460.942 285.56 459.265 281.531 458.689 278.965C458.042 276.088 457.847 272.279 458.186 269.148C458.323 267.886 458.504 266.728 458.588 266.573C458.808 266.171 460.272 266.499 460.129 266.918C460.073 267.088 459.918 268.126 459.788 269.224C459.453 272.057 459.673 276.17 460.296 278.714C461.212 282.456 463.85 287.749 464.61 287.372C465.346 287.008 467.621 287.004 468.695 287.365C469.289 287.565 469.884 287.809 470.016 287.906C470.148 288.004 470.351 288.748 470.466 289.559C470.714 291.3 471.625 293.508 472.475 294.429L473.081 295.085L472.381 296.01C471.996 296.519 471.49 297.529 471.256 298.255C470.832 299.569 470.653 299.738 470.078 299.365V299.365ZM473.497 292.964C472.584 291.66 472.067 289.968 472.067 288.283C472.067 286.477 472.33 285.383 473.092 284.026C473.674 282.988 475.276 281.584 475.878 281.584C476.119 281.584 476.139 280.182 476.017 272.19C475.938 267.024 475.861 262.694 475.845 262.569C475.803 262.214 477.159 262.147 477.354 262.495C477.447 262.661 477.524 264.189 477.526 265.891C477.528 267.593 477.588 271.769 477.661 275.171C477.791 281.179 477.806 281.356 478.202 281.356C479.333 281.356 481.432 283.17 482.161 284.778C482.683 285.929 483.038 288.221 482.879 289.418C482.729 290.553 481.751 292.929 481.203 293.489C480.881 293.819 480.748 293.81 479.643 293.385C478.274 292.859 476.561 292.915 475.269 293.527C474.247 294.011 474.224 294.004 473.496 292.964L473.497 292.964Z" fill="#FCDD09"/>
</g>
<defs>
<clipPath id="clip0_1_7396">
<rect width="600" height="400" fill="white"/>
</clipPath>
</defs>
</svg>
