<svg width="600" height="400" viewBox="0 0 600 400" fill="none" xmlns="http://www.w3.org/2000/svg" xmlns:cgf="https://coding.garden/flags"><metadata id="cgf-metadata">

<cgf:flag>
  <cgf:name>Rijssen-Holten</cgf:name>
  <cgf:route>nl/ov/rijssen_holten</cgf:route>
  <cgf:aspect-ratio>1.5</cgf:aspect-ratio>
</cgf:flag>

</metadata><g clip-path="url(#clip0_3_12327)">
<rect width="600" height="400" fill="white"/>
<path d="M339.82 145.353H338.069C338.188 145.528 338.293 145.712 338.384 145.903C338.457 146.062 338.516 146.226 338.561 146.395C338.596 146.517 338.622 146.642 338.639 146.769C338.655 146.9 338.662 147.031 338.659 147.163C338.673 147.863 338.489 148.552 338.127 149.151C337.747 149.742 337.188 150.198 336.532 150.45C336.355 150.509 336.158 150.567 335.961 150.626C335.763 150.686 335.55 150.725 335.33 150.764C335.299 150.779 335.265 150.786 335.231 150.785C335.203 150.782 335.176 150.789 335.153 150.805C334.761 150.876 334.374 150.968 333.992 151.081C333.637 151.179 333.459 151.376 333.459 151.67C333.459 151.876 333.577 152.005 333.813 152.104C334.108 152.223 334.411 152.322 334.719 152.4C334.896 152.46 335.114 152.499 335.309 152.558C335.524 152.599 335.735 152.658 335.94 152.735C336.544 152.91 337.12 153.168 337.652 153.504C337.912 153.687 338.12 153.935 338.255 154.224C338.39 154.512 338.447 154.831 338.421 155.148C338.419 155.52 338.322 155.885 338.139 156.208C337.956 156.532 337.694 156.804 337.377 156.998C336.596 157.511 335.673 157.766 334.74 157.725C333.757 157.766 332.783 157.534 331.924 157.055C331.607 156.901 331.338 156.664 331.144 156.37C330.95 156.075 330.839 155.734 330.823 155.382C330.817 155.128 330.887 154.879 331.024 154.665C331.161 154.451 331.358 154.283 331.591 154.182C332.159 153.896 332.761 153.684 333.383 153.553V153.522C332.943 153.372 332.535 153.138 332.183 152.834C332.067 152.718 331.976 152.58 331.915 152.427C331.854 152.275 331.825 152.112 331.83 151.948C331.837 151.75 331.887 151.556 331.975 151.379C332.063 151.202 332.188 151.045 332.341 150.92C332.708 150.601 333.148 150.377 333.622 150.271C333.125 150.044 332.702 149.682 332.401 149.227C332.121 148.757 331.978 148.218 331.99 147.671C331.975 147.193 332.056 146.717 332.228 146.27C332.401 145.824 332.661 145.417 332.993 145.073C333.296 144.744 333.664 144.483 334.075 144.306C334.485 144.129 334.928 144.04 335.375 144.045L339.997 144.015L339.82 145.353ZM336.189 154.546C335.75 154.303 335.28 154.124 334.791 154.013C334.235 154.107 333.697 154.287 333.196 154.546C332.705 154.782 332.469 155.057 332.469 155.353C332.469 155.688 332.685 155.943 333.118 156.141C333.682 156.361 334.285 156.462 334.89 156.437C335.376 156.466 335.861 156.357 336.287 156.122C336.437 156.045 336.564 155.93 336.654 155.788C336.744 155.646 336.794 155.482 336.799 155.314C336.789 155.039 336.6 154.782 336.189 154.546ZM337.054 147.243C337.068 146.77 336.907 146.307 336.602 145.945C336.458 145.779 336.279 145.647 336.078 145.559C335.878 145.471 335.66 145.427 335.441 145.433C335.202 145.443 334.968 145.504 334.756 145.613C334.543 145.721 334.356 145.875 334.208 146.062C333.847 146.461 333.651 146.981 333.657 147.519C333.637 148.003 333.807 148.476 334.129 148.838C334.279 149.003 334.461 149.133 334.665 149.221C334.869 149.31 335.089 149.354 335.311 149.35C335.549 149.36 335.786 149.311 336.001 149.208C336.216 149.105 336.402 148.952 336.544 148.76C336.835 148.392 337.013 147.947 337.056 147.48C337.071 147.436 337.078 147.389 337.077 147.342V147.243H337.054Z" fill="#003062"/>
<path d="M360.668 150.942L360.431 152.576C360.001 152.916 359.514 153.176 358.993 153.345C358.483 153.503 357.952 153.583 357.418 153.581C356.9 153.6 356.384 153.503 355.908 153.299C355.431 153.095 355.006 152.788 354.662 152.4C353.938 151.515 353.566 150.393 353.618 149.251C353.573 147.904 354.01 146.584 354.851 145.531C355.207 145.057 355.669 144.673 356.2 144.41C356.731 144.147 357.317 144.011 357.909 144.014C358.342 144.006 358.772 144.094 359.167 144.271C359.561 144.449 359.912 144.712 360.193 145.042C360.828 145.815 361.151 146.798 361.099 147.798C361.103 147.93 361.096 148.062 361.079 148.193C361.078 148.332 361.058 148.47 361.019 148.604H355.39C355.369 148.762 355.351 148.918 355.33 149.056C355.314 149.192 355.308 149.329 355.31 149.467C355.279 149.837 355.329 150.21 355.454 150.56C355.579 150.91 355.778 151.229 356.037 151.495C356.483 151.915 357.069 152.154 357.681 152.165C358.155 152.156 358.622 152.055 359.058 151.869C359.618 151.626 360.147 151.315 360.633 150.944V150.944L360.668 150.942ZM359.447 147.42C359.46 146.918 359.323 146.424 359.052 146.002C358.916 145.804 358.731 145.645 358.514 145.542C358.298 145.438 358.058 145.393 357.819 145.412C357.344 145.4 356.884 145.577 356.539 145.903C356.125 146.326 355.827 146.848 355.673 147.42H359.447Z" fill="#003062"/>
<path d="M411.807 150.943L411.571 152.577C411.14 152.917 410.653 153.177 410.132 153.346C409.622 153.504 409.092 153.584 408.558 153.582C408.04 153.601 407.524 153.504 407.048 153.3C406.571 153.096 406.146 152.789 405.802 152.401C405.078 151.516 404.706 150.394 404.758 149.252C404.712 147.905 405.15 146.585 405.991 145.532C406.345 145.06 406.804 144.677 407.331 144.414C407.859 144.151 408.441 144.014 409.031 144.015C409.463 144.007 409.893 144.095 410.288 144.272C410.683 144.45 411.033 144.713 411.314 145.043C411.955 145.814 412.285 146.797 412.239 147.799C412.242 147.931 412.235 148.063 412.218 148.194C412.218 148.333 412.197 148.471 412.159 148.605H406.529C406.509 148.763 406.49 148.919 406.47 149.057C406.454 149.193 406.447 149.33 406.449 149.468C406.419 149.838 406.468 150.211 406.594 150.561C406.719 150.911 406.918 151.23 407.177 151.496C407.623 151.916 408.209 152.155 408.821 152.166C409.295 152.157 409.762 152.056 410.198 151.87C410.758 151.627 411.287 151.316 411.772 150.945V150.945L411.807 150.943ZM410.586 147.421C410.6 146.919 410.462 146.425 410.192 146.003C410.056 145.805 409.87 145.646 409.654 145.543C409.438 145.439 409.198 145.394 408.959 145.413C408.484 145.401 408.023 145.578 407.678 145.904C407.265 146.327 406.967 146.849 406.813 147.421H410.586Z" fill="#003062"/>
<path d="M434.211 150.942L433.974 152.576C433.544 152.916 433.057 153.176 432.535 153.345C432.026 153.503 431.495 153.583 430.961 153.581C430.443 153.6 429.927 153.503 429.451 153.299C428.974 153.095 428.549 152.788 428.205 152.4C427.481 151.515 427.109 150.393 427.161 149.251C427.116 147.904 427.553 146.584 428.394 145.531C428.751 145.057 429.213 144.673 429.744 144.41C430.276 144.146 430.861 144.011 431.454 144.014C431.887 144.006 432.317 144.094 432.712 144.271C433.107 144.449 433.457 144.712 433.738 145.042C434.379 145.813 434.709 146.796 434.663 147.798C434.666 147.93 434.659 148.062 434.642 148.193C434.641 148.332 434.621 148.47 434.582 148.604H428.951C428.931 148.762 428.912 148.918 428.892 149.056C428.876 149.192 428.869 149.329 428.871 149.467C428.841 149.837 428.89 150.21 429.015 150.56C429.141 150.91 429.34 151.229 429.599 151.495C430.044 151.915 430.63 152.154 431.243 152.165C431.716 152.156 432.184 152.055 432.62 151.869C433.18 151.626 433.709 151.315 434.194 150.944L434.211 150.942ZM432.99 147.42C433.003 146.918 432.866 146.424 432.595 146.002C432.459 145.804 432.274 145.645 432.057 145.542C431.841 145.438 431.601 145.393 431.362 145.412C430.887 145.4 430.427 145.577 430.082 145.903C429.668 146.326 429.37 146.848 429.216 147.42H432.99Z" fill="#003062"/>
<path d="M499.367 150.942L499.13 152.576C498.7 152.916 498.213 153.176 497.692 153.345C497.182 153.503 496.651 153.583 496.117 153.581C495.599 153.6 495.084 153.503 494.607 153.299C494.131 153.095 493.705 152.788 493.361 152.4C492.637 151.515 492.265 150.393 492.317 149.251C492.272 147.904 492.709 146.584 493.55 145.531C493.903 145.058 494.361 144.674 494.889 144.41C495.417 144.147 496 144.011 496.59 144.014C497.023 144.006 497.452 144.094 497.847 144.271C498.242 144.449 498.593 144.712 498.873 145.042C499.515 145.813 499.845 146.796 499.798 147.798C499.802 147.93 499.795 148.062 499.778 148.193C499.777 148.332 499.757 148.47 499.718 148.604H494.089C494.068 148.762 494.05 148.918 494.029 149.056C494.014 149.192 494.007 149.329 494.009 149.467C493.978 149.837 494.028 150.21 494.153 150.56C494.279 150.91 494.477 151.229 494.736 151.495C495.182 151.915 495.768 152.154 496.38 152.165C496.854 152.156 497.322 152.055 497.757 151.869C498.318 151.626 498.846 151.315 499.332 150.944V150.944L499.367 150.942ZM498.146 147.42C498.159 146.918 498.022 146.424 497.751 146.002C497.615 145.804 497.43 145.645 497.214 145.542C496.997 145.438 496.757 145.393 496.518 145.412C496.043 145.4 495.583 145.577 495.238 145.903C494.824 146.326 494.526 146.848 494.373 147.42H498.146Z" fill="#003062"/>
<path d="M378.203 145.709L378.242 145.748C378.692 145.214 379.236 144.766 379.847 144.427C380.311 144.17 380.833 144.035 381.363 144.032C381.476 144.03 381.588 144.037 381.698 144.053C381.818 144.069 381.936 144.096 382.052 144.131C382.381 144.263 382.672 144.475 382.899 144.747C383.204 145.125 383.386 145.587 383.423 146.071C383.916 145.406 384.547 144.856 385.273 144.458C385.742 144.19 386.268 144.039 386.808 144.016C387.086 144.012 387.362 144.065 387.619 144.171C387.876 144.277 388.109 144.434 388.304 144.632C388.533 144.892 388.706 145.194 388.815 145.523C388.923 145.851 388.964 146.197 388.935 146.542V146.916C388.934 147.055 388.914 147.193 388.875 147.327L388.053 153.174H386.341L387.188 147.228C387.209 147.138 387.222 147.046 387.227 146.953V146.688C387.255 146.34 387.164 145.993 386.97 145.703C386.889 145.593 386.782 145.504 386.658 145.446C386.534 145.387 386.398 145.361 386.261 145.368C385.842 145.407 385.441 145.557 385.1 145.802C384.441 146.249 383.874 146.816 383.427 147.475L382.605 153.203H380.874L381.682 147.475C381.703 147.337 381.721 147.218 381.742 147.08V146.733C381.762 146.383 381.68 146.034 381.505 145.73C381.41 145.606 381.284 145.508 381.14 145.446C380.996 145.384 380.839 145.36 380.683 145.376C380.371 145.398 380.071 145.507 379.818 145.691C379.429 145.942 379.073 146.24 378.755 146.577C378.614 146.712 378.482 146.857 378.361 147.01C378.225 147.166 378.1 147.33 377.987 147.502L377.175 153.227H375.463L376.743 144.184H378.455L378.203 145.709Z" fill="#003062"/>
<path d="M452.378 145.727L452.417 145.766C452.838 145.246 453.344 144.8 453.913 144.447C454.364 144.172 454.881 144.022 455.409 144.015C455.734 143.99 456.06 144.052 456.354 144.194C456.648 144.336 456.899 144.553 457.082 144.823C457.411 145.35 457.601 145.953 457.633 146.574V146.81C457.636 146.928 457.629 147.047 457.612 147.164C457.61 147.276 457.597 147.389 457.573 147.499L456.708 153.167H455.014L455.837 147.4C455.858 147.31 455.871 147.218 455.876 147.125V146.849C455.901 146.505 455.82 146.162 455.643 145.865C455.522 145.671 455.332 145.53 455.111 145.47C455.067 145.452 455.02 145.445 454.973 145.45C454.934 145.45 454.875 145.429 454.836 145.429C454.458 145.472 454.095 145.6 453.773 145.803C453.124 146.236 452.565 146.791 452.129 147.437L451.307 153.192H449.613L450.873 144.149H452.585L452.378 145.727Z" fill="#003062"/>
<path d="M477.713 147.205H475.903L475.038 152.138C475.017 152.276 475.017 152.395 474.998 152.491C474.982 152.589 474.976 152.688 474.978 152.787C474.964 152.91 474.978 153.034 475.019 153.15C475.06 153.266 475.127 153.371 475.214 153.457C475.418 153.609 475.67 153.682 475.923 153.663H476.082C476.141 153.666 476.201 153.659 476.258 153.642C476.455 153.615 476.647 153.562 476.83 153.484C477.08 153.383 477.323 153.265 477.557 153.131L477.459 154.775C477.253 154.853 477.064 154.933 476.887 154.991C476.712 155.046 476.535 155.092 476.355 155.128C476.238 155.149 476.119 155.167 475.981 155.188H475.57C474.918 155.234 474.274 155.022 473.778 154.598C473.578 154.416 473.42 154.194 473.314 153.946C473.207 153.697 473.155 153.429 473.161 153.159V153.059C473.158 153.019 473.165 152.978 473.182 152.942C473.18 152.907 473.187 152.874 473.202 152.843V152.715L474.148 147.224H472.553L472.758 145.886H474.402L474.776 144.016H476.47L476.156 145.865H477.888L477.713 147.205Z" fill="#003062"/>
<path d="M418.401 212.832L417.579 218.462C416.09 219.62 414.411 220.512 412.618 221.099C410.853 221.652 409.014 221.929 407.165 221.921C405.377 221.988 403.596 221.654 401.954 220.943C400.312 220.231 398.85 219.161 397.676 217.81C395.174 214.728 393.899 210.831 394.094 206.866C393.94 202.197 395.454 197.626 398.365 193.972C399.592 192.34 401.183 191.017 403.011 190.108C404.839 189.199 406.854 188.729 408.896 188.735C410.392 188.71 411.874 189.019 413.236 189.638C414.598 190.258 415.805 191.173 416.769 192.317C418.983 194.998 420.114 198.411 419.938 201.884C419.938 202.357 419.918 202.809 419.899 203.282C419.877 203.771 419.818 204.258 419.723 204.739H400.274C400.175 205.29 400.116 205.822 400.058 206.334C400 206.846 399.998 207.337 399.998 207.791C399.896 209.076 400.069 210.368 400.507 211.58C400.945 212.792 401.638 213.896 402.539 214.818C404.081 216.293 406.132 217.118 408.267 217.122C409.895 217.086 411.501 216.731 412.994 216.078C414.92 215.237 416.738 214.166 418.407 212.888V212.828L418.401 212.832ZM414.227 200.587C414.285 198.847 413.811 197.131 412.868 195.667C412.391 194.992 411.746 194.452 410.998 194.1C410.249 193.748 409.422 193.596 408.598 193.659C406.96 193.629 405.377 194.244 404.189 195.371C402.771 196.839 401.731 198.629 401.158 200.587H414.227Z" fill="#003062"/>
<path d="M36.2088 173.504C38.6993 173.476 41.184 173.752 43.6076 174.326C45.3989 174.787 47.0532 175.672 48.4313 176.905C49.7086 178.04 50.7061 179.454 51.3456 181.038C52.0133 182.75 52.3407 184.576 52.3095 186.413C52.3661 189.089 51.4421 191.693 49.7117 193.736C47.8497 195.874 45.3581 197.368 42.5944 198.002C43.4366 198.57 44.1645 199.291 44.7401 200.127C45.4421 201.094 46.0485 202.126 46.5507 203.21L55.0163 220.867H48.2052L42.7855 209.666C41.8997 207.855 41.1126 206.359 40.4241 205.159C39.8494 204.125 39.177 203.149 38.4161 202.244C37.7401 201.492 36.8947 200.912 35.9498 200.551C34.9717 200.235 33.9482 200.082 32.9204 200.099H30.4541L27.5357 220.885H21L27.6734 173.504H36.2088ZM31.2762 194.41H34.6016C37.441 194.717 40.2954 193.983 42.6334 192.342C44.0958 191.154 45.0927 189.488 45.4491 187.638C45.4882 187.401 45.5272 187.147 45.5478 186.869C45.5683 186.592 45.5868 186.337 45.5868 186.1C45.6457 185.137 45.483 184.173 45.111 183.282C44.739 182.391 44.1678 181.598 43.4412 180.962C41.5767 179.651 39.3164 179.026 37.0432 179.191H33.3623L31.2762 194.41Z" fill="#003062"/>
<path d="M69.8722 220.889H63.9736L68.3431 189.65H74.2498L69.8722 220.889ZM72.359 176.476C73.2672 176.505 74.1284 176.886 74.7616 177.538C75.0794 177.848 75.332 178.219 75.5044 178.628C75.6769 179.037 75.7657 179.476 75.7657 179.92C75.7657 180.364 75.6769 180.804 75.5044 181.213C75.332 181.622 75.0794 181.992 74.7616 182.302C74.4477 182.62 74.0737 182.873 73.6615 183.045C73.2492 183.217 72.8069 183.306 72.36 183.306C71.9132 183.306 71.4708 183.217 71.0586 183.045C70.6463 182.873 70.2724 182.62 69.9585 182.302C69.6407 181.992 69.3881 181.622 69.2157 181.213C69.0432 180.804 68.9544 180.364 68.9544 179.92C68.9544 179.476 69.0432 179.037 69.2157 178.628C69.3881 178.219 69.6407 177.848 69.9585 177.538C70.2696 177.216 70.6432 176.961 71.0563 176.789C71.4694 176.616 71.9134 176.53 72.3611 176.535L72.359 176.476Z" fill="#003062"/>
<path d="M85.705 189.648H91.6097L86.8271 227.224C86.7621 228.677 86.3878 230.099 85.7293 231.396C85.0708 232.693 84.1432 233.834 83.0085 234.744C80.9995 236.165 78.5983 236.925 76.1378 236.919C75.9015 236.919 75.6651 236.898 75.4493 236.88C75.2335 236.861 74.9972 236.84 74.7608 236.84C74.3868 236.742 74.0127 236.664 73.6592 236.604C73.3258 236.541 73.0018 236.435 72.6953 236.29L73.3838 231.073C73.8963 231.172 74.369 231.251 74.8019 231.31C75.226 231.371 75.6538 231.404 76.0823 231.408C76.7111 231.443 77.34 231.343 77.9272 231.116C78.5144 230.888 79.0464 230.538 79.4879 230.089C80.486 228.783 81.0688 227.208 81.1608 225.567L85.705 189.648ZM93.1264 179.845C93.1376 180.305 93.0543 180.762 92.8818 181.189C92.7093 181.615 92.4513 182.002 92.1235 182.325C91.5688 182.873 90.8413 183.212 90.0649 183.285C89.2885 183.357 88.5109 183.158 87.8645 182.722C87.218 182.286 86.7425 181.64 86.5189 180.893C86.2952 180.146 86.3371 179.344 86.6375 178.624C86.9379 177.905 87.4782 177.311 88.1667 176.945C88.8551 176.579 89.6491 176.462 90.4138 176.615C91.1784 176.768 91.8665 177.181 92.361 177.784C92.8555 178.387 93.126 179.143 93.1264 179.923V179.845Z" fill="#003062"/>
<path d="M120.883 192.066V198.147C119.318 196.98 117.628 195.989 115.844 195.194C114.478 194.56 112.998 194.21 111.493 194.166C110.409 194.135 109.344 194.459 108.462 195.091C108.086 195.347 107.778 195.69 107.566 196.092C107.353 196.493 107.241 196.941 107.241 197.395C107.241 198.004 107.449 198.594 107.831 199.068C108.27 199.628 108.764 200.142 109.306 200.603C109.896 201.076 110.566 201.528 111.275 202.001C111.984 202.474 112.714 202.946 113.441 203.458C114.982 204.549 116.396 205.81 117.655 207.217C118.962 208.719 119.652 210.661 119.585 212.651C119.644 213.911 119.427 215.169 118.948 216.335C118.468 217.502 117.738 218.549 116.81 219.403C114.924 221.084 112.465 221.978 109.939 221.902C109.184 221.907 108.428 221.861 107.679 221.764C106.957 221.666 106.245 221.502 105.553 221.273C104.51 221.007 103.505 220.61 102.561 220.091C101.358 219.429 100.199 218.69 99.0918 217.878L100.136 212.111C101.782 213.52 103.586 214.735 105.51 215.732C106.814 216.411 108.254 216.787 109.724 216.834C110.781 216.885 111.82 216.542 112.638 215.87C113.001 215.562 113.29 215.176 113.482 214.741C113.674 214.305 113.764 213.832 113.746 213.356C113.747 212.472 113.425 211.617 112.839 210.954C112.162 210.169 111.404 209.456 110.579 208.829C110.126 208.514 109.654 208.159 109.16 207.826C108.667 207.493 108.176 207.137 107.685 206.823C106.166 205.718 104.767 204.458 103.511 203.064C102.226 201.613 101.55 199.724 101.622 197.788C101.574 196.576 101.787 195.369 102.248 194.248C102.71 193.127 103.407 192.118 104.294 191.291C106.264 189.584 108.815 188.701 111.419 188.825C113.077 188.834 114.722 189.127 116.282 189.69C117.916 190.273 119.46 191.082 120.869 192.093V192.054L120.883 192.066Z" fill="#003062"/>
<path d="M151.053 192.067V198.148C149.487 196.981 147.797 195.99 146.014 195.195C144.648 194.561 143.168 194.211 141.663 194.167C140.578 194.135 139.513 194.46 138.631 195.092C138.256 195.348 137.948 195.691 137.735 196.093C137.523 196.494 137.411 196.942 137.41 197.396C137.411 198.005 137.619 198.595 138 199.069C138.44 199.629 138.934 200.143 139.476 200.604C140.066 201.077 140.736 201.529 141.445 202.002C142.154 202.474 142.884 202.947 143.611 203.459C145.152 204.55 146.565 205.811 147.824 207.218C149.132 208.72 149.821 210.662 149.754 212.652C149.814 213.912 149.597 215.17 149.117 216.336C148.638 217.503 147.908 218.55 146.98 219.403C145.093 221.084 142.635 221.979 140.109 221.903C139.353 221.908 138.598 221.862 137.848 221.765C137.126 221.667 136.415 221.502 135.723 221.274C134.68 221.008 133.674 220.611 132.731 220.092C131.53 219.429 130.373 218.69 129.268 217.879L130.312 212.112C131.958 213.521 133.761 214.736 135.686 215.733C136.99 216.411 138.43 216.788 139.899 216.834C140.957 216.886 141.995 216.542 142.814 215.871C143.174 215.564 143.46 215.18 143.651 214.747C143.842 214.314 143.932 213.844 143.915 213.371C143.917 212.487 143.594 211.632 143.009 210.969C142.331 210.184 141.574 209.471 140.748 208.844C140.296 208.529 139.823 208.174 139.33 207.841C138.837 207.508 138.346 207.152 137.854 206.838C136.336 205.733 134.937 204.473 133.68 203.079C132.396 201.628 131.72 199.739 131.791 197.803C131.743 196.592 131.957 195.384 132.418 194.263C132.879 193.142 133.577 192.133 134.463 191.306C136.436 189.596 138.991 188.712 141.599 188.838C143.257 188.848 144.902 189.14 146.462 189.703C148.095 190.286 149.64 191.095 151.049 192.106V192.067H151.053Z" fill="#003062"/>
<path d="M185.825 212.832L185.003 218.462C183.513 219.62 181.835 220.512 180.041 221.099C178.277 221.652 176.438 221.929 174.589 221.921C172.801 221.988 171.02 221.654 169.378 220.943C167.736 220.231 166.274 219.161 165.1 217.81C162.598 214.728 161.322 210.831 161.518 206.866C161.364 202.197 162.878 197.626 165.788 193.972C167.015 192.34 168.606 191.017 170.435 190.108C172.263 189.199 174.278 188.729 176.319 188.735C177.815 188.71 179.298 189.019 180.66 189.638C182.022 190.258 183.229 191.173 184.193 192.317C186.407 194.998 187.538 198.411 187.362 201.884C187.362 202.357 187.342 202.809 187.323 203.282C187.301 203.771 187.242 204.258 187.146 204.739H167.696C167.597 205.29 167.537 205.822 167.48 206.334C167.422 206.846 167.42 207.337 167.42 207.791C167.317 209.076 167.491 210.368 167.929 211.58C168.367 212.792 169.06 213.896 169.96 214.818C171.503 216.293 173.554 217.118 175.688 217.122C177.317 217.086 178.923 216.731 180.415 216.078C182.342 215.237 184.16 214.166 185.829 212.888V212.828L185.825 212.832ZM181.651 200.587C181.708 198.847 181.234 197.131 180.292 195.667C179.815 194.992 179.17 194.452 178.422 194.1C177.673 193.748 176.846 193.596 176.021 193.659C174.384 193.629 172.801 194.244 171.613 195.371C170.195 196.839 169.154 198.629 168.581 200.587H181.651Z" fill="#003062"/>
<path d="M207.751 195.176L207.888 195.313C209.342 193.513 211.093 191.975 213.066 190.765C214.627 189.814 216.414 189.297 218.243 189.269C219.364 189.173 220.491 189.38 221.506 189.868C222.52 190.356 223.385 191.107 224.01 192.044C225.163 193.861 225.809 195.955 225.88 198.107V198.855C225.88 199.266 225.859 199.701 225.841 200.114C225.824 200.514 225.764 200.91 225.664 201.296L222.672 220.922H216.845L219.7 201.078C219.794 200.766 219.84 200.441 219.838 200.114V199.157C219.924 197.964 219.637 196.773 219.015 195.751C218.581 195.1 217.945 194.609 217.205 194.354C217.057 194.309 216.906 194.276 216.753 194.255C216.603 194.233 216.452 194.22 216.3 194.216C215.001 194.37 213.755 194.822 212.659 195.535C210.414 197.037 208.471 198.946 206.931 201.165L204.076 220.928H198.243L202.613 189.688H208.519L207.751 195.176Z" fill="#003062"/>
<path d="M251.691 208.326H235.154L235.976 202.421H252.513L251.691 208.326Z" fill="#003062"/>
<path d="M298.303 220.885H291.767L294.759 199.979H269.129L266.216 220.885H259.681L266.36 173.504H272.818L269.957 194.075H295.586L298.44 173.504H304.976L298.303 220.885Z" fill="#003062"/>
<path d="M339.917 202.344C340.171 207.438 338.645 212.463 335.601 216.556C334.395 218.215 332.815 219.567 330.988 220.501C329.161 221.435 327.14 221.924 325.088 221.93C323.463 222.01 321.841 221.718 320.345 221.077C318.849 220.436 317.519 219.463 316.456 218.231C314.217 215.298 313.106 211.658 313.326 207.975C313.153 203.037 314.676 198.188 317.642 194.236C318.849 192.534 320.446 191.146 322.299 190.188C324.151 189.229 326.206 188.727 328.292 188.724C329.897 188.655 331.496 188.954 332.966 189.599C334.437 190.244 335.74 191.217 336.777 192.444C338.978 195.275 340.088 198.803 339.907 202.385L339.917 202.344ZM319.385 208.544C319.271 210.694 319.829 212.827 320.98 214.646C321.385 215.324 321.957 215.886 322.64 216.282C323.323 216.677 324.096 216.893 324.885 216.907C326.218 216.831 327.506 216.402 328.62 215.666C329.733 214.929 330.632 213.911 331.223 212.714C333.103 209.476 334.018 205.768 333.86 202.027C333.966 199.835 333.447 197.657 332.364 195.748C331.96 195.023 331.368 194.42 330.651 194.001C329.935 193.582 329.119 193.363 328.288 193.366C325.729 193.366 323.605 194.902 321.917 197.972C320.178 201.234 319.303 204.887 319.377 208.583V208.544H319.385Z" fill="#003062"/>
<path d="M356.787 220.885H350.882L357.555 173.504H363.46L356.787 220.885Z" fill="#003062"/>
<path d="M386.749 194.234H380.489L377.497 211.36C377.458 211.833 377.398 212.246 377.359 212.62C377.321 212.967 377.301 213.315 377.299 213.664C377.252 214.087 377.3 214.515 377.44 214.917C377.58 215.319 377.808 215.684 378.107 215.987C378.829 216.483 379.699 216.719 380.573 216.657H381.124C381.337 216.656 381.549 216.63 381.755 216.578C382.435 216.463 383.1 216.278 383.743 216.028C384.62 215.673 385.469 215.251 386.283 214.768L385.929 220.436C385.241 220.712 384.591 220.948 383.981 221.164C383.393 221.37 382.786 221.521 382.17 221.616C381.75 221.715 381.321 221.774 380.89 221.793C380.456 221.813 379.965 221.832 379.472 221.832C377.241 221.988 375.038 221.268 373.331 219.824C372.642 219.188 372.097 218.414 371.73 217.552C371.364 216.69 371.185 215.76 371.206 214.823V214.412C371.206 214.273 371.226 214.135 371.265 214.001C371.271 213.883 371.284 213.765 371.304 213.648C371.327 213.512 371.34 213.374 371.343 213.237L374.611 194.261H369.111L369.8 189.616H375.489L376.671 183.218H382.497L381.396 189.616H387.356L386.749 194.234Z" fill="#003062"/>
<path d="M440.782 195.176L440.92 195.313C442.373 193.513 444.124 191.975 446.097 190.765C447.658 189.814 449.446 189.297 451.274 189.269C452.396 189.173 453.522 189.38 454.537 189.868C455.551 190.356 456.416 191.107 457.041 192.044C458.195 193.861 458.84 195.955 458.911 198.107V198.855C458.911 199.266 458.891 199.701 458.872 200.114C458.855 200.514 458.796 200.91 458.695 201.296L455.703 220.922H449.876L452.731 201.078C452.825 200.766 452.871 200.441 452.869 200.114V199.157C452.955 197.964 452.668 196.773 452.047 195.751C451.612 195.1 450.976 194.609 450.236 194.354C450.088 194.309 449.937 194.276 449.784 194.255C449.634 194.233 449.483 194.22 449.332 194.216C448.033 194.37 446.786 194.822 445.69 195.535C443.445 197.037 441.502 198.946 439.962 201.165L437.101 220.942H431.274L435.644 189.703H441.549L440.782 195.176Z" fill="#003062"/>
<path d="M421.315 235.274C424.868 234.821 428.477 235.245 431.828 236.507C433.099 237.023 434.172 237.932 434.89 239.1C435.609 240.269 435.936 241.636 435.823 243.003C435.644 245.277 435.133 247.512 434.307 249.638C433.46 251.813 432.263 253.834 430.763 255.622L421.315 235.274Z" fill="#900055"/>
<path d="M447.416 215.874C452.06 215.279 456.78 215.84 461.155 217.508C462.818 218.187 464.221 219.377 465.162 220.906C466.104 222.435 466.534 224.223 466.392 226.013C466.163 228.981 465.5 231.899 464.423 234.674C463.313 237.514 461.744 240.152 459.778 242.484L447.416 215.874Z" fill="#003062"/>
<path d="M476.631 194.174C482.513 193.426 488.489 194.136 494.033 196.241C496.133 197.101 497.906 198.605 499.098 200.536C500.291 202.468 500.84 204.727 500.667 206.99C500.369 210.753 499.527 214.454 498.168 217.975C496.769 221.569 494.787 224.908 492.302 227.857L476.631 194.174Z" fill="#900055"/>
<path d="M508.381 170.984C515.567 170.079 522.865 170.944 529.64 173.504C532.21 174.556 534.38 176.396 535.837 178.76C537.295 181.123 537.965 183.889 537.75 186.657C537.397 191.258 536.369 195.781 534.698 200.082C532.985 204.481 530.554 208.565 527.505 212.169L508.381 170.984Z" fill="#900055"/>
<path d="M543.541 144.426C552.204 143.325 561.005 144.366 569.172 147.458C572.268 148.725 574.883 150.942 576.641 153.789C578.399 156.636 579.209 159.967 578.955 163.303C578.521 168.841 577.281 174.286 575.274 179.466C573.211 184.766 570.284 189.689 566.613 194.033L543.541 144.426Z" fill="#900055"/>
</g>
<defs>
<clipPath id="clip0_3_12327">
<rect width="600" height="400" fill="white"/>
</clipPath>
</defs>
</svg>
