<svg width="600" height="400" viewBox="0 0 600 400" fill="none" xmlns="http://www.w3.org/2000/svg" xmlns:cgf="https://coding.garden/flags"><metadata id="cgf-metadata">

<cgf:flag>
  <cgf:name>Staphorst</cgf:name>
  <cgf:route>nl/ov/staphorst</cgf:route>
  <cgf:aspect-ratio>1.5</cgf:aspect-ratio>
</cgf:flag>

</metadata><g clip-path="url(#clip0_1_7352)">
<path d="M-0.00945919 -0.0883789L-0.860352 401.607H604.132V-0.0883789H-0.00945919V-0.0883789Z" fill="#FCDD09"/>
<path d="M-0.410355 75.4238L-1.26367 327.966H605.421V75.4238H-0.410355V75.4238Z" fill="#0F47AF"/>
<path d="M66.9002 113.925L66.5128 129.231L49.0799 183.928L48.9443 279.523L192.471 279.021L193.192 184.681L174.855 128.729V123.46C179.435 121.634 183.79 122.871 188.026 125.718L187.51 115.431C181.875 111.22 178.21 112.746 174.597 114.427L174.855 112.671H172.789V129.231L153.935 185.182H141.28L121.394 123.46L121.424 112.213L124.827 112.213L124.781 110.162C123.748 110.162 119.797 110.162 121.5 110.162L121.354 104.958H118.935L119.026 110.147H115.83V112.276H119.117L119.163 123.409L100.991 185.182H88.0779L69.4829 129.105V123.711C73.8107 123.118 78.1454 122.426 82.1378 126.722V116.936C78.1709 113.21 74.0523 112.134 69.7411 114.427V112.42L66.9002 112.169V113.925H66.9003V113.925H66.9003H66.9002H66.9002Z" fill="#FCDD09"/>
<path d="M102.67 179.412L139.473 179.537L139.602 179.412" fill="black"/>
<path d="M102.67 179.412L139.473 179.537L139.602 179.412" stroke="black" stroke-width="0.391"/>
<path d="M48.9512 184.304L87.9492 184.43Z" fill="black"/>
<path d="M48.9512 184.304L87.9492 184.43" stroke="black" stroke-width="0.391"/>
<path d="M100.862 185.057L141.281 184.681Z" fill="black"/>
<path d="M100.862 185.057L141.281 184.681" stroke="black" stroke-width="0.391"/>
<path d="M153.678 184.931L193.063 185.057Z" fill="black"/>
<path d="M153.678 184.931L193.063 185.057" stroke="black" stroke-width="0.391"/>
<path d="M88.207 185.308L88.3362 279.397Z" fill="black"/>
<path d="M88.207 185.308L88.3362 279.397" stroke="black" stroke-width="0.391"/>
<path d="M100.862 185.182L100.604 279.397Z" fill="black"/>
<path d="M100.862 185.182L100.604 279.397" stroke="black" stroke-width="0.391"/>
<path d="M141.41 185.057L141.539 279.146Z" fill="black"/>
<path d="M141.41 185.057L141.539 279.146" stroke="black" stroke-width="0.391"/>
<path d="M153.936 184.931L154.323 279.02Z" fill="black"/>
<path d="M153.936 184.931L154.323 279.02" stroke="black" stroke-width="0.391"/>
<path d="M54.7623 207.952L60.4441 207.889L60.3795 198.919C59.5566 195.621 55.256 195.151 54.6331 198.982L54.5039 207.952L54.7621 207.952L54.7623 207.952Z" fill="black" fill-opacity="0.613208"/>
<path d="M75.1002 208.019L80.782 207.957L80.7174 198.987C79.8945 195.688 75.5939 195.218 74.971 199.049L74.8418 208.019L75.1001 208.019L75.1002 208.019Z" fill="black" fill-opacity="0.613208"/>
<path d="M107.971 208.031L113.653 207.968L113.588 198.998C112.766 195.7 108.465 195.229 107.842 199.061L107.713 208.031L107.971 208.031L107.971 208.031Z" fill="black" fill-opacity="0.613208"/>
<path d="M128.31 208.098L133.992 208.036L133.927 199.066C133.104 195.767 128.804 195.297 128.181 199.129L128.052 208.098L128.31 208.098L128.31 208.098Z" fill="black" fill-opacity="0.613208"/>
<path d="M160.018 207.498L165.7 207.436L165.635 198.466C164.812 195.167 160.512 194.697 159.889 198.528L159.76 207.498L160.018 207.498L160.018 207.498Z" fill="black" fill-opacity="0.613208"/>
<path d="M180.357 207.566L186.039 207.504L185.974 198.534C185.151 195.235 180.851 194.765 180.228 198.596L180.099 207.566L180.357 207.566L180.357 207.566Z" fill="black" fill-opacity="0.613208"/>
<path d="M93.2918 205.137L96.7028 205.093L96.6639 198.78C96.1699 196.459 93.5881 196.128 93.2142 198.825L93.1367 205.137H93.2917L93.2918 205.137Z" fill="black" fill-opacity="0.613208"/>
<path d="M93.1092 232.06L96.5201 232.016L96.4813 225.704C95.9873 223.383 93.4055 223.052 93.0316 225.748L92.9541 232.06H93.1091L93.1092 232.06Z" fill="black" fill-opacity="0.613208"/>
<path d="M146.252 232.77L149.663 232.726L149.624 226.413C149.13 224.092 146.548 223.761 146.174 226.457L146.097 232.77H146.252H146.252Z" fill="black" fill-opacity="0.613208"/>
<path d="M145.978 205.803L149.389 205.758L149.35 199.446C148.856 197.125 146.275 196.794 145.901 199.49L145.823 205.803H145.978H145.978Z" fill="black" fill-opacity="0.613208"/>
<path d="M93.4744 258.85L96.8854 258.806L96.8465 252.494C96.3525 250.173 93.7707 249.842 93.3968 252.538L93.3193 258.85L93.4743 258.85L93.4744 258.85Z" fill="black" fill-opacity="0.613208"/>
<path d="M146.618 259.028L150.029 258.983L149.99 252.671C149.496 250.35 146.914 250.019 146.54 252.715L146.463 259.028H146.618L146.618 259.028Z" fill="black" fill-opacity="0.613208"/>
<path d="M56.7525 240.459H53.374V255.983H56.7525V240.459Z" fill="black" fill-opacity="0.613208"/>
<path d="M83.4605 240.77H80.082V256.293H83.4605V240.77Z" fill="black" fill-opacity="0.613208"/>
<path d="M109.301 240.592H105.923V256.116H109.301V240.592Z" fill="black" fill-opacity="0.613208"/>
<path d="M136.695 240.77H133.316V256.293H136.695V240.77Z" fill="black" fill-opacity="0.613208"/>
<path d="M162.082 240.648H158.703V256.172H162.082V240.648Z" fill="black" fill-opacity="0.613208"/>
<path d="M188.683 240.397H185.305V255.921H188.683V240.397Z" fill="black" fill-opacity="0.613208"/>
<path d="M63.4364 278.963L75.2942 278.798L75.1595 255.18C73.442 246.496 64.4669 245.257 63.167 255.345L62.8975 278.963L63.4364 278.963L63.4364 278.963Z" fill="black" fill-opacity="0.613208"/>
<path d="M115.605 278.837L127.463 278.672L127.328 255.055C125.611 246.37 116.636 245.132 115.336 255.22L115.066 278.837L115.605 278.838L115.605 278.837Z" fill="black" fill-opacity="0.613208"/>
<path d="M168.163 278.335L180.021 278.171L179.886 254.553C178.169 245.868 169.193 244.63 167.894 254.718L167.624 278.336L168.163 278.336L168.163 278.335Z" fill="black" fill-opacity="0.613208"/>
<path d="M73.0627 220.206C73.0627 221.241 72.6586 222.234 71.9394 222.966C71.2202 223.698 70.2447 224.109 69.2276 224.109C68.2105 224.109 67.2351 223.698 66.5159 222.966C65.7966 222.234 65.3926 221.241 65.3926 220.206C65.3926 219.171 65.7966 218.178 66.5159 217.446C67.2351 216.714 68.2105 216.303 69.2276 216.303C70.2447 216.303 71.2202 216.714 71.9394 217.446C72.6586 218.178 73.0627 219.171 73.0627 220.206V220.206Z" fill="black" fill-opacity="0.613208"/>
<path d="M125.11 219.496C125.11 220.532 124.705 221.524 123.986 222.256C123.267 222.988 122.292 223.4 121.274 223.4C120.257 223.4 119.282 222.988 118.563 222.256C117.844 221.524 117.439 220.532 117.439 219.496C117.439 218.461 117.844 217.468 118.563 216.736C119.282 216.004 120.257 215.593 121.274 215.593C122.292 215.593 123.267 216.004 123.986 216.736C124.705 217.468 125.11 218.461 125.11 219.496V219.496Z" fill="black" fill-opacity="0.613208"/>
<path d="M176.974 219.141C176.974 220.177 176.57 221.169 175.851 221.901C175.131 222.633 174.156 223.045 173.139 223.045C172.122 223.045 171.146 222.633 170.427 221.901C169.708 221.169 169.304 220.177 169.304 219.141C169.304 218.106 169.708 217.113 170.427 216.381C171.146 215.649 172.122 215.238 173.139 215.238C174.156 215.238 175.131 215.649 175.851 216.381C176.57 217.113 176.974 218.106 176.974 219.141V219.141Z" fill="black" fill-opacity="0.613208"/>
<path d="M49.2734 189.887L88.6588 190.012Z" fill="black"/>
<path d="M49.2734 189.887L88.6588 190.012" stroke="black" stroke-width="0.391"/>
<path d="M154.129 190.389L193.514 190.514Z" fill="black" fill-opacity="0.613208"/>
<path d="M88.2845 184.752L88.1553 279.079Z" fill="black"/>
<path d="M88.2845 184.752L88.1553 279.079" stroke="black" stroke-width="0.391"/>
<path d="M100.702 185.284L100.573 279.611Z" fill="black"/>
<path d="M100.702 185.284L100.573 279.611" stroke="black" stroke-width="0.391"/>
<path d="M141.792 185.107L141.663 279.434Z" fill="black"/>
<path d="M141.792 185.107L141.663 279.434" stroke="black" stroke-width="0.391"/>
<path d="M154.211 185.462L154.082 279.789Z" fill="black"/>
<path d="M154.211 185.462L154.082 279.789" stroke="black" stroke-width="0.391"/>
<path d="M200.539 278.178H41.8848V295.974H200.539V278.178Z" fill="#0F47AF"/>
</g>
<defs>
<clipPath id="clip0_1_7352">
<rect width="600" height="400" fill="white"/>
</clipPath>
</defs>
</svg>
