<svg width="600" height="400" viewBox="0 0 600 400" fill="none" xmlns="http://www.w3.org/2000/svg" xmlns:cgf="https://coding.garden/flags"><metadata id="cgf-metadata">

<cgf:flag>
  <cgf:name>Tubbergen</cgf:name>
  <cgf:route>nl/ov/tubbergen</cgf:route>
  <cgf:aspect-ratio>1.5</cgf:aspect-ratio>
</cgf:flag>

</metadata><g clip-path="url(#clip0_1_7409)">
<path d="M-0.00945919 -0.0878906L-0.860352 401.607H604.132V-0.0878906H-0.00945919V-0.0878906Z" fill="#0033CC"/>
<path d="M284.033 266.064C268.174 280.096 259.392 297.943 256.705 318.183C247.894 337.344 239.17 354.478 231.122 356.034C240.854 363.804 335.184 356.448 385.785 357.49L390.727 355.743L393.634 353.996C393.777 350.142 391.135 350.472 389.855 348.755C388.759 336.957 373.673 329.829 364.272 320.803C356.484 309.748 349.103 297.471 339.851 290.813C334.821 276.431 323.227 263.145 313.977 249.468C296.608 225.823 289.228 243.985 284.033 266.064V266.064Z" fill="#FFD500"/>
<path d="M313.686 262.133L312.523 267.229L307.436 273.343C307.436 273.343 310.633 272.178 311.215 271.887C311.796 271.596 315.866 267.374 315.866 267.374L315.721 263.007L313.395 261.405L313.686 262.133H313.686Z" fill="#0033CC"/>
<path d="M325.169 274.362L321.39 278.584L315.14 285.572L323.571 280.04L325.606 277.128L325.169 274.362V274.362Z" fill="#0033CC"/>
<path d="M328.949 281.35L323.426 286.008L316.739 291.977L323.717 289.357L329.531 284.116L328.949 281.35V281.35Z" fill="#0033CC"/>
<path d="M337.38 292.851L335.491 295.035L331.711 296.782L327.205 300.567L333.746 298.238L337.526 296.345V292.123L337.38 292.851H337.38Z" fill="#0033CC"/>
<path d="M343.485 299.257L336.653 300.421L331.711 303.333L329.53 306.536L333.746 306.099L336.362 303.624L341.159 302.168L343.485 299.257V299.257Z" fill="#0033CC"/>
<path d="M347.119 304.206L339.851 306.244L337.235 308.282L334.764 312.65L341.16 309.593L344.648 307.263L347.119 304.206V304.206Z" fill="#0033CC"/>
<path d="M349.299 310.612L344.066 311.34L341.159 313.815L338.397 315.562L335.926 317.018L341.159 315.999L345.229 314.106L348.717 312.942L351.334 313.233L349.299 310.612Z" fill="#0033CC"/>
<path d="M352.933 315.562L350.898 317.454L345.229 318.473L339.851 322.55L344.793 321.094L349.88 320.366L352.788 318.764L352.933 315.562H352.933Z" fill="#0033CC"/>
<path d="M342.322 336.963L345.375 341.622L346.828 346.28L349.3 348.464L347.991 344.824L346.392 339.875L342.322 336.963V336.963Z" fill="#0033CC"/>
<path d="M347.41 332.887L351.48 338.71L358.167 345.552L355.986 340.02L350.899 333.906L347.41 332.887V332.887Z" fill="#0033CC"/>
<path d="M356.422 332.449L360.347 339.292L367.905 347.444V345.115L369.359 344.678L365.725 340.456L362.091 335.652L356.422 332.449Z" fill="#0033CC"/>
<path d="M362.527 332.013L369.359 335.798L373.865 342.058L376.337 343.514L375.319 338.418L371.976 334.779L368.051 331.867L363.109 330.266L362.527 332.013V332.013Z" fill="#0033CC"/>
<path d="M379.389 346.571L379.243 350.793H382.732L380.987 348.464L379.389 346.571H379.389Z" fill="#0033CC"/>
<path d="M368.196 351.084L368.778 353.268L371.249 353.122V351.375L368.196 351.084V351.084Z" fill="#0033CC"/>
<path d="M357.657 350.574L358.239 352.758L360.71 352.612V350.865L357.657 350.574V350.574Z" fill="#0033CC"/>
<path d="M326.114 318.4L326.696 320.584L329.167 320.439V318.692L326.114 318.4V318.4Z" fill="#0033CC"/>
<path d="M323.935 311.85L324.516 314.033L326.987 313.888V312.141L323.935 311.85V311.85Z" fill="#0033CC"/>
<path d="M321.172 307.919L321.753 310.103L324.224 309.957V308.21L321.172 307.919V307.919Z" fill="#0033CC"/>
<path d="M319.428 302.532L320.009 304.716L322.48 304.57V302.823L319.428 302.532V302.532Z" fill="#0033CC"/>
<path d="M308.526 294.525L309.108 296.709L311.579 296.564V294.817L308.526 294.525V294.525Z" fill="#0033CC"/>
<path d="M306.346 288.119L306.927 290.303L309.398 290.157V288.41L306.346 288.119V288.119Z" fill="#0033CC"/>
<path d="M299.223 293.36L299.804 295.544L302.275 295.399V293.652L299.223 293.36V293.36Z" fill="#0033CC"/>
<path d="M300.24 278.802L300.822 280.986L303.293 280.84V279.093L300.24 278.802V278.802Z" fill="#0033CC"/>
<path d="M290.792 266.573L291.373 268.757L293.845 268.611V266.864L290.792 266.573V266.573Z" fill="#0033CC"/>
<path d="M119.338 74.734C103.478 88.7657 94.6965 106.613 92.0101 126.853C83.1982 146.014 74.4743 163.148 66.4268 164.704C76.1591 172.474 170.489 165.118 221.089 166.16L226.032 164.413L228.939 162.666C229.082 158.812 226.439 159.142 225.16 157.425C224.064 145.627 208.978 138.499 199.576 129.473C191.788 118.418 184.407 106.141 175.156 99.4831C170.125 85.1013 158.531 71.8151 149.282 58.1375C131.913 34.4933 124.532 52.6553 119.338 74.734Z" fill="#FFD500"/>
<path d="M148.991 70.8041L147.828 75.8995L142.74 82.014C142.74 82.014 145.938 80.8493 146.52 80.5581C147.101 80.267 151.171 76.0451 151.171 76.0451L151.026 71.6776L148.7 70.0762L148.991 70.8041H148.991Z" fill="#0033CC"/>
<path d="M160.474 83.0322L156.695 87.2541L150.444 94.2421L158.875 88.71L160.91 85.7983L160.474 83.0322Z" fill="#0033CC"/>
<path d="M164.254 90.0205L158.73 94.6792L152.044 100.648L159.021 98.0276L164.836 92.7866L164.254 90.0205Z" fill="#0033CC"/>
<path d="M172.685 101.522L170.795 103.706L167.016 105.453L162.51 109.238L169.051 106.908L172.83 105.016V100.794L172.685 101.522H172.685Z" fill="#0033CC"/>
<path d="M178.789 107.928L171.958 109.092L167.015 112.004L164.835 115.207L169.05 114.77L171.667 112.295L176.464 110.839L178.789 107.928V107.928Z" fill="#0033CC"/>
<path d="M182.424 112.877L175.156 114.915L172.539 116.953L170.068 121.321L176.464 118.264L179.953 115.934L182.424 112.877V112.877Z" fill="#0033CC"/>
<path d="M184.604 119.283L179.371 120.011L176.463 122.486L173.702 124.233L171.23 125.689L176.463 124.67L180.533 122.777L184.022 121.613L186.639 121.904L184.604 119.283V119.283Z" fill="#0033CC"/>
<path d="M188.238 124.232L186.203 126.125L180.534 127.144L175.155 131.22L180.098 129.765L185.185 129.037L188.092 127.435L188.238 124.232H188.238Z" fill="#0033CC"/>
<path d="M177.627 145.634L180.679 150.292L182.133 154.951L184.604 157.135L183.296 153.495L181.697 148.545L177.627 145.634V145.634Z" fill="#0033CC"/>
<path d="M182.715 141.557L186.785 147.38L193.471 154.222L191.291 148.69L186.203 142.576L182.715 141.557V141.557Z" fill="#0033CC"/>
<path d="M191.727 141.12L195.651 147.963L203.21 156.115V153.786L204.664 153.349L201.03 149.127L197.396 144.323L191.727 141.12Z" fill="#0033CC"/>
<path d="M197.832 140.684L204.664 144.469L209.17 150.729L211.641 152.185L210.624 147.089L207.28 143.45L203.356 140.538L198.413 138.937L197.832 140.684Z" fill="#0033CC"/>
<path d="M214.693 155.242L214.548 159.464H218.036L216.292 157.135L214.693 155.242H214.693Z" fill="#0033CC"/>
<path d="M203.501 159.755L204.082 161.939L206.554 161.793V160.046L203.501 159.755V159.755Z" fill="#0033CC"/>
<path d="M192.962 159.245L193.543 161.429L196.014 161.283V159.536L192.962 159.245V159.245Z" fill="#0033CC"/>
<path d="M161.419 127.071L162 129.255L164.471 129.109V127.362L161.419 127.071V127.071Z" fill="#0033CC"/>
<path d="M159.239 120.521L159.821 122.704L162.292 122.559V120.812L159.239 120.521V120.521Z" fill="#0033CC"/>
<path d="M156.477 116.59L157.058 118.774L159.529 118.628V116.881L156.477 116.59V116.59Z" fill="#0033CC"/>
<path d="M154.732 111.203L155.314 113.387L157.785 113.241V111.494L154.732 111.203V111.203Z" fill="#0033CC"/>
<path d="M143.831 103.196L144.412 105.38L146.884 105.234V103.487L143.831 103.196V103.196Z" fill="#0033CC"/>
<path d="M141.65 96.7901L142.232 98.9738L144.703 98.8282V97.0812L141.65 96.79V96.7901Z" fill="#0033CC"/>
<path d="M134.527 102.031L135.109 104.215L137.58 104.069V102.322L134.527 102.031V102.031Z" fill="#0033CC"/>
<path d="M135.545 87.4727L136.126 89.6565L138.597 89.5108V87.7638L135.545 87.4727V87.4727Z" fill="#0033CC"/>
<path d="M126.097 75.2442L126.678 77.4279L129.149 77.2823V75.5353L126.097 75.2441V75.2442Z" fill="#0033CC"/>
<path d="M421.685 74.734C405.826 88.7657 397.044 106.613 394.358 126.853C385.546 146.014 376.822 163.148 368.774 164.704C378.507 172.474 472.837 165.118 523.437 166.16L528.379 164.413L531.287 162.666C531.429 158.812 528.787 159.142 527.507 157.425C526.412 145.627 511.326 138.499 501.924 129.473C494.136 118.418 486.755 106.141 477.503 99.4831C472.473 85.1013 460.879 71.8151 451.629 58.1375C434.261 34.4933 426.88 52.6553 421.685 74.734V74.734Z" fill="#FFD500"/>
<path d="M451.339 70.8041L450.176 75.8995L445.089 82.014C445.089 82.014 448.287 80.8493 448.868 80.5581C449.45 80.267 453.52 76.0451 453.52 76.0451L453.374 71.6776L451.049 70.0762L451.339 70.8041H451.339Z" fill="#0033CC"/>
<path d="M462.823 83.0322L459.043 87.2541L452.793 94.2421L461.224 88.71L463.259 85.7983L462.823 83.0322V83.0322Z" fill="#0033CC"/>
<path d="M466.602 90.0205L461.078 94.6792L454.392 100.648L461.369 98.0276L467.183 92.7866L466.602 90.0205Z" fill="#0033CC"/>
<path d="M475.033 101.522L473.143 103.706L469.364 105.453L464.857 109.238L471.399 106.908L475.178 105.016V100.794L475.033 101.522V101.522Z" fill="#0033CC"/>
<path d="M481.138 107.928L474.306 109.092L469.364 112.004L467.184 115.207L471.399 114.77L474.015 112.295L478.812 110.839L481.138 107.928V107.928Z" fill="#0033CC"/>
<path d="M484.772 112.877L477.504 114.915L474.887 116.953L472.416 121.321L478.812 118.264L482.3 115.934L484.772 112.877V112.877Z" fill="#0033CC"/>
<path d="M486.952 119.283L481.719 120.011L478.812 122.486L476.05 124.233L473.579 125.689L478.812 124.67L482.882 122.777L486.371 121.613L488.987 121.904L486.952 119.283Z" fill="#0033CC"/>
<path d="M490.586 124.232L488.551 126.125L482.882 127.144L477.504 131.22L482.446 129.765L487.534 129.037L490.441 127.435L490.586 124.232V124.232Z" fill="#0033CC"/>
<path d="M479.975 145.634L483.027 150.292L484.481 154.951L486.952 157.135L485.644 153.495L484.045 148.545L479.975 145.634V145.634Z" fill="#0033CC"/>
<path d="M485.062 141.557L489.133 147.38L495.819 154.222L493.639 148.69L488.551 142.576L485.062 141.557Z" fill="#0033CC"/>
<path d="M494.075 141.12L498 147.963L505.559 156.115V153.786L507.012 153.349L503.378 149.127L499.744 144.323L494.075 141.12V141.12Z" fill="#0033CC"/>
<path d="M500.18 140.684L507.012 144.469L511.518 150.729L513.989 152.185L512.971 147.089L509.628 143.45L505.703 140.538L500.761 138.937L500.18 140.684V140.684Z" fill="#0033CC"/>
<path d="M517.042 155.242L516.896 159.464H520.385L518.641 157.135L517.042 155.242H517.042Z" fill="#0033CC"/>
<path d="M505.849 159.755L506.43 161.939L508.901 161.793V160.046L505.849 159.755V159.755Z" fill="#0033CC"/>
<path d="M495.311 159.245L495.892 161.429L498.363 161.283V159.536L495.311 159.245V159.245Z" fill="#0033CC"/>
<path d="M463.768 127.071L464.349 129.255L466.82 129.109V127.362L463.768 127.071V127.071Z" fill="#0033CC"/>
<path d="M461.587 120.521L462.168 122.704L464.639 122.559V120.812L461.587 120.521V120.521Z" fill="#0033CC"/>
<path d="M458.825 116.59L459.407 118.774L461.878 118.628V116.881L458.825 116.59V116.59Z" fill="#0033CC"/>
<path d="M457.081 111.203L457.662 113.387L460.134 113.241V111.494L457.081 111.203V111.203Z" fill="#0033CC"/>
<path d="M446.179 103.196L446.76 105.38L449.231 105.234V103.487L446.179 103.196V103.196Z" fill="#0033CC"/>
<path d="M443.998 96.7901L444.579 98.9738L447.051 98.8282V97.0812L443.998 96.79V96.7901Z" fill="#0033CC"/>
<path d="M436.876 102.031L437.457 104.215L439.929 104.069V102.322L436.876 102.031V102.031Z" fill="#0033CC"/>
<path d="M437.894 87.4727L438.475 89.6565L440.946 89.5108V87.7638L437.894 87.4727V87.4727Z" fill="#0033CC"/>
<path d="M428.445 75.2442L429.027 77.4279L431.498 77.2823V75.5353L428.445 75.2441V75.2442Z" fill="#0033CC"/>
</g>
<defs>
<clipPath id="clip0_1_7409">
<rect width="600" height="400" fill="white"/>
</clipPath>
</defs>
</svg>
