<svg width="600" height="400" viewBox="0 0 600 400" fill="none" xmlns="http://www.w3.org/2000/svg" xmlns:cgf="https://coding.garden/flags"><metadata id="cgf-metadata">

<cgf:flag>
  <cgf:name>Twenterand</cgf:name>
  <cgf:route>nl/ov/twenterand</cgf:route>
  <cgf:aspect-ratio>1.5</cgf:aspect-ratio>
</cgf:flag>

</metadata><g clip-path="url(#clip0_1_7486)">
<path d="M599.819 0H0V400H599.819V0Z" fill="white"/>
<path fill-rule="evenodd" clip-rule="evenodd" d="M0 145.248L83.5101 115.148L155.569 181.367L261.406 136.218L376.251 225.012L513.614 328.855L599.835 281.092L599.819 399.907L0.191647 400L0 145.248Z" fill="#CADC16"/>
<path fill-rule="evenodd" clip-rule="evenodd" d="M83.2715 115.313L185.02 76.0713L262.175 136.749L155.682 181.42L83.2715 115.313Z" fill="#01338D"/>
<path fill-rule="evenodd" clip-rule="evenodd" d="M375.99 224.794L505.174 163.719L599.959 223.165L600 281.011L513.545 329.266L375.99 224.794Z" fill="#01338D"/>
<path fill-rule="evenodd" clip-rule="evenodd" d="M50.4014 60.6275L80.4918 51.5977L92.5279 68.9049L66.9511 78.6872L50.4014 60.6275Z" fill="#01338D"/>
<path fill-rule="evenodd" clip-rule="evenodd" d="M252.007 77.9351L315.949 53.8555L369.359 86.9649L299.399 111.797L252.007 77.9351Z" fill="#01338D"/>
<path fill-rule="evenodd" clip-rule="evenodd" d="M445.338 108.035L472.419 95.9951L499.501 113.302L473.172 125.342L445.338 108.035Z" fill="#01338D"/>
</g>
<defs>
<clipPath id="clip0_1_7486">
<rect width="600" height="400" fill="white"/>
</clipPath>
</defs>
</svg>
