<svg width="600" height="400" viewBox="0 0 600 400" fill="none" xmlns="http://www.w3.org/2000/svg" xmlns:cgf="https://coding.garden/flags"><metadata id="cgf-metadata">

<cgf:flag>
  <cgf:name>Wierden</cgf:name>
  <cgf:route>nl/ov/wierden</cgf:route>
  <cgf:aspect-ratio>1.5</cgf:aspect-ratio>
</cgf:flag>

</metadata><g clip-path="url(#clip0_1_7495)">
<path d="M-1.62957 -2.31934L-2.48047 408.692H602.512V-2.31934H-1.62957V-2.31934Z" fill="#0033CC"/>
<path d="M-2.1204 -2.37695L-2.33984 159.212H153.688V-2.37695H-2.1204V-2.37695Z" fill="white"/>
<path d="M-2.1204 247.045L-2.33984 408.634H153.688V247.045H-2.1204V247.045Z" fill="white"/>
<path d="M241.563 -2.37695L241.055 159.212H602.652V-2.37695H241.563V-2.37695Z" fill="white"/>
<path d="M241.563 247.045L241.055 408.634H602.652V247.045H241.563V247.045Z" fill="white"/>
<path d="M78.9114 18.4247C78.7025 25.612 78.6858 32.7993 82.252 39.9866L78.9114 41.8454L77.9834 44.2618C76.5491 38.0193 73.9727 32.1928 68.7037 27.3469C65.7104 22.2571 66.8752 16.7887 67.5902 11.3613L65.1774 11.5472C64.0972 14.863 62.1339 21.7611 65.7342 28.0904L62.2079 30.1351C57.8018 24.4633 55.4714 18.4946 53.485 12.4766L50.8867 13.2201C51.8739 20.5766 55.1302 26.3422 59.6096 31.2503L56.2689 32.5515C50.4707 26.995 44.4169 21.6479 42.3494 13.0342L39.5655 14.5213C41.2402 21.0775 44.7484 26.0268 49.2164 30.1351C46.4656 29.2627 44.2587 29.0711 42.9062 29.9492C35.8497 25.4983 30.1095 20.2235 28.6155 12.2907L25.2748 12.6625C26.1517 19.7974 30.3483 25.6394 37.524 30.321C33.7844 29.1836 30.1136 28.1266 28.4299 29.3916C21.4111 24.211 17.7749 18.127 15.9951 11.5472L12.84 12.1048C13.3735 19.8615 18.087 25.5249 24.9036 30.1351C22.6635 32.2058 19.9536 33.7277 19.707 38.1279L9.10425 37.2369L8.8418 41.4429L19.8655 41.7057C21.217 43.9309 22.7705 46.1336 27.2146 48.0147C22.9768 50.8186 20.573 53.6226 18.0282 56.4266L21.1778 58.2667C23.2966 54.4109 26.5918 51.6154 32.2015 50.9063L42.9627 49.5919V53.535C36.6905 55.0045 30.6881 57.1497 25.1149 60.3697L30.1018 61.9469C34.4951 59.4109 38.7172 56.6691 44.8 56.1637L48.7371 58.0038C43.3053 59.7221 38.9806 62.1796 34.5637 64.5756L39.2882 66.1528C42.4763 64.0905 47.2403 62.9752 52.1492 61.9469L64.4852 64.5756C55.1871 65.6439 48.0071 68.5304 41.1255 71.6732L45.0625 74.039C50.2816 71.322 55.9511 68.8757 62.9104 67.2043L65.2726 70.8845C59.3523 71.3809 54.8747 73.6833 50.3119 75.8791L54.7739 78.7707C58.4628 76.6311 62.9 74.8662 68.6847 73.7761L75.2464 76.9306C70.2582 79.1853 65.2246 81.3831 61.5981 85.3425L64.4852 87.1826C67.552 83.2442 72.0206 80.7097 76.8213 78.5079L89.1573 81.9252C83.4293 83.9071 78.613 86.9541 74.984 91.3886L78.921 92.9658C83.1855 88.9551 88.1484 87.0428 93.0943 85.0796L103.856 86.6569L100.181 91.3886C94.9741 88.9583 91.0064 92.3203 86.7951 94.543L89.6822 96.646C92.7817 94.0902 97.9178 93.9139 103.068 93.7544L112.255 99.5376H122.491C128.676 116.045 128.631 129.635 129.84 144.226C130.079 146.894 136.388 149.397 138.239 142.123C137.71 124.021 138.802 104.92 129.578 92.1772C130.546 76.938 123.159 73.1104 116.717 67.993L100.181 49.5919C97.3835 42.9325 95.5579 36.2731 96.2439 29.6136H92.8319C92.0345 34.2577 92.4092 38.9018 93.3568 43.5459L85.7452 37.2369C81.3594 30.928 82.9121 24.6191 82.3331 18.3101L78.9114 18.4248V18.4247V18.4247Z" fill="black"/>
<path d="M61.729 44.7278C59.4058 41.9541 58.0182 37.0686 54.3799 34.213C51.2581 29.4756 43.4389 38.3296 47.8182 41.7048C51.8631 44.7391 55.5275 45.1062 59.2356 45.7793L61.729 44.7278V44.7278Z" fill="#FFFF00"/>
<path d="M61.8861 56.5033C59.1948 54.0862 57.1318 49.4461 53.1272 47.134C49.3682 42.886 42.8767 52.7578 47.6883 55.4793C52.1207 57.9107 55.8001 57.7555 59.566 57.8971L61.8861 56.5033Z" fill="#FFFF00"/>
<path d="M77.9966 45.805C75.6734 43.0313 74.2858 38.1457 70.6475 35.2901C67.5256 30.5527 59.7064 39.4068 64.0858 42.782C68.1307 45.8162 71.7951 46.1833 75.5032 46.8565L77.9966 45.805V45.805Z" fill="#FFFF00"/>
<path d="M77.0781 57.8904C75.2559 55.7934 74.1676 52.0997 71.3139 49.9407C68.8654 46.359 62.7325 53.0531 66.1674 55.6049C69.3399 57.8989 72.214 58.1765 75.1224 58.6854L77.0781 57.8904V57.8904Z" fill="#FFFF00"/>
<path d="M80.8843 72.3548C78.561 69.5811 77.1735 64.6955 73.5352 61.8399C70.4133 57.1025 62.5941 65.9566 66.9735 69.3318C71.0183 72.3661 74.6828 72.7331 78.3909 73.4063L80.8843 72.3548V72.3548Z" fill="#FFFF00"/>
<path d="M112.38 70.7565C110.799 67.9263 109.854 62.9415 107.377 60.0278C105.251 55.1941 99.9281 64.2281 102.91 67.672C105.663 70.7679 108.158 71.1425 110.683 71.8293L112.38 70.7565Z" fill="#FFFF00"/>
<path d="M108.577 79.5621C106.53 77.6892 104.134 73.8643 101.469 72.1785C98.3517 68.8152 98.072 77.757 101.257 79.7341C104.169 81.4905 105.941 81.0854 107.844 80.9283L108.577 79.5621V79.5621Z" fill="#FFFF00"/>
<path d="M117.592 94.7092C116.176 93.0519 115.33 90.1328 113.112 88.4265C111.209 85.5959 106.442 90.8862 109.112 92.9029C111.578 94.7159 113.811 94.9352 116.072 95.3374L117.592 94.7092V94.7092Z" fill="#FFFF00"/>
<path d="M87.5617 60.1762C86.0833 58.539 84.2117 55.3297 82.352 53.7942C80.056 50.896 80.6488 57.956 82.8683 59.7614C84.8929 61.3715 85.9978 61.1841 87.2083 61.203L87.5617 60.1762Z" fill="#FFFF00"/>
<path d="M91.3391 48.8114C89.9137 47.0334 89.0624 43.9015 86.8302 42.0709C84.9149 39.034 80.1176 44.7099 82.8044 46.8735C85.2861 48.8186 87.5343 49.0539 89.8093 49.4855L91.3391 48.8114V48.8114Z" fill="#FFFF00"/>
<path d="M100.503 58.271C99.0212 56.6524 98.136 53.8014 95.8151 52.135C93.8235 49.3705 88.8354 54.5373 91.6292 56.5069C94.2095 58.2775 96.5472 58.4917 98.9126 58.8845L100.503 58.271Z" fill="#FFFF00"/>
<path d="M92.3673 77.8653C91.2666 76.1066 90.6092 73.0088 88.8855 71.1981C87.4065 68.1943 83.702 73.8083 85.7768 75.9485C87.6931 77.8724 89.4292 78.1052 91.186 78.532L92.3673 77.8653Z" fill="#FFFF00"/>
<path d="M98.797 68.2705C97.6963 66.5118 97.0389 63.4141 95.3152 61.6034C93.8362 58.5995 90.1317 64.2136 92.2065 66.3537C94.1228 68.2777 95.8589 68.5104 97.6157 68.9373L98.797 68.2705V68.2705Z" fill="#FFFF00"/>
<path d="M44.0225 39.7401C40.0064 38.7267 35.5349 35.4367 30.2009 35.0869C24.1557 32.8852 22.3162 44.5979 28.6968 44.9673C34.5367 45.2394 38.2983 43.5055 42.2983 42.0018L44.0225 39.7401V39.7401Z" fill="#FFFF00"/>
<path d="M121.835 82.1876V78.2445L120.129 76.0101L117.241 75.4844L115.798 80.2161C130.686 99.0593 131.545 120.843 131.677 142.78L134.958 141.597C134.897 119.888 133.616 98.718 121.835 82.1876V82.1876Z" fill="#FFFF00"/>
<path d="M68.9472 308.258C58.7736 308.245 48.1538 310.352 53.724 324.556C45.9631 333.921 42.4316 346.571 39.5507 358.729C35.4425 366.28 30.8814 372.017 25.3774 373.976C16.9193 381.673 24.4345 385.869 28.2645 386.594C42.6567 388.727 57.9073 368.163 60.417 363.198C76.7132 327.047 94.8553 322.385 115.667 307.732C125.311 297.743 131.292 287.754 131.152 277.765C131.181 265.884 126.779 269.98 123.541 269.878C117.021 278.752 108.888 285.364 98.8687 289.331C88.203 294.254 78.2131 300.531 68.9472 308.258V308.258Z" fill="black"/>
<path d="M55.4025 322.24L66.2597 311.181C63.2466 311.861 59.4563 310.229 56.8872 313.132C53.6898 316.075 55.3917 319.297 55.4025 322.24Z" fill="#FFFF00" stroke="black"/>
<path d="M124.165 274.47C116.874 283.467 109.679 285.61 101.151 290.212C75.8007 302.122 52.3611 318.546 43.0021 351.963C41.6388 362.123 37.9745 367.798 31.7391 375.031C26.3225 371.394 21.9024 387.242 33.2519 384.881C36.0232 384.914 38.6767 383.002 41.9989 380.628C58.3845 368.921 63.7746 344.451 79.8079 329.862C94.3118 316.789 117.09 305.029 123.603 291.956C131.172 277.865 128.597 266.263 124.165 274.47V274.47Z" fill="#FFFF00"/>
<path d="M77.5809 315.921C69.3286 318.813 63.7477 323.872 60.6919 330.977C57.5868 338.573 64.6266 336.613 65.7029 335.624C69.2456 329.498 74.5192 324.912 80.272 320.754C82.6849 317.286 81.3479 315.922 77.5809 315.921Z" stroke="black"/>
</g>
<defs>
<clipPath id="clip0_1_7495">
<rect width="600" height="400" fill="white"/>
</clipPath>
</defs>
</svg>
