<svg width="600" height="400" viewBox="0 0 600 400" fill="none" xmlns="http://www.w3.org/2000/svg" xmlns:cgf="https://coding.garden/flags"><metadata id="cgf-metadata">

<cgf:flag>
  <cgf:name>Arnhem</cgf:name>
  <cgf:route>nl/ge/arnhem</cgf:route>
  <cgf:aspect-ratio>1.5</cgf:aspect-ratio>
</cgf:flag>

</metadata><g clip-path="url(#clip0_1_2327)">
<path d="M0 99.2704V198.81H34.7077C53.7231 198.81 70.1538 198.072 71.2615 197.335C72.1846 196.413 81.6 194.201 92.3077 192.174L111.692 188.671L101.538 187.381C96 186.828 86.2154 186.275 79.9385 186.091L68.3077 185.906V176.505V167.105L86.4 168.395C96.1846 169.132 105.969 170.054 108 170.607C110.4 171.16 111.138 170.975 109.846 169.685C108.923 168.763 99.3231 165.077 88.6154 161.759C77.9077 158.441 69.0462 155.492 68.8615 155.492C68.1231 155.123 72.3692 140.745 73.6615 139.455C74.4 138.717 83.0769 140.929 93.2308 144.432C103.2 147.934 111.877 150.883 112.431 150.883C112.985 150.883 105.231 145.353 95.4462 138.717L77.5385 126.552L82.5231 117.519C86.9538 109.777 88.0615 108.856 90.8308 110.883C108.923 123.602 140.123 144.985 143.631 146.828C146.031 148.303 148.615 148.856 149.169 148.118C151.569 145.722 150.462 109.593 147.877 103.141L145.292 97.0584L134.031 97.7957C127.754 98.3487 121.292 99.2704 119.631 100.192C116.677 101.298 116.308 100.192 116.308 89.3165C116.308 75.6759 118.338 73.464 129.969 73.464C134.769 73.464 136.615 72.5423 137.538 69.7773C139.015 64.8004 143.631 64.063 163.2 64.616L179.631 65.169L174.646 71.0676L169.662 76.9663L176.123 94.4778C179.815 104.063 182.769 113.28 182.769 114.939C182.769 121.759 185.908 116.413 191.262 100.561C194.4 91.1598 197.538 82.3119 198.277 80.6529C199.2 78.6252 197.723 75.3073 193.846 70.8833L187.938 64.2474H207.508C226.154 64.2474 227.262 64.4317 231.138 68.8557C233.908 71.9893 237.046 73.464 241.108 73.464C250.154 73.464 252.923 77.5193 252.923 90.2381C252.923 100.929 252.738 101.298 248.862 99.8234C246.462 99.0861 239.631 98.3487 233.538 98.3487H222.462L220.062 107.565C217.846 116.229 218.031 146.091 220.246 148.487C221.169 149.224 257.538 126.367 260.308 123.234C260.862 122.681 265.662 118.994 271.2 115.123C281.908 107.565 282.092 107.565 287.262 119.178C288.738 122.496 289.477 125.999 288.923 126.92C288.369 127.657 280.985 133.187 272.308 139.086C263.631 144.985 256.8 149.962 257.169 150.146C257.354 150.515 264.185 148.303 272.308 145.538C296.862 136.874 294.646 136.874 297.231 146.275C298.523 150.883 299.262 154.939 298.892 155.307C298.523 155.676 289.846 158.625 279.692 161.943C269.538 165.261 260.492 168.763 259.385 169.685C258.092 170.975 258.831 171.16 261.231 170.607C263.262 170.054 273.046 169.132 283.015 168.395L300.923 167.105V173.556C300.923 184.432 299.631 185.906 290.031 185.906C285.415 185.906 275.815 186.459 268.615 187.197L255.692 188.303L276.923 192.911L298.154 197.704L448.985 198.257L600 198.81V99.2704V-0.268762H300H0V99.2704Z" fill="#FEFEFF"/>
<path d="M146.4 73.8327C146.769 75.123 148.985 76.229 151.385 76.229C153.785 76.229 156 75.123 156.554 73.8327C156.923 72.358 155.262 71.6207 151.385 71.6207C147.508 71.6207 145.846 72.358 146.4 73.8327Z" fill="#FEFEFF"/>
<path d="M212.677 73.8328C213.969 77.5194 223.385 78.0724 223.385 74.5701C223.385 72.5425 221.538 71.6208 217.662 71.6208C213.969 71.6208 212.308 72.3581 212.677 73.8328Z" fill="#FEFEFF"/>
<path d="M122.4 76.4135C120.923 76.9665 120 81.0218 120 86.1831V94.8467L132.554 94.1094C144.738 93.372 147.692 91.8974 147.692 86.1831C147.692 80.1001 142.892 76.5978 133.662 76.0448C128.677 75.6762 123.508 75.8605 122.4 76.4135Z" fill="#FEFEFF"/>
<path d="M227.631 77.1509C223.015 78.9942 220.8 84.7085 222.462 90.0541C223.385 93.0034 225.231 93.7407 232.246 93.7407C237.046 93.7407 242.769 94.2937 245.169 94.8467C249.046 95.9527 249.231 95.3997 249.231 86.7361C249.231 80.1002 248.492 77.1509 246.277 76.4135C242.215 74.9389 232.431 75.3075 227.631 77.1509Z" fill="#FEFEFF"/>
<path d="M153.231 89.1319C153.231 93.7402 155.815 95.3992 157.661 92.0812C159.138 89.8693 157.108 84.5236 154.892 84.5236C153.969 84.5236 153.231 86.5513 153.231 89.1319Z" fill="#FEFEFF"/>
<path d="M211.569 87.4734C210.277 90.7914 211.569 93.7407 214.339 93.7407C215.262 93.7407 216 91.7131 216 89.1324C216 83.9711 213.231 82.8651 211.569 87.4734Z" fill="#FEFEFF"/>
<path d="M156.923 146.275C156.923 149.409 165.046 170.976 165.969 170.054C166.523 169.501 168.738 163.971 170.954 157.704L174.831 146.275L178.708 156.966C180.923 162.865 182.769 168.395 182.769 169.317C182.769 174.478 186.092 169.87 189.046 161.022C192.369 150.146 194.585 148.487 196.8 154.939C197.354 157.151 199.2 161.759 200.677 165.446L203.446 172.082L207.877 160.1C210.277 153.464 212.308 147.565 212.308 146.644C212.308 145.906 199.938 145.353 184.615 145.353C169.477 145.353 156.923 145.722 156.923 146.275Z" fill="#FEFEFF"/>
<path d="M139.385 156.413C143.446 158.994 145.108 159.363 146.215 157.704C148.8 153.648 147.692 152.727 140.862 152.727H133.846L139.385 156.413Z" fill="#FEFEFF"/>
<path d="M221.908 154.939C223.015 158.257 225.969 158.625 229.846 155.492C233.354 152.911 233.169 152.911 227.446 152.727C223.385 152.727 221.538 153.464 221.908 154.939Z" fill="#FEFEFF"/>
<path d="M132.923 166.551C132.923 166.92 135.323 168.579 138.277 170.054C143.077 172.634 143.815 172.634 144.738 170.054C146.4 165.63 146.4 165.63 139.385 165.63C135.877 165.63 132.923 165.998 132.923 166.551Z" fill="#FEFEFF"/>
<path d="M223.385 169.316C223.385 173.003 223.569 173.003 229.477 170.054C237.785 165.814 237.785 165.63 230.215 165.63C224.677 165.63 223.385 166.367 223.385 169.316Z" fill="#FEFEFF"/>
<path d="M147.692 174.294C147.692 175.215 149.354 180.192 151.385 185.538C153.415 190.883 155.077 196.045 155.077 196.966C155.077 198.072 139.385 198.81 112.431 198.81H69.9692L71.2615 202.865C74.5846 213.925 75.6923 215.584 79.0154 214.662C84.5539 213.003 117.046 206.183 119.077 206.367C120 206.367 112.062 210.976 100.985 216.505C79.0154 227.565 79.5692 226.644 89.1692 239.731L92.8615 244.708L111.508 235.307L130.154 226.091L115.569 240.837L101.169 255.399L107.446 260.376C110.954 262.957 114.646 265.169 115.569 265.169C116.308 265.169 121.292 260.929 126.462 255.952L135.877 246.552L134.031 260.929L132 275.307L117.6 275.86L103.385 276.413V284.524C103.385 293.188 105.046 294.847 108.923 290.054C110.215 288.579 114.092 287.289 117.785 287.289H124.431L119.262 292.635C115.385 296.69 114.277 299.455 114.831 304.063C115.569 311.068 120 313.833 120 307.197C120 304.247 121.846 301.667 125.354 299.639L130.892 296.321L131.446 307.012C132 317.519 132 317.704 138.092 318.257C144 318.81 146.031 316.045 142.338 311.989C140.677 310.33 142.708 289.87 144.738 287.842C145.292 287.289 147.877 288.211 150.277 289.87C156.923 294.109 157.292 293.741 156.554 284.893C156 277.888 155.446 277.151 150.831 276.598C146.954 276.045 145.846 275.123 146.585 272.911C147.138 271.252 149.723 261.114 152.492 250.423C155.262 239.731 157.846 230.699 158.215 230.33C159.508 228.671 169.662 239.916 171.877 245.261C173.538 249.317 173.538 251.713 171.877 255.399C170.4 258.717 170.215 260.745 171.692 262.404C173.169 264.247 172.8 266.828 169.846 272.542C163.015 285.999 155.446 308.303 153.046 322.865C151.754 330.607 151.015 337.243 151.569 337.611C151.938 337.98 154.892 338.902 158.031 339.455L163.938 340.561L165.046 328.948C165.785 322.681 168.369 313.28 170.954 308.303C173.354 303.326 175.015 300.929 174.462 302.957C173.169 307.381 170.031 330.791 169.846 336.505C169.846 340.008 170.769 340.745 175.2 340.745H180.554L182.031 321.759C183.692 300.929 185.908 303.879 186.277 327.289L186.462 340.745H192.923C198.462 340.745 199.385 340.192 199.385 336.505C199.2 330.238 196.246 309.04 194.769 304.8C194.215 302.773 194.954 303.51 196.615 306.275C200.862 313.648 204.923 327.658 204.923 335.031C204.923 339.823 205.477 340.929 207.877 340.008C209.538 339.455 212.492 338.902 214.338 338.902C217.662 338.902 218.031 337.98 216.923 330.238C214.708 314.017 210.277 297.98 203.077 281.39C196.985 267.565 196.246 264.247 198.092 261.298C199.754 258.533 199.569 257.243 197.169 254.847C194.215 251.897 194.215 251.344 197.538 245.077C200.862 238.625 209.908 228.671 211.015 230.33C211.385 230.699 213.969 239.731 216.738 250.423C219.508 261.114 222.277 271.252 222.646 272.911C223.385 275.492 222.462 276.229 218.031 276.229C212.492 276.229 212.308 276.413 212.308 284.524C212.308 289.132 212.677 292.819 213.231 292.819C213.785 292.819 216.369 291.529 218.954 289.87C221.354 288.211 223.938 287.289 224.492 287.842C225.231 288.395 225.785 295.584 225.969 303.694L226.154 318.625H231.323C236.123 318.625 236.308 318.441 236.308 307.565C236.308 301.482 236.862 296.505 237.415 296.505C240.738 296.505 249.231 304.616 249.231 307.934C249.231 314.017 253.846 310.515 254.4 304.063C254.954 299.455 253.846 296.69 249.969 292.635L244.8 287.289H251.446C255.138 287.289 259.015 288.579 260.308 290.054C264.185 294.847 265.846 293.188 265.846 284.524V276.229H251.262H236.677L235.569 267.381C234.831 262.588 233.723 255.768 233.169 252.266L232.246 245.814L242.215 255.399C247.569 260.745 252.738 265.169 253.477 265.169C254.4 265.169 257.908 262.957 261.415 260.192L267.877 255.399L253.477 240.653L239.077 226.091L257.908 235.492L276.554 244.708L279.508 240.284C281.169 237.704 283.754 233.648 285.415 231.252L288.369 226.644L268.246 216.505C257.354 210.976 249.231 206.367 250.154 206.367C251.262 206.367 261.231 208.211 272.308 210.607C283.569 213.003 293.169 214.478 293.908 213.925C294.462 213.188 295.938 209.501 296.862 205.63L298.708 198.81H256.431C233.169 198.81 214.154 198.072 214.154 197.335C214.154 196.413 215.815 190.883 217.846 184.985C219.877 179.086 221.538 173.925 221.538 173.556C221.538 173.372 204.923 173.003 184.615 173.003C164.308 173.003 147.692 173.556 147.692 174.294ZM170.954 188.303L174.831 199.731L179.077 187.381C181.662 180.561 184.062 175.4 184.615 175.768C185.354 176.137 187.385 181.482 189.231 187.75C191.077 193.833 193.108 198.81 193.846 198.81C194.585 198.81 196.615 193.833 198.462 187.75C200.308 181.482 202.338 176.137 203.077 175.768C203.631 175.4 206.031 180.561 208.246 187.381L212.492 199.731L208.062 212.635L203.631 225.538L199.754 214.847C197.538 208.948 195.692 203.418 195.692 202.496C195.692 201.39 194.954 200.653 194.215 200.653C193.292 200.653 191.077 205.63 189.231 211.713C187.385 217.98 185.169 223.326 184.615 223.694C183.877 224.063 181.846 219.455 180 213.372C176.862 203.418 173.538 197.519 173.538 202.312C173.538 203.418 171.692 208.948 169.662 214.662L165.6 225.353L161.169 212.635L156.554 200.1L160.8 187.565C163.2 180.561 165.6 175.4 166.154 175.952C166.708 176.505 168.738 182.035 170.954 188.303Z" fill="#FEFEFF"/>
<path d="M133.846 176.505L128.308 177.796L136.246 179.823C143.262 181.667 144 181.482 144 178.349C144 174.662 142.892 174.478 133.846 176.505Z" fill="#FEFEFF"/>
<path d="M225.231 178.164C225.231 181.482 225.969 181.667 232.615 180.008C241.292 177.796 241.292 177.611 232.246 175.952C226.154 174.846 225.231 175.215 225.231 178.164Z" fill="#FEFEFF"/>
<path d="M132.923 189.409C128.862 190.515 128.677 190.883 131.631 191.989C137.354 194.201 142.154 193.464 142.154 190.515C142.154 187.565 140.308 187.381 132.923 189.409Z" fill="#FEFEFF"/>
<path d="M227.077 190.33C227.077 193.464 231.323 194.017 237.231 191.436C239.631 190.33 240 189.777 238.154 189.777C236.677 189.593 233.538 189.04 231.323 188.487C228.185 187.566 227.077 188.119 227.077 190.33Z" fill="#FEFEFF"/>
<path d="M139.569 67.1964C137.908 68.6711 136.615 70.883 136.615 71.8047C136.615 72.7264 133.662 73.4637 129.969 73.4637C118.154 73.4637 116.308 75.6757 116.308 89.3162C116.308 100.192 116.677 101.298 119.631 100.192C121.292 99.2701 127.754 98.3485 134.031 97.7955L145.292 97.0582L147.877 103.141C150.462 109.593 151.569 145.722 149.169 148.118C148.615 148.855 146.031 148.302 143.631 146.828C140.123 144.984 108.923 123.602 90.8308 110.883C88.0615 108.855 86.9538 109.777 82.5231 117.519L77.5385 126.551L95.4462 138.717C105.231 145.353 112.985 150.883 112.431 150.883C111.877 150.883 103.2 147.934 93.2308 144.431C83.0769 140.929 74.4 138.717 73.6615 139.454C72.3692 140.745 68.1231 155.123 68.8615 155.491C69.0462 155.491 77.9077 158.441 88.6154 161.759C99.3231 165.077 108.923 168.763 109.846 169.685C111.138 170.975 110.4 171.16 108 170.607C105.969 170.054 96.1846 169.132 86.4 168.395L68.3077 167.104V176.505V185.906L79.9385 186.09C86.2154 186.275 96 186.828 101.538 187.381L111.692 188.671L92.3077 192.173C81.6 194.201 72.1846 196.413 71.0769 197.335C70.1538 198.072 53.7231 198.809 34.7077 198.809H0V299.27V399.731H300H600V299.27V198.809L449.169 198.256L298.154 197.703L276.923 192.911L255.692 188.302L268.615 187.196C275.815 186.459 285.415 185.906 290.031 185.906C299.631 185.906 300.923 184.431 300.923 173.556V167.104L283.015 168.395C273.046 169.132 263.262 170.054 261.231 170.607C258.831 171.16 258.092 170.975 259.385 169.685C260.492 168.763 269.538 165.261 279.692 161.943C289.846 158.625 298.523 155.676 298.892 155.307C299.262 154.938 298.523 150.883 297.231 146.275C294.646 136.874 296.862 136.874 272.308 145.537C264.185 148.302 257.354 150.514 257.169 150.146C256.8 149.961 263.631 144.984 272.308 139.086C280.985 133.187 288.369 127.657 288.923 126.92C289.477 125.998 288.738 122.496 287.262 119.178C282.092 107.565 281.908 107.565 271.2 115.123C265.662 118.994 260.862 122.68 260.308 123.233C257.538 126.367 221.169 149.224 220.246 148.487C218.031 146.09 217.846 116.229 220.062 107.565L222.462 98.3485H233.538C239.631 98.3485 246.462 99.0858 248.862 99.8231C252.738 101.298 252.923 100.929 252.923 90.2379C252.923 77.519 250.154 73.4637 241.108 73.4637C237.046 73.4637 233.908 71.989 231.138 68.8554C227.262 64.4314 226.154 64.2471 207.508 64.2471H187.938L193.846 70.883C197.723 75.307 199.2 78.625 198.277 80.6526C197.538 82.3116 194.4 91.1595 191.262 100.56C185.908 116.413 182.769 121.759 182.769 114.938C182.769 113.279 179.815 104.063 176.123 94.4775C169.662 76.966 169.662 76.7817 173.169 72.7264C180.738 64.4314 180.369 64.2471 160.8 64.2471C146.585 64.2471 141.785 64.9844 139.569 67.1964ZM156.554 73.8324C156 75.1227 153.785 76.2287 151.385 76.2287C148.985 76.2287 146.769 75.1227 146.4 73.8324C145.846 72.3577 147.508 71.6204 151.385 71.6204C155.262 71.6204 156.923 72.3577 156.554 73.8324ZM223.385 74.5697C223.385 76.5973 221.908 77.1503 218.4 76.7817C211.2 76.0443 210.646 71.6204 217.662 71.6204C221.538 71.6204 223.385 72.542 223.385 74.5697ZM145.292 80.0996C147.877 83.7863 148.431 88.0259 146.215 91.1595C145.477 92.2655 139.385 93.5559 132.554 94.1088L120 94.8462V86.1826C120 81.0213 120.923 76.966 122.4 76.413C127.2 74.201 142.708 76.5973 145.292 80.0996ZM246.277 76.413C248.492 77.1503 249.231 80.0996 249.231 86.7356C249.231 95.3992 249.046 95.9522 245.169 94.8462C242.769 94.2932 237.046 93.7402 232.246 93.7402C222.831 93.7402 220.062 90.4222 222.462 82.4959C224.308 76.5973 237.785 73.095 246.277 76.413ZM157.662 87.4729C158.954 90.7909 157.662 93.7402 154.892 93.7402C153.969 93.7402 153.231 91.7125 153.231 89.1319C153.231 83.9706 156 82.8646 157.662 87.4729ZM216 89.1319C216 93.7402 213.415 95.3992 211.569 92.0812C210.092 89.8692 212.123 84.5236 214.338 84.5236C215.262 84.5236 216 86.5512 216 89.1319ZM212.308 146.643C212.308 147.565 210.277 153.464 207.877 160.1L203.446 172.081L200.677 165.445C199.2 161.759 197.354 157.15 196.8 154.938C194.585 148.487 192.369 150.146 189.046 161.021C186.092 169.869 182.769 174.478 182.769 169.316C182.769 168.395 180.923 162.865 178.708 156.966L174.831 146.275L170.954 157.703C168.738 163.971 166.523 169.501 165.969 170.054C165.046 170.975 156.923 149.408 156.923 146.275C156.923 145.722 169.477 145.353 184.615 145.353C199.938 145.353 212.308 145.906 212.308 146.643ZM147.692 154.017C147.508 158.994 144.554 159.731 139.385 156.413L133.846 152.726H140.862C144.554 152.726 147.692 153.279 147.692 154.017ZM229.846 155.491C225.969 158.625 223.015 158.256 221.908 154.938C221.538 153.464 223.385 152.726 227.446 152.726C233.169 152.911 233.354 152.911 229.846 155.491ZM145.846 166.367C145.846 166.736 145.292 168.395 144.738 170.054C143.815 172.634 143.077 172.634 138.277 170.054C131.262 166.551 131.446 165.63 139.385 165.63C142.892 165.63 145.846 165.998 145.846 166.367ZM236.123 166.367C235.754 166.736 232.615 168.395 229.477 170.054C223.569 173.003 223.385 173.003 223.385 169.316C223.385 166.367 224.677 165.63 230.215 165.63C233.908 165.63 236.492 165.998 236.123 166.367ZM221.538 173.556C221.538 173.925 219.877 179.086 217.846 184.984C215.815 190.883 214.154 196.413 214.154 197.335C214.154 198.072 233.169 198.809 256.431 198.809H298.708L296.862 205.63C295.938 209.501 294.462 213.187 293.908 213.925C293.169 214.478 283.569 213.003 272.308 210.607C261.231 208.21 251.262 206.367 250.154 206.367C249.231 206.367 257.354 210.975 268.246 216.505L288.369 226.643L285.415 231.252C283.754 233.648 281.169 237.703 279.508 240.284L276.554 244.708L257.908 235.491L239.077 226.09L253.477 240.653L267.877 255.399L261.415 260.192C257.908 262.957 254.4 265.169 253.477 265.169C252.738 265.169 247.569 260.745 242.215 255.399L232.246 245.814L233.169 252.266C233.723 255.768 234.831 262.588 235.569 267.381L236.677 276.229H251.262H265.846V284.524C265.846 293.187 264.185 294.846 260.308 290.054C259.015 288.579 255.138 287.289 251.446 287.289H244.8L249.969 292.634C253.846 296.689 254.954 299.454 254.4 304.063C253.846 310.514 249.231 314.017 249.231 307.934C249.231 304.616 240.738 296.505 237.415 296.505C236.862 296.505 236.308 301.482 236.308 307.565C236.308 318.441 236.123 318.625 231.323 318.625H226.154L225.969 303.694C225.785 295.583 225.231 288.395 224.492 287.842C223.938 287.289 221.354 288.21 218.954 289.869C216.369 291.528 213.785 292.819 213.231 292.819C212.677 292.819 212.308 289.132 212.308 284.524C212.308 276.413 212.492 276.229 218.031 276.229C222.462 276.229 223.385 275.491 222.646 272.911C222.277 271.252 219.508 261.113 216.738 250.422C213.969 239.731 211.385 230.699 211.015 230.33C209.908 228.671 200.862 238.625 197.538 245.077C194.215 251.344 194.215 251.897 197.169 254.846C199.569 257.242 199.754 258.533 198.092 261.298C196.246 264.247 196.985 267.565 203.077 281.39C210.277 297.98 214.708 314.017 216.923 330.238C218.031 337.98 217.662 338.901 214.338 338.901C212.492 338.901 209.538 339.454 207.877 340.007C205.477 340.929 204.923 339.823 204.923 335.03C204.923 327.657 200.862 313.648 196.615 306.275C194.954 303.51 194.215 302.772 194.769 304.8C196.246 309.04 199.2 330.238 199.385 336.505C199.385 340.192 198.462 340.745 192.923 340.745H186.462L186.277 327.289C185.908 303.878 183.692 300.929 182.031 321.759L180.554 340.745H175.2C170.769 340.745 169.846 340.007 169.846 336.505C170.031 330.791 173.169 307.381 174.462 302.957C175.015 300.929 173.354 303.325 170.954 308.302C168.369 313.279 165.785 322.68 165.046 328.948L163.938 340.56L158.031 339.454C154.892 338.901 151.938 337.98 151.569 337.611C151.015 337.242 151.754 330.607 153.046 322.865C155.446 308.302 163.015 285.998 169.846 272.542C172.8 266.828 173.169 264.247 171.692 262.404C170.215 260.745 170.4 258.717 171.877 255.399C173.538 251.713 173.538 249.316 171.877 245.261C169.662 239.915 159.508 228.671 158.215 230.33C157.846 230.699 155.262 239.731 152.492 250.422C149.723 261.113 147.138 271.252 146.585 272.911C145.846 275.123 146.954 276.044 150.831 276.597C155.446 277.15 156 277.888 156.554 284.892C157.292 293.74 156.923 294.109 150.277 289.869C147.877 288.21 145.292 287.289 144.738 287.842C142.708 289.869 140.677 310.33 142.338 311.989C146.031 316.044 144 318.809 138.092 318.256C132 317.703 132 317.519 131.446 307.012L130.892 296.321L125.354 299.639C121.846 301.666 120 304.247 120 307.196C120 313.832 115.569 311.067 114.831 304.063C114.277 299.454 115.385 296.689 119.262 292.634L124.431 287.289H117.785C114.092 287.289 110.215 288.579 108.923 290.054C105.046 294.846 103.385 293.187 103.385 284.524V276.413L117.6 275.86L132 275.307L134.031 260.929L135.877 246.551L126.462 255.952C121.292 260.929 116.308 265.169 115.569 265.169C114.646 265.169 110.954 262.957 107.446 260.376L101.169 255.399L115.569 240.837L130.154 226.09L111.508 235.307L92.8615 244.708L89.1692 239.731C79.5692 226.643 79.0154 227.565 100.985 216.505C112.062 210.975 120 206.367 119.077 206.367C117.046 206.183 84.5538 213.003 79.0154 214.662C75.6923 215.583 74.5846 213.925 71.2615 202.865L69.9692 198.809H112.431C139.385 198.809 155.077 198.072 155.077 196.966C155.077 196.044 153.415 190.883 151.385 185.537C149.354 180.192 147.692 175.215 147.692 174.293C147.692 173.556 164.308 173.003 184.615 173.003C204.923 173.003 221.538 173.372 221.538 173.556ZM144 178.348C144 181.482 143.262 181.666 136.246 179.823L128.308 177.795L133.846 176.505C142.892 174.478 144 174.662 144 178.348ZM239.631 177.611C239.815 177.795 236.862 178.901 232.615 180.007C225.969 181.666 225.231 181.482 225.231 178.164C225.231 175.215 226.154 174.846 232.246 175.952C235.938 176.689 239.262 177.427 239.631 177.611ZM142.154 190.514C142.154 193.464 137.354 194.201 131.631 191.989C128.677 190.883 128.862 190.514 132.923 189.408C140.308 187.381 142.154 187.565 142.154 190.514ZM238.154 189.777C240 189.777 239.631 190.33 237.231 191.436C231.323 194.017 227.077 193.464 227.077 190.33C227.077 188.118 228.185 187.565 231.323 188.487C233.538 189.04 236.677 189.593 238.154 189.777Z" fill="#0103FF"/>
<path d="M160.8 187.565L156.554 200.1L161.169 212.634L165.6 225.353L169.662 214.662C171.692 208.948 173.538 203.418 173.538 202.312C173.538 197.519 176.862 203.418 180 213.372C181.846 219.455 183.877 224.063 184.615 223.694C185.169 223.326 187.385 217.98 189.231 211.713C191.077 205.63 193.292 200.653 194.215 200.653C194.954 200.653 195.692 201.39 195.692 202.496C195.692 203.418 197.538 208.948 199.754 214.846L203.631 225.538L208.062 212.634L212.492 199.731L208.246 187.381C206.031 180.561 203.631 175.399 203.077 175.768C202.338 176.137 200.308 181.482 198.462 187.75C196.615 193.833 194.585 198.809 193.846 198.809C193.108 198.809 191.077 193.833 189.231 187.75C187.385 181.482 185.354 176.137 184.615 175.768C184.062 175.399 181.662 180.561 179.077 187.381L174.831 199.731L170.954 188.303C168.738 182.035 166.708 176.505 166.154 175.952C165.6 175.399 163.2 180.561 160.8 187.565Z" fill="#0103FF"/>
</g>
<defs>
<clipPath id="clip0_1_2327">
<rect width="600" height="400" fill="white"/>
</clipPath>
</defs>
</svg>
