<svg width="600" height="400" viewBox="0 0 600 400" fill="none" xmlns="http://www.w3.org/2000/svg" xmlns:cgf="https://coding.garden/flags"><metadata id="cgf-metadata">

<cgf:flag>
  <cgf:name>Barneveld</cgf:name>
  <cgf:route>nl/ge/barneveld</cgf:route>
  <cgf:aspect-ratio>1.5</cgf:aspect-ratio>
</cgf:flag>

</metadata><g clip-path="url(#clip0_1_2349)">
<path d="M600 0H0V200H600V0Z" fill="#FCDD09"/>
<path d="M600 200H0V400H600V200Z" fill="#0F47AF"/>
<path d="M262.249 81.5914C261.375 81.5293 258.173 81.4342 255.134 81.379C248.954 81.2662 248.514 81.2072 247.606 80.3633C246.764 79.5791 246.435 78.7446 246.435 77.3902C246.435 76.4131 246.495 76.1192 246.863 75.3145C247.348 74.2548 248.034 73.4782 248.874 73.0366C249.946 72.4736 251.697 72.8484 252.742 73.8644L253.114 74.2258L253.809 73.7003C254.816 72.9387 255.59 71.9816 256.121 70.8414C256.939 69.0824 256.994 68.5253 256.997 61.9176V55.9776H253.693H250.389L250.027 55.5337C249.199 54.5207 248.881 53.2598 249.135 52.0005C249.302 51.1698 249.518 50.7335 250.071 50.1087L250.417 49.7174H253.72H257.023L256.956 44.2042C256.904 39.9098 256.839 38.4237 256.662 37.4816C256.172 34.8638 255.236 32.3736 254.344 31.3106L253.881 30.7596L252.993 31.3507C250.921 32.7298 249.059 32.6426 247.709 31.1031C246.868 30.1452 246.588 29.3468 246.578 27.878C246.567 26.7292 246.613 26.5102 246.984 25.7487C247.267 25.1678 247.61 24.7351 248.069 24.3778C249.366 23.3683 249.396 23.3642 256.859 23.2104C265.04 23.0418 264.525 23.0418 272.816 23.2105C280.356 23.364 280.376 23.3666 281.675 24.3778C282.134 24.7351 282.477 25.1678 282.76 25.7487C283.131 26.5095 283.174 26.7303 283.166 27.878C283.155 29.3628 282.893 30.1251 282.057 31.0781C281.277 31.9676 280.601 32.2796 279.448 32.2825C278.406 32.2825 277.377 31.902 276.432 31.1592C276.176 30.9587 275.929 30.7946 275.881 30.7946C275.834 30.7946 275.541 31.1494 275.23 31.5831C274.302 32.8763 273.561 34.9323 273.079 37.5528C272.892 38.5714 272.832 39.9462 272.783 44.2753L272.722 49.7174H276.413C280.721 49.7174 280.749 49.7286 281.394 51.0827C282.161 52.6965 281.742 54.8444 280.487 55.7351C280.186 55.9487 279.706 55.9776 276.446 55.9776H272.747V61.9176C272.747 68.5253 272.804 69.0824 273.622 70.8414C274.153 71.9816 274.927 72.9387 275.934 73.7003L276.629 74.2258L277.001 73.8644C278.046 72.8484 279.797 72.4736 280.869 73.0366C281.709 73.4782 282.395 74.2548 282.88 75.3145C283.248 76.1192 283.308 76.4131 283.308 77.3902C283.308 78.7435 282.979 79.579 282.139 80.3609C281.276 81.164 280.573 81.3019 277.313 81.3082C275.75 81.3082 272.917 81.3715 271.017 81.4426C269.117 81.5136 266.724 81.6011 265.698 81.6373C264.672 81.6734 263.118 81.6531 262.244 81.5911L262.249 81.5914Z" fill="#DA121A"/>
<path d="M251.3 81.6229C248.995 81.5484 248.764 81.5157 248.135 81.1833C246.598 80.3699 245.768 78.5732 246.076 76.7238C246.375 74.9257 247.394 73.3783 248.675 72.7752C249.807 72.2424 251.383 72.5119 252.565 73.4409C252.809 73.6325 253.065 73.7893 253.133 73.7893C253.379 73.7893 254.938 72.216 255.35 71.552C255.582 71.1784 255.947 70.3605 256.161 69.7345L256.55 68.5963L256.592 62.4429L256.635 56.2894H253.392H250.15L249.77 55.827C248.344 54.0905 248.316 51.6153 249.705 49.9864L250.154 49.4601H253.4H256.646L256.576 44.1603C256.503 38.6473 256.429 37.8206 255.797 35.435C255.47 34.1962 254.607 32.2655 254.092 31.6169L253.763 31.2024L252.93 31.7315C251.459 32.6667 250.336 32.8689 249.029 32.4342C248.04 32.1052 247.19 31.2895 246.642 30.1416C246.23 29.2803 246.188 29.0722 246.188 27.9058C246.188 26.7396 246.23 26.5311 246.641 25.6698C247.298 24.2956 248.428 23.4609 250.051 23.1519C251.187 22.9357 278.352 22.9357 279.488 23.1519C281.111 23.4609 282.241 24.2956 282.898 25.6698C283.31 26.5311 283.352 26.7396 283.352 27.9058C283.352 29.0722 283.31 29.2803 282.898 30.1416C281.645 32.7622 279.202 33.3797 276.609 31.7315L275.777 31.2024L275.448 31.6169C274.932 32.2655 274.07 34.1962 273.742 35.435C273.116 37.8017 273.04 38.6526 272.964 44.1603L272.891 49.4601H276.549C280.119 49.4601 280.216 49.4714 280.605 49.7769C281.451 50.4489 281.912 51.4393 281.941 52.6445C281.973 53.9541 281.683 54.8055 280.934 55.6057L280.294 56.2894H276.599H272.903L272.95 62.514L272.996 68.7386L273.429 69.9027C273.667 70.543 274.054 71.3532 274.287 71.7031C274.714 72.3421 276.188 73.7893 276.412 73.7893C276.478 73.7893 276.732 73.6325 276.976 73.4409C278.158 72.5119 279.733 72.2424 280.865 72.7752C282.126 73.3682 283.169 74.9475 283.461 76.7033C283.773 78.5758 282.947 80.3733 281.406 81.1789C280.772 81.5098 280.539 81.5399 277.895 81.6317C274.581 81.7468 254.924 81.7401 251.3 81.6204L251.3 81.6229ZM260.026 80.0139C260.872 79.0674 261.412 78.1836 262.289 76.3088C263.43 73.8681 264.035 71.8223 264.412 69.1316L264.725 66.889L264.828 67.8138C265.333 72.3883 267.622 78.198 269.726 80.2497L270.15 80.6633L275.094 80.5628C278.199 80.5008 280.241 80.4005 280.586 80.2953C281.791 79.9269 282.601 78.4426 282.404 76.9636C282.237 75.7137 281.389 74.3226 280.507 73.8528C279.587 73.3627 278.305 73.7074 277.19 74.7449L276.634 75.2619L276.194 75.0001C274.721 74.1231 273.504 72.7586 272.768 71.1568C271.885 69.2358 271.817 68.5869 271.817 62.057V56.2889H271.195H270.574V57.2849V58.2807H270.159H269.745V57.2849V56.2889H269.06H268.375L268.335 57.3204C268.295 58.328 268.285 58.353 267.915 58.397L267.535 58.4421V57.3581V56.2741L266.81 56.317L266.084 56.3599L266.044 57.3914C266.006 58.3806 265.99 58.4229 265.664 58.4229C265.334 58.4229 265.325 58.3947 265.325 57.3559V56.2888H264.772H264.22V57.3559C264.22 58.3942 264.208 58.4229 263.88 58.4229C263.555 58.4229 263.54 58.3812 263.501 57.3914L263.461 56.3599L262.735 56.317L262.01 56.2741V57.3581V58.4421L261.63 58.397C261.259 58.353 261.249 58.3282 261.21 57.3204L261.17 56.2889H260.485H259.8V57.2849V58.2807H259.386H258.971V57.2849V56.2889H258.35H257.728V62.057C257.728 66.6582 257.686 68.0472 257.517 68.9219C257.224 70.4432 256.278 72.3751 255.351 73.3452C254.649 74.0803 253.177 75.2117 252.924 75.2117C252.857 75.2117 252.652 75.0447 252.467 74.8408C251.866 74.1749 250.818 73.6494 250.088 73.6479C249.314 73.6468 248.848 73.8668 248.236 74.5238C246.627 76.2519 246.81 79.2358 248.582 80.1429C249.142 80.4298 251.064 80.5365 256.64 80.5906L259.489 80.6177L260.029 80.013L260.026 80.0139ZM280.307 54.6751C281.022 53.7096 281.013 51.9072 280.289 51.021L279.943 50.5983H265.335H250.726L250.443 50.9184C249.583 51.8906 249.54 53.5955 250.348 54.6857L250.692 55.1512H265.323H279.954L280.306 54.6751H280.307ZM258.968 48.3219V47.1837H259.383H259.797V48.3219V49.4601H260.488H261.179V48.3931V47.326H261.593H262.008V48.3931V49.4601H262.767H263.527V48.3931C263.527 47.3497 263.539 47.326 263.873 47.326C264.21 47.326 264.218 47.3497 264.218 48.3931V49.4601H264.771H265.323V48.3931C265.323 47.3497 265.335 47.326 265.669 47.326C266.007 47.326 266.014 47.3497 266.014 48.3931V49.4601H266.774H267.534V48.3931V47.326H267.948H268.363V48.3931V49.4601H269.054H269.744V48.3219V47.1837H270.159H270.573V48.3219V49.4601H271.181H271.789L271.852 44.1603C271.902 39.9221 271.963 38.5897 272.157 37.5089C272.746 34.2321 273.669 31.9425 274.978 30.5074L275.783 29.6261L276.353 30.1291C278.555 32.07 280.698 31.9381 281.841 29.791C282.185 29.1451 282.24 28.8888 282.242 27.9052C282.242 27.0088 282.182 26.6461 281.948 26.198C281.552 25.4382 281.011 24.9302 280.175 24.5338C279.504 24.2154 279.352 24.2048 274.803 24.1618L270.122 24.1178L269.712 24.5178C267.619 26.5573 265.374 32.2676 264.828 36.94C264.769 37.4488 264.705 37.7688 264.686 37.6514C264.668 37.5341 264.547 36.6377 264.419 35.6596C263.874 31.4869 261.79 26.4292 259.829 24.5178L259.419 24.1178L254.738 24.1618C250.189 24.2046 250.037 24.2159 249.366 24.5338C248.53 24.9302 247.989 25.4382 247.593 26.198C247.36 26.6461 247.297 27.0088 247.299 27.9052C247.299 28.8944 247.355 29.1435 247.709 29.8075C248.347 31.0069 249.361 31.627 250.471 31.4981C251.25 31.4078 252.374 30.8462 253.155 30.1577L253.758 29.6261L254.557 30.501C255.881 31.9525 256.79 34.2049 257.384 37.5089C257.578 38.5897 257.639 39.9221 257.689 44.1603L257.752 49.4601H258.36H258.968V48.3219H258.968Z" fill="black"/>
<path d="M330.913 81.1597C330.039 81.0977 326.837 81.0025 323.798 80.9474C317.618 80.8345 317.177 80.7756 316.27 79.9316C315.427 79.1475 315.098 78.313 315.098 76.9586C315.098 75.9814 315.159 75.6877 315.527 74.883C316.012 73.8231 316.698 73.0465 317.538 72.6051C318.61 72.042 320.361 72.4167 321.406 73.4328L321.777 73.7941L322.473 73.2686C323.48 72.507 324.254 71.5499 324.785 70.4097C325.603 68.6507 325.657 68.0937 325.66 61.486V55.546H322.357H319.053L318.69 55.102C317.863 54.089 317.544 52.8282 317.798 51.5688C317.966 50.7383 318.181 50.3019 318.734 49.677L319.08 49.2858H322.384H325.687L325.62 43.7726C325.568 39.4781 325.502 37.9921 325.326 37.05C324.835 34.4322 323.9 31.942 323.007 30.879L322.545 30.328L321.657 30.9191C319.585 32.2982 317.723 32.211 316.373 30.6715C315.532 29.7135 315.252 28.9151 315.242 27.4463C315.231 26.2976 315.276 26.0786 315.647 25.317C315.931 24.7361 316.273 24.3034 316.732 23.9462C318.029 22.9366 318.06 22.9326 325.523 22.7788C333.704 22.6102 333.189 22.6102 341.48 22.7789C349.019 22.9324 349.04 22.9351 350.339 23.9462C350.798 24.3034 351.14 24.7361 351.424 25.317C351.795 26.0778 351.837 26.2987 351.83 27.4463C351.819 28.9312 351.557 29.6934 350.721 30.6464C349.94 31.5361 349.265 31.848 348.111 31.8508C347.07 31.8508 346.041 31.4703 345.095 30.7275C344.84 30.527 344.592 30.3631 344.545 30.3631C344.497 30.3631 344.204 30.7179 343.893 31.1514C342.965 32.4446 342.225 34.5008 341.743 37.1212C341.556 38.1398 341.495 39.5146 341.447 43.8437L341.385 49.2858H345.077C349.385 49.2858 349.413 49.2971 350.058 50.6512C350.824 52.2649 350.406 54.4129 349.151 55.3035C348.85 55.5171 348.369 55.546 345.11 55.546H341.41V61.486C341.41 68.0937 341.467 68.6507 342.286 70.4097C342.816 71.5499 343.59 72.507 344.598 73.2686L345.293 73.7941L345.665 73.4328C346.71 72.4167 348.461 72.042 349.532 72.6051C350.373 73.0465 351.058 73.8231 351.543 74.883C351.911 75.6877 351.972 75.9814 351.972 76.9586C351.972 78.3118 351.643 79.1475 350.803 79.9293C349.94 80.7324 349.237 80.8704 345.977 80.8766C344.414 80.8766 341.581 80.9398 339.681 81.0109C337.781 81.082 335.388 81.1695 334.362 81.2057C333.336 81.2418 331.782 81.2215 330.908 81.1594L330.913 81.1597Z" fill="#DA121A"/>
<path d="M319.964 81.1918C317.659 81.1173 317.428 81.0846 316.799 80.7522C315.262 79.9387 314.432 78.1421 314.74 76.2926C315.039 74.4946 316.058 72.9472 317.339 72.3441C318.471 71.8113 320.046 72.0808 321.229 73.0097C321.473 73.2015 321.728 73.3582 321.797 73.3582C322.043 73.3582 323.602 71.7849 324.014 71.1209C324.246 70.7473 324.611 69.9294 324.825 69.3034L325.214 68.1651L325.256 62.0117L325.298 55.8582H322.056H318.814L318.434 55.3959C317.008 53.6594 316.98 51.1841 318.369 49.5553L318.818 49.029H322.064H325.31L325.24 43.7292C325.167 38.2163 325.093 37.3894 324.461 35.004C324.133 33.765 323.271 31.8344 322.756 31.1857L322.426 30.7713L321.594 31.3004C320.123 32.2355 319 32.4379 317.693 32.0031C316.704 31.6741 315.854 30.8583 315.306 29.7105C314.894 28.8491 314.851 28.641 314.851 27.4746C314.851 26.3085 314.894 26.1 315.305 25.2387C315.962 23.8644 317.092 23.0297 318.715 22.7208C319.851 22.5045 347.016 22.5045 348.152 22.7208C349.775 23.0297 350.905 23.8644 351.562 25.2387C351.974 26.1 352.016 26.3085 352.016 27.4746C352.016 28.641 351.974 28.8491 351.562 29.7105C350.309 32.3311 347.866 32.9487 345.273 31.3004L344.441 30.7713L344.112 31.1857C343.596 31.8344 342.734 33.765 342.406 35.004C341.78 37.3707 341.704 38.2216 341.628 43.7292L341.555 49.029H345.213C348.783 49.029 348.88 49.0402 349.269 49.3457C350.114 50.0178 350.576 51.0082 350.605 52.2134C350.637 53.5231 350.347 54.3744 349.598 55.1746L348.958 55.8582H345.263H341.567L341.613 62.0828L341.66 68.3074L342.093 69.4717C342.331 70.1119 342.717 70.9221 342.951 71.272C343.378 71.9111 344.852 73.3582 345.076 73.3582C345.142 73.3582 345.395 73.2015 345.639 73.0097C346.822 72.0808 348.397 71.8113 349.529 72.3441C350.789 72.9372 351.833 74.5165 352.125 76.2721C352.437 78.1447 351.611 79.9421 350.07 80.7477C349.436 81.0787 349.203 81.1087 346.559 81.2006C343.245 81.3157 323.588 81.3089 319.963 81.1893L319.964 81.1918ZM328.69 79.5828C329.536 78.6363 330.076 77.7524 330.953 75.8776C332.094 73.437 332.699 71.3912 333.076 68.7005L333.389 66.4579L333.492 67.3826C333.997 71.9571 336.286 77.7669 338.39 79.8185L338.814 80.2321L343.758 80.1317C346.863 80.0685 348.905 79.9694 349.249 79.8641C350.455 79.4958 351.265 78.0114 351.068 76.5325C350.901 75.2826 350.053 73.8914 349.171 73.4216C348.251 72.9315 346.969 73.2763 345.854 74.3138L345.298 74.8307L344.858 74.5689C343.385 73.692 342.168 72.3275 341.432 70.7257C340.549 68.8046 340.481 68.1558 340.481 61.626V55.8578H339.859H339.237V56.8538V57.8496H338.823H338.408V56.8538V55.8578H337.724H337.039L336.999 56.8893C336.959 57.8969 336.949 57.9218 336.579 57.9659L336.199 58.011V56.927V55.8431L335.473 55.886L334.748 55.9289L334.708 56.9603C334.67 57.9495 334.654 57.9918 334.328 57.9918C333.998 57.9918 333.989 57.9636 333.989 56.9247V55.8576H333.436H332.884V56.9247C332.884 57.963 332.872 57.9918 332.544 57.9918C332.219 57.9918 332.203 57.95 332.164 56.9603L332.125 55.9289L331.399 55.886L330.674 55.8431V56.927V58.011L330.294 57.9659C329.923 57.9218 329.913 57.897 329.873 56.8893L329.834 55.8578H329.149H328.464V56.8538V57.8496H328.05H327.635V56.8538V55.8578H327.013H326.392V61.626C326.392 66.2271 326.35 67.616 326.181 68.4908C325.888 70.0121 324.942 71.944 324.015 72.914C323.312 73.6491 321.841 74.7805 321.588 74.7805C321.521 74.7805 321.315 74.6137 321.131 74.4097C320.53 73.7438 319.482 73.2183 318.752 73.2168C317.978 73.2157 317.512 73.4356 316.9 74.0926C315.291 75.8207 315.474 78.8046 317.246 79.7118C317.806 79.9988 319.727 80.1055 325.303 80.1594L328.152 80.1866L328.693 79.5819L328.69 79.5828ZM348.971 54.2439C349.686 53.2784 349.677 51.476 348.952 50.5899L348.607 50.1671H333.999H319.39L319.107 50.4873C318.247 51.4595 318.204 53.1643 319.012 54.2545L319.356 54.72H333.987H348.618L348.97 54.2439H348.971ZM327.632 47.8908V46.7525H328.046H328.461V47.8908V49.029H329.152H329.842V47.9619V46.8948H330.257H330.671V47.9619V49.029H331.431H332.191V47.9619C332.191 46.9185 332.202 46.8948 332.537 46.8948C332.874 46.8948 332.882 46.9185 332.882 47.9619V49.029H333.435H333.987V47.9619C333.987 46.9185 333.999 46.8948 334.333 46.8948C334.67 46.8948 334.678 46.9185 334.678 47.9619V49.029H335.438H336.198V47.9619V46.8948H336.612H337.027V47.9619V49.029H337.717H338.408V47.8908V46.7525H338.823H339.237V47.8908V49.029H339.845H340.453L340.515 43.7292C340.565 39.491 340.627 38.1586 340.821 37.0777C341.41 33.8009 342.333 31.5115 343.642 30.0763L344.447 29.195L345.017 29.698C347.219 31.6389 349.362 31.507 350.505 29.3598C350.849 28.7139 350.904 28.4577 350.906 27.4741C350.906 26.5778 350.845 26.2151 350.612 25.7668C350.215 25.007 349.674 24.499 348.839 24.1027C348.168 23.7842 348.016 23.7736 343.467 23.7306L338.786 23.6866L338.376 24.0865C336.283 26.1261 334.038 31.8365 333.492 36.5089C333.433 37.0176 333.369 37.3376 333.35 37.2203C333.331 37.1029 333.21 36.2066 333.083 35.2284C332.538 31.0557 330.454 25.9979 328.493 24.0865L328.082 23.6866L323.402 23.7306C318.853 23.7735 318.701 23.7848 318.03 24.1027C317.194 24.499 316.653 25.007 316.257 25.7668C316.023 26.2151 315.961 26.5778 315.963 27.4741C315.963 28.4633 316.019 28.7124 316.372 29.3763C317.011 30.5758 318.024 31.1959 319.135 31.067C319.914 30.9767 321.038 30.4151 321.819 29.7266L322.422 29.195L323.22 30.07C324.545 31.5213 325.454 33.7737 326.048 37.0777C326.242 38.1586 326.303 39.491 326.353 43.7292L326.416 49.029H327.024H327.631V47.8908H327.632Z" fill="black"/>
<path d="M296.196 173.954C295.322 173.893 292.12 173.797 289.081 173.742C282.901 173.63 282.461 173.57 281.554 172.726C280.711 171.942 280.382 171.107 280.382 169.753C280.382 168.776 280.442 168.482 280.811 167.677C281.296 166.618 281.981 165.841 282.821 165.4C283.893 164.836 285.644 165.211 286.689 166.227L287.061 166.589L287.756 166.063C288.764 165.301 289.538 164.344 290.068 163.204C290.886 161.445 290.941 160.888 290.944 154.28V148.34H287.64H284.336L283.974 147.896C283.146 146.883 282.828 145.623 283.082 144.363C283.249 143.533 283.465 143.096 284.018 142.472L284.364 142.08H287.667H290.971L290.903 136.567C290.851 132.273 290.786 130.786 290.609 129.844C290.119 127.227 289.183 124.736 288.291 123.674L287.828 123.122L286.94 123.713C284.868 125.093 283.006 125.005 281.656 123.466C280.815 122.508 280.536 121.71 280.526 120.241C280.514 119.092 280.56 118.873 280.931 118.111C281.214 117.531 281.557 117.098 282.016 116.741C283.313 115.731 283.343 115.727 290.806 115.573C298.987 115.405 298.472 115.405 306.763 115.573C314.303 115.727 314.323 115.73 315.622 116.741C316.082 117.098 316.424 117.531 316.707 118.111C317.079 118.872 317.121 119.093 317.114 120.241C317.102 121.726 316.84 122.488 316.004 123.441C315.224 124.331 314.548 124.642 313.395 124.645C312.353 124.645 311.324 124.265 310.379 123.522C310.124 123.321 309.876 123.158 309.828 123.158C309.781 123.158 309.488 123.512 309.177 123.946C308.249 125.239 307.508 127.295 307.027 129.916C306.839 130.934 306.779 132.309 306.73 136.638L306.669 142.08H310.361C314.668 142.08 314.696 142.092 315.341 143.446C316.108 145.059 315.689 147.207 314.434 148.098C314.133 148.312 313.653 148.34 310.393 148.34H306.694V154.28C306.694 160.888 306.751 161.445 307.569 163.204C308.1 164.344 308.874 165.301 309.881 166.063L310.576 166.589L310.948 166.227C311.993 165.211 313.744 164.836 314.816 165.4C315.656 165.841 316.342 166.618 316.827 167.677C317.195 168.482 317.256 168.776 317.256 169.753C317.256 171.106 316.927 171.942 316.086 172.724C315.223 173.527 314.52 173.665 311.26 173.671C309.697 173.671 306.864 173.734 304.964 173.805C303.065 173.876 300.671 173.964 299.645 174C298.619 174.036 297.065 174.016 296.191 173.954L296.196 173.954Z" fill="#DA121A"/>
<path d="M285.248 173.986C282.942 173.912 282.711 173.879 282.082 173.547C280.545 172.733 279.716 170.937 280.023 169.087C280.322 167.289 281.341 165.742 282.623 165.138C283.755 164.606 285.33 164.875 286.512 165.804C286.756 165.996 287.012 166.153 287.08 166.153C287.326 166.153 288.885 164.579 289.297 163.915C289.529 163.542 289.894 162.724 290.108 162.098L290.498 160.96L290.54 154.806L290.582 148.653H287.339H284.097L283.717 148.19C282.291 146.454 282.263 143.979 283.652 142.35L284.101 141.823H287.347H290.594L290.523 136.524C290.45 131.011 290.376 130.184 289.745 127.798C289.417 126.56 288.554 124.629 288.039 123.98L287.71 123.566L286.877 124.095C285.406 125.03 284.283 125.232 282.976 124.797C281.987 124.469 281.138 123.653 280.589 122.505C280.177 121.644 280.135 121.435 280.135 120.269C280.135 119.103 280.177 118.894 280.589 118.033C281.245 116.659 282.376 115.824 283.998 115.515C285.134 115.299 312.3 115.299 313.436 115.515C315.058 115.824 316.189 116.659 316.845 118.033C317.257 118.894 317.299 119.103 317.299 120.269C317.299 121.435 317.257 121.644 316.845 122.505C315.592 125.126 313.15 125.743 310.557 124.095L309.724 123.566L309.395 123.98C308.88 124.629 308.017 126.56 307.689 127.798C307.063 130.165 306.987 131.016 306.911 136.524L306.839 141.823H310.496C314.066 141.823 314.163 141.835 314.552 142.14C315.398 142.812 315.859 143.803 315.888 145.008C315.92 146.318 315.63 147.169 314.881 147.969L314.242 148.653H310.546H306.85L306.897 154.877L306.943 161.102L307.377 162.266C307.615 162.906 308.001 163.717 308.235 164.066C308.662 164.705 310.135 166.153 310.359 166.153C310.425 166.153 310.679 165.996 310.923 165.804C312.105 164.875 313.68 164.606 314.813 165.138C316.073 165.732 317.117 167.311 317.409 169.067C317.72 170.939 316.895 172.737 315.353 173.542C314.72 173.873 314.487 173.903 311.842 173.995C308.528 174.11 288.871 174.103 285.247 173.984L285.248 173.986ZM293.973 172.377C294.819 171.431 295.359 170.547 296.236 168.672C297.377 166.231 297.983 164.186 298.359 161.495L298.673 159.252L298.775 160.177C299.281 164.752 301.569 170.561 303.673 172.613L304.098 173.027L309.041 172.926C312.146 172.863 314.189 172.764 314.533 172.659C315.738 172.29 316.548 170.806 316.351 169.327C316.185 168.077 315.337 166.686 314.455 166.216C313.534 165.726 312.252 166.071 311.137 167.108L310.581 167.625L310.142 167.363C308.668 166.486 307.451 165.122 306.715 163.52C305.832 161.599 305.764 160.95 305.764 154.42V148.652H305.143H304.521V149.648V150.644H304.106H303.692V149.648V148.652H303.007H302.322L302.283 149.684C302.243 150.691 302.233 150.716 301.862 150.76L301.482 150.805V149.721V148.638L300.757 148.68L300.031 148.723L299.992 149.755C299.953 150.744 299.937 150.786 299.612 150.786C299.282 150.786 299.272 150.758 299.272 149.719V148.652H298.72H298.167V149.719C298.167 150.757 298.156 150.786 297.828 150.786C297.502 150.786 297.487 150.744 297.448 149.755L297.407 148.723L296.682 148.68L295.956 148.638V149.721V150.805L295.576 150.76C295.205 150.716 295.195 150.691 295.156 149.684L295.115 148.652H294.43H293.745V149.648V150.644H293.331H292.917V149.648V148.652H292.295H291.673V154.42C291.673 159.022 291.631 160.41 291.462 161.285C291.169 162.807 290.223 164.738 289.296 165.709C288.594 166.444 287.123 167.575 286.869 167.575C286.802 167.575 286.597 167.408 286.413 167.204C285.811 166.538 284.763 166.013 284.033 166.011C283.259 166.01 282.794 166.23 282.182 166.887C280.572 168.615 280.756 171.599 282.527 172.506C283.087 172.793 285.009 172.9 290.585 172.954L293.434 172.981L293.974 172.376L293.973 172.377ZM314.254 147.038C314.969 146.073 314.96 144.27 314.236 143.384L313.89 142.962H299.282H284.674L284.391 143.282C283.531 144.254 283.487 145.959 284.295 147.049L284.64 147.514H299.27H313.901L314.254 147.038H314.254ZM292.915 140.685V139.547H293.33H293.744V140.685V141.823H294.435H295.126V140.756V139.689H295.54H295.955V140.756V141.823H296.715H297.474V140.756C297.474 139.713 297.486 139.689 297.82 139.689C298.158 139.689 298.165 139.713 298.165 140.756V141.823H298.718H299.271V140.756C299.271 139.713 299.282 139.689 299.616 139.689C299.954 139.689 299.961 139.713 299.961 140.756V141.823H300.721H301.481V140.756V139.689H301.896H302.31V140.756V141.823H303.001H303.692V140.685V139.547H304.106H304.521V140.685V141.823H305.128H305.736L305.799 136.524C305.849 132.285 305.91 130.953 306.105 129.872C306.693 126.595 307.616 124.306 308.926 122.871L309.73 121.989L310.301 122.492C312.503 124.433 314.645 124.301 315.788 122.154C316.132 121.508 316.187 121.252 316.189 120.268C316.189 119.372 316.129 119.009 315.895 118.561C315.499 117.801 314.958 117.293 314.122 116.897C313.451 116.579 313.299 116.568 308.751 116.525L304.07 116.481L303.659 116.881C301.566 118.921 299.322 124.631 298.776 129.303C298.717 129.812 298.652 130.132 298.633 130.015C298.614 129.897 298.494 129.001 298.366 128.023C297.821 123.85 295.737 118.792 293.776 116.881L293.366 116.481L288.685 116.525C284.136 116.568 283.984 116.578 283.313 116.897C282.478 117.293 281.937 117.801 281.54 118.561C281.307 119.009 281.244 119.372 281.246 120.268C281.246 121.258 281.302 121.507 281.656 122.171C282.294 123.37 283.308 123.99 284.419 123.861C285.197 123.771 286.321 123.209 287.102 122.521L287.705 121.989L288.504 122.864C289.828 124.316 290.737 126.568 291.331 129.872C291.525 130.953 291.586 132.285 291.637 136.524L291.699 141.823H292.307H292.915V140.685H292.915Z" fill="black"/>
</g>
<defs>
<clipPath id="clip0_1_2349">
<rect width="600" height="400" fill="white"/>
</clipPath>
</defs>
</svg>
