<svg width="600" height="400" viewBox="0 0 600 400" fill="none" xmlns="http://www.w3.org/2000/svg" xmlns:cgf="https://coding.garden/flags"><metadata id="cgf-metadata">

<cgf:flag>
  <cgf:name>Beuningen</cgf:name>
  <cgf:route>nl/ge/beuningen</cgf:route>
  <cgf:aspect-ratio>1.5</cgf:aspect-ratio>
</cgf:flag>

</metadata><g clip-path="url(#clip0_1_2552)">
<path d="M600 0H0V400H600V0Z" fill="white"/>
<path d="M417.674 214.494C414.158 214.231 411.586 213.186 410.162 211.443C408.818 209.798 408.812 209.755 408.596 199.908C408.415 191.657 408.306 190.299 407.808 190.123C407.734 190.097 407.167 190.029 406.547 189.974L405.421 189.872V189.137V188.402L411.159 188.391L416.898 188.379L416.829 189.131L416.762 189.883L415.754 189.954C413.801 190.09 413.937 189.548 413.851 197.554C413.772 204.877 413.975 207.76 414.654 208.945C415.764 210.883 418.856 211.855 422.199 211.316C424.784 210.9 426.486 209.538 427.037 207.445C427.386 206.12 427.613 195.392 427.352 192.597C427.173 190.685 427.121 190.511 426.661 190.292C426.386 190.162 425.772 190.017 425.289 189.969C424.808 189.921 424.315 189.827 424.195 189.759C423.936 189.614 423.9 188.584 424.151 188.463C424.254 188.413 425.979 188.377 428.409 188.373L432.493 188.368L432.425 189.124C432.36 189.846 432.331 189.883 431.788 189.929C431.068 189.989 430.387 190.309 430.077 190.733C429.93 190.935 429.761 194.255 429.64 199.36C429.439 207.754 429.367 208.413 428.457 210.136C427.342 212.247 424.995 213.795 422.123 214.315C421.002 214.518 419.054 214.595 417.673 214.492L417.674 214.494ZM525.577 214.503C521.517 214.03 518.41 212.539 516.12 209.966C513.894 207.464 513.195 205.39 513.181 201.248C513.167 197.975 513.351 197.037 514.389 194.962C516.178 191.384 520.091 188.826 524.793 188.161C526.716 187.889 530.284 187.888 532.228 188.16C534.721 188.507 537.851 189.354 538.345 189.814C538.47 189.932 538.465 190.379 538.331 190.915C538.206 191.412 538.045 192.611 537.97 193.579C537.803 195.737 537.804 195.735 536.969 195.701L536.328 195.675L536.18 194.124C536.013 192.377 535.785 192.061 534.059 191.188C531.075 189.679 526.521 189.646 523.646 191.111C521.333 192.291 519.707 194.503 518.967 197.477C518.66 198.714 518.658 202.753 518.967 204.057C520.202 209.309 523.966 212.496 528.914 212.48C529.834 212.475 531.378 212.185 532.41 211.818L533.376 211.476V208.602C533.376 205.288 533.464 205.429 531.307 205.265C530.56 205.208 529.817 205.125 529.654 205.081C529.462 205.029 529.359 204.77 529.359 204.34V203.68H534.769C540.818 203.68 540.465 203.641 540.465 204.309C540.465 204.574 540.306 204.74 539.881 204.919C538.736 205.402 538.723 205.448 538.707 209.031L538.692 212.413L537.392 212.827C535.406 213.46 533.374 213.96 531.589 214.257C530.263 214.477 529.628 214.529 528.07 214.549C527.024 214.562 525.903 214.542 525.578 214.504L525.577 214.503ZM167.829 214.126L166.296 213.864L164.573 211.894C162.21 209.194 156.671 202.643 152.948 198.147C151.249 196.095 149.814 194.379 149.759 194.333C149.704 194.287 149.68 198.193 149.705 203.012C149.756 212.888 149.605 212.133 151.562 212.279L152.586 212.355L152.653 213.11L152.721 213.864L148.519 213.852L144.316 213.841L144.245 213.266C144.164 212.609 144.316 212.311 144.734 212.311C144.894 212.311 145.421 212.271 145.905 212.224C146.659 212.149 146.827 212.087 147.084 211.784C147.32 211.507 147.383 209.216 147.379 201.079C147.371 189.318 147.502 190.113 145.551 189.979C144.228 189.888 144.141 189.821 144.245 188.974L144.316 188.398L148.092 188.398L151.867 188.398L153.47 190.443C156.979 194.92 164.027 203.285 166.776 206.234L167.323 206.821L167.279 198.69C167.231 189.52 167.358 190.127 165.462 189.965L164.401 189.875L164.333 189.127L164.266 188.38L168.468 188.388L172.67 188.397L172.742 188.972C172.845 189.81 172.742 189.897 171.578 189.953C170.042 190.026 169.89 190.129 169.673 191.246C169.568 191.789 169.501 197.203 169.525 203.276C169.548 209.349 169.525 214.333 169.464 214.351C169.408 214.37 168.672 214.266 167.829 214.122L167.829 214.126ZM504.769 214.135L503.22 213.888L501.371 211.78C498.886 208.945 494.138 203.334 490.121 198.482C488.308 196.292 486.717 194.425 486.587 194.332C486.266 194.105 486.463 211.307 486.787 211.753C487.077 212.153 487.027 212.138 488.4 212.262L489.542 212.365V213.103V213.841L485.34 213.853L481.137 213.864L481.204 213.11L481.271 212.356L482.295 212.28C484.268 212.132 484.107 213.123 484.107 201.123C484.107 189.102 484.269 190.096 482.28 189.957L481.271 189.886L481.204 189.134L481.137 188.382H484.937H488.736L489.072 188.801C489.257 189.032 490.162 190.182 491.083 191.358C494.905 196.236 503.752 206.614 504.23 206.78C504.299 206.804 504.313 203.183 504.263 198.734C504.158 189.515 504.282 190.076 502.318 189.971C501.039 189.903 500.943 189.828 501.049 188.977L501.12 188.401L505.322 188.393L509.525 188.384L509.458 189.136L509.389 189.888L508.381 189.958C506.387 190.098 506.56 188.948 506.503 202.411C506.475 208.977 506.422 214.357 506.384 214.367C506.348 214.375 505.62 214.273 504.767 214.138L504.769 214.135ZM458.605 214.113C457.965 214.005 457.364 213.866 457.269 213.806C456.84 213.531 449.562 205.015 443.708 197.937C442.068 195.954 440.683 194.295 440.63 194.249C440.577 194.202 440.555 198.107 440.582 202.924C440.635 212.834 440.494 212.129 442.462 212.264L443.582 212.341L443.583 213.102V213.863H439.507C437.062 213.863 435.361 213.83 435.257 213.78C435.047 213.678 435.018 212.632 435.22 212.445C435.3 212.372 435.549 212.313 435.776 212.313C436.002 212.313 436.517 212.272 436.92 212.222C438.321 212.049 438.267 212.496 438.267 201.038C438.267 189.2 438.419 190.117 436.428 189.98C435.107 189.89 435.019 189.822 435.124 188.974L435.195 188.396L439.015 188.389L442.834 188.382L443.358 189.094C444.291 190.364 449.631 196.953 451.612 199.279C454.106 202.207 458.019 206.645 458.15 206.694C458.206 206.715 458.221 203.073 458.183 198.601C458.107 189.421 458.255 190.094 456.288 189.956L455.28 189.886L455.213 189.134L455.146 188.382L459.348 188.391L463.551 188.399L463.622 188.975C463.726 189.826 463.636 189.901 462.352 189.969C460.323 190.077 460.479 189.034 460.479 202.483C460.479 212.955 460.438 214.323 460.125 214.317C459.93 214.313 459.246 214.221 458.606 214.113L458.605 214.113ZM590.155 214.13C589.479 214.026 588.861 213.918 588.782 213.89C588.468 213.779 579.536 203.337 574.104 196.731L572.009 194.183L571.948 201.97C571.914 206.252 571.974 210.261 572.083 210.878C572.302 212.127 572.389 212.189 574.05 212.283C574.673 212.318 574.96 212.383 575.057 212.511C575.251 212.768 575.223 213.681 575.018 213.78C574.913 213.83 573.212 213.864 570.768 213.864H566.692L566.692 213.099L566.692 212.335L567.584 212.284C569.251 212.189 569.346 212.125 569.577 210.921C569.692 210.327 569.754 205.502 569.716 200.201C569.637 189.349 569.777 190.13 567.872 189.967L566.81 189.877L566.744 189.129L566.676 188.381H570.444H574.212L574.721 189.052C577.354 192.518 583.447 199.852 587.514 204.452L589.495 206.692L589.565 199.087C589.634 191.765 589.579 190.431 589.151 190.19C589.045 190.129 588.44 190.032 587.808 189.975L586.659 189.872L586.592 189.127L586.526 188.381L590.728 188.39L594.93 188.399V189.139V189.879L593.749 189.968C591.708 190.122 591.86 189.106 591.867 202.524C591.881 210.584 591.798 214.322 591.63 214.319C591.496 214.318 590.833 214.231 590.156 214.127L590.155 214.13ZM76.2826 214.143C76.2303 214.082 75.2647 212.052 74.1375 209.631C71.8271 204.67 66.5014 193.707 66.3396 193.579C66.281 193.533 66.2656 197.569 66.3043 202.548C66.3585 209.52 66.4425 211.662 66.6689 211.868C66.9587 212.13 67.8564 212.314 68.8497 212.314C69.4113 212.314 69.5695 212.553 69.4809 213.269L69.4097 213.843L65.2074 213.855L61.005 213.866L61.0727 213.112L61.1394 212.358L62.1628 212.281C64.1358 212.134 63.975 213.124 63.975 201.125C63.975 189.104 64.1374 190.098 62.1479 189.958L61.1394 189.888L61.0717 189.136L61.0049 188.384L65.442 188.397L69.8792 188.41L71.1032 191.121C72.3962 193.985 78.4758 206.548 78.5878 206.588C78.7504 206.645 86.2585 191.049 87.0087 189.096L87.2822 188.383H91.5275H95.7728L95.7051 189.128L95.6385 189.874L94.4894 189.977C93.8573 190.034 93.2519 190.131 93.1439 190.193C92.7078 190.443 92.6612 191.732 92.7306 201.603C92.7991 211.327 92.8259 211.898 93.2228 212.039C93.4537 212.122 94.0917 212.229 94.6406 212.277L95.6385 212.365V213.099V213.834L89.9002 213.85L84.1619 213.866L84.2296 213.112L84.2962 212.358L85.3197 212.282C87.2783 212.135 87.126 212.905 87.1776 202.889C87.2029 198 87.1776 194.038 87.1298 194.084C86.9415 194.252 82.625 203.118 80.0693 208.585C77.5263 214.026 77.4273 214.202 76.9113 214.228C76.6183 214.243 76.3355 214.206 76.2828 214.145L76.2826 214.143ZM356.862 213.418C356.862 212.92 356.997 212.726 357.749 212.133L358.635 211.434L358.7 197.184C358.763 183.34 358.692 181.617 358.046 181.342C357.907 181.282 357.293 181.189 356.682 181.134C356.07 181.08 355.49 180.991 355.393 180.936C355.164 180.809 355.161 179.107 355.393 178.984C355.511 178.921 355.98 178.912 356.866 178.957C359.005 179.066 363.636 179.043 366.908 178.906C368.598 178.835 370.406 178.802 370.925 178.833C374.517 179.044 376.659 180.194 377.835 182.543C378.158 183.188 378.24 183.864 378.24 185.867C378.24 188.086 378.18 188.501 377.726 189.388C376.598 191.595 375.079 192.916 372.639 193.812L371.147 194.36L372.386 194.542C376.59 195.16 378.872 197.369 379.274 201.207C379.757 205.821 378.25 209.474 374.808 212.032C374.073 212.579 373.436 212.905 372.369 213.282C370.406 213.975 369.754 214.034 365.07 213.945C361.311 213.872 359.243 213.876 357.752 213.958L356.866 214.006V213.419L356.862 213.418ZM368.61 211.227C371.282 210.649 372.78 208.362 373.087 204.392C373.428 199.967 371.82 196.987 368.687 196.24C368.002 196.077 367.62 196.049 366.324 196.069L364.778 196.094L364.705 201.962C364.665 205.189 364.705 208.596 364.791 209.533C364.943 211.168 364.97 211.239 365.455 211.309C366.346 211.436 367.818 211.398 368.61 211.227H368.61ZM368.677 193.131C370.026 192.778 371.027 191.829 371.674 190.29C372.265 188.883 372.275 184.944 371.69 183.84C370.939 182.424 369.709 181.641 368.052 181.527C367.409 181.482 365.18 181.59 364.934 181.677C364.87 181.699 364.768 184.337 364.707 187.538L364.596 193.359L365.632 193.385C366.907 193.418 367.901 193.335 368.677 193.131L368.677 193.131ZM39.3824 213.829C39.3273 213.81 39.2819 213.641 39.2813 213.452C39.2806 213.222 39.5713 212.906 40.1674 212.489L41.0546 211.868V201.257C41.0546 189.189 41.2024 190.079 39.1812 189.971C37.9042 189.903 37.8059 189.827 37.9117 188.988L37.9829 188.424L47.4978 188.392C52.731 188.374 57.0435 188.385 57.0812 188.413C57.166 188.478 56.8018 192.313 56.621 193.265C56.4955 193.925 56.4641 193.956 55.9246 193.956C55.186 193.956 55.1362 193.861 55.0592 192.303C54.9834 190.772 54.9559 190.755 52.2699 190.553C50.3913 190.411 47.2022 190.443 46.7365 190.608C46.573 190.666 46.4624 192.192 46.4093 195.122L46.3291 199.549L46.8818 199.601C47.7453 199.684 51.7086 199.665 52.3686 199.576C53.0869 199.479 53.1738 199.335 53.4068 197.854L53.5782 196.764H54.1689H54.7596L54.8209 200.767L54.8822 204.769H54.1711C53.7697 204.769 53.4517 204.724 53.4411 204.665C53.432 204.607 53.3494 204.004 53.2603 203.324C53.1053 202.141 53.0721 202.079 52.4838 201.87C51.7851 201.622 49.8659 201.502 47.6521 201.567L46.371 201.605V206.677V211.75L49.8564 211.703C53.4187 211.655 54.8376 211.555 55.4682 211.308C55.8769 211.147 56.187 210.362 56.4115 208.919C56.6093 207.647 56.6446 207.603 57.4381 207.635L58.0676 207.661L57.9754 208.625C57.9249 209.155 57.8183 210.551 57.7391 211.727L57.5952 213.864H48.5388C43.5577 213.864 39.4374 213.848 39.3823 213.829L39.3824 213.829ZM99.6208 213.676C99.4335 213.413 99.6676 213.113 100.55 212.486L101.31 211.945V201.208C101.31 189.092 101.473 190.096 99.4827 189.956L98.4743 189.886L98.4075 189.134L98.3409 188.382H107.859H117.378L117.29 189.597C117.241 190.266 117.135 191.511 117.053 192.364L116.905 193.914L116.292 193.94L115.679 193.965L115.514 192.523C115.423 191.73 115.244 191.013 115.117 190.928C114.725 190.668 112.457 190.481 109.754 190.485C108.421 190.486 107.227 190.524 107.102 190.569C106.966 190.617 106.809 192.441 106.712 195.104L106.55 199.558L107.638 199.616C108.236 199.648 109.632 199.661 110.74 199.644C113.518 199.603 113.506 199.609 113.637 198.219C113.771 196.788 113.811 196.722 114.547 196.722C114.869 196.722 115.138 196.76 115.145 196.806C115.153 196.852 115.158 198.625 115.158 200.746C115.158 202.867 115.15 204.64 115.145 204.686C115.137 204.732 114.83 204.77 114.46 204.77H113.786L113.653 203.479C113.579 202.749 113.401 202.108 113.244 202.005C112.802 201.712 111.5 201.571 109.206 201.568C108.068 201.567 107.022 201.591 106.882 201.622C106.591 201.686 106.523 207.523 106.782 210.155L106.937 211.727L109.322 211.727C113.578 211.725 115.882 211.513 116.178 211.094C116.303 210.917 117 208.124 117.018 207.725C117.018 207.664 117.33 207.62 117.759 207.62H118.494L118.353 208.856C118.275 209.536 118.145 210.947 118.064 211.991L117.917 213.89L108.836 213.877L99.7548 213.864L99.6205 213.675L99.6208 213.676ZM122.459 213.475C122.458 213.199 122.713 212.895 123.33 212.434L124.201 211.783L124.209 201.592C124.217 192.021 124.141 190.471 123.654 190.192C123.546 190.13 122.94 190.033 122.308 189.976L121.159 189.873L121.093 189.127L121.026 188.382L130.637 188.37L140.248 188.359L140.095 189.795C140.011 190.584 139.874 191.846 139.791 192.597L139.639 193.964L139.024 193.938L138.409 193.913L138.27 192.454C138.114 190.808 138.101 190.797 136.082 190.585C134.645 190.434 130.051 190.45 129.771 190.606C129.647 190.676 129.553 192.617 129.551 195.146V199.563L130.366 199.618C130.814 199.648 132.139 199.659 133.311 199.642C136.273 199.602 136.233 199.621 136.428 198.097C136.514 197.425 136.692 196.837 136.823 196.79C136.955 196.744 137.26 196.719 137.501 196.735C137.921 196.764 137.94 196.935 137.94 200.746V204.726H137.231H136.522L136.399 203.469C136.321 202.664 136.165 202.141 135.966 202.016C135.415 201.667 133.798 201.531 130.674 201.569L129.551 201.584V206.655V211.726L131.973 211.726C135.951 211.725 138.48 211.519 138.877 211.164C138.969 211.081 139.2 210.297 139.391 209.421C139.582 208.545 139.782 207.781 139.836 207.724C139.89 207.666 140.202 207.619 140.53 207.619H141.126L140.995 210.574C140.923 212.199 140.818 213.609 140.763 213.708L140.662 213.887L131.563 213.875L122.464 213.863V213.474L122.459 213.475ZM180.707 213.753C180.523 213.582 180.571 212.536 180.768 212.431C180.863 212.38 181.322 212.313 181.786 212.283C183.4 212.178 183.472 212.124 183.681 210.881C183.785 210.263 183.876 205.443 183.883 200.17L183.896 190.583L181.001 190.623C179.409 190.645 177.93 190.69 177.714 190.723C176.999 190.833 176.789 191.227 176.62 192.787L176.452 194.334H175.743H175.035L174.907 191.358C174.837 189.721 174.837 188.358 174.907 188.328C174.977 188.299 175.779 188.31 176.689 188.356C178.16 188.428 196.061 188.404 197.583 188.327L198.156 188.298L198.094 191.223C198.061 192.831 197.975 194.201 197.905 194.266C197.828 194.337 197.527 194.374 197.157 194.359L196.537 194.333L196.395 192.783C196.244 191.133 196.07 190.856 195.083 190.696C194.766 190.645 193.281 190.603 191.783 190.603H189.059L189.148 201.102C189.219 209.327 189.303 211.659 189.538 211.867C189.83 212.127 190.733 212.313 191.703 212.313C191.93 212.313 192.18 212.373 192.259 212.446C192.461 212.632 192.431 213.679 192.222 213.78C192.114 213.832 189.905 213.864 186.439 213.864C181.985 213.864 180.804 213.841 180.709 213.753L180.707 213.753ZM201.717 213.83C201.662 213.81 201.617 213.641 201.616 213.452C201.615 213.222 201.906 212.906 202.502 212.489L203.389 211.868L203.381 201.299C203.373 189.291 203.509 190.116 201.549 189.981C200.229 189.891 200.138 189.822 200.243 188.988L200.314 188.424L209.856 188.392L219.397 188.361L219.243 190.341C219.158 191.431 219.024 192.692 218.945 193.144L218.801 193.965L218.182 193.94L217.564 193.914L217.446 192.471C217.305 190.751 217.315 190.757 214.602 190.553C212.723 190.411 209.534 190.443 209.068 190.608C208.905 190.666 208.796 192.192 208.745 195.129L208.67 199.563L209.498 199.618C210.822 199.706 214.784 199.629 215.123 199.508C215.315 199.44 215.509 198.929 215.666 198.083L215.91 196.765H216.501H217.091L217.153 200.767L217.214 204.77H216.528C216.121 204.77 215.784 204.716 215.699 204.637C215.619 204.564 215.545 204.027 215.532 203.443C215.519 202.859 215.437 202.29 215.349 202.179C214.993 201.727 212.857 201.483 210.003 201.567L208.703 201.605V206.678V211.751L212.188 211.704C216.789 211.642 217.965 211.494 218.243 210.946C218.318 210.799 218.492 210.076 218.629 209.338C218.953 207.605 218.955 207.602 219.758 207.635L220.399 207.661L220.308 208.458C220.257 208.896 220.151 210.291 220.072 211.559L219.927 213.864H210.87C205.889 213.864 201.769 213.848 201.714 213.83L201.717 213.83ZM384.158 213.753C383.873 213.491 384.091 213.151 384.923 212.563L385.809 211.936V201.249C385.809 189.222 385.952 190.132 384.035 189.968L382.973 189.877L382.906 189.13L382.839 188.382H392.358H401.876L401.862 188.801C401.836 189.91 401.48 193.601 401.382 193.768C401.306 193.899 401.103 193.956 400.711 193.956H400.15L399.995 192.552C399.91 191.78 399.743 191.065 399.625 190.963C399.285 190.67 397.153 190.48 394.249 190.485C392.815 190.486 391.718 190.526 391.564 190.58C391.386 190.644 391.265 192.056 391.177 195.116L391.05 199.56L391.897 199.617C393.438 199.719 397.207 199.63 397.627 199.48C397.922 199.375 398.031 199.1 398.122 198.223C398.271 196.79 398.321 196.704 398.986 196.738L399.51 196.764L399.571 200.767L399.632 204.769H398.958H398.283L398.14 203.528C398.06 202.845 397.885 202.183 397.75 202.057C397.388 201.719 396.16 201.571 393.701 201.568C392.563 201.567 391.517 201.591 391.377 201.622C391.092 201.684 391.008 209.471 391.276 210.91L391.429 211.727L393.815 211.726C397.797 211.726 400.068 211.541 400.53 211.182C400.67 211.073 400.897 210.425 401.035 209.742C401.473 207.574 401.456 207.606 402.187 207.635C402.918 207.665 402.877 207.268 402.583 211.446L402.41 213.889L393.343 213.876C386.036 213.865 384.252 213.842 384.154 213.752L384.158 213.753ZM466.388 213.753C466.225 213.602 466.24 212.735 466.41 212.512C466.507 212.384 466.794 212.319 467.418 212.283C469.062 212.19 469.159 212.123 469.39 210.922C469.504 210.327 469.566 205.503 469.528 200.201C469.45 189.376 469.583 190.13 467.729 189.971C467.17 189.923 466.614 189.829 466.494 189.762C466.263 189.632 466.185 188.683 466.389 188.494C466.486 188.405 467.666 188.384 472.238 188.392L477.965 188.401L478.036 188.976C478.141 189.827 478.05 189.902 476.767 189.97C474.747 190.077 474.894 189.209 474.894 201.08C474.894 209.434 474.955 211.577 475.201 211.824C475.507 212.13 476.33 212.312 477.405 212.312C477.967 212.312 478.125 212.552 478.036 213.265L477.965 213.837L472.238 213.85C467.66 213.862 466.486 213.841 466.389 213.751L466.388 213.753ZM544.817 213.83C544.459 213.705 544.831 213.088 545.603 212.511L546.489 211.853L546.56 202.674C546.633 193.367 546.48 190.391 545.922 190.153C545.758 190.082 545.152 190 544.577 189.969C543.343 189.904 543.241 189.822 543.346 188.987L543.417 188.423L552.987 188.402L562.557 188.382L562.531 188.633C562.517 188.772 562.433 189.79 562.347 190.897C562.261 192.003 562.131 193.144 562.059 193.432C561.939 193.917 561.886 193.956 561.361 193.956C560.62 193.956 560.571 193.862 560.494 192.303C560.418 190.772 560.391 190.755 557.704 190.553C555.826 190.411 552.637 190.443 552.171 190.608C552.007 190.666 551.896 192.192 551.842 195.122L551.761 199.549L552.315 199.601C553.184 199.684 557.145 199.665 557.81 199.575C558.562 199.474 558.624 199.375 558.838 197.938L559.013 196.764H559.604H560.195L560.256 200.767L560.317 204.769H559.606C558.945 204.769 558.894 204.747 558.876 204.455C558.861 204.282 558.782 203.678 558.69 203.113C558.536 202.159 558.48 202.069 557.914 201.868C557.22 201.622 555.294 201.502 553.087 201.567L551.806 201.605V206.677V211.749L555.292 211.702C558.854 211.655 560.273 211.555 560.903 211.308C561.312 211.147 561.622 210.362 561.847 208.918C562.044 207.647 562.08 207.603 562.873 207.635L563.503 207.661L563.41 208.709C563.361 209.285 563.253 210.681 563.174 211.81L563.029 213.864H553.973C548.992 213.864 544.872 213.848 544.816 213.829L544.817 213.83ZM19.5149 213.732C16.5306 213.533 14.1983 212.697 12.0081 211.044C7.93205 207.967 5.73023 202.766 5.72887 196.211C5.72887 189.707 7.93656 184.695 12.1361 181.673C14.6974 179.83 17.5099 179.025 21.3933 179.025C24.7677 179.025 28.5527 179.861 30.9175 181.129L31.5535 181.47L31.2876 183.627C31.1414 184.813 30.9585 186.5 30.8811 187.376C30.8035 188.252 30.6882 189.035 30.6241 189.116C30.4908 189.283 29.6303 189.315 29.4783 189.157C29.4223 189.1 29.2805 188.11 29.1623 186.957C28.9597 184.981 28.9104 184.825 28.2995 184.233C26.6061 182.59 23.6008 181.572 21.0088 181.763C17.6004 182.015 15.2377 183.493 13.5315 186.443C10.8719 191.04 10.7179 199.394 13.1952 204.686C14.747 208 17.0335 210.154 19.6543 210.769C20.4658 210.96 20.7978 210.988 21.8623 210.957C23.359 210.913 24.3039 210.691 25.5402 210.094L26.4043 209.678V205.942C26.4043 201.695 26.4855 201.877 24.4836 201.635C23.8692 201.561 23.1841 201.5 22.9613 201.5C22.7384 201.5 22.4915 201.441 22.4126 201.368C22.2386 201.207 22.2204 199.799 22.3902 199.642C22.4861 199.554 23.6272 199.531 27.8841 199.531L33.2568 199.531L33.3253 200.275C33.3757 200.826 33.3073 201.054 33.0584 201.155C32.8738 201.23 32.5238 201.423 32.2807 201.584C31.8668 201.859 31.8351 202.165 31.7812 206.389L31.7234 210.901L30.3353 211.502C26.4796 213.174 22.7287 213.947 19.5143 213.732L19.5149 213.732Z" fill="black"/>
<path d="M341.477 143.021H236.657V258.371H341.477V143.021Z" fill="white"/>
<path d="M236.632 190.426V258.314H293.588L325.542 237.595L312.44 230.982L268.453 258.314H244.788L298.134 224.076L296.797 216.288L285.165 217.464L236.632 248.321V232.746L278.213 206.149L262.169 201.447L236.632 217.28V202.108L246.593 195.422L241.078 190.977L236.632 190.426Z" fill="black"/>
<path d="M333.309 229.702C328.882 227.307 325.308 225.299 325.367 225.242C325.427 225.184 328.662 223.291 332.558 221.034C338.584 217.544 339.763 216.959 340.456 217.111C340.904 217.21 341.322 217.437 341.384 217.616C341.447 217.796 341.467 221.568 341.428 226L341.357 234.058L333.309 229.702H333.309ZM274.518 198.027L236.797 177.693L236.724 173.594C236.683 171.339 236.71 169.495 236.783 169.495C236.856 169.495 240.138 171.786 244.077 174.586C248.015 177.386 251.365 179.677 251.522 179.677C251.679 179.677 255.292 177.652 259.551 175.177C267.236 170.71 267.305 170.677 268.64 170.851C270.937 171.15 272.464 169.853 275.715 164.84C278.52 160.515 279.996 158.614 281.783 157.02C285.089 154.072 287.668 153.319 290.972 154.338C295.09 155.608 295.819 155.194 299.858 149.283C301.493 146.891 303.223 144.502 303.703 143.974L304.576 143.015L319.713 143.09L334.85 143.165L333.074 145.254C330.954 147.749 330.425 147.953 327.928 147.241C323.2 145.893 319.313 147.292 315.296 151.785C314.385 152.805 312.348 155.472 310.77 157.712C309.193 159.952 307.611 162.174 307.256 162.649L306.611 163.513L305.121 162.997C302.637 162.136 300.773 161.911 298.883 162.243C294.613 162.992 292.074 165.335 287.004 173.204C285.947 174.844 285.033 176.186 284.973 176.186C284.912 176.186 283.113 175.012 280.975 173.577C278.836 172.143 277.015 171.013 276.927 171.067C275.976 171.652 257.955 182.975 257.903 183.021C257.782 183.125 274.87 195.177 275.302 195.291C275.526 195.351 279.215 193.366 283.499 190.88C290.348 186.907 291.394 186.383 292.168 186.543C294.568 187.038 296.359 185.549 299.875 180.139C305.567 171.378 309.97 168.424 314.92 170.044C319.08 171.406 319.713 171.026 324.09 164.549C327.514 159.48 329.786 157.044 332.421 155.612C334.265 154.611 334.639 154.512 336.579 154.519C338.234 154.525 339.021 154.679 340.1 155.21L341.49 155.893V160.687V165.481L339.77 167.522C338.824 168.645 336.991 171.086 335.695 172.947C334.4 174.809 332.928 176.85 332.425 177.484L331.51 178.636L330.356 178.138C329.722 177.864 328.232 177.486 327.046 177.297C323.038 176.66 319.908 178.066 316.512 182.029C315.472 183.242 313.68 185.729 312.529 187.556C311.378 189.383 310.346 190.992 310.235 191.13C310.124 191.269 308.505 190.342 306.636 189.07C304.768 187.798 302.974 186.601 302.65 186.411C302.121 186.1 301.103 186.668 292.504 192.071C287.248 195.374 283.046 198.177 283.167 198.301C283.577 198.721 300.277 210.516 300.461 210.516C300.562 210.516 304.147 208.481 308.427 205.994C316.048 201.567 316.236 201.477 317.465 201.658C319.906 202.016 321.359 200.731 325.211 194.806C328.675 189.477 331.144 186.849 334.015 185.437C335.639 184.638 339.028 184.551 340.497 185.271L341.49 185.757V190.602V195.446L339.807 197.444C338.881 198.543 337.068 201.083 335.778 203.088C334.488 205.093 333.329 206.734 333.201 206.734C333.074 206.734 331.331 205.621 329.328 204.261C327.325 202.901 325.536 201.788 325.351 201.788C324.982 201.788 306.296 213.481 306.29 213.716C306.287 213.796 307.655 214.823 309.329 215.998C311.933 217.825 312.643 218.39 312.306 218.366C312.269 218.363 295.265 209.211 274.518 198.027L274.518 198.027ZM236.665 160.209V154.934L237.343 154.65C238.886 154.006 240.735 153.997 242.655 154.625C246.716 155.954 247.858 155.304 251.535 149.566C252.355 148.286 253.728 146.322 254.586 145.202L256.146 143.165L271.162 143.09L286.178 143.015L284.876 144.836C282.767 147.785 282.721 147.816 281.218 147.277C275.993 145.405 271.822 146.49 268.017 150.713C266.989 151.854 265.099 154.419 263.816 156.413C262.533 158.408 261.387 160.155 261.269 160.295C261.151 160.437 259.289 159.364 257.105 157.896L253.154 155.241L245.304 160.196C240.986 162.922 237.276 165.226 237.059 165.318C236.719 165.461 236.665 164.763 236.665 160.209V160.209ZM236.665 143.893C236.665 143.153 236.767 143.02 237.334 143.02H238.004L237.417 143.893C237.094 144.373 236.793 144.766 236.747 144.766C236.702 144.766 236.665 144.373 236.665 143.893Z" fill="#C0C0C0"/>
<path d="M236.616 165.536L252.967 175.978L269.127 165.588L269.175 176.03L261.118 181.174L277.041 191.564L293.059 181.122L293.107 191.252L285.24 196.448L301.257 207.023L317.744 196.039L317.644 206.545L309.534 211.835L325.552 222.342L341.445 212.203V237.624L325.686 247.836L309.528 237.853L309.599 226.658L301.257 232.26L285.382 222.32L285.429 211.514L277.089 216.813L260.844 206.913L261.112 196.186L252.936 201.586L236.616 192.365L236.616 165.536Z" fill="#FA0019"/>
</g>
<defs>
<clipPath id="clip0_1_2552">
<rect width="600" height="400" fill="white"/>
</clipPath>
</defs>
</svg>
