<svg width="600" height="400" viewBox="0 0 600 400" fill="none" xmlns="http://www.w3.org/2000/svg" xmlns:cgf="https://coding.garden/flags"><metadata id="cgf-metadata">

<cgf:flag>
  <cgf:name>Bronckhorst</cgf:name>
  <cgf:route>nl/ge/bronckhorst</cgf:route>
  <cgf:aspect-ratio>1.5</cgf:aspect-ratio>
</cgf:flag>

</metadata><g clip-path="url(#clip0_1_2560)">
<path d="M0.120362 0.0625L-0.73053 401.757H604.262V0.0625H0.120362Z" fill="white"/>
<path d="M267.563 130.964C265.559 135.316 263.351 139.718 265.033 144.744L260.421 149.646C254.02 145.475 247.552 142.067 240.438 146.034L220.455 161.256C214.527 172.016 226.038 174.238 230.19 168.737L241.207 154.548C244.443 152.237 247.145 152.44 249.661 153.516C246.103 160.969 240.34 167.615 231.471 173.123C223.291 177.36 233.156 185.695 241.463 180.347C249.271 173.193 252.854 164.621 251.967 154.548C253.659 154.522 255.924 154.273 256.495 155.711C257.547 158.365 260.591 159.734 263.752 160.482C270.914 160.43 277.792 162.46 286.809 148.872H293.47C301.971 156.682 306.175 168.579 331.13 160.74C329.918 170.973 332.616 174.643 340.097 170.285C354.166 171.197 362.56 170.26 378.526 183.443C382.257 186.405 385.338 178.487 379.295 171.575C387.414 172.686 385.769 164.025 376.733 163.062L352.138 162.804C349.222 158.075 349.775 153.055 352.651 147.84L366.741 147.066C366.881 151.488 375.34 149.007 372.89 143.196C369.935 136.648 367.366 130.049 349.833 125.395C351.615 112.428 318.068 90.6695 322.164 107.594C300.844 108.301 326.412 135.069 344.196 129.007L344.452 136.489C339.329 140.542 334.205 142.564 329.081 136.489C321.571 130.395 304.197 116.397 278.642 120.549C275.889 120.996 273.952 123.92 271.95 126.685C267.961 120.679 270.447 115.488 269.9 109.916C259.336 114.254 258.671 126.777 267.563 130.964V130.964Z" fill="#3D007A"/>
<path d="M411.575 188.861H197.654V195.053H411.575V188.861Z" fill="#D679FF"/>
<path d="M284.216 203.416H272.943V237.408H284.216V203.416Z" fill="#D62B86"/>
<path d="M299.362 203.309H290.14V225.496H299.362V203.309Z" fill="#D62B86"/>
<path d="M317.552 203.05H305.767V222.658H317.552V203.05Z" fill="#D62B86"/>
<path d="M332.774 203.142H323.551V237.736H332.774V203.142Z" fill="#D62B86"/>
<path d="M332.411 215.176H273.231V232.977H332.411V215.176Z" fill="#D62B86"/>
<path d="M273.145 223.508L272.873 237.555L280.663 241.568L273.598 291.553C280.97 296.459 289.616 296.662 298.416 296.296V274.04C301.296 270.154 305.754 270.374 308.198 273.857L308.38 296.478C316.643 295.936 324.866 295.148 332.655 291.735L326.858 241.203L332.836 238.102L332.473 223.873L273.145 223.508Z" fill="#D62B86"/>
</g>
<defs>
<clipPath id="clip0_1_2560">
<rect width="600" height="400" fill="white"/>
</clipPath>
</defs>
</svg>
