<svg width="600" height="400" viewBox="0 0 600 400" fill="none" xmlns="http://www.w3.org/2000/svg" xmlns:cgf="https://coding.garden/flags"><metadata id="cgf-metadata">

<cgf:flag>
  <cgf:name>Brummen</cgf:name>
  <cgf:route>nl/ge/brummen</cgf:route>
  <cgf:aspect-ratio>1.5</cgf:aspect-ratio>
</cgf:flag>

</metadata><g clip-path="url(#clip0_1_2571)">
<path d="M600 0H0V400H600V0Z" fill="#19B1F2"/>
<path d="M178.736 209.162L160.463 221.583C138.634 228.331 129.186 242.536 116.448 254.76C111.056 259.742 104.774 261.955 96.4267 257.747C105.166 266.82 113.905 270.069 122.645 261.992C119.381 264.755 115.433 267.218 115.812 271.584C115.128 279.482 111.989 281.309 108.821 283.061C118.127 286.289 124.43 279.943 129.954 271.112C126.525 277.685 121.891 283.861 123.28 292.024L105.484 298.47C99.0935 295.67 90.9392 289.99 92.6131 300.357C86.2025 301.594 88.6357 315.322 93.7254 313.565C93.8029 322.761 100.709 321.146 106.914 320.64C114.342 322.126 121.215 322.474 122.804 311.992L128.842 305.546C130.229 308.466 130.574 312.123 134.721 313.093C132.228 308.941 134.979 306.677 136.946 304.131C142.142 298.89 141.714 293.648 142.03 288.407C144.872 294.227 148.475 299.077 154.266 301.143C150.414 292.141 151.747 283.651 151.882 275.043C155.562 279.765 159.635 283.988 160.463 292.338C162.791 286.387 165.36 280.457 163.164 274.099C170.319 275.67 174.281 273.179 178.577 271.112C170.835 269.616 164.974 265.793 160.622 260.106C165.944 263.44 169.671 261.639 173.333 259.634C159.23 245.715 169.626 230.984 184.615 228.03L178.736 209.162Z" fill="#FB8710"/>
<path d="M165.071 206.804L177.465 216.395C169.752 222.248 175.319 236.159 186.045 231.961L185.569 213.722L165.071 206.804Z" fill="#FB8710"/>
<path d="M133.132 175.672C142.44 190.119 162.085 202.18 183.98 213.722C184.563 225.2 183.698 236.201 189.064 249.257C185.764 256.805 185.494 265.204 188.111 274.414C191.148 281.913 189.974 288.277 188.429 294.54C194.569 289.899 197.208 283.237 198.28 275.672C202.047 281.63 203.195 287.848 202.73 294.225C204.847 289.875 207.2 285.64 206.861 280.074C211.171 273.867 210.911 268.482 210.674 263.093C213.846 270.277 217.267 277.336 217.984 285.734C220.029 278.397 222.503 271.059 222.115 263.722C223.24 267.337 223.837 270.84 230.696 275.672L226.882 299.885L210.357 298.942C199.168 295.434 196.243 298.059 198.598 304.602C189.264 308.317 194.348 314.57 198.28 315.294C198.04 317.698 197.034 320.266 206.225 320.64C210.251 326.864 214.276 322.903 218.302 318.439L244.043 318.753C248.145 314.77 247.022 310.787 243.09 306.804C244.778 293.592 248.203 292.07 251.988 292.967L250.081 286.678C252.351 286.504 254.672 286.608 256.119 281.961C250.563 279.814 248.438 276.455 248.81 272.212C253.541 255.5 240.816 260.048 235.78 255.231L244.043 252.401L234.509 246.741L243.09 246.426L235.145 236.363C249.223 240.779 261.216 239.831 263.429 213.722C271.378 206.58 267.698 200.877 266.607 194.854C263.129 184.088 273.521 182.87 283.45 181.332C277.619 177.576 271.95 173.18 264.382 176.301C267.33 167.57 265.111 160.056 255.484 154.288C258.263 159.634 260.813 164.98 254.213 170.326C245.665 177.139 246.394 183.953 247.857 190.766C245.54 178.492 242.632 165.948 247.857 157.118C267.881 152.265 270.861 132.723 272.645 112.15C268.497 122.519 261.614 131.535 253.895 140.137C261.487 126.51 266.467 112.883 266.289 99.2565C261.834 115.948 254.617 124.99 247.221 133.533C257.737 119.352 261.251 103.005 252.624 82.9043C253.501 94.0214 256.971 105.99 247.539 113.722C237.139 123.402 226.959 133.187 237.052 152.716C234.29 163.617 233.999 174.519 239.594 185.42C230.157 184.995 224.425 179.859 223.386 168.753C217.884 177.724 221.682 185.425 233.556 192.024C222.671 194.964 221.99 199.994 228.471 206.489C225.841 197.69 232.884 197.444 234.827 197.684C236.986 204.111 240.071 210.079 251.67 211.835C250.847 226.369 241.877 226.795 229.107 220.64L186.522 178.816L167.454 158.062L133.132 175.672Z" fill="#FB8710"/>
<path d="M133.801 143.063C120.925 128.199 105.349 126.396 90.2022 122.52L85.3202 113.186C81.1377 101.727 74.1539 104.634 74.9147 112.524C67.8807 107.954 60.5164 115.585 66.7094 121.616C54.5214 128.262 78.7398 135.933 89.3167 139.353C80.9082 138.603 79.1373 143.008 76.4448 146.697C87.7598 142.331 95.456 147.525 104.102 150.21C99.5916 151.9 99.2349 156.576 98.755 161.164C104.029 155.099 109.531 156.106 115.094 159.016C129.237 164.308 140.594 155.026 133.801 143.063Z" fill="#FB8710"/>
<path d="M78.6369 251.931C76.1525 251.746 75.865 251.593 75.87 250.461C75.8724 249.766 76.4129 242.352 77.0698 233.984C77.7268 225.617 78.2667 218.455 78.2698 218.068C78.2721 217.681 76.3268 215.805 73.9454 213.899C70.0925 210.814 69.6676 210.595 70.0881 211.912C71.4507 216.179 70.0036 219.729 65.5814 222.967C62.2727 225.39 61.7669 225.215 59.9551 221.019C59.0746 218.979 58.7517 217.34 58.7634 214.969L58.7801 211.717L56.647 211.368C54.0981 210.952 50.7302 209.044 49.262 207.183L48.1997 205.836L50.0987 203.521C52.8567 200.157 56.5405 198.149 59.1663 198.578L61.2435 198.917L61.3222 196.528C61.3702 195.073 61.8689 193.298 62.5989 191.984L63.797 189.829L62.237 186.842C60.8749 184.235 60.6769 183.357 60.6769 179.929C60.6769 176.033 60.6673 176.003 59.3561 176.002C57.4876 176 53.6308 174.151 51.5462 172.258L49.7754 170.65L52.0863 167.856C55.206 164.085 57.9378 162.547 60.7131 163C62.829 163.346 62.8466 163.334 62.8466 161.619C62.8466 158.848 64.1658 155.841 66.5333 153.216L68.7352 150.775L70.3186 152.213C72.5597 154.248 74.5248 158.032 74.7562 160.757C74.9967 163.59 73.8277 166.067 71.1608 168.376L69.3174 169.972L73.7637 172.556L78.21 175.139L77.3399 173.417C76.5848 171.922 76.4296 169.722 76.1652 156.768C75.9977 148.559 75.7187 137.623 75.5454 132.466L75.2304 123.091L70.9857 119.693C68.6512 117.824 66.6445 116.294 66.5266 116.294C66.4087 116.294 66.5385 117.171 66.8144 118.243C67.0906 119.314 67.1733 120.871 66.9981 121.702C66.5388 123.881 63.7543 127.318 61.0056 129.099L58.6307 130.638L57.4389 128.49C55.7346 125.417 54.9833 122.281 55.2576 119.384C55.4876 116.954 55.4509 116.868 54.1691 116.868C52.2196 116.868 49.1612 115.445 46.5964 113.344L44.3396 111.495L47.3216 108.229C50.561 104.682 53.4529 103.26 56.0476 103.939C57.4434 104.304 57.5436 104.222 57.5534 102.705C57.5701 100.083 59.1597 96.6698 61.6112 93.9894L63.8965 91.4908L65.3651 93.1283C67.9817 96.0457 69.5971 99.6048 69.5971 102.452C69.5971 104.826 69.3848 105.279 66.9682 108.066L64.3393 111.098L66.5473 112.261C67.7618 112.901 68.8642 113.424 68.9972 113.424C69.1301 113.424 70.5105 114.457 72.0646 115.72C73.6186 116.983 74.9468 118.017 75.0161 118.018C75.0853 118.018 75.0042 113.433 74.8352 107.827C74.6665 102.222 74.5038 95.5532 74.4736 93.0072L74.4187 88.3781L69.7489 84.5498C67.1805 82.4442 65.0097 80.804 64.925 80.9048C64.8403 81.0056 65.0114 81.9097 65.3054 82.9137C66.3826 86.5927 64.7127 90.0134 60.3553 93.0541C57.0198 95.3816 56.9047 95.3379 54.9173 90.9902C53.7713 88.4832 53.606 87.5623 53.782 84.6652L53.9879 81.2744H52.0026C49.8597 81.2744 45.6935 79.1116 44.2967 77.2739C43.4961 76.2205 43.5057 76.0881 44.5048 74.4175C45.081 73.454 46.5687 71.8254 47.8107 70.7985C49.7708 69.1779 50.4667 68.9313 53.0813 68.9313H56.0936L56.1055 67.209C56.1246 64.5711 57.6601 61.1237 59.8796 58.7411C60.9826 57.557 62.0813 56.5882 62.3211 56.5882C62.9664 56.5882 67.2279 62.3851 67.7234 63.9368C68.88 67.5591 67.605 71.5852 64.5564 73.9367C63.6226 74.6571 62.8559 75.3827 62.8526 75.5492C62.8502 75.7157 64.2905 76.6011 66.0554 77.5165C67.8202 78.4319 70.1526 79.9862 71.2387 80.9705C72.3247 81.9548 73.4303 82.9183 73.6954 83.1116C74.0089 83.3402 74.1198 81.3634 74.0125 77.4627L73.8474 71.4623L77.3033 71.6321L80.7592 71.8019L83.0717 69.1444C85.4636 66.3958 90.5412 62.7005 92.8617 62.0197C94.6209 61.5035 94.5342 60.9556 92.4504 59.4222C89.3546 57.1442 88.145 53.2357 89.3591 49.4336C89.8705 47.832 94.0497 42.2358 94.7344 42.2358C94.9625 42.2358 96.0516 43.2046 97.1546 44.3887C99.3099 46.7024 100.91 50.2056 100.927 52.6469C100.937 54.0671 101.078 54.1594 103.231 54.1594C106.333 54.1594 108.42 55.3055 111.542 58.7227L114.17 61.6L111.862 63.5434C109.083 65.8831 107.077 66.82 104.721 66.8784L102.958 66.922L103.213 69.1821C103.577 72.4117 103.064 74.9384 101.416 78.0316L99.9776 80.7324L98.4085 79.7745C92.8224 76.3643 90.8231 73.1223 91.6508 68.8159L92.1313 66.3153L90.8691 67.2895C85.0445 71.7849 81.9464 74.4474 81.3394 75.4793C80.704 76.5594 80.7694 81.9569 81.9195 123.335C82.6325 148.985 83.2874 170.068 83.3749 170.184C83.4625 170.301 84.6834 169.193 86.0882 167.722C88.5499 165.145 94.5825 161.074 95.9399 161.074C96.9675 161.074 96.7777 160.73 93.9464 157.465C91.6912 154.864 91.2945 154.095 91.2945 152.324C91.2945 151.178 91.5083 149.571 91.7698 148.752C92.3365 146.978 96.4936 141.555 97.2872 141.555C98.0816 141.555 101.654 146.094 102.573 148.272C103 149.282 103.349 150.92 103.349 151.91C103.349 153.697 103.365 153.709 105.299 153.319C107.781 152.82 111.417 154.813 114.187 158.191C115.755 160.103 116.011 160.711 115.587 161.52C114.731 163.152 109.251 166.241 107.21 166.241H105.369L105.624 168.501C105.988 171.73 105.475 174.257 103.828 177.348L102.391 180.047L100.437 178.86C97.8116 177.265 94.9163 174.077 94.1853 171.975C93.7486 170.72 93.7197 169.642 94.0777 167.963C94.3469 166.7 94.4816 165.667 94.3771 165.667C94.0599 165.667 85.0263 173.201 85.0263 173.465C85.0263 173.601 86.3281 176.442 87.9193 179.779C89.5105 183.116 90.811 186.279 90.8093 186.808C90.8079 187.337 89.5966 193.324 88.118 200.113C85.8503 210.525 85.2872 214.162 84.5183 223.364C84.017 229.363 83.6008 234.597 83.5933 234.996C83.5862 235.394 84.8274 234.509 86.3522 233.029C87.8771 231.549 90.8257 229.385 92.9046 228.221L96.6844 226.104L94.9624 224.837C89.8557 221.079 89.7138 215.397 94.584 209.686L96.9067 206.962L99.1024 209.263C101.635 211.918 102.867 214.63 102.867 217.555V219.61L104.962 219.268C107.749 218.813 110.798 220.434 113.735 223.931C115.897 226.505 115.946 226.638 115.131 227.71C113.963 229.247 109.779 231.579 107.404 232.016L105.432 232.379L105.469 235.623C105.499 238.24 105.217 239.475 104.009 242.023C103.186 243.759 102.203 245.253 101.825 245.342C100.706 245.607 95.2683 241.085 94.4553 239.213C93.5814 237.201 93.4769 233.843 94.2356 232.155C94.8877 230.704 94.9432 230.669 88.8836 235.592C86.3643 237.638 84.0486 239.686 83.7376 240.142C83.4266 240.598 83.036 242.952 82.8696 245.372C82.5044 250.684 82.2296 252.391 81.7624 252.247C81.5687 252.187 80.1623 252.045 78.6375 251.931H78.6369ZM81.3089 200.028L83.9805 187.312L82.7879 185.167C82.0691 183.873 79.6927 181.513 76.8052 179.224C74.1706 177.135 71.9199 175.426 71.8036 175.426C71.6874 175.426 71.7917 176.252 72.0339 177.261C72.6846 179.962 71.8108 183.046 69.7981 185.15L68.0848 186.941L70.2751 189.841C71.4797 191.437 72.6701 193.625 72.9205 194.705C73.7696 198.366 72.2378 201.973 68.6318 204.802C67.4796 205.705 67.4689 205.764 68.3907 206.137C70.6573 207.052 76.3578 210.658 77.1168 211.657C77.5709 212.254 78.0988 212.743 78.2898 212.743C78.481 212.743 79.8394 207.021 81.3088 200.028H81.3089Z" fill="#00AE00" stroke="black" stroke-width="0.9"/>
<path d="M97.8818 103.485C96.9679 103.133 96.0165 102.156 95.6962 101.241C95.5263 100.755 95.4301 100.667 95.1249 100.721C94.9231 100.756 91.6991 101.155 87.9603 101.607C84.2216 102.059 80.9814 102.46 80.7601 102.499C80.3982 102.561 80.3572 102.515 80.3541 102.052C80.3522 101.769 81.1249 99.0916 82.0712 96.1028L83.7917 90.6685L83.2304 90.0209C82.3806 89.0402 82.0924 88.1114 82.1838 86.6477C82.279 85.1234 82.7535 84.2042 83.8407 83.4383C85.1418 82.5216 86.4823 82.5193 87.7772 83.4312C89.5254 84.6629 90.0714 87.3148 88.9691 89.2196C88.3302 90.3234 87.6602 90.8394 86.4539 91.1563L85.8139 91.3245L84.712 94.7897C84.1059 96.6956 83.625 98.2668 83.6433 98.2814C83.6624 98.2955 85.0806 97.0686 86.7967 95.5541L89.9167 92.8003L89.8652 91.9217C89.7545 90.0372 90.8168 88.2014 92.379 87.5776C93.0065 87.3271 94.1933 87.3312 94.8385 87.5871C95.1189 87.6978 95.6414 88.0502 95.9996 88.3701C97.7468 89.9302 97.7814 93.0013 96.0719 94.7688C94.8867 95.9941 92.9031 96.1117 91.502 95.0398L90.8227 94.5201L87.5638 97.4064C85.7714 98.9939 84.3257 100.309 84.3512 100.328C84.396 100.362 93.9088 99.2229 94.8822 99.0667C95.2968 99.0001 95.3912 98.889 95.5595 98.2696C96.1819 95.9778 98.3363 94.7874 100.403 95.5932C101.926 96.1872 102.815 97.6847 102.796 99.623C102.777 101.529 101.882 102.936 100.322 103.513C99.3535 103.871 98.869 103.866 97.882 103.486L97.8818 103.485Z" fill="#800080" stroke="black" stroke-width="0.7"/>
<path d="M59.6912 158.529C60.6051 158.177 61.5565 157.199 61.8768 156.284C62.0467 155.798 62.1429 155.711 62.448 155.764C62.6499 155.799 65.8739 156.198 69.6127 156.651C73.3514 157.103 76.5916 157.504 76.8129 157.542C77.1747 157.604 77.2158 157.558 77.2188 157.096C77.2207 156.812 76.4481 154.135 75.5018 151.146L73.7813 145.712L74.3425 145.064C75.1924 144.084 75.4806 143.155 75.3892 141.691C75.294 140.167 74.8195 139.248 73.7323 138.482C72.4312 137.565 71.0907 137.563 69.7958 138.475C68.0476 139.706 67.5016 142.358 68.6039 144.263C69.2428 145.367 69.9128 145.883 71.1191 146.2L71.7591 146.368L72.861 149.833C73.4671 151.739 73.948 153.31 73.9297 153.325C73.9106 153.339 72.4924 152.112 70.7763 150.598L67.6563 147.844L67.7078 146.965C67.8185 145.081 66.7562 143.245 65.194 142.621C64.5665 142.37 63.3797 142.375 62.7344 142.631C62.4541 142.741 61.9315 143.094 61.5734 143.414C59.8262 144.974 59.7916 148.045 61.5011 149.812C62.6863 151.038 64.6698 151.155 66.071 150.083L66.7503 149.564L70.0092 152.45C71.8016 154.037 73.2473 155.352 73.2218 155.372C73.1769 155.406 63.6642 154.266 62.6908 154.11C62.2762 154.044 62.1818 153.932 62.0135 153.313C61.3911 151.021 59.2367 149.831 57.1702 150.637C55.6469 151.231 54.7576 152.728 54.7772 154.666C54.7963 156.573 55.6907 157.979 57.2506 158.556C58.2196 158.915 58.704 158.91 59.691 158.529L59.6912 158.529Z" fill="#800080" stroke="black" stroke-width="0.7"/>
<path d="M153.751 152.859C137.494 154.881 108.125 176.094 97.0833 184.127C96.0063 184.91 90.9219 177.378 89.9223 178.206C89.4654 178.585 89.0168 178.968 88.5768 179.355C87.9322 179.923 90.3858 184.101 89.7574 184.662L83.4092 183.662C71.4403 180.801 70.0436 188.17 77.1171 191.889C69.3875 195.18 71.7651 205.465 80.2631 203.674C79.1525 217.401 98.9665 201.629 107.679 194.78C102.413 201.31 105.152 205.199 106.78 209.456C109.333 197.707 117.953 194.213 124.982 188.554C123.922 193.209 127.669 196.08 131.274 199.005C129.064 191.308 132.945 187.319 138.465 184.329C174.395 177.909 170.402 154.121 153.751 152.859V152.859Z" fill="#FB8710"/>
<path d="M81.6168 110.319C80.0412 113.384 75.4684 114.21 71.4033 112.163C67.3381 110.117 65.3199 105.974 66.8955 102.909C68.4711 99.8439 73.0439 99.0182 77.1091 101.065C81.1742 103.111 83.1924 107.254 81.6168 110.319Z" fill="#FB8710" stroke="black" stroke-width="0.7"/>
<path d="M75.1493 119.76C74.3341 123.103 70.079 124.954 65.6454 123.895C61.2117 122.837 58.2784 119.269 59.0936 115.926C59.9088 112.583 64.1639 110.732 68.5976 111.791C73.0312 112.849 75.9645 116.417 75.1493 119.76Z" fill="#FB8710" stroke="black" stroke-width="0.7"/>
<path d="M75.2847 130.865C74.7589 134.264 70.6778 136.465 66.1694 135.783C61.661 135.1 58.4324 131.791 58.9582 128.392C59.484 124.993 63.5651 122.791 68.0735 123.474C72.5819 124.157 75.8105 127.466 75.2847 130.865Z" fill="#FB8710" stroke="black" stroke-width="0.7"/>
<path d="M92.562 122.578C89.3194 123.814 85.3614 121.402 83.7217 117.191C82.0819 112.979 83.3813 108.563 86.624 107.327C89.8667 106.091 93.8246 108.502 95.4644 112.714C97.1041 116.925 95.8047 121.341 92.562 122.578Z" fill="#FB8710" stroke="black" stroke-width="0.7"/>
<path d="M90.4679 303.424C82.757 304.574 78.2813 308.182 79.6628 316.238C83.0955 312.1 86.9308 309.954 91.4213 311.049C95.4512 307.81 94.0099 303.163 90.4679 303.424Z" fill="#D40000"/>
<path d="M89.7736 292.462C82.0626 293.613 77.5869 297.22 78.9685 305.276C82.4011 301.138 86.2364 298.992 90.727 300.087C94.7569 296.848 93.3155 292.202 89.7736 292.462Z" fill="#D40000"/>
<path d="M99.5385 313.072C92.5481 316.492 89.3954 321.278 93.1907 328.534C95.1866 323.558 98.1791 320.358 102.794 320.049C105.635 315.749 102.832 311.757 99.5385 313.072Z" fill="#D40000"/>
<path d="M119.152 317.126C119.812 324.814 117.306 329.96 109.067 330.503C112.337 326.237 113.555 322.047 111.435 317.98C113.682 313.349 118.584 313.656 119.152 317.126Z" fill="#D40000"/>
<path d="M198.033 296.112C190.322 297.262 185.846 300.87 187.228 308.926C190.66 304.788 194.495 302.642 198.986 303.737C203.016 300.498 201.575 295.851 198.033 296.112Z" fill="#D40000"/>
<path d="M198.145 305.45C190.434 306.601 185.958 310.209 187.34 318.265C190.773 314.127 194.608 311.98 199.098 313.076C203.128 309.837 201.687 305.19 198.145 305.45Z" fill="#D40000"/>
<path d="M204.886 313.122C197.176 314.273 192.7 317.88 194.081 325.936C197.514 321.798 201.349 319.652 205.84 320.748C209.87 317.508 208.428 312.862 204.886 313.122Z" fill="#D40000"/>
<path d="M220.061 322.19C217.048 329.308 212.419 332.721 204.862 329.426C209.757 327.144 212.797 323.988 212.821 319.412C216.98 316.337 221.181 318.855 220.061 322.19V322.19Z" fill="#D40000"/>
<path d="M80.5288 102.364C86.2503 107.607 87.9003 113.081 82.179 118.973C81.693 113.641 79.7418 109.732 75.406 108.138C73.9149 103.217 77.748 100.177 80.5288 102.364V102.364Z" fill="#D40000" stroke="black" stroke-width="0.7"/>
<path d="M72.989 114.287C80.2375 117.133 83.7733 121.648 80.5875 129.186C78.1889 124.387 74.9431 121.439 70.3185 121.502C67.1327 117.446 69.5982 113.241 72.989 114.287V114.287Z" fill="#D40000" stroke="black" stroke-width="0.7"/>
<path d="M70.6573 126.78C78.3793 127.856 82.8905 131.421 81.5888 139.489C78.1153 135.385 74.259 133.276 69.7795 134.415C65.7177 131.215 67.1129 126.555 70.6573 126.78V126.78Z" fill="#D40000" stroke="black" stroke-width="0.7"/>
<path d="M96.5564 121.366C95.4366 129.003 91.8157 133.452 83.667 132.13C87.8298 128.71 89.9772 124.903 88.8446 120.466C92.0953 116.46 96.7994 117.86 96.5564 121.366Z" fill="#D40000" stroke="black" stroke-width="0.7"/>
<path d="M136.31 82.1183C141.668 83.8419 144.035 87.6799 143.46 93.5963C142.223 107.917 157.58 108.872 174.244 108.775L190.335 116.71L193.831 102.873C187.903 99.5417 176.356 100.381 165.547 100.672C160.056 99.4363 155.19 96.8956 153.471 87.7787C152.426 80.7369 143.182 78.0571 136.31 82.1183Z" fill="#D40000"/>
<path d="M175.876 91.2379L178.895 100.515L182.391 89.3511L177.147 88.2505L175.876 91.2379Z" fill="white"/>
<path d="M176.67 112.15L179.054 104.131L182.073 113.879L178.418 115.452L176.67 112.15Z" fill="white"/>
<path d="M183.294 68.7886L162.369 78.3449C163.574 80.8856 164.591 83.5296 168.408 84.6342C163.939 93.1667 168.814 94.7392 181.596 92.1814C192.185 81.204 195.471 120.635 182.456 113.197C176.557 111.395 169.933 108.209 171.586 113.879C173.619 120.37 169.414 121.161 166.183 122.842C171.073 124.696 174.192 122.345 176.988 119.225C184.751 113.517 194.157 130.811 178.345 130.649C176.87 130.635 175.115 130.121 173.016 129.445C157.316 124.856 141.738 120.656 131.84 134.52C128.323 140.676 122.686 144.211 114.087 144.082C124.243 152.882 129.278 146.484 135.435 143.415C131.952 153.912 124.471 161.442 112.514 165.651C124.382 166.886 139.007 164.325 144.046 152.03C147.278 144.144 150.393 141.611 153.412 140.746C147.762 144.248 143.785 149.199 144.873 158.535C146.217 170.938 139.23 167.489 135.66 170.543C143.483 174.512 153.874 176.208 157.682 157.423C158.916 169.193 160.464 181.087 151.39 188.776C163.011 191.712 168.446 182.813 173.862 173.878C177.027 187.701 186.971 194.746 202.401 194.78C198.231 190.79 195.69 186.182 197.007 180.104C200.079 183.73 203.15 186.776 206.221 185.441C204.059 180.962 202.714 176.669 205.996 173.433C209.167 168.41 210.781 163.032 208.468 156.756C213.198 162.176 218.647 163.328 224.647 161.203C221.975 156.341 218.139 151.839 221.951 144.971C226.504 136.984 226.719 129.191 221.951 121.623C223.306 126.934 229.063 128.874 233.187 128.294C226.816 122.201 225.072 116.221 225.097 110.283C229.441 113.83 233.786 115.449 238.13 112.729C229.664 107.736 229.561 101.615 230.265 95.3847C231.135 89.7234 229.695 85.627 224.872 83.822C231.482 73.4956 241.692 61.5296 211.839 67.812C198.086 63.4288 180.328 55.4871 183.294 68.7886H183.294Z" fill="#FB8710"/>
<path d="M186.614 71.7029C194.965 66.4442 197.812 74.7002 202.457 78.5404C196.334 79.4878 187.882 86.0275 186.614 71.7029Z" fill="white"/>
<path d="M107.712 331.039C107.717 330.947 108.544 329.364 109.551 327.521C110.558 325.678 111.382 323.566 111.382 322.828C111.382 321.326 110.669 321.203 103.414 321.458C98.6963 321.624 97.4085 322.479 94.8641 327.13L93.1772 330.213L92.0138 327.414C90.5984 324.008 90.5777 319.832 91.9666 317.865C93.225 316.083 93.3064 314.093 92.1209 314.093C91.6398 314.093 90.6955 313.443 90.0226 312.649C88.353 310.68 86.4731 311.196 82.2384 314.788L78.8997 317.619V313.809C78.8997 311.441 79.2838 309.248 79.9148 308.014C80.9754 305.94 84.2285 303.605 86.8946 303.004C87.7525 302.811 88.7891 302.155 89.1981 301.548C89.8584 300.567 89.7737 300.443 88.4443 300.443C85.9077 300.443 84.0274 301.404 81.1912 304.151L78.4667 306.789L78.1021 304.32C77.6569 301.306 78.4222 297.9 79.9858 295.936C82.6346 292.611 90.4846 290.231 92.5338 292.132C93.0768 292.636 94.1491 293.049 94.9166 293.049C95.6841 293.049 98.4199 293.967 100.996 295.088L105.68 297.128L114.047 294.095L122.414 291.062V287.861C122.414 286.1 122.819 283.594 123.315 282.291L124.215 279.921L121.629 281.61C117.732 284.155 114.77 284.778 110.493 283.954L106.941 283.27L110.036 280.758C113.321 278.091 114.149 276.476 114.812 271.436C115.038 269.715 115.436 267.924 115.695 267.454C116.092 266.736 115.635 266.632 112.805 266.799C108.463 267.054 103.149 264.728 98.8988 260.713C95.4761 257.479 95.52 256.168 99.0038 257.57C100.25 258.071 102.786 258.509 104.64 258.543C110.222 258.645 112.998 256.801 123.36 246.107C137.251 231.771 144.573 226.373 156.114 221.956C158.413 221.077 162.84 218.622 165.952 216.503C171.356 212.822 171.557 212.608 170.428 211.755C164.823 207.525 164.458 207.164 165.138 206.533C165.819 205.901 166.269 205.981 170.524 207.482C171.198 207.72 168.716 206.046 165.008 203.763C155.374 197.831 149.754 193.83 144.357 189.06C139.065 184.384 138.677 184.321 135.076 187.567C132.148 190.205 131.214 193.192 131.977 197.473L132.567 200.784L130.016 198.844C127.107 196.632 124.252 193.062 124.252 191.636C124.252 190.084 123.344 190.477 118.927 193.942C112.004 199.373 110.054 201.982 107.988 208.575L106.939 211.927L105.74 209.12C105.081 207.576 104.391 204.605 104.206 202.518L103.869 198.723L99.1986 202.026C89.3566 208.986 82.7218 211.165 80.4664 208.177C79.9416 207.481 79.5123 206.379 79.5123 205.726C79.5123 204.796 78.9546 204.425 76.9214 204.005C71.771 202.939 70.0746 197.616 73.5267 193.352L75.0059 191.525L73.5819 189.592C71.6686 186.996 71.7352 184.806 73.7728 183.319C75.6228 181.968 79.0719 181.788 84.6693 182.748C86.6181 183.082 88.3248 183.252 88.4619 183.125C88.5988 182.997 88.4027 182.072 88.0257 181.069C87.4499 179.536 87.5136 179.067 88.4244 178.133C90.0249 176.492 90.7597 176.728 93.7986 179.865C95.3139 181.429 96.6794 182.709 96.833 182.709C96.9864 182.709 101.657 179.574 107.212 175.742C112.766 171.91 118.106 168.24 119.079 167.587L120.846 166.401L116.956 166.367C111.405 166.318 110.994 165.267 115.695 163.138C117.705 162.228 119.343 161.332 119.334 161.147C119.32 160.793 112.496 158.504 109.041 157.694C106.11 157.006 103.549 157.893 100.535 160.638L97.8986 163.039L97.9058 161.072C97.9201 158.03 99.4633 152.648 100.677 151.404C101.278 150.787 101.656 150.176 101.516 150.047C101.376 149.917 98.9189 149.007 96.0551 148.025C89.1123 145.643 83.5839 145.25 78.4248 146.77L74.5817 147.903L75.9164 145.826C76.6505 144.683 78.066 142.939 79.0621 141.95C80.8634 140.16 80.867 140.143 79.732 138.718C79.1043 137.93 77.5634 136.743 76.3078 136.081C74.0808 134.906 73.9516 134.9 71.0462 135.858C68.4903 136.7 67.6837 136.739 65.3619 136.13C58.6148 134.361 56.1243 128.648 60.3262 124.577L61.9581 122.997L60.6983 121.713C58.6363 119.612 57.9228 117.872 58.3192 115.911C58.9192 112.943 62.6064 110.476 66.4437 110.476C68.0017 110.476 68.0032 110.472 66.9192 108.936C65.1998 106.501 65.3918 102.845 67.3337 101.043C70.9566 97.6798 79.7804 99.3359 83.4937 104.076C85.1217 106.153 85.552 106.388 87.2497 106.124C90.277 105.653 94.0556 107.969 96.019 111.5C96.4189 112.219 96.8752 115.021 97.0328 117.726C97.1905 120.43 97.451 122.765 97.612 122.915C97.773 123.064 101.005 124.04 104.795 125.084C112.896 127.315 121.512 131.148 125.772 134.414C128.74 136.69 128.828 136.717 129.746 135.611C130.262 134.99 131.65 133.323 132.83 131.909C139.761 123.597 149.731 122.195 167.764 126.996C172.651 128.297 177.675 129.371 178.926 129.381C185.654 129.438 188.044 124.738 183.551 120.287C181.56 118.315 179.145 118.625 175.909 121.269C172.715 123.878 169.914 124.564 166.422 123.593L163.973 122.912L167.247 121.091L170.522 119.271L170.526 115.107C170.531 111.829 170.758 110.791 171.589 110.227C172.468 109.631 171.384 109.453 165.147 109.168C155.339 108.719 150.608 107.407 146.406 103.973C143.853 101.886 143.043 99.6567 142.607 93.5118C142.128 86.7635 141.338 85.278 137.261 83.4601C135.858 82.8344 134.701 82.178 134.688 82.0013C134.646 81.3898 139.095 79.7238 141.631 79.4012C148.01 78.5898 152.843 81.8269 154.524 88.0364C155.772 92.6484 156.68 94.3473 158.973 96.3692C161.888 98.9385 164.645 99.6698 171.419 99.6698C174.801 99.6698 177.563 99.6058 177.558 99.5276C177.553 99.4495 177.179 98.2337 176.726 96.8261L175.904 94.2666L172.028 93.9171C169.033 93.647 167.899 93.2774 167.038 92.29C165.807 90.8801 165.605 88.5755 166.516 86.3513C167.002 85.1655 166.899 84.7979 165.946 84.3248C164.434 83.574 162.436 80.9507 161.919 79.0373C161.521 77.5661 161.767 77.4133 171.594 73.0388L181.678 68.5499L182.007 65.8458C182.502 61.7707 183.977 60.7039 189.077 60.7335C192.411 60.7548 194.985 61.3295 202.596 63.7621L211.996 66.7668L218.117 65.8129C225.002 64.7399 228.766 65.0111 231.151 66.7518C233.96 68.8024 232.972 72.7021 227.468 81.3007L226.301 83.1225L228.245 84.9977C230.73 87.3942 230.991 88.487 231.102 96.9511C231.187 103.427 231.313 104.125 232.84 106.535C233.746 107.964 235.608 109.855 236.977 110.736C238.347 111.617 239.468 112.424 239.468 112.53C239.468 112.635 238.62 113.129 237.584 113.626C234.944 114.893 231.558 114.798 228.55 113.374C225.645 111.999 225.57 112.132 226.827 116.448C227.938 120.267 232.619 127.539 233.966 127.539C234.231 127.539 235.28 126.17 236.298 124.497C237.315 122.823 240.692 118.92 243.802 115.823C251.217 108.439 252.533 105.853 252.597 98.5507C252.623 95.5688 252.417 90.7616 252.139 87.868C251.706 83.3713 251.766 82.607 252.548 82.607C253.494 82.607 255.354 87.1133 256.656 92.5603C258.619 100.777 258.367 110.957 256.026 118.018C255.061 120.93 255.023 121.363 255.813 120.43C258.055 117.781 262.74 107.216 264.957 99.812C265.074 99.421 265.632 99.101 266.196 99.101C268.656 99.101 265.417 116.542 261.032 126.91C259.694 130.072 258.68 132.658 258.777 132.658C259.378 132.658 266.975 120.932 269.029 116.832C271.942 111.018 271.781 111.23 272.675 112.059C273.206 112.552 273.196 114.295 272.634 119.131C270.694 135.825 266.951 145.304 259.785 151.671L257.27 153.906L260.354 156.932C264.802 161.296 266.13 164.308 266.081 169.917L266.041 174.472L268.271 174.275C269.497 174.167 271.598 174.352 272.94 174.688C275.972 175.445 284.34 180.348 284.037 181.19C283.915 181.531 281.434 182.245 278.525 182.776C272.91 183.802 269.012 185.46 267.727 187.37C266.686 188.917 266.755 192.41 267.916 196.928C269.695 203.848 268.906 208.956 265.545 212.285C264.457 213.363 263.953 214.807 263.463 218.257C261.796 230.001 257.305 236.594 249.674 238.501C247.395 239.07 242.662 238.867 238.917 238.039C237.629 237.754 237.873 238.247 240.909 242.057C242.812 244.445 244.37 246.517 244.37 246.661C244.37 246.805 242.788 246.999 240.855 247.093L237.341 247.263L241.622 249.759L245.902 252.254L242.454 253.456C240.558 254.117 238.973 254.913 238.933 255.226C238.893 255.539 240.444 256.307 242.381 256.932C249.917 259.367 250.192 259.801 250.192 269.239C250.192 277.289 250.469 277.921 254.927 280.032C257.089 281.056 257.172 281.196 256.495 282.673C255.463 284.925 253.525 286.792 252.219 286.792C251.046 286.792 251.097 287.891 252.427 291.237C253.248 293.304 253.093 293.509 250.748 293.447C248.029 293.375 246.688 294.83 245.35 299.3C243.872 304.235 243.934 306.197 245.633 308.33C247.605 310.806 247.7 315.004 245.837 317.322L244.546 318.927L232.813 319.082C221.566 319.23 221.081 319.283 221.081 320.368C221.081 321.73 219.019 325.843 217.477 327.556C215.859 329.355 212.435 331.151 210.62 331.154C209.754 331.155 207.568 330.748 205.762 330.251L202.479 329.346L205.191 327.779C208.581 325.821 210.092 324.255 208.94 323.895C208.499 323.757 207.424 323.031 206.552 322.281C205.681 321.531 204.405 320.918 203.718 320.918C201.559 320.918 197.212 323.229 195.536 325.268C193.395 327.873 192.676 327.059 192.996 322.397C193.182 319.687 193.629 318.194 194.631 316.937C197.553 313.268 194.03 313.057 189.888 316.652C188.266 318.06 186.761 319.212 186.543 319.212C185.922 319.212 186.08 313.193 186.745 311.57C187.134 310.623 187.134 310.112 186.745 310.112C185.847 310.112 186.027 303.518 186.984 301.393C188.166 298.767 191.177 296.624 195.215 295.535C198.43 294.668 198.813 294.667 200.433 295.53C201.395 296.042 203.107 296.461 204.237 296.461C205.368 296.461 207.04 296.725 207.954 297.048C209.428 297.568 225.419 298.84 225.848 298.472C225.942 298.391 226.839 293.235 227.842 287.014L229.665 275.702L227.618 273.995C226.492 273.057 225.082 271.587 224.485 270.73C223.22 268.914 222.324 269.155 222.267 271.327C222.245 272.169 221.48 275.671 220.567 279.109C218.487 286.942 217.397 287.58 216.293 281.61C215.516 277.402 212.782 269.292 211.82 268.336C211.494 268.013 211.275 268.486 211.275 269.513C211.275 271.544 209.657 276.93 208.561 278.545C208.136 279.171 207.634 281.097 207.446 282.825C206.982 287.073 203.945 294.273 202.709 294.055C201.994 293.929 201.698 292.765 201.441 289.062C201.256 286.406 200.6 282.853 199.983 281.166L198.861 278.098L197.482 282.135C195.712 287.315 193.734 290.379 189.933 293.826L186.88 296.594L187.796 292.688C189.161 286.862 188.982 280.474 187.285 274.516C185.454 268.087 185.271 257.016 186.916 252.192C187.926 249.233 187.915 249.044 186.499 244.508C185.7 241.951 184.849 238.389 184.607 236.594C184.178 233.402 184.125 233.329 182.247 233.325C181.19 233.324 179.542 232.943 178.585 232.48C176.465 231.453 175.541 231.84 172.397 235.07C166.262 241.372 166.179 249.309 172.171 256.656C173.454 258.228 174.503 259.606 174.503 259.718C174.503 260.261 168.221 262.336 166.575 262.336C164.335 262.336 164.245 262.651 166.076 264.093C168.783 266.225 171.802 267.74 176.336 269.239L180.938 270.762L176.648 272.643C173.675 273.947 171.204 274.593 168.601 274.748L164.844 274.972L164.538 279.603C164.148 285.528 162.036 291.912 160.466 291.912C159.609 291.912 159.261 291.326 158.978 289.406C158.548 286.499 156.16 281.57 153.991 279.114L152.484 277.408L152.462 282.912C152.436 289.328 153.358 296.208 154.618 299.007C155.903 301.861 155.781 302.18 153.665 301.495C151.32 300.736 146.175 296.458 144.396 293.786L143.026 291.729L142.266 295.186C141.4 299.124 141.028 299.855 137.341 304.853C134.419 308.813 134.182 309.868 135.63 312.467C136.582 314.175 136.576 314.191 135.171 313.801C132.522 313.066 130.85 311.713 129.845 309.492C129.295 308.275 128.656 307.277 128.426 307.274C127.568 307.262 123.718 312.17 123.297 313.811C123.057 314.748 122.218 316.667 121.433 318.075C120.648 319.482 119.85 321.565 119.66 322.703C118.94 327.021 115.442 329.966 109.999 330.839C108.735 331.042 107.704 331.132 107.708 331.04L107.712 331.039ZM214.976 327.442C217.277 325.396 219.549 321.33 219.057 320.14C218.543 318.897 217.164 318.434 215.284 318.872C214.148 319.136 213.603 319.817 213.078 321.625C212.641 323.133 211.415 324.923 209.784 326.437C208.349 327.769 207.486 328.974 207.855 329.132C209.468 329.821 213.331 328.904 214.976 327.442V327.442ZM114.189 327.808C116.954 326.243 118.219 323.342 117.999 319.069C117.833 315.837 117.687 315.498 116.387 315.327C115.601 315.223 114.442 315.572 113.812 316.101C112.845 316.914 112.721 317.607 113.017 320.555C113.271 323.092 113.096 324.648 112.374 326.248C111.828 327.46 111.382 328.547 111.382 328.666C111.382 329.134 112.39 328.826 114.189 327.808V327.808ZM96.9215 321.311C97.9096 320.433 99.5025 319.568 100.461 319.39C101.601 319.179 102.325 318.619 102.554 317.775C103.787 313.214 100.86 312.247 96.5285 315.785C93.356 318.377 92.0658 321.128 92.7222 323.902L93.1583 325.744L94.1416 324.326C94.6825 323.547 95.9334 322.19 96.9215 321.311V321.311ZM202.748 319.378C206.217 318.968 206.99 318.366 206.99 316.075C206.99 313.773 205.88 313.298 202.486 314.146C197.843 315.306 194.732 318.468 194.732 322.025C194.732 323.081 194.939 323.035 197.386 321.434C198.945 320.414 201.156 319.566 202.748 319.378V319.378ZM211.528 320.215C211.854 319.014 212.624 317.948 213.402 317.619C214.214 317.275 220.288 317.178 229.18 317.366L243.639 317.671L244.679 315.803C245.951 313.521 245.563 311.227 243.42 308.358L241.877 306.291L242.868 301.803C244.304 295.299 246.193 292.506 250.032 291.209C250.278 291.126 250.092 289.867 249.619 288.411L248.76 285.765L250.862 285.399C253.149 285.001 255.77 282.26 254.299 281.805C252.817 281.346 249.841 278.684 248.878 276.955C248.083 275.529 247.985 274.124 248.332 269.153C248.749 263.183 248.731 263.064 247.153 261.324C246.026 260.081 244.313 259.194 241.379 258.335C239.084 257.663 236.437 256.543 235.497 255.848L233.787 254.582L237.562 253.305C239.638 252.603 241.211 251.84 241.058 251.609C240.904 251.379 238.82 250.051 236.427 248.658C232.571 246.414 232.235 246.084 233.476 245.756C234.246 245.552 236.186 245.361 237.787 245.329C239.388 245.298 240.698 245.131 240.698 244.958C240.698 244.701 235.396 237.799 233.206 235.204C232.828 234.756 233.992 234.881 236.567 235.565C248.736 238.794 254.712 236.904 258.841 228.52C260.143 225.876 262.148 217.248 262.148 214.289C262.148 213.596 262.729 212.542 263.439 211.946C267.136 208.844 267.827 204.293 265.893 195.798C263.836 186.76 266.424 183.348 276.832 181.377C280.38 180.706 280.535 180.61 279.492 179.735C277.596 178.142 271.749 175.895 269.503 175.895C266.326 175.895 261.174 178.33 259.664 180.545C258.547 182.184 258.424 183.024 258.704 187.117C258.96 190.87 258.855 191.809 258.179 191.809C257.613 191.809 257.193 190.764 256.908 188.645C256.082 182.512 257.35 179.151 261.402 176.737C263.668 175.387 263.873 174.995 264.371 171.06C264.885 166.999 263.287 162.361 260.294 159.231L258.011 156.843L258.641 159.698C259.652 164.281 258.932 166.167 254.381 170.854C248.798 176.604 247.909 178.636 248.13 185.13C248.255 188.795 248.09 190.375 247.567 190.537C247.16 190.663 246.827 190.64 246.827 190.485C246.827 190.33 246.442 188.325 245.971 186.03C243.409 173.528 243.395 164.453 245.928 158.52C246.788 156.506 247.329 156.085 250.391 155.053C252.819 154.234 253.824 153.608 253.707 152.987C253.585 152.338 253.887 152.18 254.819 152.406C255.793 152.642 256.886 151.961 259.398 149.555C264.615 144.557 267.673 137.684 269.796 126.185C271.317 117.946 271.11 117.52 268.023 122.536C262.574 131.388 254.986 140.581 253.725 139.858C253.27 139.596 254.123 137.258 256.303 132.792C259.801 125.626 262.31 118.784 263.72 112.572C264.869 107.511 264.793 106.762 263.45 109.908C259.451 119.274 249.109 134.136 247.091 133.417C246.396 133.17 246.54 132.632 247.801 130.75C253.421 122.367 256.182 113.45 256.09 103.981C256.021 96.9861 254.974 90.9415 254.857 96.8638C254.769 101.282 253.676 106.344 252.249 108.94C251.585 110.148 248.669 113.483 245.769 116.352C236.597 125.424 233.956 130.317 233.956 138.239C233.956 141.488 234.397 143.666 235.844 147.578L237.731 152.679L236.654 159.454C235.721 165.317 235.678 166.936 236.33 171.481C237.396 178.909 239.332 183.717 242.41 186.573C245.214 189.175 246.418 191.097 248.12 195.688C249.513 199.446 249.534 199.772 248.383 199.772C247.848 199.772 247.205 198.801 246.788 197.364C244.858 190.712 241.035 186.503 236.05 185.543C230.049 184.387 226.129 181.045 223.803 175.102L222.44 171.618L222.016 174.218C221.132 179.646 223.952 184.345 230.931 189.071L235.215 191.971L231.756 193.276C229.853 193.993 227.639 195.153 226.836 195.853C225.151 197.323 224.89 200.095 226.276 201.796C227.137 202.852 227.177 202.831 227.195 201.31C227.221 199.22 229.565 197.104 232.402 196.61C235.056 196.148 235.193 196.26 236.953 200.341C237.695 202.061 238.778 204.001 239.359 204.65C241.451 206.988 245.755 209.391 249.088 210.083L252.485 210.789L252.09 213.954C251.573 218.108 249.49 221.914 246.827 223.572C244.975 224.725 244.137 224.872 240.698 224.647C238.185 224.483 235.197 223.78 232.604 222.744C228.765 221.209 227.632 220.257 215.414 208.303L202.333 195.506L198.498 195.111C186.769 193.901 178.199 188.185 174.745 179.271C174.144 177.721 173.5 176.463 173.314 176.476C173.128 176.488 171.766 178.301 170.289 180.504C165.102 188.235 158.152 191.329 150.736 189.21C150.213 189.061 150.741 188.05 152.313 186.208C154.701 183.405 156.542 180.066 155.985 179.549C155.819 179.395 153.954 180.027 151.841 180.955C149.727 181.882 146.654 182.961 145.012 183.351C143.369 183.742 142.026 184.246 142.026 184.472C142.026 185.185 150.074 191.769 155.864 195.793C161.152 199.467 170.858 205.288 180.396 210.505L184.752 212.887L185.191 222.397C185.671 232.808 186.718 239.623 188.694 245.199C189.967 248.79 189.968 248.855 188.832 252.309C187.101 257.569 187.234 267.907 189.113 274.28C190.554 279.164 191.101 287.214 190.196 290.205L189.765 291.627L191.115 290.205C192.961 288.26 195.664 282.598 196.503 278.92C197.073 276.42 197.026 275.419 196.236 273.261C194.572 268.711 194.467 264.282 195.895 258.845C197.4 253.111 197.502 248.744 196.204 245.557C191.678 234.451 190.855 230.993 191.772 226.935C192.388 224.209 193.051 223.331 194.061 223.91C194.376 224.091 194.253 225.338 193.775 226.813C192.719 230.069 193.2 232.59 196.527 241.245C199.447 248.841 199.643 251.695 197.745 258.923C196.021 265.483 196.468 269.568 199.612 275.986C201.658 280.163 202.473 282.717 203.517 288.214C203.847 289.949 205.167 286.628 205.553 283.095C205.724 281.531 206.525 278.823 207.334 277.078C208.949 273.592 210.066 267.6 209.616 264.834C209.407 263.552 209.604 262.969 210.33 262.71C211.539 262.279 212.817 264.792 216.06 273.974L218.262 280.21L219.37 276.249C219.979 274.071 220.655 270.305 220.873 267.881C221.16 264.684 221.501 263.473 222.116 263.473C222.582 263.473 223.113 263.921 223.296 264.469C224.266 267.377 225.71 269.556 228.452 272.246L231.496 275.233L229.556 287.85L227.615 300.466L221.133 300.118C217.568 299.926 212.997 299.52 210.974 299.214C202.111 297.875 202.088 297.876 202.088 299.407C202.088 300.17 201.683 301.291 201.188 301.898C199.899 303.479 200.013 303.721 202.241 304.137C205.758 304.794 206.45 305.076 206.207 305.752C206.072 306.127 205.125 306.334 204.028 306.23C202.168 306.052 202.088 306.13 202.088 308.115C202.088 309.254 201.788 310.706 201.422 311.34C200.712 312.572 200.553 312.561 204.348 311.552C206.058 311.097 208.829 313.226 208.829 314.995C208.829 315.981 209.1 316.196 210.055 315.964C211.892 315.518 211.541 316.737 209.296 318.599C207.325 320.232 207.32 320.253 208.485 321.448C210.03 323.033 210.853 322.699 211.528 320.215L211.528 320.215ZM107.527 315.694C108.553 313.114 109.302 311.986 109.855 312.183C110.51 312.416 110.439 313.097 109.494 315.647C108.008 319.654 108.017 319.78 109.764 319.78C110.987 319.78 111.165 319.554 110.912 318.324C110.693 317.26 111.077 316.416 112.337 315.195C114.596 313.007 117.514 312.91 119.255 314.965L120.476 316.405L121.457 313.4C122.141 311.307 123.443 309.375 125.748 307.03L129.058 303.665L130.893 307.315C132.335 310.185 132.738 310.647 132.779 309.476C132.809 308.657 134.348 305.874 136.2 303.291C138.052 300.708 139.881 297.538 140.265 296.248C140.668 294.889 140.992 288.938 141.034 282.101C141.084 273.869 141.312 270.299 141.787 270.299C142.695 270.298 143.239 274.88 143.246 282.581L143.25 288.891L145.595 292.258C147.725 295.316 151.662 299.082 152.204 298.58C152.324 298.468 152.136 297.498 151.787 296.424C150.943 293.832 150.356 277.418 151.01 274.69L151.524 272.541L154.757 276.985C156.534 279.429 158.65 282.937 159.457 284.781L160.926 288.134L161.975 284.784C162.751 282.307 162.931 280.318 162.667 277.146L162.309 272.858L166.259 273.048C168.955 273.178 171.091 272.926 172.987 272.254L175.764 271.27L171.501 269.356C166.365 267.05 159.344 260.97 160.423 259.762C160.967 259.154 161.385 259.165 162.741 259.821C163.65 260.262 165.112 260.624 165.989 260.626C167.445 260.628 171.443 259.599 171.443 259.221C171.443 259.133 170.474 257.569 169.291 255.745C166.72 251.782 165.935 249.386 165.93 245.486C165.925 240.274 169.139 234.542 173.701 231.634L175.652 230.39L174.469 228.589C172.864 226.145 172.878 221.222 174.499 218.271C175.631 216.21 175.646 215.982 174.711 215.023C174.157 214.455 173.472 213.991 173.188 213.991C172.904 213.991 170.078 215.776 166.909 217.958C163.739 220.14 159.671 222.461 157.867 223.115C146.319 227.303 139.511 232.336 123.639 248.416C113.615 258.573 110.901 260.274 104.723 260.274H100.798L102.566 261.588C108.635 266.102 115.527 266.324 120.429 262.163C121.528 261.231 121.973 261.131 122.571 261.686C123.169 262.241 122.86 262.766 121.086 264.209C118.106 266.635 117.111 268.311 116.624 271.72C116.047 275.765 115.125 278.274 113.45 280.356C112.649 281.352 111.994 282.344 111.994 282.561C111.994 283.149 116.78 282.329 118.647 281.422C120.994 280.281 124.056 277.328 126.845 273.517C128.587 271.136 129.469 270.363 129.942 270.801C130.415 271.24 129.753 273.059 127.62 277.187C124.96 282.334 124.608 283.469 124.371 287.651L124.106 292.343L115.139 295.549C110.207 297.313 105.835 298.751 105.424 298.746C105.013 298.741 103.082 297.987 101.134 297.072C95.8504 294.589 94.4716 294.38 94.0062 295.993C93.2312 298.678 93.5293 299.242 96.0596 299.874C98.3603 300.449 98.9638 300.97 98.1751 301.702C97.9904 301.874 96.7556 301.759 95.4313 301.447C91.6825 300.564 90.8294 301.189 93.0153 303.218C95.2324 305.275 95.317 307.017 93.3319 309.732C92.5005 310.869 92.0901 311.935 92.4126 312.12C93.098 312.513 93.4862 312.315 97.8042 309.379C100.163 307.775 101.268 307.324 101.747 307.768C102.113 308.108 102.293 308.478 102.147 308.59C102.001 308.702 100.296 309.866 98.3578 311.177C94.53 313.765 93.4234 315.516 97.0644 313.223C99.7549 311.528 102.226 311.423 103.705 312.94C104.556 313.812 104.733 314.702 104.5 316.947C104.066 321.138 105.616 320.497 107.526 315.694L107.527 315.694ZM192.621 312.621C193.761 312.179 195.657 311.818 196.836 311.818C199.284 311.818 200.444 310.457 200.133 307.951C199.978 306.707 199.592 306.384 198.103 306.254C193.876 305.883 187.991 310.494 187.991 314.177V315.799L189.27 314.612C189.974 313.959 191.482 313.063 192.621 312.621V312.621ZM83.8024 311.148C84.6451 310.583 86.7136 309.96 88.399 309.763C91.6567 309.383 92.9955 308.396 92.9955 306.375C92.9955 304.058 91.4881 303.551 87.8036 304.628C83.8193 305.794 80.738 308.704 80.738 311.302C80.738 313.124 80.8638 313.118 83.8024 311.148V311.148ZM196.285 302.254C198.861 301.912 199.392 301.621 199.905 300.265C201.22 296.796 197.863 295.815 192.83 298.198C190.083 299.498 187.996 302.24 187.993 304.554L187.991 306.107L190.629 304.381C192.232 303.333 194.452 302.498 196.285 302.254H196.285ZM196.337 304.018C196.042 303.744 191.668 305.386 191.668 305.771C191.668 305.918 192.774 305.635 194.126 305.143C195.478 304.65 196.473 304.143 196.337 304.018V304.018ZM87.7988 298.843C90.2061 298.523 90.9967 298.132 91.7488 296.888C93.776 293.536 89.6036 292.188 84.6224 294.586C82.094 295.804 80.4987 297.901 79.8251 300.893L79.4036 302.765L82.0963 301.004C83.746 299.925 85.9548 299.088 87.7988 298.843V298.843ZM183.49 226.077C183.272 223.027 183.093 219.066 183.091 217.276C183.089 214.249 182.961 213.959 181.286 213.155C178.913 212.017 171.24 209.439 170.97 209.69C170.854 209.798 172.553 211.256 174.745 212.93C178.656 215.917 178.71 215.996 177.615 217.115C175.735 219.038 175.12 220.621 175.12 223.538C175.12 227.952 178.407 231.591 182.414 231.614L183.885 231.623L183.49 226.078V226.077ZM245.601 222.372C247.303 221.591 249.61 217.654 250.214 214.499L250.607 212.447L247.425 211.481C241.171 209.583 236.979 205.894 234.916 200.475C234.261 198.756 233.835 198.38 232.685 198.505C231.903 198.591 230.733 199.102 230.085 199.643C229.061 200.496 228.951 201.165 229.239 204.75L229.572 208.875L227.436 206.503C222.926 201.493 222.34 198.233 225.373 195.027C226.383 193.96 228.01 192.779 228.989 192.403L230.768 191.719L226.322 187.64C222.829 184.436 221.645 182.909 220.798 180.517C219.454 176.722 219.89 172.923 222.138 168.838L223.739 165.93L224.556 170.357C225.528 175.63 226.989 178.496 229.926 180.889C231.97 182.554 236.665 184.366 237.332 183.747C237.5 183.591 237.086 181.978 236.412 180.162C234.328 174.539 233.653 167.488 234.594 161.171C235.722 153.608 235.627 151.66 233.942 147.73C232.736 144.915 232.475 143.272 232.454 138.345C232.442 135.061 232.669 131.542 232.963 130.525L233.496 128.677H231.008C229.64 128.677 227.882 128.452 227.101 128.178L225.682 127.68L225.653 133.155C225.626 138.135 225.414 139.116 223.298 144.014C220.56 150.351 220.62 151.889 223.83 157.735L225.902 161.509L223.576 162.155C219.907 163.176 216.661 162.93 213.375 161.383C211.717 160.602 210.323 159.962 210.276 159.961C210.23 159.96 210.085 161.723 209.954 163.88C209.763 167.006 209.251 168.65 207.43 171.985C204.914 176.592 204.622 178.899 206.07 182.709C207.311 185.973 207.27 186.121 205.111 186.121C202.989 186.121 201.193 185.382 199.176 183.676L197.797 182.511V184.467C197.797 185.543 198.417 187.489 199.176 188.791C200.463 191.002 228.133 218.745 230.239 219.937C234.817 222.527 242.579 223.757 245.601 222.372H245.601ZM89.2616 206.055C91.2337 205.131 96.0775 202.032 100.025 199.168C107.441 193.789 109.693 193.1 107.135 196.994C106.298 198.267 105.873 199.882 105.877 201.762C105.885 205.138 106.726 206.887 107.307 204.738C108.168 201.556 112.728 196.396 118.593 191.968C126.311 186.141 126.225 186.185 126.079 188.19C125.843 191.442 126.122 192.392 127.836 194.173L129.582 195.986L129.984 193.173C130.779 187.608 134.869 184.155 143.054 182.136C145.811 181.456 150.086 179.963 152.554 178.818L157.041 176.737L157.38 173.324C157.567 171.447 157.567 168.393 157.38 166.536L157.041 163.161L155.538 166.148C153.49 170.218 150.241 172.85 146.649 173.35C143.299 173.817 141.236 173.49 137.106 171.842C133.417 170.369 133.703 169.746 138.871 167.997C141.389 167.145 142.648 166.363 143.151 165.338C143.879 163.856 144.164 156.546 143.494 156.546C143.291 156.546 141.718 157.72 139.998 159.155C136.485 162.086 132.832 163.96 128.081 165.268C124.518 166.249 117.776 170.361 105.347 179.132C96.1783 185.603 96.3792 185.564 92.9131 181.561C90.6182 178.911 89.0119 178.475 89.9462 180.755C90.275 181.558 90.544 182.927 90.544 183.798V185.382L86.1007 184.644C80.6246 183.735 76.742 183.66 75.1819 184.435C73.5537 185.244 73.6957 187.36 75.4993 189.167C76.7077 190.377 77.5585 190.672 79.8405 190.672C83.2178 190.672 83.417 191.999 80.0777 192.253C77.0275 192.485 75.4073 193.426 74.2879 195.615C71.6015 200.869 77.1824 204.756 82.2557 201.165C85.0493 199.188 85.9987 200.483 83.2772 202.559C81.3696 204.015 80.9891 205.061 81.7226 206.835C82.299 208.229 85.2787 207.92 89.2614 206.055H89.2616ZM199.458 192.51C197.25 190.246 195.985 186.483 195.972 182.136C195.967 179.788 195.664 176.973 195.305 175.88C193.765 171.193 195.136 155.568 197.141 154.948C197.822 154.737 197.898 155.227 197.532 157.465C195.312 171.047 196.453 178.791 201.252 182.702C203.614 184.626 204.896 184.935 204.235 183.42C203.996 182.872 203.658 180.888 203.485 179.01C203.192 175.846 203.343 175.305 205.539 171.617C207.815 167.794 207.911 167.417 207.97 162.082C208.004 159.027 208.215 156.357 208.439 156.149C208.663 155.941 209.739 156.572 210.829 157.551C213.204 159.684 216.627 161.099 219.381 161.087C222.913 161.073 223.146 160.537 221.254 156.788C218.889 152.1 219.018 148.522 221.756 142.896C223.668 138.966 223.832 138.181 223.838 132.942C223.842 128.069 223.639 126.899 222.415 124.77C221.321 122.866 221.156 122.134 221.713 121.642C222.258 121.159 222.614 121.27 223.141 122.087C224.613 124.367 226.972 126.375 228.593 126.727C230.251 127.088 230.963 126.292 229.654 125.542C228.76 125.029 226.024 119.863 225.019 116.789C224.548 115.35 224.16 112.926 224.157 111.402C224.152 108.634 224.152 108.632 225.529 109.552C228.524 111.553 231.557 112.751 233.625 112.751C236.198 112.751 236.309 112.437 234.262 110.943C233.419 110.328 231.971 108.627 231.045 107.164C229.444 104.637 229.354 104.108 229.25 96.5891C229.156 89.8445 228.971 88.4632 227.993 87.2485C225.845 84.5779 225.188 84.5287 221.985 86.7984C219.946 88.2431 218.835 88.7084 218.396 88.3012C217.958 87.894 218.505 87.1414 220.163 85.8701C221.484 84.8574 223.036 83.6449 223.611 83.1757C224.187 82.7064 225.969 80.1965 227.571 77.598C229.702 74.1421 230.498 72.2352 230.535 70.4963C230.583 68.2039 230.494 68.0895 228.024 67.2894C225.735 66.5482 224.716 66.5684 218.453 67.4799L211.444 68.5L204.467 66.1835C189.03 61.058 184.892 60.9004 183.939 65.4019L183.547 67.2504H186.568C191.046 67.2504 195.08 69.3635 199.589 74.0715C202.376 76.9819 203.894 78.1065 205.386 78.3663C207.876 78.7999 211.825 77.8643 213.901 76.3487C215.748 75.0002 216.183 74.9386 216.183 76.0249C216.183 78.4295 208.519 80.9342 204.395 79.8774C202.6 79.4175 201.368 79.5212 198.38 80.3842C194.17 81.6004 191.544 81.7524 189.791 80.8816C188.208 80.0954 186.406 76.6608 185.907 73.4764C185.514 70.9718 185.566 70.8559 187.512 69.9579L189.523 69.0294L187.179 68.993C183.811 68.9406 170.494 74.9754 167.879 77.7395C165.344 80.4189 165.317 82.2344 167.798 83.188C169.162 83.7124 169.554 84.1545 169.246 84.8211C169.013 85.3239 168.521 86.721 168.151 87.9258C167.537 89.9268 167.604 90.2098 168.916 91.1961C169.757 91.8279 171.307 92.2759 172.653 92.2759C176.182 92.2759 181.355 91.2256 182.48 90.2805C183.635 89.3104 185.725 89.1802 187.332 89.9782C189.206 90.909 191.09 95.9329 191.478 101.035C192.089 109.078 189.764 114.458 185.675 114.458C184.707 114.458 181.941 113.818 179.529 113.036C177.117 112.254 174.508 111.614 173.733 111.614C172.375 111.614 172.331 111.76 172.558 115.495C172.788 119.271 172.742 119.418 170.846 120.899C169.296 122.109 169.13 122.42 170.034 122.42C171.334 122.42 172.817 121.535 175.688 119.047C178.532 116.581 182.213 116.578 184.864 119.038C187.525 121.507 188.371 124.455 187.179 127.102C185.156 131.596 179.835 132.165 168.685 129.079C158.714 126.319 154.463 125.636 149.223 125.951C141.848 126.394 136.996 129.029 132.685 134.933C128.654 140.453 125.239 142.861 119.349 144.335L116.591 145.026L119.349 146.223C123.965 148.228 125.915 147.807 133.848 143.098C137.074 141.183 137.22 141.15 136.821 142.417C136.59 143.149 135.209 146.052 133.752 148.868C130.298 155.544 126.446 159.258 117.731 164.318C116.203 165.205 122.477 164.739 127.607 163.584C135.339 161.845 139.627 158.26 143.948 149.926C147.478 143.115 152.017 138.599 153.338 140.583C153.533 140.876 152.354 142.356 150.719 143.874C146.683 147.62 145.703 150.474 145.7 158.496C145.698 166.084 144.814 168.01 140.829 169.118C139.464 169.497 138.348 170.003 138.348 170.242C138.348 171.093 142.828 172.031 145.539 171.747C147.054 171.589 149.021 170.965 149.909 170.361C152.468 168.622 155.265 163.077 156.637 157.024C158.268 149.833 162.003 143.008 163.532 144.427C164.009 144.869 163.671 145.716 162.332 147.432C159.517 151.037 158.368 155.375 158.881 160.455C160.07 172.232 159.041 179.694 155.481 185.096C153.922 187.463 153.841 187.8 154.768 188.064C156.395 188.527 160.338 187.489 162.581 186.008C164.782 184.555 168.506 180.371 170.832 176.737C172.158 174.666 172.297 173.773 172.373 166.784C172.462 158.714 173.247 154.789 175.878 149.264C176.818 147.289 177.507 146.487 178.015 146.779C178.578 147.102 178.311 148.296 176.946 151.557C171.77 163.928 173.724 178.294 181.654 186.16C185.757 190.231 193.026 193.36 198.658 193.478C200.322 193.513 200.374 193.45 199.457 192.51L199.458 192.51ZM247.647 176.31C248.108 175.294 250.195 172.713 252.286 170.576C256.312 166.462 257.245 164.887 257.245 162.208C257.245 160.863 255.757 156.344 255.031 155.484C254.935 155.37 253.317 155.868 251.436 156.591C248.188 157.841 247.974 158.05 247.157 160.781C245.737 165.525 245.469 168.253 245.925 173.329C246.164 175.985 246.46 178.159 246.584 178.159C246.708 178.159 247.187 177.327 247.647 176.31V176.31ZM126.54 155.765C129.594 152.734 133.862 146.505 133.263 145.95C133.17 145.863 131.479 146.549 129.506 147.472C123.834 150.128 119.594 149.432 114.14 144.952L111.688 142.938L114.794 142.917C118.859 142.889 123.489 141.564 125.784 139.772L127.623 138.337L124.865 136.055C121.061 132.908 111.123 128.472 103.414 126.478L96.9791 124.815L95.9788 126.888C93.9338 131.126 89.47 133.443 84.5332 132.828C82.1827 132.535 82.1591 132.551 82.4279 134.251C82.6615 135.728 83.1419 136.117 85.8482 137.02C90.2092 138.474 90.3685 139.813 86.2246 140.183C83.6425 140.413 82.6781 140.83 80.8945 142.485L78.7168 144.506L83.5578 144.198C87.9607 143.918 88.9814 144.073 94.834 145.905C98.3734 147.013 102.34 148.343 103.648 148.859L106.027 149.799L103.87 151.159C101.775 152.48 100.35 154.961 100.35 157.288C100.35 158.332 100.441 158.354 101.422 157.544C104.282 155.185 108.441 155.287 115.672 157.894C121.709 160.071 122.32 159.951 126.54 155.765V155.765ZM83.8023 138.345C83.8023 138.033 83.5265 137.777 83.1895 137.777C82.8524 137.777 82.5766 138.033 82.5766 138.345C82.5766 138.658 82.8524 138.914 83.1895 138.914C83.5265 138.914 83.8023 138.658 83.8023 138.345V138.345ZM79.7952 132.408C79.055 130.96 77.8759 130.002 75.5188 128.932C71.3683 127.047 68.8643 127.202 68.596 129.359C68.2656 132.016 69.3369 133.049 72.7369 133.352C74.5993 133.518 76.7206 134.19 78.1208 135.057C80.2461 136.373 80.4471 136.405 80.6244 135.447C80.7306 134.875 80.3575 133.507 79.7952 132.408V132.408ZM67.9121 133.434C66.4894 131.756 66.2469 128.827 67.4087 127.352C67.8304 126.817 69.0026 126.16 70.0135 125.893L71.8514 125.407L70.0127 124.717C67.1468 123.642 62.9584 124.303 61.2995 126.093C60.53 126.923 59.9003 128.193 59.9003 128.916C59.9003 131.619 64.1415 134.854 67.7589 134.911L69.1824 134.934L67.9121 133.436V133.434ZM86.9229 126.851C88.5215 123.967 88.4332 123.529 85.7659 121.111C82.9569 118.566 81.9805 119.044 82.4299 122.744C82.5981 124.13 82.391 126.407 81.9697 127.804C81.5482 129.2 81.3827 130.777 81.6017 131.307C81.9478 132.144 82.2457 132.053 83.8766 130.615C84.9087 129.705 86.2796 128.011 86.9229 126.851ZM92.498 128.737C95.2097 125.929 96.4465 119.897 94.4559 119.188C93.9108 118.994 92.7387 119.071 91.8512 119.36C90.4337 119.822 90.1915 120.282 89.8587 123.145C89.6126 125.259 88.9137 127.197 87.8669 128.665C86.9797 129.909 86.2538 131.034 86.2538 131.164C86.2538 131.294 87.2881 131.185 88.5521 130.922C89.8639 130.649 91.5576 129.711 92.498 128.737V128.737ZM77.8669 126.45C75.8075 123.791 74.0953 122.67 73.2675 123.438C72.5483 124.105 74.7703 126.424 77.3672 127.716C78.3785 128.219 79.2926 128.641 79.3988 128.654C79.5049 128.666 78.8156 127.674 77.8669 126.45V126.45ZM80.738 123.926C80.738 120.833 78.8412 118.075 75.5105 116.324C72.4145 114.697 71.0678 114.696 70.2695 116.322C69.3618 118.171 70.4931 120.714 72.2235 120.714C74.0356 120.714 77.386 122.723 78.9301 124.735C79.6333 125.652 80.3277 126.402 80.4733 126.402C80.6189 126.402 80.738 125.288 80.738 123.926V123.926ZM70.201 122.562C70.0801 122.328 69.4681 121.203 68.8415 120.063C67.6115 117.825 67.8187 115.722 69.4152 114.24C70.2505 113.465 70.2225 113.312 69.1483 112.778C66.1966 111.312 60.9054 113.094 60.1735 115.801C59.7698 117.293 61.0129 120.015 62.6875 121.305C63.2536 121.741 64.9955 122.264 66.5584 122.467C68.1212 122.671 69.6298 122.871 69.9107 122.913C70.1916 122.955 70.3224 122.797 70.2012 122.562H70.201ZM93.2547 117.301C95.7492 117.301 95.9329 116.715 94.559 113.14C93.1337 109.431 90.01 107.171 87.3798 107.946C86.4424 108.222 86.2878 108.643 86.5845 110.111C86.7992 111.175 86.5553 112.992 85.9994 114.475C84.8056 117.658 84.7936 117.44 86.258 119.168L87.4878 120.619L89.2752 118.96C90.5835 117.746 91.6501 117.301 93.2547 117.301ZM80.7577 115.961C80.4687 114.771 80.1248 113.699 79.9933 113.577C79.862 113.455 78.7238 113.51 77.4643 113.7L75.1743 114.045L76.8837 115.023C77.8238 115.561 79.1199 116.551 79.7639 117.223C81.2604 118.786 81.4009 118.607 80.7577 115.961V115.961ZM84.7635 112.46C85.1847 110.376 84.0175 107.426 81.6159 104.504C79.293 101.678 77.2608 101.926 76.1919 105.166C75.8739 106.13 76.3752 106.936 78.5048 108.884C80.1923 110.428 81.5241 112.303 82.0158 113.826C82.7291 116.035 82.8875 116.179 83.6039 115.27C84.0416 114.714 84.5634 113.45 84.7635 112.46V112.46ZM188.147 110.971C188.926 109.999 189.457 108.187 189.664 105.795L189.982 102.115L187.991 101.746C185.358 101.257 179.41 101.271 179.41 101.767C179.41 101.982 179.982 104.093 180.68 106.459C182.514 112.679 185.387 114.415 188.147 110.972V110.971ZM78.1191 111.237C78.2475 110.874 77.5337 110.128 76.533 109.579C74.3526 108.384 73.8195 106.419 74.892 103.53C75.3232 102.368 75.5279 101.281 75.3469 101.113C75.1658 100.945 73.9481 100.807 72.6407 100.807C69.378 100.807 66.9579 102.984 67.4878 105.443C68.0032 107.834 69.9167 110.148 72.2915 111.251C74.5072 112.279 77.7536 112.272 78.1191 111.239V111.237ZM179.797 109.765C179.593 109.061 179.419 108.23 179.409 107.917C179.402 107.604 179.124 107.732 178.798 108.201C177.876 109.524 178.079 111.045 179.176 111.045C179.904 111.045 180.068 110.706 179.797 109.765ZM177.445 106.202C178.872 101.249 179.02 101.376 171.859 101.376C159.751 101.376 155.117 98.1485 152.479 87.8795C151.206 82.9233 146.592 80.1923 141.106 81.1474C139.926 81.3528 138.961 81.6644 138.961 81.8398C138.961 82.0152 139.685 82.6874 140.57 83.3335C143.176 85.2354 144.448 88.5644 144.463 93.5185C144.478 98.3263 145.1 100.41 147.122 102.425C150.312 105.604 155.693 107.019 166.234 107.45C170.616 107.629 174.615 107.992 175.12 108.256C176.563 109.008 176.661 108.922 177.445 106.202ZM189.618 99.2432C189.456 98.6957 189.154 97.314 188.947 96.1727C188.498 93.6902 186.485 91.1383 184.977 91.1383C183.379 91.1383 182.128 92.7442 181.071 96.1525C180.009 99.5788 179.965 99.533 184.62 99.8347C186.305 99.9441 188.185 100.08 188.798 100.136C189.585 100.208 189.826 99.9469 189.618 99.2432V99.2432ZM179.41 95.7349C179.41 95.4477 179.578 94.8079 179.782 94.313C180.053 93.6596 179.783 93.4133 178.798 93.4133C177.812 93.4133 177.543 93.6596 177.813 94.313C178.017 94.8079 178.185 95.4477 178.185 95.7349C178.185 96.0221 178.461 96.2572 178.798 96.2572C179.135 96.2572 179.41 96.0222 179.41 95.7349V95.7349ZM197.184 78.9807C198.701 78.5599 199.942 77.9478 199.942 77.6204C199.942 77.2931 198.701 75.795 197.184 74.2915L194.426 71.5577L194.104 74.0963C193.71 77.1921 193.175 78.0568 191.653 78.0568C190.111 78.0568 189.067 76.1383 189.108 73.3805C189.135 71.5907 188.98 71.2742 188.328 71.7767C187.489 72.4232 187.758 74.4322 189.105 77.5706C190.108 79.9091 192.397 80.3086 197.184 78.9807V78.9807Z" fill="black"/>
<path d="M79.0742 144.823C82.4749 140.8 86.1229 139.305 89.973 139.876L96.9953 138.264L110.534 146.88L115.871 157.776C108.447 155.136 104.096 156.473 100.535 158.832C101.083 154.618 102.301 151.01 106.265 149.882C95.1605 145.474 86.7607 144.673 79.0742 144.823V144.823Z" fill="#FB8710"/>
</g>
<defs>
<clipPath id="clip0_1_2571">
<rect width="600" height="400" fill="white"/>
</clipPath>
</defs>
</svg>
