<svg width="600" height="400" viewBox="0 0 600 400" fill="none" xmlns="http://www.w3.org/2000/svg" xmlns:cgf="https://coding.garden/flags"><metadata id="cgf-metadata">

<cgf:flag>
  <cgf:name>Druten</cgf:name>
  <cgf:route>nl/ge/druten</cgf:route>
  <cgf:aspect-ratio>1.5</cgf:aspect-ratio>
</cgf:flag>

</metadata><g clip-path="url(#clip0_1_2630)">
<path d="M0.0281372 0.0327148L0.516435 399.974L599.515 399.771L599.976 2.23719L0.0281372 0.0327148Z" fill="#F9F9F9" stroke="black" stroke-width="0.0789933"/>
<path d="M0.3573 0.166992L0.373648 399.806L197.053 400.016L196.97 0.593119L0.3573 0.166992Z" fill="black" stroke="black" stroke-width="0.0456833"/>
<path d="M196.9 137.799L196.959 267.549L599.449 267.87L599.678 137.68L196.9 137.799H196.9V137.799Z" fill="#078930" stroke="black" stroke-width="0.0372244"/>
<path d="M97.0513 216.12C110.741 217.288 151.972 235.561 157.724 251.913C161.606 259.677 165.085 267.904 174.618 269.175C166.83 281.279 157.273 275.023 147.731 268.921C155.085 275.695 145.127 281.892 138.928 288.214C143.91 295.907 146.868 302.52 157.724 313.346C157.473 302.256 164.276 295.815 172.952 305.73C182.069 312.864 171.272 323.37 164.149 319.438L165.814 323.5C174.309 321.712 180.889 325.776 176.521 338.731C170.051 343.98 163.688 348.828 162.483 334.416C161.051 332.982 157.302 330.378 157.01 337.208C163.81 348.146 158.182 349.844 150.348 349.901C130.881 344.174 144.852 337.787 147.493 331.623C145.082 331.776 142.689 331.984 139.403 329.339C139.629 336.941 135.777 340.193 127.031 338.223C118.865 332.723 123.711 327.223 128.696 321.723C124.945 319.091 119.448 322.046 113.945 325.023C113.656 320.329 114.303 315.435 118.465 309.792C110.891 307.736 107.122 311.127 103.951 315.377C102.721 309.946 102.575 304.244 105.141 297.861C100.984 298.799 96.9712 298.208 93.4824 292.022C101.25 289.132 108.501 280.037 115.372 266.383C112.536 264.916 109.908 262.671 107.52 259.529C107.384 263.589 106.907 267.672 103.238 271.968C100.676 262.245 93.2402 255.831 85.8685 249.375C81.8861 233.944 77.8318 218.473 97.0513 216.12V216.12Z" fill="#FCDD09"/>
<path d="M83.8461 219.166C88.8793 213.408 94.2698 208.08 101.81 205.331L105.141 207.489C101.078 212.71 96.5561 216.78 93.8393 225.386C108.312 236.124 96.832 248.937 84.4409 240.998" fill="#FCDD09"/>
<path d="M83.8461 219.166C88.8793 213.408 94.2698 208.08 101.81 205.331L105.141 207.489C101.078 212.71 96.5561 216.78 93.8393 225.386C108.312 236.124 96.832 248.937 84.4409 240.998" stroke="black" stroke-width="2.46937"/>
<path d="M112.279 151.895C102.898 174.479 92.695 195.618 88.4858 227.289C89.3477 243.969 95.3337 250.399 89.4375 280.599C87.8184 294.245 91.0602 307.315 98.0031 319.946C90.583 318.584 83.347 316.786 78.7305 308.777C73.1789 310.511 68.1919 310.136 63.2648 309.538C79.2277 309.491 72.6921 327.503 85.8685 342.539C88.7269 331.104 98.7066 331.56 101.81 345.078C104.28 352.724 99.4866 360.999 91.103 353.201L90.1513 361.324C98.6697 357.068 106.867 362.01 102.286 372.494C94.2873 381.812 83.7822 381.106 85.1547 365.132L79.4443 363.863C86.639 373.767 83.3605 378.313 74.2098 379.856C54.4443 373.123 68.2484 366.022 71.1166 362.086L67.5476 356.501C64.0361 364.639 57.4725 363.008 50.4164 359.801C39.3782 347.353 52.9065 343.373 57.5544 344.062C53.3154 333.38 44.7628 333.053 35.1887 335.177C34.7018 325.501 39.3548 319.651 48.513 317.154C43.5001 314.056 38.5502 310.885 28.2886 313.854C29.3433 306.351 32.7187 301.037 39.7095 299.13C33.3288 294.522 27.5485 288.792 24.7197 277.552C34.8694 279.736 44.9901 281.687 54.6993 280.345L54.9372 267.144C47.6548 270.461 43.2287 265.847 39.2336 260.037C50.4867 258.82 55.6805 249.565 55.651 233.382C48.1011 235.703 41.0704 236.085 35.3077 231.732C28.3975 224.444 21.0283 237.284 26.6231 246.582C15.2108 242.204 13.4303 219.073 25.0766 216.374C18.8889 204.62 24.0636 187.312 33.0473 168.141C39.8345 153.583 40.9657 141.737 41.7071 133.404C44.424 102.871 23.6982 105.742 22.8162 125.494C7.86535 116.908 14.1853 87.5707 36.8543 96.8083C17.129 67.0687 8.99212 38.5972 41.375 14.5596C32.3111 35.9486 36.4076 57.3619 45.6578 78.7847C54.0572 98.2925 62.26 131.113 43.2784 171.949C35.9486 190.36 30.7449 207.273 35.1887 217.389C49.2879 227.89 57.8874 215.501 62.551 202.158C71.2029 171.046 79.7914 138.919 89.6754 127.525L112.279 151.895Z" fill="#FCDD09" stroke="black" stroke-width="2.46937"/>
<path d="M114.46 113.431C129.392 136.133 144.196 160.21 159.55 178.411C163.745 170.987 170.462 166.562 175.869 173.385C183.027 184.62 173.401 190.259 168.971 188.463C177.464 191.581 185.537 194.918 178.225 206.233C167.452 211.656 166.632 205.075 165.943 198.335L160.054 198.874C164.099 204.048 164.712 217.493 150.801 213.054C137.309 206.666 144.769 196.887 149.455 196.002C148.675 190.449 145.104 192.041 142.221 191.873C141.04 198.266 141.078 206.108 128.425 198.874C118.908 188.891 128.919 185.947 135.154 181.642C126.789 177.63 121.429 178.722 117.993 183.078C114.301 176.702 116.929 168.296 120.685 166.025C115.694 166.733 110.703 165.725 105.712 171.59C105.522 164.138 107.308 158.943 110.254 155.075C104.501 155.558 98.2219 154.434 93.9344 159.383C93.7929 148.294 95.1397 143.291 96.2899 137.484L93.9344 107.507L114.46 113.431Z" fill="#FCDD09" stroke="black" stroke-width="2.46937"/>
<path d="M122.031 86.8644C130.75 75.4017 138.301 63.0668 142.557 48.2715C134.655 50.7621 127.495 47.7774 132.799 35.3473C137.223 29.9585 146.901 29.7888 148.109 42.5274L152.147 40.9119C151.605 33.0536 150.374 24.5383 162.242 28.5262C171.97 34.1875 170.492 39.2583 162.073 43.9634L162.578 45.9379C169.262 42.5987 174.869 41.252 174.019 51.8615C172.085 68.7604 166.285 58.8385 161.4 55.272L159.718 64.2471C163.964 64.2666 169.966 60.6757 168.298 72.8632C166.337 83.2367 159.919 78.2286 154.334 76.0943C156.163 84.7166 160.386 89.0175 165.102 92.4289C159.142 97.2045 154.917 95.3714 150.464 94.4035C151.736 102.47 155.027 107.576 159.886 110.379C154.084 113.54 147.779 112.939 141.547 112.892L119.508 99.609L122.031 86.8644Z" fill="#FCDD09"/>
<path d="M103.357 34.6139C106.921 41.5506 113.223 42.3806 120.25 41.5949C119.056 49.2149 115.369 53.6047 109.9 55.6838C119.073 60.5838 124.272 58.3166 129.41 55.9377C131.821 64.8018 127.39 74.2927 120.131 73.8344C126.287 80.943 132.859 85.0275 140.593 80.6885C140.205 89.6367 135.879 94.63 127.864 95.9197C132.697 99.4612 137.461 103.05 139.879 108.232C143.532 116.521 150.818 118.755 156.773 121.559C145.299 129.765 137.646 122.828 130.838 112.547C132.233 115.288 133.464 117.242 135.715 124.098C138.318 131.109 142.671 134.387 147.731 136.156C135.569 142.801 125.851 132.413 117.038 115.72C118.722 119.669 120.325 123.672 120.25 128.794C120.847 136.532 124.59 138.677 127.745 141.867C116.432 140.873 107.341 133.105 100.739 117.751C101.33 120.983 101.911 124.259 101.572 131.459C101.372 139.797 104.97 142.282 107.401 146.564C97.0195 141.689 82.9837 137.673 79.6822 113.182C80.9566 117.708 79.6702 122.538 78.1357 127.398C76.1277 133.319 77.568 137.605 78.2546 142.248C65.4333 133.459 63.0005 120.448 70.1649 103.535C65.1213 105.753 60.3846 103.712 55.651 101.631C60.9387 98.4255 66.2577 95.268 68.1425 86.781C60.5663 88.8766 55.6929 83.4745 51.2492 76.8807C59.0916 75.7822 64.83 72.1461 65.4062 62.2841C60.482 63.0873 55.6209 62.345 51.0113 55.43C54.5528 54.3022 62.3365 54.6948 62.0752 42.4834C59.6202 43.8816 52.4069 38.73 53.9855 23.1905C59.6359 23.7492 63.7609 24.9589 66.239 26.8714C66.3179 20.0587 67.4748 15.5464 72.9011 20.1443C76.088 17.2037 79.1728 10.2313 82.6564 19.0019C86.3027 10.1025 90.2382 15.3972 94.1961 21.7943C95.1036 18.97 103.448 11.7667 104.945 15.5524C105.336 16.5393 104.815 18.3419 104.957 21.1218C105.261 27.0971 104.875 32.6773 103.356 34.6139H103.357Z" fill="#FCDD09" stroke="black" stroke-width="2.46937"/>
<path d="M101.421 55.5412C100.08 64.9356 101.979 71.8444 107.815 75.7352C96.2996 74.5318 89.4077 78.8157 83.4192 84.1718C83.7339 75.7091 81.0789 68.0145 73.9975 61.4648C84.8524 68.5198 91.7898 64.5235 88.5506 53.3872C90.1628 65.8235 98.5397 62.6839 101.421 55.5412Z" fill="black" stroke="black" stroke-width="2.46937"/>
<path d="M101.169 75.4662C94.6974 68.1989 86.3568 75.2169 86.6157 81.659C94.5801 89.8148 103.299 95.8102 116.143 90.0059C109.261 89.4629 104.698 83.6415 101.169 75.4662Z" fill="#FF0000" stroke="black" stroke-width="2.46937"/>
<path d="M94.3551 28.7956C90.5002 27.8036 81.3734 36.6226 90.8219 46.8355C95.3267 48.801 91.84 51.01 88.7189 53.2079" stroke="black" stroke-width="2.46937" stroke-linecap="round"/>
<path d="M90.9901 46.9251C86.0372 46.6731 79.0155 50.608 88.7189 53.3872" stroke="black" stroke-width="2.46937"/>
<path d="M66.5364 37.4697L78.2546 38.2313C82.5769 46.8289 67.6155 50.9871 66.5364 37.4697Z" fill="white" stroke="black" stroke-width="2.46937"/>
<path fill-rule="evenodd" clip-rule="evenodd" d="M70.7002 40.7381C70.6999 41.1426 70.7705 41.5432 70.9078 41.9169C71.0452 42.2907 71.2466 42.6304 71.5007 42.9165C71.7549 43.2026 72.0566 43.4296 72.3888 43.5845C72.7209 43.7393 73.0769 43.8191 73.4365 43.8191C73.796 43.8191 74.1521 43.7393 74.4842 43.5845C74.8163 43.4296 75.1181 43.2026 75.3722 42.9165C75.6263 42.6304 75.8278 42.2907 75.9652 41.9169C76.1025 41.5432 76.1731 41.1426 76.1727 40.7381C76.1731 40.3337 76.1025 39.9331 75.9652 39.5593C75.8278 39.1856 75.6263 38.8459 75.3722 38.5598C75.1181 38.2736 74.8163 38.0467 74.4842 37.8918C74.1521 37.7369 73.796 37.6572 73.4365 37.6572C73.0769 37.6572 72.7209 37.7369 72.3888 37.8918C72.0566 38.0467 71.7549 38.2736 71.5007 38.5598C71.2466 38.8459 71.0452 39.1856 70.9078 39.5593C70.7705 39.9331 70.6999 40.3337 70.7002 40.7381V40.7381Z" fill="#0D0908"/>
<path fill-rule="evenodd" clip-rule="evenodd" d="M72.8416 39.8496C72.8414 39.9789 72.8606 40.107 72.8978 40.2265C72.9351 40.346 72.9899 40.4546 73.0589 40.5462C73.128 40.6377 73.21 40.7103 73.3003 40.7598C73.3906 40.8094 73.4874 40.8349 73.5851 40.8349C73.6829 40.8349 73.7797 40.8094 73.87 40.7598C73.9603 40.7103 74.0423 40.6377 74.1113 40.5462C74.1804 40.4546 74.2351 40.346 74.2724 40.2265C74.3097 40.107 74.3288 39.9789 74.3287 39.8496C74.3288 39.7202 74.3097 39.5922 74.2724 39.4726C74.2351 39.3531 74.1804 39.2445 74.1113 39.153C74.0423 39.0614 73.9603 38.9888 73.87 38.9393C73.7797 38.8898 73.6829 38.8643 73.5851 38.8643C73.4874 38.8643 73.3906 38.8898 73.3003 38.9393C73.21 38.9888 73.128 39.0614 73.0589 39.153C72.9899 39.2445 72.9351 39.3531 72.8978 39.4726C72.8606 39.5922 72.8414 39.7202 72.8416 39.8496V39.8496Z" fill="white"/>
<path d="M94.6126 29.7905C89.0052 31.6717 86.8854 37.346 88.1883 41.2774C95.5726 43.66 101.016 37.4017 94.6126 29.7905Z" fill="white" stroke="black" stroke-width="2.46937"/>
<path fill-rule="evenodd" clip-rule="evenodd" d="M89.1401 35.3119C89.1397 35.7163 89.2103 36.1169 89.3476 36.4907C89.485 36.8644 89.6865 37.2041 89.9406 37.4902C90.1947 37.7764 90.4964 38.0033 90.8286 38.1582C91.1607 38.3131 91.5168 38.3928 91.8763 38.3928C92.2358 38.3928 92.5919 38.3131 92.924 38.1582C93.2562 38.0033 93.5579 37.7764 93.812 37.4902C94.0662 37.2041 94.2676 36.8644 94.405 36.4907C94.5423 36.1169 94.6129 35.7163 94.6125 35.3119C94.6129 34.9074 94.5423 34.5069 94.405 34.1331C94.2676 33.7593 94.0662 33.4196 93.812 33.1335C93.5579 32.8474 93.2562 32.6204 92.924 32.4655C92.5919 32.3107 92.2358 32.231 91.8763 32.231C91.5168 32.231 91.1607 32.3107 90.8286 32.4655C90.4964 32.6204 90.1947 32.8474 89.9406 33.1335C89.6865 33.4196 89.485 33.7593 89.3476 34.1331C89.2103 34.5069 89.1397 34.9074 89.1401 35.3119V35.3119Z" fill="#0D0908"/>
<path fill-rule="evenodd" clip-rule="evenodd" d="M91.3706 34.2968C91.3705 34.4261 91.3896 34.5542 91.4269 34.6738C91.4642 34.7933 91.5189 34.9019 91.588 34.9934C91.6571 35.0849 91.739 35.1576 91.8293 35.2071C91.9196 35.2566 92.0164 35.2821 92.1142 35.2821C92.2119 35.2821 92.3087 35.2566 92.399 35.2071C92.4893 35.1576 92.5713 35.0849 92.6404 34.9934C92.7094 34.9019 92.7642 34.7933 92.8014 34.6738C92.8387 34.5542 92.8579 34.4261 92.8577 34.2968C92.8579 34.1675 92.8387 34.0394 92.8014 33.9199C92.7642 33.8004 92.7094 33.6917 92.6404 33.6002C92.5713 33.5087 92.4893 33.4361 92.399 33.3866C92.3087 33.337 92.2119 33.3115 92.1142 33.3115C92.0164 33.3115 91.9196 33.337 91.8293 33.3866C91.739 33.4361 91.6571 33.5087 91.588 33.6002C91.5189 33.6917 91.4642 33.8004 91.4269 33.9199C91.3896 34.0394 91.3705 34.1675 91.3706 34.2968V34.2968Z" fill="white"/>
<path d="M59.15 27.9429C62.2187 29.708 61.4348 31.4731 61.4212 33.2382C61.3672 35.2618 62.8688 37.0117 63.7346 33.7318C63.7073 31.7688 63.983 29.2689 59.15 27.9429Z" fill="black"/>
<path d="M102.972 21.4775C99.9034 23.2426 100.687 25.0077 100.701 26.7728C100.755 28.7965 99.2533 30.5464 98.3875 27.2665C98.4148 25.3034 98.1391 22.8036 102.972 21.4775V21.4775Z" fill="black"/>
<path d="M157.362 211.439C158.748 219.125 149.299 223.476 143.651 221.491C147.775 220.039 150.749 214.21 149.455 209.015C151.474 207.099 156.915 206.194 157.362 211.439Z" fill="#FF0000"/>
<path d="M180.672 201.707C186.537 206.411 182.272 216.403 176.837 218.979C178.98 214.948 177.515 208.498 173.287 205.576C173.578 202.709 177.04 198.141 180.672 201.707V201.707Z" fill="#FF0000"/>
<path d="M127.931 197.33C123.655 203.691 130.528 211.864 136.436 212.586C133.261 209.424 132.849 202.802 136.063 198.663C134.982 196.021 130.397 192.768 127.931 197.33Z" fill="#FF0000"/>
<path d="M174.232 170.308C181.312 168.254 186.09 177.979 184.661 184.138C182.993 179.859 177.321 177.135 172.564 178.903C170.62 176.9 169.365 171.18 174.232 170.308Z" fill="#FF0000"/>
<path d="M169.557 301.377C174.59 295.681 183.424 301.312 185.22 307.361C181.704 304.641 175.533 305.478 172.341 309.636C169.703 309.011 165.833 304.832 169.557 301.377Z" fill="#FF0000"/>
<path d="M178.298 334.483C184.969 337.739 182.806 348.474 178.013 352.23C179.299 347.804 176.575 341.837 171.859 339.947C171.568 337.081 174.035 331.828 178.298 334.483V334.483Z" fill="#FF0000"/>
<path d="M155.569 350.842C156.955 358.528 147.506 362.878 141.858 360.894C145.982 359.442 148.956 353.613 147.662 348.418C149.681 346.502 155.122 345.597 155.569 350.842Z" fill="#FF0000"/>
<path d="M124.957 335.751C120.29 341.791 126.633 350.437 132.483 351.581C129.514 348.199 129.519 341.562 132.987 337.663C132.074 334.949 127.704 331.375 124.957 335.751Z" fill="#FF0000"/>
<path d="M101.282 339.907C108.313 337.669 113.313 347.266 112.025 353.46C110.26 349.227 104.527 346.652 99.8115 348.544C97.8225 346.592 96.436 340.906 101.282 339.907V339.907Z" fill="#FF0000"/>
<path d="M102.862 369.329C109.488 372.688 107.18 383.388 102.337 387.07C103.682 382.664 101.04 376.656 96.3498 374.693C96.0973 371.823 98.6349 366.609 102.862 369.329V369.329Z" fill="#FF0000"/>
<path d="M80.5325 378.305C81.9184 385.992 72.4692 390.342 66.8207 388.358C70.9453 386.906 73.919 381.077 72.6251 375.882C74.6442 373.966 80.0848 373.061 80.5325 378.305Z" fill="#FF0000"/>
<path d="M50.3111 358.431C47.126 365.482 55.2155 372.27 61.152 371.895C57.5136 369.364 56.0387 362.917 58.5366 358.249C57.045 355.845 52.0031 353.484 50.3111 358.431Z" fill="#FF0000"/>
<path d="M159.452 27.5409C161.959 20.1845 172.161 21.6237 176.055 26.4195C171.817 25.4075 166.461 28.7829 165.073 33.9498C162.418 34.4895 157.314 32.2873 159.452 27.5409V27.5409Z" fill="#FF0000"/>
<path d="M130.653 39.6526C124.683 35.102 128.72 25.0019 134.095 22.2866C132.044 26.3714 133.655 32.7816 137.948 35.5941C137.723 38.4675 134.365 43.1233 130.653 39.6526Z" fill="#FF0000"/>
<path d="M174.066 47.4542C181.394 47.8366 183.119 58.6611 179.975 64.0468C179.629 59.4276 175.025 54.9657 169.988 55.0777C168.72 52.5311 169.184 46.6774 174.066 47.4542V47.4542Z" fill="#FF0000"/>
<path d="M165.536 76.9259C172.07 80.4855 178.616 72.0131 178.401 65.6724C175.946 69.4951 169.871 70.9199 165.555 68.1482C163.268 69.6839 160.939 75.0074 165.536 76.9259H165.536Z" fill="#FF0000"/>
</g>
<defs>
<clipPath id="clip0_1_2630">
<rect width="600" height="400" fill="white"/>
</clipPath>
</defs>
</svg>
