<svg width="600" height="400" viewBox="0 0 600 400" fill="none" xmlns="http://www.w3.org/2000/svg" xmlns:cgf="https://coding.garden/flags"><metadata id="cgf-metadata">

<cgf:flag>
  <cgf:name>Elburg</cgf:name>
  <cgf:route>nl/ge/elburg</cgf:route>
  <cgf:aspect-ratio>1.5</cgf:aspect-ratio>
</cgf:flag>

</metadata><g clip-path="url(#clip0_1_2677)">
<path d="M600 0H0V400H600V0Z" fill="#DA121A"/>
<path d="M600 28.0654H0V372.602H600V28.0654Z" fill="#EDEDED"/>
<path d="M600 56.2461H0V345.232H600V56.2461Z" fill="#0F47AF"/>
<path fill-rule="evenodd" clip-rule="evenodd" d="M280.507 198.474C280.507 246.47 241.341 285.379 193.027 285.379C144.713 285.379 105.547 246.47 105.547 198.474C105.547 150.478 144.713 111.57 193.027 111.57C241.341 111.57 280.507 150.478 280.507 198.474Z" fill="#EDEDED"/>
<path d="M214.994 327C214.673 326.575 213.632 325.156 212.68 323.846C209.409 319.344 205.756 316.334 201.621 314.733C197.368 313.087 191.595 312.568 188.133 313.52C181.828 315.254 177.573 318.605 172.795 325.6L171.665 327.255H170.046C169.047 327.255 167.93 327.085 167.127 326.811C165.853 326.377 161.85 323.967 161.85 323.634C161.85 323.541 162.618 323.229 163.557 322.941C167.444 321.746 171.053 319.673 175.541 316.055C176.877 314.978 178.538 313.72 179.232 313.26C179.926 312.799 180.382 312.422 180.245 312.422C179.629 312.422 173.514 311.482 171.48 311.074C165.326 309.841 159.003 307.975 153.279 305.702L150.202 304.48L148.319 304.799C144.469 305.453 141.356 305.632 138.766 305.348C132.647 304.679 130.389 304.842 128.086 306.117C126.29 307.112 122.816 308.123 120.182 308.418C119.462 308.499 118.148 308.452 117.263 308.315C114.168 307.836 111.835 306.307 110.076 303.607C109.152 302.187 107.832 299.234 108.034 299.038C108.085 298.989 108.91 299.307 109.867 299.745C111.818 300.637 113.991 301.24 115.255 301.24C116.823 301.24 118.894 300.544 121.021 299.303C123.881 297.633 124.712 297.33 126.782 297.196C129.912 296.994 132.893 298.328 136.883 301.717L139.096 303.596L141.354 303.616C143.808 303.637 146.789 303.353 146.789 303.098C146.789 303.01 145.704 302.384 144.377 301.705C136.709 297.786 129.422 292.95 122.724 287.338L119.98 285.038H117.778C115.222 285.038 113.233 284.727 111.692 284.087L110.599 283.633L108.632 284.251C105.84 285.129 103.177 285.157 101.355 284.328C98.5425 283.049 96.7631 280.341 95.7304 275.767L95.3118 273.913L96.7714 273.768C98.5622 273.59 102.487 273.96 104.077 274.457C106.981 275.363 109.105 277.12 110.329 279.629C110.708 280.407 111.019 281.154 111.019 281.287C111.019 281.867 114.84 282.984 116.824 282.984H117.656L114.892 280.189C108.084 273.302 101.505 265.035 96.9483 257.639L95.7438 255.684L92.8506 255.399C84.0785 254.534 77.106 252.176 73.3457 248.801C72.4656 248.012 71.5058 246.985 71.2127 246.519C69.2707 243.436 65.782 239.065 62.1506 235.165L59.8928 232.74L61.2761 232.892C70.4248 233.901 76.8662 236.45 81.4245 240.868C83.4394 242.821 84.2978 243.93 86.6531 247.621C88.7042 250.836 89.3406 251.572 90.6207 252.211C91.7681 252.783 93.8404 253.052 93.8404 252.629C93.8404 252.466 93.3238 251.399 92.6924 250.258C90.1889 245.735 87.0046 238.447 85.2546 233.237C84.3994 230.69 84.3233 230.563 82.6941 228.938C79.3168 225.57 75.5623 222.94 70.7303 220.557C61.5745 216.042 57.731 211.547 56.9083 204.392C56.6204 201.888 56.5711 195.812 56.8387 195.812C57.4351 195.812 66.06 204.89 68.687 208.283C70.3189 210.39 70.8281 211.167 73.3445 215.384C73.8888 216.296 75.1926 218.094 76.2418 219.378C78.1536 221.718 83.0115 226.927 83.1536 226.789C83.1953 226.749 83.0234 225.949 82.7718 225.013C81.6213 220.73 80.629 214.846 80.0794 209.047C79.6261 204.265 79.6105 204.632 80.2501 205.032C80.7438 205.34 80.8691 205.295 82.1022 204.375L83.4248 203.388L83.5901 206.047C84.2306 216.346 86.5242 226.601 90.3774 236.393L91.6047 239.512L91.7518 237.686C92.3741 229.963 92.3536 229.751 90.6431 226.277C89.0454 223.031 88.5563 221.057 88.5504 217.833C88.5459 215.23 88.5816 215.022 89.281 213.611C90.6229 210.906 92.5902 209.253 96.2504 207.756C97.2751 207.337 98.1594 206.994 98.2155 206.994C98.2717 206.994 97.9543 207.693 97.5105 208.548C96.3869 210.711 95.8832 212.54 95.8961 214.41C95.9096 216.377 96.3373 217.549 97.8635 219.805C99.2367 221.835 99.8952 223.389 100.101 225.085C100.346 227.105 99.5804 229.751 98.1064 231.981C97.3982 233.053 94.8195 236.126 94.1027 236.752C93.656 237.142 93.605 237.432 93.605 239.586C93.605 243.521 93.8762 244.521 96.0589 248.64C98.5783 253.394 104.542 262.87 104.835 262.586C104.921 262.502 103.608 250.237 103.354 248.754C102.977 246.556 103.95 249.303 106.91 258.795C108.691 264.506 110.283 269.435 110.447 269.748C111.404 271.573 120.864 281.056 125.713 285.051C128.054 286.979 131.799 289.845 131.868 289.761C131.889 289.736 131.764 288.946 131.591 288.004C131.418 287.063 131.272 285.933 131.266 285.494C131.257 284.778 131.141 284.636 130.145 284.125C127.286 282.656 126.607 279.021 128.751 276.653C130.724 274.474 134.145 274.474 136.118 276.653C138.538 279.327 137.194 283.802 133.757 284.511L133.079 284.65L133.22 286.112C133.386 287.837 134.003 290.365 134.479 291.272C135.074 292.406 142.071 296.567 148.554 299.643C153.06 301.78 156.364 303.105 160.788 304.547C164.084 305.622 171.247 307.493 171.421 307.325C171.472 307.275 171.244 307.063 170.914 306.854C170.584 306.645 169.446 305.793 168.385 304.962C165.732 302.885 164.099 302.186 160.97 301.788C152.522 300.712 148.078 297.509 147.262 291.907C147.127 290.978 147.065 289.9 147.124 289.511C147.612 286.299 147.82 285.293 147.976 285.386C148.075 285.446 148.478 286.046 148.871 286.721C149.94 288.558 151.972 290.56 153.645 291.425C155.057 292.155 155.235 292.187 158.773 292.355C161.134 292.467 162.816 292.66 163.498 292.897C167.078 294.143 169.597 297.499 171.135 303.072C171.455 304.231 171.747 305.197 171.784 305.219C171.821 305.242 172.401 305.635 173.073 306.092C176.417 308.37 177.883 308.721 186.325 309.259C191.184 309.57 191.499 309.569 195.973 309.244C197.72 309.118 200.791 308.904 202.798 308.768C207.856 308.427 209.512 308.145 211.152 307.344C212.9 306.49 215.27 304.946 215.383 304.587C215.429 304.44 215.745 303.345 216.083 302.152C217.221 298.144 219.035 295.201 221.299 293.69C223.001 292.555 224.789 292.113 227.705 292.106C230.475 292.1 231.684 291.895 233.341 291.152C234.761 290.515 237.041 288.263 238.097 286.453C238.55 285.677 238.986 285.041 239.066 285.04C239.217 285.037 239.351 285.677 239.743 288.272C240.039 290.237 239.71 292.798 238.946 294.474C237.245 298.203 232.501 300.762 225.952 301.483C222.702 301.841 221.274 302.536 217.068 305.804C216.341 306.368 215.844 306.863 215.965 306.902C216.328 307.021 223.172 305.218 226.448 304.141C234.542 301.481 242.576 297.678 249.787 293.093C252.246 291.53 252.44 291.351 252.788 290.335C253.312 288.806 253.855 286.217 253.86 285.226C253.864 284.466 253.786 284.363 253.02 284.118C251.109 283.507 249.643 281.528 249.633 279.548C249.626 278.102 250.562 276.363 251.792 275.536C252.656 274.956 252.967 274.883 254.57 274.883C256.173 274.883 256.484 274.956 257.347 275.536C258.552 276.346 259.512 278.102 259.512 279.499C259.512 281.349 258.415 283.031 256.629 283.922C255.872 284.3 255.747 284.472 255.747 285.136C255.747 285.562 255.588 286.715 255.394 287.699C255.199 288.683 255.041 289.518 255.041 289.555C255.04 289.68 259.62 286.111 261.982 284.144C266.468 280.408 273.514 273.405 276.106 270.105C276.468 269.644 277.788 265.788 279.978 258.795C283.772 246.68 283.498 247.52 283.619 247.637C283.67 247.687 283.351 250.91 282.911 254.801C282.47 258.692 282.143 261.975 282.183 262.097C282.458 262.935 291.924 247.321 292.855 244.494C293.077 243.82 293.265 242.129 293.338 240.149L293.458 236.906L291.642 235.014C289.739 233.032 288.297 230.912 287.458 228.863C287.088 227.959 286.96 227.146 286.96 225.706C286.96 223.487 287.368 222.256 288.869 219.95C290.269 217.798 290.8 216.692 291.052 215.403C291.448 213.381 290.681 210.129 289.25 207.762C288.919 207.214 288.749 206.765 288.873 206.765C289.3 206.765 292.365 208.072 293.411 208.699C294.798 209.532 296.325 210.976 297.157 212.242C298.908 214.905 299.045 218.702 297.548 223.041C297.08 224.396 296.436 225.937 296.116 226.466C295.796 226.995 295.358 228.093 295.142 228.906C294.745 230.4 294.759 231.456 295.255 237.344L295.4 239.055L296.371 236.659C300.4 226.717 302.788 216.197 303.426 205.578L303.586 202.908L304.784 203.924C305.992 204.949 306.429 205.129 306.695 204.711C306.775 204.586 306.947 204.483 307.076 204.483C307.327 204.483 307.272 205.371 306.67 211.101C306.182 215.749 304.947 222.416 303.862 226.255C303.719 226.763 305.194 225.297 308.549 221.598C311.104 218.782 312.672 216.754 313.883 214.7C316.682 209.953 318.352 207.642 321.513 204.141C323.814 201.592 329.9 195.583 330.181 195.583C330.33 195.583 330.366 197.229 330.281 200.205C330.176 203.868 330.046 205.204 329.654 206.651C328.064 212.512 324.849 215.825 316.68 220.023C310.889 222.998 308.092 224.91 304.695 228.211C302.708 230.142 302.689 230.172 301.902 232.552C300.538 236.675 297.871 242.923 295.412 247.757L293.046 252.407L294.223 252.404C295.095 252.401 295.717 252.224 296.627 251.719C297.877 251.023 298.273 250.513 301.973 244.84C305.16 239.952 310.313 236.211 316.356 234.396C319.028 233.594 322.563 232.891 325.145 232.649C327.224 232.455 327.264 232.307 324.44 235.29C321.662 238.224 319.785 240.529 317.188 244.19C314.633 247.794 314.224 248.246 312.343 249.555C308.48 252.242 302.443 254.167 295.517 254.921C290.898 255.423 291.317 255.293 290.618 256.445C289.25 258.698 285.232 264.522 283.329 267.01C279.559 271.939 275.426 276.63 271.545 280.386C270.363 281.53 269.396 282.522 269.396 282.589C269.396 282.939 273.97 282.146 275.06 281.607C275.748 281.267 276.01 280.93 276.42 279.86C278.094 275.496 282.636 273.229 289.281 273.439L291.634 273.514L291.559 274.084C291.364 275.551 290.515 278.363 289.873 279.667C288.971 281.501 287.423 283.173 285.956 283.9C284.933 284.406 284.531 284.466 282.221 284.454C280.018 284.442 279.39 284.351 278.005 283.841C276.397 283.249 276.368 283.247 275.534 283.652C274.311 284.248 272.696 284.534 269.641 284.697C267.646 284.803 266.812 284.94 266.433 285.224C266.152 285.436 264.876 286.488 263.599 287.563C257.516 292.685 250.313 297.407 242.134 301.636C239.465 303.016 239.523 303.055 244.504 303.229L247.969 303.35L249.793 301.698C253.303 298.519 255.94 297.146 258.89 296.959C261.465 296.797 262.871 297.164 265.442 298.671C268.422 300.417 269.498 300.784 271.641 300.784C273.574 300.784 275.331 300.313 277.667 299.169C278.425 298.798 279.044 298.58 279.044 298.683C279.044 299.069 277.861 301.782 277.246 302.805C275.664 305.438 273.614 307.046 270.948 307.746C268.689 308.339 265.541 308.127 262.454 307.173C261.159 306.773 259.675 306.209 259.156 305.919C257.207 304.831 255.706 304.583 252.342 304.793C247.236 305.112 241.788 305.023 239.131 304.576L236.753 304.177L233.601 305.425C225.664 308.567 218.115 310.542 209.505 311.729C207.563 311.996 205.882 312.24 205.768 312.271C205.654 312.302 206.242 312.713 207.074 313.185C207.906 313.657 209.799 315.025 211.281 316.224C215.899 319.961 219.466 322.027 223.449 323.272C225.688 323.971 225.742 323.801 222.683 325.714C220.699 326.954 219.201 327.475 217.13 327.645C215.579 327.771 215.576 327.77 214.994 327H214.994ZM79.7033 203.062C78.141 201.547 77.7132 199.684 78.5283 197.943C79.2656 196.368 79.6611 196.113 81.1424 196.258L82.4245 196.382L82.9479 197.638C83.5126 198.991 83.6213 200.229 83.2571 201.158C82.9681 201.895 81.1736 203.799 80.7678 203.799C80.6001 203.799 80.121 203.468 79.7033 203.062V203.062ZM305.18 202.758C303.44 201.233 303.11 199.163 304.245 196.897L304.752 195.886L306.066 195.906C307.37 195.926 307.387 195.935 308.058 196.987C309.335 198.991 309.14 200.812 307.458 202.582C306.941 203.126 306.425 203.571 306.313 203.571C306.2 203.571 305.691 203.205 305.18 202.757V202.758ZM85.9862 197.543C85.4847 197.363 84.7229 196.885 84.2934 196.481L83.5126 195.748L84.1015 194.999C84.4254 194.587 84.795 193.883 84.9228 193.434C85.1552 192.618 85.1564 192.617 86.5102 192.617C88.3284 192.617 89.7664 193.48 90.7668 195.172C91.1605 195.838 91.4837 196.497 91.4849 196.637C91.4879 196.941 89.4342 197.591 87.9572 197.753C87.3241 197.823 86.5314 197.738 85.9862 197.543V197.543ZM297.517 197.187C295.869 196.776 295.477 196.524 295.642 195.983C296.109 194.45 298.073 192.583 299.55 192.268C299.941 192.185 300.616 192.181 301.05 192.259C301.69 192.376 301.891 192.554 302.111 193.2C302.26 193.638 302.651 194.306 302.979 194.685L303.576 195.372L302.632 196.242C301.414 197.366 299.59 197.702 297.517 197.186V197.187ZM72.4804 196.617C71.7987 196.309 71.1824 195.91 71.1108 195.729C70.9364 195.288 71.7523 193.79 72.5804 193.031C73.4458 192.238 74.3109 191.932 75.6766 191.936C77.0502 191.941 77.2653 192.076 77.4808 193.074C77.5758 193.513 77.8574 194.198 78.1067 194.596L78.56 195.321L77.7746 195.901C75.9056 197.284 74.406 197.487 72.4804 196.617ZM311.246 196.69C310.772 196.564 309.964 196.112 309.451 195.686L308.518 194.912L309.077 193.84C309.385 193.25 309.637 192.535 309.637 192.25C309.637 191.811 309.799 191.709 310.706 191.577C312.643 191.295 314.711 192.467 315.646 194.377C316.139 195.385 316.013 195.652 314.774 196.224C313.467 196.829 312.329 196.979 311.246 196.69V196.69ZM80.309 194.922C79.6757 194.657 79.1023 194.011 78.7887 193.211C78.4373 192.315 78.8338 191.208 79.7837 190.433C81.5899 188.959 84.3415 190.898 83.6842 193.181C83.2844 194.569 81.5728 195.452 80.309 194.922V194.922ZM305.081 194.648C303.642 194.266 302.885 192.865 303.31 191.372C303.619 190.286 304.521 189.651 305.754 189.651C306.987 189.651 307.888 190.286 308.198 191.372C308.772 193.388 307.071 195.176 305.081 194.648V194.648ZM84.481 190.565C84.187 190.066 83.6311 189.499 83.2455 189.306C82.3707 188.867 82.3689 188.585 83.2335 187.427C84.4371 185.816 85.9869 185.148 87.8812 185.423L88.8981 185.571L88.8936 186.869C88.8846 189.014 88.0189 190.409 86.2502 191.125C85.0842 191.598 85.0906 191.6 84.4813 190.565L84.481 190.565ZM301.073 190.9C299.896 190.508 298.63 189.307 298.317 188.288C298.182 187.845 298.105 186.969 298.147 186.342L298.223 185.201L299.575 185.132C301.498 185.035 302.828 185.648 303.749 187.056C304.14 187.654 304.456 188.251 304.451 188.383C304.445 188.516 304.105 188.829 303.693 189.08C303.282 189.331 302.728 189.912 302.463 190.37L301.981 191.203L301.073 190.9V190.9ZM76.6803 190.094C75.3312 189.146 74.676 187.716 74.8486 186.094C74.9186 185.436 75.1005 184.672 75.2528 184.396C75.4917 183.963 75.6587 183.914 76.4701 184.04C77.5756 184.212 78.9668 184.861 79.5352 185.47C80.068 186.041 80.662 187.445 80.662 188.132C80.662 188.539 80.4627 188.761 79.8972 188.983C79.4765 189.149 78.8059 189.625 78.4069 190.041L77.6815 190.797L76.6803 190.094V190.094ZM308.511 189.65C308.216 189.287 307.607 188.862 307.158 188.704C306.588 188.504 306.343 188.277 306.344 187.95C306.35 185.805 308.306 183.928 310.792 183.682C311.524 183.61 311.621 183.674 311.892 184.402C312.29 185.47 312.297 186.989 311.909 187.889C311.564 188.686 309.817 190.343 309.342 190.323C309.181 190.315 308.807 190.013 308.512 189.65H308.511ZM96.4302 186.772C95.895 186.303 95.2991 185.623 95.1059 185.261C94.5674 184.251 94.6467 182.514 95.2886 181.26C95.838 180.185 95.8469 180.18 97.135 180.116C98.4288 180.052 98.4295 180.052 99.0556 181.029C100.373 183.084 100.375 184.782 99.0601 186.546C98.1417 187.779 97.63 187.823 96.4301 186.772H96.4302ZM288.147 186.442C287.174 185.34 286.752 183.949 287.03 182.754C287.222 181.932 288.283 179.958 288.637 179.768C288.732 179.717 289.338 179.737 289.983 179.813C291.068 179.942 291.198 180.026 291.716 180.939C292.421 182.178 292.461 183.813 291.817 185.022C291.396 185.812 289.636 187.369 289.163 187.369C289.054 187.369 288.597 186.952 288.147 186.442H288.147ZM81.6017 186.741C81.6017 186.521 81.3883 186.034 81.1294 185.657C80.7612 185.122 80.6889 184.749 80.7975 183.946C81.0298 182.229 81.589 179.195 82.2379 176.13L82.8539 173.221L83.6322 173.796L84.4105 174.372L85.5955 173.547C86.2473 173.093 86.7805 172.766 86.7805 172.822C86.7805 172.878 86.5127 174.094 86.1853 175.525C85.8579 176.956 85.3275 179.602 85.0065 181.404C84.4764 184.382 84.364 184.726 83.778 185.169C82.9291 185.81 82.074 186.701 82.074 186.946C82.074 187.053 81.9681 187.14 81.8386 187.14C81.7092 187.14 81.6026 186.961 81.6017 186.741V186.741ZM304.817 186.47C304.673 186.03 303.327 184.759 302.836 184.6C302.695 184.554 302.314 182.976 301.99 181.093C301.666 179.211 301.136 176.55 300.811 175.181C300.486 173.811 300.263 172.65 300.314 172.6C300.365 172.55 300.895 172.843 301.491 173.251L302.576 173.992L303.301 173.472C303.7 173.186 304.069 172.993 304.121 173.044C304.252 173.171 305.774 180.7 306.1 182.837C306.347 184.449 306.33 184.638 305.885 185.347C305.62 185.769 305.402 186.293 305.402 186.513C305.402 187.051 304.998 187.021 304.817 186.47V186.47ZM88.3159 181.528C87.8013 181.345 87.2935 181.111 87.1876 181.009C86.8379 180.67 87.9435 178.3 88.786 177.582C90.3766 176.228 93.1344 175.988 93.1344 177.204C93.1344 177.485 93.4434 178.129 93.821 178.635L94.5076 179.554L93.6445 180.355C91.9901 181.892 90.3551 182.251 88.3159 181.528V181.528ZM295.296 181.378C294.85 181.234 294.011 180.675 293.43 180.135L292.375 179.155L292.907 178.605C293.2 178.303 293.579 177.661 293.749 177.178C294.027 176.389 294.149 176.294 294.964 176.226C296.204 176.123 297.442 176.52 298.225 177.271C298.855 177.875 299.981 179.903 299.986 180.441C299.989 180.786 298.305 181.427 297.081 181.546C296.544 181.598 295.741 181.523 295.296 181.378V181.378ZM102.312 180.745C101.35 180.581 100.169 180.017 99.7425 179.518C99.4945 179.228 99.5285 179.062 99.939 178.556C100.212 178.219 100.502 177.541 100.583 177.048C100.693 176.38 100.877 176.097 101.302 175.941C102.233 175.598 103.681 175.7 104.646 176.177C105.708 176.702 107.537 178.631 107.44 179.122C107.352 179.563 105.447 180.482 104.149 180.709C103.592 180.806 102.765 180.823 102.312 180.745V180.745ZM281.735 180.078C280.338 179.595 279.515 179.131 279.515 178.826C279.515 178.335 280.819 176.832 281.782 176.214C283.052 175.398 284.161 175.179 285.394 175.501C286.201 175.712 286.34 175.838 286.342 176.367C286.345 176.707 286.597 177.413 286.905 177.936L287.466 178.886L286.844 179.462C285.611 180.602 283.864 180.813 281.735 180.078V180.078ZM95.4467 178.535C93.6272 177.44 94.0589 174.474 96.118 173.923C97.2384 173.623 98.3786 174.082 99.0116 175.089C99.5777 175.99 99.6119 176.662 99.1365 177.554C98.4211 178.895 96.7738 179.333 95.4466 178.535H95.4467ZM288.782 178.274C288.105 177.862 287.516 176.812 287.516 176.016C287.516 175.309 288.283 174.173 289.02 173.788C291.515 172.485 293.958 175.72 292.046 177.795C291.198 178.715 289.836 178.915 288.782 178.274V178.274ZM91.6618 174.373C90.3175 173.546 89.6032 172.296 89.6077 170.776C89.6137 168.854 89.7428 168.656 90.985 168.661C92.94 168.67 94.6814 169.74 95.3884 171.365C95.8702 172.474 95.8182 172.664 94.8897 173.196C94.4314 173.458 93.8754 173.981 93.6542 174.358C93.433 174.735 93.1404 175.044 93.004 175.044C92.8675 175.044 92.2636 174.743 91.6618 174.373ZM99.5171 173.883C99.0799 173.39 98.471 172.925 98.1639 172.85C97.5184 172.693 97.4785 172.43 97.9382 171.363C98.6394 169.736 99.9427 168.855 102.115 168.541C103.071 168.403 103.245 168.442 103.468 168.847C103.89 169.611 103.773 171.609 103.245 172.667C102.781 173.596 101.245 174.839 100.611 174.798C100.447 174.788 99.9542 174.376 99.5171 173.883V173.883ZM293.634 174.534C293.634 174.129 292.323 172.826 291.734 172.644C291.187 172.476 291.166 172.104 291.643 170.996C292.325 169.414 293.549 168.602 295.675 168.322C296.749 168.181 296.922 168.216 297.146 168.622C297.286 168.876 297.4 169.685 297.4 170.421C297.4 171.472 297.27 171.954 296.796 172.663C295.927 173.962 293.635 175.319 293.635 174.534H293.634ZM285.751 174.231C284.058 173.377 283.278 172.139 283.283 170.318C283.289 168.493 283.447 168.2 284.425 168.201C286.466 168.204 288.087 169.112 288.938 170.73C289.579 171.947 289.525 172.2 288.516 172.703C288.031 172.945 287.422 173.464 287.163 173.857C286.61 174.697 286.653 174.686 285.751 174.231V174.231ZM82.9817 171.684C81.2052 170.073 80.5556 168.711 80.5586 166.603C80.5616 164.671 81.0848 163.344 82.3845 161.972L83.1329 161.183L84.9811 161.294L86.8293 161.406L87.65 163.082C89.3116 166.475 88.9405 168.905 86.3895 171.337C85.5669 172.122 84.7314 172.764 84.5328 172.764C84.3342 172.764 83.6362 172.278 82.9817 171.684V171.684ZM300.928 171.242C300.135 170.531 299.273 169.542 299.012 169.045C298.012 167.145 298.267 164.491 299.684 162.039L300.278 161.012H302.16H304.042L304.835 161.901C307.321 164.688 307.08 168.355 304.225 171.184C303.475 171.928 302.75 172.536 302.615 172.536C302.479 172.536 301.72 171.954 300.928 171.242ZM91.6377 163.72C90.4989 163.381 88.1925 161.479 88.1925 160.879C88.1925 160.731 88.5569 160.219 89.0023 159.741C89.4477 159.263 89.9364 158.429 90.0882 157.888C90.24 157.347 90.3989 156.783 90.4413 156.635C90.5448 156.273 92.4509 156.015 93.7451 156.187C96.3407 156.532 98.7883 158.688 99.828 161.546L100.181 162.517L99.072 162.978C96.4549 164.065 93.7161 164.339 91.6377 163.72V163.72ZM291.257 163.62C290.531 163.517 289.231 163.158 288.367 162.823C286.603 162.138 286.616 162.186 287.672 160.148C289.296 157.015 292.45 155.283 295.436 155.884C296.489 156.096 296.695 156.219 296.699 156.635C296.706 157.364 297.519 158.981 298.221 159.661C298.96 160.378 298.87 160.761 297.689 161.922C296.146 163.439 293.986 164.009 291.257 163.62V163.62ZM72.4369 162.342C70.1449 161.2 70.0389 161.007 70.8367 159.429C72.2815 156.573 74.3883 155.187 77.2497 155.211C79.6099 155.231 79.7519 155.32 80.1079 157.012C80.2768 157.816 80.6997 158.859 81.0614 159.365L81.7112 160.274L80.6571 161.16C79.0604 162.502 77.7387 163.043 75.8377 163.136C74.3109 163.21 74.0623 163.151 72.4369 162.342V162.342ZM308.987 162.48C308.306 162.219 307.208 161.522 306.546 160.932L305.343 159.859L305.957 158.982C306.619 158.037 307.045 156.81 307.047 155.845C307.05 155.148 307.215 155.063 308.987 154.848C310.668 154.644 312.489 155.141 313.891 156.187C315.115 157.1 316.493 159.204 316.543 160.24C316.577 160.922 316.467 161.028 314.856 161.874C312.67 163.022 310.879 163.207 308.987 162.48V162.48ZM83.6036 159.96C81.492 158.768 80.7091 156.475 81.716 154.431C82.862 152.104 86.2462 151.681 88.118 153.631C89.6991 155.277 89.3652 158.231 87.4484 159.555C86.5791 160.155 84.3631 160.388 83.6036 159.96V159.96ZM300.341 159.661C297.253 158.325 297.049 154.038 300.001 152.505C302.682 151.113 305.703 152.96 305.703 155.991C305.703 157.799 304.923 158.945 303.223 159.634C302.172 160.059 301.281 160.068 300.341 159.661V159.661ZM89.8885 154.223C89.4215 153.203 87.7229 151.541 87.1467 151.541C86.5102 151.541 86.5292 151.103 87.2239 149.768C87.9882 148.3 89.4229 146.905 90.7483 146.34C91.6549 145.954 95.2285 145.811 96.0452 146.128C96.4411 146.282 96.4747 146.509 96.3824 148.407C96.262 150.883 95.5997 152.411 94.1427 153.577C93.362 154.201 91.1565 155.193 90.548 155.193C90.4294 155.193 90.1327 154.756 89.8886 154.223H89.8885ZM295.635 154.633C292.267 153.644 290.575 151.319 290.575 147.682V145.893L291.311 145.751C292.496 145.521 294.911 145.587 295.776 145.872C296.216 146.018 297.021 146.43 297.565 146.789L298.554 147.441L298.709 146.637C298.82 146.066 298.721 145.485 298.366 144.636C296.831 140.955 296.305 136.931 297.025 134.367C297.648 132.143 298.836 130.692 301.646 128.719C304.344 126.824 305.328 125.738 306.138 123.765C306.602 122.637 306.681 122.027 306.688 119.558L306.695 116.671L307.872 117.723C313.129 122.424 313.698 127.806 309.528 133.375C308.505 134.742 307.055 136.25 304.778 138.316C303.192 139.756 302.308 141.504 301.042 145.704C300.026 149.074 299.947 149.663 300.365 150.721C300.454 150.945 300.385 151.085 300.186 151.085C299.232 151.085 296.929 153.412 296.929 154.376C296.929 154.883 296.664 154.935 295.635 154.633V154.633ZM79.1014 153.495C77.6565 152.552 76.7404 151.534 76.1229 150.186C75.7453 149.362 75.682 148.852 75.783 147.448C75.8512 146.499 76.0929 145.275 76.32 144.728L76.7329 143.733L77.8937 143.882C81.7345 144.376 84.2533 146.621 84.5976 149.856C84.7102 150.914 84.6687 151.093 84.2831 151.21C82.9217 151.622 81.8084 152.299 81.2272 153.068C80.8659 153.546 80.5077 154.013 80.4313 154.105C80.3548 154.197 79.7564 153.923 79.1014 153.495V153.495ZM306.23 153.385C306 152.682 304.336 151.364 303.298 151.062C302.442 150.814 302.342 150.709 302.342 150.063C302.342 146.841 305.226 144.008 308.884 143.637L310.268 143.497L310.685 144.496C311.163 145.639 311.417 147.933 311.193 149.091C310.96 150.293 309.729 151.909 308.278 152.916C306.812 153.934 306.438 154.02 306.23 153.385V153.385ZM97.3703 145.515C97.3703 145.294 96.8521 145.108 95.723 144.924C94.817 144.775 94.0757 144.612 94.0757 144.561C94.0757 144.398 96.3192 140.547 97.6961 138.347C101.176 132.787 104.257 128.657 105.647 127.689C106.972 126.765 108.276 125.119 108.763 123.755C109.239 122.423 111.439 119.984 112.03 120.134C112.77 120.321 115.296 119.832 116.631 119.242L117.889 118.686L116.16 120.541C111.409 125.638 107.947 129.888 104.291 135.111L101.975 138.42L103.552 136.896C105.777 134.745 107.598 133.907 110.284 133.797C111.661 133.741 112.73 133.83 113.608 134.074C116.826 134.97 118.313 135.174 119.693 134.909C121.713 134.52 123.727 133.446 125.62 131.746L127.331 130.21L127.164 132.202C126.686 137.923 123.909 141.482 118.948 142.735C117.003 143.226 113.73 143.388 111.725 143.092C106.9 142.379 105.412 142.581 100.741 144.586C97.5872 145.939 97.3703 145.999 97.3703 145.515V145.515ZM286.692 144.453C285.269 143.829 283.421 143.111 282.587 142.859C280.925 142.357 278.154 142.253 276.573 142.633C275.186 142.966 270.456 142.911 268.651 142.54C266.41 142.079 264.52 141.137 263.124 139.784C261.143 137.864 260.144 135.436 259.824 131.764L259.669 129.976L260.96 131.118C264.865 134.569 267.588 135.295 272.104 134.089C275.133 133.28 276.557 133.167 278.292 133.598C280.342 134.108 281.279 134.626 283.147 136.286L284.78 137.735L283.282 135.567C279.344 129.866 274.423 123.835 270.492 119.892L269.083 118.479L271.063 119.147C272.252 119.549 273.53 119.817 274.26 119.819C275.432 119.822 275.519 119.867 276.571 121.02C277.172 121.679 277.98 122.885 278.366 123.701C278.91 124.851 279.555 125.644 281.24 127.238C283.483 129.359 285.896 132.593 289.328 138.078C290.986 140.728 292.928 144.083 292.928 144.297C292.928 144.362 292.228 144.487 291.371 144.576C290.118 144.706 289.791 144.823 289.696 145.173C289.632 145.412 289.512 145.604 289.43 145.599C289.348 145.594 288.116 145.078 286.692 144.453V144.453ZM102.615 126.21C100.944 124.624 100.309 123.291 100.333 121.419C100.355 119.767 100.887 118.442 102.103 117.011C102.677 116.335 102.937 116.187 103.336 116.311C103.614 116.397 104.37 116.477 105.016 116.49L106.19 116.513L107.016 118.087C107.746 119.478 107.842 119.864 107.842 121.396C107.842 122.864 107.746 123.29 107.215 124.165C106.605 125.172 104.416 127.352 104.016 127.352C103.907 127.352 103.276 126.839 102.615 126.21V126.21ZM281.57 125.982C280.982 125.48 280.199 124.582 279.832 123.986C279.256 123.053 279.163 122.664 279.163 121.186C279.163 119.678 279.262 119.275 279.985 117.877L280.809 116.285L282.456 116.14C284.007 116.004 284.142 116.03 284.759 116.59C286.713 118.362 287.263 121.615 285.99 123.882C285.282 125.144 283.523 126.896 282.965 126.896C282.787 126.896 282.159 126.485 281.57 125.982V125.982ZM109.843 118.319C108.667 117.67 107.796 116.947 107.46 116.342C107.286 116.03 107.418 115.768 108.059 115.147C108.511 114.709 109.07 113.824 109.303 113.181C109.794 111.821 110.187 111.607 112.183 111.607C114.513 111.607 116.262 112.591 118.004 114.883C118.563 115.619 119.02 116.338 119.02 116.481C119.02 116.624 118.493 117.028 117.848 117.379C114.829 119.024 111.769 119.383 109.843 118.319ZM271.749 118.161C270.152 117.632 267.984 116.505 267.984 116.206C267.984 116.11 268.284 115.575 268.652 115.017C270.539 112.15 273.669 110.654 276.29 111.366C277.222 111.618 277.333 111.728 277.589 112.657C277.758 113.269 278.252 114.075 278.832 114.686L279.796 115.7L279.341 116.261C277.48 118.554 274.889 119.203 271.749 118.161V118.161ZM93.6756 117.812C93.0025 117.579 92.0308 117.106 91.5163 116.761L90.5807 116.132L90.9067 115.236C92.1578 111.797 95.5812 109.828 98.7995 110.695C99.6007 110.91 99.653 110.987 99.9075 112.314C100.072 113.171 100.421 114.019 100.816 114.522L101.457 115.337L100.458 116.197C98.3231 118.034 95.954 118.598 93.6756 117.812V117.812ZM126.507 117.14C124.522 115.131 124.372 112.965 126.073 110.869C126.525 110.311 126.708 110.252 127.793 110.315C128.845 110.376 129.062 110.473 129.422 111.051C130.119 112.169 130.406 113.859 130.091 114.994C129.836 115.91 128.069 117.996 127.546 117.996C127.44 117.996 126.972 117.611 126.507 117.14V117.14ZM290.139 117.745C289.576 117.641 288.676 117.304 288.139 116.996C286.865 116.267 285.508 114.903 285.852 114.697C286.326 114.413 287.018 112.829 287.177 111.663C287.321 110.613 287.397 110.5 288.043 110.375C290.348 109.928 292.3 110.395 293.88 111.773C295.023 112.769 296.583 115.334 296.308 115.765C296.046 116.177 294.001 117.321 293.167 117.522C291.595 117.902 291.159 117.934 290.139 117.745V117.745ZM258.161 116.551C256.547 114.853 256.335 113.249 257.434 111.056C257.921 110.083 257.98 110.046 259.135 109.97C260.517 109.88 260.934 110.164 261.645 111.684C262.174 112.812 262.222 114.077 261.777 115.11C261.337 116.132 260.027 117.54 259.517 117.54C259.289 117.54 258.678 117.095 258.161 116.551H258.161ZM120.091 115.979C120.005 115.714 119.555 114.963 119.091 114.31L118.248 113.122L118.842 112.626C119.376 112.181 119.552 112.154 120.596 112.361C121.521 112.545 121.983 112.516 122.883 112.219L124.01 111.847L123.856 112.468C123.77 112.81 122.924 113.848 121.975 114.775C120.423 116.289 120.233 116.411 120.091 115.979V115.979ZM265.03 114.493C263.945 113.531 263.283 112.745 263.118 112.223L262.865 111.426L263.718 111.771C264.311 112.011 265.05 112.083 266.148 112.007C267.554 111.909 267.78 111.952 268.216 112.402L268.705 112.907L267.933 114.049C267.508 114.677 267.054 115.365 266.925 115.578C266.72 115.915 266.473 115.773 265.03 114.493ZM102.796 114.764C101.656 114.013 101.081 112.954 101.081 111.606C101.081 107.753 106.237 106.482 107.964 109.91C108.558 111.091 108.556 112.13 107.958 113.303C107.301 114.588 106.478 115.104 104.912 115.21C103.837 115.283 103.465 115.204 102.797 114.764H102.796ZM280.781 114.702C279.023 113.96 278.175 111.771 278.916 109.889C280.397 106.13 285.908 107.226 285.908 111.279C285.908 113.977 283.257 115.747 280.781 114.702V114.702ZM132.742 111.676C132.459 111.622 131.77 111.184 131.213 110.702L130.199 109.826L130.699 109.29C131.355 108.586 131.728 107.865 131.728 107.3C131.728 106.934 131.936 106.812 132.77 106.691C134.73 106.406 136.68 107.546 137.758 109.607C138.443 110.919 138.426 110.947 136.569 111.493C135.472 111.816 133.889 111.892 132.742 111.676V111.676ZM251.628 111.508C251.499 111.458 250.782 111.24 250.035 111.023C248.49 110.574 248.452 110.385 249.588 108.776C250.56 107.398 251.788 106.551 253.009 106.418C254.655 106.238 255.198 106.453 255.372 107.355C255.454 107.78 255.789 108.408 256.116 108.75C256.665 109.325 256.684 109.411 256.358 109.893C255.786 110.74 254.447 111.403 253.103 111.504C252.421 111.555 251.758 111.557 251.628 111.507V111.508ZM120.015 111.031C118.676 110.642 117.844 110.09 117.844 109.592C117.844 109.369 118.149 108.72 118.521 108.15C119.603 106.496 121.35 105.703 123.233 106.012C124.083 106.151 124.148 106.219 124.269 107.093C124.34 107.606 124.611 108.305 124.871 108.646L125.345 109.267L124.712 109.84C123.356 111.07 121.643 111.504 120.015 111.031V111.031ZM264.292 110.728C264.009 110.646 263.304 110.255 262.725 109.858L261.673 109.136L262.24 108.05C262.551 107.454 262.806 106.728 262.806 106.438C262.806 105.787 263.524 105.573 265.182 105.727C266.563 105.856 267.815 106.715 268.627 108.091C269.399 109.4 269.317 109.664 267.937 110.331C266.734 110.912 265.426 111.055 264.292 110.728ZM109.129 109.596C108.547 108.322 107.917 107.631 106.996 107.261C106.174 106.931 106.132 106.462 106.808 105.151C108.028 102.786 110.18 101.566 113.13 101.566C115.042 101.566 115.072 101.606 115.072 104.188C115.072 107.382 113.364 109.617 110.265 110.479C109.657 110.648 109.582 110.59 109.129 109.596ZM276.091 109.935C274.245 109.245 272.886 107.953 272.21 106.244C271.911 105.487 271.821 102.64 272.072 101.88C272.282 101.247 273.426 101.066 275.343 101.364C277.901 101.762 279.505 103.071 280.522 105.593L280.904 106.54L280.24 106.807C279.338 107.169 278.204 108.345 277.759 109.382C277.365 110.298 277.205 110.351 276.091 109.935H276.091ZM98.6105 108.113C96.8582 106.317 96.5502 105.638 96.5693 103.62C96.5813 102.294 96.7214 101.619 97.187 100.625C97.5178 99.9196 97.8842 99.2848 98.0013 99.2146C98.3637 98.9975 101.205 100.047 102.147 100.746C103.267 101.577 104.098 102.933 104.443 104.493C104.836 106.267 104.646 106.723 103.438 106.91C102.655 107.031 102.196 107.309 101.316 108.195C100.698 108.816 100.103 109.325 99.9923 109.325C99.8821 109.325 99.2603 108.779 98.6105 108.113V108.113ZM126.31 108.441C125.538 107.693 125.254 106.854 125.479 105.986C125.564 105.657 125.938 105.092 126.31 104.731C126.848 104.209 127.192 104.077 128.004 104.081C129.621 104.09 130.552 105.074 130.552 106.775C130.552 108.151 129.547 109.096 128.086 109.096C127.188 109.096 126.861 108.976 126.31 108.441V108.441ZM286.254 108.403C285.752 107.579 284.405 106.688 283.339 106.475C282.382 106.283 282.201 105.703 282.566 103.997C282.865 102.601 283.785 101.214 284.94 100.416C285.798 99.8233 288.143 98.8409 288.719 98.8327C288.96 98.8297 289.342 99.3503 289.762 100.254C290.609 102.073 290.706 104.384 289.995 105.787C289.541 106.685 287.267 109.096 286.876 109.096C286.766 109.096 286.486 108.784 286.254 108.403V108.403ZM257.253 108.092C256.586 107.446 256.452 107.149 256.452 106.317C256.452 103.94 259.106 102.804 260.748 104.478C261.541 105.286 261.744 106.131 261.393 107.162C261.058 108.144 259.978 108.866 258.841 108.867C258.258 108.867 257.845 108.666 257.253 108.092V108.092ZM131.363 104.795C131.111 104.341 130.565 103.762 130.149 103.509C129.201 102.932 129.192 102.564 130.097 101.352C131.055 100.07 132.455 99.4663 134.26 99.5576L135.611 99.6259L135.685 100.754C135.823 102.875 134.691 104.639 132.771 105.296L131.821 105.621L131.363 104.795L131.363 104.795ZM150.142 105.112C147.575 104.548 145.155 103.163 142.632 100.812L141.416 99.6794L139.177 101.193C137.946 102.026 136.905 102.707 136.863 102.706C136.822 102.706 136.8 101.717 136.814 100.508L136.84 98.3096L139.52 96.5805C141.818 95.0983 143.952 93.8269 149.334 90.7333C150.267 90.1969 150.496 89.853 152.198 86.4447C153.215 84.4067 154.056 82.9034 154.066 83.104C154.076 83.3046 153.82 84.6308 153.496 86.051C153.172 87.4712 152.952 88.6767 153.007 88.73C153.233 88.95 155.461 87.4944 156.556 86.4106C159.715 83.2827 163.285 81.1812 166.686 80.4475C169.277 79.8887 174.147 80.084 176.912 80.8578C179.368 81.5451 182.595 82.833 184.741 83.9824L186.353 84.8456L184.751 86.2611C182.603 88.158 179.042 90.4439 176.706 91.4254C173.279 92.8657 171.591 93.1934 167.498 93.2129C163.57 93.2316 161.441 92.8618 158.144 91.5881L156.673 91.0197L153.401 92.7441C151.602 93.6925 148.928 95.1654 147.46 96.0172C145.241 97.3042 144.889 97.5805 145.378 97.6521C145.701 97.6994 150.222 97.6953 155.424 97.6432L164.882 97.5478L164.484 98.2017C163.697 99.4955 161.099 102.017 159.473 103.065C156.447 105.015 153.074 105.755 150.142 105.112L150.142 105.112ZM253.569 104.745C252.185 104.036 251.422 102.719 251.313 100.849L251.222 99.2837L252.131 99.2426C254.53 99.1344 255.458 99.443 256.632 100.74C257.783 102.011 257.815 102.416 256.824 103.207C256.356 103.582 255.813 104.188 255.618 104.553C255.205 105.327 254.783 105.366 253.569 104.745L253.569 104.745ZM123.543 104.218C122.219 103.232 121.609 102.114 121.609 100.672C121.609 100.026 121.758 99.1525 121.939 98.7312C122.267 97.971 122.278 97.9667 123.348 98.1606C125.404 98.533 126.772 99.6304 127.247 101.288C127.622 102.6 127.555 102.821 126.685 103.126C126.241 103.282 125.567 103.752 125.189 104.17L124.5 104.931L123.543 104.218V104.218ZM231.67 104.66C228.375 103.74 224.89 101.167 222.573 97.9421L222.019 97.171L232.235 97.3318L242.45 97.4926L241.627 96.942C240.547 96.2199 235.254 93.2562 232.55 91.8598L230.416 90.7575L227.844 91.5815C224.319 92.7106 222.699 92.9695 219.271 92.9518C214.724 92.9283 210.669 91.7206 206.632 89.1879C204.472 87.8328 200.603 84.6604 200.841 84.4397C201.339 83.9777 206.441 81.6872 208.328 81.0783C211.59 80.0255 213.024 79.7911 216.211 79.79C218.563 79.79 219.53 79.893 221.036 80.3074C224.348 81.2194 227.845 83.3394 230.254 85.896C231.334 87.0412 234.106 88.8583 234.089 88.409C234.084 88.3029 233.784 86.9068 233.42 85.3065C233.056 83.7063 232.821 82.3986 232.898 82.4006C232.975 82.4035 233.832 84.0606 234.802 86.0853C236.397 89.4104 236.658 89.8192 237.509 90.3132C238.026 90.6139 239.855 91.6712 241.573 92.6625C246.988 95.7884 250.58 98.1971 250.305 98.5185C250.167 98.6802 250.095 99.5905 250.139 100.63L250.216 102.458L249.647 102.095C249.334 101.896 248.277 101.182 247.298 100.51L245.518 99.2871L243.984 100.747C242.28 102.368 240.413 103.594 238.524 104.33C236.932 104.951 233.333 105.125 231.67 104.66H231.67ZM261.884 103.874C261.618 103.511 260.976 103.05 260.456 102.849C259.439 102.454 259.358 102.226 259.749 100.862C260.198 99.2923 262.581 97.6863 264.459 97.6863C265.317 97.6863 265.697 100.766 265.011 102.166C264.656 102.893 262.947 104.532 262.545 104.532C262.447 104.532 262.15 104.236 261.884 103.874Z" fill="#FCDD09"/>
<path d="M172.371 141.137V135.888H174.927H177.484V137.233V138.578H175.466H173.447V142.482V146.386H172.909H172.371V141.137V141.137Z" fill="black"/>
<path d="M147.555 154.581V149.332H150.112H152.669V150.677V152.022H150.651H148.632V155.926V159.831H148.094H147.555V154.581Z" fill="black"/>
<path d="M213.403 141.211V135.962H215.96H218.517V137.307V138.652H216.498H214.48V142.556V146.46H213.941H213.403V141.211Z" fill="black"/>
<path d="M238.225 154.549V149.299H240.782H243.339V150.644V151.989H241.32H239.302V155.894V159.798H238.763H238.225V154.549V154.549Z" fill="black"/>
<path d="M140.508 181.223C137.482 177.699 136.968 174.414 136.968 174.345C136.968 174.154 148.012 158.518 148.146 158.519C148.211 158.519 150.647 161.912 153.559 166.057C157.771 172.054 158.902 173.522 159.089 173.239C159.219 173.043 162.238 166.541 165.799 158.79L172.273 144.698L193.45 144.647L214.627 144.595L221.216 158.986C224.84 166.901 227.862 173.412 227.931 173.454C228 173.497 230.436 170.152 233.343 166.021C236.251 161.891 238.683 158.51 238.748 158.509C238.843 158.506 248.114 171.524 249.622 173.776L250.023 174.375L246.999 181.335C244.696 186.636 238.856 187.125 238.572 187.085C238.345 187.054 228.17 186.504 215.96 185.864L193.761 184.7L171.212 185.863C158.81 186.503 148.507 187.084 148.317 187.155C148.076 187.244 144.322 185.665 140.508 181.223V181.223Z" fill="#0F47AF"/>
<path d="M135.317 239.227V232.267H136.964H138.611V209.789V187.312H136.964H135.317V180.123V172.935H137.67H140.023V176.244V179.553H142.259H144.495V176.244V172.935H146.848H149.201V176.244V179.553H151.409C154.054 179.553 153.9 179.788 153.905 175.73L153.908 172.935H156.143H158.379V176.244V179.553H160.732H163.085V176.244V172.935H165.321H167.557L167.56 175.73C167.564 179.788 167.411 179.553 170.055 179.553H172.263V176.244V172.935H174.616H176.97V176.244V179.553H179.199H181.428L181.493 176.301L181.559 173.049L183.853 172.984L186.147 172.918V176.236V179.553H188.358C190.156 179.553 190.595 179.486 190.711 179.192C190.79 178.993 190.854 177.504 190.854 175.883V172.935H193.09H195.325L195.328 175.73C195.333 179.788 195.179 179.553 197.823 179.553H200.032V176.244V172.935H202.385H204.738V176.244V179.553H206.974H209.21V176.244V172.935H211.563H213.916V176.244V179.553H216.124C218.769 179.553 218.615 179.788 218.619 175.73L218.622 172.935H220.858H223.094V175.883C223.094 177.504 223.158 178.993 223.237 179.192C223.353 179.485 223.791 179.553 225.59 179.553H227.8V176.244V172.935H230.036H232.272L232.275 175.73C232.279 179.788 232.125 179.553 234.77 179.553H236.978V176.244V172.935H239.331H241.685V176.244V179.553H243.92H246.156V176.244V172.935H248.627H251.098V180.123V187.312H250.039H248.98V209.789V232.267H250.627H252.274V239.227V246.187H193.795H135.316V239.227L135.317 239.227ZM209.394 232.21L209.328 218.461L208.772 217.434C206.947 214.064 202.029 211.87 195.629 211.57C192.359 211.416 190.074 211.685 187.146 212.567C183.702 213.605 181.433 215.22 180.313 217.431L179.676 218.689L179.61 232.324L179.544 245.959H194.502H209.459L209.393 232.21H209.394ZM240.273 207.964V204.883H237.92H235.567V207.964V211.044H237.92H240.273V207.964ZM151.503 207.564L151.437 204.541L149.142 204.475L146.848 204.41V207.499V210.588H149.208H151.568L151.503 207.564L151.503 207.564ZM177.676 197.01V193.929H175.323H172.969V197.01V200.091H175.323H177.676V197.01ZM214.623 197.01V193.929H212.269H209.916V197.01V200.091H212.269H214.623V197.01ZM195.561 196.782V193.701H193.208H190.854V196.782V199.862H193.208H195.561V196.782Z" fill="#DA121A"/>
<path d="M174.926 233.3C174.929 226.177 175.033 219.665 175.158 218.827C176.032 212.964 180.695 209.028 188.544 207.529C191.308 207 196.918 207.008 199.631 207.544C206.772 208.954 211.5 212.062 213.308 216.533C213.995 218.232 214.1 221.894 213.867 235.924L213.695 246.25H211.494H209.293L209.227 232.501L209.161 218.752L208.535 217.611C206.461 213.831 200.34 211.533 193.208 211.857C187.039 212.138 182.158 214.316 180.381 217.583L179.745 218.752L179.679 232.501L179.613 246.25H177.267H174.921L174.925 233.3L174.926 233.3Z" fill="#FCDD09" stroke="#ACAC04" stroke-width="0.355"/>
<path d="M120.992 246.211H265.838" stroke="black" stroke-width="0.392"/>
<path d="M135.404 183.038H250.953" stroke="#FBFBFB" stroke-width="0.392"/>
</g>
<defs>
<clipPath id="clip0_1_2677">
<rect width="600" height="400" fill="white"/>
</clipPath>
</defs>
</svg>
