<svg width="600" height="400" viewBox="0 0 600 400" fill="none" xmlns="http://www.w3.org/2000/svg" xmlns:cgf="https://coding.garden/flags"><metadata id="cgf-metadata">

<cgf:flag>
  <cgf:name>Epe</cgf:name>
  <cgf:route>nl/ge/epe</cgf:route>
  <cgf:aspect-ratio>1.5</cgf:aspect-ratio>
</cgf:flag>

</metadata><g clip-path="url(#clip0_1_2701)">
<path d="M600 0H0V400H600V0Z" fill="#0062BC"/>
<path d="M600 0H300V200H600V0Z" fill="#EFC600"/>
<path d="M220.123 145.818C220.123 148.16 213.461 150.406 201.603 152.062C189.745 153.718 173.662 154.648 156.893 154.648C140.123 154.648 124.04 153.718 112.182 152.062C100.324 150.406 93.6626 148.16 93.6626 145.818C93.6626 143.476 100.324 141.23 112.182 139.574C124.04 137.918 140.123 136.988 156.893 136.988C173.662 136.988 189.745 137.918 201.603 139.574C213.461 141.23 220.123 143.476 220.123 145.818V145.818Z" fill="#EFC600"/>
<path fill-rule="evenodd" clip-rule="evenodd" d="M103.085 155.282C102.646 154.499 101.785 153.149 100.206 152.708C97.081 152.545 89.0095 152.269 87.7933 152.558L87.4062 153.815C86.6461 153.359 101.05 153.971 103.085 155.282V155.282Z" fill="#EFC600" stroke="black" stroke-width="0.31077"/>
<path fill-rule="evenodd" clip-rule="evenodd" d="M102.906 151.964C102.294 151.196 101.878 150.47 99.8724 149.971C99.9039 150.542 100.347 151.155 102.906 151.964Z" fill="#EFC600" stroke="black" stroke-width="0.31077"/>
<path fill-rule="evenodd" clip-rule="evenodd" d="M57.9428 61.2161C58.364 60.8898 59.067 60.2878 59.0189 59.5949C58.4581 58.3672 56.9149 55.2255 56.4653 54.8189L55.5562 54.9252C55.6937 54.5423 58.3693 60.1728 57.9428 61.2161Z" fill="#EFC600" stroke="black" stroke-width="0.31077"/>
<path fill-rule="evenodd" clip-rule="evenodd" d="M59.775 61.2494C60.0995 60.5551 60.4453 59.9517 60.2672 58.9786C59.9231 59.3576 59.6534 59.897 59.775 61.2494Z" fill="#EFC600" stroke="black" stroke-width="0.31077"/>
<path fill-rule="evenodd" clip-rule="evenodd" d="M56.6484 81.8556C56.9499 80.9468 57.2884 80.1418 56.9529 79.0192C56.5883 79.5553 56.333 80.2654 56.6484 81.8556Z" fill="#EFC600" stroke="black" stroke-width="0.31077"/>
<path fill-rule="evenodd" clip-rule="evenodd" d="M60.1769 103.159C60.3579 102.777 60.5965 102.102 59.7761 101.67C57.7148 101.096 52.3015 99.6707 51.2815 99.5867L50.2363 100.022C49.9926 99.7169 59.579 102.308 60.1769 103.159V103.159Z" fill="#EFC600" stroke="black" stroke-width="0.31077"/>
<path fill-rule="evenodd" clip-rule="evenodd" d="M60.6316 103.216C60.7613 102.383 60.9577 101.63 60.3097 100.747C60.02 101.277 59.8962 101.932 60.6316 103.216Z" fill="#EFC600" stroke="black" stroke-width="0.31077"/>
<path fill-rule="evenodd" clip-rule="evenodd" d="M71.0874 126.521C70.9174 125.899 70.5288 124.815 69.2207 124.288C66.4253 123.752 59.163 122.471 57.972 122.516L57.252 123.366C56.694 122.937 69.6189 125.307 71.0874 126.521V126.521Z" fill="#EFC600" stroke="black" stroke-width="0.31077"/>
<path fill-rule="evenodd" clip-rule="evenodd" d="M71.0595 124.317C70.8437 123.49 70.7659 122.727 69.3769 122.016C69.2082 122.585 69.3456 123.239 71.0595 124.317Z" fill="#EFC600" stroke="black" stroke-width="0.31077"/>
<path fill-rule="evenodd" clip-rule="evenodd" d="M84.3803 17.7126C84.8401 17.1447 85.2991 16.6729 85.3541 15.6614C84.9476 15.9146 84.574 16.3498 84.3803 17.7126Z" fill="#EFC600" stroke="black" stroke-width="0.31077"/>
<path fill-rule="evenodd" clip-rule="evenodd" d="M78.2871 24.8938C78.7242 24.574 79.4589 23.9799 79.4786 23.2524C79.0552 21.9394 77.8673 18.5737 77.4727 18.1254L76.5866 18.1902C76.7555 17.7966 78.7975 23.824 78.2871 24.8938Z" fill="#EFC600" stroke="black" stroke-width="0.31077"/>
<path fill-rule="evenodd" clip-rule="evenodd" d="M80.1439 24.9419C80.5149 24.2804 80.9014 23.7123 80.7865 22.7179C80.4166 23.0613 80.1107 23.5733 80.1439 24.9419Z" fill="#EFC600" stroke="black" stroke-width="0.31077"/>
<path fill-rule="evenodd" clip-rule="evenodd" d="M66.0885 41.8298C66.5098 41.5036 67.2127 40.9015 67.1647 40.2086C66.6039 38.981 65.0607 35.8393 64.611 35.4327L63.702 35.5389C63.8394 35.1561 66.515 40.7865 66.0885 41.8298Z" fill="#EFC600" stroke="black" stroke-width="0.31077"/>
<path fill-rule="evenodd" clip-rule="evenodd" d="M67.9205 41.8631C68.245 41.1688 68.5908 40.5655 68.4127 39.5923C68.0686 39.9714 67.799 40.5107 67.9205 41.8631Z" fill="#EFC600" stroke="black" stroke-width="0.31077"/>
<path fill-rule="evenodd" clip-rule="evenodd" d="M60.4608 53.9442C60.9173 53.5774 61.6745 52.9032 61.565 52.1589C60.827 50.8578 58.8143 47.532 58.2677 47.1109L57.2357 47.2588C57.363 46.8415 60.867 52.8051 60.4608 53.9442Z" fill="#EFC600" stroke="black" stroke-width="0.31077"/>
<path fill-rule="evenodd" clip-rule="evenodd" d="M62.4474 53.9746C62.7781 53.1787 63.1361 52.4825 62.8997 51.4136C62.5346 51.8603 62.2582 52.4798 62.4474 53.9746Z" fill="#EFC600" stroke="black" stroke-width="0.31077"/>
<path fill-rule="evenodd" clip-rule="evenodd" d="M57.7809 70.3128C58.1213 69.9355 58.6473 69.259 58.0783 68.7072C56.4185 67.8554 52.0226 65.7042 51.1111 65.4919L49.9426 65.819C49.8529 65.4707 57.6078 69.3499 57.7809 70.3128Z" fill="#EFC600" stroke="black" stroke-width="0.31077"/>
<path fill-rule="evenodd" clip-rule="evenodd" d="M58.8319 70.3634C59.0578 69.474 59.3339 68.6775 58.8599 67.6656C58.5281 68.2129 58.3306 68.9103 58.8319 70.3634Z" fill="#EFC600" stroke="black" stroke-width="0.31077"/>
<path fill-rule="evenodd" clip-rule="evenodd" d="M57.3897 94.4243C57.7683 94.0409 58.3651 93.3501 57.8799 92.7483C56.37 91.7893 52.358 89.3596 51.4969 89.1015L50.3182 89.4004C50.2744 89.0309 57.3414 93.4057 57.3897 94.4243Z" fill="#EFC600" stroke="black" stroke-width="0.31077"/>
<path fill-rule="evenodd" clip-rule="evenodd" d="M58.6986 94.4722C58.9495 93.5723 59.2459 92.7688 58.8197 91.7211C58.4778 92.2686 58.2613 92.9736 58.6986 94.4722Z" fill="#EFC600" stroke="black" stroke-width="0.31077"/>
<path fill-rule="evenodd" clip-rule="evenodd" d="M65.8364 117.284C65.9024 116.825 65.9323 116.018 64.9133 115.528C62.5233 114.906 56.274 113.369 55.158 113.299L54.1877 113.845C53.8263 113.49 64.9154 116.291 65.8364 117.284L65.8364 117.284Z" fill="#EFC600" stroke="black" stroke-width="0.31077"/>
<path fill-rule="evenodd" clip-rule="evenodd" d="M66.1137 116.519C66.1464 115.661 66.2703 114.879 65.3699 114.028C65.1025 114.589 65.0507 115.266 66.1137 116.519Z" fill="#EFC600" stroke="black" stroke-width="0.31077"/>
<path fill-rule="evenodd" clip-rule="evenodd" d="M78.8097 135.678C78.4492 135.007 77.7373 133.851 76.3824 133.455C73.6848 133.273 66.7135 132.926 65.655 133.154L65.2901 134.214C64.644 133.817 77.0814 134.538 78.8097 135.678Z" fill="#EFC600" stroke="black" stroke-width="0.31077"/>
<path fill-rule="evenodd" clip-rule="evenodd" d="M78.6585 132.853C78.1612 132.182 77.8299 131.549 76.1329 131.098C76.1407 131.594 76.4992 132.128 78.6585 132.853Z" fill="#EFC600" stroke="black" stroke-width="0.31077"/>
<path fill-rule="evenodd" clip-rule="evenodd" d="M91.2599 147.901C90.8211 147.117 89.96 145.768 88.3805 145.327C85.2556 145.164 77.1841 144.887 75.9679 145.176L75.5808 146.434C74.8207 145.977 89.2242 146.59 91.2599 147.901V147.901Z" fill="#EFC600" stroke="black" stroke-width="0.31077"/>
<path fill-rule="evenodd" clip-rule="evenodd" d="M91.0808 144.583C90.4687 143.815 90.0526 143.09 88.0472 142.59C88.0787 143.162 88.5222 143.774 91.0808 144.583Z" fill="#EFC600" stroke="black" stroke-width="0.31077"/>
<path fill-rule="evenodd" clip-rule="evenodd" d="M122.542 163.875C121.91 163.028 120.715 161.585 119.011 161.329C115.81 161.655 107.574 162.665 106.413 163.206L106.322 164.746C105.443 164.336 120.168 162.673 122.542 163.875V163.875Z" fill="#EFC600" stroke="black" stroke-width="0.31077"/>
<path fill-rule="evenodd" clip-rule="evenodd" d="M122.369 160.314C121.414 159.577 120.691 158.866 118.304 158.532C118.549 159.119 119.261 159.711 122.369 160.314Z" fill="#EFC600" stroke="black" stroke-width="0.31077"/>
<path fill-rule="evenodd" clip-rule="evenodd" d="M146.704 169.16C145.877 168.38 145.275 167.636 142.965 167.21C143.113 167.812 143.723 168.436 146.704 169.16Z" fill="#EFC600" stroke="black" stroke-width="0.31077"/>
<path fill-rule="evenodd" clip-rule="evenodd" d="M87.438 15.4004C87.3679 14.9834 87.2757 14.2425 87.5983 13.7173C88.4078 12.9686 90.5333 11.094 90.9335 10.947L91.3424 11.3778C91.4386 11.0249 87.6743 14.4189 87.438 15.4004Z" fill="#EFC600" stroke="black" stroke-width="0.31077"/>
<path fill-rule="evenodd" clip-rule="evenodd" d="M87.4624 15.9306C87.367 15.3929 87.2388 14.9154 87.5537 14.2637C87.7241 14.584 87.8106 15.0045 87.4624 15.9306Z" fill="#EFC600" stroke="black" stroke-width="0.31077"/>
<path fill-rule="evenodd" clip-rule="evenodd" d="M79.2012 24.9606C79.7837 24.7779 80.8407 24.4817 81.8496 24.6117C83.5218 25.1031 87.7751 26.4202 88.2651 26.728L87.8884 27.2115C88.4856 27.1932 80.8411 24.8822 79.2012 24.9606Z" fill="#EFC600" stroke="black" stroke-width="0.31077"/>
<path fill-rule="evenodd" clip-rule="evenodd" d="M79.2174 26.1064C79.7007 25.5818 80.1038 25.056 80.948 25.0134C80.7281 25.4825 80.3573 25.9094 79.2174 26.1064Z" fill="#EFC600" stroke="black" stroke-width="0.31077"/>
<path fill-rule="evenodd" clip-rule="evenodd" d="M71.7606 34.9386C72.2925 34.7277 73.2632 34.3828 74.254 34.4951C75.9392 34.9766 80.236 36.2732 80.7552 36.5896L80.4682 37.1169C81.0398 37.0814 73.3259 34.8113 71.7606 34.9386V34.9386Z" fill="#EFC600" stroke="black" stroke-width="0.31077"/>
<path fill-rule="evenodd" clip-rule="evenodd" d="M71.7807 36.3885C72.2062 35.7965 72.5537 35.2138 73.3719 35.0608C73.198 35.5625 72.8736 36.0412 71.7807 36.3885Z" fill="#EFC600" stroke="black" stroke-width="0.31077"/>
<path fill-rule="evenodd" clip-rule="evenodd" d="M64.9332 46.6171C65.4181 46.374 66.3082 45.973 67.2779 46.0585C68.9655 46.5136 73.2775 47.7472 73.8196 48.0664L73.6124 48.6383C74.1586 48.5808 66.4251 46.4274 64.9332 46.6171V46.6171Z" fill="#EFC600" stroke="black" stroke-width="0.31077"/>
<path fill-rule="evenodd" clip-rule="evenodd" d="M64.9568 48.2875C65.3297 47.6426 65.6265 47.0166 66.4193 46.7642C66.2869 47.2881 66.0048 47.8071 64.9568 48.2875Z" fill="#EFC600" stroke="black" stroke-width="0.31077"/>
<path fill-rule="evenodd" clip-rule="evenodd" d="M59.4809 61.9006C59.7884 61.4381 60.378 60.6498 61.3108 60.4939C63.1045 60.6344 67.7271 61.089 68.3995 61.3669L68.5283 62.1941C68.995 61.9642 60.7374 61.2285 59.4809 61.9006V61.9006Z" fill="#EFC600" stroke="black" stroke-width="0.31077"/>
<path fill-rule="evenodd" clip-rule="evenodd" d="M59.5011 64.1116C59.654 63.2485 59.7321 62.4464 60.4895 61.7517C60.5492 62.3587 60.4455 63.0436 59.5011 64.1116Z" fill="#EFC600" stroke="black" stroke-width="0.31077"/>
<path fill-rule="evenodd" clip-rule="evenodd" d="M58.2116 82.6161C58.3503 81.9673 58.65 80.8406 59.4994 80.3559C61.2842 79.9476 65.9154 79.0054 66.6619 79.1203L67.071 80.0628C67.4438 79.6396 59.197 81.4136 58.2116 82.6161V82.6161Z" fill="#EFC600" stroke="black" stroke-width="0.31077"/>
<path fill-rule="evenodd" clip-rule="evenodd" d="M58.2518 84.5805C58.2304 83.6147 58.1402 82.7384 58.8195 81.7509C59.0183 82.3747 59.0547 83.1351 58.2518 84.5805Z" fill="#EFC600" stroke="black" stroke-width="0.31077"/>
<path fill-rule="evenodd" clip-rule="evenodd" d="M63.4762 106.706C63.254 106.049 62.9117 104.868 63.2976 103.873C64.414 102.315 67.3696 98.371 67.9796 97.9671L68.7543 98.5098C68.8183 97.8906 63.6033 104.996 63.4762 106.706V106.706Z" fill="#EFC600" stroke="black" stroke-width="0.31077"/>
<path fill-rule="evenodd" clip-rule="evenodd" d="M63.5459 107.162C63.3073 106.322 63.0183 105.581 63.4926 104.515C63.8361 105.002 64.0439 105.658 63.5459 107.162Z" fill="#EFC600" stroke="black" stroke-width="0.31077"/>
<path fill-rule="evenodd" clip-rule="evenodd" d="M72.9235 125.853C72.5642 125.187 71.9826 123.975 72.2509 122.791C73.2468 120.808 75.9136 115.761 76.5322 115.169L77.4938 115.575C77.4626 114.88 72.7818 123.948 72.9235 125.854L72.9235 125.853Z" fill="#EFC600" stroke="black" stroke-width="0.31077"/>
<path fill-rule="evenodd" clip-rule="evenodd" d="M73.0101 126.047C72.6475 125.178 72.235 124.415 72.693 123.262C73.1457 123.754 73.4542 124.431 73.0101 126.047Z" fill="#EFC600" stroke="black" stroke-width="0.31077"/>
<path fill-rule="evenodd" clip-rule="evenodd" d="M90.4325 144.016C89.8241 143.434 88.8019 142.346 88.7823 140.944C89.3892 138.375 91.0887 131.782 91.646 130.885L92.8859 130.939C92.6537 130.193 89.7296 141.992 90.4325 144.016V144.016Z" fill="#EFC600" stroke="black" stroke-width="0.31077"/>
<path fill-rule="evenodd" clip-rule="evenodd" d="M90.7475 143.997C90.0422 143.201 89.3023 142.516 89.5721 141.336C90.2884 141.754 90.8719 142.37 90.7475 143.997Z" fill="#EFC600" stroke="black" stroke-width="0.31077"/>
<path fill-rule="evenodd" clip-rule="evenodd" d="M114.292 157.098C113.127 156.427 111.957 155.867 111.875 154.705C112.921 155.013 113.87 155.527 114.292 157.098Z" fill="#EFC600" stroke="black" stroke-width="0.31077"/>
<path fill-rule="evenodd" clip-rule="evenodd" d="M134.656 164.874C133.384 164.142 132.107 163.53 132.018 162.262C133.159 162.597 134.195 163.159 134.656 164.874Z" fill="#EFC600" stroke="black" stroke-width="0.31077"/>
<path fill-rule="evenodd" clip-rule="evenodd" d="M156.465 172.071C155.192 171.338 153.916 170.727 153.827 169.458C154.968 169.794 156.004 170.356 156.465 172.071Z" fill="#EFC600" stroke="black" stroke-width="0.31077"/>
<path fill-rule="evenodd" clip-rule="evenodd" d="M59.3527 89.2742C59.6602 88.8116 60.2498 88.0234 61.1826 87.8674C62.9764 88.008 67.5989 88.4625 68.2713 88.7404L68.4001 89.5677C68.8669 89.3377 60.6092 88.6021 59.3527 89.2742V89.2742Z" fill="#EFC600" stroke="black" stroke-width="0.31077"/>
<path fill-rule="evenodd" clip-rule="evenodd" d="M59.3731 91.4851C59.5261 90.622 59.6042 89.82 60.3616 89.1252C60.4213 89.7323 60.3176 90.417 59.3731 91.4851Z" fill="#EFC600" stroke="black" stroke-width="0.31077"/>
<path fill-rule="evenodd" clip-rule="evenodd" d="M69.9377 34.5972C70.3941 34.3018 71.1701 33.7449 71.3038 32.9701C71.1193 31.523 70.5513 27.8029 70.2563 27.2824L69.4237 27.2581C69.643 26.8556 70.5811 33.5085 69.9377 34.5972V34.5972Z" fill="#EFC600" stroke="black" stroke-width="0.31077"/>
<path fill-rule="evenodd" clip-rule="evenodd" d="M71.672 34.6726C72.1318 34.1046 72.5909 33.6328 72.6458 32.6213C72.2394 32.8746 71.8658 33.3098 71.672 34.6726Z" fill="#EFC600" stroke="black" stroke-width="0.31077"/>
<path fill-rule="evenodd" clip-rule="evenodd" d="M87.0889 15.9508C87.5282 15.813 88.3255 15.5896 89.0864 15.6876C90.3478 16.0583 93.556 17.0517 93.9255 17.2839L93.6414 17.6486C94.0918 17.6348 88.3258 15.8916 87.0889 15.9508Z" fill="#EFC600" stroke="black" stroke-width="0.31077"/>
<path fill-rule="evenodd" clip-rule="evenodd" d="M87.1011 16.8148C87.4656 16.4191 87.7697 16.0225 88.4064 15.9904C88.2405 16.3443 87.9609 16.6662 87.1011 16.8148Z" fill="#EFC600" stroke="black" stroke-width="0.31077"/>
<path fill-rule="evenodd" clip-rule="evenodd" d="M124.314 19.1993C114.725 24.5343 99.1235 35.0402 91.047 45.0921C76.1482 63.6349 70.2012 89.6629 80.455 115.535C88.8093 136.614 110.219 153.99 119.152 161.22C128.086 168.45 143.068 191.042 144.437 192.681C144.135 191.878 144.292 186.405 146 185.493C143.366 179.866 125.087 162.43 115.438 154.741C96.0499 139.29 77.4168 119.792 76.9872 90.8755C76.4269 53.1695 98.3104 35.0858 124.471 19.4327L124.314 19.1993V19.1993Z" fill="#EFC600" stroke="black" stroke-width="0.31077"/>
<path fill-rule="evenodd" clip-rule="evenodd" d="M185.07 191.98C185.842 189.673 186.716 187.639 185.786 184.686C184.835 186.02 184.179 187.82 185.07 191.98Z" fill="#EFC600" stroke="black" stroke-width="0.31077"/>
<path fill-rule="evenodd" clip-rule="evenodd" d="M71.4935 19.5589C72.5567 26.5184 74.5194 33.8865 64.2525 35.6788C61.2083 24.5339 66.3394 22.0342 71.4935 19.5589Z" fill="#EFC600" stroke="black" stroke-width="0.310907"/>
<path fill-rule="evenodd" clip-rule="evenodd" d="M70.5271 18.4761C69.5718 23.5288 65.9455 32.8741 65.0214 37.4789Z" fill="#EFC600"/>
<path d="M70.5271 18.4761C69.5718 23.5288 65.9455 32.8741 65.0214 37.4789" stroke="black" stroke-width="0.310907"/>
<path fill-rule="evenodd" clip-rule="evenodd" d="M74.6455 32.8937C77.1771 36.9936 78.8249 41.4714 92.476 40.7996C90.0765 34.0141 82.3685 33.4452 74.6455 32.8937Z" fill="#EFC600" stroke="black" stroke-width="0.310928"/>
<path fill-rule="evenodd" clip-rule="evenodd" d="M73.4711 34.6076C78.8726 35.5058 83.9398 36.6873 88.5038 38.0062Z" fill="#EFC600"/>
<path d="M73.4711 34.6076C78.8726 35.5058 83.9398 36.6873 88.5038 38.0062" stroke="black" stroke-width="0.310928"/>
<path fill-rule="evenodd" clip-rule="evenodd" d="M57.4753 47.2811C63.4936 48.9577 70.9788 51.7451 58.5076 39.4315C47.0852 35.1242 52.2568 41.188 57.4753 47.2811Z" fill="#EFC600" stroke="black" stroke-width="0.31091"/>
<path fill-rule="evenodd" clip-rule="evenodd" d="M57.0182 48.0102C54.7139 43.0874 52.2404 35.3465 62.1256 42.3504Z" fill="#EFC600"/>
<path d="M57.0182 48.0102C54.7139 43.0874 52.2404 35.3465 62.1256 42.3504" stroke="black" stroke-width="0.31091"/>
<path fill-rule="evenodd" clip-rule="evenodd" d="M62.5332 54.2081C66.6924 59.3898 69.7847 64.7183 87.3622 68.0346C82.8027 59.9889 72.6758 57.0912 62.5332 54.2081Z" fill="#EFC600" stroke="black" stroke-width="0.311159"/>
<path fill-rule="evenodd" clip-rule="evenodd" d="M60.7313 57.5228C67.9149 59.0169 82.3468 62.5126 88.5493 64.2794Z" fill="#EFC600"/>
<path d="M60.7313 57.5228C67.9149 59.0169 82.3468 62.5126 88.5493 64.2794" stroke="black" stroke-width="0.311159"/>
<path fill-rule="evenodd" clip-rule="evenodd" d="M113.717 168.368C118.218 165.538 123.396 166.306 128.646 166.613L128.24 166.038C122.107 165.151 116.902 165.609 112.949 167.884L113.717 168.368V168.368Z" fill="#EFC600" stroke="black" stroke-width="0.31077"/>
<path fill-rule="evenodd" clip-rule="evenodd" d="M74.1802 29.098C71.961 21.1671 68.6926 13.3784 79.69 3.68536C84.7164 15.4121 79.4628 22.2619 74.1802 29.098Z" fill="#EFC600" stroke="black" stroke-width="0.31077"/>
<path fill-rule="evenodd" clip-rule="evenodd" d="M75.7758 27.9587C76.9141 21.9523 78.4394 9.26692 78.8076 3.61222Z" fill="#EFC600"/>
<path d="M75.7758 27.9587C76.9141 21.9523 78.4394 9.26692 78.8076 3.61222" stroke="black" stroke-width="0.31077"/>
<path fill-rule="evenodd" clip-rule="evenodd" d="M76.4429 25.5117C84.0287 29.2828 91.1716 33.9715 104.307 26.1779C93.5824 19.0232 85.0096 22.2527 76.4429 25.5117Z" fill="#EFC600" stroke="black" stroke-width="0.31077"/>
<path fill-rule="evenodd" clip-rule="evenodd" d="M65.9332 17.7313C70.7206 21.7553 70.8438 26.657 71.5982 31.5948L72.51 30.783C71.9282 24.8688 70.012 20.4178 66.4096 16.9786L65.9332 17.7313L65.9332 17.7313Z" fill="#EFC600" stroke="black" stroke-width="0.31077"/>
<path fill-rule="evenodd" clip-rule="evenodd" d="M69.5615 24.2378C63.2913 23.8119 63.3001 20.0289 62.5168 17.1698C61.3118 12.7721 66.1298 13.1836 67.7096 13.9767C69.9153 15.084 71.4113 15.666 72.437 21.0103C71.8429 22.7859 71.2386 24.542 69.5615 24.2378V24.2378Z" fill="#EFC600" stroke="black" stroke-width="0.31077"/>
<path fill-rule="evenodd" clip-rule="evenodd" d="M93.9212 34.8415C88.0338 31.9687 81.1297 32.2112 74.6013 32.182L75.1418 31.5242C82.7181 31.0724 88.8144 32.0251 94.8359 34.4422L93.9212 34.8415L93.9212 34.8415Z" fill="#EFC600" stroke="black" stroke-width="0.31077"/>
<path fill-rule="evenodd" clip-rule="evenodd" d="M92.5574 31.242C93.7955 36.1173 98.4565 35.75 102.069 36.0919C107.626 36.6177 106.57 32.8796 105.413 31.7165C103.798 30.0928 99.0927 28.335 96.2078 28.6802C95.455 28.7545 92.5001 28.4941 92.5574 31.242Z" fill="#EFC600" stroke="black" stroke-width="0.31077"/>
<path fill-rule="evenodd" clip-rule="evenodd" d="M58.8083 82.0947C65.4873 89.1345 72.0522 97.4168 80.1455 88.7911C70.261 76.1887 64.5288 79.1197 58.8083 82.0947Z" fill="#EFC600" stroke="black" stroke-width="0.311033"/>
<path fill-rule="evenodd" clip-rule="evenodd" d="M60.1891 80.5646C64.7886 79.9949 74.2414 85.7149 78.6323 91.1777Z" fill="#EFC600"/>
<path d="M60.1891 80.5646C64.7886 79.9949 74.2414 85.7149 78.6323 91.1777" stroke="black" stroke-width="0.311033"/>
<path fill-rule="evenodd" clip-rule="evenodd" d="M68.7355 40.8734C72.837 45.2521 75.9074 49.7967 92.9774 52.0729C88.4476 45.2069 78.5991 43.0335 68.7355 40.8734Z" fill="#EFC600" stroke="black" stroke-width="0.310994"/>
<path fill-rule="evenodd" clip-rule="evenodd" d="M66.8363 44.2467C74.1578 45.2588 88.4205 47.1406 94.5072 48.1961Z" fill="#EFC600"/>
<path d="M66.8363 44.2467C74.1578 45.2588 88.4205 47.1406 94.5072 48.1961" stroke="black" stroke-width="0.310994"/>
<path fill-rule="evenodd" clip-rule="evenodd" d="M65.8833 118.04C48.5648 113.766 49.6872 113.297 43.2703 108.381C55.4932 109.813 62.5346 113.199 65.8833 118.04Z" fill="#EFC600" stroke="black" stroke-width="0.336564"/>
<path fill-rule="evenodd" clip-rule="evenodd" d="M65.7472 115.143C60.1154 113.722 54.3373 112.566 48.7607 111.657Z" fill="#EFC600"/>
<path d="M65.7472 115.143C60.1154 113.722 54.3373 112.566 48.7607 111.657" stroke="black" stroke-width="0.336564"/>
<path fill-rule="evenodd" clip-rule="evenodd" d="M100.473 153.565C95.0158 155.229 89.0389 155.997 90.1425 168.93C99.2012 167.857 99.849 160.719 100.473 153.565Z" fill="#EFC600" stroke="black" stroke-width="0.310772"/>
<path fill-rule="evenodd" clip-rule="evenodd" d="M99.3646 152.11C95.825 157.101 94.186 165.839 91.3202 170.114Z" fill="#EFC600"/>
<path d="M99.3646 152.11C95.825 157.101 94.186 165.839 91.3202 170.114" stroke="black" stroke-width="0.310772"/>
<path fill-rule="evenodd" clip-rule="evenodd" d="M119.589 172.642C111.364 179.069 95.1913 165.637 87.6527 160.849C96.8788 157.515 108.231 165.063 119.589 172.642Z" fill="#EFC600" stroke="black" stroke-width="0.314074"/>
<path fill-rule="evenodd" clip-rule="evenodd" d="M117.83 170.975C110.529 167.958 95.7306 163.432 89.2403 162.139Z" fill="#EFC600"/>
<path d="M117.83 170.975C110.529 167.958 95.7306 163.432 89.2403 162.139" stroke="black" stroke-width="0.314074"/>
<path fill-rule="evenodd" clip-rule="evenodd" d="M46.7863 74.0462C52.7729 76.9122 54.0674 81.2641 56.0336 85.5532L56.6481 85.077C55.085 79.9285 52.0744 75.8757 47.108 73.3032L46.7863 74.0462V74.0462Z" fill="#EFC600" stroke="black" stroke-width="0.31077"/>
<path fill-rule="evenodd" clip-rule="evenodd" d="M51.6788 79.2707C45.275 79.8844 44.3559 76.3051 42.8676 73.7282C40.5783 69.7644 45.5196 69.3725 47.3013 69.8665C49.7888 70.5562 51.4346 70.8641 53.776 75.7522C54.3677 77.4868 53.4384 79.2865 51.6788 79.2707V79.2707Z" fill="#EFC600" stroke="black" stroke-width="0.31077"/>
<path fill-rule="evenodd" clip-rule="evenodd" d="M78.7778 109.474C73.7759 107.748 69.4234 109.123 64.8466 110.124L65.0084 109.586C70.1706 107.976 74.9748 107.62 79.2952 108.961L78.7778 109.474Z" fill="#EFC600" stroke="black" stroke-width="0.31077"/>
<path fill-rule="evenodd" clip-rule="evenodd" d="M68.7338 105.252C71.5705 110.029 74.0067 108.14 77.4067 107.648C82.6364 106.889 81.429 102.37 79.9699 101.432C77.9327 100.124 77.3313 99.4781 71.142 100.745C68.5995 101.637 67.7685 104.048 68.7338 105.252Z" fill="#EFC600" stroke="black" stroke-width="0.31077"/>
<path fill-rule="evenodd" clip-rule="evenodd" d="M55.4117 62.042C47.4569 56.684 43.9683 47.17 48.5826 33.6017C59.9293 40.5809 60.9239 57.7466 55.4117 62.042Z" fill="#EFC600" stroke="black" stroke-width="0.326662"/>
<path fill-rule="evenodd" clip-rule="evenodd" d="M56.6877 59.636C53.8892 54.1769 50.797 40.6303 47.4139 36.1586Z" fill="#EFC600"/>
<path d="M56.6877 59.636C53.8892 54.1769 50.797 40.6303 47.4139 36.1586" stroke="black" stroke-width="0.326662"/>
<path fill-rule="evenodd" clip-rule="evenodd" d="M86.6105 148.432C83.6625 141.207 86.2582 130.493 97.0199 117.118C101.585 126.725 93.0001 145.004 86.6105 148.432Z" fill="#EFC600" stroke="black" stroke-width="0.325739"/>
<path fill-rule="evenodd" clip-rule="evenodd" d="M86.0503 145.84C88.3245 139.716 96.6294 125.158 97.737 120.034Z" fill="#EFC600"/>
<path d="M86.0503 145.84C88.3245 139.716 96.6294 125.158 97.737 120.034" stroke="black" stroke-width="0.325739"/>
<path fill-rule="evenodd" clip-rule="evenodd" d="M64.1918 35.8996C65.2856 41.2188 63.1309 45.8203 61.3453 50.6631L61.9512 50.4967C64.4846 45.039 65.6077 39.949 64.8252 35.3559L64.1918 35.8996V35.8996Z" fill="#EFC600" stroke="black" stroke-width="0.31077"/>
<path fill-rule="evenodd" clip-rule="evenodd" d="M60.8509 39.907C57.6114 36.9866 59.5649 33.5801 60.6054 30.6861C62.2059 26.2345 64.6518 28.5545 65.1147 29.9085C65.7611 31.7989 66.2866 32.9287 64.0997 38.161C62.8573 39.5212 61.6195 40.8597 60.8509 39.907Z" fill="#EFC600" stroke="black" stroke-width="0.31077"/>
<path fill-rule="evenodd" clip-rule="evenodd" d="M77.689 57.8117C76.2013 54.0792 71.0686 52.4929 66.2646 50.5679L67.105 50.3457C73.1654 52.239 77.2799 54.6613 78.7653 57.7985L77.689 57.8117V57.8117Z" fill="#EFC600" stroke="black" stroke-width="0.31077"/>
<path fill-rule="evenodd" clip-rule="evenodd" d="M81.3845 56.8838C79.0445 58.4567 79.7002 60.7871 80.8307 62.1256C83.6767 65.495 86.0963 65.8669 87.8865 63.9584C89.698 62.0271 89.3688 60.4154 86.1148 58.0651C84.4731 56.4877 83.5006 56.0772 81.3845 56.8838Z" fill="#EFC600" stroke="black" stroke-width="0.31077"/>
<path fill-rule="evenodd" clip-rule="evenodd" d="M87.1493 150.917C85.9862 147.893 79.0011 143.072 61.7026 140.885C62.6465 145.043 79.3242 151.121 87.1493 150.917Z" fill="#EFC600" stroke="black" stroke-width="0.333322"/>
<path fill-rule="evenodd" clip-rule="evenodd" d="M88.4008 147.309C81.7764 146.701 65.7778 145.137 60.2412 144.598Z" fill="#EFC600"/>
<path d="M88.4008 147.309C81.7764 146.701 65.7778 145.137 60.2412 144.598" stroke="black" stroke-width="0.333322"/>
<path fill-rule="evenodd" clip-rule="evenodd" d="M72.9677 124.574C71.9249 118.177 70.0674 111.575 79.2836 107.78C82.1609 117.75 77.5749 121.171 72.9677 124.574Z" fill="#EFC600" stroke="black" stroke-width="0.31087"/>
<path fill-rule="evenodd" clip-rule="evenodd" d="M78.4885 125.308C77.6178 120.557 75.3192 111.222 73.862 106.655Z" fill="#EFC600"/>
<path d="M78.4885 125.308C77.6178 120.557 75.3192 111.222 73.862 106.655" stroke="black" stroke-width="0.31087"/>
<path fill-rule="evenodd" clip-rule="evenodd" d="M73.8542 150.987C80.8217 151.998 87.978 152.664 92.5443 158.016C81.7394 157.045 77.7871 154.019 73.8542 150.987Z" fill="#EFC600" stroke="black" stroke-width="0.311325"/>
<path fill-rule="evenodd" clip-rule="evenodd" d="M72.5616 153.948C78.3791 154.358 89.0022 155.21 94.3002 155.586Z" fill="#EFC600"/>
<path d="M72.5616 153.948C78.3791 154.358 89.0022 155.21 94.3002 155.586" stroke="black" stroke-width="0.311325"/>
<path fill-rule="evenodd" clip-rule="evenodd" d="M120.391 169.341C119.185 174.861 114.937 174.464 111.635 174.866C106.556 175.483 107.578 171.25 108.652 169.929C110.152 168.086 113.286 165.078 117.1 166.457C119.026 167.167 120.928 167.884 120.391 169.341V169.341Z" fill="#EFC600" stroke="black" stroke-width="0.31077"/>
<path fill-rule="evenodd" clip-rule="evenodd" d="M61.5008 100.723C67.9749 102.858 74.5031 106.301 80.2727 91.9735C70.4273 86.6602 65.9565 93.674 61.5008 100.723Z" fill="#EFC600" stroke="black" stroke-width="0.310981"/>
<path fill-rule="evenodd" clip-rule="evenodd" d="M63.3397 102.663C67.1435 98.9316 71.0388 95.9784 74.793 93.7299Z" fill="#EFC600"/>
<path d="M63.3397 102.663C67.1435 98.9316 71.0388 95.9784 74.793 93.7299" stroke="black" stroke-width="0.310981"/>
<path fill-rule="evenodd" clip-rule="evenodd" d="M43.1477 117.652C52.8434 117.683 62.9399 116.938 67.5566 126.741C52.2998 127.939 47.7086 122.804 43.1477 117.652Z" fill="#EFC600" stroke="black" stroke-width="0.310772"/>
<path fill-rule="evenodd" clip-rule="evenodd" d="M40.9308 120.497C47.9278 121.859 62.7199 123.902 69.9302 124.331Z" fill="#EFC600"/>
<path d="M40.9308 120.497C47.9278 121.859 62.7199 123.902 69.9302 124.331" stroke="black" stroke-width="0.310772"/>
<path fill-rule="evenodd" clip-rule="evenodd" d="M75.7365 137.631C66.4479 138.055 57.11 134.128 50.6029 130.929C55.8476 131.644 68.7278 130.246 75.7365 137.631Z" fill="#EFC600" stroke="black" stroke-width="0.31084"/>
<path fill-rule="evenodd" clip-rule="evenodd" d="M78.0641 137.012C71.7964 135.948 58.4595 134.028 50.0687 133.161Z" fill="#EFC600"/>
<path d="M78.0641 137.012C71.7964 135.948 58.4595 134.028 50.0687 133.161" stroke="black" stroke-width="0.31084"/>
<path fill-rule="evenodd" clip-rule="evenodd" d="M85.9515 143.776C84.1908 139.893 83.1689 135.782 72.1133 134.77C73.5833 140.988 79.7608 142.389 85.9515 143.776Z" fill="#EFC600" stroke="black" stroke-width="0.310788"/>
<path fill-rule="evenodd" clip-rule="evenodd" d="M86.7016 142.682C82.3105 141.162 73.9125 138.051 71.5809 136.061Z" fill="#EFC600"/>
<path d="M86.7016 142.682C82.3105 141.162 73.9125 138.051 71.5809 136.061" stroke="black" stroke-width="0.310788"/>
<path fill-rule="evenodd" clip-rule="evenodd" d="M79.8287 24.0122C83.0577 16.3912 85.4304 8.03454 99.4284 9.70205C95.9335 22.3684 87.8875 23.207 79.8287 24.0122Z" fill="#EFC600" stroke="black" stroke-width="0.31077"/>
<path fill-rule="evenodd" clip-rule="evenodd" d="M78.9647 22.1728C84.0304 19.1149 94.1763 11.7221 99.7107 9.8125Z" fill="#EFC600"/>
<path d="M78.9647 22.1728C84.0304 19.1149 94.1763 11.7221 99.7107 9.8125" stroke="black" stroke-width="0.31077"/>
<path fill-rule="evenodd" clip-rule="evenodd" d="M59.3066 84.3608C66.9172 83.3806 74.8185 83.5252 78.7434 68.3859C66.8059 68.0608 63.0447 76.1989 59.3066 84.3608Z" fill="#EFC600" stroke="black" stroke-width="0.31077"/>
<path fill-rule="evenodd" clip-rule="evenodd" d="M59.5114 84.4132C63.6826 80.1332 72.9829 72.4875 78.3428 69.3125Z" fill="#EFC600"/>
<path d="M59.5114 84.4132C63.6826 80.1332 72.9829 72.4875 78.3428 69.3125" stroke="black" stroke-width="0.31077"/>
<path fill-rule="evenodd" clip-rule="evenodd" d="M54.3541 72.9679C47.9605 68.1243 40.556 63.9212 46.9119 51.0288C58.1691 57.3031 56.2802 65.1333 54.3541 72.9679V72.9679Z" fill="#EFC600" stroke="black" stroke-width="0.31077"/>
<path fill-rule="evenodd" clip-rule="evenodd" d="M54.3172 72.8481C51.7693 67.7188 47.1157 56.8307 46.8927 51.2666Z" fill="#EFC600"/>
<path d="M54.3172 72.8481C51.7693 67.7188 47.1157 56.8307 46.8927 51.2666" stroke="black" stroke-width="0.31077"/>
<path fill-rule="evenodd" clip-rule="evenodd" d="M57.7724 95.8643C48.6504 94.3497 38.8624 93.6552 38.1558 81.8206C52.973 82.7893 55.3902 89.3189 57.7724 95.8643Z" fill="#EFC600" stroke="black" stroke-width="0.31077"/>
<path fill-rule="evenodd" clip-rule="evenodd" d="M58.4173 94.7085C53.8006 90.8348 43.7579 85.1408 38.6363 82.4926Z" fill="#EFC600"/>
<path d="M58.4173 94.7085C53.8006 90.8348 43.7579 85.1408 38.6363 82.4926" stroke="black" stroke-width="0.31077"/>
<path fill-rule="evenodd" clip-rule="evenodd" d="M40.2585 98.9827C47.226 99.9938 54.3823 100.66 58.9486 106.012C48.1437 105.041 44.1914 102.015 40.2585 98.9827Z" fill="#EFC600" stroke="black" stroke-width="0.311325"/>
<path fill-rule="evenodd" clip-rule="evenodd" d="M38.9659 101.944C44.7834 102.354 55.4065 103.206 60.7045 103.582Z" fill="#EFC600"/>
<path d="M38.9659 101.944C44.7834 102.354 55.4065 103.206 60.7045 103.582" stroke="black" stroke-width="0.311325"/>
<path fill-rule="evenodd" clip-rule="evenodd" d="M76.1088 25.4891C83.0427 26.0188 97.6427 26.1745 104.135 25.9023Z" fill="#EFC600"/>
<path d="M76.1088 25.4891C83.0427 26.0188 97.6427 26.1745 104.135 25.9023" stroke="black" stroke-width="0.31077"/>
<path fill-rule="evenodd" clip-rule="evenodd" d="M78.4305 135.463C77.5692 131.437 72.8502 129.411 68.5016 127.052L69.3489 126.877C74.9176 129.291 78.5224 132.124 79.4736 135.524L78.4305 135.463V135.463Z" fill="#EFC600" stroke="black" stroke-width="0.31077"/>
<path fill-rule="evenodd" clip-rule="evenodd" d="M59.2293 120.658C57.4263 125.579 61.715 126.88 64.6682 128.464C69.2108 130.901 70.5009 127.09 70.1783 125.613C69.7278 123.551 68.6916 122.052 65.6174 120.186C64.032 119.326 59.4961 119.276 59.2293 120.658V120.658Z" fill="#EFC600" stroke="black" stroke-width="0.31077"/>
<path fill-rule="evenodd" clip-rule="evenodd" d="M81.5865 135.392C80.5133 130.493 78.9427 125.597 84.1369 120.69C86.5518 128.07 84.076 131.736 81.5865 135.392Z" fill="#EFC600" stroke="black" stroke-width="0.311247"/>
<path fill-rule="evenodd" clip-rule="evenodd" d="M83.6773 135.699C83.3923 131.622 82.8267 123.59 82.5564 120.078Z" fill="#EFC600"/>
<path d="M83.6773 135.699C83.3923 131.622 82.8267 123.59 82.5564 120.078" stroke="black" stroke-width="0.311247"/>
<path fill-rule="evenodd" clip-rule="evenodd" d="M197.455 156.371C197.894 155.587 198.755 154.238 200.334 153.797C203.459 153.634 211.531 153.358 212.747 153.646L213.134 154.904C213.894 154.448 199.49 155.06 197.455 156.371V156.371Z" fill="#EFC600" stroke="black" stroke-width="0.31077"/>
<path fill-rule="evenodd" clip-rule="evenodd" d="M197.634 153.053C198.246 152.285 198.662 151.559 200.668 151.06C200.636 151.631 200.193 152.244 197.634 153.053Z" fill="#EFC600" stroke="black" stroke-width="0.31077"/>
<path fill-rule="evenodd" clip-rule="evenodd" d="M242.597 62.3049C242.176 61.9787 241.473 61.3766 241.521 60.6837C242.082 59.4561 243.625 56.3144 244.075 55.9078L244.984 56.014C244.846 55.6312 242.171 61.2616 242.597 62.3049Z" fill="#EFC600" stroke="black" stroke-width="0.31077"/>
<path fill-rule="evenodd" clip-rule="evenodd" d="M240.765 62.3383C240.441 61.6439 240.095 61.0405 240.273 60.0674C240.617 60.4465 240.887 60.9859 240.765 62.3383Z" fill="#EFC600" stroke="black" stroke-width="0.31077"/>
<path fill-rule="evenodd" clip-rule="evenodd" d="M243.892 82.9445C243.59 82.0356 243.252 81.2307 243.587 80.1081C243.952 80.6441 244.207 81.3543 243.892 82.9445Z" fill="#EFC600" stroke="black" stroke-width="0.31077"/>
<path fill-rule="evenodd" clip-rule="evenodd" d="M240.363 104.248C240.182 103.866 239.944 103.191 240.764 102.759C242.825 102.185 248.239 100.759 249.259 100.675L250.304 101.11C250.547 100.805 240.961 103.397 240.363 104.248V104.248Z" fill="#EFC600" stroke="black" stroke-width="0.31077"/>
<path fill-rule="evenodd" clip-rule="evenodd" d="M239.908 104.305C239.779 103.471 239.582 102.719 240.23 101.836C240.52 102.366 240.644 103.021 239.908 104.305Z" fill="#EFC600" stroke="black" stroke-width="0.31077"/>
<path fill-rule="evenodd" clip-rule="evenodd" d="M229.453 127.609C229.623 126.988 230.011 125.904 231.319 125.376C234.115 124.841 241.377 123.56 242.568 123.605L243.288 124.455C243.846 124.026 230.921 126.396 229.453 127.609V127.609Z" fill="#EFC600" stroke="black" stroke-width="0.31077"/>
<path fill-rule="evenodd" clip-rule="evenodd" d="M229.481 125.405C229.696 124.579 229.774 123.816 231.163 123.105C231.332 123.674 231.194 124.328 229.481 125.405Z" fill="#EFC600" stroke="black" stroke-width="0.31077"/>
<path fill-rule="evenodd" clip-rule="evenodd" d="M216.16 18.8015C215.7 18.2335 215.241 17.7617 215.186 16.7502C215.592 17.0035 215.966 17.4387 216.16 18.8015Z" fill="#EFC600" stroke="black" stroke-width="0.31077"/>
<path fill-rule="evenodd" clip-rule="evenodd" d="M222.253 25.9832C221.816 25.6633 221.081 25.0692 221.061 24.3418C221.485 23.0288 222.673 19.663 223.067 19.2147L223.953 19.2795C223.785 18.886 221.743 24.9133 222.253 25.9832Z" fill="#EFC600" stroke="black" stroke-width="0.31077"/>
<path fill-rule="evenodd" clip-rule="evenodd" d="M220.396 26.0308C220.025 25.3693 219.638 24.8012 219.753 23.8068C220.123 24.1501 220.429 24.6622 220.396 26.0308Z" fill="#EFC600" stroke="black" stroke-width="0.31077"/>
<path fill-rule="evenodd" clip-rule="evenodd" d="M234.452 42.9187C234.03 42.5924 233.327 41.9904 233.375 41.2975C233.936 40.0698 235.479 36.9281 235.929 36.5215L236.838 36.6278C236.701 36.2449 234.025 41.8753 234.452 42.9187Z" fill="#EFC600" stroke="black" stroke-width="0.31077"/>
<path fill-rule="evenodd" clip-rule="evenodd" d="M232.62 42.952C232.295 42.2577 231.949 41.6543 232.127 40.6812C232.471 41.0603 232.741 41.5996 232.62 42.952Z" fill="#EFC600" stroke="black" stroke-width="0.31077"/>
<path fill-rule="evenodd" clip-rule="evenodd" d="M240.079 55.0331C239.623 54.6662 238.866 53.9921 238.975 53.2478C239.713 51.9466 241.726 48.6209 242.272 48.1997L243.304 48.3477C243.177 47.9304 239.673 53.894 240.079 55.0331Z" fill="#EFC600" stroke="black" stroke-width="0.31077"/>
<path fill-rule="evenodd" clip-rule="evenodd" d="M238.093 55.0634C237.762 54.2676 237.404 53.5714 237.64 52.5024C238.005 52.9492 238.282 53.5686 238.093 55.0634Z" fill="#EFC600" stroke="black" stroke-width="0.31077"/>
<path fill-rule="evenodd" clip-rule="evenodd" d="M242.759 71.4017C242.419 71.0244 241.893 70.3479 242.462 69.796C244.122 68.9443 248.517 66.793 249.429 66.5808L250.597 66.9079C250.687 66.5596 242.932 70.4388 242.759 71.4017Z" fill="#EFC600" stroke="black" stroke-width="0.31077"/>
<path fill-rule="evenodd" clip-rule="evenodd" d="M241.708 71.4522C241.482 70.5629 241.206 69.7664 241.68 68.7544C242.012 69.3018 242.209 69.9991 241.708 71.4522Z" fill="#EFC600" stroke="black" stroke-width="0.31077"/>
<path fill-rule="evenodd" clip-rule="evenodd" d="M243.15 95.5132C242.772 95.1298 242.175 94.439 242.66 93.8372C244.17 92.8782 248.182 90.4485 249.043 90.1904L250.222 90.4893C250.266 90.1198 243.199 94.4946 243.15 95.5132Z" fill="#EFC600" stroke="black" stroke-width="0.31077"/>
<path fill-rule="evenodd" clip-rule="evenodd" d="M241.841 95.5611C241.591 94.6612 241.294 93.8577 241.72 92.8099C242.062 93.3575 242.279 94.0624 241.841 95.5611Z" fill="#EFC600" stroke="black" stroke-width="0.31077"/>
<path fill-rule="evenodd" clip-rule="evenodd" d="M234.704 118.373C234.638 117.914 234.608 117.107 235.627 116.617C238.017 115.995 244.266 114.458 245.382 114.388L246.352 114.934C246.714 114.579 235.625 117.38 234.704 118.373L234.704 118.373Z" fill="#EFC600" stroke="black" stroke-width="0.31077"/>
<path fill-rule="evenodd" clip-rule="evenodd" d="M234.426 117.608C234.394 116.749 234.27 115.968 235.17 115.117C235.438 115.678 235.489 116.355 234.426 117.608Z" fill="#EFC600" stroke="black" stroke-width="0.31077"/>
<path fill-rule="evenodd" clip-rule="evenodd" d="M221.73 136.767C222.091 136.096 222.803 134.939 224.158 134.544C226.855 134.362 233.827 134.015 234.885 134.242L235.25 135.303C235.896 134.906 223.459 135.627 221.73 136.767Z" fill="#EFC600" stroke="black" stroke-width="0.31077"/>
<path fill-rule="evenodd" clip-rule="evenodd" d="M221.882 133.942C222.379 133.271 222.71 132.638 224.407 132.187C224.399 132.682 224.041 133.217 221.882 133.942Z" fill="#EFC600" stroke="black" stroke-width="0.31077"/>
<path fill-rule="evenodd" clip-rule="evenodd" d="M209.28 148.99C209.719 148.206 210.58 146.856 212.159 146.416C215.284 146.253 223.356 145.976 224.572 146.265L224.959 147.523C225.719 147.066 211.316 147.679 209.28 148.99V148.99Z" fill="#EFC600" stroke="black" stroke-width="0.31077"/>
<path fill-rule="evenodd" clip-rule="evenodd" d="M209.459 145.672C210.071 144.904 210.487 144.178 212.493 143.679C212.461 144.25 212.018 144.863 209.459 145.672Z" fill="#EFC600" stroke="black" stroke-width="0.31077"/>
<path fill-rule="evenodd" clip-rule="evenodd" d="M177.998 164.964C178.63 164.116 179.825 162.674 181.529 162.418C184.73 162.744 192.966 163.754 194.128 164.295L194.218 165.835C195.097 165.425 180.372 163.761 177.998 164.964V164.964Z" fill="#EFC600" stroke="black" stroke-width="0.31077"/>
<path fill-rule="evenodd" clip-rule="evenodd" d="M178.171 161.403C179.125 160.666 179.849 159.955 182.235 159.621C181.991 160.208 181.279 160.8 178.171 161.403Z" fill="#EFC600" stroke="black" stroke-width="0.31077"/>
<path fill-rule="evenodd" clip-rule="evenodd" d="M153.836 170.249C154.663 169.469 155.265 168.725 157.575 168.299C157.427 168.901 156.817 169.525 153.836 170.249Z" fill="#EFC600" stroke="black" stroke-width="0.31077"/>
<path fill-rule="evenodd" clip-rule="evenodd" d="M213.102 16.4893C213.172 16.0723 213.264 15.3313 212.942 14.8061C212.132 14.0575 210.007 12.1829 209.607 12.0358L209.198 12.4667C209.101 12.1138 212.866 15.5078 213.102 16.4893Z" fill="#EFC600" stroke="black" stroke-width="0.31077"/>
<path fill-rule="evenodd" clip-rule="evenodd" d="M213.078 17.0195C213.173 16.4818 213.301 16.0043 212.986 15.3525C212.816 15.6729 212.729 16.0934 213.078 17.0195Z" fill="#EFC600" stroke="black" stroke-width="0.31077"/>
<path fill-rule="evenodd" clip-rule="evenodd" d="M221.339 26.0495C220.756 25.8668 219.699 25.5706 218.69 25.7005C217.018 26.192 212.765 27.5091 212.275 27.8169L212.652 28.3004C212.054 28.2821 219.699 25.9711 221.339 26.0495Z" fill="#EFC600" stroke="black" stroke-width="0.31077"/>
<path fill-rule="evenodd" clip-rule="evenodd" d="M221.323 27.1953C220.839 26.6707 220.436 26.1448 219.592 26.1023C219.812 26.5714 220.183 26.9982 221.323 27.1953Z" fill="#EFC600" stroke="black" stroke-width="0.31077"/>
<path fill-rule="evenodd" clip-rule="evenodd" d="M228.78 36.0275C228.248 35.8166 227.277 35.4717 226.286 35.584C224.601 36.0655 220.304 37.3621 219.785 37.6784L220.072 38.2057C219.5 38.1703 227.214 35.9002 228.78 36.0275V36.0275Z" fill="#EFC600" stroke="black" stroke-width="0.31077"/>
<path fill-rule="evenodd" clip-rule="evenodd" d="M228.759 37.4774C228.334 36.8854 227.986 36.3026 227.168 36.1497C227.342 36.6514 227.666 37.1301 228.759 37.4774Z" fill="#EFC600" stroke="black" stroke-width="0.31077"/>
<path fill-rule="evenodd" clip-rule="evenodd" d="M235.607 47.706C235.122 47.4629 234.232 47.0618 233.262 47.1474C231.575 47.6024 227.263 48.8361 226.72 49.1553L226.928 49.7271C226.381 49.6697 234.115 47.5163 235.607 47.706V47.706Z" fill="#EFC600" stroke="black" stroke-width="0.31077"/>
<path fill-rule="evenodd" clip-rule="evenodd" d="M235.583 49.3764C235.21 48.7315 234.913 48.1054 234.12 47.8531C234.253 48.3769 234.535 48.8959 235.583 49.3764Z" fill="#EFC600" stroke="black" stroke-width="0.31077"/>
<path fill-rule="evenodd" clip-rule="evenodd" d="M241.059 62.9895C240.752 62.5269 240.162 61.7387 239.229 61.5828C237.436 61.7233 232.813 62.1778 232.141 62.4558L232.012 63.283C231.545 63.053 239.803 62.3174 241.059 62.9895V62.9895Z" fill="#EFC600" stroke="black" stroke-width="0.31077"/>
<path fill-rule="evenodd" clip-rule="evenodd" d="M241.039 65.2005C240.886 64.3374 240.808 63.5353 240.051 62.8406C239.991 63.4476 240.095 64.1324 241.039 65.2005Z" fill="#EFC600" stroke="black" stroke-width="0.31077"/>
<path fill-rule="evenodd" clip-rule="evenodd" d="M242.328 83.7049C242.19 83.0562 241.89 81.9295 241.041 81.4448C239.256 81.0365 234.625 80.0943 233.878 80.2091L233.469 81.1517C233.096 80.7285 241.343 82.5025 242.328 83.7049V83.7049Z" fill="#EFC600" stroke="black" stroke-width="0.31077"/>
<path fill-rule="evenodd" clip-rule="evenodd" d="M242.288 85.6694C242.31 84.7035 242.4 83.8273 241.721 82.8397C241.522 83.4635 241.485 84.224 242.288 85.6694Z" fill="#EFC600" stroke="black" stroke-width="0.31077"/>
<path fill-rule="evenodd" clip-rule="evenodd" d="M237.064 107.795C237.286 107.138 237.628 105.957 237.242 104.962C236.126 103.403 233.17 99.4598 232.56 99.0559L231.786 99.5987C231.722 98.9795 236.937 106.085 237.064 107.795V107.795Z" fill="#EFC600" stroke="black" stroke-width="0.31077"/>
<path fill-rule="evenodd" clip-rule="evenodd" d="M236.994 108.252C237.233 107.412 237.522 106.671 237.047 105.604C236.704 106.092 236.496 106.747 236.994 108.252Z" fill="#EFC600" stroke="black" stroke-width="0.31077"/>
<path fill-rule="evenodd" clip-rule="evenodd" d="M227.617 126.942C227.976 126.276 228.557 125.064 228.289 123.88C227.293 121.897 224.626 116.85 224.008 116.258L223.046 116.664C223.077 115.969 227.758 125.036 227.617 126.942L227.617 126.942Z" fill="#EFC600" stroke="black" stroke-width="0.31077"/>
<path fill-rule="evenodd" clip-rule="evenodd" d="M227.53 127.136C227.892 126.266 228.305 125.504 227.847 124.351C227.394 124.843 227.086 125.52 227.53 127.136Z" fill="#EFC600" stroke="black" stroke-width="0.31077"/>
<path fill-rule="evenodd" clip-rule="evenodd" d="M209.793 145.086C210.498 144.29 211.238 143.605 210.968 142.425C210.252 142.843 209.668 143.459 209.793 145.086Z" fill="#EFC600" stroke="black" stroke-width="0.31077"/>
<path fill-rule="evenodd" clip-rule="evenodd" d="M186.248 158.187C187.413 157.516 188.583 156.956 188.665 155.794C187.619 156.101 186.67 156.616 186.248 158.187Z" fill="#EFC600" stroke="black" stroke-width="0.31077"/>
<path fill-rule="evenodd" clip-rule="evenodd" d="M165.884 165.963C167.156 165.231 168.433 164.619 168.522 163.351C167.381 163.686 166.345 164.248 165.884 165.963Z" fill="#EFC600" stroke="black" stroke-width="0.31077"/>
<path fill-rule="evenodd" clip-rule="evenodd" d="M144.075 173.159C145.348 172.427 146.625 171.816 146.713 170.547C145.572 170.883 144.536 171.445 144.075 173.159Z" fill="#EFC600" stroke="black" stroke-width="0.31077"/>
<path fill-rule="evenodd" clip-rule="evenodd" d="M241.187 90.363C240.88 89.9005 240.29 89.1122 239.357 88.9563C237.564 89.0968 232.941 89.5514 232.269 89.8293L232.14 90.6565C231.673 90.4266 239.931 89.6909 241.187 90.363V90.363Z" fill="#EFC600" stroke="black" stroke-width="0.31077"/>
<path fill-rule="evenodd" clip-rule="evenodd" d="M241.167 92.574C241.014 91.7108 240.936 90.9088 240.178 90.2141C240.119 90.8211 240.222 91.5059 241.167 92.574Z" fill="#EFC600" stroke="black" stroke-width="0.31077"/>
<path fill-rule="evenodd" clip-rule="evenodd" d="M230.602 35.6861C230.146 35.3906 229.37 34.8337 229.236 34.0589C229.421 32.6119 229.989 28.8918 230.284 28.3713L231.116 28.347C230.897 27.9445 229.959 34.5974 230.602 35.6861V35.6861Z" fill="#EFC600" stroke="black" stroke-width="0.31077"/>
<path fill-rule="evenodd" clip-rule="evenodd" d="M228.868 35.7614C228.408 35.1935 227.949 34.7217 227.894 33.7102C228.301 33.9634 228.674 34.3986 228.868 35.7614Z" fill="#EFC600" stroke="black" stroke-width="0.31077"/>
<path fill-rule="evenodd" clip-rule="evenodd" d="M213.451 17.0397C213.012 16.9019 212.215 16.6785 211.454 16.7765C210.192 17.1471 206.984 18.1406 206.615 18.3727L206.899 18.7374C206.448 18.7236 212.214 16.9805 213.451 17.0397Z" fill="#EFC600" stroke="black" stroke-width="0.31077"/>
<path fill-rule="evenodd" clip-rule="evenodd" d="M213.439 17.9037C213.074 17.508 212.77 17.1114 212.134 17.0793C212.3 17.4331 212.579 17.7551 213.439 17.9037Z" fill="#EFC600" stroke="black" stroke-width="0.31077"/>
<path fill-rule="evenodd" clip-rule="evenodd" d="M176.226 20.2887C185.815 25.6237 201.416 36.1296 209.493 46.1815C224.392 64.7242 230.339 90.7522 220.085 116.624C211.731 137.703 190.321 155.08 181.388 162.31C172.455 169.54 157.472 192.131 156.103 193.771C156.405 192.967 156.248 187.495 154.54 186.583C157.174 180.955 175.453 163.519 185.102 155.83C204.49 140.38 223.123 120.881 223.553 91.9648C224.113 54.2589 202.23 36.1751 176.069 20.5221L176.226 20.2887V20.2887Z" fill="#EFC600" stroke="black" stroke-width="0.31077"/>
<path fill-rule="evenodd" clip-rule="evenodd" d="M115.47 193.07C114.698 190.762 113.824 188.728 114.754 185.775C115.705 187.109 116.361 188.91 115.47 193.07Z" fill="#EFC600" stroke="black" stroke-width="0.31077"/>
<path fill-rule="evenodd" clip-rule="evenodd" d="M229.047 20.6483C227.983 27.6078 226.021 34.9759 236.287 36.7682C239.332 25.6232 234.201 23.1235 229.047 20.6483Z" fill="#EFC600" stroke="black" stroke-width="0.310907"/>
<path fill-rule="evenodd" clip-rule="evenodd" d="M230.013 19.5654C230.968 24.6181 234.595 33.9634 235.519 38.5683Z" fill="#EFC600"/>
<path d="M230.013 19.5654C230.968 24.6181 234.595 33.9634 235.519 38.5683" stroke="black" stroke-width="0.310907"/>
<path fill-rule="evenodd" clip-rule="evenodd" d="M225.895 33.9831C223.363 38.083 221.715 42.5608 208.064 41.889C210.464 35.1035 218.172 34.5345 225.895 33.9831Z" fill="#EFC600" stroke="black" stroke-width="0.310928"/>
<path fill-rule="evenodd" clip-rule="evenodd" d="M227.069 35.697C221.667 36.5952 216.6 37.7766 212.036 39.0955Z" fill="#EFC600"/>
<path d="M227.069 35.697C221.667 36.5952 216.6 37.7766 212.036 39.0955" stroke="black" stroke-width="0.310928"/>
<path fill-rule="evenodd" clip-rule="evenodd" d="M243.065 48.3704C237.046 50.0471 229.561 52.8345 242.032 40.5209C253.455 36.2136 248.283 42.2773 243.065 48.3704Z" fill="#EFC600" stroke="black" stroke-width="0.31091"/>
<path fill-rule="evenodd" clip-rule="evenodd" d="M243.522 49.1C245.826 44.1772 248.3 36.4364 238.414 43.4402Z" fill="#EFC600"/>
<path d="M243.522 49.1C245.826 44.1772 248.3 36.4364 238.414 43.4402" stroke="black" stroke-width="0.31091"/>
<path fill-rule="evenodd" clip-rule="evenodd" d="M240.222 53.6788C234.43 60.0885 229.515 66.8888 212.705 68.361C220.03 58.0736 230.122 55.8648 240.222 53.6788Z" fill="#EFC600" stroke="black" stroke-width="0.311083"/>
<path fill-rule="evenodd" clip-rule="evenodd" d="M240.493 55.9121C233.548 57.8696 219.264 63.055 212.948 65.9539Z" fill="#EFC600"/>
<path d="M240.493 55.9121C233.548 57.8696 219.264 63.055 212.948 65.9539" stroke="black" stroke-width="0.311083"/>
<path fill-rule="evenodd" clip-rule="evenodd" d="M186.823 169.457C182.322 166.628 177.144 167.395 171.894 167.703L172.3 167.128C178.433 166.24 183.638 166.698 187.591 168.973L186.823 169.457V169.457Z" fill="#EFC600" stroke="black" stroke-width="0.31077"/>
<path fill-rule="evenodd" clip-rule="evenodd" d="M226.36 30.1874C228.579 22.2565 231.847 14.4677 220.85 4.77472C215.824 16.5014 221.077 23.3513 226.36 30.1874Z" fill="#EFC600" stroke="black" stroke-width="0.31077"/>
<path fill-rule="evenodd" clip-rule="evenodd" d="M224.764 29.0481C223.626 23.0416 222.101 10.3563 221.732 4.70158Z" fill="#EFC600"/>
<path d="M224.764 29.0481C223.626 23.0416 222.101 10.3563 221.732 4.70158" stroke="black" stroke-width="0.31077"/>
<path fill-rule="evenodd" clip-rule="evenodd" d="M224.097 26.6015C216.511 30.3726 209.368 35.0613 196.233 27.2678C206.958 20.113 215.53 23.3426 224.097 26.6015Z" fill="#EFC600" stroke="black" stroke-width="0.31077"/>
<path fill-rule="evenodd" clip-rule="evenodd" d="M234.607 18.8207C229.819 22.8447 229.696 27.7463 228.942 32.6842L228.03 31.8724C228.612 25.9582 230.528 21.5071 234.13 18.068L234.607 18.8207L234.607 18.8207Z" fill="#EFC600" stroke="black" stroke-width="0.31077"/>
<path fill-rule="evenodd" clip-rule="evenodd" d="M230.979 25.3272C237.249 24.9013 237.24 21.1182 238.023 18.2592C239.228 13.8615 234.41 14.2729 232.83 15.066C230.625 16.1734 229.129 16.7553 228.103 22.0997C228.697 23.8752 229.301 25.6313 230.979 25.3272V25.3272Z" fill="#EFC600" stroke="black" stroke-width="0.31077"/>
<path fill-rule="evenodd" clip-rule="evenodd" d="M206.619 35.9309C212.506 33.0581 219.41 33.3006 225.939 33.2714L225.398 32.6135C217.822 32.1618 211.726 33.1144 205.704 35.5315L206.619 35.9309L206.619 35.9309Z" fill="#EFC600" stroke="black" stroke-width="0.31077"/>
<path fill-rule="evenodd" clip-rule="evenodd" d="M207.983 32.3314C206.745 37.2067 202.084 36.8394 198.471 37.1812C192.914 37.707 193.97 33.9689 195.127 32.8059C196.742 31.1821 201.447 29.4244 204.332 29.7696C205.085 29.8439 208.04 29.5834 207.983 32.3314Z" fill="#EFC600" stroke="black" stroke-width="0.31077"/>
<path fill-rule="evenodd" clip-rule="evenodd" d="M241.732 83.184C235.053 90.2239 228.488 98.5062 220.395 89.8804C230.279 77.278 236.012 80.2091 241.732 83.184Z" fill="#EFC600" stroke="black" stroke-width="0.311033"/>
<path fill-rule="evenodd" clip-rule="evenodd" d="M240.351 81.654C235.751 81.0842 226.299 86.8042 221.908 92.267Z" fill="#EFC600"/>
<path d="M240.351 81.654C235.751 81.0842 226.299 86.8042 221.908 92.267" stroke="black" stroke-width="0.311033"/>
<path fill-rule="evenodd" clip-rule="evenodd" d="M231.804 41.9627C227.703 46.3415 224.633 50.8861 207.563 53.1622C212.092 46.2963 221.941 44.1229 231.804 41.9627Z" fill="#EFC600" stroke="black" stroke-width="0.310994"/>
<path fill-rule="evenodd" clip-rule="evenodd" d="M233.704 45.3356C226.382 46.3477 212.12 48.2294 206.033 49.2849Z" fill="#EFC600"/>
<path d="M233.704 45.3356C226.382 46.3477 212.12 48.2294 206.033 49.2849" stroke="black" stroke-width="0.310994"/>
<path fill-rule="evenodd" clip-rule="evenodd" d="M234.657 119.129C251.975 114.856 250.853 114.387 257.27 109.47C245.047 110.902 238.005 114.288 234.657 119.129Z" fill="#EFC600" stroke="black" stroke-width="0.336564"/>
<path fill-rule="evenodd" clip-rule="evenodd" d="M234.793 116.232C240.425 114.812 246.203 113.655 251.779 112.746Z" fill="#EFC600"/>
<path d="M234.793 116.232C240.425 114.812 246.203 113.655 251.779 112.746" stroke="black" stroke-width="0.336564"/>
<path fill-rule="evenodd" clip-rule="evenodd" d="M200.067 154.654C205.524 156.318 211.501 157.086 210.398 170.019C201.339 168.947 200.691 161.809 200.067 154.654Z" fill="#EFC600" stroke="black" stroke-width="0.310772"/>
<path fill-rule="evenodd" clip-rule="evenodd" d="M201.175 153.199C204.715 158.191 206.354 166.928 209.22 171.203Z" fill="#EFC600"/>
<path d="M201.175 153.199C204.715 158.191 206.354 166.928 209.22 171.203" stroke="black" stroke-width="0.310772"/>
<path fill-rule="evenodd" clip-rule="evenodd" d="M180.951 173.731C189.176 180.158 205.349 166.726 212.887 161.939C203.661 158.605 192.309 166.153 180.951 173.731Z" fill="#EFC600" stroke="black" stroke-width="0.314074"/>
<path fill-rule="evenodd" clip-rule="evenodd" d="M182.71 172.064C190.011 169.048 204.809 164.521 211.3 163.228Z" fill="#EFC600"/>
<path d="M182.71 172.064C190.011 169.048 204.809 164.521 211.3 163.228" stroke="black" stroke-width="0.314074"/>
<path fill-rule="evenodd" clip-rule="evenodd" d="M253.754 75.1356C247.767 78.0015 246.473 82.3535 244.506 86.6425L243.892 86.1663C245.455 81.0179 248.466 76.9651 253.432 74.3926L253.754 75.1356V75.1356Z" fill="#EFC600" stroke="black" stroke-width="0.31077"/>
<path fill-rule="evenodd" clip-rule="evenodd" d="M248.861 80.3601C255.265 80.9737 256.184 77.3945 257.672 74.8176C259.962 70.8538 255.02 70.4619 253.239 70.9559C250.751 71.6456 249.105 71.9534 246.764 76.8415C246.172 78.5762 247.102 80.3758 248.861 80.3601V80.3601Z" fill="#EFC600" stroke="black" stroke-width="0.31077"/>
<path fill-rule="evenodd" clip-rule="evenodd" d="M221.762 110.563C226.764 108.837 231.117 110.212 235.693 111.213L235.532 110.675C230.369 109.065 225.565 108.71 221.245 110.05L221.762 110.563Z" fill="#EFC600" stroke="black" stroke-width="0.31077"/>
<path fill-rule="evenodd" clip-rule="evenodd" d="M231.806 106.341C228.97 111.119 226.533 109.23 223.133 108.737C217.904 107.979 219.111 103.459 220.57 102.522C222.607 101.213 223.209 100.567 229.398 101.835C231.941 102.726 232.772 105.137 231.806 106.341Z" fill="#EFC600" stroke="black" stroke-width="0.31077"/>
<path fill-rule="evenodd" clip-rule="evenodd" d="M245.128 63.1314C253.083 57.7734 256.572 48.2594 251.957 34.691C240.611 41.6703 239.616 58.836 245.128 63.1314Z" fill="#EFC600" stroke="black" stroke-width="0.326662"/>
<path fill-rule="evenodd" clip-rule="evenodd" d="M243.852 60.7254C246.651 55.2662 249.743 41.7196 253.126 37.248Z" fill="#EFC600"/>
<path d="M243.852 60.7254C246.651 55.2662 249.743 41.7196 253.126 37.248" stroke="black" stroke-width="0.326662"/>
<path fill-rule="evenodd" clip-rule="evenodd" d="M236.349 36.9889C235.255 42.3082 237.409 46.9097 239.195 51.7524L238.589 51.586C236.056 46.1283 234.933 41.0383 235.715 36.4453L236.349 36.9889V36.9889Z" fill="#EFC600" stroke="black" stroke-width="0.31077"/>
<path fill-rule="evenodd" clip-rule="evenodd" d="M239.689 40.9964C242.929 38.0759 240.975 34.6695 239.935 31.7754C238.334 27.3239 235.888 29.6438 235.425 30.9978C234.779 32.8883 234.253 34.0181 236.44 39.2504C237.683 40.6105 238.921 41.9491 239.689 40.9964Z" fill="#EFC600" stroke="black" stroke-width="0.31077"/>
<path fill-rule="evenodd" clip-rule="evenodd" d="M222.851 58.9011C224.339 55.1686 229.471 53.5822 234.275 51.6573L233.435 51.435C227.375 53.3283 223.26 55.7507 221.775 58.8878L222.851 58.9011V58.9011Z" fill="#EFC600" stroke="black" stroke-width="0.31077"/>
<path fill-rule="evenodd" clip-rule="evenodd" d="M219.156 57.9731C221.496 59.5461 220.84 61.8765 219.709 63.2149C216.863 66.5844 214.444 66.9563 212.654 65.0478C210.842 63.1165 211.171 61.5048 214.425 59.1545C216.067 57.5771 217.039 57.1666 219.156 57.9731Z" fill="#EFC600" stroke="black" stroke-width="0.31077"/>
<path fill-rule="evenodd" clip-rule="evenodd" d="M213.391 152.007C214.554 148.982 221.539 144.162 238.838 141.975C237.894 146.132 221.216 152.21 213.391 152.007Z" fill="#EFC600" stroke="black" stroke-width="0.333322"/>
<path fill-rule="evenodd" clip-rule="evenodd" d="M212.139 148.398C218.764 147.79 234.762 146.226 240.299 145.687Z" fill="#EFC600"/>
<path d="M212.139 148.398C218.764 147.79 234.762 146.226 240.299 145.687" stroke="black" stroke-width="0.333322"/>
<path fill-rule="evenodd" clip-rule="evenodd" d="M227.573 125.663C228.615 119.266 230.473 112.664 221.257 108.869C218.379 118.84 222.965 122.261 227.573 125.663Z" fill="#EFC600" stroke="black" stroke-width="0.31087"/>
<path fill-rule="evenodd" clip-rule="evenodd" d="M222.052 126.397C222.922 121.646 225.221 112.311 226.678 107.744Z" fill="#EFC600"/>
<path d="M222.052 126.397C222.922 121.646 225.221 112.311 226.678 107.744" stroke="black" stroke-width="0.31087"/>
<path fill-rule="evenodd" clip-rule="evenodd" d="M226.686 152.076C219.718 153.087 212.562 153.753 207.996 159.105C218.801 158.134 222.753 155.108 226.686 152.076Z" fill="#EFC600" stroke="black" stroke-width="0.311325"/>
<path fill-rule="evenodd" clip-rule="evenodd" d="M227.978 155.037C222.161 155.447 211.538 156.299 206.24 156.675Z" fill="#EFC600"/>
<path d="M227.978 155.037C222.161 155.447 211.538 156.299 206.24 156.675" stroke="black" stroke-width="0.311325"/>
<path fill-rule="evenodd" clip-rule="evenodd" d="M180.149 170.43C181.355 175.95 185.603 175.554 188.905 175.955C193.984 176.572 192.962 172.339 191.888 171.019C190.388 169.175 187.254 166.167 183.44 167.547C181.515 168.256 179.612 168.973 180.149 170.43V170.43Z" fill="#EFC600" stroke="black" stroke-width="0.31077"/>
<path fill-rule="evenodd" clip-rule="evenodd" d="M239.039 101.812C232.565 103.947 226.037 107.39 220.267 93.0629C230.113 87.7496 234.584 94.7634 239.039 101.812Z" fill="#EFC600" stroke="black" stroke-width="0.310981"/>
<path fill-rule="evenodd" clip-rule="evenodd" d="M237.2 103.752C233.397 100.021 229.501 97.0677 225.747 94.8192Z" fill="#EFC600"/>
<path d="M237.2 103.752C233.397 100.021 229.501 97.0677 225.747 94.8192" stroke="black" stroke-width="0.310981"/>
<path fill-rule="evenodd" clip-rule="evenodd" d="M257.392 118.741C247.697 118.772 237.6 118.027 232.983 127.831C248.24 129.028 252.831 123.894 257.392 118.741Z" fill="#EFC600" stroke="black" stroke-width="0.310772"/>
<path fill-rule="evenodd" clip-rule="evenodd" d="M259.609 121.586C252.612 122.948 237.82 124.992 230.61 125.42Z" fill="#EFC600"/>
<path d="M259.609 121.586C252.612 122.948 237.82 124.992 230.61 125.42" stroke="black" stroke-width="0.310772"/>
<path fill-rule="evenodd" clip-rule="evenodd" d="M224.804 138.72C234.092 139.144 243.43 135.217 249.937 132.018C244.692 132.734 231.812 131.335 224.804 138.72Z" fill="#EFC600" stroke="black" stroke-width="0.31084"/>
<path fill-rule="evenodd" clip-rule="evenodd" d="M222.476 138.101C228.744 137.038 242.081 135.117 250.471 134.251Z" fill="#EFC600"/>
<path d="M222.476 138.101C228.744 137.038 242.081 135.117 250.471 134.251" stroke="black" stroke-width="0.31084"/>
<path fill-rule="evenodd" clip-rule="evenodd" d="M214.589 144.866C216.349 140.982 217.371 136.871 228.427 135.859C226.957 142.077 220.779 143.478 214.589 144.866Z" fill="#EFC600" stroke="black" stroke-width="0.310788"/>
<path fill-rule="evenodd" clip-rule="evenodd" d="M213.838 143.771C218.23 142.252 226.628 139.14 228.959 137.151Z" fill="#EFC600"/>
<path d="M213.838 143.771C218.23 142.252 226.628 139.14 228.959 137.151" stroke="black" stroke-width="0.310788"/>
<path fill-rule="evenodd" clip-rule="evenodd" d="M220.711 25.1016C217.482 17.4806 215.11 9.1239 201.112 10.7914C204.607 23.4577 212.653 24.2964 220.711 25.1016Z" fill="#EFC600" stroke="black" stroke-width="0.31077"/>
<path fill-rule="evenodd" clip-rule="evenodd" d="M221.575 23.2621C216.51 20.2042 206.364 12.8115 200.829 10.9019Z" fill="#EFC600"/>
<path d="M221.575 23.2621C216.51 20.2042 206.364 12.8115 200.829 10.9019" stroke="black" stroke-width="0.31077"/>
<path fill-rule="evenodd" clip-rule="evenodd" d="M242.768 82.0479C234.812 82.7136 226.721 84.5202 220.484 70.8195C232.692 67.9877 237.74 75.0039 242.768 82.0479V82.0479Z" fill="#EFC600" stroke="black" stroke-width="0.31077"/>
<path fill-rule="evenodd" clip-rule="evenodd" d="M242.488 82.2059C237.679 78.8143 227.184 73.0842 221.283 70.9707Z" fill="#EFC600"/>
<path d="M242.488 82.2059C237.679 78.8143 227.184 73.0842 221.283 70.9707" stroke="black" stroke-width="0.31077"/>
<path fill-rule="evenodd" clip-rule="evenodd" d="M246.186 74.0573C252.58 69.2136 259.984 65.0106 253.628 52.1181C242.371 58.3925 244.26 66.2227 246.186 74.0573V74.0573Z" fill="#EFC600" stroke="black" stroke-width="0.31077"/>
<path fill-rule="evenodd" clip-rule="evenodd" d="M246.223 73.9374C248.771 68.8082 253.424 57.92 253.647 52.356Z" fill="#EFC600"/>
<path d="M246.223 73.9374C248.771 68.8082 253.424 57.92 253.647 52.356" stroke="black" stroke-width="0.31077"/>
<path fill-rule="evenodd" clip-rule="evenodd" d="M242.768 96.9536C251.89 95.439 261.678 94.7445 262.384 82.9099C247.567 83.8786 245.15 90.4083 242.768 96.9536Z" fill="#EFC600" stroke="black" stroke-width="0.31077"/>
<path fill-rule="evenodd" clip-rule="evenodd" d="M242.123 95.7979C246.739 91.9242 256.782 86.2301 261.904 83.582Z" fill="#EFC600"/>
<path d="M242.123 95.7979C246.739 91.9242 256.782 86.2301 261.904 83.582" stroke="black" stroke-width="0.31077"/>
<path fill-rule="evenodd" clip-rule="evenodd" d="M260.282 100.072C253.314 101.083 246.158 101.749 241.591 107.101C252.396 106.13 256.349 103.104 260.282 100.072Z" fill="#EFC600" stroke="black" stroke-width="0.311325"/>
<path fill-rule="evenodd" clip-rule="evenodd" d="M261.574 103.033C255.757 103.443 245.134 104.295 239.836 104.672Z" fill="#EFC600"/>
<path d="M261.574 103.033C255.757 103.443 245.134 104.295 239.836 104.672" stroke="black" stroke-width="0.311325"/>
<path fill-rule="evenodd" clip-rule="evenodd" d="M224.431 26.5784C217.497 27.1081 202.897 27.2639 196.405 26.9917Z" fill="#EFC600"/>
<path d="M224.431 26.5784C217.497 27.1081 202.897 27.2639 196.405 26.9917" stroke="black" stroke-width="0.31077"/>
<path fill-rule="evenodd" clip-rule="evenodd" d="M222.11 136.552C222.971 132.526 227.69 130.5 232.038 128.142L231.191 127.967C225.622 130.38 222.018 133.213 221.066 136.614L222.11 136.552V136.552Z" fill="#EFC600" stroke="black" stroke-width="0.31077"/>
<path fill-rule="evenodd" clip-rule="evenodd" d="M241.311 121.747C243.114 126.669 238.825 127.969 235.872 129.553C231.329 131.99 230.039 128.179 230.362 126.702C230.812 124.64 231.848 123.142 234.923 121.276C236.508 120.415 241.044 120.365 241.311 121.747V121.747Z" fill="#EFC600" stroke="black" stroke-width="0.31077"/>
<path fill-rule="evenodd" clip-rule="evenodd" d="M218.954 136.481C220.027 131.583 221.597 126.687 216.403 121.78C213.988 129.16 216.464 132.825 218.954 136.481Z" fill="#EFC600" stroke="black" stroke-width="0.311247"/>
<path fill-rule="evenodd" clip-rule="evenodd" d="M216.863 136.788C217.148 132.711 217.713 124.679 217.984 121.167Z" fill="#EFC600"/>
<path d="M216.863 136.788C217.148 132.711 217.713 124.679 217.984 121.167" stroke="black" stroke-width="0.311247"/>
<path fill-rule="evenodd" clip-rule="evenodd" d="M132.561 35.8204C132.834 35.4468 132.933 33.4683 130.546 32.5947C129.178 32.2963 128.04 31.6388 127.095 30.1662C126.075 28.8438 125.255 27.6659 124.833 25.5212C124.488 24.2498 124.802 23.0197 125.791 24.1358C126.168 24.683 126.443 25.2349 126.791 25.8585C127.762 27.455 128.926 29.078 130.32 30.3506C131.12 31.2227 132.287 32.8981 135.384 32.1217C136.852 31.8475 138.264 30.5326 139.084 29.186C139.805 27.7898 139.556 26.2467 139.608 24.8504C139.435 23.129 139.432 21.5033 138.512 20.107C138.264 19.1098 138.728 18.9207 139.424 19.6486C140.618 20.8203 140.923 21.7278 141.322 23.0259C141.62 25.4448 141.795 28.0106 141.522 30.5544C142.118 30.5786 142.753 30.7012 143.351 30.7012C145.689 30.8248 147.699 30.4525 149.714 29.8034C151.604 29.2308 152.695 28.7578 153.715 27.7594C154.635 26.9867 155.501 25.5964 155.999 24.3992C156.395 23.152 156.449 21.9256 156.747 20.5778C156.971 19.6545 157.837 18.8017 158.482 20.3449C158.662 21.6418 158.435 22.4085 157.987 23.7802C157.714 24.5532 156.081 28.3112 154.863 30.2329C155.53 30.973 158.25 30.4016 159.27 29.9283C160.09 29.4056 161.272 28.6861 162.118 28.1379C162.863 27.4404 163.491 26.6942 164.255 25.4703C165.051 23.8349 165.326 22.6352 164.554 19.9154C163.809 17.3462 162.664 15.222 161.744 12.8018C161.645 11.6155 161.982 10.6218 163.655 12.0217C164.228 13.3186 164.826 14.4189 165.299 15.7909C166.244 17.6117 166.766 19.6036 167.512 21.4502C168.112 23.1725 169.686 23.1278 170.7 21.1818C171.595 19.4107 171.968 17.1446 172.091 15.399C172.116 12.2814 172.417 9.77891 172.79 6.98486C173.256 6.14916 173.498 4.99669 174.525 6.956C175.025 9.04975 175.012 10.383 174.778 13.4025C174.232 15.7472 173.682 17.7962 173.484 20.3654C172.869 22.3017 173.893 22.7955 174.938 22.3961C176.156 21.7483 176.672 21.0291 177.243 20.3061C178.486 18.6356 179.162 17.0586 180.134 15.2136C180.738 14.6518 181.522 14.7549 181.218 16.7711C180.248 19.4145 178.952 21.5433 176.39 24.0132C175.17 25.0712 175.935 26.329 177.453 25.8644C179.293 25.4156 180.508 24.5424 181.977 23.8691C182.549 23.5452 183.177 23.0939 183.656 24.1759C183.582 25.0737 183.281 25.3889 181.41 26.3569C177.281 27.8032 174.79 27.655 170.612 28.1038C167.179 28.7771 165.091 29.2516 161.458 31.0482C159.244 31.8705 157.871 32.9674 155.034 33.5168C152.921 33.4925 149.341 32.7925 146.43 32.6677C142.948 32.4189 141.512 32.4783 137.233 35.795C135.348 36.9304 134.323 36.7872 134.389 35.6748L132.553 35.8217" fill="#EFC600"/>
<path d="M132.561 35.8204C132.834 35.4468 132.933 33.4683 130.546 32.5947C129.178 32.2963 128.04 31.6388 127.095 30.1662C126.075 28.8438 125.255 27.6659 124.833 25.5212C124.488 24.2498 124.802 23.0197 125.791 24.1358C126.168 24.683 126.443 25.2349 126.791 25.8585C127.762 27.455 128.926 29.078 130.32 30.3506C131.12 31.2227 132.287 32.8981 135.384 32.1217C136.852 31.8475 138.264 30.5326 139.084 29.186C139.805 27.7898 139.556 26.2467 139.608 24.8504C139.435 23.129 139.432 21.5033 138.512 20.107C138.264 19.1098 138.728 18.9207 139.424 19.6486C140.618 20.8203 140.923 21.7278 141.322 23.0259C141.62 25.4448 141.795 28.0106 141.522 30.5544C142.118 30.5786 142.753 30.7012 143.351 30.7012C145.689 30.8248 147.699 30.4525 149.714 29.8034C151.604 29.2308 152.695 28.7578 153.715 27.7594C154.635 26.9867 155.501 25.5964 155.999 24.3992C156.395 23.152 156.449 21.9256 156.747 20.5778C156.971 19.6545 157.837 18.8017 158.482 20.3449C158.662 21.6418 158.435 22.4085 157.987 23.7802C157.714 24.5532 156.081 28.3112 154.863 30.2329C155.53 30.973 158.25 30.4016 159.27 29.9283C160.09 29.4056 161.272 28.6861 162.118 28.1379C162.863 27.4404 163.491 26.6942 164.255 25.4703C165.051 23.8349 165.326 22.6352 164.554 19.9154C163.809 17.3462 162.664 15.222 161.744 12.8018C161.645 11.6155 161.982 10.6218 163.655 12.0217C164.228 13.3186 164.826 14.4189 165.299 15.7909C166.244 17.6117 166.766 19.6036 167.512 21.4502C168.112 23.1725 169.686 23.1278 170.7 21.1818C171.595 19.4107 171.968 17.1446 172.091 15.399C172.116 12.2814 172.417 9.77891 172.79 6.98486C173.256 6.14916 173.498 4.99669 174.525 6.956C175.025 9.04975 175.012 10.383 174.778 13.4025C174.232 15.7472 173.682 17.7962 173.484 20.3654C172.869 22.3017 173.893 22.7955 174.938 22.3961C176.156 21.7483 176.672 21.0291 177.243 20.3061C178.486 18.6356 179.162 17.0586 180.134 15.2136C180.738 14.6518 181.522 14.7549 181.218 16.7711C180.248 19.4145 178.952 21.5433 176.39 24.0132C175.17 25.0712 175.935 26.329 177.453 25.8644C179.293 25.4156 180.508 24.5424 181.977 23.8691C182.549 23.5452 183.177 23.0939 183.656 24.1759C183.582 25.0737 183.281 25.3889 181.41 26.3569C177.281 27.8032 174.79 27.655 170.612 28.1038C167.179 28.7771 165.091 29.2516 161.458 31.0482C159.244 31.8705 157.871 32.9674 155.034 33.5168C152.921 33.4925 149.341 32.7925 146.43 32.6677C142.948 32.4189 141.512 32.4783 137.233 35.795C135.348 36.9304 134.323 36.7872 134.389 35.6748L132.553 35.8217" stroke="black" stroke-width="0.375"/>
<path fill-rule="evenodd" clip-rule="evenodd" d="M188.886 103.787C189.087 105.849 188.855 108.716 189.547 110.833C189.696 111.805 190.775 112.743 189.878 114.24L186.316 120.371L183.287 125.789L180.893 131.018C180.471 132.964 179.55 134.145 179.998 136.938C180.321 138.434 179.756 138.274 179.11 138.349C177.795 138.252 177.977 139.292 177.906 139.945C177.708 141.665 177.723 142.816 176.903 144.213C176.406 145.485 171.351 145.085 171.858 143.995C172.542 142.849 172.908 142.349 173.231 141.001C173.753 140.807 174.986 140.75 173.966 139.128L175.433 135.353L177.4 131.012L180.264 124.158C181.183 121.515 181.977 118.624 182.525 115.829C183.022 113.684 183.029 112.891 182.704 110.796C182.282 108.602 181.856 106.58 180.637 104.535C179.524 102.809 179.075 98.5109 177.128 98.5193C180.968 97.744 185.431 101.888 188.886 103.784V103.787V103.787ZM187.516 111.645C187.597 113.458 187.368 113.927 186.599 116.052C187.325 115.445 188.508 113.32 187.516 111.645Z" fill="#EFC600" stroke="black" stroke-width="0.375"/>
<path fill-rule="evenodd" clip-rule="evenodd" d="M181.39 98.3809C180.775 98.4392 178.029 101.262 176.052 101.34C174.491 101.401 173.487 101.287 171.577 102.342C170.413 102.984 172.145 103.254 170.496 105.329C174.816 104.718 179.601 102.888 182.186 99.7955C183.009 98.6242 183.076 98.3809 181.39 98.3809V98.3809Z" fill="#EFC600" stroke="black" stroke-width="0.375"/>
<path fill-rule="evenodd" clip-rule="evenodd" d="M133.674 101.544C131.145 102.251 127.935 102.75 125.338 102.878C121.084 103.302 118.152 103.933 115.913 105.379C113.475 108.123 113.538 111.48 114.112 114.499C114.508 116.094 115.021 118.001 116.863 118.924C118.022 119.081 117.748 119.04 117.383 120.352C117.109 122.222 118.052 123.056 118.798 123.379C119.022 123.503 119.332 123.531 119.506 124.006C119.621 126.154 119.605 127.618 118.86 129.264C118.472 129.728 118.169 129.287 117.811 129.164L115.986 127.408C115.889 126.534 115.964 126.275 116.1 125.654C115.721 125.667 115.56 126.083 115.521 126.922C114.036 125.168 112.686 122.624 111.694 120.386C111.17 118.44 111.604 116.778 111.354 114.757C111.231 113.385 110.705 112.024 110.679 110.328L110.598 104.585C110.971 102.615 111.891 101.857 114.229 100.51C116.965 98.9137 121.124 97.4749 123.761 95.7038C123.978 95.5225 125.235 95.0266 126.496 93.1479L133.674 101.544V101.544Z" fill="#EFC600" stroke="black" stroke-width="0.375"/>
<path fill-rule="evenodd" clip-rule="evenodd" d="M126.104 93.0211C125.874 91.536 124.918 88.6879 124.463 86.5383C127.303 85.7239 129.157 56.6433 147.486 68.8572C149.276 71.2264 151.749 72.0525 154.859 72.6009C159.337 73.0497 163.616 73.7447 168.319 74.0189C172.323 74.0189 176.354 74.0651 180.384 74.0906C184.613 74.2397 187.737 75.2648 190.947 77.212C192.539 78.2344 193.938 79.2402 195.282 80.862C196.625 82.4827 197.625 84.1628 198.248 86.2833C198.595 87.8799 198.131 88.8746 197.658 90.2224C197.394 90.7988 197.032 91.1699 196.628 91.3919C196.771 89.4121 196.141 88.5472 195.364 88.1479C196.016 89.5224 196.17 90.5354 195.96 91.6416C195.96 93.2624 196.303 95.2639 196.601 96.9101C196.998 99.2297 197.623 101.173 198.694 103.218C200.26 106.211 201.446 107.775 203.311 109.671C204.331 110.569 205.211 110.979 205.036 112.5C204.739 114.096 204.636 115.352 204.611 117.322C204.388 120.063 204.489 122.763 204.464 125.507L204.588 132.488C204.612 134.383 204.52 136.332 204.966 138.253C205.389 139.749 204.734 139.815 204.063 140.389C202.969 141.686 203.466 144.268 202.023 145.99C201.613 146.544 199.528 147.044 198.015 147.079C197.802 146.658 198.125 145.859 198.256 145.575C197.714 145.48 197.434 146.315 197.211 147.044C196.507 146.952 196.144 146.674 196.568 146.133L198.515 143.788C198.961 143.881 199.943 143.802 200.217 143.37C199.936 143.368 199.452 143.408 199.312 143.114C199.631 142.625 200.101 141.95 200.211 141.342C200.633 139.772 200.735 137.981 200.76 136.359L200.658 125.808C200.46 123.139 200.357 120.522 199.785 117.927C199.064 115.483 198.121 113.226 196.802 111.306C195.285 109.435 193.373 107.853 191.73 106.631C186.461 103.302 180.53 102.985 175.782 95.1366C180.328 101.034 180.356 100.278 171.18 102.154C168.32 102.753 166.177 102.772 163.639 103.072C161.724 103.171 159.763 103.103 157.872 103.079C154.514 103.079 151.39 103.457 148.031 103.257C147.51 103.095 146.874 102.939 146.329 102.846C146.628 101.504 146.665 99.7465 146.409 99.317C146.265 100.199 145.79 101.666 145.579 102.755L143.653 111.671C142.833 114.765 143.366 117.681 143.192 120.575C142.801 122.994 142.153 123.367 141.846 124.838C141.671 126.608 141.7 128.703 141.825 130.798C141.874 133.566 142.521 135.808 143.043 138.378C143.142 138.851 143.037 139.313 143.583 139.887C142.924 140.348 142.493 140.146 141.945 140.396L141.448 145.038C140.95 146.085 139.922 146.203 138.778 146.603C137.719 146.963 136.82 147.226 135.874 147.112C135.944 146.911 136.386 146.241 136.239 145.789C135.867 146.316 135.386 147.111 135.176 146.863C134.844 146.833 134.67 146.782 134.335 146.449C135.555 145.147 136.385 144.468 137.256 142.446C138.086 142.362 139.142 141.051 138.933 141.018C138.376 141.382 137.818 141.863 137.518 141.765L137.949 140.479C138.47 137.411 139.209 134.966 139.135 131.349C139.208 127.733 137.816 127.358 138.115 120.947L137.983 117.537C137.834 114.818 137.795 112.099 137.672 109.38C137.523 107.684 137.545 106.863 135.952 102.072C135.596 101.254 134.982 100.436 134.943 99.4443C134.55 100.151 134.876 101.145 135.056 101.908C134.559 101.904 134.102 102.008 133.641 101.588C130.975 100.115 126.802 97.1068 126.1 93.0149L126.103 93.0212L126.104 93.0211ZM201.762 112.488C202.693 112.866 202.947 113.888 203.287 116.103C203.419 115.206 203.488 111.447 201.762 112.488Z" fill="#EFC600" stroke="black" stroke-width="0.375"/>
<path fill-rule="evenodd" clip-rule="evenodd" d="M123.956 87.5763C123.974 84.5033 122.935 81.9059 126.249 76.8652C123.77 79.9742 121.169 79.0645 120.685 80.2058C119.984 73.9775 121.682 74.7053 125.879 68.5989C122.716 70.7982 120.345 70.847 119.404 72.578C120.996 65.4047 119.955 63.6804 125.067 60.897C124.013 60.9771 119.716 62.4595 118.297 64.1701C116.904 63.0796 118.33 60.8448 119.118 59.7071C120.212 58.2851 121.037 57.6314 122.455 56.2351C123.987 54.3997 125.552 52.21 126.686 49.7961C128.504 50.1597 129.087 49.5812 129.034 48.7889C128.063 49.3737 127.571 49.4455 127.009 49.1663C126.146 48.715 125.283 48.2638 124.419 47.8113C122.429 46.9632 120.258 46.193 117.72 46.2185C116.179 46.0694 114.259 46.489 113.189 46.3399C112.406 46.3399 112.247 45.4359 112.021 44.5844C112.856 45.3051 118.326 44.5639 118.747 43.6794C117.172 43.8664 113.102 44.7191 112.115 44.0033C111.718 43.8542 111.036 43.9924 111.036 43.4685C110.788 42.6701 110.931 42.4288 111.129 41.5807C111.751 40.3835 112.132 39.663 114.635 39.4167C118.839 39.368 121.619 38.4776 124.629 37.5546C126.793 36.9807 128.043 36.0637 131.477 36.2637C131.789 35.5724 132.731 35.4848 133.417 35.6718C133.566 37.1686 134.845 36.6385 136.314 36.0065C136.985 36.6544 138.048 36.6665 138.446 37.4891C137.734 37.9838 137.575 38.2034 136.827 38.6608C137.808 39.0102 138.229 38.4121 139.688 37.0839C139.863 37.0075 140.351 36.5938 140.475 36.4941C141.519 35.8211 142.303 34.9488 144.791 34.6236C146.108 34.3749 147.544 34.3386 149.758 35.0857C147.694 36.9565 147.157 38.7894 144.171 40.0111C143.309 40.5071 142.297 40.8543 141.185 41.0993C140.173 41.2714 139.347 41.4437 139.216 41.963C140.74 41.6403 141.141 41.6173 141.38 42.0418C142.063 45.0965 142.876 48.5004 143.191 51.6436C143.564 54.8606 143.514 58.0354 144.012 61.2282C144.335 62.7238 145.75 67.5048 147.269 69.0259C147.4 72.8087 149.087 75.5668 145.56 80.3958C145.028 75.3653 143.452 72.8148 142.665 73.2068C141.877 73.5989 143.133 79.9277 139.283 83.2873C139.681 78.244 137.678 75.3505 136.552 75.8422C135.427 76.3338 136.241 82.0458 130.88 86.6799C130.831 78.6613 131.331 79.5341 129.946 80.8574C128.047 82.6723 125.64 85.7892 123.956 87.5763V87.5763ZM144.474 38.0969C144.457 38.081 144.994 37.6394 145.358 37.6152C147.402 36.6109 147.385 35.7444 145.45 36.2662C144.471 36.4068 141.003 39.0686 140.236 39.3062C139.61 39.8813 141.071 39.7369 141.327 39.6205C141.008 39.7841 140.695 39.9953 140.285 40.0512C139.192 40.3751 139.39 39.2782 139.889 39.054C141.505 38.6804 143.321 36.8593 145.311 35.9364C146.828 35.4134 147.649 35.9121 147.177 36.709C146.78 37.4562 145.859 37.682 145.137 37.8807C144.681 38.1199 144.566 38.2459 144.511 38.5407C144.388 38.377 144.329 38.3966 144.475 38.0969H144.474H144.474ZM114.53 41.3164C114.969 40.8251 114.958 40.5058 114.558 40.5947C113.881 41.0434 113.256 41.463 112.663 41.9242C112.247 41.7894 112.314 42.43 112.457 42.6133C112.08 42.6943 112.024 42.3207 112.248 41.7226C113.094 41.3745 113.69 40.8251 114.437 40.376C115.605 40.1531 115.083 41.1235 114.53 41.3164H114.53Z" fill="#EFC600" stroke="black" stroke-width="0.375"/>
<path d="M128.901 39.3801C128.901 39.4761 128.883 39.5711 128.848 39.6598C128.813 39.7485 128.761 39.8291 128.696 39.897C128.631 39.9649 128.554 40.0188 128.468 40.0555C128.383 40.0923 128.292 40.1112 128.2 40.1112C128.108 40.1112 128.017 40.0923 127.932 40.0555C127.847 40.0188 127.769 39.9649 127.704 39.897C127.639 39.8291 127.588 39.7485 127.552 39.6598C127.517 39.5711 127.499 39.4761 127.499 39.3801C127.499 39.2841 127.517 39.189 127.552 39.1003C127.588 39.0116 127.639 38.931 127.704 38.8631C127.769 38.7952 127.847 38.7413 127.932 38.7046C128.017 38.6678 128.108 38.6489 128.2 38.6489C128.292 38.6489 128.383 38.6678 128.468 38.7046C128.554 38.7413 128.631 38.7952 128.696 38.8631C128.761 38.931 128.813 39.0116 128.848 39.1003C128.883 39.189 128.901 39.2841 128.901 39.3801V39.3801Z" fill="#EFC600" stroke="black" stroke-width="0.375"/>
<path d="M125.7 40.8249C126.374 38.4905 126.314 38.452 127.925 38.4531C129.536 38.4543 132.819 38.495 132.819 38.495C132.819 38.495 130.427 39.2449 129.265 39.9821C128.102 40.7193 128.381 40.8757 125.7 40.8249V40.8249Z" fill="#0073DE" stroke="black" stroke-width="0.375"/>
</g>
<defs>
<clipPath id="clip0_1_2701">
<rect width="600" height="400" fill="white"/>
</clipPath>
</defs>
</svg>
