<svg width="600" height="400" viewBox="0 0 600 400" fill="none" xmlns="http://www.w3.org/2000/svg" xmlns:cgf="https://coding.garden/flags"><metadata id="cgf-metadata">

<cgf:flag>
  <cgf:name>Ermelo</cgf:name>
  <cgf:route>nl/ge/ermelo</cgf:route>
  <cgf:aspect-ratio>1.5</cgf:aspect-ratio>
</cgf:flag>

</metadata><g clip-path="url(#clip0_1_3014)">
<path d="M600 0H0V400H600V0Z" fill="#FCDD09"/>
<path d="M600 58.2344H0V343.676H600V58.2344Z" fill="#0F47AF"/>
<path d="M164.5 298.119C164.309 297.728 164.312 297.712 164.811 296.398C166.793 291.182 167.998 285.919 168.463 280.452C168.618 278.625 168.617 273.681 168.463 271.873C168.063 267.222 167.385 263.799 165.745 258.148L165.578 257.574L163.931 257.358C161.631 257.056 156.316 257.048 154.379 257.344C150.187 257.983 147.083 259.337 144.947 261.458C143.789 262.608 143.218 263.584 142.364 265.871C140.71 270.299 138.924 273.032 135.689 276.083C131.95 279.609 127.408 281.824 122.181 282.669C120.678 282.912 117.236 282.942 115.892 282.724C107.902 281.429 102.887 276.224 101.815 268.114C101.601 266.491 101.591 263.128 101.795 261.504L101.942 260.334L101.3 260.399C98.8673 260.644 97.0718 260.568 95.0389 260.134C89.7288 259.001 85.2781 255.55 83.4372 251.139C82.0234 247.751 82.0468 244.469 83.5116 240.811C84.2677 238.921 85.7991 236.595 87.3072 235.046C87.7344 234.607 87.8856 234.383 87.7774 234.347C87.6889 234.319 87.2022 234.185 86.6944 234.05C82.7882 233.011 79.4269 230.698 77.3568 227.625C74.8957 223.971 74.2642 219.136 75.687 214.843C76.8062 211.465 79.1604 208.373 82.1692 206.329C82.6905 205.975 83.1574 205.651 83.2068 205.61C83.2567 205.568 82.737 205.183 82.0528 204.754C77.7223 202.038 74.8669 198.656 73.769 194.941C72.4184 190.371 73.8807 185.347 77.69 181.471C80.1321 178.985 83.0153 177.324 86.3426 176.485C87.101 176.294 87.7337 176.126 87.7483 176.112C87.7624 176.097 87.4371 175.579 87.0242 174.959C85.5028 172.674 84.2521 169.783 83.7945 167.492C83.5377 166.207 83.5353 163.764 83.7851 162.645C84.3614 160.11 85.526 158.127 87.5368 156.258C90.874 153.157 95.8563 151.436 101.149 151.556C102.574 151.588 102.782 151.57 102.72 151.423C101.276 148.002 101.023 144.006 102.048 140.794C103.338 136.749 106.62 133.498 110.903 132.021C112.85 131.349 114.016 131.173 116.522 131.173C118.523 131.173 118.932 131.206 120.215 131.473C121.008 131.639 122.199 131.953 122.86 132.172C123.522 132.391 124.074 132.557 124.088 132.542C124.101 132.527 124.007 132.032 123.879 131.443C123.598 130.153 123.539 126.982 123.773 125.798C124.37 122.782 125.707 120.286 127.824 118.235C130.725 115.423 134.312 114.122 138.381 114.406C140.315 114.541 141.785 114.923 143.637 115.77C145.763 116.743 147.179 117.738 149.142 119.641L150.546 121.001L150.617 119.692C150.842 115.485 152.278 112.142 155.003 109.481C157.051 107.479 159.532 106.213 162.524 105.641C163.928 105.372 166.544 105.372 167.929 105.64C172.969 106.615 176.707 109.892 178.166 114.613C178.347 115.197 178.495 115.769 178.495 115.883C178.495 115.997 178.546 116.09 178.61 116.09C178.674 116.09 178.725 115.982 178.725 115.851C178.725 115.398 179.545 113.211 180.073 112.255C181.431 109.794 183.252 108.092 185.823 106.879C192.178 103.88 200.074 105.963 203.994 111.673C205.502 113.868 206.4 116.68 206.606 119.853L206.686 121.075L207.868 119.899C210.608 117.169 213.76 115.394 217.045 114.732C219.41 114.255 222.335 114.457 224.473 115.244C231.192 117.718 234.805 124.541 233.253 131.823C233.16 132.257 233.102 132.63 233.123 132.65C233.144 132.671 233.501 132.562 233.915 132.41C237.039 131.26 241.111 130.92 244.183 131.553C250.044 132.761 254.262 136.716 255.502 142.167C255.699 143.032 255.746 143.611 255.744 145.158C255.744 147.288 255.548 148.462 254.888 150.351C254.693 150.91 254.508 151.443 254.476 151.537C254.426 151.683 254.649 151.701 256.127 151.669C263.748 151.507 270.518 155.203 272.801 160.772C273.438 162.325 273.615 163.439 273.556 165.534C273.511 167.09 273.451 167.59 273.189 168.569C272.594 170.784 271.416 173.277 269.988 175.337C269.673 175.792 269.434 176.184 269.459 176.208C269.483 176.232 270.117 176.406 270.869 176.595C276.534 178.024 281.324 182.172 283.148 187.23C283.809 189.064 284.091 191.319 283.865 192.966C283.389 196.425 281.729 199.445 278.871 202.053C277.764 203.063 275.949 204.417 274.827 205.07C274.397 205.32 274.024 205.559 273.997 205.602C273.969 205.644 274.404 205.994 274.962 206.38C278.812 209.038 281.297 212.829 282.078 217.236C282.362 218.837 282.255 221.627 281.85 223.2C280.444 228.663 276.117 232.757 270.184 234.24C269.739 234.351 269.357 234.454 269.334 234.469C269.31 234.484 269.641 234.872 270.067 235.333C271.704 237.101 273.289 239.654 273.978 241.634C275.779 246.811 274.54 251.95 270.549 255.849C267.103 259.217 261.89 261.014 256.812 260.586C255.995 260.517 255.313 260.476 255.297 260.495C255.281 260.513 255.336 261.062 255.421 261.714C255.607 263.155 255.628 266.012 255.464 267.6C254.799 274.031 251.633 278.833 246.437 281.293C240.464 284.12 232.634 283.441 225.926 279.514C223.858 278.304 222.248 277.017 220.428 275.122C217.881 272.469 216.35 269.967 214.852 266.006C213.885 263.45 213.456 262.735 212.112 261.436C209.99 259.385 207.113 258.143 202.903 257.46C200.917 257.138 195.25 257.172 192.805 257.521C189.533 257.988 186.72 258.658 184.176 259.578L182.875 260.048L182.455 260.796C181.634 262.259 180.178 264.607 179.472 265.608C178.223 267.378 176.733 270.551 175.891 273.234C174.657 277.167 174.184 280.403 174.177 284.968C174.167 288.016 174.301 289.851 174.753 293.152C174.906 294.27 175.032 295.248 175.032 295.325C175.032 295.403 174.66 295.238 174.196 294.955C171.699 293.431 169.668 293.744 167.327 296.012C166.836 296.488 166.13 297.246 165.758 297.696C165.386 298.146 164.993 298.514 164.885 298.514C164.774 298.514 164.605 298.342 164.496 298.12L164.5 298.119ZM178.584 244.865C178.564 244.042 178.548 244.715 178.548 246.361C178.548 248.006 178.564 248.679 178.584 247.857C178.604 247.034 178.604 245.688 178.584 244.865V244.865ZM178.584 204.333C178.563 203.824 178.546 204.271 178.546 205.327C178.546 206.382 178.563 206.799 178.584 206.252C178.605 205.706 178.605 204.843 178.584 204.333V204.333ZM178.584 191.752C178.558 191.581 178.536 191.721 178.536 192.062C178.536 192.404 178.558 192.544 178.584 192.373C178.611 192.202 178.611 191.923 178.584 191.752ZM178.594 138.3C178.578 128.723 178.563 136.559 178.563 155.713C178.563 174.867 178.577 182.703 178.594 173.126C178.61 163.549 178.61 147.877 178.594 138.3ZM461.536 196.896C461.409 196.827 461.292 196.761 461.277 196.749C461.261 196.738 465.244 186.27 470.129 173.488C475.015 160.707 478.993 150.231 478.971 150.209C478.948 150.187 469.163 153.83 457.224 158.303C445.285 162.777 435.463 166.437 435.397 166.437C435.331 166.437 435.219 166.314 435.149 166.164C435.029 165.906 435.341 165.559 440.844 159.814C450.315 149.929 450.866 149.348 450.834 149.276C450.817 149.238 447.428 145.992 443.302 142.061C432.342 131.62 433.037 132.312 433.221 132.023C433.306 131.89 433.428 131.783 433.492 131.784C433.557 131.786 443.891 135.614 456.458 140.291C469.026 144.967 479.323 148.783 479.341 148.769C479.359 148.756 475.242 138.496 470.193 125.969C461.661 104.801 461.027 103.182 461.217 103.041C461.329 102.958 461.473 102.889 461.536 102.887C461.6 102.886 465.754 107.179 470.769 112.426C479.225 121.276 479.898 121.953 480.059 121.765C480.154 121.654 484.14 117.105 488.918 111.657L497.604 101.751L497.896 101.938C498.089 102.062 498.164 102.187 498.115 102.306C497.708 103.312 480.64 148.755 480.663 148.774C480.679 148.788 490.664 145.044 502.851 140.456C515.038 135.867 525.104 132.101 525.221 132.088C525.339 132.074 525.508 132.169 525.598 132.298C525.753 132.521 525.325 132.945 516.845 140.978C511.941 145.622 507.914 149.458 507.897 149.501C507.88 149.544 511.878 153.435 516.783 158.148C521.688 162.861 525.713 166.743 525.727 166.775C525.741 166.806 525.663 166.943 525.554 167.078L525.355 167.324L503.04 158.746C490.767 154.028 480.708 150.186 480.687 150.207C480.658 150.234 494.433 187.375 497.308 195.024L497.594 195.785L497.28 195.939L496.965 196.093L488.318 186.904C480.056 178.125 479.662 177.725 479.471 177.918C479.361 178.03 475.368 182.363 470.598 187.547C465.827 192.731 461.889 196.984 461.846 196.998C461.802 197.011 461.663 196.966 461.536 196.896V196.896Z" fill="white"/>
<path d="M164.007 298.676L163.616 297.886L163.802 297.35C163.904 297.055 164.282 296.001 164.641 295.007C166.218 290.643 167.189 286.446 167.721 281.687C167.924 279.874 167.926 272.528 167.721 270.906C167.33 267.76 167.016 265.914 166.473 263.568C166.175 262.285 165.169 258.581 165.097 258.507C164.957 258.362 162.373 258.136 160.195 258.077C156.228 257.969 153.322 258.33 150.653 259.261C148.625 259.969 147.274 260.743 146.021 261.916C144.734 263.121 144.226 263.976 143.222 266.631C141.926 270.054 140.474 272.497 138.198 275.083C131.505 282.685 120.418 285.836 111.809 282.584C106.707 280.656 103.097 276.529 101.694 271.019C101.124 268.78 101.05 268.05 101.05 264.609V261.417L99.954 261.488C98.6758 261.571 96.5313 261.395 95.0959 261.088C88.2323 259.623 83.035 254.672 81.9399 248.554C81.7223 247.339 81.7479 244.874 81.9917 243.67C82.2599 242.338 82.7462 240.916 83.3736 239.629C83.9089 238.531 85.3162 236.379 86.0411 235.551C86.2675 235.292 86.4527 235.048 86.4527 235.008C86.4527 234.969 86.1541 234.845 85.7891 234.734C83.019 233.888 79.9811 231.956 78.1208 229.857C75.6216 227.037 74.3159 223.562 74.3092 219.712C74.2998 216.036 75.4137 212.813 77.7586 209.705C78.5277 208.686 80.4772 206.768 81.4119 206.112L81.9562 205.729L81.3553 205.327C79.11 203.822 76.8195 201.766 75.6344 200.191C71.7143 194.981 71.6325 188.721 75.4128 183.25C76.3409 181.906 78.7904 179.51 80.1631 178.603C82.0261 177.372 83.9435 176.47 85.7445 175.977C86.1657 175.862 86.4974 175.711 86.4813 175.642C86.4663 175.572 86.1389 174.984 85.7556 174.333C82.7252 169.187 82.123 164.436 83.9608 160.173C84.7086 158.439 86.3956 156.319 88.1261 154.939C90.1746 153.305 93.5852 151.831 96.6565 151.253C98.0007 151 101.124 150.748 101.495 150.864C101.75 150.943 101.76 151.019 101.305 149.327C99.8328 143.846 101.351 138.318 105.334 134.652C106.835 133.271 108.631 132.198 110.691 131.453C112.445 130.818 113.809 130.581 116.112 130.51C118.393 130.44 119.794 130.591 121.91 131.134L123.149 131.452L123.064 130.653C122.915 129.267 122.983 126.661 123.195 125.588C124.254 120.236 128.157 115.874 133.253 114.349C134.948 113.841 135.72 113.73 137.577 113.726C141.754 113.717 145.484 115.233 149.146 118.43L150.04 119.211V118.809C150.04 118.284 150.444 116.265 150.72 115.405C152.05 111.273 154.683 108.185 158.472 106.314C159.392 105.86 161.301 105.239 162.517 104.999C163.882 104.729 167.062 104.731 168.354 105.003C169.747 105.295 170.971 105.709 172.134 106.282C173.639 107.023 174.429 107.584 175.67 108.795C176.851 109.946 177.721 111.144 178.393 112.544L178.808 113.408L179.341 112.369C181.273 108.602 184.717 106.06 189.162 105.121C190.511 104.836 193.644 104.832 195.087 105.113C197.124 105.511 199.123 106.31 200.871 107.427C201.953 108.118 204.099 110.219 204.857 111.331C205.583 112.394 206.345 113.936 206.757 115.171C207.107 116.226 207.512 118.094 207.512 118.661C207.512 118.88 207.552 119.085 207.602 119.115C207.652 119.145 208.054 118.859 208.496 118.48C214.166 113.622 220.662 112.472 226.472 115.296C227.811 115.947 228.812 116.647 230.003 117.768C232.202 119.836 233.639 122.348 234.299 125.282C234.519 126.257 234.567 126.807 234.57 128.386C234.57 129.442 234.536 130.591 234.488 130.941L234.403 131.576L235.354 131.315C237.439 130.744 238.244 130.646 240.864 130.645C242.825 130.644 243.551 130.687 244.326 130.849C250.464 132.129 254.864 136.033 256.346 141.515C256.659 142.67 256.711 143.078 256.761 144.762C256.824 146.872 256.666 148.197 256.141 149.978C255.99 150.491 255.867 150.923 255.868 150.937C255.868 150.952 256.479 150.975 257.224 150.988C259.054 151.021 260.368 151.196 262.156 151.644C263.928 152.088 264.906 152.436 266.293 153.118C272.638 156.236 275.615 161.732 274.385 168.054C273.945 170.316 272.736 173.118 271.135 175.584C270.986 175.813 271.025 175.835 272.327 176.243C273.98 176.761 276.219 177.864 277.676 178.876C280.717 180.99 283.247 184.313 284.302 187.579C285.221 190.427 285.142 193.716 284.087 196.457C282.817 199.758 280.107 202.892 276.437 205.304C276.041 205.565 275.716 205.796 275.716 205.817C275.716 205.838 276.206 206.244 276.804 206.72C280.026 209.281 282.274 212.96 283.053 216.946C283.362 218.527 283.339 221.356 283.004 222.894C282.166 226.744 280.14 229.885 277.008 232.185C275.691 233.153 273.609 234.232 272.08 234.739C271.573 234.908 271.139 235.059 271.117 235.075C271.094 235.092 271.361 235.451 271.709 235.875C273.073 237.536 274.441 239.923 275.029 241.668C276.009 244.575 276.067 247.745 275.191 250.473C273.479 255.804 268.545 259.945 262.416 261.197C260.876 261.511 258.751 261.682 257.5 261.591L256.422 261.513L256.51 262.287C256.67 263.698 256.605 267.368 256.395 268.704C256.011 271.15 255.249 273.561 254.341 275.195C251.765 279.835 247.559 282.755 242.136 283.669C235.943 284.713 229.126 282.98 223.495 278.93C221.959 277.825 219 274.898 217.947 273.444C216.304 271.172 215.444 269.55 214.327 266.615C213.557 264.59 213.31 264.088 212.665 263.232C210.9 260.889 207.93 259.322 203.802 258.555C200.183 257.882 194.627 258.063 190.028 259.003C187.381 259.544 183.799 260.652 183.591 260.994C183.542 261.075 183.134 261.776 182.685 262.552C182.235 263.328 181.291 264.823 180.588 265.874C178.32 269.262 176.71 273.252 175.895 277.509C175.436 279.909 175.302 281.254 175.236 284.17C175.158 287.542 175.316 289.822 175.945 294.383C176.154 295.905 176.313 297.166 176.297 297.184C176.281 297.201 175.6 296.808 174.785 296.308C173.971 295.809 173.027 295.299 172.689 295.175C171.592 294.774 170.529 294.939 169.37 295.69C168.668 296.145 167.25 297.537 166.357 298.647L165.699 299.466H165.047H164.395L164.004 298.676L164.007 298.676ZM168.293 293.594C169.603 292.766 171.32 292.423 172.642 292.726L173.372 292.893L173.307 292.635C173.163 292.077 172.883 288.454 172.817 286.315C172.667 281.449 173.337 276.744 174.794 272.43C175.845 269.319 176.894 267.116 178.309 265.043C186.159 253.553 188.066 243.247 184.06 233.964C183.746 233.234 183.445 232.611 183.392 232.58C183.338 232.548 183.214 232.814 183.112 233.172C182.6 234.985 181.568 238.077 180.92 239.742C178.887 244.961 177.99 249.542 177.765 255.857C177.687 258.034 177.657 258.278 177.438 258.567C176.949 259.209 175.95 259.21 175.532 258.567C175.31 258.226 175.301 258.086 175.364 256.061C175.572 249.407 176.557 244.363 178.75 238.733C179.4 237.065 180.318 234.308 180.799 232.581C182.652 225.927 182.76 220.224 181.126 215.309C180.17 212.43 178.852 210.05 176.558 207.057L175.424 205.577L175.883 204.799C177.495 202.07 179.995 200.368 183.609 199.539C184.411 199.355 185.194 199.18 185.349 199.15C185.572 199.106 185.143 198.846 183.272 197.889L180.913 196.683L180.529 195.915C180.082 195.021 179.536 194.573 178.555 194.292C176.896 193.818 174.775 194.873 173.157 196.976C171.749 198.807 171.046 200.828 171.046 203.045C171.046 204.438 171.247 205.217 171.957 206.573L172.524 207.657L171.865 208.495C167.944 213.474 165.614 219.732 164.703 227.728C164.32 231.094 164.188 234.853 164.341 238.021C164.717 245.798 165.661 251.606 167.758 259.053C168.968 263.348 169.658 266.791 170.087 270.68C170.344 273.005 170.378 279.367 170.146 281.461C169.672 285.722 168.84 289.87 167.832 293.003C167.647 293.578 167.514 294.048 167.536 294.048C167.559 294.048 167.899 293.844 168.293 293.594H168.293ZM177.873 199.037C177.356 198.781 176.987 198.049 177.094 197.491C177.195 196.966 177.644 196.45 178.137 196.29C179.114 195.975 180.111 197.056 179.814 198.108C179.571 198.969 178.637 199.416 177.873 199.037V199.037ZM242.135 281.307C245.951 280.512 248.965 278.7 251.082 275.929C252.5 274.075 253.6 271.262 254.039 268.366C254.274 266.818 254.22 262.902 253.933 260.69C253.804 259.696 253.719 258.863 253.744 258.837C253.77 258.812 254.426 258.88 255.204 258.99C258.054 259.391 260.216 259.336 262.444 258.805C267.66 257.562 271.796 253.85 273.071 249.266C273.383 248.146 273.494 245.897 273.302 244.586C273.025 242.701 272.116 240.535 270.783 238.585C270.01 237.455 269.352 236.692 267.708 235.015C267.012 234.305 266.491 233.71 266.55 233.692C266.61 233.674 267.386 233.505 268.274 233.315C272.287 232.459 274.821 231.234 277.01 229.093C279.753 226.41 281.06 223.04 280.877 219.118C280.71 215.512 279.181 212.231 276.422 209.558C275.239 208.411 274.268 207.693 272.446 206.617C271.71 206.183 271.108 205.802 271.107 205.771C271.107 205.74 271.924 205.242 272.922 204.666C275.312 203.286 276.663 202.331 278.048 201.042C281.062 198.241 282.526 195.218 282.538 191.777C282.556 186.75 279.143 181.887 273.814 179.349C272.198 178.58 270.867 178.175 268.794 177.822C267.81 177.655 266.986 177.502 266.962 177.482C266.938 177.463 267.383 176.796 267.949 176.002C269.875 173.302 270.822 171.578 271.545 169.46C273.625 163.366 271.145 157.949 264.966 155.093C261.593 153.533 258.131 153.013 254.022 153.448C253.165 153.538 252.403 153.614 252.33 153.615C252.254 153.616 252.523 152.82 252.949 151.783C254.224 148.677 254.646 146.39 254.383 144.014C253.703 137.882 248.966 133.569 242.224 132.943C239.29 132.67 236.454 133.215 232.499 134.811C231.674 135.144 230.988 135.407 230.974 135.396C230.961 135.385 231.176 134.54 231.452 133.518C231.728 132.497 232.021 131.28 232.103 130.814C232.288 129.765 232.289 127.392 232.103 126.411C231.095 121.032 227.079 117.076 221.786 116.247C220.589 116.059 218.242 116.171 217.091 116.471C216.615 116.594 216.095 116.73 215.937 116.771C215.778 116.813 215.068 117.114 214.358 117.441C211.748 118.642 209.884 120.178 206.915 123.572L205.202 125.531L205.226 122.33C205.252 118.849 205.158 117.989 204.551 116.099C203.196 111.889 199.99 108.822 195.741 107.67C193.654 107.105 190.939 107.075 188.909 107.595C184.383 108.756 181.312 112.017 180.335 116.7C180.231 117.2 180.108 118.428 180.063 119.427L179.98 121.245L179.607 121.57C179.08 122.031 178.559 122.014 178.004 121.516L177.58 121.137L177.496 119.23C177.349 115.867 176.66 113.752 175.001 111.563C173.511 109.597 171.307 108.179 168.645 107.472C167.622 107.201 167.34 107.175 165.39 107.177C163.428 107.179 163.161 107.205 162.101 107.488C159.806 108.101 157.295 109.542 155.92 111.036C154.674 112.39 153.745 113.952 153.146 115.703C152.508 117.565 152.443 118.074 152.364 121.827L152.291 125.314L150.373 123.125C149.318 121.922 148.098 120.628 147.661 120.252C145.519 118.404 143.41 117.194 141.212 116.552C139.815 116.144 139.328 116.083 137.519 116.09C135.891 116.096 135.536 116.133 134.519 116.401C130.196 117.539 126.958 120.798 125.715 125.264C125.434 126.271 125.411 126.525 125.414 128.556V130.758L126.012 132.997C126.341 134.228 126.61 135.252 126.61 135.271C126.61 135.29 125.714 134.958 124.619 134.533C121.177 133.199 119.414 132.816 116.685 132.811C112.072 132.802 108.09 134.607 105.604 137.834C103.919 140.022 103.164 142.333 103.177 145.264C103.188 147.618 103.553 149.102 104.957 152.488C105.176 153.016 105.341 153.462 105.323 153.48C105.306 153.497 104.498 153.434 103.529 153.339C101.448 153.134 100.456 153.123 98.9374 153.286C94.0269 153.812 89.8189 155.877 87.4646 158.918C86.7277 159.87 85.9366 161.447 85.6216 162.592C85.2548 163.926 85.2605 166.46 85.6338 167.954C86.297 170.605 87.4191 172.81 89.8146 176.167C90.269 176.804 90.6193 177.345 90.5934 177.371C90.567 177.396 89.7886 177.546 88.863 177.705C84.6665 178.422 81.5527 179.997 78.9106 182.737C76.9486 184.772 75.7776 186.916 75.2395 189.459C75.0426 190.389 75.0112 190.846 75.0606 192.055C75.1491 194.205 75.5987 195.688 76.7304 197.557C78.3113 200.168 80.5736 202.184 84.4578 204.444C85.5526 205.08 86.4483 205.632 86.4486 205.668C86.4486 205.705 85.8648 206.082 85.1508 206.507C83.1052 207.722 82.437 208.219 81.1382 209.492C79.7927 210.81 78.9947 211.878 78.2202 213.395C76.333 217.093 76.1533 221.314 77.7311 224.884C78.4718 226.56 79.1477 227.523 80.5634 228.919C82.9089 231.233 85.1194 232.315 89.3342 233.214C90.2545 233.41 91.0268 233.587 91.0503 233.607C91.0738 233.627 90.4665 234.293 89.701 235.088C86.9819 237.909 85.779 239.685 84.8604 242.233C82.7059 248.209 85.5714 254.478 91.8486 257.521C95.0207 259.059 98.3391 259.483 102.466 258.878C103.183 258.772 103.795 258.711 103.826 258.742C103.858 258.772 103.771 259.705 103.633 260.816C103.316 263.383 103.293 266.794 103.58 268.479C104.226 272.268 105.433 274.826 107.663 277.13C110.326 279.881 113.915 281.342 118.358 281.483C127.15 281.762 135.621 276.68 139.772 268.636C140.229 267.751 140.92 266.073 140.92 265.849C140.92 265.753 140.511 265.061 140.013 264.311C138.189 261.569 137.072 259.431 136.173 256.965C135.993 256.468 135.797 256.073 135.739 256.086C135.68 256.1 132.77 257.687 129.272 259.613C125.773 261.539 122.7 263.22 122.443 263.349C121.682 263.728 121.042 263.461 120.886 262.698C120.826 262.406 120.877 262.285 121.202 261.957C121.619 261.535 134.867 254.199 135.213 254.199C135.358 254.199 135.389 254.135 135.338 253.945C135.169 253.326 135.015 251.127 135.084 250.304C135.671 243.275 141.089 238.398 153.004 234.173C154.796 233.537 157.87 232.578 161.202 231.616L162.039 231.374V230.736C162.039 229.074 162.661 224.526 163.256 221.823C164.391 216.67 166.615 211.502 169.144 208.143L169.674 207.438L169.385 206.802C168.923 205.786 168.727 204.904 168.653 203.501C168.449 199.633 170.527 195.35 173.626 193.255C175.246 192.159 176.342 191.828 178.075 191.91C179.099 191.958 179.285 192.004 180.168 192.424C181.231 192.929 181.896 193.517 182.433 194.426L182.766 194.99L188.407 197.895C191.509 199.492 194.09 200.842 194.143 200.893C194.197 200.945 192.668 201.049 190.747 201.125C186.07 201.309 184.475 201.544 182.288 202.371C180.795 202.936 179.165 204.116 178.495 205.117L178.29 205.423L178.81 206.084C181.013 208.885 182.977 212.811 183.853 216.167C184.471 218.538 184.593 219.653 184.588 222.929C184.578 225.553 184.544 226.265 184.335 227.526C184.198 228.346 184.054 229.146 184.014 229.302C183.955 229.531 183.993 229.606 184.213 229.688C184.616 229.839 184.803 230.092 185.455 231.369C187.426 235.23 188.304 238.638 188.431 242.918C188.567 247.483 187.801 251.369 185.791 256.33C185.48 257.098 185.24 257.738 185.258 257.753C185.277 257.768 185.915 257.609 186.677 257.401C193.26 255.6 200.553 255.299 205.855 256.612C209.019 257.395 211.464 258.654 213.348 260.47C214.212 261.303 215.356 262.812 215.53 263.348C215.57 263.469 215.639 263.569 215.684 263.569C215.827 263.569 217.215 261.313 218.012 259.787C223.266 249.721 220.288 243.028 208.239 237.819C204.558 236.228 199.95 234.711 193.659 233.021C191.824 232.528 191.361 232.363 191.149 232.126C190.847 231.787 190.823 231.51 191.058 231.065C191.384 230.447 191.661 230.457 194.352 231.176C200.549 232.834 205.334 234.421 209.286 236.129C216.876 239.411 221.095 243.463 222.239 248.569C222.479 249.641 222.522 252.866 222.308 253.722C222.189 254.199 222.192 254.207 222.551 254.355C223.405 254.706 236.21 261.808 236.446 262.061C237.013 262.669 236.574 263.626 235.738 263.602C235.458 263.595 233.493 262.57 228.557 259.856C222.814 256.7 221.749 256.152 221.684 256.317C221.642 256.425 221.364 257.14 221.065 257.907C220.232 260.046 218.916 262.462 217.277 264.862L216.587 265.873L216.852 266.612C217.256 267.731 218.501 270.073 219.355 271.319C222.702 276.198 227.979 279.767 233.82 281.102C234.47 281.25 235.161 281.363 236.648 281.565C237.581 281.692 241.074 281.527 242.129 281.307L242.135 281.307ZM114.057 272.702C112.749 272.532 111.211 271.457 110.535 270.242C109.111 267.682 110.138 264.266 112.692 263.065C115.106 261.93 117.855 262.91 119.014 265.319C120.797 269.023 117.983 273.214 114.057 272.702V272.702ZM241.375 272.61C239.832 272.058 238.751 270.911 238.238 269.28C237.988 268.484 238.003 266.95 238.268 266.165C238.817 264.54 239.998 263.353 241.524 262.892C242.421 262.621 243.122 262.605 244.026 262.836C244.938 263.068 245.597 263.469 246.292 264.213C247.275 265.265 247.675 266.303 247.675 267.805C247.675 269.83 246.574 271.592 244.79 272.42C244.147 272.719 243.891 272.772 243.001 272.794C242.226 272.813 241.814 272.766 241.376 272.61H241.375ZM96.6442 252.041C95.9192 251.952 94.7477 251.414 94.1654 250.903C91.9201 248.934 91.902 245.143 94.1277 243.158C97.5456 240.111 102.76 243.136 102.058 247.759C101.642 250.502 99.2859 252.365 96.644 252.041H96.6442ZM258.869 251.972C256.584 251.191 255.175 248.809 255.533 246.334C255.967 243.335 258.854 241.374 261.599 242.213C263.727 242.862 265.105 244.754 265.116 247.039C265.126 248.063 264.98 248.685 264.556 249.512C263.948 250.698 262.93 251.579 261.705 251.98C260.989 252.215 259.568 252.21 258.869 251.971V251.972ZM250.617 243.605C250.3 243.494 240.9 239.655 229.729 235.073C207.894 226.117 208.68 226.469 208.829 225.709C208.912 225.285 209.385 224.848 209.761 224.848C209.911 224.848 219.398 228.688 230.845 233.381C245.482 239.382 251.733 241.996 251.916 242.192C252.361 242.671 252.229 243.373 251.635 243.682C251.318 243.847 251.312 243.847 250.617 243.605V243.605ZM105.994 243.59C105.321 243.315 105.206 242.332 105.802 241.95C105.967 241.845 115.378 237.946 126.716 233.287C141.312 227.289 147.46 224.813 147.776 224.806C148.393 224.793 148.827 225.269 148.73 225.853C148.694 226.074 148.555 226.334 148.422 226.432C148.137 226.643 106.828 243.612 106.483 243.661C106.353 243.679 106.133 243.647 105.994 243.59V243.59ZM267.645 224.838C265.199 224.369 263.41 221.643 263.831 219.027C264.471 215.047 269.074 213.372 271.869 216.102C272.891 217.101 273.406 218.353 273.409 219.841C273.418 223.083 270.711 225.426 267.645 224.838V224.838ZM87.8518 224.67C85.1344 223.955 83.564 221.085 84.3579 218.285C85.1956 215.33 88.3338 213.838 91.0009 215.127C92.2881 215.749 93.2651 216.977 93.6639 218.475C94.2359 220.623 93.2675 223.046 91.4012 224.138C90.2671 224.802 89.0479 224.984 87.8518 224.67V224.67ZM235.269 219.25C214.759 218.479 212.857 218.392 212.599 218.207C212.001 217.777 212.064 216.98 212.725 216.617C212.999 216.467 215.446 216.538 236.009 217.295L258.988 218.14L259.298 218.443C259.528 218.668 259.604 218.852 259.595 219.159C259.577 219.784 259.273 220.011 258.392 220.055C257.988 220.075 247.582 219.713 235.269 219.25V219.25ZM98.4283 219.802C98.1149 219.606 97.9294 219.109 98.0134 218.691C98.035 218.583 98.1956 218.39 98.3698 218.263C98.6771 218.039 99.3734 218.006 120.816 217.212C132.987 216.761 143.364 216.389 143.876 216.387C144.655 216.383 144.847 216.419 145.057 216.611C145.59 217.096 145.477 217.855 144.828 218.161C144.609 218.264 138.642 218.518 123.136 219.086C111.371 219.517 101.071 219.899 100.246 219.935C98.9389 219.991 98.7044 219.974 98.4283 219.802V219.802ZM212.688 210.118C212.285 209.898 212.072 209.293 212.257 208.895C212.332 208.734 212.554 208.529 212.752 208.439C212.95 208.348 223.666 204.989 236.567 200.975C253.012 195.858 260.101 193.699 260.283 193.753C260.728 193.886 261.062 194.268 261.062 194.646C261.062 195.133 260.8 195.449 260.225 195.656C259.382 195.961 213.588 210.185 213.284 210.237C213.125 210.264 212.857 210.21 212.688 210.118V210.118ZM121.595 203.109C109.155 199.231 98.5465 195.929 98.0213 195.771C96.7336 195.382 96.2583 194.843 96.6204 194.181C96.8922 193.685 97.2949 193.56 98.0254 193.746C98.7119 193.921 144.247 208.072 144.757 208.269C145.139 208.417 145.426 208.824 145.426 209.218C145.426 209.592 144.846 210.175 144.483 210.166C144.336 210.163 134.036 206.987 121.595 203.109V203.109ZM208.691 201.365C208.353 201.057 208.268 200.661 208.457 200.276C208.57 200.043 214.399 196.054 230.077 185.478C250.533 171.679 251.562 171 251.999 171.028C252.368 171.052 252.504 171.128 252.705 171.42C252.977 171.816 252.962 172.166 252.657 172.544C252.487 172.755 210.481 201.136 209.852 201.465C209.475 201.662 208.969 201.619 208.691 201.365H208.691ZM144.142 198.966C114.54 179.044 104.824 172.443 104.761 172.214C104.629 171.731 104.69 171.441 104.986 171.152C105.23 170.913 105.36 170.871 105.714 170.918C106.052 170.962 110.762 174.085 127.373 185.275C139.048 193.14 148.743 199.725 148.917 199.909C149.526 200.549 149.17 201.481 148.317 201.481C147.934 201.481 147.405 201.162 144.142 198.966V198.966ZM268.149 196.411C265.846 195.589 264.449 193.176 264.857 190.728C265.537 186.659 270.227 185.04 272.984 187.923C274.281 189.28 274.754 191.207 274.237 193.031C273.835 194.45 272.898 195.565 271.566 196.209C270.914 196.525 270.688 196.573 269.778 196.595C269 196.614 268.587 196.568 268.149 196.411V196.411ZM86.4548 196.303C84.1569 195.419 82.804 193.041 83.2134 190.606C83.5495 188.608 84.8091 187.138 86.6639 186.577C88.3544 186.066 90.1132 186.53 91.336 187.809C93.894 190.484 92.9885 194.878 89.5983 196.242C88.7546 196.581 87.253 196.611 86.4548 196.303V196.303ZM169.672 191.355C167.888 189.667 167.483 189.229 167.605 189.12C168.008 188.762 170.277 187.476 170.361 187.558C170.413 187.61 170.923 188.845 171.493 190.304C172.273 192.299 172.498 192.992 172.403 193.104C172.017 193.558 171.961 193.522 169.672 191.355V191.355ZM178.804 191.71C178.663 191.613 178.547 191.473 178.548 191.399C178.548 191.265 180.572 186.029 180.655 185.948C180.68 185.924 181.358 186.303 182.164 186.79L183.628 187.675L181.388 189.78C180.156 190.938 179.129 191.885 179.105 191.885C179.08 191.885 178.945 191.806 178.804 191.71V191.71ZM174.913 190.491C174.566 189.772 173.97 188.539 173.587 187.751C173.204 186.963 172.913 186.296 172.94 186.27C173 186.211 175.77 185.678 176.019 185.677C176.181 185.677 176.214 186.03 176.285 188.572C176.33 190.164 176.325 191.507 176.274 191.556C176.222 191.604 176.038 191.678 175.862 191.721C175.55 191.796 175.528 191.768 174.913 190.491H174.913ZM204.335 191.495C203.994 191.162 203.97 190.716 204.269 190.249C204.388 190.062 211.425 181.579 219.907 171.397C230.483 158.699 235.449 152.821 235.712 152.685C236.466 152.297 237.138 152.823 237.071 153.751C237.058 153.935 206.114 191.18 205.645 191.575C205.299 191.867 204.676 191.829 204.335 191.496V191.495ZM151.736 191.236C151.515 191.004 144.396 182.485 135.916 172.306C119.217 152.259 120.173 153.489 120.738 152.786C121.054 152.393 121.74 152.372 122.156 152.742C122.378 152.939 152.128 188.601 153.246 190.01C153.816 190.728 153.426 191.66 152.555 191.66C152.223 191.66 152.058 191.574 151.736 191.236V191.236ZM195.486 180.511C195.028 180.451 194.673 179.96 194.734 179.469C194.803 178.909 214.616 135.546 214.915 135.301C215.278 135.004 215.891 135.047 216.246 135.394C216.491 135.634 216.533 135.759 216.482 136.1C216.449 136.328 211.937 146.342 206.457 158.352C197.458 178.073 196.458 180.207 196.146 180.371C195.956 180.471 195.659 180.534 195.486 180.511V180.511ZM161.476 180.344C161.321 180.266 161.08 179.973 160.939 179.694C160.797 179.414 156.279 169.534 150.898 157.737C143.119 140.682 141.116 136.198 141.121 135.844C141.133 135.046 142.076 134.687 142.695 135.245C143.072 135.584 162.887 179.053 162.875 179.515C162.86 180.144 162.04 180.63 161.476 180.344V180.344ZM184.011 177.619C183.73 177.383 183.695 177.279 183.712 176.744C183.723 176.411 185.006 165.429 186.563 152.34C188.121 139.251 189.395 128.498 189.395 128.445C189.395 128.391 189.53 128.191 189.694 128C190.296 127.301 191.359 127.708 191.356 128.636C191.356 128.871 190.062 139.933 188.482 153.218L185.61 177.372L185.304 177.63C184.909 177.962 184.414 177.958 184.011 177.619V177.619ZM172.271 177.516C172.126 177.373 171.975 177.056 171.937 176.81C171.9 176.565 170.588 165.578 169.023 152.396C165.958 126.584 166.085 127.956 166.732 127.668C167.45 127.348 167.98 127.649 168.158 128.481C168.28 129.046 173.931 176.499 173.931 176.952C173.931 177.076 173.804 177.312 173.648 177.476C173.277 177.867 172.649 177.886 172.271 177.516V177.516ZM258.42 170.883C256.966 170.593 255.676 169.597 255 168.243C253.981 166.202 254.372 163.698 255.95 162.148C256.981 161.137 258.64 160.594 259.976 160.832C262.375 161.26 264.06 163.336 264.06 165.865C264.06 168.056 262.791 169.949 260.842 170.667C260.167 170.916 259.072 171.014 258.42 170.883V170.883ZM97.4233 170.765C95.6595 170.427 94.12 168.898 93.6723 167.041C93.2203 165.165 93.7354 163.316 95.0678 162.029C96.9426 160.218 99.7403 160.218 101.615 162.029C103.693 164.036 103.704 167.444 101.641 169.462C100.475 170.603 98.9823 171.064 97.4238 170.765H97.4233ZM240.058 150.332C238.942 150.119 237.758 149.311 237.058 148.285C235.99 146.721 235.878 144.696 236.762 142.942C238.249 139.994 241.956 139.345 244.293 141.624C246.751 144.02 246.146 148.396 243.154 149.87C242.067 150.406 241.155 150.542 240.058 150.332V150.332ZM115.657 150.22C113.159 149.741 111.375 147.034 111.821 144.4C112.573 139.962 118.022 138.614 120.505 142.251C121.896 144.289 121.689 146.992 120.001 148.829C118.928 149.996 117.267 150.529 115.657 150.22ZM217.472 133.134C216.385 132.801 215.085 131.719 214.557 130.708C213.538 128.755 213.908 126.197 215.441 124.594C218.202 121.707 222.942 123.356 223.586 127.427C223.898 129.397 222.934 131.591 221.317 132.591C220.24 133.257 218.623 133.486 217.472 133.134ZM137.341 132.978C136.509 132.68 135.795 132.216 135.27 131.634C133.601 129.783 133.499 127.056 135.017 124.895C135.466 124.257 136.551 123.517 137.429 123.252C139.183 122.722 140.855 123.173 142.168 124.531C143.147 125.544 143.581 126.657 143.579 128.153C143.579 130.414 142.242 132.317 140.184 132.997C139.45 133.239 138.042 133.23 137.341 132.978V132.978ZM190.889 124.329C189.202 123.721 188.108 122.567 187.585 120.845C187.367 120.126 187.367 118.698 187.585 117.978C188.296 115.636 190.295 114.196 192.599 114.366C195.756 114.6 197.844 118.01 196.774 121.182C196.295 122.6 195.044 123.838 193.615 124.306C192.935 124.529 191.478 124.541 190.889 124.329L190.889 124.329ZM164 124.216C161.844 123.439 160.544 121.593 160.544 119.308C160.544 117.86 160.956 116.807 161.927 115.767C162.975 114.646 164.224 114.143 165.693 114.252C169.141 114.507 171.23 118.37 169.673 121.614C168.827 123.374 167.214 124.389 165.287 124.371C164.805 124.368 164.226 124.297 164 124.216ZM142.209 262.976C143.422 260.642 145.961 258.559 149.109 257.314C152.709 255.891 158.09 255.353 163.304 255.894C163.901 255.956 164.406 255.991 164.425 255.971C164.446 255.952 164.364 255.532 164.245 255.039C163.882 253.538 163.336 250.743 163.033 248.837C162.318 244.323 162.051 241.376 161.964 237.012C161.91 234.342 161.861 233.541 161.75 233.541C161.549 233.541 158.394 234.459 156.448 235.084C148.499 237.638 143.514 240.202 140.493 243.294C139.026 244.795 138.23 246.019 137.658 247.651C136.567 250.769 137.074 254.56 139.154 258.827C139.912 260.384 141.717 263.455 141.873 263.455C141.921 263.455 142.072 263.239 142.209 262.976V262.976ZM461.563 197.127L460.742 196.628L464.703 186.27C466.881 180.573 470.762 170.426 473.327 163.72C475.892 157.015 477.984 151.519 477.975 151.507C477.965 151.495 468.534 155.019 457.015 159.337C445.497 163.656 435.994 167.21 435.899 167.235C435.786 167.265 435.539 166.999 435.186 166.469L434.646 165.656L435.013 165.242C435.215 165.014 438.66 161.404 442.669 157.219C446.677 153.034 449.975 149.571 449.997 149.525C450.018 149.479 446.167 145.755 441.439 141.251C436.71 136.747 432.825 133.017 432.805 132.962C432.779 132.889 433.797 131.263 433.868 131.266C433.877 131.266 443.848 134.973 456.031 139.504C468.214 144.034 478.2 147.723 478.222 147.701C478.253 147.671 461.381 105.688 460.65 103.979L460.495 103.615L461.349 103.095C461.819 102.808 462.251 102.603 462.31 102.638C462.368 102.674 466.354 106.819 471.168 111.849C475.981 116.879 479.973 120.978 480.038 120.957C480.103 120.936 483.994 116.548 488.684 111.204L497.21 101.489L498.107 102.002C498.783 102.388 498.986 102.559 498.932 102.695C498.474 103.826 481.991 147.701 482.013 147.729C482.034 147.755 523.705 132.117 525.171 131.533C525.238 131.506 525.545 131.874 525.853 132.35L526.415 133.217L525.474 134.075C522.6 136.7 509.065 149.627 509.092 149.722C509.109 149.784 512.239 152.827 516.048 156.483C519.856 160.14 523.742 163.878 524.684 164.791L526.396 166.45L525.861 167.258C525.567 167.703 525.279 168.066 525.221 168.066C525.145 168.066 489.292 154.323 482.555 151.712L481.953 151.478L482.253 152.294C482.418 152.742 486.103 162.651 490.443 174.313C494.782 185.976 498.333 195.558 498.333 195.608C498.333 195.658 497.956 195.932 497.496 196.217L496.66 196.735L496.196 196.257C495.941 195.995 492.152 191.978 487.775 187.33L479.819 178.881L479.468 179.259C479.274 179.467 475.386 183.688 470.827 188.64C466.267 193.591 462.503 197.639 462.461 197.634C462.418 197.63 462.015 197.401 461.563 197.127V197.127ZM472.531 183.729C476.511 179.399 479.779 175.856 479.795 175.856C479.81 175.856 483.118 179.354 487.145 183.631C491.172 187.907 494.485 191.391 494.506 191.372C494.555 191.33 480.104 152.46 480.001 152.356C479.946 152.302 465.157 190.804 464.773 191.998C464.688 192.26 464.843 192.098 472.531 183.729V183.729ZM520.547 163.68C520.167 163.316 516.766 160.057 512.989 156.437C509.213 152.817 506.082 149.821 506.032 149.779C505.982 149.738 509.342 146.484 513.499 142.548C517.655 138.613 521.038 135.375 521.016 135.354C520.994 135.333 512.43 138.531 501.985 142.461C491.539 146.391 483.029 149.639 483.075 149.679C483.154 149.748 521.066 164.333 521.182 164.338C521.213 164.339 520.927 164.044 520.547 163.68V163.68ZM459.64 156.152C469.238 152.556 477.054 149.579 477.008 149.537C476.941 149.476 440.035 135.723 438.384 135.144L437.926 134.983L438.269 135.335C438.457 135.529 441.844 138.768 445.796 142.533C449.747 146.299 452.967 149.413 452.951 149.453C452.935 149.494 449.961 152.617 446.343 156.393C442.725 160.17 439.674 163.372 439.562 163.509C439.386 163.726 439.543 163.689 440.774 163.224C441.552 162.93 450.042 159.748 459.64 156.152V156.152ZM487.611 126.81C491.605 116.195 494.86 107.479 494.843 107.441C494.827 107.403 491.494 111.156 487.437 115.78L480.061 124.189L479.71 123.804C478.804 122.81 464.608 108.011 464.56 108.011C464.53 108.011 464.529 108.049 464.56 108.096C464.598 108.156 475.16 134.335 480.011 146.392L480.125 146.674L480.238 146.392C480.3 146.237 483.618 137.425 487.613 126.81H487.611Z" fill="black"/>
</g>
<defs>
<clipPath id="clip0_1_3014">
<rect width="600" height="400" fill="white"/>
</clipPath>
</defs>
</svg>
