<svg width="600" height="400" viewBox="0 0 600 400" fill="none" xmlns="http://www.w3.org/2000/svg" xmlns:cgf="https://coding.garden/flags"><metadata id="cgf-metadata">

<cgf:flag>
  <cgf:name>Harderwijk</cgf:name>
  <cgf:route>nl/ge/harderwijk</cgf:route>
  <cgf:aspect-ratio>1.5</cgf:aspect-ratio>
</cgf:flag>

</metadata><g clip-path="url(#clip0_1_3020)">
<path d="M600 0H0V400H600V0Z" fill="#FCDD09"/>
<path d="M-0.222032 366.238V332.442H299.898H600.018V366.238V400.033H299.898H-0.222032V366.238V366.238ZM26.9595 267.25L-0.338196 267.208V221.462V175.716L26.9402 175.695L54.2185 175.673V202.83V229.986H64.7375C70.523 229.986 82.7895 230.012 91.9965 230.043L108.737 230.1V202.93V175.759H136.034H163.332V202.915V230.072H190.591H217.85V202.873V175.674H245.148H272.445V202.83V229.986H299.704H326.963V202.83V175.673L354.242 175.695L381.52 175.716L381.539 202.894L381.559 230.071H408.702H435.844V202.872V175.673H463.142H490.44V202.829V229.985H517.699H544.958V202.829V175.673H572.255H599.553V221.462V267.25L572.275 267.262C493.459 267.297 50.3603 267.287 26.9594 267.25L26.9595 267.25ZM-0.248329 137.409C-0.276466 137.377 -0.299481 122.151 -0.299481 103.571V69.79H299.82H599.94V103.628V137.467L299.872 137.466C134.834 137.465 -0.220195 137.44 -0.248329 137.409V137.409Z" fill="#0F47AF"/>
</g>
<defs>
<clipPath id="clip0_1_3020">
<rect width="600" height="400" fill="white"/>
</clipPath>
</defs>
</svg>
