<svg width="600" height="400" viewBox="0 0 600 400" fill="none" xmlns="http://www.w3.org/2000/svg" xmlns:cgf="https://coding.garden/flags"><metadata id="cgf-metadata">

<cgf:flag>
  <cgf:name>Hattem</cgf:name>
  <cgf:route>nl/ge/hattem</cgf:route>
  <cgf:aspect-ratio>1.5</cgf:aspect-ratio>
</cgf:flag>

</metadata><g clip-path="url(#clip0_1_3024)">
<path d="M600 0H0V400H600V0Z" fill="#0E44AF"/>
<path d="M600 50.7041H0V102.535H600V50.7041Z" fill="#FCDD04"/>
<path d="M600 301.972H0V350.422H600V301.972Z" fill="#FCDD04"/>
<path d="M98.084 261.485C96.3387 257.55 95.0378 252.689 94.5588 248.31C93.9669 242.901 94.2978 240.945 96.3255 237.861C97.9685 235.363 99.6237 231.536 99.6237 230.237C99.6237 229.227 100.189 230.102 100.959 232.302C101.979 235.215 104.491 238.992 106.702 240.934L108.649 242.645L108.14 244.499C107.86 245.519 106.434 248.475 104.971 251.069C102.275 255.851 101.229 258.165 99.9936 262.077L99.3085 264.246L98.084 261.485V261.485ZM62.4008 246.331C62.2944 243.604 61.7237 237.823 61.1328 233.485C60.2134 226.735 60.1155 225.19 60.4539 222.768C61.8907 212.491 70.5079 205.962 88.5022 201.516L93.0438 200.394L94.6388 202.037C95.5161 202.941 96.8005 203.871 97.4931 204.104L98.7524 204.527L98.6331 215.527C98.5385 224.245 98.3776 227.084 97.8569 229.217C96.2516 235.792 93.0103 240.08 87.4346 243.007C83.9251 244.848 82.5434 245.315 75.286 247.108C72.4293 247.814 68.405 249.043 66.3432 249.841L62.5944 251.29L62.4009 246.331H62.4008ZM138.653 248.674C137.221 247.82 130.61 246.166 123.417 244.863C114.868 243.314 112.596 242.594 109.516 240.455C102.771 235.771 99.9371 226.811 100.576 212.189C100.869 205.489 101.028 204.499 101.808 204.499C103.369 204.499 106.047 202.425 107.552 200.051C107.889 199.519 108.824 199.73 114.9 201.715C126.341 205.451 129.915 207.231 133.829 211.146C136.211 213.529 138.008 216.746 138.953 220.318C139.476 222.298 139.588 224.019 139.475 228.358C139.396 231.395 139.317 237.296 139.298 241.471C139.28 245.647 139.265 249.058 139.265 249.051C139.265 249.043 138.989 248.874 138.653 248.674H138.653ZM154.734 221.03C151.357 220.624 146.148 219.099 142.571 217.468C140.115 216.348 139.718 216.004 138.617 214.04C137.943 212.839 136.399 210.845 135.186 209.608L132.981 207.36L135.915 207.088C139.152 206.789 142.69 205.718 145.066 204.316L146.613 203.404L148.535 204.177C151.368 205.315 154.922 208.059 157.818 211.346C160.415 214.294 164.397 217.815 166.855 219.339C168.087 220.102 168.137 220.201 167.414 220.435C166.287 220.8 160.407 221.46 158.795 221.403C158.051 221.376 156.223 221.208 154.734 221.03V221.03ZM51.4745 215.909C49.5602 215.498 45.7388 215.041 42.9825 214.894L37.9712 214.626L40.8027 211.922C44.1819 208.694 48.7986 205.713 52.9436 204.083L55.9663 202.895L58.3613 204.094C60.9863 205.408 65.1953 206.453 67.9059 206.464L69.641 206.472L67.7125 207.801C65.3399 209.436 62.1651 212.824 60.9165 215.053L59.9828 216.719L57.469 216.688C56.0864 216.671 53.3889 216.32 51.4745 215.909V215.909ZM130.176 204.914C129.219 204.766 127.198 204.098 125.684 203.429C124.171 202.761 119.603 201.125 115.533 199.794L108.132 197.375L108.128 195.712C108.128 194.797 107.866 193.54 107.548 192.919C107.23 192.298 106.97 191.62 106.97 191.413C106.97 191.206 108.349 189.468 110.035 187.551C113.912 183.142 116.813 179.138 119.043 175.119C120.526 172.446 121.185 171.691 123.355 170.177C126.945 167.672 128.948 166.985 133.367 166.742C138.162 166.478 140.902 167.12 148.187 170.213C153.736 172.57 158.61 174.265 161.211 174.743C162.647 175.007 163.03 175.432 162.265 175.913C161.382 176.47 157.124 183.441 153.714 189.91C149.333 198.223 147.03 201.008 142.795 203.112C138.935 205.03 134.773 205.624 130.175 204.914H130.176ZM65.0105 204.049C57.8838 203.125 52.4579 198.382 47.2553 188.527C44.8527 183.977 42.3307 179.959 40.371 177.561C39.5188 176.518 38.8839 175.611 38.9602 175.544C39.0365 175.478 40.7099 174.958 42.6791 174.388C44.6482 173.819 49.086 172.092 52.5409 170.551C63.6709 165.586 66.3237 164.942 71.3008 166.002C75.5235 166.901 78.4075 168.65 82.4179 172.744C86.1341 176.538 88.5515 179.888 92.2257 186.336L94.5143 190.352L93.5037 192.196C92.756 193.56 92.4899 194.616 92.481 196.254L92.4681 198.468L88.0206 199.569C85.5745 200.174 81.5717 201.355 79.1256 202.193C75.5811 203.408 69.0479 204.721 67.9102 204.446C67.8037 204.421 66.4986 204.242 65.0096 204.049H65.0105ZM97.8834 202.156C95.6092 201.21 93.8856 197.895 94.3538 195.368C95.183 190.893 100.169 188.517 103.482 191.018C107.184 193.812 107.14 199.414 103.398 201.741C102.09 202.554 99.3391 202.761 97.8835 202.156H97.8834ZM104.081 189.102C102.357 187.978 99.867 187.719 97.9962 188.468C97.131 188.815 96.2978 189.019 96.1447 188.923C95.9914 188.826 94.7638 186.783 93.4165 184.383C92.0692 181.983 89.8007 178.452 88.3754 176.538C84.2648 171.017 82.7144 166.393 83.0918 160.778C83.4685 155.174 86.0382 150.337 92.2173 143.602C95.8294 139.664 99.5989 134.869 100.971 132.466L101.682 131.221L103.111 133.451C105.23 136.76 107.511 139.632 112.422 145.176C114.849 147.914 117.405 151.069 118.104 152.186C121.897 158.254 121.749 165.683 117.681 173.478C115.821 177.043 111.185 183.401 107.662 187.218L105.231 189.852L104.081 189.102V189.102ZM80.2867 167.995C77.8622 166.11 74.2776 164.427 71.498 163.869L69.1462 163.398L67.9457 160.742C67.0908 158.85 66.4765 156.442 65.8116 152.376C64.8414 146.441 64.0319 143.148 62.855 140.348L62.164 138.703L63.5872 139.303C69.5153 141.799 76.2271 147.601 80.1203 153.595C81.7012 156.029 81.7829 156.287 81.442 157.767C80.917 160.046 80.9901 164.509 81.5955 167.133C81.8833 168.38 82.0981 169.389 82.0729 169.374C82.0477 169.36 81.2438 168.739 80.2866 167.995H80.2867ZM122.295 167.527C122.473 167.148 122.634 164.395 122.652 161.41L122.685 155.983L124.014 154.568C125.656 152.818 128.843 150.572 131.951 148.974C135.071 147.37 139.25 144.463 141.34 142.442L143.029 140.809L142.762 143.717C142.2 149.851 140.01 156.16 136.641 161.359L134.624 164.471L131.916 164.733C128.952 165.02 126.686 165.743 124.056 167.242C122.019 168.403 121.874 168.426 122.295 167.527H122.295Z" fill="#FCDD04"/>
</g>
<defs>
<clipPath id="clip0_1_3024">
<rect width="600" height="400" fill="white"/>
</clipPath>
</defs>
</svg>
