<svg width="600" height="400" viewBox="0 0 600 400" fill="none" xmlns="http://www.w3.org/2000/svg" xmlns:cgf="https://coding.garden/flags"><metadata id="cgf-metadata">

<cgf:flag>
  <cgf:name>Heumen</cgf:name>
  <cgf:route>nl/ge/heumen</cgf:route>
  <cgf:aspect-ratio>1.5</cgf:aspect-ratio>
</cgf:flag>

</metadata><g clip-path="url(#clip0_1_3035)">
<path d="M0 0V400L600 398.876V1.1236L0 0Z" fill="#0F47AF"/>
<path d="M200.619 133.159V266.023L335.02 265.65V133.532L200.619 133.159V133.159Z" fill="#FCDD09"/>
<path d="M334.905 0.797852V133.662L469.306 133.289V1.17106L334.905 0.797852V0.797852Z" fill="#FCDD09"/>
<path d="M335.285 265.634V398.498L469.686 398.125V266.007L335.285 265.634Z" fill="#FCDD09"/>
<path d="M469.438 133.33V266.194L603.839 265.821V133.703L469.438 133.33V133.33Z" fill="#FCDD09"/>
<path d="M253.541 82.6492L277.758 82.3438Z" fill="#FCDD09"/>
<path d="M254.283 88.7596L277.609 88.4541Z" fill="#FCDD09"/>
<path d="M254.642 345.15L278.86 344.845Z" fill="#FCDD09"/>
<path d="M255.385 351.261L278.711 350.955Z" fill="#FCDD09"/>
<path d="M266.545 379.206C263.162 377.045 260.285 373.619 260.285 371.751C260.285 371.416 260.761 370.151 261.343 368.939C262.715 366.084 263.394 362.805 263.622 357.95L263.806 354.034L263.266 355.582C261.605 360.345 258.929 362.705 255.245 362.655C254.269 362.642 253.194 362.557 252.855 362.468C251.805 362.19 250.045 361.416 250.045 361.233C250.045 361.137 250.531 360.808 251.124 360.502C254.182 358.923 255.601 357.344 255.603 355.518C255.604 353.983 254.79 352.251 253.847 351.782C252.591 351.157 251.458 349.713 251.669 349.006C251.854 348.385 252.641 347.593 253.803 346.857L254.47 346.434L253.615 344.416C251.916 340.401 250.512 338.738 248.277 338.094C246.466 337.572 244.971 338.133 242.991 340.077C241.264 341.773 240.108 344.055 240.087 345.812C240.076 346.709 240.057 346.698 237.614 344.255C232.555 339.197 230.448 333.676 231.734 328.849C233.963 320.485 243.74 317.099 251.665 321.946C254.579 323.729 258.659 328.332 260.642 332.076C262.465 335.519 264.067 340.722 264.082 343.251C264.086 343.823 264.24 344.38 264.425 344.49C264.675 344.638 264.708 344.044 264.554 342.185C264.061 336.21 262.712 332.596 258.631 326.309C255.853 322.03 255.316 320.452 255.313 316.573C255.312 314.925 255.521 313.226 255.901 311.798C257.092 307.319 261.038 300.738 265.99 294.974C267.117 293.663 268.093 292.736 268.16 292.913C268.226 293.091 269.301 294.44 270.548 295.91C275.328 301.549 279.001 307.756 280.197 312.219C280.724 314.186 280.812 315.155 280.711 317.849C280.569 321.613 280.398 322.064 276.985 327.701C273.339 333.722 272.105 337.21 271.85 342.212C271.698 345.176 271.888 344.887 272.585 341.086C273.69 335.066 277.345 328.614 281.999 324.468C284.15 322.552 285.362 321.8 287.575 321.007C292.299 319.313 297.209 320.247 300.81 323.523C305.599 327.88 305.932 334.615 301.664 340.82C300.467 342.561 296.679 346.575 296.234 346.575C296.094 346.575 295.979 346.211 295.979 345.765C295.979 342.758 291.905 338.394 289.126 338.426C286.525 338.456 284.735 340.135 282.77 344.39L281.696 346.716L282.474 347.278C283.662 348.135 284.569 349.144 284.569 349.608C284.569 349.838 283.785 350.777 282.827 351.696C281.026 353.423 280.448 354.726 280.71 356.466C280.871 357.53 282.297 359.074 284.371 360.429L286.165 361.601L284.708 362.234C283.115 362.925 280.485 363.096 278.717 362.623C276.582 362.052 274.48 359.739 273.286 356.646L272.604 354.879L272.587 356.79C272.55 361.403 273.429 365.918 275.118 369.786C276.017 371.847 275.909 373.06 274.672 374.79C273.629 376.248 270.749 378.876 269.28 379.71L268.249 380.296L266.544 379.206H266.545Z" fill="#FCDD09"/>
<path d="M265.893 115.347C262.51 113.186 259.633 109.759 259.633 107.892C259.633 107.557 260.109 106.292 260.691 105.08C262.063 102.224 262.742 98.9461 262.97 94.0903L263.153 90.1747L262.614 91.7228C260.953 96.4857 258.277 98.8453 254.593 98.7954C253.617 98.7827 252.541 98.698 252.203 98.6085C251.153 98.3304 249.393 97.5571 249.393 97.3735C249.393 97.2773 249.878 96.9483 250.472 96.6422C253.529 95.0639 254.949 93.4844 254.951 91.6581C254.952 90.124 254.138 88.3914 253.195 87.9223C251.939 87.2975 250.806 85.8536 251.017 85.1466C251.202 84.526 251.989 83.7332 253.151 82.9972L253.818 82.575L252.963 80.5566C251.264 76.542 249.86 74.8787 247.625 74.2345C245.814 73.7125 244.319 74.2734 242.339 76.2173C240.612 77.9135 239.456 80.1952 239.435 81.9522C239.424 82.8498 239.405 82.8384 236.962 80.3953C231.903 75.3373 229.796 69.8168 231.082 64.99C233.311 56.626 243.088 53.2398 251.013 58.0868C253.927 59.8693 258.007 64.4731 259.989 68.2163C261.813 71.6596 263.415 76.8622 263.43 79.3918C263.434 79.9632 263.588 80.5207 263.773 80.6308C264.023 80.7791 264.056 80.1843 263.902 78.3252C263.408 72.3504 262.06 68.737 257.979 62.4498C255.201 58.1707 254.664 56.5927 254.661 52.7137C254.66 51.0659 254.869 49.3662 255.249 47.9389C256.439 43.4594 260.386 36.8786 265.338 31.1148C266.465 29.8038 267.441 28.8765 267.508 29.054C267.574 29.2316 268.649 30.5802 269.896 32.0509C274.676 37.6897 278.349 43.897 279.545 48.3597C280.072 50.3268 280.16 51.2957 280.058 53.9891C279.916 57.7537 279.746 58.2049 276.333 63.842C272.687 69.8629 271.453 73.3501 271.198 78.3529C271.046 81.3171 271.236 81.0272 271.933 77.227C273.038 71.2068 276.693 64.7541 281.347 60.6088C283.498 58.6927 284.71 57.9402 286.923 57.1471C291.647 55.4538 296.557 56.3873 300.158 59.6631C304.947 64.021 305.28 70.756 301.012 76.9608C299.815 78.7014 296.027 82.7157 295.582 82.7157C295.442 82.7157 295.327 82.3512 295.327 81.9057C295.327 78.8984 291.253 74.5351 288.474 74.5666C285.873 74.5961 284.083 76.2757 282.118 80.5308L281.044 82.8565L281.822 83.4183C283.01 84.2757 283.917 85.2848 283.917 85.7486C283.917 85.9782 283.133 86.9179 282.175 87.8367C280.374 89.564 279.795 90.867 280.058 92.6067C280.219 93.6707 281.645 95.2148 283.719 96.5697L285.513 97.7418L284.056 98.3742C282.463 99.0659 279.833 99.237 278.065 98.7638C275.93 98.1923 273.828 95.8792 272.634 92.7869L271.952 91.0191L271.935 92.9302C271.898 97.5432 272.777 102.058 274.466 105.927C275.365 107.988 275.257 109.201 274.02 110.931C272.977 112.389 270.097 115.017 268.628 115.851L267.597 116.436L265.891 115.347H265.893Z" fill="#FCDD09"/>
<path d="M93.796 376.726C89.8499 373.585 88.677 369.689 90.3375 365.238C91.1058 363.178 90.7937 360.466 89.621 359.011C88.0609 357.076 88.1178 356.242 89.849 355.666C91.6587 355.063 92.1548 331.814 92.1548 247.605V140.312L88.0849 139.26C85.8465 138.681 84.5514 137.676 85.2069 137.028C85.8624 136.379 84.7886 134.139 82.8206 132.05C78.304 127.254 78.3134 127.155 83.854 121.245C90.4651 114.192 89.7425 110.325 81.1461 106.754C69.2852 101.827 68.5941 89.7422 80.0008 86.7246C89.1499 84.3041 93.7951 89.1365 87.3811 94.4022C84.7477 96.5641 84.8427 96.9499 88.3217 98.223C93.8878 100.26 101.146 96.934 103.286 91.3664C104.813 87.3931 105.596 86.9577 107.865 88.8201C110.199 90.7366 110.601 90.0799 110.601 84.3489C110.601 76.8662 113.372 77.0437 116.32 84.7154L118.123 89.4049L121.01 85.3266C122.599 83.0836 124.333 78.0394 124.865 74.1174C125.738 67.6826 125.354 66.8066 120.936 65.1451C115.061 62.9354 112.965 58.4693 115.74 54.0735C118.07 50.3819 115.493 47.4305 105.62 42.485C93.2885 36.308 73.6712 41.8031 72.205 51.8451C71.6365 55.7388 62.1841 65.0738 58.8099 65.0738C56.2853 65.0738 56.7452 71.649 59.4126 73.6906C66.5625 79.1632 73.8215 77.2486 69.8391 70.9406C66.6531 65.8942 70.5843 61.0223 77.2241 61.7883C83.5434 62.5173 84.1075 66.9797 78.8896 74.9638C73.9501 82.5219 70.2808 84.1179 61.5626 82.5C54.8699 81.258 49.7283 74.4082 49.7283 66.7341C49.7283 64.5368 48.2756 61.6774 46.5002 60.3798C43.9736 58.5333 43.7562 57.5349 45.4997 55.7855C47.2187 54.0607 48.3278 54.0433 50.357 55.7092C52.4159 57.3995 53.2084 57.2967 54.008 55.2355C54.5697 53.7875 53.8365 52.1501 52.3788 51.5968C50.921 51.0434 49.7283 49.3332 49.7283 47.7963C49.7283 44.5766 54.4325 44.0225 56.3062 47.0215C57.1901 48.4362 58.0197 48.318 59.0765 46.6265C59.9273 45.2648 59.7 43.1571 58.5552 41.7926C55.4903 38.1396 59.6806 34.5158 63.4198 37.5856C65.6881 39.4478 67.149 39.1995 71.3546 36.2372C83.9816 27.3431 103.1 26.7787 117.087 34.8871C122.542 38.0491 125.369 38.7868 126.76 37.4109C127.841 36.3415 129.628 36.0183 130.731 36.6926C133.614 38.4547 133.205 43.1773 130.17 43.1773C128.285 43.1773 128.898 45.598 132.476 52.2855C135.35 57.6575 138.618 61.4 140.445 61.409C144.751 61.4304 149.338 66.4 149.338 71.0432C149.338 74.0641 148.846 74.4406 147.125 72.7376C143.197 68.8519 140.301 70.3899 138.364 77.3906C134.251 92.257 123.116 103.566 108.347 107.874C98.4742 110.755 97.5534 114.582 105.094 121.396C110.34 126.135 110.676 127.044 108.472 130.536C107.126 132.668 105.345 134.413 104.515 134.413C103.684 134.413 103.522 135.24 104.153 136.25C104.784 137.261 104.003 138.58 102.417 139.183C99.8471 140.158 99.5333 151.936 99.5333 247.436C99.5333 306.373 100.044 355.1 100.669 355.717C101.294 356.335 102.055 360.16 102.361 364.217C103.068 373.592 98.4081 380.398 93.796 376.726V376.726Z" fill="#FCDD09"/>
</g>
<defs>
<clipPath id="clip0_1_3035">
<rect width="600" height="400" fill="white"/>
</clipPath>
</defs>
</svg>
