<svg width="600" height="400" viewBox="0 0 600 400" fill="none" xmlns="http://www.w3.org/2000/svg" xmlns:cgf="https://coding.garden/flags"><metadata id="cgf-metadata">

<cgf:flag>
  <cgf:name>Lingewaard</cgf:name>
  <cgf:route>nl/ge/lingewaard</cgf:route>
  <cgf:aspect-ratio>1.5</cgf:aspect-ratio>
</cgf:flag>

</metadata><g clip-path="url(#clip0_1_3048)">
<path d="M600 0H0V400H600V0Z" fill="white"/>
<path d="M341.818 136.002C370.262 123.768 360.193 85.0188 343.222 92.4728C323.333 101.209 330.933 140.684 341.818 136.002ZM393.07 163.383C456.491 137.779 500.555 131.001 501.892 98.7915C502.709 79.1001 524.16 11.1092 506.807 7.52121C469.597 -0.172487 426.258 -2.47498 392.368 47.5397C363.824 89.664 348.561 181.351 393.07 163.383V163.383ZM170.511 215.337C185.46 252.105 323.971 228.609 350.243 216.741C393.744 197.089 367.927 143.629 327.777 146.533C301.495 148.433 254.721 114.334 215.444 126.173C194.612 132.452 154.685 176.413 170.511 215.337Z" fill="#0E469B"/>
<path d="M383.943 397.174C323.152 362.833 337.734 226.459 383.943 212.528C441.238 195.253 432.883 307.105 408.516 315.733C384.694 324.169 381.837 382.645 383.943 397.174Z" fill="#F7C934"/>
<path d="M595.971 297.48C614.103 190.485 532.046 187.781 512.423 160.574C477.206 111.745 382.745 158.605 412.728 199.189C452.186 252.596 536.123 211.698 595.971 297.48Z" fill="#F7C934"/>
<path opacity="0.75" d="M291.269 208.316C277.912 222.534 282.844 266.588 346.031 266.588C427.52 266.588 448.534 223.06 400.793 203.401C375.284 192.897 311.566 186.709 291.269 208.316Z" fill="#AF015D"/>
<path opacity="0.75" d="M402.899 168.297C405.337 111.893 471.535 65.5256 494.169 91.7705C512.028 112.478 533.243 175.549 492.063 197.082C450.172 218.988 400.601 221.483 402.899 168.297Z" fill="#AF015D"/>
</g>
<defs>
<clipPath id="clip0_1_3048">
<rect width="600" height="400" fill="white"/>
</clipPath>
</defs>
</svg>
