<svg width="600" height="400" viewBox="0 0 600 400" fill="none" xmlns="http://www.w3.org/2000/svg" xmlns:cgf="https://coding.garden/flags"><metadata id="cgf-metadata">

<cgf:flag>
  <cgf:name>Montferland</cgf:name>
  <cgf:route>nl/ge/montferland</cgf:route>
  <cgf:aspect-ratio>1.5</cgf:aspect-ratio>
</cgf:flag>

</metadata><g clip-path="url(#clip0_1_3068)">
<path d="M1.88354 0.647461V402.136H599.399L598.96 0.647461H1.88354V0.647461Z" fill="white"/>
<path d="M387.553 119.491V296.61H536.976C552.359 296.956 571.086 287.795 575.301 261.44L574.87 163.559C574.679 142.235 558.066 121.605 533.101 119.491H387.553V119.491Z" fill="#3030F5"/>
<path d="M361.752 121.541L361.322 298.66H63.7672C44.9818 296.615 31.6025 285.865 25.4425 263.49L25.8731 165.609C29.828 141.111 44.1685 126.832 67.6427 121.541H361.752V121.541Z" fill="#83CC43"/>
<path d="M319.106 213.636C232.99 227.526 146.778 241.227 63.0295 259.777C61.0278 266.046 66.2492 266.392 78.863 260.676C159.248 242.889 239.634 228.445 320.019 215.433C320.69 214.501 320.757 213.774 319.106 213.636Z" fill="#3030F5"/>
<path d="M323.94 215.433H328.773C328.116 214.675 327.865 213.649 326.071 213.636C324.632 213.794 324.062 214.478 323.94 215.433Z" fill="#3030F5"/>
<path d="M335.015 213.448L333.645 214.572C334.025 214.893 334.052 215.329 334.977 215.471C336.629 214.668 335.845 214.056 335.015 213.448H335.015Z" fill="#3030F5"/>
<path d="M59.3171 235.381L74.9269 193.644L82.2473 186.653C84.1855 186.67 87.1802 185.127 85.7999 190.042C83.562 197.176 81.1826 202.241 82.2499 205.24C87.8577 220.998 109.781 189.941 112.929 187.288C115.883 185.594 119.313 183.344 118.957 190.572L103.455 222.669L114.436 217.055C124.026 205.789 131.015 212.708 128.754 216.737L140.919 208.792C142.395 208.729 144.57 207.585 143.718 211.123L140.38 215.36L140.488 218.538L147.162 211.017C149.387 210.184 151.612 210.413 153.837 210.593L154.268 215.996C160.438 211.158 167.45 206.321 169.231 201.483H160.404C160.336 199.541 160.757 197.599 162.449 195.657L173.538 196.08L176.444 190.996C178.553 188.173 182.825 190.293 181.073 192.479L179.351 194.915L179.782 197.246L170.954 211.229C170.262 215.693 171.998 215.214 174.829 212.394L193.346 178.072C196.229 176.811 203.697 174.97 200.451 181.886L198.513 186.547L198.406 188.665L189.793 200.424L186.887 199.894L191.516 194.28L194.638 189.195C195.282 184.681 193.71 186.706 192.7 187.076L185.272 199.788L190.332 199.682L186.456 204.237L181.935 207.945C178.367 213.931 182.6 210.322 184.195 209.958L187.963 204.661C191.561 199.723 195.394 196.295 199.697 195.869C208.278 198.222 199.023 203.437 196.037 205.826L196.252 202.966V201.483L193.776 201.589C193.371 202.644 189.158 205.447 193.453 204.343L196.145 202.86L196.037 205.72C187.047 209.33 195.259 210.55 196.575 209.852C203.834 206.766 207.016 200.816 212.078 196.186C221.411 190.82 219.838 203.124 217.46 205.72C220.578 205.069 223.229 202.58 225.642 199.153V197.034L237.699 178.602C239.996 175.435 242.292 172.585 244.589 171.822C250.697 169.319 248.827 177.04 247.603 180.085L242.221 191.737L241.144 181.356L233.824 190.678V192.585L235.115 190.89L241.144 184.958L242.221 191.102L233.178 198.729C231.784 202.311 235.647 201.756 239.422 201.271L260.091 184.322C267.645 180.864 267.355 185.53 265.689 187.076C259.884 188.503 256.215 193.431 251.479 196.61H253.632L259.23 192.585C263.438 189.204 262.747 193.714 263.321 196.186L264.828 195.763L270.641 191.314L272.364 190.89L273.01 188.771L276.67 184.746H283.129C282.201 186.368 281.951 187.769 279.038 190.042L278.177 193.22L282.052 191.314L282.698 189.83C285.619 187.732 287.835 181.335 292.387 189.195L295.401 189.407L310.473 177.542L314.994 174.153C317.191 170.339 318.627 166.525 322.1 162.712C333.061 151.607 331.224 165.452 327.482 167.373C324.324 171.341 321.167 176.321 318.009 178.39L317.793 184.534C318.846 185.226 317.874 187.711 322.1 185.593C324.431 181.899 329.403 186.067 323.391 188.771C319.287 190.335 315.103 192.748 311.334 190.678L311.119 185.169C314.691 178.246 311.656 181.725 310.258 182.627L306.813 185.593L302.522 189.635C302.423 190.711 301.752 192.35 304.693 190.434L310.904 185.268V188.559L299.277 198.305C291.365 201.833 293.048 197.101 293.248 193.644C290.297 196.217 287.172 199.716 285.928 193.22H283.99L275.378 199.788V201.907L271.502 204.237C269.177 204.838 267.809 204.241 269.349 200L271.718 195.975C272.079 194.579 272.079 193.641 269.995 195.339C264.822 198.91 259.204 205.435 255.354 200.212L254.493 199.788L246.957 204.237L245.665 205.085L244.158 206.144C242.693 206.624 240.658 209.208 240.498 204.873C239.637 203.45 238.776 204.752 237.914 204.873C235.889 205.122 226.999 213.473 225.642 203.814L213.154 212.5C209.91 213.673 206.738 214.739 207.987 209.11L208.417 207.203L210.355 205.085L210.57 202.966H208.417L206.264 204.873V206.356L199.805 212.5C197.619 213.964 190.322 220.486 184.949 213.136L180.212 214.83C177.054 220.29 173.896 224.435 170.739 235.169C170.339 237.379 163.931 241.526 164.064 233.686C166.628 227.927 168.972 221.736 172.892 218.644L171.169 216.949L169.016 218.008L164.064 221.61C162.063 222.818 161.438 221.897 161.911 219.28L163.203 212.712L155.236 220.339C152.725 222.357 150.213 225.102 147.701 219.703C146.108 216.745 145.103 219.568 143.825 219.703L140.38 224.576C136.048 226.23 128.363 233.493 130.476 224.364L134.352 218.644L129.83 218.856L128.969 221.822L127.677 221.186L123.586 219.703V217.161H122.079L116.051 221.186C112.177 225.547 114.102 224.837 116.481 223.729L124.232 219.492L128.969 220.975L114.974 229.237C109.115 231.573 107.672 229.105 108.515 224.153L96.027 231.568C92.8836 231.352 92.9547 230.274 93.6586 229.025L105.716 205.085C107.867 200.249 104.796 203.124 103.778 202.966L93.0127 212.924L92.3668 212.712L88.4912 217.161H80.0943L76.2187 212.5L66.0744 237.605C65.2872 239.813 59.1022 240.412 59.3171 235.381V235.381Z" fill="white"/>
<path d="M67.6128 182.523C66.5226 182.523 65.5853 182.382 64.8011 182.102C64.0169 181.828 63.3633 181.464 62.8405 181.012C62.3241 180.565 61.9128 180.087 61.6068 179.577L63.4048 178.315C63.6088 178.582 63.867 178.889 64.1794 179.233C64.4919 179.584 64.919 179.886 65.461 180.141C66.0093 180.403 66.7266 180.533 67.6128 180.533C68.7987 180.533 69.7774 180.247 70.5489 179.673C71.3204 179.099 71.7061 178.2 71.7061 176.976V173.992H71.5148C71.3491 174.26 71.1131 174.591 70.8071 174.987C70.5074 175.375 70.0739 175.723 69.5064 176.029C68.9454 176.329 68.1866 176.478 67.2303 176.478C66.0444 176.478 64.9796 176.198 64.036 175.637C63.0987 175.076 62.356 174.26 61.8076 173.189C61.2657 172.117 60.9947 170.817 60.9947 169.287C60.9947 167.782 61.2593 166.472 61.7885 165.356C62.3177 164.234 63.0541 163.367 63.9977 162.755C64.9414 162.136 66.0316 161.827 67.2685 161.827C68.2249 161.827 68.9836 161.986 69.5447 162.305C70.1121 162.617 70.5457 162.975 70.8454 163.376C71.1514 163.771 71.3873 164.097 71.5531 164.352H71.7826V162.018H73.9631V177.129C73.9631 178.391 73.6762 179.418 73.1024 180.208C72.535 181.005 71.7699 181.589 70.8071 181.958C69.8507 182.335 68.786 182.523 67.6128 182.523ZM67.5363 174.451C68.4417 174.451 69.2068 174.244 69.8316 173.829C70.4564 173.415 70.9314 172.819 71.2566 172.041C71.5818 171.263 71.7444 170.332 71.7444 169.248C71.7444 168.19 71.585 167.256 71.2662 166.446C70.9474 165.636 70.4756 165.002 69.8507 164.543C69.2259 164.084 68.4544 163.854 67.5363 163.854C66.5799 163.854 65.783 164.097 65.1454 164.581C64.5142 165.066 64.0392 165.716 63.7204 166.532C63.408 167.348 63.2518 168.254 63.2518 169.248C63.2518 170.268 63.4112 171.171 63.73 171.955C64.0551 172.733 64.5333 173.345 65.1645 173.791C65.8021 174.231 66.5927 174.451 67.5363 174.451ZM84.2537 177.014C82.8383 177.014 81.6173 176.702 80.5908 176.077C79.5707 175.446 78.7833 174.566 78.2286 173.437C77.6802 172.302 77.4061 170.983 77.4061 169.478C77.4061 167.973 77.6802 166.647 78.2286 165.499C78.7833 164.345 79.5547 163.446 80.543 162.802C81.5376 162.152 82.698 161.827 84.0242 161.827C84.7893 161.827 85.5448 161.954 86.2908 162.209C87.0367 162.464 87.7158 162.879 88.3278 163.453C88.9399 164.02 89.4277 164.772 89.7911 165.71C90.1545 166.647 90.3362 167.801 90.3362 169.172V170.128H79.0128V168.177H88.0409C88.0409 167.348 87.8752 166.609 87.5436 165.958C87.2185 165.308 86.753 164.795 86.1473 164.419C85.548 164.042 84.8403 163.854 84.0242 163.854C83.1252 163.854 82.3473 164.078 81.6906 164.524C81.0403 164.964 80.5398 165.538 80.1891 166.245C79.8384 166.953 79.6631 167.712 79.6631 168.521V169.822C79.6631 170.932 79.8544 171.872 80.2369 172.643C80.6259 173.409 81.1646 173.992 81.8532 174.394C82.5418 174.789 83.342 174.987 84.2537 174.987C84.8467 174.987 85.3822 174.904 85.8604 174.738C86.345 174.566 86.7626 174.311 87.1133 173.973C87.4639 173.628 87.7349 173.201 87.9262 172.691L90.1067 173.303C89.8772 174.043 89.4914 174.693 88.9495 175.254C88.4075 175.809 87.7381 176.243 86.9411 176.555C86.1441 176.861 85.2483 177.014 84.2537 177.014ZM93.7696 176.708V162.018H95.9501V164.313H96.1414C96.4474 163.529 96.9416 162.92 97.6238 162.487C98.306 162.047 99.1253 161.827 100.082 161.827C101.051 161.827 101.857 162.047 102.501 162.487C103.152 162.92 103.658 163.529 104.022 164.313H104.175C104.551 163.555 105.115 162.952 105.868 162.506C106.62 162.053 107.522 161.827 108.574 161.827C109.888 161.827 110.962 162.238 111.797 163.061C112.632 163.877 113.05 165.149 113.05 166.877V176.708H110.793V166.877C110.793 165.793 110.497 165.018 109.904 164.553C109.311 164.087 108.613 163.854 107.809 163.854C106.776 163.854 105.976 164.167 105.409 164.792C104.841 165.41 104.557 166.194 104.557 167.144V176.708H102.262V166.647C102.262 165.812 101.991 165.139 101.449 164.629C100.907 164.113 100.209 163.854 99.3548 163.854C98.7682 163.854 98.2199 164.011 97.7099 164.323C97.2062 164.635 96.7981 165.069 96.4857 165.624C96.1797 166.172 96.0266 166.806 96.0266 167.527V176.708H93.7696ZM123.336 177.014C121.92 177.014 120.699 176.702 119.673 176.077C118.653 175.446 117.865 174.566 117.311 173.437C116.762 172.302 116.488 170.983 116.488 169.478C116.488 167.973 116.762 166.647 117.311 165.499C117.865 164.345 118.637 163.446 119.625 162.802C120.62 162.152 121.78 161.827 123.106 161.827C123.871 161.827 124.627 161.954 125.373 162.209C126.119 162.464 126.798 162.879 127.41 163.453C128.022 164.02 128.51 164.772 128.873 165.71C129.237 166.647 129.418 167.801 129.418 169.172V170.128H118.095V168.177H127.123C127.123 167.348 126.957 166.609 126.626 165.958C126.301 165.308 125.835 164.795 125.229 164.419C124.63 164.042 123.922 163.854 123.106 163.854C122.207 163.854 121.429 164.078 120.773 164.524C120.122 164.964 119.622 165.538 119.271 166.245C118.921 166.953 118.745 167.712 118.745 168.521V169.822C118.745 170.932 118.937 171.872 119.319 172.643C119.708 173.409 120.247 173.992 120.935 174.394C121.624 174.789 122.424 174.987 123.336 174.987C123.929 174.987 124.464 174.904 124.943 174.738C125.427 174.566 125.845 174.311 126.195 173.973C126.546 173.628 126.817 173.201 127.008 172.691L129.189 173.303C128.959 174.043 128.574 174.693 128.032 175.254C127.49 175.809 126.82 176.243 126.023 176.555C125.226 176.861 124.33 177.014 123.336 177.014ZM139.011 177.014C137.595 177.014 136.374 176.702 135.348 176.077C134.328 175.446 133.54 174.566 132.986 173.437C132.437 172.302 132.163 170.983 132.163 169.478C132.163 167.973 132.437 166.647 132.986 165.499C133.54 164.345 134.312 163.446 135.3 162.802C136.295 162.152 137.455 161.827 138.781 161.827C139.546 161.827 140.302 161.954 141.048 162.209C141.794 162.464 142.473 162.879 143.085 163.453C143.697 164.02 144.185 164.772 144.548 165.71C144.912 166.647 145.093 167.801 145.093 169.172V170.128H133.77V168.177H142.798C142.798 167.348 142.632 166.609 142.301 165.958C141.976 165.308 141.51 164.795 140.904 164.419C140.305 164.042 139.597 163.854 138.781 163.854C137.882 163.854 137.104 164.078 136.448 164.524C135.797 164.964 135.297 165.538 134.946 166.245C134.596 166.953 134.42 167.712 134.42 168.521V169.822C134.42 170.932 134.611 171.872 134.994 172.643C135.383 173.409 135.922 173.992 136.61 174.394C137.299 174.789 138.099 174.987 139.011 174.987C139.604 174.987 140.139 174.904 140.617 174.738C141.102 174.566 141.52 174.311 141.87 173.973C142.221 173.628 142.492 173.201 142.683 172.691L144.864 173.303C144.634 174.043 144.249 174.693 143.707 175.254C143.165 175.809 142.495 176.243 141.698 176.555C140.901 176.861 140.005 177.014 139.011 177.014ZM63.9404 200.871V209.708H61.6833V195.018H63.8638V197.313H64.0551C64.3994 196.567 64.9222 195.968 65.6236 195.515C66.3249 195.056 67.2303 194.827 68.3397 194.827C69.3343 194.827 70.2046 195.031 70.9506 195.439C71.6965 195.841 72.2767 196.453 72.6912 197.275C73.1056 198.091 73.3128 199.124 73.3128 200.374V209.708H71.0558V200.527C71.0558 199.373 70.7561 198.474 70.1568 197.83C69.5574 197.18 68.735 196.854 67.6893 196.854C66.9689 196.854 66.3249 197.011 65.7575 197.323C65.1964 197.635 64.7533 198.091 64.4281 198.691C64.1029 199.29 63.9404 200.017 63.9404 200.871ZM83.8257 195.018V196.931H76.213V195.018H83.8257ZM78.4318 191.499H80.6888V205.5C80.6888 206.138 80.7813 206.616 80.9662 206.935C81.1574 207.247 81.3997 207.457 81.693 207.566C81.9927 207.668 82.3083 207.719 82.6398 207.719C82.8885 207.719 83.0925 207.706 83.2519 207.68C83.4113 207.649 83.5388 207.623 83.6344 207.604L84.0935 209.631C83.9405 209.689 83.7269 209.746 83.4527 209.804C83.1786 209.867 82.8311 209.899 82.4103 209.899C81.7727 209.899 81.1479 209.762 80.5358 209.488C79.9301 209.214 79.4264 208.796 79.0247 208.235C78.6294 207.674 78.4318 206.966 78.4318 206.112V191.499ZM93.2221 210.014C91.8067 210.014 90.5857 209.702 89.5592 209.077C88.539 208.446 87.7516 207.566 87.1969 206.437C86.6486 205.302 86.3745 203.983 86.3745 202.478C86.3745 200.973 86.6486 199.647 87.1969 198.499C87.7516 197.345 88.5231 196.446 89.5114 195.802C90.506 195.152 91.6664 194.827 92.9926 194.827C93.7576 194.827 94.5132 194.954 95.2592 195.209C96.0051 195.464 96.6841 195.879 97.2962 196.453C97.9083 197.02 98.3961 197.772 98.7595 198.71C99.1229 199.647 99.3046 200.801 99.3046 202.172V203.128H87.9812V201.177H97.0093C97.0093 200.348 96.8435 199.609 96.512 198.958C96.1868 198.308 95.7214 197.795 95.1157 197.419C94.5164 197.042 93.8087 196.854 92.9926 196.854C92.0936 196.854 91.3157 197.078 90.659 197.524C90.0087 197.964 89.5082 198.538 89.1575 199.245C88.8068 199.953 88.6315 200.712 88.6315 201.521V202.822C88.6315 203.932 88.8228 204.872 89.2053 205.643C89.5942 206.409 90.133 206.992 90.8216 207.394C91.5102 207.789 92.3103 207.987 93.2221 207.987C93.815 207.987 94.3506 207.904 94.8288 207.738C95.3133 207.566 95.731 207.311 96.0816 206.973C96.4323 206.628 96.7033 206.201 96.8946 205.691L99.0751 206.303C98.8455 207.043 98.4598 207.693 97.9179 208.254C97.3759 208.809 96.7065 209.243 95.9095 209.555C95.1125 209.861 94.2167 210.014 93.2221 210.014Z" fill="#3030F5"/>
</g>
<defs>
<clipPath id="clip0_1_3068">
<rect width="600" height="400" fill="white"/>
</clipPath>
</defs>
</svg>
