<svg width="600" height="400" viewBox="0 0 600 400" fill="none" xmlns="http://www.w3.org/2000/svg" xmlns:cgf="https://coding.garden/flags"><metadata id="cgf-metadata">

<cgf:flag>
  <cgf:name>Neder-Betuwe</cgf:name>
  <cgf:route>nl/ge/neder_betuwe</cgf:route>
  <cgf:aspect-ratio>1.5</cgf:aspect-ratio>
</cgf:flag>

</metadata><g clip-path="url(#clip0_1_3077)">
<path d="M600.601 -0.21875H-0.186035V200.84H600.601V-0.21875Z" fill="#0C45AE" stroke="#E8E8E8" stroke-opacity="0.0849056" stroke-width="2.1"/>
<path d="M600.601 200.84H-0.186035V399.689H600.601V200.84Z" fill="white" stroke="#E8E8E8" stroke-opacity="0.0849056" stroke-width="2.1"/>
<path d="M116.083 200.84L126.654 181.758L118.57 181.628C120.508 178.733 124.114 175.94 128.022 173.166L120.933 164.182C115.245 164.678 113.308 159.86 118.073 154.027C106.697 151.052 98.0554 147.436 111.979 138.534C103.521 132.553 87.7608 126.464 102.652 120.828C105.335 118.195 102.176 114.124 96.1853 115.23C84.9746 124.199 88.0994 108.578 94.1955 106.247C90.8025 104.708 89.4547 103.09 89.221 101.429C83.066 100.129 80.6128 96.4139 88.2261 94.9198C95.2924 93.9331 95.8073 88.8621 92.4545 81.3798C88.4928 82.5371 83.1338 92.2783 81.2619 80.5987C77.4748 71.1343 85.9762 72.5018 94.693 73.6985C88.244 67.569 85.9495 63.387 87.3556 60.9396C90.5404 53.0788 94.2933 59.4899 98.0507 66.0171C99.93 64.3679 102.173 66.4304 104.518 69.5323L99.4187 55.3413C101.338 54.1624 110.759 43.8755 109.368 54.8206C110.957 57.1137 111.121 60.5843 110.487 64.7152C111.233 57.9868 115.823 55.3726 120.809 57.9452C126.743 62.118 119.554 67.2793 116.332 69.6625C113.981 70.9397 111.958 73.8998 116.456 79.6873L142.448 123.823C156.057 125.096 169.679 126.455 181.995 119.266L175.901 114.449L181.871 104.033L182.368 95.701L188.089 102.211L192.193 100.128L191.074 95.5708L194.68 98.6954L201.52 92.967C202.532 86.4938 205.226 79.1703 197.043 77.3439L195.053 82.0308L193.934 77.0835L190.576 77.4741L189.706 81.9006L187.343 77.9948L182.99 78.125L184.109 86.0668C180.508 83.2893 179.959 80.5119 178.886 77.7344C175.202 73.411 172.058 69.1801 175.155 66.0171C173.074 63.7341 171.037 59.4113 179.881 58.9867C185.632 59.5431 191.123 55.7382 196.545 50.7846C200.758 46.2181 205.476 45.0632 210.101 42.9731C216.641 41.4169 223.139 40.0803 229.999 36.854C234.828 34.1751 245.556 37.1901 233.481 48.1808L236.59 51.4356C242.201 51.4779 246.887 54.6385 249.524 64.7152C251.492 69.5903 254.438 74.3289 261.338 78.5156L253.628 77.9948C252.589 84.912 247.009 85.5747 239.699 83.8535C243.67 89.0678 241.939 98.4602 242.932 105.856C244.165 115.141 250.898 119.67 259.721 122.39C255.219 125.381 254.656 128.347 244.176 127.598C236.019 129.315 236.08 138.041 236.714 147.257C241.316 188.565 216.574 165.424 214.08 139.446C212.942 142.565 209.61 144.262 208.982 139.706L208.36 146.736L210.474 149.861L211.718 157.542C212.874 162.689 216.213 167.715 223.656 172.515C230.889 178.711 224.167 182.826 219.428 180.456L233.854 200.84" fill="#FCDD0A"/>
<path d="M202.544 85.9829C195.82 85.6221 189.479 84.499 181.871 88.02C168.246 92.6842 151.925 102.661 150.283 83.7236C149.625 63.787 135.986 69.5413 140.334 79.5575C139.994 100.676 158.981 111.142 182.244 93.3578C189.356 89.8181 195.526 90.9159 201.483 92.5767C202.072 90.5902 202.516 88.4743 202.544 85.9829V85.9829Z" fill="#DA121A"/>
<path d="M119.76 45.8115C120.107 50.3717 119.82 54.7109 116.682 58.0555C115.478 60.1078 118.556 63.4545 121.959 61.2776C123.931 56.1222 125.599 50.9669 119.76 45.8115Z" fill="#DA121A"/>
<path d="M90.6975 46.8158C94.901 48.0656 98.6857 49.8601 100.586 54.1042C102.004 56.002 106.073 54.1483 105.311 50.0504C102.575 45.7903 97.4493 42.8396 90.6975 46.8158V46.8158Z" fill="#DA121A"/>
<path d="M76.5378 64.2312C80.6102 62.5724 84.6625 61.6123 88.6245 63.7959C90.8486 64.4137 93.0251 60.3648 90.0549 57.579C85.4182 55.9097 79.6297 56.7952 76.5378 64.2312V64.2312Z" fill="#DA121A"/>
<path d="M69.5823 76.791C73.4486 78.9227 77.3707 80.3577 81.5438 78.6587C83.8205 78.3088 85.5443 82.5901 82.2914 85.0053C77.5038 86.1132 71.8486 84.5461 69.5823 76.791V76.791Z" fill="#DA121A"/>
<path d="M270.726 200.84C255.95 179.128 249.864 157.604 266.44 136.582C274.213 124.773 280.136 98.5925 265.912 86.87C259.567 81.2362 270.751 79.9161 278.751 88.7112C273.324 82.2522 276.127 77.0821 280.685 80.4258C286.734 85.8182 289.51 93.9513 290.886 103.257C288.75 85.9794 296.326 65.9827 313.75 61.2773C307.606 66.084 302.855 72.1403 301.614 81.3464C304.823 70.581 309.282 67.4942 309.881 75.6387C312.257 71.001 315.478 76.4531 313.75 85.9494C311.346 95.3394 307.346 103.058 300.032 107.307C293.157 112.501 288.542 117.718 286.313 122.405C296.436 118.865 306.826 110.494 315.684 129.77C319.152 135.141 314.606 139.952 310.76 136.214L315.684 150.391C296.656 114.8 282.374 135.219 274.178 144.131C287.327 132.165 306.705 129.802 313.222 158.309C315.872 164.779 321.965 166.506 327.644 168.803C318.141 170.267 308.998 169.718 301.79 158.309C274.642 132.956 266.18 159.885 272.243 174.327C274.623 165.419 284.683 158.251 293.7 172.118C284.893 173.408 279.709 177.892 279.806 187.031C285.327 177.404 295.704 173.469 307.067 186.111C299.689 185.05 293.197 185.638 290.007 192.371C298.389 190.846 305.543 193.285 311.112 200.84C304.966 198.435 298.824 196.054 294.052 200.84" fill="#FCDD0A"/>
<path d="M197.629 56.1677C201.329 48.2065 205.919 44.3019 212.886 51.2424C209.179 47.2998 202.006 47.365 201.19 54.5566L197.629 56.1677Z" fill="black"/>
<path d="M207.654 52.7845C207.654 53.6869 207.024 54.4185 206.247 54.4185C205.47 54.4185 204.84 53.6869 204.84 52.7845C204.84 51.882 205.47 51.1504 206.247 51.1504C207.024 51.1504 207.654 51.882 207.654 52.7845V52.7845Z" fill="black"/>
<path d="M109.304 54.7578L107.193 58.6599Z" fill="#DA121A"/>
<path d="M116.021 200.84L97.4289 227.326C94.5916 231.769 88.2085 235.773 87.9774 226.805C87.1679 221.442 79.2451 217.351 78.0285 227.195C69.8691 232.03 77.5188 233.733 80.7644 236.309C74.4651 234.463 66.1056 229.568 68.95 241.256C70.0339 244.842 70.5538 249.069 79.0234 244.251C74.4348 247.81 71.861 251.681 76.163 256.619C83.5474 263.248 86.2326 253.227 89.4698 245.162C89.2872 250.612 85.8855 258.395 93.6981 258.051C104.137 256.585 99.2967 251.57 97.4289 247.245C103.78 253.786 109.277 252.464 113.969 243.73C126.135 261.653 133.902 241.802 125.908 228.627C132.054 242.357 140.603 238.772 139.09 222.248C138.398 217.215 141.528 214.041 145.06 219.254C150.931 224.795 153.909 220.025 149.661 215.348C149.235 210.317 150.757 208.347 152.273 206.365C166.396 215.909 181.159 223.444 198.535 222.769C188.807 226.303 179.462 231.171 168.813 231.492C144.718 233.852 144.699 252.041 168.44 281.225C177.267 291.058 170.608 302.598 154.262 315.205C150.372 318.183 142.513 319.719 142.075 316.377C138.352 310.845 134.357 307.997 129.514 313.513C123.864 320.202 129.224 321.512 133.121 323.538C135.104 324.84 134.095 327.893 131.007 326.532C125.944 326.713 115.518 319.113 118.944 331.61C123.298 344.433 127.426 335.263 131.628 333.302C127.965 336.732 125.976 340.11 133.618 343.197C139.242 344.657 143.733 343.438 145.557 335.906C145.424 339.86 146.198 343.112 151.402 342.936C152.959 342.399 155.426 343.167 155.506 338.25C154.733 336.364 159.331 330.641 162.097 337.859C166.559 346.519 169.952 344.641 173.787 334.344C178.811 339.798 183.144 339.269 185.602 322.496C186.436 324.84 187.691 327.183 190.825 329.527C195.151 327.986 193.844 325.908 194.929 324.059C196.733 321.355 196.882 318.384 196.545 315.336C200.105 319.402 208.784 323.604 204.878 317.028C203.501 314.629 204.495 312.203 207.116 310.649C219.1 300.884 213.386 293.484 202.142 286.824L208.733 278.752C214.254 283.071 220.49 287.402 230.561 291.795C236.089 297.038 238.017 303.054 253.249 307.629C263.996 308.938 270.048 320.946 261.339 331.013C257.607 334.865 250.358 339.896 246.39 331.381C243.314 325.699 237.078 321.132 234.782 328.987C234.816 334.248 233.955 339.977 243.928 340.034C237.537 341.321 227.307 339.128 231.265 349.793C233.958 357.951 240.707 352.011 247.445 346.11C245.551 349.425 238.416 352.739 247.797 356.053C255.59 356.527 255.265 351.787 256.063 347.768C255.838 351.955 257.855 354.577 263.098 354.948C266.519 355.242 268.059 350.391 266.615 347.952C265.73 344.888 270.467 343.162 272.419 347.583C274.623 352.264 277.864 349.724 278.927 346.11C282.125 344.459 286.327 344.912 287.72 339.482C289.411 334.083 290.746 335.759 292.117 336.72C293.784 338.04 296.908 335.171 294.228 331.381C292.953 326.296 292.973 322.025 298.273 321.07C303.757 320.807 302.21 317.984 300.208 314.994L299.68 304.131C312.437 307.608 301.997 297.807 297.745 291.979C298.647 281.894 289.27 275.962 283.851 282.773C276.823 287.176 269.414 282.569 266.088 276.697C263.356 273.206 263.001 266.871 256.063 268.412C259.37 263.071 259.304 254.936 254.656 243.003C264.129 255.399 295.482 266.583 294.58 229.747C294.343 221.944 293.34 213.617 301.439 211.519C297.385 205.811 292.622 209.861 292.293 212.992C291.77 207.15 297.186 200.757 308.122 208.573C304.067 201.919 297.817 200.391 294.052 200.84H270.793C301.428 235.994 280.783 256.283 258.701 232.693L233.903 200.84" fill="#DA121A"/>
<path d="M131.016 333.591L135.237 331.105Z" fill="#DA121A"/>
<path d="M145.878 333.406L145.174 337.825Z" fill="#DA121A"/>
<path d="M67.4458 221.969C71.7479 222.771 75.6854 224.159 77.9833 228.182C79.5753 229.921 83.4466 227.649 82.2951 223.652C79.1655 219.701 73.7825 217.303 67.4458 221.969Z" fill="#DA121A"/>
<path d="M63.0181 248.199C65.8614 244.725 69.0019 241.878 73.4793 241.846C75.7188 241.293 75.8135 236.648 71.9392 235.658C67.0987 236.476 62.3937 240.116 63.0181 248.199Z" fill="#DA121A"/>
<path d="M78.7916 267.126C78.4225 262.567 78.6881 258.227 81.8085 254.865C83.0033 252.806 79.9084 249.476 76.5164 251.672C73.6765 255.856 72.852 261.919 78.7916 267.126V267.126Z" fill="#DA121A"/>
<path d="M89.77 267.622C91.9193 263.639 93.4051 259.577 91.9059 255.16C91.6389 252.767 95.7775 251.09 97.9877 254.565C98.9044 259.607 97.2414 265.479 89.77 267.622Z" fill="#DA121A"/>
<path d="M120.196 312.735C124.553 312.392 128.697 312.711 131.878 316.009C133.833 317.279 137.043 314.071 134.978 310.499C131.008 307.487 125.225 306.566 120.196 312.735Z" fill="#DA121A"/>
<path d="M110.706 339.466C113.848 336.286 117.229 333.759 121.69 334.167C123.969 333.836 124.479 329.221 120.711 327.855C115.818 328.195 110.808 331.356 110.706 339.466V339.466Z" fill="#DA121A"/>
<path d="M134.415 352.725C134.452 348.15 135.101 343.854 138.506 340.81C139.878 338.876 137.092 335.26 133.52 337.116C130.321 341.007 128.963 346.964 134.415 352.725V352.725Z" fill="#DA121A"/>
<path d="M142.272 350.756C145.418 347.582 147.95 344.133 147.718 339.452C148.115 337.079 152.539 336.708 153.709 340.699C153.212 345.806 150.017 350.936 142.272 350.756V350.756Z" fill="#DA121A"/>
<path d="M225.765 337.164C229.319 334.502 233.019 332.523 237.374 333.613C239.674 333.636 240.827 329.149 237.291 327.219C232.404 326.802 227.004 329.158 225.765 337.164Z" fill="#DA121A"/>
<path d="M227.475 358.862C229.56 354.841 232.061 351.368 236.433 350.356C238.512 349.323 237.675 344.76 233.688 344.643C229.119 346.504 225.247 351.095 227.475 358.862Z" fill="#DA121A"/>
<path d="M248.875 365.843C248.65 361.275 249.052 356.946 252.277 353.694C253.536 351.678 250.549 348.242 247.089 350.319C244.118 354.403 243.103 360.434 248.875 365.843Z" fill="#DA121A"/>
<path d="M255.568 364.369C258.397 360.882 260.588 357.187 259.912 352.553C260.081 350.151 264.448 349.321 265.992 353.17C265.983 358.303 263.292 363.741 255.568 364.369V364.369Z" fill="#DA121A"/>
<path d="M246.649 364.396C245.517 362.842 244.647 360.547 244.432 358.546C244.237 356.735 243.806 355.078 243.473 354.863C243.141 354.648 242.869 353.808 242.869 352.997C242.869 351.542 242.836 351.544 240.382 353.132C238.409 354.408 237.264 354.651 234.852 354.305C231.858 353.875 231.781 353.919 229.853 357.103C228.777 358.882 227.701 360.349 227.463 360.364C226.74 360.408 226.103 354.668 226.595 352.54C226.848 351.444 227.647 349.66 228.371 348.575C229.096 347.49 230.006 345.649 230.394 344.483C231.154 342.201 233.511 340.705 236.348 340.705H238.118L236.315 338.462C235.323 337.228 234.512 335.916 234.512 335.546C234.512 334.28 231.381 334.878 228.593 336.676C225.033 338.972 224.74 338.953 225.42 336.471C226.78 331.508 228.215 329.804 233.213 327.218C235.927 325.814 238.75 324.666 239.488 324.666C241.541 324.666 243.797 326.516 246.383 330.321C250.423 336.265 252.211 336.845 257.15 333.815C262.777 330.363 265.925 323.687 264.474 318.286C263.152 313.367 260.056 310.727 253.051 308.545C245.403 306.163 240.186 303.044 234.86 297.669C231.425 294.202 228.134 291.77 223.718 289.436C220.27 287.614 215.569 284.797 213.271 283.175L209.093 280.226L206.502 283.307C205.077 285.002 203.902 286.608 203.89 286.876C203.879 287.144 204.957 288.068 206.287 288.928C207.616 289.788 209.967 291.994 211.51 293.829C216.181 299.384 215.312 304.076 208.337 310.975L204.986 314.29L205.939 317.312C207.501 322.268 205.412 322.968 200.171 319.244L197.76 317.531L197.394 319.822C196.71 324.114 194.246 329.011 192.305 329.937C190.576 330.761 190.288 330.632 188.195 328.098L185.944 325.372L185.5 328.117C184.786 332.532 182.525 336.974 180.501 337.94C178.956 338.677 178.297 338.608 176.49 337.523C174.424 336.282 174.287 336.281 173.429 337.51C172.935 338.218 172.53 339.148 172.53 339.576C172.53 340.8 169.108 344.351 167.929 344.351C165.933 344.351 164.306 342.916 162.157 339.259C160.975 337.247 159.597 335.602 159.095 335.602C157.944 335.602 156.512 337.071 156.512 338.252C156.512 340.641 152.476 347.857 150.122 349.676C149.061 350.496 146.662 351.276 144.551 351.488L140.843 351.861L143.383 348.915C146.384 345.436 147.107 343.471 146.107 341.515C145.404 340.14 145.294 340.168 143.336 342.217C142.215 343.39 140.647 344.351 139.852 344.351C137.221 344.351 135.619 346.882 135.619 351.04V354.812L133.896 353.117C131.995 351.247 129.716 345.737 130.217 344.222C130.393 343.691 129.956 342.475 129.248 341.518C128.539 340.562 127.959 339.32 127.959 338.759C127.959 337.975 127.645 337.913 126.612 338.492C124.5 339.676 123.163 339.397 121.225 337.368C119.033 335.073 117.563 335.337 113.221 338.808L110.077 341.321L110.631 337.652C111.307 333.172 112.508 331.151 115.736 329.063C117.096 328.183 118.209 327.038 118.209 326.518C118.209 325.998 118.697 325.149 119.293 324.631C120.184 323.857 121.27 323.908 125.387 324.916C131.02 326.295 133.53 326.453 133.53 325.429C133.53 325.047 132.462 324.203 131.156 323.555C129.85 322.906 128.221 321.726 127.534 320.932C126.467 319.698 126.407 319.157 127.115 317.194C128.168 314.273 127.479 313.756 122.52 313.741C118.21 313.728 118.281 313.116 122.955 310.013C124.933 308.7 127.081 307.897 128.617 307.897C132.184 307.898 139.163 311.594 141.712 314.831C145.588 319.753 150.501 318.423 160.067 309.86C165.804 304.724 170.825 297.623 171.54 293.633C172.307 289.349 171.291 286.602 166.564 280.192C160.012 271.304 156.026 264.825 153.179 258.436C151.035 253.624 150.684 252.08 150.642 247.274C150.597 242.121 150.754 241.482 152.712 238.889C155.862 234.718 161.147 232.269 169.048 231.32C177.048 230.359 194.503 224.866 192.352 223.986C191.601 223.678 190.002 223.403 188.8 223.375C185.875 223.306 175.581 220.141 169.559 217.458C166.883 216.266 162.043 213.615 158.804 211.566C152.371 207.499 151.909 207.531 150.921 212.116C150.461 214.25 150.57 215.35 151.365 216.622C151.945 217.547 152.321 219.188 152.202 220.267C151.856 223.407 148.808 223.322 144.809 220.061C141.818 217.621 141.503 217.516 140.684 218.688C140.128 219.484 139.798 222.311 139.798 226.272C139.798 231.637 139.559 232.959 138.209 235.064C136.386 237.904 133.641 238.627 131.155 236.922L129.567 235.832L129.888 239.335C130.259 243.38 129.109 247.759 127.055 250.117C124.584 252.955 119.862 251.952 116.16 247.803L114.459 245.897L111.464 248.974C109.04 251.464 107.97 252.057 105.852 252.082C104.413 252.099 102.584 251.865 101.788 251.562C100.491 251.067 100.372 251.239 100.649 253.213C100.819 254.425 100.639 255.824 100.25 256.321C99.8602 256.819 99.2024 258.554 98.788 260.177C97.9131 263.604 95.2735 266.514 91.5705 268.133C90.1341 268.761 88.9589 269.143 88.9589 268.981C88.9589 268.819 89.5788 267.256 90.3364 265.508C92.1537 261.315 92.0926 259.918 90.0035 257.891C88.8276 256.75 88.2624 255.425 88.2624 253.808V251.415L86.8187 254.32C85.1092 257.761 83.0404 259.778 81.221 259.778C80.0628 259.778 79.9053 260.359 79.9053 264.63C79.9053 269.461 79.8983 269.476 78.49 268.141C75.4013 265.215 74.2564 262.187 73.9403 256.111C73.766 252.762 73.9472 249.6 74.3564 248.798C74.9821 247.574 74.8455 247.383 73.3409 247.383C72.3847 247.383 70.9605 246.662 70.1758 245.78L68.7492 244.177L65.6219 247.39L62.4946 250.603L62.5099 247.717C62.5274 244.387 64.54 239.292 66.4237 237.809C67.1355 237.248 68.063 236.138 68.4848 235.343C68.9853 234.398 70.1344 233.817 71.7928 233.669C73.8458 233.486 74.3339 233.147 74.3339 231.904C74.3339 231.057 74.8347 229.786 75.4468 229.078C76.0588 228.369 76.3335 227.407 76.0573 226.939C75.3622 225.762 70.1442 223.359 68.2402 223.34C66.1337 223.318 66.2654 222.432 68.5884 220.996C71.7159 219.063 75.1891 218.695 78.1367 219.984C79.586 220.618 81.604 221.137 82.6211 221.137C86.0475 221.137 88.0772 223.625 89.2445 229.258C90.0532 233.161 93.2087 232.323 97.0939 227.174C108.426 212.158 125.973 184.548 124.898 183.423C124.717 183.233 122.937 182.864 120.945 182.604L117.322 182.131L120.377 179.208C122.057 177.6 124.282 175.631 125.322 174.833L127.212 173.382L124.277 169.603C122.299 167.055 120.452 165.512 118.607 164.864C115.133 163.645 114.088 161.02 115.716 157.604C116.321 156.334 116.816 155.209 116.816 155.103C116.816 154.996 114.807 154.21 112.352 153.354C107.323 151.602 104.28 149.084 104.28 146.674C104.28 145.688 105.511 143.85 107.414 141.995L110.547 138.94L104.358 134.832C94.9105 128.562 93.8428 125.325 100.118 121.974C103.854 119.978 103.804 117.57 100.004 116.587C97.9153 116.047 97.0428 116.207 95.047 117.499C91.1124 120.044 88.2624 119.248 88.2624 115.603C88.2624 113.768 89.8905 109.976 91.5115 108.036C92.3867 106.989 92.2451 106.579 90.3069 104.55C89.0989 103.285 87.0478 101.785 85.749 101.217C83.9689 100.438 83.3874 99.741 83.3874 98.3845C83.3874 96.8955 83.9583 96.3737 86.6955 95.361C92.6868 93.1443 93.0949 92.8853 93.5431 91.0162C94.0557 88.8782 93.3774 84.3114 92.4591 83.7172C92.1157 83.495 90.333 84.3102 88.4975 85.5288C86.5249 86.8385 84.7268 87.5466 84.0998 87.2608C83.5165 86.9949 81.2123 86.5289 78.9794 86.2254C74.4392 85.6081 72.2547 83.9663 70.0876 79.5423C69.3588 78.0546 68.7625 76.665 68.7625 76.4544C68.7625 76.2438 70.3411 76.7228 72.2704 77.5189C74.1998 78.3151 76.7069 78.9665 77.8418 78.9665C79.6453 78.9665 79.9053 78.7051 79.9053 76.8922C79.9053 73.3522 81.9062 72.1938 87.4544 72.522L92.2787 72.8074L90.0073 69.872C88.758 68.2576 87.5115 66.1709 87.2372 65.235C86.7755 63.6594 86.4466 63.5572 82.7996 63.8566C80.6332 64.0345 78.108 64.4414 77.1879 64.761L75.5152 65.342L77.1615 62.2756C79.6419 57.6554 82.5441 56.0825 87.6875 56.5707C92.1537 56.9947 94.2165 58.3556 96.6664 62.4939C97.3562 63.6593 99.0061 65.0034 100.333 65.4809L102.745 66.349L101.016 61.5393C100.065 58.894 99.1599 56.5957 99.0041 56.4321C98.8483 56.2685 99.0794 55.6825 99.5175 55.1299C100.69 53.6503 97.1884 50.1274 92.8671 48.4399L89.3751 47.0762L91.6196 45.8611C95.8486 43.5716 103.575 44.8423 104.739 48.0188C104.969 48.6462 106.062 49.0743 107.433 49.0743C109.918 49.0743 109.891 49.0192 110.899 56.0506L111.324 59.0171L114.757 57.2386C118.444 55.3286 119.589 53.0542 119.598 47.6302L119.605 45.0924L121.868 47.4699C124.124 49.8392 124.131 49.8715 124.015 56.7372C123.882 64.5662 123.121 66.2915 118.239 69.8335C116.678 70.9659 115.221 72.6418 115.001 73.5577C114.693 74.8433 117.831 80.7028 128.769 99.2654C145.139 127.049 141.809 124.148 157.352 124.161C167.511 124.17 172.255 123.447 177.595 121.077L180.916 119.604L178.118 117.449C176.578 116.264 175.319 115.17 175.319 115.019C175.319 114.867 176.729 112.311 178.453 109.339C181.184 104.63 181.587 103.408 181.587 99.8351C181.587 97.5802 181.441 95.7353 181.263 95.7353C181.084 95.7353 179.473 96.7082 177.682 97.8974C170.357 102.761 159.279 104.741 152.724 102.359C148.96 100.992 143.731 95.6774 141.997 91.4579C141.207 89.5355 140.193 84.9608 139.743 81.292C139.022 75.4006 139.06 74.4082 140.069 72.7956C142.412 69.0521 146.897 69.9239 149.191 74.5687C149.776 75.7514 150.591 79.2617 151.004 82.3694C152.323 92.293 154.515 94.72 161.585 94.0829C165.256 93.7522 174.006 91.0308 181.864 87.7763C183.636 87.0424 183.746 86.8319 182.769 86.052C182.157 85.5634 180.622 83.3095 179.358 81.0434C178.094 78.7772 176.168 75.4133 175.077 73.5681C173.371 70.6803 173.195 69.9111 173.817 68.0442C174.263 66.7058 174.289 65.7131 173.885 65.4516C173.524 65.2186 173.23 64.0746 173.23 62.9094C173.23 60.2704 174.596 59.4492 179.947 58.8729C186.51 58.166 190.145 56.2489 197.413 49.6606C201.668 45.8035 204.386 44.5757 215.573 41.4576C220.595 40.0579 226.649 38.0557 229.026 37.0083C238.092 33.0138 242.937 38.1937 237.167 45.7117C234.466 49.2308 235.009 50.4738 239.795 51.7333C243.765 52.7781 247.837 56.9364 249.196 61.3342C251.333 68.2463 255.441 73.8691 261.676 78.4183C263.406 79.6808 263.39 79.6878 259.027 79.5635C254.808 79.4433 254.586 79.5268 253.319 81.7077C251.547 84.7584 249.946 85.5282 245.373 85.5282H241.514L242.225 87.4847C242.615 88.5607 243.187 93.7281 243.494 98.9676C243.932 106.427 244.375 109.151 245.532 111.522C247.465 115.481 251.308 118.739 256.3 120.651C258.514 121.5 260.457 122.415 260.617 122.686C260.776 122.957 259.156 124.386 257.016 125.861C253.629 128.196 252.587 128.544 248.974 128.544C243.911 128.544 240.438 130.138 238.837 133.199C237.829 135.126 237.649 137.681 237.649 150.052C237.649 162.829 237.488 164.972 236.348 167.375C233.965 172.395 229.674 171.957 224.408 166.158C220.394 161.738 216.857 154.639 215.175 147.626C213.764 141.745 213.897 141.979 212.604 143.103C212.025 143.606 211.077 143.827 210.497 143.594C209.107 143.035 209.054 146.593 210.424 148.639C210.962 149.445 211.624 151.732 211.894 153.723C212.914 161.251 215.436 165.301 222.846 171.31C228.519 175.91 229.108 179.941 224.396 181.908L221.99 182.913L228.427 192.038C237.056 204.272 257.961 230.99 261.808 234.703C266.793 239.513 270.895 241.674 275.828 242.089C279.784 242.421 280.374 242.279 282.382 240.51C288.201 235.384 285.637 222.277 276.311 209.471C269.056 199.51 266.571 195.796 264.102 191.227C253.491 171.594 253.534 154.975 264.234 139.239C271.465 128.606 275.062 114.957 273.546 103.911C272.672 97.5463 270.461 92.7422 266.611 88.8433C260.636 82.7924 264.971 80.3291 274.386 84.4249C275.392 84.8626 275.605 84.5644 275.605 82.7155C275.605 79.4822 277.738 78.4374 280.689 80.2257C283.225 81.7627 287.604 88.1236 289.107 92.4544C289.946 94.8708 290.129 95.0558 290.175 93.5334C290.28 89.9938 293.126 80.7486 295.457 76.3716C296.751 73.942 299.353 70.4427 301.24 68.5954C305.938 63.9941 313.908 59.872 313.908 62.0428C313.908 62.3586 312.341 64.2328 310.426 66.2076C306.779 69.9686 306.27 70.9466 307.964 70.9466C308.525 70.9466 309.319 71.6028 309.729 72.4048C310.139 73.2067 311.08 73.8629 311.819 73.8629C316.438 73.8629 315.996 85.9327 310.999 96.2091C308.339 101.681 306.379 103.931 299.65 109.232C294.719 113.117 288.837 119.298 288.837 120.594C288.837 120.92 290.881 120.382 293.379 119.398C298.57 117.352 304.575 117.042 307.571 118.664C308.645 119.245 310.549 120.945 311.804 122.441C314.643 125.826 318.125 133.391 317.583 134.999C316.903 137.016 315.154 138.751 313.8 138.751C312.209 138.751 312.174 138.358 314.288 144.237C316.902 151.508 316.169 152.339 312.378 146.4C304.286 133.724 296.711 129.215 289.101 132.543C286.516 133.674 280.911 137.988 281.384 138.483C281.534 138.64 283.109 138.096 284.883 137.275C289.207 135.272 295.995 135.211 300.154 137.137C305.88 139.789 311.058 147.088 313.207 155.538C314.485 160.566 316.837 163.206 322.638 166.127C325.497 167.567 327.837 169.05 327.837 169.423C327.837 170.134 323.398 170.474 318.087 170.169C312.969 169.875 308.132 167.085 302.928 161.426C294.962 152.764 286.597 148.141 280.912 149.258C277.384 149.951 273.856 153.417 272.529 157.494C271.421 160.897 271.083 167.592 271.863 170.642C272.257 172.18 272.4 172.106 274.278 169.392C279.138 162.368 286.826 162.723 292.989 170.257L295.204 172.964L293.239 173.421C286.929 174.888 283.987 176.732 282.207 180.336C280.607 183.575 280.986 184.417 283.091 182.306C289.266 176.114 298.242 177.007 306.247 184.608L309.381 187.583L306.452 187.139C301.306 186.357 295.962 187.464 293.485 189.824L291.274 191.931L295.175 191.952C301.661 191.988 307.529 195.013 311.389 200.311L313.29 202.92L309.595 201.499C304.584 199.574 301.233 199.02 298.467 199.66L296.149 200.197L299.346 201.177C303.099 202.327 309.5 207.816 308.415 208.952C307.942 209.447 307.146 209.3 305.98 208.5C303.131 206.546 299.071 205.89 296.588 206.983C294.199 208.035 293.711 208.908 295.627 208.704C298.051 208.446 299.129 208.77 301.014 210.322L302.932 211.902L300.419 213.252C296.146 215.547 295.752 216.812 295.148 230.173C294.654 241.128 294.437 242.568 292.73 246.22C290.386 251.237 287.736 253.603 282.776 255.113C276.213 257.11 268.264 255.106 260.674 249.54C257.142 246.95 256.755 246.809 257.205 248.28C258.899 253.809 259.43 262.806 258.249 265.973C257.801 267.175 258.084 267.558 259.865 268.161C261.387 268.676 262.884 270.261 264.936 273.53C268.715 279.549 270.574 281.613 273.319 282.838C277.105 284.527 281.13 284.105 284.658 281.65C286.382 280.451 288.608 279.468 289.604 279.466C293.603 279.459 298.587 285.237 298.587 289.88C298.587 291.278 299.789 293.496 302.35 296.817C307.539 303.55 307.809 305.71 303.462 305.71H300.676V309.378C300.676 311.396 301.146 314.225 301.721 315.665C303.448 319.993 303.146 320.899 299.674 321.814C295.284 322.971 294.09 324.585 294.744 328.477C295.032 330.19 295.309 332.904 295.36 334.508L295.453 337.425L292.549 337.292C289.794 337.167 289.592 337.302 288.583 339.942C287.377 343.097 284.814 345.497 281.947 346.156C280.875 346.403 279.314 347.574 278.477 348.758C276.432 351.654 274.488 351.49 271.765 348.192C269.813 345.828 269.371 345.6 268.39 346.453C267.682 347.068 267.407 348.042 267.652 349.065C268.055 350.746 266.255 358.257 264.886 360.605C263.76 362.537 260.342 364.563 257.168 365.18L254.4 365.717L255.624 363.965C256.297 363.002 257.496 360.777 258.289 359.022L259.73 355.831L258.007 354.159L256.285 352.486L254.781 354.616C253.954 355.787 252.809 356.745 252.236 356.745C250.86 356.745 249.837 359.718 249.837 363.719C249.837 365.497 249.539 366.952 249.176 366.952C248.812 366.952 247.677 365.802 246.652 364.396H246.649ZM250.661 355.314C252.055 352.744 252.131 352.251 251.226 351.64C249.357 350.378 247.801 350.869 246.718 353.063C245.328 355.876 245.371 359.171 246.833 362.067L248.012 364.4L248.532 361.342C248.817 359.66 249.776 356.947 250.661 355.314ZM260.999 362.201C264.79 360.149 266.734 352.993 263.768 352.008C261.722 351.328 261.21 351.964 260.697 355.817C260.442 357.731 259.774 359.934 259.212 360.712C257.279 363.391 257.878 363.89 260.999 362.201ZM234.723 350.726C236.131 350.212 236.618 349.599 236.465 348.532C235.621 342.635 227.548 348.875 227.548 355.424C227.548 356.92 227.781 356.816 230.159 354.253C231.595 352.705 233.649 351.118 234.723 350.726V350.726ZM247.052 350.366C248.748 348.297 253.316 350.094 253.316 352.83C253.316 354.807 254.647 353.092 255.107 350.522C255.681 347.322 256.287 347.329 257.399 350.548C258.42 353.503 258.902 353.68 260.163 351.567C261.078 350.032 262.377 349.968 265.439 351.306C266.637 351.829 266.723 351.646 266.305 349.458C265.968 347.696 266.159 346.662 266.999 345.69C268.681 343.744 269.921 344.026 272.557 346.952C275.083 349.756 277.246 349.883 278.036 347.275C278.266 346.518 279.613 345.51 281.032 345.035C284.237 343.961 286.367 341.977 287.519 338.993C288.693 335.953 289.426 335.488 292.241 336.003L294.603 336.436L294.119 333.649C292.849 326.348 292.837 325.419 293.989 323.579C294.716 322.416 296.298 321.409 298.257 320.86C299.969 320.381 301.369 319.769 301.369 319.5C301.369 319.231 300.899 317.833 300.325 316.394C299.737 314.921 299.28 311.565 299.28 308.719V303.661L302.066 304.052C305.898 304.59 305.716 303.445 301.021 297.487C298.673 294.507 297.191 291.931 297.191 290.83C297.191 286.502 294.232 282.047 290.841 281.267C289.344 280.923 287.905 281.37 285.098 283.052C280.632 285.726 276.203 286.022 272.266 283.908C269.137 282.229 267.485 280.394 264.178 274.927C261.476 270.459 260.001 269.256 257.227 269.256C255.499 269.256 255.489 269.222 256.485 266.727C258.023 262.875 257.747 255.564 255.826 249.23C254.747 245.673 254.41 243.566 254.873 243.267C255.266 243.013 255.864 243.32 256.201 243.949C257.133 245.693 265.797 251.459 269.333 252.689C277.968 255.692 283.816 254.862 288.488 249.971C292.264 246.018 293.552 240.835 293.942 228.019C294.255 217.727 295.058 214.864 298.244 212.679C300.333 211.247 299.895 210.2 297.208 210.2C295.841 210.2 294.779 210.828 293.816 212.205C292.647 213.879 292.342 214.013 291.974 213.02C291.731 212.365 292.011 210.63 292.595 209.166C293.969 205.724 297.167 204.187 301.047 205.103C302.543 205.456 303.864 205.644 303.983 205.52C304.504 204.975 300.634 202.97 298.163 202.505C293.548 201.636 293.139 201.07 295.838 199.293C297.81 197.994 298.925 197.783 302.123 198.101C304.262 198.313 306.612 198.724 307.346 199.012C310.096 200.093 306.92 197.197 303.264 195.29C300.425 193.808 298.672 193.432 294.616 193.432C291.819 193.432 289.53 193.148 289.53 192.801C289.53 191.588 292.456 188.289 294.526 187.169C295.674 186.547 298.539 185.816 300.892 185.543L305.171 185.047L301.371 182.495C298.01 180.239 297.039 179.944 292.974 179.944C288.992 179.944 288.028 180.222 285.772 182.024C284.339 183.168 282.248 185.432 281.125 187.054C278.811 190.398 278.535 189.621 279.815 183.371C280.801 178.556 283.43 175.526 288.458 173.407L292.61 171.657L290.005 169.086C285.614 164.75 280.635 164.686 276.598 168.912C273.8 171.841 272.545 176.412 273.02 181.949C273.399 186.357 272.432 187.842 271.834 183.771C271.098 178.756 270.496 170.21 270.462 164.269C270.433 159.31 270.721 157.488 271.901 155.155C275.782 147.484 282.412 145.686 290.939 149.992C295.932 152.514 300.734 156.406 304.413 160.915C306.188 163.09 308.982 165.549 310.622 166.381C314.177 168.182 320.586 169.564 322.475 168.937C323.606 168.561 323.389 168.278 321.128 167.186C316.032 164.724 313.985 162.185 311.799 155.618C307.405 142.419 301.845 137.128 292.445 137.204C287.704 137.242 282.265 139.337 277.941 142.79C275.633 144.632 274.208 145.072 274.208 143.943C274.208 143.59 276.444 141.094 279.176 138.396C290.394 127.318 298.498 127.325 308.211 138.423C312.63 143.472 312.934 143.147 309.803 136.721C308.163 133.355 303.482 128.761 301.038 128.119C299.115 127.613 298.63 126.357 300.359 126.357C302.5 126.357 305.432 128.564 309.156 132.979C312.205 136.594 313.234 137.383 314.397 136.996C316.725 136.223 316.755 133.926 314.498 129.418C312.111 124.652 309.569 121.608 306.637 120.005C303.747 118.426 297.387 119.172 290.923 121.847C288.05 123.036 285.579 123.891 285.431 123.747C285.283 123.603 285.724 122.573 286.409 121.458C289.371 116.641 293.574 112.156 299.277 107.728C302.637 105.118 306.191 101.763 307.174 100.271C311.731 93.3543 314.612 83.12 313.391 78.1862C312.476 74.4895 310.996 75.0771 309.676 79.661C309.046 81.8475 308.123 83.7788 307.625 83.9527C306.986 84.1757 306.872 83.8634 307.238 82.8936C308.578 79.3419 309.302 73.8566 308.537 73.0554C308.109 72.6071 307.379 72.4858 306.915 72.7861C305.875 73.459 302.408 81.3919 301.746 84.6168C301.478 85.92 300.97 86.9863 300.617 86.9863C299.736 86.9863 299.805 86.0658 301.072 80.9465C302.422 75.4922 304.856 70.3642 307.708 66.9636C310.319 63.8503 309.524 63.6403 305.805 66.4609C296.315 73.6575 291.619 84.6742 291.619 99.7402C291.619 105.412 291.312 108.222 290.495 110.024C289.877 111.388 289.093 112.504 288.754 112.504C287.902 112.504 288.016 111.722 289.182 109.588C291.165 105.955 289.873 97.7125 286.018 89.4182C283.914 84.8894 279.639 80.1133 278.147 80.6252C276.407 81.2227 276.859 84.9463 279.061 88.1566C283.262 94.2797 284.274 97.6024 284.259 105.213C284.244 112.27 282.266 121.96 281.091 120.73C280.775 120.399 281.021 118.495 281.637 116.499C282.328 114.26 282.788 110.073 282.836 105.578C282.906 98.978 282.729 97.8931 280.964 94.1303C278.786 89.4878 274.284 85.4793 269.804 84.193C267.289 83.4711 265.155 83.6887 265.155 84.6672C265.155 84.9099 266.388 86.4332 267.895 88.0523C278.62 99.5762 277.604 122.053 265.56 139.722C252.071 159.512 255.305 179.195 276.722 207.649C290.367 225.777 290.329 243.726 276.646 243.735C272.436 243.738 266.233 240.836 261.777 236.779C258.074 233.408 236.911 206.435 226.672 192.036C220.38 183.189 218.594 181.166 215.529 179.415C213.521 178.268 210.741 176.377 209.352 175.211L206.825 173.092L206.378 176.62C205.866 180.657 203.736 183.954 201.638 183.954C200.849 183.954 199.148 182.782 197.858 181.35C196.568 179.918 195.518 179.016 195.526 179.345C195.533 179.674 195.97 182.502 196.497 185.629C197.755 193.105 196.992 196.348 193.974 196.348C192.064 196.348 184.161 188.201 180.549 182.507C178.891 179.894 176.9 175.788 176.124 173.382C174.999 169.892 174.612 169.302 174.208 170.466C171.231 179.053 169.295 183.261 165.698 188.965C160.589 197.066 154.741 197.797 151.963 190.683C151.238 188.826 151.205 188.854 149.947 192.389C148.599 196.179 147.722 197.596 147.116 196.961C146.915 196.751 147.68 194.22 148.815 191.337C150.213 187.789 150.708 185.608 150.347 184.587C149.878 183.261 149.678 183.44 148.692 186.068C148.076 187.712 147.237 189.057 146.828 189.057C146.151 189.057 147.838 183.654 149.578 180.25C149.945 179.533 150.244 178.246 150.244 177.391C150.244 176.119 149.959 175.925 148.677 176.326C144.617 177.596 143.088 179.209 141.273 184.136C140.276 186.843 139.088 189.057 138.633 189.057C138.091 189.057 138.389 187.555 139.499 184.697C140.429 182.299 141.191 180.197 141.191 180.026C141.191 179.856 140.102 180.066 138.771 180.493C136.628 181.182 136.137 181.844 134.469 186.295C133.433 189.058 132.328 191.485 132.013 191.689C131.025 192.329 131.387 190.039 132.834 186.505C134.552 182.308 134.563 182.495 132.596 182.495C131.223 182.495 130.662 183.303 129.052 187.599C128 190.406 126.854 192.703 126.504 192.703C125.614 192.703 125.66 192.485 127.609 187.462C128.566 184.996 129.201 182.824 129.019 182.633C128.291 181.871 126.52 184.397 121.068 193.978C117.931 199.492 111.006 210.138 105.68 217.635C96.0401 231.204 93.1902 234.11 90.4226 233.19C89.0656 232.739 87.566 229.89 87.566 227.762C87.566 226.128 84.9954 222.595 83.8057 222.595C83.238 222.595 83.036 223.335 83.2288 224.71C83.6059 227.4 81.1846 230.215 79.0066 229.619C77.4473 229.192 75.7267 230.245 75.7267 231.625C75.7267 232.083 76.9803 233.269 78.5125 234.26C81.0716 235.916 82.0615 237.188 80.7758 237.168C80.4886 237.164 78.7151 236.672 76.8348 236.075C74.9545 235.478 72.6041 235.023 71.6116 235.064C70.0473 235.128 70.1204 235.216 72.1606 235.72C74.746 236.359 75.6999 237.459 75.7161 239.821C75.7279 241.575 74.6404 242.725 72.5928 243.123C70.6613 243.498 70.8414 245.508 72.833 245.803C73.7313 245.936 75.3866 245.646 76.5116 245.158C79.466 243.877 79.7084 244.773 77.2123 247.749C76.0122 249.18 75.0303 251.058 75.0303 251.923C75.0303 253.408 75.0812 253.422 75.9552 252.171C77.019 250.647 80.1091 250.422 81.6442 251.756C82.8272 252.784 83.051 255.813 81.9946 256.497C80.6383 257.374 81.2675 258.388 82.678 257.598C83.4369 257.173 85.2567 254.2 86.7221 250.991C88.1874 247.783 89.5827 245.363 89.8226 245.614C90.0626 245.866 90.0837 248.26 89.8693 250.936C89.5533 254.883 89.6935 255.987 90.6121 256.785C91.6047 257.648 91.7445 257.551 91.7445 256.003C91.7445 255.032 92.1206 253.843 92.5802 253.362C93.9654 251.912 97.1267 252.322 98.3211 254.107L99.4052 255.728V254.071C99.4052 253.16 98.912 251.416 98.3092 250.196C96.885 247.313 97.4319 246.851 100.003 248.768C104.632 252.219 108.883 251.182 112.305 245.769L114.04 243.025L117.438 246.715C120.355 249.883 121.156 250.371 123.109 250.17C126.786 249.79 128.32 246.924 128.244 240.581C128.206 237.456 127.712 234.209 127.016 232.508C125.792 229.518 126.164 227.797 127.518 230.18C129.406 233.504 132.377 236.447 133.843 236.447C136.959 236.447 137.97 234.078 138.412 225.745C138.751 219.345 139.041 217.882 140.138 217.042C141.946 215.659 142.064 215.694 145.369 218.585C146.974 219.988 148.884 221.137 149.614 221.137C151.224 221.137 151.361 219.173 149.904 216.996C148.592 215.034 149.475 209.22 151.388 207.228C152.647 205.918 152.772 205.94 155.982 208.037L159.282 210.192L162.378 207.086C165.02 204.437 165.546 203.419 165.958 200.164C166.49 195.967 167.664 194.957 167.64 198.717C167.618 202.091 165.359 206.861 162.872 208.786C161.703 209.692 160.913 210.716 161.118 211.064C161.323 211.411 163.583 212.794 166.14 214.137C177.019 219.851 187.841 222.589 199.608 222.603C206.1 222.61 209.65 223.342 215.164 225.81C218.432 227.273 218.494 227.267 218.494 225.511C218.494 224.709 218.808 224.053 219.191 224.053C220.258 224.053 219.996 226.283 218.532 229.658C216.986 233.225 213.241 236.294 207.542 238.667C201.726 241.089 199.951 242.612 198.587 246.351C197.546 249.203 197.486 250.307 198.165 254.124C199.07 259.223 202.635 267.5 206.854 274.3C210.073 279.489 215.814 283.944 225.459 288.74C229.184 290.592 232.211 292.88 236.013 296.715C241.558 302.308 246.928 305.494 253.754 307.242C258.446 308.443 260.419 309.592 262.933 312.589C266.119 316.388 266.889 320.147 265.503 325.138C263.571 332.094 256.038 338.116 250.943 336.778C249.866 336.495 247.735 334.432 245.649 331.654C242.082 326.902 241.077 326.124 238.502 326.124H237.035L238.559 327.61C241.225 330.21 240.381 334.307 237.043 334.977C235.782 335.229 235.784 335.29 237.086 336.97C237.887 338.005 239.511 338.887 241.114 339.16C245.641 339.93 244.775 341.175 239.345 341.704C234.292 342.195 231.726 343.1 231.726 344.39C231.726 344.794 232.499 344.905 233.495 344.643C235.809 344.035 237.994 346.071 237.994 348.836C237.994 350.475 237.521 351.125 235.731 351.945L233.467 352.981L235.594 353.04C237.524 353.094 240.22 351.6 245.5 347.55C247.843 345.753 248.186 346.872 246.09 349.479C245.085 350.73 244.272 352.302 244.284 352.973C244.303 354.008 244.458 353.972 245.305 352.735C245.854 351.933 246.64 350.867 247.051 350.366H247.052ZM273.512 335.551C273.512 335.161 274.296 334.468 275.253 334.011C276.376 333.475 276.994 332.585 276.994 331.503C276.994 329.88 279.389 326.853 280.673 326.853C281.03 326.853 281.093 325.25 280.817 323.153C280.394 319.929 280.531 319.231 281.882 317.725C283.039 316.436 283.315 315.507 282.97 314.067C282.588 312.476 283.005 311.571 285.341 308.918C286.9 307.147 288.493 304.824 288.881 303.755C290.666 298.841 287.102 294.781 280.999 294.776C279.179 294.775 277.691 294.445 277.691 294.044C277.691 292.886 283.678 293.199 286.269 294.493C288.833 295.772 290.923 298.827 290.923 301.294C290.923 303.526 288.613 307.915 286.148 310.366C284.434 312.071 284.108 312.874 284.436 314.59C284.741 316.183 284.443 317.152 283.237 318.496C281.773 320.128 281.697 320.576 282.365 323.632C283.085 326.927 283.063 327.001 280.916 328.362C279.437 329.299 278.623 330.474 278.387 332.01C278.125 333.714 277.477 334.523 275.775 335.268C274.493 335.83 273.512 335.953 273.512 335.551V335.551ZM220.863 284.135C214.597 279.834 211.784 276.957 209.727 272.743C207.845 268.889 207.76 268.527 208.735 268.527C209.113 268.527 209.912 269.757 210.511 271.261C211.999 274.996 215.06 278.192 221.51 282.746C224.509 284.863 226.671 286.784 226.316 287.014C225.96 287.244 223.506 285.949 220.863 284.135V284.135ZM223.362 281.832C217.461 277.604 213.471 272.891 212.555 269.067C211.884 266.268 213.165 266.564 214.16 269.438C215.492 273.285 218.939 277.039 224.817 281.047C229.785 284.435 231.368 286.025 229.773 286.025C229.465 286.025 226.58 284.138 223.362 281.832ZM226.842 280.459C221.665 276.87 219.312 274.501 217.734 271.29C216.206 268.18 216.139 267.798 217.119 267.798C217.511 267.798 218.117 268.581 218.465 269.539C219.491 272.365 223.1 276.204 227.553 279.208C231.344 281.765 232.598 283.108 231.195 283.108C230.902 283.108 228.944 281.916 226.842 280.459V280.459ZM251.971 261.787C253.03 257.923 252.694 254.57 250.782 249.935C249.79 247.529 248.638 243.996 248.221 242.083C247.534 238.927 247.6 238.462 248.933 237.066C250.604 235.317 253.56 235.62 254.291 237.616C254.624 238.524 254.441 238.675 253.498 238.268C250.372 236.922 249.9 237.009 249.418 239.02C249.073 240.459 249.586 242.669 251.255 246.934C253.769 253.359 254.56 258.988 253.394 262.147C252.334 265.019 251.167 264.724 251.971 261.787ZM123.084 248.156C123.084 247.778 123.397 247.267 123.78 247.019C124.909 246.288 124.582 244.074 123.042 242.025C121.376 239.808 120.388 234.989 121.6 234.989C122.033 234.989 122.387 235.645 122.387 236.447C122.387 237.249 123.24 239.503 124.281 241.456C125.929 244.546 126.067 245.256 125.341 246.924C124.536 248.773 123.084 249.565 123.084 248.156ZM218.494 242.602C218.494 242.378 219.401 240.983 220.51 239.503C221.619 238.023 222.935 235.581 223.436 234.078C224.283 231.532 225.459 230.38 225.459 232.096C225.459 234.621 220.614 243.009 219.155 243.009C218.792 243.009 218.494 242.826 218.494 242.602V242.602ZM223.87 242.538C223.302 241.576 224.428 239.854 225.402 240.194C225.975 240.395 225.93 240.866 225.241 241.852C224.711 242.61 224.094 242.918 223.87 242.538V242.538ZM213.619 240.965C213.619 240.642 214.744 239.248 216.118 237.866C219.034 234.933 220.964 231.297 221.657 227.428C221.978 225.639 222.389 224.922 222.83 225.384C224.178 226.795 221.478 233.872 218.085 237.822C215.09 241.309 213.619 242.345 213.619 240.965V240.965ZM110.923 232.37C110.493 229.365 110.758 227.662 111.528 228.488C112.233 229.245 112.745 235.718 112.099 235.718C111.716 235.718 111.187 234.212 110.923 232.37ZM134.006 231.753C134.298 229.873 134.026 228.755 132.918 227.28C131.428 225.297 130.779 219.894 132.137 220.772C132.52 221.02 132.836 221.941 132.838 222.82C132.838 223.699 133.466 225.402 134.227 226.605C135.632 228.827 135.96 231.024 135.197 233.107C134.423 235.218 133.612 234.296 134.006 231.753ZM114.727 227.698C114.727 225.693 115.04 224.053 115.423 224.053C115.806 224.053 116.12 225.693 116.12 227.698C116.12 229.703 115.806 231.344 115.423 231.344C115.04 231.344 114.727 229.703 114.727 227.698ZM120.29 226.568C120.283 225.786 120.089 223.916 119.851 222.412C119.588 220.749 119.697 219.678 120.128 219.678C121.164 219.678 121.968 226.241 121.05 227.203C120.512 227.766 120.296 227.586 120.29 226.568V226.568ZM124.941 223.567C124.198 222.789 124.406 216.033 125.173 216.033C125.556 216.033 125.87 217.838 125.87 220.043C125.87 224.098 125.778 224.444 124.941 223.567ZM129.774 217.796C129.096 215.946 129.287 211.659 130.048 211.659C130.431 211.659 130.749 212.561 130.754 213.664C130.761 214.766 130.952 216.407 131.183 217.309C131.657 219.159 130.43 219.583 129.774 217.796ZM189.969 217.673C189.984 217.373 190.925 215.991 192.058 214.602C194.435 211.691 194.991 213.218 192.676 216.299C191.298 218.133 189.909 218.838 189.969 217.673ZM185.123 216.033C185.124 214.562 189.702 209.205 190.215 210.075C190.438 210.453 189.384 212.194 187.872 213.944C186.316 215.746 185.123 216.652 185.123 216.033ZM180.191 214.602C180.191 214.091 181.131 212.553 182.28 211.183C183.429 209.813 184.369 208.309 184.369 207.842C184.369 207.214 184.573 207.206 185.151 207.811C185.73 208.417 185.568 209.167 184.53 210.691C182.522 213.64 180.191 215.741 180.191 214.602ZM175.316 213.395C175.316 213.147 176.178 211.909 177.231 210.644C178.284 209.379 179.66 207.531 180.289 206.538C180.917 205.545 181.657 204.96 181.932 205.237C182.44 205.75 180.415 209.219 177.866 212.205C176.522 213.78 175.316 214.343 175.316 213.395ZM134.032 209.654C133.626 205.904 133.929 204.886 134.95 206.576C135.771 207.935 135.821 213.117 135.014 213.117C134.68 213.117 134.239 211.558 134.032 209.654ZM169.048 210.278C169.048 209.92 169.509 209.442 170.073 209.216C170.636 208.989 172.232 207.15 173.62 205.128C176.659 200.7 178.132 200.262 175.883 204.455C173.652 208.614 169.048 212.536 169.048 210.278V210.278ZM138.828 207.589C138.15 205.739 138.341 201.452 139.102 201.452C139.485 201.452 139.798 202.573 139.798 203.944C139.798 205.314 139.988 206.955 140.221 207.589C140.453 208.223 140.33 208.742 139.947 208.742C139.564 208.742 139.06 208.223 138.828 207.589ZM278.387 174.532C278.387 173.09 281.951 169.526 283.752 169.165C286.467 168.622 290.226 169.398 290.226 170.502C290.226 171.218 289.665 171.279 287.865 170.759C284.915 169.906 282.348 170.845 280.781 173.349C279.623 175.199 278.387 175.809 278.387 174.532ZM314.014 166.68C311.107 165.18 307.637 161.608 307.637 160.115C307.637 159.409 308.65 160.082 310.354 161.92C311.849 163.532 314.199 165.278 315.577 165.8C316.956 166.322 318.083 167.011 318.083 167.331C318.083 168.237 316.561 167.994 314.014 166.68ZM269.831 144.861C269.6 144.619 270.988 142.438 272.916 140.013C274.844 137.588 277.242 133.851 278.246 131.709C279.249 129.567 280.318 127.815 280.621 127.815C281.383 127.815 281.346 128.003 279.871 131.582C278.607 134.647 273.118 142.808 271.198 144.476C270.677 144.929 270.061 145.102 269.831 144.861V144.861ZM312.164 131.619C309.284 126.922 306.199 124.898 301.921 124.898C299.819 124.898 298.667 124.618 298.932 124.169C299.772 122.746 305.908 123.349 308.405 125.1C310.612 126.649 315.298 133.01 315.298 134.459C315.298 135.894 314.144 134.848 312.164 131.619ZM136.936 342.275C138.223 340.383 138.37 339.717 137.688 338.857C134.437 334.756 130.154 342.713 132.515 348.467L133.667 351.277L134.502 347.951C134.962 346.122 136.057 343.568 136.936 342.275V342.275ZM148.923 348.519C150.46 347.438 151.655 345.757 152.332 343.72C153.304 340.799 153.287 340.518 152.09 339.602C150.16 338.124 149.081 338.983 148.184 342.708C147.74 344.557 146.746 346.996 145.977 348.127C144.203 350.735 145.522 350.911 148.923 348.519V348.519ZM142.783 340.757C143.727 339.583 144.711 337.441 144.97 335.998C145.584 332.57 146.762 333.388 146.762 337.242C146.762 339.925 146.863 340.11 147.687 338.931C148.839 337.282 152.288 337.198 153.401 338.792C154.533 340.413 155.119 340.277 155.119 338.393C155.119 336.255 157.065 334.144 159.036 334.144C160.225 334.144 161.279 335.176 163.049 338.073C164.37 340.234 165.792 342.224 166.211 342.495C167.798 343.522 169.837 341.923 171.584 338.282C172.579 336.206 173.495 334.39 173.618 334.246C173.742 334.102 174.803 334.7 175.976 335.575C180.047 338.61 182.329 336.207 184.259 326.853L185.538 320.656L186.969 323.572C187.756 325.176 189.06 327.113 189.867 327.877C191.284 329.219 191.381 329.221 192.727 327.946C193.493 327.221 194.119 326.223 194.119 325.73C194.119 325.236 194.588 323.893 195.16 322.744C195.732 321.595 196.202 319.234 196.204 317.496L196.209 314.336L198.894 316.563C200.371 317.787 202.444 319.133 203.5 319.554C205.209 320.234 205.362 320.176 204.887 319.029C204.594 318.32 204.216 316.727 204.048 315.49C203.784 313.54 204.191 312.828 207.103 310.144C211.481 306.11 212.913 303.746 212.918 300.541C212.924 297.16 210.241 293.459 205.47 290.269C201.621 287.696 201.133 286.765 202.851 285.273C205.474 282.993 208.221 278.623 207.503 277.872C206.989 277.334 206.493 277.566 205.848 278.648C205.342 279.497 204.511 280.192 204.003 280.192C203.359 280.192 203.529 279.529 204.562 278.01C206.297 275.459 205.8 273.624 203.869 275.453C203.156 276.128 202.438 276.342 202.205 275.948C201.98 275.566 202.262 274.848 202.832 274.353C203.403 273.857 203.869 272.992 203.869 272.43C203.869 271.605 203.532 271.641 202.107 272.619C199.821 274.186 199.007 273.35 201.096 271.579C202.073 270.751 202.49 269.869 202.166 269.319C201.772 268.652 201.199 268.844 199.968 270.054C197.615 272.368 196.962 271.128 199.229 268.651C201.673 265.981 200.73 264.994 198.179 267.552C195.385 270.355 194.804 268.996 197.536 266.046C198.787 264.694 199.519 263.398 199.161 263.167C198.804 262.935 197.632 263.707 196.557 264.881C195.482 266.056 194.309 266.827 193.95 266.594C193.591 266.362 194.48 264.903 195.926 263.353C198.977 260.082 198.603 258.5 195.512 261.6C194.371 262.745 193.199 263.427 192.908 263.117C192.617 262.806 193.397 261.658 194.642 260.565C195.887 259.472 196.905 258.028 196.905 257.355C196.905 255.83 196.313 255.808 194.766 257.273C194.038 257.963 193.393 258.129 193.136 257.694C192.902 257.297 193.64 256.28 194.776 255.433C196.077 254.463 196.693 253.486 196.439 252.794C196.082 251.819 195.902 251.822 194.849 252.82C194.196 253.439 193.216 253.932 192.672 253.915C192.084 253.898 192.555 253.083 193.83 251.911C195.853 250.05 197.383 247.383 196.427 247.383C196.188 247.383 194.963 248.205 193.706 249.209C192.448 250.213 191.24 250.73 191.02 250.358C190.8 249.986 191.643 248.924 192.892 247.997C194.142 247.07 196.963 244.584 199.162 242.473C201.362 240.362 203.476 238.634 203.861 238.634C205.064 238.634 213.619 234.186 213.619 233.561C213.619 233.234 212.678 232.823 211.528 232.646C209.787 232.379 207.847 233.461 199.943 239.107C194.721 242.837 190.16 245.703 189.808 245.475C189.456 245.247 193.313 242.08 198.381 238.438C205.819 233.092 207.336 231.718 206.254 231.307C205.517 231.026 204.601 230.987 204.218 231.219C203.835 231.451 199.067 234.678 193.622 238.391C188.178 242.104 183.556 244.858 183.35 244.511C183.145 244.163 187.526 240.789 193.085 237.014C203.439 229.98 206.344 226.841 197.376 232.376C187.619 238.397 180.3 242.325 179.947 241.728C179.75 241.395 184.269 238.404 189.988 235.082C195.708 231.76 200.387 228.748 200.387 228.388C200.387 227.643 200.884 227.457 186.881 233.459C176.22 238.029 175.316 238.33 175.316 237.309C175.316 236.981 180.623 234.498 187.11 231.791C193.596 229.084 199.282 226.391 199.745 225.808C201.448 223.659 199.433 223.764 193.198 226.147C183.525 229.846 176.173 231.945 171.146 232.445C160.779 233.475 154.398 236.897 152.376 242.51C149.79 249.693 154.578 261.597 166.449 277.495C169.35 281.38 172.098 285.747 172.556 287.199C174.354 292.903 171.822 299.635 165.21 306.73C156.886 315.66 149.291 320.245 144.763 319.071C143.756 318.81 141.73 317.173 140.261 315.434C137.365 312.004 136.316 311.521 136.316 313.616C136.316 314.356 135.665 315.578 134.87 316.332C133.495 317.634 133.321 317.641 131.364 316.465C129.344 315.251 129.29 315.261 128.529 317.009C127.571 319.211 128.454 320.511 132.309 322.57C134.386 323.679 134.96 324.383 134.793 325.615C134.499 327.773 131.863 328.026 125.825 326.477C123.211 325.806 120.742 325.472 120.337 325.734C119.252 326.436 119.444 327.582 120.646 327.582C121.221 327.582 122.318 328.238 123.084 329.04C124.858 330.898 124.845 332.299 123.037 334.192C121.893 335.39 121.768 335.914 122.426 336.744C123.669 338.312 125.285 338.016 127.974 335.728C131.551 332.683 134.806 330.857 135.424 331.548C135.723 331.882 135.498 332.328 134.923 332.538C133.043 333.225 129.238 337.728 129.472 338.988C129.851 341.038 131.062 340.845 132.371 338.525C133.766 336.052 135.818 335.682 138.25 337.466C139.953 338.715 140.258 340.662 138.962 342.018C138.312 342.698 138.453 342.893 139.597 342.893C140.405 342.893 141.839 341.932 142.783 340.757H142.783ZM167.723 335.492C166.694 332.401 166.761 330.331 167.946 328.634C169.294 326.705 169.991 327.677 168.959 330.046C168.34 331.468 168.317 332.634 168.868 334.514C169.805 337.712 168.759 338.605 167.723 335.492V335.492ZM179.477 330.815C179.104 329.787 178.798 328.045 178.798 326.945C178.798 324.736 180.483 321.813 181.278 322.644C181.555 322.935 181.384 323.674 180.897 324.288C180.289 325.055 180.157 326.544 180.474 329.045C180.976 333.008 180.549 333.767 179.477 330.815ZM154.423 327.85C154.423 326.689 157.705 324.6 160.178 324.186C161.68 323.934 163.787 322.955 164.861 322.01C165.934 321.065 167.187 320.291 167.645 320.291C168.103 320.291 169.749 319.153 171.301 317.762C172.854 316.37 174.427 315.428 174.797 315.667C175.59 316.18 169.831 321.673 168.452 321.718C167.933 321.735 166.577 322.57 165.439 323.572C164.301 324.575 162.677 325.395 161.829 325.395C160.982 325.395 159.06 326.051 157.557 326.853C154.522 328.473 154.423 328.504 154.423 327.85V327.85ZM201.111 313.836C200.352 310.886 201.242 306.439 202.592 306.439C202.986 306.439 203.044 307.121 202.732 308.079C202.056 310.152 202.044 312.093 202.69 314.641C202.992 315.827 202.921 316.646 202.517 316.646C202.141 316.646 201.509 315.382 201.111 313.836H201.111ZM183.673 311.692C183.673 311.307 184.179 310.552 184.798 310.014C185.771 309.169 185.889 309.222 185.668 310.411C185.406 311.828 183.673 312.941 183.673 311.692V311.692ZM193.423 308.167C193.423 307.915 194.833 306.333 196.557 304.653C200.917 300.403 200.825 299.844 194.99 295.047C193.745 294.023 192.727 292.559 192.727 291.792C192.727 289.867 193.88 290.04 194.374 292.039C194.597 292.942 196.037 294.425 197.574 295.336C200.871 297.291 201.645 299.543 200.096 302.677C198.673 305.559 193.423 309.878 193.423 308.167V308.167ZM175.155 302.381C174.925 302.142 175.182 300.834 175.723 299.476C177.276 295.585 176.971 290.403 174.954 286.432C172.841 282.272 174.259 282.284 176.523 286.446C177.565 288.361 178.082 290.533 178.09 293.024C178.105 297.953 176.33 303.612 175.155 302.381V302.381ZM118.928 334.34C122.342 333.86 123.475 332.626 122.411 330.545C121.988 329.717 121.173 329.04 120.599 329.04C118.274 329.04 114.674 331.282 113.352 333.553C111.261 337.143 111.532 338.193 114.063 336.307C115.23 335.437 117.419 334.551 118.928 334.34ZM235.151 333.151C238.089 333.058 238.36 332.89 238.563 331.041C238.831 328.604 237.599 327.953 234.04 328.652C231.404 329.169 227.548 332.705 227.548 334.604C227.548 335.465 227.919 335.438 229.753 334.445C230.966 333.789 233.395 333.206 235.151 333.151ZM133.821 315.474C134.427 315.231 134.923 314.255 134.923 313.306C134.923 309.703 128.026 308.111 124.128 310.813L122.039 312.262L124.155 312.267C125.735 312.27 131.01 314.489 132.603 315.819C132.667 315.873 133.216 315.718 133.821 315.474V315.474ZM94.3704 264.91C98.1904 261.575 98.743 254.31 95.1766 254.31C93.5831 254.31 93.4636 254.605 93.1044 259.426C92.8947 262.24 92.4845 264.947 92.1927 265.441C91.4085 266.769 92.5636 266.488 94.3704 264.91V264.91ZM78.5125 262.501C78.5125 261.192 79.159 258.858 79.9493 257.314C81.6297 254.032 81.3125 252.487 78.9582 252.487C77.6273 252.487 77.0245 253.131 76.1049 255.537C75.0197 258.377 75.0184 258.806 76.0868 261.735C77.4503 265.473 78.5123 265.808 78.5123 262.501H78.5125ZM71.3145 242.094C74.0286 241.334 74.3723 241.01 74.1913 239.386C73.9351 237.087 71.7909 236.63 68.8162 238.241C66.3992 239.549 64.9112 241.654 64.1674 244.816L63.6567 246.987L65.9443 244.972C67.2025 243.864 69.6191 242.568 71.3145 242.094ZM216.469 230.49C217.508 228.456 216.443 227.59 210.21 225.404C205.214 223.651 203.572 223.528 202.114 224.794C200.007 226.625 203.005 228.89 210.227 230.924C215.247 232.337 215.535 232.317 216.469 230.49V230.49ZM81.1589 227.553C82.5548 226.091 82.1029 224.233 79.9639 222.638C77.2516 220.617 74.4358 220.11 71.8964 221.188L69.8071 222.075L72.1833 222.839C73.4902 223.259 75.5272 224.666 76.7101 225.965C79.0775 228.565 79.9082 228.862 81.1589 227.553V227.553ZM195.446 193.249C195.776 192.341 195.775 189.982 195.445 187.964C194.493 182.143 193.434 172.859 193.428 170.283C193.421 166.994 194.555 167.307 194.991 170.716C195.807 177.085 200.041 183.35 202.783 182.249C204.279 181.648 205.466 176.124 204.959 172.125C204.716 170.21 204.724 168.643 204.976 168.643C205.229 168.643 206.653 170.092 208.143 171.864C209.893 173.946 212.878 176.162 216.588 178.135C221.591 180.795 222.57 181.085 224.24 180.4C227.984 178.866 226.86 176.693 218.603 169.501C214.439 165.875 211.795 160.971 210.75 154.934C210.354 152.65 209.584 150.054 209.039 149.166C207.882 147.281 207.708 141.244 208.791 140.544C209.199 140.279 209.937 140.64 210.429 141.345C211.256 142.53 211.45 142.451 212.955 140.32L214.584 138.012L215.776 144.175C216.432 147.564 218.125 152.854 219.538 155.932C222.65 162.703 228.433 169.372 231.194 169.372C235.667 169.372 236.704 165.242 236.449 148.43C236.275 136.935 236.402 135.157 237.568 132.7C239.302 129.045 242.977 127.086 248.099 127.086C250.314 127.086 252.953 126.575 254.221 125.901C258.596 123.575 258.597 123.321 254.236 121.239C245.003 116.831 242.917 113 242.095 98.9506C241.662 91.5478 241.195 88.5377 240.143 86.379L238.76 83.5408L243.582 83.902C249.15 84.319 251.559 83.1945 252.748 79.6231C253.414 77.6235 253.644 77.5066 256.002 77.9687L258.539 78.4659L254.612 74.0237C251.726 70.7578 250.174 68.1693 248.752 64.2491C246.792 58.8429 242.715 53.4487 240.589 53.4487C239.708 53.4487 239.759 53.8914 240.906 56.1828C244.032 62.424 240.887 72.9882 234.836 76.5762C231.955 78.2846 228.941 78.7611 228.941 77.5083C228.941 77.1073 229.678 76.7792 230.579 76.7792C233.357 76.7792 236.829 73.7452 238.865 69.5392C242.027 63.0046 241.341 58.1823 236.512 53.0048L233.719 50.0091L228.91 52.5201C223.862 55.1562 220.951 55.3051 219.14 53.0197C217.846 51.3883 218.858 50.9997 220.847 52.364C223.682 54.3085 228.788 52.178 233.993 46.8792C237.612 43.1946 238.069 42.413 237.871 40.251C237.527 36.5005 235.219 35.9922 229.468 38.4007C226.95 39.4552 220.786 41.4619 215.77 42.8599C205.154 45.8187 202.136 47.2881 196.907 52.0438C191.954 56.5477 185.647 60.0093 182.383 60.0145C180.986 60.0167 178.648 60.3658 177.188 60.7902C175.07 61.4059 174.578 61.8687 174.751 63.0811C175.071 65.3257 177.068 66.4139 178.796 65.2848C179.942 64.535 180.191 64.5545 180.191 65.3944C180.191 66.5003 178.736 67.3012 176.726 67.3012C174.004 67.3012 174.43 71.0529 177.6 74.9976C178.548 76.178 180.024 78.7022 180.879 80.6069C181.734 82.5116 182.597 84.07 182.797 84.07C182.996 84.07 182.995 82.7797 182.79 81.2026C182.518 79.0843 182.691 78.2271 183.451 77.9217C185.311 77.1748 187.37 77.4881 188.664 78.7149C189.782 79.7737 189.938 79.7833 189.938 78.7929C189.938 78.1722 190.434 77.4652 191.04 77.2218C192.995 76.4364 194.813 76.7502 194.813 77.8728C194.813 79.2548 195.481 79.2709 196.477 77.913C197.147 77.0009 197.558 76.9977 199.54 77.8893C202.677 79.3004 204.133 83.0353 203.482 88.0033C202.785 93.3166 202.535 93.7708 198.427 97.1613C195.243 99.789 194.57 100.08 193.595 99.2506C192.619 98.4201 192.526 98.4628 192.919 99.5603C193.265 100.528 192.719 101.184 190.641 102.294L187.907 103.754L185.963 101.203C184.893 99.7996 183.783 98.6516 183.496 98.6516C183.209 98.6516 182.974 99.9582 182.974 101.555C182.974 103.662 182.21 105.765 180.188 109.223C178.656 111.844 177.402 114.266 177.402 114.605C177.402 114.944 178.656 116.132 180.188 117.243C181.72 118.355 182.974 119.507 182.974 119.804C182.974 120.668 176.512 123.339 171.446 124.569C167.886 125.433 163.235 125.669 151.725 125.567C136.038 125.428 134.848 125.601 128.558 128.932C125.992 130.291 123.081 132.845 123.081 133.739C123.081 134.611 131.167 139.145 139.407 142.894L146.833 146.273L144.083 149.256C140.583 153.053 138.437 157.549 137.913 162.183C137.387 166.83 135.42 169.871 131.066 172.764C129.164 174.029 126.051 176.304 124.148 177.822L120.688 180.58L122.659 181.132C127.568 182.507 138.969 179.712 148.003 174.919L151.635 172.993V178.722C151.635 184.919 152.917 190.561 154.828 192.772C158.943 197.532 165.492 189.671 172.156 171.973C173.353 168.793 174.673 166.072 175.088 165.927C175.515 165.778 176.047 167.096 176.315 168.964C177.13 174.654 181.196 181.973 187.281 188.703C190.358 192.106 193.319 194.89 193.861 194.89C194.404 194.89 195.115 194.152 195.443 193.249L195.446 193.249ZM188.918 184.097C184.787 175.402 183.553 169.857 183.164 158.254C182.907 150.557 183.027 147.5 183.587 147.5C184.121 147.5 184.369 150.175 184.369 155.922C184.369 165.96 185.608 172.334 189.282 181.212C192.241 188.359 191.968 190.517 188.918 184.097ZM159.994 183.325C159.994 181.655 163.617 169.104 165.672 163.657C168.511 156.13 170.385 152.481 171.156 152.98C171.529 153.221 170.961 155.219 169.852 157.562C167.216 163.136 165.308 168.42 163.088 176.298C161.366 182.412 159.994 185.526 159.994 183.325ZM217.247 176.201C214.116 173.635 208.989 166.463 206.944 161.786C204.076 155.228 202.041 142.396 203.869 142.396C204.252 142.396 204.571 143.627 204.578 145.13C204.619 154.395 209.294 165.596 216.143 172.834C220.572 177.516 221.204 179.443 217.247 176.201V176.201ZM139.588 176.2C139.331 175.931 140.344 174.321 141.84 172.622C143.336 170.923 145.627 167.119 146.931 164.167C149.851 157.561 152.715 154.813 160.644 151.011C164.938 148.953 167.733 146.993 170.615 144.02C173.051 141.508 174.619 140.34 174.619 141.037C174.619 143.308 167.42 149.391 161.018 152.53C153.252 156.337 150.941 158.652 147.501 166.064C144.894 171.683 140.567 177.225 139.588 176.2ZM199.733 172.834C198.549 169.287 197.503 160.566 197.985 158.268C198.74 154.668 199.339 156.122 199.482 161.9C199.558 165.007 200.076 169.108 200.632 171.013C201.768 174.9 200.964 176.526 199.733 172.834V172.834ZM228.756 160.805C225.202 151.392 224.21 143.663 225.832 138.022C226.466 135.816 227.143 132.617 227.336 130.913C227.53 129.209 228.002 127.815 228.385 127.815C229.288 127.815 228.719 132.751 227.166 138.386C226.135 142.124 226.076 143.482 226.757 147.715C227.441 151.964 228.928 157.44 230.708 162.264C230.967 162.965 230.866 163.539 230.484 163.539C230.101 163.539 229.324 162.309 228.756 160.805V160.805ZM187.45 145.859C187.966 142.477 189.244 140.361 189.244 142.888C189.244 145.636 188.386 148.958 187.675 148.958C187.244 148.958 187.158 147.774 187.45 145.859ZM192.325 145.859C192.841 142.477 194.119 140.361 194.119 142.888C194.119 145.636 193.261 148.958 192.55 148.958C192.119 148.958 192.033 147.774 192.325 145.859ZM178.554 147.677C178.062 146.843 179.323 142.415 180.37 141.303C180.821 140.823 180.886 141.573 180.56 143.49C179.957 147.033 179.159 148.7 178.554 147.677ZM197.47 147.119C196.781 146.398 198.534 140.209 199.427 140.209C200.144 140.209 200.13 140.871 199.357 143.562C198.319 147.172 198.034 147.709 197.47 147.119V147.119ZM174.394 145.521C173.894 144.674 176.431 140.209 177.413 140.209C177.839 140.209 177.71 141.035 177.1 142.214C175.383 145.533 174.813 146.23 174.394 145.521ZM184.744 143.672C185.288 141.01 185.576 140.5 186.177 141.129C186.807 141.789 185.75 146.042 184.955 146.042C184.534 146.042 184.451 145.104 184.744 143.672ZM165.976 139.585C165.536 138.84 176.583 133.273 177.206 133.925C177.793 134.539 177.738 134.578 172.025 137.572C166.476 140.48 166.5 140.472 165.976 139.585V139.585ZM218.827 136.017C219.361 133.027 219.663 132.441 220.319 133.127C220.994 133.834 219.912 138.751 219.082 138.751C218.601 138.751 218.512 137.786 218.827 136.017ZM141.593 135.611C138.559 135.133 135.966 134.391 135.832 133.962C135.666 133.433 137.765 133.509 142.394 134.2C153.391 135.843 164.612 134.491 173.363 130.469C174.779 129.818 176.107 129.573 176.314 129.923C176.779 130.711 171.242 133.254 165.802 134.751C160.338 136.255 148.37 136.68 141.593 135.611ZM231.367 129.95C230.945 127.939 231.299 126.356 231.993 127.146C232.707 127.959 233.16 132.189 232.534 132.189C232.15 132.189 231.626 131.181 231.367 129.95ZM186.459 125.371C186.459 123.411 189.105 118.981 190.58 118.474C191.231 118.249 191.052 118.891 190.051 120.361C189.218 121.586 188.343 123.6 188.107 124.837C187.602 127.479 186.459 127.849 186.459 125.371ZM192.727 122.675C192.727 119.75 196.258 114.464 197.175 116.017C197.391 116.383 196.955 117.265 196.206 117.975C195.456 118.685 194.645 120.369 194.404 121.718C193.924 124.393 192.727 125.077 192.727 122.675ZM196.905 122.957C196.905 121.151 200.362 115.318 201.135 115.818C201.52 116.067 201.226 117.104 200.446 118.25C199.699 119.349 198.875 121.131 198.617 122.209C198.101 124.362 196.905 124.885 196.905 122.957V122.957ZM239.797 121.197C238.806 119.963 237.994 118.678 237.994 118.34C237.994 118.003 237.804 117.208 237.572 116.574C236.794 114.452 238.51 115.39 239.366 117.555C239.831 118.729 240.809 120.256 241.54 120.949C242.271 121.641 242.869 122.485 242.869 122.824C242.869 124.076 241.55 123.377 239.797 121.197V121.197ZM204.859 120.918C204.254 118.393 205.003 115.586 207.16 112.294C208.156 110.775 209.007 108.414 209.053 107.047C209.16 103.831 209.94 103.042 210.539 105.543C210.894 107.021 210.364 108.818 208.388 112.839C206.589 116.498 205.877 118.777 206.117 120.095C206.574 122.596 205.439 123.339 204.859 120.918ZM210.563 119.607C210.102 117.036 210.716 114.247 212.578 110.456C213.275 109.037 213.646 107.006 213.481 105.523C213.308 103.969 213.481 103.097 213.932 103.252C215.428 103.765 215.113 108.339 213.289 112.594C211.908 115.815 211.575 117.479 211.922 119.418C212.199 120.962 212.104 121.982 211.685 121.982C211.302 121.982 210.797 120.913 210.563 119.607V119.607ZM216.104 117.91C215.534 115.533 216.143 113.505 218.326 110.503C219.554 108.815 219.958 107.505 219.736 105.927C219.543 104.545 219.709 103.813 220.179 103.974C221.815 104.535 221.365 108.229 219.236 111.7C217.546 114.458 217.186 115.682 217.533 117.496C218.065 120.28 216.763 120.657 216.104 117.91V117.91ZM222.499 118.647C221.475 117.563 221.999 111.67 223.369 108.859C224.135 107.287 224.762 104.675 224.762 103.055C224.762 101.435 225.076 100.11 225.459 100.11C226.715 100.11 226.229 106.9 224.798 109.358C224.05 110.641 223.35 113.361 223.233 115.44C223.117 117.508 222.786 118.951 222.499 118.647ZM227.968 113.793C227.633 112.037 227.966 110.532 229.274 107.893C230.24 105.944 231.03 103.212 231.03 101.822C231.03 100.323 231.313 99.4779 231.726 99.7452C232.926 100.522 232.49 104.187 230.723 108.181C229.599 110.72 229.156 112.722 229.417 114.086C229.64 115.251 229.508 116.149 229.115 116.149C228.732 116.149 228.216 115.089 227.968 113.793V113.793ZM234.338 113.543C233.319 112.464 233.836 107.401 235.206 105.049C235.971 103.736 236.597 101.595 236.599 100.292C236.6 98.9888 236.915 97.9225 237.298 97.9225C238.457 97.9225 238.078 103.306 236.782 105.233C236.116 106.225 235.411 108.625 235.215 110.566C235.02 112.508 234.625 113.848 234.338 113.543V113.543ZM217.621 92.3906C217.335 92.0915 217.078 90.015 217.05 87.7762L216.998 83.7055L215.759 86.6218L214.521 89.5381L213.989 87.0441L213.456 84.5502L212.292 86.1656C210.917 88.0752 210.137 87.5372 210.137 84.6776C210.137 83.3081 210.497 82.6119 211.204 82.6119C211.791 82.6119 212.539 81.8737 212.866 80.9714C213.424 79.4333 213.504 79.4901 214.146 81.8828L214.831 84.4345L215.638 82.2473C216.083 81.0443 216.584 79.65 216.752 79.1487C217.555 76.7554 218.501 78.6572 218.565 82.7941C218.632 87.0573 218.684 87.1967 219.369 84.958C220.237 82.1212 221.485 82.2477 221.988 85.2238L222.348 87.3509L223.37 84.7991L224.392 82.2473L225.133 85.874L225.874 89.5007L228.878 85.3347C230.531 83.0435 232.157 81.346 232.491 81.5625C232.826 81.779 231.314 84.4392 229.133 87.474C226.951 90.5089 225.102 92.707 225.025 92.3586C224.947 92.0103 224.674 90.7411 224.417 89.5381L223.95 87.3509L222.832 89.9026L221.714 92.4544L221.444 90.2672C221.152 87.9116 219.91 85.9432 219.856 87.7519C219.802 89.5669 218.166 92.9616 217.621 92.3906V92.3906ZM205.959 73.4463C205.959 72.4758 208.058 70.9466 209.391 70.9466C211.388 70.9466 211.186 71.8638 208.948 72.9516C206.913 73.9409 205.959 74.0989 205.959 73.4463ZM184.718 69.4885C184.481 69.0875 184.502 68.3963 184.764 67.9525C185.232 67.1596 186.423 68.3746 186.448 69.6707C186.463 70.4699 185.22 70.3389 184.718 69.4885ZM190.108 64.2026C190.565 62.734 193.903 61.3839 195.827 61.8894C198.3 62.5394 198.091 63.9406 195.598 63.4186C194.375 63.1625 193.086 63.402 192.29 64.0334C190.662 65.3243 189.737 65.396 190.108 64.2026V64.2026ZM208.053 61.3294C208.06 60.2016 211.177 58.5523 213.302 58.5523C214.124 58.5523 215.364 59.2085 216.057 60.0104C217.461 61.6353 216.464 61.975 214.349 60.5923C213.288 59.8981 212.602 59.9289 211.051 60.7401C209.974 61.3035 208.858 61.8812 208.57 62.0241C208.283 62.1669 208.05 61.8543 208.053 61.3294V61.3294ZM201.084 60.7395C201.084 60.3385 201.379 60.0104 201.739 60.0104C202.099 60.0104 202.588 60.3385 202.825 60.7395C203.061 61.1405 202.767 61.4686 202.169 61.4686C201.572 61.4686 201.084 61.1405 201.084 60.7395ZM227.94 58.6268C227.515 57.9063 228.646 56.8327 230.606 56.0972C232.173 55.5088 234.512 56.1646 234.512 57.1924C234.512 57.5955 233.874 57.7095 233.085 57.4473C232.251 57.1702 230.964 57.4495 229.988 58.1192C229.069 58.7495 228.147 58.9779 227.94 58.6268ZM204.218 57.9147C202.054 57.2063 200.007 55.791 200.46 55.3166C200.685 55.0807 201.937 55.3544 203.24 55.9246C206.525 57.3613 209.171 56.6377 211.296 53.7221C213.515 50.6754 214.726 50.504 213.275 53.4419C211.571 56.89 207.392 58.9539 204.218 57.9147V57.9147ZM225.82 46.864C226.625 45.5016 235.432 39.655 236.064 40.0639C236.405 40.284 234.501 42.0733 231.835 44.0401C227.267 47.4093 224.82 48.5579 225.82 46.864ZM130.744 171.14C130.744 170.938 130.118 169.486 129.352 167.914C127.797 164.724 127.697 164.269 128.549 164.269C128.874 164.269 129.705 165.581 130.396 167.185C131.744 170.313 132.239 170.636 133.413 169.156C133.963 168.462 133.802 167.639 132.806 166.057C131.352 163.748 131.115 162.81 131.987 162.81C132.288 162.81 133.114 163.838 133.823 165.095C134.912 167.026 135.209 167.197 135.743 166.2C136.225 165.298 135.294 163.654 131.799 159.231C129.283 156.048 127.519 153.253 127.878 153.02C128.237 152.788 130.171 154.756 132.176 157.394C134.826 160.88 135.981 161.926 136.406 161.224C137.686 159.111 137.344 158.688 123.151 144.836C121.081 142.816 119.675 140.976 120.028 140.748C120.381 140.52 124.425 144.042 129.015 148.574C136.941 156.4 137.401 156.736 138.174 155.257C138.876 153.912 138.667 153.291 136.633 150.694C135.339 149.04 134.491 147.466 134.749 147.196C135.007 146.926 136.201 147.929 137.401 149.426L139.584 152.148L141.76 149.642C144.042 147.013 144.449 146.042 143.269 146.042C142.274 146.042 129.968 139.966 124.613 136.831L120.143 134.214L121.569 132.722L122.995 131.229L121.389 127.881C119.345 123.623 118.643 121.253 119.427 121.253C119.765 121.253 120.941 123.221 122.039 125.627C123.138 128.033 124.329 130.002 124.686 130.002C125.504 130.002 125.099 128.536 122.821 123.258C120.424 117.704 121.783 117.853 124.477 123.44C125.637 125.846 126.843 127.815 127.156 127.815C128.59 127.815 128.444 126.606 126.534 122.644C124.427 118.275 124.061 116.879 125.024 116.879C125.324 116.879 126.571 119.003 127.795 121.6C129.418 125.046 130.305 126.207 131.078 125.897C132.508 125.323 132.429 124.723 130.357 120.442C129.377 118.419 128.702 116.379 128.856 115.909C129.01 115.44 130.162 117.188 131.416 119.795C134.181 125.544 133.822 125.131 135.555 124.555C136.958 124.089 136.943 123.983 134.866 119.676C133.698 117.254 132.92 115.087 133.136 114.861C133.674 114.297 133.764 114.434 136.243 119.613C137.443 122.119 138.656 124.164 138.938 124.158C141.493 124.102 140.461 121.893 128.205 101.179C121.095 89.1627 114.798 78.2994 114.212 77.0384C112.688 73.7609 113.484 71.6846 117.454 68.5819C119.37 67.0847 121.274 65.1998 121.687 64.3933C122.359 63.0773 122.224 62.9268 120.372 62.9268C117.973 62.9268 116.12 61.2766 116.12 59.1404C116.12 57.7566 116.003 57.7256 114.553 58.7236C113.691 59.3167 112.636 60.9005 112.208 62.2433C111.78 63.5861 111.042 64.8201 110.568 64.9856C109.967 65.1953 109.853 64.7992 110.193 63.6787C110.461 62.7944 110.466 60.8733 110.203 59.4095C109.757 56.9166 109.665 56.8364 108.752 58.1437C107.274 60.259 106.809 58.9998 108.101 56.3835C109.429 53.6965 109.261 51.0024 107.749 50.701C107.109 50.5737 106.374 51.3675 105.892 52.7045C105.312 54.3129 104.506 55.042 102.946 55.3686C101.764 55.6159 100.798 56.0844 100.798 56.4098C100.798 56.7351 101.738 59.5573 102.887 62.6814C105.83 70.6811 105.703 71.6009 102.098 68.4253C100.979 67.4396 99.6442 66.8017 99.1313 67.0077C98.5707 67.2329 97.1559 65.8629 95.5848 63.5735L92.971 59.7647L92.0431 62.0748C91.423 63.6189 90.6342 64.3849 89.6643 64.3849C88.3805 64.3849 88.3088 64.5717 89.0422 66.0061C89.498 66.8977 91.4677 69.4143 93.4193 71.5985C95.4868 73.9124 96.3996 75.3515 95.6066 75.0466C92.7504 73.9486 83.464 73.6178 82.3625 74.5748C80.8755 75.8667 81.0348 78.0517 82.6553 78.5901C84.274 79.1279 85.0637 81.3303 84.4923 83.7134C83.846 86.4091 84.9492 86.394 88.6267 83.6568C90.4944 82.2666 92.3301 81.2366 92.7061 81.3677C93.7199 81.7215 95.1131 86.2316 95.1736 89.3558C95.2426 92.901 93.5847 94.6173 88.638 96.1228C84.353 97.4269 83.624 98.9519 86.6954 100.187C89.1055 101.156 92.9083 100.553 94.6209 98.9302C95.3418 98.2472 96.131 97.8972 96.3748 98.1524C97.1408 98.9543 95.2167 100.729 92.6023 101.632L90.0894 102.501L91.9148 104.144C92.9188 105.049 94.153 105.958 94.6576 106.166C95.279 106.423 94.8503 107.166 93.3282 108.47C90.6873 110.733 88.9226 115.674 90.2567 117.071C90.9061 117.751 91.7456 117.583 94.0298 116.316C97.3036 114.501 99.4492 114.281 101.714 115.53C105.301 117.506 105.26 120.7 101.622 122.643C100.16 123.424 98.556 124.577 98.0575 125.206C96.5552 127.101 98.7026 129.48 106.366 134.41L113.347 138.901L110.219 141.401C106.689 144.223 105.478 146.12 106.11 147.843C106.65 149.317 110.749 151.539 114.993 152.658C116.775 153.127 118.37 153.745 118.539 154.03C118.707 154.315 118.209 155.893 117.433 157.537C115.752 161.092 116.49 163.539 119.243 163.539C120.964 163.539 123.878 166.284 126.728 170.59C127.953 172.441 128.505 172.763 129.501 172.205C130.185 171.822 130.744 171.342 130.744 171.14H130.744ZM118.209 161.378C118.209 160.394 120.187 159.442 123.258 158.948C126.247 158.467 126.856 159.645 123.954 160.295C122.901 160.531 121.319 161.029 120.439 161.403C118.437 162.252 118.209 162.249 118.209 161.378V161.378ZM108.747 145.936C108.067 144.795 113.404 144.098 115.714 145.026C116.32 145.269 116.816 145.679 116.816 145.937C116.816 146.551 109.113 146.549 108.747 145.936V145.936ZM107.373 128.931C106.63 128.343 105.335 127.851 104.495 127.838C103.656 127.825 102.776 127.487 102.539 127.086C101.828 125.88 105.645 126.257 107.829 127.607C108.942 128.295 109.852 129.115 109.852 129.43C109.852 130.31 108.864 130.112 107.373 128.931V128.931ZM114.378 129.273C114.122 128.839 114.952 128.544 116.427 128.544C117.79 128.544 118.905 128.872 118.905 129.273C118.905 129.674 117.984 130.002 116.857 130.002C115.731 130.002 114.615 129.674 114.378 129.273ZM112.986 125.627C112.729 125.194 113.559 124.898 115.034 124.898C116.397 124.898 117.512 125.226 117.512 125.627C117.512 126.028 116.591 126.357 115.464 126.357C114.338 126.357 113.222 126.028 112.986 125.627ZM111.941 120.524C111.941 120.123 113.038 119.795 114.378 119.795C115.719 119.795 116.816 120.123 116.816 120.524C116.816 120.925 115.719 121.253 114.378 121.253C113.038 121.253 111.941 120.925 111.941 120.524ZM111.593 116.879C110.57 116.418 111.171 116.238 113.856 116.201C115.867 116.172 117.512 116.478 117.512 116.879C117.512 117.756 113.543 117.756 111.593 116.879ZM92.441 113.283C92.441 112.421 95.7795 109.939 97.8383 109.27C100.159 108.515 99.7411 109.994 97.3391 111.036C96.2027 111.529 94.9107 112.389 94.4681 112.947C93.5491 114.106 92.441 114.29 92.441 113.283V113.283ZM108.459 111.775C108.459 111.374 109.694 111.046 111.203 111.046C112.713 111.046 114.142 111.374 114.378 111.775C114.641 112.22 113.573 112.504 111.634 112.504C109.888 112.504 108.459 112.176 108.459 111.775ZM107.937 107.615C107.075 107.441 106.37 106.959 106.37 106.543C106.37 106.127 106.865 105.985 107.471 106.229C108.077 106.472 109.487 106.671 110.605 106.671C111.723 106.671 112.637 107 112.637 107.4C112.637 108.13 110.885 108.21 107.937 107.615ZM105.499 102.523C103.119 101.872 104.328 101.197 107.414 101.454C109.138 101.597 110.548 102.01 110.548 102.37C110.548 103.039 107.699 103.125 105.499 102.523ZM104.454 98.137C103.593 97.9633 102.887 97.4775 102.887 97.0577C102.887 96.6218 103.56 96.4829 104.454 96.7339C105.316 96.9757 106.883 97.178 107.937 97.1835C108.99 97.1893 109.852 97.5215 109.852 97.9225C109.852 98.6468 107.455 98.742 104.454 98.137V98.137ZM102.365 93.0206C101.12 92.8589 100.102 92.3782 100.102 91.9525C100.102 91.4745 100.934 91.3527 102.278 91.6342C103.475 91.8848 105.06 92.0899 105.801 92.0899C106.542 92.0899 106.954 92.4179 106.718 92.8189C106.481 93.2199 105.914 93.4955 105.458 93.4313C105.002 93.3672 103.61 93.1823 102.365 93.0206V93.0206ZM106.063 79.245C105.64 77.4812 105.977 76.1257 106.661 76.8415C107.395 77.6096 107.852 81.1537 107.217 81.1537C106.834 81.1537 106.315 80.2948 106.063 79.245ZM109.62 78.4804C109.364 78.2131 109.155 77.1632 109.155 76.1474C109.155 74.0721 110.117 74.7353 110.865 77.326C111.315 78.8839 110.62 79.5277 109.62 78.4804ZM170.004 100.082C172.023 99.2911 175.756 97.3297 178.301 95.7231C184.77 91.6383 190.33 90.2421 196.124 91.2472C198.596 91.6759 200.879 91.8575 201.199 91.6507C201.519 91.4439 201.78 90.3098 201.78 89.1305V86.9863H195.203C189.002 86.9863 187.994 87.219 177.618 91.0464C164.065 96.0455 157.426 96.9485 154.165 94.2366C151.565 92.0755 150.559 89.4261 149.524 82.0121C148.303 73.2703 144.809 69.3508 141.574 73.0933C140.553 74.2746 140.428 75.2772 140.827 79.1082C142.221 92.5118 145.807 98.267 154.649 101.29C158.328 102.547 165.061 102.018 170.004 100.082V100.082ZM190.566 100.901C191.344 100.384 191.392 99.6521 190.805 97.2324L190.072 94.2091L192.398 96.0658C193.677 97.087 194.857 97.9225 195.022 97.9225C195.186 97.9225 196.472 96.9643 197.88 95.7931C200.704 93.4436 200.635 93.3622 195.021 92.4491C192.1 91.9739 185.611 93.002 183.719 94.24C182.91 94.7693 183.217 95.5274 185.333 98.2306C187.988 101.623 188.829 102.052 190.566 100.901ZM196.023 85.5282H202.627L202.174 83.5232C201.732 81.5662 199.47 78.9665 198.21 78.9665C197.863 78.9665 197.036 80.1593 196.371 81.6173L195.164 84.2681L194.405 81.435C193.324 77.3996 191.588 77.3224 190.841 81.2766L190.251 84.4029L188.646 81.6847C186.674 78.3441 184.365 77.9581 184.379 80.9714C184.386 82.0742 184.585 83.7463 184.826 84.6873C185.197 86.1393 185.578 86.3323 187.341 85.9631C188.484 85.7239 192.39 85.5282 196.023 85.5282V85.5282ZM83.0392 82.2473V80.0601L79.2089 80.2959C77.1022 80.4256 74.5167 80.1876 73.4634 79.7671C70.8316 78.7165 71.0642 79.8287 74.0504 82.5735C76.2123 84.5607 76.9935 84.8436 79.7959 84.654C82.8887 84.4447 83.0392 84.3331 83.0392 82.2473V82.2473ZM90.9217 61.2513C91.3103 59.1414 89.7061 57.8232 86.7497 57.8232C83.6565 57.8232 80.2619 59.4052 79.3021 61.2939C78.713 62.4531 79.1746 62.5622 84.6689 62.5622C89.9013 62.5622 90.7115 62.3924 90.9217 61.2513ZM122.319 59.1726C123.376 55.998 123.276 51.8149 122.102 50.1342C121.184 48.8197 121.087 48.9174 120.624 51.6353C120.352 53.2342 119.509 55.617 118.753 56.9304C117.116 59.772 117.53 61.4686 119.86 61.4686C121.135 61.4686 121.744 60.8996 122.319 59.1726ZM104.141 53.3029C105.601 51.7747 105.051 49.9368 102.532 47.9255C100.647 46.4207 99.3495 45.9888 96.868 46.041C95.0974 46.0782 93.5083 46.2558 93.3366 46.4355C93.1648 46.6153 94.171 47.3321 95.5725 48.0283C96.974 48.7246 98.9581 50.393 99.9817 51.736C101.981 54.3592 102.827 54.678 104.141 53.3029V53.3029Z" fill="black"/>
<path fill-rule="evenodd" clip-rule="evenodd" d="M214.831 53.1181C214.831 54.6563 214.006 56.1315 212.538 57.2192C211.071 58.3069 209.08 58.9179 207.004 58.9179C204.928 58.9179 202.938 58.3069 201.47 57.2192C200.002 56.1315 199.178 54.6563 199.178 53.1181C199.178 51.5799 200.002 50.1047 201.47 49.0171C202.938 47.9294 204.928 47.3184 207.004 47.3184C209.08 47.3184 211.071 47.9294 212.538 49.0171C214.006 50.1047 214.831 51.5799 214.831 53.1181V53.1181Z" fill="#FCDD0A"/>
<path fill-rule="evenodd" clip-rule="evenodd" d="M202.255 54.9588C202.255 55.6669 202.028 56.3459 201.624 56.8466C201.22 57.3473 200.672 57.6285 200.101 57.6285C199.53 57.6285 198.982 57.3473 198.578 56.8466C198.174 56.3459 197.947 55.6669 197.947 54.9588C197.947 54.2507 198.174 53.5717 198.578 53.071C198.982 52.5703 199.53 52.2891 200.101 52.2891C200.672 52.2891 201.22 52.5703 201.624 53.071C202.028 53.5717 202.255 54.2507 202.255 54.9588V54.9588Z" fill="#FCDD0A"/>
<path d="M200.261 51.07C203.773 49.5334 207.73 50.5424 212.403 55.6534C208.567 59.1408 200.454 60.2152 200.261 51.07Z" fill="white"/>
<path fill-rule="evenodd" clip-rule="evenodd" d="M207.671 53.69C207.806 54.4601 207.595 55.2637 207.084 55.9241C206.574 56.5845 205.806 57.0475 204.95 57.2113C204.093 57.375 203.219 57.2262 202.518 56.7975C201.818 56.3688 201.349 55.6953 201.214 54.9252C201.08 54.1551 201.291 53.3514 201.802 52.6911C202.312 52.0307 203.08 51.5677 203.936 51.4039C204.792 51.2401 205.667 51.389 206.367 51.8177C207.068 52.2464 207.537 52.9199 207.671 53.69V53.69Z" fill="black"/>
<path fill-rule="evenodd" clip-rule="evenodd" d="M204.211 53.5579C204.254 53.807 204.2 54.0644 204.059 54.2733C203.919 54.4822 203.704 54.6256 203.462 54.672C203.22 54.7183 202.97 54.6637 202.768 54.5203C202.566 54.3769 202.428 54.1564 202.385 53.9072C202.341 53.658 202.396 53.4007 202.536 53.1918C202.677 52.9828 202.892 52.8394 203.134 52.7931C203.376 52.7468 203.626 52.8013 203.827 52.9448C204.029 53.0882 204.167 53.3087 204.211 53.5579Z" fill="white"/>
<path d="M199.902 53.5877C202.513 50.4338 205.178 49.5769 207.743 52.5585C212.287 56.6134 214.774 55.7551 217.322 56.0802C214.511 55.0452 212.71 55.6715 208.237 51.5228C202.699 46.3837 199.709 50.5872 199.902 53.5877Z" fill="black"/>
<path d="M233.447 56.9355C236.603 59.199 234.117 68.2791 228.61 71.9413" stroke="black" stroke-width="1.9" stroke-linecap="round"/>
<path d="M211.882 79.7588C211.414 81.5237 210.035 82.0824 210.98 85.7151C212.102 85.2258 212.59 83.7405 213.063 82.2324C213.652 83.3127 214.229 84.2346 214.897 86.3986C215.995 84.3803 216.73 82.1718 217.509 79.9866C217.766 83.1596 217.765 87.0534 218.473 88.9699C219.088 86.6408 219.687 84.0115 220.462 84.4457C221.313 86.1069 222.134 87.759 222.172 89.1652L224.069 84.8363L225.779 91.053L233.21 79.9866L217.291 76.8945L211.882 79.7588Z" fill="#FCDD0A"/>
<path d="M197.362 77.3829C207.168 77.2147 210.09 97.1135 196.8 101.822C196.415 101.959 196.639 101.994 196.971 102.277C205.558 109.613 195.726 119.093 188.471 110.647C188.121 116.842 184.024 122.263 176.594 114.227" stroke="black" stroke-width="1.9"/>
<path d="M181.722 105.546C187.244 104.455 192.364 100.555 197.551 97.1221" stroke="black" stroke-width="1.8"/>
<path d="M179.827 79.6612C184.136 75.3231 195.258 76.6766 198.171 77.3503" stroke="black" stroke-width="1.7"/>
<path d="M217.385 185.052L239.148 214.345" stroke="black" stroke-width="2.1" stroke-linecap="round"/>
<path d="M211.975 184.466L233.738 213.759" stroke="black" stroke-width="2.1" stroke-linecap="round"/>
<path d="M206.627 184.075L228.391 213.368" stroke="black" stroke-width="2.1" stroke-linecap="round"/>
<path d="M153.371 239.344C149.47 248.404 142.517 245.95 145.583 237.7C139.057 239.082 137.469 254.512 145.806 253.814C143.609 257.651 146.703 261.487 149.143 265.324C153.178 270.691 151.881 275.532 149.7 280.287C152.633 280.098 155.415 279.551 155.262 272.066C157.722 277.839 157.341 283.012 156.931 288.179C163.375 284.468 164.674 277.905 161.048 268.613" fill="#DA121A"/>
<path d="M153.371 239.344C149.47 248.404 142.517 245.95 145.583 237.7C139.057 239.082 137.469 254.512 145.806 253.814C143.609 257.651 146.703 261.487 149.143 265.324C153.178 270.691 151.881 275.532 149.7 280.287C152.633 280.098 155.415 279.551 155.262 272.066C157.722 277.839 157.341 283.012 156.931 288.179C163.375 284.468 164.674 277.905 161.048 268.613" stroke="black" stroke-width="2.1"/>
<path d="M152.771 245.497C152.356 246.264 152.388 246.123 152.063 247.241C151.633 248.724 152.149 247.089 151.985 247.939C151.946 248.139 151.872 248.322 151.827 248.52C151.819 248.557 151.835 248.599 151.827 248.636C151.769 248.897 151.681 248.952 151.591 249.218C151.58 249.252 151.591 249.295 151.591 249.334C151.591 249.373 151.591 249.411 151.591 249.45C151.591 249.567 151.591 249.683 151.591 249.799C151.591 249.838 151.58 249.881 151.591 249.915C151.608 249.964 151.644 249.993 151.67 250.032C151.696 250.07 151.714 250.131 151.749 250.148C151.799 250.172 151.854 250.148 151.906 250.148C152.063 250.148 152.221 250.148 152.378 250.148C152.614 250.148 152.85 250.148 153.086 250.148C153.185 250.148 153.528 250.126 153.558 250.148C153.591 250.172 153.628 250.211 153.637 250.264C153.656 250.377 153.637 250.497 153.637 250.613C153.637 250.923 153.637 251.233 153.637 251.543C153.637 251.853 153.637 252.163 153.637 252.473C153.637 252.59 153.672 252.718 153.637 252.822C153.611 252.9 153.521 252.877 153.479 252.938C153.461 252.966 153.479 253.016 153.479 253.055C153.479 253.093 153.479 253.132 153.479 253.171C153.479 253.269 153.465 254.091 153.479 254.217C153.516 254.538 153.524 254.515 153.637 254.682C153.663 254.721 153.695 254.753 153.716 254.799C153.748 254.871 153.753 254.97 153.794 255.031C153.861 255.13 153.955 255.18 154.03 255.264C154.06 255.297 154.076 255.356 154.109 255.38C154.132 255.397 154.164 255.363 154.188 255.38C154.221 255.405 154.237 255.463 154.266 255.496C154.496 255.751 154.538 255.636 154.581 256.078C154.596 256.231 154.581 256.388 154.581 256.543C154.581 256.892 154.581 257.24 154.581 257.589C154.581 258.403 154.581 259.217 154.581 260.031C154.581 260.225 154.581 260.418 154.581 260.612C154.581 260.678 154.567 260.909 154.581 260.961C154.624 261.122 154.648 261.315 154.738 261.426C154.821 261.528 154.954 261.479 155.053 261.542C155.14 261.597 155.199 261.731 155.289 261.775C155.44 261.849 155.603 261.858 155.761 261.891C155.787 261.896 155.819 261.868 155.84 261.891C155.929 261.99 155.989 262.137 156.076 262.24C156.428 262.656 156.098 262.229 156.312 262.356C156.516 262.477 156.645 262.651 156.862 262.705C156.94 262.724 157.021 262.682 157.098 262.705C157.156 262.722 157.203 262.782 157.256 262.821C157.308 262.86 157.372 262.876 157.413 262.938C157.455 262.999 157.45 263.109 157.492 263.17C157.51 263.198 157.547 263.153 157.57 263.17C157.637 263.219 157.668 263.337 157.728 263.403C157.803 263.486 157.897 263.536 157.964 263.635C158.366 264.229 157.634 263.473 158.2 264.1C158.247 264.152 158.308 264.168 158.357 264.216C158.447 264.305 158.556 264.609 158.593 264.682C158.615 264.725 158.655 264.749 158.672 264.798C158.684 264.832 158.672 264.875 158.672 264.914C158.672 265.069 158.643 265.23 158.672 265.379C158.704 265.546 158.797 265.678 158.829 265.844C158.851 265.956 158.829 266.077 158.829 266.193C158.829 266.658 158.829 267.123 158.829 267.588" stroke="black" stroke-width="2.1" stroke-linecap="round"/>
<path d="M232.024 290.044C236.693 298.603 229.042 303.278 221.901 296.445C221.785 299.702 224.575 305.941 229.877 304.255C229.397 309.42 226.368 312.181 220.981 312.717C226.429 318.258 233.037 319.367 235.5 311.09C235.464 313.808 234.706 318.691 242.044 318.792C241.31 318.987 235.679 313.213 240.306 308.92C241.249 311.848 242.424 314.721 248.179 316.514C242.106 310 246.581 305.185 251.553 307.293" fill="#DA121A"/>
<path d="M232.024 290.044C236.693 298.603 229.042 303.278 221.901 296.445C221.785 299.702 224.575 305.941 229.877 304.255C229.397 309.42 226.368 312.181 220.981 312.717C226.429 318.258 233.037 319.367 235.5 311.09C235.464 313.808 234.706 318.691 242.044 318.792C241.31 318.987 235.679 313.213 240.306 308.92C241.249 311.848 242.424 314.721 248.179 316.514C242.106 310 246.581 305.185 251.553 307.293" stroke="black" stroke-width="1.6554"/>
<path d="M235.957 290.527C235.957 291.242 235.924 291.129 236.13 292.053C236.403 293.279 236.132 291.911 236.349 292.578C236.4 292.736 236.418 292.896 236.464 293.054C236.473 293.083 236.501 293.107 236.51 293.136C236.571 293.345 236.528 293.42 236.568 293.645C236.573 293.674 236.598 293.7 236.614 293.727C236.629 293.754 236.645 293.781 236.66 293.809C236.706 293.891 236.752 293.973 236.798 294.055C236.814 294.082 236.822 294.117 236.844 294.137C236.876 294.164 236.914 294.169 236.948 294.186C236.983 294.202 237.019 294.238 237.052 294.235C237.098 294.231 237.129 294.191 237.167 294.169C237.283 294.103 237.398 294.038 237.513 293.972C237.686 293.873 237.859 293.774 238.032 293.675C238.104 293.634 238.347 293.475 238.378 293.478C238.412 293.482 238.454 293.493 238.482 293.527C238.54 293.599 238.574 293.691 238.62 293.773C238.743 293.992 238.866 294.21 238.989 294.429C239.112 294.648 239.235 294.866 239.358 295.085C239.404 295.167 239.481 295.243 239.497 295.331C239.508 295.396 239.433 295.418 239.427 295.479C239.425 295.506 239.458 295.533 239.473 295.561C239.489 295.588 239.504 295.615 239.52 295.643C239.558 295.712 239.874 296.297 239.935 296.381C240.088 296.592 240.085 296.572 240.235 296.643C240.269 296.659 240.305 296.668 240.338 296.692C240.391 296.729 240.434 296.797 240.488 296.823C240.576 296.865 240.665 296.861 240.753 296.888C240.788 296.899 240.823 296.934 240.857 296.937C240.881 296.939 240.891 296.902 240.915 296.904C240.949 296.908 240.984 296.943 241.019 296.953C241.288 297.037 241.274 296.938 241.48 297.232C241.552 297.334 241.603 297.45 241.664 297.56C241.803 297.806 241.941 298.052 242.08 298.298C242.402 298.872 242.725 299.446 243.048 300.02C243.125 300.156 243.202 300.293 243.279 300.429C243.305 300.476 243.386 300.645 243.417 300.675C243.513 300.771 243.607 300.897 243.717 300.938C243.819 300.975 243.896 300.885 243.994 300.888C244.079 300.89 244.176 300.959 244.259 300.953C244.399 300.942 244.522 300.88 244.651 300.838C244.672 300.83 244.684 300.797 244.709 300.805C244.813 300.837 244.916 300.916 245.02 300.952C245.443 301.098 245.032 300.935 245.239 300.935C245.437 300.935 245.601 301.004 245.781 300.951C245.846 300.932 245.888 300.868 245.954 300.852C246.003 300.84 246.062 300.863 246.115 300.868C246.169 300.873 246.222 300.859 246.277 300.884C246.332 300.91 246.372 300.99 246.427 301.015C246.451 301.027 246.46 300.98 246.484 300.983C246.552 300.989 246.622 301.059 246.692 301.081C246.781 301.108 246.869 301.104 246.957 301.146C247.488 301.397 246.651 301.17 247.315 301.375C247.37 301.392 247.421 301.378 247.476 301.391C247.577 301.416 247.778 301.585 247.834 301.621C247.867 301.642 247.906 301.642 247.937 301.67C247.96 301.689 247.968 301.724 247.983 301.752C248.045 301.861 248.088 301.987 248.168 302.08C248.258 302.184 248.378 302.238 248.468 302.342C248.528 302.412 248.56 302.506 248.606 302.588C248.791 302.916 248.975 303.244 249.16 303.572" stroke="black" stroke-width="1.73522" stroke-linecap="round"/>
<path d="M289.402 324.06C289.802 326.656 289.199 330.604 292.506 333.958" stroke="black" stroke-width="1.5" stroke-linecap="round"/>
<path d="M293.961 308.077C294.637 310.61 294.458 314.604 298.103 317.551" stroke="black" stroke-width="1.5" stroke-linecap="round"/>
<path d="M293.743 291.423C294.594 293.897 294.696 297.894 298.538 300.553" stroke="black" stroke-width="1.5" stroke-linecap="round"/>
<path d="M281.612 335.388C280.263 337.606 277.306 340.137 277.649 344.945" stroke="black" stroke-width="1.5" stroke-linecap="round"/>
</g>
<defs>
<clipPath id="clip0_1_3077">
<rect width="600" height="400" fill="white"/>
</clipPath>
</defs>
</svg>
