<svg width="600" height="400" viewBox="0 0 600 400" fill="none" xmlns="http://www.w3.org/2000/svg" xmlns:cgf="https://coding.garden/flags"><metadata id="cgf-metadata">

<cgf:flag>
  <cgf:name>Nunspeet</cgf:name>
  <cgf:route>nl/ge/nunspeet</cgf:route>
  <cgf:aspect-ratio>1.5</cgf:aspect-ratio>
</cgf:flag>

</metadata><g clip-path="url(#clip0_1_3217)">
<path d="M1.13702 -0.0234375V405.877H207.79V-0.0234375H1.13702V-0.0234375Z" fill="black"/>
<path d="M59.042 7.30273L2.81279 92.398L3.4174 108.809L65.0881 16.4201L59.042 7.30273Z" fill="white"/>
<path d="M59.3443 120.661L3.11509 205.756L3.71971 222.168L65.3904 129.778L59.3443 120.661Z" fill="white"/>
<path d="M59.9489 239.187L3.71971 324.282L4.32432 340.693L65.995 248.304L59.9489 239.187Z" fill="white"/>
<path d="M59.9489 352.85L3.71971 437.945L4.32432 454.356L65.995 361.967L59.9489 352.85Z" fill="white"/>
<path d="M37.5782 64.7412L31.8343 73.2507L98.342 169.895L105.295 160.777L37.5782 64.7412Z" fill="white"/>
<path d="M116.027 177.188L110.283 185.698L176.791 282.342L183.744 273.225L116.027 177.188Z" fill="white"/>
<path d="M38.3339 179.013L32.5901 187.522L99.0977 284.166L106.051 275.049L38.3339 179.013V179.013Z" fill="white"/>
<path d="M115.725 293.283L109.981 301.793L176.488 398.437L183.442 389.319L115.725 293.283Z" fill="white"/>
<path d="M37.7293 296.626L31.9855 305.136L98.4931 401.779L105.446 392.662L37.7293 296.626V296.626Z" fill="white"/>
<path d="M-37.8476 296.93L-43.5914 305.439L22.9162 402.083L29.8693 392.966L-37.8476 296.93V296.93Z" fill="white"/>
<path d="M113.608 60.4873L107.865 68.9968L174.372 165.641L181.325 156.523L113.608 60.4873V60.4873Z" fill="white"/>
<path d="M143.99 127.803L136.735 118.686L71.4366 218.976L78.3897 227.79L143.99 127.803Z" fill="white"/>
<path d="M141.572 11.1007L134.317 1.9834L69.0181 102.274L75.9712 111.088L141.572 11.1007Z" fill="white"/>
<path d="M219.567 9.58121L212.312 0.463867L147.013 100.755L153.967 109.568L219.567 9.58121Z" fill="white"/>
<path d="M219.567 125.068L212.312 115.95L147.013 216.241L153.967 225.054L219.567 125.068Z" fill="white"/>
<path d="M219.567 240.555L212.312 231.438L147.013 331.728L153.967 340.542L219.567 240.555V240.555Z" fill="white"/>
<path d="M143.386 243.289L136.13 234.172L70.832 334.463L77.7851 343.276L143.386 243.289V243.289Z" fill="white"/>
<path d="M143.688 358.168L136.433 349.051L71.1343 449.342L78.0874 458.155L143.688 358.168V358.168Z" fill="white"/>
<path d="M233.171 338.414L225.916 329.297L160.617 429.588L167.57 438.401L233.171 338.414V338.414Z" fill="white"/>
<path d="M59.3443 0.00878906L96.8304 53.8011L103.179 45.2916L71.7389 0.312701L59.3443 0.00878906Z" fill="white"/>
<path d="M138.095 -0.447266L175.582 53.3451L181.93 44.8356L150.49 -0.143353L138.095 -0.447266Z" fill="white"/>
<path d="M-15.1745 4.71875L22.3116 58.5111L28.6601 50.0016L-2.7799 5.02266L-15.1745 4.71875Z" fill="white"/>
<path d="M-16.9884 117.166L20.4978 170.958L26.8462 162.449L-4.59375 117.47L-16.9884 117.166Z" fill="white"/>
<path d="M-14.5699 238.123L22.9162 291.915L29.2647 283.406L-2.17529 238.427L-14.5699 238.123V238.123Z" fill="white"/>
<path d="M190.848 59.2715L185.407 68.3888L214.428 106.682L215.94 92.3978L190.848 59.2715V59.2715Z" fill="white"/>
<path d="M190.999 173.846L185.558 182.963L214.579 221.256L216.091 206.972L190.999 173.846Z" fill="white"/>
<path d="M191.604 287.812L186.162 296.93L215.184 335.223L216.695 320.939L191.604 287.812Z" fill="white"/>
<path d="M24.2766 198.766C23.6249 194.446 31.3642 189.689 36.0666 198.766C35.6247 209.099 36.5904 219.432 30.0205 229.765C24.0036 222.438 23.3248 209.778 24.2766 198.766V198.766Z" fill="white"/>
<path d="M102.6 197.098C101.948 192.778 109.687 188.021 114.39 197.098C113.948 207.431 114.913 217.764 108.343 228.097C102.327 220.77 101.648 208.11 102.6 197.098Z" fill="white"/>
<path d="M177.572 195.883C176.92 191.562 184.659 186.806 189.362 195.883C188.92 206.216 189.886 216.549 183.316 226.882C177.299 219.554 176.62 206.895 177.572 195.883V195.883Z" fill="white"/>
<path d="M140.993 254.234C140.341 249.914 148.08 245.157 152.783 254.234C152.341 264.567 153.306 274.9 146.736 285.233C140.72 277.906 140.041 265.246 140.993 254.234Z" fill="white"/>
<path d="M63.2996 258.793C62.6479 254.472 70.3871 249.716 75.0896 258.793C74.6477 269.126 75.6134 279.459 69.0434 289.792C63.0265 282.464 62.3477 269.805 63.2996 258.793V258.793Z" fill="white"/>
<path d="M62.695 141.178C62.0432 136.858 69.7825 132.102 74.485 141.178C74.0431 151.511 75.0088 161.844 68.4388 172.177C62.4219 164.85 61.7431 152.19 62.695 141.178Z" fill="white"/>
<path d="M139.481 141.483C138.829 137.163 146.569 132.406 151.271 141.483C150.829 151.816 151.795 162.149 145.225 172.482C139.208 165.155 138.529 152.495 139.481 141.483Z" fill="white"/>
<path d="M100.786 82.8278C100.134 78.5073 107.873 73.751 112.576 82.8278C112.134 93.1608 113.1 103.494 106.53 113.827C100.513 106.5 99.8339 93.8399 100.786 82.8278Z" fill="white"/>
<path d="M24.6042 83.4353C23.9525 79.1147 31.6918 74.3584 36.3942 83.4353C35.9523 93.7683 36.918 104.101 30.3481 114.434C24.3312 107.107 23.6524 94.4473 24.6042 83.4353V83.4353Z" fill="white"/>
<path d="M176.967 81.3083C176.315 76.9878 184.055 72.2314 188.757 81.3083C188.315 91.6413 189.281 101.974 182.711 112.307C176.694 104.98 176.015 92.3203 176.967 81.3083Z" fill="white"/>
<path d="M137.667 23.8689C137.015 19.5483 144.755 14.792 149.457 23.8689C149.015 34.2019 149.981 44.5348 143.411 54.8678C137.394 47.5405 136.715 34.8809 137.667 23.8689Z" fill="white"/>
<path d="M62.0903 27.5163C61.4386 23.1958 69.1779 18.4395 73.8803 27.5163C73.4384 37.8493 74.4042 48.1823 67.8342 58.5153C61.8173 51.188 61.1385 38.5283 62.0903 27.5163Z" fill="white"/>
<path d="M22.1858 -13.8157C21.534 -18.1362 29.2733 -22.8926 33.9758 -13.8157C33.5338 -3.48272 34.4996 6.85028 27.9296 17.1833C21.9127 9.85595 21.2339 -2.80369 22.1858 -13.8157Z" fill="white"/>
<path d="M98.9719 -15.3352C98.3201 -19.6558 106.059 -24.4121 110.762 -15.3352C110.32 -5.00225 111.286 5.33075 104.716 15.6637C98.6988 8.33642 98.02 -4.32323 98.9719 -15.3352Z" fill="white"/>
<path d="M175.456 -12.5999C174.804 -16.9204 182.543 -21.6768 187.246 -12.5999C186.804 -2.2669 187.769 8.0661 181.2 18.3991C175.183 11.0718 174.504 -1.58787 175.456 -12.5999V-12.5999Z" fill="white"/>
<path d="M24.6042 316.536C23.9525 312.215 31.6918 307.459 36.3942 316.536C35.9523 326.869 36.918 337.202 30.3481 347.535C24.3312 340.208 23.6524 327.548 24.6042 316.536Z" fill="white"/>
<path d="M101.693 313.193C101.041 308.873 108.78 304.116 113.483 313.193C113.041 323.526 114.006 333.859 107.436 344.192C101.42 336.865 100.741 324.205 101.693 313.193V313.193Z" fill="white"/>
<path d="M179.083 308.634C178.432 304.314 186.171 299.558 190.873 308.634C190.431 318.967 191.397 329.3 184.827 339.633C178.81 332.306 178.132 319.647 179.083 308.634V308.634Z" fill="white"/>
<path d="M62.9973 373.975C62.3455 369.655 70.0848 364.898 74.7873 373.975C74.3454 384.308 75.3111 394.641 68.7411 404.974C62.7242 397.647 62.0454 384.987 62.9973 373.975Z" fill="white"/>
<path d="M140.086 369.72C139.434 365.4 147.173 360.644 151.876 369.72C151.434 380.053 152.4 390.386 145.83 400.719C139.813 393.392 139.134 380.732 140.086 369.72Z" fill="white"/>
<path d="M207.39 0.756836V405.89H604.338V0.756836H207.39V0.756836Z" fill="#FFFF00"/>
<path d="M324.187 163.136C316.053 160.748 308.88 163.186 303.025 172.253L284.282 186.537L289.119 192.615C293.452 190.443 297.785 189.035 302.118 191.399C298.422 192.532 294.163 192.332 291.538 195.046C294.679 195.918 294.632 201.996 301.816 196.262L318.141 197.478C324.147 205.611 335.783 211.216 341.527 220.882C344.048 225.123 347.431 228.543 349.883 232.731L328.721 244.888C325.354 245.232 319.639 250.911 331.744 254.309L345.046 263.123L342.325 256.133L334.163 250.662L336.581 247.015L359.254 239.418L362.278 243.368C353.046 244.624 340.635 243.112 342.2 255.221C343.958 262.954 347.2 269.093 356.836 264.946C362.681 277.03 368.525 273.976 374.37 276.799C377.695 278.319 379.674 280.74 386.16 280.142L389.788 286.828L392.508 286.524L387.671 273.76L377.091 272.544L371.649 265.554L383.741 266.162C384.945 263.325 382.087 260.489 375.881 257.652L371.347 257.956V260.084C368.508 261.184 364.035 260.97 358.348 259.78C351.792 254.061 349.792 249.772 361.371 249.751C368.122 247.906 374.874 248.564 381.625 243.672C397.82 245.206 412.108 243.672 425.46 240.633C432.669 244.432 437.529 250.807 450.551 248.231C450.551 248.231 469.899 254.902 471.411 255.51C472.922 256.117 496.804 262.515 496.804 262.515C506.624 269.572 515.311 280.044 527.337 280.446L534.593 286.524L537.011 286.22L530.058 273.76L521.896 272.848L516.152 267.985H521.594L524.012 270.417L527.337 270.113L519.477 260.387H511.315C505.322 255.424 502.558 250.46 492.27 245.496C489.968 240.985 484.672 238.882 478.364 237.594L471.108 226.957L467.481 209.634C478.828 212.939 478.546 205.085 481.689 200.517C475.139 201.052 468.589 203.843 462.039 201.125C456.17 197.702 451.099 193.566 441.784 193.223C423.174 193.964 404.699 194.841 383.741 193.223C377.629 186.48 371.929 187.632 366.208 188.36C353.855 181.674 341.52 174.988 335.07 168.302L343.837 168.606L347.464 169.822L377.695 170.126L383.741 168.606L408.228 167.39C411.554 166.348 414.879 165.771 418.204 161.616L424.251 155.842L421.53 154.93C417.457 157.901 413.575 161.642 409.135 163.136H398.857C400.271 159.894 399.52 156.652 398.554 153.411L396.741 153.714C393.492 158.963 391.263 165.306 382.23 164.351L384.951 159.489L385.253 155.538H382.532C381.573 161.003 378.449 164.962 372.254 166.783H364.394V164.959C365.415 159.705 369.597 157.628 372.858 154.626L371.649 154.322C366.395 156.233 361.649 158.654 360.766 164.959L346.558 164.351C352.779 161.819 352.139 159.286 353.511 156.754C348.573 160.806 343.635 160.015 338.698 160.704H335.977C339.759 158.114 340.492 155.908 341.116 153.714H339C335.468 156.634 332.375 161.315 328.117 161.312C326.434 156.685 329.945 153.594 335.07 150.979L380.416 151.283C392.149 147.338 393.394 140.149 394.927 133.048H392.811C389.496 138.124 386.291 143.311 381.021 146.421L368.324 146.725C367.811 140.131 373.052 139.321 376.184 136.392V134.568C368.709 134.346 363.002 138.035 359.557 146.725L350.488 146.421C348.863 139.023 354.075 137.925 356.836 134.568V130.617C351.417 133.583 344.35 133.362 343.837 145.813L334.163 146.421C332.031 142.322 333.273 139.579 337.186 137.911L336.279 134.568C332.696 137.79 325.786 138 329.628 147.94L325.396 153.411C322.648 150.473 322.929 147.535 324.187 144.597H321.164C321.127 147.738 318.366 150.878 322.675 154.018C319.551 155.138 316.428 157.495 313.304 154.018C311.735 149.329 313.588 146.361 314.211 142.774L310.583 145.205C305.374 154.611 310.155 160.85 322.675 159.185L324.187 163.136V163.136Z" fill="#1A1A1A"/>
<path d="M321.757 171.579C321.757 172.003 321.68 172.422 321.529 172.813C321.379 173.204 321.158 173.56 320.881 173.859C320.603 174.159 320.273 174.396 319.91 174.558C319.546 174.72 319.157 174.804 318.764 174.804C318.371 174.804 317.982 174.72 317.619 174.558C317.255 174.396 316.925 174.159 316.647 173.859C316.37 173.56 316.149 173.204 315.999 172.813C315.848 172.422 315.771 172.003 315.771 171.579C315.771 171.156 315.848 170.736 315.999 170.345C316.149 169.954 316.37 169.598 316.647 169.299C316.925 169 317.255 168.762 317.619 168.6C317.982 168.438 318.371 168.354 318.764 168.354C319.157 168.354 319.546 168.438 319.91 168.6C320.273 168.762 320.603 169 320.881 169.299C321.158 169.598 321.379 169.954 321.529 170.345C321.68 170.736 321.757 171.156 321.757 171.579V171.579Z" fill="#FFFF00"/>
</g>
<defs>
<clipPath id="clip0_1_3217">
<rect width="600" height="400" fill="white"/>
</clipPath>
</defs>
</svg>
