<svg width="600" height="400" viewBox="0 0 600 400" fill="none" xmlns="http://www.w3.org/2000/svg" xmlns:cgf="https://coding.garden/flags"><metadata id="cgf-metadata">

<cgf:flag>
  <cgf:name>Oldebroek</cgf:name>
  <cgf:route>nl/ge/oldebroek</cgf:route>
  <cgf:aspect-ratio>1.5</cgf:aspect-ratio>
</cgf:flag>

</metadata><g clip-path="url(#clip0_1_3269)">
<path d="M0.150205 0.0253906L0.0322266 399.966H599.966L599.933 0.0253906H0.150205V0.0253906Z" fill="#0C40AA"/>
<path d="M-0.14284 0.00390625L-0.18335 195.635H205.782L205.771 0.00390625H-0.142869H-0.14284Z" fill="white"/>
<path d="M204.957 -0.0996094L204.879 195.685H600.125L600.104 -0.0996094H204.957H204.957Z" fill="#FCDD09"/>
<path d="M41.7417 27.2724C40.8496 27.4528 40.6238 22.6261 40.384 20.303L39.1024 20.6698L39.4215 23.7877L39.4508 27.4454L35.6678 25.3187L34.7971 26.3008L39.9805 30.0251L40.7006 42.1027L27.516 28.2532L26.1559 28.923L41.0223 46.1631L40.0632 58.818L26.6379 46.8361L25.7556 48.576L39.6605 62.1193L38.8642 72.5734L15.8452 56.6172L15.2036 58.0493L38.4582 75.6642L36.3042 85.2906L21.2005 75.5111L20.6407 77.1585L35.5072 88.5297L36.2282 88.804L36.9457 111.455L37.1857 113.656L35.2674 112.372L34.7879 95.1322L23.9977 87.6126L17.2838 86.6956L17.0438 85.5952L14.646 85.2284L13.6869 79.9096L9.37087 78.259L7.69238 72.7568L5.29454 69.4555L7.93216 68.5385L7.69222 65.9708H5.29438L4.57506 52.5823L3.13635 50.9316L4.33525 46.8967L10.0901 45.2461L8.89113 41.0277L9.61052 33.3247L13.6867 34.0583V31.3073L18.0028 32.2243L21.12 21.4034L27.8339 21.2201L31.1908 18.8358L34.7876 15.7179L38.8638 15.5346L41.7412 12.6001L42.2208 9.29883L46.0573 12.2333L50.3734 18.4691L56.8475 19.7529L62.3625 21.9538L65.9592 28.1896L72.9129 33.3249L75.5505 37.1764L77.2289 40.2943L74.3516 41.9449L72.4333 45.0628L81.0654 49.0977C81.0654 49.0977 80.8258 54.4165 80.8258 55.1501C80.8258 55.8837 78.428 57.9012 78.428 57.9012L80.1065 60.8356L79.8665 69.6391L78.188 71.4732L80.5858 75.1412L75.7902 76.9753L72.6731 80.2766L70.0355 83.2111L65.9592 85.9622L64.7602 89.2634L54.9292 89.997L43.4197 97.7001L41.5014 101.918L41.0219 111.455L37.6649 113.656V111.089L39.5832 108.154L40.3025 99.7175L40.5424 89.08L60.9239 76.2417L59.725 74.591L40.4622 85.5315L41.0195 85.2588L42.5367 75.4984L68.1173 57.351L66.9193 56.434L43.0998 71.7778L43.6589 61.1706L64.5207 42.4952V40.1109L43.3398 57.3813L43.5018 45.9799L56.2078 31.7365L54.9295 30.5738L43.5803 42.9242L41.9846 29.7174L48.4553 24.3381L47.4962 23.421L41.7415 27.2725L41.7417 27.2724V27.2724Z" fill="#078930" stroke="black" stroke-width="0.0284416"/>
<path d="M97.0952 106.953C96.2031 107.133 95.9774 102.307 95.7376 99.9836L94.4559 100.35L94.7751 103.468L94.8044 107.126L91.0213 104.999L90.1507 105.981L95.334 109.706L96.0542 121.783L82.8695 107.934L81.5094 108.604L96.3759 125.844L95.4167 138.499L81.9915 126.517L81.1092 128.257L95.014 141.8L94.2178 152.254L71.1988 136.298L70.5572 137.73L93.8118 155.345L91.6578 164.971L76.5541 155.192L75.9943 156.839L90.8608 168.21L91.5818 168.485L92.2993 191.136L92.5392 193.337L90.621 192.053L90.1415 174.813L79.3513 167.293L72.6374 166.376L72.3974 165.276L69.9996 164.909L69.0405 159.59L64.7244 157.94L63.046 152.437L60.6481 149.136L63.2857 148.219L63.0458 145.651H60.648L59.9286 132.263L58.4899 130.612L59.6888 126.577L65.4436 124.927L64.2447 120.708L64.9641 113.005L69.0403 113.739V110.988L73.3564 111.905L76.4736 101.084L83.1875 100.901L86.5444 98.5165L90.1412 95.3986L94.2174 95.2153L97.0948 92.2808L97.5744 88.9795L101.411 91.914L105.727 98.1497L112.201 99.4336L117.716 101.634L121.313 107.87L128.266 113.006L130.904 116.857L132.583 119.975L129.705 121.626L127.787 124.743L136.419 128.778C136.419 128.778 136.179 134.097 136.179 134.831C136.179 135.564 133.782 137.582 133.782 137.582L135.46 140.516L135.22 149.32L133.542 151.154L135.939 154.822L131.144 156.656L128.027 159.957L125.389 162.892L121.313 165.643L120.114 168.944L110.283 169.678L98.7732 177.381L96.855 181.599L96.3755 191.136L93.0185 193.337V190.769L94.9367 187.835L95.6561 179.398L95.896 168.761L116.277 155.922L115.079 154.272L95.8158 165.212L96.373 164.939L97.8902 155.179L123.471 137.032L122.273 136.115L98.4534 151.458L99.0125 140.851L119.874 122.176V119.792L98.6933 137.062L98.8554 125.661L111.561 111.417L110.283 110.254L98.9339 122.605L97.3382 109.398L103.809 104.019L102.85 103.102L97.095 106.953L97.0952 106.953H97.0952Z" fill="#06882F" stroke="black" stroke-width="0.0284416"/>
<path d="M162.54 25.1064C161.648 25.2868 161.422 20.4601 161.183 18.137L159.901 18.5038L160.22 21.6217L160.249 25.2794L156.466 23.1527L155.596 24.1348L160.779 27.859L161.499 39.9367L148.315 26.0872L146.954 26.757L161.821 43.9971L160.862 56.652L147.436 44.6701L146.554 46.41L160.459 59.9533L159.663 70.4074L136.644 54.4511L136.002 55.8833L159.257 73.4982L157.103 83.1246L141.999 73.3451L141.439 74.9925L156.306 86.3636L157.027 86.6379L157.744 109.289L157.984 111.49L156.066 110.206L155.586 92.9662L144.796 85.4466L138.082 84.5296L137.842 83.4292L135.445 83.0623L134.485 77.7436L130.169 76.093L128.491 70.5908L126.093 67.2895L128.731 66.3725L128.491 63.8048H126.093L125.374 50.4163L123.935 48.7656L125.134 44.7307L130.889 43.08L129.69 38.8617L130.409 31.1587L134.485 31.8923V29.1413L138.801 30.0583L141.919 19.2374L148.632 19.0541L151.989 16.6698L155.586 13.5519L159.662 13.3686L162.54 10.4341L163.019 7.13281L166.856 10.0673L171.172 16.3031L177.646 17.5869L183.161 19.7878L186.758 26.0235L193.711 31.1589L196.349 35.0104L198.028 38.1283L195.15 39.7789L193.232 42.8968L201.864 46.9317C201.864 46.9317 201.624 52.2505 201.624 52.9841C201.624 53.7177 199.227 55.7352 199.227 55.7352L200.905 58.6696L200.665 67.4731L198.987 69.3071L201.384 72.9752L196.589 74.8093L193.472 78.1106L190.834 81.0451L186.758 83.7961L185.559 87.0974L175.728 87.831L164.218 95.5341L162.3 99.7524L161.82 109.289L158.463 111.49V108.923L160.382 105.988L161.101 97.5515L161.341 86.914L181.722 74.0757L180.524 72.425L161.261 83.3655L161.818 83.0928L163.335 73.3324L188.916 55.1849L187.718 54.2679L163.898 69.6118L164.457 59.0046L185.319 40.3291V37.9449L164.138 55.2152L164.3 43.8139L177.006 29.5705L175.728 28.4078L164.379 40.7582L162.783 27.5514L169.254 22.172L168.295 21.255L162.54 25.1065L162.54 25.1064V25.1064Z" fill="#06882F" stroke="black" stroke-width="0.0284416"/>
</g>
<defs>
<clipPath id="clip0_1_3269">
<rect width="600" height="400" fill="white"/>
</clipPath>
</defs>
</svg>
