<svg width="600" height="400" viewBox="0 0 600 400" fill="none" xmlns="http://www.w3.org/2000/svg" xmlns:cgf="https://coding.garden/flags"><metadata id="cgf-metadata">

<cgf:flag>
  <cgf:name>Oost Gelre</cgf:name>
  <cgf:route>nl/ge/oost_gelre</cgf:route>
  <cgf:aspect-ratio>1.5</cgf:aspect-ratio>
</cgf:flag>

</metadata><g clip-path="url(#clip0_1_3277)">
<path d="M600.004 0.00683594H-0.00610352V400.003H600.004V0.00683594Z" fill="#84218C"/>
<path d="M545.653 397.354C539.814 395.493 536.058 391.356 535.088 385.718C533.888 378.744 538.799 371.77 546.222 369.905L547.919 369.479L547.083 367.835C546.622 366.931 545.637 365.434 544.894 364.51C543.687 363.009 543.374 362.808 541.978 362.636C541.118 362.531 540.292 362.369 540.144 362.277C539.996 362.185 539.97 361.473 540.091 360.694C540.268 359.543 540.936 358.487 543.645 355.088L546.982 350.901V345.421V339.941L545.846 340.414C540.736 342.539 535.337 337.904 537.877 333.572C540.628 328.879 548.948 330.595 548.948 335.856V337.252H551.815C555.081 337.252 557.916 338.003 560.663 339.582C562.892 340.863 566.463 344.226 568.302 346.778C570.821 350.271 570.689 350.15 571.507 349.715C572.262 349.312 573.52 349.51 573.52 350.031C573.52 350.195 572.931 350.628 572.21 350.994C571.489 351.36 570.9 351.776 570.9 351.918C570.9 352.206 572.428 353.404 574.153 354.466L575.29 355.166L576.944 354.249C579.382 352.897 581.813 352.299 584.869 352.299C591.718 352.299 597.578 356.679 599.233 363.035C600.842 369.217 597.937 375.646 592.147 378.719C587.311 381.285 582.317 381.334 577.416 378.863C575.055 377.673 572.468 375.116 571.375 372.892C570.843 371.811 570.283 370.918 570.131 370.908C569.979 370.89 569.426 371.194 568.902 371.565C568.149 372.099 567.95 372.49 567.946 373.441C567.928 375.3 567.656 375.527 565.677 375.266L563.957 375.038L564.187 372.149L564.416 369.26H561.059C558.445 369.26 557.622 369.151 557.339 368.767C557.005 368.315 551.351 367.084 551.039 367.395C550.969 367.466 551.063 367.953 551.245 368.478C551.526 369.281 551.854 369.498 553.295 369.836C562.54 372.002 567.492 381.715 563.462 389.777C562.311 392.078 559.418 395.02 557.209 396.134C553.541 397.985 549.111 398.45 545.654 397.349L545.653 397.354ZM551.849 395.018C558.303 393.975 562.966 388.417 562.273 382.593C561.735 378.076 557.859 373.613 553.698 372.722L552.716 372.511L552.609 376.479C552.474 381.469 552.342 381.831 550.568 382.114C549.81 382.235 549.115 382.26 549.026 382.171C548.935 382.081 549.083 380.06 549.35 377.676C549.947 372.371 549.843 372.036 547.687 372.325C543.788 372.846 539.529 376.243 538.131 379.949C535.679 386.445 540.321 393.779 547.652 394.988C548.635 395.151 549.514 395.3 549.604 395.319C549.694 395.339 550.704 395.204 551.85 395.018L551.849 395.018ZM589.133 377.364C591.416 376.525 593.361 375.176 594.68 373.517C599.231 367.791 597.125 359.698 590.23 356.416C588.265 355.48 587.834 355.402 584.66 355.402C581.669 355.402 580.995 355.508 579.494 356.217L577.768 357.033L582.5 360.769C587.538 364.748 587.434 364.584 585.982 366.276L585.327 367.039L580.699 363.393C578.153 361.386 575.955 359.869 575.813 360.02C575.673 360.172 574.804 361.994 573.884 364.072L572.212 367.849L572.73 369.585C574.725 376.274 582.309 379.87 589.133 377.364ZM551.388 360.858C553.231 359.846 554.495 358.056 555.355 355.238C555.73 354.011 556.317 353.043 557.214 352.173L558.524 350.902L556.275 349.486C555.038 348.707 553.948 348.068 553.852 348.066C553.758 348.066 553.136 349.154 552.473 350.489C551.704 352.035 550.263 354.039 548.499 356.015L545.732 359.116L546.069 360.439L546.406 361.762L548.087 361.744C549.291 361.744 550.226 361.485 551.388 360.847V360.858ZM472.609 390.752C466.752 388.237 461.838 386.061 461.689 385.916C461.539 385.771 462.394 383.594 463.588 381.078C465.814 376.389 466.292 374.812 465.927 373.365C465.148 370.274 458.412 366.602 453.384 366.527C451.238 366.496 450.948 366.57 450.085 367.392C449.506 367.944 448.338 370.128 447.074 373.019C445.938 375.618 444.835 377.745 444.623 377.745C444.292 377.745 423.478 369.031 423.199 368.776C423.144 368.726 423.838 367.041 424.742 365.032L426.384 361.379L424.762 361.601C423.035 361.837 422.903 361.743 422.73 360.162C422.649 359.411 423.006 359.259 430.847 356.72L439.049 354.064L461.452 363.359L483.856 372.654L487.267 379.678C489.143 383.541 490.704 386.827 490.736 386.979C490.767 387.133 490.471 387.477 490.077 387.745C489.397 388.209 489.316 388.166 488.468 386.891C487.977 386.152 487.476 385.663 487.353 385.805C487.231 385.946 486.333 388.153 485.358 390.709C484.382 393.264 483.511 395.348 483.421 395.339C483.33 395.321 478.465 393.267 472.609 390.752ZM478.859 385.272C479.61 384.525 479.817 384.027 479.817 382.964C479.817 380.983 478.465 379.702 476.377 379.702C474.288 379.702 472.936 380.983 472.936 382.964C472.936 384.945 474.288 386.226 476.377 386.226C477.625 386.226 478.075 386.052 478.859 385.272V385.272ZM437.764 369.288C440.039 367.907 439.826 364.73 437.381 363.575C435.713 362.787 433.87 363.296 432.95 364.797C431.99 366.365 432.126 367.515 433.424 368.808C434.733 370.111 436.15 370.268 437.764 369.288ZM519.784 382.47C518.885 381.546 518.671 381.043 518.547 379.55C518.465 378.557 518.322 377.745 518.231 377.745C518.141 377.745 517.499 378.255 516.806 378.879C515.411 380.133 514.308 380.529 513.072 380.221C512.322 380.033 512.252 379.864 512.252 378.221C512.252 376.571 512.361 376.308 513.605 374.965L514.957 373.505H513.246C511.442 373.505 510.019 372.892 509.352 371.829C509.025 371.307 509.088 371.08 509.746 370.425C510.535 369.64 512.44 368.943 513.809 368.94C514.758 368.94 514.738 368.788 513.608 367.354C512.327 365.731 511.597 364.24 511.597 363.246C511.597 362.51 511.732 362.415 512.765 362.415C514.136 362.415 514.859 362.758 516.783 364.319C518.37 365.608 518.791 365.428 518.8 363.458C518.8 362.214 519.424 360.887 520.411 359.997C520.981 359.484 521.242 359.439 521.902 359.738C523.121 360.292 523.761 361.534 523.962 363.74L524.145 365.74L524.945 364.723C525.384 364.164 526.166 363.489 526.682 363.224C527.762 362.668 529.483 362.585 529.787 363.074C530.166 363.684 529.575 365.356 528.471 366.795L527.382 368.216L528.793 368.609C529.644 368.846 530.687 369.494 531.417 370.238C532.464 371.307 532.579 371.567 532.26 372.159C531.783 373.047 530.245 373.83 528.979 373.83C528.43 373.83 527.98 373.933 527.98 374.062C527.98 374.19 528.604 374.927 529.367 375.701C530.556 376.907 530.748 377.295 530.719 378.417C530.7 379.138 530.587 379.823 530.469 379.941C530.352 380.059 529.478 380.164 528.531 380.173C527.068 380.191 526.605 380.031 525.463 379.13C524.723 378.547 524.045 378.07 523.957 378.07C523.868 378.07 523.691 378.765 523.563 379.613C523.32 381.227 522.444 382.747 521.454 383.275C520.995 383.519 520.641 383.349 519.784 382.469L519.784 382.47ZM461.892 361.798C450.142 356.848 440.64 352.686 440.778 352.548C441.086 352.242 473.686 335.314 473.754 335.425C473.871 335.612 483.374 370.722 483.318 370.759C483.283 370.781 473.643 366.749 461.892 361.798ZM497.073 368.271C496.166 367.56 495.548 365.877 495.545 364.107V363.028L493.989 364.329C492.222 365.806 491.002 366.223 490.006 365.693C489.45 365.397 489.32 365.018 489.32 363.701C489.32 362.255 489.468 361.916 490.635 360.654L491.949 359.234L490.129 359.084C485.592 358.71 485.313 355.172 489.782 354.67C490.617 354.576 491.369 354.391 491.452 354.257C491.535 354.123 491.121 353.372 490.533 352.588C488.807 350.288 488.195 348.391 489.014 347.886C489.742 347.439 491.65 348.139 493.525 349.542C494.595 350.343 495.562 350.998 495.672 350.998C495.782 350.998 495.873 350.414 495.873 349.7C495.873 347.981 496.721 345.943 497.702 345.302C498.424 344.831 498.563 344.831 499.285 345.302C500.387 346.021 501.115 347.716 501.115 349.564V351.131L502.343 349.942C503.757 348.575 505.186 347.945 506.262 348.214C507.52 348.528 507.126 350.427 505.337 352.676C504.39 353.866 504.374 353.934 505.035 353.934C506.429 353.934 509.633 356.105 509.633 357.049C509.633 357.876 507.92 359.124 506.492 359.337C505.697 359.455 505.046 359.643 505.046 359.752C505.046 359.862 505.643 360.468 506.372 361.101C507.305 361.912 507.748 362.589 507.869 363.393C508.122 365.062 507.486 365.728 505.613 365.757C504.329 365.775 503.834 365.585 502.523 364.569C501.665 363.903 500.935 363.476 500.901 363.621C500.866 363.765 500.746 364.573 500.631 365.416C500.491 366.459 500.125 367.268 499.491 367.944C498.388 369.12 498.193 369.147 497.075 368.271L497.073 368.271ZM410.969 365.183C409.391 364.33 409.468 362.673 411.175 360.784C412.306 359.531 430.623 332.567 431.048 331.528C431.276 330.972 431.408 328.809 431.385 326.028L431.346 321.444L432.356 320.85C432.949 320.502 433.453 320.385 433.575 320.567C433.689 320.738 434.336 321.542 435.012 322.353L436.24 323.829V327.406C436.24 331.225 435.731 333.643 434.501 335.668C434.12 336.295 429.846 342.883 425.005 350.306C420.163 357.729 416.122 364.01 416.024 364.262C415.54 365.521 412.587 366.059 410.968 365.183H410.969ZM520.176 356.398C519.441 355.565 519.127 354.811 518.96 353.483L518.735 351.691L517.103 352.975C515.97 353.867 515.148 354.26 514.418 354.26C513.008 354.26 512.58 353.75 512.58 352.067C512.58 350.872 512.783 350.438 513.909 349.223L515.237 347.788L513.394 347.559C511.393 347.31 509.631 346.175 509.631 345.135C509.631 344.294 511.03 343.501 513.233 343.093L515.143 342.739L513.885 341.079C512.557 339.328 511.925 337.997 511.925 336.951C511.925 336.436 512.157 336.32 513.19 336.32C514.421 336.32 515.404 336.828 518.021 338.815L519.041 339.589L519.224 337.828C519.541 334.766 520.965 332.94 522.427 333.72C523.609 334.349 524.373 336.005 524.374 337.937V339.718L525.817 338.308C526.983 337.169 527.547 336.867 528.765 336.73C530.221 336.568 530.272 336.589 530.272 337.43C530.272 338.653 529.521 340.261 528.522 341.178C527.571 342.051 527.651 342.517 528.751 342.517C529.729 342.517 532.081 344.063 532.614 345.055C533.005 345.782 532.952 345.926 531.978 346.792C531.245 347.444 530.57 347.736 529.794 347.736C528.244 347.736 528.118 348.174 529.37 349.215C530.733 350.348 531.229 351.226 531.243 352.536C531.267 354.623 528.307 354.963 525.993 353.139C524.403 351.887 524.047 351.913 524.047 353.28C524.047 353.796 523.917 354.558 523.757 354.974C523.454 355.767 521.84 357.523 521.415 357.523C521.278 357.523 520.72 357.017 520.175 356.399L520.176 356.398ZM362.433 342.436C349.139 335.96 338.376 330.548 338.515 330.409C338.654 330.27 341.628 328.985 345.121 327.553L351.473 324.947L353.64 326.654C354.832 327.593 356.386 328.794 357.095 329.323L358.384 330.286L357.204 328.166C352.585 319.867 354.439 313.357 363.014 307.764C364.456 306.824 366.486 305.64 367.526 305.133C369.322 304.258 369.482 304.078 370.716 301.54C373.753 295.293 378.761 293.126 396.661 290.314L399.181 289.918L400.361 288.149C403.07 284.088 408.314 279.771 411.786 278.744C417.382 277.09 421.129 279.477 421.806 285.129C421.967 286.464 422.474 288.491 422.935 289.633L423.773 291.711L422.881 291.534C422.39 291.436 421.061 291.252 419.927 291.125C418.052 290.914 417.792 290.961 417.06 291.646C416.618 292.06 416.255 292.498 416.255 292.619C416.255 292.74 416.851 293.106 417.579 293.433C418.413 293.808 418.867 294.212 418.806 294.527C418.749 294.821 416.55 295.997 413.469 297.381L408.228 299.734L408.289 300.984C408.544 306.149 408.502 307.167 407.994 308.105C406.852 310.215 404.344 311.914 400.255 313.349L398.507 313.962L398.722 319.841C398.971 326.632 398.536 330.018 397.034 332.973C394.55 337.861 389.202 340.481 380.33 341.157L377.46 341.376L381.54 343.563C383.784 344.766 385.867 345.94 386.168 346.172C386.597 346.504 386.764 347.422 386.944 350.427C387.072 352.561 387.047 354.249 386.889 354.235C386.732 354.217 375.727 348.912 362.432 342.436L362.433 342.436ZM576.06 340.969L570.244 340.873V340.092C570.244 339.662 570.15 339.065 570.034 338.766C569.844 338.273 570.197 338.232 573.803 338.331L577.781 338.442V333.855V329.269L576.178 328.86C573.926 328.285 572.09 326.832 571.088 324.83C570.376 323.407 570.245 322.704 570.245 320.294C570.245 318.725 570.11 317.358 569.944 317.256C569.778 317.153 568.922 317.517 568.041 318.062C565.366 319.718 563.278 319.834 559.248 318.552C558.695 318.377 558.042 318.911 555.658 321.497L552.744 324.657L553.877 325.652C554.5 326.199 555.81 327.368 556.788 328.25L558.565 329.854L557.45 330.723C556.837 331.201 556.239 331.592 556.121 331.592C555.88 331.592 543.582 320.683 543.473 320.374C543.434 320.263 543.746 319.759 544.163 319.251L544.922 318.326L547.609 320.719C549.087 322.035 550.445 323.111 550.627 323.111C550.808 323.111 552.27 321.646 553.873 319.856C556.777 316.615 556.787 316.598 556.245 315.779C554.95 313.82 554.682 312.949 554.682 310.692C554.682 308.74 554.816 308.187 555.546 307.104C556.423 305.804 564.617 296.201 564.85 296.201C565.068 296.201 577.611 307.379 577.73 307.68C577.792 307.837 577.665 308.181 577.444 308.444C577.096 308.861 577.701 308.922 582.144 308.922C584.949 308.922 587.317 309.039 587.406 309.184C587.495 309.329 587.615 312.227 587.671 315.626C587.76 321.019 587.695 322.032 587.153 323.581C586.326 325.946 583.958 328.334 581.896 328.883L580.402 329.281V333.617V337.952H583.651C587.554 337.952 587.937 338.068 587.937 339.265C587.937 341.133 587.788 341.221 584.708 341.141C583.151 341.099 579.259 341.025 576.061 340.971L576.06 340.969ZM497.653 332.685L497.89 325.182L492.374 325.287L486.858 325.392L485.193 324.332C483.593 323.313 483.395 323.272 480.187 323.272C475.184 323.272 473.546 322.306 474.718 320.049C474.996 319.513 476.051 318.105 477.062 316.918C479.09 314.539 479.572 312.977 478.829 311.191C478.511 310.427 477.918 309.965 476.335 309.251C474.722 308.522 474.138 308.062 473.719 307.188C473.2 306.103 473.209 305.999 473.998 304.311C474.448 303.347 475.623 301.679 476.609 300.602C478.328 298.726 478.411 298.553 478.609 296.407C478.722 295.176 479.083 293.708 479.41 293.145C480.151 291.866 481.867 290.981 483.606 290.98C484.785 290.98 485.211 290.735 487.303 288.86C489.683 286.726 492.366 285.108 493.527 285.108C493.92 285.108 494.312 284.727 494.578 284.086C494.812 283.524 495.359 282.644 495.794 282.129C496.96 280.75 498.086 280.886 500.286 282.67C502.707 284.633 504.066 285.432 504.986 285.433C505.403 285.433 506.396 285.88 507.191 286.424C508.323 287.199 508.73 287.739 509.075 288.916C509.5 290.364 509.586 290.441 511.458 291.029C513.62 291.708 514.261 292.114 514.82 293.16C515.342 294.135 515.298 295.292 514.682 296.827C514.166 298.11 514.171 298.137 515.237 299.912C515.966 301.124 516.688 301.873 517.478 302.232C518.94 302.897 519.84 303.63 520.587 304.766C521.482 306.126 521.043 307.593 519.111 309.697L517.476 311.479L519.369 311.857C523.471 312.675 525.216 314.171 524.24 316.032C523.987 316.516 521.911 318.8 519.628 321.109L515.478 325.308L514.023 325.145C513.223 325.055 512.019 324.62 511.346 324.177C509.595 323.024 505.98 322.692 504.407 323.539C503.785 323.874 503.128 324.381 502.947 324.668C502.719 325.027 502.857 327.411 503.39 332.389C503.816 336.349 504.104 339.641 504.031 339.704C503.957 339.768 502.44 339.902 500.658 340.003L497.417 340.187L497.654 332.685L497.653 332.685ZM446.562 328.2C438.664 325.906 433.62 319.535 433.62 311.856C433.62 300.92 444.595 292.594 455.339 295.38C466.529 298.282 471.897 309.911 466.619 319.817C463.039 326.537 453.934 330.342 446.562 328.2ZM453.049 323.91C454.07 323.722 455.719 323.197 456.713 322.744L458.521 321.92L455.342 318.53C453.593 316.666 452.131 315.173 452.091 315.212C452.052 315.252 451.354 317.219 450.54 319.584C449.078 323.833 449.069 323.887 449.777 324.024C451.016 324.264 451.15 324.259 453.049 323.91V323.91ZM448.078 318.927C448.912 316.742 449.55 314.905 449.496 314.844C449.443 314.785 447.401 315.04 444.96 315.415C442.52 315.79 440.448 316.097 440.356 316.097C440.081 316.097 440.743 317.607 441.635 319.013C442.477 320.342 446.051 323.398 446.383 323.073C446.481 322.977 447.244 321.111 448.078 318.927V318.927ZM462.948 317.719C463.731 316.212 464.117 313.526 463.844 311.485L463.599 309.646L459.414 311.299C457.112 312.208 455.269 313.071 455.318 313.215C455.427 313.541 461.871 318.667 462.198 318.69C462.327 318.708 462.666 318.262 462.948 317.719ZM445.259 306.8C447.041 304.827 448.859 302.814 449.3 302.327C449.981 301.576 450.036 301.364 449.669 300.923C448.45 299.46 448.315 299.545 443.475 304.815C440.938 307.578 438.862 309.932 438.862 310.047C438.862 310.161 439.268 310.608 439.763 311.038L440.664 311.819L441.341 311.104C441.714 310.71 443.477 308.774 445.259 306.8V306.8ZM458.118 307.185L462.14 305.157L460.739 303.794C459.414 302.502 456.759 301.055 454.881 300.6C454.095 300.409 454.01 300.492 453.82 301.639C453.53 303.388 453.554 309.25 453.852 309.23C453.986 309.212 455.907 308.3 458.118 307.185H458.118ZM425.272 322.444L424.054 320.964L423.317 321.755C421.748 323.441 418.742 323.03 417.904 321.015C417.361 319.71 417.812 318.583 419.192 317.795L420.164 317.239L418.815 315.871L417.466 314.502L418.507 313.322C419.079 312.673 429.607 301.269 441.901 287.98L464.254 263.819L464.418 261.925L464.583 260.031L470.316 265.089C473.469 267.872 476.406 270.497 476.843 270.923L477.635 271.699L475.957 271.92L474.279 272.142L464.844 283.022L455.409 293.902H452.912C442.37 293.931 435.458 298.672 433.132 307.47C432.477 309.946 431.873 315.798 432.065 317.8L432.215 319.346L429.626 321.632C428.202 322.89 426.914 323.918 426.765 323.918C426.615 323.918 425.944 323.252 425.274 322.438L425.272 322.444ZM330.435 320.747C328.154 318.234 326.112 314.38 324.484 309.512L323.428 306.351L322.176 307.418C321.487 308.005 320.221 308.864 319.362 309.326C317.282 310.446 310.429 312.647 310.114 312.296C309.683 311.818 308.746 307.529 309.02 307.292C309.165 307.167 310.462 306.661 311.903 306.166C314.38 305.315 319.431 302.908 320.741 301.954C321.287 301.557 321.223 301.499 320.036 301.31C316.118 300.686 313.903 296.224 315.632 292.435C316.779 289.92 319.036 288.73 321.929 289.117C324.785 289.498 326.975 292.443 326.758 295.61L326.646 297.241L327.897 295.823C331.406 291.847 333.642 287.579 335.218 281.847C336.042 278.85 336.05 269.524 335.236 266.61C333.5 260.436 330.295 255.188 325.194 250.171C319.15 244.224 312.59 240.513 304.044 238.208C301.066 237.404 300.261 237.325 295.198 237.341C292.134 237.359 289.242 237.456 288.769 237.581L287.91 237.804L287.679 235.169C287.552 233.721 287.546 232.438 287.661 232.32C287.779 232.203 290.85 232.105 294.484 232.105C300.829 232.105 301.187 232.139 303.487 232.976C306.324 234.008 306.333 233.999 306.088 230.537C305.942 228.482 305.287 226.331 303.655 222.564C303.522 222.256 304.16 222.156 306.264 222.156H309.05L310.126 225.494C310.968 228.104 311.207 229.418 311.226 231.527C311.244 233.01 311.309 234.224 311.382 234.224C311.454 234.225 312.562 233.437 313.84 232.474C317.291 229.873 321.346 225.96 324.825 221.874C326.525 219.876 328.004 218.242 328.111 218.242C328.216 218.242 329.215 219.159 330.329 220.28L332.355 222.319L329.382 225.744C325.842 229.822 321.808 234.019 318.987 236.559L316.938 238.404L318.844 239.418C323.571 241.933 328.963 246.926 333.658 253.136C335.235 255.221 336.804 257.397 337.144 257.971C337.485 258.545 337.892 259.015 338.048 259.015C338.204 259.015 340.544 257.09 343.247 254.737C345.951 252.384 348.283 250.586 348.43 250.741C348.578 250.895 349.142 252.075 349.686 253.361L350.676 255.699L346.244 259.722C343.807 261.934 341.506 263.986 341.131 264.281C340.466 264.804 340.516 264.851 343.08 266.134C349.792 269.494 359.07 273.187 362.932 274.035C363.969 274.263 364.816 274.588 364.816 274.758C364.816 275.362 363.778 279.079 363.541 279.324C363.259 279.616 353.851 276.845 349.457 275.176C347.79 274.542 345.395 273.509 344.136 272.88C342.876 272.251 341.763 271.736 341.662 271.736C341.56 271.736 341.579 272.682 341.704 273.838C341.992 276.507 341.397 281.516 340.378 285.019C339.402 288.37 337.177 293.165 335.362 295.826C334.61 296.928 334.061 297.83 334.142 297.83C334.223 297.83 335.371 298.038 336.693 298.293C339.575 298.846 343.18 300.109 346.305 301.659C349.04 303.015 354.332 306.296 354.332 306.636C354.332 306.892 349.596 310.878 349.291 310.878C349.192 310.878 348.037 310.157 346.725 309.276C341.215 305.578 336.184 303.57 331.435 303.176L328.701 302.949L328.925 303.733C331.077 311.252 332.854 314.864 336.07 318.253L337.343 319.594L335.271 321.051C334.132 321.852 333.028 322.607 332.819 322.729C332.592 322.859 331.621 322.053 330.436 320.747H330.435ZM599.287 319.545C598.874 317.07 596.287 309.348 594.284 304.611C586.495 286.192 571.359 262.923 556.032 245.804C541.362 229.42 531.701 216.584 522.518 201.28C505.54 172.984 496.058 144.342 493.563 113.813C493.043 107.442 493.323 88.8408 494.029 82.8761C496.065 65.6866 500.15 50.3997 506.277 37.0473C508.171 32.9203 511.304 27.024 511.499 27.2186C511.56 27.2818 511.164 28.5493 510.614 30.0353C509.276 33.6486 506.605 42.4611 505.36 47.3713C499.442 70.7094 498.586 93.871 502.769 117.506C505.918 135.298 511.734 153.452 520.355 172.398C522.802 177.776 523.645 179.243 526.837 183.673C539.622 201.419 543.582 206.118 557.757 220.362C574.104 236.788 587.543 252.738 598.568 268.798L600.47 271.569L600.223 292.609C600.086 304.182 599.882 315.338 599.766 317.401C599.574 320.806 599.53 321.004 599.287 319.545V319.545ZM300.316 319.834C298.686 318.468 297.891 315.841 298.051 312.346C298.2 309.101 298.912 307.237 300.471 306.016C302.416 304.493 304.991 305.88 306.04 309.017C308.206 315.496 304.193 323.082 300.316 319.834ZM303.377 317.928C306.082 315.236 304.53 306.372 301.626 307.919C299.426 309.091 299.072 315.691 301.093 317.861C302.064 318.904 302.387 318.914 303.377 317.928V317.928ZM292.819 317.704C288.316 317.126 281.883 314.82 277.226 312.116C268.033 306.777 261.137 299.155 257.695 290.53C255.998 286.276 254.812 280.287 253.903 271.385L253.684 269.24L255.398 268.531C256.341 268.141 257.218 267.822 257.347 267.822C257.475 267.822 257.674 268.959 257.785 270.35C258.077 273.982 259.071 277.219 261.264 281.684C263.508 286.251 266.083 289.811 269.701 293.353C276.948 300.444 284.505 304.02 294.418 305.049L298.22 305.444L297.291 307.427C296.338 309.462 295.233 315.038 295.421 316.862C295.539 318.017 295.46 318.043 292.819 317.704V317.704ZM534.441 304.937L530.582 297.061L531.804 295.815L533.026 294.569L529.602 291.341L526.177 288.113L524.998 288.764L523.818 289.415L516.372 284.776C512.276 282.225 509.047 280.023 509.196 279.883C509.541 279.56 524.444 271.736 524.715 271.736C524.826 271.736 525.262 272.103 525.686 272.551C526.648 273.57 526.912 273.569 527.992 272.533C528.754 271.806 528.911 271.766 529.273 272.199C529.617 272.612 529.47 272.963 528.391 274.312L527.096 275.931L525.941 275.113L524.787 274.295L518.855 276.972C513.119 279.56 511.926 280.389 512.793 281.184C512.947 281.323 515.342 282.578 518.118 283.97L523.164 286.501L524.75 285.996L526.335 285.492L530.74 290.109L535.145 294.726L534.183 295.72C533.654 296.267 533.221 296.82 533.221 296.95C533.221 297.282 538.463 308.699 538.754 308.999C538.945 309.197 545.67 300.443 546.769 298.568C546.961 298.24 546.769 297.802 546.15 297.159L545.253 296.227L549.079 291.807C551.184 289.376 553.087 287.387 553.308 287.387C553.529 287.387 554.249 287.751 554.907 288.197L556.104 289.007L562.351 286.158C565.788 284.592 568.6 283.231 568.602 283.135C568.602 283.039 566.448 281.436 563.811 279.572L559.016 276.184L556.907 276.744L554.797 277.303L551.627 274.382C549.883 272.775 547.912 270.897 547.247 270.209L546.037 268.958L546.952 267.847L547.867 266.736L544.906 260.418C542.591 255.48 541.86 254.19 541.561 254.516C541.35 254.744 539.842 257.158 538.21 259.879L535.242 264.827L536.247 266.187L537.252 267.547L535.482 269.295L533.713 271.043L532.924 270.396L532.134 269.748L533.243 268.61C534.262 267.563 534.314 267.414 533.891 266.747C532.303 264.238 532.055 265.049 536.669 257.697C538.976 254.024 541.023 250.841 541.219 250.624C541.485 250.33 542.759 252.364 546.223 258.614L550.869 266.997L550.044 268.074C549.077 269.336 549.016 269.224 552.252 272.081L554.482 274.049L555.505 273.522L556.528 272.995L564.697 277.823C569.189 280.479 572.863 282.726 572.861 282.818C572.861 282.908 571.127 283.975 569.012 285.186C566.896 286.397 563.302 288.474 561.023 289.8L556.881 292.211L555.454 291.253L554.026 290.295L551.35 293.151L548.674 296.008L549.87 297.037C550.965 297.98 551.025 298.117 550.58 298.676C548.321 301.52 538.667 312.827 538.506 312.818C538.393 312.818 536.563 309.263 534.441 304.931V304.937ZM537.943 301.344L536.276 297.034L537.196 295.59L538.116 294.146L536.838 292.645C536.135 291.819 533.653 289.257 531.321 286.95L527.082 282.758L525.761 283.514L524.44 284.271L521.213 282.854C519.438 282.074 517.581 281.277 517.085 281.081C516.59 280.886 516.184 280.648 516.185 280.553C516.185 280.459 518.412 279.609 521.135 278.668L526.084 276.956L527.073 277.784C527.617 278.24 528.189 278.57 528.346 278.518C528.503 278.465 531.127 276.149 534.178 273.371L539.727 268.32L538.662 267.011C538.077 266.29 537.493 265.525 537.365 265.308C537.124 264.902 540.575 257.705 541.006 257.716C541.222 257.716 545.672 264.505 545.947 265.251C546.006 265.417 545.527 266.246 544.877 267.095C544.227 267.943 543.706 268.784 543.718 268.963C543.753 269.473 552.966 279.564 553.397 279.564C553.608 279.564 554.646 279.183 555.705 278.717L557.628 277.87L561.803 279.928C564.098 281.06 565.868 282.08 565.735 282.194C565.602 282.308 563.542 283.173 561.157 284.115C556.888 285.802 556.783 285.825 554.441 285.591L552.061 285.353L547.424 290.2L542.787 295.046L543.41 296.262C543.753 296.931 544.033 297.636 544.033 297.828C544.033 298.124 539.826 305.664 539.665 305.656C539.633 305.656 538.86 303.714 537.943 301.344V301.344ZM459.068 295.351C457.069 294.329 456.877 294.149 457.265 293.654C457.795 292.979 463.055 286.75 463.613 286.138C463.923 285.797 464.17 285.781 464.707 286.067C465.329 286.398 465.401 286.72 465.401 289.175V291.912L463.387 294.219C462.28 295.487 461.358 296.518 461.339 296.509C461.321 296.491 460.298 295.979 459.068 295.35V295.351ZM373.493 295.006C372.986 294.5 372.903 293.957 373.006 291.81C373.161 288.56 375.73 284.539 377.443 284.865C378.086 284.988 378.244 284.912 378.105 284.552C378.003 284.291 377.922 284.015 377.922 283.938C377.922 283.86 377.148 284.229 376.202 284.756C373.192 286.43 369.181 286.754 368.319 285.393C367.845 284.645 368.909 283.26 370.77 282.202L372.357 281.3L371.044 280.908C370.012 280.6 369.731 280.358 369.731 279.775C369.731 278.829 371.192 277.435 373.221 276.445L374.809 275.67L373.604 275.652C372.485 275.634 371.369 274.987 371.369 274.339C371.369 273.609 373.345 271.867 375.123 271.03C376.985 270.153 377.038 270.097 376.016 270.097C372.743 270.097 372.978 267.653 376.427 265.832C377.249 265.397 377.922 264.95 377.922 264.838C377.922 264.724 377.48 264.545 376.939 264.437C374.858 264.023 376.389 261.438 379.56 260.011L381.034 259.347H379.784C378.332 259.329 377.267 258.858 377.267 258.212C377.267 257.421 378.936 255.747 380.524 254.946C381.972 254.215 385.632 253.342 386.415 253.541C386.612 253.591 390.404 245.454 394.841 235.46L402.908 217.289L404.094 217.782C404.746 218.053 405.392 218.386 405.529 218.523C405.668 218.66 402.158 226.935 397.732 236.914L389.685 255.056L391.161 256.411C393.109 258.199 394.29 260.269 394.535 262.327C394.699 263.7 394.629 264.079 394.157 264.423C393.522 264.886 392.276 264.573 391.319 263.711C390.959 263.386 391.046 263.751 391.591 264.846C393.458 268.602 392.784 270.447 389.965 269.291C389.478 269.092 389.516 269.322 390.231 270.877C390.778 272.067 391.032 273.123 390.966 273.928C390.873 275.041 390.766 275.169 389.844 275.259C389.118 275.329 388.507 275.098 387.715 274.455C387.104 273.958 386.845 273.84 387.139 274.192C388.965 276.379 389.82 280.236 388.644 280.986C388.185 281.279 387.806 281.217 386.842 280.693L385.621 280.029L386.522 281.799C388.281 285.255 387.41 287.338 384.777 285.97L383.932 285.531L384.687 287.358C385.102 288.363 385.445 289.505 385.45 289.896C385.468 290.784 384.548 291.729 383.914 291.487C383.652 291.388 383.308 291.306 383.148 291.306C382.563 291.306 380.492 289.216 379.63 287.754L378.741 286.25L378.517 288.275C378.037 292.597 375.069 296.573 373.493 295.004L373.493 295.006ZM380.884 281.162C380.524 280.373 380.227 279.306 380.223 278.79C380.223 278.032 380.13 277.925 379.765 278.226C379.517 278.431 378.521 279.033 377.553 279.565L375.792 280.531H376.998C377.683 280.531 378.44 280.774 378.753 281.085C379.27 281.6 381.258 282.747 381.45 282.64C381.498 282.613 381.243 281.946 380.884 281.156V281.162ZM383.113 276.419C382.553 275.313 382.181 274.06 382.181 273.276V271.973L381.28 272.88C380.785 273.378 379.642 274.131 378.741 274.552C377.121 275.309 377.114 275.317 378.189 275.321C379.488 275.321 380.543 275.829 380.543 276.446C380.543 276.714 380.776 276.833 381.123 276.743C381.557 276.631 383.128 277.439 384.015 278.231C384.033 278.249 383.626 277.432 383.113 276.419V276.419ZM384.942 270.897C384.325 269.717 383.819 268.386 383.819 267.939V267.125L382.86 267.805C382.333 268.179 381.293 268.756 380.549 269.087L379.198 269.69L380.483 269.894C381.774 270.1 382.716 270.812 382.391 271.336C382.295 271.49 382.627 271.558 383.129 271.484C383.772 271.39 384.323 271.598 384.995 272.185C385.52 272.644 385.975 273.025 386.007 273.03C386.038 273.03 385.559 272.076 384.942 270.897V270.897ZM386.284 264.97C385.83 264.119 385.458 263.239 385.458 263.013C385.458 262.458 385.207 262.507 383.514 263.388L382.063 264.144L383.269 264.54C383.937 264.76 384.475 265.152 384.475 265.42C384.475 265.686 384.585 265.835 384.72 265.752C384.855 265.671 385.408 265.796 385.949 266.033C386.49 266.27 386.972 266.476 387.022 266.49C387.072 266.508 386.74 265.821 386.284 264.97V264.97ZM388.555 260.238C388.117 259.475 387.757 258.613 387.755 258.321C387.736 257.135 386.965 257.06 384.988 258.052L383.072 259.015H384.485C385.262 259.015 386.132 259.226 386.418 259.484C386.841 259.865 389.049 261.49 389.288 261.596C389.325 261.614 388.993 261 388.555 260.238ZM297.16 294.254C296.8 294.102 296.068 293.811 295.535 293.604L294.567 293.228L297.433 291.796C302.606 289.211 309.389 283.995 313.904 279.131L316.076 276.792L315.897 279.347C315.51 284.856 311.09 291.084 305.583 293.882C304.469 294.447 303.665 294.565 301.022 294.548C299.258 294.53 297.52 294.403 297.16 294.254H297.16ZM287.167 292.58C283.216 291.811 278.172 287.97 276.07 284.13L274.967 282.113L276.234 282.943C277.684 283.892 280.269 284.556 281.41 284.27C282.094 284.101 282.314 284.317 283.283 286.131C283.901 287.286 285.414 289.227 286.736 290.562C288.031 291.869 288.989 292.922 288.866 292.902C288.742 292.882 287.978 292.738 287.167 292.58V292.58ZM289.542 289.136C288.326 287.895 286.99 286.261 286.572 285.505L285.815 284.131H287.556C291.512 284.113 296.105 282.596 300.007 280.004C302.435 278.391 307.517 273.601 311.684 268.996L314.021 266.413L314.694 267.928C315.576 269.913 315.644 273.356 314.826 274.598C313.656 276.376 306.504 283.115 303.035 285.708C299.266 288.527 294.94 290.883 292.941 291.206C291.811 291.389 291.642 291.286 289.54 289.142L289.542 289.136ZM285.468 281.974C284.722 281.75 284.382 279.21 284.382 273.856C284.382 270.201 284.487 269.323 285.162 267.495C286.243 264.559 288.323 261.467 291.331 258.33L293.883 255.667L296.996 255.867C300.595 256.099 302.739 256.619 305.609 257.956C307.776 258.966 311.184 261.866 312.156 263.529L312.737 264.522L308.48 269.071C302.138 275.848 297.164 279.718 292.859 281.223C291.007 281.871 286.611 282.317 285.468 281.974V281.974ZM280.45 281.372C278.738 280.852 275.161 279.037 274.844 278.527C274.358 277.744 274.702 272.832 275.402 270.556C276.983 265.42 281.122 260.893 286.839 258.046L288.313 257.312L287.14 258.571C284.532 261.369 283.049 263.839 281.869 267.348C281.208 269.313 281.11 270.225 281.133 274.182C281.151 276.694 281.323 279.405 281.523 280.208C281.724 281.01 281.859 281.69 281.824 281.718C281.787 281.745 281.171 281.59 280.45 281.372V281.372ZM437.134 277.63C425.732 271.267 421.758 265.933 423.611 259.48C424.166 257.544 426.018 254.143 427.49 252.354L428.275 251.401L427.173 248.71C425.193 243.876 424.657 241.359 424.643 236.834C424.625 233.411 424.747 232.447 425.354 230.822C427.07 226.228 429.603 223.307 437.47 216.85C440.038 214.742 442.139 213.075 442.139 213.145C442.139 213.216 441.566 214.648 440.865 216.328C438.414 222.214 437.982 225.911 439.553 227.576C440.23 228.293 442.64 229.298 442.911 228.977C442.972 228.903 443.326 227.595 443.697 226.07C446.104 216.16 449.779 213.039 457.948 213.963C459.718 214.164 462.081 214.33 463.201 214.333H465.237L462.888 215.471C460.428 216.663 458.03 218.938 457.651 220.44C457.54 220.875 457.651 221.841 457.904 222.587C458.153 223.334 458.352 225.136 458.346 226.593C458.327 228.983 458.216 229.481 457.108 231.713C455.79 234.368 454.336 235.85 451.492 237.438C447.566 239.631 443.778 240.334 441.391 239.314C438.84 238.225 436.992 235.033 435.862 229.768C434.888 225.231 434.992 225.401 434.087 226.88C429.621 234.176 430.898 241.971 437.927 250.333L439.819 252.585L439.222 253.432C436.742 256.952 433.471 263.992 432.497 267.905C431.966 270.04 431.969 270.144 432.584 271.004C433.705 272.569 437.161 275.652 438.347 276.145C438.978 276.408 440.021 276.623 440.664 276.623C441.931 276.623 441.923 276.823 440.59 278.497L440.008 279.229L437.133 277.625L437.134 277.63ZM409.435 276.538C408.529 275.45 408.001 273.464 408.01 271.172C408.029 268.069 408.831 266.359 410.611 265.667C410.661 265.648 410.611 265.392 410.493 265.098C410.329 264.675 409.979 264.906 408.797 266.215C405.186 270.214 400.196 271.113 401.72 267.491C401.983 266.865 402.744 265.787 403.411 265.094C404.642 263.814 404.635 263.807 402.639 264.372C402.27 264.477 401.699 264.372 401.372 264.13C400.435 263.448 400.996 261.88 402.929 259.773C403.947 258.663 404.322 258.087 403.87 258.327C403.456 258.547 402.645 258.682 402.068 258.627C399.979 258.425 400.694 255.847 403.552 253.277C404.307 252.598 404.635 252.166 404.282 252.316C403.26 252.752 401.713 252.864 401.221 252.537C400.425 252.008 401.075 250.07 402.624 248.356L404.046 246.783H402.703C401.664 246.783 401.334 246.649 401.242 246.186C401.024 245.085 401.493 244.1 403.059 242.365C403.968 241.359 404.319 240.8 403.903 241.021C402.72 241.652 400.932 241.504 400.693 240.757C400.185 239.163 403.602 235.238 406.556 234.022C408.293 233.307 407.997 234.553 409.37 222.156C410.74 209.784 410.397 211.066 412.337 211.066C413.583 211.066 413.96 211.181 413.96 211.571C413.96 211.848 413.454 216.508 412.835 221.927C412.216 227.345 411.664 232.272 411.606 232.875C411.512 233.886 411.606 234.01 412.813 234.476C415.984 235.699 419.026 238.821 418.817 240.638C418.716 241.511 418.623 241.563 417.181 241.545L415.651 241.527L417.062 243.089C419.297 245.564 419.325 247.273 417.132 247.273H416.125L417.123 248.333C418.635 249.94 419.202 250.914 419.202 251.905C419.202 253.212 417.987 253.475 415.762 252.648C415.402 252.515 415.696 252.851 416.417 253.397C418.272 254.8 419.295 256.304 419.334 257.682L419.367 258.852L417.819 258.832L416.272 258.812L417.727 260.24C419.225 261.71 419.952 263.619 419.272 264.295C419.085 264.482 418.347 264.579 417.632 264.51L416.332 264.386L417.73 265.934C421.573 270.189 418.147 271.771 413.212 268.02L411.723 266.889L412.228 268.363C412.902 270.332 412.669 274.182 411.784 275.694C411.092 276.878 410.034 277.257 409.434 276.537L409.435 276.538ZM412.255 261.706C411.789 261.212 411.115 260.321 410.758 259.726L410.108 258.643L409.369 259.726C408.964 260.321 408.257 261.128 407.799 261.519L406.966 262.23L408.252 262.067C408.96 261.977 410.129 262.047 410.849 262.221C413.009 262.741 413.175 262.68 412.255 261.705V261.706ZM412.334 256.079C411.657 255.451 410.851 254.448 410.544 253.849L409.985 252.762L409.07 254.197C408.567 254.986 407.73 255.954 407.209 256.347L406.262 257.061L407.185 256.733C408.447 256.284 409.691 256.321 409.88 256.813C409.978 257.069 410.693 257.221 411.802 257.221H413.566L412.334 256.079V256.079ZM412.159 251.32C412.576 251.423 413.188 251.608 413.521 251.729C413.853 251.85 413.521 251.447 412.766 250.833C412.019 250.22 411.039 249.162 410.589 248.483L409.77 247.247L409.056 248.398C408.663 249.03 407.8 250.005 407.138 250.564C406.475 251.123 406.255 251.418 406.649 251.22C407.702 250.69 409.685 250.765 409.908 251.345C410.052 251.72 410.241 251.75 410.747 251.48C411.107 251.289 411.742 251.218 412.159 251.321V251.32ZM411.227 243.962C410.478 243.128 409.791 242.433 409.701 242.418C409.611 242.4 409.031 242.998 408.412 243.739L407.287 245.088L408.166 244.92C408.65 244.827 409.27 244.92 409.543 245.115C409.817 245.314 410.614 245.477 411.315 245.477H412.589L411.227 243.961V243.962ZM411.59 238.628C410.768 237.821 409.859 237.16 409.571 237.16C409.283 237.16 408.42 237.77 407.654 238.515C406.888 239.259 406.583 239.7 406.977 239.493C407.916 239 409.166 239.027 411.176 239.583C412.077 239.833 412.875 240.05 412.95 240.066C413.023 240.085 412.413 239.435 411.59 238.628V238.628ZM476.761 262.028L464.117 249.066L469.427 243.944C472.348 241.127 474.825 238.815 474.934 238.807C475.041 238.788 478.045 241.587 481.607 245.004C485.17 248.421 488.148 251.153 488.226 251.076C488.304 250.998 489.232 247.75 490.289 243.857C491.347 239.964 492.289 236.702 492.384 236.608C492.478 236.514 493.412 237.218 494.459 238.173C495.505 239.129 496.814 240.323 497.368 240.827L498.374 241.743L500.942 234.314C502.355 230.228 503.597 226.785 503.704 226.663C503.807 226.54 505.075 227.445 506.515 228.672C507.955 229.9 509.208 230.857 509.3 230.8C509.392 230.742 510.646 227.528 512.088 223.657C513.529 219.785 514.806 216.616 514.925 216.614C515.209 216.614 532.237 234.232 532.237 234.531C532.237 234.659 523.878 242.602 513.66 252.188C503.443 261.773 493.806 270.825 492.244 272.303L489.404 274.99L476.761 262.028ZM485.781 254.336L486.457 253.407L485.428 252.383L484.398 251.358L481.052 254.689L477.706 258.02L478.83 259.175L479.954 260.33L482.53 257.797C483.946 256.403 485.409 254.846 485.781 254.336V254.336ZM478.774 252.083L482.091 248.74L480.937 247.598L479.784 246.457L476.551 249.882L473.319 253.307L474.338 254.367C474.899 254.949 475.379 255.427 475.407 255.427C475.436 255.427 476.949 253.922 478.774 252.083V252.083ZM501.868 252.566L502.787 251.601L500.358 249.038L497.929 246.474L495.917 248.21C494.81 249.165 493.904 250.042 493.905 250.159C493.905 250.274 494.951 251.51 496.228 252.902L498.551 255.434L499.749 254.482C500.408 253.958 501.362 253.096 501.868 252.566ZM476.356 243.037L475.189 241.89L471.902 245.268L468.614 248.645L469.698 249.759L470.782 250.872L474.152 247.528L477.522 244.185L476.356 243.037ZM509.393 244.52C507.04 241.903 505.529 240.423 505.219 240.434C505.032 240.434 504.035 241.239 503.002 242.208L501.125 243.97L503.605 246.595L506.085 249.22L508.188 247.37L510.292 245.52L509.393 244.52ZM515.338 241.247L517.277 239.494L515.263 237.231C512.189 233.78 512.528 233.872 510.363 235.893C509.329 236.858 508.438 237.748 508.382 237.871C508.269 238.12 512.87 243.04 513.194 243.017C513.306 242.998 514.271 242.212 515.338 241.247ZM521.68 230.578C520.407 229.175 519.203 228.034 519.003 228.042C518.804 228.06 517.773 228.854 516.712 229.828L514.784 231.599L517.326 234.201L519.869 236.802L521.931 234.966L523.993 233.129L521.68 230.578ZM325.976 273.738C324.52 272.853 323.263 271.229 323.015 269.912C321.697 262.919 329.742 259.054 333.687 264.785C335.695 267.703 334.352 272.579 331.176 273.9C329.644 274.538 327.167 274.46 325.976 273.738V273.738ZM436.24 268.345C436.24 267.318 437.716 263.241 439.028 260.645C441.705 255.347 443.848 252.016 450.761 242.411C453.923 238.018 459.672 229.526 461.4 226.696L462.48 224.929L462.281 228.843C461.927 235.804 461.181 243.452 460.529 246.801C459.01 254.599 455.819 261.119 450.52 267.251L449.181 268.8L442.711 268.8C437.394 268.8 436.24 268.721 436.24 268.345V268.345ZM252.603 264.478C253.094 262.104 255.105 256.624 256.48 253.912C260.561 245.864 267.103 239.636 275.79 235.527C279.038 233.992 283.466 232.39 283.732 232.655C283.806 232.727 283.908 234.157 283.958 235.834L284.052 238.883L280.94 239.93C275.084 241.9 270.911 244.522 266.925 248.736C263.273 252.595 260.696 257.285 258.99 263.173L258.305 265.538H255.345H252.384L252.603 264.478H252.603ZM598.261 264.496C598.155 263.908 597.432 259.717 596.653 255.182L595.236 246.937L596.173 246.386C596.688 246.084 597.109 245.731 597.109 245.603C597.109 245.477 596.495 243.952 595.745 242.219L594.382 239.066L593.37 239.289C592.814 239.411 592.188 239.535 591.98 239.563C591.772 239.592 588.791 236.313 585.357 232.277L579.113 224.938L587.538 223.562C592.171 222.805 596.053 222.181 596.165 222.175C596.277 222.175 596.766 222.766 597.255 223.501C598.079 224.741 598.224 224.822 599.265 224.628C600.344 224.427 600.385 224.457 600.385 225.424C600.385 226.309 600.204 226.506 598.864 227.078C598.028 227.435 597.311 227.686 597.27 227.637C597.232 227.588 596.802 226.916 596.319 226.144C595.703 225.159 595.274 224.788 594.883 224.9C594.575 224.989 591.818 225.385 588.754 225.781C585.691 226.178 583.077 226.595 582.945 226.708C582.814 226.822 584.97 229.166 587.738 231.918L592.771 236.92L593.987 236.52C594.661 236.299 595.323 236.245 595.472 236.401C595.62 236.555 596.721 239.005 597.918 241.846L600.094 247.011L598.766 248.763L597.437 250.515L598.911 256.452C600.547 263.042 600.644 263.921 599.812 264.633C598.663 265.615 598.458 265.597 598.261 264.497V264.496ZM271.981 258.885C267.502 257.257 266.442 251.235 270.097 248.173C271.341 247.131 273.356 246.529 274.621 246.821C277.93 247.585 279.811 250.113 279.567 253.467C279.269 257.574 275.595 260.198 271.981 258.885ZM360.604 258.034C358.198 257.346 356.188 256.737 356.136 256.68C356.084 256.624 356.588 253.454 357.255 249.637C358.458 242.753 358.462 242.695 357.792 242.541C357.42 242.457 354.323 241.942 350.909 241.4C347.496 240.858 344.681 240.381 344.654 240.341C344.613 240.28 345.411 232.164 345.465 232.087C345.484 232.068 348.689 232.759 352.606 233.613C356.523 234.468 359.744 235.141 359.763 235.108C359.783 235.077 359.68 232.781 359.534 230.009C359.388 227.236 359.301 224.951 359.34 224.93C359.509 224.838 368.269 225.503 368.388 225.618C368.506 225.734 366.952 234.563 366.568 235.946C366.42 236.478 366.927 236.517 373.967 236.517H381.525V241.269C381.525 245.64 381.478 246.007 380.951 245.854C380.357 245.68 366.669 243.041 366.367 243.041C366.275 243.041 366.088 246.71 365.955 251.195C365.787 256.9 365.604 259.34 365.347 259.318C365.145 259.3 363.01 258.722 360.604 258.034V258.034ZM599.787 253.235C599.479 250.536 599.497 249.983 599.904 249.577C600.326 249.157 600.384 249.543 600.384 252.756C600.384 254.768 600.331 256.414 600.268 256.414C600.205 256.414 599.987 254.983 599.787 253.235H599.787ZM304.367 252.88C300.309 250.96 299.367 245.868 302.472 242.641C304.197 240.848 307.269 240.517 309.596 241.874C313.272 244.02 313.41 249.979 309.837 252.333C308.13 253.458 306.031 253.668 304.367 252.88V252.88ZM598.324 237.577C597.281 235.559 596.239 233.908 596.008 233.908C595.778 233.908 594.807 234.139 593.851 234.421C592.895 234.704 591.992 234.814 591.844 234.666C591.697 234.518 590.384 232.782 588.928 230.809L586.28 227.221L587.353 227.125C587.944 227.073 589.886 226.92 591.668 226.785L594.91 226.539L596.019 228.266C596.63 229.216 597.195 229.993 597.276 229.993C597.358 229.993 598.022 229.755 598.754 229.463C599.486 229.171 600.156 229.004 600.243 229.09C600.33 229.177 600.359 231.947 600.311 235.247L600.222 241.247L598.325 237.577L598.324 237.577ZM384.43 235.052C383.689 234.646 382.972 232.987 379.351 223.295C375.341 212.563 375.112 212.049 374.647 212.767C371.85 217.088 366.122 220.196 359.409 221.034C346.904 222.597 346.125 220.133 357.045 213.555C358.796 212.501 360.228 211.622 360.228 211.601C360.228 211.581 358.1 211.547 355.499 211.523C346.754 211.447 342.701 209.891 345.239 207.581C347.385 205.628 350.252 205.032 359.737 204.57C363.881 204.368 367.99 204.118 368.868 204.015L370.463 203.827L367.75 201.112L365.038 198.398L366.155 197.916L367.273 197.434L369.091 199.404C370.578 201.015 371.039 201.333 371.619 201.15C372.338 200.923 372.374 200.815 372.93 197.212C373.157 195.742 373.272 195.57 374.096 195.476C374.964 195.376 375.001 195.425 374.826 196.454C374.272 199.726 373.98 202.041 374.108 202.168C374.187 202.246 377.62 199.647 381.738 196.391C385.855 193.134 389.542 190.344 389.932 190.19C391.324 189.641 395.483 188.921 396.197 189.107C397.845 189.536 396.729 191.219 390.149 198.229C388.109 200.403 386.439 202.264 386.439 202.365C386.439 202.466 388.818 201.514 391.727 200.251C396.589 198.138 397.156 197.966 398.787 198.1C401.878 198.355 402.247 199.607 400.002 202.218C398.557 203.9 392.693 208.105 389.681 209.62C387.014 210.962 382.843 211.845 380.018 211.666C378.865 211.592 377.92 211.556 377.92 211.586C377.92 211.615 379.975 216.563 382.487 222.582C386.249 231.596 387.009 233.687 386.806 234.45C386.517 235.531 385.687 235.742 384.43 235.052V235.052ZM373.035 209.065C373.466 208.262 373.138 207.256 372.307 206.811C371.404 206.33 370.057 207.216 370.057 208.291C370.057 209.879 372.286 210.458 373.035 209.065V209.065ZM377.745 207.5C378.554 206.61 378.182 205.281 377.046 204.997C375.941 204.721 375.163 205.208 375.036 206.256C374.839 207.884 376.643 208.713 377.745 207.5ZM477.579 231.752L475.554 230.254L476.491 229.064C483.028 220.768 488.006 214.223 488.006 213.926C488.006 213.722 487.563 214.155 487.022 214.888C485.574 216.849 484.746 217.273 482.366 217.271C479.853 217.271 478.67 216.635 477.193 214.498C475.121 211.5 474.397 208.014 475.366 205.704C476.391 203.263 479.875 202.87 484.32 204.693C485.807 205.303 487.023 205.694 487.023 205.563C487.023 205.433 486.352 204.824 485.531 204.212C481.774 201.409 480.645 197.827 482.8 195.543C484.693 193.537 489.671 192.195 492.933 192.811C498.577 193.877 499.551 197.983 495.428 203.331C493.555 205.761 494.017 205.557 496.526 202.847C499.276 199.875 501.121 198.849 503.277 199.091C504.083 199.183 505.05 199.529 505.427 199.865C507.538 201.744 508.652 205.462 508.017 208.507C507.002 213.378 503.853 214.552 498.769 211.955C496.146 210.615 495.721 210.798 498.245 212.18C504.214 215.448 504.681 219.702 499.379 222.515C496.653 223.962 493.11 224.238 491.005 223.169C488.828 222.063 488.268 220.89 488.422 217.761L488.549 215.152L484.076 224.201L479.603 233.251L477.578 231.752H477.579ZM574.098 221.42C572.344 220.484 570.906 219.63 570.903 219.521C570.903 219.335 598.198 202.92 598.513 202.92C598.596 202.92 599.04 203.492 599.505 204.191C600.528 205.731 600.758 205.476 595.389 208.762C593.272 210.059 591.539 211.155 591.539 211.199C591.539 211.24 591.979 211.602 592.517 211.998L593.494 212.717L596.77 211.081C598.572 210.181 600.122 209.444 600.216 209.444C600.308 209.444 600.386 210.748 600.386 212.342C600.386 214.993 600.323 215.28 599.648 215.705C598.092 216.687 595.475 217.588 592.663 218.11C585.056 219.524 583.494 219.905 581.508 220.83C580.335 221.377 578.997 222.121 578.533 222.484C578.07 222.847 577.6 223.139 577.489 223.132C577.38 223.132 575.852 222.356 574.098 221.42H574.098ZM424.438 216.392C423.505 213.476 420.499 208.474 416.602 203.355C410.837 195.782 411.269 196.476 412.903 197.404C415.557 198.911 419.979 202.227 422.056 204.268L424.148 206.323L422.132 202.909C416.479 193.334 412.368 189.073 407.846 188.1C406.472 187.804 406.282 188.426 406.568 192.289C406.763 194.935 408.454 207.686 408.886 209.77C409.336 211.939 408.202 209.009 407.055 205.035C404.759 197.082 402.881 186.395 403.36 184.01C403.624 182.694 404.023 182.55 406.146 183.003C410.008 183.828 414.179 186.585 419.944 192.123C421.886 193.989 423.539 195.45 423.619 195.371C423.698 195.292 423.449 194.279 423.066 193.121C422.554 191.575 422.361 190.147 422.342 187.753C422.316 184.746 422.388 184.359 423.256 182.802C423.773 181.874 424.638 180.699 425.178 180.193L426.161 179.272L425.907 180.088C425.273 182.13 425.115 183.418 425.109 186.611C425.091 190.64 425.477 192.94 427.886 203.6C428.875 207.981 429.686 211.794 429.686 212.075C429.686 212.534 425.668 217.294 425.077 217.534C424.944 217.59 424.656 217.075 424.438 216.392V216.392ZM567.278 210.067C567.059 209.658 564.622 204.572 561.863 198.764L556.847 188.205L562.48 188.394C565.578 188.497 569.182 188.659 570.489 188.752C571.844 188.848 572.864 188.793 572.864 188.622C572.864 188.457 572.351 186.909 571.723 185.183L570.582 182.046L571.477 182.064C571.97 182.082 575.69 182.275 579.744 182.51C583.799 182.746 587.15 182.912 587.191 182.879C587.234 182.849 586.62 181.178 585.83 179.171C585.04 177.164 584.49 175.523 584.608 175.524C585.335 175.524 600.173 177.485 600.276 177.588C600.346 177.657 600.361 180.046 600.313 182.897L600.223 188.08L598.798 185.144C598.014 183.53 597.319 182.152 597.252 182.083C597.064 181.888 592.196 184.134 592.196 184.416C592.196 184.553 592.852 186.063 593.654 187.771L595.111 190.877L597.413 189.723C598.679 189.089 599.866 188.569 600.051 188.569C600.262 188.569 600.387 190.076 600.387 192.635C600.387 196.321 600.326 196.733 599.753 197.039C598.812 197.54 568.86 210.477 568.224 210.657C567.887 210.753 567.526 210.529 567.279 210.068L567.278 210.067ZM572.081 201.58C573.323 201.023 574.384 200.525 574.439 200.474C574.666 200.267 571.571 194.113 571.24 194.113C571.043 194.113 569.852 194.63 568.593 195.261L566.304 196.409L566.951 197.67C567.306 198.364 567.963 199.756 568.41 200.763C568.858 201.77 569.359 202.594 569.524 202.594C569.691 202.594 570.84 202.138 572.081 201.58V201.58ZM580.639 197.949C581.859 197.368 582.923 196.85 583.003 196.798C583.082 196.746 582.434 195.258 581.561 193.491L579.973 190.278L577.483 191.437C576.114 192.075 574.949 192.627 574.895 192.665C574.712 192.793 577.924 199.006 578.174 199.006C578.311 199.006 579.419 198.531 580.639 197.949V197.949ZM589.969 193.429L591.511 192.646L590.038 189.561C589.228 187.865 588.52 186.432 588.464 186.377C588.335 186.248 583.348 188.506 583.348 188.694C583.348 188.774 584.029 190.239 584.861 191.952L586.375 195.068L587.401 194.64C587.965 194.405 589.121 193.86 589.969 193.429V193.429ZM442.144 205.775C441.118 203.368 433.565 189.165 433.399 189.331C433.325 189.407 433.948 191.871 434.787 194.808C435.791 198.324 436.566 200.426 437.055 200.963C438.207 202.228 438.534 203.073 438.528 204.774C438.51 207.219 438.213 207.362 436.564 205.69C435.192 204.298 435.117 204.123 435.047 202.156C435.001 200.878 434.245 197.353 433.07 192.941C431.299 186.292 431.168 185.553 431.184 182.296C431.203 180.371 431.299 178.702 431.414 178.586C432.056 177.946 449.24 173.272 454.609 172.277C456.489 171.928 459.133 171.263 460.485 170.8C467.214 168.494 472.172 168.032 477.194 169.242C478.726 169.611 480.653 169.979 481.477 170.061L482.975 170.209L483.707 168.62C484.11 167.747 484.804 166.794 485.25 166.502C486.269 165.838 488.151 165.831 489.644 166.484L490.791 166.987L489.417 167.014C488.388 167.034 487.915 167.222 487.533 167.765C487.253 168.164 487.023 168.602 487.023 168.739C487.023 168.876 488.719 170.237 490.791 171.763C494.757 174.684 495.121 175.229 494.089 176.697C493.289 177.833 488.096 178.702 485.365 178.157C484.385 177.961 483.214 177.73 482.764 177.643C482.077 177.511 481.692 177.798 480.373 179.426C479.07 181.036 476.76 182.963 472.841 185.711C472.287 186.099 472.33 186.381 473.622 190.852C474.9 195.274 475.082 195.673 476.438 197.003C477.235 197.785 477.817 198.495 477.731 198.58C477.646 198.665 477.011 198.799 476.32 198.877C475.255 198.998 474.886 198.857 473.886 197.953C472.923 197.081 472.392 196.036 470.983 192.238C469.897 189.308 469.091 187.59 468.804 187.59C468.193 187.59 468.226 188.335 469.042 192.956C469.708 196.726 469.791 196.942 471.07 198.265C471.803 199.024 472.338 199.702 472.259 199.771C472.18 199.84 471.6 199.985 470.969 200.09C469.994 200.255 469.64 200.121 468.603 199.209C467.631 198.355 467.075 197.345 465.874 194.252C465.045 192.115 464.324 190.324 464.272 190.272C464.22 190.22 462.408 190.833 460.247 191.634C456.484 193.028 452.235 194.114 450.543 194.114C449.853 194.114 449.718 194.305 449.53 195.553C449.204 197.724 448.078 198.68 445.85 198.68C444.878 198.68 443.571 198.467 442.946 198.207C442.321 197.947 441.81 197.795 441.81 197.868C441.81 197.942 442.527 199.511 443.403 201.358C444.384 203.423 445.456 205.147 446.188 205.838C446.843 206.457 447.38 207.081 447.38 207.225C447.38 207.369 446.365 207.487 445.126 207.487H442.873L442.144 205.775ZM551.019 178.966C548.17 178.079 545.448 175.696 544.698 173.432C544.345 172.369 544.386 172.066 545.068 170.698C545.985 168.858 548.24 167.377 551.681 166.355C554.386 165.552 554.409 165.191 551.71 165.891C549.132 166.559 546.47 166.513 544.828 165.77C542.082 164.528 541.668 161.052 543.776 156.929L544.86 154.808L550.132 154.718L555.405 154.628L555.929 156.022C556.216 156.789 556.55 157.826 556.67 158.328C557.033 159.838 557.229 159.066 557.291 155.874C557.389 150.927 558.716 148.772 561.666 148.772C566.705 148.772 572.273 155.74 570.391 159.69C569.76 161.012 567.806 162.301 565.903 162.647C565.227 162.77 564.674 162.99 564.674 163.135C564.674 163.279 566.333 162.967 568.36 162.437C570.387 161.908 574.893 160.73 578.372 159.818C581.852 158.907 584.768 158.231 584.854 158.315C584.939 158.4 585.286 159.435 585.625 160.614L586.241 162.758L584.549 162.936C583.619 163.033 578.957 163.341 574.19 163.621C569.423 163.9 565.474 164.176 565.415 164.235C565.356 164.295 566.013 164.438 566.875 164.554C568.745 164.807 570.747 165.881 571.676 167.128C572.617 168.392 572.573 170.97 571.576 172.91C570.194 175.6 570.4 175.519 564.942 175.519H560.071L559.764 174.716C559.594 174.275 559.359 173.137 559.238 172.189C558.85 169.141 558.54 169.476 558.682 172.791C558.802 175.619 558.739 176.137 558.145 177.072C556.745 179.279 554.202 179.955 551.019 178.964L551.019 178.966ZM596.871 169.424C595.028 165.09 593.481 161.364 593.431 161.146C593.34 160.744 599.931 157.672 600.235 157.975C600.324 158.063 600.355 162.448 600.309 167.721L600.222 177.306L596.872 169.424H596.871ZM487.187 157.218C473.366 149.458 454.601 142.254 436.404 137.723C417.157 132.931 392.671 129.518 371.368 128.659C368.575 128.548 366.015 128.357 365.679 128.237C364.164 127.697 380.693 126.078 392.381 125.621C420.642 124.515 449.787 128.578 480.635 137.925C483.337 138.744 485.593 139.448 485.646 139.489C485.746 139.565 490.627 158.405 490.627 158.714C490.627 159.076 490.043 158.821 487.187 157.218V157.218ZM524.795 154.238C524.621 154.013 523.977 151.957 523.362 149.669C522.185 145.289 521.823 144.777 520.428 145.52C520.046 145.723 519.53 146.355 519.282 146.924L518.83 147.959L518.811 146.556C518.783 143.791 520.425 142.25 523.391 142.25C524.593 142.25 524.774 142.142 525.167 141.19C525.408 140.607 525.841 138.633 526.129 136.802C526.417 134.972 526.935 132.735 527.279 131.832C528.104 129.672 531.025 125.377 533.65 122.465C534.808 121.18 536.601 118.838 537.634 117.26C539.998 113.649 542.164 110.825 547.613 104.25C551.031 100.126 552.088 99.0487 552.651 99.1148C554.2 99.2964 557.718 100.52 558.715 101.223C569.414 108.778 572.569 110.893 573.408 111.077C574.62 111.342 575.6 112.32 576.283 113.948C576.994 115.642 576.938 115.878 575.889 115.626C574.009 115.177 572.481 114.143 571.562 112.701C570.957 111.751 569.375 110.299 567.074 108.582C561.146 104.157 561.169 104.173 561.716 104.903C562.466 105.902 568.71 112.97 572.281 116.86L575.471 120.336L574.945 121.589C574.655 122.279 574.278 123.21 574.105 123.658C573.805 124.44 573.743 124.387 572.595 122.353C571.937 121.187 570.331 119.132 569.026 117.787L566.653 115.34L566.635 116.482C566.601 119.575 565.122 121.701 563 121.701C562.315 121.701 561.407 121.571 560.981 121.408C560.279 121.142 560.125 121.271 559.322 122.794C558.34 124.655 556.809 126.597 553.319 130.408L550.987 132.954L554.138 135.778C556.622 138.004 557.411 138.929 557.863 140.143C558.426 141.656 558.423 141.704 557.722 142.835L557.008 143.987L556.239 142.215C555.5 140.513 555.317 140.352 551.525 138.085C549.356 136.788 547.459 135.727 547.31 135.727C547.163 135.727 546.968 135.913 546.88 136.141C546.788 136.378 548.266 137.882 550.323 139.647C552.974 141.922 554.089 143.113 554.543 144.153C555.329 145.951 555.308 146.447 554.397 147.552L553.658 148.451L553.043 146.649C552.455 144.926 552.246 144.712 548.271 141.755C545.985 140.054 544.016 138.662 543.896 138.662C543.776 138.662 542.925 139.177 542.006 139.807C539.81 141.311 536.549 142.844 534.063 143.542L532.062 144.103L531.819 146.031C531.557 148.109 530.257 151.038 528.61 153.259C527.715 154.466 527.421 154.645 526.34 154.645C525.657 154.645 524.956 154.462 524.783 154.238H524.795ZM591.91 146.72C584.796 144.439 584.624 144.364 586.013 144.134C589.365 143.58 598.971 141.868 599.648 141.705C600.381 141.528 600.385 141.553 600.385 145.314C600.385 148.708 600.325 149.099 599.812 149.084C599.496 149.066 595.941 148.012 591.91 146.72V146.72ZM573.924 142.076C574.196 141.544 575.046 139.153 575.813 136.763C576.853 133.523 577.517 132.028 578.421 130.892C581.229 127.362 585.877 126.587 595.04 128.118C596.029 128.283 596.096 128.228 596.312 127.081C596.736 124.831 595.447 123.258 592.378 122.278C591.826 122.103 589.045 121.864 586.197 121.748L581.018 121.538L587.671 118.21C593.876 115.107 596.69 113.943 599.333 113.389L600.411 113.163L600.316 116.205L600.222 119.248L598.748 119.335C595.542 119.522 595.503 119.63 598.063 121.26L600.397 122.746L600.31 131.24L600.223 139.733L598.414 140.676C595.984 141.943 592.88 142.44 590.267 141.982C587.995 141.584 585.254 140.327 583.938 139.081C583.144 138.329 582.867 138.261 581.276 138.425C579.06 138.652 577.418 139.475 575.179 141.479C573.616 142.878 573.483 142.942 573.925 142.077L573.924 142.076ZM576.604 104.618C571.934 101.545 567.071 98.4871 565.799 97.822C562.872 96.2931 557.913 94.6277 556.286 94.6277C554.549 94.6277 555.199 94.1229 557.796 93.4552C559.605 92.9901 560.212 92.9674 561.865 93.3034C564.241 93.7866 566.922 95.1018 569.221 96.9109C570.172 97.6595 571.006 98.2166 571.074 98.1488C571.141 98.0819 570.402 96.1235 569.429 93.7985C566.235 86.1662 565.194 81.29 565.967 77.5819C566.34 75.7947 566.404 75.7089 567.36 75.7089C570.02 75.7089 583.685 84.1428 590.392 89.924C591.266 90.6766 591.284 90.7263 590.557 90.3687C590.106 90.1474 587.747 88.8334 585.314 87.4488C576.308 82.3228 570.936 79.8029 570.32 80.416C570.206 80.5297 570.128 81.6409 570.147 82.8846C570.213 87.2936 572.248 91.4275 577.605 98.0523C581.298 102.618 581.666 103.015 580.786 101.477C579.787 99.7311 578.217 94.8325 577.494 91.2046C577.137 89.412 576.877 87.9139 576.914 87.8761C576.953 87.8383 577.705 89.0116 578.588 90.4835C582.595 97.1699 585.85 101.707 588.797 104.713C590.469 106.418 591.792 107.858 591.737 107.912C591.682 107.966 590.166 108.505 588.366 109.108L585.095 110.205L576.603 104.618L576.604 104.618ZM594.689 96.8992C592.187 96.1992 590.071 95.5581 589.986 95.4739C589.903 95.3909 590.047 94.6879 590.31 93.9142C590.856 92.3068 590.665 92.3254 594.816 93.4767C596.347 93.9015 598.227 94.4134 598.993 94.6142L600.385 94.979V96.5974C600.385 97.9297 600.284 98.2119 599.812 98.1935C599.496 98.1752 597.192 97.5986 594.689 96.8992V96.8992ZM583.086 79.5581C582.87 79.3427 582.693 78.851 582.693 78.4653C582.693 76.5998 583.502 75.4624 587.723 71.3946L592.03 67.2426L587.771 68.746C577.711 72.2964 575.485 72.7819 575.485 71.4256C575.485 70.5883 576.48 68.8916 578.138 66.902C579.164 65.6715 580.741 64.6973 587.896 60.8741C592.589 58.3659 596.251 56.2208 596.032 56.1073C595.813 55.9936 594.288 55.5752 592.642 55.1768C590.01 54.5402 589.669 54.3769 589.815 53.8227C590.073 52.8389 590.36 52.8108 593.073 53.5026C595.416 54.1002 595.662 54.1102 596.199 53.6255C596.755 53.1252 596.721 52.9863 595.502 50.7363L594.222 48.3729L595.142 47.4955L596.062 46.6179L596.922 48.5236C597.395 49.5719 598.128 51.1635 598.553 52.0606L599.323 53.6915L599.682 52.7945C599.88 52.301 600.119 51.8974 600.213 51.8974C600.308 51.8974 600.387 53.3654 600.387 55.1594C600.387 58.3956 600.387 58.421 599.591 58.421C598.646 58.421 597.766 59.2068 597.766 60.0521C597.766 60.8972 598.646 61.683 599.591 61.683H600.387V65.9223V70.1619L599.206 71.4632C597.839 72.9705 595.202 74.8769 591.098 77.3246C587.122 79.6965 584.079 80.5446 583.088 79.5578L583.086 79.5581Z" fill="white"/>
<path d="M512.288 260.15C519.847 252.716 530.431 246.089 540.514 239.328C534.707 255.427 526.497 267.714 511.837 269.766C513.121 268.145 519.293 265.79 523.109 256.621C518.639 256.456 514.072 259.339 512.288 260.15Z" fill="white"/>
</g>
<defs>
<clipPath id="clip0_1_3277">
<rect width="600" height="400" fill="white"/>
</clipPath>
</defs>
</svg>
