<svg width="600" height="400" viewBox="0 0 600 400" fill="none" xmlns="http://www.w3.org/2000/svg" xmlns:cgf="https://coding.garden/flags"><metadata id="cgf-metadata">

<cgf:flag>
  <cgf:name>Putten</cgf:name>
  <cgf:route>nl/ge/putten</cgf:route>
  <cgf:aspect-ratio>1.5</cgf:aspect-ratio>
</cgf:flag>

</metadata><g clip-path="url(#clip0_1_3294)">
<path d="M-0.393799 -1.46811V401.373H601.031L601.888 -2.3252L-0.393799 -1.46811V-1.46811Z" fill="#FCDD09"/>
<path d="M-1.32617 -1.1147V200.166H299.758L300.186 -1.54297L-1.32617 -1.1147V-1.1147Z" fill="#0F47AF"/>
<path d="M300.188 199.737V401.018H601.271L601.7 199.309L300.188 199.737V199.737Z" fill="#0F47AF"/>
<path d="M162.848 88.5786C159.828 88.8372 156.476 89.9257 152.656 92.1809C141.711 97.28 133.101 103.543 119.318 107.226C110.142 108.698 103.948 110.914 99.5697 113.583C95.1329 111.994 95.8192 108.871 95.1105 106.166C89.7146 111.956 92.7439 116.129 97.6586 119.94C92.5099 129.899 92.0323 139.859 89.3772 149.818C85.5871 152.229 82.0288 155.218 77.486 155.751C74.8579 157.465 73.0458 160.672 72.8144 166.77L57.738 182.027L59.0121 184.146L61.5602 192.622L67.0811 193.47L66.2318 191.139L64.1083 188.808L62.6219 182.875C70.6243 175.338 78.2 167.68 83.4316 159.354H86.192L82.3699 170.584L72.1774 184.57L73.0268 186.689L74.7255 190.503L80.2464 190.715L77.9107 187.536L78.76 183.722L94.2611 161.684C104.589 152.29 115.443 142.896 117.619 133.502C133.739 132.064 149.846 130.549 165.184 124.814C167.156 125.854 168.794 127.276 173.465 125.237L194.7 117.609H198.309C205.045 123.472 208.667 129.334 213.173 135.197L212.324 138.799L209.988 139.647L215.509 146.004L215.722 139.435L216.571 136.892C217.426 134.49 216.125 132.089 215.509 129.687L201.707 112.523L194.487 113.371L203.618 109.981C209.892 113.126 216.727 120.186 223.366 125.873V127.992L221.03 131.383L226.976 134.137V129.264L225.065 128.84L226.976 126.509C221.467 116.095 213.13 112.738 206.166 105.954L203.193 105.319L190.028 109.769C191.085 100.798 188.21 91.8277 184.932 82.8572C184.49 74.8756 184.482 66.894 187.267 58.9124C194.541 58.0794 200.302 55.3584 205.317 51.7077C206.246 47.9524 205.633 46.249 204.892 44.715H190.665C187.867 43.168 185.21 41.9482 184.082 44.2912L179.411 40.0532C182.596 38.358 183.683 36.6628 184.082 34.9675C184.928 32.7466 183.695 32.9464 182.171 33.4842C181.337 35.0382 179.04 36.5921 177.075 38.1461L170.917 35.3913L168.369 36.027L181.11 45.5626L178.137 46.1983L167.095 36.2389L172.828 33.2723C174.981 30.2281 172.549 30.7418 171.342 30.3057L166.67 32.4247L166.033 27.3391V19.2868C165.056 17.4061 164.499 18.4621 163.91 19.2868L163.485 25.0082L157.115 12.2941C153.729 9.85999 153.099 10.7873 153.293 12.7179L164.971 33.0604H163.485C159.508 34.1906 156.565 29.5771 155.204 27.3391L155.255 20.7081C154.389 19.8304 153.522 18.3816 152.656 20.5581L152.894 23.1372C151.395 20.3119 150.423 18.0859 146.71 15.2605C144.243 14.7816 143.033 15.2794 144.162 17.5915C146.93 18.6024 149.201 22.5974 151.594 25.8556C155.122 29.5707 153.346 32.2933 162.636 37.0864L168.369 42.8077L163.485 43.2315C167.457 44.7459 170.33 46.8088 177.287 46.8338C168.301 57.1906 167.596 74.1597 163.697 88.5784H162.848L162.848 88.5786Z" fill="#FCDD09"/>
</g>
<defs>
<clipPath id="clip0_1_3294">
<rect width="600" height="400" fill="white"/>
</clipPath>
</defs>
</svg>
