<svg width="600" height="400" viewBox="0 0 600 400" fill="none" xmlns="http://www.w3.org/2000/svg" xmlns:cgf="https://coding.garden/flags"><metadata id="cgf-metadata">

<cgf:flag>
  <cgf:name>Rozendaal</cgf:name>
  <cgf:route>nl/ge/rozendaal</cgf:route>
  <cgf:aspect-ratio>1.5</cgf:aspect-ratio>
</cgf:flag>

</metadata><g clip-path="url(#clip0_1_3309)">
<path d="M0 0V400.151H598.914L600.257 0H0V0Z" fill="#003380" stroke="black"/>
<path d="M237.947 111.333L227.684 109.262L216.529 96.8311C195.915 109.893 205.975 123.642 211.066 132.122C188.045 150.327 175.757 176.245 183.586 219.793C177.881 220.447 175.839 226.575 173.693 232.738C171.165 243.306 164.949 241.886 160.307 245.583C172.206 250.979 184.105 254.441 196.004 248.898C196.55 255.527 201.719 262.157 209.39 268.787C220.864 283.092 234.157 290.569 247.84 298.721C259.739 303.123 268.167 304.296 280.066 300.964C275.719 303.633 275.786 303.604 277.213 312.708C279.742 315.482 281.324 317.239 283.852 316.123L284.299 321.924C288.017 325.848 292.998 322.481 296.716 321.167L296.4 313.951C303.854 316.591 302.212 310.785 304.432 308.564C302.094 302.781 300.596 300.118 299.078 297.377C316.987 309.371 334.208 302.839 351.284 292.405L374.041 271.273L385.642 248.069C388.765 249.868 391.889 250.574 395.012 248.484L403.49 250.141L407.506 244.34L405.275 236.467C406.037 227.846 399.779 230.958 396.797 228.595C404.529 221.481 403.961 210.513 403.49 199.59C399.075 177.714 393.296 156.05 383.857 134.951C378.599 129.924 374.002 127.349 369.578 125.421C376.832 122.926 377.309 118.633 378.949 114.648L382.965 97.2454L366.901 96.8311L357.531 100.975C350.594 103.525 349.915 110.918 347.714 117.134C344.519 108.17 337.103 106.064 330.758 102.218L301.755 97.2454C287.03 96.8408 272.305 96.6518 257.58 99.3172L237.947 111.333V111.333Z" fill="black" stroke="black" stroke-width="0.748279"/>
<path d="M215.6 100.197C210.986 102.993 211.919 107.997 213.076 113.089C213.273 115.817 216.513 119.959 210.552 119.828C211.706 122.53 213.032 125.214 221.595 127.152C226.877 126.499 230.955 129.204 235.477 130.668C231.801 123.832 230.011 116.995 231.376 110.159C228.746 109.474 226.117 109.991 223.488 113.968V106.057C218.558 105.706 217.291 102.804 215.6 100.197V100.197Z" fill="#FFDB00" stroke="black" stroke-width="0.748279"/>
<path d="M232.953 133.891C236.216 138.92 235.943 144.496 243.681 148.833C250.827 151.758 252.676 149.764 253.146 146.489L248.098 145.024V142.973L251.569 143.559L242.419 133.891H232.953V133.891Z" fill="#FFE400" stroke="black" stroke-width="0.748279"/>
<path d="M365.786 101.955C356.725 99.1001 353.858 104.874 353.165 113.675C349.873 123.293 345.267 132.563 336.127 140.63L329.186 146.783L329.817 151.177H336.443C343.278 142.29 346.682 131.809 356.951 124.515C362.87 123.033 368.591 121.001 373.674 117.191C377.137 115.237 373.941 113.284 373.674 111.331H370.519L375.251 104.006V101.955L378.722 97.2672C374.116 96.919 369.566 96.9323 365.786 101.955V101.955Z" fill="#FFF000" stroke="black" stroke-width="0.748279"/>
<path d="M222.541 222.666L225.065 220.615H228.852L230.429 222.959L228.221 224.717L224.75 225.303L222.857 224.131L216.231 224.717L211.498 227.94L190.99 228.819C187.94 227.416 184.89 227.592 181.84 228.526C177.581 228.673 178.342 230.373 179 232.042L183.417 234.386C176.081 235.115 174.252 239.496 172.69 244.055C180.035 246.368 183.356 241.207 187.519 237.609L189.412 238.195L190.043 242.883C197.672 242.829 198.163 234.82 202.033 230.577L226.327 227.647L232.322 225.01L233.9 220.908L227.905 218.564L221.279 219.443L218.124 222.373L222.541 222.666V222.666Z" fill="#FFE500" stroke="black" stroke-width="0.748279"/>
<path d="M398.343 235.232C398.644 228.111 393.274 227.377 385.915 228.883C377.302 228.719 368.68 227.537 360.023 222.844L353.428 219.285L349.972 220.735L351.461 225.468C360.272 228.328 369.615 228.376 377.893 234.052C380.436 237.943 383.385 241.567 387.646 244.331C390.023 246.36 390.903 243.633 392.442 242.998L391.733 240.744L398.792 242.459L400.47 241.992L405.087 243.405C404.337 240.036 403.304 236.789 398.343 235.232V235.232Z" fill="#FFE400" stroke="black" stroke-width="0.59661"/>
<path d="M298.265 279.507L298.581 269.252L295.426 265.15L290.377 270.131L291.639 290.934C285.065 294.576 283.887 301.225 281.227 307.048C280.835 308.415 279.625 309.783 284.067 311.15L287.222 306.462V318.182C291.574 321.334 293.141 317.378 294.163 312.029L292.901 307.048L300.158 307.634L301.105 304.704L294.479 292.398L293.532 276.577H295.426L296.372 280.093L298.265 279.507V279.507Z" fill="#FFD900" stroke="black" stroke-width="0.748279"/>
<path d="M326.187 154.419C320.503 148.614 327.578 144.29 330.649 139.502C339.119 133.035 343.271 124.964 345.821 116.298L337.343 106.354C325.447 101.531 314.601 100.608 303.877 100.139L270.411 100.553C260.998 103.13 249.417 101.011 243.193 110.497C239.599 114.664 234.778 118.018 239.177 127.486C244.68 133.233 250.183 134.634 255.687 145.303C253.295 150.34 251.744 156.627 243.639 153.176L233.376 141.159C230.57 137.313 231.437 131.571 218.651 132.872C211.905 136.473 204.185 138.567 200.803 147.375C191.737 164.261 185.226 181.741 185.632 200.826C186.044 207.594 182.676 214.361 191.879 221.129C198.06 224.114 202.248 229.671 218.651 219.472C223.649 218.257 226.631 213.298 234.269 216.986C235.457 218.921 237.791 218.73 237.392 223.615C233.29 227.264 229.466 231.172 221.328 231.074L207.05 231.902C198.44 232.588 199.742 241.82 199.018 249.305C201.555 256.625 205.632 263.945 216.42 271.266C224.777 278.56 234.397 284.682 244.531 290.326C251.671 293.86 258.81 297.849 265.949 298.198C271.75 298.664 277.551 298.135 283.351 295.298L288.26 289.911C289.65 281.486 288.465 273.061 286.921 264.636C286.534 253.153 298.603 255.885 301.646 262.564L299.415 284.939C303.248 289.815 305.284 296.917 312.355 297.784C323.193 298.363 333.495 295.961 343.143 289.911C351.473 286.986 359.802 279.748 368.131 272.509C371.552 266.115 374.973 260.634 378.394 252.205C379.317 246.957 381.844 241.709 374.824 236.46L350.283 229.002C346.352 227.456 346.849 224.54 346.267 221.958C346.789 218.161 348.594 215.556 353.852 216.157L376.609 224.444C383.005 225.671 389.4 225.698 395.796 223.615C397.995 221.011 400.519 219.612 401.597 212.842C402.249 202.345 398.472 191.848 394.457 181.351L384.641 147.375C382.34 141.21 379.99 135.057 373.039 129.972C368.131 127.436 363.223 125.413 358.314 128.315C352.86 130.877 347.759 133.986 345.821 141.988L337.343 154.833C333.624 157.742 329.906 157.022 326.187 154.419V154.419Z" fill="#FFE500" stroke="black" stroke-width="0.748279"/>
<path d="M228.564 142.563C227.398 141.039 225.306 140.088 222.884 139.341C218.728 139.704 215.906 141.927 213.419 144.614L209.317 152.525C209.422 156.92 209.527 161.315 209.633 165.71C209.134 171.533 207.387 176.777 205.215 181.824L198.274 195.888L193.226 202.626C194.097 205.936 192.814 208.783 193.541 212.442C193.823 216.282 197.111 218.063 198.589 220.792L196.696 221.671C194.815 220.435 192.818 219.842 191.333 216.397C188.992 212.198 190.469 207.998 190.071 203.798C191.23 200.316 192.41 196.848 194.803 194.13L201.114 182.703C202.818 178.426 205.355 174.922 205.531 169.226L206.162 152.525C207.538 148.716 209.42 144.907 212.472 141.099L218.783 136.118C220.918 135.454 223.17 135.226 225.724 136.118C227.323 136.957 229.035 137.585 229.826 139.927C230.064 140.959 231.461 142.259 228.564 142.563V142.563Z" fill="black" stroke="black" stroke-width="0.748279"/>
<path d="M332.197 124.757C333.371 123.238 333.661 121.092 333.637 118.723C331.917 115.19 328.738 113.433 325.193 112.12L315.804 111.084C311.362 112.603 306.919 114.121 302.477 115.64C296.383 117.091 290.474 117.259 284.629 116.989L268.051 115.456L259.549 113.208C256.46 115.047 253.144 114.844 249.653 116.67C245.833 118.164 245.085 121.63 242.786 123.814L241.276 122.437C241.925 120.383 241.881 118.436 244.908 116.014C248.426 112.596 253.183 112.529 257.331 110.817C261.254 110.705 265.17 110.617 268.715 111.837L282.402 113.671C287.312 113.781 291.705 114.872 297.564 113.178L314.78 108.313C319.106 108.285 323.597 108.702 328.467 110.148L335.588 114.074C336.957 115.734 337.921 117.638 337.841 120.171C337.505 121.848 337.42 123.556 335.292 125.01C334.318 125.554 333.446 127.203 332.197 124.757V124.757Z" fill="black" stroke="black" stroke-width="0.748279"/>
<path d="M377.692 216.917C379.514 217.713 381.839 217.587 384.344 217.133C387.771 214.92 389.053 211.698 389.798 208.222L389.186 199.46C386.77 195.68 384.353 191.9 381.937 188.12C379.29 182.82 378.037 177.456 377.259 172.069L375.866 156.653L376.698 148.48C374.188 145.995 373.8 142.93 371.231 140.075C368.954 136.859 365.148 136.807 362.416 135.105L363.6 133.476C365.893 133.694 367.946 133.3 371.062 135.622C375.322 138.213 376.258 142.544 378.826 146.02C379.659 149.582 380.465 153.142 379.819 156.601L380.367 169.432C381.144 173.935 380.789 178.145 383.649 183.187L391.934 198.021C392.751 201.966 393.127 206.142 392.483 210.852L389.621 218.069C388.113 219.621 386.272 220.848 383.575 221.236C381.739 221.234 379.914 221.468 377.988 219.789C377.234 218.999 375.329 218.503 377.692 216.917V216.917Z" fill="black" stroke="black" stroke-width="0.748279"/>
<path d="M307.966 286.559C307.977 288.318 308.987 290.099 310.352 291.888C313.607 293.691 316.912 293.394 320.23 292.57L327.629 288.532C329.988 285.094 332.347 281.656 334.706 278.218C338.301 273.983 342.492 270.818 346.886 268.02L359.782 260.666L367.227 258.005C368.422 255.019 370.943 253.47 372.437 250.286C374.359 247.187 372.931 244.167 373.357 241.324L375.235 241.596C375.932 243.491 377.071 244.949 376.252 248.347C375.643 252.754 372.231 255.249 370.195 258.684C367.413 260.785 364.622 262.865 361.357 263.759L350.386 269.398C346.763 271.838 342.957 273.266 339.669 277.566L329.947 290.114C326.825 292.358 323.33 294.349 318.976 295.753L311.578 296.427C309.642 295.868 307.86 294.915 306.479 292.948C305.769 291.5 304.859 290.157 305.577 287.958C305.974 287.044 305.668 285.341 307.966 286.559V286.559Z" fill="black" stroke="black" stroke-width="0.687355"/>
<path d="M211.835 236.056C209.924 236.555 208.27 238.068 206.709 239.941C205.667 243.728 206.926 246.983 208.761 250.106L215.249 256.46C219.659 257.891 224.069 259.321 228.478 260.752C234.106 263.21 238.736 266.566 243.025 270.228L254.678 281.216L259.681 287.998C263.269 288.377 265.669 290.494 269.556 291.122C273.474 292.205 276.357 289.926 279.572 289.57L279.808 291.542C277.942 292.77 276.677 294.324 272.747 294.438C267.777 295.043 264.096 292.288 259.781 291.183C256.707 288.955 253.654 286.713 251.756 283.663L242.515 274.145C238.834 271.161 236.202 267.713 230.592 265.583L214.183 259.239C210.857 256.707 207.702 253.729 204.942 249.721L202.115 242.437C202.176 240.326 202.71 238.263 204.46 236.323C205.835 235.206 207.039 233.915 209.636 234.031C210.744 234.178 212.511 233.399 211.835 236.056V236.056Z" fill="black" stroke="black" stroke-width="0.74591"/>
<path d="M315.61 239.292L312.263 242.814L311.817 247.786L314.494 250.479L318.733 249.858L321.857 252.551V255.866L325.649 251.515V247.165L324.088 244.886L325.873 244.264V240.328L323.418 239.292H316.948V240.949H323.195L323.865 242.192V243.85H321.857L322.303 246.336L323.865 247.372V251.101L319.849 247.786L316.502 247.993L314.494 247.372L313.825 244.264L315.164 242.4L315.387 241.157L315.61 239.292V239.292Z" fill="black" stroke="black" stroke-width="0.748279"/>
<path d="M259.562 233.868L254.802 232.28L249.661 233.73L247.953 237.035L250.14 240.464L248.597 244.154L245.28 245.377L251.034 247.045L255.388 245.439L257.093 243.25L258.374 244.561L262.313 243.108L262.444 240.608L260.056 235.024L258.397 235.636L260.703 241.027L259.706 242.063L258.047 242.675L257.306 240.942L254.982 242.245L254.522 243.975L250.79 245.352L252.625 240.662L251.183 237.85L251.063 235.888L253.927 234.163L256.287 234.63L257.613 234.364L259.562 233.868V233.868Z" fill="black" stroke="black" stroke-width="0.748279"/>
<path d="M246.391 184.184L247.199 179.547L244.72 175.12L240.908 174.168L237.68 176.794L233.491 176.063L231.587 173.259L230.878 178.818L233.377 182.498L236.007 183.652L234.854 185.061L237.115 188.391L239.786 188.052L245.259 184.847L244.307 183.445L239.023 186.539L237.743 185.819L236.791 184.417L238.489 183.423L236.684 181.541L234.768 181.438L232.625 178.284L237.926 179.099L240.638 177.266L242.694 176.797L245.045 179.094L244.984 181.334L245.509 182.496L246.391 184.184Z" fill="black" stroke="black" stroke-width="0.748279"/>
<path d="M296.428 160.262L301.484 160.126L305.699 157.032L305.989 153.377L302.605 150.926L302.589 146.968L305.196 144.704L299.184 145.104L295.762 148.075L295.036 150.691L293.328 149.905L290.232 152.594L291.094 154.966L295.514 159.354L296.817 158.222L292.55 153.985L293.07 152.682L294.374 151.55L295.746 152.912L297.396 150.911L297.144 149.144L300.077 146.597L300.213 151.585L302.662 153.713L303.545 155.499L301.558 158.076L299.177 158.442L298.047 159.14L296.428 160.262V160.262Z" fill="black" stroke="black" stroke-width="0.748279"/>
<path d="M336.43 195.011L338.308 199.372L342.887 201.982L346.683 200.977L347.996 197.182L351.992 195.807L355.179 197.3L352.705 192.196L348.523 190.235L345.628 190.503L345.835 188.743L342.051 186.97L339.949 188.537L337.034 193.901L338.627 194.648L341.442 189.469L342.939 189.475L344.532 190.222L343.627 191.886L346.218 192.637L347.918 191.809L351.503 193.489L346.506 195.324L345.198 198.192L343.695 199.577L340.406 198.731L339.217 196.781L338.122 196.036L336.43 195.011V195.011Z" fill="black" stroke="black" stroke-width="0.748279"/>
<path d="M293.746 169.681L294.638 160.565L289.06 154.143L281.029 154.557L272.328 156.214L261.619 161.394L253.81 164.501L249.125 169.266L247.563 175.482L249.125 179.625L251.356 182.111L255.372 182.94L256.487 184.805L255.149 186.255L250.463 186.462L246.224 186.876L242.655 189.57L239.978 195.371L239.085 200.136L239.308 214.016L240.647 217.538L244.216 224.997L247.563 227.483L253.141 230.59L256.933 230.383L262.065 229.554L264.296 229.347L266.081 231.833L265.188 234.941L263.627 236.598L264.296 243.021L275.674 250.065L295.754 251.101L308.247 246.543L311.148 241.571L311.594 235.355L310.478 231.212H313.379L314.94 235.355L320.518 238.256L326.988 237.22L335.689 231.833L341.044 222.096L342.159 215.467V203.658L340.821 201.171L337.92 199.307H327.211L325.203 198.478L325.873 195.785L329.665 194.335L333.458 192.47L338.143 189.984L339.482 185.633L339.036 176.932L330.335 168.852L317.841 159.322L306.686 158.7L302 160.358L299.546 162.637L297.985 167.609L295.977 170.095L296.2 174.86L299.546 171.338L301.108 165.744L302.224 162.43L309.586 160.772L316.725 162.015L324.757 167.195L332.789 175.274L336.805 178.589L336.582 186.669L333.458 189.57L326.319 191.849L322.972 192.056L320.295 194.335V199.928L322.749 201.586L326.765 202.207L330.781 201.586H337.028L340.374 203.243L339.705 211.945L338.589 221.06L335.466 226.861L330.558 232.662L324.757 234.941H319.403L316.056 232.041L314.94 227.897L313.825 224.582L311.371 223.546H308.917L307.801 224.997L307.355 228.104L307.578 232.248L309.14 236.806L308.694 241.156L306.016 244.264L300.662 246.129L295.307 247.786L276.567 247.579L266.304 242.399L265.858 237.013L267.865 234.112L270.766 231.212L270.989 228.726L269.65 226.24L264.965 225.204L260.057 226.654L256.041 228.311L252.694 227.897L246.671 222.925L242.878 216.917L241.539 211.737L241.316 197.649L243.993 191.641L246.894 189.984L252.248 187.912L255.372 189.155L258.495 190.813L261.395 189.57L263.403 186.876L261.619 182.733L259.164 180.454L256.041 179.832H253.364L251.133 177.968C251.133 177.968 250.463 175.274 250.463 174.446C250.463 173.617 253.587 169.681 253.587 169.681L261.172 165.123L275.674 158.286L281.252 158.079H288.168L291.515 160.979L291.291 168.852L289.73 171.545L289.953 173.41L291.515 174.653L294.638 174.964L295.754 174.86L295.53 170.199H293.857L293.746 169.681V169.681Z" fill="black" stroke="black" stroke-width="0.748279"/>
<path d="M287.61 166.158L286.829 161.6L283.371 160.461L280.582 160.357L278.017 160.668L276.678 161.911L275.339 163.569L271.658 166.676L271.101 168.23L266.081 170.405L260.949 170.302L258.272 170.405L256.822 171.027L255.483 172.581L254.591 173.617V175.688L254.702 179.003L257.714 177.967L257.38 176.414L257.491 174.238L259.499 172.477H263.403L267.308 172.892L269.427 172.166L272.216 170.613L273.778 169.059L274.782 166.469L276.901 164.397C276.901 164.397 278.798 163.569 279.244 163.569C279.69 163.569 282.256 163.569 282.256 163.569L285.156 164.501L285.379 165.64L285.714 166.78L287.61 166.158V166.158Z" fill="black" stroke="black" stroke-width="0.748279"/>
<path d="M329.617 188.593L333.84 186.16L333.632 182.758L332.656 180.33L331.354 178.254L329.601 177.589L327.437 177.085L322.926 175.136L321.168 175.26L317.064 171.805L315.18 167.371L314.041 165.119L312.862 164.118L310.801 163.574L309.427 163.211L307.37 164.013L304.122 165.392L306.317 167.57L307.73 166.682L309.933 165.935L312.459 166.972L313.97 170.315L315.071 173.818L316.611 175.352L319.234 177.138L321.381 177.874L324.341 177.73L327.219 178.743C327.219 178.743 328.776 180.046 328.949 180.428C329.122 180.81 330.115 183.006 330.115 183.006L330.312 185.851L329.267 186.483L328.266 187.21L329.617 188.593V188.593Z" fill="black" stroke="black" stroke-width="0.748279"/>
<path d="M317.83 231.133L321.468 234.277L324.948 233.197L327.214 231.684L329.029 229.972L329.259 228.227L329.215 226.156L330.054 221.602L329.463 220.059L331.975 215.474L336.087 212.621L338.128 211.009L338.858 209.69L338.882 207.7L338.898 206.373L337.524 204.741L335.238 202.193L333.552 204.732L334.846 205.765L336.201 207.542L335.787 210.078L332.711 212.311L329.36 214.217L328.171 216.001L327.004 218.82L326.804 220.937L327.731 223.552L327.435 226.396C327.435 226.396 326.49 228.133 326.139 228.388C325.787 228.644 323.766 230.111 323.766 230.111L320.862 231.035L319.931 230.265L318.912 229.559L317.83 231.133V231.133Z" fill="black" stroke="black" stroke-width="0.748279"/>
<path d="M254.648 190.72L249.774 189.814L247.421 192.429L246.347 194.821L245.768 197.163L246.558 198.761L247.765 200.502L249.623 204.788L250.998 205.814L251.448 210.941L249.559 215.373L248.733 217.74L248.856 219.218L249.959 220.924L250.694 222.062L252.786 222.782L256.172 223.838L256.174 220.855L254.488 220.606L252.331 219.753L251.251 217.392L252.609 213.993L254.385 210.738L254.39 208.64L253.792 205.672L252.766 203.772L250.5 201.997L249.146 199.431C249.146 199.431 248.969 197.492 249.124 197.103C249.279 196.715 250.171 194.481 250.171 194.481L252.121 192.28L253.349 192.482L254.616 192.587L254.648 190.72H254.648Z" fill="black" stroke="black" stroke-width="0.748279"/>
<path d="M270.397 235.641L268.866 240.032L271.391 242.504L273.826 243.771L276.265 244.574L278.065 244.03L280.067 243.117L284.866 241.898L286.122 240.748L291.659 240.924L296.181 243.178L298.618 244.213L300.214 244.27L302.166 243.449L303.467 242.902L304.479 241.056L305.999 238.054L302.809 237.709L302.348 239.235L301.186 241.126L298.536 241.85L295.057 240.205L291.779 238.192L289.536 237.945L286.292 238.155L284.141 238.882L281.981 240.767L279.08 241.721C279.08 241.721 276.986 241.661 276.588 241.473C276.19 241.285 273.904 240.204 273.904 240.204L271.774 238.151L272.132 237.042L272.39 235.886L270.397 235.641V235.641Z" fill="black" stroke="black" stroke-width="0.748279"/>
<path d="M272.356 194.624H269.902L269.456 195.764L269.344 196.903L270.237 197.835L271.018 198.768L270.348 200.839L268.787 201.254L267.671 202.29V203.74L268.34 204.776L270.125 205.294L269.567 206.847L267.113 206.019L265.663 204.465V202.497L266.444 201.254L267.783 200.011L269.01 199.389L267.448 197.421L267.559 195.764L268.675 194.003L270.348 193.07H272.245L273.026 193.381L272.356 194.624V194.624Z" fill="black" stroke="black" stroke-width="0.748279"/>
<path d="M290.986 200.011L288.754 200.322H286.97L285.966 201.254L284.739 202.186L283.958 203.74L284.181 205.087L285.854 206.123V207.469L287.193 207.573L287.416 205.501L288.978 204.569H290.986L292.659 204.776L293.105 203.533H294.109V201.461L292.993 201.254V200.115H292.101V199.182H294.444L295.113 200.011L296.452 201.876L296.34 204.051L294.89 206.33L293.328 208.402L290.986 209.645H287.527H285.743L283.4 207.262L282.508 205.708L282.284 201.979L283.958 199.493L288.085 198.25L290.428 198.043L291.989 198.354V199.493L290.986 200.011V200.011Z" fill="black" stroke="black" stroke-width="0.748279"/>
<path d="M295.545 188.211L295.052 185.979L293.76 185.802L292.536 185.93L291.732 186.929L290.905 187.827L288.585 187.635L287.834 186.297L286.517 185.491L284.987 185.783L284.029 186.6L283.842 188.327L282.09 188.133L282.471 185.733L283.818 184.102L285.895 183.706L287.363 184.166L288.943 185.134L289.846 186.125L291.608 184.309L293.379 184.077L295.461 184.737L296.781 186.072L297.162 187.797L296.991 188.57L295.545 188.211V188.211Z" fill="black" stroke="black" stroke-width="0.748279"/>
<path d="M309.499 207.453L311.544 206.193L311.238 205.014L310.653 204.007L309.354 203.689L308.148 203.312L307.473 201.242L308.528 200.095L308.841 198.66L307.978 197.451L306.803 196.931L305.008 197.416L304.548 195.835L307.086 195.266L309.219 195.816L310.391 197.456L310.48 198.893L310.104 200.616L309.452 201.764L311.925 202.602L312.818 204.041L312.937 206.081L312.097 207.717L310.517 208.69L309.681 208.832L309.499 207.453V207.453Z" fill="black" stroke="black" stroke-width="0.748279"/>
<path d="M295.157 221.144L296.883 222.764L298.069 222.258L299.02 221.53L299.106 220.285L299.271 219.114L301.328 218.099L302.743 218.839L304.321 218.847L305.431 217.827L305.754 216.657L304.895 215.114L306.477 214.39L307.568 216.593L307.398 218.643L305.892 220.027L304.391 220.385L302.498 220.376L301.159 220.003L300.75 222.418L299.403 223.51L297.27 224.012L295.38 223.562L294.046 222.31L293.735 221.576L295.157 221.144V221.144Z" fill="black" stroke="black" stroke-width="0.748279"/>
<path d="M275.24 215.849L274.015 217.824L274.855 218.752L275.863 219.41L277.178 219.158L278.438 218.995L280.037 220.567L279.645 222.031L280.054 223.445L281.408 224.169L282.708 224.148L284.083 222.97L285.254 224.194L283.256 225.755L281.082 226.147L279.246 225.164L278.475 223.916L277.984 222.218L278.016 220.921L275.4 221.195L273.909 220.278L272.822 218.501L272.787 216.69L273.734 215.164L274.414 214.69L275.24 215.849L275.24 215.849Z" fill="black" stroke="black" stroke-width="0.748279"/>
<path d="M279.942 194.831L275.368 192.345L271.91 191.413L268.229 192.138L266.221 194.002L264.548 197.317L263.655 200.632L263.432 202.911L264.325 205.5L265.328 207.676L267.448 208.194L269.791 208.815L272.468 208.505L274.253 208.194H276.149L275.814 210.576L275.145 211.923L272.356 214.305L270.348 215.031L269.456 218.242L270.348 220.417L277.488 226.632L282.954 227.15L285.966 226.218L286.523 223.732L286.635 220.417L289.87 217.517L292.659 218.035L293.217 219.796L292.993 223.11L293.774 224.457L296.34 225.907L300.244 224.975L306.38 221.764L309.28 218.035V214.927L308.499 214.098L303.925 212.752L303.368 211.405L303.702 209.748H306.045L311.511 209.54L313.631 208.608L315.304 206.847L315.081 200.114L313.296 197.317L309.838 193.899H306.045L303.145 194.106L301.918 195.245L300.244 195.97L298.348 195.763L297.455 193.174L298.013 190.377L299.575 189.548L300.69 187.062L299.24 183.747L296.786 181.779L293.663 180.536L289.87 180.743L286.97 181.468L283.511 182.09L281.392 183.54L279.83 185.404L278.492 188.098L280.276 190.169L281.392 192.241L281.169 194.106L276.707 189.548L277.041 185.819L278.269 183.022L281.392 180.847L284.962 179.5L291.209 178.153L298.125 179.811L302.029 183.54L302.587 186.13V189.444L301.248 191.62L304.929 191.827L309.392 192.034L312.961 193.691L315.415 196.903L316.977 200.218L317.089 206.226L316.419 209.126L314.969 210.162L312.515 211.301L310.507 211.819L311.399 213.891L312.403 215.859L312.069 219.174L309.057 222.903L305.822 224.768L301.694 226.84L295.894 227.15L292.659 225.7L290.428 223.214L289.647 221.453L288.754 222.489L287.639 226.736L285.408 228.911H277.934L275.368 227.047L271.352 224.25L268.675 221.557L267.113 217.62L268.006 214.513L271.129 212.855L271.687 211.198H267.671L265.217 210.887L263.767 209.022L261.424 206.018L260.643 203.325L261.201 200.01L262.205 195.763L264.213 191.723L267.448 189.859L271.018 189.237H274.699L276.818 189.652L280.834 194.313L279.942 194.831V194.831Z" fill="black" stroke="black" stroke-width="0.748279"/>
</g>
<defs>
<clipPath id="clip0_1_3309">
<rect width="600" height="400" fill="white"/>
</clipPath>
</defs>
</svg>
