<svg width="600" height="400" viewBox="0 0 600 400" fill="none" xmlns="http://www.w3.org/2000/svg" xmlns:cgf="https://coding.garden/flags"><metadata id="cgf-metadata">

<cgf:flag>
  <cgf:name>Scherpenzeel</cgf:name>
  <cgf:route>nl/ge/scherpenzeel</cgf:route>
  <cgf:aspect-ratio>1.5</cgf:aspect-ratio>
</cgf:flag>

</metadata><g clip-path="url(#clip0_1_3343)">
<path d="M600 0H0V400H600V0Z" fill="white"/>
<path d="M177.593 356.667C187.593 338.889 194.815 323.704 199.259 300.556H191.296C185.185 327.963 165.131 355.781 138.167 345.106C111.203 334.432 126.481 285.37 165.741 312.407C170 308.889 173.519 304.074 175.185 299.63C171.481 298.333 168.704 296.296 165.741 293.148H249.074C246.111 296.296 243.333 298.333 239.63 299.444C241.296 304.074 244.815 308.889 249.074 312.407C288.333 285.37 303.612 334.432 276.648 345.106C249.684 355.781 229.63 327.963 223.519 300.556H215.556C220 323.704 227.222 338.889 237.222 356.667C227.037 359.815 217.407 368.889 207.407 378.889C197.407 368.889 187.778 359.815 177.593 356.667ZM161.111 286.296C158.889 282.037 159.259 276.667 160.37 272.963H254.444C255.556 276.667 255.926 282.037 253.704 286.296H161.111ZM163.333 266.296C166.111 262.037 170.185 259.074 175.185 256.667C157.593 209.444 101.481 186.852 121.111 249.259C70 219.63 68.464 152.656 107.434 155.472C146.404 158.289 180 199.815 192.037 255.926H199.074C192.593 209.074 173.271 197.911 172.274 153.036C171.278 108.161 191.296 83.5185 207.407 20C223.519 83.5185 243.537 108.161 242.54 153.036C241.544 197.911 222.222 209.074 215.741 255.926H222.778C234.815 199.815 268.411 158.289 307.381 155.472C346.351 152.656 344.815 219.63 293.704 249.259C313.333 186.852 257.222 209.444 239.63 256.667C244.63 259.074 248.704 262.037 251.481 266.296H163.333ZM0 0V200H600V0H0Z" fill="#0039A7"/>
</g>
<defs>
<clipPath id="clip0_1_3343">
<rect width="600" height="400" fill="white"/>
</clipPath>
</defs>
</svg>
