<svg width="600" height="400" viewBox="0 0 600 400" fill="none" xmlns="http://www.w3.org/2000/svg" xmlns:cgf="https://coding.garden/flags"><metadata id="cgf-metadata">

<cgf:flag>
  <cgf:name>Wageningen</cgf:name>
  <cgf:route>nl/ge/wageningen</cgf:route>
  <cgf:aspect-ratio>1.5</cgf:aspect-ratio>
</cgf:flag>

</metadata><g clip-path="url(#clip0_1_3355)">
<path d="M599.176 0.770508H0.81347V200.006H599.176V0.770508Z" fill="white"/>
<path d="M599.176 200.005H0.81347V399.24H599.176V200.005Z" fill="#FF0000"/>
<path d="M143.451 159.73C136.774 159.607 130.405 158.659 124.118 156.852C109.497 152.649 96.4899 143.903 87.1667 132.006C78.447 120.879 73.3595 107.601 72.4654 93.6372C72.2839 90.8021 72.2839 87.5586 72.4654 84.7235C73.694 65.5352 82.8848 47.7218 97.9727 35.2857C108.425 26.6701 120.981 21.1789 134.49 19.3154C137.866 18.8496 141.075 18.6348 144.655 18.6348C147.692 18.6348 150.232 18.7751 153.121 19.1024C171.881 21.2282 189.058 30.4934 200.992 44.9242C210.394 56.2933 215.912 70.1461 216.845 84.7235C217.027 87.5586 217.027 90.8021 216.845 93.6372C215.617 112.826 206.426 130.639 191.338 143.075C178.959 153.278 163.604 159.09 147.459 159.683C146.49 159.719 144.257 159.745 143.451 159.73V159.73ZM146.873 154.487C151.653 154.329 156.128 153.734 160.635 152.659C170.657 150.266 179.963 145.626 187.864 139.081C190.157 137.182 192.714 134.737 194.696 132.548C199.695 127.029 203.675 120.788 206.516 114.014C209.05 107.97 210.62 101.649 211.22 95.068C211.507 91.9247 211.551 88.3087 211.341 85.0689C210.575 73.2652 206.554 61.959 199.648 52.1933C196.302 47.4626 192.261 43.118 187.743 39.395C177.254 30.751 164.4 25.5079 150.781 24.3187C147.457 24.0285 143.911 23.9831 140.527 24.1876C126.255 25.0502 112.657 30.4035 101.688 39.4775C99.4014 41.3691 96.8111 43.8456 94.8211 46.0425C89.4391 51.9843 85.2295 58.7856 82.3722 66.156C78.9681 74.9366 77.557 84.2933 78.2077 93.7688C79.4892 112.427 88.9511 129.636 104.234 141.103C112.458 147.274 122.134 151.506 132.305 153.382C137.054 154.258 142.144 154.644 146.873 154.487V154.487ZM141.267 143.958C137.581 143.713 134.531 143.272 131.202 142.502C128.167 141.801 124.909 140.751 122.002 139.538C121.374 139.276 120.363 138.836 120.339 138.814C120.324 138.8 141.418 101.037 141.474 100.978C141.507 100.943 141.563 100.947 141.786 101C141.936 101.036 142.147 101.083 142.256 101.103L142.454 101.141V122.568V143.995L142.067 143.99C141.854 143.987 141.494 143.973 141.267 143.958V143.958ZM147.339 122.586V101.178L147.554 101.139C147.672 101.117 147.959 101.055 148.192 101C148.425 100.945 148.623 100.907 148.632 100.915C148.641 100.924 153.324 109.299 159.039 119.527C164.753 129.755 169.491 138.232 169.566 138.364L169.703 138.604L169.16 138.852C163.33 141.516 156.578 143.272 150.022 143.83C149.123 143.906 147.781 143.995 147.519 143.995H147.339V122.586V122.586ZM115.603 136.407C108.463 132.332 102.344 126.844 97.6405 120.296C97.148 119.611 96.7665 119.053 96.1902 118.175C95.9094 117.747 95.8225 117.59 95.8519 117.563C95.8736 117.543 104.783 112.987 115.65 107.439L135.408 97.35L135.947 97.8544C136.243 98.1318 136.609 98.4533 136.76 98.5689C136.912 98.6845 137.056 98.7967 137.081 98.8181C137.117 98.8497 135.104 102.475 126.573 117.742C120.769 128.129 116.012 136.626 116.001 136.625C115.991 136.624 115.812 136.525 115.603 136.407V136.407ZM163.49 117.612C157.719 107.284 152.994 98.8154 152.99 98.7929C152.986 98.7704 153.102 98.6632 153.246 98.5546C153.391 98.4461 153.762 98.1183 154.071 97.8263L154.633 97.2954L174.25 107.313C185.039 112.822 193.873 117.335 193.881 117.341C193.908 117.363 193.809 117.529 193.329 118.267C190.962 121.903 188.213 125.188 184.968 128.258C182.201 130.875 179.551 132.937 176.253 135.037C175.7 135.39 174.256 136.257 174.086 136.339L173.983 136.389L163.49 117.612V117.612ZM93.368 113.282C93.1947 112.951 92.6551 111.829 92.399 111.267C89.7588 105.473 88.2113 99.3705 87.7735 93.0287C87.7448 92.6127 87.7213 92.1871 87.7212 92.0831V91.894H110.15H132.579L132.595 91.968C132.654 92.2455 132.744 92.5897 132.845 92.9257C132.909 93.1405 132.958 93.3197 132.952 93.3241C132.922 93.3478 93.5021 113.471 93.4862 113.471C93.4758 113.471 93.4226 113.386 93.3681 113.282H93.368ZM176.7 103.287C165.991 97.815 157.188 93.3169 157.138 93.2912L157.047 93.2445L157.131 92.9722C157.177 92.8224 157.258 92.5222 157.311 92.3051L157.407 91.9104L179.636 91.9022L201.865 91.894V92.0338C201.864 92.5369 201.681 94.672 201.536 95.8575C200.875 101.274 199.332 106.662 197.032 111.58C196.438 112.85 196.243 113.241 196.206 113.238C196.187 113.238 187.41 108.759 176.7 103.287L176.7 103.287ZM144.056 97.1052C141.931 96.8338 140.044 95.8339 138.766 94.3021C137.973 93.3512 137.466 92.2634 137.237 91.0223C137.152 90.5596 137.151 89.3489 137.236 88.8858C137.513 87.3715 138.169 86.1357 139.269 85.057C140.23 84.1144 141.375 83.4504 142.707 83.0646C145.808 82.1657 149.225 83.0949 151.288 85.3978C153.617 87.998 153.667 91.6828 151.409 94.3598C150.222 95.7673 148.45 96.7355 146.461 97.0627C145.912 97.1531 144.61 97.1761 144.055 97.1052L144.056 97.1052ZM87.7049 86.9684C87.7769 85.7832 87.8363 84.9689 87.895 84.3617C88.4111 79.0182 89.7307 73.834 91.8384 68.8696C92.3432 67.6805 93.1459 65.973 93.2095 65.9527C93.2698 65.9335 132.977 86.2345 132.964 86.2779C132.957 86.3004 132.9 86.489 132.838 86.697C132.775 86.9051 132.715 87.116 132.703 87.1657L132.682 87.2562H110.185H87.6874L87.7049 86.9684H87.7049ZM157.3 87.2151C157.172 86.8168 157.044 86.3179 157.065 86.2991C157.095 86.2717 196.36 66.2161 196.445 66.1851C196.505 66.1628 196.662 66.4627 197.171 67.5774C199.637 72.9754 201.176 78.7509 201.708 84.6084C201.789 85.504 201.865 86.6403 201.865 86.9658V87.2562H179.589C161.798 87.2562 157.31 87.2478 157.3 87.2151V87.2151ZM154.149 81.8338C153.911 81.6025 153.517 81.2536 153.272 81.0586C153.026 80.8635 152.827 80.687 152.829 80.6662C152.832 80.6454 157.618 72.0659 163.467 61.6004C170.228 49.5018 174.118 42.5738 174.149 42.5763C174.175 42.5784 174.551 42.7918 174.984 43.0505C181.648 47.0322 187.288 52.1715 191.789 58.3606C192.737 59.6649 194.256 61.9798 194.2 62.0341C194.167 62.0657 154.628 82.2569 154.602 82.2555C154.59 82.255 154.386 82.0652 154.149 81.8338V81.8338ZM115.483 72.0216C104.499 66.4123 95.5078 61.8184 95.5014 61.813C95.4865 61.8003 95.7523 61.3692 96.2104 60.663C100.524 54.0132 106.321 48.2927 113.161 43.9366C113.977 43.4168 114.805 42.9153 115.471 42.538L115.888 42.3012L126.593 61.4601C137.179 80.4047 137.298 80.6195 137.224 80.6687C136.861 80.9119 135.98 81.6626 135.657 82.0047L135.453 82.2203L115.483 72.0216V72.0216ZM147.872 78.5214C147.607 78.4618 147.379 78.4119 147.364 78.4106C147.35 78.4092 147.339 72.3037 147.339 64.8427V51.2771L147.519 51.2595C147.619 51.2498 148.598 51.2263 149.695 51.2073C150.793 51.1883 151.818 51.1642 151.974 51.1538L152.258 51.135V49.1992C152.258 48.1346 152.246 47.2566 152.232 47.2481C152.218 47.2396 151.339 47.2532 150.28 47.2779C149.22 47.3028 148.125 47.3237 147.846 47.3242L147.339 47.3249V41.0919V34.8589H147.411C147.593 34.8589 149.188 34.9654 149.902 35.0253C155.481 35.4929 161.071 36.7814 166.259 38.7955C167.642 39.3326 169.812 40.2738 169.809 40.3354C169.805 40.405 148.421 78.6379 148.388 78.6338C148.369 78.6309 148.137 78.5807 147.872 78.521L147.872 78.5214ZM141.584 78.4C141.221 77.775 120.192 40.1158 120.201 40.1094C120.245 40.0807 121.519 39.5259 121.985 39.3325C127.64 36.9865 133.585 35.5398 139.684 35.0255C140.556 34.952 142.003 34.8593 142.278 34.8593H142.454V41.1581V47.4569L142.101 47.4584C141.807 47.4591 138.017 47.5474 137.99 47.5536C137.985 47.5543 137.981 48.4363 137.981 49.5127C137.981 51.0569 137.99 51.4696 138.024 51.4689C138.048 51.4685 138.965 51.4466 140.063 51.4204C141.16 51.3941 142.147 51.3723 142.256 51.3719L142.454 51.3714L142.445 64.9113L142.436 78.4512L142.092 78.5266C141.903 78.568 141.738 78.6029 141.725 78.6039C141.713 78.6047 141.649 78.5134 141.583 78.4003L141.584 78.4Z" fill="#FF0000"/>
</g>
<defs>
<clipPath id="clip0_1_3355">
<rect width="600" height="400" fill="white"/>
</clipPath>
</defs>
</svg>
