<svg width="600" height="400" viewBox="0 0 600 400" fill="none" xmlns="http://www.w3.org/2000/svg" xmlns:cgf="https://coding.garden/flags"><metadata id="cgf-metadata">

<cgf:flag>
  <cgf:name>Westervoort</cgf:name>
  <cgf:route>nl/ge/westervoort</cgf:route>
  <cgf:aspect-ratio>1.5</cgf:aspect-ratio>
</cgf:flag>

</metadata><g clip-path="url(#clip0_1_3380)">
<path d="M600 0H0V400H600V0Z" fill="white"/>
<path d="M0 200V400H300V271.429M600 0H300V128.571" fill="black"/>
<path d="M0 200L600 0V57.1429L171.429 200L600 342.857V400L0 200Z" fill="#0063BE"/>
<path d="M90.3508 200C98.0848 189.893 108.078 186.562 120.329 190.007C132.581 193.453 142.574 190.122 150.308 180.015C158.042 169.907 168.034 166.576 180.286 170.022C192.538 173.467 202.53 170.136 210.264 160.029C217.998 149.922 227.991 146.591 240.243 150.036C252.494 153.482 262.487 150.151 270.221 140.043C277.955 129.936 287.948 126.605 300.2 130.051C312.451 133.496 322.444 130.165 330.178 120.058C337.912 109.951 347.905 106.62 360.156 110.065C372.408 113.51 382.401 110.179 390.135 100.072C397.869 89.965 407.862 86.634 420.113 90.0794C432.365 93.5248 442.358 90.1939 450.092 80.0866C457.826 69.9794 467.818 66.6484 480.07 70.0938C492.321 73.5392 502.314 70.2083 510.048 60.101C517.782 49.9938 527.775 46.6628 540.027 50.1082C552.278 53.5536 562.271 50.2227 570.005 40.1154C577.739 30.0082 587.732 26.6772 599.984 30.1226C612.235 33.568 622.228 30.2371 629.962 20.1298L638.997 47.2351L159.343 207.12" fill="#FCCC00"/>
<path d="M90.3508 200C98.0848 210.107 108.078 213.438 120.329 209.993C132.581 206.547 142.574 209.878 150.308 219.985C158.042 230.093 168.034 233.424 180.286 229.978C192.538 226.533 202.53 229.864 210.264 239.971C217.998 250.078 227.991 253.409 240.243 249.964C252.494 246.518 262.487 249.849 270.221 259.957C277.955 270.064 287.948 273.395 300.2 269.949C312.451 266.504 322.444 269.835 330.178 279.942C337.912 290.049 347.905 293.38 360.156 289.935C372.408 286.49 382.401 289.821 390.135 299.928C397.869 310.035 407.862 313.366 420.113 309.921C432.365 306.475 442.358 309.806 450.092 319.913C457.826 330.021 467.818 333.352 480.07 329.906C492.321 326.461 502.314 329.792 510.048 339.899C517.782 350.006 527.775 353.337 540.027 349.892C552.278 346.446 562.271 349.777 570.005 359.885C577.739 369.992 587.732 373.323 599.984 369.877C612.235 366.432 622.228 369.763 629.962 379.87L638.997 352.765L159.343 192.88" fill="#FCCC00"/>
</g>
<defs>
<clipPath id="clip0_1_3380">
<rect width="600" height="400" fill="white"/>
</clipPath>
</defs>
</svg>
