<svg width="600" height="400" viewBox="0 0 600 400" fill="none" xmlns="http://www.w3.org/2000/svg" xmlns:cgf="https://coding.garden/flags"><metadata id="cgf-metadata">

<cgf:flag>
  <cgf:name>West Maas en Waal</cgf:name>
  <cgf:route>nl/ge/west_maas_en_waal</cgf:route>
  <cgf:aspect-ratio>1.5</cgf:aspect-ratio>
</cgf:flag>

</metadata><g clip-path="url(#clip0_1_3360)">
<path d="M0 0V400H599.991V0H0Z" fill="white"/>
<path d="M0 78.0752C30.7595 92.3486 58.9202 99.7363 89.6797 102.139V185.562C58.9202 180.988 30.7595 176.11 0 161.498V78.0752Z" fill="#0066FF"/>
<path d="M0 240.642C30.7596 254.915 58.9202 260.699 89.6797 263.101L89.6795 347.29C58.9199 342.716 30.7596 337.607 0 322.995V240.642Z" fill="#0066FF" stroke="black" stroke-width="0.0162894"/>
<path d="M296.797 54.5458V135.829C346.71 132.078 374.849 148.328 407.491 160.691C461.061 189.452 497.034 187.016 532.822 184.253C560.291 180.035 580.767 173.375 600 165.776V84.4925C549.754 101.865 500.866 120.437 416.798 84.9115C384.19 70.061 356.43 53.0802 296.797 54.5458Z" fill="#0066FF"/>
<path d="M297.331 214.974V296.257C347.39 292.506 375.079 308.7 407.817 321.063C461.544 349.823 497.621 347.387 533.514 344.624C561.063 340.406 580.71 333.803 600 326.204V244.92C549.607 262.293 501.465 280.808 417.151 245.283C384.448 230.432 357.138 213.508 297.331 214.974Z" fill="#0066FF" stroke="black" stroke-width="0.0160518"/>
<path d="M89.7171 0L89.6797 400H296.797V0H89.7284H89.7171Z" fill="#FFFF00" stroke="black" stroke-width="0.0154386"/>
<path d="M139.99 123.386L140.341 123.631C144.215 131.363 152.918 133.666 163.716 130.265C165.626 130.798 164.886 130.206 167.366 133.335C155.358 134.354 143.739 139.176 139.99 123.386V123.386Z" fill="#FFFF00" stroke="black" stroke-width="2.1"/>
<path d="M250.192 123.763L249.841 124.008C245.966 131.74 237.263 134.043 226.465 130.642C224.555 131.175 225.296 130.583 222.815 133.712C234.823 134.731 246.442 139.553 250.192 123.763Z" fill="#FFFF00" stroke="black" stroke-width="2.1"/>
<path d="M191.536 282.334C189.568 281.078 187.138 279.524 186.136 278.88L184.314 277.709L185.743 276.436C187.433 274.931 188.479 273.445 189.19 271.538C189.622 270.379 189.724 269.726 189.804 267.608C189.926 264.38 189.797 264.135 188.738 265.585C188.301 266.184 187.265 267.378 186.437 268.238C180.771 274.121 174.213 275.301 169.068 271.363C167.394 270.082 165.542 267.556 164.439 265.046L164.029 264.113L165.474 264.224C169.538 264.535 173.906 264.652 175.425 264.49C180.987 263.897 184.488 261.216 187.131 255.525L187.626 254.46L186.339 252.837C181.119 246.249 181.357 241.59 187.088 238.163L188.496 237.322L188.409 231.065C188.33 225.426 188.279 224.638 187.884 223.083C187.348 220.967 186.521 219.056 185.564 217.718L184.841 216.707L184.082 217.631C181.969 220.202 180.046 224.47 179.299 228.247C178.968 229.925 178.883 231.057 178.893 233.668C178.9 235.483 178.984 237.535 179.08 238.228C179.175 238.921 179.216 239.488 179.169 239.488C178.896 239.488 177.017 238.11 176.07 237.215C173.496 234.783 171.843 231.887 170.896 228.154L170.554 226.808L169.387 227.732C168.21 228.664 165.788 229.826 163.942 230.343C163.033 230.597 158.879 231.49 158.879 231.431C158.879 231.417 159.871 230.507 161.084 229.41C164.764 226.078 167.445 223.153 169.712 219.996C177.03 209.807 179.69 198.011 178.02 183.16L177.888 181.988H174.84C171.841 181.988 171.791 181.994 171.695 182.378C171.642 182.593 171.322 184.372 170.983 186.331C166.736 210.926 160.493 223.204 150.744 226.14C149.443 226.532 146.375 226.829 145.34 226.663L144.607 226.546L145.905 224.548C154.427 211.425 157.718 200.819 157.677 186.609C157.671 184.497 157.598 181.975 157.515 181.003C157.382 179.453 157.296 179.16 156.815 178.608C156.111 177.8 154.958 177.135 153.899 176.927C153.191 176.788 152.927 176.823 152.151 177.161C150.406 177.92 149.844 179.335 148.065 187.46C144.647 203.068 143.338 207.402 140.387 212.885C137.771 217.744 134.628 220.808 130.515 222.507C128.813 223.21 125.911 223.847 124.386 223.851L123.546 223.853L124.411 222.68C127.921 217.921 131.437 209.236 133.651 199.859C137.164 184.983 136.982 172.053 133.18 166.399C132.55 165.461 131.367 164.289 131.22 164.455C131.071 164.622 130.077 167.786 129.605 169.597C128.993 171.939 128.141 176.505 127.306 181.901C126.069 189.905 125.075 194.256 123.563 198.276C120.888 205.392 116.068 210.208 109.278 212.55L108.312 212.883L109.361 210.594C112.755 203.185 114.815 193.866 118.373 169.828C119.617 161.422 120.505 155.904 121.364 151.24C122.037 147.586 122.317 146.529 123.342 143.77C125.851 137.02 127.866 134.644 131.261 134.431C133.439 134.295 134.246 134.511 139.714 136.702C141.473 137.406 143.49 139.093 144.28 140.52C145.005 141.83 145.183 143.605 144.7 144.713C143.935 146.466 141.688 147.52 139.001 147.388C138.25 147.35 137.635 147.374 137.635 147.439C137.635 147.757 139.128 151.255 139.659 152.184C141.163 154.81 144.196 157.955 146.946 159.738C152.154 163.117 159.018 165.352 169.601 167.117C174.732 167.972 179.535 168.663 179.65 168.563C179.812 168.421 179.327 162.738 179.017 161.152C177.649 154.145 174.568 148.675 168.994 143.355C168.03 142.435 167.3 141.209 161.809 131.292L155.696 120.252L156.414 119.609C157.977 118.208 160.551 117.428 163.049 117.596C165.782 117.78 168.174 118.608 172.32 120.806C173.85 121.617 175.626 122.401 176.589 122.69C178.072 123.135 178.487 123.184 180.719 123.172C182.877 123.161 183.421 123.096 184.889 122.674C185.817 122.407 187.088 121.963 187.712 121.688C188.337 121.412 188.897 121.187 188.956 121.187C189.014 121.187 188.693 121.832 188.241 122.62C186.195 126.191 183.705 128.468 181.365 128.91C181.01 128.977 180.719 129.103 180.719 129.189C180.719 129.275 181.091 129.875 181.544 130.521C182.884 132.431 185.933 137.912 187.319 140.904C190.678 148.153 193.249 156.807 194.724 165.832C195.021 167.647 195.21 168.376 195.215 167.729C195.224 166.666 196.757 159.165 197.715 155.496C200.043 146.579 203.847 137.884 208.494 130.858C209.052 130.015 209.508 129.252 209.508 129.164C209.508 129.076 209.352 129.004 209.161 129.003C208.453 128.999 206.687 128.121 205.63 127.246C205.03 126.75 204.149 125.825 203.672 125.191C202.766 123.989 201.087 121.187 201.272 121.187C201.33 121.187 201.979 121.452 202.713 121.775C205.194 122.867 206.713 123.177 209.608 123.181C212.972 123.186 214.416 122.765 218.25 120.663C222.887 118.12 226.563 117.195 229.715 117.777C231.421 118.092 232.818 118.717 233.817 119.612L234.54 120.26L228.447 131.277C222.596 141.856 222.301 142.345 221.028 143.597C214.08 150.421 211.277 156.644 210.6 166.744C210.487 168.421 210.509 168.612 210.808 168.612C211.363 168.612 216.899 167.775 221.223 167.037C232.882 165.049 239.889 162.531 244.966 158.506C247.676 156.358 249.389 154.362 250.823 151.683C251.462 150.49 252.592 147.782 252.593 147.44C252.593 147.38 251.899 147.356 251.049 147.387C248.381 147.483 246.297 146.475 245.53 144.717C245.049 143.615 245.219 141.906 245.942 140.57C246.683 139.202 248.545 137.586 250.21 136.868C254.713 134.926 256.939 134.299 258.85 134.433C262.467 134.687 264.348 136.948 267.088 144.338C268.278 147.544 269.097 151.706 270.947 163.921C273.462 180.537 273.902 183.328 274.745 188.038C276.677 198.827 278.823 206.606 281.181 211.363C281.603 212.214 281.914 212.909 281.873 212.909C281.63 212.909 278.373 211.568 277.526 211.119C275.41 209.998 273.147 208.25 271.373 206.369C270.309 205.24 268.681 202.768 267.813 200.964C265.615 196.396 264.512 192.05 262.822 181.293C261.953 175.767 261.249 172.036 260.609 169.567C260.048 167.403 259.177 164.773 258.952 164.561C258.72 164.344 257.398 165.787 256.673 167.048C252.787 173.81 253.261 188.958 257.851 204.717C260.014 212.142 263.244 219.402 265.919 222.854L266.692 223.853H265.789C265.292 223.853 264.205 223.73 263.374 223.58C259.929 222.957 257.618 221.855 255.057 219.613C252.415 217.301 250.598 214.763 248.767 210.825C246.438 205.816 245.394 202.17 242.473 188.85C240.486 179.784 239.898 178.109 238.425 177.313C237.006 176.545 234.716 177.144 233.432 178.617C232.926 179.197 232.845 179.469 232.712 181.02C232.461 183.949 232.528 190.584 232.84 193.8C233.538 200.976 235.322 207.626 238.217 213.839C239.243 216.041 242.635 222.001 244.41 224.722L245.6 226.546L245.076 226.686C244.38 226.871 241.671 226.685 240.184 226.35C235.595 225.316 231.378 221.682 228.116 215.949C224.668 209.89 221.66 199.99 219.434 187.373C218.987 184.841 218.58 182.594 218.529 182.379C218.437 181.994 218.388 181.988 215.387 181.988H212.339L212.207 183.16C210.516 198.199 213.332 210.386 220.819 220.435C223.311 223.781 225.577 226.221 229.458 229.739C230.553 230.73 231.269 231.497 231.051 231.442C230.832 231.387 229.894 231.186 228.966 230.994C225.231 230.224 222.529 229.139 220.775 227.704C220.254 227.277 219.784 226.965 219.732 227.011C219.679 227.056 219.404 227.901 219.12 228.887C218.125 232.337 216.542 234.995 214.163 237.205C212.517 238.734 210.784 239.915 210.966 239.382C211.197 238.708 211.508 233.444 211.395 232.105C211.086 228.423 210.428 225.592 209.241 222.835C208.565 221.264 206.697 218.231 205.857 217.339C205.374 216.826 205.361 216.823 205.06 217.165C204.334 217.989 203.116 220.436 202.677 221.952C201.929 224.538 201.766 226.342 201.766 232.056V237.392L202.907 238.031C206.197 239.873 207.966 242.674 207.608 245.473C207.313 247.77 205.635 250.927 203.238 253.695L202.593 254.439L203.093 255.515C205.484 260.664 208.342 263.189 212.984 264.254C214.658 264.638 219.016 264.686 223.294 264.367C224.815 264.253 226.089 264.186 226.125 264.217C226.268 264.342 224.953 266.864 224.059 268.18C220.134 273.956 214.144 275.296 208.119 271.747C205.783 270.371 203.792 268.538 201.597 265.743C200.635 264.518 200.587 264.484 200.459 264.93C200.386 265.186 200.37 266.465 200.425 267.772C200.505 269.7 200.621 270.411 201.04 271.538C201.743 273.429 202.784 274.919 204.487 276.472C205.275 277.19 205.9 277.787 205.877 277.797C205.855 277.808 203.513 279.291 200.674 281.093C197.835 282.894 195.422 284.424 195.313 284.493C195.204 284.561 193.504 283.59 191.536 282.334L191.536 282.334Z" fill="black"/>
<path d="M148.301 127.35C145.029 116.139 154.177 115.622 160.413 118.056C159.561 121.284 160.9 125.747 164.781 129.435C170.383 133.268 175.027 137.501 174.609 143.853C169.331 138.493 163.489 135.339 156.442 138.555C157.846 135.815 160.895 133.543 165.713 132.871C163.978 132.012 162.459 131.076 161.102 130.162C155.355 126.29 152.501 122.823 148.301 127.35V127.35Z" fill="#FFFF00" stroke="black" stroke-width="2.1"/>
<path d="M163.526 120.055L175.39 125.644C168.496 130.153 162.639 127.694 163.526 120.055Z" fill="#FFFF00" stroke="black" stroke-width="2.1"/>
<path fill-rule="evenodd" clip-rule="evenodd" d="M170.616 123.693C170.616 124.325 170.359 124.93 169.902 125.376C169.444 125.823 168.824 126.073 168.177 126.073C167.53 126.073 166.91 125.823 166.452 125.376C165.995 124.93 165.738 124.325 165.738 123.693C165.738 123.062 165.995 122.457 166.452 122.011C166.91 121.564 167.53 121.313 168.177 121.313C168.824 121.313 169.444 121.564 169.902 122.011C170.359 122.457 170.616 123.062 170.616 123.693V123.693Z" fill="black"/>
<path d="M170.897 226.491L167.177 228.457L160.157 238.099L147.802 234.046C142.437 230.062 140.408 232.566 138.326 234.967C136.739 236.249 135.647 237.893 136.29 240.802C136.601 239.351 136.488 237.715 139.309 237.362C142.778 239.905 144.656 238.097 146.679 236.687L156.366 240.617L144.152 244.057C139.184 242.741 137.923 244.81 137.203 247.373C135.266 249.761 133.837 252.203 137.975 255.235C136.438 251.656 138.246 250.524 140.081 249.891C144.08 251.066 144.941 249.172 145.837 247.312L157.7 243.934L150.61 252.717C147.812 254.569 146.194 256.853 149.698 261.008C148.615 263.949 150.811 265.455 153.418 266.781C152.091 264.603 152.126 262.634 153.98 260.947C156.178 259.421 157.122 257.513 155.033 254.682L162.684 245.961L169.633 248.602C170.14 252.798 172.919 252.709 175.811 252.41C177.573 252.781 179.228 253.276 178.057 257.016C178.952 256.149 180.903 253.912 179.25 251.427C179.574 246.762 178.295 243.501 171.739 244.855L165.562 242.153L172.792 232.326L170.897 226.491Z" fill="#FFFF00" stroke="black" stroke-width="2.1"/>
<path d="M242.003 127.727C245.276 116.516 236.127 115.999 229.892 118.433C230.744 121.661 229.405 126.124 225.524 129.812C219.922 133.644 215.277 137.878 215.696 144.23C220.974 138.87 226.815 135.716 233.863 138.932C232.459 136.192 229.409 133.92 224.591 133.248C226.327 132.389 227.845 131.453 229.202 130.539C234.949 126.667 237.803 123.2 242.003 127.727Z" fill="#FFFF00" stroke="black" stroke-width="2.1"/>
<path d="M226.778 120.431L214.915 126.02C221.808 130.529 227.665 128.07 226.778 120.431Z" fill="#FFFF00" stroke="black" stroke-width="2.1"/>
<path fill-rule="evenodd" clip-rule="evenodd" d="M219.688 124.07C219.688 124.702 219.945 125.307 220.402 125.753C220.86 126.2 221.48 126.45 222.127 126.45C222.774 126.45 223.395 126.2 223.852 125.753C224.31 125.307 224.567 124.702 224.567 124.07C224.567 123.439 224.31 122.834 223.852 122.387C223.395 121.941 222.774 121.69 222.127 121.69C221.48 121.69 220.86 121.941 220.402 122.387C219.945 122.834 219.688 123.439 219.688 124.07V124.07Z" fill="black"/>
<path d="M219.407 226.868L223.128 228.834L230.147 238.476L242.502 234.423C247.867 230.439 249.896 232.943 251.978 235.344C253.565 236.626 254.657 238.27 254.014 241.179C253.704 239.728 253.816 238.092 250.996 237.739C247.526 240.282 245.648 238.474 243.625 237.064L233.938 240.994L246.152 244.434C251.12 243.118 252.381 245.187 253.101 247.75C255.038 250.138 256.467 252.58 252.329 255.612C253.866 252.033 252.058 250.901 250.223 250.268C246.225 251.443 245.363 249.549 244.467 247.689L232.604 244.311L239.694 253.094C242.493 254.946 244.11 257.23 240.606 261.385C241.689 264.325 239.493 265.832 236.886 267.158C238.213 264.98 238.178 263.011 236.324 261.324C234.126 259.798 233.182 257.89 235.272 255.059L227.62 246.338L220.671 248.979C220.165 253.175 217.385 253.086 214.493 252.787C212.731 253.158 211.076 253.653 212.247 257.393C211.352 256.526 209.401 254.289 211.054 251.804C210.73 247.139 212.009 243.878 218.565 245.232L224.742 242.53L217.512 232.703L219.407 226.868Z" fill="#FFFF00" stroke="black" stroke-width="2.1"/>
</g>
<defs>
<clipPath id="clip0_1_3360">
<rect width="600" height="400" fill="white"/>
</clipPath>
</defs>
</svg>
