<svg width="600" height="400" viewBox="0 0 600 400" fill="none" xmlns="http://www.w3.org/2000/svg" xmlns:cgf="https://coding.garden/flags"><metadata id="cgf-metadata">

<cgf:flag>
  <cgf:name>Wijchen</cgf:name>
  <cgf:route>nl/ge/wijchen</cgf:route>
  <cgf:aspect-ratio>1.5</cgf:aspect-ratio>
</cgf:flag>

</metadata><g clip-path="url(#clip0_1_3386)">
<path d="M600 0H0V400H600V0Z" fill="#CC0C2F"/>
<path d="M0 0L600 400" stroke="#FFCB00" stroke-width="80"/>
<path d="M600 0L0 400" stroke="#FFCB00" stroke-width="80"/>
<path d="M65 182C62.8722 179.915 61.4138 177.243 60.8106 174.325C60.2074 171.407 60.4869 168.376 61.6133 165.617C62.7397 162.859 64.6621 160.498 67.1353 158.837C69.6085 157.175 72.5205 156.288 75.5 156.288C78.4795 156.288 81.3915 157.175 83.8647 158.837C86.3379 160.498 88.2603 162.859 89.3867 165.617C90.5132 168.376 90.7926 171.407 90.1894 174.325C89.5862 177.243 88.1278 179.915 86 182L105 230L92 241L79 179.5C80.9135 178.693 82.4888 177.248 83.4586 175.411C84.4284 173.574 84.7332 171.459 84.3211 169.423C83.9091 167.387 82.8056 165.557 81.1978 164.242C79.5901 162.927 77.577 162.209 75.5 162.209C73.423 162.209 71.4099 162.927 69.8022 164.242C68.1944 165.557 67.0909 167.387 66.6789 169.423C66.2668 171.459 66.5716 173.574 67.5414 175.411C68.5112 177.248 70.0865 178.693 72 179.5L59 241L46 230L65 182Z" fill="#FFDD00"/>
<path d="M514 182C511.872 179.915 510.414 177.243 509.811 174.325C509.207 171.407 509.487 168.376 510.613 165.617C511.74 162.859 513.662 160.498 516.135 158.837C518.609 157.175 521.521 156.288 524.5 156.288C527.479 156.288 530.391 157.175 532.865 158.837C535.338 160.498 537.26 162.859 538.387 165.617C539.513 168.376 539.793 171.407 539.189 174.325C538.586 177.243 537.128 179.915 535 182L554 230L541 241L528 179.5C529.914 178.693 531.489 177.248 532.459 175.411C533.428 173.574 533.733 171.459 533.321 169.423C532.909 167.387 531.806 165.557 530.198 164.242C528.59 162.927 526.577 162.209 524.5 162.209C522.423 162.209 520.41 162.927 518.802 164.242C517.194 165.557 516.091 167.387 515.679 169.423C515.267 171.459 515.572 173.574 516.541 175.411C517.511 177.248 519.086 178.693 521 179.5L508 241L495 230L514 182Z" fill="#FFDD00"/>
<path d="M289.5 49.0002C287.372 46.9146 285.914 44.2425 285.311 41.3247C284.707 38.4069 284.987 35.3756 286.113 32.6172C287.24 29.8588 289.162 27.4984 291.635 25.8369C294.109 24.1754 297.021 23.2881 300 23.2881C302.979 23.2881 305.891 24.1754 308.365 25.8369C310.838 27.4984 312.76 29.8588 313.887 32.6172C315.013 35.3756 315.293 38.4069 314.689 41.3247C314.086 44.2425 312.628 46.9146 310.5 49.0002L329.5 97.0002L316.5 108L303.5 46.5002C305.414 45.6925 306.989 44.2478 307.959 42.4111C308.928 40.5745 309.233 38.4589 308.821 36.4232C308.409 34.3875 307.306 32.5569 305.698 31.242C304.09 29.9271 302.077 29.2087 300 29.2087C297.923 29.2087 295.91 29.9271 294.302 31.242C292.694 32.5569 291.591 34.3875 291.179 36.4232C290.767 38.4589 291.072 40.5745 292.041 42.4111C293.011 44.2478 294.586 45.6925 296.5 46.5002L283.5 108L270.5 97.0002L289.5 49.0002Z" fill="#FFDD00"/>
<path d="M289.5 315C287.372 312.915 285.914 310.243 285.311 307.325C284.707 304.407 284.987 301.376 286.113 298.617C287.24 295.859 289.162 293.498 291.635 291.837C294.109 290.175 297.021 289.288 300 289.288C302.979 289.288 305.891 290.175 308.365 291.837C310.838 293.498 312.76 295.859 313.887 298.617C315.013 301.376 315.293 304.407 314.689 307.325C314.086 310.243 312.628 312.915 310.5 315L329.5 363L316.5 374L303.5 312.5C305.414 311.693 306.989 310.248 307.959 308.411C308.928 306.574 309.233 304.459 308.821 302.423C308.409 300.387 307.306 298.557 305.698 297.242C304.09 295.927 302.077 295.209 300 295.209C297.923 295.209 295.91 295.927 294.302 297.242C292.694 298.557 291.591 300.387 291.179 302.423C290.767 304.459 291.072 306.574 292.041 308.411C293.011 310.248 294.586 311.693 296.5 312.5L283.5 374L270.5 363L289.5 315Z" fill="#FFDD00"/>
</g>
<defs>
<clipPath id="clip0_1_3386">
<rect width="600" height="400" fill="white"/>
</clipPath>
</defs>
</svg>
