<svg width="600" height="400" viewBox="0 0 600 400" fill="none" xmlns="http://www.w3.org/2000/svg" xmlns:cgf="https://coding.garden/flags"><metadata id="cgf-metadata">

<cgf:flag>
  <cgf:name>Zaltbommel</cgf:name>
  <cgf:route>nl/ge/zaltbommel</cgf:route>
  <cgf:aspect-ratio>1.5</cgf:aspect-ratio>
</cgf:flag>

</metadata><g clip-path="url(#clip0_1_3399)">
<path d="M600 0H0V400H600V0Z" fill="#DA121A"/>
<path d="M0 0V400L600 199.562L0 0Z" fill="white"/>
<path d="M0 31.8291L511.012 202.028L0 372.227V31.8291Z" fill="#0F47AF"/>
<path d="M365.858 158.285C365.324 162.441 363.248 164.396 360.904 165.262C356.998 166.425 353.888 168.514 352.307 172.384C349.31 171.111 346.422 169.728 342.108 169.768C341.542 172.723 341.866 175.679 342.254 178.634C339.68 179.482 337.106 180.889 334.532 183.285C331.463 185.848 328.079 187.595 324.041 187.646C327.888 190.33 329.073 193.393 328.849 196.657C328.494 199.835 330.067 203.13 333.512 206.541C330.832 208.881 328.571 211.52 327.247 214.826C330.85 217.451 334.076 217.815 337.3 218.169C337.048 220.75 336.699 223.28 338.903 227.18C340.617 230.96 340.392 234.739 340.214 238.518C342.506 236.512 345.456 236 349.102 237.064C353.044 238.249 356.864 237.619 360.612 235.901C362.072 238.429 363.523 240.961 366.878 242.733C369.296 242.152 371.304 239.523 373.143 236.047C376.112 237.974 379.158 238.671 382.322 237.5C385.485 236.581 388.845 236.745 392.396 237.958C392.388 234.877 392.832 231.976 394.707 229.651C396.873 226.917 397.149 223.179 396.601 219.622C400.01 219.841 403.327 219.622 405.78 215.262C405.133 212.003 403.966 208.94 400.243 206.832C402.585 205.428 403.873 202.273 404.469 197.965C404.858 193.688 406.952 190.718 409.859 188.372C406.945 188.193 404.031 188.254 401.117 184.884C399.239 182.492 396.662 179.951 392.375 179.215C392.993 175.226 392.482 172.112 391.355 169.477C386.346 170.27 383.718 171.696 381.593 173.256C380.719 170.28 378.614 166.896 372.851 165.407C369.059 163.93 367.139 161.304 365.858 158.285Z" fill="white" stroke="black"/>
<path d="M374.163 202.761C374.163 206.574 371.048 209.666 367.205 209.666C363.363 209.666 360.248 206.574 360.248 202.761C360.248 198.948 363.363 195.857 367.205 195.857C370.797 195.857 373.798 198.57 374.132 202.119" fill="#FCDD09"/>
<path d="M374.163 202.761C374.163 206.574 371.048 209.666 367.205 209.666C363.363 209.666 360.248 206.574 360.248 202.761C360.248 198.948 363.363 195.857 367.205 195.857C370.797 195.857 373.798 198.57 374.132 202.119" stroke="#0C0C0C" stroke-width="1.1"/>
<path d="M488.14 113.434L484.74 148.276H513.072V127.001C513.596 120.154 526.668 117.492 529.144 127.001V148.276H558.095L554.695 113.434L551.295 105.623L546.556 51.357L554.695 42.7237V27.9238H543.98V34.9127H536.15V27.9238H525.848V34.9127H517.502V27.9238H507.406V34.9127H499.473V27.9238H488.14V42.7237L496.794 51.357L492.261 105.623L488.14 113.434Z" fill="#FCDD09" stroke="black"/>
<path d="M517.502 79.4153V66.5682C518.179 62.3275 524.454 62.3928 525.848 66.5682V79.4153H517.502Z" fill="#DA121A" stroke="black"/>
<path d="M492.364 105.624H551.089" stroke="black"/>
<path d="M554.695 113.435H488.14" stroke="black"/>
<path d="M488.561 336.741L485.161 371.582H513.493V350.308C514.017 343.461 527.09 340.799 529.566 350.308V371.582H558.516L555.116 336.741L551.716 328.93L546.977 274.664L555.116 266.03V251.23H544.401V258.219H536.571V251.23H526.269V258.219H517.924V251.23H507.827V258.219H499.894V251.23H488.561V266.03L497.215 274.664L492.682 328.93L488.561 336.741Z" fill="#FCDD09" stroke="black"/>
<path d="M517.924 302.722V289.875C518.6 285.634 524.875 285.699 526.269 289.875V302.722H517.924Z" fill="#DA121A" stroke="black"/>
<path d="M492.785 328.93H551.51" stroke="black"/>
<path d="M555.116 336.741H488.561" stroke="black"/>
<path d="M87.8591 265.262L101.378 269.04L114.36 264.929L112.093 113.435C111.796 101.403 108.163 90.0782 101.409 79.416C92.8749 90.1371 90.4774 102.193 89.899 113.435L87.8591 265.262Z" fill="white" stroke="black"/>
<path d="M100.826 95.3486L101.117 256.25" stroke="black"/>
<path d="M121.808 264.463C108.219 266.6 94.6969 266.964 81.3025 263.881C82.1947 259.175 71.4572 258.059 73.2161 265.117C75.6276 269.564 83.2358 271.095 91.7931 272.093C90.1108 274.238 89.8824 276.126 91.5016 277.689C89.9881 279.991 90.2729 282.292 91.8659 284.593C90.5332 286.597 90.6009 288.816 91.7933 291.207C90.48 293.484 90.5325 295.858 91.9389 298.329C89.9545 300.578 91.7928 302.679 92.0847 302.835C91.5368 303.951 90.8264 304.889 92.1573 308.067C90.8959 310.373 92.5793 314.075 99.0782 320.058C97.0167 324.478 106.197 324.947 104.979 320.058C109.684 314.831 112.207 310.857 110.516 309.303C112.553 306.664 112.235 305.015 110.588 303.925C112.384 301.551 112.648 299.614 110.37 298.401C113.2 294.924 112.15 293.059 110.37 291.497C112.112 289.334 112.925 287.218 110.807 285.247C112.594 282.784 113.138 280.517 111.244 278.634C112.228 276.714 113.484 274.878 111.462 272.021C126.253 271.467 130.632 267.16 130.987 264.172C131.646 258.855 122.022 257.508 121.807 264.463H121.808Z" fill="#FCDD09" stroke="black"/>
<path d="M484.393 368.633C484.652 366.506 485.445 358.54 486.156 350.929C487.252 339.186 487.763 336.493 489.533 333.135C491.466 329.467 491.787 327.199 493.908 302.204L496.197 275.232L491.768 270.731L487.338 266.231V258.318V250.406H493.866H500.393V254.069V257.732H503.657H506.921V254.069V250.406H512.632H518.344V254.069V257.732H521.561C524.762 257.732 524.779 257.715 525.028 254.272L525.279 250.813L531.195 250.574L537.11 250.335V254.082V257.83L540.17 257.577C543.14 257.332 543.237 257.223 543.48 253.865L543.731 250.406H549.804H555.876V258.212V266.017L551.797 270.583C549.553 273.095 547.735 275.901 547.756 276.818C547.777 277.736 548.819 289.842 550.071 303.72C551.903 324.038 552.683 329.745 554.073 333.022C555.364 336.068 556.219 341.432 557.47 354.337C558.388 363.821 559.14 371.788 559.14 372.04C559.14 372.292 552.164 372.499 543.638 372.499H528.135V361.05C528.135 354.753 527.782 348.943 527.35 348.139C526.919 347.334 525.471 346.224 524.134 345.671C521.173 344.448 516.335 345.74 515.074 348.092C514.628 348.922 514.264 354.753 514.264 361.05V372.499H499.093H483.922L484.393 368.633V368.633ZM512.632 359.587C512.632 348.599 512.686 348.248 514.697 346.242C517.499 343.447 521.654 342.756 525.294 344.479C526.871 345.226 528.431 346.25 528.76 346.755C529.089 347.26 529.542 352.801 529.767 359.069L530.175 370.464L543.829 370.687L557.483 370.91L557.072 367.431C556.382 361.584 554.245 339.801 554.245 338.615C554.245 337.688 548.706 337.499 521.607 337.499C496.043 337.499 488.97 337.72 488.968 338.516C488.968 340.089 486.6 364.383 486.117 367.819L485.687 370.871H499.16H512.632V359.587V359.587ZM553.429 335.424C553.429 335.178 552.868 333.896 552.184 332.575L550.939 330.173H521.738H492.536L491.174 333.022L489.813 335.871H521.621C539.115 335.871 553.429 335.67 553.429 335.424ZM550.17 325.9C550.17 324.445 549.219 312.37 548.051 299.067L545.926 274.879L550.085 270.109L554.245 265.338V258.686V252.034H549.757H545.269V255.697V259.36H540.374H535.478V255.654V251.949L531.195 252.195L526.911 252.441L526.66 255.9L526.409 259.36H521.561H516.712V255.697V252.034H512.632H508.553V255.697V259.36H503.657H498.761V255.697V252.034H493.866H488.97V258.725V265.417L493.42 269.917L497.871 274.418L495.63 301.108C494.397 315.788 493.557 327.966 493.763 328.172C493.969 328.377 506.744 328.546 522.151 328.546H550.165L550.173 325.9H550.17ZM516.712 296.575C516.712 288.77 517.897 286.22 521.527 286.22C525.461 286.22 526.503 288.323 526.503 296.255V303.313H521.607H516.712V296.575ZM524.871 295.189C524.871 288.93 524.796 288.674 522.821 288.179C519.338 287.308 518.344 288.974 518.344 295.68V301.685H521.607H524.871V295.189V295.189ZM503.854 272.993C504.521 271.986 505.971 271.052 507.077 270.918C509.225 270.657 513.447 273.463 512.433 274.478C512.099 274.812 511.153 274.478 510.329 273.734C508.47 272.056 506.617 272.008 505.289 273.604C503.688 275.528 502.508 275.026 503.854 272.993V272.993ZM517.528 273.893C517.528 270.639 522.774 269.621 525.284 272.388C527.139 274.433 526.228 275.565 524.2 273.734C522.308 272.026 520.908 272.025 519.02 273.726C517.789 274.838 517.528 274.866 517.528 273.889V273.893ZM531.399 273.766C531.399 271.984 533.23 270.755 535.886 270.755C538.607 270.755 540.374 271.99 540.374 273.893C540.374 274.87 540.113 274.841 538.882 273.73C537.021 272.05 533.95 271.98 533.326 273.604C532.749 275.103 531.399 275.217 531.399 273.766V273.766ZM495.906 265.871C496.225 265.356 505.841 265.057 522.064 265.057C538.622 265.057 547.717 265.346 547.717 265.871C547.717 266.397 538.454 266.685 521.559 266.685C504.329 266.685 495.574 266.407 495.906 265.871ZM99.1547 323.534C98.5969 322.978 98.1405 322.103 98.1405 321.59C98.1405 321.078 97.3681 319.961 96.4241 319.109C95.4801 318.256 93.8131 316.037 92.7199 314.176C90.8393 310.974 90.7056 309.877 90.2399 293.826C89.9692 284.494 89.7856 275.852 89.8317 274.621C89.9035 272.696 89.598 272.383 87.6486 272.383C83.9059 272.383 77.1672 270.038 74.5172 267.814C71.6894 265.44 71.3071 262.707 73.5229 260.707C75.6229 258.811 78.3045 259.032 80.5665 261.289C82.157 262.876 86.5953 264.857 86.7634 264.055C86.7887 263.935 87.315 229.04 87.9331 186.511C89.1402 103.437 89.1969 102.486 93.6047 91.5227C95.5432 86.7009 100.355 78.6619 101.302 78.6619C102.172 78.6619 107.694 89.9892 109.522 95.5221C110.441 98.3039 111.538 103.066 111.96 106.103C112.383 109.141 113.125 141.112 113.611 177.15C114.097 213.188 114.708 247.527 114.969 253.458L115.442 264.243H118.214C119.993 264.243 120.987 263.851 120.987 263.148C120.987 261.329 123.817 259.36 126.432 259.36C131.296 259.36 133.184 264.358 129.651 267.883C127.495 270.034 120.539 272.383 116.325 272.383C114.796 272.383 113.407 272.862 113.173 273.471C112.943 274.07 112.648 278.008 112.517 282.221C112.387 286.435 112.16 290.249 112.012 290.697C111.864 291.144 112.028 292.523 112.376 293.76C112.754 295.1 112.662 296.426 112.149 297.043C111.676 297.612 111.561 298.516 111.893 299.052C112.518 300.061 112.411 305.777 111.679 310.486C111.449 311.968 110.052 314.898 108.576 316.997C107.1 319.096 105.488 321.546 104.994 322.441C103.938 324.355 100.603 324.979 99.1547 323.534V323.534ZM103.871 321.016C104.308 320.009 105.96 317.393 107.542 315.202C109.124 313.012 110.292 311.094 110.139 310.941C109.986 310.788 108.431 311.39 106.684 312.279C102.583 314.365 100.88 314.314 96.239 311.97C94.1435 310.912 92.429 310.308 92.429 310.627C92.429 311.448 97.0279 317.685 98.1369 318.369C98.643 318.681 99.3925 319.816 99.8025 320.892C100.741 323.354 102.829 323.417 103.871 321.016V321.016ZM106.001 310.939C108.829 309.6 111.422 306.78 110.779 305.741C110.587 305.432 108.308 305.722 105.713 306.386C101.118 307.562 98.4848 307.337 93.8569 305.373C91.7634 304.484 92.0287 306.724 94.2653 308.82C97.9704 312.292 101.715 312.969 106.001 310.939ZM105.452 304.872C108.062 304.313 109.891 303.409 110.426 302.413C111.815 299.824 110.632 299.348 106.102 300.672C102.51 301.723 101.035 301.767 97.0345 300.942C94.4066 300.401 92.0529 300.161 91.8038 300.41C90.9897 301.222 94.2782 304.135 96.8503 304.88C100.297 305.878 100.75 305.878 105.452 304.872V304.872ZM108.158 298.364C110.469 297.313 111.833 294.669 110.664 293.504C110.283 293.124 108.319 293.193 106.3 293.656C102.815 294.456 97.4736 294.21 93.4489 293.065C91.8957 292.622 91.6131 292.854 91.6131 294.572C91.6131 296.878 92.9322 298.215 96.2525 299.275C99.0712 300.175 105.207 299.705 108.158 298.364V298.364ZM109.235 290.72C110.368 289.979 111.181 288.821 111.041 288.146C110.834 287.146 109.004 286.892 101.166 286.773L91.5436 286.627L91.7824 288.662C91.9574 290.154 92.783 290.969 94.8768 291.717C98.5355 293.025 106.561 292.468 109.235 290.72ZM109.617 284.563C110.543 284.069 111.195 282.864 111.195 281.65C111.195 279.718 111.018 279.624 108.544 280.254C105.274 281.087 97.823 281.131 94.2648 280.339C91.8209 279.795 91.6131 279.909 91.6131 281.79C91.6131 283.145 92.2294 284.078 93.4489 284.567C96.0002 285.59 107.699 285.587 109.617 284.567V284.563ZM107.932 278.645C110.142 277.893 110.846 277.167 111.046 275.435C111.294 273.285 111.212 273.232 109.006 274.101C105.879 275.332 96.4714 275.298 94.1277 274.046C92.5891 273.225 92.0951 273.233 91.5662 274.086C89.0249 278.188 100.158 281.289 107.932 278.645V278.645ZM102.424 273.472C101.863 273.246 100.945 273.246 100.384 273.472C99.8234 273.697 100.282 273.882 101.404 273.882C102.526 273.882 102.985 273.697 102.424 273.472ZM117.147 270.737C126.4 269.402 131.856 265.466 129.079 262.128C127.625 260.38 124.003 261.029 123.044 263.21C122.604 264.209 121.686 265.253 121.004 265.53C118.282 266.636 94.6196 266.909 87.906 265.913C82.2226 265.069 80.8779 264.576 79.8059 262.944C78.3291 260.696 75.9793 260.404 74.4218 262.277C72.162 264.993 76.8958 268.517 85.2268 270.322C91.3149 271.64 109.267 271.874 117.147 270.737V270.737ZM112.011 264.746C112.011 264.291 101.806 257.732 101.099 257.732C100.343 257.732 90.7971 264.171 90.7971 264.681C90.7971 264.888 95.5703 265.057 101.404 265.057C107.238 265.057 112.011 264.917 112.011 264.746ZM94.5266 259.695L99.7724 255.961V175.858C99.7724 123.261 100.051 95.7549 100.584 95.7549C101.116 95.7549 101.468 123.352 101.604 175.715L101.812 255.675L107.462 259.546C110.569 261.675 113.184 263.328 113.272 263.22C113.827 262.535 111.123 115.006 110.437 108.617C109.972 104.276 108.799 98.4151 107.832 95.5937C105.807 89.6882 102.619 83.0736 101.449 82.3522C100.471 81.749 97.0401 87.0239 94.9183 92.3939C91.0386 102.213 90.7852 105.896 89.9895 164.02C89.5751 194.297 89.0401 229.05 88.8007 241.249C88.5613 253.448 88.5714 263.429 88.8228 263.429C89.0746 263.429 91.6411 261.749 94.5263 259.695H94.5266ZM363.19 240.842L360.424 237.79L351.27 237.824C345.247 237.847 341.779 238.194 341.131 238.841C339.329 240.638 338.876 239.867 338.943 235.118C338.98 232.489 338.432 229.032 337.701 227.286C336.981 225.567 336.392 222.923 336.392 221.411C336.392 219.01 336.13 218.662 334.319 218.662C333.18 218.662 330.806 217.928 329.044 217.032L325.842 215.402L327.458 212.67C328.347 211.167 329.782 209.298 330.648 208.516C332.199 207.116 332.194 207.052 330.299 204.129C329.242 202.497 328.116 199.166 327.798 196.727C327.363 193.397 326.634 191.709 324.87 189.95C323.578 188.661 322.521 187.451 322.521 187.262C322.521 187.073 323.547 186.918 324.801 186.918C326.055 186.918 329.084 185.651 331.532 184.104C333.981 182.556 337.184 180.653 338.651 179.876C340.854 178.708 341.29 178.029 341.156 175.975C340.794 170.416 341.193 169.009 343.123 169.046C344.133 169.066 346.394 169.592 348.148 170.216C351.259 171.322 351.39 171.291 353.566 168.968C354.792 167.659 357.447 165.881 359.466 165.018C362.535 163.705 363.322 162.892 364.27 160.056L365.403 156.664L367.42 159.785C368.76 161.858 370.936 163.634 373.902 165.076C378.002 167.068 380.712 169.383 381.419 171.497C381.593 172.019 382.642 171.864 384.207 171.085C385.587 170.398 387.848 169.61 389.232 169.334C391.565 168.869 391.806 169.04 392.534 171.669C392.966 173.229 393.142 175.431 392.925 176.562C392.618 178.163 392.936 178.746 394.362 179.197C395.368 179.516 397.721 181.183 399.59 182.902C403.255 186.271 406.271 187.732 409.565 187.732H411.647L408.771 190.907C406.692 193.203 405.622 195.394 404.911 198.811C404.37 201.411 403.398 204.343 402.752 205.327C401.879 206.656 401.822 207.267 402.53 207.703C403.054 208.026 404.223 209.961 405.129 212.002L406.774 215.713L404.207 218.002C402.795 219.26 400.728 220.29 399.613 220.29C397.869 220.29 397.586 220.66 397.586 222.942C397.586 224.4 396.668 227.313 395.546 229.416C394.425 231.518 393.507 233.958 393.507 234.837C393.507 238.436 393.064 238.606 383.91 238.54C379.091 238.505 374.756 238.322 374.277 238.133C373.797 237.944 372.101 239.163 370.508 240.842C368.916 242.521 367.239 243.894 366.784 243.894C366.328 243.894 364.711 242.521 363.19 240.842V240.842ZM370.12 238.87C372.057 236.402 372.086 236.198 370.795 234.232C369.769 232.67 369.493 230.614 369.648 225.687C369.795 221.001 369.51 218.68 368.622 217.329C365.846 213.102 362.95 218.074 363.765 225.669C364.182 229.559 364.002 231.372 362.998 233.38C361.317 236.742 361.317 236.749 363.686 239.299C366.294 242.106 367.653 242.015 370.12 238.87V238.87ZM391.977 234.342C392.258 233.105 393.26 230.444 394.203 228.429C396.228 224.105 396.37 221.824 394.8 218.796C393.487 216.263 391.421 215.055 386.163 213.746C381.263 212.526 378.82 210.859 378.82 208.736C378.82 204.139 384.801 202.535 389.997 205.738C392.144 207.062 393.595 207.36 396.204 207.011C400.396 206.45 402.056 204.549 403.265 198.926C403.767 196.588 404.871 193.505 405.716 192.075L407.254 189.476L405.072 188.689C403.872 188.256 400.932 186.215 398.54 184.154C392.314 178.79 388.794 179.143 384.829 185.528C381.255 191.285 378.815 193.429 375.84 193.429C373.961 193.429 372.894 192.923 372.252 191.726C370.837 189.088 372.057 186.103 376.436 181.483C382.662 174.916 381.799 170.945 373.205 166.617C370.63 165.321 368.029 163.666 367.426 162.941C366.428 161.741 366.137 161.8 364.211 163.599C363.046 164.686 360.557 166.344 358.68 167.282C354.796 169.224 352.71 171.758 352.71 174.536C352.71 177.034 353.926 179.238 357.639 183.467C360.92 187.205 361.787 189.712 360.758 192.486C360.319 193.669 359.413 194.243 357.986 194.243C354.53 194.243 352.84 192.825 350.289 187.784C347.938 183.138 344.562 179.592 342.49 179.592C341.927 179.592 339.681 180.883 337.501 182.461C335.32 184.039 331.951 186.081 330.015 186.999C326.639 188.6 326.543 188.744 327.694 190.496C328.354 191.501 329.15 194.366 329.463 196.862C329.874 200.147 330.7 202.21 332.455 204.333C335.422 207.924 338.002 208.13 343.735 205.232C348.596 202.774 352.728 202.596 354.689 204.757C358.124 208.544 353.183 213.778 346.172 213.778C338.767 213.778 336.034 218.848 339.272 226.579C339.959 228.218 340.586 231.045 340.666 232.861L340.811 236.162L348.188 236.37C352.246 236.485 356.582 236.362 357.824 236.099C361.251 235.371 362.47 232.196 362.267 224.532C362.11 218.61 362.279 217.797 364.071 215.887C366.469 213.331 367.487 213.257 369.514 215.491C370.792 216.899 371.092 218.595 371.2 225.035C371.328 232.645 371.402 232.93 373.788 235.057C376.153 237.164 376.53 237.234 383.856 236.919C391.397 236.595 391.471 236.572 391.977 234.342V234.342ZM351.988 221.365C354.405 218.287 357.343 214.544 358.518 213.049C359.693 211.553 360.867 210.674 361.128 211.095C361.745 212.092 350.581 226.307 348.889 226.679C348.15 226.841 349.479 224.562 351.988 221.365ZM377.764 219.527C374.773 215.356 372.531 211.611 372.782 211.205C373.274 210.411 373.977 211.246 379.942 219.705C382.083 222.741 383.693 225.649 383.519 226.169C383.346 226.688 380.756 223.699 377.764 219.527V219.527ZM362.266 208.884C355.716 203.745 361.532 193.269 369.482 195.886C371.883 196.677 374.74 199.964 374.74 201.935C374.74 203.167 373.258 202.136 372.434 200.332C370.328 195.721 362.42 196.331 361.195 201.198C359.489 207.981 368.679 211.688 372.143 205.614C373.765 202.772 375.075 202.419 374.321 205.028C372.881 210.017 366.366 212.101 362.266 208.884V208.884ZM346.591 197.857C337.221 194.427 337.521 194.568 338.155 193.885C338.788 193.201 356.778 199.246 356.785 200.144C356.793 201.215 354.127 200.616 346.591 197.857ZM376.372 199.279C376.372 198.914 379.952 197.585 384.327 196.325C388.703 195.065 392.742 193.859 393.303 193.645C393.864 193.43 394.323 193.645 394.323 194.121C394.323 194.598 390.702 196.102 386.277 197.464C377.758 200.087 376.372 200.34 376.372 199.279V199.279ZM365.765 182.441C365.765 176.201 366.081 172.267 366.581 172.267C367.081 172.267 367.397 176.201 367.397 182.441C367.397 188.681 367.081 192.615 366.581 192.615C366.081 192.615 365.765 188.681 365.765 182.441ZM402.987 216.943C404.521 215.506 404.687 214.874 404.002 213.079C402.441 208.981 401.051 208.133 396.734 208.643C393.595 209.014 392.179 208.754 389.835 207.374C386.345 205.32 382.705 205.132 381.211 206.928C379.48 209.008 381.323 210.787 386.728 212.254C392.754 213.89 394.853 214.98 395.964 217.053C397.111 219.19 400.648 219.135 402.987 216.943ZM338.556 214.592C340.809 212.619 342.083 212.15 345.191 212.147C349.273 212.147 354.342 209.762 354.342 207.848C354.342 204.331 349.533 203.929 343.562 206.947C340.429 208.531 338.575 208.964 336.26 208.654C333.5 208.285 332.884 208.55 330.677 211.057C328.057 214.034 328.115 215.077 330.968 216.225C334.028 217.457 335.695 217.098 338.556 214.592ZM359.238 190.201C359.238 188.493 358.164 186.58 355.572 183.669C353.018 180.8 351.747 178.552 351.378 176.253C350.842 172.905 350.048 172.247 345.034 170.992C341.234 170.04 341.585 176.764 345.451 178.977C346.777 179.736 348.495 181.501 349.267 182.899C353.567 190.681 355.142 192.615 357.18 192.615C358.917 192.615 359.238 192.239 359.238 190.201V190.201ZM379.348 190.359C380.311 189.585 381.861 187.43 382.793 185.57C384.513 182.134 388 178.778 389.85 178.778C391.178 178.778 391.905 174.893 391.015 172.557C390.418 170.992 389.979 170.828 387.947 171.409C383.797 172.596 382.312 173.772 381.812 176.267C381.544 177.604 379.476 180.735 377.217 183.224C373.414 187.412 372.304 189.914 373.652 191.259C374.644 192.248 377.571 191.786 379.348 190.359V190.359ZM484.101 146.423C484.115 144.745 484.817 136.499 485.661 128.099C486.982 114.951 487.477 112.347 489.221 109.378C491.108 106.166 491.403 104.066 493.506 78.8225L495.765 51.7156L491.552 47.4596L487.338 43.2037V35.2933V27.3828H493.866H500.393V31.0456C500.393 34.689 500.408 34.7084 503.249 34.7084C506.09 34.7084 506.105 34.6889 506.105 31.0456V27.3828H512.224H518.344V31.0456V34.7084H521.607H524.871V31.0456V27.3828H530.991H537.11V31.0456C537.11 34.689 537.125 34.7084 539.966 34.7084C542.807 34.7084 542.822 34.6889 542.822 31.0456V27.3828H548.941H555.061V35.5711V43.7593L551.099 47.9839L547.137 52.2084L549.474 78.6619C551.335 99.7271 552.154 105.944 553.493 109.185C554.674 112.042 555.643 117.865 556.744 128.72C557.607 137.226 558.316 145.376 558.319 146.83L558.327 149.476H543.232H528.138V138.018V126.56L525.652 124.08C523.504 121.938 522.755 121.666 520.145 122.081C518.342 122.367 516.382 123.411 515.287 124.668C513.572 126.637 513.451 127.523 513.451 138.126V149.476H498.764H484.078L484.104 146.423H484.101ZM511.828 137.47C511.842 125.598 512.447 123.717 516.958 121.514C521.045 119.518 524.913 120.242 527.678 123.519C529.692 125.908 529.767 126.387 529.767 136.922V147.848H543.23C555.465 147.848 556.692 147.719 556.692 146.435C556.692 144.056 554.204 118.258 553.786 116.298L553.393 114.457L520.992 114.67L488.591 114.883L487.208 128.72C486.447 136.33 485.798 143.748 485.766 145.203L485.707 147.848H498.762H511.817L511.829 137.47H511.828ZM552.613 111.994C552.613 111.524 552.053 110.058 551.368 108.738L550.123 106.336H521.575H493.026L491.409 108.982C490.52 110.437 489.791 111.902 489.789 112.237C489.789 112.573 503.922 112.848 521.2 112.848C542.589 112.848 552.613 112.575 552.613 111.994V111.994ZM549.756 100.028C549.487 97.454 548.4 85.4584 547.342 73.3712L545.417 51.3944L549.423 47.2991L553.429 43.2037V36.1073V29.0107H548.941H544.453V32.6735V36.3363H540.013H535.572L535.321 32.877L535.07 29.4177L530.787 29.1716L526.503 28.9257V32.6309V36.3363H521.607H516.712V32.6735V29.0107H512.224H507.737V32.6735V36.3363H503.249H498.761V32.6735V29.0107H493.866H488.97V36.1073V43.2037L493.182 47.4582L497.394 51.7126L495.579 73.9373C494.58 86.1608 493.552 98.0848 493.294 100.435L492.825 104.708H521.536H550.246L549.756 100.028ZM516.712 72.72C516.712 64.3304 517.25 63.1968 521.236 63.1968C525.477 63.1968 526.503 65.1517 526.503 73.2317V80.2898H521.607H516.712V72.72ZM524.871 72.6565C524.871 66.1217 523.974 64.4929 520.632 64.9653C518.865 65.2153 518.737 65.6363 518.515 71.9464L518.278 78.6616H521.575H524.871V72.6565V72.6565ZM502.841 50.5627C502.841 47.5645 510.219 46.9679 511.338 49.8757C512.064 51.7633 511.046 52.4942 510.083 50.7769C509.108 49.04 505.413 48.9032 504.768 50.5802C504.157 52.1686 502.841 52.1567 502.841 50.5631V50.5627ZM517.163 51.056C516.207 49.5136 518.337 47.7313 521.136 47.7313C523.914 47.7313 525.687 48.9536 525.687 50.8691C525.687 51.8462 525.426 51.8177 524.195 50.7063C522.29 48.9863 519.456 48.9755 518.497 50.6843C517.967 51.6293 517.584 51.7359 517.163 51.0557V51.056ZM531.069 51.1138C530.595 50.3487 534.2 46.9175 535.478 46.9175C536.745 46.9175 540.364 50.3452 539.895 51.1012C539.601 51.5769 539.021 51.4324 538.46 50.7428C536.789 48.6916 534.76 48.509 533.122 50.2624C532.224 51.2241 531.359 51.5826 531.069 51.1138ZM495.498 42.8479C495.498 42.3223 504.745 42.034 521.607 42.034C538.47 42.034 547.717 42.3223 547.717 42.8479C547.717 43.3736 538.47 43.6619 521.607 43.6619C504.745 43.6619 495.498 43.3736 495.498 42.8479Z" fill="black"/>
</g>
<defs>
<clipPath id="clip0_1_3399">
<rect width="600" height="400" fill="white"/>
</clipPath>
</defs>
</svg>
