<svg width="600" height="400" viewBox="0 0 600 400" fill="none" xmlns="http://www.w3.org/2000/svg" xmlns:cgf="https://coding.garden/flags"><metadata id="cgf-metadata">

<cgf:flag>
  <cgf:name>Zevenaar</cgf:name>
  <cgf:route>nl/ge/zevenaar</cgf:route>
  <cgf:aspect-ratio>1.5</cgf:aspect-ratio>
</cgf:flag>

</metadata><g clip-path="url(#clip0_1_3418)">
<path d="M600 0H0V400H600V0Z" fill="#FCCC00"/>
<path d="M600 0H0V133.333H600V0Z" fill="#CC112F"/>
<path d="M600 266.667H0V400H600V266.667Z" fill="#CC112F"/>
<path d="M281.461 253.896C277.387 249.822 281.289 242.155 294.294 228.685C308.996 213.455 312.604 206.154 310.187 196.523C308.431 189.525 299.697 187.117 289.478 190.812C285.293 192.325 281.326 193.02 280.663 192.357C279.999 191.693 287.178 182.351 296.617 171.597L313.778 152.044L304.781 151.367C295.708 150.684 286.094 154.329 275.791 162.359C263.783 171.717 263.609 165.71 275.533 153.423L284.419 144.267H308.866C322.312 144.267 333.313 145.186 333.313 146.309C333.313 147.432 325.563 155.488 316.091 164.21C298.958 179.987 298.91 180.061 306.932 178.638C317.133 176.827 328.265 182.2 330.189 189.863C332.702 199.875 328.772 207.131 310.942 225.398C301.246 235.331 293.313 244.749 293.313 246.326C293.313 250.013 303.948 247.573 309.438 242.626C314.232 238.305 317.285 240.592 313.236 245.471C306.711 253.333 286.308 258.743 281.461 253.896Z" fill="black"/>
</g>
<defs>
<clipPath id="clip0_1_3418">
<rect width="600" height="400" fill="white"/>
</clipPath>
</defs>
</svg>
