<svg width="600" height="400" viewBox="0 0 600 400" fill="none" xmlns="http://www.w3.org/2000/svg" xmlns:cgf="https://coding.garden/flags"><metadata id="cgf-metadata">

<cgf:flag>
  <cgf:name>Zutphen</cgf:name>
  <cgf:route>nl/ge/zutphen</cgf:route>
  <cgf:aspect-ratio>1.5</cgf:aspect-ratio>
</cgf:flag>

</metadata><g clip-path="url(#clip0_1_3424)">
<path d="M600 0H0V400H600V0Z" fill="#0063BE"/>
<path d="M600 80H0V320H600V80Z" fill="white"/>
<path d="M326.667 199.999C335.507 199.999 343.986 203.511 350.237 209.762C356.488 216.014 360 224.492 360 233.333C360 242.173 356.488 250.652 350.237 256.903C343.986 263.154 335.507 266.666 326.667 266.666C331.087 266.666 335.326 264.91 338.452 261.784C341.577 258.659 343.333 254.42 343.333 249.999C343.333 245.579 341.577 241.34 338.452 238.214C335.326 235.089 331.087 233.333 326.667 233.333H196.667V196.666L326.667 199.999Z" fill="#F32737"/>
<path d="M326.667 200C335.507 200 343.986 196.488 350.237 190.237C356.488 183.985 360 175.507 360 166.666C360 157.826 356.488 149.347 350.237 143.096C343.986 136.845 335.507 133.333 326.667 133.333C331.087 133.333 335.326 135.089 338.452 138.215C341.577 141.34 343.333 145.579 343.333 150C343.333 154.42 341.577 158.659 338.452 161.785C335.326 164.91 331.087 166.666 326.667 166.666H196.667V203.333L326.667 200Z" fill="#F32737"/>
<path d="M73.3333 199.999C64.4928 199.999 56.0143 203.511 49.7631 209.762C43.5119 216.014 40 224.492 40 233.333C40 242.173 43.5119 250.652 49.7631 256.903C56.0143 263.154 64.4928 266.666 73.3333 266.666C68.913 266.666 64.6738 264.91 61.5482 261.784C58.4226 258.659 56.6666 254.42 56.6666 249.999C56.6666 245.579 58.4226 241.34 61.5482 238.214C64.6738 235.089 68.913 233.333 73.3333 233.333H203.333V196.666L73.3333 199.999Z" fill="#F32737"/>
<path d="M73.3333 200C64.4928 200 56.0143 196.488 49.7631 190.237C43.5119 183.985 40 175.507 40 166.666C40 157.826 43.5119 149.347 49.7631 143.096C56.0143 136.845 64.4928 133.333 73.3333 133.333C68.913 133.333 64.6738 135.089 61.5482 138.215C58.4226 141.34 56.6666 145.579 56.6666 150C56.6666 154.42 58.4226 158.659 61.5482 161.785C64.6738 164.91 68.913 166.666 73.3333 166.666H203.333V203.333L73.3333 200Z" fill="#F32737"/>
<path d="M200 326.667C200 335.508 196.488 343.986 190.237 350.237C183.986 356.488 175.507 360 166.667 360C157.826 360 149.348 356.488 143.096 350.237C136.845 343.986 133.333 335.508 133.333 326.667C133.333 331.087 135.089 335.326 138.215 338.452C141.34 341.578 145.58 343.334 150 343.334C154.42 343.334 158.659 341.578 161.785 338.452C164.911 335.326 166.667 331.087 166.667 326.667V196.667H203.333L200 326.667Z" fill="#F32737"/>
<path d="M200 326.667C200 335.508 203.512 343.986 209.763 350.237C216.014 356.488 224.493 360 233.333 360C242.174 360 250.652 356.488 256.904 350.237C263.155 343.986 266.667 335.508 266.667 326.667C266.667 331.087 264.911 335.326 261.785 338.452C258.659 341.578 254.42 343.334 250 343.334C245.58 343.334 241.34 341.578 238.215 338.452C235.089 335.326 233.333 331.087 233.333 326.667V196.667H196.667L200 326.667Z" fill="#F32737"/>
<path d="M200 73.333C200 64.4925 196.488 56.014 190.237 49.7628C183.986 43.5116 175.507 39.9997 166.667 39.9997C157.826 39.9997 149.348 43.5116 143.096 49.7628C136.845 56.014 133.333 64.4925 133.333 73.333C133.333 68.9127 135.089 64.6735 138.215 61.5479C141.34 58.4223 145.58 56.6663 150 56.6663C154.42 56.6663 158.659 58.4223 161.785 61.5479C164.911 64.6735 166.667 68.9127 166.667 73.333V203.333H203.333L200 73.333Z" fill="#F32737"/>
<path d="M200 73.333C200 64.4925 203.512 56.014 209.763 49.7628C216.014 43.5116 224.493 39.9997 233.333 39.9997C242.174 39.9997 250.652 43.5116 256.904 49.7628C263.155 56.014 266.667 64.4925 266.667 73.333C266.667 68.9127 264.911 64.6735 261.785 61.5479C258.659 58.4223 254.42 56.6663 250 56.6663C245.58 56.6663 241.34 58.4223 238.215 61.5479C235.089 64.6735 233.333 68.9127 233.333 73.333V203.333H196.667L200 73.333Z" fill="#F32737"/>
</g>
<defs>
<clipPath id="clip0_1_3424">
<rect width="600" height="400" fill="white"/>
</clipPath>
</defs>
</svg>
