<svg width="600" height="400" viewBox="0 0 600 400" fill="none" xmlns="http://www.w3.org/2000/svg" xmlns:cgf="https://coding.garden/flags"><metadata id="cgf-metadata">

<cgf:flag>
  <cgf:name>Alblasserdam</cgf:name>
  <cgf:route>nl/zh/alblasserdam</cgf:route>
  <cgf:aspect-ratio>1.5</cgf:aspect-ratio>
</cgf:flag>

</metadata><g clip-path="url(#clip0_1_10672)">
<path d="M-2.25391 1.58228V398.298H603.841V1.58228H-2.25391V1.58228Z" fill="#FFD500"/>
<path d="M-2.3916 201.516V403.087H604.575V201.516H-2.3916V201.516Z" fill="#D40000"/>
<path d="M294.859 61.7402H179.476V271.756C176.878 307.008 200.728 328.042 228.298 336.628C251.935 343.591 277.702 348.655 294.859 361.391V61.7402V61.7402Z" fill="#FFD500"/>
<path d="M294.859 61.7402H410.241V271.756C412.839 307.008 388.989 328.042 361.419 336.628C337.782 343.591 312.015 348.655 294.859 361.391C288.367 261.094 275.164 160.371 294.859 61.7402V61.7402Z" fill="#FFD500"/>
<path d="M410.079 61.7402H179.477V202.216H410.079V61.7402Z" fill="#D40000"/>
<path d="M205.45 94.4314C208.301 95.1209 209.856 96.7879 211.193 98.6184L209.614 101.217C205.047 98.9794 200.782 99.178 196.98 103.094C193.965 102.498 190.95 100.526 187.935 102.372C191.278 103.1 193.684 104.581 195.113 106.848V111.613L191.093 115.511C186.932 116.235 185.071 119.272 184.346 123.452C186.17 121.919 187.17 119.35 190.376 119.554C190.722 122.769 190.124 126.744 197.841 124.029L200.856 126.484C198.147 128.22 197.444 131.199 199.708 136.013L193.247 132.548C194.07 135.732 195.284 138.764 201 140.056C209.139 143.064 213.213 139.532 217.654 136.59L223.54 143.809C223.204 147.395 222.506 150.889 225.12 155.216L219.951 157.237C223.493 161.702 227.416 161.964 231.724 157.959C236.664 161.526 240.7 159.337 244.501 155.649C237.148 157.322 223.615 151.113 231.58 136.013C233.782 145.838 240.224 144.348 245.363 142.077C239.847 140.221 235.103 137.089 234.882 126.484L221.961 112.912C224.634 104.029 223.889 96.9112 212.485 95.2977C209.857 93.0112 207.724 94.2165 205.45 94.4314V94.4314Z" fill="#FFD500"/>
<path d="M261.299 164.6L250.962 172.686C245.293 175.519 238.733 177.258 236.318 184.092C235.055 186.462 233.476 188.193 229.57 185.247C230.079 188.287 230.114 191.567 234.308 192.754L225.263 200.262L221.674 197.663C219.818 193.486 216.825 191.455 211.911 193.043L208.465 192.466L207.748 194.631C205.929 194.962 204.11 195.126 202.292 196.942C198.18 196.945 196.261 199.154 194.396 201.417C196.74 200.79 199.085 199.225 201.43 199.973V203.872C200.366 204.871 199.279 205.847 199.708 208.348C197.214 210.176 197.789 212.518 197.41 214.7C198.309 213.321 198.168 211.157 200.425 210.802C201.712 215.098 204.604 216.838 210.475 213.834C208.362 216.614 207.014 219.479 208.322 222.641C207.193 224.903 208.203 227.165 209.327 229.427C209.522 224.973 212.465 225.125 216.075 226.395C224.755 226.839 228.2 223.258 230.432 218.743L238.184 216.722C241.199 218.502 238.151 220.283 238.041 222.064C241.921 219.707 243.92 216.719 243.209 212.823L250.244 204.449C252.796 206.221 251.558 208.537 251.68 210.658C256.505 207.232 255.612 203.327 256.131 199.54L259.576 195.498C261.447 195.65 262.441 197.71 262.017 202.861C265.932 198.818 265.469 194.776 264.888 190.733C266.187 189.186 267.033 187.297 269.77 186.835C282.053 179.744 276.057 173.735 276.518 167.344C271.209 178.427 263.976 181.96 254.839 178.028C260.28 175.913 263.844 172.451 261.299 164.6H261.299Z" fill="#FFD500"/>
<path d="M326.768 73.6408C325.994 63.7215 312.748 65.8814 302.217 65.4111L300.351 69.7425L295.326 69.4538L281.543 75.229C281.588 77.4909 281.225 79.7529 283.84 82.0149C284.191 84.9987 282.866 87.9826 287.86 90.9664L288.865 100.351L294.034 99.0517L294.464 91.6883L309.108 92.4102L309.539 102.95C303.716 100.7 298.063 98.2016 288.147 101.939C282.48 102.431 276.258 105.899 271.637 100.784C269.537 92.7341 265.743 88.0934 260.582 86.2019C256.735 85.2028 253.797 86.031 250.675 86.4907C256.123 87.2889 256.793 91.611 256.562 96.5973C257.075 101.431 256.554 106.548 265.176 109.158C268.047 109.842 270.919 110.011 273.79 109.158L289.583 104.249C296.091 101.175 302.6 102.262 309.108 104.538L302.504 110.169L294.034 104.249L290.157 105.549L290.875 109.014L286.281 115.944C288.287 118.325 290.649 119.545 294.177 116.955C295.939 116.105 297.751 115.34 300.638 116.377C303.119 116.677 305.977 117.23 307.386 116.81C307.741 119.291 308.021 121.754 301.643 122.73L285.132 120.998C281.591 120.25 278.049 120.801 274.508 121.575C268.482 123.473 264.438 123.876 252.685 130.093C244.921 131.266 241.956 123.014 245.076 118.399C232.612 122.618 233.6 136.264 247.661 141.788C239.27 148.612 233.302 145.122 231.15 139.767C228.137 148.255 235.031 157.019 247.373 152.906C245.378 160.544 237.186 162.539 233.591 161.568C243.467 173.346 254.013 166.602 261.443 157.814C261.32 160.654 261.812 163.493 263.597 166.333C264.984 172.478 262.405 175.554 258.859 177.883C262.417 178.777 269.733 178.567 275.37 163.878C279.298 167.132 283.425 179.493 273.36 187.557C280.346 192.563 292.303 190.083 292.741 175.14C294.126 179.653 301.784 189.322 314.564 186.691C312.289 183.119 308.136 181.326 311.98 171.964C313.713 168.937 314.165 166.426 313.99 164.167C316.637 171.801 320.533 178.293 331.505 178.316C329.731 176.053 323.519 173.656 331.362 162.435C332.872 159.884 331.757 157.333 331.075 154.783C333.09 159.553 334.591 164.783 343.278 163.59C336.036 155.655 340 151.946 341.412 147.275C343.553 142.703 342.821 138.131 341.555 133.559C342.883 134.341 344.439 135.81 346.149 137.746C351.053 134.319 354.942 122.101 347.011 113.923C350.722 115.205 354.722 118.033 357.348 113.49C353.793 110.783 349.266 110.785 350.456 94.8647C349.964 89.4247 348.01 85.7948 342.56 86.4907C348.101 82.2977 353.395 77.9694 346.58 66.9993L340.407 68.5875L337.248 71.042C333.51 67.7199 330.131 70.55 326.767 73.6408H326.768Z" fill="#FFD500"/>
<path d="M338.109 92.8433C335.776 106.273 337.578 119.787 319.301 130.96C318.912 132.522 317.979 133.948 319.014 135.869L322.603 137.89C319.301 139.395 315.999 139.404 312.697 136.302C310.926 135.195 309.156 135.304 307.385 135.724C289.928 137.661 286.699 134.425 278.24 133.27C285.245 136.264 290.61 140.16 310.543 137.312C312.468 138.599 313.326 139.675 316.861 140.778C321.961 141.352 323.921 139.557 326.049 137.89L321.598 136.013C318.692 133.567 321.346 132.799 321.885 131.393C339.38 121.796 339.292 107.007 339.257 92.9876L338.109 92.8433V92.8433Z" fill="#D40000"/>
<path d="M303.222 70.5004V72.0525C304.89 71.8704 306.628 71.6765 308.211 72.6661C301.014 76.3972 310.878 82.1587 312.016 76.456C316.482 79.1512 319.482 77.6779 318.692 78.0081L318.655 76.7809C315.291 76.3302 312.965 75.5594 310.867 72.7022C309.051 70.3251 306.273 70.1067 303.222 70.5004H303.222H303.222Z" fill="#AA0000"/>
<path d="M270.057 186.979C269.108 191.173 270.912 195.154 274.939 198.963L290.013 204.738C294.05 207.384 297.935 210.486 301.212 215.422L300.781 225.096C302.86 229.323 306.922 227.489 307.816 225.24C308.022 220.469 306.173 215.525 301.786 210.369C305.115 213.075 308.62 215.591 309.539 220.909V225.529C308.93 231.327 299.601 230.601 298.915 225.384L299.058 215.711C293.076 219.271 287.094 219.949 281.112 220.908C268.936 225.187 259.684 232.066 257.423 245.164C249.655 248.994 241.765 252.647 240.338 265.666C234.947 267.061 232.884 264.09 231.867 259.747C227.971 271.356 234.61 272.149 239.477 274.762L240.912 282.27C240.823 284.628 241.308 286.987 239.046 289.345C243.826 291.698 246.598 288.802 249.527 286.313L249.239 294.831L247.229 298.729C245.219 301.454 243.209 299.831 241.199 298.874C234.999 296.621 232.96 298.851 229.14 299.163C227.618 293.525 223.569 292.207 218.228 293.099C215.374 291.702 213.219 292.178 210.906 292.232C213.223 292.906 214.019 293.58 214.639 294.254C215.101 295.024 216.033 295.794 214.496 296.564C212.501 296.556 210.389 295.847 208.753 298.008C205.833 296.992 203.106 297.435 200.569 299.307C202.475 299.157 204.352 299.153 205.881 300.895C204.735 303.865 205.307 306.588 208.179 308.98L207.891 310.857C205.49 311.76 204.641 313.639 203.728 315.478C204.951 314.004 206.77 314.031 208.753 314.467C210.718 317.709 214.197 317.143 217.654 316.633L217.941 319.087C216.447 321.349 216.479 323.611 217.08 325.873C217.271 323.948 218.133 322.793 219.664 322.408C224.432 324.866 227.66 321.794 231.15 319.665C236.113 323.072 240.619 321.418 245.22 320.82C246.354 323.081 246.096 325.248 244.358 327.317C248.172 326.471 250.896 324.618 249.957 319.376C253.199 317.374 254.205 314.963 255.413 312.59C254.954 308.091 258.57 305.544 262.017 302.916C264.911 304.216 264.911 306.544 264.602 308.98C267.443 306.285 267.432 303.59 266.468 300.895C272.592 297.249 274.069 290.159 276.805 284.003C280.802 285.838 282.132 288.716 279.246 293.243C285.042 291.88 290.171 289.864 288.434 281.115C296.705 282.047 299.14 276.933 301.212 271.442C296.15 272.473 290.406 275.035 290.875 263.645C298.536 263.532 297.996 258.979 298.484 254.982C294.998 257.52 292.078 257.829 290.875 251.373C291.878 241.505 297.777 236.56 306.811 234.769C306.071 241.53 306.526 247.964 311.692 253.105C314.108 257.091 315.638 261.122 312.697 265.378C311.472 270.691 310.869 275.908 313.128 280.682C314.757 287.142 319.26 294.887 306.955 295.12C310.767 298.582 315.021 300.343 320.45 297.574C325.044 294.066 324.609 288.961 324.183 283.858C319.979 278.179 321.096 272.5 322.173 266.821C324.323 260.614 321.208 256.172 319.589 251.228C323.342 255.022 326.925 259.017 325.906 268.41C324.469 273.283 325.788 277.136 329.495 280.104C333.355 285.11 334.142 290.115 331.505 295.12C338.362 293.189 339.364 287.96 339.545 282.27C337.996 278.225 336.191 276.242 334.376 274.329C330.973 265.718 333.186 262.402 333.802 257.581C334.235 263.635 334.556 269.722 340.263 274.185C344.079 278.621 344.468 283.345 345.144 288.045C351.11 279.291 349.59 272.89 347.011 266.821C352.175 267.213 357.308 268.066 361.942 276.206C357.053 279.798 356.116 285.027 355.768 290.5C354.078 295.228 353.742 301.158 347.728 302.05L339.689 305.515C336.59 298.584 331.722 298.769 326.48 300.462C321.81 301.869 320.875 305.468 319.302 308.692C315.24 308.889 313.402 310.844 313.128 314.034C314.723 312.114 316.945 311.035 320.163 311.291C318.376 314.515 318.591 317.739 320.594 320.964C321.449 323.659 321.467 326.354 324.327 329.049C322.997 326.018 323.205 324.091 323.752 322.408C326.049 319.991 328.347 318.718 330.644 317.354C330.591 320.242 330.651 323.13 333.515 326.017C334.729 329.031 336.837 331.147 339.401 332.803C338.491 330.638 336.624 328.579 337.966 326.162C337.995 321.592 340.628 323.565 342.704 324.14C352.701 326.784 352.882 320.828 354.907 316.488C359.522 314.326 364.413 312.781 366.68 305.371C367.63 303.68 368.839 302.248 371.13 301.906C373.431 303.541 373.499 306.138 374.002 308.547C377.136 305.032 375.428 301.842 374.72 298.585C379.554 296.064 379.456 290.566 380.462 285.735C382.652 286.522 384.853 287.21 386.779 290.644C388.67 284.988 385.448 282.579 382.329 280.104C384.169 276.418 382.87 275.1 382.759 272.885C386.807 262.107 381.652 260.327 376.155 258.88C374.732 257.127 376.808 256.253 377.304 254.982C373.956 255.235 370.106 254.261 368.546 258.88C365.446 258.319 363.577 259.615 361.511 260.613C359.763 257.573 358.462 254.221 353.328 253.538L353.041 248.774C358.453 252.061 361.946 249.236 365.818 247.619C361.371 249.268 358.955 246.608 356.917 243.143C356.556 239.925 354.71 237.95 352.753 236.068L352.61 229.716C355.253 228.826 357.992 228.164 362.229 231.015C363.92 235.442 366.683 236.635 370.269 235.346C368.043 234.232 367.633 232.508 367.828 230.582C370.508 230.258 373.188 229.973 375.868 227.261C380.603 232.062 383.128 228.293 386.062 226.106C383.33 227.152 380.965 227.002 379.314 224.518C382.698 219.192 384.442 212.667 381.898 203.005C387.902 199.744 385.899 192.296 385.487 185.68C385.295 178.676 387.816 175.764 391.948 175.284C390.292 170.995 386.684 171.476 383.19 171.675L376.873 179.471C376.441 171.886 376.945 164.847 386.636 163.156C379.299 160.607 372.441 160.764 367.254 170.375C365.854 175.097 365.593 180.276 365.531 185.535C361.995 182.003 358.123 179.818 354.046 178.461C347.183 174.952 347.302 169.689 349.021 164.023C346.485 168.99 341.872 172.147 347.011 183.803L352.61 188.423C342.118 192.413 346.591 197.871 346.293 202.861C348.288 196.25 357.082 187.51 362.516 199.829C364.563 203.339 366.692 206.8 372.71 207.914C373.624 215.523 370.921 220.013 362.373 219.465C357.587 218.502 352.225 212.903 348.159 217.732C344.751 211.803 340.397 208.864 335.094 208.925C332.471 196.305 323.961 196.458 316.43 194.487C312.556 193.485 308.268 194.318 305.663 187.701C297.423 186.099 296.711 182.777 294.033 179.904C291.04 189.806 282.335 197.784 270.057 186.979L270.057 186.979Z" fill="#FFD500"/>
<path d="M363.809 181.493C357.836 176.085 353.182 169.639 355.912 157.381C358.816 151.173 357.535 144.965 354.333 138.756C351.728 131.817 352.784 125.339 359.358 119.554C369.977 112.407 377.32 103.379 371.992 87.0681C383.308 95.2829 381.334 104.95 375.151 115.078C383.721 112.275 387.754 106.117 383.334 93.7096C389.862 104.153 392.26 114.597 385.057 125.04C391.402 121.56 394.904 115.936 392.092 105.549C398.324 117.868 398.663 129.321 389.221 139.334L369.408 157.67C362.104 163.318 359.261 170.847 363.809 181.493V181.493Z" fill="#FFD500"/>
<path d="M180.121 202.153H406.88L407.524 278.055C402.217 296.471 396.774 314.899 370.16 327.557C349.331 340.423 328.502 341.637 307.673 348.677L293.5 357.918L280.165 349.611L223.926 332.45C203.577 322.029 184.613 309.096 179.477 281.356L180.121 202.153V202.153Z" fill="#FFD500"/>
<path d="M201.549 202.181L201.387 203.666C199.446 204.631 199.284 206.501 199.928 208.781C197.569 209.074 197.116 211.308 197.335 214.226C198.068 212.886 198.089 211.366 200.414 210.431C203.404 217.131 206.9 214.553 210.3 213.731C208.581 216.319 206.714 218.869 208.355 222.312C207.807 224.484 207.327 226.679 209.316 229.712C209.214 227.713 210.134 226.236 211.758 225.117C220.917 228.594 226.097 224.338 230.556 218.681L238.659 216.206L239.631 217.691L238.335 221.652C241.377 219.046 244.138 216.377 243.359 212.906L250.489 204.161L252.109 210.266C255.165 207.86 255.629 205.015 256.161 202.181L285.168 202.346C294.445 205.493 297.295 210.15 301.212 214.556L300.888 225.117C302.866 226.574 304.636 228.882 307.856 225.282C308.333 220.057 305.552 214.831 302.184 209.606C304.87 212.331 307.683 213.887 309.963 220.332L309.639 224.952C306.542 231.729 302.732 229.777 298.781 226.107L299.105 215.381C293.722 218.589 288.012 220.279 281.765 220.827C268.408 224.615 260.882 233.049 257.457 244.752C248.592 248.842 241.424 254.466 240.28 265.543C234.094 267.169 233.748 262.254 231.529 259.438C228.611 268.604 233.117 272.272 239.631 274.453C242.07 281.507 241.195 285.561 239.793 289.139C243.234 291.427 246.161 287.97 249.193 285.674C249.752 287.726 250.079 290.248 249.355 294.914L247.086 298.709C245.195 301.221 243.305 299.307 241.414 299.039C237.417 296.159 233.419 298.426 229.422 298.709C227.473 291.755 222.491 293.034 218.078 292.769C215.972 290.588 213.865 290.78 211.758 292.109L215.161 293.759C215.961 294.639 216.129 295.519 214.351 296.399C212.623 296.548 210.894 295.051 209.165 297.554C205.143 296.445 202.778 297.362 200.901 298.874C202.785 298.781 204.861 298.198 205.924 300.194C205.891 302.945 204.874 305.695 208.517 308.445V310.755C205.362 310.736 204.589 312.738 203.98 314.88L208.841 313.725C210.047 317.383 214.24 316.48 217.916 316.365L218.24 318.345C216.981 320.574 215.588 322.784 217.268 325.44C217.761 324.07 217.974 322.509 219.699 321.975C224.006 324.568 227.791 321.309 231.691 319.335C236.174 323.286 240.658 322.49 245.141 320.325C248.097 322.58 246.153 324.835 244.979 327.09C249.958 326.215 250.896 323.282 249.841 319.335C252.871 318.24 254.91 316.136 255.351 312.405C255.572 305.127 259.793 305.315 262.319 302.339C263.532 303.381 264.854 303.923 265.236 308.775C266.962 306.252 268.127 303.648 266.856 300.689C271.571 297.64 274.133 290.207 277.228 283.859C280.885 284.433 281.672 287.686 280.145 293.099C285.286 292.053 288.605 288.687 288.572 281.054C295.663 281.089 299.459 277.488 301.374 271.813C290.544 274.37 290.888 269.051 291.002 263.893C294.92 262.819 298.765 261.649 298.457 254.983C294.218 257.572 291.785 256.024 291.002 250.693C292.529 238.419 300.105 237.042 307.046 234.522C307.331 240.627 305.697 246.732 312.069 252.838C313.696 256.222 315.604 259.435 313.042 265.378C312.305 269.113 309.744 271.61 312.556 277.754C315.392 286.807 318.285 295.9 307.208 295.079C310.604 297.205 324.776 306.02 324.386 283.694C320.722 277.165 320.781 271.583 322.279 266.368C324.139 260.656 321.52 256.083 320.172 251.188C323.732 255.153 326.62 259.802 326.33 267.688C325.657 271.385 324.547 275.019 329.733 279.569C335.664 284.464 334.286 289.359 331.678 294.254C338.565 288.763 343.875 282.977 334.595 274.453C330.852 268.556 333.3 263.288 333.461 257.788C334.814 263.892 335.198 270.534 341.077 274.123C344.979 278.634 345.025 283.144 345.615 287.654C351.115 280.559 349.017 273.463 347.397 266.368C352.824 266.533 357.743 270.057 362.306 275.939C358.231 279.141 356.62 283.911 355.986 289.304C354.063 299.817 351.091 301.791 347.883 301.844L339.457 305.475C336.581 297.909 326.178 295.013 319.524 308.445C315.769 308.24 313.773 310.081 313.042 313.395C315.473 311.879 317.903 310.692 320.334 310.92C319.003 314.165 318.552 317.41 320.658 320.655C320.11 324.179 322.26 326.33 324.223 328.575C323.87 326.375 322.82 324.175 324.061 321.975L331.03 317.025C330.025 319.83 331.342 322.635 333.785 325.44C334.344 327.889 336.42 330.03 339.132 332.041C338.466 329.895 337.73 327.75 338.322 325.605C339.308 322.097 340.818 323.401 342.211 323.625C350.271 327.667 352.195 321.137 354.852 315.87C359.558 314.9 363.431 311.387 366.844 306.465C365.786 302.253 368.657 302.041 371.381 301.679C373.663 303.141 373.8 306.24 374.46 308.94C376.506 305.42 376.627 301.899 374.784 298.379C381.155 296.425 380.099 290.69 380.78 285.839C382.941 285.755 385.102 287.586 387.262 290.129C387.485 285.482 386.79 281.489 382.725 279.899C384.17 277.839 383.185 275.284 382.563 272.803C384.482 267.55 387.332 262.162 377.539 258.613C376.286 257.627 374.707 256.751 377.215 254.488C371.71 253.063 370.762 256.277 368.95 258.613C366.369 257.585 364.135 258.675 361.982 260.263C360.69 256.188 358.136 253.398 353.393 252.838L352.745 248.218C358.134 252.004 361.985 250.781 365.223 247.558C362.386 247.822 359.537 248.24 357.12 242.937C357.574 239.609 355.785 237.586 353.231 236.007L352.421 229.242C354.962 227.992 357.946 227.554 362.63 230.232C364.246 232.944 364.433 237.401 370.085 235.182L367.492 230.397C370.463 230.357 373.434 229.912 376.405 227.262C379.646 230.579 382.887 227.822 386.128 226.107C383.562 226.684 380.805 227.844 379.484 224.622C383.199 217.361 384.667 210.101 381.914 202.841L383.049 202.016L364.575 202.346C366.049 204.54 368.772 206.312 372.839 207.626C374.492 215.704 370.146 219.062 362.306 219.671C354.301 214.776 350.773 215.58 347.883 217.196C344.491 213.032 341.539 208.227 335.243 208.286L332.812 202.181H201.549L201.549 202.181Z" fill="#D40000"/>
</g>
<defs>
<clipPath id="clip0_1_10672">
<rect width="600" height="400" fill="white"/>
</clipPath>
</defs>
</svg>
