<svg width="600" height="400" viewBox="0 0 600 400" fill="none" xmlns="http://www.w3.org/2000/svg" xmlns:cgf="https://coding.garden/flags"><metadata id="cgf-metadata">

<cgf:flag>
  <cgf:name>Albrandswaard</cgf:name>
  <cgf:route>nl/zh/albrandswaard</cgf:route>
  <cgf:aspect-ratio>1.5</cgf:aspect-ratio>
</cgf:flag>

</metadata><path d="M561.788 0.679199H0.69043V374.298H561.788V0.679199Z" fill="#FCCC00"/>
<path fill-rule="evenodd" clip-rule="evenodd" d="M147.176 0.716797L561.966 63.184L147.171 124.353L147.176 0.716797Z" fill="#CC112F"/>
<path fill-rule="evenodd" clip-rule="evenodd" d="M147.176 125.774L561.966 188.218L147.171 249.364L147.176 125.774Z" fill="#CC112F"/>
<path fill-rule="evenodd" clip-rule="evenodd" d="M147.183 250.832L561.967 313.291L147.178 374.451L147.183 250.832Z" fill="#CC112F"/>
<path d="M147.194 0.653076H136.719V374.432H147.194V0.653076Z" fill="#CC112F"/>
<path d="M137.925 0.663086H0.699219V374.398H137.925V0.663086Z" fill="#0039A6"/>
<path fill-rule="evenodd" clip-rule="evenodd" d="M69.0646 121.881C27.112 121.881 23.4541 79.6551 23.4541 79.6551V7.69873H68.5297H113.605V79.6551C113.605 79.6551 109.947 121.881 69.0646 121.881Z" fill="white" stroke="white"/>
<path d="M55.6948 29.8475C55.6951 31.4783 55.3746 33.0931 54.7516 34.5998C54.1285 36.1066 53.2151 37.4757 52.0635 38.6289C50.9119 39.7821 49.5447 40.697 48.04 41.3211C46.5352 41.9453 44.9224 42.2665 43.2937 42.2665C41.6649 42.2665 40.0521 41.9453 38.5474 41.3211C37.0427 40.697 35.6755 39.7821 34.5239 38.6289C33.3723 37.4757 32.4589 36.1066 31.8358 34.5998C31.2128 33.0931 30.8922 31.4783 30.8926 29.8475C30.8922 28.2167 31.2128 26.6019 31.8358 25.0951C32.4589 23.5884 33.3723 22.2193 34.5239 21.0661C35.6755 19.9128 37.0427 18.998 38.5474 18.3739C40.0521 17.7497 41.6649 17.4285 43.2937 17.4285C44.9224 17.4285 46.5352 17.7497 48.04 18.3739C49.5447 18.998 50.9119 19.9128 52.0635 21.0661C53.2151 22.2193 54.1285 23.5884 54.7516 25.0951C55.3746 26.6019 55.6951 28.2167 55.6948 29.8475V29.8475Z" fill="#0039A6"/>
<path d="M55.9653 79.9678C55.9656 81.5986 55.6451 83.2135 55.0221 84.7202C54.399 86.2269 53.4856 87.596 52.334 88.7493C51.1824 89.9025 49.8152 90.8173 48.3105 91.4415C46.8057 92.0656 45.1929 92.3869 43.5642 92.3869C41.9354 92.3869 40.3226 92.0656 38.8179 91.4415C37.3132 90.8173 35.946 89.9025 34.7944 88.7493C33.6428 87.596 32.7294 86.2269 32.1063 84.7202C31.4833 83.2135 31.1627 81.5986 31.1631 79.9678C31.1627 78.3371 31.4833 76.7222 32.1063 75.2155C32.7294 73.7088 33.6428 72.3397 34.7944 71.1864C35.946 70.0332 37.3132 69.1184 38.8179 68.4942C40.3226 67.8701 41.9354 67.5488 43.5642 67.5488C45.1929 67.5488 46.8057 67.8701 48.3105 68.4942C49.8152 69.1184 51.1824 70.0332 52.334 71.1864C53.4856 72.3397 54.399 73.7088 55.0221 75.2155C55.6451 76.7222 55.9656 78.3371 55.9653 79.9678V79.9678Z" fill="#0039A6"/>
<path d="M80.8589 55.043C80.8592 56.6738 80.5387 58.2887 79.9156 59.7954C79.2926 61.3021 78.3791 62.6712 77.2276 63.8245C76.076 64.9777 74.7088 65.8925 73.204 66.5167C71.6993 67.1408 70.0865 67.4621 68.4577 67.4621C66.829 67.4621 65.2162 67.1408 63.7115 66.5167C62.2067 65.8925 60.8395 64.9777 59.6879 63.8245C58.5364 62.6712 57.6229 61.3021 56.9999 59.7954C56.3768 58.2887 56.0563 56.6738 56.0566 55.043C56.0563 53.4123 56.3768 51.7974 56.9999 50.2907C57.6229 48.784 58.5364 47.4149 59.6879 46.2616C60.8395 45.1084 62.2067 44.1936 63.7115 43.5694C65.2162 42.9453 66.829 42.624 68.4577 42.624C70.0865 42.624 71.6993 42.9453 73.204 43.5694C74.7088 44.1936 76.076 45.1084 77.2276 46.2616C78.3791 47.4149 79.2926 48.784 79.9156 50.2907C80.5387 51.7974 80.8592 53.4123 80.8589 55.043V55.043Z" fill="#0039A6"/>
<path d="M106.024 30.1185C106.024 31.7492 105.704 33.3641 105.081 34.8708C104.458 36.3776 103.544 37.7467 102.393 38.8999C101.241 40.0531 99.8738 40.968 98.3691 41.5921C96.8643 42.2163 95.2515 42.5375 93.6228 42.5375C91.994 42.5375 90.3812 42.2163 88.8765 41.5921C87.3718 40.968 86.0046 40.0531 84.853 38.8999C83.7014 37.7467 82.788 36.3776 82.1649 34.8708C81.5419 33.3641 81.2213 31.7492 81.2217 30.1185C81.2213 28.4877 81.5419 26.8729 82.1649 25.3661C82.788 23.8594 83.7014 22.4903 84.853 21.3371C86.0046 20.1838 87.3718 19.269 88.8765 18.6449C90.3812 18.0207 91.994 17.6995 93.6228 17.6995C95.2515 17.6995 96.8643 18.0207 98.3691 18.6449C99.8738 19.269 101.241 20.1838 102.393 21.3371C103.544 22.4903 104.458 23.8594 105.081 25.3661C105.704 26.8729 106.024 28.4877 106.024 30.1185V30.1185Z" fill="#0039A6"/>
<path d="M105.753 80.7806C105.754 82.4114 105.433 84.0262 104.81 85.5329C104.187 87.0397 103.274 88.4088 102.122 89.562C100.971 90.7153 99.6033 91.6301 98.0986 92.2542C96.5938 92.8784 94.981 93.1996 93.3523 93.1996C91.7235 93.1996 90.1107 92.8784 88.606 92.2542C87.1012 91.6301 85.734 90.7153 84.5825 89.562C83.4309 88.4088 82.5175 87.0397 81.8944 85.5329C81.2713 84.0262 80.9508 82.4114 80.9512 80.7806C80.9508 79.1498 81.2713 77.535 81.8944 76.0282C82.5175 74.5215 83.4309 73.1524 84.5825 71.9992C85.734 70.8459 87.1012 69.9311 88.606 69.307C90.1107 68.6828 91.7235 68.3616 93.3523 68.3616C94.981 68.3616 96.5938 68.6828 98.0986 69.307C99.6033 69.9311 100.971 70.8459 102.122 71.9992C103.274 73.1524 104.187 74.5215 104.81 76.0282C105.433 77.535 105.754 79.1498 105.753 80.7806V80.7806Z" fill="#0039A6"/>
<path fill-rule="evenodd" clip-rule="evenodd" d="M69.0646 246.938C27.112 246.938 23.4541 204.712 23.4541 204.712V132.756H68.5297H113.605V204.712C113.605 204.712 109.947 246.938 69.0646 246.938Z" fill="white" stroke="white"/>
<path d="M55.6948 154.905C55.6951 156.536 55.3746 158.15 54.7516 159.657C54.1285 161.164 53.2151 162.533 52.0635 163.686C50.9119 164.84 49.5447 165.754 48.04 166.378C46.5352 167.003 44.9224 167.324 43.2937 167.324C41.6649 167.324 40.0521 167.003 38.5474 166.378C37.0427 165.754 35.6755 164.84 34.5239 163.686C33.3723 162.533 32.4589 161.164 31.8358 159.657C31.2128 158.15 30.8922 156.536 30.8926 154.905C30.8922 153.274 31.2128 151.659 31.8358 150.153C32.4589 148.646 33.3723 147.277 34.5239 146.123C35.6755 144.97 37.0427 144.055 38.5474 143.431C40.0521 142.807 41.6649 142.486 43.2937 142.486C44.9224 142.486 46.5352 142.807 48.04 143.431C49.5447 144.055 50.9119 144.97 52.0635 146.123C53.2151 147.277 54.1285 148.646 54.7516 150.153C55.3746 151.659 55.6951 153.274 55.6948 154.905V154.905Z" fill="#0039A6"/>
<path d="M55.9653 205.025C55.9656 206.656 55.6451 208.271 55.0221 209.777C54.399 211.284 53.4856 212.653 52.334 213.806C51.1824 214.96 49.8152 215.874 48.3105 216.499C46.8057 217.123 45.1929 217.444 43.5642 217.444C41.9354 217.444 40.3226 217.123 38.8179 216.499C37.3132 215.874 35.946 214.96 34.7944 213.806C33.6428 212.653 32.7294 211.284 32.1063 209.777C31.4833 208.271 31.1627 206.656 31.1631 205.025C31.1627 203.394 31.4833 201.779 32.1063 200.273C32.7294 198.766 33.6428 197.397 34.7944 196.244C35.946 195.09 37.3132 194.175 38.8179 193.551C40.3226 192.927 41.9354 192.606 43.5642 192.606C45.1929 192.606 46.8057 192.927 48.3105 193.551C49.8152 194.175 51.1824 195.09 52.334 196.244C53.4856 197.397 54.399 198.766 55.0221 200.273C55.6451 201.779 55.9656 203.394 55.9653 205.025V205.025Z" fill="#0039A6"/>
<path d="M80.8589 180.1C80.8592 181.731 80.5387 183.346 79.9156 184.853C79.2926 186.36 78.3791 187.729 77.2276 188.882C76.076 190.035 74.7088 190.95 73.204 191.574C71.6993 192.198 70.0865 192.519 68.4577 192.519C66.829 192.519 65.2162 192.198 63.7115 191.574C62.2067 190.95 60.8395 190.035 59.6879 188.882C58.5364 187.729 57.6229 186.36 56.9999 184.853C56.3768 183.346 56.0563 181.731 56.0566 180.1C56.0563 178.47 56.3768 176.855 56.9999 175.348C57.6229 173.841 58.5364 172.472 59.6879 171.319C60.8395 170.166 62.2067 169.251 63.7115 168.627C65.2162 168.003 66.829 167.681 68.4577 167.681C70.0865 167.681 71.6993 168.003 73.204 168.627C74.7088 169.251 76.076 170.166 77.2276 171.319C78.3791 172.472 79.2926 173.841 79.9156 175.348C80.5387 176.855 80.8592 178.47 80.8589 180.1V180.1Z" fill="#0039A6"/>
<path d="M106.024 155.176C106.024 156.806 105.704 158.421 105.081 159.928C104.458 161.435 103.544 162.804 102.393 163.957C101.241 165.11 99.8738 166.025 98.3691 166.649C96.8643 167.273 95.2515 167.595 93.6228 167.595C91.994 167.595 90.3812 167.273 88.8765 166.649C87.3718 166.025 86.0046 165.11 84.853 163.957C83.7014 162.804 82.788 161.435 82.1649 159.928C81.5419 158.421 81.2213 156.806 81.2217 155.176C81.2213 153.545 81.5419 151.93 82.1649 150.423C82.788 148.917 83.7014 147.547 84.853 146.394C86.0046 145.241 87.3718 144.326 88.8765 143.702C90.3812 143.078 91.994 142.757 93.6228 142.757C95.2515 142.757 96.8643 143.078 98.3691 143.702C99.8738 144.326 101.241 145.241 102.393 146.394C103.544 147.547 104.458 148.917 105.081 150.423C105.704 151.93 106.024 153.545 106.024 155.176V155.176Z" fill="#0039A6"/>
<path d="M105.753 205.838C105.754 207.468 105.433 209.083 104.81 210.59C104.187 212.097 103.274 213.466 102.122 214.619C100.971 215.772 99.6033 216.687 98.0986 217.311C96.5938 217.935 94.981 218.257 93.3523 218.257C91.7235 218.257 90.1107 217.935 88.606 217.311C87.1012 216.687 85.734 215.772 84.5825 214.619C83.4309 213.466 82.5175 212.097 81.8944 210.59C81.2713 209.083 80.9508 207.468 80.9512 205.838C80.9508 204.207 81.2713 202.592 81.8944 201.085C82.5175 199.579 83.4309 198.21 84.5825 197.056C85.734 195.903 87.1012 194.988 88.606 194.364C90.1107 193.74 91.7235 193.419 93.3523 193.419C94.981 193.419 96.5938 193.74 98.0986 194.364C99.6033 194.988 100.971 195.903 102.122 197.056C103.274 198.21 104.187 199.579 104.81 201.085C105.433 202.592 105.754 204.207 105.753 205.838V205.838Z" fill="#0039A6"/>
<path fill-rule="evenodd" clip-rule="evenodd" d="M69.0646 369.495C27.112 369.495 23.4541 327.269 23.4541 327.269V255.312H68.5297H113.605V327.269C113.605 327.269 109.947 369.495 69.0646 369.495Z" fill="white" stroke="white"/>
<path d="M55.6948 277.461C55.6951 279.092 55.3746 280.707 54.7516 282.213C54.1285 283.72 53.2151 285.089 52.0635 286.242C50.9119 287.396 49.5447 288.31 48.04 288.935C46.5352 289.559 44.9224 289.88 43.2937 289.88C41.6649 289.88 40.0521 289.559 38.5474 288.935C37.0427 288.31 35.6755 287.396 34.5239 286.242C33.3723 285.089 32.4589 283.72 31.8358 282.213C31.2128 280.707 30.8922 279.092 30.8926 277.461C30.8922 275.83 31.2128 274.215 31.8358 272.709C32.4589 271.202 33.3723 269.833 34.5239 268.68C35.6755 267.526 37.0427 266.612 38.5474 265.987C40.0521 265.363 41.6649 265.042 43.2937 265.042C44.9224 265.042 46.5352 265.363 48.04 265.987C49.5447 266.612 50.9119 267.526 52.0635 268.68C53.2151 269.833 54.1285 271.202 54.7516 272.709C55.3746 274.215 55.6951 275.83 55.6948 277.461V277.461Z" fill="#0039A6"/>
<path d="M55.9653 327.581C55.9656 329.212 55.6451 330.827 55.0221 332.333C54.399 333.84 53.4856 335.209 52.334 336.363C51.1824 337.516 49.8152 338.431 48.3105 339.055C46.8057 339.679 45.1929 340 43.5642 340C41.9354 340 40.3226 339.679 38.8179 339.055C37.3132 338.431 35.946 337.516 34.7944 336.363C33.6428 335.209 32.7294 333.84 32.1063 332.333C31.4833 330.827 31.1627 329.212 31.1631 327.581C31.1627 325.95 31.4833 324.336 32.1063 322.829C32.7294 321.322 33.6428 319.953 34.7944 318.8C35.946 317.646 37.3132 316.732 38.8179 316.108C40.3226 315.483 41.9354 315.162 43.5642 315.162C45.1929 315.162 46.8057 315.483 48.3105 316.108C49.8152 316.732 51.1824 317.646 52.334 318.8C53.4856 319.953 54.399 321.322 55.0221 322.829C55.6451 324.336 55.9656 325.95 55.9653 327.581V327.581Z" fill="#0039A6"/>
<path d="M80.8589 302.657C80.8592 304.287 80.5387 305.902 79.9156 307.409C79.2926 308.916 78.3791 310.285 77.2276 311.438C76.076 312.591 74.7088 313.506 73.204 314.13C71.6993 314.754 70.0865 315.076 68.4577 315.076C66.829 315.076 65.2162 314.754 63.7115 314.13C62.2067 313.506 60.8395 312.591 59.6879 311.438C58.5364 310.285 57.6229 308.916 56.9999 307.409C56.3768 305.902 56.0563 304.287 56.0566 302.657C56.0563 301.026 56.3768 299.411 56.9999 297.904C57.6229 296.397 58.5364 295.028 59.6879 293.875C60.8395 292.722 62.2067 291.807 63.7115 291.183C65.2162 290.559 66.829 290.238 68.4577 290.238C70.0865 290.238 71.6993 290.559 73.204 291.183C74.7088 291.807 76.076 292.722 77.2276 293.875C78.3791 295.028 79.2926 296.397 79.9156 297.904C80.5387 299.411 80.8592 301.026 80.8589 302.657V302.657Z" fill="#0039A6"/>
<path d="M106.024 277.732C106.024 279.363 105.704 280.977 105.081 282.484C104.458 283.991 103.544 285.36 102.393 286.513C101.241 287.666 99.8738 288.581 98.3691 289.205C96.8643 289.83 95.2515 290.151 93.6228 290.151C91.994 290.151 90.3812 289.83 88.8765 289.205C87.3718 288.581 86.0046 287.666 84.853 286.513C83.7014 285.36 82.788 283.991 82.1649 282.484C81.5419 280.977 81.2213 279.363 81.2217 277.732C81.2213 276.101 81.5419 274.486 82.1649 272.979C82.788 271.473 83.7014 270.104 84.853 268.95C86.0046 267.797 87.3718 266.882 88.8765 266.258C90.3812 265.634 91.994 265.313 93.6228 265.313C95.2515 265.313 96.8643 265.634 98.3691 266.258C99.8738 266.882 101.241 267.797 102.393 268.95C103.544 270.104 104.458 271.473 105.081 272.979C105.704 274.486 106.024 276.101 106.024 277.732V277.732Z" fill="#0039A6"/>
<path d="M105.753 328.394C105.754 330.025 105.433 331.64 104.81 333.146C104.187 334.653 103.274 336.022 102.122 337.175C100.971 338.329 99.6033 339.243 98.0986 339.868C96.5938 340.492 94.981 340.813 93.3523 340.813C91.7235 340.813 90.1107 340.492 88.606 339.868C87.1012 339.243 85.734 338.329 84.5825 337.175C83.4309 336.022 82.5175 334.653 81.8944 333.146C81.2713 331.64 80.9508 330.025 80.9512 328.394C80.9508 326.763 81.2713 325.148 81.8944 323.642C82.5175 322.135 83.4309 320.766 84.5825 319.612C85.734 318.459 87.1012 317.544 88.606 316.92C90.1107 316.296 91.7235 315.975 93.3523 315.975C94.981 315.975 96.5938 316.296 98.0986 316.92C99.6033 317.544 100.971 318.459 102.122 319.612C103.274 320.766 104.187 322.135 104.81 323.642C105.433 325.148 105.754 326.763 105.753 328.394V328.394Z" fill="#0039A6"/>
</svg>
