<svg width="600" height="400" viewBox="0 0 600 400" fill="none" xmlns="http://www.w3.org/2000/svg" xmlns:cgf="https://coding.garden/flags"><metadata id="cgf-metadata">

<cgf:flag>
  <cgf:name>Alphen aan den Rijn</cgf:name>
  <cgf:route>nl/zh/alphen_aan_den_rijn</cgf:route>
  <cgf:aspect-ratio>1.5</cgf:aspect-ratio>
</cgf:flag>

</metadata><g clip-path="url(#clip0_1_10611)">
<path d="M600 0H0V400H600V0Z" fill="#2460AB"/>
<path d="M490.433 178.953L506.308 141.277L543.513 157.37L528.392 119.43L566.002 104.205L528.75 88.2254L544.738 50.5968L507.175 65.9445L492.166 27.948L476.291 65.6238L439.086 49.5309L454.208 87.4708L416.598 102.696L453.85 118.675L437.862 156.304L475.425 140.956L490.433 178.953Z" fill="#FCDD09"/>
<path d="M99.5032 -1.06812H-0.853136L-1.13867 60.8595C28.5857 104.969 77.3442 137.457 138.809 161.106C227.464 196.857 301.111 236.636 337.063 286.5C377.499 339.344 431.926 383.236 509.257 400.027C541.337 401.536 600.032 400.027 600.032 400.027C600.032 400.027 600.267 333.41 599.872 326.43C535.382 325.421 495.342 287.66 462.112 246.352C423.881 203.715 391.923 159.7 305.294 127.665C224.402 95.4513 146.553 60.5771 99.5032 -1.06812Z" fill="white"/>
<path d="M142.992 345.239L142.963 327.383L140.919 327.345L138.875 327.307V329.92V332.533L137.254 332.495L135.634 332.458L135.605 329.882L135.577 327.307H133.806H132.035V329.977V332.646H130.386H128.737L128.709 330.005L128.681 327.364L127.06 327.326L125.44 327.288V330.033V332.778H123.791H122.142V330.043V327.307H120.55H118.958V330.043V332.778H117.309H115.66V330.043V327.307H114.134H112.608V330.175V333.042L110.987 333.005L109.367 332.967L109.339 330.128L109.31 327.288L106.654 327.326L103.997 327.364L103.968 345.155L103.94 362.945H87.189H70.4473L70.5226 359.606C70.5603 357.767 70.6545 351.512 70.7299 345.692C70.7959 339.881 70.8901 334.552 70.9278 333.844L70.9937 332.571L71.8699 332.005C74.1122 330.552 76.8726 328.033 78.691 325.788C84.2025 318.959 87.7166 309.62 89.9589 295.848C90.788 290.773 91.3344 286.358 92.286 277C93.2846 267.265 93.7651 263.285 94.4246 259.295C94.6225 258.087 94.7544 257.04 94.7073 256.965C94.5094 256.634 86.9158 245.843 86.6991 245.588C86.4636 245.315 86.3694 245.305 84.5793 245.305H82.7045L82.7327 232.863L82.761 220.421L87.2456 220.392L91.7301 220.355V224.817V229.278H96.2524H100.775V224.826V220.374H105.297H109.819V224.826V229.278H114.341H118.864V224.826V220.374H123.442H128.021V224.826V229.278H132.477H136.934L136.962 224.854L136.99 220.43L141.475 220.402L145.959 220.364V224.826V229.288H150.482H155.004V224.835V220.383H159.526H164.048V232.863V245.343H162.362C161.194 245.343 160.619 245.39 160.478 245.503C160.374 245.588 158.462 248.258 156.238 251.437L152.196 257.21L152.564 259.398C153.223 263.332 153.694 267.218 154.702 277.123C156.144 291.254 157.105 297.772 158.744 304.602C161.9 317.77 167.054 326.571 174.695 331.844L175.995 332.741L176.061 334.023C176.098 334.731 176.183 340.07 176.259 345.881C176.325 351.692 176.419 357.955 176.466 359.795L176.541 363.134H159.79H143.039L142.992 345.239V345.239ZM109.31 320.053C109.31 316.053 109.461 316.27 107.85 317.846C106.437 319.232 105.146 321.364 104.619 323.204L104.534 323.487H106.927H109.32L109.31 320.053V320.053ZM115.66 318.704V313.912L115.199 313.997C114.944 314.044 114.257 314.233 113.672 314.412L112.608 314.742V319.119V323.496H114.134H115.66V318.704ZM122.133 318.336V313.176H121.191C120.673 313.176 119.957 313.214 119.599 313.261L118.958 313.346V318.421V323.496H120.55H122.142V318.336H122.133V318.336ZM128.671 318.468V313.506L128.002 313.422C127.635 313.374 126.909 313.308 126.382 313.271L125.44 313.205V318.355V323.506L127.06 323.468L128.681 323.43L128.671 318.468V318.468ZM135.568 319.44V315.384L134.626 314.997C133.608 314.582 132.449 314.205 132.195 314.205C132.063 314.205 132.035 315.091 132.035 318.855V323.506H133.806H135.577V319.44H135.568ZM142.342 323.213C142.182 322.657 141.343 320.864 140.919 320.185C140.439 319.402 139.12 317.77 138.969 317.77C138.912 317.77 138.875 319.063 138.875 320.638V323.506H140.655H142.436L142.342 323.213V323.213Z" fill="#FFED00"/>
<path d="M115.726 275.048L100.906 275.057L103.563 273.105L113.211 273.095V265.841C113.229 264.945 112.495 262.143 108.123 260.144C112.73 259.766 115.745 262.879 115.67 265.671L115.726 275.048Z" fill="white" fill-opacity="0.25"/>
<path d="M142.803 275.35L127.983 275.359L130.64 273.406L140.288 273.397V266.143C140.307 265.247 139.572 262.445 135.2 260.445C139.807 260.068 142.822 263.181 142.747 265.973L142.803 275.35Z" fill="white" fill-opacity="0.25"/>
<path d="M114.746 263.879H103.13V275.001H114.746V263.879Z" fill="#2460AB"/>
<path d="M108.943 269.699C112.153 269.699 114.756 267.093 114.756 263.879C114.756 260.665 112.153 258.059 108.943 258.059C105.732 258.059 103.13 260.665 103.13 263.879C103.13 267.093 105.732 269.699 108.943 269.699Z" fill="#2460AB"/>
<path d="M142.737 263.539H129.642V276.076H142.737V263.539Z" fill="#2460AB"/>
<path d="M136.189 270.095C139.806 270.095 142.737 267.16 142.737 263.539C142.737 259.919 139.806 256.983 136.189 256.983C132.573 256.983 129.642 259.919 129.642 263.539C129.642 267.16 132.573 270.095 136.189 270.095Z" fill="#2460AB"/>
<path d="M89.7891 250.475C89.7891 250.475 90.8631 244.824 96.3463 244.824C102.084 244.824 103.422 250.465 103.422 250.465" stroke="#2460AB" stroke-width="1.73171" stroke-miterlimit="10" stroke-linecap="round" stroke-linejoin="round"/>
<path d="M103.45 250.39C103.45 250.39 104.524 244.739 110.007 244.739C115.745 244.739 117.083 250.38 117.083 250.38" stroke="#2460AB" stroke-width="1.73171" stroke-miterlimit="10" stroke-linecap="round" stroke-linejoin="round"/>
<path d="M117.102 250.361C117.102 250.361 118.176 244.711 123.659 244.711C129.396 244.711 130.734 250.352 130.734 250.352" stroke="#2460AB" stroke-width="1.73171" stroke-miterlimit="10" stroke-linecap="round" stroke-linejoin="round"/>
<path d="M130.734 250.475C130.734 250.475 131.808 244.824 137.292 244.824C143.029 244.824 144.367 250.465 144.367 250.465" stroke="#2460AB" stroke-width="1.73171" stroke-miterlimit="10" stroke-linecap="round" stroke-linejoin="round"/>
<path d="M144.678 250.475C144.678 250.475 145.752 244.824 151.235 244.824C156.973 244.824 158.31 250.465 158.31 250.465" stroke="#2460AB" stroke-width="1.73171" stroke-miterlimit="10" stroke-linecap="round" stroke-linejoin="round"/>
</g>
<defs>
<clipPath id="clip0_1_10611">
<rect width="600" height="400" fill="white"/>
</clipPath>
</defs>
</svg>
