<svg width="600" height="400" viewBox="0 0 600 400" fill="none" xmlns="http://www.w3.org/2000/svg" xmlns:cgf="https://coding.garden/flags"><metadata id="cgf-metadata">

<cgf:flag>
  <cgf:name>Barendrecht</cgf:name>
  <cgf:route>nl/zh/barendrecht</cgf:route>
  <cgf:aspect-ratio>1.5</cgf:aspect-ratio>
</cgf:flag>

</metadata><g clip-path="url(#clip0_1_10660)">
<path d="M600 100H0V295.122H600V100Z" fill="#DA121A"/>
<path d="M600 0H0V100H600V0Z" fill="white"/>
<path d="M285.44 295.313C284.925 294.124 283.561 292.548 281.651 290.934C276.804 286.839 273.921 283.301 271.559 278.551C269.14 273.687 264.095 272.852 260.548 276.73C259.755 277.597 259.238 278.403 258.56 279.829L258.046 280.91L257.656 279.691C257.033 277.742 256.959 277.321 256.951 275.644C256.942 274.441 256.999 273.88 257.175 273.327C257.77 271.445 258.739 270.274 260.45 269.368C261.709 268.702 262.474 268.474 263.879 268.346L264.834 268.26L264.02 267.801C262.768 267.095 260.807 265.6 259.828 264.606C257.787 262.535 256.538 260.425 255.861 257.906C255.613 256.983 255.568 256.518 255.575 254.948C255.584 253.213 255.611 252.993 255.999 251.733C256.886 248.854 258.418 246.743 261.371 244.331C261.932 243.873 262.392 243.522 262.392 243.552C262.392 243.582 262.193 244.174 261.95 244.866C261.226 246.931 260.978 248.311 261.041 249.916C261.086 251.039 261.159 251.452 261.43 252.104C262.128 253.783 263.195 254.947 265.04 256.043C265.919 256.564 268.268 257.632 268.34 257.543C268.359 257.52 268.326 257.128 268.268 256.673C267.737 252.538 267.599 246.411 267.96 243.013C268.429 238.592 269.472 234.379 271.06 230.482C271.651 229.031 271.909 227.493 271.909 225.422C271.909 222.778 271.527 220.727 270.112 215.764C269.668 214.208 269.213 212.476 269.099 211.915C267.712 205.051 268.862 198.16 272.437 191.907C274.407 188.464 276.892 185.494 280.803 181.911C287.134 176.109 290.789 171.241 293.091 165.542C294.85 161.185 295.562 157.023 295.415 151.952L295.339 149.33L295.589 149.675C297.146 151.821 298.052 153.353 298.677 154.894C300.051 158.281 300.617 162.435 300.343 167.119C300.217 169.283 299.821 173.632 299.646 174.786C299.574 175.261 299.592 175.249 300.722 174.028C304.763 169.661 306.825 165.038 307.601 158.599C307.672 158.006 307.731 157.189 307.731 156.786C307.731 156.228 307.781 156.03 307.939 155.963C308.054 155.915 308.191 155.924 308.243 155.982C308.384 156.143 309.304 159.519 309.811 161.738C310.825 166.17 311.182 169.474 311.076 173.454C310.927 179.103 309.993 182.179 306.229 189.411C304.735 192.283 303.672 194.505 303.751 194.592C303.774 194.618 304.273 194.406 304.858 194.121C309.013 192.093 312.162 187.659 315.065 179.753C315.471 178.648 315.652 178.304 315.828 178.304C316.146 178.304 316.177 179.087 316.002 182.788C315.641 190.434 314.588 196.249 312.655 201.267C311.271 204.861 309.284 208.084 306.672 210.973C305.066 212.749 304.131 213.595 299.652 217.324C297.586 219.045 295.331 220.988 294.643 221.641C293.954 222.295 292.038 223.956 290.384 225.332C284.679 230.081 283.381 231.558 281.568 235.363C279.722 239.238 278.749 243.022 278.288 248.113C278.132 249.835 278.209 256.215 278.403 257.707C278.499 258.444 278.504 258.452 278.582 257.983C278.627 257.717 278.698 257.127 278.74 256.672C278.871 255.268 279.3 253.187 279.792 251.582C281.467 246.105 284.696 241.884 289.028 239.507C293.954 236.805 299.62 237.014 305.202 240.102C305.835 240.452 306.352 240.785 306.351 240.841C306.351 240.897 306.302 241.025 306.244 241.126C306.158 241.276 306.053 241.269 305.663 241.089C304.283 240.454 301.987 240.27 300.547 240.679C298.269 241.326 296.57 243.297 296.006 245.945C295.705 247.363 295.821 249.729 296.304 251.981C296.516 252.968 296.727 254.1 296.773 254.497L296.857 255.22L297.488 254.152C298.71 252.087 300.496 250.514 302.407 249.818C303.643 249.368 305.643 249.371 306.976 249.827C309.448 250.67 311.529 252.457 313.061 255.053C313.437 255.69 314.493 257.886 314.493 258.031C314.493 258.061 313.549 258.078 312.396 258.069C310.074 258.052 309.423 258.17 308.106 258.851C306.603 259.629 305.634 261.054 305.084 263.296C304.844 264.271 304.812 264.76 304.81 267.504C304.81 269.211 304.852 271.935 304.907 273.556C305.015 276.77 304.921 278.043 304.411 280.271C303.646 283.613 302.128 286.443 299.509 289.407L298.321 290.752L298.361 293.477L298.4 296.202H292.113H285.825L285.44 295.314L285.44 295.313ZM246.799 295.911C242.597 295.866 233.604 295.819 226.814 295.807L214.469 295.787L214.176 294.994C211.728 288.376 207.293 283.484 199.606 278.922C196.796 277.253 193.9 275.851 184.865 271.785C180.164 269.669 176.879 267.785 174.391 265.777C172.155 263.973 169.767 260.892 168.819 258.59C168.352 257.455 167.87 255.611 167.76 254.536C167.659 253.553 167.796 253.565 166.114 254.382C165.479 254.69 163.676 255.444 162.106 256.057C156.831 258.118 155.791 258.551 154.296 259.304C149.076 261.936 146.123 265.182 144.142 270.47C143.885 271.156 143.649 271.619 143.615 271.504C143.375 270.7 143.129 268.425 143.13 267.02C143.13 263.716 143.812 261.388 145.522 258.847C145.939 258.227 146.212 257.743 146.129 257.772C141.032 259.509 138.921 260.688 136.789 262.987C135.224 264.674 134.271 266.505 133.347 269.601C132.248 273.28 131.214 275.313 129.614 276.945C128.144 278.444 126.372 279.242 124.167 279.399L123.397 279.453L124.181 278.618C124.612 278.158 125.113 277.46 125.293 277.065C125.837 275.88 126.239 273.883 126.382 271.659C126.541 269.166 126.69 267.904 126.923 267.055C127.022 266.694 127.08 266.399 127.051 266.399C127.022 266.399 126.31 266.981 125.467 267.692C119.34 272.86 115.167 273.937 111.623 271.264C111.168 270.921 110.777 270.698 110.756 270.769C110.623 271.207 109.705 272.72 109.049 273.58C107.665 275.395 105.617 276.833 103.645 277.377C102.467 277.701 100.198 277.709 98.9766 277.392C96.4477 276.737 94.1161 275.305 91.998 273.107C91.5526 272.645 91.1752 272.358 91.0698 272.403C90.519 272.636 89.0994 273.84 88.3661 274.696C87.3729 275.856 86.8579 276.964 86.6852 278.314C86.6187 278.834 86.5302 279.297 86.4887 279.343C86.4468 279.388 85.9944 278.947 85.4822 278.363C84.761 277.54 84.4252 277.012 83.9924 276.023C83.1346 274.063 82.9694 272.539 83.4093 270.644C83.8908 268.57 84.8983 266.943 86.5799 265.524L87.5235 264.728L87.3581 264.011C87.2669 263.617 87.1317 262.725 87.0571 262.028L86.9217 260.761L85.8272 259.543C84.7015 258.289 84.1178 257.35 83.5977 255.955L83.2994 255.154L82.701 255.188C81.9012 255.234 80.5201 255.7 79.5995 256.236C78.6883 256.765 77.554 257.982 77.2305 258.777C77.0996 259.098 76.9568 259.362 76.9136 259.362C76.6835 259.362 75.9233 256.719 75.831 255.598C75.4764 251.289 78.2802 247.499 82.4471 246.654C82.9121 246.56 83.2925 246.425 83.2925 246.355C83.2925 246.284 83.5114 245.712 83.7788 245.083C84.6213 243.103 85.6738 241.832 87.0673 241.113C87.4965 240.892 87.6674 240.723 87.6709 240.516C87.6809 239.991 86.8855 238.47 86.2142 237.729C85.2696 236.686 84.2274 236.18 82.7897 236.065L81.6634 235.976L82.2355 235.174C83.5619 233.315 85.8769 232.325 88.245 232.604C90.0553 232.818 91.2983 233.412 92.4378 234.61L93.1441 235.352L93.9675 234.895C95.0756 234.281 96.0217 234.059 97.4452 234.079C100.143 234.115 102.809 235.439 104.779 237.719C106.217 239.384 107.103 241.211 107.647 243.633C108.277 246.443 109.596 248.736 111.01 249.483C111.913 249.96 112.615 250.039 113.708 249.788C115.674 249.334 117.281 248.294 121.943 244.456C125.375 241.631 142.659 226.634 142.587 226.544C142.565 226.517 142.107 226.325 141.57 226.116C140.248 225.605 138.992 224.891 138.087 224.136C137.128 223.336 135.657 221.696 135.899 221.696C136 221.696 136.542 221.766 137.103 221.852C138.342 222.043 139.618 221.871 140.478 221.399C141.059 221.079 142.032 220.152 142.032 219.918C142.032 219.852 141.144 219.377 140.059 218.865C134.148 216.077 131.642 214.027 130.56 211.095L130.286 210.352L130.133 211.367C129.634 214.66 128.132 216.53 125.257 217.436C124.805 217.578 124.335 217.695 124.213 217.695C123.791 217.695 123.824 217.287 124.286 216.777C125.051 215.935 125.296 215.193 125.283 213.762C125.27 212.333 125.098 211.457 124.295 208.706C123.93 207.452 123.427 206.118 122.924 205.07C121.906 202.944 121.415 201.663 121.112 200.338C120.808 199.009 120.79 197.086 121.071 196.033C121.389 194.842 121.417 194.02 121.173 193.011C120.685 190.991 119.288 188.639 116.949 185.9L115.777 184.528L114.998 185.243C112.615 187.427 110.671 188.398 108.404 188.536C106.473 188.653 104.87 188.127 103.085 186.792L102.31 186.212L101.652 186.693C98.8399 188.75 95.8123 189.122 93.2244 187.729C92.1283 187.139 90.644 185.542 90.0736 184.339C89.7695 183.698 89.0536 181.689 89.0536 181.477C89.0536 181.466 89.4339 181.599 89.899 181.773C90.9107 182.153 92.2717 182.199 93.3794 181.89C94.2309 181.652 95.9511 180.744 96.4981 180.244L96.8663 179.907L95.9235 178.82C94.063 176.674 93.7311 174.827 94.8145 172.647L95.1574 171.957L94.1406 171.948C93.3516 171.939 93.0092 171.876 92.6112 171.646C91.5114 171.011 90.8775 169.704 90.731 167.77L90.649 166.681L90.0081 166.463C87.7022 165.68 85.0026 165.806 83.4801 166.768C83.136 166.985 82.5945 167.416 82.2768 167.726L81.6993 168.288L81.6201 167.445C81.3405 164.497 82.0212 162.117 83.6681 160.286C85.1723 158.613 86.6212 157.961 89.0861 157.848L90.6829 157.775V157.15C90.6829 154.147 92.0089 151.849 94.5469 150.454C95.1909 150.099 95.7936 149.809 95.8859 149.809C95.9781 149.809 96.0889 149.747 96.132 149.67C96.2679 149.428 94.6142 146.824 93.546 145.598C91.8105 143.606 90.5647 142.902 88.3692 142.671L87.3704 142.566L88.1812 141.891C89.7616 140.574 91.3879 140.014 93.6262 140.014C95.236 140.014 96.4738 140.305 97.8749 141.015C98.9417 141.555 100.47 142.777 101.141 143.626L101.631 144.247L102.394 143.866C103.401 143.363 104.834 143.049 106.114 143.05C107.068 143.05 108.446 143.224 109.013 143.413C109.227 143.484 109.239 143.43 109.159 142.752C108.863 140.239 108.281 138.706 107.152 137.462C106.455 136.692 105.815 136.261 104.272 135.521L103.771 135.281L104.397 135.148C104.742 135.075 106.01 135.006 107.215 134.996C109.147 134.98 109.532 135.015 110.463 135.295C113.731 136.279 116 138.479 117.836 142.443L118.098 143.01L119.184 143.107C123.08 143.455 126.624 145.706 127.958 148.679C128.371 149.599 128.439 149.891 128.484 150.925C128.55 152.465 128.34 153.257 127.44 154.848C126.458 156.584 125.89 157.949 125.668 159.101C125.152 161.784 126.181 164.101 128.572 165.638C129.585 166.29 130.609 167.351 132.203 169.402C133.274 170.78 133.854 171.632 136.269 175.375C138.508 178.845 141.119 180.796 144.117 181.241L144.886 181.355L145.138 180.782C146.203 178.369 148.154 176.231 150.374 175.045C151.184 174.613 153.424 173.679 153.652 173.679C153.68 173.679 153.415 174.076 153.064 174.562C152.24 175.703 151.375 177.51 151.11 178.646C150.826 179.859 150.901 181.775 151.267 182.674C151.639 183.587 152.501 184.491 153.266 184.771C153.794 184.964 154.47 185.001 157.513 185C163.959 185 169.455 184.337 173.142 183.119C174.955 182.52 178.379 181.557 179.945 181.206C183.283 180.458 185.106 180.247 188.248 180.245C193.018 180.236 195.694 180.815 200.647 182.9C204.513 184.528 208.987 185.137 212.016 184.449C214.363 183.915 216.288 182.497 217.025 180.758C217.487 179.669 217.507 178.2 217.073 177.229C216.11 175.075 213.7 173.955 210.027 173.955C206.812 173.955 203.675 174.736 199.97 176.459C196.904 177.884 195.633 178.25 193.727 178.255C191.704 178.265 190.383 177.864 188.463 176.671C187.857 176.295 187.378 175.971 187.398 175.95C187.418 175.929 187.994 175.838 188.679 175.749C190.422 175.52 191.646 175.147 192.865 174.473C194.056 173.814 195.387 172.545 196.012 171.473C196.405 170.797 196.415 170.74 196.521 168.541C196.579 167.307 196.631 165.94 196.634 165.504L196.643 164.711H197.126C197.392 164.711 197.871 164.671 198.191 164.623C198.693 164.547 198.772 164.492 198.772 164.214C198.772 163.721 199.252 162.399 199.811 161.353C200.348 160.35 200.429 160.348 200.576 161.331C200.747 162.475 201.398 163.754 202.386 164.883C203.203 165.819 203.337 165.768 203.371 164.512C203.386 163.913 203.507 163.13 203.66 162.629C203.907 161.823 204.784 159.975 204.874 160.073C204.896 160.098 205.017 160.523 205.141 161.017C205.396 162.033 205.802 162.853 206.473 163.71C206.861 164.206 206.969 164.274 207.175 164.152C207.379 164.032 207.692 164.214 209.138 165.303C211.161 166.825 211.592 166.993 213.425 166.973C215.471 166.951 216.742 166.327 218.148 164.655C218.891 163.771 219.7 162.416 219.732 162.002C219.777 161.427 213.637 159.733 209.355 159.139C205.895 158.658 204.418 158.576 199.461 158.588C194.456 158.6 191.667 158.742 184.819 159.335C179.047 159.836 174.06 159.627 171.156 158.764C169.124 158.16 167.599 157.249 166.237 155.826C163.823 153.303 162.607 149.852 161.956 143.667C161.82 142.375 161.589 140.885 161.441 140.355C160.811 138.088 159.561 136.27 157.975 135.312C157.545 135.052 157.193 134.799 157.192 134.75C157.192 134.6 159.791 134.453 161.069 134.531C161.889 134.58 162.578 134.719 163.265 134.973C165.864 135.933 167.497 137.623 169.568 141.497C170.045 142.389 170.917 144.022 171.505 145.127C173.422 148.727 175.528 150.737 178.788 152.081C182.039 153.421 184.545 153.686 193.762 153.666C202.112 153.649 206.414 153.871 210.127 154.511C213.83 155.15 216.835 156.168 219.719 157.761C220.408 158.142 220.818 158.302 220.823 158.193C220.832 158.098 220.874 157.554 220.927 156.985C221.073 155.418 220.881 152.789 220.508 151.247C220.123 149.654 219.362 147.985 218.585 147.034L218.017 146.337L217.13 146.426C216.642 146.475 214.947 146.672 213.363 146.863C210.345 147.227 207.369 147.32 206.44 147.079L205.905 146.94L205.552 147.512C204.901 148.568 204.533 149.663 204.379 151.009L204.231 152.298L203.75 151.709C202.522 150.206 201.901 148.725 201.71 146.844L201.627 146.017L201.326 146.43C201.161 146.657 200.771 147.402 200.458 148.085C199.987 149.114 199.868 149.538 199.757 150.568C199.684 151.251 199.613 151.823 199.599 151.839C199.585 151.855 199.25 151.452 198.854 150.942C197.759 149.534 197.368 148.548 197.079 146.464L197.007 145.946H196.293C195.509 145.946 194.888 145.631 194.633 145.106C194.535 144.905 194.427 142.859 194.315 139.062C194.221 135.905 194.083 132.872 194.007 132.322C193.556 129.052 195.409 127.478 199.728 127.463L201.122 127.454L203.863 126.155C208.294 124.054 210.918 123.181 212.819 123.174C213.588 123.174 213.619 123.157 213.801 122.732C214.173 121.861 215.419 121.431 218.874 120.979C228.57 119.712 236.401 119.947 239.351 121.595C241.282 122.674 241.443 124.254 239.848 126.477C239.481 126.988 239.394 127.182 239.557 127.128C241.533 126.467 243.7 126.689 246.006 127.791C248.309 128.89 249.535 128.798 256.088 127.028C260.112 125.942 261.136 125.801 262.718 126.117C267.379 127.049 268.859 132.038 266.141 137.658C264.842 140.344 262.46 142.975 259.839 144.62L258.914 145.201L259.759 145.42C262.219 146.056 264.201 148.067 265.737 151.487C266.847 153.957 267.435 156.332 267.649 159.208C268.319 168.226 268.434 168.979 269.534 171.536C270.278 173.266 270.884 174.239 272.185 175.793L273.212 177.019L271.529 176.952C268.903 176.846 267.098 176.18 264.838 174.483C264.287 174.07 263.762 173.682 263.672 173.621C263.582 173.561 263.739 174.019 264.023 174.64C267.182 181.56 267.894 188.322 266.096 194.313C265.439 196.502 263.532 200.287 262.048 202.349L261.817 202.67L260.805 200.969C259.241 198.341 258.21 196.208 257.827 194.809C257.778 194.632 257.715 194.514 257.687 194.545C257.623 194.615 258.367 197.025 258.804 198.165C260.312 202.094 260.162 206.562 258.387 210.624C257.635 212.343 257.005 213.425 255.62 215.373C250.875 222.044 250.333 230.068 254.332 234.472C254.768 234.953 255.409 235.539 255.755 235.773C256.408 236.216 256.445 236.271 256.282 236.554C256.204 236.689 255.975 236.684 255.188 236.532C251.483 235.813 248.672 234.343 247.089 232.295C246.431 231.445 245.723 230.15 245.477 229.347L245.307 228.795L245.215 230.058C244.887 234.566 242.563 238.666 238.679 241.589C236.396 243.306 235.014 245.75 234.875 248.318C234.762 250.39 235.204 251.83 236.384 253.234C237.123 254.113 238.05 254.737 239.226 255.148C239.604 255.28 239.959 255.434 240.014 255.488C240.15 255.625 238.416 256.176 237.327 256.342C234.968 256.702 232.344 255.709 230.448 253.738C228.933 252.164 227.989 250.175 227.665 247.874L227.505 246.74L226.988 247.328C226.293 248.117 225.754 249.066 225.442 250.054C225.12 251.072 224.999 252.951 225.185 254.044C225.553 256.209 226.999 258.262 228.854 259.255C229.899 259.814 231.589 260.32 232.421 260.321C233.097 260.321 233.339 260.432 233.339 260.736C233.339 260.94 233.099 261.032 231.93 261.275C231.155 261.437 230.225 261.607 229.864 261.654C229.225 261.737 229.206 261.753 229.206 262.179C229.206 262.777 229.536 263.955 229.968 264.897C230.538 266.143 231.908 267.819 234.234 270.118C239.24 275.064 240.551 276.501 241.988 278.614C243.45 280.765 244.347 283.246 244.381 285.239L244.398 286.245L244.912 285.946C245.304 285.717 245.646 285.645 246.364 285.643C247.176 285.643 247.397 285.696 247.988 286.054C249.274 286.832 250.573 288.38 252.216 291.09C253.023 292.421 254.756 295.614 254.756 295.77C254.756 295.835 254.686 295.911 254.599 295.938C254.513 295.965 251.005 295.95 246.803 295.905L246.799 295.911Z" fill="#FCDD09"/>
<path d="M213.912 295.072C213.61 294.118 212.527 291.855 211.813 290.684C208.878 285.876 204.659 282.119 198.185 278.549C194.996 276.791 192.819 275.751 185.005 272.256C181.788 270.816 178.542 269.112 176.739 267.915C171.403 264.372 168.379 260.156 167.589 255.16C167.51 254.66 167.409 254.251 167.364 254.251C167.319 254.251 166.748 254.506 166.093 254.818C165.439 255.13 163.072 256.098 160.833 256.97C156.238 258.758 155.221 259.201 153.406 260.203C150.279 261.931 148.09 263.913 146.407 266.541C145.557 267.868 144.978 269.09 144.243 271.109C143.662 272.703 143.57 272.879 143.504 272.523C142.521 267.277 142.695 264.147 144.147 260.942C144.388 260.411 144.805 259.619 145.074 259.183C145.343 258.747 145.539 258.39 145.509 258.39C145.359 258.39 142.478 259.534 141.608 259.939C138.463 261.404 136.185 263.628 134.752 266.633C134.435 267.297 133.909 268.741 133.583 269.841C132.121 274.77 130.48 277.314 127.836 278.752C126.575 279.438 125.561 279.704 123.707 279.835L122.464 279.922L123.434 279.079C125.311 277.45 125.846 275.886 126.207 270.981C126.31 269.583 126.447 268.182 126.511 267.868C126.574 267.553 126.615 267.282 126.599 267.265C126.584 267.248 126.094 267.641 125.51 268.138C121.651 271.426 118.402 273.044 115.693 273.026C114.028 273.016 112.565 272.512 111.401 271.55C111.182 271.369 110.978 271.221 110.948 271.221C110.918 271.221 110.676 271.63 110.411 272.13C109.81 273.262 108.203 275.171 107.161 275.99C104.057 278.43 99.9832 278.692 96.1615 276.697C94.6512 275.909 93.279 274.882 92.1301 273.68L91.2096 272.717L90.2953 273.367C89.1065 274.213 87.9715 275.517 87.4642 276.619C87.1568 277.287 87.022 277.826 86.905 278.858L86.751 280.218L85.6238 278.993C83.8797 277.097 83.1217 275.406 82.9695 273.072C82.7874 270.28 84.1259 267.293 86.3733 265.477C87.1361 264.86 87.1981 264.772 87.1371 264.391C87.1007 264.164 86.9843 263.303 86.8785 262.479L86.6862 260.981L85.7555 259.979C84.7297 258.874 84.0632 257.826 83.4936 256.423C83.2614 255.851 83.0433 255.498 82.9198 255.496C82.4788 255.487 80.74 256.063 79.9507 256.477C78.9114 257.024 77.8826 258.137 77.3094 259.336L76.8898 260.214L76.4747 259.162C75.7628 257.359 75.6199 256.667 75.6173 255.009C75.6082 252.499 76.2089 250.893 77.7948 249.142C78.9317 247.886 80.2326 247.092 81.9174 246.625L83.0671 246.306L83.482 245.255C84.2401 243.334 85.5317 241.726 86.9076 240.989C87.2002 240.833 87.4399 240.642 87.4399 240.565C87.4399 240.146 86.4561 238.441 85.8877 237.875C84.8838 236.875 84.1335 236.56 82.5229 236.464L81.1609 236.383L81.8458 235.417C83.0255 233.754 84.3558 232.867 86.2221 232.501C88.51 232.053 91.0638 232.847 92.5942 234.482L93.177 235.105L93.9718 234.694C95.1309 234.095 95.9783 233.908 97.4594 233.922C100.724 233.954 103.795 235.752 105.912 238.87C106.789 240.162 107.291 241.291 107.672 242.832C108.171 244.848 108.356 245.416 108.894 246.572C110.142 249.253 111.724 250.193 113.929 249.563C115.935 248.991 117.203 248.144 122.15 244.072C125.294 241.485 141.952 227.015 142.017 226.815C142.035 226.758 141.753 226.598 141.391 226.458C140.31 226.042 138.784 225.156 137.881 224.421C137.077 223.766 135.101 221.568 135.209 221.449C135.237 221.418 135.896 221.496 136.675 221.622C138.224 221.874 139.099 221.82 140.07 221.414C140.721 221.142 141.704 220.351 141.643 220.148C141.622 220.078 140.529 219.506 139.215 218.877C136.537 217.596 135.136 216.79 133.834 215.781C132.667 214.876 131.434 213.482 130.868 212.429C130.419 211.592 130.411 211.585 130.332 211.978C129.691 215.151 128.167 216.931 125.324 217.827C124.171 218.19 124.091 218.18 123.86 217.646C123.664 217.194 123.666 217.188 124.102 216.731C124.811 215.988 125.07 215.197 125.053 213.825C125.037 212.526 124.89 211.799 124.052 208.858C123.672 207.525 123.242 206.373 122.764 205.408C121.637 203.133 121.17 201.883 120.813 200.191C120.572 199.049 120.578 197.112 120.826 196.16C121.192 194.752 121.191 193.996 120.817 192.782C120.198 190.742 119.034 188.83 116.941 186.412L115.768 185.058L115.284 185.5C113.767 186.89 111.741 188.181 110.354 188.642C109.309 188.991 107.34 189.066 106.306 188.797C105.299 188.536 103.903 187.849 102.969 187.156L102.3 186.66L101.779 187.055C98.2169 189.755 93.9655 189.561 91.2448 186.574C90.7573 186.039 90.156 185.2 89.9089 184.709C89.5092 183.915 88.6315 181.279 88.7306 181.169C88.7515 181.146 89.1308 181.289 89.5734 181.488C90.7473 182.014 92.2446 182.088 93.4687 181.681C94.334 181.393 95.7257 180.667 96.2518 180.228C96.4775 180.04 96.4479 179.981 95.6709 179.074C95.1841 178.505 94.6812 177.735 94.431 177.175C94.0592 176.343 94.0099 176.104 94.0101 175.127C94.0101 174.219 94.0693 173.88 94.3403 173.244L94.6705 172.468L93.843 172.375C92.7823 172.255 92.1135 171.924 91.5809 171.256C90.9756 170.496 90.7026 169.723 90.5252 168.263L90.3701 166.988L89.3093 166.682C88.5704 166.47 87.8674 166.375 86.9912 166.37C84.9277 166.358 83.6564 166.863 82.3174 168.229L81.5622 168.999L81.4642 168.474C81.4105 168.185 81.3673 167.173 81.3687 166.224C81.3687 164.701 81.4115 164.372 81.7182 163.401C82.4071 161.22 83.67 159.623 85.4934 158.626C86.701 157.967 87.8757 157.676 89.3446 157.672H90.4405V157.155C90.4405 156.111 90.71 154.819 91.1256 153.846C91.8288 152.201 93.1237 150.913 94.9068 150.084C95.3435 149.881 95.7346 149.678 95.7759 149.632C95.8178 149.587 95.5421 149.033 95.1644 148.402C92.8416 144.523 90.7412 143.052 87.5163 143.049H86.6595L87.5708 142.21C88.5618 141.298 89.4361 140.759 90.6941 140.287C91.8534 139.852 94.4106 139.747 95.779 140.079C97.7142 140.548 99.5299 141.634 100.964 143.18L101.754 144.031L102.483 143.67C103.648 143.094 105.044 142.862 106.721 142.965C107.513 143.013 108.342 143.089 108.563 143.134L108.964 143.215L108.897 142.683C108.738 141.425 108.322 139.917 107.914 139.112C107.151 137.609 106.455 137.063 103.283 135.476L102.788 135.228L104.723 134.98C108.924 134.442 111.851 135.111 114.326 137.173C115.613 138.245 116.996 140.174 117.907 142.165L118.229 142.869L119.27 142.964C122.916 143.297 126.356 145.341 127.927 148.108C128.776 149.603 129.004 151.652 128.503 153.297C128.359 153.769 127.882 154.786 127.444 155.557C126.456 157.293 126.036 158.401 125.854 159.756C125.735 160.642 125.745 160.949 125.923 161.745C126.289 163.375 127.327 164.747 128.893 165.666C129.365 165.944 130.055 166.6 130.967 167.638C132.659 169.565 133.607 170.867 135.563 173.949C136.404 175.274 137.512 176.846 138.025 177.442C139.513 179.17 141.43 180.429 143.323 180.921C144.699 181.278 144.685 181.285 145.375 179.926C145.799 179.09 146.31 178.36 147.049 177.533C148.216 176.228 148.831 175.725 150.147 174.998C151.008 174.522 154.193 173.223 154.276 173.314C154.299 173.34 153.89 173.976 153.366 174.727C152.323 176.222 151.538 177.875 151.304 179.066C151.221 179.487 151.174 180.33 151.2 180.938C151.236 181.834 151.317 182.199 151.622 182.857C152.053 183.784 152.795 184.487 153.599 184.728C154.354 184.955 162.818 184.801 165.273 184.517C168.58 184.133 172.518 183.292 174.353 182.577C175.904 181.972 180.399 180.883 183.245 180.422C185.81 180.006 190.535 179.968 192.764 180.344C194.807 180.689 196.95 181.283 198.838 182.027C202.104 183.315 202.622 183.498 204.098 183.886C206.263 184.456 207.777 184.628 209.839 184.539C213.286 184.391 215.606 183.182 216.692 180.968C217.063 180.211 217.121 179.965 217.122 179.128C217.131 176.083 214.572 174.368 210.034 174.368C206.763 174.368 203.718 175.141 199.84 176.955C196.917 178.323 195.636 178.673 193.594 178.663C191.51 178.652 190.233 178.232 187.967 176.809C186.408 175.83 186.391 175.865 188.545 175.615C191.201 175.307 193.173 174.428 194.649 172.894C196.136 171.348 196.166 171.258 196.299 167.834C196.361 166.23 196.435 164.84 196.463 164.745C196.493 164.643 196.732 164.572 197.049 164.571C197.812 164.571 198.525 164.421 198.525 164.265C198.525 163.766 199.023 162.468 199.704 161.195L200.503 159.702L200.647 160.516C200.979 162.391 201.606 163.792 202.581 164.833L203.012 165.293L203.095 164.484C203.225 163.212 203.509 162.251 204.128 160.985C205.042 159.114 204.979 159.148 205.233 160.388C205.482 161.599 205.997 162.795 206.603 163.567C206.937 163.993 207.041 164.055 207.193 163.916C207.345 163.777 207.683 163.98 209.117 165.08C210.996 166.519 211.487 166.749 212.928 166.869C214.761 167.021 216.439 166.309 217.783 164.807C218.452 164.06 219.441 162.51 219.441 162.207C219.441 162.086 217.2 161.272 215.746 160.865C210.11 159.29 204.035 158.722 196.052 159.026C191.955 159.181 188.173 159.426 184.873 159.749C180.858 160.143 175.22 160.043 172.565 159.531C170.022 159.04 167.735 157.885 166.188 156.309C163.705 153.78 162.361 150.11 161.759 144.222C161.422 140.924 161.089 139.609 160.216 138.131C159.553 137.009 158.702 136.186 157.382 135.39L156.255 134.711L156.881 134.586C157.226 134.517 158.578 134.453 159.887 134.444C162.575 134.425 163.038 134.523 164.709 135.474C166.924 136.734 168.174 138.341 170.657 143.118C172.388 146.447 173.067 147.526 174.184 148.721C176.474 151.169 179.239 152.481 183.653 153.213C184.838 153.409 186.27 153.451 192.683 153.479C204.095 153.527 208.564 153.849 212.865 154.931C215.275 155.538 218.146 156.645 219.786 157.6C220.554 158.048 220.571 158.051 220.626 157.762C220.861 156.524 220.697 153.246 220.317 151.59C219.965 150.054 219.215 148.368 218.489 147.478L217.9 146.756L217.073 146.844C216.619 146.891 214.922 147.089 213.304 147.282C210.652 147.597 208.616 147.679 206.367 147.558C205.894 147.534 205.867 147.558 205.457 148.361C204.895 149.462 204.673 150.335 204.564 151.878L204.473 153.16L203.616 152.071C203.144 151.472 202.594 150.671 202.393 150.292C201.975 149.501 201.53 148.036 201.53 147.449C201.53 146.902 201.401 146.948 201.006 147.636C200.358 148.769 200.13 149.552 199.981 151.172L199.837 152.741L198.93 151.586C197.617 149.912 197.025 148.533 196.865 146.774C196.837 146.457 196.77 146.422 196.059 146.347C195.633 146.303 195.14 146.162 194.965 146.035C194.248 145.518 194.258 145.592 194.071 139.295C193.975 136.086 193.835 133.01 193.759 132.46C193.286 129.022 195.26 127.332 199.761 127.322H201.061L203.957 125.965C206.962 124.557 207.906 124.158 209.291 123.71C210.415 123.347 211.985 123.046 212.751 123.046C213.304 123.046 213.406 123.001 213.526 122.711C213.883 121.849 215.489 121.289 218.877 120.845C227.26 119.748 234.486 119.775 238.049 120.916C239.681 121.438 240.683 122.188 241.061 123.171C241.39 124.025 241.138 125.231 240.409 126.287L240.123 126.701L241.899 126.701C243.571 126.701 243.741 126.727 244.802 127.137C245.422 127.377 246.295 127.746 246.743 127.957C247.476 128.302 247.695 128.339 248.935 128.33C250.532 128.317 252.015 128.011 256.546 126.761C259.975 125.814 261.14 125.669 262.749 125.99C267.301 126.9 269.011 131.575 266.789 137.033C265.756 139.569 263.379 142.555 261.021 144.279C260.366 144.758 259.811 145.17 259.787 145.195C259.764 145.219 259.987 145.312 260.286 145.401C262.436 146.039 264.523 148.29 265.972 151.536C267.127 154.123 267.681 156.372 267.909 159.4C267.978 160.311 268.12 162.196 268.224 163.589C268.469 166.85 268.711 168.485 269.176 170.024C269.847 172.243 270.852 173.979 272.695 176.103L273.825 177.406H272.259C269.459 177.406 267.182 176.688 265.049 175.134C264.681 174.866 264.358 174.646 264.331 174.646C264.303 174.646 264.428 175.003 264.608 175.44C268.026 183.711 268.23 190.632 265.257 197.376C264.688 198.667 262.85 201.868 262.112 202.852L261.81 203.257L261.008 201.958C260.567 201.243 260.053 200.378 259.865 200.035C259.473 199.322 259.448 199.387 259.706 200.447C259.807 200.864 259.953 201.869 260.031 202.68C260.427 206.805 259.08 211.131 256.131 215.209C255.579 215.973 254.925 216.944 254.68 217.367C253.537 219.335 252.497 222.156 252.118 224.316C251.871 225.724 251.901 228.471 252.176 229.697C252.494 231.107 253.226 232.773 253.96 233.757C254.491 234.468 255.627 235.538 256.318 235.978C256.522 236.108 256.524 236.157 256.349 236.618L256.159 237.118L254.903 236.869C250.444 235.987 247.387 233.985 245.801 230.908L245.509 230.341L245.431 230.882C244.788 235.363 242.875 238.636 239.09 241.733C238.29 242.387 237.347 243.284 236.993 243.726C235.766 245.259 235.093 247.108 235.096 248.939C235.105 252.045 236.741 254.209 239.854 255.219C240.371 255.387 240.835 255.567 240.886 255.62C241.034 255.774 238.361 256.598 237.274 256.734C232.542 257.326 228.248 253.529 227.395 247.996L227.313 247.462L226.952 247.843C226.45 248.373 225.744 249.908 225.519 250.959C224.804 254.298 226.233 257.689 228.961 259.129C230.025 259.691 231.736 260.187 232.614 260.188C233.277 260.188 233.3 260.211 233.361 260.879L233.404 261.362L232.027 261.659C231.269 261.822 230.375 261.997 230.041 262.049L229.434 262.142L229.521 262.787C229.735 264.361 230.701 266.123 232.335 267.917C232.854 268.487 234.322 269.976 235.596 271.224C241.564 277.072 243.66 280.013 244.428 283.618C244.53 284.097 244.614 284.698 244.614 284.952C244.614 285.778 244.678 285.843 245.278 285.613C246.044 285.321 247.168 285.435 248.016 285.892C249.739 286.821 251.917 289.807 254.552 294.854L254.894 295.51L254.294 295.501L253.694 295.492L252.779 293.782C250.79 290.062 248.95 287.628 247.562 286.88C246.987 286.57 246.745 286.515 246.178 286.567C245.496 286.629 245.448 286.656 243.854 287.9C243.618 288.085 243.612 288.046 243.621 286.383C243.634 284.035 243.313 282.643 242.334 280.812C241.107 278.516 239.386 276.486 234.809 271.937C233.127 270.266 231.428 268.505 231.033 268.026C229.582 266.263 228.746 264.547 228.507 262.838C228.443 262.383 228.378 262.263 228.222 262.312C228.11 262.348 227.061 262.451 225.89 262.542C219.411 263.048 213.956 261.858 209.642 258.999C206.21 256.724 203.068 252.637 201.219 248.044C200.611 246.534 200.528 246.447 200.528 247.327C200.528 247.722 200.441 248.682 200.337 249.459C199.258 257.442 195.747 262.779 190.636 264.202C189.137 264.62 186.573 264.525 184.935 263.991C182.187 263.095 179.619 261.313 176.481 258.124L175.792 257.424L176.606 257.524C179.539 257.881 181.564 257.294 183.574 255.503C184.987 254.244 186.236 252.006 186.708 249.892C187.017 248.505 186.988 245.823 186.649 244.432C185.906 241.391 184.141 238.393 181.723 236.071C181.023 235.397 180.921 235.34 180.806 235.554C180.735 235.687 180.422 236.176 180.11 236.642C179.573 237.444 179.535 237.563 179.386 238.882C178.878 243.38 176.989 247.279 173.986 250.034C172.709 251.205 171.361 252.156 169.763 253.014L168.436 253.726L168.518 254.53C168.652 255.841 169.061 257.27 169.72 258.737C171.914 263.614 176.266 267.125 184.997 271.061C186.34 271.666 188.679 272.721 190.195 273.405C202.842 279.113 208.83 283.609 212.831 290.401C213.745 291.951 215.056 294.893 215.056 295.392C215.056 295.455 214.827 295.506 214.548 295.506C214.092 295.506 214.027 295.462 213.904 295.074L213.912 295.072ZM126.175 278.331C129.234 277.308 131.03 274.832 132.669 269.376C133.653 266.1 134.802 263.977 136.575 262.156C138.331 260.353 140.182 259.238 143.549 257.95C144.767 257.484 148.604 256.186 148.641 256.227C148.655 256.241 148.159 256.874 147.54 257.632C145.753 259.819 144.885 261.374 144.314 263.413C144 264.531 143.788 266.829 143.888 268.023L143.961 268.894L144.578 267.678C147.174 262.556 151.085 259.516 158.895 256.551C162.532 255.17 164.607 254.319 166.093 253.6C166.954 253.183 168.095 252.637 168.628 252.387C172.481 250.574 175.801 247.18 177.196 243.627C177.675 242.406 178.176 240.543 178.303 239.511L178.393 238.776L177.66 239.323C175.84 240.68 174.41 241.164 172.23 241.16C170.111 241.15 168.221 240.554 165.905 239.149C164.91 238.545 164.906 238.54 165.255 238.394C167.124 237.611 167.889 237.104 168.932 235.957C169.664 235.153 169.947 234.705 170.463 233.538C171.111 232.07 171.589 230.33 171.876 228.381C172.058 227.148 172.104 220.597 171.936 219.705L171.836 219.169L171.375 219.652C169.845 221.255 166.335 223.877 164.077 225.103C160.373 227.114 157.155 228.04 153.104 228.259C150.632 228.393 146.879 227.983 144.141 227.279L143.404 227.09L134.678 234.706C126.429 241.905 120.734 246.718 118.625 248.27C114.385 251.393 111.521 251.689 109.327 249.233C108.286 248.067 107.289 245.785 106.806 243.46C106.37 241.36 105.025 239.011 103.416 237.538C102.389 236.599 100.656 235.616 99.3999 235.261C98.1439 234.907 96.2739 234.943 95.2043 235.342C93.868 235.842 93.3881 236.252 92.5699 237.591C91.9214 238.654 91.3217 240.195 91.3217 240.799C91.3217 240.898 91.6181 241.163 91.9803 241.388C92.8415 241.923 94.1315 243.442 94.8868 244.811C96.2093 247.206 96.9111 248.293 97.7603 249.261C99.6102 251.369 101.923 252.627 105.437 253.434C106.181 253.605 106.863 253.807 106.952 253.882C107.042 253.957 107.098 254.18 107.078 254.376C107.042 254.71 107 254.732 106.414 254.713C105.535 254.685 102.967 253.96 101.583 253.349C98.4895 251.986 96.6159 250.1 94.4934 246.214C93.2725 243.979 92.332 242.818 91.2809 242.248C89.7899 241.439 88.0787 241.44 86.9327 242.248C86.0741 242.855 85.1344 244.052 84.6083 245.209L84.1701 246.172L84.7087 246.325C85.5115 246.551 86.0348 246.892 86.6754 247.605C88.4839 249.618 88.5969 253.042 86.9241 255.141L86.5339 255.631L85.3508 255.539L84.1676 255.447L84.4557 256.124C84.6139 256.496 84.9257 257.107 85.1486 257.482C85.5539 258.165 86.7692 259.628 86.9309 259.628C86.9783 259.628 87.205 259.352 87.4349 259.014C88.5815 257.328 90.6194 256.326 92.9126 256.32C94.1292 256.31 94.7315 256.468 97.5838 257.494C102.142 259.133 104.053 259.527 105.939 259.218C107.055 259.035 107.353 259.121 107.353 259.628C107.353 260.013 107.108 260.142 106.044 260.318C104.097 260.641 102.055 260.237 97.6336 258.652C94.0632 257.372 93.0602 257.206 91.3394 257.61C89.9636 257.933 88.5942 258.946 87.9283 260.133C87.678 260.579 87.6716 260.674 87.8065 261.952C87.9868 263.659 88.1049 264.132 88.3301 264.045C88.4256 264.008 88.9546 263.982 89.5056 263.989C90.2985 263.998 90.6515 264.072 91.1966 264.348C92.4818 264.998 93.6281 266.421 94.034 267.87C94.2936 268.797 94.2839 270.218 94.0131 271.049C93.795 271.717 93.7674 271.744 93.0562 271.961C92.6537 272.085 92.3241 272.242 92.3241 272.311C92.3241 272.38 92.6763 272.775 93.1069 273.188C96.9806 276.904 101.823 277.947 105.45 275.845C107.266 274.793 108.815 273.046 109.971 270.748L110.636 269.425L111.406 270.136C111.829 270.527 112.592 271.066 113.102 271.334C113.943 271.776 114.153 271.826 115.375 271.882C116.559 271.936 116.86 271.899 117.883 271.575C120.43 270.771 123.518 268.653 127.495 264.983C128.137 264.391 128.704 263.906 128.755 263.906C128.806 263.906 128.967 264.084 129.113 264.301L129.378 264.696L128.838 265.28C127.787 266.417 127.37 267.897 127.206 271.081C127.059 273.95 126.635 276.109 125.929 277.589C125.503 278.481 125.482 278.532 125.535 278.53C125.557 278.53 125.845 278.438 126.174 278.328L126.175 278.331ZM86.0623 277.448C86.0623 277.307 86.2678 276.733 86.5188 276.172C87.4337 274.13 89.9445 271.882 92.2045 271.081C93.02 270.793 93.0749 270.747 93.1521 270.294C93.5543 267.932 91.9463 265.436 89.7928 265.08C89.3152 265.002 89.0861 265.046 88.5234 265.33C86.2564 266.473 84.3914 269.088 84.0498 271.601C83.8026 273.419 84.3092 275.457 85.4212 277.119C85.8421 277.749 86.0623 277.862 86.0623 277.448ZM190.545 263.09C194.042 262.105 196.994 258.578 198.461 253.63C198.99 251.849 199.4 249.371 199.551 247.047C199.704 244.703 199.641 243.319 199.149 238.177C198.934 235.939 198.896 234.857 198.945 232.451C199.034 228.19 199.422 226.065 200.6 223.414C201.66 221.03 203.02 219.465 205.011 218.34C206.127 217.709 206.484 217.721 206.484 218.39C206.484 218.658 206.297 218.83 205.44 219.341C202.644 221.01 201.085 223.616 200.276 227.975C199.862 230.203 199.813 234.521 200.16 238.177C200.311 239.77 200.478 241.633 200.532 242.316C200.611 243.327 200.746 243.882 201.258 245.309C204.344 253.902 208.958 258.733 215.917 260.656C218.302 261.315 219.777 261.485 223.079 261.483C225.9 261.483 229.491 261.181 229.881 260.915C229.945 260.873 229.633 260.665 229.187 260.455C225.903 258.912 224.183 255.955 224.373 252.181C224.487 249.911 225.266 248.056 226.673 246.706C228.115 245.322 228.699 244.594 229.114 243.665C229.624 242.524 229.738 240.899 229.408 239.487C229.165 238.45 228.331 236.442 227.673 235.308C226.416 233.144 226.031 231.786 226.12 229.829C226.152 229.108 226.269 228.207 226.379 227.826C226.963 225.801 228.824 223.585 230.492 222.926C230.875 222.774 230.987 222.775 231.155 222.926C231.535 223.273 231.329 223.662 230.531 224.101C229.605 224.611 228.235 226.068 227.808 226.999C226.693 229.423 226.87 231.87 228.343 234.398C230.325 237.803 231.014 240.854 230.342 243.251C230.074 244.209 229.355 245.505 228.725 246.168C228.255 246.662 228.224 247.22 228.582 248.761C229.303 251.87 231.416 254.385 234.101 255.33C234.851 255.594 236.26 255.749 237.021 255.652L237.75 255.558L236.921 254.959C235.127 253.662 234.101 251.461 234.101 248.91C234.101 245.924 235.663 243.018 238.4 240.913C239.638 239.961 241.755 237.654 242.429 236.52C244.151 233.626 244.604 231.555 244.405 227.481C244.23 223.902 244.422 220.998 244.989 218.683C245.123 218.135 245.13 218.13 245.572 218.24C245.818 218.301 246.034 218.372 246.052 218.397C246.071 218.423 245.977 219.127 245.843 219.962C245.498 222.109 245.468 226.298 245.787 227.757C246.182 229.566 246.89 230.967 248.05 232.233C249.244 233.538 250.364 234.266 252.286 234.989C254.046 235.652 254.204 235.641 253.558 234.897C252.467 233.641 251.686 231.998 251.229 229.993C251.007 229.023 250.956 228.42 250.966 226.86C250.983 224.001 251.507 221.686 252.764 218.916C253.543 217.201 254.079 216.29 255.318 214.569C257.071 212.136 258.13 209.903 258.737 207.361C259 206.256 259.056 205.707 259.059 204.164C259.069 202.079 258.87 200.833 258.254 199.01C257.27 196.101 256.993 195.195 256.71 193.964C255.691 189.532 255.793 185.755 257.01 182.962C257.285 182.33 257.543 181.812 257.583 181.812C257.622 181.812 257.849 181.902 258.087 182.011L258.518 182.209L258.326 182.804C257.074 186.666 257.212 191.031 258.716 195.171C259.49 197.302 261.66 201.365 261.926 201.183C262.127 201.047 263.49 198.731 264.072 197.539C267.444 190.634 267.028 182.673 262.844 174.002L262.171 172.608L262.534 172.312C262.734 172.149 262.925 172.016 262.96 172.016C262.993 172.016 263.512 172.449 264.11 172.978C265.36 174.083 266.308 174.731 267.551 175.332C268.464 175.774 270.315 176.285 271.017 176.29L271.425 176.3L270.633 175.197C268.447 172.151 267.669 169.519 267.228 163.675C267.119 162.233 266.974 160.318 266.906 159.419C266.754 157.425 266.537 156.248 265.979 154.413C264.384 149.16 261.306 145.928 258.225 146.27C257.804 146.317 257.084 146.508 256.625 146.696L255.79 147.036L255.604 146.525C255.502 146.245 255.434 145.997 255.453 145.974C255.472 145.952 256.035 145.721 256.705 145.46C261.186 143.719 264.958 139.749 266.273 135.391C266.724 133.896 266.865 132.511 266.678 131.404C266.27 128.981 264.945 127.573 262.611 127.085C261.155 126.781 260.123 126.911 256.881 127.806C249.859 129.746 248.212 129.892 245.911 128.778C244.41 128.051 243.217 127.733 241.994 127.735C240.721 127.735 239.868 127.967 238.626 128.642C237.656 129.17 237.685 129.173 237.348 128.524C237.242 128.32 237.395 128.098 238.28 127.175C239.827 125.562 240.417 124.407 240.126 123.563C239.557 121.914 234.938 120.957 228.528 121.16C222.635 121.346 216.147 122.148 214.934 122.838C214.485 123.094 214.477 123.151 214.868 123.314C215.151 123.433 215.162 123.474 215.031 123.943C214.908 124.387 214.855 124.435 214.571 124.361C212.31 123.773 209.621 124.475 204.071 127.102L201.281 128.423H199.876C196.728 128.423 195.173 129.143 194.773 130.777C194.541 131.729 194.625 131.924 195.317 132.033C196.181 132.168 196.604 132.355 197.497 132.996C198.67 133.838 199.085 133.847 200.629 133.068C201.314 132.721 202.139 132.365 202.46 132.276C203.371 132.023 204.169 132.289 204.169 132.846C204.169 133.201 203.969 133.296 203.171 133.321C202.613 133.338 202.218 133.478 201.222 134.012C200.074 134.627 199.896 134.682 199.023 134.691C198.148 134.7 198.019 134.662 197.395 134.225C196.305 133.461 195.635 133.113 195.255 133.113C194.831 133.113 194.849 132.428 195.078 139.655C195.23 144.432 195.264 144.903 195.472 145.071C195.635 145.202 196.185 145.255 197.398 145.257C198.332 145.257 200.356 145.319 201.894 145.392C204.66 145.524 204.701 145.53 205.481 145.953C206.882 146.713 208.516 146.738 213.93 146.085C215.269 145.923 216.842 145.779 217.427 145.764L218.49 145.738L219.211 146.679C221.791 150.045 222.509 156.306 220.887 161.287C219.312 166.123 216.025 168.582 212.079 167.876C210.849 167.657 210.478 167.467 208.882 166.247L207.395 165.11L206.432 165.806L205.469 166.503H203.318H201.166L200.845 165.942L200.523 165.381L199.497 165.464C197.474 165.628 197.406 165.647 197.403 166.063C197.403 166.267 197.347 167.505 197.281 168.815L197.161 171.197L196.726 171.946C195.49 174.074 193.486 175.569 190.893 176.298C190.307 176.463 189.813 176.615 189.794 176.636C189.736 176.699 191.175 177.243 191.829 177.403C192.724 177.622 194.828 177.591 195.778 177.346C196.83 177.073 198.078 176.595 199.41 175.954C203.146 174.153 206.638 173.263 209.96 173.264C214.149 173.264 216.708 174.52 217.801 177.11C218.072 177.753 218.129 178.087 218.131 179.065C218.131 180.154 218.097 180.326 217.664 181.293C215.501 186.113 208.067 187.084 199.913 183.612C195.526 181.745 191.577 180.991 187.136 181.174C183.746 181.314 179.093 182.203 175.305 183.435C169.374 185.364 164.484 186.03 156.952 185.933L153.382 185.888L152.676 185.505C151.812 185.038 151.026 184.126 150.59 183.084C150.327 182.455 150.252 182.036 150.211 180.959C150.149 179.33 150.374 178.187 151.065 176.628C151.329 176.03 151.537 175.53 151.525 175.517C151.514 175.505 151.106 175.708 150.62 175.97C148.554 177.083 146.975 178.854 145.859 181.31C145.236 182.68 145.179 182.885 145.179 183.742C145.179 187.915 147.481 190.315 151.754 190.599C152.667 190.659 153.296 190.621 154.071 190.455C154.657 190.331 155.854 190.189 156.733 190.141L158.33 190.053V190.606V191.158L156.921 191.247C153.224 191.483 151.014 192.342 149.413 194.167C147.47 196.38 146.81 198.967 147.003 203.609C147.216 208.726 147.115 210.26 146.408 212.723C145.709 215.158 143.128 220.246 142.029 221.356C141.159 222.234 140.133 222.703 138.716 222.87L137.861 222.971L138.295 223.376C139.458 224.46 141.298 225.371 143.549 225.978C154.392 228.902 162.645 226.59 171.416 218.173C171.695 217.906 171.706 217.804 171.771 214.999C171.852 211.5 172.071 210.235 173.009 207.843C174.856 203.136 179.105 200.13 185.607 198.929C186.749 198.719 187.136 198.806 187.136 199.276C187.136 199.716 186.993 199.775 184.867 200.216C178.803 201.475 175.028 204.511 173.524 209.34C173 211.02 172.849 212.037 172.774 214.379C172.723 215.97 172.765 217.59 172.922 219.759C173.441 227.062 172.708 232.074 170.627 235.451C170.02 236.434 168.701 237.801 167.913 238.262C167.602 238.444 167.347 238.631 167.347 238.678C167.347 238.832 168.838 239.48 169.888 239.782C171.199 240.159 173.192 240.193 174.343 239.857C176.989 239.086 179.435 236.609 180.604 233.516C181.516 231.102 181.649 229.707 181.446 224.657C181.239 219.521 182.097 216.267 184.336 213.685C185.714 212.096 187.673 210.713 188.113 211.018C188.655 211.394 188.388 211.816 187.119 212.585C185.918 213.312 184.307 215.147 183.668 216.517C183.384 217.124 183.06 217.962 182.947 218.379C182.414 220.353 182.231 223.973 182.515 226.934C182.697 228.826 182.45 231.039 181.84 232.976L181.416 234.322L181.966 234.802C182.761 235.494 184.347 237.339 185.071 238.415C186.621 240.717 187.618 243.338 187.894 245.836C188.441 250.784 186.167 255.623 182.314 257.708C181.273 258.272 180.094 258.666 179.438 258.669C178.594 258.679 178.684 258.873 180.017 259.961C181.658 261.3 183.935 262.563 185.507 263.008C187.068 263.45 189.153 263.484 190.547 263.091L190.545 263.09ZM223.277 137.647C221.177 137.316 219.613 135.426 219.475 133.052C219.441 132.471 219.484 131.72 219.574 131.297C219.737 130.537 220.461 128.804 220.785 128.398C220.948 128.195 220.942 128.16 220.741 128.093C220.068 127.868 219.109 127.686 217.832 127.543C216.72 127.417 216.374 127.329 216.267 127.142C216.168 126.968 216.169 126.837 216.277 126.661C216.548 126.197 219.227 126.446 221.294 127.128C224.12 128.06 226.577 129.968 228.972 133.09C229.823 134.2 230.649 134.814 231.915 135.28C232.816 135.612 233.101 135.649 234.733 135.651C237.114 135.651 238.009 135.398 240.995 133.867C243.991 132.332 244.796 132.159 249.7 132.007C253.845 131.878 254.027 131.848 256.713 130.841C257.609 130.505 258.817 130.126 259.398 129.997C262.166 129.387 264.417 130.324 264.465 132.106C264.491 133.052 263.773 133.087 263.492 132.154C263.021 130.593 260.676 130.496 257.026 131.887C254.282 132.934 253.978 132.985 249.825 133.111C244.945 133.258 244.326 133.387 241.461 134.854C238.35 136.446 236.563 136.922 234.169 136.794C232.086 136.683 230.404 136.056 229.239 134.957L228.743 134.49L228.489 134.939C227.949 135.897 226.679 137.006 225.697 137.376C224.796 137.717 224.169 137.787 223.283 137.647L223.277 137.647ZM225.334 136.322C225.644 136.202 226.137 135.924 226.431 135.704C227.012 135.268 227.964 133.977 227.964 133.624C227.964 133.339 226.171 131.365 225.1 130.472C224.643 130.09 223.747 129.493 223.109 129.144C221.982 128.527 221.944 128.517 221.76 128.775C221.52 129.111 220.763 130.726 220.638 131.168L220.544 131.502L220.889 131.203C221.932 130.3 223.331 130.661 223.856 131.969C224.168 132.746 224.086 133.518 223.621 134.19C223.044 135.024 222.13 135.254 221.284 134.779L220.814 134.514L221.062 134.951C221.447 135.629 222.554 136.399 223.342 136.537C224.121 136.673 224.545 136.627 225.334 136.322V136.322ZM222.131 133.17C222.548 132.711 222.228 131.732 221.661 131.732C221.084 131.732 220.692 132.772 221.101 133.222C221.313 133.456 221.898 133.427 222.131 133.171V133.17ZM77.7439 256.798C78.5948 255.897 80.033 255.072 81.4909 254.647C82.2761 254.418 82.8983 254.351 84.3672 254.336L86.2414 254.317L86.5262 253.851C86.9085 253.227 87.0627 252.56 87.0635 251.53C87.0635 249.866 86.28 248.377 85.0349 247.682C84.4593 247.361 84.3787 247.351 83.3834 247.488C79.3657 248.038 76.6887 250.907 76.6248 254.733C76.6102 255.638 76.8567 257.561 76.9881 257.561C77.0063 257.561 77.3471 257.218 77.7439 256.797V256.798ZM90.4975 240.015C90.6453 238.997 91.2434 237.666 92.117 236.41L92.4825 235.884L92.1219 235.469C90.4343 233.526 87.2237 232.92 84.8725 234.099C84.1632 234.454 83.2385 235.181 83.3453 235.299C83.3717 235.329 83.7145 235.445 84.1058 235.557C85.1415 235.854 85.7025 236.211 86.6206 237.157C87.2271 237.782 87.5673 238.284 87.9399 239.104C88.216 239.712 88.4419 240.287 88.4419 240.382C88.4419 240.506 88.7276 240.56 89.4286 240.57L90.4149 240.584L90.4968 240.016L90.4975 240.015ZM143.081 217.791C144.549 215.073 145.417 212.829 145.871 210.582C146.127 209.318 146.16 207.591 146.001 203.684C145.878 200.643 146.001 199.27 146.56 197.347C147.208 195.124 148.349 193.385 149.892 192.268L150.695 191.686L149.846 191.454C145.982 190.402 144.045 187.683 144.201 183.531L144.248 182.28L143.101 181.979C141.692 181.61 140.784 181.169 139.477 180.222C137.698 178.933 136.947 178.011 134.207 173.744C131.838 170.055 129.627 167.37 128.276 166.542C127.204 165.886 125.779 164.313 125.362 163.327C124.288 160.79 124.693 158.206 126.699 154.794C127.567 153.319 127.807 152.47 127.741 151.117C127.7 150.263 127.607 149.832 127.331 149.217C126.049 146.355 122.367 144.141 118.814 144.097C117.424 144.079 116.436 144.314 115.176 144.961C114.447 145.335 113.491 146.128 113.491 146.358C113.491 146.418 113.691 146.731 113.934 147.052C114.553 147.868 115.288 149.306 115.598 150.307C115.742 150.772 116.005 151.982 116.183 152.997C116.636 155.589 116.738 156.075 117.091 157.325C117.724 159.566 118.647 161.033 119.703 161.477C120.251 161.707 120.517 162.143 120.321 162.491C120.047 162.981 118.472 162.249 117.764 161.303C116.717 159.902 116.076 157.981 115.376 154.136C114.785 150.888 114.55 150.08 113.814 148.781C112.953 147.261 111.196 145.453 109.837 144.688C108.856 144.137 106.069 143.856 104.528 144.155C102.923 144.466 102.279 144.856 101.895 145.749C101.428 146.837 100.56 148.068 99.8442 148.656C99.4971 148.941 99.2134 149.212 99.2134 149.257C99.2134 149.302 99.4904 149.418 99.829 149.514C101.44 149.968 102.891 151.527 104.646 154.69C107.586 159.987 110.438 162.984 113.642 164.145C114.518 164.462 114.788 164.798 114.488 165.196C114.282 165.47 114.053 165.45 113.035 165.069C112.034 164.693 110.612 163.841 109.609 163.013C107.93 161.628 105.495 158.401 103.847 155.378C101.814 151.646 100.32 150.358 98.0259 150.358C96.0278 150.358 93.3353 151.913 92.3515 153.636C91.8147 154.576 91.5407 155.635 91.5246 156.83L91.511 157.872L92.0589 158.001C92.8012 158.177 93.9455 159.34 94.321 160.302C95.3686 162.985 94.5457 166.128 92.4696 167.372C92.0994 167.594 91.7628 167.708 91.6346 167.653C91.4446 167.573 91.4297 167.632 91.5056 168.17C91.711 169.628 92.1021 170.465 92.8008 170.942C93.1825 171.202 93.4336 171.256 94.2247 171.249C95.1224 171.24 95.2294 171.207 95.86 170.729C97.2725 169.657 99.6493 169.129 101.232 169.535C102.106 169.759 103.208 170.4 103.722 170.985C104.045 171.352 104.113 171.521 104.049 171.802C103.933 172.308 103.54 172.258 102.939 171.659C102.056 170.78 101.47 170.571 99.9022 170.571C97.4981 170.571 96.4589 171.184 95.4985 173.17C95.0748 174.046 95.0212 174.267 95.023 175.124C95.023 175.849 95.094 176.233 95.3005 176.664C95.6372 177.368 97.0495 179.194 97.2566 179.194C97.3395 179.194 97.6865 178.878 98.0283 178.491L98.6497 177.789L99.3403 177.854C102.263 178.131 104.394 182.141 103.266 185.243L103.048 185.844L103.354 186.11C103.938 186.619 105.919 187.593 106.705 187.758C108.515 188.139 110.668 187.596 112.599 186.271C113.52 185.639 115.015 184.348 115.339 183.907C115.703 183.41 115.348 182.009 114.729 181.527C114.338 181.221 114.25 180.715 114.541 180.449C114.898 180.121 115.714 180.794 116.196 181.814C116.35 182.142 116.425 182.607 116.429 183.26L116.438 184.223L117.744 185.744C120.494 188.946 121.831 191.499 122.111 194.087C122.198 194.889 122.176 195.147 121.972 195.706C121.62 196.67 121.545 198.721 121.815 200.026C122.086 201.337 122.725 203.032 123.638 204.855C124.372 206.323 125.436 209.603 125.852 211.685C126.147 213.162 126.126 214.974 125.803 215.865L125.538 216.595L125.81 216.505C126.939 216.129 128.319 214.764 128.841 213.508C129.228 212.578 129.497 211.113 129.618 209.271L129.714 207.822H130.215H130.716L130.804 208.802C131.074 211.78 132.813 214.07 136.446 216.233C137.554 216.892 141.993 219.055 142.254 219.063C142.331 219.063 142.705 218.493 143.084 217.791L143.081 217.791ZM98.6554 187.465C99.5765 187.156 100.845 186.451 101.557 185.853C103.474 184.242 102.448 180.127 99.877 179.117C99.2255 178.861 99.048 178.873 98.87 179.187C98.5882 179.684 96.8736 181.189 95.9259 181.771C95.4097 182.088 94.5097 182.511 93.9256 182.712C93.0122 183.025 92.6868 183.07 91.5922 183.032C90.8925 183.008 90.3202 183.008 90.3204 183.032C90.3204 183.356 91.1797 184.819 91.7994 185.557C93.1384 187.15 94.9308 187.943 96.902 187.815C97.3876 187.784 98.1765 187.626 98.6554 187.465V187.465ZM84.2594 165.616C86.1948 164.925 89.5264 165.221 91.3557 166.244C91.9255 166.563 92.0923 166.488 92.8059 165.595C93.4323 164.811 93.7147 163.911 93.7194 162.683C93.7285 161.624 93.4948 160.792 93.0048 160.085C92.5277 159.395 92.0084 159.097 90.9855 158.925C88.2118 158.459 85.9513 159.15 84.2951 160.97C83.0935 162.291 82.5412 163.636 82.3574 165.69L82.2691 166.681L82.9447 166.263C83.3163 166.032 83.9081 165.741 84.2597 165.616H84.2594ZM205.589 165.096C205.806 164.931 206.004 164.78 206.029 164.759C206.053 164.739 205.786 164.248 205.434 163.668C205.082 163.088 204.794 162.557 204.794 162.488C204.794 162.418 204.742 162.361 204.678 162.361C204.425 162.361 203.92 164.929 204.107 165.263C204.248 165.513 205.178 165.408 205.589 165.096V165.096ZM200.786 164.231C200.786 164.155 200.175 162.884 200.096 162.797C200.039 162.734 199.77 163.378 199.603 163.982C199.522 164.276 199.552 164.293 200.151 164.293C200.5 164.293 200.786 164.265 200.786 164.232V164.231ZM220.148 160.238C220.265 159.828 220.327 159.396 220.285 159.277C220.139 158.855 217.591 157.602 215.189 156.771C210.266 155.066 205.846 154.637 192.645 154.579C184.448 154.543 183.834 154.502 181.017 153.796C177.592 152.938 174.604 151.086 172.727 148.659C172.255 148.047 171.435 146.736 170.906 145.745C170.376 144.753 169.548 143.197 169.065 142.286C167.041 138.475 165.483 136.822 162.997 135.852C162.508 135.661 161.814 135.545 160.855 135.493L159.438 135.418L160.114 136.2C161.628 137.949 162.293 139.85 162.704 143.598C163.165 147.808 163.667 150.009 164.667 152.207C166.239 155.662 168.845 157.683 172.678 158.42C175.558 158.973 180.631 159.036 185.631 158.578C201.011 157.172 210.567 157.764 218.571 160.62C219.91 161.097 219.902 161.099 220.148 160.238V160.238ZM203.906 149.53C203.993 149.188 204.282 148.465 204.55 147.923L205.036 146.938L204.696 146.794C204.235 146.598 202.584 146.441 202.504 146.586C202.469 146.649 202.492 147.074 202.554 147.529C202.676 148.408 203.504 150.465 203.658 150.268C203.708 150.204 203.82 149.871 203.906 149.53V149.53ZM199.356 148.889C199.519 148.377 199.825 147.65 200.038 147.274C200.522 146.415 200.458 146.361 198.957 146.359H197.817L197.92 147.083C197.977 147.481 198.119 148.087 198.236 148.428C198.459 149.081 198.934 149.963 199.014 149.874C199.039 149.846 199.194 149.403 199.356 148.892V148.889ZM98.058 148.563C99.1832 147.942 100.299 146.762 100.841 145.62L101.154 144.96L100.15 143.899C98.9296 142.609 97.6695 141.803 96.0991 141.309C95.0182 140.97 94.7979 140.946 93.2811 141.012C91.6462 141.082 90.8435 141.279 89.8662 141.849C89.4809 142.073 89.4646 142.057 90.3833 142.364C92.3372 143.016 94.221 144.826 95.9315 147.695C96.3931 148.468 96.8345 149.105 96.9126 149.109C96.9909 149.118 97.5063 148.867 98.058 148.563V148.563ZM113.305 144.956C114.045 144.276 115.499 143.501 116.445 143.283C116.818 143.197 117.123 143.057 117.123 142.973C117.123 142.889 116.828 142.265 116.467 141.587C116.012 140.732 115.446 139.948 114.62 139.029C113.597 137.892 113.26 137.612 112.238 137.058C110.837 136.298 109.192 135.875 107.623 135.872H106.577L107.516 136.838C108.908 138.271 109.587 139.952 109.921 142.798C109.995 143.428 110.024 143.465 111.024 144.198C111.589 144.612 112.159 145.081 112.29 145.241C112.421 145.4 112.562 145.53 112.604 145.53C112.646 145.53 112.962 145.273 113.305 144.957V144.956ZM284.903 294.901C284.41 293.975 283.183 292.672 281.239 291.012C276.443 286.918 274.219 284.191 271.457 279.017C270.137 276.543 268.938 275.41 267.078 274.876C264.676 274.187 262 275.282 260.193 277.696C259.82 278.194 259.182 279.317 258.778 280.189C258.092 281.668 258.033 281.752 257.919 281.424C256.457 277.218 256.295 274.764 257.322 272.411C258.245 270.297 260.065 268.934 262.756 268.342L263.796 268.113L262.944 267.564C260.589 266.047 258.47 263.9 257.155 261.701C254.127 256.636 254.814 250.75 258.949 246.334C259.669 245.566 262.253 243.294 262.862 242.895C262.942 242.843 262.726 243.592 262.384 244.559C261.593 246.791 261.281 248.23 261.28 249.638C261.28 251.857 262.047 253.515 263.721 254.901C265.015 255.973 268.042 257.507 268.042 257.091C268.042 256.985 267.954 256.07 267.846 255.057C267.567 252.445 267.433 248.059 267.556 245.589C267.814 240.432 268.824 235.702 270.708 230.839C271.479 228.848 271.674 227.77 271.673 225.512C271.673 222.901 271.332 221.074 269.925 216.101C268.628 211.521 268.297 209.542 268.297 206.374C268.297 199.876 270.477 193.733 274.799 188.049C276.418 185.92 278.136 184.099 280.879 181.605C289.297 173.953 293.525 166.856 294.931 158.015C295.103 156.933 295.149 155.861 295.147 153.048C295.147 151.075 295.103 149.29 295.054 149.081C295.005 148.873 295.008 148.705 295.063 148.709C295.186 148.718 296.891 151.116 297.6 152.277C298.345 153.499 299.386 155.977 299.779 157.463C300.816 161.393 300.931 165.128 300.224 172.005C300.088 173.326 299.997 174.428 300.022 174.455C300.109 174.551 302.103 172.217 302.93 171.054C305.661 167.208 307.263 162.209 307.529 156.704C307.559 156.085 307.561 156.083 308.06 156.043L308.561 156.003L309.212 158.389C310.884 164.519 311.472 168.712 311.343 173.586C311.27 176.331 311.082 177.841 310.558 179.903C309.815 182.829 309.057 184.646 306.533 189.542C304.389 193.704 304.199 194.096 304.28 194.186C304.403 194.321 306.375 193.112 307.343 192.308C310.158 189.971 312.645 185.82 314.846 179.782C315.456 178.11 315.403 178.162 316.232 178.443C316.425 178.508 316.433 179.833 316.261 183.196C315.569 196.721 312.717 205.029 306.478 211.691C304.746 213.541 304.089 214.129 299.856 217.616C298.031 219.12 296.114 220.764 295.598 221.269C294.448 222.394 292.837 223.795 290.525 225.684C285.665 229.655 283.86 231.607 282.289 234.592C280.257 238.451 279.035 242.905 278.567 248.161C278.424 249.766 278.392 255.533 278.526 255.68C278.573 255.732 278.715 255.218 278.84 254.536C280.434 245.84 286.035 239.332 293.281 237.754C294.812 237.421 297.722 237.421 299.418 237.754C301.062 238.077 303.312 238.897 304.902 239.754C306.644 240.693 306.549 240.595 306.293 241.185L306.078 241.682L305.629 241.474C304.354 240.883 302.084 240.673 300.763 241.023C298.425 241.643 296.685 243.685 296.217 246.357C295.979 247.712 296.132 250.141 296.578 252.114C296.784 253.024 296.972 253.919 296.996 254.102C297.032 254.392 297.132 254.298 297.789 253.353C299.697 250.603 302.402 249.129 305.17 249.329C309.028 249.608 312.401 252.507 314.392 257.254C314.664 257.901 314.885 258.47 314.885 258.52C314.885 258.569 314.364 258.555 313.727 258.49C308.763 257.976 306.16 259.601 305.277 263.766C305.031 264.929 304.998 268.103 305.174 273.844C305.26 276.664 305.245 277.105 305.005 278.655C304.35 282.888 302.908 285.975 300.048 289.264L298.604 290.924V293.215V295.506H298.103H297.602V293.009V290.512L299.117 288.766C301.816 285.657 303.131 283.059 303.886 279.348C304.158 278.008 304.174 277.68 304.133 274.327C304.027 265.733 304.041 264.734 304.283 263.565C305.161 259.319 307.685 257.293 312.099 257.289C312.736 257.289 313.257 257.239 313.257 257.178C313.257 256.876 311.92 254.737 311.182 253.859C308.367 250.509 304.756 249.533 301.518 251.246C300.877 251.585 300.38 252.015 299.48 253.008C298.184 254.438 297.475 255.65 296.846 257.508C296.647 258.094 296.433 258.63 296.369 258.701C296.264 258.817 295.473 258.484 295.473 258.324C295.473 258.291 295.599 257.904 295.754 257.465C296.128 256.407 296.121 254.536 295.739 252.917C294.83 249.071 294.88 246.146 295.893 243.944C296.943 241.663 299.004 240.095 301.36 239.786L302.174 239.679L301.297 239.385C299.068 238.637 295.678 238.366 293.72 238.778C288.368 239.906 284.053 243.611 281.562 249.216C280.389 251.854 279.747 254.368 279.427 257.577C279.267 259.174 279.35 262.991 279.575 264.507C279.651 265.025 279.696 265.467 279.672 265.489C279.65 265.511 279.427 265.569 279.179 265.619L278.729 265.708L278.448 263.947C277.531 258.197 277.212 252.436 277.567 248.043C278.147 240.871 280.562 234.191 283.984 230.288C285.461 228.605 286.569 227.585 290.275 224.5C291.929 223.124 293.901 221.412 294.659 220.697C295.417 219.981 297.728 217.995 299.794 216.282C305.642 211.436 307.68 209.241 309.889 205.407C313.013 199.984 314.901 192.295 315.206 183.748L315.277 181.748L314.292 183.886C312.462 187.853 311.16 189.933 309.251 191.934C307.979 193.267 307.102 193.966 305.805 194.679C304.878 195.189 302.512 196.102 302.41 195.99C302.291 195.858 304.003 192.169 305.626 189.06C309.307 182.012 310.199 179.056 310.342 173.445C310.413 170.643 310.298 168.86 309.863 166.019C309.577 164.146 308.553 159.47 308.389 159.29C308.33 159.224 308.242 159.558 308.192 160.043C308.081 161.129 307.371 164.19 306.94 165.439C305.606 169.309 303.602 172.407 300.107 176.004C299.342 176.79 298.695 177.41 298.668 177.381C298.642 177.351 298.699 176.655 298.798 175.832C299.15 172.88 299.474 169.428 299.609 167.191C299.957 161.434 299.022 156.741 296.761 152.887L296.261 152.035L296.185 154.474C296.032 159.336 295.111 163.238 293.088 167.606C290.669 172.827 287.254 177.228 281.634 182.367C280.187 183.69 278.41 185.426 277.685 186.226C272.121 192.366 269.297 199.147 269.297 206.376C269.297 209.452 269.632 211.399 270.968 216.103C272.331 220.898 272.679 222.817 272.678 225.518C272.678 227.829 272.404 229.355 271.657 231.211C269.297 237.077 268.294 243.3 268.556 250.44C268.663 253.348 268.681 253.577 269.058 256.792C269.19 257.924 269.279 258.872 269.254 258.898C269.182 258.978 266.04 257.636 265.159 257.15C262.54 255.704 261.016 253.908 260.462 251.612C260.203 250.543 260.234 248.606 260.531 247.241C260.668 246.61 260.781 246.053 260.781 246.003C260.781 245.803 258.722 248.164 258.2 248.962C255.677 252.818 255.659 257.29 258.15 261.357C259.617 263.752 262.364 266.185 265.254 267.649C265.824 267.938 266.291 268.232 266.291 268.302C266.291 268.371 266.258 268.616 266.216 268.845L266.14 269.262L264.868 269.271C260.014 269.293 257.206 272.226 257.744 276.71C257.823 277.374 257.951 278.151 258.026 278.436L258.163 278.955L258.782 277.936C259.897 276.099 261.527 274.672 263.293 273.989C264.396 273.562 266.085 273.463 267.168 273.763C269.409 274.383 270.969 275.771 272.226 278.262C274.591 282.95 277.423 286.424 282.009 290.268C283.836 291.798 285.407 293.552 285.932 294.647L286.345 295.509H285.786C285.258 295.509 285.209 295.475 284.906 294.906L284.903 294.901Z" fill="black"/>
<path d="M600 295.122H0V400H600V295.122Z" fill="white"/>
<path d="M428.268 348.83V332.273H471.727H515.187V348.83V365.386H471.727H428.268V348.83ZM256.057 348.347V331.721H299.454H342.851V348.347V364.973H299.454H256.057V348.347ZM83.9717 347.519V330.893H127.369H170.766V347.519V364.145H127.369H83.9717V347.519ZM429.144 49.6374V33.0117H472.541H515.938V49.6374V66.263H472.541H429.144V49.6374ZM255.389 65.7574C255.344 65.7063 255.305 58.2251 255.305 49.1315V32.5979H298.766H342.226L342.194 49.1889L342.163 65.7802L298.818 65.8148C274.979 65.8339 255.436 65.8057 255.39 65.7574H255.389ZM83.4707 48.1888V31.6321H126.868H170.265V48.1888V64.7453H126.868H83.4707V48.1888Z" fill="#078930"/>
<path d="M427.601 349.04V332.207H471.312H515.022V349.04V365.872H471.312H427.601V349.04V349.04ZM513.895 349.04V333.311H471.312H428.729V349.04V364.768H471.312H513.895V349.04ZM255.391 348.557V331.655H299.038H342.686V348.557V365.458H299.038H255.391V348.557ZM341.684 348.625V332.896H299.038H256.393V348.625V364.354H299.038H341.684V348.625ZM83.3055 347.728V330.827H126.953H170.601V347.728V364.63H126.953H83.3055V347.728V347.728ZM169.599 347.66V331.931H126.953H84.3076V347.66V363.389H126.953H169.599V347.66ZM428.478 49.8472V32.9457H472.126H515.773V49.8472V66.7488H472.126H428.478V49.8472V49.8472ZM514.771 49.8472V34.1873H472.126H429.48V49.8472V65.507H472.126H514.771V49.8472ZM254.723 66.2431C254.678 66.1929 254.639 58.5866 254.639 49.3412V32.5317H298.35H342.061L342.029 49.3988L341.997 66.2658L298.402 66.3005C274.424 66.3196 254.769 66.2914 254.723 66.2431H254.723ZM340.932 49.364V33.6351L298.318 33.6697L255.704 33.7044L255.673 49.3986L255.641 65.0929H298.287H340.933V49.3639L340.932 49.364ZM82.8047 48.3984V31.5659H126.452H170.1V48.3984V65.2311H126.452H82.8047V48.3984ZM169.098 48.3984V32.6695H126.452H83.8066V48.3984V64.1273H126.452H169.098V48.3984Z" fill="black"/>
<path d="M268.588 258.022C273.358 260.018 280.146 265.05 281.595 269.036" stroke="black" stroke-width="1.16889" stroke-linecap="round"/>
<path d="M278.967 208.155C280.456 195.42 290.393 185.876 299.338 175.941L299.351 175.915" stroke="black" stroke-width="1.16889"/>
<path d="M287.27 210.976C288.843 204.427 294.698 199.203 303.704 194.953" stroke="black" stroke-width="1.16889" stroke-linecap="round"/>
</g>
<defs>
<clipPath id="clip0_1_10660">
<rect width="600" height="400" fill="white"/>
</clipPath>
</defs>
</svg>
