<svg width="600" height="400" viewBox="0 0 600 400" fill="none" xmlns="http://www.w3.org/2000/svg" xmlns:cgf="https://coding.garden/flags"><metadata id="cgf-metadata">

<cgf:flag>
  <cgf:name>Goeree-Overflakkee</cgf:name>
  <cgf:route>nl/zh/goeree_overflakkee</cgf:route>
  <cgf:aspect-ratio>1.5</cgf:aspect-ratio>
</cgf:flag>

</metadata><g clip-path="url(#clip0_1_10697)">
<path d="M-5.39072 -3.62427L-6.25195 405.425H606.092V-3.62427H-5.39072Z" fill="#1E64D6"/>
<path d="M-6.17333 349.49L-6.41406 407.086C6.46646 405.308 19.347 410.062 32.2275 414.373C58.6019 423.931 84.9763 425.769 111.351 413.087C129.622 402.854 156.739 403.367 181.274 412.659C208.67 424.621 236.067 425.552 263.464 413.516C284.964 403.829 312.507 402.752 337.067 413.516C363.645 424.798 390.224 424.95 416.803 413.944C442.155 402.046 467.507 403.425 492.86 414.373C517.394 425.455 541.928 423.365 566.463 415.659C579.021 411.419 592.735 407.137 606.093 405.425L606.169 350.23C592.062 349.49 576.89 352.69 562.782 358.223C543.196 365.645 521.388 368.551 492.86 357.794C464.602 345.476 438.11 346.113 413.123 357.794C389.202 367.081 365.281 366.938 341.36 357.366C314.372 345.638 287.385 346.236 260.397 357.366C229.873 369.16 205.109 364.405 181.887 355.222C156.328 346.784 128.746 346.659 112.577 354.794C85.5897 368.251 58.6019 367.613 31.6142 356.508C20.2405 352.496 8.40198 348.469 -6.17333 349.49V349.49Z" fill="white"/>
<path d="M83.7058 90.1708C95.5896 122.467 93.6495 166.6 79.8965 203.87C97.8182 207.641 107.443 204.118 116.499 200.17C131.946 191.265 151.397 187.054 178.044 197.139C191.009 204.594 204.983 206.884 219.857 203.785C200.172 163.596 202.074 123.803 220.228 91.0862C199.496 85.2526 145.467 76.1755 83.7058 90.1708V90.1708Z" fill="#EAD15A" stroke="black" stroke-width="0.482355"/>
<path d="M90.5504 89.8059C97.7831 128.606 99.2667 167.128 88.4004 205.05C98.3361 173.653 102.478 137.846 90.5504 89.8059Z" fill="black"/>
<path d="M102.314 86.3384C109.547 125.139 111.03 163.66 100.164 201.583C110.1 170.186 114.242 134.379 102.314 86.3384Z" fill="black"/>
<path d="M114.14 84.6875C121.373 123.488 124.111 157.716 113.244 195.639C123.18 164.242 126.068 132.728 114.14 84.6875Z" fill="black"/>
<path d="M126.682 84.3572C131.891 123.424 136.441 151.942 126.861 189.695C136.076 158.678 136.188 133.672 126.682 84.3572Z" fill="black"/>
<path d="M208.563 90.0535C201.33 128.854 199.847 167.375 210.713 205.298C200.778 173.901 196.636 138.094 208.563 90.0535Z" fill="black"/>
<path d="M196.8 86.5862C189.567 125.387 188.083 163.908 198.95 201.831C189.014 170.434 184.872 134.626 196.8 86.5862Z" fill="black"/>
<path d="M184.974 84.9351C177.741 123.735 175.003 157.964 185.87 195.887C175.934 164.49 173.046 132.975 184.974 84.9351Z" fill="black"/>
<path d="M172.432 84.605C167.223 123.672 162.673 152.19 172.253 189.943C163.038 158.925 162.926 133.92 172.432 84.605Z" fill="black"/>
<path d="M139.324 183.951C139.81 183.951 140.204 161.389 140.204 133.556C140.204 105.724 139.81 83.1611 139.324 83.1611C138.838 83.1611 138.443 105.724 138.443 133.556C138.443 161.389 138.838 183.951 139.324 183.951Z" fill="black"/>
<path d="M153.439 183.294C153.925 183.294 154.32 160.731 154.32 132.899C154.32 105.066 153.925 82.5037 153.439 82.5037C152.953 82.5037 152.559 105.066 152.559 132.899C152.559 160.731 152.953 183.294 153.439 183.294Z" fill="black"/>
<path d="M90.9084 144.621L205.201 145.2L208.495 171.352C165.791 149.087 125.862 152.397 87.8848 173.687C89.1199 165.883 90.3346 157.911 90.9084 144.621Z" fill="black" fill-opacity="0.103774"/>
<path d="M218.856 95.5542C218.496 95.3522 218.231 95.0381 218.136 94.7022C218.012 94.2597 217.877 94.1491 217.331 94.0448C216.82 93.9469 216.549 93.9913 216.099 94.243C215.369 94.6535 214.79 94.6528 214.056 94.243C213.547 93.9568 212.419 92.5912 212.419 92.2605C212.419 92.194 212.339 91.9447 212.24 91.7065L212.061 91.2731L211.194 91.9918C210.263 92.7634 209.226 93.1494 208.515 92.9897C207.938 92.8601 207.331 92.346 207.204 91.8795C207.058 91.3425 205.793 91.1911 205.261 91.6472C203.69 92.9961 201.364 91.0903 200.65 87.8687L200.414 86.8064L200.096 87.3785C199.605 88.2599 198.475 89.5045 197.671 90.0496C197.146 90.4052 196.688 90.5617 196.023 90.6126C195.163 90.6784 195.069 90.6482 194.626 90.1623C194.364 89.8759 194.15 89.5467 194.15 89.4305C194.15 89.3063 193.845 89.1816 193.407 89.1275C192.792 89.0516 192.576 89.1043 192.152 89.433C191.128 90.227 189.73 89.7437 188.677 88.2323C188.371 87.7919 188.118 87.3645 188.117 87.2824C188.117 87.2004 188.051 87.0416 187.974 86.9298C187.875 86.7858 187.552 86.9776 186.868 87.587C185.666 88.6589 184.714 88.9768 183.783 88.618C183.39 88.4669 183.053 88.1758 182.877 87.8369C182.635 87.3686 182.511 87.2973 181.944 87.3007C181.58 87.3007 181.016 87.4655 180.67 87.6678C179.663 88.2571 178.85 88.1196 177.857 87.1923C177.533 86.8901 177.072 86.2893 176.833 85.8572L176.397 85.0715L175.61 85.8781C174.157 87.368 173.017 87.5865 171.974 86.5754C171.113 85.7421 170.33 85.6441 169.637 86.2828C168.957 86.9092 167.858 86.8981 166.895 86.2551C166.022 85.6724 165.09 84.3558 164.6 83.0121L164.226 81.9893L163.723 83.0901C163.084 84.4854 161.376 86.1512 160.413 86.3176C159.651 86.4496 158.751 86.0734 158.471 85.506C158.326 85.2127 158.107 85.1054 157.557 85.0569C156.931 85.002 156.768 85.0643 156.354 85.4875C155.39 86.4822 153.599 85.9289 152.424 84.2729C152.107 83.8266 151.808 83.4633 151.759 83.4658C151.711 83.4658 151.374 83.9084 151.011 84.444C150.252 85.5648 149.008 86.3975 148.095 86.3975C147.703 86.3975 147.318 86.2381 146.909 85.9071C146.445 85.5321 146.131 85.4168 145.572 85.4168C145.171 85.4168 144.842 85.4937 144.842 85.5877C144.842 85.6817 144.646 85.9391 144.407 86.1598C143.848 86.6744 142.74 86.7034 141.9 86.2256C141.126 85.7843 140.133 84.5201 139.534 83.2103L139.051 82.1561L138.753 83.0268C138.367 84.1561 137.248 85.7432 136.435 86.3144C136.043 86.5897 135.487 86.7969 135.005 86.8469C134.301 86.9203 134.158 86.8753 133.663 86.4181C133.232 86.0208 132.955 85.9073 132.417 85.9073C131.839 85.9073 131.684 85.9824 131.469 86.3659C131.2 86.8455 130.529 87.2149 129.928 87.2149C129.27 87.2149 128.177 86.5607 127.484 85.7522L126.794 84.948L126.462 85.632C125.989 86.6061 124.796 87.6604 124.014 87.7956C123.292 87.9204 122.389 87.6461 122.147 87.2278C121.9 86.8024 120.566 86.9741 120.367 87.4569C120.146 87.9912 119.334 88.5226 118.738 88.5226C117.965 88.5226 116.949 87.9744 116.128 87.1148C115.725 86.6926 115.365 86.377 115.33 86.4133C115.294 86.4496 115.061 86.8518 114.813 87.307C114.566 87.7622 114.037 88.4057 113.639 88.7372C113.028 89.2453 112.789 89.3398 112.109 89.3398C111.506 89.3398 111.201 89.2456 110.897 88.9652C110.571 88.665 110.344 88.6035 109.751 88.6555C109.146 88.7083 108.992 88.7922 108.904 89.1145C108.639 90.0866 107.273 90.429 106.016 89.8382C105.159 89.4354 103.799 88.0505 103.207 86.9772L102.751 86.1525L102.53 87.1478C102.078 89.1728 100.67 91.0262 99.3783 91.2947C98.7297 91.4294 97.9527 91.1963 97.5737 90.7526C97.4632 90.6232 97.1235 90.5697 96.6725 90.6106C96.0311 90.6685 95.9229 90.7417 95.724 91.2489C95.1512 92.7083 92.8499 92.3964 91.3166 90.6516C91.0029 90.2945 91.0026 90.2947 90.6678 91.1526C90.4634 91.6763 90.011 92.3186 89.5074 92.8001C88.8066 93.47 88.5806 93.5893 88.0115 93.5893C87.6299 93.5893 87.1308 93.4512 86.8526 93.2687C86.1626 92.816 85.1108 92.9765 84.8659 93.5719C84.1523 95.3083 82.0515 95.0982 80.0325 93.0886C77.7884 90.855 76.9738 87.7733 78.3287 86.6432C78.6616 86.3655 78.6509 86.3382 77.851 85.4385C76.6762 84.1175 75.9903 82.6515 75.888 81.2436C75.8115 80.1951 75.8437 80.051 76.2506 79.6056L76.6964 79.1171L75.9033 78.1501C74.8904 76.9155 74.4877 76.1811 74.1418 74.9364C73.8089 73.739 73.9208 73.0227 74.5482 72.3358L75.0097 71.8303L74.3809 71.2276C72.3827 69.3124 71.446 66.4149 72.3942 65.0813C72.6424 64.7323 72.6094 64.6419 71.8597 63.6113C70.9123 62.3097 70.2623 60.5124 70.399 59.5732C70.6339 57.9602 71.939 57.4028 73.6049 58.204C74.2736 58.5254 74.2497 58.539 74.251 57.8353C74.251 56.8813 74.5908 55.9841 75.1399 55.4781C76.1049 54.5887 77.362 55.0363 78.5665 56.698L79.2471 57.6369L79.6349 57.1067C80.1194 56.4444 81.0846 55.833 81.6457 55.833C82.3664 55.833 83.0958 56.2974 83.5127 57.0213C83.8511 57.6096 83.9109 57.9684 83.9133 59.4289C83.9133 60.3729 83.8498 61.4576 83.7677 61.8396C83.6472 62.4039 83.668 62.5343 83.8798 62.5343C84.0232 62.5343 84.3893 62.769 84.6934 63.0558L85.2466 63.577V63.0786C85.2466 62.8043 85.436 62.3229 85.6673 62.0086L86.088 61.4374L85.4841 60.5557C84.759 59.4975 84.1825 57.866 84.1825 56.873C84.1825 54.8549 85.672 54.0336 87.4985 55.0446L88.0654 55.3583L88.175 54.7377C88.3465 53.7666 88.7721 52.7964 89.1736 52.4615C89.4136 52.2614 89.807 52.1555 90.3104 52.1555C90.9407 52.1555 91.1892 52.253 91.6834 52.6944C92.0152 52.9908 92.4708 53.5791 92.6959 54.0019C92.9208 54.4247 93.1275 54.7967 93.1553 54.8287C93.1829 54.8598 93.4623 54.6177 93.7756 54.2892C95.181 52.814 96.6073 52.9288 97.5267 54.5913L97.7892 55.0657L97.8787 54.209C98.0454 52.6106 99.3167 52.0479 100.969 52.8414L101.701 53.193L101.909 52.22C102.139 51.1406 102.859 50.2176 103.604 50.0452C104.609 49.8129 106.031 50.923 106.536 52.3332L106.737 52.8938L107.503 52.1673C108.41 51.3069 109.331 51.0554 110.095 51.4593C110.545 51.6974 110.583 51.6909 110.787 51.3385C111.252 50.538 112.424 50.3944 113.569 50.9976C114.38 51.4248 114.512 51.3985 114.512 50.8103C114.512 50.1979 115.214 48.8474 115.677 48.5677C116.312 48.1842 117.238 48.2488 117.844 48.7191C118.131 48.9415 118.596 49.5485 118.878 50.0676C119.159 50.5869 119.411 51.0435 119.437 51.0827C119.463 51.122 119.783 50.8871 120.147 50.5612C121.71 49.162 123.25 49.4885 123.921 51.3611C124.209 52.1643 124.039 54.1816 123.584 55.376L123.228 56.3081L123.913 56.9397L124.599 57.5712L124.895 56.8564C125.058 56.4633 125.336 56.0581 125.513 55.9562C125.82 55.7796 125.815 55.7339 125.405 54.9875C124.445 53.2429 124.194 51.2098 124.789 50.0032C125.367 48.8283 126.463 48.6334 127.869 49.4552C128.69 49.9354 128.702 49.9371 128.703 49.5776C128.703 49.0706 129.459 47.644 129.927 47.2603C130.432 46.8463 131.401 46.8501 132.026 47.2695C132.501 47.5872 133.33 48.8757 133.543 49.628C133.649 49.9986 133.65 49.9983 134.276 49.4916C135.135 48.7964 136.138 48.5298 136.858 48.8049C137.416 49.0176 137.672 49.3179 138.044 50.1951C138.247 50.6711 138.253 50.6734 138.275 50.2768C138.308 49.6492 138.851 48.7572 139.344 48.5178C139.966 48.216 141.022 48.3729 141.733 48.8727C142.468 49.3893 142.535 49.3938 142.54 48.9285C142.548 48.3281 143.154 47.2714 143.766 46.797C145.086 45.774 146.363 46.5738 147.324 49.0256L147.507 49.4904L148.122 48.9921C148.973 48.3038 149.962 48.0437 150.611 48.3371C151.61 48.7878 151.849 49.3199 151.839 51.0665C151.832 52.4703 151.767 52.7833 151.264 53.867C150.77 54.9321 150.733 55.1051 150.975 55.2298C151.127 55.3083 151.4 55.5973 151.581 55.872L151.911 56.3715L152.168 55.8034C152.31 55.4909 152.635 55.084 152.89 54.8991L153.354 54.5629L152.934 53.6866C151.851 51.4227 151.878 49.3251 153.004 48.2876C153.834 47.5226 154.966 47.6626 156.127 48.6741L156.681 49.1569L157.014 48.2909C157.208 47.7867 157.659 47.1237 158.093 46.7037C158.777 46.0431 158.895 45.9906 159.49 46.0797C159.847 46.1326 160.301 46.3086 160.498 46.4699C160.945 46.8361 161.688 48.2713 161.69 48.7734V49.1494L162.319 48.7079C162.736 48.4149 163.239 48.2405 163.815 48.1894C164.59 48.1206 164.732 48.1612 165.138 48.565C165.388 48.8139 165.679 49.3133 165.785 49.6749L165.977 50.3325L166.311 49.6447C166.781 48.6776 167.638 48.343 168.693 48.7145C169.101 48.8577 169.66 49.1927 169.937 49.4586L170.439 49.9419L170.845 49.0224C171.316 47.9532 172.177 47.0655 172.879 46.9235C173.923 46.712 174.934 47.627 175.353 49.1647L175.562 49.932L176.212 49.536C177.122 48.9809 177.838 48.88 178.53 49.2095C179.902 49.8633 179.994 52.5151 178.728 54.9189L178.221 55.8832L178.65 56.3081C178.887 56.5419 179.129 57.0121 179.189 57.3532L179.298 57.9731L179.628 57.4723C179.81 57.197 180.161 56.8864 180.409 56.7824C180.723 56.6504 180.822 56.5155 180.736 56.3362C180.279 55.3817 179.942 53.6922 180.011 52.7008C180.202 49.9639 182.057 49.0553 183.953 50.7698L184.683 51.4301L185.106 50.5976C185.339 50.1397 185.832 49.5124 186.203 49.2038C187.658 47.9926 189.22 48.8379 189.62 51.0534C189.689 51.4355 189.781 51.748 189.825 51.748C189.869 51.748 190.091 51.6351 190.32 51.4971C191.429 50.8273 192.692 50.932 193.31 51.7448C193.535 52.0401 193.646 52.0719 193.943 51.9254C194.801 51.5021 196.073 51.9402 196.829 52.918L197.21 53.4111L197.721 52.5387C199.292 49.853 201.483 50.0126 202.15 52.8613C202.27 53.3726 202.385 53.8134 202.406 53.8408C202.428 53.8685 202.713 53.7396 203.041 53.5553C203.69 53.1908 204.781 53.1152 205.349 53.3956C205.809 53.6223 206.209 54.5077 206.21 55.2977V55.9159L206.586 55.215C207.399 53.7011 208.9 53.666 210.293 55.1282C210.617 55.4683 210.909 55.6743 210.942 55.586C210.974 55.4979 211.244 55.0365 211.54 54.5607C212.386 53.2016 213.711 52.6825 214.703 53.3224C215.263 53.6842 215.779 54.7846 215.783 55.63C215.783 56.0119 215.823 56.3246 215.866 56.3246C215.909 56.3246 216.233 56.1674 216.586 55.9754C218.561 54.9018 220.168 56.2853 219.683 58.6408C219.49 59.5788 218.667 61.3278 218.113 61.9766C217.777 62.3701 217.777 62.3894 218.102 62.9879C218.285 63.3234 218.48 63.8036 218.535 64.0549L218.635 64.512L219.175 64.014C219.472 63.7402 219.838 63.5162 219.989 63.5162C220.191 63.5162 220.229 63.4215 220.134 63.1484C220.064 62.9462 219.966 62.0707 219.916 61.2028C219.809 59.3441 220.117 58.243 220.958 57.4678C221.901 56.5989 223.273 56.8749 224.211 58.1223L224.72 58.7986L225.105 58.2098C226.974 55.3554 229.621 55.8182 229.621 58.9995C229.621 59.4161 229.649 59.7569 229.682 59.7569C229.716 59.7569 230.015 59.6299 230.347 59.4746C231.169 59.0904 232.321 59.101 232.796 59.4978C233.315 59.9307 233.592 60.8884 233.45 61.7617C233.299 62.685 232.314 64.5916 231.601 65.3403L231.055 65.9137L231.422 66.5976C231.719 67.1514 231.766 67.4489 231.67 68.1617C231.505 69.3736 230.566 71.0992 229.466 72.2069L228.547 73.1336L228.973 73.5577C229.208 73.7909 229.447 74.2013 229.506 74.4694C229.773 75.7003 228.808 78.0097 227.418 79.4653L226.665 80.254L227.096 80.834C227.473 81.3409 227.517 81.5446 227.44 82.4501C227.333 83.7277 226.425 85.5124 225.294 86.6722L224.516 87.4701L224.928 87.9122C225.542 88.5693 225.632 89.5433 225.2 90.824C224.534 92.7952 222.725 94.861 221.052 95.561C220.103 95.958 219.563 95.9572 218.852 95.561L218.856 95.5542ZM214.475 84.9853C214.413 84.8389 214.273 84.3868 214.162 83.9806L213.96 83.242L213.478 83.7872L212.995 84.3322L213.461 84.7841C213.984 85.2907 214.658 85.4245 214.475 84.9853ZM89.7654 83.8514L90.2206 83.4318L89.8428 82.943C89.635 82.674 89.422 82.4937 89.3695 82.542C89.3174 82.5905 89.1385 82.9992 88.9728 83.4503C88.6848 84.2345 88.6855 84.2709 88.9912 84.2709C89.167 84.2709 89.5155 84.082 89.7658 83.8514H89.7654ZM202.354 82.8498C202.622 82.7991 202.841 82.7498 202.841 82.7385C202.841 82.7274 202.677 82.3204 202.477 81.8344C202.276 81.3482 202.053 80.5392 201.981 80.0364L201.849 79.1222L201.468 79.7923C201.259 80.1608 200.798 80.812 200.444 81.2396L199.8 82.0168L200.186 82.2661C200.399 82.4033 200.686 82.7648 200.824 83.0694L201.075 83.6233L201.47 83.282C201.688 83.0943 202.085 82.8999 202.353 82.8498H202.354ZM103.045 81.7043L103.476 81.3924L102.943 80.7476C102.651 80.393 102.228 79.7469 102.005 79.3118C101.571 78.4677 101.534 78.4911 101.302 79.7561C101.237 80.1048 100.996 80.7852 100.764 81.268L100.343 82.1459H100.766C100.999 82.1459 101.414 82.3257 101.688 82.5456L102.185 82.9451L102.4 82.4808C102.518 82.2253 102.808 81.876 103.045 81.7043V81.7043ZM189.716 80.4164C189.716 80.3513 189.136 79.1621 189.048 79.0468C189.017 79.0055 188.801 79.1893 188.569 79.4555L188.147 79.9394L188.61 80.2838C188.987 80.5638 189.716 80.6511 189.716 80.4162V80.4164ZM114.77 79.8934L115.171 79.6023L114.785 79.0828L114.399 78.5633L114.012 79.2967C113.8 79.6999 113.626 80.0647 113.626 80.1073C113.626 80.3017 114.408 80.1558 114.77 79.8934ZM139.62 77.971C139.821 77.7767 140.086 77.5868 140.209 77.549C140.371 77.499 140.306 77.2754 139.979 76.7483C139.729 76.346 139.393 75.6545 139.233 75.2119L138.94 74.4068L138.552 75.3936C138.339 75.9362 137.953 76.7127 137.695 77.1188L137.225 77.8573L137.739 77.9521C138.021 78.0037 138.398 78.2313 138.576 78.4566C138.865 78.8219 138.92 78.837 139.078 78.5954C139.175 78.4462 139.419 78.1652 139.62 77.971V77.971ZM178.009 78.8362C178.009 78.8137 177.82 78.3684 177.589 77.8466L177.17 76.898L176.781 77.5055L176.391 78.113L176.89 78.4891C177.293 78.7928 178.013 79.0161 178.009 78.8362V78.8362ZM126.601 78.34L127.072 77.9781L126.652 77.4198L126.232 76.8614L126.052 77.2983C125.953 77.5386 125.748 77.9553 125.597 78.2243C125.331 78.6987 125.335 78.7134 125.726 78.7078C125.948 78.7078 126.342 78.5391 126.601 78.34H126.601ZM165.696 77.797C165.941 77.7406 166.114 77.6475 166.08 77.5907C165.576 76.7423 164.886 75.2075 164.783 74.705L164.652 74.0607L164.421 74.6765C164.294 75.0151 163.937 75.7284 163.629 76.2615L163.069 77.2307L163.612 77.6524C163.912 77.8844 164.209 78.2272 164.273 78.4142C164.388 78.7465 164.4 78.7445 164.82 78.3272C165.057 78.0924 165.451 77.8537 165.696 77.797V77.797ZM216.499 77.808C216.499 77.7789 216.411 77.5485 216.304 77.2956C216.197 77.0425 216.057 76.508 215.993 76.1079L215.876 75.3804L215.232 76.1812L214.589 76.982L215.029 77.4908C215.382 77.8979 215.573 77.9859 215.984 77.9302C216.267 77.8917 216.499 77.837 216.499 77.8082L216.499 77.808ZM151.888 77.244C152.137 77.0643 152.443 76.917 152.569 76.917C152.725 76.917 152.655 76.6804 152.352 76.1808C151.957 75.5296 151.582 75.3372 151.582 75.7859C151.582 75.8724 151.375 76.2454 151.122 76.615C150.754 77.1517 150.71 77.3152 150.9 77.4264C151.251 77.6313 151.39 77.6056 151.888 77.2439V77.244ZM88.4137 76.5636L88.9151 76.0464L88.2871 75.2676L87.6589 74.4888L87.35 75.5803C86.9571 76.9682 86.9527 76.8824 87.4197 76.9653C87.6393 77.0045 87.8399 77.0461 87.8656 77.0583C87.8917 77.0712 88.1381 76.8478 88.4138 76.5636H88.4137ZM203.485 75.5083C204.167 75.2457 204.179 75.2073 203.817 74.4084C203.67 74.0854 203.487 73.3225 203.411 72.7131L203.271 71.605L202.906 72.3405C202.705 72.7451 202.251 73.4239 201.897 73.8489L201.253 74.6216L201.696 75.0297C201.94 75.254 202.188 75.6627 202.248 75.9378C202.355 76.4333 202.359 76.4347 202.622 76.0882C202.768 75.8959 203.157 75.6349 203.485 75.5083V75.5083ZM101.21 75.27C101.21 75.0833 101.44 74.7184 101.722 74.4591L102.233 73.9875L101.791 73.4501C101.548 73.1545 101.127 72.4878 100.855 71.9684L100.361 71.0243L100.16 72.0871C100.05 72.6716 99.8103 73.4706 99.6277 73.8627L99.2962 74.5756L99.9056 74.7787C100.241 74.8904 100.611 75.123 100.728 75.2956C101.006 75.7056 101.21 75.6948 101.21 75.2702V75.27ZM190.958 73.097C190.958 73.0636 190.792 72.6895 190.588 72.2663L190.219 71.4966L189.799 72.0214L189.379 72.5462L189.769 72.8465C190.102 73.1028 190.958 73.283 190.958 73.097V73.097ZM113.77 72.505L114.18 72.1899L113.758 71.6176L113.336 71.0451L112.968 71.8477C112.589 72.674 112.598 72.7039 113.271 72.8066C113.319 72.814 113.544 72.6781 113.77 72.505V72.505ZM126.105 69.6417L125.617 68.7835L125.281 69.7039C125.096 70.2102 124.861 70.7181 124.758 70.8327C124.548 71.0671 124.552 71.0708 125.133 71.2944C125.489 71.4314 125.635 71.3822 126.073 70.9782L126.593 70.4999L126.105 69.6417ZM138.989 71.1442C138.989 70.9074 139.823 70.0523 140.055 70.0523C140.145 70.0523 140.047 69.7861 139.84 69.4608C139.632 69.1355 139.284 68.4184 139.067 67.8672L138.673 66.865L138.459 67.5965C138.341 67.9988 138.008 68.76 137.718 69.2883C137.429 69.8166 137.217 70.2632 137.248 70.2809C137.279 70.2994 137.525 70.4006 137.795 70.5072C138.064 70.6141 138.375 70.8839 138.486 71.1072C138.683 71.5064 138.989 71.5289 138.989 71.1442V71.1442ZM178.844 71.3621C178.983 71.3621 178.906 71.0604 178.624 70.5018C178.386 70.0299 178.19 69.515 178.189 69.3577C178.182 68.8758 177.943 69.04 177.46 69.8504L176.998 70.6244L177.46 71.0703C177.758 71.3586 178.047 71.4894 178.276 71.4404C178.471 71.3991 178.727 71.3635 178.844 71.3622V71.3621ZM166.195 70.2158C166.447 70.2158 166.428 70.1085 166.056 69.4323C165.819 69.0015 165.488 68.2144 165.321 67.6834L165.016 66.7175L164.657 67.6086C164.459 68.0986 164.113 68.7703 163.887 69.1012L163.477 69.7029L164.092 70.2699C164.43 70.5818 164.707 70.9598 164.707 71.11C164.707 71.3038 164.881 71.2136 165.305 70.7995C165.633 70.4784 166.034 70.2158 166.195 70.2158H166.195ZM218.151 70.9067C218.696 70.8473 218.803 70.7811 218.702 70.5654C218.363 69.839 218.095 68.5732 218.092 67.6876L218.084 66.7016L217.559 67.5797C217.27 68.0625 216.763 68.7619 216.433 69.1339L215.831 69.8101L216.25 70.1011C216.48 70.2613 216.719 70.5776 216.781 70.8041C216.864 71.1086 216.968 71.1853 217.181 71.098C217.34 71.0329 217.775 70.947 218.147 70.9067H218.151ZM86.7488 69.9054C86.8078 69.7347 87.0594 69.4074 87.3082 69.178L87.7608 68.7609L87.2208 68.14C86.9238 67.7984 86.4549 67.1373 86.1789 66.6709L85.6768 65.823L85.6368 66.6709C85.6022 67.396 85.3926 68.2875 84.9429 69.6215C84.8613 69.8629 84.91 69.906 85.1766 69.8293C85.3616 69.7766 85.7125 69.8367 85.9564 69.9582C86.5617 70.2662 86.6261 70.262 86.7489 69.9061L86.7488 69.9054ZM152.844 69.3985C152.999 69.3985 152.091 67.6051 151.934 67.6024C151.884 67.6024 151.61 68.0603 151.325 68.6222C151.04 69.184 150.78 69.6867 150.746 69.7393C150.713 69.7915 150.864 69.9082 151.081 69.9976C151.395 70.1267 151.604 70.0815 152.087 69.7796C152.422 69.57 152.762 69.3985 152.844 69.3985ZM205.089 68.235C205.267 68.2239 205.513 68.2276 205.635 68.2424C205.939 68.2787 205.915 68.0899 205.503 67.232C205.308 66.8267 205.055 65.9397 204.941 65.261L204.732 64.0271L204.307 64.8742C204.073 65.34 203.567 66.1046 203.183 66.5732C202.526 67.3749 202.505 67.4351 202.825 67.5928C203.012 67.6851 203.298 68.081 203.46 68.4728L203.755 69.1849L204.26 68.7198C204.538 68.4639 204.911 68.2459 205.089 68.2353L205.089 68.235ZM100.784 67.0032L101.21 66.7457L100.585 65.961C100.241 65.5294 99.7346 64.7186 99.459 64.1591L98.9579 63.1421L98.8614 64.1047C98.7796 64.9216 98.458 65.9753 97.9384 67.1311C97.8447 67.3387 97.9576 67.4211 98.4508 67.5064C98.8619 67.5774 99.2211 67.7877 99.478 68.1079L99.8727 68.6002L100.115 67.9304C100.248 67.5619 100.549 67.1447 100.784 67.0032V67.0032ZM192.487 65.7428C192.438 65.641 192.21 65.1437 191.98 64.6381L191.562 63.7186L191.127 64.295C190.888 64.612 190.618 64.9629 190.527 65.0747C190.238 65.4315 191.238 66.072 191.963 65.994C192.335 65.954 192.541 65.8552 192.487 65.7428V65.7428ZM112.672 65.4003C112.727 65.2689 112.921 65.1176 113.104 65.064C113.411 64.9743 113.393 64.9051 112.866 64.1677C112.274 63.3382 112.029 63.173 112.029 63.6015C112.029 63.7394 111.831 64.2127 111.589 64.6534L111.148 65.4546L111.633 65.5227C112.521 65.6469 112.572 65.641 112.672 65.4006V65.4003ZM179.885 64.1683C180.264 64.1683 180.328 64.1133 180.221 63.8822C179.754 62.8736 179.275 61.5321 179.165 60.9217L179.036 60.2085L178.626 61.1396C178.4 61.6517 178.013 62.3524 177.765 62.6966L177.316 63.3227L177.76 63.5907C178.004 63.738 178.293 64.0391 178.402 64.2599C178.588 64.6355 178.626 64.6454 179.009 64.4147C179.233 64.2792 179.628 64.1683 179.885 64.1683H179.885ZM126.261 63.4018C126.544 63.2704 126.529 63.2037 126.09 62.61C125.827 62.2534 125.441 61.5295 125.233 61.001L124.855 60.0402L124.65 61.001C124.537 61.5295 124.208 62.4213 123.92 62.9832L123.396 64.0048H123.886C124.156 64.0048 124.532 64.1091 124.721 64.2364C125.03 64.445 125.108 64.4223 125.509 64.0067C125.753 63.7529 126.092 63.4808 126.261 63.4018H126.261ZM139.533 63.0143L140.048 62.5957L139.443 61.5432C139.11 60.9643 138.74 60.1324 138.621 59.6947L138.404 58.8986L138.015 60.1424C137.801 60.8264 137.384 61.7441 137.089 62.1815L136.552 62.977L137.192 63.123C137.61 63.2188 137.954 63.4457 138.188 63.7809L138.546 64.2926L138.781 63.8626C138.911 63.626 139.249 63.2443 139.533 63.0141V63.0143ZM166.823 62.8607C167.041 62.8607 167.19 62.8056 167.154 62.7381C166.183 60.9377 165.927 60.3623 165.756 59.604L165.552 58.6961L165.224 59.6751C165.044 60.2136 164.634 61.0587 164.312 61.5531L163.727 62.4521L164.256 62.782C164.547 62.9634 164.857 63.3433 164.945 63.6262L165.105 64.1406L165.766 63.5006C166.15 63.1283 166.592 62.8607 166.823 62.8607V62.8607ZM152.23 62.6972C152.476 62.4276 152.826 62.2069 153.007 62.2069C153.552 62.2069 153.536 61.995 152.907 60.8428C152.576 60.2359 152.253 59.4851 152.19 59.1742C152.077 58.624 152.061 58.6444 151.579 59.9269C151.307 60.6518 150.876 61.5348 150.621 61.8893C150.195 62.4825 150.185 62.5337 150.496 62.5337C150.681 62.5337 151.022 62.6784 151.252 62.8552C151.482 63.0321 151.696 63.1791 151.727 63.1822C151.757 63.1822 151.984 62.9669 152.23 62.6972H152.23ZM206.306 60.8669C206.612 60.7388 206.721 60.5946 206.646 60.4207C206.433 59.9256 206.04 58.0336 206.033 57.4669C206.026 56.9169 206.009 56.9322 205.595 57.8605C205.358 58.3915 204.965 59.0841 204.721 59.3996C204.283 59.9667 204.282 59.978 204.609 60.4009C204.791 60.6362 204.996 61.1066 205.065 61.4462L205.191 62.0638L205.523 61.56C205.706 61.2828 206.059 60.971 206.307 60.8669H206.306ZM99.267 59.7446L99.6277 59.2777L99.1565 58.6213C98.8971 58.2603 98.499 57.5034 98.2718 56.9395L97.8583 55.9142L97.8491 56.8167C97.8417 57.313 97.6927 58.2086 97.5127 58.8069L97.1853 59.8946L97.6995 60.2448C97.9823 60.4374 98.3071 60.7845 98.4217 61.0161L98.6299 61.4373L98.7682 60.8244C98.8441 60.4873 99.0686 60.0014 99.2671 59.7446H99.267ZM193.034 58.4806C193.199 58.384 193.186 58.1867 192.976 57.6255C192.826 57.2243 192.68 56.8742 192.651 56.8477C192.622 56.8208 192.436 57.0362 192.237 57.3256C191.897 57.8211 191.893 57.8734 192.171 58.2262C192.484 58.6237 192.688 58.6837 193.035 58.4806H193.034ZM111.753 57.8045C112.048 57.5033 112.048 57.4648 111.742 56.9873C111.565 56.7116 111.37 56.4861 111.309 56.4861C111.193 56.4861 110.787 57.6133 110.787 57.9353C110.787 58.2335 111.414 58.1485 111.752 57.8044L111.753 57.8045ZM166.487 55.7465L167.006 55.2518L166.574 54.2753C166.337 53.7383 166.087 52.8944 166.02 52.4L165.897 51.5011L165.601 52.496C165.439 53.0432 165.129 53.8026 164.914 54.1839L164.522 54.8769L164.962 55.3595C165.204 55.6249 165.458 56.1127 165.525 56.4435C165.643 57.0208 165.654 57.0288 165.808 56.643C165.896 56.4219 166.202 56.0185 166.487 55.7465V55.7465ZM138.601 56.2644C138.72 55.9627 138.968 55.5894 139.153 55.4349C139.483 55.1595 139.482 55.1376 139.087 54.3083C138.866 53.8431 138.578 53.058 138.447 52.5635L138.209 51.6645L138.069 52.5225C137.991 52.9944 137.729 53.8318 137.486 54.3834L137.043 55.3863L137.573 55.9419C137.864 56.2475 138.102 56.5685 138.102 56.6553C138.102 57.0104 138.4 56.7772 138.601 56.2644V56.2644Z" fill="black"/>
<path d="M219.104 94.7864C218.899 94.2944 218.998 93.7868 219.357 93.4875C219.855 93.0719 220.667 91.703 221.035 90.6576C221.292 89.9271 221.476 89.7057 222.165 89.3026C222.708 88.9847 223.169 88.8369 223.519 88.8682C224.047 88.9152 224.052 88.9239 224.043 89.8964C224.031 91.4941 222.81 93.411 221.065 94.5762C220.275 95.1032 219.281 95.2099 219.104 94.7864V94.7864ZM82.12 93.7979C81.4091 93.4749 80.1545 92.2521 79.5356 91.2792C78.8846 90.2554 78.4617 88.6743 78.6904 88.1196C78.8967 87.6196 79.4857 87.5491 80.2831 87.9291C80.9036 88.2248 81.7143 89.0916 81.7145 89.4594C81.7145 89.8339 82.7083 91.7409 83.235 92.378C83.7011 92.9416 83.7909 93.5563 83.4525 93.8681C83.169 94.1293 82.8075 94.1103 82.12 93.7979V93.7979ZM214.621 93.7277C213.627 93.3816 212.705 90.9488 212.829 88.997C212.998 86.3262 214.306 85.8015 215.49 87.93C215.828 88.5377 215.838 88.6786 215.642 90.1364C215.508 91.1248 215.489 91.9637 215.587 92.4323C215.672 92.8384 215.709 93.2622 215.669 93.374C215.551 93.6997 215.037 93.8729 214.62 93.7277H214.621ZM216.926 92.7971C216.271 91.3574 217.109 88.0844 218.507 86.621C219.403 85.6837 219.867 85.6854 220.21 86.6284C220.819 88.3043 219.652 92.0022 218.175 93.0725C217.509 93.5548 217.244 93.4965 216.926 92.7986V92.7971ZM87.3456 92.7437C87.071 92.5964 87.0472 92.3926 87.1411 90.9916C87.2039 90.061 87.1695 89.1025 87.0575 88.6708C86.885 88.0043 86.9124 87.8515 87.3504 87.0436C88.6291 84.6841 89.976 85.4006 89.9487 88.4256C89.9322 90.1693 89.4393 91.551 88.5324 92.3891C87.9087 92.9655 87.8127 92.9943 87.3457 92.7437H87.3456ZM84.8126 92.2463C83.3649 91.5979 81.9836 87.4207 82.6303 85.647C82.8363 85.082 82.9397 84.9932 83.3911 84.9932C84.8189 84.9932 86.4979 89.0379 85.9704 91.207C85.7833 91.9766 85.5195 92.4423 85.2844 92.419C85.2231 92.4116 85.0109 92.3351 84.8126 92.2463V92.2463ZM208.183 91.9505C207.894 91.4526 207.958 91.213 208.618 90.3093C209.172 89.5502 209.951 87.68 209.951 87.1083C209.951 86.7475 211.542 85.7287 212.105 85.7287C212.705 85.7287 212.725 85.8454 212.26 86.6674C211.867 87.3614 211.547 88.713 211.547 89.6774C211.547 90.1962 211.411 90.4489 210.803 91.057C209.629 92.2305 208.558 92.5957 208.183 91.9505V91.9505ZM92.8576 91.004C92.5166 90.759 91.9849 90.2553 91.6761 89.8847C91.1628 89.2685 91.1146 89.1072 91.113 88.0011C91.113 87.0571 91.0142 86.5989 90.6697 85.9167C90.148 84.8838 90.162 84.9698 90.4957 84.8518C91.217 84.5967 92.8158 85.7665 92.9955 86.6809C93.1644 87.5412 93.7627 88.9792 94.2465 89.6891C95.2247 91.1236 94.2758 92.0222 92.8579 91.004H92.8576ZM202.935 90.7152C202.157 89.9553 201.602 88.5398 201.486 87.0222C201.382 85.6635 201.595 84.7996 202.149 84.3376C202.467 84.0722 202.525 84.0705 202.929 84.3136C203.168 84.4585 203.589 84.8487 203.864 85.1807C204.345 85.7616 204.365 85.8587 204.384 87.7584C204.395 88.8441 204.487 89.9661 204.589 90.2517C204.743 90.6812 204.722 90.8153 204.467 91.0281C203.992 91.4237 203.573 91.3378 202.935 90.7144V90.7152ZM205.934 90.3731C205.743 90.1043 205.605 89.4935 205.555 88.6937C205.433 86.7589 206.163 84.5239 207.241 83.5306C207.833 82.9852 208.185 83.0479 208.576 83.7678C209.428 85.3375 208.477 89.3866 207.006 90.4525C206.4 90.892 206.297 90.8844 205.934 90.373V90.3731ZM98.297 90.362C98.117 90.1961 98.0456 89.9604 98.1112 89.7491C98.4503 88.6562 98.5684 87.6452 98.4685 86.6898C98.3377 85.4372 98.6798 84.609 99.6342 83.8691C100.296 83.3557 100.412 83.3452 100.86 83.7577C101.966 84.777 101.316 88.613 99.7993 90.0186C99.0721 90.6926 98.7385 90.7689 98.297 90.3621V90.362ZM95.8627 89.8053C95.4343 89.5722 94.7141 88.3924 94.3604 87.3451C93.9904 86.2485 93.9434 83.7356 94.2793 83.0022C94.41 82.7165 94.6408 82.439 94.7918 82.3856C95.9426 81.9787 97.4499 85.2434 97.2806 87.7745C97.1635 89.5233 96.6628 90.2406 95.8627 89.8053V89.8053ZM195.265 89.7813C194.924 89.4668 195.018 88.7923 195.493 88.148C196.038 87.4088 196.566 86.1908 196.727 85.2984C196.867 84.5302 197.469 83.9118 198.443 83.5369C198.949 83.3421 199.141 83.3316 199.351 83.4867C200.302 84.1895 199.466 86.9282 197.77 88.6666C196.634 89.8305 195.747 90.2251 195.265 89.7807V89.7813ZM106.457 89.3004C104.867 88.4789 103.176 85.7758 103.176 84.057C103.176 82.6856 103.877 82.4255 105.155 83.3235C105.85 83.8118 105.953 83.9807 106.283 85.1623C106.634 86.4227 106.834 86.8703 107.534 87.962C108.142 88.9109 107.426 89.8013 106.457 89.3004ZM190.324 88.8437C189.196 88.2114 188.182 85.5646 188.364 83.7234C188.528 82.0515 189.365 81.4823 190.283 82.418C191.215 83.3679 191.235 83.4258 191.365 85.6302C191.434 86.8076 191.514 87.9813 191.542 88.2384C191.578 88.5615 191.483 88.7747 191.234 88.9289C190.922 89.1219 190.8 89.1105 190.324 88.8437H190.324ZM111.33 88.335C111.186 88.0874 111.193 87.8422 111.358 87.3951C111.48 87.0624 111.584 86.0126 111.59 85.0621C111.601 83.4595 111.636 83.2847 112.088 82.6558C112.356 82.2829 112.808 81.8667 113.092 81.7311C113.562 81.5072 113.644 81.5105 113.985 81.7674C115.151 82.6464 114.508 86.5082 112.942 88.0251C112.208 88.7364 111.628 88.8479 111.33 88.335V88.335ZM193.172 88.3814C192.403 87.9086 192.196 85.8596 192.722 83.9429C193.755 80.1758 195.762 79.7637 195.762 83.3183C195.762 85.2601 195.043 87.2581 194.036 88.1186C193.543 88.5392 193.466 88.5625 193.172 88.3814ZM108.666 87.518C107.278 86.1488 106.678 82.2755 107.631 80.8322C108.012 80.2551 108.356 80.2046 108.844 80.6543C110.407 82.0942 111.023 86.6454 109.808 87.7655C109.421 88.1218 109.238 88.082 108.666 87.518V87.518ZM183.683 87.5673C183.524 87.1813 183.585 86.9679 184.119 86.0555C184.46 85.4712 184.876 84.4783 185.042 83.849C185.253 83.054 185.507 82.5461 185.876 82.1845C186.473 81.6 187.288 81.232 187.679 81.3703C187.907 81.4509 187.906 81.5233 187.672 81.9548C187.317 82.6101 187.097 83.9602 187.203 84.8289C187.276 85.4248 187.203 85.6475 186.72 86.2932C186.051 87.1896 184.884 88.0169 184.289 88.0169C183.993 88.0169 183.813 87.8834 183.682 87.5673H183.683ZM117.986 87.5965C117.265 87.2501 116.887 86.9182 116.266 86.0889C115.78 85.4394 115.737 85.2661 115.706 83.8007C115.682 82.6427 115.588 82.0711 115.36 81.6809C115.081 81.2056 115.077 81.1361 115.322 81.0494C115.712 80.9115 116.53 81.2595 117.097 81.804C117.436 82.1309 117.653 82.5992 117.828 83.3859C117.965 84.0005 118.368 85.0506 118.723 85.7194C119.315 86.8335 119.348 86.9694 119.121 87.3408C118.799 87.867 118.629 87.9053 117.986 87.5965H117.986ZM221.581 87.6608C221.316 86.8957 221.372 86.276 221.75 85.8114C222.251 85.1949 222.784 84.2075 223.074 83.3591C223.352 82.5483 223.688 82.1858 224.532 81.789C225.453 81.3561 225.886 81.3908 226.102 81.9147C226.632 83.1975 224.846 86.3167 222.987 87.3557C222.192 87.8002 221.668 87.9139 221.581 87.6608L221.581 87.6608ZM178.471 86.6689C177.353 85.6314 176.891 84.3984 176.881 82.4242C176.873 80.9846 176.91 80.8006 177.275 80.4639C177.649 80.1186 177.711 80.1096 178.144 80.3364C178.401 80.4708 178.858 80.8628 179.16 81.2078C179.686 81.8084 179.715 81.9196 179.83 83.8229C179.896 84.9162 180.003 86.0379 180.068 86.3156C180.152 86.6781 180.102 86.8971 179.89 87.092C179.462 87.4871 179.301 87.4393 178.471 86.6689V86.6689ZM122.965 86.9433C122.624 86.6288 122.624 86.6204 122.952 85.4576C123.098 84.9399 123.218 83.9123 123.218 83.174C123.218 81.9084 123.251 81.7916 123.801 81.1272C124.122 80.7397 124.599 80.3115 124.862 80.1758C125.306 79.9456 125.366 79.9536 125.736 80.2947C126.976 81.4377 125.721 86.0999 123.946 86.946C123.292 87.2579 123.306 87.2579 122.964 86.946L122.965 86.9433ZM79.8269 86.1625C78.3903 85.2502 76.7481 82.6738 76.7481 81.3318C76.7481 80.2248 77.6943 80.019 78.8869 80.8665C79.4897 81.295 79.6968 81.5873 79.958 82.3784C80.1362 82.9178 80.5551 83.7769 80.889 84.2875C81.4118 85.0868 81.4836 85.3198 81.4048 85.9629C81.2914 86.8897 81.0252 86.9233 79.8269 86.1625V86.1625ZM181.272 86.0152C180.794 85.1956 180.836 82.7165 181.352 81.2033C181.767 79.9881 182.752 78.7638 183.204 78.9025C183.329 78.9411 183.592 79.2239 183.788 79.5313C184.616 80.8312 184.02 84.6832 182.79 85.9738C182.107 86.6914 181.673 86.7033 181.272 86.0151L181.272 86.0152ZM216.234 86.1407C214.676 84.7047 214.305 80.3245 215.667 79.4454C216.241 79.0744 216.918 79.4911 217.49 80.567C217.933 81.4024 217.95 81.5143 217.758 82.3659C217.645 82.8652 217.575 83.8592 217.601 84.5746C217.641 85.6535 217.592 85.9327 217.32 86.211C216.897 86.6416 216.769 86.6333 216.234 86.1407V86.1407ZM120.198 85.8879C119.37 85.0712 118.88 83.4663 118.876 81.5613C118.876 80.2034 118.934 79.8302 119.237 79.3553C119.7 78.6293 120.082 78.5642 120.638 79.117C121.423 79.8977 121.85 81.2183 121.936 83.1331C122.004 84.6271 121.964 84.9735 121.651 85.6256C121.221 86.5211 120.899 86.5792 120.198 85.8879V85.8879ZM128.866 86.0527C128.608 85.8723 128.138 85.3546 127.823 84.9022C127.273 84.1119 127.255 84.0336 127.365 82.9022C127.443 82.1082 127.401 81.4587 127.238 80.9075C127.105 80.458 126.964 79.9817 126.925 79.8491C126.812 79.4634 127.591 79.4558 128.172 79.8361C128.92 80.3272 129.426 81.1671 129.426 81.9181C129.426 82.6552 129.845 84.0641 130.32 84.9234C130.587 85.4066 130.606 85.5759 130.43 85.9041C130.155 86.4136 129.477 86.4779 128.867 86.0522L128.866 86.0527ZM172.562 86.1869C172.25 85.8996 172.301 85.3319 172.695 84.717C173.113 84.0629 173.591 82.4374 173.591 81.6671C173.591 81.2139 173.756 80.9533 174.452 80.3121C175.654 79.2043 176.563 79.2313 175.941 80.3563C175.716 80.7633 175.633 81.3373 175.625 82.5509C175.614 83.9565 175.556 84.2802 175.216 84.7869C174.374 86.043 173.122 86.7031 172.562 86.1868L172.562 86.1869ZM134.435 86.1106C133.923 85.9207 133.858 85.4479 134.236 84.6612C134.466 84.1827 134.642 83.3851 134.701 82.562C134.811 81.0142 134.998 80.6075 135.978 79.7919C136.769 79.1331 137.066 79.0637 137.477 79.4417C138.667 80.5388 137.28 84.845 135.394 85.9044C134.803 86.2366 134.785 86.2406 134.435 86.1106ZM167.053 85.4248C165.839 84.3066 164.955 82.049 165.119 80.4838C165.201 79.6914 165.628 79.0279 166.056 79.0279C166.391 79.0279 167.193 79.6682 167.757 80.3857C168.212 80.9651 168.27 81.1736 168.27 82.2448C168.27 83.0286 168.397 83.7997 168.633 84.4457C168.976 85.3846 168.98 85.4576 168.695 85.7482C168.242 86.2094 167.812 86.1247 167.053 85.4248H167.053ZM142.314 85.5881C140.696 84.5942 139.327 81.0989 139.936 79.5184C140.277 78.6352 140.794 78.6695 141.853 79.6457C142.634 80.3648 142.729 80.5303 142.733 81.1704C142.74 82.1299 143.003 83.1905 143.472 84.1401C144.132 85.4752 143.472 86.3001 142.314 85.5882V85.5881ZM147.426 85.3397C147.189 85.0068 147.176 84.8673 147.353 84.5628C147.73 83.915 148.046 82.5736 148.048 81.615C148.048 80.8216 148.134 80.5869 148.629 79.9883C149.285 79.1957 150.178 78.6486 150.583 78.7917C152.014 79.2978 150.83 84.007 148.967 85.2155C148.127 85.761 147.748 85.7915 147.427 85.3397H147.426ZM85.5354 85.1451C85.2975 84.8104 85.2603 84.518 85.3535 83.7149C85.4201 83.1402 85.3818 82.2542 85.2646 81.6573C85.0104 80.3659 85.3105 79.4725 86.257 78.707C86.773 78.2895 86.9339 78.2367 87.236 78.3856C88.643 79.0795 88.3451 83.4651 86.7879 84.9869C86.081 85.6775 85.9278 85.6968 85.5354 85.145V85.1451ZM159.206 85.116C159.055 84.7502 159.093 84.5297 159.412 83.9311C159.897 83.0196 160.283 81.735 160.286 81.0217C160.293 80.3034 160.69 79.6264 161.413 79.1178C162.781 78.1566 163.55 79.0335 163.138 81.0854C162.564 83.9445 159.866 86.7105 159.206 85.116V85.116ZM131.948 85.1289C131.823 85.0824 131.528 84.6942 131.293 84.2655C130.233 82.3381 130.286 78.8369 131.393 77.7426C131.725 77.4138 131.807 77.3983 132.148 77.5989C133.719 78.5231 134.162 83.5231 132.792 84.8781C132.417 85.2492 132.337 85.2729 131.948 85.1289H131.948ZM153.819 84.6606C153.474 84.3425 152.962 83.6621 152.68 83.1487C152.205 82.2813 152.181 82.1464 152.334 81.2449C152.442 80.6077 152.435 80.0001 152.313 79.4742C152.1 78.5594 152.169 78.3742 152.721 78.3742C153.289 78.3742 153.867 78.8003 154.454 79.6532C154.875 80.2651 154.967 80.5777 154.967 81.3891C154.967 81.9332 155.137 82.9103 155.346 83.5602C155.656 84.523 155.685 84.7878 155.502 84.9904C155.13 85.4038 154.49 85.2785 153.819 84.6606H153.819ZM170.34 85.0282C169.89 84.7155 169.495 83.655 169.391 82.4793C169.166 79.9517 170.566 76.8039 171.573 77.5734C172.714 78.4465 172.807 81.8879 171.746 84.0226C171.263 84.9961 170.785 85.3377 170.34 85.0282V85.0282ZM220.351 85.0467C220.174 84.9552 219.751 84.8804 219.412 84.8804C219.041 84.8804 218.756 84.7873 218.697 84.6472C218.645 84.5189 218.688 83.8457 218.798 83.1516C219.152 80.9001 220.837 78.3215 221.745 78.6427C222.722 78.9883 222.522 82.2023 221.396 84.2505C220.877 85.1933 220.78 85.2677 220.351 85.0467V85.0467ZM210.068 84.627C209.768 83.6059 209.786 83.4288 210.29 82.5096C210.575 81.9886 210.943 81.121 211.109 80.5817C211.438 79.5081 211.987 78.8573 212.901 78.4577C214.062 77.9497 214.51 78.6496 213.947 80.0913C213.806 80.451 213.688 80.9795 213.683 81.2659C213.672 82.004 212.356 83.7234 211.297 84.3819C210.315 84.9929 210.183 85.0191 210.068 84.627ZM144.962 84.3414C143.566 82.9535 143.493 78.2873 144.849 77.1564C146.281 75.9617 147.635 81.1393 146.528 83.5799C146.241 84.2138 145.784 84.7496 145.531 84.7496C145.443 84.7496 145.188 84.566 144.962 84.3414V84.3414ZM156.931 84.0707C156.351 83.4967 156.129 82.6438 156.131 80.9902C156.131 79.1577 156.52 77.791 157.251 77.0365C157.884 76.3839 158.238 76.4931 158.716 77.4878C159.678 79.4925 159.018 83.5735 157.62 84.2629C157.363 84.3895 157.21 84.3466 156.931 84.0707V84.0707ZM81.8567 83.7363C80.4931 81.801 80.2508 77.5579 81.5037 77.5579C82.6768 77.5579 84.1975 80.5553 84.1975 82.8678V83.8593H83.4437C83.0291 83.8593 82.562 83.9172 82.4057 83.9857C82.2083 84.0727 82.0406 83.9968 81.8567 83.7352V83.7363ZM91.4595 83.4011C90.5982 82.7891 89.3412 80.9702 89.3412 80.3366C89.3412 80.0995 89.2145 79.5124 89.0596 79.0322C88.5485 77.4456 89.2936 76.9246 90.7157 77.8741C91.6063 78.4685 91.6274 78.5006 91.9401 79.7361C92.0803 80.2909 92.4218 81.1623 92.6982 81.6723C93.1515 82.5079 93.1821 82.6655 93.0082 83.266C92.7692 84.0909 92.4669 84.1173 91.4595 83.4011V83.4011ZM204.548 83.485C203.54 82.5569 202.855 80.7713 202.868 79.1107C202.888 76.6068 204.073 76.002 205.354 77.8413C205.88 78.5968 205.893 78.6606 205.78 79.9581C205.71 80.7668 205.745 81.6521 205.867 82.1964C206.042 82.9723 206.029 83.1548 205.773 83.5147C205.395 84.0464 205.15 84.0405 204.548 83.4842V83.485ZM97.1578 82.728C96.9785 82.4193 96.9767 82.1474 97.1486 81.3838C97.282 80.7908 97.3193 79.9687 97.2461 79.2234C97.132 78.0649 97.1486 77.9904 97.6907 77.2119C98.5764 75.9398 99.4088 75.7119 99.9097 76.6045C100.324 77.3422 100.178 79.7555 99.6421 81.0325C99.1987 82.0891 98.2571 83.1152 97.7308 83.1152C97.5392 83.1152 97.2815 82.941 97.1578 82.728V82.728ZM196.948 82.3387C196.907 82.2715 196.82 81.9505 196.757 81.6258C196.665 81.1546 196.748 80.8481 197.172 80.1068C197.463 79.5958 197.802 78.7339 197.923 78.1914C198.102 77.3909 198.27 77.1006 198.811 76.6502C199.504 76.0728 200.186 75.8224 200.634 75.9806C201.31 76.2198 201.123 78.033 200.252 79.6796C199.443 81.21 197.311 82.9254 196.948 82.3387ZM208.532 82.1303C208.386 82.0409 207.967 82.0115 207.601 82.0652L206.936 82.1631V80.9874C206.936 78.4057 208.275 75.6345 209.449 75.7877C210.538 75.93 210.6 79.2496 209.555 81.5214C209.192 82.3108 209.007 82.4206 208.532 82.1301V82.1303ZM104.935 81.5775C103.587 80.7331 102.256 78.4619 102.148 76.8224C102.036 75.1067 102.789 74.8168 104.234 76.0198C104.798 76.489 104.967 76.7737 105.131 77.5276C105.243 78.0387 105.573 78.9423 105.865 79.5356C106.347 80.5155 106.378 80.6766 106.198 81.2927C105.969 82.0774 105.796 82.1164 104.935 81.5775V81.5775ZM191.448 81.311C190.804 80.8445 189.957 79.1503 189.721 77.8575C189.482 76.5473 189.732 75.1413 190.284 74.6804C190.609 74.4091 190.686 74.4039 191.112 74.6245C191.37 74.758 191.823 75.185 192.119 75.5732C192.643 76.2595 192.656 76.3233 192.603 77.8861C192.572 78.77 192.635 79.7921 192.742 80.1574C192.903 80.7087 192.886 80.8913 192.643 81.2329C192.289 81.7312 192.049 81.747 191.448 81.311V81.311ZM93.4289 80.5648C92.3834 77.9896 92.6238 74.9427 93.8725 74.9427C94.2059 74.9427 94.4442 75.13 94.8376 75.7019C95.694 76.9462 95.9792 77.9477 95.9862 79.733L95.9936 81.336L94.8857 81.3788L93.778 81.4215L93.43 80.5644L93.4289 80.5648ZM110.369 80.736C110.117 80.3821 110.104 80.228 110.285 79.7249C110.402 79.3984 110.489 78.4298 110.479 77.5725C110.462 76.1908 110.511 75.9351 110.9 75.3223C111.757 73.9759 112.766 73.7216 113.226 74.7365C113.602 75.566 113.465 77.6556 112.954 78.8784C112.516 79.9282 111.456 81.1538 110.987 81.1538C110.81 81.1538 110.532 80.9657 110.369 80.736V80.736ZM223.544 79.9111C223.455 79.3104 223.503 79.0668 223.785 78.7027C224.26 78.0878 225.204 76.2311 225.204 75.911C225.204 75.3876 226.732 74.4525 227.587 74.4525C228.129 74.4525 228.319 74.9578 228.148 75.9436C227.889 77.4367 226.08 79.8305 224.782 80.3983C223.829 80.815 223.67 80.7523 223.544 79.9111V79.9111ZM185.112 79.8195C184.933 79.2089 184.96 79.0505 185.371 78.2771C185.623 77.8031 185.954 76.914 186.108 76.3015C186.413 75.0813 186.949 74.4016 187.903 74.0252C188.429 73.8177 189.024 73.8588 189.02 74.1021C189.02 74.16 188.899 74.5682 188.754 75.0095C188.608 75.4508 188.489 76.2535 188.489 76.7931C188.489 77.613 188.399 77.9051 187.936 78.5692C187.296 79.488 186.086 80.4999 185.627 80.4999C185.406 80.4999 185.25 80.2945 185.112 79.8194V79.8195ZM117.092 80.0749C116.364 79.7274 115.851 79.2575 115.233 78.3702C114.798 77.7453 114.705 77.4389 114.705 76.6381C114.705 76.103 114.583 75.2328 114.433 74.7043C114.26 74.0919 114.223 73.6867 114.332 73.5867C114.606 73.3337 115.373 73.6015 116.096 74.2035C116.67 74.6811 116.8 74.9224 116.984 75.8416C117.103 76.4344 117.4 77.3377 117.646 77.849C117.971 78.5266 118.063 78.935 117.986 79.3564C117.819 80.2664 117.698 80.3637 117.092 80.0749V80.0749ZM193.754 79.3021C193.502 77.592 194.295 74.8686 195.344 73.8435C196.013 73.1898 196.248 73.2087 196.72 73.9541C197.196 74.7046 197.17 76.9121 196.669 78.3774C196.152 79.8914 195.988 80.0612 195.286 79.8163C194.866 79.6696 194.612 79.6657 194.289 79.8016C193.873 79.9763 193.851 79.9561 193.754 79.3018L193.754 79.3021ZM179.638 79.3701C179.334 79.1083 178.826 78.3912 178.511 77.7765C177.979 76.7431 177.936 76.5326 177.936 74.9883C177.936 73.4694 177.973 73.2842 178.339 72.9463C178.716 72.5985 178.773 72.5907 179.226 72.8232C179.492 72.9598 179.963 73.4188 180.273 73.8432C180.81 74.5797 180.835 74.6873 180.832 76.2089C180.832 77.0856 180.914 78.0506 181.017 78.3535C181.164 78.7837 181.147 79.0071 180.94 79.375C180.607 79.9689 180.332 79.9679 179.638 79.3676L179.638 79.3701ZM122.126 79.204C121.867 78.7849 121.861 78.6518 122.074 78.1017C122.207 77.7564 122.319 76.8129 122.324 75.9962C122.331 74.6466 122.377 74.4497 122.852 73.7605C123.424 72.9292 123.92 72.607 124.509 72.685C125.772 72.8526 125.581 76.3503 124.199 78.3676C123.753 79.0193 122.954 79.6834 122.618 79.6817C122.509 79.6811 122.288 79.4662 122.126 79.204V79.204ZM78.2528 79.2169C77.4252 78.7517 76.1063 77.3102 75.567 76.2812C75.2106 75.6011 75.0773 75.0924 75.0712 74.3902C75.0602 73.162 75.3339 72.9492 76.3683 73.379C77.3482 73.7863 77.7453 74.2212 78.1662 75.3486C78.3639 75.8782 78.7715 76.7129 79.0719 77.2036C79.5378 77.9643 79.6013 78.2006 79.5025 78.8072C79.3707 79.6174 79.1149 79.7012 78.2528 79.2169V79.2169ZM106.806 78.9201C105.762 76.6566 105.842 73.529 106.959 72.9142C107.231 72.7642 107.381 72.8388 107.893 73.3791C108.901 74.442 109.586 77.0525 109.307 78.765C109.194 79.4629 109.157 79.506 108.821 79.3401C108.466 79.165 108.005 79.1942 107.397 79.4304C107.164 79.5211 107.03 79.4057 106.806 78.9202V78.9201ZM218.013 78.7881C216.876 77.4137 216.489 74.3975 217.267 72.9745C217.487 72.5735 217.814 72.22 217.994 72.1893C218.452 72.1111 219.289 72.9016 219.637 73.7399C219.893 74.3574 219.901 74.6049 219.706 75.7629C219.583 76.4886 219.531 77.4028 219.589 77.7947C219.673 78.3629 219.622 78.5931 219.333 78.9312C218.851 79.496 218.574 79.466 218.013 78.788V78.7881ZM128.48 78.3761C127.569 77.6393 126.589 75.8098 126.584 74.8365C126.584 74.4001 126.508 73.7583 126.42 73.4101C126.048 71.9317 127.09 71.52 128.324 72.6574C128.956 73.2398 129.051 73.4311 129.159 74.3328C129.227 74.8926 129.466 75.8491 129.692 76.4583C130.081 77.5058 130.088 77.6013 129.826 78.2155C129.674 78.5725 129.445 78.8649 129.317 78.8649C129.189 78.8649 128.812 78.6449 128.48 78.3761V78.3761ZM173.261 78.2231C173.078 77.6624 173.106 77.4301 173.482 76.3843C173.718 75.7258 173.968 74.7826 174.037 74.2882C174.146 73.5094 174.267 73.2963 174.944 72.6946C175.832 71.9045 176.297 71.8259 176.702 72.3966C176.931 72.7185 176.949 72.9113 176.796 73.4182C176.693 73.7619 176.607 74.3739 176.607 74.7786C176.607 75.7531 175.81 77.2781 174.838 78.1701C173.88 79.049 173.533 79.0606 173.261 78.2228V78.2231ZM134.028 78.1051C133.894 77.7821 133.924 77.4652 134.143 76.8565C134.305 76.4078 134.488 75.4401 134.55 74.706C134.649 73.5299 134.73 73.2923 135.234 72.7067C135.548 72.3411 136.048 71.9493 136.345 71.836C136.81 71.6583 136.931 71.669 137.222 71.9112C137.689 72.3004 137.83 73.2794 137.582 74.4034C136.985 77.1123 134.63 79.5645 134.028 78.1052V78.1051ZM167.559 77.9455C165.815 76.4938 164.901 72.7455 166.036 71.6998C166.285 71.4702 166.37 71.4715 166.92 71.7146C167.255 71.8617 167.764 72.299 168.052 72.6862C168.508 73.3015 168.586 73.5762 168.665 74.8614C168.715 75.6704 168.884 76.6143 169.042 76.9587C169.298 77.521 169.3 77.6339 169.06 78.062C168.71 78.6859 168.42 78.6637 167.559 77.9468V77.9455ZM83.8033 77.9766C83.5593 77.6671 83.4832 77.1338 83.4253 75.3257C83.3464 72.8579 83.4804 72.3523 84.4305 71.5355C84.9749 71.0674 85.3738 71.1204 85.8637 71.726C86.1891 72.1284 86.2369 72.4124 86.2355 73.9325C86.2355 75.4992 86.1835 75.7774 85.7377 76.6575C85.2238 77.6723 84.6307 78.3779 84.2996 78.369C84.1945 78.369 83.9713 78.1897 83.8033 77.9766V77.9766ZM141.93 77.8614C140.245 76.4983 139.103 72.876 139.99 71.7092C140.399 71.1703 140.875 71.2638 141.73 72.0515C142.44 72.7053 142.505 72.8391 142.62 73.8763C142.688 74.4918 142.904 75.432 143.099 75.9657C143.438 76.8922 143.44 76.9684 143.156 77.6551C142.992 78.0507 142.792 78.3742 142.711 78.3742C142.63 78.3742 142.279 78.1434 141.93 77.8614V77.8614ZM147.348 77.5737C147.172 77.1823 147.186 77.0101 147.427 76.5805C147.587 76.2947 147.82 75.3345 147.945 74.4468C148.199 72.6364 148.577 71.9905 149.712 71.4273C150.308 71.1318 150.373 71.1284 150.646 71.3794C151.382 72.058 151.21 74.0761 150.263 75.8649C149.24 77.7971 147.822 78.6278 147.348 77.573V77.5737ZM159.917 77.3299C159.679 76.7218 159.673 76.5494 159.873 76.1973C160.184 75.6495 160.637 73.86 160.64 73.1633C160.648 72.4545 161.936 71.1825 162.653 71.1825C163.268 71.1825 163.481 71.5989 163.481 72.7988C163.481 74.4675 162.426 76.6437 161.13 77.6487C160.417 78.2011 160.238 78.1541 159.917 77.3299H159.917ZM181.991 77.4131C181.564 75.3144 182.878 71.6711 184.109 71.5391C184.525 71.4941 184.638 71.5782 184.889 72.1112C185.346 73.0827 185.276 75.3847 184.744 76.8204L184.321 77.9636H183.213H182.104L181.991 77.411L181.991 77.4131ZM222.455 77.7862C222.237 77.6319 221.844 77.5569 221.435 77.5913L220.77 77.6472V76.8257C220.778 75.1653 221.688 72.9997 222.806 72.0016C223.561 71.3267 223.913 71.4267 224.291 72.4243C224.713 73.5367 223.997 76.7367 223.108 77.7086C222.834 78.0086 222.777 78.0153 222.453 77.786L222.455 77.7862ZM118.607 77.187C117.675 75.2443 117.824 71.6127 118.851 71.2494C120.014 70.8383 121.492 74.3339 121.174 76.7397C121.108 77.2342 121.022 77.6874 120.983 77.7468C120.943 77.8064 120.677 77.7745 120.392 77.6744C120.005 77.5398 119.755 77.5435 119.408 77.6891C118.962 77.8764 118.928 77.8552 118.607 77.1868V77.187ZM154.217 77.2241C153.158 76.4191 152.443 74.8764 152.3 73.088C152.165 71.3811 152.32 70.8554 152.962 70.8554C153.539 70.8554 154.137 71.2459 154.663 71.9665C155.003 72.4311 155.132 72.8754 155.222 73.8793C155.286 74.5985 155.461 75.5546 155.612 76.004C155.819 76.6244 155.84 76.9297 155.696 77.2708C155.451 77.8556 155.031 77.8423 154.217 77.2238L154.217 77.2241ZM211.395 76.9439C211.234 76.2521 211.259 76.0962 211.628 75.5137C211.856 75.1541 212.217 74.3083 212.431 73.6341C212.74 72.6572 212.961 72.2873 213.515 71.8126C214.873 70.6503 215.629 70.8272 215.622 72.3057C215.615 74.0047 214.208 76.3322 212.632 77.2531C212.192 77.5101 211.775 77.7203 211.704 77.7203C211.634 77.7203 211.494 77.3709 211.395 76.9439V76.9439ZM79.7091 76.0434C78.6446 73.9375 78.5244 70.7683 79.496 70.4247C80.5282 70.0596 82.1328 72.8409 82.3682 75.4033L82.478 76.6003L81.8518 76.4921C81.4288 76.4189 81.0495 76.4674 80.6838 76.6418L80.1421 76.8999L79.7091 76.0434ZM90.3776 76.2901C89.406 75.5462 89.0151 75.0787 88.3558 73.8717C87.3608 72.0503 87.3287 70.2017 88.2924 70.2017C89.3497 70.2017 90.3459 71.1486 90.6808 72.4719C90.8205 73.023 91.1573 73.8962 91.4297 74.4122C91.8666 75.2401 91.9045 75.4319 91.752 76.0449C91.5442 76.88 91.2232 76.9374 90.378 76.2901H90.3776ZM132.553 76.547C132.371 76.4522 131.92 76.4122 131.551 76.4578C130.884 76.5402 130.879 76.5367 130.641 75.782C130.502 75.3427 130.404 74.2667 130.407 73.2255C130.415 71.7009 130.472 71.325 130.799 70.7532C131.011 70.3821 131.299 70.0383 131.438 69.989C131.853 69.8421 132.365 70.2976 132.815 71.2164C133.194 71.9883 133.239 72.3138 133.239 74.2389C133.239 76.4865 133.132 76.8478 132.553 76.547V76.547ZM205.825 76.1071C205.484 75.7594 205.025 75.0422 204.805 74.5136C204.065 72.7346 204.185 70.1388 205.03 69.648C205.48 69.3862 206.168 69.7807 206.775 70.6485C207.3 71.3991 207.316 71.4751 207.212 72.7351C207.153 73.4543 207.18 74.4106 207.273 74.8599C207.417 75.5622 207.391 75.7519 207.085 76.2083C206.89 76.5006 206.666 76.7395 206.588 76.7395C206.509 76.7395 206.166 76.4549 205.825 76.1071H205.825ZM169.936 76.0153C169.526 74.3263 170.115 71.1979 171.009 70.3086C171.535 69.7856 171.699 69.7722 172.147 70.2154C172.907 70.9667 173.133 73.9016 172.56 75.566L172.26 76.4356L171.159 76.4756C170.061 76.5161 170.057 76.5149 169.936 76.0147V76.0153ZM146.039 76.061C145.861 75.9672 145.399 75.9182 145.013 75.9523L144.312 76.0139L144.033 75.1297C143.642 73.8885 143.758 71.1837 144.242 70.2947C144.781 69.3023 145.138 69.1925 145.729 69.8369C146.42 70.5903 146.648 71.3503 146.746 73.2254C146.85 75.2113 146.569 76.3384 146.039 76.061V76.061ZM96.0403 75.4235C95.7782 74.999 95.762 74.8042 95.9299 74.0835C96.0432 73.5965 96.0785 72.7162 96.0136 71.9997C95.9068 70.821 95.9274 70.7214 96.4245 69.9992C96.9489 69.237 97.7469 68.7111 98.1687 68.8496C98.9426 69.1038 99.1989 71.3458 98.6541 73.0932C98.2003 74.5482 97.1467 75.926 96.4918 75.9213C96.4121 75.9208 96.2091 75.6967 96.0402 75.4235H96.0403ZM156.585 75.1994C156.008 73.0862 156.776 69.6604 157.937 69.173C158.312 69.0157 158.414 69.0449 158.697 69.3912C159.495 70.3654 159.731 73.0394 159.173 74.7799L158.884 75.6806L158.074 75.6218C157.629 75.5899 157.156 75.645 157.024 75.7458C156.832 75.8929 156.745 75.7851 156.585 75.1999V75.1994ZM198.128 74.5739C197.981 73.965 198.021 73.7678 198.448 72.9764C198.717 72.4799 199.081 71.5633 199.259 70.9397C199.541 69.9442 199.674 69.7399 200.345 69.2682C201.73 68.2953 202.414 68.6189 202.291 70.1881C202.209 71.2317 201.291 73.1559 200.472 74.0009C199.958 74.5316 198.818 75.2685 198.511 75.2685C198.392 75.2685 198.22 74.956 198.128 74.5739V74.5739ZM210.217 74.8355C209.967 74.6617 209.633 74.617 209.084 74.6836L208.305 74.7782L208.404 73.3481C208.524 71.615 208.879 70.4941 209.642 69.4415C210.063 68.8608 210.348 68.635 210.709 68.5969C211.126 68.5527 211.24 68.6318 211.463 69.1229C211.973 70.2483 211.663 73.1391 210.882 74.5287C210.592 75.0455 210.548 75.0657 210.217 74.8356V74.8355ZM104.022 74.4422C102.288 73.598 100.512 70.1428 101.047 68.6506C101.34 67.8314 102.036 67.8553 103.053 68.7193C103.679 69.2508 103.846 69.5256 104.023 70.3129C104.141 70.8362 104.46 71.7055 104.731 72.2449C105.169 73.1162 105.206 73.3122 105.057 74.002C104.965 74.429 104.844 74.7751 104.787 74.7711C104.73 74.7637 104.386 74.619 104.022 74.4423V74.4422ZM192.575 73.8384C191.69 73.0182 191.122 71.603 191.017 69.9546C190.926 68.5459 191.223 67.5123 191.775 67.3174C192.233 67.1556 192.884 67.5821 193.475 68.4319C194.006 69.1946 194.021 69.2632 193.905 70.4877C193.835 71.2298 193.864 72.074 193.975 72.5261C194.132 73.1658 194.114 73.3963 193.866 73.8745C193.702 74.1918 193.493 74.4514 193.402 74.4514C193.311 74.4514 192.939 74.1755 192.575 73.8384H192.575ZM92.2446 73.5294C91.4087 71.6937 91.2988 69.181 92.0078 68.107C92.4076 67.501 92.5159 67.4798 93.0894 67.8955C94.0292 68.5766 94.8394 70.8221 94.8394 72.7452V73.9123L93.997 73.8995C93.5337 73.8921 93.0144 73.9489 92.8433 74.0233C92.5913 74.1339 92.4769 74.0399 92.2446 73.5294V73.5294ZM109.337 73.4003C109.115 72.9728 109.087 72.7112 109.215 72.2981C109.308 72.0003 109.384 71.072 109.384 70.2354C109.384 68.517 109.556 68.0749 110.534 67.2838C111.284 66.6767 111.39 66.6623 111.84 67.1074C113.023 68.2777 112.102 72.5487 110.43 73.646C109.779 74.0729 109.672 74.0491 109.337 73.4003V73.4003ZM225.654 73.2573C225.465 72.6831 225.428 71.829 225.589 71.7378C225.96 71.5266 226.8 70.125 227.17 69.1008C227.503 68.1769 227.652 67.9865 228.373 67.5645C228.916 67.2469 229.377 67.099 229.728 67.1304C230.254 67.1775 230.26 67.1882 230.259 68.1585C230.259 68.9019 230.137 69.3664 229.758 70.079C229.25 71.0344 227.754 72.6853 227.107 73.004C226.422 73.3422 225.722 73.4641 225.654 73.2573H225.654ZM186.23 72.537C186.058 71.8484 186.083 71.686 186.459 71.0021C186.69 70.5815 187.013 69.7329 187.177 69.1162C187.487 67.9464 188 67.26 188.88 66.8363C189.976 66.3087 190.358 66.7384 189.982 68.075C189.844 68.5646 189.731 69.2624 189.731 69.6256C189.731 70.1241 189.551 70.54 188.997 71.3218C188.307 72.2947 187.1 73.3071 186.63 73.3071C186.515 73.3071 186.335 72.9605 186.23 72.537ZM115.437 72.2486C114.263 71.2366 113.627 70.1039 113.527 68.8441C113.483 68.2873 113.363 67.5896 113.261 67.2941C112.913 66.2821 113.791 65.9456 114.868 66.6779C115.7 67.244 115.859 67.5105 116.194 68.9124C116.358 69.5966 116.65 70.4424 116.844 70.792C117.177 71.3942 117.187 71.7433 116.896 72.6941C116.756 73.1552 116.342 73.029 115.437 72.2486H115.437ZM196.76 72.4657C196.578 72.3682 196.109 72.3281 195.717 72.3766L195.005 72.4645L195.101 70.9653C195.249 68.663 196.061 66.7871 197.141 66.2548C197.518 66.0688 197.602 66.0817 197.823 66.3601C198.56 67.2889 198.574 69.656 197.854 71.5018C197.418 72.6197 197.279 72.7426 196.761 72.4658L196.76 72.4657ZM180.434 71.8082C179.418 70.7136 179.019 69.5719 179.009 67.7265C179.002 66.3992 179.053 66.0963 179.338 65.8061C179.807 65.3278 180.172 65.3745 180.801 65.9928C181.864 67.0378 181.926 67.2055 181.939 69.0529C181.947 69.9993 182.015 70.9208 182.092 71.1005C182.276 71.5328 181.783 72.4899 181.376 72.4899C181.206 72.4899 180.783 72.1831 180.435 71.8082H180.434ZM121.345 71.8174C121.11 71.3985 121.093 71.1808 121.252 70.6008C121.358 70.2123 121.445 69.2761 121.445 68.5203C121.445 67.2604 121.487 67.0914 121.964 66.4852C123.39 64.6714 124.46 65.0226 124.46 67.3045C124.46 69.0099 123.736 70.8444 122.679 71.8182C121.984 72.4592 121.705 72.459 121.345 71.8182V71.8174ZM76.3018 71.8624C75.483 71.4023 74.159 69.9614 73.617 68.9406C73.0224 67.8207 72.8408 66.2963 73.2634 65.9731C73.988 65.4189 75.7014 66.4808 76.1054 67.7343C76.3823 68.5933 76.9629 69.714 77.4845 70.3967C77.7425 70.734 77.7934 70.9893 77.7049 71.5C77.5713 72.2693 77.1976 72.3658 76.3018 71.8624V71.8624ZM105.604 71.5414C104.625 69.2865 104.862 65.6264 105.987 65.6264C107.128 65.6264 108.555 69.2151 108.224 71.2513L108.109 71.9572L107.353 71.8787C106.938 71.8359 106.434 71.8787 106.235 71.9791C105.912 72.1384 105.843 72.0899 105.604 71.5413V71.5414ZM220.545 71.808C219.896 71.2103 219.418 70.2669 219.167 69.0906C218.778 67.2682 219.249 65.1282 220.095 64.8811C220.575 64.7406 221.351 65.4436 221.816 66.4406C222.113 67.0765 222.145 67.3162 221.994 67.7698C221.892 68.0742 221.804 69.0111 221.798 69.852C221.787 71.1872 221.736 71.4341 221.392 71.8029L220.998 72.2253L220.545 71.808ZM128.517 71.2753C127.232 70.4705 126.04 68.1354 126.01 66.3619C125.982 64.7384 126.558 64.2542 127.657 64.9756C128.415 65.4731 128.837 66.2509 128.956 67.372C129.015 67.9275 129.225 68.7732 129.422 69.2512C129.76 70.0718 129.765 70.1641 129.5 70.8973C129.346 71.3245 129.205 71.674 129.187 71.674C129.169 71.674 128.867 71.4946 128.517 71.2753V71.2753ZM173.776 70.887C173.592 70.1818 173.618 69.9711 174.024 68.856C174.273 68.1717 174.477 67.3822 174.477 67.1014C174.477 66.2426 175.182 65.3104 176.194 64.8302C177.968 63.9884 177.769 67.9077 175.92 70.2241C175.428 70.8415 174.386 71.674 174.106 71.674C174.037 71.674 173.889 71.3199 173.776 70.887V70.887ZM133.876 70.734C133.706 70.2591 133.704 70.0106 133.866 69.6308C133.981 69.361 134.134 68.459 134.205 67.6264C134.321 66.2774 134.393 66.0458 134.871 65.5016C135.502 64.7821 136.368 64.2748 136.741 64.4066C137.846 64.7973 137.485 67.944 136.121 69.8147C135.616 70.5061 134.572 71.347 134.218 71.347C134.15 71.347 133.996 71.0711 133.876 70.734H133.876ZM168.01 70.6769C166.657 69.5816 165.625 66.486 166.148 65.0904C166.578 63.9464 167.534 64.1018 168.628 65.4935C169.097 66.0907 169.156 66.2969 169.156 67.3375C169.156 67.982 169.279 68.8892 169.428 69.3536C169.674 70.115 169.673 70.2462 169.421 70.6908C169.072 71.3137 168.791 71.3109 168.007 70.6779L168.01 70.6769ZM81.7872 70.6126C81.5546 70.2856 81.4933 69.7271 81.477 67.7931C81.4562 65.3947 81.4586 65.3777 81.9658 64.6841C82.5609 63.8689 83.1638 63.6557 83.6733 64.0805C84.8543 65.0654 84.4107 69.0951 82.9639 70.5222C82.351 71.1267 82.163 71.1411 81.7872 70.6126V70.6126ZM141.71 70.4669C140.38 69.36 139.438 67.1432 139.573 65.4362C139.67 64.1991 139.99 63.8551 140.769 64.1525C141.697 64.5068 142.306 65.3953 142.451 66.6074C142.521 67.1918 142.734 68.0956 142.924 68.6161C143.236 69.4713 143.245 69.6282 143.019 70.2444C142.881 70.6195 142.686 70.952 142.584 70.9832C142.482 71.0144 142.089 70.7823 141.71 70.4669V70.4669ZM147.359 70.2466C147.179 69.7364 147.188 69.5102 147.415 68.9238C147.566 68.5348 147.743 67.6215 147.809 66.8943C147.926 65.5989 147.945 65.5562 148.755 64.7822C150.157 63.4419 150.967 63.7872 150.928 65.7084C150.887 67.7615 149.346 70.3714 147.946 70.7594C147.638 70.8451 147.54 70.76 147.359 70.2466H147.359ZM224.495 70.6936C224.349 70.6066 223.93 70.534 223.564 70.5327H222.899V69.7563C222.906 67.9648 223.952 65.4233 225.029 64.5886C225.767 64.0162 226.056 64.0459 226.364 64.725C226.883 65.8704 226.535 68.0933 225.556 69.8804C224.996 70.9028 224.927 70.9551 224.492 70.696L224.495 70.6936ZM160.292 69.9727C160.099 69.3357 160.116 69.146 160.441 68.3464C160.643 67.8486 160.863 66.946 160.931 66.3406C161.044 65.3246 161.112 65.1856 161.819 64.5344C163.241 63.2241 163.932 63.6701 163.798 65.8109C163.732 66.8618 163.602 67.3022 163.068 68.2988C162.436 69.4774 161.261 70.6936 160.754 70.6936C160.619 70.6936 160.414 70.3749 160.292 69.9727H160.292ZM184.877 70.5062C184.694 70.4085 184.235 70.3672 183.856 70.414C183.233 70.4909 183.156 70.4598 183.055 70.0882C182.881 69.4497 183.108 67.6177 183.509 66.4337C183.924 65.2063 184.884 64.0376 185.345 64.2003C186.329 64.5486 186.601 67.3238 185.864 69.5086C185.644 70.1603 185.406 70.6914 185.336 70.6886C185.266 70.6886 185.059 70.6036 184.877 70.5061V70.5062ZM117.509 69.3323C116.75 67.0523 117.117 64.1649 118.184 64.0245C119.186 63.8929 120.27 66.3494 120.276 68.7653C120.276 69.5476 120.235 70.2283 120.181 70.2779C120.127 70.328 119.833 70.289 119.528 70.1896C119.09 70.049 118.858 70.0636 118.436 70.2577L117.899 70.5043L117.509 69.3323ZM154.565 69.8877C152.527 68.2391 151.673 63.502 153.413 63.502C153.632 63.502 154.138 63.8338 154.617 64.2919C155.434 65.0725 155.445 65.098 155.564 66.4575C155.631 67.2141 155.808 68.1778 155.957 68.5991C156.203 69.2919 156.203 69.4127 155.948 69.8658C155.597 70.4908 155.315 70.4952 154.564 69.8883L154.565 69.8877ZM212.915 70.0938C212.606 69.6278 212.747 68.7457 213.283 67.7935C213.599 67.2323 213.975 66.3496 214.119 65.8322C214.406 64.7996 215.221 63.9287 216.089 63.7281C216.793 63.5653 217.126 63.8404 217.19 64.6379C217.341 66.5311 215.163 69.7467 213.473 70.1248C213.216 70.1827 212.965 70.1683 212.915 70.0937V70.0938ZM78.0946 69.3452C76.8784 67.6119 76.4282 64.2675 77.2804 63.2976C77.5545 62.9856 77.6509 62.9657 78.0597 63.1374C79.1303 63.587 80.3061 66.1752 80.3565 68.1935L80.3841 69.2917L79.6773 69.3439C79.2886 69.3736 78.8936 69.4677 78.7994 69.5544C78.5385 69.7949 78.377 69.7467 78.0947 69.3444L78.0946 69.3452ZM88.656 68.476C87.601 67.6021 86.4297 65.6082 86.2452 64.3728C85.9779 62.5819 86.9234 62.1308 88.3696 63.3592C88.8243 63.7454 89.1653 64.1822 89.1674 64.3808C89.1748 64.8968 89.9531 66.8392 90.3727 67.3823C90.6922 67.7958 90.7147 67.9428 90.5505 68.5393C90.2961 69.4627 89.8278 69.447 88.656 68.4764V68.476ZM132.375 69.0282C132.192 68.9338 131.701 68.8999 131.283 68.9528L130.523 69.0488L130.285 68.196C130.154 67.7268 130.051 66.6775 130.055 65.8641C130.063 64.6327 130.136 64.2497 130.499 63.5758C131.205 62.2611 131.93 62.4505 132.646 64.1372C132.959 64.8737 133.038 65.4096 133.049 66.8526C133.063 68.8237 132.914 69.3062 132.375 69.0282V69.0282ZM207.369 68.6518C206.287 67.5945 205.598 64.9802 205.948 63.2608C206.064 62.6872 206.584 62.0309 206.922 62.0309C207.25 62.0309 208.202 62.905 208.541 63.5184C208.837 64.0528 208.873 64.3515 208.782 65.5001C208.723 66.2464 208.757 67.1776 208.858 67.5777C209.017 68.2073 208.994 68.3632 208.686 68.7626C208.49 69.0156 208.246 69.2225 208.142 69.2225C208.038 69.2225 207.69 68.9657 207.369 68.6518ZM170.487 68.8965C170.427 68.8064 170.335 68.2362 170.282 67.6293C170.095 65.4589 171.115 62.6847 172.1 62.6847C173.147 62.6847 173.72 65.4839 173.154 67.8296C172.855 69.0679 172.843 69.0855 172.378 68.971C171.769 68.8208 171.641 68.8188 171.071 68.9508C170.809 69.0111 170.548 68.9871 170.487 68.8965V68.8965ZM145.976 68.5536C145.788 68.3809 144.874 68.3125 144.339 68.4312C143.681 68.577 143.368 65.1467 143.891 63.5227C144.459 61.7602 145.243 61.6842 146.071 63.3116C146.499 64.1525 146.542 64.4175 146.542 66.1988C146.542 68.1666 146.363 68.9106 145.976 68.5536V68.5536ZM94.6288 67.9184C94.3944 67.5387 94.367 67.3173 94.5023 66.8979C94.5975 66.6033 94.6564 65.6635 94.6332 64.8095C94.5872 63.1168 94.6953 62.7942 95.6048 61.9083C96.6395 60.9011 97.4547 61.3944 97.6256 63.1309C97.7791 64.6914 97.0043 66.9088 95.9395 67.9558C95.3528 68.5328 95.0018 68.5227 94.6286 67.918L94.6288 67.9184ZM156.856 67.6369C156.465 65.4587 157.052 62.8721 158.143 61.9631C158.513 61.6541 158.523 61.6548 158.94 62.0153C159.538 62.5327 159.844 63.6867 159.813 65.2996C159.779 67.0451 159.431 68.1774 158.946 68.118C158.196 68.0264 158.051 68.0285 157.519 68.1412C156.988 68.2534 156.963 68.2347 156.856 67.6369V67.6369ZM199.423 67.1386C199.335 66.6462 199.432 66.3007 199.914 65.3815C200.244 64.7522 200.614 63.8329 200.737 63.3384C200.988 62.3286 201.815 61.4703 202.711 61.2889C203.472 61.1348 203.744 61.4345 203.737 62.4187C203.726 64.0358 202.444 66.3335 201.024 67.2814C200.018 67.9529 199.561 67.9121 199.423 67.1387V67.1386ZM211.483 67.5647C211.301 67.4674 210.882 67.4283 210.552 67.4776L209.951 67.5675V66.218C209.951 64.3598 210.624 62.3972 211.598 61.4179C213.281 59.7249 213.916 63.966 212.44 67.0411C212.077 67.7982 211.999 67.8408 211.483 67.5646V67.5647ZM102.702 66.8492C100.923 65.867 99.3528 62.7195 99.8361 61.1061C100.074 60.3111 100.804 60.3466 101.811 61.2023C102.444 61.7396 102.603 62.0049 102.787 62.825C102.908 63.3642 103.265 64.2776 103.58 64.8545C104.099 65.8045 104.135 65.9631 103.962 66.5321C103.856 66.8776 103.697 67.1824 103.606 67.2093C103.516 67.2362 103.109 67.0743 102.702 66.8494V66.8492ZM90.9665 66.1432C90.4321 64.9984 90.2372 64.0759 90.2324 62.6682C90.225 60.5839 90.7855 59.7369 91.7227 60.4161C92.781 61.1834 93.7541 64.1229 93.5202 65.847L93.4051 66.6965L92.688 66.6336C92.2935 66.5995 91.8821 66.6524 91.7736 66.7527C91.4524 67.0485 91.3547 66.9749 90.9665 66.1435V66.1432ZM193.941 66.3019C192.749 65.0856 192.076 62.3995 192.555 60.767C192.939 59.4608 193.838 59.5106 194.863 60.895C195.436 61.6684 195.455 61.7429 195.355 62.8403C195.298 63.4678 195.331 64.4569 195.43 65.0382C195.582 65.9392 195.564 66.1568 195.31 66.5147C194.906 67.0819 194.67 67.0451 193.941 66.302L193.941 66.3019ZM227.713 65.8047C227.699 65.2481 227.85 64.7807 228.296 63.9924C228.626 63.408 228.985 62.6235 229.093 62.2489C229.249 61.7085 229.463 61.4623 230.127 61.0565C230.699 60.7078 231.135 60.5604 231.499 60.5933C232.013 60.6405 232.035 60.675 232.088 61.5306C232.134 62.2771 232.044 62.6044 231.523 63.5737C230.768 64.9788 229.975 65.7144 228.699 66.1923L227.731 66.5545L227.713 65.8047H227.713ZM108.083 65.9554C107.825 65.5533 107.802 65.3582 107.955 64.8522C108.057 64.5141 108.14 63.5314 108.141 62.6684C108.141 61.1874 108.172 61.0616 108.671 60.4269C109.741 59.0649 110.604 58.9775 110.971 60.1941C111.522 62.0217 110.558 65.23 109.188 66.1291C108.552 66.5461 108.451 66.5302 108.083 65.9554V65.9554ZM187.255 65.1616C187.092 64.6016 187.13 64.4247 187.609 63.5417C187.905 62.9964 188.255 62.0709 188.389 61.4849C188.681 60.1952 188.697 60.1695 189.598 59.5684C191.062 58.5912 191.654 59.0609 191.329 60.9404C191.049 62.5593 190.299 63.9228 189.124 64.9467C187.936 65.9822 187.509 66.0313 187.255 65.1616V65.1616ZM114.705 64.9397C113.269 63.9187 112.248 61.8566 112.163 59.8059C112.108 58.4736 113.115 58.3237 114.334 59.4826C114.78 59.906 114.964 60.2883 115.174 61.2233C115.322 61.8822 115.645 62.7877 115.891 63.2354C116.267 63.9204 116.314 64.1545 116.186 64.7132C115.991 65.5678 115.66 65.6184 114.705 64.9397V64.9397ZM198.185 65.2788C198.005 65.1825 197.584 65.1337 197.248 65.1698C196.722 65.2262 196.623 65.1809 196.53 64.8394C196.347 64.1673 196.616 62.003 197.018 60.914C197.442 59.7659 198.542 58.526 198.995 58.686C200.086 59.0719 200.06 62.812 198.953 64.8131C198.755 65.1708 198.574 65.4612 198.552 65.4585C198.53 65.4585 198.364 65.3748 198.185 65.279L198.185 65.2788ZM221.963 64.6351C221.114 63.608 220.698 62.1909 220.812 60.7203C220.905 59.519 221.35 58.4952 221.841 58.3516C222.78 58.0768 224.133 60.1068 223.772 61.2501C223.679 61.5447 223.598 62.3742 223.592 63.0934C223.583 64.1037 223.5 64.5216 223.225 64.9321C223.03 65.2243 222.817 65.4592 222.751 65.4541C222.686 65.4467 222.332 65.0803 221.963 64.6351V64.6351ZM74.4438 64.8409C72.7373 64.07 71.3532 61.9 71.4632 60.1672C71.5046 59.5154 71.5854 59.3249 71.84 59.2802C72.8382 59.1053 74.1358 60.0384 74.5102 61.2003C74.6474 61.6254 74.9673 62.3515 75.2217 62.8138C75.664 63.6182 75.8894 65.3146 75.5508 65.2904C75.4779 65.283 74.9795 65.0828 74.4438 64.8409V64.8409ZM181.836 64.5234C180.632 63.4273 179.786 60.7574 180.15 59.196C180.467 57.8333 180.94 57.6133 181.92 58.3727C182.849 59.0936 183.049 59.6364 183.084 61.5406C183.103 62.4845 183.196 63.4364 183.292 63.6559C183.423 63.9546 183.396 64.1703 183.185 64.513C182.828 65.0906 182.462 65.0935 181.836 64.5241V64.5234ZM104.43 64.1013C103.381 61.8469 103.578 58.1082 104.746 58.1082C105.886 58.1082 107.285 61.6189 106.996 63.7529L106.881 64.604L106.137 64.5893C105.728 64.5819 105.254 64.6355 105.084 64.7091C104.833 64.8184 104.711 64.7017 104.43 64.1014L104.43 64.1013ZM120.286 64.3091C120.049 63.8858 120.04 63.716 120.228 63.2059C120.35 62.8742 120.458 61.9383 120.466 61.1259C120.479 59.8885 120.548 59.5506 120.887 59.0445C122.194 57.0966 123.495 57.4856 123.473 59.8174C123.455 61.6382 122.447 63.8902 121.353 64.5512C120.754 64.9129 120.606 64.8793 120.286 64.3091H120.286ZM80.245 63.8445C80.0229 63.4981 79.9406 63.0009 79.9406 62.0046C79.9406 61.2537 79.8605 60.3825 79.7628 60.0685C79.6097 59.5771 79.6531 59.3731 80.0733 58.6058C80.9454 57.013 81.8872 56.764 82.4436 57.9794C82.7472 58.6423 82.7565 61.0322 82.4603 61.9687C82.2687 62.572 80.9292 64.3191 80.6583 64.3191C80.5992 64.3191 80.4136 64.1056 80.2462 63.8445H80.245ZM127.857 63.4232C126.061 61.9281 124.962 58.1217 126.061 57.2049C126.348 56.9659 126.429 56.9643 126.901 57.1902C127.768 57.6036 128.539 58.5351 128.539 59.1694C128.539 59.9812 128.888 61.3695 129.264 62.0548C129.57 62.6125 129.573 62.6912 129.304 63.3214C129.146 63.691 128.91 63.9935 128.779 63.9935C128.648 63.9935 128.233 63.7374 127.857 63.4244V63.4232ZM174.156 63.3748C173.981 62.8375 174.01 62.6305 174.383 61.7798C174.619 61.2421 174.898 60.288 175.003 59.6595C175.177 58.6204 175.266 58.4537 175.979 57.8221C177.135 56.7973 177.782 56.9335 177.972 58.2423C178.186 59.7098 177.113 62.2123 175.787 63.3381C174.802 64.175 174.418 64.1836 174.156 63.3745V63.3748ZM133.452 63.19C133.222 62.7652 133.229 62.6221 133.521 61.8416C133.706 61.3489 133.851 60.5 133.854 59.8932C133.862 58.9783 133.939 58.7082 134.389 58.0815C134.963 57.2839 135.944 56.6872 136.411 56.8524C137.329 57.1769 137.244 59.5173 136.243 61.4667C135.724 62.4771 134.539 63.6654 134.051 63.6654C133.85 63.6654 133.602 63.4685 133.451 63.19H133.452ZM168.705 63.1472C166.895 61.6824 165.871 57.8477 167.031 56.8798C167.527 56.4664 168.289 56.8044 169.069 57.7828C169.633 58.4916 169.689 58.6598 169.689 59.6723C169.689 60.2837 169.816 61.2019 169.971 61.7126C170.231 62.5656 170.231 62.6833 169.964 63.1535C169.806 63.4352 169.601 63.6656 169.51 63.6656C169.418 63.6656 169.055 63.4323 168.702 63.1472H168.705ZM226.712 63.3975C226.469 63.2272 226.093 63.1716 225.515 63.2202C224.705 63.2882 224.673 63.2736 224.675 62.8654C224.684 61.4037 225.856 58.7845 226.844 58.0184C227.553 57.4691 227.836 57.5148 228.162 58.2312C228.522 59.0245 228.396 60.7402 227.869 62.1948C227.386 63.5272 227.189 63.7317 226.712 63.3976V63.3975ZM141.907 63.1887C140.53 62.4152 139.353 60.1214 139.337 58.1816C139.32 56.2754 140.086 55.9209 141.429 57.2123C142.068 57.8273 142.197 58.0581 142.197 58.5936C142.197 59.4507 142.523 60.8327 142.895 61.5511C143.18 62.1019 143.179 62.1709 142.88 62.8178C142.707 63.1943 142.542 63.5018 142.513 63.5016C142.485 63.5012 142.212 63.3604 141.906 63.1887H141.907ZM186.064 63.3262C185.95 63.2219 185.539 63.1663 185.138 63.2015C184.269 63.2779 184.233 63.2163 184.233 61.6435C184.233 60.2584 184.597 58.8452 185.231 57.7722C186.394 55.8027 187.425 56.5646 187.425 59.3935C187.425 61.466 186.608 63.8275 186.064 63.3262ZM116.761 62.4689C116.272 61.2243 116.125 60.491 116.125 59.2714C116.125 57.2616 116.718 56.067 117.522 56.4639C118.442 56.9175 119.311 59.2242 119.311 61.2138C119.311 62.7771 119.21 63.0167 118.597 62.9037C118.319 62.8523 117.853 62.8872 117.561 62.9814C117.045 63.1473 117.023 63.1327 116.761 62.4689V62.4689ZM147.082 62.6982C146.843 62.2727 146.843 62.1573 147.082 61.6262C147.23 61.2988 147.416 60.3815 147.496 59.5878C147.651 58.0403 147.904 57.5428 148.95 56.732C150.125 55.821 150.802 56.4487 150.671 58.3278C150.563 59.8808 149.733 61.5998 148.645 62.524C147.731 63.3003 147.436 63.3331 147.079 62.6982L147.082 62.6982ZM160.596 62.5233C160.335 61.9103 160.34 61.8306 160.679 61.1841C160.978 60.6125 161.5 58.5419 161.523 57.8349C161.534 57.5296 162.411 56.6483 162.971 56.3814C165.231 55.3044 164.521 60.4906 162.13 62.5211C161.707 62.8808 161.251 63.1753 161.117 63.1753C160.983 63.1753 160.749 62.8818 160.596 62.5233V62.5233ZM214.487 62.9845C214.253 62.3109 214.286 61.5996 214.572 61.1421C214.744 60.8669 215.02 60.2004 215.187 59.6611C215.354 59.1217 215.558 58.5173 215.64 58.318C215.838 57.8417 217.165 56.9643 217.687 56.9643C218.904 56.9643 218.658 59.312 217.225 61.3545C216.667 62.1499 216.33 62.4466 215.671 62.7245C215.208 62.9197 214.769 63.107 214.696 63.141C214.623 63.1743 214.529 63.1046 214.487 62.9846V62.9845ZM154.966 62.256C153.247 60.8249 152.249 57.001 153.354 56.0794C153.792 55.7141 154.358 55.9298 155.191 56.7795C155.917 57.52 155.978 57.6922 156.089 59.3343C156.132 59.9635 156.282 60.778 156.422 61.1443C156.647 61.7289 156.645 61.8737 156.411 62.3293C156.264 62.6147 156.039 62.8483 155.911 62.8483C155.783 62.8483 155.357 62.5818 154.966 62.256V62.256ZM75.8888 61.6151C75.1513 59.8393 74.9916 57.6873 75.5287 56.7627C76.0196 55.9172 77.4115 57.0209 78.1509 58.8421C78.5234 59.7594 78.997 61.9745 78.8496 62.1104C78.806 62.1504 78.4808 62.1011 78.1272 62.0022C77.5756 61.846 77.3977 61.8678 76.8686 62.1556L76.2525 62.4905L75.8888 61.6151ZM208.644 61.8391C207.49 60.7101 207.203 59.9304 207.202 57.9216C207.202 56.4401 207.252 56.131 207.54 55.8377C208.021 55.347 208.599 55.4065 209.143 56.0032C209.986 56.9263 210.069 57.2416 210.041 59.4333C210.017 61.3125 209.78 62.5328 209.442 62.5158C209.38 62.5158 209.021 62.2083 208.644 61.8392V61.8391ZM87.9523 61.8123C86.9633 61.3204 86.1527 60.3618 85.5749 59.0007C84.9221 57.4627 85.0315 55.9831 85.7982 55.9831C86.8504 55.9831 87.9618 57.0194 88.2522 58.2714C88.3669 58.7659 88.6446 59.538 88.869 59.9875C89.2275 60.7052 89.2541 60.8948 89.0875 61.5437L88.8977 62.2824L87.9523 61.8123ZM130.071 61.0741C129.45 59.1453 129.57 56.6908 130.342 55.5335C130.767 54.8972 131.08 54.8662 131.623 55.4065C132.507 56.2854 133.021 59.0236 132.628 60.764L132.416 61.7037L131.743 61.6046C131.366 61.5497 130.907 61.5858 130.699 61.6884C130.357 61.8569 130.308 61.809 130.071 61.0741V61.0741ZM93.7554 61.1725C93.3719 60.3981 93.4632 56.6116 93.8799 56.0054C94.8069 54.6567 95.6532 54.3345 96.21 55.1182C96.4524 55.4592 96.5216 55.8811 96.5117 56.9569C96.4932 58.8167 96.0348 59.9855 94.9334 60.972C94.4842 61.3745 94.0944 61.7038 94.0675 61.7038C94.0406 61.7038 93.9001 61.4646 93.7554 61.1725V61.1725ZM170.91 60.7231C170.534 59.0768 171.239 56.0252 172.175 55.2445C173.325 54.2853 174.346 57.2645 173.778 59.9232C173.424 61.581 173.374 61.6339 172.164 61.6276L171.115 61.6202L170.91 60.7212V60.7231ZM143.772 60.7528C143.162 59.2778 143.232 56.5713 143.915 55.2531C145.13 52.9043 147.04 57.0412 146.269 60.3531L146.086 61.1432L145.007 61.1359C144.045 61.1285 143.911 61.0886 143.772 60.751V60.7528ZM157.377 60.4047C156.889 58.026 157.394 55.3522 158.502 54.4375C158.994 54.0319 159.355 54.209 159.845 55.0957C160.141 55.6327 160.197 56.0469 160.187 57.6178C160.178 58.8697 160.087 59.7099 159.91 60.1338L159.645 60.7699L158.554 60.7961C157.516 60.8208 157.459 60.8035 157.377 60.4049V60.4047ZM201.075 60.7447C201.067 60.6881 201 60.3194 200.917 59.9257C200.797 59.3515 200.831 59.1088 201.091 58.6999C201.269 58.4194 201.578 57.6383 201.776 56.9641C202.071 55.965 202.26 55.639 202.799 55.2018C203.703 54.4687 204.245 54.3611 204.66 54.8328C205.076 55.3062 205.07 55.8584 204.634 57.1588C204.132 58.6563 203.159 59.8624 202.014 60.4059C201.501 60.649 201.079 60.8015 201.075 60.7447H201.075ZM213.078 60.1237C212.583 59.8822 212.168 59.8909 211.476 60.157C211.156 60.28 211.144 60.2157 211.235 58.9114C211.375 56.9091 212.268 54.9877 213.294 54.4816C213.664 54.2991 213.752 54.3182 214.037 54.6428C214.675 55.3681 214.706 57.7017 214.1 59.3724C213.735 60.3799 213.683 60.4185 213.078 60.1235L213.078 60.1237ZM101.515 59.7632C100.508 59.296 99.6782 58.2288 99.1064 56.6646C98.5075 55.0269 98.6796 53.8586 99.5193 53.8586C99.9853 53.8586 101.304 54.6809 101.541 55.1201C101.628 55.2803 101.801 55.8526 101.926 56.392C102.051 56.9314 102.296 57.6315 102.47 57.948C102.698 58.3629 102.76 58.7401 102.692 59.3002C102.64 59.7275 102.547 60.0965 102.487 60.1203C102.427 60.1442 101.989 59.9833 101.515 59.7632ZM195.126 59.5223C193.88 58.3563 193.201 56.0069 193.632 54.3532C194.034 52.808 195.086 52.7712 196.038 54.269C196.471 54.9498 196.509 55.1605 196.539 57.0876C196.563 58.6227 196.504 59.3102 196.311 59.7017C196.168 59.9938 196.005 60.2257 195.95 60.2168C195.895 60.2076 195.524 59.8955 195.126 59.5222V59.5223ZM107.228 59.0953C106.994 58.5821 106.97 58.3083 107.111 57.7484C107.209 57.362 107.241 56.5007 107.183 55.8345C107.082 54.6779 107.102 54.5871 107.633 53.8254C108.707 52.2829 109.686 52.2955 110.092 53.8565C110.342 54.8148 110.111 56.425 109.555 57.583C109.285 58.1467 107.819 59.7472 107.579 59.7404C107.547 59.7404 107.389 59.449 107.227 59.0948L107.228 59.0953ZM89.6071 58.8016C89.1453 57.6026 89.0452 55.1726 89.4204 54.2673C89.6611 53.6865 89.8122 53.5317 90.1382 53.5317C91.0382 53.5317 92.0393 55.3434 92.4003 57.625C92.6311 59.0842 92.5304 59.513 92.0159 59.2594C91.5209 59.0152 90.7233 59.0491 90.2836 59.3329C89.9206 59.5672 89.8938 59.546 89.6071 58.8017V58.8016ZM188.546 57.9701C188.42 57.3394 188.463 57.0496 188.8 56.2766C189.024 55.7637 189.271 55.0254 189.35 54.6361C189.537 53.7142 189.681 53.4968 190.509 52.8917C191.818 51.9349 192.507 52.3664 192.343 54.0395C192.245 55.0347 191.597 56.5255 190.894 57.3754C190.663 57.6542 190.075 58.0733 189.587 58.3066L188.699 58.731L188.546 57.9701ZM114.345 58.0991C114.104 57.9284 113.81 57.7871 113.692 57.7851C112.961 57.7722 111.558 55.2633 111.399 53.6859C111.31 52.7993 111.347 52.572 111.631 52.2486C111.954 51.8822 111.999 51.8756 112.583 52.1057C113.617 52.5124 114.122 53.1577 114.411 54.4399C114.554 55.0743 114.796 55.8692 114.949 56.2063C115.216 56.7938 115.181 58.1828 114.896 58.3451C114.834 58.3799 114.586 58.2698 114.345 58.099L114.345 58.0991ZM182.682 57.5771C181.591 56.5505 181.165 55.5391 181.075 53.7633C180.955 51.3767 181.703 50.577 182.936 51.7747C183.823 52.6354 184.11 53.3039 183.981 54.2029C183.919 54.6335 183.951 55.4635 184.052 56.0476C184.208 56.9479 184.19 57.1979 183.935 57.6905C183.77 58.0102 183.586 58.2718 183.527 58.2718C183.468 58.2718 183.087 57.9591 182.682 57.5771H182.682ZM119.746 57.5321C119.511 57.0138 119.496 56.7076 119.653 55.6333C119.756 54.929 119.793 54.1339 119.735 53.8665C119.577 53.139 119.764 52.6857 120.569 51.8429C121.392 50.9811 121.99 50.8517 122.396 51.4479C123.352 52.8521 122.488 56.1395 120.802 57.5163L120.026 58.1501L119.746 57.5321ZM199.752 57.8473C199.391 57.5918 198.478 57.5997 197.819 57.8639C197.497 57.9927 197.487 57.937 197.607 56.7054C197.93 53.3946 199.844 50.8541 200.66 52.6532C201.056 53.5262 201.001 55.6617 200.549 57.0104C200.347 57.6143 200.165 58.1061 200.144 58.1032C200.123 58.1032 199.947 57.985 199.752 57.8473V57.8473ZM103.367 57.1522C102.777 56.1356 102.596 53.2003 103.061 52.1754C103.213 51.8402 103.461 51.5221 103.613 51.4685C104.652 51.1009 106.014 53.861 106.014 56.3351V57.4352L105.526 57.2007C104.897 56.8985 104.415 56.9024 103.933 57.2136C103.58 57.4413 103.532 57.4361 103.367 57.1528V57.1522ZM128.269 56.7942C128.206 56.7006 127.835 56.4378 127.443 56.2101C125.944 55.3382 124.906 51.7448 125.777 50.4456C126.081 49.9931 127.171 50.4741 127.896 51.3795C128.181 51.7347 128.343 52.217 128.415 52.9186C128.473 53.4806 128.641 54.2524 128.788 54.6338C129.008 55.207 129.018 55.469 128.843 56.1457C128.634 56.9573 128.488 57.1219 128.269 56.7942H128.269ZM133.593 56.7586C133.551 56.6473 133.439 56.3618 133.345 56.1242C133.224 55.8188 133.249 55.4639 133.429 54.9133C133.569 54.4848 133.683 53.6822 133.683 53.1297C133.683 52.3025 133.774 51.9936 134.197 51.379C135.451 49.5561 136.878 49.6996 136.873 51.6482C136.866 53.5283 135.939 55.4316 134.577 56.35C133.979 56.753 133.644 56.8922 133.593 56.7586V56.7586ZM174.864 56.2101C174.681 55.5782 174.699 55.3216 174.995 54.3811C175.185 53.7795 175.391 52.9326 175.454 52.4992C175.545 51.8637 175.706 51.587 176.285 51.0691C178.402 49.1759 179.144 51.8366 177.389 55.0295C177.026 55.6914 176.491 56.1467 175.265 56.8393C175.153 56.903 174.992 56.6499 174.864 56.2101H174.864ZM168.851 56.0197C167.801 55.1461 167.301 54.2165 166.994 52.5637C166.728 51.1379 167.046 50.0449 167.747 49.9696C168.304 49.9103 169.03 50.4128 169.612 51.2613C169.962 51.7722 170.046 52.1162 170.057 53.0796C170.064 53.7332 170.168 54.562 170.288 54.9216C170.466 55.4591 170.459 55.6846 170.247 56.1884C170.105 56.5254 169.942 56.7989 169.883 56.7961C169.825 56.7961 169.36 56.4439 168.85 56.0197H168.851ZM141.398 55.7929C140.31 55.0329 139.628 53.8714 139.33 52.2693C139.092 50.9882 139.3 49.8917 139.815 49.7095C140.617 49.4259 141.927 50.727 142.102 51.9796C142.165 52.429 142.331 53.2749 142.473 53.8593C142.685 54.7355 142.691 55.0522 142.507 55.6668L142.285 56.4122L141.398 55.7929H141.398ZM147.152 55.8515C146.982 55.3295 146.997 55.0162 147.231 54.157C147.389 53.5771 147.518 52.7323 147.518 52.2796C147.518 51.6288 147.626 51.3181 148.037 50.7955C148.934 49.6543 149.852 49.2953 150.378 49.8799C150.763 50.3073 150.661 52.2908 150.198 53.3945C149.676 54.6386 149.185 55.2597 148.193 55.9298L147.36 56.4919L147.152 55.8515ZM161.186 55.3676C161.017 54.7139 161.042 54.395 161.347 53.3018C161.545 52.5908 161.707 51.7922 161.707 51.5274C161.707 50.9192 162.573 49.8881 163.325 49.6009C163.846 49.4024 163.912 49.4157 164.236 49.7842C164.535 50.1241 164.574 50.3637 164.506 51.4432C164.44 52.484 164.31 52.9224 163.761 53.9464C163.395 54.6291 162.962 55.2308 162.8 55.2831C162.638 55.3353 162.253 55.5498 161.945 55.7595L161.386 56.1404L161.186 55.3676ZM155.361 55.4451C154.393 54.769 153.984 54.1962 153.546 52.902C152.913 51.0369 153.169 49.119 154.05 49.119C154.456 49.119 155.624 50.0209 155.922 50.564C156.053 50.8031 156.212 51.5976 156.275 52.3295C156.339 53.0615 156.48 53.8958 156.589 54.1836C156.736 54.573 156.734 54.8701 156.578 55.3453C156.464 55.6965 156.314 55.982 156.245 55.9798C156.175 55.9798 155.777 55.7369 155.359 55.4451H155.361ZM185.122 54.968C185.129 53.77 185.507 52.1448 185.988 51.2796C186.437 50.4727 187.155 49.8683 187.513 49.9951C188.288 50.269 188.628 52.725 188.163 54.6763C187.873 55.8913 187.716 56.1104 187.342 55.8245C187.009 55.5698 185.986 55.568 185.472 55.8171C185.137 55.9825 185.12 55.9392 185.122 54.9639V54.968ZM115.772 55.1257C115.497 54.4292 115.334 52.1423 115.491 51.1802C115.559 50.7585 115.796 50.2255 116.023 49.9822C116.418 49.5588 116.447 49.5531 116.883 49.8159C117.803 50.3714 118.607 52.6117 118.607 54.6199C118.607 55.5796 118.574 55.6787 118.296 55.5661C117.743 55.3424 116.63 55.288 116.427 55.4749C116.118 55.7605 115.996 55.6959 115.772 55.1256V55.1257ZM131.987 54.2489C131.56 53.9855 130.944 53.9291 130.291 54.0937C129.899 54.1923 129.811 54.1509 129.728 53.8308C129.292 52.1437 129.486 49.8164 130.144 48.8184C130.759 47.8875 131.47 48.2369 132.107 49.7824C132.509 50.7581 132.723 52.9875 132.501 53.8805C132.362 54.4357 132.329 54.4595 131.987 54.249V54.2489ZM171.194 53.511C170.922 51.3583 172.02 48.3018 173.064 48.3018C173.967 48.3018 174.593 51.2019 174.132 53.2461C173.906 54.25 173.872 54.2763 173.133 54.0173C172.753 53.8844 172.51 53.9133 171.982 54.1537L171.313 54.4588L171.194 53.511ZM145.311 53.5712C144.893 53.3702 144.683 53.3572 144.256 53.5061C143.597 53.7351 143.497 53.6165 143.334 52.4129C143.151 51.0581 143.345 49.5491 143.816 48.6732C144.459 47.4795 145.127 47.5554 145.772 48.8948C146.402 50.2057 146.571 53.6727 146.01 53.7863C145.912 53.8059 145.598 53.7095 145.311 53.5715V53.5712ZM157.521 53.1156C157.367 52.5517 157.545 49.9945 157.789 49.2629C157.897 48.9376 158.168 48.4228 158.39 48.1188C159.22 46.9839 160.146 47.635 160.431 49.5543C160.587 50.6088 160.411 52.9934 160.16 53.225C160.075 53.3034 159.769 53.2829 159.468 53.1778C159.027 53.0246 158.82 53.04 158.339 53.261C157.603 53.5995 157.655 53.6089 157.521 53.1156V53.1156Z" fill="#EAD15A"/>
<path d="M94.6988 87.7588C101.932 126.559 103.415 165.081 92.5488 203.003C102.485 171.606 106.626 135.799 94.6988 87.7588Z" fill="black"/>
<path d="M106.525 86.1077C113.758 124.908 116.495 159.137 105.629 197.059C115.565 165.662 118.452 134.148 106.525 86.1077Z" fill="black"/>
<path d="M119.066 85.7773C124.276 124.844 128.826 153.362 119.245 191.115C128.461 160.098 128.572 135.093 119.066 85.7773Z" fill="#1A1A1A"/>
<path d="M189.184 88.0063C181.952 126.807 180.468 165.328 191.334 203.251C181.399 171.854 177.257 136.047 189.184 88.0063Z" fill="black"/>
<path d="M177.36 86.3552C170.128 125.156 167.39 159.384 178.256 197.307C168.32 165.91 165.433 134.395 177.36 86.3552Z" fill="black"/>
<path d="M164.819 86.0251C159.61 125.092 155.059 153.61 164.64 191.363C155.424 160.346 155.313 135.341 164.819 86.0251Z" fill="black"/>
<path d="M136.369 188.673C136.855 188.673 137.249 166.111 137.249 138.278C137.249 110.446 136.855 87.8833 136.369 87.8833C135.882 87.8833 135.488 110.446 135.488 138.278C135.488 166.111 135.882 188.673 136.369 188.673Z" fill="black"/>
<path d="M149.879 186.582C150.365 186.582 150.759 164.019 150.759 136.187C150.759 108.354 150.365 85.7917 149.879 85.7917C149.392 85.7917 148.998 108.354 148.998 136.187C148.998 164.019 149.392 186.582 149.879 186.582Z" fill="black"/>
<path d="M202.772 87.9895C195.54 126.79 194.056 165.311 204.922 203.234C194.986 171.837 190.845 136.03 202.772 87.9895Z" fill="black"/>
<path d="M135.262 149.141L90.8314 148.955L89.8559 148.534C87.8299 147.66 87.1064 146.571 87.1074 144.394C87.1074 143.083 87.1588 142.851 87.5742 142.263C88.2795 141.263 89.2168 140.591 90.3201 140.296C91.2384 140.05 95.7909 140.047 149.7 140.264L208.085 140.498L209.054 140.914C211.07 141.779 211.796 142.874 211.795 145.049C211.795 146.359 211.744 146.591 211.329 147.18C210.639 148.158 209.7 148.844 208.662 149.128C207.57 149.427 203.768 149.427 135.262 149.142V149.141Z" fill="#EAD15A" stroke="black" stroke-width="0.404529"/>
<path d="M-6.1538 267.661L-6.39453 325.257C6.486 323.479 19.3665 328.232 32.247 332.544C58.6214 342.101 84.9959 343.94 111.37 331.258C129.641 321.024 156.758 321.537 181.293 330.829C208.69 342.792 236.086 343.723 263.483 331.686C284.983 322 312.527 320.923 337.086 331.686C363.665 342.969 390.244 343.121 416.823 332.115C442.175 320.217 467.527 321.596 492.879 332.544C517.413 343.625 541.948 341.536 566.482 333.83C579.04 329.589 592.755 325.308 606.113 323.596L606.188 268.401C592.081 267.661 576.909 270.861 562.802 276.393C543.216 283.816 521.408 286.721 492.879 275.965C464.622 263.647 438.129 264.283 413.143 275.965C389.222 285.252 365.301 285.109 341.38 275.536C314.392 263.809 287.404 264.406 260.416 275.536C229.892 287.331 205.129 282.576 181.906 273.393C156.347 264.954 128.766 264.83 112.597 272.964C85.6092 286.422 58.6214 285.784 31.6337 274.679C20.26 270.667 8.42151 266.639 -6.1538 267.661V267.661Z" fill="white"/>
<path d="M-6.05028 188.814L-6.29102 246.41C6.58951 244.632 19.47 249.386 32.3506 253.697C58.725 263.255 85.0994 265.093 111.474 252.411C129.745 242.178 156.862 242.691 181.397 251.983C208.793 263.945 236.19 264.876 263.587 252.84C285.087 243.153 312.631 242.076 337.19 252.84C363.769 264.122 390.347 264.274 416.926 253.268C442.278 241.37 467.631 242.749 492.983 253.697C517.517 264.779 542.051 262.689 566.586 254.983C579.144 250.743 592.858 246.461 606.216 244.749L606.292 189.554C592.185 188.814 577.013 192.014 562.905 197.547C543.319 204.969 521.511 207.875 492.983 197.118C464.725 184.8 438.233 185.437 413.246 197.118C389.325 206.405 365.404 206.262 341.483 196.69C314.495 184.962 287.508 185.56 260.52 196.69C229.996 208.484 205.232 203.729 182.01 194.546C156.451 186.108 128.869 185.983 112.701 194.118C85.7127 207.575 58.725 206.937 31.7372 195.832C20.3635 191.82 8.52503 187.793 -6.05028 188.814V188.814Z" fill="white"/>
</g>
<defs>
<clipPath id="clip0_1_10697">
<rect width="600" height="400" fill="white"/>
</clipPath>
</defs>
</svg>
