<svg width="600" height="400" viewBox="0 0 600 400" fill="none" xmlns="http://www.w3.org/2000/svg" xmlns:cgf="https://coding.garden/flags"><metadata id="cgf-metadata">

<cgf:flag>
  <cgf:name>Hardinxveld-Giessendam</cgf:name>
  <cgf:route>nl/zh/hardinxveld_giessendam</cgf:route>
  <cgf:aspect-ratio>1.5</cgf:aspect-ratio>
</cgf:flag>

</metadata><g clip-path="url(#clip0_1_10945)">
<path d="M0 400L600 0H0V400Z" fill="white"/>
<path d="M0 400H600V0L0 400Z" fill="#D9171F"/>
<path d="M467.734 369.667C467.734 365.089 467.688 361.342 467.633 361.342C467.577 361.342 466.621 361.22 465.508 361.07C460.551 360.403 455.172 359.159 450.697 357.645C449.895 357.373 449.204 357.187 449.162 357.23C449.103 357.291 445.857 369.044 445.066 372.061C444.991 372.347 444.87 372.581 444.798 372.581C444.654 372.581 433.075 366.506 432.889 366.333C432.826 366.275 434.579 363.408 436.784 359.963C438.989 356.518 440.77 353.678 440.742 353.652C440.714 353.626 439.751 353.121 438.601 352.53C432.726 349.512 426.646 345.358 421.716 340.993C420.998 340.357 420.36 339.84 420.3 339.845C420.24 339.85 418.187 342.689 415.739 346.154C413.291 349.62 411.258 352.452 411.221 352.447C411.116 352.435 402.019 342.18 402.071 342.133C402.105 342.103 413.686 333.395 413.881 333.253C413.897 333.242 413.387 332.611 412.748 331.852C408.401 326.686 404.714 321.11 401.63 315.038C401.156 314.104 400.738 313.34 400.701 313.339C400.664 313.339 397.447 315.078 393.552 317.204C387.446 320.537 386.459 321.035 386.379 320.823C386.104 320.086 382.605 307.763 382.657 307.71C382.691 307.675 385.93 307.045 389.855 306.309C393.78 305.574 397.044 304.924 397.108 304.865C397.172 304.806 396.887 303.707 396.474 302.422C395.17 298.36 394.357 295.102 393.63 291.033C393.228 288.782 392.608 284.11 392.608 283.332V282.812H384.246H375.884V274.903V266.994H384.243H392.603L392.668 266.682C392.704 266.511 392.831 265.558 392.95 264.566C393.564 259.449 394.893 253.413 396.448 248.687C396.71 247.89 396.924 247.168 396.924 247.083C396.924 246.989 393.945 246.368 389.236 245.481C385.008 244.685 381.549 243.989 381.549 243.934C381.549 243.798 385.312 230.748 385.368 230.691C385.392 230.666 388.735 232.455 392.797 234.668C396.858 236.88 400.202 238.69 400.228 238.69C400.253 238.69 400.802 237.65 401.448 236.379C404.678 230.018 408.176 224.688 412.656 219.297C412.927 218.971 413.125 218.685 413.095 218.662C413.066 218.639 410.324 216.575 407.001 214.075L400.961 209.531L402.03 208.328C407.765 201.877 410.034 199.349 410.121 199.318C410.178 199.297 412.282 202.175 414.796 205.711L419.368 212.142L421.196 210.523C426.417 205.895 431.885 202.078 437.695 199.003L439.689 197.948L435.706 191.721C433.515 188.296 431.724 185.459 431.725 185.418C431.728 185.335 443.756 179.013 443.808 179.066C443.825 179.084 444.765 182.501 445.896 186.66C447.028 190.819 447.97 194.244 447.989 194.271C448.009 194.298 448.955 194.004 450.09 193.618C455.163 191.895 460.286 190.687 465.508 189.985C466.621 189.835 467.577 189.712 467.633 189.712C467.688 189.712 467.734 185.966 467.734 181.387V173.062H475.489H483.245V181.239V189.415L484.02 189.495C491.014 190.219 497.317 191.502 502.577 193.272C503.16 193.468 503.683 193.574 503.743 193.509C503.833 193.41 504.547 190.842 507.641 179.486C507.72 179.198 508.064 179.359 513.659 182.305C516.923 184.024 519.645 185.483 519.709 185.547C519.773 185.61 518.179 188.233 516.169 191.375C514.158 194.517 512.512 197.113 512.512 197.145C512.512 197.177 513.559 197.742 514.839 198.401C520.986 201.564 526.655 205.414 531.827 209.938C532.473 210.503 533.055 210.931 533.121 210.889C533.186 210.847 535.056 208.252 537.274 205.123C539.493 201.993 541.349 199.446 541.398 199.463C541.505 199.5 550.467 209.546 550.507 209.674C550.522 209.722 548.14 211.561 545.213 213.761C542.287 215.961 539.892 217.811 539.892 217.872C539.892 217.934 540.366 218.537 540.945 219.214C544.961 223.906 548.955 229.939 552.023 235.95C552.559 236.999 553.045 237.858 553.103 237.858C553.162 237.858 556.116 236.271 559.668 234.332C563.849 232.049 566.154 230.863 566.206 230.967C566.37 231.294 570.014 244.101 569.959 244.158C569.928 244.19 566.94 244.777 563.32 245.461C559.7 246.145 556.709 246.735 556.674 246.771C556.638 246.807 556.85 247.548 557.144 248.417C558.688 252.978 560.104 259.358 560.729 264.566C560.848 265.558 560.974 266.511 561.009 266.682L561.073 266.994H568.691H576.309V274.903V282.812H568.688H561.068V283.346C561.068 284.133 560.465 288.685 560.054 290.998C559.338 295.03 558.256 299.337 557.077 302.846C556.746 303.83 556.503 304.663 556.536 304.697C556.569 304.731 559.818 305.368 563.756 306.112C567.694 306.856 570.951 307.501 570.995 307.546C571.071 307.625 567.448 320.397 567.26 320.71C567.198 320.812 564.741 319.543 560.139 317.032C556.274 314.923 553.086 313.197 553.054 313.197C553.023 313.197 552.559 314.056 552.023 315.105C548.953 321.118 544.961 327.149 540.94 331.847C540.358 332.527 539.93 333.129 539.988 333.185C540.047 333.241 542.644 335.205 545.759 337.55C548.875 339.894 551.472 341.858 551.531 341.913C551.641 342.016 542.653 352.185 542.452 352.185C542.39 352.185 540.534 349.641 538.328 346.531C536.121 343.422 534.119 340.611 533.879 340.284L533.443 339.692L532.048 340.918C526.835 345.503 521.085 349.439 515.097 352.522C513.764 353.208 513.052 353.649 513.094 353.761C513.129 353.858 514.872 356.616 516.966 359.892C519.059 363.167 520.799 365.917 520.831 366.003C520.884 366.147 508.916 372.535 508.806 372.421C508.78 372.395 507.832 368.97 506.701 364.811C505.569 360.652 504.623 357.223 504.598 357.191C504.574 357.159 503.659 357.42 502.565 357.773C496.411 359.753 491.208 360.816 484.02 361.56L483.245 361.64V369.816V377.992H475.489H467.734V369.667L467.734 369.667ZM485.61 343.647C489.049 343.193 492.631 342.43 495.923 341.448C499.274 340.449 499.908 340.199 499.863 339.892C499.842 339.747 499.134 337.1 498.289 334.01C497.444 330.92 496.763 328.382 496.776 328.369C496.789 328.355 498.287 330.679 500.104 333.532C502.955 338.007 503.445 338.708 503.678 338.635C503.827 338.589 504.788 338.158 505.814 337.677C511.663 334.94 518.148 330.541 522.719 326.211L523.417 325.55L520.087 320.865C515.976 315.08 516.06 315.202 516.294 315.351C516.399 315.418 518.663 317.118 521.324 319.128C525.368 322.182 526.195 322.754 526.363 322.61C526.679 322.34 529.365 319.204 530.266 318.053C532.202 315.579 533.989 312.919 535.672 310.006C536.815 308.028 538.139 305.442 538.139 305.188C538.139 305.105 535.806 303.768 532.956 302.216C530.105 300.665 527.788 299.38 527.806 299.361C527.824 299.342 530.472 299.825 533.691 300.435C536.909 301.044 539.606 301.542 539.684 301.542C539.904 301.54 541.203 297.965 542.077 294.952C542.99 291.802 543.829 287.754 544.204 284.685C544.287 283.998 544.385 283.295 544.42 283.124L544.483 282.812H517.843H491.202V286.905V290.998H487.223H483.245V317.429V343.86H483.621C483.828 343.86 484.723 343.765 485.61 343.647H485.61ZM467.734 317.29V290.998H463.553H459.372V286.905V282.812H434.144H408.916L408.988 283.263C409.028 283.511 409.125 284.244 409.204 284.893C409.769 289.537 411.223 295.344 412.998 300.046C413.647 301.764 413.674 301.808 414.027 301.738C416.683 301.212 425.865 299.502 425.893 299.528C425.914 299.547 423.547 300.859 420.633 302.443C417.719 304.027 415.314 305.342 415.289 305.365C415.224 305.423 416.616 308.098 417.656 309.914C420.05 314.097 423.261 318.517 426.309 321.825L427.419 323.03L432.302 319.346C434.987 317.319 437.261 315.599 437.353 315.522C437.446 315.446 437.522 315.411 437.522 315.446C437.522 315.48 435.884 317.813 433.882 320.631C431.881 323.449 430.257 325.794 430.274 325.844C430.344 326.041 433.588 328.81 435.266 330.104C438.389 332.513 442.281 334.999 445.593 336.701C447.289 337.573 450.204 338.908 450.267 338.842C450.291 338.817 451.748 336.548 453.505 333.801C456.631 328.914 457.037 328.307 456.888 328.737C456.848 328.851 456.204 331.193 455.457 333.94C454.71 336.687 454.015 339.228 453.913 339.586L453.726 340.237L455.369 340.79C457.429 341.483 459.008 341.938 460.99 342.406C462.884 342.855 466.696 343.56 467.296 343.573L467.734 343.583V317.29L467.734 317.29ZM483.11 274.972V267.133H475.489H467.869V274.972V282.812H475.489H483.11V274.972ZM459.372 262.901V258.808H463.553H467.734V233.409V208.01L467.093 208.098C464.734 208.424 461.309 209.138 458.697 209.848C456.99 210.313 453.021 211.611 452.869 211.755C452.795 211.825 454.11 216.837 455.786 222.873C455.839 223.064 454.425 220.957 452.643 218.192C449.978 214.056 449.361 213.18 449.161 213.251C448.55 213.47 444.317 215.62 442.984 216.388C438.382 219.039 433.714 222.5 430.271 225.815L429.562 226.498L432.988 231.311C434.872 233.958 436.396 236.143 436.374 236.167C436.353 236.191 434.278 234.658 431.763 232.759C429.249 230.86 427.125 229.264 427.044 229.213C426.958 229.158 426.304 229.806 425.492 230.748C422.269 234.489 419.989 237.7 417.538 241.951C416.583 243.607 415.133 246.471 415.133 246.701C415.133 246.779 417.287 248.017 419.919 249.451C422.552 250.885 424.683 252.083 424.654 252.112C424.605 252.163 414.384 250.272 413.882 250.119C413.598 250.033 413.336 250.593 412.379 253.328C411.031 257.181 409.706 262.683 409.263 266.266L409.173 266.994H434.272H459.372V262.901H459.372ZM544.135 266.335C543.695 263.126 542.643 258.449 541.646 255.27C541.128 253.619 539.784 249.928 539.701 249.928C539.634 249.928 527.146 252.286 526.91 252.343C526.781 252.374 526.674 252.38 526.674 252.355C526.674 252.331 529.224 250.925 532.339 249.231C535.455 247.538 538.004 246.117 538.004 246.075C538.004 245.936 536.504 243.094 535.611 241.542C534.064 238.852 532.298 236.238 530.263 233.626C529.198 232.258 526.101 228.642 525.868 228.494C525.771 228.432 522.815 230.615 515.768 235.954C515.37 236.256 515.097 236.409 515.161 236.295C515.225 236.181 516.947 233.737 518.987 230.864C521.027 227.991 522.696 225.581 522.696 225.509C522.696 225.436 522.149 224.901 521.482 224.319C517.456 220.811 513.073 217.781 508.534 215.367C506.325 214.192 502.835 212.57 502.655 212.634C502.593 212.657 501.047 215.016 499.22 217.878C497.393 220.74 495.844 223.139 495.778 223.21C495.712 223.281 495.718 223.125 495.792 222.863C496.096 221.788 498.918 211.417 498.937 211.307C498.996 210.963 492.795 209.233 489.112 208.566C487.72 208.313 483.785 207.75 483.413 207.749C483.279 207.749 483.245 212.948 483.245 233.279V258.808H487.223H491.202V262.901V266.994H517.714H544.225L544.135 266.335H544.135Z" fill="white"/>
<path d="M0 367.511L568.81 0H600V31.7098L31.1661 400H0V367.511Z" fill="#0E46AF"/>
<path d="M151.873 175.464C150.775 174.303 146.751 171.977 144.666 171.298C140.84 170.051 139.573 169.988 135.838 170.858C132.042 171.743 127.646 173.288 125.973 174.326C124.697 175.117 124.629 175.011 125.475 173.545C126.944 170.999 131.505 167.992 135.411 166.995C136.729 166.659 137.39 166.16 139.075 164.233C145.521 156.858 149.568 148.566 149.117 143.663C148.886 141.157 147.735 139.134 146.015 138.208C144.552 137.42 142.941 137.129 135.705 136.341C111.457 133.702 93.3469 122.586 80.0219 102.163C75.7823 95.6652 70.8598 85.6764 66.7016 75.1329C61.9186 63.0054 53.7593 54.4549 44.3776 51.7386C39.2753 50.2613 32.5215 50.1816 26.6 51.5288C25.3867 51.8049 24.2205 52.0307 24.0084 52.0307C23.2079 52.0307 25.8248 48.5741 27.7665 47.0666C30.9117 44.6248 37.1839 42.2201 42.0737 41.5814C43.4456 41.4022 44.0233 41.138 44.4927 40.4751C47.2882 36.5272 49.732 33.699 52.1727 31.5868C62.1971 22.9114 74.4107 20.9361 85.5799 26.1839C90.0254 28.2726 92.5575 30.221 101.219 38.2182C111.651 47.8494 116.186 51.3826 122.065 54.4584C125.306 56.1543 127.989 57.1323 131.33 57.8356C142.424 60.1712 154.467 66.3281 168.612 76.8965C174.039 80.9512 189.776 94.1231 203.04 105.713C214.785 115.975 214.853 116.028 219.589 118.443C234.926 126.265 251.217 133.077 271.516 140.155C282.885 144.119 283.987 144.7 284.479 146.983C284.861 148.755 283.792 150.093 277.737 155.422C270.51 161.782 267.31 163.808 255.919 169.233C253.518 170.377 249.899 170.497 247.579 169.51C244.981 168.405 241.407 165.144 238.348 161.087C233.487 154.642 229.576 150.805 219.075 142.18L211.904 136.289L209.643 136.902C203.04 138.692 193.226 139 187.371 137.602L184.636 136.948L181.368 138.981L178.101 141.013L177.967 145.813C177.863 149.503 177.641 151.184 177.006 153.077C176.046 155.936 174.037 159.845 172.354 162.131C171.706 163.009 171.242 163.772 171.321 163.826C171.4 163.879 172.541 164.267 173.857 164.687C176.626 165.57 178.639 166.743 181.479 169.127C184.627 171.77 184.645 172.082 181.585 170.962C173.017 167.827 162.464 166.982 155.352 168.862C152.912 169.507 152.811 169.466 154.238 168.414C157.995 165.642 160.433 164.586 164.034 164.17L166.017 163.941L167.346 161.42C171.099 154.302 172.416 150.264 172.416 145.878C172.416 144.245 172.309 142.443 172.178 141.874L171.94 140.838H164.719C157.997 140.838 157.516 140.878 157.757 141.418C157.899 141.737 158.111 142.986 158.229 144.194C158.699 149.023 155.748 154.274 147.745 162.847L144.368 166.465L146.504 167.717C149.006 169.184 150.424 170.658 151.738 173.159C152.801 175.181 152.879 176.527 151.873 175.464V175.464ZM254.864 163.152C255.116 162.484 247.644 154.737 242.981 150.833C237.854 146.54 233.404 143.447 227.297 139.934C223.243 137.601 221.681 137.111 221.681 138.17C221.681 138.428 223.742 139.843 226.261 141.313C232.449 144.924 236.854 147.963 241.394 151.752C245.101 154.846 249.987 159.656 252.168 162.359C253.234 163.679 254.522 164.058 254.864 163.152ZM265.923 157.676C266.134 156.725 250.581 146.984 240.892 141.999C235.087 139.012 226.199 135.205 225.032 135.205C222.777 135.205 224.548 136.391 231.192 139.331C241.079 143.705 250.763 149.082 260.674 155.7C264.633 158.344 265.688 158.741 265.923 157.676V157.676ZM268.964 151.393C269.087 150.837 264.078 147.946 254.968 143.316C246.168 138.843 228.767 131.707 227.272 131.958C226.922 132.016 226.585 132.293 226.523 132.573C226.441 132.942 227.851 133.614 231.654 135.02C241.903 138.807 254.278 144.552 264.149 150.103C267.731 152.117 268.744 152.388 268.964 151.393V151.393ZM277.793 148.113C277.793 147.562 276.529 146.904 271.041 144.599C251.201 136.265 239.208 131.767 227.783 128.374C224.524 127.407 223.919 127.314 223.458 127.716C222.654 128.416 223.145 128.784 225.965 129.592C237.067 132.771 251.532 138.163 269.805 145.932C273.466 147.489 276.762 148.769 277.128 148.777C277.55 148.786 277.793 148.543 277.793 148.113V148.113ZM202.048 124.149C205.977 123.662 207.114 123.179 206.165 122.4C205.818 122.115 204.71 122.149 201.709 122.536C195.613 123.322 177.07 123.304 171.352 122.506C161.535 121.136 154.235 119.168 145.977 115.667C136.433 111.62 129.547 107.207 120.663 99.4449C114.561 94.1128 111.097 90.2956 108.857 86.4327C106.383 82.1657 106.366 79.8625 108.804 78.9784C111.025 78.1727 111.316 77.2138 109.338 77.2162C107.912 77.2179 105.901 78.3648 105.419 79.4519C104.394 81.7597 106.29 86.7491 109.863 91.1491C115.755 98.4052 126.576 107.349 135.895 112.665C140.176 115.107 148.626 118.812 153.208 120.257C159.354 122.194 167.746 123.836 175.368 124.594C179.694 125.025 197.365 124.729 202.048 124.149L202.048 124.149ZM165.759 118.851C165.759 118.416 164.258 117.522 160.433 115.677C145.387 108.418 132.51 99.5582 126.206 92.1267C118.523 83.0693 123.113 80.2569 138.389 84.6608C148.7 87.6333 160.331 92.5568 177.552 101.239C186.723 105.863 186.814 105.9 187.14 105.159C187.475 104.399 186.867 104.029 177.85 99.4959C155.536 88.2782 140.464 82.4801 130.229 81.1765C123.613 80.3338 120.317 82.0221 120.79 86.0118C121.523 92.1967 133.375 102.825 149.971 112.178C155.401 115.239 164.488 119.632 165.188 119.535C165.502 119.491 165.759 119.184 165.759 118.851V118.851ZM190.106 117.848C190.106 117.347 188.736 116.824 182.687 115.011C163.998 109.412 153.359 104.994 143.884 98.897C137.814 94.991 133.427 90.8732 134.19 89.7973C134.901 88.7964 140.485 90.1461 147.166 92.9333C154.378 95.9421 164.709 101.382 173.532 106.816C177.211 109.082 178.503 109.5 178.503 108.425C178.503 108.029 176.91 106.864 173.843 105.018C159.929 96.6448 148.919 91.2548 141.034 88.9566C136.492 87.6328 133.993 87.4877 132.852 88.4816C130.846 90.2292 133.215 93.5455 139.788 98.1891C147.589 103.699 156.553 108.082 168.422 112.188C175.948 114.792 188.707 118.622 189.535 118.527C189.849 118.491 190.106 118.185 190.106 117.848V117.848ZM184.59 98.142C184.59 97.1019 171.993 89.6352 162.551 85.0787C149.17 78.6209 138.546 75.6962 127.146 75.3319C118.897 75.0683 114.245 75.7586 115.749 77.023C116.195 77.3981 116.749 77.424 118.586 77.1555C119.855 76.97 123.573 76.8994 126.955 76.9964C133.402 77.1813 138.065 77.914 144.455 79.7462C154.037 82.4938 167.63 88.9534 179.442 96.3722C183.315 98.8049 184.59 99.2432 184.59 98.142ZM42.7165 46.3858C44.2383 45.6763 43.1248 44.4092 40.9795 44.4092C39.6943 44.4092 38.5068 44.9639 38.5068 45.5642C38.5068 46.5765 41.1857 47.0993 42.7165 46.3858V46.3858ZM69.8916 41.0956C70.8993 40.3671 70.569 39.4436 69.1109 38.9129C65.9029 37.7453 62.2791 40.0637 65.2538 41.3806C66.2752 41.8327 69.1131 41.6584 69.8916 41.0956ZM73.6603 37.7474C72.5755 36.7033 70.1079 35.5416 68.1774 35.1662C65.2753 34.6018 62.4621 35.4967 60.9898 37.4526L60.3812 38.2611L61.9029 37.4415C63.9992 36.3125 67.7276 36.3487 71.2232 37.5319C74.334 38.585 74.5504 38.6041 73.6603 37.7474V37.7474Z" fill="black"/>
</g>
<defs>
<clipPath id="clip0_1_10945">
<rect width="600" height="400" fill="white"/>
</clipPath>
</defs>
</svg>
