<svg width="600" height="400" viewBox="0 0 600 400" fill="none" xmlns="http://www.w3.org/2000/svg" xmlns:cgf="https://coding.garden/flags"><metadata id="cgf-metadata">

<cgf:flag>
  <cgf:name>Hoeksche Waard</cgf:name>
  <cgf:route>nl/zh/hoeksche_waard</cgf:route>
  <cgf:aspect-ratio>1.5</cgf:aspect-ratio>
</cgf:flag>

</metadata><g clip-path="url(#clip0_1_10973)">
<path d="M229.967 0.0737305H33.3281V399.913H229.967V0.0737305Z" fill="#FCDD09"/>
<path d="M118.936 92.1221L61.4062 36.2627L51.2473 46.7199L108.777 102.579L118.936 92.1221Z" fill="#D90C15"/>
<path d="M62.3857 103.256L118.26 45.7417L107.8 35.5855L51.9258 93.1L62.3857 103.256Z" fill="#D90C15"/>
<path d="M215.485 91.289L157.955 35.4297L147.796 45.8869L205.326 101.746L215.485 91.289Z" fill="#D90C15"/>
<path d="M158.935 102.423L214.809 44.9087L204.349 34.7524L148.475 92.267L158.935 102.423Z" fill="#D90C15"/>
<path d="M166.288 355.898L108.758 300.039L98.5989 310.496L156.129 366.356L166.288 355.898Z" fill="#DA121A"/>
<path d="M109.737 367.033L165.611 309.519L155.151 299.362L99.2773 356.877L109.737 367.033Z" fill="#DA121A"/>
<path d="M33.0039 207.499C33.0039 185.859 33.027 175.198 33.0737 175.198C33.2772 175.198 35.3351 174.793 36.3273 174.558C41.3361 173.372 47.1613 170.889 54.3299 166.884C58.1238 164.765 60.3879 163.675 63.607 162.416C74.658 158.096 85.1744 157.643 96.0795 161.019C100.562 162.406 106.977 165.206 112.4 168.141C124.335 174.6 134.879 176.054 145.831 172.753C150.04 171.485 155.989 168.779 161.613 165.574C171.163 160.134 180.715 157.469 189.827 157.703C197.522 157.901 204.445 159.787 213.749 164.221C215.861 165.228 217.981 166.293 219.323 167.022C222.715 168.866 226.645 170.553 229.76 171.501L230.747 171.802V204.35C230.747 222.251 230.724 236.898 230.695 236.897C230.666 236.897 230.16 236.779 229.57 236.635C224.206 235.329 219.645 233.518 213.611 230.299C210.372 228.571 205.432 226.28 202.81 225.288C194.496 222.146 187.645 221.515 179.759 223.166C175.195 224.121 169.471 226.427 164.625 229.262C163.782 229.755 161.968 230.716 159.847 231.792C151.343 236.109 145.064 238.134 137.795 238.904C136.327 239.059 130.815 239.058 129.452 238.901C121.278 237.964 115.108 235.915 106.292 231.21C104.892 230.462 101.561 228.84 99.8183 228.056C93.0786 225.026 88.0258 223.69 82.3704 223.442C74.5527 223.099 66.5845 225.316 57.9188 230.245C55.5747 231.578 52.9895 232.914 50.0364 234.319C45.8125 236.329 41.8411 237.806 38.1621 238.737C36.8881 239.059 34.5038 239.549 33.6963 239.653C33.4488 239.686 33.1917 239.732 33.1251 239.757C33.0099 239.799 33.0039 238.22 33.0039 207.499L33.0039 207.499Z" fill="#033DAB"/>
<path d="M33.3287 0.0737305H0V399.913H33.3287V0.0737305Z" fill="#078930"/>
<path d="M599.917 0.0737305H229.969V399.913H599.917V0.0737305Z" fill="white"/>
<path d="M251.522 384.689C247.21 371.408 246.51 369.353 246.24 369.183C246.069 369.076 242.346 367.221 237.968 365.062L230.007 361.136L229.982 338.724L229.957 316.312L231.486 321.178C232.327 323.855 236.054 335.77 239.767 347.657L246.52 369.269L277.881 384.316C295.129 392.592 309.522 399.503 309.864 399.673L310.486 399.984L283.489 399.992L256.492 400L251.522 384.69L251.522 384.689ZM331.256 399.828C329.113 393.349 311.816 339.886 311.851 339.848C311.879 339.817 331.782 349.332 356.081 360.992C380.38 372.652 400.274 382.174 400.291 382.152C400.307 382.129 395.064 365.926 388.639 346.146C382.214 326.365 376.975 310.168 376.996 310.151C377.056 310.104 465.673 352.665 465.782 352.795C465.837 352.86 469.158 363.399 473.162 376.216C477.167 389.033 480.481 399.628 480.528 399.76C480.609 399.987 479.511 399.999 458.519 399.999H436.425L418.625 391.219C408.836 386.39 400.797 382.47 400.762 382.508C400.728 382.547 401.91 386.451 403.39 391.186C404.87 395.92 406.08 399.84 406.08 399.897C406.078 399.953 389.256 399.999 368.696 399.999C338.903 399.999 331.301 399.965 331.256 399.828V399.828ZM555.205 399.622C554.586 397.858 554.132 396.283 554.259 396.341C555.124 396.738 561.638 399.9 561.677 399.943C561.706 399.974 560.291 400 558.533 400H555.338L555.205 399.623V399.622ZM509.835 374.448C485.66 362.517 465.836 352.667 465.782 352.56C465.728 352.452 460.498 336.394 454.159 316.876C447.821 297.357 442.568 281.208 442.486 280.99C442.349 280.623 438.898 278.896 398.31 258.875C374.095 246.93 354.259 237.184 354.229 237.217C354.199 237.249 359.278 253.604 365.515 273.559C371.752 293.515 376.839 309.886 376.82 309.94C376.801 309.994 357.054 300.303 332.938 288.405C308.822 276.507 289.075 266.822 289.056 266.882C289.036 266.942 294.117 283.298 300.346 303.229C306.575 323.16 311.656 339.512 311.638 339.566C311.62 339.621 293.246 330.609 270.806 319.54L230.007 299.415L229.975 268.918L229.944 238.42L259.269 252.498C275.397 260.242 288.604 266.57 288.617 266.562C288.629 266.554 283.383 250.359 276.958 230.574C270.534 210.788 265.297 194.579 265.32 194.554C265.344 194.528 285.302 204.075 309.672 215.77C334.042 227.464 353.999 237.012 354.02 236.988C354.042 236.963 348.81 220.781 342.393 201.028C335.977 181.275 330.763 165.098 330.806 165.08C330.85 165.062 350.84 174.623 375.23 186.328L419.574 207.608L430.966 244.071L442.358 280.534L442.783 280.766C443.589 281.206 531.249 323.24 531.282 323.203C531.301 323.183 526.066 307.004 519.65 287.251C513.234 267.498 508.001 251.315 508.022 251.288C508.042 251.262 527.999 260.809 552.369 272.503C576.74 284.197 596.704 293.738 596.735 293.704C596.766 293.671 591.548 277.501 585.141 257.773C578.733 238.044 573.513 221.878 573.539 221.848C573.566 221.819 579.531 224.645 586.794 228.129L599.999 234.464V264.867C599.999 282.519 599.953 295.27 599.888 295.27C599.828 295.27 599.148 294.961 598.377 294.583C597.607 294.204 596.956 293.918 596.93 293.946C596.905 293.974 597.571 296.149 598.41 298.78L599.937 303.564L599.969 330.344C600 355.858 599.991 357.119 599.782 357.032C599.662 356.981 584.238 349.38 565.506 340.14C546.774 330.9 531.424 323.367 531.394 323.4C531.35 323.448 553.255 393.753 553.904 395.647C554.031 396.019 554.039 396.158 553.934 396.151C553.854 396.145 534.01 386.379 509.835 374.448H509.835ZM463.732 229.383C439.514 217.432 419.679 207.631 419.654 207.605C419.57 207.512 396.26 135.654 396.3 135.61C396.322 135.586 416.28 145.134 440.65 156.828C465.02 168.523 484.983 178.065 485.012 178.034C485.04 178.002 479.829 161.855 473.431 142.152C467.032 122.448 461.813 106.28 461.832 106.222C461.866 106.117 550.334 148.511 550.538 148.73C550.656 148.857 573.398 221.547 573.34 221.611C573.32 221.633 553.492 211.878 529.278 199.933C505.063 187.988 485.237 178.26 485.219 178.315C485.193 178.396 507.186 248.953 507.756 250.617C507.853 250.899 507.894 251.127 507.849 251.122C507.803 251.116 487.95 241.334 463.732 229.383V229.383ZM247.452 185.701L229.944 177.049V146.304C229.944 129.394 229.99 115.558 230.046 115.558C230.312 115.558 242.312 121.418 242.406 121.594C242.505 121.782 265.146 194.188 265.146 194.319C265.146 194.352 265.104 194.373 265.053 194.366C265.002 194.359 257.081 190.459 247.452 185.701V185.701ZM575.256 160.87C561.75 154.205 550.661 148.671 550.613 148.571C550.565 148.471 545.304 132.289 538.922 112.611C532.539 92.9334 527.256 76.7636 527.181 76.6783C527.106 76.593 507.258 66.7664 483.074 54.8413C458.89 42.9163 439.058 33.1095 439.002 33.0485C438.926 32.9641 428.223 0.19493 428.22 0.034286C428.22 0.0153936 443.666 0 462.544 0H496.87L500.327 1.65927C502.229 2.57189 503.906 3.3704 504.055 3.43379C504.31 3.54251 504.297 3.46236 503.823 2.0144C503.546 1.17037 503.292 0.371838 503.258 0.2399C503.199 0.0117977 505.033 0 540.52 0C562.751 0 577.872 0.050322 577.913 0.124492C578.026 0.324932 592.661 47.2004 592.624 47.2413C592.605 47.2616 572.779 37.507 548.566 25.5641C524.352 13.6213 504.533 3.86271 504.523 3.87836C504.478 3.9476 527.217 76.5272 527.312 76.6185C527.371 76.6748 543.539 84.4503 563.242 93.8976C582.945 103.345 599.276 111.19 599.533 111.332L599.999 111.589V142.292C599.999 159.179 599.957 172.993 599.906 172.991C599.855 172.988 588.762 167.534 575.256 160.87V160.87ZM286.433 143.134L242.353 121.384L236.148 102.272L229.943 83.1606L229.975 68.8774L230.007 54.5942L268.925 73.2695L307.842 91.9449L319.21 128.318C325.462 148.324 330.563 164.735 330.545 164.787C330.527 164.84 310.677 155.096 286.433 143.134H286.433ZM351.972 113.712C327.789 101.776 307.959 91.927 307.905 91.8245C307.765 91.5558 284.54 19.9802 284.58 19.9381C284.598 19.9188 304.568 29.4809 328.957 41.1872C353.347 52.8936 373.32 62.4545 373.343 62.4337C373.365 62.413 368.845 48.4191 363.298 31.3364C357.751 14.2537 353.213 0.214643 353.213 0.138479C353.213 0.0466058 356.042 2.22434e-05 361.618 2.22434e-05H370.023L404.317 16.4566C423.179 25.5077 438.681 32.9603 438.765 33.018C438.917 33.1216 461.707 105.841 461.618 105.939C461.593 105.967 441.767 96.2202 417.561 84.2791C393.355 72.3379 373.535 62.6076 373.515 62.6561C373.495 62.7045 378.575 79.0479 384.803 98.9745C391.031 118.901 396.127 135.257 396.127 135.32C396.127 135.383 396.085 135.43 396.034 135.424C395.982 135.418 376.155 125.648 351.972 113.712V113.712ZM596.342 58.6293C594.365 52.5425 592.774 47.5326 592.807 47.4962C592.866 47.4309 599.725 50.669 599.907 50.848C599.959 50.8991 599.986 55.1609 599.969 60.3186L599.937 69.6964L596.342 58.6293H596.342ZM264.338 9.92876C253.46 4.54976 244.504 0.120179 244.436 0.0852102C244.367 0.0502243 251.956 0.0168227 261.299 0.0108459L278.287 5.78329e-05L281.314 9.69848C282.979 15.0326 284.366 19.474 284.397 19.5682C284.428 19.6625 284.377 19.7327 284.284 19.7242C284.191 19.7156 275.216 15.3078 264.338 9.92881V9.92876Z" fill="#033DAB"/>
</g>
<defs>
<clipPath id="clip0_1_10973">
<rect width="600" height="400" fill="white"/>
</clipPath>
</defs>
</svg>
