<svg width="600" height="400" viewBox="0 0 600 400" fill="none" xmlns="http://www.w3.org/2000/svg" xmlns:cgf="https://coding.garden/flags"><metadata id="cgf-metadata">

<cgf:flag>
  <cgf:name>Kaag en Braassem</cgf:name>
  <cgf:route>nl/zh/kaag_en_braassem</cgf:route>
  <cgf:aspect-ratio>1.5</cgf:aspect-ratio>
</cgf:flag>

</metadata><g clip-path="url(#clip0_1_10986)">
<path d="M0.225586 -0.983887V402.258H601.224L600.783 -0.983887H0.225586V-0.983887Z" fill="white"/>
<path d="M89.5801 103.406L168.451 138.805L200.421 125.411L120.414 94.7949L89.5801 103.406V103.406Z" fill="#864689"/>
<path d="M194.741 139.283L212.755 147.416L224.439 140.24L208.211 132.746L194.741 139.283Z" fill="#6DB824"/>
<path d="M212.349 129.876L230.362 138.008L242.047 130.832L225.818 123.338L212.349 129.876Z" fill="#6DB824"/>
<path d="M217.056 148.692L235.069 156.824L246.754 149.648L230.525 142.154L217.056 148.692Z" fill="#6DB824"/>
<path d="M234.095 138.965L252.108 147.097L263.793 139.921L247.564 132.427L234.095 138.965Z" fill="#6DB824"/>
<path d="M229.551 121.263L246.383 128.6L257.302 122.126L242.137 115.365L229.551 121.263V121.263Z" fill="#6DB824"/>
<path d="M251.135 129.475L267.967 136.812L278.886 130.339L263.721 123.577L251.135 129.475V129.475Z" fill="#6DB824"/>
<path d="M244.481 113.457L261.314 119.909L272.232 114.216L257.068 108.269L244.481 113.457Z" fill="#6DB824"/>
<path d="M266.877 121.11L283.709 127.563L294.628 121.87L279.463 115.923L266.877 121.11V121.11Z" fill="#6DB824"/>
<path d="M259.412 106.598L274.67 112.256L284.566 107.264L270.821 102.05L259.412 106.598V106.598Z" fill="#6DB824"/>
<path d="M280.509 112.737L295.766 118.395L305.663 113.403L291.918 108.189L280.509 112.737V112.737Z" fill="#6DB824"/>
<path d="M140.863 136.094L178.351 156.983C164.714 157.714 152.562 156.398 142.202 158.045C133.719 159.394 128.106 167.159 123.174 178.351C118.391 189.256 97.3959 201.028 86.335 201.472L52.9043 172.132C66.5705 173.433 78.5041 165.371 89.5807 152.678C103.097 139.495 119.57 132.306 140.863 136.094V136.094Z" fill="#B491C4"/>
<path d="M201.72 154.113L162.122 176.437L244.238 224.115L282.7 191.586L201.72 154.113V154.113Z" fill="#6DB824"/>
<path d="M313.27 246.952L441.411 306.55L493.353 284L363.366 232.456L313.27 246.952V246.952Z" fill="#C7EB54"/>
<path d="M484.125 307.355L513.392 321.047L532.376 308.966L506.009 296.349L484.125 307.355V307.355Z" fill="#C7EB54"/>
<path d="M512.732 291.517L541.999 305.208L560.983 293.127L534.617 280.51L512.732 291.517Z" fill="#C7EB54"/>
<path d="M520.379 323.194L549.646 336.886L568.63 324.805L542.263 312.188L520.379 323.194Z" fill="#C7EB54"/>
<path d="M548.063 306.818L577.33 320.51L596.314 308.429L569.948 295.812L548.063 306.818V306.818Z" fill="#C7EB54"/>
<path d="M540.681 277.016L568.028 289.368L585.768 278.47L561.13 267.086L540.681 277.016V277.016Z" fill="#C7EB54"/>
<path d="M575.748 290.842L603.096 303.194L620.835 292.295L596.197 280.912L575.748 290.842V290.842Z" fill="#C7EB54"/>
<path d="M564.938 263.874L592.286 274.738L610.025 265.152L585.388 255.14L564.938 263.874Z" fill="#C7EB54"/>
<path d="M589.195 252.327L613.984 261.852L630.063 253.448L607.731 244.67L589.195 252.327Z" fill="#C7EB54"/>
<path d="M396.587 301.986L457.494 337.154C435.339 338.385 415.595 336.168 398.763 338.942C384.98 341.213 375.861 354.286 367.848 373.128C360.077 391.487 325.966 411.307 307.996 412.054L253.681 362.658C275.884 364.849 295.273 351.276 313.269 329.906C335.229 307.712 361.992 295.608 396.587 301.986V301.986Z" fill="#C7EB54"/>
<path d="M492.591 330.873L428.63 368.293L561.271 448.213L623.398 393.686L492.591 330.873Z" fill="#C7EB54"/>
<path d="M412.191 367.474H-0.000976562V401.751H412.191V367.474Z" fill="#6DB824"/>
<path d="M605.435 367.474H411.732V401.751H605.435V367.474Z" fill="#864689"/>
</g>
<defs>
<clipPath id="clip0_1_10986">
<rect width="600" height="400" fill="white"/>
</clipPath>
</defs>
</svg>
