<svg width="600" height="400" viewBox="0 0 600 400" fill="none" xmlns="http://www.w3.org/2000/svg" xmlns:cgf="https://coding.garden/flags"><metadata id="cgf-metadata">

<cgf:flag>
  <cgf:name>Krimpen aan den IJssel</cgf:name>
  <cgf:route>nl/zh/krimpen_aan_den_ijssel</cgf:route>
  <cgf:aspect-ratio>1.5</cgf:aspect-ratio>
</cgf:flag>

</metadata><g clip-path="url(#clip0_1_11021)">
<path d="M-0.00861816 -1.88135L-0.860352 199.357H604.73V-1.88135H-0.00861816V-1.88135Z" fill="#D40000"/>
<path d="M-0.0886929 199.448L-0.94043 401.89H604.65V199.448H-0.0886929V199.448Z" fill="#043AA4"/>
<path d="M168.408 -2.93945L604.615 131.68L604.966 273.73L167.758 403.741L-0.845895 403.534L-0.991211 -2.23428L168.408 -2.93945Z" fill="white"/>
<path d="M-0.391377 175.249L575.462 174.448L-0.494141 -1.29395L-0.39134 175.249H-0.391377Z" fill="black"/>
<path d="M0.802959 226.394L576.656 227.194L0.700195 402.937L0.802996 226.394H0.802959Z" fill="black"/>
<path d="M63.3672 126.587V220.29C67.4944 256.626 110.622 278.23 138.779 305.489C166.783 277.354 216.595 256.427 217.525 219.344L217.048 126.113L63.3672 126.587V126.587Z" fill="white"/>
<path d="M72.3516 133.762V218.032C76.0138 250.71 114.283 270.139 139.267 294.654C164.116 269.351 208.315 250.531 209.141 217.181L208.718 133.336L72.3516 133.762V133.762Z" stroke="black"/>
<path d="M131.641 150.786C110.693 145.881 88.5133 151.061 85.4797 175.046C83.5656 194.531 103.828 212.229 130.37 204.413C87.2618 200.762 91.2706 150.876 131.641 150.786Z" fill="black"/>
<path d="M195.593 151.081C174.645 146.176 152.465 151.356 149.432 175.341C147.518 194.825 167.78 212.524 194.323 204.708C151.214 201.057 155.223 151.171 195.593 151.081Z" fill="black"/>
<path d="M160.856 214.281C139.907 209.376 117.728 214.556 114.695 238.541C112.78 258.026 133.043 275.724 159.585 267.908C116.477 264.257 120.485 214.371 160.856 214.281V214.281Z" fill="black"/>
</g>
<defs>
<clipPath id="clip0_1_11021">
<rect width="600" height="400" fill="white"/>
</clipPath>
</defs>
</svg>
