<svg width="600" height="400" viewBox="0 0 600 400" fill="none" xmlns="http://www.w3.org/2000/svg" xmlns:cgf="https://coding.garden/flags"><metadata id="cgf-metadata">

<cgf:flag>
  <cgf:name>Leidschendam_voorburg</cgf:name>
  <cgf:route>nl/zh/leidschendam_voorburg</cgf:route>
  <cgf:aspect-ratio>1.5</cgf:aspect-ratio>
</cgf:flag>

</metadata><g clip-path="url(#clip0_1_11064)">
<path d="M-5.39072 -3.62451L-6.25195 405.425H606.092V-3.62451H-5.39072V-3.62451Z" fill="white"/>
<path d="M-5.7753 162.884L-6.38867 243.714C6.49185 241.212 19.3724 247.901 32.2529 253.969C58.6273 267.42 85.0017 270.007 111.376 252.159C129.647 237.758 156.764 238.479 181.299 251.556C208.696 268.392 236.092 269.702 263.489 252.763C284.989 239.13 312.533 237.615 337.092 252.763C363.671 268.641 390.25 268.855 416.829 253.366C442.181 236.621 467.533 238.562 492.885 253.969C517.419 269.564 541.954 266.624 566.488 255.779C579.046 249.811 592.385 243.71 605.743 241.301L605.13 163.487C591.022 162.445 576.915 167.161 562.808 174.948C543.221 185.393 521.413 189.482 492.885 174.345C464.627 157.009 438.135 157.905 413.148 174.345C389.227 187.414 365.306 187.213 341.386 173.742C314.398 157.238 287.41 158.078 260.422 173.742C229.898 190.341 205.135 183.649 181.912 170.725C156.353 158.849 128.772 158.674 112.603 170.122C85.6151 189.061 58.6273 188.164 31.6396 172.535C20.2659 166.888 8.80001 161.446 -5.7753 162.884Z" fill="#003ED8"/>
<path d="M188.505 26.354H178.998V44.4504H188.505V26.354Z" fill="#D40000"/>
<path d="M209.206 26.354H199.699V44.4504H209.206V26.354Z" fill="#D40000"/>
<path d="M227.76 26.354H218.253V44.4504H227.76V26.354Z" fill="#D40000"/>
<path d="M245.701 26.354H236.194V44.4504H245.701V26.354Z" fill="#D40000"/>
<path d="M265.328 26.354H255.821V44.4504H265.328V26.354Z" fill="#D40000"/>
<path d="M265.328 37.4438H178.998V45.5586H265.328V37.4438Z" fill="#D40000"/>
<path d="M179.151 45.2568C182.885 47.908 187.036 52.1632 188.352 59.8848C189.334 70.5381 189.286 81.4207 186.257 91.8448C180.779 110.699 175.47 129.553 171.484 148.406L211.199 148.105L211.046 122.468C211.516 116.518 228.99 111.463 235.274 122.317L235.427 148.406L272.995 147.954C269.652 129.395 264.693 110.837 258.422 92.278C254.872 81.7718 254.925 70.582 255.821 59.734C256.442 53.3239 259.81 47.631 265.175 45.4076L179.151 45.2568Z" fill="#D40000"/>
<path d="M201.692 94.8711H194.332V101.808H201.692V94.8711Z" fill="black" fill-opacity="0.386047"/>
<path d="M250.302 94.8716H242.941V101.809H250.302V94.8716Z" fill="black" fill-opacity="0.386047"/>
<path d="M214.727 68.7822H207.06V77.9812H214.727V68.7822Z" fill="black" fill-opacity="0.386047"/>
<path d="M238.954 68.707H231.287V77.906H238.954V68.707Z" fill="black" fill-opacity="0.386047"/>
<path d="M186.083 52.9057C189.726 52.8097 194.129 54.7327 193.348 60.3701C194.133 63.7081 197.501 63.5257 198.877 60.9033C198.828 48.9212 211.064 52.8179 210.262 60.7966C211.675 63.1419 214.671 63.0467 215.901 60.7966C213.767 48.5466 233.295 52.0176 230.647 60.9033C232.581 63.8273 235.745 62.774 236.393 60.7966C234.767 49.0529 249.158 51.9748 247.453 60.69C247.385 63.6898 251.261 63.5875 251.465 60.69C249.966 55.8778 252.024 52.1914 257.754 52.9057" stroke="#A3240A"/>
<path d="M179.035 44.9084L264.693 44.8018" stroke="#A3240A"/>
<path d="M277.631 333.674C277.635 340.482 276.259 347.224 273.582 353.515C270.904 359.806 266.978 365.522 262.028 370.338C257.077 375.153 251.199 378.973 244.729 381.579C238.259 384.186 231.325 385.527 224.321 385.527C217.318 385.527 210.384 384.186 203.914 381.579C197.444 378.973 191.566 375.153 186.615 370.338C181.664 365.522 177.738 359.806 175.061 353.515C172.384 347.224 171.008 340.482 171.012 333.674C171.008 326.866 172.384 320.123 175.061 313.832C177.738 307.541 181.664 301.825 186.615 297.01C191.566 292.194 197.444 288.374 203.914 285.768C210.384 283.162 217.318 281.82 224.321 281.82C231.325 281.82 238.259 283.162 244.729 285.768C251.199 288.374 257.077 292.194 262.028 297.01C266.978 301.825 270.904 307.541 273.582 313.832C276.259 320.123 277.635 326.866 277.631 333.674Z" fill="black"/>
<path d="M261.404 316.825C261.407 321.728 260.439 326.584 258.557 331.114C256.675 335.645 253.914 339.762 250.434 343.23C246.953 346.697 242.821 349.448 238.272 351.325C233.724 353.202 228.848 354.168 223.925 354.168C219.001 354.168 214.126 353.202 209.577 351.325C205.028 349.448 200.896 346.697 197.415 343.23C193.935 339.762 191.174 335.645 189.292 331.114C187.41 326.584 186.443 321.728 186.445 316.825C186.443 311.922 187.41 307.067 189.292 302.536C191.174 298.006 193.935 293.889 197.415 290.421C200.896 286.953 205.028 284.202 209.577 282.325C214.126 280.448 219.001 279.482 223.925 279.482C228.848 279.482 233.724 280.448 238.272 282.325C242.821 284.202 246.953 286.953 250.434 290.421C253.914 293.889 256.675 298.006 258.557 302.536C260.439 307.067 261.407 311.922 261.404 316.825Z" fill="white"/>
</g>
<defs>
<clipPath id="clip0_1_11064">
<rect width="600" height="400" fill="white"/>
</clipPath>
</defs>
</svg>
