<svg width="600" height="400" viewBox="0 0 600 400" fill="none" xmlns="http://www.w3.org/2000/svg" xmlns:cgf="https://coding.garden/flags"><metadata id="cgf-metadata">

<cgf:flag>
  <cgf:name>Leiderdorp</cgf:name>
  <cgf:route>nl/zh/leiderdorp</cgf:route>
  <cgf:aspect-ratio>1.5</cgf:aspect-ratio>
</cgf:flag>

</metadata><g clip-path="url(#clip0_1_11051)">
<path d="M-0.453125 -1.18994V402.482H602.324V-1.18994H-0.453125V-1.18994Z" fill="white"/>
<path d="M132.808 23.0763L131.313 24.874L142.082 37.7577L131.612 46.4468L142.98 58.132L148.664 53.3381L152.553 57.5328L147.467 62.6263L153.451 68.3191L148.963 72.8135L143.279 66.5214L137.894 72.364L133.556 68.0195L138.792 62.9259L127.723 50.0422L103.191 71.9146L116.355 87.1953L126.227 77.6074L131.013 82.1017L121.44 91.6896L132.808 105.772L143.279 96.1839L147.467 100.978L137.894 110.566L149.861 124.049L173.345 102.925L161.528 90.4911L166.614 85.6972L177.683 98.5809L186.957 89.8919L372.733 313.136L379.502 314.407L378.867 320.975L384.79 320.339L384.579 326.695L388.598 331.356C341.045 356.942 396.346 414.297 429.848 383.263L420.964 375C408.063 384.508 370.087 371.831 393.887 344.068C405.764 340.243 412.213 344.574 418.637 348.941C409.959 296.226 463.732 304.685 450.579 351.271C432.546 353.637 427.785 365.023 420.329 374.576L430.271 383.687C440.732 376.578 454.878 365.064 465.598 349.365C477.597 316.993 436.202 277.425 409.541 313.136L405.098 308.475L399.81 309.322L400.444 300.636H393.04L393.464 294.492L142.382 15.8854L140.587 17.5333C136.493 2.99899 119.42 24.0626 132.808 23.0763Z" fill="#FF0033"/>
<path d="M421.651 374.312C420.911 375.614 420.023 376.379 418.584 377.542L427.786 383.898C428.782 383.096 429.623 382.758 430.483 382.362L421.651 374.312Z" fill="#FF0033"/>
<path d="M462.346 24.1446L463.842 25.9424L453.072 38.8261L463.543 47.5151L452.174 59.2004L446.49 54.4064L442.601 58.6011L447.687 63.6947L441.704 69.3875L446.191 73.8818L451.875 67.5898L457.26 73.4324L461.598 69.0879L456.363 63.9943L467.432 51.1106L491.963 72.983L478.8 88.2637L468.928 78.6758L464.141 83.1701L473.714 92.758L462.346 106.84L451.875 97.2523L447.687 102.046L457.26 111.634L445.294 125.117L421.81 103.994L433.626 91.5595L428.541 86.7655L417.472 99.6493L408.198 90.9602L222.422 314.204L215.652 315.475L216.287 322.043L210.364 321.407L210.576 327.763L206.556 332.424C254.109 358.01 198.809 415.365 165.306 384.331L174.191 376.068C187.091 385.577 225.067 372.899 201.268 345.136C189.391 341.311 182.942 345.642 176.518 350.009C185.196 297.294 131.423 305.753 144.575 352.34C162.608 354.705 167.369 366.091 174.825 375.645L164.883 384.755C154.423 377.646 140.277 366.132 129.556 350.433C117.557 318.062 158.953 278.494 185.614 314.204L190.056 309.543L195.345 310.391L194.71 301.704H202.114L201.691 295.56L452.773 16.9537L454.568 18.6016C458.661 4.06735 475.734 25.131 462.346 24.1446V24.1446Z" fill="#FF0033"/>
<path d="M173.503 375.38C174.243 376.683 175.131 377.448 176.57 378.611L167.368 384.967C166.372 384.164 165.531 383.826 164.671 383.431L173.503 375.38Z" fill="#FF0033"/>
<path d="M-0.635742 181.279C10.733 179.009 19.4175 179.396 39.9039 168.097C62.8966 158.533 85.8892 159.287 108.882 170.494C138.948 185.992 166.344 188.928 189.961 174.089C210.195 155.173 236.116 158.783 264.385 171.692C291.209 188.273 318.034 187.662 344.859 172.291C364.846 161.545 386.774 154.643 421.098 172.291C448.946 188.594 473.871 180.293 498.547 169.895C521.943 157.113 546.145 157.113 571.155 169.895C581.897 175.332 592.715 180.542 605.039 181.279L605.644 243.593C593.744 244.959 581.845 239.959 569.945 233.407C550.434 225.38 531.012 217.217 497.336 231.01C471.722 247.671 446.107 246.669 420.493 234.605C387.09 218.085 363.794 220.468 344.859 231.01C317.429 251.21 289.999 246.409 262.57 231.609C237.837 217.755 214.299 221.632 191.171 231.609C165.454 244.065 139.232 248.025 111.907 233.407C88.7294 222.075 65.0616 215.11 38.6938 232.209C27.0381 241.884 14.2406 246.472 -0.635742 241.795V181.279V181.279Z" fill="#0066FF"/>
</g>
<defs>
<clipPath id="clip0_1_11051">
<rect width="600" height="400" fill="white"/>
</clipPath>
</defs>
</svg>
