<svg width="600" height="400" viewBox="0 0 600 400" fill="none" xmlns="http://www.w3.org/2000/svg" xmlns:cgf="https://coding.garden/flags"><metadata id="cgf-metadata">

<cgf:flag>
  <cgf:name>Leiden</cgf:name>
  <cgf:route>nl/zh/leiden</cgf:route>
  <cgf:aspect-ratio>1.5</cgf:aspect-ratio>
</cgf:flag>

</metadata><g clip-path="url(#clip0_1_11044)">
<path d="M600 0H0V400H600V0Z" fill="#ED2024"/>
<path d="M600 133.333H0V266.667H600V133.333Z" fill="white"/>
<path d="M200 300C255.228 300 300 255.228 300 200C300 144.772 255.228 100 200 100C144.772 100 100 144.772 100 200C100 255.228 144.772 300 200 300Z" fill="#ED2024"/>
<path d="M200 292C250.81 292 292 250.81 292 200C292 149.19 250.81 108 200 108C149.19 108 108 149.19 108 200C108 250.81 149.19 292 200 292Z" fill="white"/>
<path d="M160.942 252.583C166.18 255.552 171.917 256.804 176.536 255C184.54 251.875 187.333 242.418 181.281 236.367L169.077 236.198L167.025 234.144C164.99 234.144 165.106 221.267 165.093 221.267C159.257 218.755 154.832 218.463 150.09 223.038C140.809 231.992 149.728 246.223 160.942 252.583V252.583ZM187.481 223.228V228.055L192.76 233.334L194.569 238.764V249.624C189.288 262.117 180.285 266.668 167.316 266.667C160.486 266.665 158.374 264.711 153.581 259.917L150.829 262.671C147.149 262.665 143.173 262.497 140.944 259.207C139.897 257.663 139.278 255.615 139.601 253.775C139.685 253.3 142.362 248.603 142.684 249.019C134.258 238.072 132.09 226.103 142.984 215.636C146.802 211.967 151.144 208.613 156.577 207.975C159.87 207.59 162.508 207.186 165.273 209.419C166.169 210.142 168.572 213.687 169.532 213.687H177.941L187.858 203.77V196.002L200 182.657L249.321 133.334L255.204 139.217L252.489 141.931L259.428 148.87L256.712 151.584L260.785 155.656L265.461 150.982L273.002 158.523L274.209 159.73L267.572 166.366L263.197 161.992L258.524 166.667L262.897 171.042L257.92 176.019L253.546 171.644L249.322 175.867L253.697 180.242L247.965 185.973L240.724 178.734L243.138 176.32L238.916 172.098L235.748 175.264L231.524 171.042L217.949 184.616V190.196L212.142 196.003L200 210.711L187.481 223.228ZM138.128 258.205L140.236 253.921L138.128 258.205ZM140.252 253.888L142.606 249.107L140.252 253.888Z" fill="#ED2024"/>
<path d="M239.058 252.583C233.82 255.552 228.083 256.804 223.464 255C215.46 251.875 212.667 242.418 218.719 236.367L230.923 236.198L232.975 234.144C235.01 234.144 234.894 221.267 234.907 221.267C240.743 218.755 245.168 218.463 249.91 223.038C259.191 231.992 250.272 246.223 239.058 252.583V252.583ZM212.519 223.228V228.055L207.24 233.334L205.431 238.764V249.624C210.712 262.117 219.715 266.668 232.684 266.667C239.514 266.665 241.626 264.711 246.419 259.917L249.171 262.671C252.851 262.665 256.827 262.497 259.056 259.207C260.103 257.663 260.722 255.615 260.399 253.775C260.315 253.3 257.638 248.603 257.316 249.019C265.742 238.072 267.91 226.103 257.016 215.636C253.198 211.967 248.856 208.613 243.423 207.975C240.13 207.59 237.492 207.186 234.727 209.419C233.831 210.142 231.428 213.687 230.468 213.687H222.059L212.142 203.77V196.002L200 182.657L150.679 133.334L144.796 139.217L147.511 141.931L140.572 148.87L143.288 151.584L139.215 155.656L134.539 150.982L126.998 158.523L125.791 159.73L132.428 166.366L136.803 161.992L141.476 166.667L137.103 171.042L142.08 176.019L146.454 171.644L150.678 175.867L146.303 180.242L152.035 185.973L159.276 178.734L156.862 176.32L161.084 172.098L164.252 175.264L168.476 171.042L182.051 184.616V190.196L187.858 196.003L200 210.711L212.519 223.228ZM261.872 258.205L259.764 253.921L261.872 258.205ZM259.748 253.888L257.394 249.107L259.748 253.888Z" fill="#ED2024"/>
</g>
<defs>
<clipPath id="clip0_1_11044">
<rect width="600" height="400" fill="white"/>
</clipPath>
</defs>
</svg>
