<svg width="600" height="400" viewBox="0 0 600 400" fill="none" xmlns="http://www.w3.org/2000/svg" xmlns:cgf="https://coding.garden/flags"><metadata id="cgf-metadata">

<cgf:flag>
  <cgf:name>Midden-Delfland</cgf:name>
  <cgf:route>nl/zh/midden_delfland</cgf:route>
  <cgf:aspect-ratio>1.5</cgf:aspect-ratio>
</cgf:flag>

</metadata><g clip-path="url(#clip0_1_11082)">
<path d="M600 0H0V400H600V0Z" fill="#0F47AF"/>
<path d="M-2.0957 207.861V402.266H601.907V207.861H-2.0957V207.861Z" fill="#078930"/>
<path d="M-2.82153 341.582L150.979 267.588L306.022 341.706L459.331 267.236L608.878 347.094V378.652L459.07 301.01L303.599 374.133L150.979 301.01L-3.24414 373.069L-2.82153 341.582Z" fill="#F9F9F9"/>
<path d="M255.086 183.427L243.66 210.459L255.086 244.12C270.335 244.297 280.225 239.65 289.409 234.281C305.169 224.706 316.836 223.663 326.209 223.302L332.199 190.677L326.209 160.433C314.721 160.284 303.59 165.264 293.846 171.309C281.322 179.229 268.983 183.06 255.086 183.427V183.427Z" fill="white"/>
<path d="M397.379 183.435L408.805 210.468L397.379 244.129C382.13 244.305 372.24 239.659 363.056 234.29C347.296 224.715 335.629 223.671 326.256 223.311L320.266 190.686L326.256 160.442C337.744 160.292 348.875 165.273 358.618 171.317C371.143 179.238 383.482 183.069 397.379 183.435V183.435Z" fill="white"/>
<path d="M397.316 183.449L385.891 210.481L397.316 244.142C412.565 244.319 422.455 239.672 431.639 234.303C447.4 224.728 459.067 223.685 468.44 223.324L474.43 190.699L468.44 160.455C456.952 160.306 445.82 165.286 436.077 171.331C423.553 179.251 411.213 183.082 397.316 183.449V183.449Z" fill="white"/>
<path d="M539.61 183.458L551.035 210.49L539.61 244.152C524.361 244.328 514.471 239.681 505.286 234.312C489.526 224.738 477.859 223.694 468.486 223.334L462.496 190.708L468.486 160.465C479.974 160.315 491.106 165.296 500.849 171.34C513.373 179.261 525.713 183.091 539.61 183.458V183.458Z" fill="white"/>
<path d="M255.053 183.43L266.479 210.463L255.053 244.124C239.804 244.3 229.914 239.654 220.73 234.284C204.97 224.71 193.303 223.666 183.93 223.306L177.939 190.68L183.93 160.437C195.417 160.287 206.549 165.268 216.292 171.312C228.817 179.233 241.156 183.064 255.053 183.43V183.43Z" fill="white"/>
<path d="M112.759 183.439L101.334 210.472L112.759 244.133C128.009 244.309 137.898 239.663 147.083 234.294C162.843 224.719 174.51 223.675 183.883 223.315L189.873 190.69L183.883 160.446C172.395 160.296 161.264 165.277 151.52 171.321C138.996 179.242 126.657 183.073 112.759 183.439V183.439Z" fill="white"/>
<path d="M112.823 183.453L124.248 210.485L112.823 244.146C97.5734 244.323 87.6837 239.676 78.4994 234.307C62.7393 224.732 51.0721 223.689 41.6992 223.328L35.709 190.703L41.6992 160.459C53.1869 160.309 64.3185 165.29 74.0618 171.335C86.5862 179.255 98.9255 183.086 112.823 183.453V183.453Z" fill="white"/>
<path d="M539.761 183.477L528.336 210.51L539.761 244.171C555.011 244.347 564.9 239.701 574.085 234.332C589.845 224.757 601.512 223.713 610.885 223.353L616.875 190.728L610.885 160.484C599.397 160.334 588.266 165.315 578.522 171.359C565.998 179.28 553.659 183.111 539.761 183.477V183.477Z" fill="white"/>
<path d="M-29.5296 183.435L-40.9551 210.468L-29.5296 244.129C-14.2804 244.305 -4.39062 239.659 4.79369 234.29C20.5538 224.715 32.221 223.671 41.5939 223.311L47.5841 190.686L41.5939 160.442C30.1062 160.292 18.9746 165.273 9.23123 171.317C-3.29313 179.238 -15.6325 183.069 -29.5296 183.435V183.435Z" fill="white"/>
<path d="M173.053 126.378L192.725 168.831L197.784 168.559L200.313 174.273C228.035 190.947 256.094 189.277 284.344 177.267C289.934 173.006 295.949 169.978 299.52 159.85L311.886 145.155L309.638 144.339L297.272 156.313C291.078 159.996 285.006 163.827 276.756 165.021L274.789 133.997L285.749 135.358C288.028 126.922 290.49 118.486 281.815 110.05L272.259 107.328L270.011 61.3374C272.728 60.7305 275.445 63.0298 278.161 64.8752C276.224 60.0233 273.612 55.9068 267.482 55.6226L268.044 106.512L258.77 103.518C262.618 112.589 267.625 121.661 259.894 130.732L269.73 133.181V165.565C263.715 166.725 257.845 168.027 249.776 167.198L247.528 132.909L256.802 133.997C261.608 124.466 262.547 115.87 255.397 109.233L244.999 105.695L244.156 59.4325C248.167 58.6241 251.617 61.076 255.116 63.2423C252.949 56.2909 247.441 54.8855 241.626 53.9897L242.188 104.607L230.947 101.886C234.692 110.775 238.761 119.665 230.104 128.555L242.75 131.276V166.654C235.637 165.599 229.724 166.039 219.143 160.667L218.862 133.181L225.888 135.358C229.293 126.65 233.13 117.941 225.607 109.233L214.646 105.423L214.084 71.4064C216.745 68.1436 218.648 72.2064 220.829 73.5834C218.676 65.1437 214.314 65.2562 210.712 62.4259L211.555 104.879L199.189 100.797C204.295 109.315 207.357 117.957 200.594 127.194L212.398 131.548L212.96 157.945C205.185 154.193 197.409 153.235 189.634 153.047L185.699 143.25C195.172 148.493 200.967 144.831 207.621 143.25L199.189 128.01C196.689 131.059 187.68 127.884 178.043 125.75C176.224 125.347 174.924 126.819 173.053 126.378V126.378Z" fill="#FCDD0A"/>
</g>
<defs>
<clipPath id="clip0_1_11082">
<rect width="600" height="400" fill="white"/>
</clipPath>
</defs>
</svg>
