<svg width="600" height="400" viewBox="0 0 600 400" fill="none" xmlns="http://www.w3.org/2000/svg" xmlns:cgf="https://coding.garden/flags"><metadata id="cgf-metadata">

<cgf:flag>
  <cgf:name>Molenlanden</cgf:name>
  <cgf:route>nl/zh/molenlanden</cgf:route>
  <cgf:aspect-ratio>1.5</cgf:aspect-ratio>
</cgf:flag>

</metadata><g clip-path="url(#clip0_3_11560)">
<rect width="600" height="400" fill="white"/>
<path d="M91.8071 318.811C92.4139 317.597 93.2412 315.953 94.2911 313.883C96.6894 309.146 99.0635 304.397 101.413 299.636C102.609 297.218 103.81 294.802 105.016 292.39C106.617 289.193 108.259 286.018 109.944 282.866C110.442 281.982 111.089 281.154 111.891 280.382C112.691 279.609 113.947 279.223 115.66 279.223C116.764 279.223 117.606 279.361 118.186 279.636C118.765 279.913 119.164 280.134 119.387 280.3C119.937 289.797 120.477 299.098 121.002 308.209C121.527 317.318 122.037 326.594 122.534 336.035H117.069C116.958 334.269 116.834 332.033 116.695 329.326L116.239 320.423C115.896 313.796 115.524 307.17 115.122 300.545C114.943 297.62 114.777 294.693 114.625 291.766C114.516 289.599 114.391 287.432 114.251 285.266L112.347 289.074C111.406 290.952 110.304 293.148 109.033 295.659C107.763 298.173 106.396 300.864 104.935 303.735C103.471 306.605 102.064 309.366 100.71 312.016C99.4896 314.408 98.2612 316.796 97.0249 319.18C96.1987 320.755 95.3978 322.342 94.6228 323.942H88.7436C88.2481 322.949 87.5426 321.555 86.6313 319.76C85.72 317.967 84.6848 315.924 83.5258 313.633C82.2903 311.193 81.0621 308.75 79.8409 306.303C78.5597 303.74 77.2621 301.186 75.9479 298.641C73.6974 294.279 71.4199 289.931 69.1154 285.597C68.8949 289.52 68.6724 293.618 68.4519 297.895C68.2314 302.175 67.9963 306.481 67.7485 310.815C67.501 315.121 67.2666 319.427 67.0452 323.734C66.8331 327.833 66.64 331.932 66.4656 336.033L61 336.033C61.4409 327.31 61.9113 318.462 62.4089 309.49C62.9065 300.518 63.4021 291.67 63.8997 282.945C64.0089 281.786 64.4645 280.875 65.2666 280.214C66.0154 279.57 66.971 279.217 67.9585 279.22C69.2288 279.22 70.222 279.414 70.9401 279.8C71.6582 280.186 72.2104 280.602 72.5968 281.043C72.8172 281.429 73.3548 282.45 74.2114 284.106C75.066 285.763 76.1012 287.779 77.3169 290.152C78.6397 292.74 79.9506 295.335 81.2497 297.935C82.6191 300.674 83.9995 303.407 85.3904 306.135C86.6428 308.587 87.885 311.044 89.1174 313.507C90.247 315.774 91.1457 317.54 91.8071 318.811ZM176.197 315.581C176.197 318.563 175.645 321.366 174.54 323.986C173.472 326.556 171.91 328.89 169.944 330.859C167.983 332.82 165.65 334.365 162.946 335.497C160.239 336.629 157.285 337.196 154.085 337.196C150.883 337.196 147.928 336.629 145.224 335.497C142.608 334.427 140.23 332.851 138.226 330.859C136.259 328.891 134.697 326.556 133.629 323.986C132.517 321.325 131.954 318.466 131.973 315.581C131.973 312.545 132.523 309.715 133.629 307.092C134.698 304.522 136.259 302.187 138.226 300.218C140.226 298.231 142.606 296.668 145.224 295.621C147.928 294.517 150.883 293.965 154.085 293.965C157.287 293.965 160.239 294.517 162.946 295.621C165.65 296.728 167.983 298.259 169.944 300.218C171.91 302.188 173.471 304.523 174.54 307.092C175.645 309.715 176.197 312.545 176.197 315.581ZM170.318 315.581C170.335 313.308 169.943 311.049 169.159 308.915C168.423 306.906 167.297 305.063 165.845 303.491C164.406 301.943 162.657 300.716 160.712 299.888C158.723 299.033 156.514 298.605 154.087 298.605C151.658 298.605 149.449 299.033 147.462 299.888C145.517 300.715 143.767 301.942 142.328 303.491C140.877 305.062 139.75 306.906 139.015 308.915C138.23 311.049 137.838 313.308 137.856 315.581C137.856 317.899 138.255 320.096 139.057 322.166C139.807 324.156 140.932 325.984 142.37 327.55C143.804 329.087 145.538 330.313 147.464 331.153C149.453 332.037 151.66 332.478 154.089 332.478C156.518 332.478 158.727 332.037 160.714 331.153C162.649 330.308 164.395 329.082 165.847 327.55C167.303 325.997 168.43 324.165 169.161 322.166C169.937 320.058 170.329 317.828 170.318 315.581M185.224 277.816C185.224 276.988 185.459 276.312 185.927 275.787C186.395 275.262 187.155 275 188.205 275C188.703 275 189.186 275.069 189.654 275.208C190.122 275.346 190.469 275.47 190.689 275.582V336.039H185.224V277.816M205.597 319.14C206.204 323.392 207.97 326.678 210.897 328.996C213.822 331.315 217.687 332.474 222.492 332.474C225.307 332.474 227.695 332.075 229.656 331.273C231.615 330.473 233.12 329.769 234.17 329.16L236.572 333.135C236.129 333.412 235.468 333.784 234.584 334.254C233.7 334.724 232.623 335.178 231.355 335.619C230.084 336.06 228.648 336.434 227.048 336.738C225.446 337.04 223.68 337.194 221.748 337.194C218.712 337.194 215.854 336.738 213.177 335.829C210.588 334.97 208.196 333.604 206.139 331.812C204.123 330.046 202.536 327.865 201.377 325.269C200.218 322.676 199.638 319.667 199.638 316.243C199.638 312.929 200.19 309.908 201.295 307.174C202.399 304.44 203.945 302.095 205.933 300.134C207.959 298.15 210.368 296.601 213.013 295.579C215.747 294.502 218.742 293.965 221.998 293.965C224.757 293.965 227.174 294.284 229.244 294.918C231.315 295.554 233.039 296.449 234.42 297.61C235.76 298.716 236.823 300.12 237.526 301.708C238.216 303.281 238.561 304.98 238.561 306.802C238.561 308.625 238.187 310.294 237.444 311.812C236.698 313.33 235.428 314.657 233.635 315.787C231.84 316.919 229.438 317.803 226.431 318.437C223.422 319.073 219.625 319.39 215.044 319.39C213.276 319.39 211.661 319.378 210.2 319.35C208.73 319.321 207.197 319.252 205.597 319.14M205.431 314.836C206.922 314.947 208.371 315.014 209.78 315.042C211.189 315.071 212.665 315.084 214.21 315.084C217.965 315.084 221.055 314.848 223.485 314.38C225.914 313.912 227.833 313.291 229.24 312.516C230.649 311.743 231.628 310.832 232.18 309.782C232.724 308.762 233.008 307.624 233.007 306.469C233.007 304.923 232.69 303.625 232.054 302.576C231.418 301.528 230.563 300.686 229.486 300.05C228.356 299.395 227.124 298.933 225.843 298.683C224.466 298.405 223.065 298.266 221.66 298.269C219.065 298.269 216.774 298.725 214.786 299.634C212.872 300.49 211.163 301.747 209.776 303.319C208.413 304.88 207.347 306.677 206.628 308.621C205.886 310.611 205.481 312.712 205.431 314.836M279.22 336.037V313.177C279.22 308.596 278.073 305.034 275.783 302.494C273.492 299.955 270.027 298.685 265.389 298.685C260.751 298.685 257.301 299.955 255.037 302.494C252.772 305.034 251.642 308.596 251.642 313.177V336.035H246.176V311.523C246.176 308.927 246.617 306.555 247.501 304.4C248.352 302.296 249.652 300.402 251.31 298.853C252.967 297.307 254.981 296.106 257.355 295.25C259.728 294.395 262.407 293.967 265.389 293.967C268.371 293.967 271.062 294.395 273.462 295.25C275.864 296.106 277.893 297.307 279.549 298.853C281.208 300.402 282.508 302.296 283.358 304.4C284.24 306.555 284.683 308.929 284.683 311.523V336.037H279.22M295.369 277.816C295.369 276.988 295.604 276.312 296.072 275.787C296.54 275.262 297.3 275 298.35 275C298.848 275 299.331 275.069 299.799 275.208C300.267 275.346 300.614 275.47 300.834 275.582V336.039H295.369V277.816M326.589 298.519C323.497 298.519 320.985 298.907 319.054 299.678C317.12 300.453 315.795 301.169 315.079 301.83C314.659 301.518 314.306 301.124 314.044 300.671C313.739 300.173 313.582 299.599 313.588 299.015C313.588 298.408 313.739 297.885 314.044 297.442C314.346 297.001 314.72 296.615 315.163 296.283C315.713 295.842 316.929 295.344 318.806 294.792C320.683 294.242 323.224 293.965 326.426 293.965C332.996 293.965 338.102 295.319 341.747 298.023C345.392 300.73 347.213 305.091 347.213 311.109V335.871C345.611 336.146 343.305 336.438 340.299 336.74C337.29 337.043 333.88 337.196 330.071 337.196C325.653 337.196 322.107 336.809 319.429 336.037C316.75 335.264 314.667 334.256 313.176 333.013C311.686 331.77 310.692 330.378 310.195 328.831C309.706 327.333 309.454 325.768 309.449 324.192C309.449 322.204 309.752 320.396 310.361 318.769C310.968 317.139 312.003 315.745 313.466 314.586C314.928 313.427 316.903 312.516 319.387 311.852C321.871 311.191 324.989 310.859 328.746 310.859C329.96 310.859 331.23 310.901 332.555 310.983C333.88 311.067 335.135 311.149 336.324 311.231C337.51 311.315 338.587 311.411 339.553 311.52C340.519 311.632 341.279 311.716 341.831 311.768V311.271C341.831 308.732 341.403 306.632 340.548 304.976C339.692 303.319 338.56 302.009 337.153 301.041C335.692 300.054 334.043 299.377 332.309 299.052C330.424 298.693 328.509 298.514 326.589 298.519M341.827 316.409C340.521 316.16 339.209 315.938 337.892 315.745C335.767 315.413 332.635 315.247 328.494 315.247C326.451 315.247 324.601 315.386 322.944 315.661C321.288 315.938 319.866 316.421 318.68 317.11C317.491 317.801 316.58 318.725 315.946 319.884C315.31 321.043 314.993 322.479 314.993 324.19C314.993 327.172 316.164 329.366 318.512 330.775C320.857 332.184 324.765 332.887 330.23 332.887C333.819 332.887 336.496 332.736 338.264 332.432C340.03 332.127 341.216 331.892 341.825 331.726V316.409H341.827ZM390.524 336.037V313.177C390.524 308.596 389.377 305.034 387.087 302.494C384.796 299.955 381.331 298.685 376.693 298.685C372.055 298.685 368.605 299.955 366.341 302.494C364.076 305.034 362.946 308.596 362.946 313.177V336.035H357.481V311.523C357.481 308.927 357.921 306.555 358.805 304.4C359.656 302.296 360.956 300.402 362.614 298.853C364.271 297.307 366.285 296.106 368.659 295.25C371.032 294.395 373.711 293.967 376.693 293.967C379.675 293.967 382.366 294.395 384.769 295.25C387.171 296.106 389.199 297.307 390.856 298.853C392.514 300.402 393.814 302.296 394.665 304.4C395.548 306.555 395.989 308.929 395.989 311.523V336.037H390.524M442.614 277.816C442.614 276.988 442.849 276.312 443.317 275.787C443.785 275.262 444.545 275 445.595 275C446.093 275 446.576 275.069 447.046 275.208C447.514 275.346 447.861 275.47 448.081 275.582V313.595C448.081 314.92 448.039 316.094 447.958 317.114C447.876 318.137 447.777 319.033 447.668 319.806C447.17 322.512 446.313 324.94 445.1 327.094C443.937 329.185 442.391 331.039 440.546 332.56C438.673 334.078 436.539 335.243 434.251 335.997C431.876 336.797 429.31 337.198 426.549 337.198C423.29 337.198 420.323 336.631 417.646 335.499C415.055 334.428 412.703 332.852 410.729 330.861C408.787 328.889 407.254 326.554 406.215 323.989C405.13 321.32 404.582 318.464 404.6 315.583C404.6 312.547 405.14 309.717 406.215 307.094C407.254 304.529 408.787 302.193 410.729 300.22C412.699 298.235 415.053 296.671 417.646 295.623C420.323 294.519 423.29 293.967 426.549 293.967C430.192 293.967 433.367 294.685 436.073 296.119C438.715 297.497 440.963 299.519 442.616 301.998V277.816H442.614M410.482 315.581C410.482 317.899 410.855 320.096 411.601 322.166C412.3 324.161 413.4 325.993 414.83 327.55C416.254 329.08 417.971 330.306 419.882 331.153C421.841 332.037 424.065 332.478 426.549 332.478C428.921 332.478 431.103 332.064 433.092 331.235C435.009 330.456 436.732 329.27 438.143 327.758C439.552 326.217 440.651 324.417 441.373 322.458C442.146 320.415 442.532 318.181 442.532 315.749C442.532 313.377 442.131 311.14 441.331 309.041C440.581 307.026 439.458 305.172 438.02 303.575C436.604 302.026 434.885 300.785 432.968 299.932C431.006 299.05 428.869 298.607 426.549 298.607C424.065 298.607 421.841 299.035 419.882 299.89C417.961 300.719 416.239 301.947 414.83 303.493C413.405 305.069 412.306 306.912 411.601 308.917C410.843 311.056 410.463 313.311 410.482 315.581M461.578 319.14C462.185 323.392 463.951 326.678 466.878 328.996C469.803 331.315 473.669 332.474 478.473 332.474C481.288 332.474 483.676 332.075 485.637 331.273C487.596 330.473 489.102 329.769 490.151 329.16L492.554 333.135C492.113 333.412 491.449 333.784 490.567 334.254C489.683 334.724 488.606 335.178 487.338 335.619C486.067 336.06 484.631 336.434 483.031 336.738C481.429 337.04 479.663 337.194 477.732 337.194C474.695 337.194 471.838 336.738 469.161 335.829C466.572 334.97 464.18 333.604 462.122 331.812C460.107 330.046 458.519 327.865 457.36 325.269C456.201 322.676 455.622 319.667 455.622 316.243C455.622 312.929 456.172 309.908 457.278 307.174C458.322 304.532 459.901 302.135 461.916 300.134C463.943 298.15 466.351 296.6 468.997 295.579C471.728 294.502 474.723 293.965 477.981 293.965C480.74 293.965 483.157 294.284 485.228 294.918C487.298 295.554 489.022 296.449 490.403 297.61C491.743 298.716 492.805 300.12 493.509 301.708C494.198 303.281 494.544 304.98 494.544 306.802C494.544 308.625 494.17 310.294 493.425 311.812C492.679 313.33 491.409 314.657 489.616 315.787C487.821 316.919 485.419 317.803 482.412 318.437C479.401 319.073 475.607 319.39 471.025 319.39C469.257 319.39 467.642 319.378 466.181 319.35C464.711 319.321 463.178 319.252 461.578 319.14M461.413 314.836C462.903 314.947 464.352 315.014 465.761 315.042C467.168 315.071 468.646 315.084 470.191 315.084C473.946 315.084 477.037 314.848 479.466 314.38C481.895 313.912 483.814 313.291 485.221 312.516C486.628 311.743 487.609 310.832 488.161 309.782C488.707 308.763 488.99 307.624 488.99 306.469C488.99 304.923 488.671 303.625 488.037 302.576C487.401 301.528 486.546 300.686 485.469 300.05C484.339 299.395 483.107 298.933 481.826 298.683C480.449 298.405 479.048 298.266 477.643 298.269C475.048 298.269 472.757 298.725 470.769 299.634C468.854 300.491 467.147 301.747 465.759 303.319C464.396 304.88 463.33 306.677 462.611 308.621C461.868 310.611 461.463 312.712 461.413 314.836M535.201 336.037V313.177C535.201 308.596 534.054 305.034 531.764 302.494C529.473 299.955 526.008 298.685 521.37 298.685C516.732 298.685 513.282 299.955 511.018 302.494C508.753 305.034 507.623 308.596 507.623 313.177V336.035H502.158V311.523C502.158 308.927 502.599 306.555 503.483 304.4C504.333 302.295 505.633 300.402 507.291 298.853C508.948 297.307 510.962 296.106 513.337 295.25C515.709 294.395 518.388 293.967 521.37 293.967C524.352 293.967 527.044 294.395 529.446 295.25C531.848 296.106 533.876 297.307 535.533 298.853C537.191 300.402 538.491 302.296 539.342 304.4C540.226 306.555 540.666 308.929 540.666 311.523V336.037H535.201" fill="black"/>
<path d="M334.417 129.277C330.585 129.277 326.446 133.417 322.271 140.042C330.111 142.236 337.983 144.524 345.735 147.113C342.603 134.453 338.701 129.277 334.417 129.277Z" fill="#F5A994"/>
<path d="M196.424 177.19C194.199 178.923 191.926 180.596 189.613 182.209C190.614 189.368 192.137 196.458 194.299 203.208C199.55 201.811 204.913 200.888 210.33 200.45C205.758 192.66 201.122 184.907 196.424 177.19Z" fill="#6BC8EB"/>
<path d="M188.793 175.201C189.016 177.536 189.289 179.874 189.615 182.203C191.931 180.592 194.201 178.919 196.426 177.185L196.096 176.642C193.655 176.206 191.219 175.725 188.793 175.201Z" fill="#00A6DC"/>
<path d="M188.07 163.351C188.18 167.261 188.416 171.228 188.792 175.205C191.224 175.729 193.66 176.209 196.095 176.648C193.299 172.022 190.562 167.503 188.07 163.351Z" fill="#009A74"/>
<path d="M409.686 187.958L408.857 189.788C408.901 190.594 408.923 191.398 408.92 192.198C408.92 192.647 408.914 193.096 408.898 193.541C409.19 191.68 409.454 189.819 409.686 187.958" fill="#BBD57F"/>
<path d="M268.788 161.642C265.192 166.632 260.459 170.731 255.061 173.722C260.17 182.516 262.857 192.301 262.863 201.993C262.866 202.852 262.844 203.712 262.794 204.57C269.918 206.353 276.923 208.589 283.762 211.264C279.544 194.523 273.766 176.323 268.788 161.642M301.921 187.722C298.858 196.855 295.977 206.049 293.281 215.297C297.621 217.28 301.88 219.429 306.054 221.74C310.326 224.171 314.406 226.925 318.257 229.979C321.085 232.231 323.737 234.695 326.191 237.348C328.793 240.171 331.128 243.227 333.168 246.478C333.89 246.242 334.612 246.013 335.337 245.787C327.421 238.453 322.249 229.392 322.262 218.558C322.274 215.724 322.613 212.901 323.269 210.144C316.145 206.119 310.072 200.468 305.543 193.651C304.297 191.699 303.089 189.722 301.921 187.722" fill="#B6DBF5"/>
<path d="M257.14 134.74C253.525 141.212 249.037 150.376 244.436 160.262C248.594 164.224 252.172 168.756 255.059 173.723C260.458 170.729 265.19 166.63 268.787 161.643C265.824 152.893 262.736 144.185 259.525 135.522C258.722 135.289 257.925 135.028 257.14 134.74" fill="#7EBA79"/>
<path d="M258.405 132.525C257.997 133.222 257.574 133.963 257.141 134.741C257.938 135.033 258.735 135.294 259.529 135.519C258.81 133.589 258.405 132.525 258.405 132.525Z" fill="#61B277"/>
<path d="M322.271 140.041C315.115 151.405 307.865 170.083 301.918 187.721C303.117 189.767 304.325 191.747 305.54 193.649C310.065 200.467 316.142 206.118 323.266 210.142C323.423 209.47 323.599 208.789 323.793 208.105C325.315 205.002 327.399 202.207 329.935 199.86C335.61 194.581 343.522 191.358 352.504 190.382C351.421 184.105 350.417 177.103 349.5 169.326C348.43 160.215 347.162 152.887 345.734 147.109C337.982 144.526 330.111 142.235 322.271 140.041" fill="#B99390"/>
<path d="M255.061 173.725C249.139 177.005 242.554 178.906 235.797 179.286C232.765 186.111 229.774 192.954 226.824 199.815C238.98 199.987 251.038 201.638 262.794 204.573C262.845 203.715 262.867 202.855 262.863 201.996C262.857 192.304 260.167 182.519 255.061 173.725" fill="#19B4E2"/>
<path d="M244.436 160.264C241.501 166.58 238.62 172.922 235.799 179.289C242.556 178.907 249.14 177.006 255.063 173.728C252.175 168.76 248.597 164.226 244.436 160.264" fill="#00A375"/>
<path d="M408.862 189.789C407.214 193.417 405.5 197.016 403.721 200.582C405.152 199.873 406.595 199.189 408.055 198.533C408.362 196.876 408.648 195.212 408.905 193.546C408.943 192.294 408.931 191.04 408.862 189.789Z" fill="#80BB7E"/>
<path d="M210.336 200.448C204.919 200.887 199.555 201.81 194.305 203.207C194.936 205.172 195.617 207.108 196.357 209.01C199.411 212.362 201.137 216.156 201.586 220.01C204.536 225.161 208.054 229.871 212.235 233.948C216.691 238.295 221.845 241.986 227.51 245.096C221.829 233.672 217.407 221.247 214.981 208.593C213.462 205.861 211.915 203.146 210.336 200.448Z" fill="#19B4E2"/>
<path d="M262.797 204.572C262.596 208.815 261.859 213.015 260.603 217.073C256.42 230.688 246.571 241.983 232.643 247.692C244.296 253.131 257.719 256.448 271.557 258.237C277.209 258.403 282.868 258.921 288.523 259.703C292.258 259.876 295.999 259.962 299.737 259.96H300.738C301.397 259.64 302.053 259.326 302.706 259.019C306.13 257.32 309.579 255.674 313.054 254.082C316.914 252.424 320.812 250.865 324.751 249.405C327.538 248.373 330.343 247.397 333.171 246.477C331.131 243.225 328.796 240.169 326.194 237.347C323.74 234.693 321.088 232.23 318.26 229.978C314.409 226.924 310.329 224.17 306.058 221.74C301.884 219.429 297.625 217.279 293.284 215.296C290.215 225.801 288.369 232.916 288.369 232.916C287.315 226.328 285.708 218.95 283.768 211.264C276.927 208.591 269.921 206.356 262.797 204.572Z" fill="#77BFEB"/>
<path d="M226.824 199.815C222.408 210.078 219.445 217.187 219.445 217.187C218.438 214.977 216.894 212.037 214.982 208.594C217.405 221.248 221.831 233.673 227.511 245.097C229.193 246.018 230.901 246.884 232.64 247.693C246.568 241.984 256.417 230.689 260.6 217.074C261.868 213.003 262.587 208.807 262.794 204.573C251.028 201.61 238.957 200.013 226.824 199.815" fill="#00A6DC"/>
<path d="M196.359 209.009C197.831 212.799 199.576 216.476 201.588 220.009C201.139 216.155 199.413 212.361 196.359 209.009Z" fill="#50B3A0"/>
<path d="M401.225 205.432C402.762 206.653 404.241 207.936 405.65 209.28C406.582 205.768 407.379 202.168 408.054 198.53C406.595 199.186 405.151 199.87 403.72 200.58C402.907 202.206 402.075 203.824 401.225 205.432" fill="#E84339"/>
<path d="M323.269 210.146C322.613 212.904 322.274 215.727 322.262 218.561C322.249 229.395 327.418 238.456 335.337 245.79C343.17 243.339 351.173 241.356 359.076 240.116C361.107 236.715 363.37 233.459 365.849 230.371C362.908 226.843 360.187 221.216 357.723 213.222C356.543 213.593 355.344 213.916 354.13 214.192L354.02 214.223C350.643 215.215 347.14 215.718 343.622 215.717H343.603C336.457 215.714 329.634 213.652 323.58 210.316L323.269 210.146" fill="#19B4E2"/>
<path d="M352.504 190.387C343.518 191.36 335.609 194.583 329.935 199.865C327.396 202.212 325.315 205.007 323.793 208.11C323.595 208.794 323.423 209.475 323.266 210.147L323.576 210.319C329.63 213.655 336.454 215.717 343.6 215.721H343.619C347.027 215.721 350.511 215.25 354.016 214.227L354.126 214.195C355.341 213.919 356.54 213.596 357.72 213.225C355.821 207.058 354.076 199.488 352.504 190.387" fill="#5D7D89"/>
<path d="M343.6 215.72H343.612H343.6ZM323.266 210.146L323.576 210.319L323.266 210.146Z" fill="#3D7483"/>
<path d="M365.843 230.37C363.364 233.458 361.101 236.714 359.07 240.115C359.987 239.971 360.906 239.836 361.82 239.71C366.669 239.038 371.555 238.7 376.451 238.7C381.256 238.475 386.071 238.825 390.794 239.741C397.755 231.977 402.488 221.146 405.648 209.279C404.239 207.936 402.761 206.653 401.223 205.432C387.982 230.48 375.689 242.18 365.843 230.37" fill="#E84339"/>
<path d="M401.223 205.432C391.51 223.804 382.308 234.996 374.207 234.996C371.263 234.996 368.467 233.518 365.843 230.37C363.364 233.458 361.101 236.714 359.07 240.115C359.987 239.971 360.906 239.836 361.82 239.71L362.206 239.66L363.263 239.525L363.304 239.519C367.55 238.986 371.825 238.713 376.103 238.7H376.451L376.627 238.693C377.506 238.656 378.384 238.637 379.263 238.637H379.282C383.146 238.635 387 239.005 390.794 239.741C397.755 231.977 402.488 221.146 405.648 209.279C404.233 207.929 402.758 206.645 401.223 205.432" fill="#884342"/>
<path d="M335.331 245.791C334.606 246.017 333.884 246.249 333.162 246.481C335.692 250.496 337.725 254.802 339.219 259.305C343.309 259.02 347.383 258.576 351.437 257.975C351.525 257.642 351.613 257.309 351.707 256.977C345.628 253.841 340.001 250.116 335.331 245.791Z" fill="#A6CB78"/>
<path d="M333.165 246.479C330.328 247.402 327.516 248.381 324.745 249.408C320.806 250.868 316.908 252.427 313.048 254.084C309.702 255.622 306.225 257.266 302.7 259.021C302.047 259.328 301.392 259.642 300.732 259.962C305.271 259.966 309.887 260 314.52 260C322.793 260 331.129 259.89 339.22 259.303C337.729 254.8 335.695 250.493 333.165 246.479" fill="#99C679"/>
<path d="M351.438 257.973C352.012 257.885 352.583 257.797 353.151 257.703C352.668 257.464 352.188 257.221 351.707 256.975C351.613 257.304 351.525 257.64 351.438 257.973Z" fill="#E84339"/>
<path d="M351.707 256.972C351.613 257.304 351.525 257.637 351.438 257.97C352.012 257.882 352.583 257.794 353.151 257.7C352.668 257.462 352.188 257.219 351.707 256.972Z" fill="#B7B74B"/>
<path d="M359.073 240.115C351.171 241.352 343.168 243.338 335.334 245.79C340.004 250.114 345.628 253.84 351.711 256.975C353.324 251.266 355.809 245.601 359.073 240.115Z" fill="#8FC377"/>
<path d="M376.453 238.701C371.557 238.701 366.67 239.039 361.821 239.711C360.908 239.834 359.991 239.972 359.072 240.116C355.808 245.602 353.322 251.267 351.709 256.973C352.186 257.221 352.669 257.462 353.153 257.701C367.157 255.382 379.733 250.765 389 241.632C389.616 241.026 390.212 240.389 390.796 239.739C386.072 238.827 381.258 238.479 376.453 238.701" fill="#E84339"/>
<path d="M379.268 238.639H379.265C378.386 238.639 377.507 238.658 376.629 238.695L376.453 238.701H376.104C371.827 238.715 367.552 238.988 363.306 239.521L363.265 239.527L362.207 239.662L361.821 239.712C360.908 239.834 359.991 239.973 359.072 240.117C355.808 245.603 353.322 251.268 351.709 256.974C352.186 257.222 352.669 257.463 353.153 257.702C367.157 255.382 379.733 250.766 389 241.633C389.616 241.027 390.212 240.39 390.796 239.74L390.692 239.721C386.926 238.998 383.103 238.636 379.268 238.639" fill="#9AAD4E"/>
<path d="M271.551 258.237C277.184 258.958 282.843 259.447 288.517 259.703C282.893 258.91 277.228 258.42 271.551 258.237Z" fill="#3BADE3"/>
<path d="M265.722 57.8711C261.604 58.3733 257.512 58.9884 253.488 59.7479C254.433 62.0547 255.431 64.4054 256.46 66.7875C259.276 63.5445 262.373 60.5604 265.722 57.8711" fill="#EC6652"/>
<path d="M287.031 56.2314C279.909 56.4833 272.801 57.0309 265.726 57.8729C262.378 60.5622 259.28 63.5463 256.465 66.7893C260.222 75.4829 264.402 84.6315 268.005 93.9214L270.855 87.9269C271.599 89.4114 273.086 93.1494 275.007 98.2211C275.136 82.6323 278.641 68.0353 287.031 56.2314" fill="#885956"/>
<path d="M240.167 109.807C239.411 109.895 238.654 109.976 237.901 110.042C237.92 110.576 237.929 111.112 237.929 111.646C237.926 122.047 234.477 132.247 229.154 141.468C232.858 138.08 237.208 135.478 241.944 133.819C244.552 133.164 247.185 132.615 249.837 132.175L250.214 131.377L250.116 131.318C247.533 129.024 245.396 126.272 243.811 123.202C241.733 119.203 240.528 114.662 240.167 109.807Z" fill="#B8D378"/>
<path d="M253.493 59.7471C235.475 63.1398 218.873 69.3131 207.678 80.0875C215.455 83.4453 222.84 87.6491 229.697 92.6226C231.216 93.7964 232.591 94.9828 233.79 96.1817C235.133 97.5249 236.527 100.227 236.925 102.085C237.496 104.74 237.813 107.399 237.901 110.044C238.654 109.975 239.411 109.897 240.167 109.809C240.092 108.767 240.054 107.722 240.051 106.677C240.051 101.294 241.033 95.601 242.973 89.8953C244.407 85.7098 246.262 81.6804 248.509 77.8686C250.807 73.9347 253.471 70.2255 256.462 66.7898C255.452 64.4506 254.463 62.103 253.493 59.7471Z" fill="#B8BB51"/>
<path d="M263.014 104.414C255.388 107.05 247.714 108.927 240.166 109.806C240.524 114.661 241.732 119.203 243.81 123.201C245.395 126.271 247.532 129.022 250.115 131.317L250.212 131.377L263.014 104.414" fill="#97C777"/>
<path d="M256.464 66.7871C253.473 70.2236 250.811 73.9328 248.511 77.866C246.267 81.679 244.412 85.7081 242.975 89.8926C241.035 95.6015 240.05 101.292 240.053 106.674C240.053 107.732 240.09 108.774 240.169 109.806C247.717 108.924 255.391 107.051 263.017 104.414L268.004 93.9192C264.401 84.6294 260.224 75.4807 256.464 66.7871" fill="#9AB154"/>
<path d="M195.256 99.4678C189.459 114.473 188.273 132.638 188.047 149.332L188.273 149.222C193.58 146.686 199.559 145.233 206.237 145.233H206.253C211.469 145.233 217.109 146.121 223.185 148.07L223.336 148.117C225.024 145.693 226.973 143.462 229.152 141.467C234.474 132.246 237.924 122.046 237.927 111.645C237.927 111.112 237.917 110.578 237.898 110.041C235.516 110.258 233.125 110.368 230.73 110.371H230.714C218.12 110.368 206.112 107.198 195.56 99.6875L195.328 99.5211L195.256 99.4678" fill="#40A778"/>
<path d="M207.674 80.0869C207.42 80.3317 207.163 80.5797 206.911 80.8307C201.745 86.0155 197.986 92.3897 195.252 99.467L195.327 99.5204L195.56 99.6867C206.111 107.194 218.122 110.367 230.714 110.37H230.729C233.099 110.37 235.49 110.257 237.898 110.041C237.81 107.364 237.483 104.7 236.921 102.081C236.523 100.223 235.129 97.5212 233.786 96.1779C232.587 94.979 231.213 93.7926 229.694 92.6189C222.836 87.6463 215.451 83.4436 207.674 80.0869" fill="#509458"/>
<path d="M230.718 110.372H230.731H230.718ZM195.332 99.5225L195.564 99.6888L195.332 99.5225Z" fill="#4C9355"/>
<path d="M332.471 60.165C331.084 61.51 329.675 62.8356 328.25 64.1415C328.796 66.3522 329.072 68.6213 329.069 70.8986C329.076 74.5545 328.416 78.1809 327.123 81.6008C320.103 99.214 305.308 121.635 287.189 131.609L287.397 132.19C291.847 132.815 296.291 133.615 300.723 134.553C304.234 135.294 307.737 136.126 311.23 137.014C315.706 127.479 320.495 117.646 324.17 110.054C327.199 103.793 330.325 98.3948 333.476 94.0637C334.433 85.05 337.973 76.4035 342.81 69.6997C344.002 68.0928 345.251 66.464 346.554 64.8288C341.962 62.981 337.258 61.4233 332.471 60.165M375.368 143.683C375.603 145.607 375.829 147.581 376.046 149.605C376.413 153.071 376.856 156.528 377.37 159.975C379.018 160.844 380.641 161.754 382.248 162.699C382.759 161.13 383.277 159.557 383.804 157.991C384.978 153.757 386.324 149.573 387.844 145.45C383.644 145.187 379.473 144.597 375.368 143.683" fill="#F5A994"/>
<path d="M326.154 58.6816C327.083 60.4204 327.777 62.2564 328.251 64.1426C329.676 62.8374 331.085 61.5118 332.472 60.1661C330.379 59.6174 328.273 59.1224 326.154 58.6816" fill="#EA5545"/>
<path d="M328.247 64.1406C313.775 77.3756 295.123 90.5572 275.467 99.4391C278.731 108.101 283.096 120.169 287.186 131.608C305.304 121.638 320.099 99.2131 327.12 81.6C328.413 78.1803 329.072 74.5537 329.066 70.8978C329.069 68.6204 328.796 66.351 328.247 64.1406" fill="#C39A8E"/>
<path d="M299.731 56.0001C295.588 56.0001 291.335 56.0692 287.026 56.2324C278.637 68.0362 275.131 82.6332 275.006 98.2189L275.467 99.4429C295.124 90.561 313.775 77.3794 328.247 64.1445C327.776 62.2449 327.07 60.4108 326.15 58.6835C317.46 56.8877 308.606 55.9885 299.731 56.0001" fill="#BE5247"/>
<path d="M204.352 177.988C207.638 183.314 210.669 188.21 213.029 192.024C212.832 187.704 212.916 183.376 213.284 179.068C210.299 178.779 207.321 178.419 204.352 177.988" fill="#6BC8EB"/>
<path d="M219.178 155.39C218.641 156.011 218.098 156.623 217.546 157.229C212.575 162.951 207.173 168.281 201.383 173.172L204.352 177.99C207.258 178.41 210.252 178.781 213.287 179.066C213.996 170.831 215.82 162.627 219.178 155.39" fill="#3CB077"/>
<path d="M206.245 145.233H206.239C199.56 145.233 193.582 146.686 188.275 149.222L188.049 149.331L188.023 151.346C192.069 158.013 196.846 165.802 201.381 173.168C204.067 170.892 206.672 168.523 209.196 166.066C212.099 163.236 214.886 160.286 217.544 157.225C218.096 156.622 218.639 156.007 219.176 155.386C220.365 152.825 221.746 150.389 223.338 148.114L223.187 148.067C217.111 146.118 211.468 145.233 206.255 145.229L206.245 145.233" fill="#009A74"/>
<path d="M223.187 148.07L223.338 148.117L223.187 148.07ZM206.236 145.232C199.557 145.232 193.579 146.686 188.271 149.221C193.579 146.689 199.561 145.236 206.236 145.232ZM206.242 145.232H206.252H206.242Z" fill="#00945B"/>
<path d="M333.477 94.064C350.063 71.263 367.366 78.0233 375.366 143.683C379.48 144.6 383.648 145.184 387.844 145.45C391.394 135.821 396.089 126.136 402.347 116.947C398.06 107.636 392.364 99.0426 385.453 91.4716C374.908 79.9534 361.638 70.9052 346.555 64.8291C345.252 66.4674 344.003 68.0931 342.81 69.7C337.974 76.4038 334.434 85.0535 333.477 94.064" fill="#E84339"/>
<path d="M410.43 143.995C407.15 144.608 403.842 145.051 400.515 145.32C399.897 154.343 398.168 163.184 395.221 171.516C397.819 173.549 400.327 175.695 402.737 177.95C403.544 178.747 404.291 179.545 404.991 180.339C407.523 176.522 409.692 172.395 411.224 169.228C411.39 165.318 411.462 161.542 411.462 157.98C411.465 153.272 411.111 148.599 410.43 143.995Z" fill="#BBD57F"/>
<path d="M400.516 145.324L400.325 145.34C397.974 145.525 395.617 145.619 393.257 145.619H393.241C391.512 145.62 389.786 145.568 388.059 145.462L387.846 145.45C386.33 149.573 384.98 153.757 383.807 157.991C383.279 159.557 382.762 161.126 382.25 162.699C386.766 165.348 391.101 168.295 395.224 171.521C398.168 163.188 399.898 154.347 400.516 145.324" fill="#BBC464"/>
<path d="M387.844 145.451C392.052 145.718 396.286 145.667 400.517 145.325C403.844 145.055 407.152 144.613 410.431 144.001C409.041 134.644 406.317 125.534 402.347 116.947C396.089 126.137 391.393 135.825 387.844 145.451" fill="#E84339"/>
<path d="M402.347 116.947C396.089 126.137 391.393 135.825 387.844 145.451C389.642 145.564 391.444 145.62 393.245 145.62C395.665 145.62 398.091 145.52 400.517 145.325C403.844 145.055 407.152 144.613 410.431 144.001C409.041 134.644 406.317 125.534 402.347 116.947" fill="#BAB44A"/>
<path d="M249.839 132.175C247.203 132.614 244.573 133.157 241.946 133.819C237.21 135.478 232.86 138.08 229.156 141.468C227.753 143.898 226.228 146.257 224.59 148.536C228.252 149.794 232.072 151.436 236.052 153.494C236.993 154.132 237.91 154.794 238.804 155.469C242.128 148.445 245.982 140.313 249.839 132.175" fill="#7EBA79"/>
<path d="M229.152 141.468C226.973 143.463 225.021 145.693 223.336 148.118C223.75 148.253 224.168 148.391 224.588 148.536C226.223 146.256 227.749 143.897 229.152 141.468Z" fill="#009B76"/>
<path d="M377.372 159.974C378.031 164.346 378.76 168.169 379.541 171.499C379.707 170.915 379.874 170.335 380.046 169.751C380.743 167.403 381.487 165.049 382.253 162.699C380.646 161.756 379.017 160.848 377.372 159.974M287.398 132.189C291.328 143.186 295.223 154.194 299.089 165.213C301.186 158.92 305.997 148.171 311.235 137.013C307.748 136.121 304.246 135.301 300.728 134.553C296.312 133.612 291.868 132.823 287.398 132.189Z" fill="#B99390"/>
<path d="M213.289 179.065C212.928 183.374 212.844 187.702 213.035 192.021C214.673 194.666 216.312 197.31 217.956 199.952L227.453 179.665L226.377 179.681L225.363 179.687H225.341L224.274 179.681C220.605 179.626 216.939 179.421 213.289 179.065" fill="#19B4E2"/>
<path d="M224.592 148.537C222.894 150.904 221.086 153.191 219.178 155.392C215.82 162.629 213.996 170.833 213.287 179.068C217.292 179.455 221.315 179.661 225.339 179.687H225.361L226.375 179.68L227.451 179.665L234.437 164.741C235.73 161.992 237.212 158.856 238.812 155.47C237.912 154.788 236.995 154.13 236.06 153.496C232.363 151.568 228.531 149.911 224.592 148.537" fill="#00A375"/>
<path d="M226.368 179.682L225.355 179.688L226.368 179.682ZM225.336 179.685H225.345H225.336Z" fill="#009E73"/>
<path d="M223.337 148.118C221.74 150.416 220.346 152.849 219.176 155.39C221.084 153.189 222.892 150.902 224.59 148.536L223.337 148.118Z" fill="#009372"/>
<path d="M395.226 171.521C393.111 177.553 390.305 183.321 386.865 188.71C388.519 190.427 390.239 191.161 391.975 191.161C396.522 191.161 401.173 186.102 404.996 180.34C404.271 179.518 403.521 178.721 402.743 177.951C400.332 175.698 397.825 173.552 395.226 171.521" fill="#80BB7E"/>
<path d="M382.251 162.698C381.485 165.039 380.747 167.39 380.044 169.75C379.872 170.334 379.705 170.918 379.539 171.499C381.654 180.525 384.172 185.914 386.864 188.707C390.304 183.318 393.11 177.55 395.225 171.517C391.101 168.294 386.767 165.347 382.251 162.698Z" fill="#84AD66"/>
</g>
<defs>
<clipPath id="clip0_3_11560">
<rect width="600" height="400" fill="white"/>
</clipPath>
</defs>
</svg>
