<svg width="600" height="400" viewBox="0 0 600 400" fill="none" xmlns="http://www.w3.org/2000/svg" xmlns:cgf="https://coding.garden/flags"><metadata id="cgf-metadata">

<cgf:flag>
  <cgf:name>Nieuwkoop</cgf:name>
  <cgf:route>nl/zh/nieuwkoop</cgf:route>
  <cgf:aspect-ratio>1.5</cgf:aspect-ratio>
</cgf:flag>

</metadata><g clip-path="url(#clip0_1_11097)">
<path d="M198.272 0H0V199.353H198.272V0Z" fill="#DA1219"/>
<path d="M599.999 0H198.271V199.353H599.999V0Z" fill="#FCDD09"/>
<path d="M599.999 199.353H198.271V400H599.999V199.353Z" fill="#DA1219"/>
<path d="M198.272 199.353H0V400H198.272V199.353Z" fill="#FCDD09"/>
<path d="M324.936 178.833C319.86 168.435 312.123 156.982 305.417 149.943C294.654 138.645 285.928 134.734 277.628 137.488C275.063 138.339 273.244 139.619 270.17 142.736C267.933 145.003 266.108 146.622 266.113 146.334C266.141 144.789 268.166 137.471 269.025 135.812C269.573 134.753 271.851 131.895 274.088 129.461C278.721 124.417 280.046 121.328 280.659 114.14L281.064 109.38L278.056 111.577C272.466 115.659 272.518 115.631 272.522 114.652C272.522 114.169 273.679 108.892 275.088 102.927C276.497 96.9608 277.649 91.8429 277.649 91.5534C277.649 91.2638 277.11 91.0269 276.452 91.0269C275.533 91.0269 274.767 92.3325 273.164 96.6335C270.392 104.066 269.755 104.598 270.288 99.0362C270.787 93.8191 269.772 85.4689 268.278 82.5106C264.622 75.2696 257.222 73.4427 245.906 76.9874C243.785 77.6519 241.815 78.1993 241.529 78.2038C240.429 78.2212 245.382 72.2073 247.823 70.5617C252.145 67.6472 254.481 66.9929 260.244 67.0821C266.278 67.1754 266.132 66.7267 259.454 64.6647C255.592 63.4724 254.638 63.3965 251.717 64.0494C248.047 64.8699 245.889 66.1869 238.605 72.0514C229.939 79.0283 225.801 80.7907 223.494 78.4867C222.109 77.1028 222.231 75.2595 223.78 74.1756C224.798 73.4634 225.616 73.4145 227.61 73.9463C229.684 74.4991 230.571 74.4201 232.475 73.5134C234.884 72.3655 244.553 65.2531 245.263 64.1065C245.484 63.7491 246.788 62.8841 248.161 62.1843C251.175 60.6485 255.875 60.5288 259.736 61.8895L262.51 62.8671L260.939 61.1721C256.833 56.7409 250.348 54.7484 245.371 56.389C244.098 56.8088 241.64 58.4244 239.909 59.9793L236.761 62.8063L236.366 60.4175C234.844 51.2243 238.338 44.2731 245.426 42.3891C247.089 41.9472 247.201 41.6752 247.55 37.2279C247.892 32.863 248.08 32.3852 250.222 30.4245C254.142 26.8356 257.339 26.294 274.423 26.3241C294.421 26.3593 298.761 25.2504 305.43 18.4011C307.199 16.5848 308.404 15.5313 308.108 16.0599C306.724 18.5345 297.502 30.106 293.517 34.369C289.626 38.5308 289.257 39.127 290.575 39.1291C293.697 39.1342 295.979 41.3512 298.68 47.0029C301.347 52.5831 303.467 54.8376 307.731 56.6286C310.393 57.7467 309.47 58.1847 303.23 58.7641L298.77 59.1781L300.623 60.846C301.641 61.7633 303.567 64.0004 304.901 65.8173C306.453 67.9313 309.065 70.2382 312.155 72.2247C315.511 74.3819 316.631 75.3974 315.825 75.5539C313.532 75.9992 306.75 74.2378 302.454 72.0813C300.045 70.8719 297.937 69.8824 297.771 69.8824C297.605 69.8824 298.173 70.8195 299.033 71.9648C299.894 73.1101 301.383 75.6331 302.342 77.5713C305.338 83.6249 308.887 86.5417 313.255 86.5417C314.528 86.5417 315.42 86.7842 315.237 87.0806C315.053 87.377 313.614 87.639 312.039 87.6627C305.998 87.754 306.164 88.0814 317.676 98.7727C323.523 104.204 328.603 108.647 328.964 108.647C329.326 108.647 334.406 104.204 340.253 98.7727C351.775 88.0716 351.939 87.7468 345.923 87.5792C342.524 87.4845 341.326 86.5417 344.604 86.5417C349.044 86.5417 352.574 83.6587 355.587 77.5713C356.546 75.6331 358.035 73.1101 358.896 71.9648C359.756 70.8195 360.301 69.8824 360.107 69.8824C359.914 69.8824 357.806 70.8681 355.424 72.0729C351.171 74.2245 344.387 75.9973 342.104 75.5539C341.298 75.3974 342.417 74.3819 345.773 72.2247C348.863 70.2382 351.475 67.9313 353.028 65.8173C354.362 64.0004 356.287 61.7633 357.306 60.846L359.158 59.1781L354.567 58.7518C348.725 58.2094 347.293 57.5115 350.051 56.551C354.085 55.1462 356.617 52.5078 359.281 46.9346C361.949 41.3533 364.244 39.134 367.354 39.1291C368.671 39.1272 368.303 38.5308 364.412 34.369C360.427 30.106 351.205 18.5345 349.82 16.0599C349.525 15.5313 350.73 16.5848 352.498 18.4011C359.14 25.2216 363.413 26.3118 383.505 26.3118C400.652 26.3118 403.801 26.8492 407.73 30.4453C409.912 32.4428 410.072 32.8559 410.312 37.106L410.569 41.637L412.903 42.4053C419.859 44.6943 423.062 51.3574 421.563 60.4175L421.168 62.8063L418.02 59.9793C416.289 58.4244 413.831 56.8088 412.557 56.389C407.589 54.7511 401.095 56.7413 397.006 61.1545L395.452 62.8318L398.49 61.7978C402.958 60.2769 408.428 60.8123 411.175 63.0394C424.05 73.4751 426.612 74.9347 430.319 73.9463C432.313 73.4145 433.131 73.4634 434.149 74.1756C436.683 75.9486 435.052 79.4993 431.709 79.4875C429.64 79.4802 424.022 75.9686 417.483 70.5954C414.837 68.4215 411.373 66.0063 409.785 65.2282C405.733 63.2423 400.359 63.3881 395.674 65.6111L392.146 67.2849L395.749 66.9186C403.293 66.1516 409.952 68.9484 414.517 74.8015C415.796 76.4416 416.726 77.9001 416.583 78.0426C416.44 78.1852 414.384 77.7032 412.013 76.9717C400.563 73.4391 393.326 75.2317 389.651 82.5106C388.156 85.4714 387.16 93.7565 387.668 99.0052C388.207 104.565 387.606 104.07 384.787 96.6335C383.167 92.3603 382.378 91.0269 381.47 91.0269C380.815 91.0269 380.281 91.2432 380.283 91.5075C380.283 91.7718 381.44 96.8691 382.849 102.835C384.258 108.801 385.411 114.098 385.411 114.607C385.411 115.637 385.494 115.682 379.872 111.577L376.864 109.38L377.27 114.14C377.883 121.328 379.207 124.417 383.841 129.461C386.078 131.895 388.357 134.756 388.907 135.819C389.961 137.853 392.065 146.105 391.639 146.53C391.502 146.667 390.176 145.34 388.691 143.581C384.548 138.672 380.948 136.84 375.448 136.84C370.389 136.84 367.37 137.905 361.659 141.705C352.77 147.618 340.424 163.609 332.993 178.833C330.954 183.011 329.141 186.43 328.964 186.43C328.788 186.43 326.975 183.011 324.936 178.833V178.833Z" fill="#DA1219"/>
<path d="M326.018 182.47C323.634 176.961 317.309 166.046 312.937 159.898C307.375 152.075 298.027 143.039 292.525 140.167C283.563 135.489 276.995 136.42 270.491 143.29C266.645 147.352 265.051 147.808 265.679 144.666C267.206 137.021 267.962 135.602 274.891 127.362C278.277 123.336 279.256 120.851 279.906 114.634L280.333 110.55L277.82 112.432C276.438 113.468 274.369 115.015 273.222 115.871C272.076 116.726 271.141 117.176 271.144 116.87C271.151 116.564 272.301 111.411 273.707 105.42C275.113 99.4294 276.422 93.8508 276.615 93.0234C276.849 92.0211 276.709 91.6045 276.197 91.7752C275.773 91.9162 274.501 94.4673 273.37 97.4445C270.452 105.122 269.657 104.655 269.493 95.1685C269.31 84.5194 267.554 80.0221 262.54 77.3603C258.785 75.3665 252.049 75.5502 244.939 77.8401C241.995 78.7882 239.468 79.445 239.323 79.2996C239.177 79.1543 240.73 77.0467 242.773 74.6162C247.929 68.4842 252.128 66.3519 259.049 66.3519C261.817 66.3519 264.082 66.2843 264.082 66.2017C264.082 66.1191 262.027 65.4282 259.517 64.6664C255.507 63.4498 254.546 63.3719 251.62 64.0261C247.95 64.8466 245.791 66.1636 238.507 72.0281C229.841 79.005 225.703 80.7674 223.396 78.4634C222.011 77.0795 222.133 75.2362 223.682 74.1523C224.7 73.4401 225.518 73.3912 227.513 73.923C229.586 74.4758 230.474 74.3968 232.377 73.4901C234.787 72.3422 244.456 65.2297 245.165 64.0832C245.386 63.7258 246.75 62.8303 248.197 62.0932C250.285 61.0291 251.63 60.8137 254.728 61.0473C256.874 61.2091 259.207 61.5768 259.912 61.8645C262.627 62.9712 258.89 59.6917 255.531 58.0196C249.578 55.0565 243.063 56.4653 238.923 61.6106C237.815 62.9883 236.667 63.8747 236.372 63.5804C236.078 63.286 235.657 60.7261 235.439 57.8918C235.081 53.2631 235.205 52.3799 236.655 49.2163C238.332 45.5567 241.132 42.9365 244.518 41.8573C246.351 41.273 246.46 41.036 246.822 36.8685C247.177 32.7869 247.377 32.3309 249.794 30.0787C254.013 26.1471 256.889 25.6244 274.033 25.6724C282.507 25.6961 290.155 25.4166 291.935 25.018C297.13 23.855 301.663 21.3231 304.81 17.8264C306.82 15.5939 307.964 14.763 308.412 15.2107C309.22 16.0177 301.053 27.0557 294.699 33.7446C290.596 38.0643 290.439 38.3384 291.867 38.6965C294.626 39.388 296.92 41.8259 298.832 46.0958C301.158 51.291 303.714 54.0124 308.325 56.2033L311.869 57.8873L307.699 58.7173C305.406 59.1739 302.861 59.5608 302.044 59.5773C300.615 59.606 300.651 59.7255 302.971 62.6507C307.395 68.2283 309.253 69.8959 314.429 72.9323L319.566 75.9462L317 76.1563C313.551 76.4389 307.622 75.218 303.413 73.3587L299.965 71.8356L302.661 77.011C305.868 83.1687 309.019 85.8777 312.974 85.8777C315.025 85.8777 315.451 86.0851 315.275 86.998C315.109 87.8578 314.334 88.1494 311.941 88.252C310.226 88.3256 308.643 88.5711 308.422 88.7976C308.201 89.0241 309.062 90.1177 310.336 91.2278C311.609 92.338 316.294 96.6645 320.746 100.842L328.842 108.439L338.957 99.0014C344.52 93.811 349.168 89.3114 349.286 89.0024C349.494 88.4552 348.512 88.2815 344.596 88.1731C343.316 88.1377 342.613 87.7504 342.464 86.999C342.284 86.084 342.706 85.8777 344.759 85.8777C348.715 85.8777 351.866 83.1687 355.073 77.011L357.768 71.8356L354.32 73.3587C350.112 75.218 344.182 76.4389 340.733 76.1563L338.168 75.9462L343.305 72.9323C348.48 69.8959 350.339 68.2283 354.762 62.6507C357.082 59.7255 357.118 59.606 355.69 59.5773C354.872 59.5608 352.327 59.1849 350.034 58.742L345.865 57.9366L349.713 55.9491C354.56 53.4462 356.58 51.3189 358.71 46.4719C360.725 41.8892 363.006 39.3144 365.546 38.7572L367.408 38.3488L363.049 33.7603C357.016 27.4089 348.517 16.0144 349.26 15.2725C349.625 14.9073 351.312 16.1346 353.637 18.4569C359.994 24.8068 361.561 25.188 383.068 25.6174C399.583 25.9472 401.261 26.0851 403.915 27.3305C408.768 29.6078 410.484 31.9662 410.918 36.9574C411.272 41.0283 411.388 41.2748 413.216 41.8573C416.602 42.9365 419.401 45.5567 421.078 49.2163C422.528 52.3799 422.652 53.2631 422.295 57.8918C422.076 60.7261 421.656 63.286 421.361 63.5804C421.067 63.8747 419.919 62.9883 418.81 61.6106C416.295 58.4843 412.106 56.4035 408.328 56.4035C405.159 56.4035 399.751 58.7469 397.747 60.9881C396.546 62.3313 396.549 62.3366 398.142 61.7748C399.024 61.4636 401.793 61.209 404.296 61.209C408.31 61.209 409.104 61.4176 411.031 62.979C423.975 73.4669 426.51 74.9124 430.221 73.923C432.216 73.3912 433.033 73.4401 434.051 74.1523C436.585 75.9253 434.954 79.476 431.611 79.4642C429.543 79.4569 423.925 75.9453 417.385 70.5721C410.848 65.2009 407.777 63.7728 402.953 63.8596C400.732 63.8996 397.945 64.4378 396.365 65.132L393.626 66.335L398.688 66.3517C405.642 66.3747 409.811 68.4922 414.96 74.6162C417.004 77.0467 418.556 79.1543 418.411 79.2996C418.265 79.445 415.839 78.8357 413.018 77.9457C406.066 75.752 402.137 75.309 398.136 76.268C391.14 77.9443 388.329 83.3839 388.202 95.4889C388.105 104.663 387.269 105.089 384.364 97.4445C383.232 94.4673 381.96 91.9162 381.537 91.7752C381.024 91.6045 380.885 92.021 381.119 93.0234C385.728 112.722 386.639 116.804 386.467 116.976C386.354 117.089 384.389 115.775 382.099 114.058C378.062 111.028 377.931 110.98 377.737 112.467C377.455 114.637 378.676 120.776 379.905 123.363C380.476 124.566 382.605 127.364 384.636 129.582C386.667 131.799 388.805 134.536 389.387 135.664C390.279 137.394 392.329 144.704 392.359 146.268C392.387 147.66 390.145 146.356 387.243 143.29C380.739 136.42 374.17 135.489 365.208 140.167C359.706 143.039 350.358 152.075 344.796 159.898C340.425 166.046 334.099 176.961 331.715 182.47C330.541 185.183 329.622 186.474 328.867 186.474C328.111 186.474 327.193 185.183 326.018 182.47V182.47ZM330.791 179.907C332.834 175.137 340.324 162.617 344.303 157.321C346.156 154.854 350.441 150.076 353.824 146.702C358.66 141.881 361.04 140.044 364.948 138.115L369.92 135.66L366.375 134.221C362.015 132.451 361.274 131.85 359.301 128.486C357.427 125.293 356.389 119.497 357.774 119.958C358.259 120.12 358.884 121.351 359.164 122.695C359.84 125.945 362.097 129.86 364.021 131.119C366.27 132.591 374.297 135.213 376.606 135.229C379.221 135.248 383.635 137.3 387.021 140.072L389.766 142.318L388.862 139.76C387.432 135.711 386.646 134.49 382.955 130.59C378.33 125.702 376.503 121.564 375.943 114.711L375.499 109.265L372.176 105.661C368.632 101.818 366.47 97.8784 365.473 93.4487C365.024 91.4494 365.064 90.5873 365.625 90.2402C366.153 89.9128 366.811 91.1362 367.745 94.183C368.491 96.6126 370.125 99.9907 371.377 101.69C373.382 104.413 381.154 111.464 382.786 112.041C383.686 112.36 383.538 111.455 380.87 100.294C379.522 94.6559 378.673 89.9459 378.983 89.8278C379.293 89.7098 378.601 88.5096 377.445 87.1608C375.104 84.4283 373.338 80.0584 372.72 75.4656C372.375 72.9082 372.478 72.4221 373.359 72.4221C374.039 72.4221 374.409 72.9631 374.409 73.9564C374.409 79.0125 378.935 87.7557 382.066 88.7485C382.723 88.9567 383.78 90.5624 384.491 92.4301L385.751 95.7425L386.486 90.0494C386.891 86.9182 387.804 83.1849 388.515 81.7531L389.808 79.1499L388.179 77.9586C386.153 76.4766 384.028 72.4176 384.037 70.0448C384.049 66.3046 387.118 61.4606 393.517 55.0789L399.745 48.868L396.741 47.4975C394.286 46.3776 393.465 45.5482 392.251 42.9616C391.128 40.5684 390.259 39.6221 388.691 39.083C386.188 38.2227 383.693 35.3391 384.637 34.3969C385.067 33.9674 385.799 34.3138 386.845 35.4418C389.126 37.9003 391.076 38.1445 396.144 36.6067C401.41 35.0087 405.652 34.8793 407.621 36.2563C408.976 37.2048 409.046 37.1776 409.046 35.702C409.046 33.5866 406.897 31.0244 403.694 29.3195C401.18 27.9816 400.008 27.8809 383.068 27.5457C366.837 27.2246 364.752 27.0586 361.407 25.8225L357.707 24.4547L359.148 26.4929C362.225 30.8436 370.922 38.8472 374.409 40.5367C379.636 43.0695 381.097 43.288 382.531 41.7511C383.327 40.897 384.044 40.6378 384.621 40.9946C385.318 41.4248 385.155 41.883 383.832 43.2037C381.631 45.403 380.099 45.3085 374.499 42.6275C369.379 40.1764 366.502 39.8336 364.254 41.4066C363.451 41.9686 361.652 44.8291 360.256 47.7633C358.379 51.7098 357.055 53.586 355.167 54.9725C353.764 56.0033 352.805 57.0353 353.036 57.2658C353.72 57.9499 359.633 57.743 362.312 56.9413C363.679 56.5323 365.923 55.2348 367.299 54.058C368.676 52.8811 370.117 51.9182 370.502 51.9182C373.109 51.9182 368.082 56.4808 362.47 59.2094C359.02 60.8863 357.366 62.1701 355.63 64.5188C353.19 67.8197 349.258 71.761 347.148 73.0222C346.032 73.689 346.152 73.7405 348.07 73.4178C351.025 72.9206 356.549 70.3513 361.304 67.2623C363.445 65.8712 365.394 64.7331 365.634 64.7331C366.782 64.7331 365.79 66.3704 362.99 69.0998C361.253 70.7926 358.666 74.4385 357.057 77.4606C355.487 80.408 353.265 83.643 352.119 84.6494C350.972 85.6558 350.034 86.5766 350.034 86.6954C350.034 86.8143 352.055 87.888 354.524 89.0814C356.994 90.2748 359.014 91.628 359.014 92.0885C359.014 93.2822 358.104 93.1363 354.652 91.3888L351.616 89.8517L340.401 100.334C334.234 106.099 329.043 110.816 328.867 110.815C328.69 110.815 323.495 106.101 317.321 100.34L306.096 89.8667L303.07 91.3963C299.628 93.1364 298.719 93.2811 298.719 92.0885C298.719 91.628 300.74 90.2748 303.209 89.0814C305.679 87.888 307.699 86.8143 307.699 86.6954C307.699 86.5766 306.72 85.62 305.522 84.5698C304.325 83.5196 302.111 80.29 300.602 77.3928C299.002 74.3204 296.568 70.8694 294.761 69.1115C291.946 66.3726 290.949 64.7331 292.1 64.7331C292.34 64.7331 294.288 65.8712 296.429 67.2623C301.192 70.356 306.714 72.9227 309.664 73.414C311.675 73.7489 311.751 73.7074 310.532 72.9414C307.775 71.2089 305.941 69.4205 302.746 65.35C300.037 61.899 298.678 60.7956 295.028 59.085C290.382 56.9076 286.079 53.1689 286.827 51.9599C287.107 51.508 288.328 52.1834 290.188 53.8192C291.795 55.2322 294.155 56.6784 295.433 57.033C298.043 57.757 304.055 57.9081 304.698 57.2658C304.929 57.0353 303.969 56.0033 302.566 54.9725C300.687 53.5918 299.356 51.7134 297.514 47.8402C294.64 41.7974 293.906 41.0322 290.552 40.5829C288.65 40.3281 287.222 40.7051 284.115 42.2823C278.314 45.2268 276.141 45.4408 273.977 43.2799C272.578 41.8819 272.41 41.4267 273.128 40.9779C273.74 40.596 274.348 40.8432 275.044 41.7565C276.413 43.551 279.086 42.9815 284.693 39.7016C288.603 37.4144 295.499 30.8058 298.783 26.199L300.026 24.4547L296.326 25.8258C292.989 27.0624 290.896 27.2324 274.986 27.5585C259.815 27.8695 256.965 28.0847 254.618 29.097C251.364 30.5009 248.687 33.4647 248.687 35.6648C248.687 37.1789 248.754 37.2068 250.113 36.2563C252.099 34.8669 256.489 35.0124 261.532 36.6347C266.455 38.2187 268.561 37.9503 270.888 35.4418C271.935 34.3138 272.667 33.9674 273.097 34.3969C274.04 35.3391 271.545 38.2227 269.043 39.083C267.474 39.6221 266.606 40.5684 265.482 42.9616C264.267 45.5513 263.45 46.3751 260.992 47.4912L257.988 48.8554L264.258 55.1642C270.68 61.6254 273.684 66.361 273.697 70.0448C273.705 72.4176 271.58 76.4766 269.554 77.9586L267.925 79.1499L269.218 81.7531C269.929 83.1849 270.841 86.9067 271.244 90.0237L271.976 95.6911L273.207 92.5464C273.884 90.8169 274.717 89.3021 275.057 89.1803C278.491 87.9502 282.277 81.5585 283.059 75.671C283.361 73.3941 283.779 72.4221 284.457 72.4221C286.751 72.4221 283.712 83.1647 280.288 87.1608C279.132 88.5096 278.44 89.7098 278.75 89.8278C279.06 89.9459 278.171 94.8958 276.775 100.828C275.378 106.759 274.396 111.773 274.592 111.968C275.224 112.6 283.887 105.059 286.297 101.78C287.582 100.031 289.243 96.6126 289.988 94.183C290.922 91.1362 291.58 89.9128 292.109 90.2402C292.669 90.5873 292.71 91.4494 292.26 93.4487C291.264 97.8784 289.102 101.818 285.558 105.661L282.235 109.265L281.79 114.711C281.231 121.564 279.404 125.702 274.779 130.59C271.088 134.49 270.301 135.711 268.871 139.76L267.968 142.318L270.675 140.128C274.27 137.22 276.833 135.975 280.211 135.497C281.747 135.28 285.255 134.379 288.005 133.494C294.028 131.558 296.893 128.985 298.062 124.465C299.247 119.882 299.267 119.837 300.069 119.837C301.152 119.837 300.324 125.024 298.749 128.108C297.237 131.07 295.243 132.749 291.333 134.356C288.071 135.696 287.795 136.192 290.003 136.745C295.068 138.015 306.091 147.723 313.434 157.379C317.164 162.285 324.641 174.691 327.01 179.907C327.851 181.757 328.721 183.271 328.944 183.271C329.168 183.271 329.999 181.757 330.791 179.907V179.907ZM269.075 75.448C271.825 72.6135 272.241 70.1261 270.588 66.3943C267.01 58.3138 250.502 44.2293 244.61 44.2293C242.407 44.2293 238.683 48.0012 237.82 51.1052C237.113 53.6483 236.888 59.6072 237.5 59.6072C237.697 59.6072 238.924 58.7736 240.226 57.7549C243.435 55.2446 246.893 54.2492 250.952 54.6677C254.809 55.0654 257.321 56.2174 260.598 59.0909C262.909 61.1183 268.269 68.4524 267.79 68.9315C267.649 69.0718 265.675 68.8855 263.403 68.5175C258.241 67.6816 254.362 68.2227 250.484 70.3196C247.394 71.9903 244.362 74.7226 244.948 75.3081C245.129 75.4885 247.348 75.1688 249.881 74.5976C255.48 73.3344 260.154 73.777 263.765 75.9123C265.174 76.7455 266.487 77.4544 266.682 77.4876C266.877 77.5209 267.954 76.603 269.075 75.448V75.448ZM242.273 50.6593C242.273 49.8362 244.833 48.4954 245.374 49.0354C245.607 49.2689 245.239 49.869 244.555 50.3688C243.106 51.4267 242.273 51.5328 242.273 50.6593V50.6593ZM394.052 75.7928C396.75 74.2788 397.885 74.0405 402.311 74.0581C405.133 74.0694 408.544 74.4554 409.891 74.916C411.238 75.3766 412.514 75.5795 412.727 75.3667C413.381 74.7134 410.436 72.0429 407.003 70.1767C403.451 68.2455 398.933 67.8043 392.513 68.762L389.129 69.2668L391.502 65.8787C396.996 58.0335 401.053 55.1524 407.315 54.6504C410.535 54.3921 411.879 54.6002 414.283 55.7289C415.921 56.498 417.767 57.6853 418.385 58.3673C419.003 59.0492 419.752 59.6072 420.05 59.6072C420.81 59.6072 420.72 54.0057 419.914 51.1052C419.051 48.0012 415.326 44.2293 413.124 44.2293C409.074 44.2293 397.869 52.3007 391.705 59.6586C387.236 64.9924 386.367 66.6578 386.319 69.9781C386.281 72.5727 386.581 73.3055 388.486 75.2689C389.702 76.5224 390.748 77.548 390.81 77.548C390.873 77.548 392.332 76.7582 394.052 75.7928V75.7928ZM413.179 50.3688C412.495 49.869 412.126 49.2689 412.36 49.0354C412.9 48.4954 415.461 49.8362 415.461 50.6593C415.461 51.5328 414.627 51.4267 413.179 50.3688ZM262.66 43.8228C263.819 42.4918 264.684 40.9964 264.584 40.4997C264.365 39.4106 257.601 37.2037 254.442 37.1906C250.282 37.1732 248.036 40.2366 250.162 43.0269C250.598 43.599 251.96 44.6954 253.189 45.4634C256.522 47.5472 259.933 46.9565 262.66 43.8228V43.8228ZM253.544 43.8632C252.091 42.4122 252.302 41.1047 254.12 40.2769C257.019 38.9576 259.222 42.7121 256.427 44.2068C254.822 45.0646 254.736 45.0544 253.544 43.8632V43.8632ZM404.545 45.4273C407.221 43.7978 408.357 42.4154 408.384 40.7557C408.42 38.6165 406.515 37.1803 403.655 37.1906C400.487 37.202 393.483 39.2894 393.137 40.325C392.796 41.3485 396.047 45.479 397.728 46.1565C400.034 47.0859 402.202 46.8539 404.545 45.4273V45.4273ZM401.189 44.178C399.804 43.3727 399.733 41.4583 401.047 40.3691C401.797 39.7471 402.401 39.7254 403.613 40.2769C405.432 41.1047 405.642 42.4122 404.19 43.8632C403.021 45.0303 402.71 45.063 401.189 44.178Z" fill="black" stroke="black" stroke-width="0.3"/>
<path d="M328.748 390.406L308.694 349.415L263.965 367.121L280.4 323.308L237.026 305.774L280.321 284.803L263.711 242.3L308.505 256.456L328.388 213.882L348.441 254.872L393.171 237.166L376.736 280.979L420.11 298.513L376.814 319.484L393.425 361.987L348.63 347.832L328.748 390.406Z" fill="#FCDD09" stroke="black" stroke-width="4.80296"/>
<path d="M86.4793 187C57.6549 183.825 31.4484 165.71 18.3655 139.918C12.8384 129.021 10.3618 120.528 9.13071 108.248C6.22075 79.2219 18.8815 49.9386 42.2202 31.7148C74.1893 6.75198 119.295 6.75198 151.264 31.7148C174.603 49.9386 187.264 79.2219 184.354 108.248C183.123 120.528 180.646 129.021 175.119 139.918C158.673 172.34 123.413 191.069 86.4793 187ZM91.925 150.089L91.9184 123.979L89.2144 122.844L86.5104 121.708L67.5805 140.617L48.6506 159.527L50.186 160.655C62.6456 169.809 78.0276 175.967 88.8847 176.149L91.9315 176.2L91.925 150.089H91.925ZM115.441 174.339C122.084 172.626 128.151 170.188 133.868 166.933C138.776 164.139 144.47 160.181 144.509 159.536C144.52 159.358 136.222 150.917 126.068 140.779L107.607 122.346L105.542 123.065L103.477 123.784V150.075V176.365L107.166 175.944C109.194 175.712 112.918 174.99 115.441 174.339ZM77.8199 114.201C77.8199 114.021 77.1704 112.187 76.3767 110.125L74.9334 106.377L48.1535 106.368C25.9109 106.36 21.3735 106.507 21.3735 107.236C21.3735 107.718 21.8203 110.672 22.3664 113.801C24.3988 125.442 29.2729 136.799 36.2998 146.266L40.0361 151.3L58.928 132.914C69.3186 122.802 77.8199 114.381 77.8199 114.201ZM156.904 146.858C164.854 136.422 170.65 122.295 171.876 110.363L172.288 106.359H146.364H120.44L118.598 110.583L116.755 114.808L134.931 132.973C144.928 142.964 153.335 150.998 153.613 150.826C153.891 150.654 155.372 148.869 156.904 146.858V146.858ZM101.328 107.187C102.649 106.333 103.944 103.908 104.166 101.873C104.459 99.1832 103.924 97.7067 101.938 95.7222C100.151 93.937 99.2711 93.5437 97.0658 93.5437C93.5593 93.5437 90.9002 95.4396 89.9464 98.6197C87.8254 105.691 95.1327 111.192 101.328 107.187ZM75.2316 93.5858C75.5968 92.9042 75.8956 91.8211 75.8956 91.179C75.8956 90.5029 67.9653 82.0931 57.0572 71.2015L38.2189 52.3916L35.3075 56.4685C28.7543 65.6451 24.3064 76.2707 22.3664 87.3832C21.8203 90.5114 21.3735 93.4655 21.3735 93.948C21.3735 94.6763 25.8874 94.8252 47.9706 94.8252C73.6098 94.8252 74.5915 94.7805 75.2316 93.5858ZM171.834 90.8205C170.531 79.0289 164 62.8429 157.419 55.0991L155.514 52.8565L136.953 71.3529L118.393 89.8493L119.371 92.3373L120.349 94.8252H146.313H172.277L171.834 90.8205V90.8205ZM87.6018 79.2094L91.2901 77.4312V51.2076V24.9841H89.4836C84.2869 24.9841 73.6071 27.8353 65.9533 31.2661C60.6004 33.6655 52.1664 38.8932 48.3138 42.1998L46.0688 44.1266L64.6673 62.7491C74.8965 72.9915 83.4116 81.2853 83.5897 81.1797C83.7678 81.0741 85.5733 80.1875 87.6018 79.2094V79.2094ZM129.214 62.7C144.658 47.6769 147.618 44.515 146.969 43.7346C146.541 43.2195 144.59 41.5755 142.634 40.0812C132.25 32.1497 118.777 26.5699 106.845 25.259L102.836 24.8186V51.1209V77.4233L104.612 77.813C105.589 78.0274 107.249 78.7693 108.301 79.4616C109.352 80.1539 110.318 80.7223 110.446 80.7246C110.575 80.7272 119.021 72.6159 129.214 62.7Z" fill="#FCDD09" stroke="black" stroke-width="4.1"/>
<path d="M121.45 101.098C121.45 114.677 110.285 125.686 96.5119 125.686C82.7392 125.686 71.5742 114.677 71.5742 101.098C71.5742 87.5178 82.7392 76.5093 96.5119 76.5093C110.285 76.5093 121.45 87.5178 121.45 101.098Z" fill="#FCDD09" stroke="black" stroke-width="4.20128"/>
<path d="M105.258 101.233C105.258 105.931 101.471 109.74 96.799 109.74C92.1271 109.74 88.3398 105.931 88.3398 101.233C88.3398 96.5344 92.1271 92.7256 96.799 92.7256C101.471 92.7256 105.258 96.5344 105.258 101.233Z" fill="#DA1219" stroke="black" stroke-width="3.61712"/>
<path d="M172.462 100.803C172.462 142.984 138.52 177.178 96.6518 177.178C54.7831 177.178 20.8418 142.984 20.8418 100.803C20.8418 58.6217 54.7831 24.4272 96.6518 24.4272C138.52 24.4272 172.462 58.6217 172.462 100.803V100.803Z" stroke="black" stroke-width="4.1"/>
<path d="M159.789 64.248L176.474 55.9956L190.891 95.8014L176.636 145.316L160.437 136.902L170.784 107.674L173.416 107.695C173.833 102.966 173.614 98.2379 173.284 93.5095L170.564 93.4809L159.789 64.248Z" fill="#DA1219"/>
<path d="M161.693 139.329L173.032 145.195" stroke="black" stroke-width="4.9"/>
<path d="M173.537 55.7144L161.396 61.7231" stroke="black" stroke-width="4.9"/>
<path d="M122.554 213.593L106.518 246.926C93.8781 250.922 79.9883 254.025 76.064 264.24L50.1461 263.593C41.9388 260.754 40.059 269.488 50.3081 275.728C49.144 285.902 62.3753 285.871 74.1202 286.894C82.4605 286.885 89.4879 292.508 80.4377 303.075C64.5321 316.86 46.9222 328.891 58.2455 370.712C66.5328 337.888 87.7109 329.955 104.245 343.025C123.282 358.075 143.082 384.307 154.466 390.939C132.513 359.947 127.729 318.234 144.261 286.732C155.993 266.824 152.907 247.654 143.775 244.013C143.08 231.026 143.159 218.095 136.647 204.693C133.865 217.581 131.223 230.688 124.66 237.703C126.328 228.403 127.273 219.489 122.554 213.593V213.593Z" fill="#DA1219"/>
<path d="M148.78 388.361C146.506 386.473 137.479 377.538 128.719 368.506C111.345 350.591 102.948 343.092 97.6333 340.744C81.7407 333.723 66.613 345.808 59.9657 370.835C59.3301 373.228 58.6066 374.958 58.358 374.68C57.7725 374.023 55.396 363.368 54.4582 357.193C54.0526 354.523 53.866 348.972 54.0383 344.699C54.6573 329.348 59.895 319.855 74.9712 306.759C80.8526 301.65 82.8283 298.927 83.2286 295.38C83.4973 292.998 83.3124 292.528 81.5163 291.018C79.285 289.142 78.5751 288.984 67.9947 288.005C55.7398 286.871 50.8911 284.58 49.4527 279.244C49.0569 277.776 47.721 275.714 46.2099 274.24C42.0406 270.174 41.2591 265.405 44.4321 263.393C45.6258 262.635 48.3291 262.57 60.6182 263.002C74.0066 263.472 75.4239 263.422 75.9412 262.461C77.2891 259.957 83.39 254.84 87.2378 252.985C89.5309 251.88 94.4379 250.034 98.1422 248.884C101.846 247.734 105.213 246.476 105.623 246.088C106.033 245.701 109.881 238.031 114.174 229.045C118.466 220.058 122.196 212.48 122.461 212.204C122.727 211.928 123.909 213.599 125.087 215.919C127.09 219.859 127.227 220.537 127.18 226.258C127.153 229.625 127.347 232.135 127.61 231.834C128.814 230.461 131.325 222.799 133.455 213.998C135.081 207.279 136.074 204.319 136.746 204.188C137.396 204.061 138.442 205.617 139.977 208.994C144.079 218.021 145.77 226.528 145.554 237.054L145.423 243.461L147.921 246.052C151.604 249.873 152.982 254.249 152.955 262.043C152.927 270.27 151.784 274.454 146.482 285.75C138.086 303.637 136.295 311.329 136.338 329.321C136.364 340.135 136.595 343.186 137.818 348.864C140.678 362.146 146.287 376.17 152.648 385.947C155.209 389.883 155.576 391.794 153.771 391.794C153.3 391.794 151.054 390.249 148.78 388.361V388.361ZM144.929 377.301C137.72 362.929 134.212 348.932 133.627 332.204C133.014 314.677 135.302 303.943 143.402 286.346C149.352 273.418 150.425 269.61 150.338 261.722C150.265 255.151 149.14 250.979 146.758 248.445C144.932 246.504 144.509 246.599 143.986 249.068C142.658 255.337 133.823 267.229 131.762 265.521C131.02 264.905 131.437 264.151 134.168 261.167C138.282 256.672 141.417 250.25 142.435 244.229C143.46 238.165 142.861 226.302 141.216 220.074C139.63 214.073 137.522 209.149 137.101 210.463C136.932 210.992 135.88 214.884 134.764 219.113C132.441 227.911 129.927 233.698 126.394 238.373C123.314 242.447 116.6 245.97 105.753 249.205C88.5457 254.336 82.4601 257.461 78.9089 262.989L76.9009 266.114L65.2317 265.761C53.9953 265.42 53.4986 265.458 51.8448 266.778C50.9002 267.533 49.7917 269.166 49.3815 270.407C48.1215 274.221 48.8452 274.53 58.9273 274.485C71.2674 274.429 77.7829 275.583 88.6154 279.744C92.8357 281.365 93.4735 281.809 93.1815 282.925C92.9948 283.638 92.5192 284.08 92.1246 283.908C81.0572 279.08 71.4523 276.994 60.3863 277.015C56.0253 277.023 52.3104 277.176 52.131 277.356C51.3023 278.183 52.8383 281.11 54.7021 282.254C57.726 284.111 60.4962 284.72 70.4693 285.719C75.6055 286.234 80.2417 287.041 81.348 287.612C84.2722 289.123 85.9549 291.641 85.9549 294.507C85.9549 299.559 85.1213 300.665 71.5495 313.623C61.2019 323.502 57.1299 331.995 56.5914 344.822C56.4254 348.774 56.6334 354.382 57.0546 357.316C58.3512 366.348 58.2852 366.287 60.6479 360.626C61.8035 357.857 63.543 354.183 64.5134 352.461C66.8111 348.383 73.1198 341.675 76.5303 339.682C80.001 337.654 85.4628 336.049 88.8902 336.049C92.4721 336.049 99.1205 338.157 102.311 340.305C107.758 343.971 117.03 352.637 132.349 368.379C141.108 377.381 148.362 384.745 148.469 384.745C148.576 384.745 146.983 381.395 144.929 377.301V377.301ZM95.2557 268.208C94.5501 267.969 92.9095 267.232 91.61 266.571L89.2471 265.37L90.8306 263.296C94.9171 257.944 101.062 255.966 109.64 257.241L115.088 258.051L110.711 262.194C104.594 267.983 99.9358 269.795 95.2557 268.208V268.208ZM95.1098 264.243C94.8837 263.38 94.5449 263.137 94.1353 263.547C93.4713 264.21 93.9936 265.567 94.9128 265.567C95.2117 265.567 95.3004 264.971 95.1098 264.243ZM101.53 264.125C101.996 262.827 100.765 261.082 99.3823 261.082C97.9643 261.082 97.1631 262.482 97.7327 263.965C98.1787 265.126 101.126 265.251 101.53 264.125ZM107.04 262.128C109.374 259.722 108.964 259.16 104.874 259.16H102.731L103.686 261.074C104.212 262.126 104.462 263.28 104.241 263.637C103.346 265.083 105.079 264.149 107.04 262.128ZM115.867 242.851C122.684 239.444 123.625 238.16 124.416 231.191C125.08 225.336 124.513 219.249 123.181 217.919C122.809 217.547 121.379 219.852 119.417 223.983C117.677 227.648 114.775 233.758 112.97 237.561C111.165 241.364 109.688 244.608 109.688 244.769C109.688 245.535 111.823 244.872 115.867 242.851V242.851Z" fill="black"/>
<path d="M199.471 206.845C199.78 206.439 200.596 204.693 201.284 202.964C201.971 201.235 202.619 199.908 202.722 200.015C202.826 200.122 203.531 201.748 204.289 203.628C205.133 205.722 205.821 207.046 206.064 207.046C206.282 207.046 206.461 207.167 206.461 207.314C206.461 207.462 205.776 207.578 204.939 207.574C203.573 207.566 203.472 207.527 203.952 207.19C204.361 206.904 204.441 206.622 204.292 205.993C204.103 205.199 204.04 205.169 202.554 205.169C201.085 205.169 200.996 205.21 200.694 206.012C200.426 206.721 200.456 206.91 200.883 207.21C201.329 207.523 201.241 207.566 200.149 207.574L198.908 207.582L199.471 206.845V206.845ZM203.302 203.226C203.016 202.452 202.718 201.637 202.64 201.416C202.562 201.193 202.266 201.669 201.974 202.488C201.686 203.299 201.389 204.114 201.316 204.298C201.221 204.535 201.568 204.633 202.502 204.633H203.821L203.302 203.226V203.226Z" fill="black" fill-opacity="0.113208"/>
</g>
<defs>
<clipPath id="clip0_1_11097">
<rect width="600" height="400" fill="white"/>
</clipPath>
</defs>
</svg>
