<svg width="600" height="400" viewBox="0 0 600 400" fill="none" xmlns="http://www.w3.org/2000/svg" xmlns:cgf="https://coding.garden/flags"><metadata id="cgf-metadata">

<cgf:flag>
  <cgf:name>Noordwijk</cgf:name>
  <cgf:route>nl/zh/noordwijk</cgf:route>
  <cgf:aspect-ratio>1.5</cgf:aspect-ratio>
</cgf:flag>

</metadata><g clip-path="url(#clip0_1_11130)">
<path d="M600 0H0V400H600V0Z" fill="white"/>
<path d="M117.013 326.61L116.247 319.885C108.835 316.891 102.046 315.451 102.449 331.956C93.9155 338.373 99.4741 344.695 101.108 346.268C105.196 354.039 108.236 350.823 111.264 347.475C104.268 355.644 109.684 359.579 120.271 355.751C127.354 357.857 132.021 357.348 128.511 347.992L134.069 347.82C132.814 349.893 137.9 361.764 143.842 350.923C146.594 353.7 152.674 351.928 153.04 344.198C154.108 346.443 153.8 348.936 158.214 350.578C156.975 347.828 157.422 345.457 160.514 343.681C162.271 344.773 165.61 343.423 165.113 347.992C168.634 345.933 169.906 343.439 168.371 340.405C169.955 342.55 170.609 345.197 177.377 344.543C173.602 341.969 175.508 340.297 177.76 338.68C182.092 339.627 183.515 342.001 183.893 344.888C186.512 340.454 187.282 335.426 184.851 329.369C189.242 327.947 192.19 331.289 195.582 333.163C196.398 328.794 196.628 324.426 191.75 320.058C195.874 320.47 199.392 319.358 201.714 315.229C199.173 310.84 196.804 308.302 194.624 307.815C199.742 304.599 201.061 299.675 201.906 294.537C198.504 295.865 196.068 297.54 189.258 297.641C190.934 295.479 191.846 292.893 188.875 288.157C184.856 295.131 181.035 296.029 177.377 291.951C176.473 287.454 179.187 285.849 181.401 283.846C211.484 271.489 226.058 256.26 231.609 239.358L232.95 219.356L153.998 115.895C145.668 105.38 137.833 94.5302 123.912 87.7881C119.025 80.7663 114.241 73.7137 105.132 67.9581C100.884 63.015 97.3076 58.0719 89.6101 53.1288C84.2303 49.1756 85.2223 45.9391 85.3942 42.6101C94.558 39.708 98.9911 35.3032 83.8022 24.667L72.9383 36.7475L72.1513 39.0428C71.1848 38.1831 69.6379 38.2433 68.0279 39.2423C65.5259 42.7865 59.299 44.2112 60.5224 49.875L61.4403 49.8512C55.0549 47.6988 54.8452 53.8823 58.5659 65.3704C51.2197 75.2921 71.193 90.4738 74.4714 79.6824C74.0483 83.9505 73.7908 88.2256 68.1475 92.2701C71.3202 91.8299 73.852 90.236 76.0042 87.9592L74.8546 92.2701C77.4938 91.4751 79.6884 89.2126 81.5616 85.89C82.2886 96.5924 80.3672 103.38 77.5373 108.824C82.9397 108.159 87.4647 105.521 91.3348 101.409C91.2102 104.139 92.0329 106.655 89.0353 110.031C85.6984 114.514 86.8784 118.998 88.8436 123.481C89.8082 120.748 91.2861 118.293 94.7841 116.928C97.638 115.358 99.317 112.73 100.916 110.031C99.3618 113.065 98.5962 116.373 100.342 120.549C102.243 125.84 99.9114 128.989 97.8503 132.275C101.837 131.207 104.658 129.09 106.09 125.722C106.612 130.672 107.495 135.188 109.54 138.31L171.245 137.965L233.717 220.044L211.042 216.211L195.932 212.431L193.358 214.504L203.249 219.259C190.555 223.897 179.263 229.688 174.794 241.084C164.501 245.8 157.47 251.25 151.487 256.935C147.433 256.965 142.457 261.107 135.818 265.161C133.394 266.641 130.27 266.691 127.164 266.263C129.467 270.04 134.808 269.858 138.479 268.275C131.168 273.681 127.053 281.142 124.793 289.795L145.186 277.48C143.191 283.638 143.726 289.795 147.151 295.953C137.008 303.433 129.351 312.257 126.419 323.631C125.048 326.048 121.391 331.405 117.013 326.609V326.61Z" fill="#121212"/>
<path d="M202.769 219.27L209.763 223.839C209.236 231.916 221.122 234.838 223.081 222.632C224.458 229.987 226.719 236.888 229.884 243.324C224.273 255.999 213.711 267.119 197.115 276.345C217.296 257.058 206.446 224.386 174.503 241.082C179.93 230.483 190.483 224.155 202.769 219.27Z" fill="black"/>
<path d="M124.583 289.536L145.183 277.121L145.854 283.846C148.953 278.086 151.64 275.298 154.381 272.12C153.92 275.001 154.493 277.085 155.819 278.587C158.951 274.779 162.348 272.998 165.017 265.654C164.961 267.87 165.297 269.558 166.263 270.396L176.515 255.653L167.412 265.309C166.393 264.39 166.641 262.524 167.125 260.481C163.739 265.04 160.354 269.52 156.969 271.603L157.735 265.309C154.046 268.289 150.683 271.452 149.016 275.569L148.441 270.569C138.15 276.52 130.536 282.896 124.583 289.536V289.536Z" fill="black" stroke="black" stroke-width="0.0668734"/>
<path d="M174.407 303.935C181.766 308.777 182.601 313.778 180.539 318.85C185.451 314.217 186.165 307.276 174.407 303.935Z" fill="black" stroke="black" stroke-width="0.0668734"/>
<path fill-rule="evenodd" clip-rule="evenodd" d="M143.937 340.275C143.937 341.156 143.616 341.87 143.219 341.87C142.822 341.87 142.5 341.156 142.5 340.275C142.5 339.394 142.822 338.68 143.219 338.68C143.616 338.68 143.937 339.394 143.937 340.275Z" fill="black"/>
<path fill-rule="evenodd" clip-rule="evenodd" d="M147.052 337.042C147.052 337.923 146.73 338.637 146.333 338.637C145.936 338.637 145.614 337.923 145.614 337.042C145.614 336.161 145.936 335.447 146.333 335.447C146.73 335.447 147.052 336.161 147.052 337.042Z" fill="black"/>
<path fill-rule="evenodd" clip-rule="evenodd" d="M150.309 333.249C150.309 334.13 149.988 334.844 149.591 334.844C149.194 334.844 148.872 334.13 148.872 333.249C148.872 332.368 149.194 331.654 149.591 331.654C149.988 331.654 150.309 332.368 150.309 333.249Z" fill="black"/>
<path fill-rule="evenodd" clip-rule="evenodd" d="M153.184 330.059C153.184 330.94 152.863 331.654 152.466 331.654C152.069 331.654 151.747 330.94 151.747 330.059C151.747 329.178 152.069 328.464 152.466 328.464C152.863 328.464 153.184 329.178 153.184 330.059Z" fill="black"/>
<path fill-rule="evenodd" clip-rule="evenodd" d="M156.538 326.955C156.538 327.836 156.216 328.55 155.819 328.55C155.422 328.55 155.101 327.836 155.101 326.955C155.101 326.074 155.422 325.36 155.819 325.36C156.216 325.36 156.538 326.074 156.538 326.955Z" fill="black"/>
<path fill-rule="evenodd" clip-rule="evenodd" d="M160.657 324.282C160.657 325.163 160.335 325.877 159.938 325.877C159.541 325.877 159.22 325.163 159.22 324.282C159.22 323.401 159.541 322.687 159.938 322.687C160.335 322.687 160.657 323.401 160.657 324.282Z" fill="black"/>
<path fill-rule="evenodd" clip-rule="evenodd" d="M165.639 321.523C165.639 322.404 165.318 323.118 164.921 323.118C164.524 323.118 164.202 322.404 164.202 321.523C164.202 320.642 164.524 319.928 164.921 319.928C165.318 319.928 165.639 320.642 165.639 321.523Z" fill="black"/>
<path fill-rule="evenodd" clip-rule="evenodd" d="M169.855 318.678C169.855 319.559 169.533 320.273 169.137 320.273C168.74 320.273 168.418 319.559 168.418 318.678C168.418 317.797 168.74 317.083 169.137 317.083C169.533 317.083 169.855 317.797 169.855 318.678Z" fill="black"/>
<path fill-rule="evenodd" clip-rule="evenodd" d="M173.975 316.781C173.975 317.662 173.654 318.376 173.257 318.376C172.86 318.376 172.538 317.662 172.538 316.781C172.538 315.9 172.86 315.186 173.257 315.186C173.654 315.186 173.975 315.9 173.975 316.781Z" fill="black"/>
<path d="M101.204 332.903C104.325 332.18 107.366 330.582 110.977 335.145C113.141 338.605 115.683 339.512 118.355 339.542" stroke="black" stroke-width="0.541675" stroke-linecap="round"/>
<path d="M61.0547 50.0342C64.0949 50.9976 67.6096 51.1942 67.7839 56.7941C67.4397 60.7517 68.9892 62.7794 71.1898 64.1438" stroke="black" stroke-width="0.541675" stroke-linecap="round"/>
<path d="M71.8701 39.2988C74.5507 40.9098 77.9016 41.8834 76.5295 47.3476C75.1067 51.1053 76.0499 53.415 77.8064 55.2272" stroke="black" stroke-width="0.541675" stroke-linecap="round"/>
<path fill-rule="evenodd" clip-rule="evenodd" d="M82.5159 74.1634C82.5159 75.1735 82.1823 75.9924 81.7707 75.9924C81.3591 75.9924 81.0254 75.1735 81.0254 74.1634C81.0254 73.1533 81.3591 72.3345 81.7707 72.3345C82.1823 72.3345 82.5159 73.1533 82.5159 74.1634Z" fill="black"/>
<path fill-rule="evenodd" clip-rule="evenodd" d="M85.429 76.724C85.429 77.7341 85.0954 78.5529 84.6837 78.5529C84.2722 78.5529 83.9385 77.7341 83.9385 76.724C83.9385 75.7139 84.2722 74.895 84.6837 74.895C85.0954 74.895 85.429 75.7139 85.429 76.724Z" fill="black"/>
<path fill-rule="evenodd" clip-rule="evenodd" d="M87.1907 79.0409C87.1907 80.051 86.8571 80.8698 86.4455 80.8698C86.0339 80.8698 85.7002 80.051 85.7002 79.0409C85.7002 78.0308 86.0339 77.2119 86.4455 77.2119C86.8571 77.2119 87.1907 78.0308 87.1907 79.0409Z" fill="black"/>
<path fill-rule="evenodd" clip-rule="evenodd" d="M89.765 82.4549C89.765 83.465 89.4313 84.2839 89.0197 84.2839C88.6081 84.2839 88.2744 83.465 88.2744 82.4549C88.2744 81.4448 88.6081 80.626 89.0197 80.626C89.4313 80.626 89.765 81.4448 89.765 82.4549Z" fill="black"/>
<path fill-rule="evenodd" clip-rule="evenodd" d="M92.3401 85.6249C92.3401 86.6349 92.0065 87.4538 91.5949 87.4538C91.1833 87.4538 90.8496 86.6349 90.8496 85.6249C90.8496 84.6148 91.1833 83.7959 91.5949 83.7959C92.0065 83.7959 92.3401 84.6148 92.3401 85.6249Z" fill="black"/>
<path fill-rule="evenodd" clip-rule="evenodd" d="M94.6429 87.9418C94.6429 88.9518 94.3092 89.7707 93.8976 89.7707C93.486 89.7707 93.1523 88.9518 93.1523 87.9418C93.1523 86.9316 93.486 86.1128 93.8976 86.1128C94.3092 86.1128 94.6429 86.9316 94.6429 87.9418Z" fill="black"/>
<path fill-rule="evenodd" clip-rule="evenodd" d="M97.7601 92.2093C97.7601 93.2194 97.4264 94.0383 97.0148 94.0383C96.6032 94.0383 96.2695 93.2194 96.2695 92.2093C96.2695 91.1992 96.6032 90.3804 97.0148 90.3804C97.4264 90.3804 97.7601 91.1992 97.7601 92.2093Z" fill="black"/>
<path fill-rule="evenodd" clip-rule="evenodd" d="M99.928 95.6234C99.928 96.6335 99.5944 97.4523 99.1828 97.4523C98.7712 97.4523 98.4375 96.6335 98.4375 95.6234C98.4375 94.6133 98.7712 93.7944 99.1828 93.7944C99.5944 93.7944 99.928 94.6133 99.928 95.6234Z" fill="black"/>
<path fill-rule="evenodd" clip-rule="evenodd" d="M102.502 98.6717C102.502 99.6818 102.169 100.501 101.757 100.501C101.345 100.501 101.012 99.6818 101.012 98.6717C101.012 97.6616 101.345 96.8428 101.757 96.8428C102.169 96.8428 102.502 97.6616 102.502 98.6717Z" fill="black"/>
<path fill-rule="evenodd" clip-rule="evenodd" d="M105.89 102.939C105.89 103.949 105.556 104.768 105.145 104.768C104.733 104.768 104.399 103.949 104.399 102.939C104.399 101.929 104.733 101.11 105.145 101.11C105.556 101.11 105.89 101.929 105.89 102.939Z" fill="black"/>
<path d="M141.545 201.519C156.771 214.563 176.011 211.096 194.662 210.054C204.447 213.408 215.411 219.669 223.66 219.077C224.924 229.816 228.367 239.684 234.229 248.584C231.727 252.055 229.27 255.586 231.261 265.347C233.797 282.051 229.051 285.651 226.37 292.966L232.603 288.333C229.206 297.544 233.896 306.513 241.275 315.401L247.238 288.821C249.432 293.229 260.957 301.029 266.75 286.382C264.939 294.192 264.5 302.073 275.151 310.524C284.606 319.673 290.351 327.297 290.869 332.77C293.366 335.806 285.874 342.5 285.503 334.495C288.458 327.955 273.569 326.962 269.597 332.943L272.089 343.634L274.005 345.013C272.447 346.738 268.202 347.363 270.172 350.531L278.029 357.946C279.915 358.235 281.057 357.186 281.862 355.532C267.25 371.733 309.903 372.079 297.576 357.429C300.327 357.038 302.897 356.224 303.516 350.876C306.761 356.71 325.775 350.15 319.805 340.013L319.996 335.529C324.953 334.535 329.335 335.391 333.027 338.461C333.44 325.596 326.127 325.09 320.379 322.079C322.791 320.68 326.094 321.045 329.386 321.39C327.238 317.205 324.376 313.555 321.146 310.181C323.657 311.34 325.659 311.278 327.087 309.836C330.1 308.797 332.861 311.834 335.71 313.458C333.543 305.126 329.974 298.523 321.529 297.938C324.092 297.282 325.372 293.31 326.512 288.972C322.889 290.947 319.159 292.464 314.822 291.386C320.727 283.391 326.84 281.621 333.027 282.074C328.625 274.671 323.307 271.664 316.739 274.66C321.28 269.876 319.264 265.325 314.631 260.865C313.746 264.618 311.945 266.723 309.073 266.9C302.803 266.418 301.846 269.43 300.067 271.901C300.981 266.798 292.836 259.7 286.269 264.141C294.206 280.022 279.744 276.882 275.921 271.728C274.262 267.942 273.878 263.434 277.071 256.899C280.988 258.06 286.939 262.936 285.12 253.623C288.698 253.947 296.635 259.551 291.635 249.484C299.796 254.034 301.549 252.548 298.15 246.208C304.475 247.435 309.516 247.315 304.091 236.207C315.642 224.661 320.34 210.649 308.498 190.684C299.26 172.019 285.833 154.381 283.778 133.953C290.372 132.994 295.69 130.049 295.659 118.779C296.155 112.149 298.248 106.162 307.157 102.915C300.977 102.222 296.041 103.682 292.21 107.053C295.527 102.202 299.376 97.3886 298.342 92.224C298.398 82.8943 301.448 75.0842 311.565 80.4985C309.059 69.166 293.423 71.1243 291.252 79.4637C282.057 71.9099 262.156 89.4155 264.232 111.364C261.644 108.843 257.839 107.491 252.542 107.571C254.054 109.6 255.609 110.658 256.95 116.537C259.724 125.486 263.174 133.694 273.238 134.643C271.254 152.262 278.718 165.63 286.652 178.786C285.259 178.168 282.944 177.485 277.071 176.545C270.206 176.054 266.396 172.815 262.124 169.992C266.721 177.547 269.93 185.995 283.012 188.098C291.131 190.084 299.456 198.675 300.833 207.065C297.173 204.536 296.671 200.94 287.802 200.168C282.049 199.637 278.011 197.047 274.963 193.271C274.282 198.932 277.01 204.072 285.886 208.272C304.413 220.861 293.001 235.655 276.688 232.068C263.807 229.528 257.352 222.119 251.201 214.48C234.29 187.713 223.452 165.991 213.066 144.644L147.507 170.305L141.545 201.519Z" fill="#121212"/>
<path d="M241.314 315.653C243.264 305.9 246.514 290.004 246.644 288.848L251.036 291.912C248.6 287.007 247.849 283.895 246.877 280.548C248.488 282.326 249.981 283.048 251.386 283.002C250.167 279.086 250.294 276.055 246.725 270.597C248.072 271.778 249.235 272.443 250.1 272.277L244.702 258.281L247.376 268.931C246.441 269.088 245.379 267.968 244.293 266.611C245.885 271.073 247.428 275.493 247.491 278.674L243.884 274.941C244.392 278.774 245.13 282.499 247.069 285.665L243.775 283.434C243.735 292.905 239.364 308.521 241.314 315.653Z" fill="black" stroke="black" stroke-width="0.0504882"/>
<path d="M234.014 277.166C232.352 288.951 242.607 289.856 242.561 277.175C240.833 285.09 235.551 287.663 234.014 277.166Z" fill="black" stroke="black" stroke-width="0.0668734"/>
<path d="M291.099 287.326C299.327 283.793 304.616 285.503 308.6 289.542C306.396 283.454 299.943 279.596 291.099 287.326Z" fill="black" stroke="black" stroke-width="0.0668734"/>
<path fill-rule="evenodd" clip-rule="evenodd" d="M312.205 328.698C313.067 329.116 313.613 329.709 313.425 330.024C313.237 330.338 312.385 330.254 311.523 329.836C310.662 329.419 310.115 328.825 310.304 328.511C310.492 328.196 311.343 328.28 312.205 328.698Z" fill="black"/>
<path fill-rule="evenodd" clip-rule="evenodd" d="M310.519 324.698C311.38 325.116 311.927 325.709 311.738 326.024C311.55 326.338 310.699 326.254 309.837 325.836C308.975 325.419 308.429 324.825 308.617 324.511C308.805 324.196 309.657 324.28 310.519 324.698Z" fill="black"/>
<path fill-rule="evenodd" clip-rule="evenodd" d="M308.352 320.318C309.213 320.736 309.76 321.329 309.571 321.644C309.383 321.958 308.532 321.874 307.67 321.457C306.808 321.039 306.262 320.445 306.45 320.131C306.638 319.816 307.49 319.9 308.352 320.318Z" fill="black"/>
<path fill-rule="evenodd" clip-rule="evenodd" d="M306.594 316.528C307.456 316.946 308.002 317.539 307.814 317.854C307.625 318.168 306.774 318.084 305.912 317.667C305.05 317.249 304.504 316.655 304.692 316.341C304.881 316.026 305.732 316.11 306.594 316.528Z" fill="black"/>
<path fill-rule="evenodd" clip-rule="evenodd" d="M305.147 312.399C306.009 312.817 306.555 313.41 306.367 313.725C306.179 314.039 305.328 313.955 304.466 313.538C303.604 313.12 303.058 312.526 303.246 312.212C303.434 311.898 304.286 311.981 305.147 312.399Z" fill="black"/>
<path fill-rule="evenodd" clip-rule="evenodd" d="M304.486 307.868C305.348 308.285 305.894 308.879 305.706 309.193C305.518 309.508 304.667 309.424 303.805 309.006C302.943 308.589 302.397 307.995 302.585 307.681C302.773 307.366 303.624 307.45 304.486 307.868Z" fill="black"/>
<path fill-rule="evenodd" clip-rule="evenodd" d="M304.149 302.612C305.011 303.03 305.557 303.624 305.369 303.938C305.181 304.253 304.33 304.169 303.468 303.751C302.606 303.333 302.06 302.74 302.248 302.425C302.436 302.111 303.288 302.195 304.149 302.612Z" fill="black"/>
<path fill-rule="evenodd" clip-rule="evenodd" d="M303.365 297.923C304.227 298.341 304.773 298.934 304.585 299.249C304.397 299.563 303.546 299.479 302.684 299.062C301.822 298.644 301.276 298.05 301.464 297.736C301.652 297.421 302.503 297.505 303.365 297.923Z" fill="black"/>
<path fill-rule="evenodd" clip-rule="evenodd" d="M303.463 293.76C304.325 294.178 304.871 294.771 304.683 295.086C304.494 295.4 303.643 295.316 302.781 294.898C301.919 294.481 301.373 293.887 301.561 293.573C301.75 293.258 302.601 293.342 303.463 293.76Z" fill="black"/>
<path d="M273.866 345.226C276.522 343.582 278.769 341.142 283.901 344.313C287.253 346.894 289.986 346.961 292.508 346.164" stroke="black" stroke-width="0.541675" stroke-linecap="round"/>
<path d="M273.39 247.364C287.439 246.075 295.266 240.587 303.742 235.537C296.166 241.29 289.35 247.584 273.39 247.364Z" fill="black" stroke="black" stroke-width="0.0668734"/>
<path d="M261.357 117.831C263.15 122.084 265.899 126.482 270.748 131.194C261.675 126.047 261.912 120.787 261.357 117.831Z" fill="#333333"/>
<path d="M268.256 118.477C269.353 122.072 271.037 125.789 274.005 129.771C268.45 125.421 268.595 120.976 268.256 118.477Z" fill="#333333"/>
<path d="M290.773 118.305C288.98 122.559 286.231 126.956 281.383 131.668C290.455 126.521 290.218 121.261 290.773 118.305Z" fill="#333333"/>
<path d="M284.521 120.338C283.156 123.796 281.061 127.371 277.367 131.202C284.279 127.017 284.099 122.741 284.521 120.338Z" fill="#333333"/>
<path d="M275.868 130.238C275.406 126.591 275.542 122.551 276.989 117.65C272.824 124.142 275.074 127.912 275.868 130.238Z" fill="#333333"/>
<path d="M291.348 79.4635C288.122 89.047 285.477 95.6619 283.012 101.363C282.73 92.2517 286.799 85.4044 289.048 78.3428L291.348 79.4635Z" fill="black" stroke="black" stroke-width="0.0668734"/>
<path d="M215.665 205.177C219.703 210.295 224.404 215.642 223.931 219.199C224.822 228.429 225.837 237.69 234.5 248.828C230.039 238.773 226.649 228.773 226.912 218.955C225.037 212.435 219.888 209.282 215.665 205.177V205.177Z" fill="#333333"/>
<path d="M140.63 202.237L147.146 171.199L213.067 145.334C223.861 167 234.517 187.727 244.302 202.582C210.877 155.745 169.819 181.512 195.436 210.17C172.608 212.141 151.354 212.519 140.63 202.237Z" fill="black" fill-opacity="0.490566"/>
<path d="M148.482 258.06C138.453 265.786 145.375 272.654 154.806 263.233C147.618 268.053 141.783 266.766 148.482 258.06Z" fill="black" stroke="black" stroke-width="0.0668734"/>
<path d="M142.587 168.605C128.062 171.447 110.02 186.718 102.536 201.713L86.0559 217.922C80.2872 220.398 72.7819 231.73 69.7674 220.163C80.3169 208.178 38.5205 210.598 60.7607 226.888C57.0219 229.03 50.8245 228.308 50.9875 234.993C55.4103 238.804 58.721 245.825 66.1264 241.028C58.8728 244.639 55.5059 254.586 71.3004 254.133C82.5121 260.257 82.8056 250.672 82.0317 244.477C87.9684 252.255 102.991 249.539 103.111 239.648C106.378 240.445 107.318 243.22 105.986 247.925C109.046 246.286 109.083 242.42 109.435 238.786C112.809 239.826 114.94 241.425 115.759 243.614C117.775 240.595 117.445 237.899 116.142 235.338C120.322 236.835 123.916 238.767 123.807 243.442C130.826 235.106 126.981 229.533 122.466 224.13C126.741 225.253 130.925 225.794 135.688 229.992C136.468 228.117 135.717 225.651 134.73 223.095C142.588 224.882 144.78 227.595 146.803 230.337C147.732 225.389 147.558 220.242 144.887 214.646C148.558 216.363 153.004 216.918 158.301 216.197C154.103 212.588 151.736 206.672 149.294 200.851C152.615 204.075 156.786 202.327 160.792 201.541C154.981 199.495 153.995 196.427 154.277 193.091C154.783 190.218 158.551 188.9 165.2 188.953C163.506 184.624 160.3 181.446 153.702 180.848C153.777 179.081 157.175 177.645 160.409 176.193C155.447 169.611 149.353 167.72 142.587 168.605V168.605Z" fill="#121212"/>
<path fill-rule="evenodd" clip-rule="evenodd" d="M106.56 226.823C106.56 228.372 106.196 229.627 105.747 229.627C105.298 229.627 104.934 228.372 104.934 226.823C104.934 225.274 105.298 224.019 105.747 224.019C106.196 224.019 106.56 225.274 106.56 226.823Z" fill="#1A1A1A"/>
<path fill-rule="evenodd" clip-rule="evenodd" d="M111.98 223.531C111.98 225.08 111.616 226.335 111.167 226.335C110.718 226.335 110.354 225.08 110.354 223.531C110.354 221.982 110.718 220.727 111.167 220.727C111.616 220.727 111.98 221.982 111.98 223.531Z" fill="#1A1A1A"/>
<path fill-rule="evenodd" clip-rule="evenodd" d="M115.503 220.361C115.503 221.909 115.139 223.165 114.69 223.165C114.241 223.165 113.877 221.909 113.877 220.361C113.877 218.812 114.241 217.556 114.69 217.556C115.139 217.556 115.503 218.812 115.503 220.361Z" fill="#1A1A1A"/>
<path fill-rule="evenodd" clip-rule="evenodd" d="M118.62 216.825C118.62 218.374 118.256 219.629 117.807 219.629C117.358 219.629 116.994 218.374 116.994 216.825C116.994 215.276 117.358 214.021 117.807 214.021C118.256 214.021 118.62 215.276 118.62 216.825Z" fill="#1A1A1A"/>
<path fill-rule="evenodd" clip-rule="evenodd" d="M122.278 213.167C122.278 214.715 121.914 215.971 121.465 215.971C121.016 215.971 120.652 214.715 120.652 213.167C120.652 211.618 121.016 210.362 121.465 210.362C121.914 210.362 122.278 211.618 122.278 213.167Z" fill="#1A1A1A"/>
<path fill-rule="evenodd" clip-rule="evenodd" d="M126.75 209.387C126.75 210.936 126.386 212.191 125.937 212.191C125.488 212.191 125.124 210.936 125.124 209.387C125.124 207.838 125.488 206.583 125.937 206.583C126.386 206.583 126.75 207.838 126.75 209.387Z" fill="#1A1A1A"/>
<path fill-rule="evenodd" clip-rule="evenodd" d="M131.628 204.998C131.628 206.547 131.264 207.802 130.815 207.802C130.366 207.802 130.002 206.547 130.002 204.998C130.002 203.449 130.366 202.193 130.815 202.193C131.264 202.193 131.628 203.449 131.628 204.998Z" fill="#1A1A1A"/>
<path fill-rule="evenodd" clip-rule="evenodd" d="M135.693 201.34C135.693 202.888 135.329 204.144 134.88 204.144C134.431 204.144 134.067 202.888 134.067 201.34C134.067 199.791 134.431 198.535 134.88 198.535C135.329 198.535 135.693 199.791 135.693 201.34Z" fill="#1A1A1A"/>
<path fill-rule="evenodd" clip-rule="evenodd" d="M140.029 197.804C140.029 199.353 139.665 200.608 139.216 200.608C138.767 200.608 138.403 199.353 138.403 197.804C138.403 196.255 138.767 195 139.216 195C139.665 195 140.029 196.255 140.029 197.804Z" fill="#1A1A1A"/>
<path d="M57.5 228.147C60.4884 227.435 63.3507 226.089 67.1029 229.209C69.3911 231.608 71.9067 232.121 74.5003 231.986" stroke="black" stroke-width="0.541675" stroke-linecap="round"/>
<path d="M295.193 376.112C290.505 375.195 287.061 370.485 287.232 365.222L287.278 363.809L288.001 363.487C289.807 362.679 292.981 362.733 294.953 363.605C296.524 364.299 296.556 364.389 296.006 366.642C295.593 368.333 295.546 368.792 295.55 371.034C295.559 373.64 295.634 374.038 296.482 375.791C296.789 376.424 296.789 376.424 295.193 376.112L295.193 376.112ZM124.435 366.808C120.133 365.766 117.209 361.982 116.962 357.14C116.915 356.226 116.926 355.124 116.987 354.691C117.092 353.932 117.12 353.895 117.763 353.656C118.652 353.326 121.43 353.197 122.596 353.432C124.051 353.724 125.591 354.457 126.035 355.067C126.262 355.378 126.244 355.511 125.807 356.817C124.494 360.741 124.297 363.629 125.185 365.951C125.654 367.178 125.708 367.117 124.435 366.808H124.435ZM270.857 365.003C268.815 362.544 268.426 359.651 269.691 356.347C270.326 354.69 271.35 353.146 272.638 351.902C273.699 350.878 273.759 350.843 274.308 350.935C275.314 351.103 276.751 351.904 277.897 352.936C279.151 354.065 279.895 355.247 280.006 356.284L280.079 356.966L278.431 358.046C274.82 360.415 272.758 362.608 271.938 364.954C271.828 365.269 271.682 365.581 271.614 365.647C271.546 365.714 271.206 365.424 270.856 365.003H270.857ZM140.608 362.774C140.608 362.709 140.761 362.271 140.948 361.802C141.196 361.177 141.306 360.488 141.36 359.232C141.445 357.262 141.148 355.656 140.19 352.911C139.658 351.387 139.645 351.295 139.895 350.952C140.23 350.491 141.421 349.811 142.414 349.513C144.358 348.93 146.865 348.944 148.24 349.546C148.904 349.837 149.012 350.216 149.026 352.313C149.056 357.06 146.473 361.044 142.435 362.474C141.624 362.761 140.608 362.928 140.608 362.774V362.774ZM312.796 361.478C312.796 361.403 312.911 361.06 313.051 360.716C313.207 360.334 313.338 359.421 313.388 358.373C313.487 356.263 313.226 354.878 312.218 352.158C311.796 351.02 311.541 350.104 311.594 349.914C311.727 349.438 312.885 348.665 314.147 348.21C315.609 347.683 318.436 347.557 319.712 347.963L320.507 348.216L320.716 349.288C320.986 350.678 320.862 353.015 320.437 354.51C319.75 356.931 318.08 359.255 316.238 360.356C314.983 361.105 312.796 361.818 312.796 361.478V361.478ZM99.6974 354.761C97.312 351.651 97.7818 347.185 100.894 343.388C101.809 342.271 103.645 340.705 104.038 340.705C104.716 340.705 106.274 341.609 107.343 342.621C108.684 343.892 109.436 345.171 109.559 346.392L109.646 347.246L107.858 348.215C103.808 350.41 101.661 352.308 100.613 354.617C100.443 354.991 100.261 355.296 100.207 355.297C100.153 355.297 99.9241 355.056 99.6977 354.761H99.6974ZM263.523 346.962C262.835 345.334 262.788 343.368 263.397 341.666C264.434 338.769 267.086 336.182 270.553 334.684L271.934 334.089L272.649 334.616C274.75 336.165 276.17 339.756 275.365 341.488C275.122 342.011 275.252 341.961 272.611 342.559C268.748 343.435 265.818 344.879 264.223 346.694L263.674 347.319L263.523 346.962V346.962ZM92.2752 330.792C92.2752 329.522 93.2958 327.529 94.5908 326.27C96.8533 324.071 100.002 322.882 103.985 322.723L106.077 322.639L106.345 323.106C106.878 324.034 107.101 325.021 107.089 326.398C107.069 328.43 106.534 329.924 105.516 330.776L105.157 331.077L103.526 330.755C100.61 330.179 99.5452 330.076 97.3287 330.155C95.2372 330.229 93.9791 330.477 92.7124 331.066C92.2776 331.268 92.2752 331.267 92.2752 330.791V330.792ZM71.409 265C68.1 263.384 66.2117 259.565 66.6852 255.446C66.8732 253.81 67.2143 252.584 67.7613 251.576L68.1881 250.789L69.2215 250.741C71.653 250.631 74.556 251.783 75.9148 253.397C76.1637 253.693 76.3694 254.076 76.3718 254.248C76.3718 254.42 75.835 255.366 75.1737 256.35C73.1111 259.418 72.3453 261.456 72.3308 263.914C72.3219 264.76 72.3219 265.45 72.3219 265.448C72.3219 265.448 71.9111 265.244 71.4089 264.998L71.409 265ZM96.9794 255.975C97.0415 255.798 97.0868 255.021 97.0774 254.248C97.0487 251.904 96.3399 249.925 94.4097 246.802C93.4412 245.235 93.3772 245.078 93.5515 244.699C94.0115 243.7 96.198 242.366 98.1106 241.917C99.0549 241.696 101.438 241.629 101.762 241.815C102.052 241.981 102.568 243.279 102.86 244.577C103.061 245.468 103.107 246.231 103.05 247.7C102.967 249.85 102.59 251.17 101.614 252.72C100.942 253.787 99.2436 255.275 98.056 255.836C96.8953 256.384 96.8303 256.392 96.9793 255.975L96.9794 255.975ZM54.6472 248.811C53.7017 247.88 52.9396 246.625 52.5805 245.408C52.192 244.09 52.2344 241.685 52.6715 240.202C53.1011 238.747 54.3599 236.44 55.3118 235.363C56.0412 234.537 56.0545 234.53 56.7123 234.619C57.0775 234.669 57.9781 234.972 58.7139 235.293C60.8661 236.231 62.7087 238.107 62.9653 239.621C63.0344 240.026 62.8895 240.186 61.0716 241.726C58.012 244.317 56.4847 246.336 55.9058 248.555C55.7599 249.115 55.591 249.573 55.5306 249.573C55.4695 249.573 55.0723 249.23 54.6466 248.811H54.6472ZM49.8921 226.209C49.6855 225.373 49.7702 223.487 50.0542 222.605C50.7117 220.561 52.4788 218.43 54.6981 217.005C55.914 216.224 57.9992 215.338 59.3642 215.021L60.3976 214.781L61.0497 215.429C62.2612 216.632 63.015 218.559 63.0178 220.459C63.0178 221.01 62.9467 221.686 62.8577 221.961C62.5465 222.928 62.4706 222.96 59.9519 223.187C55.8523 223.556 53.1199 224.398 50.9881 225.95L50.0049 226.666L49.8922 226.209H49.8921ZM152.215 89.2418C149.594 88.9903 146.644 88.2107 144.168 87.1154C139.955 85.2515 137.154 82.5644 135.786 79.0721C135.336 77.9231 135.297 77.677 135.298 75.9645C135.298 74.2429 135.337 74.0036 135.815 72.7456C136.573 70.7511 137.46 69.4283 138.948 68.0777C139.979 67.142 140.491 66.8023 141.571 66.3381C143.205 65.636 144.154 65.4486 146.062 65.4515C147.905 65.4515 149.244 65.734 150.873 66.4571C153.397 67.5778 154.989 69.4857 154.886 71.2664C154.84 72.062 154.819 72.1 154.441 72.0652C152.006 71.8417 150.691 72.0993 149.846 72.9655C148.226 74.6256 149.102 78.0032 151.669 79.9976C153.146 81.1452 155.142 81.9479 156.927 82.1131C157.61 82.1769 191.926 82.9015 194.295 82.9029C194.581 82.9029 194.897 83.3536 196.168 85.569C197.009 87.0352 197.66 88.268 197.615 88.3086C197.57 88.3492 189.321 88.5287 179.286 88.7074C169.25 88.8862 160.073 89.1031 158.892 89.1892C156.883 89.336 153.475 89.3628 152.215 89.2418V89.2418ZM58.9666 82.3169C57.5277 82.1326 55.9466 81.6337 54.9398 81.0464C54.0646 80.5357 52.2095 78.8756 52.2095 78.6029C52.2095 78.5292 52.5509 78.4681 52.9679 78.4681C55.3881 78.4681 58.6595 76.9697 62.0145 74.3244C63.6819 73.0097 63.9783 72.9382 65.0964 73.5814C67.0994 74.7335 68.9042 77.4815 68.9032 79.3773C68.9032 79.92 68.8456 80.0023 68.2275 80.3485C66.355 81.3968 64.2156 82.0713 61.9875 82.316C60.3997 82.4903 60.3213 82.4903 58.9666 82.316V82.3169ZM45.0576 63.4822C45.0755 59.4802 48.6119 55.8795 53.8742 54.5095C54.6587 54.3055 55.8033 54.1019 56.418 54.0574L57.5356 53.9765L57.9598 54.5981C58.7895 55.8141 59.0984 56.9236 59.109 58.7248C59.1179 60.1416 59.0697 60.4688 58.7583 61.0801C58.1177 62.3427 58.3265 62.284 54.7823 62.1981C52.239 62.1364 51.3851 62.1678 50.2222 62.3656C48.6398 62.6345 47.1096 63.1374 45.9914 63.7559C45.5882 63.979 45.2124 64.1613 45.1566 64.1613C45.1001 64.1613 45.0562 63.8555 45.0578 63.4818L45.0576 63.4822ZM63.1003 46.1248C60.0167 43.6583 57.266 42.32 54.5537 41.9672L53.1869 41.7893L53.6921 41.1534C54.7837 39.7781 56.596 38.7713 58.9405 38.2377C62.0004 37.5412 66.6845 38.3995 69.432 40.16C69.8905 40.4537 69.8975 40.4777 69.8073 41.4474C69.6235 43.4204 67.6948 46.083 65.8506 46.91C65.3967 47.1136 64.9141 47.2776 64.7784 47.2747C64.6426 47.2747 63.8873 46.7542 63.1003 46.1247V46.1248ZM74.7863 34.6827C71.2076 31.7085 68.5631 30.4266 65.207 30.0391C64.7917 29.991 64.4519 29.9043 64.4519 29.8462C64.4519 29.5933 66.1151 28.0937 66.9462 27.5971C67.4467 27.2983 68.4673 26.8601 69.2145 26.6231C70.4576 26.2294 70.7485 26.1927 72.6399 26.1929C75.5526 26.1929 77.7099 26.7227 80.0726 28.0167C81.2947 28.6862 81.3306 28.7856 80.8961 30.295C80.2038 32.699 77.944 35.1235 76.1911 35.3432C75.7278 35.4013 75.55 35.3173 74.7863 34.6828V34.6827Z" fill="#FF0000"/>
<path d="M221.265 27.6675C220.398 35.8311 212.614 36.318 204.21 36.1167C195.612 36.1877 188.2 37.4166 185.43 43.1865C182.54 43.2503 180.142 42.7985 174.315 45.9456C166.982 44.5949 163.248 49.0832 167.225 50.7736C164.783 58.8328 168.477 66.1392 171.441 73.5351C182.367 69.8087 188.492 71.3991 189.454 78.7081C197.891 91.4263 185.381 95.055 182.172 87.847C180.95 91.2269 179.08 93.7326 174.315 92.3306C169.643 91.3862 163.016 94.741 168.183 104.401C170.228 99.8226 175.152 99.2751 181.789 101.125L185.621 106.125C174.818 111.144 162.617 119.9 160.134 102.676C146.561 104.062 146.649 113.912 148.828 119.058C145.92 111.45 141.026 112.775 135.989 114.747C129.614 116.104 119.646 116.858 119.125 104.573C105.014 116.923 116.698 132.09 131.965 124.921C126.417 125.851 120.656 126.952 111.46 130.783C100.567 134.987 90.2007 141.186 75.625 131.473C78.8258 150.532 91.5443 151.335 105.328 150.096C95.7022 154.694 87.6826 165.843 75.8168 161.304C82.4351 177.083 93.6015 172.593 105.519 164.753C96.851 173.475 98.7902 184.785 105.136 197.171L127.557 175.271C127.219 179.301 125.512 182.357 131.443 188.303C133.794 190.66 131.156 194.528 135.989 199.068C136.389 193.882 138.794 189.024 144.804 184.755C158.832 177.581 169.556 169.205 171.632 157.683C170.357 164.753 170.223 171.823 175.273 178.893C175.264 174.713 175.203 170.536 179.681 166.132C178.124 173.811 179.98 179.711 188.113 182.341C185.83 177.806 187.257 173.663 189.262 169.581C193.734 163.948 194.807 158.315 195.778 152.682C196.643 160.483 199.325 168.103 204.784 175.444C204.735 171.528 203.963 167.678 206.317 163.546C208.45 170.594 209.688 178.366 223.948 175.616C215.297 168.917 211.945 160.402 219.349 148.199L232.763 126.128L240.236 134.749L242.344 105.263C247.01 98.2631 249.849 90.7998 244.644 81.2948C246.922 83.7462 249.52 85.9862 255.567 85.9504C252.788 81.7977 252.228 76.6465 252.501 71.121C252.746 67.6813 252.614 64.0901 250.584 59.7402C257.365 62.2518 259.647 57.8227 261.124 52.1531C258.197 53.9473 254.853 53.1174 251.159 50.084C248.437 47.5238 245.68 45.1434 242.536 44.7386C242.988 41.537 245.556 38.412 240.045 34.9959C238.073 32.6272 237.84 30.7281 238.416 29.0471C236.723 30.9015 235.03 32.2762 233.337 32.7543C229.928 33.7601 228.562 34.766 227.684 35.772C228.291 34.079 228.233 30.1561 221.265 27.6675V27.6675Z" fill="#121212"/>
<path d="M135.531 198.453C134.824 197.765 134.277 196.927 134.277 196.533C134.277 195.837 134.747 193.719 135.167 192.522C136.031 190.06 137.472 187.817 139.566 185.674C141.268 183.931 142.894 182.771 145.883 181.166C155.337 176.088 161.894 170.827 165.776 165.203C167.408 162.839 168.843 159.784 169.501 157.276C169.65 156.706 169.702 156.61 169.654 156.99C169.33 159.566 169.245 160.558 169.185 162.469L169.116 164.658L168.372 165.903C164.794 171.887 157.814 177.667 147.394 183.277C143.731 185.249 141.405 187.171 139.404 189.878C137.596 192.324 136.718 194.506 136.069 198.167L135.946 198.857L135.531 198.453H135.531ZM104.521 195.768L103.94 194.565L114.753 184.004C120.7 178.195 125.613 173.425 125.672 173.405C125.73 173.385 125.672 174.274 125.545 175.382L125.312 177.395L115.323 187.15C109.829 192.515 105.281 196.919 105.218 196.937C105.154 196.956 104.84 196.429 104.521 195.768H104.521ZM186.636 181.667C184.588 180.812 183.252 179.904 181.931 178.466C181.465 177.959 181.38 177.812 181.656 177.988C183.338 179.062 186.015 180.369 186.197 180.205C186.229 180.175 186.084 179.704 185.874 179.157C185.259 177.558 185.066 175.894 185.293 174.14C185.621 171.602 186.809 168.501 188.195 166.567C191.034 162.607 192.623 158.441 193.748 152.015C193.855 151.403 193.969 150.925 194 150.954C194.032 150.982 194.165 151.708 194.297 152.567C194.429 153.426 194.651 154.638 194.79 155.261C195.075 156.536 195.043 156.841 194.378 159.207C193.42 162.621 191.986 165.703 190.162 168.269C189.144 169.703 188.83 170.302 188.094 172.226C186.782 175.658 186.661 178.619 187.727 181.279C187.909 181.734 188.031 182.13 187.997 182.158C187.964 182.186 187.351 181.965 186.636 181.667ZM174.637 177.781C174.318 177.283 173.943 176.669 173.802 176.418C173.289 175.497 173.604 171.609 174.362 169.508C174.85 168.156 175.994 166.259 177.004 165.128L177.885 164.143L177.784 164.93C177.727 165.362 177.607 166.439 177.514 167.323C177.376 168.638 177.25 169.117 176.817 169.969C175.826 171.917 175.462 173.518 175.317 176.565L175.217 178.687L174.637 177.781H174.637ZM215.837 175.822C213.969 175.453 212.339 174.683 211.141 173.604C210.606 173.121 210.077 172.573 209.966 172.386L209.764 172.045L210.301 172.414C211.129 172.982 212.808 173.64 214.024 173.871C215.445 174.142 218.199 174.141 220.205 173.871L221.79 173.656L222.788 174.546C223.336 175.035 223.732 175.477 223.667 175.528C223.436 175.711 221.13 175.968 219.178 176.029C217.628 176.078 216.892 176.029 215.837 175.824V175.822ZM203.812 173.907L202.994 172.727L202.883 170.438C202.719 167.031 203.129 164.369 204.13 162.353C204.502 161.602 204.526 161.583 204.669 161.925C204.751 162.122 204.985 162.875 205.188 163.598L205.559 164.913L205.178 166.244C204.839 167.431 204.788 167.987 204.714 171.331L204.63 175.087L203.812 173.907H203.812ZM86.1022 171.586C83.9599 171.153 81.2606 169.547 79.8206 167.848L79.3623 167.307L80.4067 167.978C82.4111 169.265 84.1975 169.794 86.5399 169.794C90.6229 169.794 95.4124 167.976 101.653 164.056C102.642 163.435 103.49 162.927 103.536 162.927C103.583 162.927 103.34 163.233 102.996 163.606C102.171 164.504 101.252 165.757 100.449 167.076C99.8686 168.031 99.6853 168.207 98.7922 168.672C96.3174 169.959 93.6103 170.986 91.508 171.434C89.9671 171.763 87.3454 171.837 86.1022 171.585V171.586ZM218.269 170.044C217.552 169.342 216.065 167.215 215.343 165.859C212.558 160.63 212.982 154.651 216.609 147.972C217.59 146.166 230.663 124.526 230.935 124.259C231.103 124.094 232.715 126.043 232.611 126.286C232.563 126.399 229.564 131.358 225.949 137.306C217.66 150.938 217.262 151.658 216.24 154.842C215.041 158.576 215.05 162.742 216.264 165.923C216.691 167.043 217.657 168.872 218.322 169.82C218.758 170.442 218.743 170.508 218.269 170.044V170.044ZM93.3772 150.118C88.4301 149.511 84.3032 147.678 81.6781 144.92C80.5752 143.762 80.5111 143.586 81.475 144.363C85.352 147.485 91.4758 148.817 99.7754 148.342C101.393 148.249 102.896 148.143 103.114 148.106C103.592 148.024 103.657 147.98 101.261 149.371L99.5985 150.337L97.2623 150.324C95.9776 150.314 94.2293 150.223 93.3773 150.119L93.3772 150.118ZM239.332 133.611C238.525 132.675 238.428 132.493 238.495 132.038C238.537 131.756 239.012 125.183 239.55 117.432L240.53 103.341L241.308 102.097C243.171 99.1182 244.566 95.9967 245.196 93.3976C245.433 92.4173 245.488 91.5993 245.479 89.1773C245.467 86.2948 245.448 86.1051 244.977 84.5057C244.707 83.5886 244.187 82.1724 243.821 81.3584C243.455 80.5441 243.116 79.7814 243.067 79.6635C243.018 79.5453 243.4 79.8637 243.916 80.3711C244.432 80.8782 244.838 81.3415 244.818 81.4006C244.798 81.4596 244.983 81.9139 245.229 82.4097C246.31 84.5817 247.046 87.0656 247.324 89.4776C247.836 93.9266 246.41 98.8016 243.038 104.127L242.359 105.2L241.35 119.292C240.796 127.043 240.32 133.673 240.293 134.027L240.244 134.669L239.332 133.611H239.332ZM117.604 124.862C116.704 124.321 114.88 122.683 114.88 122.416C114.88 122.351 115.203 122.521 115.599 122.793C116.667 123.526 118.167 124.121 119.835 124.473L121.319 124.786L120.206 125.107C119.594 125.285 118.976 125.433 118.833 125.437C118.69 125.446 118.137 125.182 117.604 124.862V124.862ZM146.135 115.175C145.741 114.451 145.728 114.388 146.023 114.628C146.311 114.862 146.754 115.838 146.625 115.954C146.6 115.974 146.38 115.625 146.135 115.175H146.135ZM120.116 110.541C119.323 109.642 118.315 107.811 118.005 106.704L117.786 105.92L118.439 105.221L119.093 104.523L119.269 105.871C119.521 107.803 119.904 109.227 120.452 110.27C120.714 110.769 120.898 111.206 120.859 111.241C120.821 111.276 120.487 110.96 120.116 110.541H120.116ZM161.463 108.742C160.587 107.846 159.666 106.102 159.153 104.365C158.924 103.591 158.763 102.934 158.795 102.905C158.825 102.876 159.14 102.812 159.492 102.761L160.131 102.669L160.417 104.149C160.725 105.741 161.279 107.462 161.872 108.669C162.075 109.082 162.216 109.42 162.184 109.42C162.153 109.42 161.828 109.115 161.463 108.742V108.742ZM167.671 103.189C166.851 101.416 166.857 101.315 167.841 100.346C168.839 99.3635 169.535 98.9441 170.792 98.5662C172.117 98.1684 173.55 98.0704 175.37 98.2535C176.788 98.3962 177.402 98.5064 179.447 98.9857C179.89 99.0896 180.168 99.3108 180.679 99.9655C181.041 100.43 181.338 100.843 181.338 100.882C181.338 100.922 180.931 100.857 180.434 100.74C176.719 99.8674 173.495 99.9356 171.464 100.93C170.459 101.422 169.292 102.493 168.678 103.488L168.181 104.292L167.671 103.189V103.189ZM182.239 88.2949C182.18 88.2422 182.133 88.1329 182.133 88.0517C182.133 87.9623 182.207 87.9707 182.321 88.0721C182.424 88.1651 182.472 88.2745 182.427 88.3152C182.382 88.3559 182.297 88.3466 182.239 88.2948V88.2949ZM253.726 85.8057C251.242 85.5892 249.484 85.0289 247.736 83.8958C246.643 83.1874 244.822 81.5762 244.967 81.4458C245.02 81.3988 245.402 81.5947 245.819 81.8806C247.278 82.883 249.028 83.5023 251.245 83.8011C252.46 83.9652 253.679 84.0047 253.679 83.8805C253.679 83.839 253.437 83.3724 253.14 82.8434C251.221 79.4123 250.547 75.6454 250.726 69.363C250.865 64.5118 250.609 62.5081 249.451 59.392C249.153 58.5897 248.909 57.9045 248.909 57.8692C248.909 57.8334 249.356 57.9366 249.903 58.098C251.363 58.529 253.337 58.5211 254.426 58.0821C255.597 57.6082 256.718 56.4818 257.551 54.9421C257.931 54.2405 258.279 53.5378 258.324 53.3803C258.379 53.1934 258.594 53.0624 258.945 53.0022C259.24 52.9516 259.851 52.7555 260.301 52.5666L261.121 52.2233L260.749 53.4621C260.268 55.0634 260.051 55.6 259.318 56.9899C258.528 58.4898 257.154 59.7647 255.936 60.1283C254.803 60.4666 253.08 60.4466 251.778 60.0792C251.213 59.9204 250.729 59.81 250.702 59.8341C250.676 59.8582 250.837 60.3159 251.061 60.8514C252.294 63.7999 252.649 66.2706 252.509 70.935C252.313 77.4344 252.999 81.3087 254.972 84.8507C255.49 85.7804 255.545 85.9563 255.31 85.94C255.156 85.9309 254.443 85.869 253.726 85.807V85.8057ZM171.398 73.3249C171.363 73.231 171.158 72.7254 170.943 72.2017L170.552 71.2495L172.089 70.8083C174.459 70.1283 176.317 69.7976 178.321 69.6988C180.504 69.591 181.912 69.7773 183.348 70.3632C184.349 70.7717 185.84 71.9369 186.256 72.6356L186.452 72.9656L185.758 72.5995C182.951 71.1191 178.789 71.2486 173.102 72.9933C171.953 73.3457 171.444 73.4447 171.398 73.3249H171.398ZM242.072 43.1104C241.766 43.0045 241.355 42.9128 241.158 42.9067C240.708 42.8931 240.709 42.8019 241.194 40.9073C241.741 38.7715 241.838 37.5606 241.534 36.6794C241.4 36.2896 241.314 35.9485 241.344 35.9213C241.475 35.8036 242.625 37.1706 242.999 37.8887C243.643 39.1233 243.646 40.5845 243.011 42.7886C242.839 43.3846 242.851 43.3801 242.073 43.1104H242.072ZM226.06 32.4523C226.06 31.6203 225.974 31.062 225.789 30.6843C225.64 30.3807 225.549 30.1054 225.585 30.0724C225.713 29.9574 226.822 31.1814 227.165 31.8165L227.511 32.4575L226.786 33.0629L226.06 33.6683V32.4523H226.06ZM238.4 33.1057C238.1 32.8356 237.609 32.2015 237.309 31.6965L236.764 30.7784L237.547 29.9792C237.977 29.5396 238.345 29.1938 238.364 29.2105C238.384 29.2264 238.327 29.5287 238.238 29.8803C238.049 30.6363 238.264 31.9655 238.732 32.9495C238.902 33.3055 239.019 33.5968 238.993 33.5968C238.967 33.5968 238.7 33.3758 238.4 33.1057V33.1057Z" fill="black"/>
<path d="M135.321 198.165C133.826 196.608 133.065 194.628 132.617 191.133C132.406 189.488 132.08 188.823 130.797 187.415C128.142 184.503 127.178 182.447 127.178 179.695V178.361L128.331 177.228C128.965 176.605 129.504 176.113 129.529 176.134C129.553 176.154 129.46 177.13 129.322 178.301C128.974 181.247 129.161 182.708 130.133 184.623C130.761 185.86 131.772 187.254 132.904 188.442C134.238 189.843 134.445 190.365 134.809 193.235C135.008 194.807 135.165 195.4 135.707 196.628C135.978 197.242 136.084 197.728 136.051 198.196L136.002 198.875L135.321 198.165ZM104.365 195.355C101.146 188.571 99.7907 183.571 99.8166 178.576C99.8345 175.114 100.413 172.547 101.774 169.892L102.409 168.652L104.496 167.388C105.643 166.693 106.798 165.995 107.062 165.838C107.459 165.6 107.391 165.722 106.658 166.553C104.36 169.161 103.02 171.745 102.19 175.171C101.728 177.073 101.691 181.53 102.116 183.849C102.717 187.128 104 191.091 105.586 194.574L106.229 195.985L105.68 196.479L105.132 196.973L104.365 195.355ZM185.904 181.31C181.69 179.266 179.611 176.196 179.236 171.46L179.125 170.072L179.659 169.314C180.252 168.472 181.598 166.904 181.672 166.97C181.698 166.994 181.611 167.665 181.477 168.463C180.758 172.772 181.621 176.683 183.858 179.246C184.487 179.968 185.924 181.144 186.736 181.602C187.336 181.941 186.858 181.773 185.904 181.31H185.904ZM174.373 177.318C172.509 174.352 171.385 170.985 171.067 167.417L170.933 165.911L171.69 164.301C172.32 162.96 172.847 161.54 173.35 159.829C173.396 159.672 173.402 159.801 173.366 160.115C173.029 162.884 172.94 164.585 173.018 166.768C173.142 170.216 173.687 172.748 174.869 175.357C175.254 176.207 175.353 176.636 175.353 177.462C175.353 178.032 175.3 178.499 175.235 178.498C175.169 178.498 174.782 177.966 174.374 177.318H174.373ZM213.113 174.897C210.884 173.867 209.087 171.587 207.866 168.239C207.281 166.637 207.28 166.634 207.54 165.95C207.683 165.574 207.926 165.053 208.08 164.794L208.359 164.322L208.734 165.652C209.979 170.063 211.341 172.82 213.048 174.383C213.629 174.916 214.096 175.349 214.086 175.345C214.074 175.345 213.637 175.14 213.113 174.897V174.897ZM203.603 173.563C200.872 169.594 198.406 164.303 197.203 159.833L196.819 158.405L197.237 156.184C197.467 154.963 197.707 153.912 197.769 153.848C197.832 153.785 197.931 154.171 197.99 154.707C198.272 157.283 199.288 161.389 200.374 164.341C201.396 167.12 202.332 169.045 204.56 172.949C204.699 173.192 204.764 173.669 204.734 174.236L204.686 175.137L203.603 173.563ZM83.3178 170.525C80.6556 169.108 78.4458 166.546 76.6313 162.773C76.2747 162.032 75.983 161.38 75.983 161.325C75.983 161.269 76.4302 161.368 76.9767 161.544C78.6461 162.083 79.9726 162.238 82.0864 162.142C86.3838 161.947 89.5688 160.513 96.4133 155.687C98.8643 153.96 101.361 152.27 102.431 151.614C103.124 151.188 103.363 151.129 104.815 151.021C105.703 150.955 106.609 150.901 106.827 150.902C107.2 150.902 107.206 150.914 106.918 151.075C104.926 152.183 102.094 154.005 98.9948 156.172C94.5098 159.308 92.5119 160.537 90.3716 161.475C88.3956 162.342 87.1403 162.71 85.2058 162.991C83.3718 163.257 81.2942 163.102 79.3806 162.555C78.6999 162.361 78.1113 162.23 78.073 162.264C77.9649 162.362 78.9482 164.413 79.7513 165.766C80.9216 167.738 82.315 169.364 83.7398 170.419C84.7943 171.2 84.6529 171.235 83.3176 170.524L83.3178 170.525ZM85.5226 147.713C80.6478 144.977 77.6546 140.431 76.148 133.475C75.9644 132.626 75.7857 131.815 75.7516 131.672C75.6828 131.384 75.5759 131.339 77.1306 132.258C77.8019 132.655 77.7584 132.559 78.2028 134.619C78.9206 137.947 80.2455 141.155 81.8944 143.56C82.711 144.75 85.3004 147.304 86.3969 148.001C87.2182 148.522 86.6051 148.32 85.5226 147.713V147.713ZM91.246 137.339C90.2493 137.268 88.1969 136.901 86.8739 136.555C85.7064 136.25 83.4117 135.429 83.5018 135.348C83.5314 135.321 84.1223 135.456 84.8167 135.646C86.9988 136.243 88.6274 136.455 91.0077 136.451C93.526 136.451 94.9454 136.297 97.1407 135.798C100.214 135.1 101.932 134.499 109.53 131.464C115.745 128.981 116.841 128.57 119.626 127.682C122.012 126.921 121.966 126.924 124.153 127.322L125.182 127.51L122.881 128.198C119.689 129.153 117.648 129.903 110.961 132.576C104.362 135.215 102.197 135.977 99.5496 136.592C96.5143 137.298 93.9379 137.53 91.246 137.339V137.339ZM82.7307 135.071C82.4397 134.862 82.4448 134.859 82.8199 135.018C83.3064 135.227 83.3967 135.292 83.1947 135.292C83.1093 135.292 82.9007 135.192 82.7309 135.07L82.7307 135.071ZM237.283 131.199C235.737 129.418 234.436 127.878 234.393 127.776C234.297 127.551 234.624 126.961 234.811 127.023C234.885 127.048 236.132 128.443 237.583 130.124C240.076 133.014 240.22 133.215 240.22 133.808C240.22 134.153 240.192 134.435 240.158 134.435C240.123 134.435 238.83 132.979 237.284 131.199H237.283ZM118.513 125.289C113.642 122.842 111.628 117.437 113.605 112.117C114.461 109.813 116.092 107.413 118.069 105.545L119.216 104.463L119.224 105.123C119.233 105.486 119.271 106.065 119.321 106.411C119.406 107.007 119.36 107.095 118.442 108.183C117.143 109.721 115.833 112.122 115.322 113.906C114.523 116.688 114.785 119.529 116.062 121.938C116.505 122.772 118.168 124.843 118.406 124.856C118.523 124.865 119.808 125.853 119.695 125.85C119.66 125.85 119.128 125.596 118.516 125.289H118.513ZM150.069 118.118C149.81 117.555 148.809 116.187 148.243 115.623L147.814 115.193L147.89 113.19C147.977 110.941 148.259 109.899 149.245 108.2C150.882 105.379 154.233 103.49 158.889 102.761C160.192 102.557 160.249 102.583 160.249 103.37C160.249 103.721 160.168 103.771 159.334 103.944C155.917 104.652 152.818 106.563 151.37 108.854C149.864 111.237 149.407 114.536 150.166 117.539C150.423 118.556 150.383 118.799 150.069 118.118H150.069ZM129.806 116.117C128.688 115.959 127.165 115.511 126.383 115.111C126.077 114.954 125.97 114.858 126.145 114.897C127.693 115.244 128.315 115.308 130.119 115.308C132.558 115.308 135.379 114.878 137.092 114.242C139.233 113.448 140.36 113.206 141.964 113.198C143.283 113.189 143.591 113.24 144.389 113.576C144.892 113.788 145.303 113.981 145.303 114.005C145.303 114.029 144.674 114.056 143.906 114.064C142.673 114.078 142.261 114.159 140.369 114.758C139.191 115.131 137.441 115.591 136.479 115.781C134.5 116.171 131.317 116.331 129.806 116.117V116.117ZM169.549 113.6C168.022 113.337 167.561 113.215 167.05 112.937L166.462 112.618L167.9 112.668C169.772 112.733 171.595 112.357 174.239 111.359C176.296 110.582 185.528 106.167 185.528 105.959C185.528 105.895 184.805 104.9 183.922 103.748C183.039 102.596 182.344 101.629 182.377 101.599C182.411 101.569 182.74 101.613 183.108 101.698C183.746 101.843 183.874 101.974 185.687 104.332C186.736 105.696 187.595 106.841 187.595 106.875C187.595 106.977 178.882 111.197 177.402 111.813C175.689 112.525 173.621 113.183 172.491 113.376C171.398 113.563 169.968 113.671 169.549 113.599V113.6ZM167.99 103.855C167.942 103.718 167.722 103.215 167.5 102.738C165.151 97.6923 166.603 93.3347 170.974 92.3105C172.238 92.0143 173.087 92.0304 174.969 92.3869C177.437 92.8536 178.817 92.5599 180.117 91.29C180.731 90.6906 182.03 88.5428 182.03 88.1265C182.03 87.8347 182.315 87.9082 182.428 88.2291C182.485 88.3879 182.781 88.8138 183.088 89.1753C183.744 89.9486 183.727 90.1003 182.853 91.3166C182.082 92.3907 181.225 93.0374 180.212 93.3092C179.164 93.5908 178.596 93.5754 176.628 93.2129C175.163 92.9431 174.823 92.9258 173.798 93.0693C169.701 93.6423 167.683 96.6486 168.582 100.839C168.706 101.417 168.88 102.06 168.97 102.269C169.104 102.583 169.058 102.776 168.705 103.377C168.243 104.162 168.123 104.243 167.99 103.856V103.855ZM188.071 92.1061C187.542 91.9505 186.679 91.5455 186.587 91.4099C186.548 91.3509 187.025 91.3007 187.651 91.2996C189.356 91.2996 190.628 90.624 191.529 89.2485C192.975 87.0411 192.469 83.675 190.079 79.5979C189.652 78.8686 189.343 78.1497 189.341 77.8832C189.333 76.6501 187.843 73.9178 186.744 73.1288L186.243 72.7695L186.876 73.0023C188.417 73.5699 189.69 74.6864 190.449 76.1369C190.885 76.9702 191.41 78.6067 191.41 79.1326C191.41 79.2753 191.759 79.9792 192.185 80.6973C193.023 82.11 193.643 83.509 194.031 84.8638C194.366 86.0335 194.366 88.185 194.031 89.1447C193.683 90.1399 192.79 91.1774 191.822 91.7113C191.149 92.0821 190.86 92.148 189.755 92.1831C189.048 92.2035 188.29 92.1717 188.071 92.1054L188.071 92.1061ZM249.282 84.6733C248.042 84.1426 247.517 83.7502 247.131 83.0653C246.915 82.6826 246.739 82.3328 246.739 82.2881C246.739 82.2429 247.222 82.6496 247.812 83.1909C248.403 83.7321 249.136 84.3455 249.442 84.5535C250.08 84.9876 250.057 85.005 249.282 84.6733V84.6733ZM171.09 72.5244C170.915 72.072 170.259 70.4178 169.632 68.8484C168.239 65.3623 167.525 63.1478 166.976 60.6143C166.406 57.9796 166.371 54.2812 166.897 52.1019C167.22 50.7628 167.224 50.6621 166.97 50.5282C165.388 49.6942 165.239 48.384 166.587 47.1705C167.917 45.9741 170.577 45.3701 173.084 45.6952L174.31 45.854L175.772 45.145C178.705 43.7224 180.348 43.2919 183.298 43.1743L185.441 43.0885L185.998 42.1587C186.802 40.8145 188.77 39.0992 190.378 38.3409C193.912 36.6745 198.544 36.0075 206.591 36.0065C211.492 36.0065 213.887 35.6513 216.353 34.5607C218.746 33.5024 220.285 31.7344 220.906 29.3317C221.045 28.7934 221.209 28.1817 221.269 27.9725L221.38 27.5918L222.351 28.0214L223.323 28.4511L223.095 29.5466C222.308 33.3173 219.728 35.5789 215.235 36.437C213.651 36.7394 208.518 37.0831 207.684 36.9427C206.854 36.8024 200.842 37.1376 198.761 37.4402C196.375 37.7866 193.795 38.5259 192.205 39.3187C190.681 40.0782 188.661 41.8796 187.937 43.1243L187.417 44.0185C187.583 45.5034 189.042 45.6949 191.507 44.8812C189.729 46.3989 187.7 46.3335 185.54 45.4425C182.699 45.4425 181.326 44.4283 178.229 45.841L176.256 46.7406L175.007 46.5997C172.668 46.3358 170.128 46.8461 168.84 47.8385C168.023 48.4675 167.72 48.9881 167.72 49.7631C167.72 50.3043 167.805 50.4422 168.488 51.0219L169.255 51.6731L169.051 52.3873C168.363 54.7946 168.362 58.8719 169.051 61.8428C169.665 64.4985 170.755 67.7092 172.314 71.4615C172.587 72.116 172.809 72.7335 172.809 72.8336C172.809 72.9793 171.867 73.3473 171.494 73.3473C171.446 73.3473 171.265 72.977 171.09 72.5247L171.09 72.5244ZM258.525 53.736C258.142 53.6686 257.391 53.4184 256.855 53.1806C256.32 52.9428 256.06 52.7906 256.279 52.8421C256.497 52.8936 257.221 52.9345 257.888 52.9315C258.851 52.9315 259.286 52.8493 260.014 52.5502C261.097 52.1037 261.092 52.1044 260.989 52.4238C260.945 52.5616 260.83 52.9478 260.734 53.2823C260.562 53.8804 260.548 53.8901 259.89 53.8747C259.521 53.8656 258.907 53.8036 258.525 53.736V53.736ZM244.871 45.6347C244.674 45.6005 244.513 45.5126 244.513 45.4396C244.513 45.2496 244.847 45.2839 245.308 45.5217C245.7 45.7232 245.572 45.7567 244.871 45.6354V45.6347ZM229.807 35.2099V34.0236L230.363 33.778C230.669 33.643 231.687 33.2589 232.625 32.9248C234.619 32.2144 236.01 31.3679 237.304 30.0783L238.233 29.1516L238.209 30.5137C238.189 31.5874 238.126 31.9343 237.908 32.1516C237.407 32.65 236.191 33.2635 234.668 33.7857C232.701 34.461 231.552 35.0226 230.592 35.7781L229.807 36.3963V35.2099Z" fill="#333333"/>
<path d="M134.04 186.857C134.929 181.036 136.86 176.929 139.89 174.42C140.984 173.514 142.327 172.673 143.078 172.424C143.259 172.365 142.911 172.809 142.274 173.454C138.819 176.949 136.943 180.191 134.558 186.786C134.266 187.592 133.982 188.252 133.927 188.252C133.872 188.252 133.918 187.624 134.04 186.857H134.04ZM131.126 182.029C131.174 181.871 131.393 181.067 131.613 180.241C133.461 173.287 136.377 169.116 140.813 167.081C141.688 166.68 142.439 166.384 142.482 166.423C142.525 166.463 142.145 166.835 141.635 167.252C137.798 170.386 135.55 173.456 132.438 179.812C131.438 181.854 130.903 182.759 131.126 182.029ZM129.167 175.503C129.167 175.208 130.127 172.282 130.64 171.013C133.231 164.606 137.103 160.201 142.204 157.858C143.386 157.315 145.99 156.459 146.236 156.533C146.326 156.561 146.047 156.799 145.614 157.064C141.521 159.571 137.939 162.847 135.055 166.721C133.949 168.206 132.322 170.685 130.592 173.517C129.355 175.543 129.167 175.805 129.167 175.503ZM180.938 173.686C180.722 173.376 180.746 167.148 180.969 165.648C181.785 160.15 183.682 156.258 187.04 153.192C188.396 151.954 190.169 150.676 190.331 150.822C190.379 150.865 190.203 151.144 189.94 151.442C188.843 152.693 186.919 155.534 185.992 157.274C183.983 161.041 183.158 163.73 181.423 172.158C181.204 173.223 181.02 173.803 180.938 173.686H180.938ZM115.039 170.392C114.131 168.62 114.047 167.32 114.731 165.674C115.169 164.622 116.933 163.064 119.44 161.514C121.802 160.054 123.976 158.244 124.951 156.924C125.35 156.385 125.973 155.262 126.336 154.43C126.699 153.598 127.009 152.933 127.025 152.952C127.04 152.971 127.005 154.152 126.948 155.576C126.848 158.034 126.82 158.207 126.389 159.009C125.567 160.538 123.033 162.481 119.866 164.012C117.586 165.114 116.384 166.244 115.86 167.776C115.631 168.447 115.549 170.566 115.732 171.087C115.788 171.243 115.766 171.371 115.686 171.371C115.606 171.371 115.315 170.931 115.039 170.392H115.039ZM203.732 166.335C199.522 161.337 197.965 157.025 198.898 152.945C199.122 151.963 199.649 150.584 199.904 150.312C199.955 150.258 200.003 151.319 200.012 152.673C200.035 156.818 200.825 159.487 203.721 165.21C204.256 166.267 204.674 167.186 204.65 167.252C204.625 167.317 204.213 166.905 203.732 166.335H203.732ZM171.776 164.496C171.776 156.584 173.843 151.039 178.285 147.039C179.759 145.71 181.875 144.216 182.054 144.376C182.102 144.42 181.748 144.894 181.267 145.431C179.891 146.966 178.369 149.112 177.276 151.055C175.412 154.37 174.3 157.488 172.884 163.359C172.419 165.287 171.98 166.925 171.908 167C171.835 167.075 171.776 165.948 171.776 164.496H171.776ZM151.465 164.462C150.472 162.629 150.415 160.931 151.295 159.347C151.92 158.221 152.892 157.36 155.067 156.007C157.266 154.639 159.393 153.053 160.384 152.043C161.521 150.885 162.227 149.674 163.248 147.136C163.307 146.988 163.379 146.891 163.405 146.922C163.432 146.953 163.414 148.113 163.354 149.499C163.256 151.966 163.243 152.04 162.742 152.955C161.911 154.474 159.743 156.229 157.096 157.527C154.084 159.003 153.055 159.859 152.366 161.463C152.076 162.137 152.014 162.565 152.02 163.824C152.029 164.67 152.009 165.362 151.99 165.362C151.969 165.362 151.732 164.957 151.464 164.462L151.465 164.462ZM104.205 152.066C104.205 151.824 107.886 148.481 109.452 147.302C114.744 143.315 120.052 141.451 125.51 141.661C127.294 141.73 129.284 141.984 129.13 142.123C129.096 142.153 128.329 142.277 127.422 142.399C123.101 142.983 119.628 143.968 115.799 145.696C113.447 146.757 111.555 147.789 107.504 150.222C105.69 151.312 104.205 152.141 104.205 152.066V152.066ZM188.302 142.755C190.24 141.717 191.852 140.585 193.427 139.155C195.136 137.604 196.223 136.327 198.572 133.109C199.58 131.727 200.437 130.597 200.476 130.597C200.621 130.597 199.3 133.712 198.591 135.043C196.256 139.423 192.989 142.18 188.95 143.179C186.944 143.675 186.781 143.569 188.302 142.755V142.755ZM137.318 139.608C137.355 138.283 137.415 138.004 137.821 137.256C138.614 135.797 140.082 134.747 142.033 134.241C142.433 134.137 143.583 133.948 144.589 133.821C148.31 133.349 151.687 132.425 153.265 131.449C153.649 131.211 154.412 130.652 154.96 130.206C155.508 129.76 156.132 129.263 156.347 129.102L156.737 128.809L156.466 129.167C156.316 129.363 155.756 130.295 155.222 131.237C154.034 133.33 153.696 133.738 152.626 134.377C151.061 135.312 147.71 136.03 144.886 136.036C141.552 136.045 139.215 137.235 138.083 139.507C137.839 139.996 137.557 140.558 137.457 140.755C137.31 141.045 137.283 140.828 137.318 139.608H137.318ZM169.763 134.818C169.81 133.621 169.889 133.252 170.251 132.566C171.249 130.675 173.348 129.52 176.307 129.233C180.352 128.84 183.473 128.131 185.37 127.172C185.982 126.863 187.091 126.129 187.834 125.541C188.578 124.954 189.211 124.495 189.241 124.521C189.272 124.548 189.119 124.783 188.901 125.044C188.683 125.305 188.134 126.186 187.682 127.001C186.346 129.409 185.054 130.314 182.141 130.884C180.681 131.169 177.073 131.5 176.839 131.37C176.511 131.188 174.202 131.643 173.318 132.065C172.323 132.539 171.033 133.701 170.61 134.501C170.466 134.775 170.204 135.279 170.027 135.623L169.707 136.248L169.763 134.818H169.763ZM210.087 134.281C209.067 132.794 208.876 130.523 209.644 129.013C210.129 128.059 211.56 126.639 212.681 125.999C214.614 124.895 216.635 123.447 218.127 122.097C219.818 120.567 220.419 119.713 221.309 117.578C221.782 116.444 222.151 115.898 221.935 116.648C221.868 116.885 221.794 118.059 221.772 119.258C221.733 121.358 221.712 121.473 221.239 122.383C220.38 124.035 217.797 125.993 214.25 127.68C211.493 128.992 210.217 131.026 210.469 133.709C210.522 134.279 210.53 134.746 210.487 134.746C210.443 134.746 210.263 134.537 210.087 134.281H210.087ZM117.401 128.179C117.401 128.059 117.89 127.837 120.422 126.807C124.994 124.947 128.59 124.089 132.505 123.924C135.652 123.792 138.163 124.153 141.016 125.144C142.313 125.595 144.837 126.845 144.7 126.968C144.658 127.006 144.169 126.929 143.613 126.8C141.849 126.387 139.206 126.022 136.815 125.862C132.275 125.559 127.665 126.112 118.395 128.073C117.849 128.188 117.401 128.236 117.401 128.179V128.179ZM234.371 124.484C234.22 123.966 233.672 122.625 233.153 121.504C231.71 118.385 231.636 118.102 231.641 115.79C231.65 114.07 231.708 113.568 232.09 112.237C232.751 109.931 233.933 107.126 235.177 104.91C236.934 101.781 236.723 97.554 234.641 94.1344C234.335 93.6333 234.127 93.1865 234.176 93.1416C234.319 93.0132 235.806 94.3832 236.597 95.3722C238.84 98.1774 239.336 102.283 237.87 105.919C236.4 109.566 236.088 110.394 235.596 111.967C234.472 115.556 234.362 116.224 234.365 119.438C234.365 121.272 234.456 122.923 234.604 123.844C234.735 124.654 234.797 125.342 234.743 125.372C234.689 125.402 234.522 125.002 234.371 124.484H234.371ZM150.502 117.476C149.225 114.195 148.957 111.74 149.649 109.638C150.015 108.527 150.875 107.309 151.999 106.312C152.642 105.742 153.23 105.275 153.306 105.275C153.381 105.275 153.071 105.944 152.616 106.761C151.031 109.607 150.64 111.72 150.939 115.831C151.05 117.353 151.107 118.628 151.066 118.665C151.025 118.703 150.771 118.167 150.502 117.476H150.502ZM163.032 116.853C162.376 116.699 161.339 116.349 160.726 116.077L159.613 115.581L160.885 115.686C161.585 115.743 163.23 115.782 164.542 115.773C168.136 115.746 170.534 115.276 175.856 113.556C177.532 113.014 178.962 112.571 179.035 112.571C179.312 112.571 176.511 114.16 174.781 114.984C172.814 115.921 170.235 116.761 168.596 116.998C166.931 117.239 164.39 117.173 163.032 116.853V116.853ZM211.365 109.48C211.365 103.953 212.613 100.267 215.389 97.5956C216.295 96.7234 218.377 95.2604 218.712 95.2604C218.791 95.2604 218.4 95.7915 217.843 96.4407C216.567 97.9296 215.54 99.4456 214.815 100.911C213.647 103.272 213.202 104.61 212.248 108.639C211.863 110.265 211.507 111.633 211.456 111.678C211.406 111.724 211.365 110.734 211.365 109.48H211.365ZM192.525 109.248C191.874 109.039 191.814 108.921 191.811 107.837C191.803 105.97 192.587 104.055 194.184 102.02C195.075 100.883 195.41 100.628 194.747 101.591C193.209 103.824 192.607 105.778 192.885 107.635C192.98 108.265 193.107 108.925 193.167 109.102C193.288 109.457 193.223 109.472 192.525 109.248V109.248ZM205.005 102.907C204.874 102.882 204.508 102.824 204.191 102.778C203.714 102.707 203.518 102.562 203.051 101.93C201.149 99.3519 200.018 96.1286 199.813 92.7023L199.712 91.0109L200.2 90.858L200.688 90.7048L200.785 91.8023C201.129 95.7001 202.413 99.004 204.674 101.805C205.198 102.455 205.54 102.978 205.435 102.969C205.33 102.96 205.136 102.931 205.005 102.907L205.005 102.907ZM192.035 93.7817C193.268 92.4275 194.383 90.232 194.894 88.1525C195.119 87.2369 195.401 84.4252 195.507 82.0268L195.544 81.1685L195.841 82.0268C196.585 84.1829 196.815 87.4989 196.336 89.1858C195.99 90.4055 195.253 91.69 194.421 92.5225C193.744 93.2 191.953 94.4019 191.62 94.4019C191.536 94.4019 191.723 94.1227 192.034 93.7817H192.035ZM210.71 90.3064C210.045 90.1231 209.925 90.0187 209.455 89.2126C207.728 86.2498 205.7 83.7203 203.224 81.4385L201.499 79.8487L202.338 79.6958L203.177 79.5433L204.257 80.499C205.619 81.7027 207.58 83.9458 208.797 85.6902C209.705 86.9919 211.683 90.2499 211.683 90.4437C211.683 90.5647 211.604 90.5535 210.71 90.3064V90.3064ZM247.64 81.8793C243.339 77.8263 241.418 74.3519 241.415 70.6214C241.415 69.3001 241.813 67.0767 242.051 67.0767C242.112 67.0767 242.204 67.6091 242.255 68.2601C242.306 68.9111 242.525 70.1504 242.743 71.014C243.623 74.5138 244.863 76.8209 248.947 82.5633C249.269 83.0158 249.466 83.386 249.385 83.386C249.304 83.386 248.519 82.708 247.64 81.8793V81.8793ZM224.355 81.1496C224.293 81.0943 224.242 80.046 224.24 78.8197C224.231 75.6041 223.868 73.594 222.757 70.7248C222.037 68.8634 220.039 64.9534 219.013 63.3971C216.412 59.4507 216.062 55.2412 218.041 51.6972C218.637 50.6314 219.898 49.0985 220.06 49.2441C220.097 49.279 219.92 49.878 219.662 50.5742C218.986 52.4002 218.778 53.7241 218.89 55.4925C219.04 57.8674 219.57 59.1629 221.445 61.7418C223.543 64.6274 225.207 67.752 225.811 69.9379C226.496 72.4208 226.431 73.8217 225.489 76.8567C225.217 77.7331 224.876 79.0802 224.73 79.8501C224.585 80.6201 224.416 81.205 224.355 81.1496H224.355ZM204.29 74.7392C202.238 74.3804 200.505 73.6342 199.621 72.7283C199.172 72.2673 199.123 72.1254 199.123 71.2868V70.3565L200.094 71.291C202.22 73.3362 204.654 74.0552 208.976 73.9146C210.115 73.8767 211.047 73.8887 211.047 73.9411C211.047 73.9917 210.838 74.2142 210.583 74.4343C210.123 74.8303 210.093 74.8352 207.761 74.8847C206.204 74.9188 205.025 74.8688 204.29 74.7401V74.7392ZM188.232 69.0151C186.169 68.1667 182.971 67.7812 180.362 68.0668C178.985 68.2175 175.3 68.8301 174.578 69.0283C173.946 69.2019 174.533 68.7726 175.57 68.3026C180.121 66.2406 183.739 65.9437 186.745 67.3855C187.74 67.8625 189.658 69.3562 189.265 69.3474C189.134 69.3474 188.669 69.1949 188.232 69.0151ZM237.135 50.7148C237.126 50.6465 237.51 49.3266 237.985 47.782C239.092 44.1776 239.28 43.4285 239.518 41.6486C239.752 39.8989 239.547 38.1701 238.945 36.8256C238.735 36.3573 238.604 35.9389 238.654 35.8956C238.837 35.7367 240.159 37.2705 240.497 38.034C240.787 38.6904 240.844 39.0954 240.836 40.4666C240.825 42.308 240.485 43.7068 239.427 46.2608C238.83 47.7026 237.161 50.945 237.135 50.7148ZM229.655 49.6059C228.461 49.2804 227.563 48.3015 227.346 47.0899C227.206 46.3059 227.499 45.034 228.052 44.0233C228.504 43.1958 229.327 42.132 229.437 42.2312C229.47 42.2625 229.276 42.8857 229.003 43.6177C228.112 46.01 228.226 47.491 229.359 48.2378C230.345 48.888 232.566 48.5935 234.697 47.5297C235.243 47.2569 235.691 47.0962 235.691 47.1726C235.691 47.4517 233.992 48.6478 232.908 49.1319C231.688 49.6774 230.534 49.8453 229.655 49.6059V49.6059ZM223.063 47.1549C222.446 46.3065 222.118 45.363 222.05 44.2448C221.927 42.2032 222.638 40.6952 224.844 38.3208C226.071 36.9998 229.111 34.3558 229.255 34.4849C229.294 34.5198 228.637 35.3815 227.794 36.3991C224.207 40.7322 223.29 42.5433 223.272 45.331C223.263 46.0785 223.312 46.8671 223.373 47.0834C223.506 47.5605 223.382 47.5898 223.063 47.1544L223.063 47.1549ZM209.298 38.6546C208.328 38.5173 206.743 38.1348 206.664 38.0189C206.616 37.9488 206.947 37.8914 207.4 37.8914C208.635 37.8914 211.419 37.497 213.034 37.093C215.762 36.411 217.933 35.5396 221.4 33.7354C222.483 33.1714 223.762 32.5139 224.243 32.2739L225.118 31.8374L224.323 32.59C222.687 34.138 219.456 36.32 217.456 37.227C214.832 38.4172 211.607 38.9816 209.298 38.6546V38.6546Z" fill="#333333"/>
<path d="M134.575 190.688C134.618 190.413 134.733 189.672 134.829 189.043C135.67 183.521 137.982 179.03 141.184 176.698C142.212 175.95 143.688 175.157 143.824 175.28C143.867 175.319 143.483 175.76 142.969 176.259C139.803 179.343 138.009 182.337 135.711 188.375C134.749 190.902 134.442 191.527 134.575 190.688V190.688ZM131.866 184.679C133.609 177.638 135.952 173.425 139.486 170.979C140.437 170.321 142.654 169.229 143.04 169.229C143.148 169.229 142.391 169.985 141.358 170.91C137.876 174.025 135.958 176.78 132.916 183.034C132.071 184.771 131.699 185.354 131.866 184.679ZM129.892 178.183C129.892 177.795 130.999 174.578 131.711 172.898C133.25 169.266 135.158 166.502 137.762 164.134C139.569 162.49 141.055 161.494 143.052 160.59C144.246 160.048 146.92 159.18 147.045 159.293C147.132 159.373 147.187 159.334 145.976 160.064C140.451 163.399 136.648 167.566 131.573 175.845C130.716 177.242 129.988 178.384 129.954 178.384C129.92 178.384 129.892 178.293 129.892 178.183L129.892 178.183ZM117.285 174.987C116.346 173.096 116.306 171.578 117.155 170.027C117.711 169.01 119.073 167.707 120.184 167.13C122.219 166.072 125.092 164.093 126.422 162.832C127.564 161.749 128.11 160.972 128.946 159.239C129.313 158.477 129.686 157.79 129.776 157.712C129.886 157.615 129.899 157.661 129.816 157.855C129.749 158.012 129.643 159.145 129.58 160.373C129.473 162.471 129.436 162.663 128.965 163.57C128.102 165.229 125.673 167.037 122.181 168.619C120.439 169.408 119.582 170.023 118.862 170.999C118.063 172.081 117.756 173.17 117.84 174.616C117.877 175.273 117.86 175.81 117.801 175.81C117.741 175.81 117.509 175.439 117.284 174.987L117.285 174.987ZM183.962 170.301C183.919 166.666 185.436 160.83 187.297 157.487C188.66 155.038 191.109 152.422 193.436 150.929C194.784 150.065 196.321 149.268 196.438 149.373C196.468 149.402 195.942 149.971 195.269 150.639C192.554 153.335 190.847 155.532 189.273 158.36C187.848 160.919 187.156 162.508 185.446 167.154C184.017 171.039 183.972 171.134 183.962 170.301V170.301ZM152.501 168.616C151.998 167.651 151.809 166.844 151.815 165.686C151.829 163.524 153.096 162.015 156.418 160.209C158.913 158.853 161.409 157.17 162.46 156.135C163.385 155.225 164.074 154.216 164.877 152.597C165.448 151.445 165.746 151.14 165.492 151.968C165.41 152.231 165.28 153.323 165.201 154.395C165.083 155.998 164.985 156.484 164.654 157.135C163.81 158.793 161.421 160.507 157.731 162.103C156.107 162.805 155.572 163.119 154.771 163.841C153.447 165.033 153.059 165.927 153.039 167.833C153.03 168.6 152.978 169.227 152.923 169.228C152.867 169.228 152.678 168.953 152.502 168.616H152.501ZM174.093 166.36C174.093 165.217 174.373 162.497 174.653 160.883C175.914 153.617 179.444 148.4 185.146 145.376C185.624 145.123 186.014 144.962 186.012 145.019C186.012 145.076 185.535 145.605 184.957 146.195C182.382 148.824 180.398 151.555 178.902 154.532C177.491 157.34 176.64 159.567 175.12 164.436C174.702 165.773 174.3 166.929 174.226 167.004C174.151 167.08 174.092 166.797 174.093 166.36V166.36ZM106.361 152.283C106.361 152.249 107.273 151.533 108.388 150.693C112.115 147.887 115.901 145.881 119.398 144.86C122.004 144.1 122.966 143.976 126.156 143.992C128.715 144.003 129.184 144.046 130.598 144.384C131.467 144.592 132.24 144.817 132.315 144.884C132.39 144.953 131.369 145.045 130.019 145.094C123.564 145.323 118.752 146.678 110.098 150.703C106.71 152.279 106.361 152.426 106.361 152.283V152.283ZM188.878 147.002C188.878 146.974 189.289 146.707 189.792 146.409C193.732 144.073 197.704 140.444 200.592 136.538C201.588 135.192 203.375 132.511 205.098 129.778C205.657 128.893 206.162 128.169 206.222 128.169C206.361 128.169 205.604 130.506 204.832 132.461C204.007 134.549 201.966 138.136 200.684 139.751C198.64 142.325 195.866 144.491 192.932 145.804C191.376 146.5 188.878 147.238 188.878 147.002V147.002ZM137.769 144.32C137.708 144.115 137.733 143.478 137.821 142.903C138.138 140.849 139.393 139.291 141.391 138.471C142.443 138.04 143.421 137.863 146.189 137.603C149.215 137.32 151.886 136.737 153.492 136.01C154.327 135.632 155.5 134.881 156.616 134.011C157.679 133.182 157.909 133.128 157.279 133.856C157.023 134.151 156.432 135.033 155.965 135.817C154.954 137.512 154.071 138.353 152.73 138.9C151.211 139.52 149.541 139.77 146.11 139.892C143.575 139.983 142.84 140.057 142.08 140.303C140.3 140.879 138.82 142.314 138.082 144.179C137.88 144.69 137.878 144.691 137.77 144.32L137.769 144.32ZM213.089 139.731C211.044 137.003 211.505 134.136 214.359 131.836C214.991 131.326 216.246 130.316 217.147 129.59C220.116 127.199 221.569 125.269 222.364 122.661C222.604 121.874 222.844 121.183 222.897 121.125C223.005 121.007 223.117 123.017 223.131 125.308C223.14 126.66 223.098 126.888 222.71 127.597C221.894 129.091 219.847 130.909 217.038 132.634C215.263 133.723 214.504 134.439 213.888 135.603C213.382 136.559 213.218 138.236 213.514 139.426C213.621 139.857 213.673 140.24 213.63 140.279C213.587 140.319 213.343 140.071 213.089 139.731H213.089ZM170.506 139.988C170.308 139.551 170.675 137.575 171.113 136.713C172.254 134.472 174.131 133.622 178.941 133.169C181.972 132.884 184.639 132.302 186.243 131.575C187.078 131.197 188.251 130.446 189.367 129.576C190.43 128.747 190.661 128.692 190.027 129.421C189.77 129.716 189.176 130.601 188.707 131.387C187.693 133.088 186.823 133.918 185.481 134.465C183.962 135.085 182.292 135.336 178.861 135.457C176.341 135.547 175.589 135.623 174.843 135.864C173.016 136.456 171.592 137.834 170.83 139.75C170.658 140.182 170.61 140.218 170.506 139.988V139.988ZM149.953 118.476C148.678 115.201 148.411 112.744 149.103 110.644C149.468 109.533 150.329 108.315 151.453 107.318C152.831 106.094 153.424 105.904 152.121 107.103C151.052 108.088 150.24 109.215 149.829 110.286C149.337 111.568 149.412 114.372 149.987 116.221C150.39 117.515 150.729 119.728 150.524 119.728C150.478 119.728 150.221 119.165 149.953 118.477L149.953 118.476ZM212.16 116.937C211.548 115.997 211.266 115.069 211.248 113.934C211.216 111.767 212.392 110.154 215.27 108.424C218.325 106.588 220.757 104.636 221.875 103.123C222.269 102.591 222.888 101.474 223.251 100.642C223.614 99.81 223.923 99.145 223.938 99.1639C223.953 99.182 223.92 100.358 223.868 101.774C223.775 104.243 223.752 104.386 223.308 105.202C222.456 106.77 219.792 108.765 216.403 110.374C215.758 110.68 214.847 111.268 214.379 111.681C212.944 112.947 212.491 114.096 212.595 116.219C212.63 116.969 212.642 117.582 212.62 117.582C212.598 117.582 212.391 117.292 212.16 116.937H212.16ZM191.305 110.001C190.015 109.53 189.576 109.302 188.599 108.604C187.81 108.04 187.55 107.664 187.684 107.283C187.771 107.039 187.887 107.086 188.76 107.719C189.298 108.109 190.231 108.605 190.833 108.821C191.543 109.075 191.973 109.319 192.059 109.515C192.132 109.682 192.305 109.857 192.443 109.904C192.691 109.99 192.803 110.433 192.574 110.425C192.508 110.425 191.937 110.232 191.304 110.001H191.305ZM192.307 105.78C192.535 104.401 193.211 102.98 194.38 101.416C195.584 99.8069 195.429 99.8939 196.22 100.382C197.735 101.317 200.175 102.208 202.209 102.568C202.84 102.679 203.288 102.853 203.522 103.078C203.718 103.266 204.001 103.419 204.151 103.419C204.301 103.419 204.592 103.549 204.799 103.708L205.174 103.998L204.538 103.915C201.351 103.498 198.758 102.749 196.81 101.685C196.097 101.295 195.499 100.995 195.481 101.017C195.46 101.038 195.158 101.413 194.804 101.845C193.957 102.881 193.235 104.057 192.671 105.323C192.29 106.176 192.228 106.254 192.307 105.78V105.78ZM209.944 91.2461C209.419 91.0964 208.203 90.8365 207.241 90.6688C205.169 90.3074 202.964 90.3566 201.231 90.8029L200.149 91.0813L200.197 90.5675C200.244 90.0598 200.258 90.0505 201.358 89.7914C203.014 89.4012 204.912 89.3313 206.684 89.5947C208.473 89.8608 209.864 90.2145 209.864 90.4038C209.864 90.4785 210.15 90.7021 210.5 90.9008C210.85 91.0993 211.136 91.3256 211.136 91.4033C211.136 91.5809 211.099 91.5762 209.943 91.2461L209.944 91.2461ZM224.491 81.015C224.491 80.9669 224.701 80.2755 224.958 79.4769C226.344 75.1573 226.409 72.3497 225.262 66.2223C225.004 64.8453 224.717 63.3003 224.623 62.7887C224.529 62.2772 224.49 61.1507 224.535 60.2851C224.664 57.8472 225.41 56.2011 227.028 54.7843C227.735 54.1642 229.514 53.2404 229.692 53.4004C229.739 53.4417 229.446 53.8152 229.043 54.2299C227.543 55.7731 226.719 57.8739 226.725 60.1421C226.734 61.5027 226.896 62.3954 227.583 64.7201C228.296 67.1331 228.785 70.0672 228.782 71.9205C228.773 74.6349 228.439 75.5402 226.377 78.3469C225.755 79.1928 225.115 80.1584 224.954 80.493C224.694 81.0328 224.492 81.2619 224.492 81.015H224.491ZM202.371 79.3884L201.839 78.9893L202.772 78.815C204.099 78.5673 206.24 77.5351 207.678 76.4506C208.633 75.7294 209.023 75.5214 209.42 75.5214H209.932L209.143 76.2484C208.206 77.1114 206.119 78.5579 205.204 78.9776C204.846 79.1419 204.182 79.3913 203.728 79.5321L202.902 79.7876L202.371 79.3884V79.3884ZM198.588 72.1715C198.58 72.0208 198.619 71.9361 198.673 71.9836C198.725 72.0317 198.731 72.1547 198.686 72.2578C198.636 72.3719 198.598 72.3379 198.59 72.1709L198.588 72.1715ZM235.78 54.8442C235.78 54.7936 236.093 54.4191 236.475 54.0131C238.262 52.1163 239.874 49.4518 240.688 47.0517C241.277 45.3132 241.593 43.6355 241.934 40.4495C242.084 39.0448 242.254 37.8955 242.311 37.8955C242.471 37.8955 243.114 40.7879 243.244 42.0977C243.404 43.7001 243.179 46.202 242.767 47.4C241.832 50.1229 239.816 52.5383 237.131 54.1536C235.899 54.895 235.78 54.9557 235.78 54.8442V54.8442ZM208.831 49.5314C208.569 49.4069 207.599 48.898 206.677 48.401C204.471 47.2128 201.908 46.1082 200.729 45.8381C199.366 45.5263 197.503 45.5576 196.333 45.9128C195.311 46.2225 194.127 46.8252 193.92 47.1412C193.718 47.4484 192.435 48.1902 191.705 48.4222C189.012 49.2773 185.907 48.776 184.104 47.1951C183.067 46.2853 182.677 45.4568 182.677 44.1651V43.3323H184.269H185.861L185.771 43.8688C185.711 44.2361 185.771 44.5601 185.968 44.8962C186.778 46.2877 189.525 46.31 192.006 44.9452C192.546 44.6482 193.409 44.1727 193.923 43.8891C195.385 43.0822 196.371 42.8299 198.019 42.8403C200.213 42.8539 202.172 43.5115 204.587 45.0456C205.872 45.8612 208.378 48.0678 209.198 49.1042C209.754 49.8064 209.653 49.9229 208.831 49.5315L208.831 49.5314Z" fill="black"/>
<path d="M227.521 45.5101C229.996 38.6216 239.212 39.6898 234.839 48.4364C243.359 34.978 227.768 34.3505 227.521 45.5101Z" fill="black" stroke="black" stroke-width="0.0668734"/>
<path d="M187.978 198.295C188.031 203.022 186.439 206.924 180.312 208.555C184.235 205.956 186.335 202.263 187.978 198.295V198.295Z" fill="#333333"/>
<path d="M195.45 198.942C195.504 203.669 193.911 207.571 187.785 209.202C191.708 206.602 193.808 202.909 195.45 198.942Z" fill="#333333"/>
<path d="M203.691 199.804C203.744 204.531 202.152 208.433 196.025 210.064C199.948 207.464 202.048 203.771 203.691 199.804Z" fill="#333333"/>
<path d="M179.354 199.287C179.407 204.014 177.815 207.916 171.688 209.547C175.611 206.947 177.711 203.254 179.354 199.287Z" fill="#333333"/>
<path d="M169.814 198.763C169.867 203.49 168.275 207.392 162.148 209.023C166.071 206.423 168.171 202.73 169.814 198.763V198.763Z" fill="#333333"/>
<path d="M164.256 198.246C164.309 202.972 162.717 206.875 156.591 208.505C160.513 205.906 162.613 202.213 164.256 198.246Z" fill="#333333"/>
<path d="M192.931 47.9805C192.631 49.5749 193.541 50.9311 194.698 51.305C196.799 48.8813 199.928 48.0675 202.73 46.7408C199.701 45.1384 196.186 45.7316 193.034 47.943L192.931 47.9805Z" fill="white"/>
<path fill-rule="evenodd" clip-rule="evenodd" d="M195.756 48.029C196.242 48.8654 196.061 49.9096 195.352 50.3615C194.643 50.8133 193.675 50.5016 193.189 49.6652C192.703 48.8289 192.884 47.7846 193.593 47.3328C194.302 46.8809 195.27 47.1926 195.756 48.029Z" fill="black"/>
<path fill-rule="evenodd" clip-rule="evenodd" d="M194.283 48.4575C194.44 48.7287 194.39 49.0611 194.173 49.2002C193.955 49.3393 193.651 49.2322 193.495 48.9611C193.338 48.69 193.387 48.3575 193.605 48.2184C193.823 48.0794 194.127 48.1864 194.283 48.4575Z" fill="white"/>
<path d="M194.34 53.0206C194.053 50.5446 196.691 50.1478 199.14 49.6177C196.994 50.434 194.569 51.0877 194.34 53.0206Z" fill="white" fill-opacity="0.462264"/>
<path d="M193.231 214.595C199.427 217.508 205.362 220.421 210.248 223.334C210.57 232.52 222.778 234.024 224.116 222.833" stroke="#F4F4F4" stroke-opacity="0.537736" stroke-width="0.2" stroke-linecap="round"/>
</g>
<defs>
<clipPath id="clip0_1_11130">
<rect width="600" height="400" fill="white"/>
</clipPath>
</defs>
</svg>
