<svg width="600" height="400" viewBox="0 0 600 400" fill="none" xmlns="http://www.w3.org/2000/svg" xmlns:cgf="https://coding.garden/flags"><metadata id="cgf-metadata">

<cgf:flag>
  <cgf:name>Oegstgeest</cgf:name>
  <cgf:route>nl/zh/oegstgeest</cgf:route>
  <cgf:aspect-ratio>1.5</cgf:aspect-ratio>
</cgf:flag>

</metadata><g clip-path="url(#clip0_1_11116)">
<path d="M600 0H0V400H600V0Z" fill="#FCCC00"/>
<path d="M166.445 200H433.554" stroke="#CC112F" stroke-width="70.2918"/>
<path d="M300 66.4458V333.555" stroke="#CC112F" stroke-width="70.2918"/>
<path d="M433.553 200C452.964 200 468.699 215.735 468.699 235.146C468.699 254.556 452.964 270.292 433.553 270.292C443.258 270.292 451.126 262.424 451.126 252.719C451.126 243.014 443.258 235.146 433.553 235.146H335.145" fill="#CC112F"/>
<path d="M433.553 200C452.964 200 468.699 184.265 468.699 164.854C468.699 145.444 452.964 129.708 433.553 129.708C443.258 129.708 451.126 137.576 451.126 147.281C451.126 156.986 443.258 164.854 433.553 164.854H335.145" fill="#CC112F"/>
<path d="M166.446 200C147.035 200 131.3 215.735 131.3 235.146C131.3 254.556 147.035 270.292 166.446 270.292C156.741 270.292 148.873 262.424 148.873 252.719C148.873 243.014 156.741 235.146 166.446 235.146H264.854" fill="#CC112F"/>
<path d="M166.446 200C147.035 200 131.3 184.265 131.3 164.854C131.3 145.444 147.035 129.708 166.446 129.708C156.741 129.708 148.873 137.576 148.873 147.281C148.873 156.986 156.741 164.854 166.446 164.854H264.854" fill="#CC112F"/>
<path d="M300 333.554C300 352.965 284.264 368.7 264.854 368.7C245.443 368.7 229.708 352.965 229.708 333.554C229.708 343.26 237.576 351.127 247.281 351.127C256.986 351.127 264.854 343.26 264.854 333.554V235.146" fill="#CC112F"/>
<path d="M300 333.554C300 352.965 315.735 368.7 335.146 368.7C354.556 368.7 370.292 352.965 370.292 333.554C370.292 343.26 362.424 351.127 352.719 351.127C343.014 351.127 335.146 343.26 335.146 333.554V235.146" fill="#CC112F"/>
<path d="M300 66.4455C300 47.035 284.265 31.2996 264.854 31.2996C245.444 31.2996 229.708 47.035 229.708 66.4455C229.708 56.7403 237.576 48.8726 247.281 48.8726C256.986 48.8726 264.854 56.7403 264.854 66.4455V164.854" fill="#CC112F"/>
<path d="M300 66.4455C300 47.035 315.735 31.2996 335.146 31.2996C354.556 31.2996 370.292 47.035 370.292 66.4455C370.292 56.7403 362.424 48.8726 352.719 48.8726C343.014 48.8726 335.146 56.7403 335.146 66.4455V164.854" fill="#CC112F"/>
</g>
<defs>
<clipPath id="clip0_1_11116">
<rect width="600" height="400" fill="white"/>
</clipPath>
</defs>
</svg>
