<svg width="600" height="400" viewBox="0 0 600 400" fill="none" xmlns="http://www.w3.org/2000/svg" xmlns:cgf="https://coding.garden/flags"><metadata id="cgf-metadata">

<cgf:flag>
  <cgf:name>Pijnacker_nootdorp</cgf:name>
  <cgf:route>nl/zh/pijnacker_nootdorp</cgf:route>
  <cgf:aspect-ratio>1.5</cgf:aspect-ratio>
</cgf:flag>

</metadata><g clip-path="url(#clip0_1_11250)">
<path d="M600 0H0V400H600V0Z" fill="#0F47AF"/>
<path d="M600 161.131H0V241.696H600V161.131Z" fill="#FCDD09"/>
<path d="M160.245 78.1782C164.113 81.0728 175.428 84.95 190.994 93.8906C231.08 119.267 274.895 135.773 341.764 97.4387C386.965 72.0551 427.796 82.1432 457.818 97.4387C475.706 106.961 508.273 111.795 524.524 89.0755C504.901 99.1005 481.85 103.413 462.778 90.596C425.027 62.3388 386.453 50.8057 337.549 80.4589C291.219 103.738 247.832 102.206 207.112 78.1782C179.176 64.0826 150.902 40.2204 119.03 60.8851C109.353 60.3135 109.367 60.7649 109.626 63.2402C109.836 65.2392 112.989 66.2608 115.82 67.3625C112.532 67.0365 116.075 66.1416 106.819 66.5707C103.708 66.715 99.6535 65.7556 98.2503 64.9996C92.0403 61.0206 86.9084 61.1727 82.0078 62.2118C92.9993 65.3196 94.5138 65.9091 93.0531 69.6377C92.1903 71.8409 88.6597 72.6783 82.0078 74.3131C88.5489 75.1026 93.4833 74.8073 97.3823 71.2086C97.7911 70.633 98.8374 69.7053 100.348 69.772C111.144 70.2483 115.204 68.3176 115.857 67.4706C113.397 68.7688 113.055 72.927 120.692 72.5391C135.44 79.2377 147.424 79.6849 160.245 78.1782V78.1782Z" fill="#FCDD09"/>
<path d="M135.452 58.5779C133.944 60.7806 134.069 63.8462 135.365 65.0755C139.868 62.6823 144.637 63.286 149.322 62.9353C145.482 59.8997 140.702 57.767 135.452 58.5778L135.452 58.5779Z" fill="white"/>
<path fill-rule="evenodd" clip-rule="evenodd" d="M139.109 61.0567C139.167 62.5605 138.178 63.9445 136.9 64.148C135.621 64.3515 134.538 63.2974 134.48 61.7936C134.422 60.2898 135.411 58.9058 136.689 58.7023C137.968 58.4988 139.051 59.5529 139.109 61.0567Z" fill="black"/>
<path fill-rule="evenodd" clip-rule="evenodd" d="M136.802 60.7997C136.821 61.2862 136.517 61.7313 136.124 61.7939C135.731 61.8565 135.396 61.5129 135.378 61.0264C135.359 60.5399 135.663 60.0948 136.056 60.0321C136.449 59.9695 136.783 60.3131 136.802 60.7997Z" fill="white"/>
<path d="M139.566 52.09C135.487 51.5013 128.969 56.9132 135.698 58.4582C143.547 58.2564 147.585 61.4595 151.733 64.5639C148.077 61.1038 145.586 56.7284 137.134 57.0332C133.851 57.2299 133.096 53.8069 139.566 52.0899L139.566 52.09Z" fill="black"/>
<path d="M133.954 67.395C135.278 63.5313 139.093 64.4616 142.748 65.0846C139.303 65.0644 135.596 64.6401 133.954 67.395Z" fill="white" fill-opacity="0.462264"/>
<path d="M262.279 120.865C261.856 120.832 260.431 120.727 259.114 120.633C247.967 119.835 236.356 117.093 224.578 112.477C215.192 108.799 206.01 104.108 194.606 97.1654C186.789 92.406 183.563 90.6995 170.994 84.6728C166.006 82.2813 161.501 80.0594 160.983 79.7352L160.041 79.1458L157.817 79.3886C154.63 79.7366 147.103 79.869 143.959 79.6323C136.861 79.098 129.96 77.4109 122.859 74.4734C120.888 73.6583 120.438 73.5308 119.522 73.5284C118.198 73.5284 116.402 73.1758 115.506 72.7475C114.572 72.3015 113.605 71.2084 113.476 70.4541C113.42 70.1196 113.337 69.846 113.293 69.846C113.249 69.846 112.47 69.9867 111.561 70.1587C109.289 70.5888 106.364 70.8038 102.756 70.8057C99.3833 70.8057 99.2048 70.8482 98.1874 71.8508C96.6974 73.3188 94.3868 74.5197 91.8408 75.1489C90.6421 75.4451 89.9169 75.507 87.4933 75.5193C85.8934 75.5292 83.9877 75.4738 83.2584 75.4002L81.9323 75.2664V74.3248V73.3835L82.6595 73.2061C87.0773 72.1297 89.9065 71.222 91.0559 70.5123C92.2085 69.8009 92.8953 67.8929 92.3034 67.047C91.7832 66.3033 88.904 65.1685 84.1566 63.8359C82.9803 63.5054 81.9586 63.1857 81.8865 63.1249C81.8134 63.0645 81.8144 62.6257 81.8865 62.1505L82.0191 61.2865L83.0445 61.0768C84.8204 60.7137 88.8178 60.6359 90.4862 60.9319C93.1868 61.4109 95.7128 62.3453 97.99 63.7073C99.2208 64.4435 101.473 65.1247 103.684 65.4294C105.679 65.7044 106.554 65.7314 108.491 65.5782L109.778 65.4762L109.264 64.7016C108.86 64.0938 108.734 63.6931 108.676 62.8407C108.577 61.3968 108.91 60.7793 110.078 60.2324C110.918 59.8389 111.006 59.8319 114.976 59.8319H119.019L120.363 59.0306C124.628 56.4898 129.041 54.5995 133.263 53.5058C134.345 53.2253 135.847 52.8095 136.6 52.5814C137.538 52.2975 138.399 52.1582 139.337 52.1391C140.09 52.1242 141.9 52.054 143.358 51.9846C153.359 51.508 164.613 54.564 178.435 61.51C182.181 63.3926 184.826 64.8219 193.443 69.62C197.603 71.9367 202.608 74.6773 204.564 75.7101C206.521 76.7431 208.969 78.073 210.005 78.6655C211.04 79.2581 213.08 80.3674 214.539 81.1305C247.356 98.2989 281.459 100.67 316.857 88.2446C324.403 85.5958 334.622 81.1006 339.191 78.4207C344.554 75.2748 352.31 71.436 357.328 69.4439C364.284 66.6825 371.714 64.558 378.288 63.4506C404.923 58.9638 430.473 66.2902 458.936 86.575C466.726 92.1266 469.543 93.6541 475.221 95.4062C480.051 96.8967 483.971 97.4503 489.679 97.4475C499.629 97.4376 509.03 95.1489 520.479 89.932L524.157 88.2556L524.784 88.9431L525.41 89.6306L524.795 90.4335C518.197 99.0498 508.994 104.154 497.037 105.829C494.579 106.173 487.781 106.308 484.878 106.071C477.517 105.468 469.998 103.67 463.07 100.855C462.036 100.436 459.069 99.0573 456.477 97.7931C444.405 91.9059 435.051 88.4578 424.402 85.9701C415.417 83.8711 407.639 82.9762 398.408 82.9792C388.563 82.9792 379.849 84.1213 370.589 86.6155C360.7 89.2788 352.298 92.7623 341.79 98.5557C331.428 104.268 323.243 108.197 315.14 111.348C305.72 115.01 296.677 117.588 287.687 119.175C280.784 120.393 276.327 120.796 268.951 120.868C265.704 120.899 262.701 120.898 262.278 120.868L262.279 120.865ZM268.07 117.718C268.07 116.994 268.173 115.912 268.287 115.315C268.658 113.37 267.849 112 266.132 111.666C264.849 111.417 263.941 111.666 263.035 112.523C261.977 113.52 261.563 114.696 261.464 116.982L261.383 118.854L262.045 118.919C262.409 118.954 263.912 118.995 265.384 119.01L268.061 119.037L268.072 117.719L268.07 117.718ZM276.139 118.735L277.251 118.635L277.197 116.472C277.167 115.282 277.068 114.087 276.979 113.815C276.647 112.806 275.484 112.146 274.039 112.146C272.029 112.146 270.585 113.957 270.226 116.929C270.162 117.461 270.162 118.157 270.226 118.478L270.342 119.06L272.685 118.947C273.973 118.885 275.528 118.79 276.14 118.735H276.139ZM259.229 117.527C259.198 116.873 259.292 115.737 259.441 115.002C259.756 113.426 259.624 112.748 258.839 111.911C257.949 110.962 256.07 110.774 254.79 111.505C254.135 111.879 253.282 113.071 253.014 113.986C252.75 114.888 252.571 116.588 252.658 117.379L252.731 118.046L254.126 118.23C256.124 118.495 257.811 118.67 258.601 118.695L259.285 118.716L259.229 117.528L259.229 117.527ZM284.181 117.815C285.733 117.591 287.031 117.382 287.064 117.351C287.097 117.32 286.997 116.93 286.837 116.484C286.679 116.039 286.453 114.877 286.334 113.902C286.094 111.94 285.851 111.461 284.853 110.985C284.11 110.63 282.625 110.62 281.848 110.965C281.064 111.313 280.317 112.19 279.886 113.267C279.509 114.21 279.241 117.176 279.46 117.992C279.597 118.505 279.325 118.515 284.181 117.814V117.815ZM250.747 114.039C251.177 111.427 250.834 110.507 249.168 109.793C247.424 109.045 245.927 109.489 244.744 111.104C244.048 112.055 243.356 113.923 243.193 115.292L243.076 116.275L244.625 116.609C246.396 116.99 249.326 117.547 249.96 117.623C250.371 117.671 250.389 117.637 250.427 116.712C250.448 116.184 250.593 114.981 250.747 114.039V114.039ZM293.016 116.16C295.042 115.712 295.716 115.502 295.674 115.335C295.643 115.211 295.506 114.707 295.371 114.213C295.236 113.72 295.06 112.658 294.981 111.852C294.751 109.516 293.907 108.675 291.926 108.809C290.498 108.906 289.673 109.432 289.032 110.656C288.576 111.525 288.547 111.695 288.593 113.268C288.639 114.837 288.775 115.646 289.15 116.569C289.328 117.007 289.048 117.037 293.016 116.16V116.16ZM241.176 114.309C241.293 113.604 241.547 112.601 241.739 112.081C241.931 111.56 242.087 110.911 242.085 110.639C242.085 110.04 241.576 108.964 241.123 108.587C240.209 107.827 238.344 107.553 237.353 108.033C235.967 108.704 234.683 110.943 234.33 113.302L234.241 113.897L236.154 114.451C237.207 114.756 238.568 115.15 239.18 115.326C240.897 115.821 240.927 115.806 241.176 114.309H241.176ZM302.532 113.679C303.638 113.355 304.543 113.051 304.543 113.003C304.543 112.956 304.398 112.437 304.221 111.85C304.044 111.264 303.807 110.315 303.695 109.742C303.285 107.65 302.247 106.72 300.557 106.93C299.171 107.102 298.3 107.692 297.59 108.941C297.149 109.717 297.136 112.781 297.57 114.09L297.868 114.993L299.196 114.63C299.925 114.431 301.427 114.003 302.533 113.679H302.532ZM232.399 111.98C232.548 111.361 232.91 110.297 233.203 109.617C234.133 107.453 233.696 106.081 231.793 105.193C230.219 104.458 228.872 104.764 227.563 106.155C226.396 107.392 225.014 110.321 225.417 110.699C225.6 110.869 231.632 113.095 231.932 113.103C232.039 113.103 232.249 112.6 232.399 111.98ZM309.862 111.264C311.492 110.691 312.892 110.16 312.973 110.084C313.057 110.007 313.006 109.567 312.859 109.083C312.716 108.609 312.509 107.716 312.4 107.099C312.292 106.482 312.047 105.736 311.856 105.44C310.502 103.346 306.99 104.267 306.163 106.933C305.939 107.652 305.89 108.231 305.96 109.332C306.047 110.718 306.476 112.306 306.763 112.306C306.837 112.306 308.231 111.837 309.862 111.264V111.264ZM270.566 111.356C271.321 110.618 272.608 110.168 274 110.155C275.565 110.141 276.641 110.447 277.53 111.16C277.954 111.499 278.279 111.661 278.318 111.552C278.354 111.449 278.611 111.072 278.888 110.715C280.463 108.678 283.423 108.067 285.976 109.251C286.811 109.637 287.025 109.684 287.135 109.501C287.696 108.562 288.498 107.847 289.561 107.339C290.652 106.817 290.845 106.778 292.32 106.778C293.834 106.778 293.942 106.802 294.695 107.299C295.495 107.827 295.816 107.935 295.816 107.677C295.816 107.598 296.174 107.161 296.611 106.706C297.683 105.589 298.819 105.066 300.379 104.97C301.928 104.875 302.632 105 303.433 105.508C303.783 105.731 304.085 105.891 304.104 105.865C304.123 105.839 304.341 105.487 304.587 105.085C305.646 103.351 307.182 102.467 309.466 102.278C310.517 102.191 310.705 102.224 311.637 102.67C312.199 102.938 312.667 103.143 312.679 103.125C312.691 103.107 312.865 102.768 313.066 102.372C314.006 100.517 315.777 99.4502 318.078 99.3514C319.356 99.298 319.687 99.3762 321.183 100.094C321.254 100.127 321.312 100.059 321.313 99.9416C321.313 99.459 322.184 98.0293 322.854 97.4022C323.831 96.4867 325.128 95.9584 326.66 95.8505C327.585 95.7842 328.067 95.8288 328.561 96.0233C329.445 96.3698 329.47 96.3634 329.591 95.7624C329.946 93.9924 331.481 92.2538 333.227 91.6419C334.354 91.2473 336.268 91.2055 337.165 91.5559C337.931 91.8558 338.08 91.8569 338.08 91.5657C338.08 91.4368 338.239 90.9323 338.434 90.4448C338.909 89.2567 340.204 87.9443 341.37 87.4694C342.548 86.99 344.586 86.8567 345.468 87.2016C346.166 87.4748 346.293 87.4274 346.293 86.8924C346.293 86.6902 346.458 86.1125 346.659 85.6085C347.168 84.333 348.601 82.9855 349.935 82.5268C351.221 82.0849 353.102 82.0691 354.096 82.4912L354.798 82.7897L355.088 81.9298C355.591 80.434 357.16 78.889 358.574 78.4964C360.313 78.0136 362.025 78.145 363.088 78.8429C363.709 79.2509 363.811 79.2254 364.14 78.5788C364.592 77.6913 365.754 76.6206 366.74 76.1839C368.437 75.4321 370.628 75.4963 371.989 76.3376L372.618 76.7263L373.132 75.8727C374.177 74.1383 375.937 73.2127 378.19 73.2127C379.625 73.2127 380.386 73.4574 381.307 74.2138C381.797 74.6172 381.958 74.6808 382.019 74.4946C382.063 74.3623 382.506 73.8793 383.005 73.4213C384.967 71.6178 388.205 71.4488 390.15 73.0482L390.779 73.5646L391.507 72.8638C392.554 71.8561 393.65 71.4143 395.323 71.326C397.041 71.236 398.128 71.6172 399.173 72.6781L399.872 73.3889L400.663 72.8983C401.741 72.2299 402.598 72.0435 404.213 72.126C405.821 72.2091 406.673 72.5572 407.592 73.5104L408.211 74.1516L408.84 73.5966C410.005 72.5679 410.69 72.3322 412.511 72.3338C414.851 72.3338 416.071 72.9156 417.302 74.6104L417.559 74.9636L418.543 74.3845C419.383 73.8903 419.712 73.7945 420.788 73.7297C423.501 73.5667 425.684 74.8469 426.375 77.0062C426.58 77.6497 426.6 77.6634 427.092 77.503C427.864 77.2509 429.921 77.4367 430.944 77.8531C431.756 78.1824 432.847 79.1026 433.301 79.841C433.46 80.0992 433.526 80.1013 434.221 79.8707C435.34 79.4988 437.043 79.5554 438.206 80.003C439.567 80.5271 440.14 81.0006 440.739 82.0926L441.259 83.0409L442.67 83.0587C443.853 83.0726 444.244 83.1497 445.097 83.5382C446.378 84.1212 447.468 85.1322 447.789 86.0359L448.038 86.7337L449.15 86.7575C451.05 86.799 453.005 87.8703 453.66 89.2306C453.963 89.8596 453.995 89.8779 454.588 89.7672C456.898 89.3361 459.665 90.7096 460.265 92.5852C460.476 93.2417 460.476 93.2417 461.347 93.2433C462.966 93.2433 465.247 94.6436 465.49 95.7822C465.598 96.2879 465.605 96.2909 466.414 96.1903C467.724 96.0275 468.866 96.47 470.046 97.5972C470.587 98.1144 471.03 98.6029 471.03 98.6833C471.03 98.7634 471.104 99.0102 471.194 99.2318L471.357 99.6349L472.373 99.1445C473.648 98.5288 474.666 98.4103 475.759 98.7504C476.576 99.0048 477.703 99.8367 478.26 100.597L478.543 100.982L479.107 100.584C480.19 99.8175 481.443 99.6169 482.517 100.037C483.833 100.552 485.061 102.2 485.061 103.45C485.061 103.911 485.145 104.133 485.346 104.205C485.921 104.412 493.512 104.305 495.606 104.06C503.492 103.138 509.551 100.962 515.176 97.0307C516.77 95.9164 520.359 92.7905 520.672 92.2425C520.812 91.9987 520.78 91.9831 520.41 92.1148C520.178 92.1979 519.616 92.4413 519.162 92.6568C516.712 93.8195 511.405 95.7239 507.74 96.7563C501.231 98.5892 495.683 99.3805 489.424 99.3686C480.33 99.3508 472.655 97.3817 465.191 93.1511C463.599 92.2485 462.944 91.8039 457.513 87.9341C427.544 66.5817 400.445 59.8151 372.302 66.6565C362.096 69.1375 350.914 73.7928 340.561 79.8704C334.14 83.6393 322.487 88.5715 312.808 91.6165C283.818 100.737 255.915 100.068 228.571 89.5986C221.875 87.0349 216.577 84.5124 208.466 80.0268C206.678 79.0381 203.675 77.4126 201.793 76.4148C199.911 75.4171 195.252 72.8579 191.441 70.7278C182.303 65.6206 178.922 63.8461 173.475 61.2988C159.072 54.5639 147.844 52.5161 136.868 54.623C135.886 54.8115 135.02 55.0021 134.943 55.0462C134.661 55.2098 134.817 56.0646 135.207 56.4895C135.597 56.9136 135.686 56.9319 137.988 57.0579C142.718 57.317 144.849 58.0917 147.723 60.5976C149.225 61.9068 151.757 64.5047 151.037 63.9972C146.895 61.0779 145.137 60.1113 142.643 59.3831C140.838 58.8557 139.729 58.675 137.517 58.5474C135.325 58.4209 134.269 58.1209 133.509 57.409C133.035 56.9648 132.922 56.7357 132.922 56.2132C132.922 55.4646 133.116 55.4543 130.527 56.3423C128.103 57.1739 124.407 58.9147 121.774 60.4655L119.437 61.8413L115.785 61.7444C113.776 61.6909 111.825 61.7117 111.448 61.7889C110.802 61.9226 110.761 61.9663 110.717 62.5652C110.627 63.7933 111.606 64.6623 114.253 65.7036C114.969 65.9854 115.978 66.3113 116.496 66.4279C117.64 66.6853 121.461 66.7042 126.675 66.4783C129.033 66.3764 130.458 66.3721 130.492 66.4675C130.522 66.5506 131.096 66.7109 131.767 66.8232C132.471 66.9411 133.12 67.1503 133.298 67.3169C133.723 67.7155 133.697 68.4901 133.248 68.7849C132.965 68.9707 132.926 69.0823 133.065 69.3147C133.216 69.5661 133.112 69.6845 132.355 70.1281L131.469 70.6473L131.041 70.2014C130.806 69.9563 130.342 69.4438 130.011 69.0629L129.409 68.37L124.279 68.5658C120.947 68.6929 118.651 68.71 117.728 68.6143C116.35 68.4716 116.295 68.4788 115.889 68.8594C115.344 69.3697 115.33 70.1503 115.858 70.6143C116.561 71.2329 117.522 71.4949 119.389 71.577C121.047 71.6492 121.277 71.703 122.769 72.356C129.4 75.2575 136.644 77.1109 143.692 77.709C146.483 77.9459 154.821 77.816 157.744 77.4899C159.456 77.2989 159.889 77.1868 160.974 76.6527C163.519 75.4008 164.948 73.62 165.533 70.9739C165.678 70.3149 165.812 69.7641 165.83 69.75C165.847 69.7351 166.305 69.7995 166.846 69.8933C167.99 70.0901 167.978 70.0542 167.483 71.866C166.776 74.4567 165.568 76.1921 163.547 77.5209L162.347 78.3104L162.907 78.6206C163.215 78.7913 163.826 79.1224 164.266 79.3565L165.066 79.7819L165.274 79.1815C165.891 77.3977 167.584 74.9581 168.877 73.9891C170.681 72.6371 172.056 72.1843 174.06 72.2826C177.012 72.4278 179.735 74.2709 180.348 76.5382C180.45 76.9127 180.552 77.2193 180.576 77.2193C180.601 77.2193 180.947 77.111 181.347 76.9788C181.747 76.8467 182.585 76.7386 183.208 76.7386C185.978 76.7389 188.679 78.9874 189.025 81.5818C189.13 82.3632 189.17 82.4232 189.563 82.3814C191.146 82.213 192.28 82.3151 193.199 82.7093C194.929 83.4508 196.212 84.8286 196.497 86.249C196.587 86.6959 196.684 86.8279 196.875 86.7593C197.017 86.7089 197.472 86.587 197.885 86.4895C200.644 85.8389 204.001 87.9032 204.519 90.5687C204.634 91.1597 204.656 91.1765 205.184 91.065C208.066 90.4567 211.487 92.5113 211.901 95.1001L212.007 95.758L212.719 95.5254C215.095 94.7491 218.602 96.5206 219.402 98.9007L219.695 99.7744L220.483 99.5525C220.916 99.4304 221.602 99.3305 222.007 99.3305C224.016 99.3305 226.486 100.854 227.134 102.493C227.3 102.913 227.459 103.284 227.488 103.319C227.515 103.355 227.906 103.248 228.356 103.082C229.624 102.615 231.334 102.668 232.514 103.211C233.862 103.831 234.814 104.654 235.334 105.649L235.785 106.512L236.732 106.106C237.553 105.755 237.853 105.71 238.986 105.771C240.984 105.88 242.465 106.651 243.462 108.102L243.929 108.782L244.371 108.457C246.724 106.723 250.633 107.289 252.272 109.601L252.785 110.325L253.493 109.876C254.617 109.164 256.087 108.878 257.465 109.102C258.983 109.35 259.58 109.639 260.45 110.544L261.179 111.303L261.907 110.697C262.816 109.943 263.907 109.585 265.304 109.585C267.1 109.585 267.885 109.864 268.955 110.881C269.472 111.373 269.939 111.788 269.992 111.802C270.046 111.816 270.304 111.617 270.568 111.359L270.566 111.356ZM135.864 63.9692C133.66 62.9524 134.644 58.7814 137.085 58.7936C139.642 58.8055 139.93 63.0401 137.439 64.0144C136.721 64.2955 136.561 64.2909 135.864 63.9689V63.9692ZM136.589 61.5825C137.085 61.1177 136.842 60.0719 136.237 60.0719C135.874 60.0719 135.489 60.557 135.489 61.0126C135.489 61.7651 136.071 62.0669 136.589 61.5825V61.5825ZM224.778 106.204C225.904 104.347 225.258 102.453 223.23 101.659C221.414 100.949 219.627 101.791 218.237 104.011C217.794 104.719 216.879 107.019 216.997 107.129C217.03 107.16 218.433 107.793 220.114 108.535L223.17 109.884L223.703 108.491C223.997 107.725 224.48 106.696 224.778 106.204V106.204ZM319.382 107.544C321.316 106.71 321.817 106.431 321.735 106.231C321.678 106.091 321.443 105.299 321.213 104.471C320.541 102.052 319.907 101.398 318.223 101.386C315.764 101.367 314.244 103.442 314.543 106.409C314.604 107.016 314.686 107.601 314.724 107.707C314.761 107.813 314.876 108.204 314.977 108.576L315.162 109.253L316.043 108.928C316.527 108.749 318.03 108.126 319.382 107.544V107.544ZM215.32 105.216C215.665 104.231 216.217 103.167 216.935 102.107C217.35 101.494 217.449 101.173 217.449 100.441C217.449 99.3657 217.048 98.7041 215.961 97.9891C213.601 96.4354 210.876 98.0821 209.489 101.901C209.147 102.844 209.104 103.116 209.277 103.27C209.578 103.538 214.581 106.047 214.826 106.052C214.936 106.052 215.159 105.678 215.32 105.216V105.216ZM327.157 104.029C329.704 102.811 330.373 102.426 330.29 102.226C330.233 102.086 330 101.376 329.774 100.648C329.272 99.0297 329.165 98.8362 328.464 98.2843C327.951 97.8798 327.824 97.8532 326.749 97.9251C324.52 98.0744 323.385 99.3596 323.227 101.912C323.156 103.052 323.568 105.576 323.824 105.576C323.874 105.576 325.375 104.88 327.157 104.029V104.029ZM482.836 103.477C482.836 103.126 482.666 102.821 482.255 102.436C481.606 101.829 481.304 101.774 480.638 102.142C480.114 102.432 479.337 103.389 479.567 103.461C479.815 103.537 482.207 103.938 482.537 103.957C482.762 103.97 482.836 103.85 482.836 103.477V103.477ZM476.848 102.602C476.848 102.096 476.103 101.152 475.459 100.84C474.659 100.453 473.878 100.55 473.054 101.138C472.647 101.429 472.313 101.735 472.313 101.819C472.313 101.938 476.14 102.967 476.719 103.004C476.79 103.014 476.848 102.828 476.848 102.602ZM207.364 101.374C207.583 100.613 208.221 99.3879 209.134 97.975C210.23 96.2789 209.922 94.6301 208.319 93.6085C206.18 92.2462 203.964 93.1665 202.424 96.0563C201.848 97.1367 201.308 98.607 201.397 98.8555C201.466 99.0509 206.655 102.018 206.962 102.038C207.076 102.048 207.257 101.747 207.364 101.374ZM332.98 101.113C335.876 99.5903 338.764 97.999 338.764 97.9254C338.764 97.875 338.523 97.1166 338.228 96.2385C337.44 93.8959 336.478 93.0601 334.882 93.3315C331.853 93.8465 330.878 96.471 332.105 100.81C332.198 101.14 332.306 101.41 332.344 101.41C332.383 101.41 332.668 101.277 332.98 101.113V101.113ZM469.187 100.543C469.372 99.6349 468.265 98.3967 467.142 98.2556C466.383 98.1606 465.701 98.4237 465.071 99.0552L464.673 99.4545L466.44 100.089C467.412 100.439 468.322 100.765 468.463 100.814C468.953 100.986 469.108 100.928 469.187 100.543V100.543ZM463.075 98.0437C463.658 97.4748 463.72 96.6188 463.218 96.0895C462.743 95.5876 461.497 95.1154 460.973 95.2386C460.34 95.3872 459.701 95.8525 459.345 96.4234L459.039 96.9146L460.714 97.7123C461.635 98.1511 462.432 98.5137 462.485 98.5183C462.539 98.5282 462.804 98.3092 463.075 98.0437V98.0437ZM199.729 96.8039C200.135 95.5893 200.549 94.84 201.581 93.4522C202.418 92.3271 202.433 92.2841 202.36 91.3271C202.274 90.2124 201.959 89.7185 200.884 89.0065C199.936 88.3781 198.627 88.2622 197.666 88.7215C196.272 89.3874 195.087 90.9733 194.238 93.3116C193.924 94.1743 193.882 94.4521 194.049 94.5416C194.167 94.6059 195.381 95.3462 196.745 96.1881C198.11 97.03 199.27 97.7202 199.323 97.722C199.376 97.722 199.559 97.3105 199.729 96.8039ZM343.259 95.5368C344.315 94.959 345.621 94.2766 346.163 94.0204C346.705 93.7644 347.148 93.5129 347.148 93.4618C347.148 93.4114 346.906 92.6368 346.61 91.7417C346.184 90.4539 345.95 90.0058 345.486 89.5937C344.961 89.1277 344.794 89.073 343.896 89.073C342.704 89.073 342.1 89.2628 341.443 89.8442C340.011 91.1122 339.649 93.6168 340.507 96.3163C340.671 96.8302 340.74 96.8886 341.018 96.7489C341.196 96.6609 342.204 96.1146 343.259 95.5368V95.5368ZM457.785 94.9791C458.422 94.053 458.462 93.8596 458.178 93.0955C458.044 92.7352 457.727 92.444 457.108 92.1117C455.95 91.4896 455.21 91.4923 454.281 92.1216C453.56 92.6113 452.847 93.5061 452.949 93.7956C453.009 93.969 457.039 95.9785 457.138 95.8852C457.172 95.8535 457.464 95.445 457.785 94.9785V94.9791ZM192.456 91.9571C192.668 91.3843 193.101 90.5002 193.418 89.9923C193.975 89.1011 194.522 87.8272 194.52 87.425C194.52 86.9155 194.12 85.9886 193.708 85.53C193.173 84.9345 191.747 84.2685 191.013 84.2713C189.742 84.2812 188.111 85.4984 187.197 87.1298C186.631 88.1391 186.077 89.626 186.169 89.8852C186.256 90.1282 191.848 93.2325 191.969 93.1047C192.025 93.0453 192.244 92.5297 192.456 91.9571ZM451.395 92.1149C452.221 90.714 451.893 89.6805 450.425 89.0563C449.354 88.6005 448.594 88.6624 447.756 89.2732C447.112 89.7433 446.216 90.9124 446.402 91.0413C446.614 91.1886 450.608 92.9001 450.754 92.9064C450.848 92.9163 451.137 92.5543 451.395 92.1149ZM351.215 91.5775C352.225 91.1045 353.629 90.4827 354.335 90.196C355.041 89.9093 355.637 89.6596 355.661 89.6411C355.684 89.6223 355.48 88.8925 355.208 88.0185C354.935 87.1443 354.661 86.2179 354.598 85.9593C354.458 85.3832 353.36 84.3246 352.755 84.1824C351.995 84.0038 350.44 84.4027 349.78 84.9453C348.808 85.7448 348.464 86.5435 348.383 88.1917C348.329 89.294 348.397 89.9504 348.672 90.9777C348.869 91.7166 349.031 92.3477 349.031 92.3795C349.031 92.5479 349.551 92.3568 351.215 91.5775V91.5775ZM445.086 89.0348C445.521 88.3971 445.877 87.7049 445.877 87.4967C445.877 86.8185 445.38 86.1181 444.551 85.6281C443.876 85.2284 443.561 85.1474 442.685 85.1474C441.764 85.1474 441.548 85.2107 440.974 85.6412C440.269 86.1703 439.165 87.7304 439.242 88.0867C439.278 88.254 443.7 90.1278 444.188 90.1825C444.246 90.1924 444.652 89.6727 445.086 89.0348V89.0348ZM184.586 87.6512C184.968 86.6412 185.711 85.3407 186.317 84.6191C186.84 83.9967 187.08 82.6438 186.843 81.6535C186.325 79.4851 183.611 78.1049 181.709 79.0431C180.782 79.5008 179.733 80.6312 178.991 81.975C178.395 83.0525 177.581 85.1242 177.581 85.5633C177.581 85.6404 178.255 86.0237 179.078 86.4134C179.902 86.803 181.346 87.5206 182.287 88.0078C183.228 88.4951 184.043 88.8439 184.098 88.7832C184.155 88.7218 184.373 88.2128 184.586 87.6512ZM360.874 87.6512C362.353 87.1134 363.643 86.6733 363.74 86.6733C363.975 86.6733 363.961 86.4421 363.662 85.3915C363.524 84.9068 363.36 83.9694 363.298 83.3085C363.102 81.2169 362.241 80.2607 360.56 80.2677C358.24 80.2776 356.848 81.8975 356.845 84.5903C356.845 86.3908 357.524 88.8785 357.973 88.709C358.089 88.6654 359.395 88.189 360.874 87.6512H360.874ZM437.39 86.7342C437.568 86.3279 437.982 85.6674 438.308 85.2668C439.414 83.9106 439.123 82.65 437.555 82.0007C436.397 81.5208 435.207 81.5738 434.338 82.1438C433.494 82.6967 432.529 84.3886 432.479 85.4032L432.446 86.0779L434.585 86.7636C435.762 87.1407 436.801 87.4547 436.895 87.4612C436.989 87.4711 437.212 87.1407 437.391 86.7342H437.39ZM368.931 85.089C370.455 84.6584 371.955 84.2555 372.265 84.1937C372.684 84.1087 372.806 84.0131 372.742 83.8151C372.533 83.1669 372.268 81.85 372.11 80.6695C371.833 78.6005 370.981 77.699 369.307 77.7048C366.747 77.7147 365.291 79.7169 365.5 82.9432C365.584 84.2401 365.91 85.8722 366.085 85.8722C366.126 85.8722 367.406 85.5197 368.931 85.089V85.089ZM430.276 84.8568C430.307 84.6084 430.571 83.8879 430.864 83.2561C431.529 81.8214 431.572 80.9235 431.004 80.3571C430.051 79.4071 427.804 79.1747 426.79 79.9213C426.086 80.4399 425.503 81.3164 425.145 82.3914C424.696 83.7438 424.726 84.0971 425.302 84.2106C425.56 84.261 426.658 84.5399 427.74 84.8289C428.822 85.1179 429.823 85.3441 429.964 85.3316C430.111 85.3188 430.245 85.1146 430.276 84.8568V84.8568ZM176.101 83.1525C176.369 82.3659 176.929 81.1638 177.344 80.4812C178.243 79.0036 178.482 78.2622 178.335 77.402C178.183 76.5121 177.738 75.8944 176.826 75.3068C174.032 73.5065 171.103 74.1334 168.919 76.9988C168.133 78.0304 167.157 79.9404 167.148 80.4639C167.148 80.6699 168.215 81.2484 171.207 82.6584C173.443 83.7116 175.348 84.5752 175.442 84.578C175.536 84.578 175.833 83.9393 176.101 83.1525V83.1525ZM423.052 81.7064C423.204 81.2215 423.589 80.4191 423.908 79.9228C424.597 78.8527 424.643 78.2149 424.104 77.2138C423.336 75.7882 421.075 75.3045 419.514 76.2319C418.165 77.033 417.049 79.619 417.166 81.6758L417.215 82.5723L419.868 83.0661L422.52 83.56L422.648 83.0738C422.719 82.8062 422.899 82.191 423.051 81.7064H423.052ZM378.29 82.924C379.56 82.6841 380.783 82.4526 381.006 82.4096C381.372 82.3393 381.401 82.2731 381.298 81.7385C380.986 80.118 380.863 79.133 380.86 78.2162C380.849 75.9623 379.532 74.8913 377.285 75.3151C376.081 75.5419 375.075 76.4445 374.65 77.679C374.268 78.7889 374.261 81.0529 374.636 82.4492C374.964 83.674 374.581 83.6242 378.289 82.924H378.29ZM414.973 81.0254C415.036 80.3864 415.251 79.2473 415.45 78.4939C415.859 76.9527 415.803 76.2797 415.196 75.4352C414.272 74.1501 411.959 73.897 410.52 74.9241C409.337 75.7693 408.314 78.5483 408.437 80.5824L408.49 81.4585L410.983 81.7254C412.355 81.8721 413.626 82.0279 413.807 82.0711C414.8 82.3083 414.849 82.2641 414.972 81.0254H414.973ZM387.32 81.6009C389.541 81.3754 390.087 81.273 390.014 81.0959C389.76 80.475 389.552 78.4383 389.632 77.3429C389.709 76.2865 389.666 76.0034 389.353 75.4214C389.15 75.0461 388.722 74.5761 388.403 74.3771C387.378 73.7396 385.499 73.9727 384.478 74.8643C383.196 75.9842 382.749 78.7333 383.434 81.28C383.627 81.9973 383.676 82.049 384.089 81.9696C384.334 81.9211 385.789 81.7565 387.32 81.6009V81.6009ZM397.423 81.0163C397.589 80.9935 397.662 80.5609 397.699 79.383C397.725 78.5016 397.885 77.2662 398.052 76.6371C398.423 75.2417 398.323 74.7917 397.463 73.9862C396.832 73.3952 396.77 73.3746 395.625 73.3746C394.612 73.3746 394.328 73.4418 393.658 73.8393C392.519 74.5157 391.963 75.6529 391.848 77.538C391.774 78.7427 391.992 80.6946 392.243 81.0766C392.293 81.1548 396.79 81.1024 397.423 81.0163V81.0163ZM406.244 79.8237C406.307 79.0525 406.466 78.0056 406.597 77.4973C407.037 75.7899 406.236 74.5025 404.526 74.1699C401.675 73.6158 399.697 76.0405 399.881 79.8637L399.934 80.9853L401.902 81.0734C402.984 81.1218 404.378 81.176 404.999 81.1935L406.128 81.2242L406.243 79.8222L406.244 79.8237ZM90.1455 73.5237C92.8068 73.1199 94.8543 72.1748 96.7644 70.4682C98.4657 68.9481 98.6684 68.8966 102.978 68.8865C106.719 68.8766 109.651 68.6422 111.766 68.1799C114.525 67.5768 113.784 67.4252 108.275 67.4656C104.982 67.4893 103.781 67.4408 102.636 67.2317C100.341 66.8143 98.447 66.1833 96.9339 65.3313C93.9117 63.6302 91.3674 62.8244 88.6054 62.694L86.98 62.6168L88.6636 63.1803C93.1405 64.6786 94.5834 65.7953 94.5885 67.7661C94.5885 68.5308 94.276 69.6717 93.8508 70.4419C93.2654 71.5018 91.7446 72.5158 89.5569 73.3049C88.3959 73.7236 88.5205 73.7699 90.1455 73.5234V73.5237Z" fill="black"/>
<path d="M158.247 309.55C162.115 312.444 173.43 316.322 188.996 325.262C229.082 350.638 272.897 367.145 339.766 328.81C384.967 303.427 425.798 313.515 455.82 328.81C473.708 338.333 506.275 343.167 522.526 320.447C502.903 330.472 479.852 334.785 460.78 321.968C423.029 293.71 384.455 282.177 335.551 311.831C289.221 335.109 245.834 333.578 205.114 309.55C177.178 295.454 148.904 271.592 117.032 292.257C107.355 291.685 107.369 292.137 107.628 294.612C107.838 296.611 110.991 297.632 113.822 298.734C110.534 298.408 114.077 297.513 104.821 297.942C101.71 298.087 97.6555 297.127 96.2523 296.371C90.0422 292.392 84.9103 292.544 80.0098 293.583C91.0012 296.691 92.5158 297.281 91.0551 301.009C90.1922 303.212 86.6617 304.05 80.0098 305.685C86.5509 306.474 91.4853 306.179 95.3842 302.58C95.7931 302.005 96.8393 301.077 98.35 301.144C109.146 301.62 113.206 299.689 113.859 298.842C111.399 300.14 111.057 304.299 118.694 303.911C133.441 310.609 145.426 311.057 158.247 309.55V309.55Z" fill="#FCDD09"/>
<path d="M133.456 289.949C131.948 292.152 132.073 295.217 133.369 296.447C137.871 294.053 142.641 294.657 147.325 294.306C143.486 291.271 138.706 289.138 133.455 289.949L133.456 289.949Z" fill="white"/>
<path fill-rule="evenodd" clip-rule="evenodd" d="M137.113 292.428C137.171 293.932 136.182 295.316 134.903 295.519C133.625 295.723 132.542 294.669 132.484 293.165C132.426 291.661 133.415 290.277 134.693 290.073C135.972 289.87 137.055 290.924 137.113 292.428Z" fill="black"/>
<path fill-rule="evenodd" clip-rule="evenodd" d="M134.806 292.171C134.825 292.657 134.521 293.102 134.128 293.165C133.734 293.228 133.4 292.884 133.382 292.398C133.363 291.911 133.666 291.466 134.06 291.403C134.453 291.341 134.787 291.684 134.806 292.171Z" fill="white"/>
<path d="M137.57 283.461C133.491 282.872 126.973 288.284 133.702 289.829C141.551 289.627 145.589 292.831 149.737 295.935C146.081 292.475 143.59 288.099 135.138 288.404C131.855 288.601 131.1 285.178 137.57 283.461L137.57 283.461Z" fill="black"/>
<path d="M131.958 298.766C133.282 294.902 137.097 295.833 140.752 296.456C137.307 296.435 133.6 296.011 131.958 298.766Z" fill="white" fill-opacity="0.462264"/>
<path d="M260.281 352.236C259.858 352.203 258.433 352.099 257.116 352.004C245.969 351.207 234.358 348.465 222.58 343.849C213.194 340.17 204.012 335.479 192.608 328.537C184.791 323.777 181.565 322.071 168.995 316.044C164.008 313.652 159.503 311.431 158.985 311.106L158.043 310.517L155.819 310.76C152.631 311.108 145.105 311.24 141.961 311.003C134.863 310.469 127.962 308.782 120.861 305.844C118.89 305.029 118.44 304.902 117.524 304.9C116.2 304.9 114.404 304.547 113.508 304.119C112.574 303.673 111.607 302.579 111.478 301.825C111.422 301.491 111.338 301.217 111.295 301.217C111.251 301.217 110.471 301.358 109.563 301.53C107.291 301.96 104.366 302.175 100.758 302.177C97.3853 302.177 97.2068 302.219 96.1894 303.222C94.6993 304.69 92.3887 305.891 89.8428 306.52C88.644 306.816 87.9189 306.878 85.4952 306.89C83.8954 306.9 81.9896 306.845 81.2603 306.771L79.9342 306.637V305.696V304.755L80.6615 304.577C85.0793 303.501 87.9085 302.593 89.0579 301.883C90.2105 301.172 90.8973 299.264 90.3053 298.418C89.7851 297.674 86.9059 296.54 82.1585 295.207C80.9822 294.876 79.9606 294.557 79.8885 294.496C79.8153 294.436 79.8163 293.997 79.8885 293.522L80.0211 292.658L81.0465 292.448C82.8223 292.085 86.8197 292.007 88.4882 292.303C91.1887 292.782 93.7148 293.716 95.992 295.078C97.2228 295.815 99.4746 296.496 101.685 296.8C103.681 297.076 104.556 297.103 106.493 296.949L107.78 296.847L107.266 296.073C106.862 295.465 106.736 295.064 106.678 294.212C106.579 292.768 106.912 292.15 108.08 291.603C108.92 291.21 109.008 291.203 112.978 291.203H117.021L118.365 290.402C122.63 287.861 127.043 285.971 131.265 284.877C132.347 284.596 133.849 284.181 134.602 283.953C135.54 283.669 136.401 283.529 137.339 283.51C138.092 283.495 139.902 283.425 141.36 283.356C151.361 282.879 162.615 285.935 176.437 292.881C180.183 294.764 182.828 296.193 191.445 300.991C195.605 303.308 200.61 306.048 202.566 307.081C204.523 308.114 206.971 309.444 208.007 310.037C209.042 310.629 211.082 311.739 212.541 312.502C245.358 329.67 279.461 332.041 314.859 319.616C322.405 316.967 332.624 312.472 337.192 309.792C342.556 306.646 350.312 302.807 355.33 300.815C362.286 298.054 369.716 295.929 376.29 294.822C402.925 290.335 428.475 297.661 456.938 317.946C464.728 323.498 467.545 325.025 473.223 326.777C478.053 328.268 481.973 328.821 487.681 328.819C497.631 328.809 507.032 326.52 518.481 321.303L522.159 319.627L522.786 320.314L523.412 321.002L522.797 321.805C516.199 330.421 506.996 335.525 495.039 337.2C492.581 337.544 485.783 337.679 482.88 337.442C475.519 336.839 468 335.041 461.072 332.226C460.038 331.807 457.071 330.428 454.479 329.164C442.407 323.277 433.052 319.829 422.404 317.341C413.419 315.242 405.641 314.347 396.41 314.35C386.565 314.35 377.851 315.492 368.591 317.987C358.702 320.65 350.3 324.133 339.792 329.927C329.43 335.639 321.245 339.568 313.142 342.719C303.722 346.381 294.679 348.959 285.689 350.546C278.786 351.764 274.329 352.167 266.953 352.239C263.706 352.27 260.703 352.269 260.28 352.239L260.281 352.236ZM266.072 349.089C266.072 348.365 266.175 347.283 266.289 346.686C266.66 344.741 265.851 343.371 264.134 343.037C262.851 342.788 261.943 343.037 261.037 343.894C259.979 344.891 259.565 346.068 259.466 348.353L259.385 350.225L260.047 350.29C260.411 350.325 261.914 350.366 263.386 350.381L266.063 350.408L266.074 349.09L266.072 349.089ZM274.141 350.106L275.253 350.006L275.199 347.843C275.169 346.654 275.07 345.458 274.981 345.186C274.648 344.177 273.486 343.517 272.041 343.517C270.031 343.517 268.587 345.328 268.228 348.3C268.164 348.832 268.164 349.528 268.228 349.849L268.344 350.432L270.687 350.319C271.975 350.256 273.53 350.161 274.142 350.106H274.141ZM257.231 348.898C257.2 348.245 257.294 347.108 257.443 346.373C257.758 344.797 257.626 344.119 256.841 343.282C255.951 342.333 254.072 342.145 252.792 342.876C252.136 343.251 251.284 344.442 251.016 345.357C250.752 346.259 250.573 347.959 250.66 348.75L250.733 349.417L252.128 349.601C254.126 349.866 255.813 350.041 256.603 350.066L257.287 350.087L257.231 348.899L257.231 348.898ZM282.183 349.186C283.735 348.962 285.033 348.753 285.066 348.722C285.099 348.691 284.999 348.301 284.839 347.855C284.681 347.41 284.455 346.248 284.336 345.273C284.096 343.311 283.853 342.832 282.855 342.356C282.112 342.001 280.627 341.991 279.85 342.336C279.066 342.684 278.319 343.561 277.888 344.638C277.511 345.581 277.243 348.547 277.462 349.363C277.599 349.876 277.327 349.886 282.183 349.185V349.186ZM248.749 345.411C249.178 342.798 248.836 341.878 247.17 341.164C245.426 340.416 243.929 340.86 242.746 342.476C242.05 343.426 241.358 345.294 241.195 346.663L241.078 347.646L242.627 347.98C244.398 348.361 247.328 348.919 247.961 348.994C248.373 349.042 248.391 349.008 248.429 348.084C248.449 347.555 248.595 346.352 248.749 345.411V345.411ZM291.018 347.531C293.044 347.083 293.718 346.873 293.675 346.706C293.645 346.582 293.508 346.078 293.373 345.584C293.238 345.091 293.062 344.029 292.983 343.223C292.753 340.887 291.909 340.046 289.928 340.18C288.5 340.277 287.675 340.803 287.034 342.027C286.578 342.896 286.549 343.066 286.595 344.639C286.641 346.208 286.777 347.017 287.152 347.94C287.33 348.378 287.05 348.408 291.018 347.531ZM239.178 345.68C239.295 344.975 239.549 343.972 239.741 343.452C239.933 342.931 240.089 342.283 240.087 342.01C240.087 341.411 239.578 340.335 239.124 339.958C238.211 339.198 236.346 338.925 235.355 339.405C233.969 340.075 232.685 342.314 232.332 344.673L232.243 345.268L234.156 345.822C235.209 346.127 236.57 346.521 237.182 346.697C238.899 347.192 238.929 347.177 239.178 345.68H239.178ZM300.534 345.05C301.64 344.726 302.545 344.422 302.545 344.374C302.545 344.327 302.4 343.808 302.223 343.221C302.046 342.635 301.809 341.686 301.697 341.113C301.287 339.021 300.249 338.091 298.559 338.301C297.173 338.473 296.302 339.063 295.592 340.313C295.151 341.088 295.138 344.152 295.572 345.461L295.87 346.364L297.198 346.002C297.927 345.802 299.429 345.374 300.535 345.05H300.534ZM230.401 343.352C230.55 342.732 230.912 341.668 231.204 340.988C232.135 338.824 231.698 337.452 229.795 336.564C228.221 335.829 226.874 336.135 225.565 337.526C224.398 338.764 223.016 341.692 223.419 342.07C223.602 342.241 229.634 344.466 229.934 344.474C230.041 344.474 230.251 343.971 230.401 343.352V343.352ZM307.863 342.635C309.494 342.062 310.894 341.531 310.975 341.455C311.059 341.378 311.008 340.938 310.861 340.454C310.717 339.98 310.511 339.087 310.402 338.47C310.294 337.853 310.049 337.107 309.858 336.811C308.504 334.717 304.992 335.638 304.165 338.304C303.941 339.023 303.892 339.603 303.962 340.704C304.049 342.089 304.478 343.677 304.765 343.677C304.839 343.677 306.233 343.208 307.863 342.635V342.635ZM268.568 342.727C269.323 341.989 270.609 341.539 272.002 341.526C273.567 341.512 274.643 341.818 275.532 342.531C275.956 342.87 276.281 343.032 276.32 342.923C276.356 342.82 276.613 342.444 276.89 342.086C278.465 340.049 281.425 339.438 283.978 340.622C284.812 341.009 285.027 341.055 285.137 340.872C285.698 339.933 286.5 339.218 287.563 338.71C288.654 338.188 288.847 338.149 290.322 338.149C291.836 338.149 291.944 338.173 292.697 338.67C293.497 339.198 293.818 339.306 293.818 339.048C293.818 338.97 294.176 338.533 294.613 338.078C295.685 336.961 296.821 336.437 298.381 336.341C299.93 336.246 300.634 336.371 301.435 336.879C301.785 337.102 302.087 337.262 302.106 337.236C302.125 337.21 302.343 336.858 302.589 336.456C303.648 334.722 305.184 333.838 307.468 333.649C308.519 333.562 308.707 333.595 309.639 334.041C310.201 334.309 310.669 334.514 310.681 334.496C310.693 334.478 310.867 334.139 311.068 333.743C312.008 331.888 313.779 330.821 316.08 330.723C317.358 330.669 317.689 330.747 319.185 331.465C319.256 331.499 319.314 331.43 319.315 331.313C319.315 330.83 320.186 329.4 320.856 328.773C321.833 327.858 323.13 327.329 324.662 327.222C325.587 327.155 326.069 327.2 326.563 327.394C327.447 327.741 327.472 327.735 327.593 327.133C327.948 325.363 329.483 323.625 331.229 323.013C332.356 322.618 334.27 322.577 335.167 322.927C335.933 323.227 336.082 323.228 336.082 322.937C336.082 322.808 336.241 322.303 336.436 321.816C336.911 320.628 338.206 319.315 339.372 318.841C340.55 318.361 342.588 318.228 343.469 318.573C344.168 318.846 344.295 318.798 344.295 318.264C344.295 318.061 344.459 317.484 344.661 316.98C345.17 315.704 346.603 314.357 347.937 313.898C349.223 313.456 351.104 313.44 352.098 313.862L352.8 314.161L353.09 313.301C353.593 311.805 355.162 310.26 356.576 309.867C358.315 309.385 360.027 309.516 361.09 310.214C361.711 310.622 361.813 310.596 362.142 309.95C362.594 309.062 363.756 307.992 364.742 307.555C366.439 306.803 368.63 306.867 369.991 307.709L370.62 308.097L371.134 307.244C372.179 305.509 373.939 304.584 376.192 304.584C377.627 304.584 378.388 304.828 379.308 305.585C379.799 305.988 379.96 306.052 380.021 305.866C380.065 305.733 380.508 305.25 381.007 304.792C382.969 302.989 386.207 302.82 388.152 304.419L388.781 304.936L389.509 304.235C390.556 303.227 391.652 302.785 393.325 302.697C395.043 302.607 396.13 302.988 397.175 304.049L397.874 304.76L398.665 304.269C399.743 303.601 400.6 303.415 402.215 303.497C403.823 303.58 404.675 303.928 405.594 304.881L406.213 305.523L406.842 304.968C408.006 303.939 408.692 303.703 410.513 303.705C412.852 303.705 414.073 304.287 415.304 305.982L415.561 306.335L416.545 305.756C417.385 305.261 417.714 305.166 418.79 305.101C421.503 304.938 423.686 306.218 424.377 308.377C424.582 309.021 424.602 309.034 425.094 308.874C425.866 308.622 427.923 308.808 428.946 309.224C429.758 309.554 430.849 310.474 431.303 311.212C431.462 311.47 431.528 311.472 432.223 311.242C433.342 310.87 435.045 310.927 436.208 311.374C437.569 311.898 438.142 312.372 438.741 313.464L439.261 314.412L440.672 314.43C441.855 314.444 442.246 314.521 443.099 314.909C444.38 315.492 445.47 316.503 445.791 317.407L446.04 318.105L447.152 318.129C449.052 318.17 451.007 319.241 451.662 320.602C451.965 321.231 451.997 321.249 452.59 321.138C454.9 320.707 457.667 322.081 458.267 323.956C458.477 324.613 458.478 324.613 459.349 324.614C460.968 324.614 463.249 326.015 463.492 327.153C463.6 327.659 463.606 327.662 464.416 327.561C465.726 327.399 466.868 327.841 468.048 328.968C468.589 329.485 469.032 329.974 469.032 330.054C469.032 330.135 469.106 330.381 469.196 330.603L469.359 331.006L470.375 330.516C471.65 329.9 472.668 329.781 473.761 330.121C474.578 330.376 475.705 331.208 476.262 331.968L476.545 332.353L477.109 331.955C478.192 331.189 479.445 330.988 480.519 331.408C481.834 331.923 483.063 333.571 483.063 334.821C483.063 335.282 483.147 335.504 483.347 335.576C483.923 335.783 491.514 335.676 493.608 335.431C501.494 334.509 507.553 332.333 513.178 328.402C514.772 327.288 518.361 324.162 518.674 323.614C518.814 323.37 518.782 323.354 518.412 323.486C518.18 323.569 517.618 323.812 517.164 324.028C514.714 325.191 509.407 327.095 505.742 328.127C499.233 329.96 493.685 330.752 487.426 330.74C478.332 330.722 470.657 328.753 463.193 324.522C461.601 323.62 460.946 323.175 455.514 319.305C425.546 297.953 398.447 291.186 370.304 298.028C360.098 300.509 348.916 305.164 338.563 311.241C332.142 315.01 320.489 319.943 310.81 322.988C281.82 332.108 253.917 331.439 226.573 320.97C219.877 318.406 214.579 315.884 206.468 311.398C204.68 310.409 201.677 308.784 199.795 307.786C197.913 306.788 193.254 304.229 189.443 302.099C180.305 296.992 176.923 295.217 171.477 292.67C157.074 285.935 145.846 283.887 134.87 285.994C133.888 286.183 133.022 286.373 132.945 286.417C132.663 286.581 132.819 287.436 133.209 287.861C133.599 288.285 133.688 288.303 135.989 288.429C140.72 288.688 142.851 289.463 145.725 291.969C147.227 293.278 149.759 295.876 149.039 295.368C144.897 292.449 143.139 291.482 140.645 290.754C138.839 290.227 137.731 290.046 135.519 289.919C133.327 289.792 132.271 289.492 131.511 288.78C131.037 288.336 130.924 288.107 130.924 287.584C130.924 286.836 131.118 286.825 128.529 287.713C126.105 288.545 122.409 290.286 119.776 291.837L117.439 293.212L113.787 293.115C111.778 293.062 109.827 293.083 109.45 293.16C108.804 293.294 108.763 293.337 108.719 293.936C108.629 295.164 109.608 296.033 112.255 297.075C112.971 297.357 113.98 297.682 114.498 297.799C115.642 298.056 119.463 298.075 124.677 297.849C127.035 297.748 128.46 297.743 128.494 297.839C128.524 297.922 129.098 298.082 129.769 298.194C130.473 298.312 131.122 298.521 131.3 298.688C131.725 299.087 131.699 299.861 131.25 300.156C130.967 300.342 130.928 300.453 131.067 300.686C131.218 300.937 131.114 301.056 130.357 301.499L129.47 302.018L129.043 301.573C128.807 301.327 128.344 300.815 128.013 300.434L127.411 299.741L122.281 299.937C118.949 300.064 116.653 300.081 115.73 299.985C114.351 299.843 114.297 299.85 113.891 300.231C113.346 300.741 113.332 301.521 113.86 301.985C114.563 302.604 115.524 302.866 117.391 302.948C119.049 303.02 119.279 303.074 120.771 303.727C127.402 306.629 134.646 308.482 141.694 309.08C144.485 309.317 152.823 309.187 155.746 308.861C157.458 308.67 157.891 308.558 158.976 308.024C161.521 306.772 162.95 304.991 163.534 302.345C163.68 301.686 163.814 301.135 163.832 301.121C163.849 301.106 164.307 301.171 164.848 301.264C165.992 301.461 165.98 301.425 165.485 303.237C164.778 305.828 163.57 307.563 161.549 308.892L160.349 309.681L160.909 309.992C161.217 310.162 161.828 310.493 162.268 310.728L163.068 311.153L163.276 310.553C163.893 308.769 165.586 306.329 166.879 305.36C168.683 304.008 170.058 303.555 172.062 303.654C175.014 303.799 177.737 305.642 178.35 307.909C178.452 308.284 178.554 308.59 178.578 308.59C178.603 308.59 178.949 308.482 179.349 308.35C179.749 308.218 180.587 308.11 181.21 308.11C183.98 308.11 186.681 310.358 187.027 312.953C187.132 313.734 187.172 313.794 187.565 313.752C189.148 313.584 190.282 313.686 191.201 314.08C192.931 314.822 194.214 316.2 194.499 317.62C194.589 318.067 194.686 318.199 194.877 318.13C195.019 318.08 195.474 317.958 195.887 317.861C198.646 317.21 202.003 319.274 202.521 321.94C202.635 322.531 202.658 322.548 203.186 322.436C206.068 321.828 209.489 323.882 209.903 326.471L210.009 327.129L210.721 326.897C213.097 326.12 216.604 327.892 217.404 330.272L217.697 331.145L218.485 330.924C218.918 330.801 219.604 330.702 220.009 330.702C222.018 330.702 224.488 332.225 225.136 333.864C225.302 334.284 225.461 334.656 225.49 334.69C225.517 334.726 225.908 334.619 226.358 334.453C227.626 333.986 229.336 334.039 230.516 334.582C231.864 335.202 232.816 336.025 233.336 337.021L233.787 337.883L234.734 337.477C235.554 337.126 235.855 337.081 236.988 337.142C238.986 337.251 240.467 338.022 241.464 339.473L241.931 340.153L242.373 339.828C244.726 338.094 248.635 338.66 250.274 340.972L250.787 341.696L251.495 341.247C252.619 340.535 254.089 340.249 255.467 340.473C256.984 340.721 257.582 341.01 258.452 341.915L259.181 342.674L259.909 342.068C260.818 341.314 261.909 340.956 263.306 340.956C265.102 340.956 265.887 341.235 266.957 342.252C267.474 342.744 267.941 343.159 267.994 343.173C268.048 343.187 268.306 342.988 268.57 342.73L268.568 342.727ZM133.866 295.34C131.662 294.323 132.646 290.153 135.087 290.165C137.644 290.177 137.932 294.411 135.441 295.386C134.723 295.667 134.563 295.662 133.866 295.34V295.34ZM134.591 292.954C135.087 292.489 134.844 291.443 134.239 291.443C133.876 291.443 133.491 291.928 133.491 292.384C133.491 293.136 134.073 293.438 134.591 292.954V292.954ZM222.78 337.575C223.906 335.718 223.26 333.824 221.231 333.031C219.416 332.32 217.628 333.162 216.239 335.382C215.796 336.09 214.881 338.39 214.999 338.5C215.032 338.531 216.435 339.164 218.116 339.906L221.172 341.255L221.705 339.862C221.998 339.096 222.482 338.067 222.78 337.575V337.575ZM317.384 338.915C319.318 338.081 319.819 337.802 319.737 337.602C319.68 337.462 319.445 336.67 319.215 335.842C318.543 333.423 317.909 332.769 316.225 332.757C313.766 332.738 312.246 334.813 312.545 337.78C312.606 338.388 312.688 338.972 312.725 339.078C312.763 339.184 312.877 339.575 312.979 339.947L313.164 340.624L314.045 340.299C314.529 340.12 316.032 339.497 317.384 338.915V338.915ZM213.322 336.587C213.667 335.602 214.219 334.538 214.937 333.478C215.352 332.865 215.451 332.544 215.451 331.813C215.451 330.737 215.05 330.075 213.963 329.36C211.603 327.806 208.878 329.453 207.491 333.272C207.149 334.215 207.106 334.487 207.279 334.641C207.58 334.909 212.583 337.418 212.828 337.423C212.938 337.423 213.16 337.05 213.322 336.587V336.587ZM325.158 335.4C327.706 334.182 328.375 333.797 328.292 333.597C328.235 333.457 328.002 332.747 327.776 332.019C327.274 330.401 327.167 330.207 326.466 329.655C325.953 329.251 325.826 329.224 324.751 329.296C322.522 329.445 321.387 330.731 321.229 333.283C321.158 334.423 321.57 336.947 321.826 336.947C321.876 336.947 323.377 336.251 325.158 335.4ZM480.838 334.848C480.838 334.497 480.668 334.192 480.257 333.807C479.608 333.2 479.306 333.145 478.64 333.513C478.116 333.803 477.338 334.76 477.569 334.832C477.816 334.908 480.209 335.309 480.539 335.328C480.764 335.341 480.838 335.221 480.838 334.848V334.848ZM474.85 333.973C474.85 333.468 474.105 332.523 473.461 332.211C472.661 331.824 471.88 331.921 471.056 332.509C470.649 332.8 470.315 333.107 470.315 333.19C470.315 333.309 474.142 334.338 474.721 334.375C474.792 334.385 474.85 334.199 474.85 333.973ZM205.366 332.745C205.585 331.984 206.223 330.759 207.136 329.346C208.232 327.65 207.924 326.001 206.321 324.98C204.182 323.617 201.966 324.538 200.425 327.427C199.85 328.508 199.31 329.978 199.399 330.227C199.468 330.422 204.657 333.389 204.964 333.409C205.078 333.419 205.259 333.118 205.366 332.745V332.745ZM330.982 332.484C333.878 330.961 336.766 329.37 336.766 329.296C336.766 329.246 336.525 328.488 336.229 327.61C335.442 325.267 334.48 324.431 332.884 324.703C329.855 325.218 328.88 327.842 330.107 332.181C330.2 332.511 330.308 332.781 330.346 332.781C330.385 332.781 330.67 332.648 330.982 332.484V332.484ZM467.189 331.914C467.374 331.006 466.267 329.768 465.143 329.627C464.385 329.532 463.703 329.795 463.073 330.426L462.675 330.826L464.442 331.461C465.414 331.81 466.324 332.136 466.465 332.185C466.955 332.357 467.11 332.299 467.189 331.914ZM461.077 329.415C461.66 328.846 461.722 327.99 461.22 327.461C460.745 326.959 459.499 326.486 458.975 326.61C458.342 326.758 457.703 327.224 457.347 327.794L457.041 328.286L458.716 329.083C459.637 329.522 460.434 329.885 460.487 329.889C460.541 329.899 460.806 329.68 461.077 329.415V329.415ZM197.731 328.175C198.137 326.96 198.551 326.211 199.583 324.823C200.419 323.698 200.435 323.655 200.361 322.698C200.275 321.584 199.961 321.09 198.886 320.378C197.938 319.749 196.629 319.633 195.668 320.093C194.274 320.758 193.089 322.344 192.24 324.683C191.926 325.545 191.884 325.823 192.05 325.913C192.169 325.977 193.383 326.717 194.747 327.559C196.112 328.401 197.272 329.091 197.325 329.093C197.378 329.093 197.561 328.682 197.731 328.175V328.175ZM341.261 326.908C342.316 326.33 343.623 325.648 344.165 325.391C344.707 325.135 345.15 324.884 345.15 324.833C345.15 324.782 344.908 324.008 344.612 323.113C344.186 321.825 343.952 321.377 343.488 320.965C342.963 320.499 342.796 320.444 341.898 320.444C340.706 320.444 340.102 320.634 339.445 321.215C338.013 322.483 337.651 324.988 338.509 327.687C338.673 328.201 338.742 328.26 339.02 328.12C339.198 328.032 340.206 327.486 341.261 326.908V326.908ZM455.786 326.35C456.424 325.424 456.464 325.231 456.179 324.467C456.045 324.106 455.729 323.815 455.11 323.483C453.952 322.861 453.212 322.863 452.283 323.493C451.561 323.982 450.849 324.877 450.951 325.167C451.011 325.34 455.041 327.35 455.14 327.256C455.174 327.225 455.466 326.816 455.786 326.35V326.35ZM190.458 323.328C190.67 322.755 191.103 321.871 191.42 321.363C191.977 320.472 192.524 319.198 192.522 318.796C192.522 318.287 192.122 317.36 191.71 316.901C191.175 316.306 189.749 315.64 189.015 315.642C187.744 315.652 186.113 316.869 185.199 318.501C184.633 319.51 184.079 320.997 184.171 321.256C184.258 321.499 189.85 324.604 189.971 324.476C190.027 324.416 190.245 323.901 190.458 323.328ZM449.397 323.486C450.222 322.085 449.895 321.052 448.427 320.427C447.356 319.972 446.596 320.033 445.758 320.644C445.114 321.114 444.218 322.283 444.403 322.412C444.616 322.56 448.61 324.271 448.756 324.277C448.85 324.287 449.138 323.925 449.397 323.486ZM349.217 322.949C350.227 322.476 351.631 321.854 352.337 321.567C353.043 321.28 353.639 321.031 353.663 321.012C353.686 320.993 353.482 320.264 353.21 319.39C352.937 318.515 352.663 317.589 352.6 317.33C352.46 316.754 351.362 315.696 350.757 315.553C349.997 315.375 348.442 315.774 347.782 316.316C346.81 317.116 346.466 317.915 346.385 319.563C346.331 320.665 346.399 321.321 346.674 322.349C346.871 323.088 347.032 323.719 347.032 323.751C347.032 323.919 347.553 323.728 349.217 322.949V322.949ZM443.088 320.406C443.523 319.768 443.879 319.076 443.879 318.868C443.879 318.19 443.382 317.489 442.553 316.999C441.878 316.6 441.563 316.519 440.687 316.519C439.766 316.519 439.55 316.582 438.976 317.012C438.271 317.541 437.167 319.102 437.244 319.458C437.28 319.625 441.702 321.499 442.19 321.554C442.248 321.563 442.654 321.044 443.088 320.406V320.406ZM182.588 319.022C182.97 318.012 183.713 316.712 184.319 315.99C184.842 315.368 185.082 314.015 184.845 313.025C184.327 310.856 181.612 309.476 179.711 310.414C178.784 310.872 177.735 312.002 176.993 313.346C176.397 314.424 175.583 316.495 175.583 316.934C175.583 317.012 176.257 317.395 177.08 317.784C177.904 318.174 179.348 318.892 180.289 319.379C181.23 319.866 182.045 320.215 182.1 320.154C182.157 320.093 182.375 319.584 182.588 319.022ZM358.876 319.022C360.355 318.485 361.645 318.044 361.742 318.044C361.977 318.044 361.963 317.813 361.664 316.763C361.526 316.278 361.362 315.341 361.3 314.68C361.104 312.588 360.243 311.632 358.562 311.639C356.242 311.649 354.85 313.269 354.847 315.961C354.847 317.762 355.526 320.25 355.975 320.08C356.091 320.037 357.397 319.56 358.876 319.022H358.876ZM435.392 318.105C435.57 317.699 435.984 317.039 436.31 316.638C437.416 315.282 437.125 314.021 435.557 313.372C434.399 312.892 433.209 312.945 432.34 313.515C431.496 314.068 430.531 315.76 430.481 316.774L430.448 317.449L432.587 318.135C433.764 318.512 434.803 318.826 434.897 318.832C434.991 318.842 435.214 318.512 435.393 318.105H435.392ZM366.933 316.46C368.457 316.029 369.957 315.627 370.267 315.565C370.685 315.48 370.808 315.384 370.744 315.186C370.534 314.538 370.27 313.221 370.112 312.041C369.835 309.972 368.983 309.07 367.309 309.076C364.749 309.086 363.293 311.088 363.502 314.314C363.586 315.611 363.911 317.243 364.087 317.243C364.127 317.243 365.408 316.891 366.933 316.46ZM428.278 316.228C428.309 315.979 428.573 315.259 428.866 314.627C429.531 313.192 429.574 312.295 429.006 311.728C428.053 310.778 425.806 310.546 424.792 311.292C424.088 311.811 423.505 312.687 423.147 313.763C422.698 315.115 422.728 315.468 423.304 315.582C423.562 315.632 424.66 315.911 425.742 316.2C426.824 316.489 427.825 316.715 427.966 316.703C428.113 316.69 428.247 316.486 428.278 316.228V316.228ZM174.103 314.524C174.371 313.737 174.931 312.535 175.346 311.852C176.245 310.375 176.484 309.633 176.337 308.773C176.185 307.883 175.74 307.265 174.828 306.678C172.034 304.878 169.105 305.505 166.921 308.37C166.135 309.401 165.159 311.312 165.15 311.835C165.15 312.041 166.217 312.619 169.209 314.029C171.445 315.083 173.35 315.946 173.444 315.949C173.538 315.949 173.835 315.31 174.103 314.524V314.524ZM421.054 313.077C421.206 312.593 421.591 311.79 421.91 311.294C422.599 310.224 422.645 309.586 422.106 308.585C421.338 307.159 419.077 306.676 417.516 307.603C416.167 308.404 415.051 310.99 415.168 313.047L415.217 313.943L417.87 314.437L420.522 314.931L420.649 314.445C420.721 314.177 420.901 313.562 421.053 313.077H421.054ZM376.292 314.295C377.562 314.055 378.785 313.824 379.008 313.781C379.374 313.71 379.403 313.644 379.3 313.11C378.988 311.489 378.865 310.504 378.862 309.587C378.851 307.333 377.534 306.262 375.287 306.686C374.083 306.913 373.077 307.816 372.652 309.05C372.27 310.16 372.263 312.424 372.638 313.82C372.966 315.045 372.583 314.995 376.291 314.295H376.292ZM412.975 312.396C413.038 311.758 413.253 310.618 413.452 309.865C413.861 308.324 413.805 307.651 413.198 306.806C412.274 305.521 409.96 305.268 408.522 306.295C407.339 307.14 406.316 309.919 406.439 311.954L406.492 312.83L408.985 313.096C410.357 313.243 411.627 313.399 411.809 313.442C412.802 313.679 412.851 313.635 412.974 312.396H412.975ZM385.322 312.972C387.543 312.747 388.089 312.644 388.016 312.467C387.762 311.846 387.554 309.809 387.633 308.714C387.711 307.658 387.668 307.374 387.355 306.793C387.152 306.417 386.724 305.947 386.405 305.748C385.38 305.111 383.501 305.344 382.48 306.235C381.198 307.355 380.751 310.104 381.436 312.651C381.629 313.368 381.678 313.42 382.091 313.341C382.336 313.292 383.791 313.128 385.322 312.972V312.972ZM395.425 312.387C395.591 312.365 395.664 311.932 395.701 310.754C395.727 309.873 395.887 308.637 396.054 308.008C396.425 306.613 396.325 306.163 395.465 305.357C394.834 304.766 394.772 304.746 393.627 304.746C392.614 304.746 392.33 304.813 391.66 305.21C390.521 305.887 389.965 307.024 389.85 308.909C389.776 310.114 389.994 312.066 390.245 312.448C390.295 312.526 394.792 312.473 395.425 312.387V312.387ZM404.246 311.195C404.309 310.424 404.468 309.377 404.599 308.868C405.039 307.161 404.238 305.874 402.528 305.541C399.677 304.987 397.699 307.412 397.883 311.235L397.936 312.356L399.904 312.444C400.986 312.493 402.38 312.547 403.001 312.565L404.13 312.595L404.245 311.193L404.246 311.195ZM88.1474 304.895C90.8088 304.491 92.8563 303.546 94.7663 301.839C96.4677 300.319 96.6704 300.268 100.98 300.258C104.721 300.248 107.653 300.013 109.768 299.551C112.527 298.948 111.786 298.796 106.277 298.837C102.984 298.86 101.783 298.812 100.638 298.603C98.3425 298.185 96.4489 297.554 94.9358 296.702C91.9136 295.001 89.3694 294.195 86.6074 294.065L84.9819 293.988L86.6656 294.551C91.1425 296.05 92.5853 297.166 92.5904 299.137C92.5904 299.902 92.278 301.043 91.8527 301.813C91.2674 302.873 89.7466 303.887 87.5588 304.676C86.3979 305.095 86.5225 305.141 88.1474 304.894V304.895Z" fill="black"/>
</g>
<defs>
<clipPath id="clip0_1_11250">
<rect width="600" height="400" fill="white"/>
</clipPath>
</defs>
</svg>
