<svg width="600" height="400" viewBox="0 0 600 400" fill="none" xmlns="http://www.w3.org/2000/svg" xmlns:cgf="https://coding.garden/flags"><metadata id="cgf-metadata">

<cgf:flag>
  <cgf:name>Sliedrecht</cgf:name>
  <cgf:route>nl/zh/sliedrecht</cgf:route>
  <cgf:aspect-ratio>1.5</cgf:aspect-ratio>
</cgf:flag>

</metadata><g clip-path="url(#clip0_1_11285)">
<path d="M600 0H0V400H600V0Z" fill="#FCDF17"/>
<path d="M164.588 302.077C164.588 271.211 164.595 270.663 164.772 270.794C164.873 270.868 165.319 271.227 165.762 271.592C167.499 273.023 169.872 274.51 172.266 275.667C179.492 279.16 187.98 279.961 195.925 277.901C199.817 276.891 203.549 275.166 206.85 272.852C209.976 270.66 212.937 267.663 215.157 264.442C217.611 260.883 219.4 256.513 220.148 252.251C220.508 250.199 220.55 249.631 220.55 246.79C220.55 243.945 220.507 243.367 220.147 241.328C219.492 237.619 218.146 234.022 216.176 230.721C215.753 230.011 215.434 229.429 215.47 229.429C215.504 229.429 215.624 229.493 215.735 229.572C216.477 230.097 219.521 231.489 221.274 232.105C229.112 234.859 237.869 234.695 245.548 231.651C247.128 231.024 249.761 229.684 251.162 228.793C258.827 223.919 264.063 216.314 265.733 207.631C266.131 205.564 266.218 204.535 266.221 201.877C266.227 199.303 266.164 198.496 265.832 196.562C264.909 191.181 262.543 186.051 258.996 181.737C258.052 180.59 255.997 178.526 254.783 177.506C247.476 171.371 237.781 168.606 228.077 169.89C224.396 170.376 220.486 171.601 217.129 173.319C216.363 173.711 215.723 174.032 215.707 174.032C215.691 174.032 215.91 173.67 216.195 173.227C218.491 169.659 220.153 165.091 220.746 160.719C221.056 158.438 221.077 154.823 220.794 152.699C220.148 147.855 218.54 143.47 215.959 139.512C211.049 131.979 203.477 126.864 194.457 124.984C192.111 124.495 190.491 124.347 187.523 124.349C183.966 124.349 182.136 124.569 178.929 125.374C174.057 126.597 169.058 129.18 165.388 132.37C165.007 132.701 164.671 132.972 164.642 132.972C164.613 132.972 164.588 118.511 164.588 100.836V68.6997H198.305H232.022L231.112 69.6506C226.246 74.7354 223.13 81.3331 222.242 88.43C221.957 90.7025 221.957 94.2916 222.242 96.564C223.448 106.204 228.675 114.68 236.741 120.077C243.688 124.726 252.273 126.482 260.625 124.963C264.334 124.288 268.358 122.756 271.561 120.799C272 120.531 272.358 120.333 272.358 120.359C272.358 120.384 272.189 120.698 271.983 121.056C270.237 124.09 268.833 128.006 268.209 131.587C267.818 133.83 267.772 134.449 267.775 137.458C267.781 140.67 267.899 141.911 268.459 144.481C270.782 155.141 278.298 164.077 288.295 168.067C292.34 169.682 295.974 170.374 300.411 170.374C303.53 170.374 305.609 170.12 308.49 169.389C312.915 168.266 317.236 166.092 320.884 163.155C322.239 162.064 324.895 159.376 325.99 157.988C329.383 153.687 331.673 148.578 332.615 143.213C332.999 141.03 333.049 140.356 333.05 137.458C333.05 134.081 332.887 132.517 332.243 129.753C331.584 126.929 330.198 123.382 328.855 121.082C328.688 120.796 328.565 120.55 328.58 120.536C328.596 120.522 329 120.749 329.478 121.042C336.104 125.094 344.353 126.59 352.172 125.156C362.856 123.197 372.047 115.794 376.313 105.709C378.105 101.472 378.911 97.4583 378.917 92.7409C378.924 90.2714 378.844 89.2818 378.477 87.0841C377.392 80.5778 374.312 74.4711 369.733 69.7482L368.716 68.6997H400.351H431.985V100.202C431.985 117.528 431.961 131.704 431.932 131.704C431.904 131.704 431.642 131.527 431.352 131.31C426.842 127.945 421.376 125.755 415.375 124.91C413.829 124.692 408.4 124.659 406.974 124.86C400.308 125.794 395.115 127.879 390.267 131.568C382.987 137.108 378.501 145.041 377.618 153.941C377.508 155.043 377.477 158.584 377.57 159.426C377.716 160.76 377.837 161.666 377.97 162.426C378.608 166.076 380.127 170.046 382.137 173.313L382.805 174.399L381.297 173.641C376.549 171.252 371.971 170.107 366.608 169.967C362.045 169.848 358.012 170.5 353.806 172.037C345.496 175.073 338.652 181.344 335.047 189.227C332.469 194.864 331.64 201.178 332.666 207.348C333.755 213.887 336.87 219.848 341.68 224.598C344.341 227.224 346.598 228.872 349.862 230.569C353.982 232.712 358.173 233.912 362.954 234.319C364.594 234.458 368.477 234.372 370.085 234.161C374.35 233.6 378.816 232.156 382.242 230.231C382.726 229.959 383.121 229.751 383.121 229.768C383.121 229.785 382.852 230.232 382.523 230.76C378.601 237.061 377.084 244.78 378.302 252.251C379.548 259.9 383.671 266.847 390.026 272.005C390.998 272.794 393.519 274.472 394.758 275.156C397.584 276.714 400.983 277.971 404.173 278.635C407.011 279.225 409.087 279.404 412.237 279.331C415.591 279.253 417.789 278.927 420.976 278.032C424.325 277.092 428.45 275.11 431.188 273.124L431.985 272.547V303.02V333.494H401.696C372.858 333.494 371.414 333.486 371.551 333.323C375.586 328.564 378.19 322.948 379.159 316.92C379.752 313.224 379.658 308.596 378.915 304.975C377.625 298.687 374.531 292.916 369.993 288.333C365.092 283.384 359.016 280.221 352.22 279.082C350.401 278.778 348.994 278.669 346.86 278.669C340.528 278.669 335.14 280.216 329.491 283.656L329.118 283.884L329.423 283.355C332.99 277.189 334.449 269.396 333.394 262.138C331.809 251.228 324.875 241.787 314.988 237.077C311.708 235.515 308.417 234.585 304.418 234.09C302.892 233.902 298.886 233.931 297.224 234.144C288.227 235.295 280.529 239.718 275.045 246.887C267.467 256.793 266.183 270.51 271.786 281.706C272.148 282.43 272.583 283.262 272.753 283.554C273.044 284.057 273.048 284.078 272.83 283.936C271.283 282.923 268.777 281.671 266.832 280.938C263.05 279.512 259.507 278.869 255.39 278.863C253.411 278.863 252.651 278.906 250.968 279.13C240.952 280.464 232.061 286.489 226.946 295.409C226.302 296.53 225.214 298.846 224.757 300.066C221.22 309.503 222.114 320.048 227.18 328.666C227.914 329.914 229.155 331.7 229.988 332.707L230.639 333.494H197.613H164.588V302.078L164.588 302.077Z" fill="black"/>
</g>
<defs>
<clipPath id="clip0_1_11285">
<rect width="600" height="400" fill="white"/>
</clipPath>
</defs>
</svg>
