<svg width="600" height="400" viewBox="0 0 600 400" fill="none" xmlns="http://www.w3.org/2000/svg" xmlns:cgf="https://coding.garden/flags"><metadata id="cgf-metadata">

<cgf:flag>
  <cgf:name>Teylingen</cgf:name>
  <cgf:route>nl/zh/teylingen</cgf:route>
  <cgf:aspect-ratio>1.5</cgf:aspect-ratio>
</cgf:flag>

</metadata><g clip-path="url(#clip0_1_11289)">
<path d="M600 0H0V400H600V0Z" fill="#FCDD09"/>
<path d="M123.235 65.37C126.218 58.6722 148.714 66.7646 134.489 81.8786C131.898 87.4447 131.904 93.0108 139.597 98.5769C149.532 102.489 155.94 107.939 158.89 114.896C167.074 118.666 171.503 124.319 177.049 129.412C178.68 127.4 180.091 125.292 176.131 120.827C194.599 128.105 197.419 113.907 180.812 116.668C181.399 113.586 178.627 109.383 192.181 110.63C193.023 108.746 191.761 104.752 198.601 108.885C209.855 111.207 205.12 97.7966 199.825 92.8579C195.741 89.0477 189.444 88.1778 186.697 94.126C176.236 78.67 177.69 67.9042 195.391 63.5339C194.475 58.3869 200.872 57.4642 211.709 59.1061C220.256 59.3803 222.947 55.7388 221.874 49.5796C226.68 52.0798 227.256 56.0773 226.021 60.7162C231.723 59.8832 237.389 58.8331 242.74 55.8859C242.407 57.6228 241.819 57.5643 241.803 61.5212C241.484 66.4209 240.558 70.3455 238.46 72.3895C240.978 73.9615 244.078 73.6402 245.281 79.5008L251.434 86.8805L241.67 88.4907C254.017 94.2535 247.103 107.062 245.682 107.409C244.706 111.742 244.703 116.66 249.026 124.181C245.802 124.563 243.647 124.515 242.205 124.181C237.607 136.424 232.655 148.478 233.243 163.495L228.829 155.579C229.436 161.548 227.411 165.536 225.218 169.399C223.284 174.989 224.172 180.58 229.364 186.171L223.613 184.561C230.241 202.518 240.959 213.91 252.901 223.34C261.277 231.092 278.896 215.26 264.25 204.649C250.368 197.015 240.65 189.298 244.483 181.309C247.351 184.757 244.552 188.204 255.36 191.651C260.651 192.625 264.625 194.626 266.709 198.102C253.357 177.861 260.261 161.973 260.656 144.687C260.919 137.287 261.986 129.886 266.141 122.486C262.49 119.341 258.941 112.327 266.709 105.693C270.297 100.221 270.153 94.7502 268.411 89.279C271.446 93.5915 274.784 97.7524 274.37 103.795C278.302 93.6871 284.434 88.6241 290.826 84.1556C296.401 80.0834 295.644 71.4129 288.273 75.1424C284.638 79.7338 277.108 82.3026 275.599 70.9678C279.157 75.4582 283.172 75.5203 287.8 69.6394C291.958 66.2288 300.869 66.6833 303.121 77.5142C307.952 83.8037 309.438 90.2224 305.013 96.8691C309.361 97.2499 315.508 94.872 314.164 103.988C311.065 99.9881 307.966 102.372 304.868 104.256C301.97 107.924 298.894 109.981 295.639 110.428C300.471 112.642 303.239 115.776 304.868 119.418C298.894 117.766 295.706 119.219 292.897 121.095C286.865 124.675 280.923 128.67 273.168 124.316C268.099 131.921 267.47 138.413 266.548 144.979C268.447 163.687 266.883 183.598 277.382 199.32C284.758 212.808 288.503 225.037 276.445 231.79L281.127 239.841L270.961 236.218L272.165 247.892L263.07 238.768L264.809 248.697L256.249 239.304L257.319 259.431C258.181 265.466 269.699 272.064 262.535 255.271C267.886 252.653 270.875 255.957 274.172 258.492C279.573 260.374 283.556 258.535 284.337 248.294C293.315 253.447 291.641 258.888 287.547 264.395C293.184 264.472 299.184 263.796 299.986 273.922C298.03 271.54 296.158 268.988 291.426 272.177C288.12 274.617 285.526 278.577 279.522 275.264C281.34 281.727 287.158 282.572 296.107 279.02C294.571 281.479 294.697 284.392 289.553 285.863C292.468 290.868 297.53 293.359 302.527 295.927L294.368 296.597C299.99 303.218 299.244 308.56 297.846 313.772C295.878 308.443 291.573 308.974 287.547 308.807L291.961 321.554L284.069 320.347C286.156 328.064 274.832 330.301 268.153 334.435C264.417 344.187 258.869 345.212 251.567 337.789L247.287 335.106C235.348 322.521 240.03 317.931 240.867 311.491C245.947 304.642 251.029 301.895 256.115 311.759C256.247 313.597 259.863 319.85 261.198 310.418L261.733 297.805C257.046 293.709 251.166 289.853 253.306 284.387C245.021 284.83 246.359 282.591 243.81 281.436C245.715 290.149 244.268 296.561 239.396 300.623C239.983 296.508 239.472 292.393 238.46 288.279C238.071 291.773 236.656 295.025 233.243 297.805C227.924 301.718 228.663 306.981 229.632 312.296C216.785 301.746 227.241 294.502 230.702 286.266C226.691 289.06 222.497 288.749 218.129 285.461C222.932 286.381 225.721 284.138 226.422 278.618C226.618 274.66 228.009 273.699 229.231 272.312C218.595 263.097 214.367 252.499 215.32 240.78L206.359 231.12C203.77 236.997 200.674 242.646 193.117 246.281L190.041 257.284L186.028 249.77C182.016 253.879 178.003 257.06 173.991 258.894C169.347 264.081 175.45 272.567 180.545 260.37C185.022 262.294 186.423 265.727 185.226 270.433C187.646 269.485 190.234 269.281 193.652 272.714C196.378 274.642 199.526 273.748 202.614 273.251C199.92 276.674 196.901 279.369 192.582 279.155C199.741 285.401 199.092 290.528 193.786 294.987C194.166 290.315 194.707 285.499 188.837 286.4C184.425 287.498 182.551 284.662 180.411 282.241L185.092 296.732L176.264 294.451C175.776 298.845 174.602 303.282 179.608 307.331C176.106 307.057 173.567 309.358 168.106 303.843C170.387 308.838 169.517 313.114 163.959 316.321C163.453 310.735 160.796 307.664 158.208 304.514C158.499 311.97 156.904 316.737 150.45 314.577C149.892 320.949 149.434 327.423 136.005 320.883C131.233 327.007 125.974 331.223 117.681 323.567C111.146 321.375 110.375 316.654 109.388 312.028C106.29 299.149 118.787 278.612 123.7 294.719C124.715 305.05 131.273 299.126 136.674 296.597C143.698 293.941 144.551 282.093 146.973 272.58L143.629 257.016C137.658 264.945 132.258 266.649 127.712 259.028C132.496 260.3 136.616 258.338 140.151 253.527C137.155 248.786 136.773 244.045 139.482 239.304C141.089 247.145 144.978 245.124 148.845 243.195C155.791 237.035 161.886 230.59 172.386 225.618L183.22 216.763L178.003 213.945L191.379 213.677C185.183 205.945 177.011 205.783 168.908 205.358C167.718 207.642 167.587 209.54 164.628 212.469C164.466 206.951 162.735 203.008 160.08 199.991L158.475 212.469L152.858 202.674L150.584 217.165C149.291 214.321 147.877 211.525 144.833 209.383C145.032 220.516 138.036 221.897 128.113 219.312C125.122 229.564 119.621 222.509 114.738 219.715L111.929 217.031L108.987 208.176L108.586 201.467C108.238 187.735 115.987 180.457 121.292 189.391C122.707 194.842 125.115 197.478 130.788 190.867L138.947 183.085C136.111 182.309 133.522 180.666 131.19 178.12C139.438 176.194 146.305 172.374 149.781 163.897C142.185 166.139 137.667 163.817 135.871 157.457C143.702 156.826 147.471 149.134 151.654 142.161C144.038 137.587 128.65 137.937 133.196 125.657C130.745 124.185 126.073 127.341 127.846 117.07C117.494 114.901 116.741 110.86 119.152 106.202C101.78 106.805 109.899 90.1516 115.006 87.9539V83.5261L121.025 74.9388L123.235 65.37Z" fill="#DA121A"/>
<path d="M256.96 342.375C256.052 342 252.619 339.593 249.333 337.025C241.611 330.992 237.718 323.674 238.701 317.04C239.754 309.933 244.232 304.163 248.731 304.115C251.625 304.085 255.577 307.395 257.126 311.146C258.957 315.581 260.077 313.153 260.095 304.707C260.11 298.034 259.975 297.653 256.113 293.449C253.914 291.056 252.115 288.185 252.115 287.07C252.115 285.955 251.552 285.036 250.865 285.028C250.178 285.018 248.604 284.743 247.367 284.41C245.27 283.846 245.118 284.122 245.118 288.484C245.118 293.568 243.513 297.504 240.223 300.491L238.121 302.399V298.077C238.121 293.796 238.102 293.773 236.09 295.6C231.557 299.715 229.829 303.944 230.468 309.356L231.071 314.461L227.589 311.076C225.675 309.215 223.67 306.099 223.134 304.153C222.303 301.131 222.575 299.724 225 294.527L227.839 288.439L224.455 288.343C221.215 288.251 218.131 286.642 218.131 285.045C218.131 284.63 219.443 284.027 221.046 283.705C223.577 283.198 224.176 282.381 225.582 277.529L227.203 271.937L223.693 267.641C218.821 261.676 215.25 253.376 214.513 246.304C213.992 241.304 213.307 239.687 210.326 236.424C208.366 234.279 206.594 233.031 206.388 233.651C205.49 236.353 200.012 242.891 197.3 244.499C194.966 245.882 193.935 247.651 192.425 252.863L190.51 259.474L188.251 255.099L185.991 250.725L183.32 253.183C181.851 254.536 179.187 256.648 177.4 257.877C175.237 259.365 174.152 260.926 174.152 262.55C174.152 265.976 176.76 265.646 178.65 261.98C179.503 260.326 180.526 258.987 180.924 259.004C182.642 259.08 185.237 261.953 186.649 265.342C187.629 267.695 188.836 268.999 190.035 268.999C191.06 268.999 192.458 269.676 193.143 270.503C193.945 271.473 196.162 272.007 199.384 272.007C204.286 272.007 204.354 272.048 202.943 274.18C202.152 275.376 200.157 277.078 198.511 277.964L195.516 279.575L197.323 282.559C199.828 286.697 199.594 289.358 196.391 293.19L193.643 296.479L193.143 292.014C192.647 287.581 192.611 287.544 188.145 286.924C185.671 286.581 183.536 286.392 183.4 286.504C183.265 286.616 183.877 288.839 184.762 291.444C185.647 294.049 186.112 296.44 185.795 296.758C185.478 297.076 183.403 296.874 181.184 296.309L177.15 295.282V298.55C177.15 300.347 178.05 302.965 179.149 304.367C180.249 305.769 181.149 307.246 181.149 307.65C181.149 308.054 178.675 308.128 175.651 307.815C170.455 307.277 170.154 307.369 170.154 309.493C170.154 311.531 165.534 317.128 163.852 317.128C163.47 317.128 163.157 316.247 163.157 315.17C163.157 312.92 161.145 308.104 160.205 308.104C159.857 308.104 159.142 309.57 158.616 311.363C157.872 313.899 156.995 314.734 154.661 315.129C152.398 315.512 151.579 316.25 151.322 318.137C150.578 323.59 146.732 325.289 140.258 323.025C137.498 322.06 136.746 322.183 134.861 323.903C129.18 329.089 125.831 329.295 118.664 324.899C112.528 321.135 110.534 318.257 109.21 311.253C107.151 300.365 114.514 285.315 120.728 287.707C121.661 288.066 123.487 290.772 124.786 293.72C126.086 296.668 127.62 299.08 128.195 299.08C130.582 299.08 139.255 293.863 140.8 291.498C141.717 290.094 143.319 285.472 144.359 281.228C146.013 274.476 146.102 272.606 145.071 266.268L143.892 259.025L140.954 261.506C137.136 264.728 132.279 264.795 129.348 261.665C126.504 258.628 126.606 257.971 129.923 257.966C131.435 257.966 134.18 257.04 136.024 255.912C138.75 254.245 139.244 253.449 138.669 251.654C137.136 246.874 137.096 243.279 138.54 239.921L140.049 236.412L141.206 239.671C142.976 244.658 146.358 244.087 153.662 237.567C156.96 234.623 163.482 229.688 168.155 226.601C178.216 219.953 182.063 216.716 180.541 216.177C179.931 215.961 178.582 215.139 177.542 214.349C175.835 213.053 176.26 212.91 181.898 212.881C185.598 212.862 188.145 212.417 188.145 211.79C188.145 210.308 180.549 207.183 175.059 206.405C170.516 205.761 170.44 205.798 167.6 210.054C165.222 213.618 164.669 214.01 164.368 212.348C164.168 211.245 163.532 208.538 162.954 206.332C162.061 202.924 161.783 202.622 161.101 204.326C160.66 205.429 160.267 208.024 160.229 210.092C160.141 214.782 159.152 214.853 156.73 210.342C155.694 208.412 154.53 206.833 154.144 206.833C153.757 206.833 153.041 209.653 152.552 213.1L151.663 219.366L149.214 215.414L146.764 211.461L145.474 214.633C143.551 219.36 140.09 221.214 134.241 220.651C129.883 220.231 129.208 220.437 128.091 222.53C126.371 225.755 122.423 225.571 117.579 222.04C112.537 218.366 111.794 217.348 109.824 211.417C107.977 205.854 107.709 198.06 109.181 192.742C111.415 184.674 118.683 181.899 121.973 187.857C125.772 194.735 125.411 194.704 131.657 188.683L137.376 183.169L133.782 180.713C131.804 179.362 130.184 177.977 130.18 177.635C130.18 177.293 132.149 176.458 134.565 175.78C139.142 174.494 145.446 169.947 147.195 166.67C147.961 165.234 147.898 164.882 146.938 165.239C144.325 166.213 139.61 163.994 137.436 160.768C135.065 157.248 135.227 155.719 137.978 155.66C138.908 155.64 140.858 154.625 142.311 153.404C144.863 151.26 150.163 144.06 150.163 142.737C150.163 142.382 147.187 140.978 143.549 139.619C135.181 136.491 132.172 133.791 132.172 129.411C132.172 126.93 131.604 125.841 129.923 125.101C128.385 124.424 127.576 123.088 127.362 120.872C127.097 118.118 126.387 117.339 122.615 115.665C118.566 113.868 118.179 113.385 118.179 110.13C118.179 106.978 117.883 106.565 115.634 106.565C114.234 106.565 111.934 105.405 110.518 103.984C108.396 101.856 108.047 100.778 108.524 97.8278C108.842 95.8608 110.245 92.5196 111.642 90.4028C113.038 88.286 114.181 85.9744 114.181 85.2659C114.181 84.5574 115.744 81.6485 117.655 78.8019C119.566 75.9552 121.421 71.797 121.778 69.5615C122.134 67.3259 122.959 64.7653 123.61 63.8714C126.09 60.4694 136.731 62.8904 139.139 67.4046C140.922 70.7467 140.304 76.0042 137.669 79.8983C133.917 85.4452 134.202 91.2393 138.419 95.1337C140.206 96.7836 143.359 98.8974 145.426 99.8309C149.869 101.838 157.827 108.946 158.692 111.682C159.027 112.74 160.637 114.299 162.27 115.146C163.903 115.993 167.699 118.921 170.706 121.652C177.514 127.838 180.485 128.404 176.549 122.766C175.668 121.505 175.137 120.283 175.368 120.051C175.599 119.819 178.364 120.171 181.513 120.834C185.266 121.623 187.764 121.705 188.768 121.07C191.728 119.197 190.592 118.093 185.397 117.792C180.623 117.517 180.149 117.274 180.149 115.107C180.149 111.485 182.723 109.573 187.6 109.573C191.131 109.573 192.009 109.194 192.456 107.477C192.898 105.785 193.448 105.535 195.322 106.178C196.597 106.615 198.99 106.994 200.639 107.019C203.321 107.062 203.672 106.711 203.958 103.713C204.392 99.164 200.116 93.0058 195.45 91.461C192.266 90.4068 191.742 90.5322 189.224 92.9521L186.475 95.5943L183.352 89.298C179.272 81.0719 178.522 76.599 180.559 72.6472C182.434 69.0108 187.546 64.8832 191.358 63.9291C192.85 63.5556 194.342 62.392 194.674 61.3433C195.605 58.4016 198.688 57.2859 205.446 57.4454C219.103 57.7674 221.129 56.9792 221.129 51.3456C221.129 49.7306 221.501 48.4092 221.955 48.4092C223.865 48.4092 227.26 53.3999 227.343 56.3314C227.41 58.7068 227.823 59.3676 229.028 59.0312C229.906 58.7861 232.199 58.2721 234.123 57.8887C236.047 57.5054 238.9 56.536 240.463 55.7346C242.026 54.9331 243.445 54.4235 243.617 54.602C244.006 55.007 241.324 70.5976 240.769 71.1542C240.546 71.3779 241.546 72.8408 242.991 74.4053C244.435 75.9697 247.33 79.5497 249.422 82.3608L253.227 87.472L249.23 88.1131L245.233 88.7543L247.424 91.728C250.071 95.3192 250.238 102.19 247.772 105.966C245.579 109.324 245.714 114.099 248.156 119.498C249.253 121.924 249.943 124.118 249.688 124.373C249.434 124.629 247.743 124.955 245.931 125.098C242.704 125.352 242.57 125.557 239.359 135.11C237.396 140.95 235.584 149.101 234.842 155.425C233.671 165.404 233.525 165.842 232.195 163.349C230.47 160.116 229.525 160.009 228.824 162.966C228.53 164.206 227.568 167.177 226.685 169.567C224.83 174.588 225.565 178.756 229.212 183.893L231.474 187.08L228.801 186.567C225.257 185.888 225.398 186.925 229.969 195.174C236.516 206.991 252.903 223.879 257.823 223.879C261.242 223.879 265.494 221.426 266.802 218.7C270.181 211.658 268.577 208.493 258.268 201.859C247.635 195.017 243.114 189.987 243.134 185.022C243.159 178.956 244.517 178.096 246.634 182.806C248.567 187.107 252.598 189.893 258.844 191.245L262.074 191.944L260.547 187.607C257.653 179.393 257.258 171.966 258.742 153.691C259.666 142.309 260.902 133.771 262.258 129.39C264.227 123.033 264.255 122.435 262.73 119.212C260.342 114.163 260.715 111.627 264.666 106.06C267.862 101.557 268.198 100.468 267.99 95.2918C267.863 92.1247 268.022 89.2696 268.344 88.947C269.063 88.2255 274.104 95.511 274.104 97.272C274.104 99.4428 275.594 98.6765 277.427 95.5625C278.393 93.9231 282.313 89.7702 286.139 86.334C290.919 82.0402 293.095 79.3662 293.095 77.784C293.095 74.8049 289.179 74.6259 286.598 77.487C285.481 78.7257 283.519 79.4923 281.469 79.4923C277.71 79.4923 275.754 77.2129 274.585 71.4709L273.871 67.9615L276.301 70.2175C279.538 73.2229 282.876 73.0637 286.335 69.7389C288.434 67.722 290.198 67.0044 293.057 67.0044C298.155 67.0044 300.389 69.1608 304.78 78.3194C307.853 84.7288 308.26 86.4088 307.761 90.6381C307.216 95.2467 307.318 95.5352 309.479 95.5352C312.647 95.5352 315.084 98.562 315.084 102.498C315.084 105.762 315.062 105.778 312.639 104.186C309.693 102.249 307.708 102.877 302.674 107.338L298.973 110.619L302.531 114.788C304.488 117.082 306.089 119.285 306.089 119.685C306.089 120.084 304.286 120.169 302.082 119.872C298.791 119.43 296.751 120.008 290.658 123.11C284.179 126.409 282.594 126.825 278.125 126.394C273.306 125.93 272.924 126.066 271.549 128.733C268.067 135.488 267.317 143.66 268.647 160.379C270.197 179.883 271.668 185.731 278.571 199.842C286.371 215.783 286.933 222.596 280.954 228.73L277.907 231.857L280.433 236.39C281.822 238.884 282.822 240.924 282.655 240.924C282.488 240.924 280.439 240.247 278.102 239.42C275.765 238.593 273.437 237.916 272.929 237.916C272.391 237.916 272.286 240.532 272.676 244.183L273.347 250.45L269.1 246.439L264.853 242.428L265.492 246.94L266.131 251.452L261.721 246.439L257.31 241.425L257.823 250.45C258.345 259.639 259.896 263.986 262.652 263.986C264.2 263.986 263.872 260.508 261.971 256.782C260.715 254.318 260.806 254.185 264.287 253.418C266.758 252.874 268.628 253.35 272.71 255.566C277.798 258.327 278.017 258.358 279.956 256.598C281.055 255.6 282.252 253.019 282.615 250.862C282.978 248.705 283.72 246.94 284.264 246.94C285.91 246.94 291.088 252.675 291.211 254.634C291.404 257.714 290.944 260.423 290.039 261.533C289.478 262.221 290.645 262.987 293.385 263.731C298.07 265.002 299.624 266.907 300.65 272.636L301.346 276.519L298.272 273.624L295.197 270.729L290.31 273.875C287.623 275.605 284.649 277.021 283.703 277.021C282.756 277.021 282.26 277.472 282.6 278.023C283.391 279.308 291.185 279.324 294.529 278.048C295.939 277.511 297.093 277.307 297.093 277.597C297.093 279.07 293.879 284.061 292.393 284.896C290.907 285.73 290.871 286.069 292.11 287.566C292.89 288.51 295.974 290.666 298.964 292.359C303.522 294.94 304.092 295.556 302.495 296.185C301.448 296.597 299.606 296.965 298.402 297.004C296.334 297.07 296.292 297.229 297.646 299.832C299.091 302.61 299.595 310.637 298.503 313.489C298.018 314.76 297.539 314.614 295.755 312.65C293.389 310.045 289.097 308.34 289.097 310.005C289.097 310.573 289.996 313.327 291.096 316.126C292.195 318.924 293.095 321.462 293.095 321.766C293.095 322.069 291.408 322.045 289.347 321.712C285.862 321.149 285.493 321.334 284.099 324.341C283.02 326.671 280.688 328.605 275.768 331.251C271.641 333.471 268.2 336.142 267.076 337.996C264.305 342.567 260.946 344.021 256.96 342.376V342.375ZM263.798 338.936C264.918 337.696 266.284 335.832 266.834 334.795C267.383 333.758 270.93 331.276 274.717 329.28C280.39 326.289 281.773 325.063 282.58 322.309C283.469 319.277 283.862 319.003 286.828 319.351C288.626 319.561 290.096 319.669 290.096 319.59C290.096 319.511 289.197 316.824 288.097 313.619C286.998 310.413 286.098 307.577 286.098 307.317C286.098 306.474 294.456 308.16 295.794 309.273C297.973 311.087 297.393 303.063 295.094 299.581C292.483 295.626 292.573 295.079 295.844 295.016L298.592 294.964L296.093 293.275C294.719 292.346 292.332 290.264 290.789 288.648L287.983 285.711L290.789 283.407L293.595 281.104L287.92 281.068C283.002 281.037 281.969 280.679 280.174 278.39C277.2 274.597 277.549 273.686 281.678 274.463C284.639 275.02 285.867 274.666 288.826 272.402C290.791 270.898 293.637 269.668 295.15 269.668C297.107 269.668 297.746 269.26 297.361 268.254C296.684 266.483 292.872 264.989 289.032 264.989C285.749 264.989 285.496 264.367 287.629 261.539C289.735 258.746 289.474 253.61 287.119 251.472C285.215 249.743 285.118 249.747 284.538 251.567C282.972 256.489 281.945 258.084 279.673 259.123C277.615 260.063 276.398 259.816 272.18 257.604C267.181 254.981 264.109 254.265 264.109 255.721C264.109 256.138 264.535 257.969 265.055 259.789C266.333 264.26 265.45 266.171 262.281 265.795C258.032 265.291 256.427 260.962 255.664 247.943L254.988 236.412L259.013 240.341L263.038 244.27L262.444 240.341L261.849 236.412L265.77 240.173C267.926 242.241 269.9 243.933 270.155 243.933C270.411 243.933 270.454 241.836 270.25 239.274C269.92 235.109 270.078 234.677 271.742 235.198C278.894 237.435 278.471 237.53 276.691 234.079C275.132 231.053 275.157 230.909 277.505 229.365C278.838 228.489 280.694 226.154 281.63 224.176C284.147 218.855 282.937 213.081 276.632 200.316C269.671 186.223 268.329 180.895 266.712 160.936C265.238 142.745 265.729 137.578 269.803 128.404C271.994 123.472 272.604 122.805 274.161 123.641C277.647 125.513 283.081 124.648 290.096 121.104C293.916 119.174 298.164 117.595 299.535 117.595C302.943 117.595 301.996 115.624 297.04 112.4C293.176 109.887 293.125 109.783 295.467 109.193C296.798 108.858 299.778 106.999 302.09 105.061C306.444 101.412 310.201 99.8823 312.028 101.015C312.609 101.375 313.085 101.283 313.085 100.809C313.085 98.907 310.484 97.541 306.862 97.541H303.038L304.563 94.5828C306.384 91.0509 306.485 85.8508 304.792 82.7954C303.629 80.6962 303.395 80.9139 300.22 87.0568C298.38 90.6172 296.474 93.5303 295.984 93.5303C294.611 93.5303 294.937 92.4662 298.131 86.5115C302.123 79.0721 302.088 74.4971 298.015 71.0591C296.324 69.6314 294.278 68.4632 293.468 68.4632C291.465 68.4632 286.742 70.9886 285.153 72.9092C284.438 73.7727 282.522 74.4793 280.894 74.4793C278.974 74.4793 278.079 74.9193 278.346 75.7327C279.038 77.8398 282.958 77.744 285.736 75.5522C289.473 72.6033 293.882 72.7805 294.665 75.9109C295.647 79.8348 294.49 81.7367 287.061 88.4084C282.254 92.7256 279.033 96.6675 276.858 100.892L273.68 107.066L273.106 102.554C272.79 100.073 271.999 97.1399 271.349 96.037C270.283 94.2291 270.163 94.3806 270.136 97.5748C270.116 99.8801 268.883 103.021 266.607 106.565C262.592 112.816 262.35 114.83 265.073 119.31C267.023 122.518 267.022 122.545 264.931 127.288C263.354 130.863 262.387 136.853 261.043 151.366C258.965 173.811 259.511 180.724 264.153 190.689C267.312 197.473 267.338 199.237 264.236 196.421C263.2 195.48 259.262 193.59 255.484 192.221C251.707 190.852 247.839 188.729 246.889 187.503C245.939 186.278 245.152 185.824 245.14 186.494C245.096 188.891 251.751 195.245 259.7 200.396C269.249 206.583 271.655 210.265 270.024 216.193C268.208 222.791 260.948 227.241 255.06 225.366C251.491 224.23 236.442 209.091 231.563 201.728C229.101 198.013 226.159 192.734 225.025 189.997C223.78 186.991 222.02 184.59 220.58 183.931C219.268 183.332 216.893 181.038 215.301 178.833L212.406 174.825L210.851 178.797C209.037 183.43 207.071 183.826 204.368 180.105L202.434 177.441L201.795 179.994C200.906 183.546 198.307 184.278 195.609 181.736L193.389 179.643L192.685 182.454C191.77 186.111 190.33 187.782 188.092 187.782C186.53 187.782 186.411 188.222 187.215 191.034C188.419 195.245 188.395 197.08 187.145 196.305C186.583 195.957 186.146 196.753 186.146 198.123C186.146 200.164 186.756 200.659 189.894 201.166C194.289 201.875 200.494 206.687 202.814 211.185C204.863 215.157 207.108 223.491 207.124 227.181C207.134 229.085 208.529 231.491 211.49 234.701C215.416 238.957 215.908 240.052 216.489 245.852C217.283 253.769 220.516 260.979 226.091 267.267C229.151 270.719 230.05 272.395 229.319 273.283C228.761 273.96 227.996 276.167 227.62 278.188C227.244 280.208 226.084 282.779 225.042 283.9C222.485 286.653 224.229 287.451 228.703 285.576C230.719 284.731 232.524 284.04 232.714 284.04C232.904 284.04 231.459 286.78 229.503 290.129C224.646 298.441 224.032 301.003 225.896 305.176L227.428 308.606L228.11 304.901C228.508 302.742 230.311 299.51 232.432 297.156C234.433 294.933 236.356 291.975 236.704 290.583C237.794 286.226 239.977 287.565 240.34 292.813C240.665 297.522 240.683 297.544 241.894 294.753C242.567 293.201 243.118 289.253 243.118 285.98C243.118 279.676 243.471 279.223 246.558 281.565C247.625 282.375 249.761 283.037 251.305 283.037C253.692 283.037 254.113 283.445 254.113 285.757C254.113 287.597 255.456 289.849 258.266 292.721L262.419 296.967L262.193 304.74C261.847 316.638 259.313 319.399 255.306 312.245C252.413 307.083 250.647 305.747 247.695 306.491C243.822 307.466 241.033 312.305 240.812 318.435C240.564 325.312 243.781 330.448 252.254 336.705C259.141 341.791 260.912 342.133 263.797 338.937L263.798 338.936ZM132.822 322.825L136.441 319.498L140.935 320.982C146.432 322.797 148.296 321.882 149.499 316.777C150.237 313.646 150.765 313.117 153.154 313.117C156.267 313.117 157.16 311.659 157.16 306.577C157.16 301.734 158.467 301.605 161.237 306.174C165.695 313.528 165.98 313.813 167.184 312.115C167.774 311.282 168.026 308.476 167.748 305.831L167.245 301.052L170.543 303.575C175.028 307.007 177.437 306.986 176.126 303.526C175.59 302.112 175.151 299.139 175.151 296.921V292.887L179.149 293.565C183.675 294.332 183.777 294.101 181.62 287.97C179.576 282.158 180.383 279.96 183.488 282.886C184.925 284.241 187.07 285.042 189.259 285.042C193.206 285.042 195.135 286.501 195.157 289.504C195.17 291.198 195.343 291.295 196.141 290.055C197.79 287.496 197.258 285.246 194.17 281.718L191.2 278.324L195.17 277.13C199.52 275.823 200.485 274.012 196.832 274.012C195.563 274.012 193.651 273.35 192.584 272.54C191.517 271.731 189.272 271.054 187.595 271.036C184.784 271.007 184.547 270.732 184.547 267.495C184.547 262.086 182.748 261.029 179.255 264.386C175.341 268.147 172.743 267.563 172.349 262.831C172.086 259.679 172.492 258.873 175.347 256.878C177.164 255.609 180.431 253.067 182.609 251.23L186.567 247.89L188.27 251.175L189.973 254.46L191.115 249.946C191.968 246.569 193.122 244.863 195.698 243.168C199.366 240.757 205.137 233.483 205.137 231.273C205.137 230.288 204.522 230.179 202.759 230.851C199.89 231.945 196.476 229.906 195.1 226.275C194.045 223.491 185.329 217.578 183.383 218.327C182.663 218.604 179.729 220.672 176.863 222.922C173.998 225.172 169.092 228.677 165.962 230.71C162.832 232.743 157.813 236.569 154.808 239.213C147.972 245.229 143.857 246.63 141.114 243.877C139.187 241.945 139.169 241.946 139.169 244.066C139.169 245.243 139.689 247.949 140.326 250.08C141.327 253.433 141.241 254.221 139.683 255.948C138.693 257.046 136.397 258.483 134.581 259.141C130.822 260.505 131.007 261.98 134.938 261.98C136.62 261.98 138.906 260.686 141.21 258.429L144.836 254.878L146.654 263.567C148.402 271.924 148.403 272.548 146.692 279.902C145.713 284.108 144.07 289.221 143.041 291.265C140.035 297.24 128.062 303.146 125.5 299.918C124.915 299.181 123.905 296.922 123.256 294.898C121.544 289.565 119.676 288.299 117.016 290.669C111.439 295.636 109.151 309.105 112.652 316.355C114.427 320.03 123.351 326.152 126.934 326.152C128.182 326.152 130.832 324.655 132.822 322.825L132.822 322.825ZM204.441 223.68C204.333 221.812 203.782 219.061 203.217 217.568C202.199 214.883 202.09 214.855 192.918 214.895C183.825 214.934 183.705 214.966 186.646 216.54C191.063 218.906 197.141 223.884 197.141 225.137C197.141 225.737 197.89 227.058 198.806 228.073C200.278 229.705 200.712 229.754 202.554 228.499C204.065 227.468 204.584 226.146 204.441 223.68ZM126.952 220.459C127.977 218.202 128.44 218.077 133.939 218.577C139.473 219.08 139.96 218.945 141.998 216.347C143.19 214.826 144.166 212.289 144.166 210.708C144.166 207.157 145.121 207.091 148.24 210.427L150.663 213.018L151.67 206.165L152.676 199.313L155.105 203.58C157.837 208.378 159.119 207.74 159.144 201.569C159.154 199.501 159.526 197.809 159.975 197.809C161.139 197.809 165.15 205.243 165.188 207.471C165.218 209.238 165.304 209.23 166.767 207.334C167.857 205.92 168.194 203.796 167.907 200.129L167.501 194.929L170.417 196.441C172.021 197.273 173.959 197.713 174.725 197.418C176.76 196.635 175.438 190.845 172.53 187.805L170.154 185.321L170.113 187.805C170.074 190.136 169.826 190.016 166.09 185.87C163.708 183.227 161.665 179.689 161.006 177.065L159.905 172.678L156.433 176.747C152.186 181.724 148.432 183.771 143.551 183.771C140.373 183.771 138.938 184.638 133.593 189.787C130.158 193.096 126.971 195.797 126.511 195.788C124.721 195.755 122.729 193.803 121.234 190.613C118.974 185.793 114.906 185.471 112.607 189.932C108.45 197.995 110.202 212.71 115.956 218.068C121.663 223.381 125.269 224.165 126.952 220.459V220.459ZM201.139 212.043C201.139 209.877 193.854 204.445 189.453 203.329C185.102 202.227 184.617 201.812 184.333 198.95C184.105 196.651 183.233 195.381 181.134 194.292C177.426 192.369 177.234 192.399 177.862 194.806C178.656 197.852 176.278 200.09 172.958 199.424C170.512 198.933 170.154 199.167 170.154 201.255C170.154 203.299 170.774 203.745 174.402 204.307C181.608 205.424 187.752 207.788 190.175 210.375C191.945 212.266 193.511 212.849 196.815 212.849C199.193 212.849 201.139 212.486 201.139 212.043V212.043ZM184.267 187.252C183.508 184.494 183.553 183.721 184.454 184.091C185.11 184.361 186.423 184.895 187.372 185.277C189.336 186.069 190.62 183.709 191.638 177.435L192.26 173.605L195.288 177.798C198.597 182.381 199.276 182.21 201.155 176.323L202.411 172.383L204.265 176.007C205.284 178 206.5 179.867 206.967 180.157C207.433 180.446 208.855 178.376 210.125 175.555C212.624 170.01 212.657 170.016 216.323 176.657C217.789 179.312 223.38 183.756 225.268 183.768C225.62 183.768 225.258 181.548 224.465 178.832C223.096 174.147 223.153 173.509 225.574 166.473C226.977 162.393 228.144 157.51 228.166 155.621L228.206 152.187L229.713 154.974C230.541 156.507 231.582 157.536 232.026 157.261C232.469 156.986 233.121 153.993 233.473 150.609C233.826 147.226 235.637 139.885 237.498 134.295C240.671 124.767 240.773 124.057 239.132 122.904C237.162 121.52 234.123 115.62 234.123 113.181C234.123 110.51 235.834 111.387 236.427 114.362C237.197 118.225 240.582 122.255 243.721 123.045C245.169 123.41 246.505 123.556 246.69 123.37C246.875 123.184 246.392 121.245 245.616 119.06C243.803 113.951 243.75 108.545 245.49 106.036C247.547 103.07 248.323 98.216 247.21 95.2796C246.666 93.8444 244.555 91.5346 242.519 90.1467L238.817 87.6233L243.967 86.938C246.799 86.5611 249.116 85.9384 249.116 85.554C249.116 85.1697 248.03 83.8314 246.702 82.5801C245.374 81.3287 244.018 79.2278 243.689 77.9115C243.359 76.5951 241.745 74.8204 240.101 73.9676C237.324 72.527 237.212 72.2595 238.521 70.1893C239.296 68.9641 240.239 65.5969 240.617 62.7068L241.305 57.4521L238.081 58.8118C235.809 59.7703 234.488 61.25 233.605 63.8253C232.091 68.2453 230.366 70.4682 228.453 70.4682C227.439 70.4682 227.764 69.4957 229.574 67.1148C232.124 63.7617 232.936 60.4414 231.206 60.4414C228.602 60.4414 226.747 62.166 225.03 66.184C222.604 71.8626 222.583 71.7177 226.139 73.8253C230.677 76.5145 235.486 87.5138 232.124 87.5138C231.574 87.5138 231.123 86.4986 231.121 85.2577C231.111 81.8817 227.789 77.0585 223.731 74.5428C221.75 73.3147 220.13 72.135 220.13 71.9213C220.13 71.7075 221.1 69.6652 222.286 67.3829C224.766 62.6103 225.931 54.0392 224.243 52.9923C223.628 52.6114 223.128 52.9242 223.128 53.69C223.128 54.4536 222.048 56.097 220.727 57.342C218.575 59.37 217.352 59.599 208.982 59.5423C197.927 59.4671 196.288 60.1366 197.72 64.1424C198.695 66.8708 198.92 66.9487 204.907 66.6345C209.168 66.411 211.737 66.7676 213.183 67.7832C215.47 69.3906 214.447 70.913 212.086 69.4147C211.288 68.908 209.425 68.4866 207.946 68.4782C205.558 68.4641 205.223 68.8824 204.948 72.2229C204.567 76.8403 202.754 77.1869 202.325 72.7242C201.963 68.954 200.225 68.5649 194.488 70.9695C190.406 72.6806 189.145 72.8367 189.145 71.6314C189.145 71.1682 190.925 70.1999 193.1 69.4797C196.502 68.3534 196.916 67.9103 196.064 66.3122C195.136 64.5727 194.837 64.5532 191.373 66.005C185.377 68.5182 183.485 70.9438 182.771 77.0301C182.257 81.4223 182.545 83.3703 184.249 87.0063C185.414 89.4913 186.557 91.5245 186.791 91.5245C187.025 91.5245 188.306 90.8078 189.639 89.9319C192.214 88.2391 196.33 88.626 199.261 90.8363C204.713 94.9477 208.048 105.249 204.937 108.37C203.48 109.832 198.695 109.941 196.143 108.571C194.659 107.774 194.15 107.969 193.658 109.523C193.169 111.071 191.962 111.54 187.853 111.778C183.853 112.011 182.59 112.481 182.334 113.834C182.067 115.245 182.714 115.589 185.639 115.589C192.74 115.589 195.375 119.089 190.624 122.211C188.868 123.366 186.79 123.718 183.757 123.375C179.972 122.947 179.468 123.112 179.869 124.648C180.122 125.619 179.811 127.384 179.178 128.57C178.064 130.659 177.819 130.542 171.342 124.83C167.665 121.586 163.307 118.126 161.658 117.139C160.009 116.153 157.297 113.483 155.633 111.206C152.899 107.466 150.296 105.434 140.052 99.0446C132.615 94.4059 130.774 86.5798 135.508 79.7274C140.275 72.8271 138.629 66.5271 131.56 64.6121C126.943 63.3615 125.31 64.2384 124.14 68.5952C123.141 72.3181 123.245 72.7403 125.62 74.6144C127.025 75.7228 128.159 77.3867 128.141 78.3118C128.114 79.6907 127.769 79.5872 126.231 77.7376C125.199 76.4968 123.887 75.4816 123.314 75.4816C121.914 75.4816 116.18 83.9417 116.18 86.0066C116.18 86.9092 115.034 89.1548 113.633 90.9969C112.232 92.8389 110.834 95.9072 110.525 97.8151C110.063 100.674 110.374 101.572 112.295 102.922C113.577 103.823 115.8 104.559 117.235 104.559C120.639 104.559 121.237 105.273 120.178 108.068C119.11 110.886 120.573 113.082 124.491 114.541C128.568 116.059 129.958 115.844 130.673 113.584C131.022 112.481 131.727 111.578 132.239 111.578C133.869 111.578 133.244 114.513 131.172 116.592C128.57 119.202 128.542 123.211 131.122 123.887C132.391 124.22 133.572 123.65 134.511 122.25C136.61 119.119 137.591 120.886 135.744 124.47C133.505 128.813 133.753 132.318 136.42 134.04C137.657 134.839 141.817 136.727 145.666 138.236C149.514 139.745 152.837 141.12 153.051 141.291C154.162 142.183 146.167 153.096 142.695 155.427C140.481 156.913 138.469 158.271 138.225 158.444C137.98 158.618 138.742 159.725 139.918 160.905C143.455 164.453 147.678 163.749 152.123 158.871C154.216 156.574 156.656 154.693 157.544 154.693C159.813 154.693 159.56 156.36 157.198 156.979C156.119 157.262 153.983 159.643 152.45 162.27C148.091 169.74 144.089 173.873 138.857 176.304L134.032 178.547L136.323 180.156C137.628 181.073 140.612 181.766 143.254 181.766C148.632 181.766 151.377 179.961 157.155 172.629C161.05 167.685 162.126 167.781 162.18 173.074C162.192 174.27 163.121 177.279 164.245 179.761C166.105 183.866 166.383 184.092 167.336 182.267C167.912 181.164 170.356 178.393 172.767 176.109C176.833 172.257 177.15 171.586 177.15 166.834C177.15 164.017 177.6 161.712 178.15 161.712C179.528 161.712 179.411 170.371 177.998 173.058C177.364 174.263 175.259 176.636 173.319 178.333L169.792 181.417L173.993 185.989C178.927 191.358 184.462 194.548 184.959 192.309C185.131 191.536 184.819 189.26 184.267 187.252V187.252ZM210.506 108.977C212.65 96.6894 212.61 96.2968 208.748 91.6592C206.762 89.2748 205.137 87.0018 205.137 86.6079C205.137 85.1462 207.998 82.0279 208.696 82.7284C209.094 83.1278 208.904 84.078 208.274 84.8398C207.378 85.923 207.788 87.0578 210.153 90.0438C211.817 92.1442 213.443 94.9207 213.767 96.214C214.496 99.1297 212.279 111.369 210.863 112.248C210.168 112.678 210.05 111.591 210.506 108.977V108.977ZM219.631 102.805C219.306 100.737 218.894 98.1422 218.714 97.0393C218.535 95.9363 218.057 94.2443 217.653 93.2792C217.203 92.2072 217.358 91.5245 218.049 91.5245C219.547 91.5245 220.704 94.8634 221.436 101.301C222.115 107.275 220.538 108.589 219.631 102.805Z" fill="black"/>
<path d="M128.247 63.4669C132.125 69.6713 126.525 72.7389 123.031 72.5908C121.305 69.471 117.681 66.5812 112.531 68.2972C114.867 62.6894 120.088 59.7804 128.247 63.4669Z" fill="#0F47AF" stroke="black" stroke-width="2.1"/>
<path d="M120.333 76.4288C124.211 82.6332 118.611 85.7008 115.117 85.5527C113.391 82.4329 109.767 79.5431 104.617 81.2591C106.953 75.6513 112.174 72.7423 120.333 76.4288V76.4288Z" fill="#0F47AF" stroke="black" stroke-width="2.1"/>
<path d="M113.807 90.8769C119.848 94.9892 115.954 100.059 112.696 101.336C109.864 99.1775 105.387 97.9968 101.362 101.648C101.249 95.5714 104.859 90.7994 113.807 90.8769Z" fill="#0F47AF" stroke="black" stroke-width="2.1"/>
<path d="M126.353 116.653C130.23 110.449 124.631 107.381 121.136 107.53C119.41 110.649 115.786 113.539 110.637 111.823C112.973 117.431 118.193 120.34 126.353 116.653Z" fill="#0F47AF" stroke="black" stroke-width="2.1"/>
<path d="M111.152 188.705C118.28 190.285 116.531 196.44 113.975 198.835C110.547 197.88 105.952 198.444 103.559 203.329C101.214 197.725 102.809 191.952 111.152 188.705Z" fill="#0F47AF" stroke="black" stroke-width="2.1"/>
<path d="M111.234 203.828C118.522 203.417 118.497 209.817 116.68 212.816C113.124 212.826 108.851 214.614 107.863 219.966C104.095 215.207 104.077 209.216 111.234 203.828Z" fill="#0F47AF" stroke="black" stroke-width="2.1"/>
<path d="M118.4 215.17C125.489 213.422 126.638 219.717 125.402 223C121.908 223.666 118.036 226.212 118.046 231.656C113.47 227.673 112.353 221.787 118.4 215.17Z" fill="#0F47AF" stroke="black" stroke-width="2.1"/>
<path d="M141.695 214.456C137.061 208.797 132.384 213.15 131.414 216.521C133.815 219.153 135.396 223.518 132.139 227.872C138.181 227.431 142.589 223.388 141.695 214.456Z" fill="#0F47AF" stroke="black" stroke-width="2.1"/>
<path d="M112.445 294.152C119.673 295.176 118.402 301.448 116.037 304.033C112.547 303.346 108.008 304.264 105.998 309.32C103.229 303.914 104.376 298.034 112.445 294.152V294.152Z" fill="#0F47AF" stroke="black" stroke-width="2.1"/>
<path d="M112.403 308.965C119.702 308.918 119.36 315.309 117.397 318.213C113.844 318.046 109.488 319.619 108.236 324.916C104.709 319.974 104.987 313.99 112.403 308.965V308.965Z" fill="#0F47AF" stroke="black" stroke-width="2.1"/>
<path d="M121.267 318.82C127.802 315.557 130.297 321.447 129.808 324.921C126.544 326.339 123.322 329.674 124.52 334.983C119.186 332.102 116.811 326.605 121.267 318.82Z" fill="#0F47AF" stroke="black" stroke-width="2.1"/>
<path d="M147.603 319.552C143.492 313.5 138.446 317.416 137.18 320.687C139.337 323.524 140.522 328.013 136.891 332.058C142.948 332.16 147.698 328.528 147.603 319.552V319.552Z" fill="#0F47AF" stroke="black" stroke-width="2.1"/>
<path d="M240.179 311.982C247.434 311.17 247.759 317.562 246.109 320.656C242.558 320.862 238.39 322.883 237.697 328.282C233.674 323.737 233.327 317.756 240.179 311.982V311.982Z" fill="#0F47AF" stroke="black" stroke-width="2.1"/>
<path d="M247.263 325.157C254.548 325.618 253.764 331.97 251.606 334.73C248.073 334.316 243.619 335.582 242.003 340.779C238.826 335.604 239.518 329.653 247.263 325.157V325.157Z" fill="#0F47AF" stroke="black" stroke-width="2.1"/>
<path d="M255.747 334.849C261.03 329.795 265.148 334.684 265.703 338.148C263.002 340.469 260.906 344.61 263.613 349.327C257.668 348.155 253.781 343.607 255.747 334.849V334.849Z" fill="#0F47AF" stroke="black" stroke-width="2.1"/>
<path d="M279.327 326.457C273.042 322.732 270.133 328.428 270.373 331.928C273.527 333.577 276.503 337.135 274.928 342.344C280.455 339.854 283.216 334.542 279.327 326.457V326.457Z" fill="#0F47AF" stroke="black" stroke-width="2.1"/>
<path d="M204.62 99.8286C198.27 96.6373 191.508 95.7145 184.089 98.4197C174.227 101.128 165.574 94.5937 173.657 89.0274C162.725 78.2465 154.56 107.218 179.207 104.055C190.058 101.27 197.88 102.391 205.022 104.391L204.62 99.8286Z" fill="#0F47AF" stroke="black" stroke-width="2.1"/>
<path d="M189.592 146.978C189.679 146.832 189.908 146.201 190.101 145.576C190.294 144.951 190.475 144.471 190.505 144.51C190.534 144.549 190.732 145.136 190.944 145.815C191.181 146.572 191.374 147.051 191.443 147.051C191.504 147.051 191.554 147.094 191.554 147.148C191.554 147.201 191.362 147.244 191.127 147.243C190.744 147.243 190.715 147.225 190.85 147.104C190.965 147 190.987 146.898 190.945 146.671C190.892 146.384 190.874 146.373 190.457 146.373C190.045 146.373 190.02 146.388 189.935 146.678C189.86 146.934 189.868 147.003 189.988 147.111C190.113 147.224 190.088 147.24 189.782 147.243L189.434 147.253L189.592 146.986L189.592 146.978ZM190.667 145.67C190.587 145.39 190.503 145.096 190.482 145.016C190.46 144.935 190.376 145.107 190.295 145.404C190.214 145.697 190.13 145.991 190.11 146.058C190.083 146.143 190.181 146.179 190.443 146.179H190.813L190.667 145.67Z" fill="black"/>
<path d="M96.8379 168.853L115.753 133.18H277.292L297.153 168.853H252.134L261.403 148.36H201.691L211.588 168.853H170.125L176.278 148.36H125.184L134.012 168.853H96.8379Z" fill="#CCCCCC" stroke="black" stroke-width="2.1"/>
<path d="M274.74 137.02C274.827 136.874 275.056 136.243 275.249 135.618C275.442 134.993 275.624 134.513 275.653 134.552C275.682 134.591 275.88 135.178 276.093 135.857C276.33 136.614 276.523 137.093 276.591 137.093C276.652 137.093 276.703 137.136 276.703 137.19C276.703 137.243 276.51 137.286 276.275 137.285C275.892 137.285 275.864 137.267 275.998 137.146C276.113 137.042 276.135 136.94 276.093 136.713C276.04 136.426 276.022 136.415 275.605 136.415C275.193 136.415 275.168 136.43 275.083 136.72C275.008 136.976 275.016 137.045 275.136 137.153C275.262 137.266 275.237 137.282 274.93 137.285L274.582 137.295L274.74 137.028L274.74 137.02ZM275.816 135.712C275.736 135.432 275.652 135.138 275.63 135.058C275.608 134.977 275.525 135.149 275.443 135.445C275.362 135.739 275.279 136.033 275.258 136.1C275.231 136.185 275.329 136.221 275.591 136.221H275.961L275.816 135.712V135.712Z" fill="black" fill-opacity="0.476415"/>
</g>
<defs>
<clipPath id="clip0_1_11289">
<rect width="600" height="400" fill="white"/>
</clipPath>
</defs>
</svg>
