<svg width="600" height="400" viewBox="0 0 600 400" fill="none" xmlns="http://www.w3.org/2000/svg" xmlns:cgf="https://coding.garden/flags"><metadata id="cgf-metadata">

<cgf:flag>
  <cgf:name>Voorschoten</cgf:name>
  <cgf:route>nl/zh/voorschoten</cgf:route>
  <cgf:aspect-ratio>1.5</cgf:aspect-ratio>
</cgf:flag>

</metadata><g clip-path="url(#clip0_1_11319)">
<path d="M600 0H0V400H600V0Z" fill="#FCCC00"/>
<path d="M377.882 270.672C377.884 280.887 375.874 291.003 371.966 300.441C368.058 309.879 362.329 318.455 355.107 325.679C347.884 332.903 339.309 338.634 329.872 342.543C320.434 346.453 310.319 348.465 300.104 348.465C289.889 348.465 279.774 346.453 270.336 342.543C260.899 338.634 252.324 332.903 245.101 325.679C237.879 318.455 232.15 309.879 228.242 300.441C224.334 291.003 222.324 280.887 222.326 270.672C222.324 260.457 224.334 250.341 228.242 240.903C232.15 231.465 237.879 222.889 245.101 215.665C252.324 208.441 260.899 202.71 270.336 198.8C279.774 194.891 289.889 192.878 300.104 192.878C310.319 192.878 320.434 194.891 329.872 198.8C339.309 202.71 347.884 208.441 355.107 215.665C362.329 222.889 368.058 231.465 371.966 240.903C375.874 250.341 377.884 260.457 377.882 270.672V270.672Z" fill="black"/>
<path d="M366.771 242.894C366.771 260.575 359.747 277.532 347.245 290.035C334.742 302.537 317.785 309.561 300.104 309.561C282.423 309.561 265.466 302.537 252.964 290.035C240.461 277.532 233.438 260.575 233.438 242.894C233.438 225.213 240.461 208.256 252.964 195.754C265.466 183.251 282.423 176.228 300.104 176.228C317.785 176.228 334.742 183.251 347.245 195.754C359.747 208.256 366.771 225.213 366.771 242.894V242.894Z" fill="#FCCC00"/>
<path d="M270.248 96.2275C270.25 106.443 268.24 116.558 264.332 125.997C260.424 135.435 254.695 144.011 247.473 151.235C240.25 158.459 231.676 164.189 222.238 168.099C212.801 172.009 202.685 174.021 192.47 174.021C182.255 174.021 172.14 172.009 162.702 168.099C153.265 164.189 144.69 158.459 137.467 151.235C130.245 144.011 124.516 135.435 120.608 125.997C116.701 116.558 114.69 106.443 114.692 96.2275C114.69 86.0123 116.701 75.8967 120.608 66.4585C124.516 57.0202 130.245 48.4442 137.467 41.2202C144.69 33.9962 153.265 28.2657 162.702 24.3561C172.14 20.4464 182.255 18.4341 192.47 18.4341C202.685 18.4341 212.801 20.4464 222.238 24.3561C231.676 28.2657 240.25 33.9962 247.473 41.2202C254.695 48.4442 260.424 57.0202 264.332 66.4585C268.24 75.8967 270.25 86.0123 270.248 96.2275V96.2275Z" fill="black"/>
<path d="M259.137 68.4499C259.137 86.131 252.113 103.088 239.611 115.59C227.108 128.093 210.151 135.117 192.47 135.117C174.789 135.117 157.832 128.093 145.33 115.59C132.828 103.088 125.804 86.131 125.804 68.4499C125.804 50.7688 132.828 33.8119 145.33 21.3095C157.832 8.80703 174.789 1.7832 192.47 1.7832C210.151 1.7832 227.108 8.80703 239.611 21.3095C252.113 33.8119 259.137 50.7688 259.137 68.4499V68.4499Z" fill="#FCCC00"/>
<path d="M485.308 96.2275C485.311 106.443 483.3 116.558 479.393 125.997C475.485 135.435 469.756 144.011 462.533 151.235C455.311 158.459 446.736 164.189 437.299 168.099C427.861 172.009 417.746 174.021 407.531 174.021C397.315 174.021 387.2 172.009 377.763 168.099C368.325 164.189 359.751 158.459 352.528 151.235C345.305 144.011 339.577 135.435 335.669 125.997C331.761 116.558 329.751 106.443 329.753 96.2275C329.751 86.0123 331.761 75.8967 335.669 66.4585C339.577 57.0202 345.305 48.4442 352.528 41.2202C359.751 33.9962 368.325 28.2657 377.763 24.3561C387.2 20.4464 397.315 18.4341 407.531 18.4341C417.746 18.4341 427.861 20.4464 437.299 24.3561C446.736 28.2657 455.311 33.9962 462.533 41.2202C469.756 48.4442 475.485 57.0202 479.393 66.4585C483.3 75.8967 485.311 86.0123 485.308 96.2275V96.2275Z" fill="black"/>
<path d="M474.198 68.4499C474.198 86.131 467.174 103.088 454.671 115.59C442.169 128.093 425.212 135.117 407.531 135.117C389.85 135.117 372.893 128.093 360.39 115.59C347.888 103.088 340.864 86.131 340.864 68.4499C340.864 50.7688 347.888 33.8119 360.39 21.3095C372.893 8.80703 389.85 1.7832 407.531 1.7832C425.212 1.7832 442.169 8.80703 454.671 21.3095C467.174 33.8119 474.198 50.7688 474.198 68.4499V68.4499Z" fill="#FCCC00"/>
</g>
<defs>
<clipPath id="clip0_1_11319">
<rect width="600" height="400" fill="white"/>
</clipPath>
</defs>
</svg>
