<svg width="600" height="400" viewBox="0 0 600 400" fill="none" xmlns="http://www.w3.org/2000/svg" xmlns:cgf="https://coding.garden/flags"><metadata id="cgf-metadata">

<cgf:flag>
  <cgf:name>Waddinxveen</cgf:name>
  <cgf:route>nl/zh/waddinxveen</cgf:route>
  <cgf:aspect-ratio>1.5</cgf:aspect-ratio>
</cgf:flag>

</metadata><g clip-path="url(#clip0_1_11332)">
<path d="M0 200V0H300H600V200V400H300H0V200Z" fill="#FFCC00"/>
<path d="M200.039 29L194.318 33.0925C191.175 35.3339 190.503 35.5575 187.534 38.3803C189.076 40.7332 190.419 42.4441 192.625 45.253L196.595 50.3394C192.296 53.8681 187.873 56.8454 183.272 60.3496L187.605 66.3001L192.275 73.2574L187.196 77.4668L179.341 83.3909L174.062 76.1806C172.312 73.1002 169.562 70.7606 169.035 70.3017C167.806 69.23 163.244 73.9476 157.075 78.0514L143 88.4776L147.501 94.8891C149.691 97.969 151.864 101.301 152.664 101.301C153.465 101.301 156.34 98.8179 158.709 96.7599C161.079 94.702 163.578 93.0182 164.255 93.0182C164.932 93.0182 167.431 95.6552 169.801 98.8647L174.12 104.711L168.166 109.739L161.207 115.358L165.598 120.73L171.085 127.759C172.231 127.765 175.46 124.869 178.265 122.66L183.344 118.684L187.78 124.063C190.214 127.044 192.77 131.153 192.807 131.851C192.844 132.549 191.036 133.372 189.415 134.995L179.407 142.635L183.285 147.858C185.553 151.148 187.683 154.154 188.014 154.581C188.344 155.008 194.479 151.305 201.673 146.338C208.867 141.37 214.749 136.961 214.749 136.516C214.749 136.071 213.072 133.33 211.013 130.435L206.143 123.075L220.353 113.364L230.037 126.96L243.061 117.339L254.094 133.709C260.143 142.721 269.302 156.224 274.467 163.701C279.632 171.179 283.866 177.703 283.866 178.2C283.866 178.573 272.067 178.881 255.32 179.019C249.738 179.065 243.587 179.077 237.166 179.077H190.465V187.496V195.915H237.224C281.283 195.915 283.891 196.105 281.998 199.189C280.893 200.99 273.835 211.303 266.353 222.107L252.752 241.751L242.653 241.225C230.982 240.64 230.456 240.925 223.564 251.573C218.452 259.472 215.965 261.123 213.932 257.829C211.678 254.176 193.808 251.833 183.811 253.912C159.295 259.009 142.886 289.355 151.821 313.077C154.497 320.182 163.026 330.035 171.785 336.171C175.372 338.683 178.744 341.223 179.257 341.842C179.771 342.46 183.554 344.968 187.663 347.396C191.773 349.823 196.817 353.295 198.871 355.113C200.926 356.931 207.512 361.015 213.524 364.175C226.095 370.783 238.048 371.683 249.424 366.923C265.719 360.104 277.108 345.37 279.488 327.986C280.485 320.694 279.733 317.582 274.818 307.582C271.621 301.078 267.396 294.29 265.419 292.498C261.892 289.301 261.938 289.044 268.163 279.577C274.924 269.295 275.03 266.166 268.863 257.419L265.361 252.45L282.348 226.726L299.335 201.002C310.515 215.707 320.916 231.012 331.091 246.428C334.331 251.554 334.309 251.892 330.624 257.946C325.538 266.301 325.835 269.655 332.434 280.396L338.038 289.458L334.127 293.375C327.469 300.043 321.28 315.764 321.284 325.939C321.287 333.038 322.752 338 327.472 346.519C332.836 356.201 335.329 358.58 345.393 363.824C358.136 370.464 370.846 371.812 380.418 367.566C389.147 363.694 431.997 334.335 438.326 327.869C458.283 307.483 453.399 273.225 428.461 258.589C421.169 254.309 417.363 253.385 407.271 253.385C399.287 253.385 392.8 254.512 388.766 256.601C385.347 258.372 382.351 259.506 382.111 259.173C381.871 258.84 378.798 254.473 375.281 249.468L368.86 240.406L359.053 241.4C348.75 242.464 345.921 241.12 341.54 232.923C340.398 230.786 334.508 222.029 328.464 213.513C322.421 204.997 317.49 197.553 317.49 196.967C317.49 196.382 338.505 195.915 364.19 195.915H410.89V187.496V179.077H364.19C338.505 179.077 317.484 178.446 317.49 177.674C317.495 176.903 318.966 174.051 320.759 171.36C322.551 168.669 326.478 162.776 329.457 158.264C332.436 153.753 335.371 149.658 335.995 149.144C336.619 148.629 341.686 141.3 347.261 132.832L357.418 117.398L363.489 122.075C366.829 124.626 369.938 126.694 370.436 126.694C370.934 126.694 373.137 123.774 375.34 120.204L380.165 113.715L383.454 115.995C385.701 117.249 389.011 119.46 390.809 120.906L394.078 123.537L389.408 129.675C386.839 133.048 384.738 136.159 384.738 136.574C384.738 136.989 390.62 141.37 397.814 146.338C405.008 151.305 410.611 155.806 410.942 155.38C411.273 154.953 413.863 151.236 416.027 148.091L419.997 142.362L413.517 137.217L407.037 132.072L411.182 126.109C413.442 122.828 416.052 119.073 416.325 118.704L430.095 129.103L439.344 116.54L431.205 109.914L425.192 104.886L430.387 98.0462L435.583 91.1474L441.128 95.8245C444.173 98.3901 447.345 100.502 448.192 100.502C449.039 100.502 451.487 97.5176 453.621 93.8952L457 88.4124L444.281 78.8115L431.237 69.5353L426.009 76.2975L420.989 82.8519L407.906 73.3287L412.466 66.8263C414.682 63.8241 416.494 60.9844 416.494 60.5122C416.494 60.0399 413.533 57.7929 409.898 55.5427L403.833 51.7165L413.108 38.5881L400.084 29.195C397.993 31.3917 392.291 39.799 384.388 51.041C376.484 62.2829 364.436 79.5013 357.652 89.2765C350.868 99.0517 338.677 116.731 330.507 128.564C322.338 140.398 314.778 151.342 313.754 152.886C312.73 154.429 309.129 159.643 305.756 164.461L299.627 173.231L295.015 166.391C292.474 162.651 282.235 147.814 272.249 133.358C262.263 118.903 253.437 106.216 252.635 105.179C251.833 104.141 246.132 95.7225 239.968 86.4703C233.803 77.218 228.281 69.2116 227.709 68.6972C227.137 68.1827 221.855 60.6057 215.975 51.8595C210.095 43.1132 204.115 34.3635 202.666 32.4494L200.039 29ZM406.045 269.814C408.853 269.788 411.54 270.314 414.568 271.217C432.132 276.456 440.187 299.699 429.337 313.896C425.111 319.425 389.825 344.831 377.85 350.962C371.664 354.129 358.365 353.508 351.231 349.676C343.183 345.353 338.038 335.836 338.038 325.296C338.038 311.499 343.232 305.155 368.51 288.172C388.479 274.754 397.622 269.891 406.045 269.814ZM193.267 270.048C203.215 269.882 221.51 278.997 237.166 291.913C238.707 293.185 243.055 296.114 246.856 298.461C256.911 304.67 261.975 313.912 261.975 326.056C261.975 343.048 251.693 353.054 234.247 353.067C225.527 353.073 223.017 351.855 201.09 337.281C172.174 318.063 167.708 313.196 166.59 299.689C165.176 282.612 176.208 270.332 193.267 270.048Z" fill="black"/>
</g>
<defs>
<clipPath id="clip0_1_11332">
<rect width="600" height="400" fill="white"/>
</clipPath>
</defs>
</svg>
