<svg width="600" height="400" viewBox="0 0 600 400" fill="none" xmlns="http://www.w3.org/2000/svg" xmlns:cgf="https://coding.garden/flags"><metadata id="cgf-metadata">

<cgf:flag>
  <cgf:name>Wassenaar</cgf:name>
  <cgf:route>nl/zh/wassenaar</cgf:route>
  <cgf:aspect-ratio>1.5</cgf:aspect-ratio>
</cgf:flag>

</metadata><path d="M1 0H0V1H1V0Z" fill="#0099FF"/>
<path d="M181 87.2862C174.227 121.888 143.752 148 107.167 148C70.581 148 40.106 121.887 33.333 87.2852C30.261 95.6952 28.583 104.777 28.583 114.25C28.583 157.651 63.766 192.833 107.167 192.833C150.567 192.833 185.75 157.65 185.75 114.25C185.75 104.777 184.072 95.6962 181 87.2862ZM107.667 165.167C73.864 165.167 45.593 141.564 38.382 109.946C49.106 137.759 76.073 157.5 107.667 157.5C139.261 157.5 166.228 137.759 176.952 109.946C169.741 141.564 141.47 165.167 107.667 165.167Z" fill="white"/>
<path d="M551.499 87.2862C544.726 121.888 514.251 148 477.666 148C441.08 148 410.605 121.887 403.832 87.2852C400.76 95.6952 399.082 104.777 399.082 114.25C399.082 157.651 434.265 192.833 477.666 192.833C521.066 192.833 556.249 157.65 556.249 114.25C556.249 104.777 554.571 95.6962 551.499 87.2862ZM478.166 165.167C444.362 165.167 416.092 141.564 408.882 109.946C419.606 137.759 446.572 157.5 478.166 157.5C509.76 157.5 536.727 137.759 547.45 109.946C540.24 141.564 511.97 165.167 478.166 165.167Z" fill="white"/>
<path d="M375 229.286C368.227 263.888 337.752 290 301.167 290C264.581 290 234.106 263.887 227.333 229.285C224.261 237.695 222.583 246.776 222.583 256.25C222.583 299.65 257.766 334.834 301.167 334.834C344.567 334.834 379.75 299.65 379.75 256.25C379.75 246.777 378.072 237.696 375 229.286ZM301.667 307.167C267.863 307.167 239.593 283.564 232.383 251.946C243.107 279.759 270.073 299.5 301.667 299.5C333.261 299.5 360.228 279.759 370.951 251.946C363.741 283.564 335.471 307.167 301.667 307.167Z" fill="white"/>
</svg>
