<svg width="600" height="400" viewBox="0 0 600 400" fill="none" xmlns="http://www.w3.org/2000/svg" xmlns:cgf="https://coding.garden/flags"><metadata id="cgf-metadata">

<cgf:flag>
  <cgf:name>Westland</cgf:name>
  <cgf:route>nl/zh/westland</cgf:route>
  <cgf:aspect-ratio>1.5</cgf:aspect-ratio>
</cgf:flag>

</metadata><g clip-path="url(#clip0_1_11340)">
<path d="M1.31727 0.0268555L0.03125 399.971L599.97 398.397V1.07649L1.31727 0.0268555Z" fill="white" stroke="black" stroke-width="0.0107223"/>
<path d="M260.195 201.373C264.857 196.243 272.119 192.787 281.005 190.377C281.742 187.274 285.465 183.721 293.713 179.485C292.876 178.432 290.353 177.147 287.92 175.874L289.041 174.671C293.227 175.675 295.242 176.941 297.638 178.161C294.783 174.358 292.792 170.057 286.009 168.523C278.731 167.654 275.065 161.436 271.208 155.502C268.626 157.444 267.67 161.579 270.15 163.927C274.387 168.839 271.54 172.579 267.86 176.182C267.519 173.223 268.876 170.167 264.864 167.416C260.494 164.436 261.7 162.263 261.781 159.927C258.36 163.451 256.298 167.162 259.402 171.586C263.089 174.638 261.881 181.378 257.376 182.48C259.069 178.146 259.318 174.315 255.173 172.012C251.109 169.179 251.125 167.134 250.415 164.948C251.008 168.605 252.127 171.793 249.799 178.054C248.143 181.018 249.108 184.023 251.561 185.884C245.512 185.037 244.177 179.894 243.455 176.608C241.656 181.262 237.674 178.519 237.024 176.863C237.299 191.989 216.577 184.082 220.901 176.267C218.571 184.527 216.457 181.287 214.206 181.969C207.515 192.386 199.388 178.034 200.638 171.331C194.576 175.185 196.149 164.287 194.471 159.672C192.792 156.028 195.898 156.734 197.995 156.523C197.616 155.157 195.414 154.042 197.995 152.268L203.898 143.928C204.896 142.896 205.911 141.703 206.453 144.864C215.393 145.935 213.441 149.952 210.858 154.14L211.298 158.736L220.108 158.395C225.525 150.041 232.551 144.515 240.548 140.693C237.146 141.587 234.473 142.552 233.412 143.672C234.668 136.823 239.296 132.499 243.367 127.757C230.046 138.921 217.22 132.383 214.47 123.417C225.505 129.587 234.596 119.392 244.072 112.439C237.657 116.892 231.976 123.589 221.518 115.673C223.326 115.296 224.314 115.637 227.597 113.971C218.33 116.772 213.361 112.482 210.505 107.247C219.022 109.934 225.723 109.95 229.976 105.29C229.593 103.105 231.084 100.921 232.531 98.7368C229.124 99.1056 226.163 100.334 224.161 103.418C223.776 101.189 225.164 98.7159 226.364 96.2688C228.07 93.7516 227.796 91.5079 227.949 89.2051C226.431 91.8353 225.24 94.6412 221.694 96.1837C218.094 96.6928 217.87 99.2084 217.201 101.46C213.801 95.4193 214.963 90.5084 220.725 86.737C223.834 84.7452 225.018 81.5174 226.099 76.95C224.259 79.0234 223.597 81.4224 218.699 82.652C212.907 83.2364 213.524 84.8476 212.796 85.2902C213.737 81.6665 216.302 80.0284 218.082 78.3968C221.248 75.0934 221.309 73.3547 221.254 71.8437C213.425 86.8504 199.473 70.193 203.319 64.5447C190.446 73.191 186.43 51.6138 193.29 47.394C190.925 44.19 190.139 41.0446 193.85 38.0664L200.374 33.6317C201.971 32.2875 203.949 32.4118 206.012 32.8658C205.957 31.2217 206.528 29.7789 209.272 29.0361L219.139 25.3766C221.521 30.9994 227.429 38.8121 220.637 38.738C217.239 39.1358 216.266 44.7417 220.549 47.2485C231.605 53.4221 243.12 58.8663 250.327 71.1629C253.506 70.9898 258.041 72.1862 266.362 77.2053C266.736 74.3262 270.355 73.6141 272.177 76.5244C277.207 83.0571 283.468 80.3345 286.714 77.2904C285.139 75.6809 284.175 73.612 279.753 74.1415C278.753 74.1304 276.7 73.3934 277.991 72.099C280.367 70.484 284.786 69.503 287.33 69.7161L288.035 65.7161L290.414 68.6097L292.352 68.5245L293.674 64.5246L295.876 68.5245C303.931 73.6456 310.438 70.5023 303.101 58.0566C298.729 48.6938 288.021 47.4081 283.982 55.6737C281.334 50.4865 277.948 45.1094 277.639 40.525C276.494 39.426 275.955 37.6723 277.287 36.2698C283.636 33.1523 290.139 29.8467 293.585 30.3125C295.587 18.6475 310.846 23.1301 323.012 23.8445C331.071 14.7579 338.579 19.806 336.755 27.0785C339.138 30.6238 341.527 34.1382 343.451 39.674C345.968 45.7194 347.248 52.1628 352.35 57.3758C347.49 57.7125 344.348 53.7324 340.544 51.4184C351.434 58.9429 346.012 71.6896 345.478 75.5881C343.91 83.9568 342.973 92.3254 345.125 100.694C339.896 96.9278 338.558 91.6442 337.989 87.9283C340.592 98.0548 337.15 105.876 330.853 112.609C324.43 120.303 323.046 130.512 331.734 133.034C330.488 137.529 323.907 138.672 320.721 136.012C327.346 155.374 332.273 175.767 350.059 188.352C363.462 196.149 368.095 182.056 365.653 177.203C362.103 169.478 356.909 160.898 361.6 157.459C362.235 161.344 364.922 165.858 369.089 169.373C374.886 173.84 375.323 177.402 375.344 179.246C386.009 163.249 379.566 145.75 368.472 127.842C354.124 105.12 348.769 81.0161 369.529 53.2907C366.86 46.6249 366.255 40.4192 376.401 36.6102C385.11 33.4483 381.753 27.8905 379.925 25.3764C387.656 24.0804 392.173 31.8668 387.502 38.9931C397.149 32.0751 413.211 42.4869 411.642 53.893C409.321 48.4373 402.744 45.5936 399.307 47.1531C406.546 48.4789 411.754 54.7579 411.518 60.7533C409.064 57.2918 407.376 56.0513 405.911 55.4576C408.378 59.0023 411.625 62.3796 411.269 66.5304C410.84 72.2495 413.317 76.0965 418.869 77.9642C410.918 79.9365 407.085 73.5172 405.786 67.0118C405.248 60.808 395.509 55.4551 387.845 58.8276C402.374 61.0201 403.111 78.1591 391.458 80.3714C395.77 75.8105 393.807 69.1225 387.969 68.6968C375.81 66.2037 373.197 62.4298 372.893 58.3462C362.481 74.3585 359.07 91.9705 368.283 110.22C366.363 106.859 367.175 103.31 369.903 99.6283C372.491 95.2955 372.796 90.9627 371.398 86.6299C375.905 89.939 377.998 95.175 374.887 104.563C372.674 109.995 373.658 116.585 376.756 123.94C377.152 121.354 376.825 119.588 380.867 112.868C383.017 108.489 383.784 103.325 383.11 97.3416C387.491 102.277 390.269 107.913 387.72 115.876C382.982 128.315 381.782 138.476 388.468 143.558C388.646 140.074 389.201 136.563 392.33 132.606C395.093 128.441 396.651 121.996 395.071 116.719C401.526 126.154 403.931 135.446 396.816 144.401C393.608 148.739 392.744 152.411 392.33 155.955C391.736 177.773 383.95 192.466 370.401 201.45" fill="#DA121A"/>
<path d="M370.306 202.085C369.997 201.725 370.279 201.299 371.263 200.634C375.172 197.995 379.179 194.056 382.116 189.967C387.94 181.857 391.336 170.972 391.877 158.679C391.975 156.444 392.347 153.745 392.771 152.184C393.51 149.465 394.49 147.506 396.734 144.256C399.734 139.91 400.592 137.658 400.73 133.762C400.837 130.715 400.341 128.137 399.029 124.939C398.441 123.506 396.77 120.223 396.489 119.946C396.416 119.874 396.398 120.283 396.446 120.945C396.724 124.801 395.182 130.051 392.717 133.635C390.481 136.887 389.763 138.801 389.393 142.49C389.28 143.619 389.188 144.622 389.188 144.72C389.188 145.048 388.977 144.906 387.716 143.727C384.887 141.084 383.744 138.333 383.583 133.781C383.428 129.41 384.322 124.88 386.644 118.27C387.88 114.753 388.217 113.299 388.312 111.081C388.472 107.355 387.562 104.434 385.146 100.921L384.157 99.4827L384.073 102.386C383.926 107.418 383.02 111 381.02 114.45C379.958 116.284 378.776 118.761 378.371 120.001C378.169 120.624 377.897 121.852 377.768 122.731L377.534 124.328L376.987 124.367C376.353 124.412 376.464 124.618 375.277 121.199C373.792 116.924 373.227 113.338 373.484 109.816C373.616 108.002 373.814 107.084 374.57 104.779C376.412 99.166 376.51 94.9391 374.873 91.5916C374.384 90.59 372.838 88.4851 372.694 88.6241C372.66 88.6574 372.704 89.0657 372.794 89.5309C373.029 90.7572 372.998 93.3704 372.732 94.7282C372.299 96.9357 371.612 98.6163 370.293 100.695C369.356 102.172 368.589 103.755 368.318 104.775C367.914 106.29 368.068 108.221 368.705 109.645C368.826 109.917 368.927 110.194 368.927 110.261C368.927 110.414 368.119 110.744 368.008 110.637C367.841 110.475 366.677 107.902 366.011 106.221C362.043 96.2029 361.606 85.8094 364.708 75.2654C365.739 71.7594 367.182 68.274 369.199 64.4143C370.375 62.1651 373.314 57.2246 373.417 57.3242C373.439 57.3455 373.585 58.1027 373.743 59.0075C374.096 61.0427 374.56 62.0382 375.707 63.2225C377.973 65.5623 382.332 67.3668 388.703 68.6018C391.156 69.0774 392.713 70.1013 393.698 71.888C394.854 73.9826 394.815 76.7998 393.6 78.9654C393.372 79.3719 393.208 79.7255 393.234 79.7512C393.261 79.7765 393.742 79.572 394.302 79.2957C395.818 78.5487 397.381 77.0104 398.126 75.5316C398.955 73.8878 399.167 72.9668 399.153 71.0713C399.143 69.7578 399.077 69.2655 398.781 68.3036C397.942 65.58 396.388 63.5096 394.012 61.952C392.29 60.8234 390.552 60.1924 387.768 59.686C386.874 59.5233 386.16 59.3728 386.183 59.3518C386.385 59.1633 389.786 58.0541 390.697 57.8792C392.363 57.5595 395.266 57.6779 396.977 58.1354C400.162 58.987 403.34 61.0257 404.903 63.22C405.568 64.1529 406.262 65.6687 406.425 66.5446C407.538 72.5078 410.031 76.3914 413.566 77.6689C414.381 77.9635 416.389 78.2562 416.729 78.13C416.872 78.0767 416.656 77.8944 416.054 77.5575C414.706 76.8038 412.938 75.0281 412.244 73.7305C411.257 71.8851 411.086 71.0794 410.974 67.7428C410.883 65.0137 410.85 64.7409 410.492 63.7485C409.99 62.3589 409.121 60.8952 407.251 58.2945C405.868 56.3697 405.745 56.1515 405.912 55.9088C406.29 55.3591 406.469 55.3581 407.397 55.8994C408.261 56.4042 409.793 57.7715 410.671 58.8223L411.116 59.3549L411.029 58.8889C410.838 57.8636 410.023 55.8315 409.376 54.7665C408.904 53.9911 408.24 53.1964 407.244 52.2173C404.95 49.9625 402.88 48.8522 399.553 48.0914C398.546 47.861 397.747 47.6474 397.778 47.6169C397.81 47.5863 398.448 47.3548 399.197 47.1021C401.529 46.3151 403.461 46.485 406.072 47.7065C407.729 48.4818 409.372 49.7246 410.405 50.9849C410.817 51.4877 411.213 51.9589 411.283 52.0321C411.502 52.2588 411.249 50.5575 410.88 49.3298C409.26 43.9297 403.72 39.1964 397.595 37.9807C394.415 37.3495 390.858 37.9381 388.615 39.4671C388.146 39.7869 387.967 39.781 387.585 39.4338L387.273 39.1512L387.805 38.1357C388.568 36.6765 388.922 35.4538 389.005 33.9914C389.243 29.8084 386.735 26.7414 382.671 26.2456C381.939 26.1564 381.303 26.1192 381.256 26.1644C381.211 26.2084 381.421 26.6851 381.724 27.2226C383.264 29.9559 383.219 32.5582 381.596 34.5378C380.7 35.6298 379.173 36.5523 376.367 37.6966C371.912 39.5131 369.522 41.804 368.841 44.9093C368.432 46.7767 368.823 49.5742 369.881 52.341C370.114 52.9501 370.305 53.5362 370.305 53.6434C370.305 53.7512 369.66 54.75 368.872 55.8644C363.503 63.4621 360.054 70.6367 358.172 78.128C357.06 82.558 356.657 85.8645 356.656 90.5768C356.654 95.4103 357.158 99.3244 358.401 104.157C360.292 111.509 363.332 118.233 368.993 127.59C372.084 132.699 372.894 134.137 374.779 137.872C381.208 150.604 383.003 160.861 380.446 170.25C379.578 173.435 378.208 176.439 376.109 179.756L375.156 181.262L375.065 179.956C374.945 178.225 374.767 177.367 374.306 176.298C373.496 174.415 371.97 172.606 369.293 170.357C365.799 167.422 362.933 163.438 361.874 160.045C361.697 159.478 361.513 159.013 361.465 159.013C361.274 159.01 360.916 159.717 360.706 160.509C360.306 162.014 360.677 164.236 361.828 167.245C362.553 169.138 362.961 170.056 364.841 174.018C367.009 178.588 366.889 178.228 366.958 180.381C367.012 182.057 366.981 182.377 366.667 183.556C365.199 189.046 361.174 192.06 356.228 191.373C352.34 190.833 348.875 188.769 344.037 184.111C337.382 177.704 332.333 169.508 327.758 157.68C326.508 154.449 325.338 151.107 322.752 143.372L320.527 136.72L319.118 135.311C316.053 132.246 314.673 129.406 314.525 125.859C314.461 124.286 314.676 122.612 315.101 121.399C315.25 120.973 312.886 123.409 311.805 124.794C310.39 126.609 309.618 127.819 308.614 129.795C307.125 132.727 306.489 134.944 306.489 137.201C306.489 139.111 306.837 140.055 307.93 141.111C308.93 142.079 309.856 142.459 311.76 142.685L313.036 142.836L313.078 143.315C313.118 143.774 313.09 143.807 312.446 144.074C310.278 144.975 307.361 145.388 305.626 145.039C304.318 144.776 303.039 144.072 302.091 143.093C301.031 141.998 300.026 140.049 299.589 138.241C299.133 136.352 299.135 136.356 298.842 136.911C298.547 137.467 297.98 138.192 297.098 139.14C295.794 140.542 295.371 141.978 295.507 144.545C295.554 145.435 295.632 146.358 295.683 146.596C295.767 146.999 295.739 147.042 295.258 147.236C294.975 147.351 294.726 147.425 294.704 147.403C294.408 147.092 292.731 144.308 292.063 143.02C290.085 139.201 289.238 135.419 289.542 131.761C289.805 128.595 290.549 126.193 292.622 121.817L292.992 121.037L292.66 121.285C292.477 121.421 291.56 122.107 290.622 122.809C286.292 126.05 282.273 128.23 277.889 129.716C274.855 130.745 272.322 132.078 270.474 133.619C267.708 135.924 266.376 139.427 266.788 143.307C266.867 144.051 266.932 144.681 266.932 144.707C266.932 144.761 265.927 145.038 265.885 144.995C265.734 144.839 264.796 141.745 264.528 140.519C263.412 135.41 263.97 130.854 266.257 126.418L267.032 124.914L266.603 125.005C266.367 125.055 265.19 125.418 263.988 125.812C255.682 128.537 249.108 132.785 242.938 139.416C240.941 141.561 240.873 141.618 239.479 142.333C232.286 146.017 226.059 151.439 221.739 157.782C220.752 159.231 220.706 159.277 220.223 159.276C219.949 159.274 217.818 159.345 215.488 159.432C213.158 159.52 211.217 159.558 211.175 159.518C211.134 159.478 210.991 158.303 210.858 156.909L210.618 154.373L211.416 152.931C212.771 150.483 213.046 149.187 212.445 148.081C211.889 147.058 209.944 146.183 207.437 145.829L206.319 145.671L206.094 144.79C205.97 144.306 205.817 143.859 205.753 143.797C205.497 143.55 204.697 144.526 201.882 148.517C200.264 150.81 198.66 152.969 198.318 153.313C197.866 153.767 197.695 154.048 197.695 154.332C197.695 154.866 198.527 156.111 198.826 156.025C199.031 155.965 201.236 155.683 201.498 155.683C201.56 155.683 201.543 155.562 201.461 155.414C201.331 155.18 201.441 155.014 202.326 154.116C203.815 152.604 204.698 151.053 205.814 147.988C206.136 147.105 206.281 146.868 206.539 146.806C206.739 146.757 206.942 146.807 207.077 146.938C207.274 147.128 207.253 147.259 206.838 148.386C205.668 151.564 204.607 153.429 203.189 154.799L202.324 155.634L203.485 155.846C204.123 155.962 204.974 156.213 205.376 156.403C206.904 157.125 208.036 158.691 208.415 160.609C208.709 162.101 209.186 163.268 209.63 163.586C210.095 163.92 211.311 164.017 212.695 163.833C213.79 163.686 214.142 163.791 214.142 164.263C214.142 164.692 213.606 164.855 211.864 164.958C209.854 165.077 208.734 164.656 208.167 163.568C207.916 163.086 207.441 161.488 207.329 160.749C207.279 160.424 207.056 159.787 206.832 159.335C205.848 157.343 203.877 156.541 200.721 156.849C199.724 156.946 199.18 157.059 199.073 157.19C198.953 157.336 198.491 157.401 197.254 157.446C195.531 157.509 195.061 157.635 194.918 158.071C194.871 158.214 195.02 158.918 195.246 159.636C195.743 161.202 195.861 161.834 196.226 164.87C196.79 169.56 197.117 170.805 197.975 171.533C198.415 171.906 198.536 171.944 199.036 171.87C199.347 171.823 199.756 171.668 199.946 171.524C200.452 171.139 201.079 170.83 202.76 170.136C205.002 169.212 206.41 168.852 207.792 168.851C208.806 168.851 209.061 168.902 209.798 169.253C210.785 169.722 211.246 170.231 212.069 171.764C212.766 173.061 213.462 173.702 214.414 173.923C215.232 174.112 216.301 173.945 217.448 173.448C218.315 173.072 218.648 173.065 218.877 173.417C219.108 173.771 218.661 174.13 217.397 174.608C216.476 174.956 216.084 175.031 215.176 175.033C213.269 175.037 212.108 174.252 211.082 172.265C210.132 170.424 209.431 169.93 207.766 169.93C206.546 169.93 205.19 170.29 203.012 171.191L201.462 171.832L201.45 172.445C201.426 173.83 201.49 174.708 201.687 175.655C202.536 179.729 205.082 183.727 207.63 184.985C208.551 185.44 210.07 185.442 211.019 184.99C211.836 184.602 212.954 183.567 213.648 182.557C214.268 181.653 214.436 181.598 216.212 181.72C217.297 181.794 217.618 181.772 217.97 181.596C218.722 181.22 219.568 179.877 219.995 178.379C220.119 177.943 220.319 177.325 220.438 177.007C220.642 176.459 220.677 176.432 221.081 176.51C221.315 176.555 221.557 176.64 221.618 176.699C221.679 176.758 221.596 177.22 221.435 177.726C221.228 178.372 221.164 178.834 221.218 179.275C221.417 180.903 223.076 182.856 225.135 183.887C230.382 186.515 235.094 185.104 236.398 180.515C236.713 179.408 236.841 176.262 236.605 175.427C236.361 174.561 235.852 173.455 235.35 172.699C234.822 171.905 234.853 171.461 235.437 171.461C235.807 171.461 235.92 171.573 236.509 172.522C237.246 173.71 237.651 174.839 237.871 176.32C238.037 177.434 238.388 177.928 239.434 178.519C241.142 179.485 242.338 178.819 243.443 176.29C243.659 175.797 243.877 175.437 243.928 175.491C243.979 175.544 244.16 176.188 244.328 176.92C245.06 180.097 245.919 181.953 247.319 183.387C247.821 183.901 248.521 184.445 248.995 184.689C249.443 184.92 249.842 185.108 249.881 185.108C249.92 185.108 249.74 184.704 249.48 184.21C248.687 182.699 248.532 180.813 249.085 179.382C249.77 177.606 250.274 176.044 250.555 174.825C251.006 172.868 250.999 170.058 250.537 167.371C250.352 166.293 250.228 165.384 250.261 165.353C250.294 165.321 250.53 165.274 250.785 165.249L251.247 165.204L251.622 166.422C251.829 167.091 252.179 167.99 252.4 168.419C252.878 169.347 254.748 171.217 255.973 171.991C258.45 173.558 259.476 175.487 259.302 178.251C259.256 178.984 259.092 180.057 258.938 180.636C258.785 181.215 258.686 181.715 258.72 181.748C258.753 181.78 259.084 181.532 259.455 181.197C260.645 180.122 261.283 178.58 261.276 176.792C261.27 175.082 260.8 173.882 259.608 172.533C258.306 171.058 257.697 169.473 257.697 167.558C257.697 165.08 258.597 163.314 261.529 160.04C262.171 159.324 262.712 158.754 262.732 158.775C262.751 158.797 262.68 159.682 262.571 160.743C262.351 162.906 262.401 163.573 262.854 164.538C263.28 165.446 263.715 165.912 265.282 167.138C266.849 168.363 267.505 169.065 267.952 169.992C268.456 171.037 268.635 172.001 268.626 173.625C268.622 174.449 268.658 175.119 268.706 175.115C268.868 175.1 270.206 173.464 270.78 172.577C272.551 169.844 272.352 167.433 270.136 164.778C269.074 163.506 268.584 162.452 268.493 161.249C268.348 159.32 269.081 157.497 270.632 155.926L271.564 154.982L273.004 156.303C273.796 157.03 274.723 157.809 275.065 158.035C275.719 158.467 277.138 159.184 277.631 159.331C277.913 159.417 277.918 159.397 277.788 158.716C277.59 157.685 277.749 155.254 278.085 154.158C278.414 153.088 279.125 151.609 279.706 150.79C279.927 150.477 280.76 149.579 281.558 148.792C283.337 147.039 283.766 146.288 283.857 144.774C283.93 143.564 283.682 142.58 283.002 141.371C281.806 139.247 281.655 138.046 282.386 136.471C282.944 135.27 283.247 134.929 283.577 135.129C283.965 135.364 283.931 135.9 283.473 136.778C283.008 137.668 282.911 138.526 283.195 139.241C283.282 139.461 283.657 140.24 284.028 140.972C284.807 142.511 284.981 143.14 284.985 144.443C284.992 146.371 284.347 147.586 282.18 149.718C280.549 151.325 279.833 152.417 279.234 154.219C278.904 155.214 278.858 155.561 278.859 157.082C278.859 158.483 278.919 159.013 279.172 159.862C279.344 160.44 279.461 160.935 279.432 160.963C279.403 160.991 278.817 160.838 278.131 160.621C276.902 160.233 275.444 159.574 274.53 158.994C274.082 158.71 274.07 158.709 274.213 158.968C274.296 159.117 274.857 159.906 275.462 160.722C279.007 165.506 281.768 167.485 285.966 168.254C288.137 168.651 290.257 169.517 291.87 170.666C293.682 171.956 294.887 173.289 297.303 176.677L298.364 178.164L298.022 178.541L297.68 178.918L296.055 178.098C293.099 176.607 289.879 175.466 289.419 175.747C289.295 175.822 289.193 175.936 289.193 175.999C289.193 176.061 289.829 176.456 290.607 176.874C294.501 178.97 297.015 181.342 298.628 184.443C299.281 185.699 299.537 186.465 299.802 187.956C300.064 189.427 300.068 190.141 299.817 190.72C299.23 192.078 299.31 194.418 299.992 195.826C301.456 198.849 304.641 199.506 308.769 197.637C310.116 197.027 310.066 197.161 309.729 195.094C308.865 189.806 306.341 184.423 301.377 177.286C300.524 176.06 298.856 173.709 297.669 172.061C296.483 170.413 294.995 168.319 294.364 167.407C293.06 165.524 292.229 164.658 291.32 164.233C290.559 163.878 289.928 163.864 289.192 164.188C288.537 164.475 287.394 165.643 286.917 166.512C286.73 166.852 286.494 167.162 286.393 167.199C286.132 167.297 285.678 167.032 285.678 166.783C285.678 166.378 286.554 164.991 287.255 164.286C288.264 163.272 288.962 162.95 290.157 162.946C292.022 162.939 293.218 163.853 295.35 166.914C296.124 168.024 297.665 170.191 298.775 171.729C307.123 183.293 309.709 188.304 310.835 195.095C311.068 196.495 311.164 200.23 310.982 200.783C310.863 201.146 310.402 201.251 310.122 200.98C309.935 200.799 309.912 200.564 309.983 199.527C310.029 198.847 310.035 198.29 309.996 198.29C309.957 198.29 309.679 198.412 309.378 198.56C307.206 199.63 304.68 200.013 302.84 199.55C299.297 198.659 297.382 194.452 298.725 190.511C298.916 189.951 298.926 189.68 298.793 188.646C298.453 185.971 297.239 183.662 294.867 181.182L294.104 180.383L292.957 180.971C292.327 181.294 291.16 181.951 290.364 182.431C285.546 185.335 282.863 187.865 282.03 190.286C281.905 190.65 281.729 191.004 281.638 191.073C281.547 191.142 280.791 191.394 279.957 191.631C275.651 192.857 271.305 194.612 268.242 196.362C265.649 197.843 262.339 200.344 261.309 201.598C260.817 202.198 260.286 202.335 260.064 201.919C259.885 201.582 259.995 201.365 260.712 200.64C264.762 196.539 271.324 193.038 279.37 190.683C280.779 190.27 280.857 190.228 281.001 189.806C281.947 187.038 286.017 183.479 291.776 180.382C292.439 180.025 292.982 179.692 292.982 179.642C292.982 179.518 291.109 178.354 289.674 177.586C289.03 177.241 288.238 176.813 287.914 176.634L287.326 176.308L288.19 175.376C289.021 174.481 289.074 174.448 289.565 174.519C290.403 174.64 292.825 175.45 294.473 176.161C295.321 176.526 296.014 176.801 296.014 176.771C296.014 176.659 294.56 174.758 293.908 174.019C291.512 171.302 289.202 169.98 285.597 169.263C282.71 168.689 280.962 167.851 278.661 165.939C276.926 164.496 274.662 161.702 272.376 158.181C271.865 157.394 271.4 156.75 271.342 156.75C271.18 156.75 270.591 157.546 270.21 158.281C269.709 159.246 269.501 160.243 269.596 161.223C269.694 162.236 269.989 162.825 271.115 164.254C273.923 167.816 273.73 171.011 270.48 174.791C269.545 175.879 267.749 177.688 267.675 177.617C267.642 177.585 267.586 176.3 267.551 174.76C267.458 170.684 267.147 169.941 264.763 168.101C263.245 166.93 262.367 166.025 261.921 165.174C261.53 164.429 261.218 162.953 261.316 162.31L261.381 161.887L260.975 162.347C260.287 163.13 259.358 164.761 259.055 165.718C258.818 166.465 258.777 166.863 258.831 167.915C258.887 169.027 258.96 169.333 259.377 170.198C259.642 170.747 260.168 171.546 260.547 171.973C261.808 173.394 262.385 174.905 262.385 176.788C262.385 179.246 261.227 181.503 259.393 182.622C258.772 183 256.872 183.688 256.872 183.534C256.872 183.477 257.06 182.893 257.29 182.239C257.985 180.259 258.174 179.3 258.177 177.72C258.18 176.349 258.154 176.2 257.75 175.39C257.253 174.392 256.529 173.628 255.395 172.905C254.956 172.625 254.023 171.856 253.322 171.197L252.047 169.998L252.046 171.263C252.045 173.565 251.453 176.386 250.44 178.918C249.836 180.427 249.716 181.557 250.041 182.653C250.4 183.86 250.874 184.531 252.31 185.863L253.624 187.083L252.043 186.77C250.299 186.425 249.677 186.235 248.652 185.734C246.529 184.694 244.832 182.501 243.913 179.606L243.592 178.596L243.072 179.049C242.258 179.76 241.738 179.972 240.814 179.972C239.971 179.972 239.244 179.725 238.303 179.118L237.861 178.832L237.8 179.141C237.174 182.34 236.248 183.948 234.347 185.135C231.757 186.752 228.226 186.64 224.591 184.825C223.176 184.119 221.286 182.371 220.757 181.282C220.571 180.897 220.381 180.583 220.335 180.583C220.29 180.583 220.183 180.729 220.098 180.908C219.846 181.443 218.956 182.314 218.362 182.606C217.863 182.852 217.656 182.871 216.346 182.791L214.886 182.702L214.353 183.449C213.654 184.43 212.351 185.557 211.395 186.008C210.736 186.318 210.454 186.37 209.388 186.372C208.283 186.374 208.049 186.329 207.243 185.96C206.241 185.501 204.819 184.297 203.865 183.1C202.613 181.528 201.416 179.006 200.773 176.581C200.494 175.53 200.197 173.014 200.327 172.806C200.371 172.736 200.206 172.726 199.934 172.784C198.771 173.026 198.465 173.021 197.84 172.754C196.339 172.113 195.796 170.566 195.125 165.006C194.76 161.983 194.637 161.33 194.149 159.845C193.685 158.431 193.659 158.097 193.964 157.476C194.262 156.869 195.079 156.507 196.392 156.4L197.44 156.315L197.057 155.701C196.846 155.363 196.633 154.92 196.583 154.716C196.433 154.096 196.743 153.311 197.377 152.71C197.697 152.406 199.25 150.33 200.827 148.097C203.732 143.983 204.385 143.176 205.098 142.815C205.961 142.378 206.76 142.924 207.104 144.188C207.248 144.715 207.281 144.742 207.907 144.827C210.546 145.186 212.788 146.303 213.474 147.602C214.173 148.926 213.938 150.451 212.65 152.938L211.759 154.661L211.937 156.589L212.115 158.517L214.197 158.431C215.343 158.383 217.149 158.307 218.212 158.262L220.144 158.181L221.122 156.767C223.916 152.73 227.679 148.923 232.393 145.366C232.909 144.976 232.94 144.907 233.376 143.103C233.855 141.12 234.331 139.843 235.246 138.084C235.967 136.698 237.548 134.383 238.783 132.905C239.309 132.274 239.778 131.698 239.825 131.626C239.872 131.552 239.134 131.868 238.187 132.327C233.481 134.603 228.811 135.098 224.479 133.778C220.677 132.619 217.026 129.679 215.312 126.396C214.937 125.678 213.867 123.004 213.867 122.786C213.867 122.725 214.509 123.004 215.294 123.405C217.928 124.752 219.615 125.143 222.293 125.028C224.804 124.921 226.871 124.308 229.579 122.867C230.803 122.216 233.485 120.519 234.197 119.945L234.61 119.612L233.852 119.84C233.274 120.014 232.586 120.069 230.958 120.07C229.013 120.072 228.716 120.039 227.649 119.711C225.613 119.085 222.675 117.455 220.575 115.787C220.361 115.617 220.051 115.477 219.886 115.477C219.288 115.474 216.9 114.574 215.912 113.979C214.665 113.227 213.422 112.152 212.483 111.011C211.831 110.22 209.732 107.016 209.732 106.813C209.732 106.767 210.647 106.991 211.765 107.313C213.884 107.923 216.117 108.425 217.842 108.678C219.165 108.873 222.077 108.873 223.379 108.679C225.441 108.372 227.476 107.444 228.958 106.136C229.701 105.48 229.717 105.451 229.717 104.737C229.717 103.81 230.201 102.416 231.015 100.997C231.362 100.392 231.647 99.8717 231.647 99.8408C231.647 99.6966 229.538 100.367 228.618 100.804C227.357 101.403 226.002 102.603 224.935 104.065C224.338 104.883 224.136 105.077 224.045 104.92C223.873 104.623 223.884 102.204 224.061 101.45C224.294 100.452 225.05 98.6532 226.12 96.5518C227.123 94.5799 227.513 93.4477 227.51 92.5167L227.509 91.9788L227.174 92.5449C225.895 94.7052 223.312 96.8621 221.64 97.165C220.369 97.3953 219.285 98.2858 218.823 99.48C218.665 99.8888 218.34 100.91 218.102 101.749L217.668 103.275L216.746 101.45C215.609 99.1998 215.224 97.899 215.138 96.0205C215.055 94.213 215.326 92.9812 216.159 91.3733C216.909 89.9254 218.394 88.3466 220.357 86.9107C222.693 85.2014 223.762 83.7803 224.743 81.0788L225.172 79.8981L224.228 80.8125C222.456 82.5284 221.076 83.1243 217.174 83.8588C215.278 84.2157 214.545 84.598 213.913 85.5595L213.581 86.0635L213.157 85.8257C212.924 85.6953 212.705 85.5187 212.67 85.434C212.564 85.1745 213.429 83.2627 214.084 82.3101C214.436 81.7983 215.485 80.6859 216.512 79.7348C218.363 78.0208 219.491 76.7662 220.059 75.7904C220.342 75.3039 220.244 75.3699 219.225 76.3533C215.526 79.9216 210.85 79.6331 206.611 75.5751C204.089 73.1619 202.528 70.079 202.506 67.4713L202.495 66.2636L201.66 66.6289C200.252 67.245 199.205 67.4472 197.74 67.3856C196.744 67.343 196.225 67.2487 195.571 66.9888C193.235 66.0612 191.263 63.4841 190.384 60.2105C189.119 55.5011 189.878 50.711 192.302 48.1201L192.78 47.6087L192.164 46.4902C191.348 45.0085 191.077 43.9568 191.152 42.5668C191.227 41.1927 191.74 40.1172 192.88 38.9421C193.774 38.0221 200.488 33.379 201.725 32.8253C202.326 32.5565 202.702 32.489 203.655 32.478C204.306 32.4705 205.054 32.4939 205.317 32.5312C205.788 32.5965 205.797 32.5885 205.897 32.0232C205.954 31.7071 206.129 31.2445 206.289 30.9952C206.715 30.3295 207.733 29.5154 208.468 29.2527C208.822 29.1262 211.499 28.1384 214.418 27.0575L219.724 25.0922L219.924 25.5164C220.035 25.7498 220.88 27.4684 221.804 29.3357C222.728 31.2031 223.72 33.33 224.009 34.0623C224.481 35.2605 224.534 35.5223 224.541 36.6792C224.548 37.9192 224.534 37.9827 224.128 38.4673C223.555 39.1512 222.869 39.4642 221.658 39.5955C220.47 39.7247 219.994 39.9305 219.415 40.568C218.838 41.2027 218.625 41.8757 218.631 43.0493C218.634 43.8563 218.711 44.2083 219.028 44.8843C219.652 46.2112 220.463 46.8187 224.837 49.2324C235.176 54.9373 239.266 57.7153 243.852 62.1472C246.473 64.6795 248.861 67.6143 250.547 70.3737L250.91 70.9668L252.132 71.0547C255.305 71.2812 260.084 73.1157 264.972 75.9838C265.676 76.3968 266.281 76.7347 266.316 76.7347C266.352 76.7347 266.379 76.6535 266.379 76.555C266.379 76.2137 267.197 75.2869 267.798 74.9467C269.452 74.0104 271.293 74.556 272.789 76.4252C274.886 79.0476 277.121 80.3295 279.597 80.3295C281.656 80.3295 283.961 79.4388 285.858 77.9104L286.246 77.5971L285.358 76.7001C284.03 75.3594 283.362 75.1047 280.915 75.005C278.729 74.9158 278.129 74.7235 277.573 73.9337C277.217 73.4274 277.257 72.9248 277.7 72.3184C278.048 71.8422 280.458 70.7097 282.023 70.2866C283.573 69.8676 285.489 69.5451 286.43 69.5451H287.148L287.544 67.2817C287.763 66.0368 287.983 65.0183 288.034 65.0183C288.085 65.0183 288.732 65.7523 289.471 66.6493C290.211 67.5462 290.861 68.3299 290.917 68.3907C290.972 68.4519 291.295 68.4612 291.634 68.412L292.251 68.3228L292.987 66.0634C293.392 64.8208 293.767 63.7778 293.821 63.7457C293.875 63.7137 294.525 64.7915 295.266 66.1411L296.614 68.5949L297.958 69.2741C301.102 70.862 303.398 71.1132 304.869 70.0297C305.648 69.4553 305.956 68.65 305.95 67.1964C305.943 65.2125 305.263 63.1969 303.426 59.7106C301.861 56.7381 301.016 55.4905 299.74 54.2692C297.533 52.1574 295.215 51.1761 292.43 51.1757C289.323 51.1753 286.775 52.7936 284.995 55.8979L284.259 57.1805L283.021 54.8753C279.376 48.0893 277.967 44.804 277.527 42.0673C277.426 41.4369 277.263 40.9873 277.031 40.6927C276.54 40.0708 276.317 39.378 276.311 38.457C276.308 37.8048 276.384 37.5281 276.727 36.9496L277.148 36.241L280.826 34.4845C287.201 31.4405 290.301 30.3229 292.967 30.107C293.41 30.071 293.444 30.0311 293.622 29.3369C293.929 28.1396 294.849 26.4886 295.71 25.5874C297.133 24.0976 298.966 23.1872 301.599 22.6618C302.909 22.4003 303.538 22.3592 306.282 22.3546C309.466 22.3494 310.283 22.4052 315.999 23.0202C317.705 23.2037 319.969 23.4293 321.03 23.5219L322.96 23.6899L324.297 22.4617C326.242 20.6761 327.904 19.658 329.721 19.1404C330.815 18.8286 332.651 18.8184 333.66 19.1191C334.738 19.44 335.959 20.3466 336.642 21.3341C337.52 22.6047 337.707 23.3499 337.713 25.6134L337.719 27.548L338.756 29.1416C339.681 30.5628 340.186 31.3906 341.393 33.4647C342.393 35.1831 343.739 38.4269 345.978 44.5154C348.445 51.2249 349.953 54.0442 352.656 56.9998L353.781 58.229L352.911 58.2556C350.428 58.3302 348.773 57.9108 346.805 56.7056C346.426 56.4735 346.034 56.2364 345.935 56.1787C345.836 56.1215 345.998 56.5438 346.298 57.1183C347.737 59.886 348.335 63.3838 347.991 67.0168C347.823 68.7866 347.514 70.5353 346.872 73.341C345.417 79.7059 344.747 85.1286 344.751 90.5163C344.754 94.5537 344.923 96.2006 345.715 99.9559C345.976 101.193 346.17 102.224 346.147 102.247C346.062 102.329 344.153 100.787 343.112 99.7947C341.994 98.7276 340.914 97.3301 340.169 95.9854L339.732 95.1969L339.655 95.9188C339.612 96.3159 339.539 97.0601 339.492 97.5727C339.103 101.807 336.967 106.662 333.685 110.769C333.093 111.51 332.247 112.528 331.805 113.032C329.926 115.176 328.171 118.147 327.322 120.622C325.302 126.511 326.908 130.986 331.644 132.662C332.099 132.823 332.522 133 332.585 133.055C332.648 133.111 332.498 133.623 332.252 134.194C331.437 136.084 329.635 137.494 327.311 138.059C326.183 138.334 323.819 138.264 322.844 137.926C322.476 137.8 322.147 137.724 322.111 137.758C322.048 137.819 325.584 148.458 327.076 152.693C332.783 168.902 338.955 178.778 348.049 186.256C349.678 187.595 350.974 188.442 352.392 189.094C356.601 191.03 359.985 190.836 362.563 188.512C364.732 186.556 365.914 183.777 365.904 180.653C365.899 178.923 365.765 178.513 363.967 174.728C360.767 167.988 359.959 165.871 359.545 163.138C359.174 160.686 359.737 158.992 361.464 157.365C362.135 156.733 362.159 156.723 362.231 157.033C362.942 160.126 363.601 161.799 364.892 163.786C366.39 166.092 367.766 167.614 370.375 169.851C373.281 172.342 374.809 174.326 375.615 176.658C375.818 177.244 376.007 177.747 376.035 177.776C376.174 177.915 378.203 173.583 378.754 171.969C380.006 168.31 380.428 165.699 380.417 161.68C380.402 155.95 379.088 150.301 376.156 143.373C374.246 138.859 372.3 135.208 367.961 127.995C365.263 123.51 363.658 120.594 362.169 117.477C358.463 109.721 356.337 102.372 355.698 95.1133C355.51 92.9888 355.509 88.1741 355.695 86.1171C356.636 75.6899 360.649 65.5769 367.91 55.336C368.545 54.4405 369.065 53.6374 369.065 53.5513C369.065 53.4647 368.846 52.7408 368.579 51.9416C367.806 49.6325 367.645 48.7588 367.631 46.7789C367.617 44.8507 367.853 43.7652 368.585 42.3886C369.851 40.0067 372.302 38.1911 376.646 36.4167C378.453 35.6782 379.161 35.2736 380.076 34.4558C381.192 33.4577 381.641 32.6021 381.717 31.3283C381.811 29.7695 381.346 28.4925 379.903 26.3417L379.278 25.4097L379.65 25.3032C380.237 25.1341 383.121 25.1528 383.882 25.3311C385.773 25.7734 387.847 27.222 388.833 28.7884C390.263 31.0626 390.533 34.2011 389.537 36.9683C389.252 37.7582 389.239 37.8672 389.439 37.7808C390.262 37.4256 392.036 36.9159 392.911 36.7837C394.411 36.5571 396.954 36.7012 398.565 37.1025C402.961 38.1992 407.065 40.9462 409.703 44.5562C410.516 45.6692 411.563 47.7814 412.027 49.2432C412.39 50.3879 412.407 50.562 412.399 53.1407C412.395 54.7349 412.336 55.8939 412.255 55.9718C412.166 56.0583 411.914 55.6667 411.515 54.8175C410.739 53.1656 410.042 52.1315 408.986 51.0659C407.285 49.3496 404.947 48.0847 402.902 47.7747C402.434 47.7041 402.551 47.7906 403.678 48.3472C405.794 49.3927 407.46 50.6516 408.819 52.2327C411.113 54.9001 412.149 57.4658 412.304 60.8598C412.348 61.83 412.345 62.6239 412.298 62.6239C412.251 62.6239 411.564 61.8001 410.772 60.7932C409.206 58.8029 408.443 57.9169 408.794 58.4965C408.905 58.6796 409.276 59.2488 409.619 59.7614C410.479 61.0491 411.295 62.6478 411.659 63.7556C411.918 64.5418 411.982 65.1459 412.071 67.6167C412.188 70.8889 412.286 71.378 413.177 73.1174C414.161 75.0396 415.979 76.5355 418.586 77.5674C419.616 77.9749 419.659 78.0094 419.62 78.3921C419.581 78.7643 419.524 78.8029 418.752 78.9636C417.634 79.1966 415.203 79.2227 414.273 79.0116C412.851 78.6894 411.359 77.8891 410.176 76.8142C408.016 74.8508 406.72 72.4339 405.785 68.624C404.899 65.0117 404.582 64.3478 402.954 62.6913C401.386 61.0973 399.397 59.9682 396.823 59.2111C395.703 58.8815 395.393 58.8495 393.253 58.8415C391.847 58.8363 390.775 58.8907 390.571 58.9773C390.255 59.1124 390.295 59.1416 391.192 59.4268C393.082 60.0278 394.936 61.1123 396.402 62.4745C401.258 66.9888 401.638 74.3455 397.231 78.535C396.302 79.419 395.215 80.1235 394.114 80.5554C392.953 81.0112 390.262 81.6829 390.384 81.4864C390.438 81.3999 390.872 80.8637 391.351 80.2939C391.829 79.724 392.398 78.9152 392.615 78.4965C394.666 74.5479 392.739 70.3027 388.61 69.6672C388.132 69.594 386.996 69.3541 386.086 69.1348C378.689 67.3523 374.578 64.8978 373.232 61.4601C373.024 60.93 372.815 60.4956 372.767 60.4948C372.486 60.4901 369.311 66.3936 368.113 69.1476C363.82 79.0169 362.687 89.0958 364.805 98.5718C365.224 100.445 366.074 103.354 366.63 104.814L366.954 105.663L367.192 104.748C367.552 103.362 368.124 102.144 369.327 100.198C371.951 95.9544 372.492 92.3016 371.206 87.5024C370.945 86.5291 370.751 85.7139 370.775 85.6907C370.863 85.6055 373.288 87.6298 373.993 88.3756C375.337 89.7989 376.374 91.823 376.863 93.9784C377.179 95.3752 377.18 98.4052 376.864 100.23C376.579 101.883 376.076 103.811 375.458 105.628C374.771 107.651 374.561 108.974 374.551 111.353C374.539 114.312 374.989 116.851 376.167 120.474L376.687 122.071L376.875 121.272C377.271 119.591 377.973 117.861 379.169 115.614C381.067 112.053 381.192 111.789 381.689 110.326C382.855 106.887 383.257 102.626 382.836 98.1689C382.753 97.2996 382.707 96.4903 382.732 96.3704C382.789 96.1029 384.963 98.694 386.173 100.471C388.575 103.997 389.577 107.28 389.413 111.087C389.31 113.49 388.981 114.91 387.603 118.891C386.361 122.481 385.52 125.56 385.025 128.329C384.767 129.775 384.716 130.542 384.72 132.989C384.723 135.555 384.763 136.064 385.028 137.097C385.564 139.173 386.418 140.827 387.65 142.176C388.174 142.749 388.355 142.66 388.358 141.824C388.36 141.558 388.457 140.843 388.577 140.236C389.066 137.744 389.964 135.712 391.669 133.236C393.726 130.248 394.821 127.267 395.257 123.469C395.435 121.91 395.345 119.791 395.037 118.343C394.777 117.122 394.77 117.162 395.285 116.974C395.83 116.775 395.782 116.724 397.262 119.123C400.389 124.194 401.859 128.648 401.865 133.065C401.871 137.335 400.826 140.267 397.674 144.817C395.543 147.894 394.537 149.886 393.864 152.361C393.442 153.91 393.082 156.494 392.986 158.659C392.879 161.075 392.575 164.205 392.22 166.536C389.878 181.934 383.329 193.328 372.259 201.269C371.476 201.83 370.755 202.289 370.656 202.289C370.557 202.289 370.4 202.2 370.306 202.091L370.306 202.085ZM294.766 140.905C295.146 139.832 295.454 139.343 296.377 138.343C297.328 137.314 298.025 136.286 298.463 135.271C298.795 134.499 298.824 134.253 298.92 131.385C298.977 129.701 299.028 128.218 299.035 128.09C299.044 127.91 299.169 127.857 299.581 127.857C300.069 127.857 300.122 127.893 300.201 128.273C300.33 128.898 300.3 131.488 300.147 132.894C299.846 135.652 300.688 139.25 302.149 141.447C303.65 143.704 306.132 144.549 309.345 143.898L310.525 143.659L309.576 143.33C307.354 142.562 306.006 141.132 305.53 139.041C305.301 138.036 305.366 135.893 305.666 134.58C306.645 130.294 309.431 125.415 312.936 121.854C314.108 120.663 317.653 117.722 317.653 117.94C317.653 117.984 317.286 118.93 316.837 120.043C315.927 122.3 315.586 123.757 315.586 125.397C315.586 127.425 316.219 129.602 317.341 131.435C318.658 133.586 321.404 136.245 322.873 136.793C323.842 137.154 325.783 137.278 326.872 137.047C328.647 136.672 330.342 135.536 331.007 134.278L331.291 133.739L330.103 133.171C325.699 131.063 324.26 126.246 326.267 120.327C327.104 117.859 328.794 114.898 330.57 112.79C330.857 112.449 331.563 111.611 332.14 110.927C334.172 108.514 335.569 106.324 336.67 103.825C338.544 99.568 339.054 94.5817 338.058 90.2441C337.663 88.5252 337.677 88.3584 338.225 88.278C338.471 88.242 338.712 88.234 338.761 88.262C338.809 88.2886 338.986 89.0116 339.154 89.8674C339.682 92.5667 340.624 94.8616 342.033 96.8778C342.685 97.8107 344.374 99.6934 344.473 99.5975C344.497 99.5749 344.458 99.319 344.386 99.028C344.316 98.7371 344.123 97.5705 343.958 96.4355C343.561 93.7006 343.523 87.7417 343.884 84.5859C344.34 80.5929 344.979 76.706 345.7 73.5352C347.09 67.4261 347.3 64.614 346.609 61.3394C346.161 59.2181 345.34 57.3324 344.178 55.7608C343.603 54.9828 341.48 52.8951 340.829 52.4675C340.507 52.2563 340.506 52.2509 340.756 51.8441C340.894 51.6184 341.073 51.4337 341.154 51.4337C341.235 51.4337 342.094 52.0178 343.062 52.7318C347.205 55.7868 348.488 56.5594 350.113 56.9781C351.327 57.2909 351.371 57.247 350.691 56.3933C348.559 53.7143 347.056 50.6982 344.902 44.7767C343.583 41.1528 342.006 37.1549 341.357 35.7897C341.043 35.1306 340.28 33.727 339.661 32.6705L338.535 30.7497L338.443 31.8051C338.327 33.1273 337.872 34.35 337.053 35.5403C336.358 36.5499 334.837 38.0383 334.583 37.9565C334.495 37.9286 334.337 37.7791 334.231 37.6249C334.052 37.3646 334.1 37.2792 334.896 36.4339C335.954 35.3111 336.717 34.1931 337.045 33.2848C337.435 32.2065 337.371 30.4936 336.887 28.9994C336.674 28.3404 336.505 27.6813 336.513 27.5349C336.52 27.3884 336.565 26.5796 336.612 25.7375C336.686 24.4188 336.659 24.0882 336.419 23.3557C335.911 21.8052 334.667 20.5069 333.316 20.1156C332.558 19.8963 330.982 19.9063 330.127 20.1355C327.618 20.8099 324.679 23.1093 322.86 25.8212C322.363 26.563 321.872 27.199 321.769 27.2344C321.465 27.3396 321.099 27.082 321.1 26.7643C321.1 26.6022 321.348 26.1099 321.651 25.6706C321.953 25.2312 322.201 24.8315 322.202 24.7825C322.202 24.7333 321.783 24.6547 321.272 24.6092C320.76 24.5626 318.636 24.349 316.551 24.134C309.806 23.4382 307.836 23.3064 305.387 23.3872C302.221 23.491 300.512 23.8356 298.619 24.749C296.431 25.8048 294.827 28.0681 294.504 30.5556C294.288 32.2145 294.842 32.778 296.806 32.8998C299.08 33.0409 301.498 32.1365 303.798 30.285C304.583 29.6534 306.038 28.8825 307.002 28.5877C307.939 28.3013 310.239 28.1981 311.392 28.391C312.78 28.6232 314.883 29.3245 315.04 29.6073C315.205 29.9062 315.082 30.2313 314.769 30.3277C314.636 30.3676 314.127 30.2558 313.636 30.077C311.643 29.3523 309.257 29.1358 307.668 29.5355C307.223 29.6473 306.45 29.947 305.951 30.2013C305.036 30.6667 303.341 31.9003 303.551 31.9475C303.613 31.9609 303.902 32.0115 304.193 32.0594C305.423 32.2587 306.521 33.8496 306.537 35.4583C306.556 37.3193 305.388 38.4828 303.791 38.1933C303.084 38.0655 302.086 37.0635 301.751 36.1456C301.419 35.2373 301.494 33.8291 301.91 33.1486L302.192 32.6862L301.338 33.0723C299.06 34.1022 296.26 34.2907 294.768 33.5148C293.926 33.0762 293.462 32.5008 293.326 31.7261C293.214 31.0908 293.093 31.0743 291.328 31.4552C288.975 31.9628 286.253 33.0493 281.128 35.5255C279.423 36.3498 277.914 37.1463 277.774 37.2955C277.477 37.6145 277.336 38.4421 277.465 39.1071C277.516 39.3663 277.762 39.8392 278.014 40.158C278.363 40.5988 278.495 40.926 278.568 41.5257C278.705 42.6421 279.233 44.5223 279.823 45.9869C280.412 47.4471 284.118 54.7643 284.267 54.7592C284.322 54.7571 284.58 54.4534 284.84 54.0837C285.407 53.2754 286.318 52.3836 287.288 51.6861C289.917 49.7948 293.73 49.559 297.048 51.0824C298.991 51.9746 301.068 53.7749 302.458 55.771C303.44 57.1809 305.736 61.6964 306.252 63.2315C306.944 65.29 307.051 65.8147 307.059 67.2039C307.069 68.7356 306.781 69.6058 305.975 70.476C305.358 71.1426 304.44 71.5821 303.361 71.7277C302.616 71.8275 301.015 71.6105 299.874 71.2539C298.847 70.9335 296.121 69.611 295.825 69.2903C295.716 69.1718 295.283 68.4485 294.863 67.6825C293.988 66.0855 294.115 66.0371 293.438 68.2246C293.08 69.3797 293.061 69.4082 292.647 69.4091C292.415 69.4096 291.821 69.4451 291.328 69.4863L290.432 69.5635L289.536 68.4567L288.64 67.3499L288.373 68.978L288.105 70.606H286.898C284.339 70.606 280.56 71.6234 278.889 72.7624C277.914 73.4267 278.838 73.9336 281.028 73.9361C283.556 73.9393 284.509 74.3477 286.4 76.2411C287.14 76.9811 287.745 77.6485 287.745 77.7243C287.747 78.0584 289.361 78.8423 290.071 78.855C291.258 78.8763 292.599 77.9113 294.059 75.9883C294.636 75.2272 295.148 74.6484 295.195 74.7022C295.244 74.7555 295.358 75.4548 295.45 76.2551C295.684 78.288 296.038 78.973 297.218 79.6784C297.712 79.9741 297.944 79.9173 297.944 79.5C297.944 78.6328 299.19 77.2421 300.61 76.5236L301.366 76.1415L302.294 77.0467C303.813 78.5289 305.175 79.2511 306.857 79.4666L307.554 79.5558L307.488 78.8909C307.418 78.1832 307.55 77.658 308.107 76.4331L308.454 75.6698L309.208 76.3351C309.622 76.701 310.225 77.1493 310.546 77.3313C311.121 77.6568 312.909 78.1627 313.039 78.0368C313.076 78.0008 312.923 77.618 312.702 77.1849C312.48 76.7518 312.195 76.0104 312.07 75.5371C311.842 74.6772 311.598 72.2814 311.592 70.8409L311.59 70.0773L312.417 70.1612L313.243 70.2451V69.7652C313.243 68.9525 312.733 67.1165 312.007 65.3165C311.626 64.3715 311.314 63.5385 311.314 63.4655C311.314 63.3923 311.555 63.2019 311.849 63.042C312.53 62.6728 313.516 62.6651 314.332 63.0233C314.666 63.1695 314.961 63.2671 314.989 63.2403C315.016 63.2137 314.909 62.7781 314.75 62.2727C314.326 60.9292 313.402 59.3287 312.13 57.7378L311.011 56.3366L311.385 55.9591C311.591 55.7513 311.938 55.5098 312.157 55.4225C312.375 55.3346 312.554 55.2196 312.554 55.1658C312.554 54.9928 311.003 54.0141 309.824 53.4428C308.773 52.9341 308.681 52.8579 308.721 52.5275C308.754 52.2492 308.848 52.1576 309.131 52.1259C309.739 52.058 312.092 53.3085 313.237 54.307C313.757 54.7616 315.272 56.9756 315.145 57.0977C315.114 57.1284 314.699 56.9739 314.223 56.7566C313.467 56.4113 312.554 56.2311 312.554 56.4271C312.554 56.463 312.947 56.9964 313.427 57.6114C314.433 58.8995 315.299 60.4435 315.713 61.6865C315.931 62.3433 316.552 65.084 316.552 65.3936C316.552 65.4189 316.257 65.2711 315.897 65.0655C314.339 64.1749 313.559 63.8226 313.14 63.8198C312.894 63.8178 312.692 63.8531 312.692 63.8984C312.692 63.9437 312.914 64.552 313.185 65.2513C313.945 67.2112 314.346 68.9503 314.346 70.2855V71.4404L313.514 71.3499L312.681 71.2593L312.764 72.4981C312.946 75.2076 313.395 76.5777 314.6 78.0924C314.991 78.5841 315.311 79.0256 315.311 79.0738C315.311 79.1217 314.551 79.131 313.622 79.0951C311.711 79.0206 310.759 78.7624 309.554 77.9903L308.828 77.5253L308.681 77.8942C308.461 78.4455 308.613 79.1664 309.094 79.8402C309.329 80.1708 309.522 80.4836 309.522 80.5352C309.522 80.5872 308.762 80.5991 307.833 80.5619C305.294 80.4607 303.837 79.8905 301.988 78.2733C301.522 77.8649 301.096 77.5309 301.042 77.5309C300.988 77.5309 300.633 77.7514 300.253 78.0208C299.259 78.7257 298.876 79.5567 298.994 80.7542L299.082 81.6476L297.954 81.1883C295.896 80.3496 295.009 79.5165 294.622 78.0578L294.45 77.4089L293.472 78.3067C292.933 78.8003 292.185 79.3496 291.808 79.527C290.448 80.1668 288.578 79.8792 287.275 78.8298L286.873 78.5065L285.965 79.1727C284.818 80.0147 282.798 80.947 281.583 81.1958C278.034 81.9222 274.974 80.7106 272.299 77.5206C271.703 76.809 271.004 76.1008 270.746 75.9467C269.564 75.2412 268.157 75.586 267.512 76.7392C267.203 77.2928 267.186 77.4267 267.259 78.7958C267.349 80.4916 267.609 81.6435 268.134 82.68C268.627 83.6526 269.279 84.3475 270.864 85.592C271.586 86.1588 272.16 86.6352 272.139 86.6508C272.119 86.6667 271.047 86.5363 269.758 86.3603C266.863 85.9664 263.87 85.9946 261.557 86.4375C259.335 86.863 256.16 87.2552 254.252 87.3399C252.372 87.4238 250.713 87.2066 249.398 86.7062C248.595 86.4003 247 85.4265 246.616 85.007C246.471 84.8494 246.301 84.7205 246.237 84.7205C246.051 84.7205 246.106 86.6993 246.32 87.6671C247.289 92.0846 251.833 93.4223 261.834 92.2338C264.126 91.9614 264.039 91.9488 264.039 92.553V93.0626L261.317 93.4925C250.568 95.1902 244.895 97.0388 241.126 100.072C240.41 100.648 238.496 101.798 235.31 103.568C232.074 105.365 230.306 106.428 229.761 106.907C227.48 108.91 224.524 109.895 220.792 109.896C218.322 109.896 215.435 109.475 212.925 108.748C212.519 108.631 212.162 108.559 212.132 108.589C212.01 108.706 213.562 110.664 214.438 111.499C217.663 114.572 222.213 115.427 227.238 113.906C227.731 113.757 228.825 113.451 229.669 113.226C232.439 112.488 235.218 111.147 237.576 109.41C239.341 108.11 239.33 108.116 239.711 108.208C240.345 108.361 240.162 108.848 239.195 109.581C236.053 111.96 233.256 113.365 229.711 114.341C228.835 114.583 227.781 114.945 227.368 115.147C226.377 115.633 224.886 116.116 224.051 116.223C223.682 116.271 223.379 116.35 223.379 116.4C223.379 116.534 225.397 117.67 226.43 118.117C228.189 118.88 228.799 118.999 230.96 119.002C232.711 119.004 233.078 118.965 233.923 118.686C235.194 118.267 236.564 117.601 237.92 116.744C239.573 115.7 242.822 113.268 243.074 112.887C243.555 112.159 246.785 109.764 249.222 108.327C253.552 105.775 257.799 104.247 264.315 102.898C273.174 101.063 278.201 99.2759 282.508 96.4282C283.153 96.0023 284.641 94.8931 285.816 93.9635C288.913 91.5134 290.62 90.2891 290.872 90.3371C291.166 90.393 291.393 90.7588 291.292 91.0138C291.248 91.127 290.695 91.5956 290.064 92.0563C289.432 92.517 288.11 93.5343 287.125 94.317C283.591 97.1236 282.055 98.1323 279.267 99.4782C275.611 101.243 271.393 102.519 264.451 103.96C259.148 105.061 256.195 106.014 252.408 107.847C249.269 109.366 244.604 112.494 244.604 113.08C244.604 113.203 243.91 113.831 243.053 114.486C242.2 115.138 240.665 116.334 239.642 117.143C234.881 120.909 232.089 122.822 229.464 124.114C226.547 125.551 224.348 126.115 221.629 126.123C219.679 126.129 218.119 125.814 216.027 124.991C215.817 124.909 215.849 125.037 216.218 125.743C217.55 128.297 219.93 130.58 222.62 131.885C228.329 134.654 235.155 133.655 241.434 129.129C242.172 128.597 242.684 128.083 243.225 127.331C245.963 123.527 249.49 120.862 255.355 118.167C258.465 116.738 263.823 114.795 264.342 114.909C264.661 114.98 264.802 115.461 264.569 115.685C264.467 115.784 263.39 116.203 262.177 116.618C255.308 118.966 250.263 121.665 246.896 124.793C245.582 126.013 243.874 128.092 243.974 128.348C244.009 128.434 243.308 129.333 242.417 130.345C237.991 135.376 236.271 137.903 235.109 141.083C234.528 142.675 234.535 142.712 235.335 142.324C236.091 141.958 237.891 141.318 239.332 140.902C240.33 140.614 240.334 140.611 241.83 138.996C248.013 132.32 254.328 128.098 262.543 125.146C263.982 124.629 267.575 123.585 267.746 123.634C267.804 123.65 268.335 123.049 268.925 122.297C270.167 120.714 272.588 118.233 274.619 116.46C276.152 115.121 280.596 111.637 282.921 109.952C286.381 107.443 288.805 105.139 290.562 102.69C292.336 100.217 292.96 99.4992 293.336 99.4992C293.573 99.4992 293.691 99.5924 293.753 99.8317C293.822 100.097 293.688 100.359 293.086 101.13C292.672 101.661 291.83 102.784 291.214 103.627C289.152 106.446 287.748 107.721 281.876 112.103C277.737 115.191 275.686 116.877 273.4 119.071C269.259 123.044 266.937 126.529 265.771 130.521C264.984 133.216 264.864 136.842 265.47 139.641L265.643 140.44L265.814 139.514C266.715 134.645 270.532 131.092 277.339 128.787C279.572 128.03 281.392 127.244 283.389 126.174C289.891 122.689 296.006 117.515 305.866 107.154C314.989 97.5675 319.048 93.5077 319.51 93.5077C319.846 93.5077 320.135 93.741 320.135 94.0122C320.135 94.1134 319.158 95.1394 317.964 96.2909C315.751 98.4255 312.891 101.358 307.244 107.281C302.952 111.784 299.41 115.314 296.807 117.685C295.326 119.034 294.636 119.752 294.636 119.946C294.636 120.101 294.235 121.041 293.744 122.034C292.693 124.16 292.208 125.317 291.614 127.114C289.752 132.742 290.382 137.855 293.658 143.702L294.292 144.834L294.376 143.303C294.434 142.247 294.556 141.502 294.767 140.906L294.766 140.905ZM304.554 121.393C304.407 121.221 304.453 121.004 304.836 120.095C306.337 116.528 308.191 113.842 310.943 111.247C312.484 109.795 312.865 109.571 313.215 109.909C313.528 110.211 313.377 110.439 312.053 111.657C309.319 114.172 307.377 116.923 305.929 120.334C305.68 120.92 305.41 121.443 305.328 121.497C305.084 121.658 304.742 121.612 304.554 121.393L304.554 121.393ZM250.613 115.321C250.503 115.169 250.442 114.971 250.477 114.882C250.578 114.629 252.251 113.342 253.724 112.384C256.202 110.773 258.616 109.721 261.589 108.954C263.295 108.514 263.761 108.54 263.761 109.073C263.761 109.448 263.533 109.561 261.969 109.955C258.446 110.845 255.444 112.303 252.558 114.526C251.21 115.564 250.885 115.697 250.613 115.322L250.613 115.321ZM319.078 112.868C318.97 112.596 319.184 111.924 319.981 110.029C321.205 107.118 322.728 104.818 325.106 102.291C326.375 100.942 326.755 100.69 327.102 100.967C327.503 101.289 327.3 101.67 326.078 102.89C323.554 105.41 321.878 108.036 320.552 111.547C320.303 112.206 320.038 112.82 319.962 112.912C319.768 113.147 319.177 113.118 319.078 112.868L319.078 112.868ZM296.705 110.483C296.397 110.125 296.694 109.696 297.766 108.951C299.055 108.055 301.107 106.186 302.121 104.984C303.027 103.91 304.433 101.858 305.152 100.56C305.623 99.7109 305.715 99.6185 306.048 99.6558C306.646 99.7224 306.595 100.212 305.857 101.501C303.838 105.027 301.668 107.458 298.438 109.811C297.182 110.727 296.98 110.804 296.705 110.483V110.483ZM326.291 96.8791C326.062 96.6585 326.258 96.2208 327.009 95.2667C329.366 92.273 330.65 89.6556 331.628 85.8505C332.044 84.2328 332.096 84.1171 332.421 84.0797C333.053 84.0078 333.128 84.2929 332.824 85.6023C331.86 89.751 330.071 93.3853 327.542 96.3354C327.035 96.9275 326.556 97.1354 326.291 96.879L326.291 96.8791ZM318.508 85.491C318.232 85.2242 318.314 84.9763 319.025 83.9277C319.806 82.7775 320.809 80.7797 321.218 79.5599C321.931 77.4384 322.215 75.4163 322.252 72.2181C322.269 70.8041 322.306 70.5474 322.512 70.4214C323.238 69.9789 323.455 71.1263 323.278 74.4669C323.083 78.1508 321.87 81.7737 319.873 84.6314C319.167 85.6423 318.863 85.8339 318.508 85.4911V85.491ZM327.743 76.1711C327.517 75.953 327.535 75.4138 327.792 74.7167C328.513 72.7578 328.904 69.4305 328.669 67.2421C328.501 65.6672 328.067 63.6441 327.593 62.2201C327.164 60.9322 327.206 60.4871 327.757 60.4871C328.145 60.4871 328.268 60.6993 328.739 62.1815C330.115 66.5103 330.182 70.7049 328.939 74.7998C328.513 76.2049 328.177 76.59 327.743 76.1711H327.743ZM333.652 60.6294C333.516 60.5455 333.361 59.7723 333.143 58.0778C332.766 55.15 332.515 53.9106 331.961 52.2355C331.082 49.581 329.979 47.9135 327.422 45.3757C324.835 42.8082 323.967 41.7456 323.179 40.183C322.417 38.6704 322.255 38.0296 322.07 35.8167C321.927 34.0986 321.955 33.9102 322.368 33.7836C322.872 33.6289 323.015 33.974 323.171 35.7247C323.482 39.2266 324.133 40.4741 327.304 43.6447C329.405 45.7451 330.182 46.617 330.983 47.7721C332.478 49.9298 333.479 52.6687 333.973 55.9603C334.411 58.8836 334.526 60.3268 334.336 60.5479C334.136 60.7803 333.938 60.804 333.652 60.6291L333.652 60.6294ZM286.085 37.9386C285.437 37.6995 284.832 37.459 284.741 37.4043C284.377 37.1873 284.657 36.5217 285.112 36.5217C285.475 36.5217 287.666 37.353 287.93 37.5912C288.139 37.7785 288.157 37.8725 288.028 38.1031C287.818 38.483 287.481 38.4545 286.084 37.9387L286.085 37.9386ZM288.058 36.8294C286.754 36.3438 286.439 36.0522 286.785 35.6497C287.029 35.3659 287.297 35.4052 288.758 35.9391C290.114 36.4343 290.432 36.7195 290.082 37.1271C289.839 37.4101 289.475 37.3565 288.058 36.8294H288.058ZM290.509 36.0377C289.036 35.5231 288.817 35.3863 288.875 35.0157C288.959 34.471 289.282 34.4648 290.718 34.9798C292.177 35.5036 292.503 35.7414 292.291 36.1247C292.074 36.5168 291.85 36.5057 290.509 36.0368V36.0377ZM292.324 35.1356C290.993 34.6373 290.637 34.366 290.866 34.0228C291.09 33.6883 291.759 33.7577 293.079 34.2526C294.245 34.6897 294.556 35.0019 294.217 35.3964C293.981 35.6705 293.622 35.621 292.324 35.1356H292.324ZM327.316 33.8092C327.126 33.5874 327.222 33.3049 327.748 32.5559C328.667 31.2469 328.74 30.2287 328.021 28.7803C327.095 26.9148 327.13 25.7587 328.141 24.8769C328.874 24.2376 329.626 23.9373 331.315 23.6103C332.788 23.3251 333.229 23.383 333.229 23.8617C333.229 24.2463 332.944 24.3879 331.716 24.6129C329.614 24.9981 328.68 25.48 328.473 26.2862C328.378 26.6557 328.69 27.8553 329.002 28.323C329.318 28.7963 329.645 29.8866 329.645 30.4664C329.645 31.2893 329.324 32.1718 328.675 33.1341C328.079 34.0187 327.671 34.2215 327.317 33.8093L327.316 33.8092ZM235.506 102.226C237.901 100.902 239.866 99.723 240.287 99.3565C242.654 97.2951 246.9 95.4418 252.181 94.1643L254.039 93.715L252.801 93.5628C248.295 93.0087 245.959 91.2098 245.209 87.7147C245.027 86.8692 244.999 86.2788 245.072 84.8521C245.123 83.8636 245.209 82.8599 245.263 82.6217L245.361 82.1887L246.389 83.2747C247.598 84.5522 248.836 85.3671 250.339 85.8751C251.362 86.2208 251.557 86.2416 253.699 86.2321C255.99 86.2221 258.241 85.9655 262.383 85.2424C263.689 85.0143 264.372 84.9748 266.265 85.017L268.563 85.0689L268.052 84.5078C267.022 83.3781 266.341 81.4997 266.163 79.3025C266.111 78.657 266.017 78.0331 265.954 77.9159C265.711 77.4587 259.903 74.4015 257.628 73.5326C255.06 72.5524 253.028 72.0849 251.287 72.0745L250.323 72.0687L249.716 71.1046C245.36 64.186 240.025 59.3015 230.958 53.9314C229.783 53.2355 226.961 51.633 224.687 50.3703C219.886 47.7048 219.426 47.4011 218.692 46.4113C217.213 44.4155 217.073 42.0122 218.33 40.2041C219.042 39.1805 219.918 38.7146 221.463 38.5371C222.645 38.4013 223.133 38.1565 223.383 37.5748C223.648 36.9568 223.456 35.6447 222.895 34.2361C222.263 32.6494 219.213 26.5401 219.051 26.5382C218.984 26.5371 216.845 27.3056 214.296 28.2453C211.748 29.185 209.378 30.0552 209.029 30.1792C208.201 30.4734 207.306 31.223 207.135 31.7646C206.804 32.8174 206.811 32.8846 207.265 33.0662C208.589 33.5958 210.336 35.0381 211.148 36.2706C211.873 37.3709 212.119 38.2386 212.048 39.4345C211.986 40.4584 211.984 40.4643 210.915 42.4471C210.7 42.8461 210.63 43.2133 210.637 43.9116C210.65 45.1996 211.084 45.9662 212.722 47.5999C213.87 48.7441 214.003 48.9254 213.87 49.1655C213.58 49.689 213.152 49.4913 211.826 48.2207C210.336 46.7942 209.646 45.6287 209.51 44.311C209.407 43.3095 209.731 42.0314 210.27 41.3121C211.064 40.2535 211.18 38.6684 210.557 37.3877C210.126 36.5015 208.386 34.8469 207.301 34.2922C205.656 33.4512 203.446 33.2588 202.104 33.8396C201.232 34.2169 194.45 38.8932 193.733 39.6121C193.386 39.9597 192.921 40.5601 192.699 40.9462C192.333 41.5842 192.296 41.7633 192.297 42.913C192.299 44.3042 192.513 45.0027 193.364 46.3775L193.816 47.107L196.846 47.1155C199.27 47.1223 200.043 47.1701 200.704 47.3514C203.219 48.0428 204.746 49.3204 206.459 52.1664C207.27 53.5142 208.059 54.3086 209.001 54.7252C209.729 55.0469 211.46 55.4146 212.29 55.4237C212.926 55.4307 213.239 55.707 213.122 56.1585L213.025 56.5306L211.896 56.4414C208.639 56.1843 207.016 55.2466 205.532 52.7655C203.189 48.8479 201.222 47.912 195.875 48.1702L193.837 48.2687L193.167 48.8741C191.033 50.8017 190.28 55.5618 191.423 59.8887C191.577 60.4745 192.016 61.5821 192.398 62.3501C193.238 64.0406 194.454 65.3261 195.765 65.909C196.953 66.4374 198.661 66.49 200.107 66.0426C201.375 65.6503 202.931 64.836 203.039 64.5087C203.117 64.2712 205.193 62.9796 206.397 62.4192C207.698 61.8137 209.538 61.3421 210.021 61.4903C210.336 61.5875 210.453 61.913 210.283 62.2203C210.193 62.3832 209.92 62.5007 209.491 62.5611C208.445 62.7086 207.005 63.2588 205.632 64.0358C204.504 64.6741 204.314 64.837 203.984 65.4518C203.466 66.4142 203.443 68.1027 203.929 69.475C204.65 71.5162 205.831 73.3238 207.452 74.8702C208.656 76.0184 209.318 76.4754 210.645 77.077C213.338 78.2979 215.913 77.8767 218.135 75.8521C219.179 74.9005 220.033 73.8259 220.694 72.632C220.955 72.1617 221.149 71.952 221.279 72.0002C221.387 72.0401 221.623 72.108 221.806 72.1529C222.082 72.2194 222.137 72.3161 222.137 72.7332C222.137 75.0103 220.694 77.3804 217.608 80.1699C216.17 81.4705 214.594 83.2029 214.731 83.3347C214.756 83.3587 215.171 83.2588 215.655 83.1131C216.138 82.9677 217.103 82.7603 217.799 82.652C221.025 82.1506 222.761 81.1059 224.865 78.3998C225.436 77.6651 225.919 77.0446 225.937 77.0209C225.964 76.9876 226.789 77.3503 226.924 77.4552C226.942 77.4685 226.74 78.2661 226.478 79.2272C225.611 82.4015 224.558 84.5508 223.113 86.0986C222.917 86.3078 222.029 87.0169 221.139 87.6745C218.61 89.5428 217.316 91.063 216.59 93.0189C216.331 93.7172 216.286 94.1084 216.291 95.6373C216.297 97.2368 216.34 97.5594 216.683 98.5664C217.293 100.358 217.285 100.352 217.73 99.247C218.396 97.5934 219.625 96.5029 221.188 96.179C222.455 95.9166 224.183 94.7153 225.294 93.3247C225.781 92.714 227.549 89.8638 227.691 89.4597C227.715 89.3945 227.972 89.3838 228.264 89.4357L228.795 89.5316L228.702 91.3525C228.58 93.7894 228.37 94.547 227.166 96.9092C226.185 98.8329 225.309 100.865 225.111 101.678C225.021 102.044 225.053 102.03 225.817 101.368C226.912 100.419 228.175 99.7194 229.649 99.2456C230.829 98.8658 233.664 98.3395 233.803 98.4741C233.839 98.5087 233.575 98.9783 233.216 99.5169C231.723 101.753 230.82 103.633 230.82 104.502C230.82 104.835 230.837 104.844 231.13 104.663C231.301 104.558 233.27 103.462 235.506 102.226L235.506 102.226ZM240.082 95.2105C239.903 95.0371 239.873 92.559 240.034 91.2429C240.113 90.5967 240.164 90.5051 240.461 90.4646C241.061 90.3834 241.132 90.6714 241.055 92.8784C241.016 93.9926 240.928 95.0091 240.859 95.1373C240.715 95.4061 240.323 95.4429 240.082 95.2105H240.082ZM237.573 91.8405C237.443 91.6903 237.416 91.0944 237.464 89.4917C237.52 87.5951 237.557 87.3229 237.784 87.1632C238.085 86.9503 238.129 86.9467 238.399 87.1113C238.705 87.2982 238.617 91.4674 238.299 91.8082C238.032 92.0943 237.799 92.1045 237.572 91.8401L237.573 91.8405ZM235.508 89.2494C235.337 89.1455 235.309 88.7609 235.342 86.9547C235.378 84.9594 235.404 84.767 235.663 84.5544C235.884 84.3734 236.006 84.3546 236.224 84.4679C236.49 84.6053 236.5 84.7125 236.449 86.78C236.387 89.2632 236.225 89.6878 235.508 89.2498V89.2494ZM232.556 85.8765C232.335 85.7203 232.316 85.4918 232.358 83.5513C232.397 81.7767 232.445 81.3612 232.631 81.1815C232.9 80.9215 233.386 81.0269 233.46 81.3615C233.487 81.4867 233.479 82.5117 233.441 83.6381C233.376 85.5185 233.347 85.7009 233.086 85.8678C232.852 86.0176 232.758 86.0192 232.557 85.8765L232.556 85.8765ZM230.419 82.0794C230.258 81.7876 230.385 77.9723 230.568 77.6292C230.721 77.3414 231.14 77.3268 231.376 77.6012C231.509 77.7572 231.532 78.2892 231.469 79.8333C231.424 80.9484 231.347 81.9647 231.296 82.0918C231.174 82.3968 230.591 82.3888 230.419 82.0797L230.419 82.0794ZM227.784 78.6569C227.651 78.5019 227.628 77.9363 227.686 76.3003C227.753 74.4445 227.798 74.1237 228.009 73.9745C228.345 73.7365 228.44 73.7548 228.666 74.1009C228.939 74.5194 228.813 78.3842 228.517 78.6699C228.261 78.9167 228.004 78.9121 227.784 78.6569V78.6569ZM240.284 65.3247C240.136 65.181 240.18 64.6382 240.348 64.5378C240.732 64.3085 242.735 63.9713 242.976 64.0956C243.368 64.2987 243.292 64.8237 242.846 64.9895C241.986 65.3092 240.473 65.5072 240.285 65.3248L240.284 65.3247ZM196.804 64.2565C196.724 64.1073 196.725 63.6091 196.805 62.9503C196.877 62.3645 196.905 60.9266 196.871 59.755C196.797 57.2316 196.489 55.5787 195.599 52.9087C195.261 51.8954 194.985 50.9404 194.985 50.7865C194.985 50.3877 195.651 50.2333 195.863 50.5827C196.161 51.0734 196.792 52.8517 197.189 54.3222C197.857 56.7929 198.061 58.6129 197.97 61.2861C197.877 64.0312 197.799 64.3984 197.294 64.4561C197.054 64.4841 196.89 64.4162 196.804 64.2564L196.804 64.2565ZM238.153 63.2566C237.938 63.0491 237.941 62.6863 238.16 62.5146C238.255 62.44 238.847 62.2782 239.476 62.1552C240.693 61.9172 241.02 61.9868 241.02 62.4844C241.02 62.8332 240.776 62.9638 239.683 63.2011C238.496 63.4587 238.367 63.4633 238.153 63.257L238.153 63.2566ZM235.754 62.1168C235.372 62.0369 235.289 61.5372 235.615 61.2818C235.932 61.0343 237.851 60.6747 238.189 60.7997C238.518 60.9222 238.603 61.2805 238.36 61.5156C238.128 61.7398 236.143 62.1977 235.754 62.1168H235.754ZM233.447 60.7972C232.874 60.4097 233.263 59.9864 234.41 59.7488C235.721 59.4774 236.158 59.4979 236.269 59.8367C236.412 60.2718 236.053 60.5025 234.834 60.7579C233.867 60.9608 233.695 60.9656 233.447 60.7978L233.447 60.7972ZM230.963 59.2986C230.79 58.9867 230.903 58.6565 231.212 58.5679C232.062 58.3246 233.382 58.0974 233.585 58.1596C233.718 58.2009 233.863 58.3259 233.908 58.4383C234.078 58.8652 233.746 59.1082 232.684 59.3335C231.351 59.6166 231.137 59.6123 230.963 59.2989L230.963 59.2986ZM228.718 57.7489C228.662 57.693 228.615 57.5058 228.615 57.3334C228.615 56.9576 228.882 56.8285 230.194 56.5697C231.282 56.3552 231.647 56.4525 231.647 56.9585C231.647 57.233 231.538 57.3126 230.923 57.4891C230.024 57.7471 228.856 57.8848 228.718 57.7488V57.7489ZM195.616 44.6013C195.097 44.2352 195.413 43.9484 197.397 42.982C199.479 41.9681 200.572 41.2975 202.082 40.1096C203.104 39.3057 205.417 37.0502 206.054 36.2364C206.491 35.6785 206.891 35.5277 207.185 35.8109C207.517 36.1325 207.432 36.3326 206.531 37.3506C204.666 39.4578 202.701 41.1554 200.553 42.5161C199.52 43.1703 196.283 44.7766 195.997 44.7766C195.924 44.7766 195.752 44.6981 195.616 44.6014L195.616 44.6013ZM303.237 35.5714C303.953 35.256 303.958 34.0616 303.244 33.7473C302.775 33.5409 302.298 33.7462 302.083 34.2472C301.81 34.8839 302.136 35.4945 302.865 35.7145C302.88 35.7192 303.048 35.6546 303.237 35.5714L303.237 35.5714ZM284.326 197.064C284.13 196.875 284.096 193.801 284.286 193.511C284.466 193.237 285.076 193.431 285.176 193.794C285.222 193.959 285.26 194.727 285.262 195.499C285.263 196.929 285.169 197.223 284.712 197.223C284.591 197.223 284.417 197.152 284.326 197.064L284.326 197.064ZM287.611 196.167C287.407 195.798 287.426 192.925 287.633 192.723C287.858 192.506 288.095 192.523 288.354 192.773C288.525 192.938 288.571 193.297 288.571 194.493C288.571 195.324 288.533 196.098 288.486 196.214C288.369 196.509 287.782 196.478 287.61 196.167L287.611 196.167ZM290.668 195.593C290.462 195.351 290.392 192.216 290.588 192.026C290.674 191.944 290.891 191.896 291.069 191.92C291.327 191.956 291.413 192.073 291.49 192.497C291.639 193.314 291.621 195.213 291.461 195.502C291.3 195.793 290.881 195.842 290.669 195.592L290.668 195.593ZM293.336 194.884C293.165 194.718 293.12 194.36 293.12 193.164C293.12 192.333 293.157 191.559 293.204 191.443C293.321 191.148 293.908 191.179 294.08 191.489C294.285 191.859 294.266 194.732 294.058 194.933C293.833 195.15 293.596 195.134 293.337 194.884L293.336 194.884ZM295.881 194.436C295.677 194.067 295.695 191.194 295.903 190.993C296.152 190.753 296.537 190.8 296.698 191.09C296.85 191.364 296.898 194.128 296.757 194.483C296.64 194.778 296.053 194.746 295.881 194.436L295.881 194.436ZM207.817 183.21C207.752 183.046 207.592 182.468 207.459 181.926C207.032 180.181 206.415 179.063 204.529 176.618C203.349 175.088 203.204 174.705 203.694 174.409C204.011 174.217 204.277 174.466 205.587 176.186C206.844 177.836 207.628 179.116 208.125 180.331C208.53 181.32 208.861 182.948 208.726 183.287C208.591 183.627 207.959 183.573 207.817 183.21L207.817 183.21ZM336.95 179.262C336.137 178.931 336.054 178.861 336.054 178.508C336.054 177.968 336.478 177.935 337.656 178.381C338.626 178.749 338.919 179.082 338.598 179.455C338.365 179.727 337.981 179.682 336.95 179.262V179.262ZM224.421 178.774C224.158 178.52 224.144 178.266 224.381 178.076C224.664 177.849 228.159 176.879 229.495 176.657C230.938 176.417 232.324 176.397 233.525 176.6C234.47 176.759 234.725 176.942 234.656 177.412C234.616 177.682 234.544 177.714 234.059 177.68C233.756 177.659 232.702 177.63 231.716 177.615C229.768 177.587 229.209 177.68 226.353 178.517C225.476 178.773 224.732 178.983 224.698 178.983C224.665 178.983 224.54 178.889 224.421 178.774L224.421 178.774ZM334.676 176.233C333.71 175.848 333.452 175.597 333.652 175.237C333.839 174.899 334.3 174.925 335.358 175.334C336.283 175.692 336.568 176.029 336.255 176.393C336.027 176.659 335.645 176.62 334.676 176.234L334.676 176.233ZM332.953 173.546C332.132 173.219 332.057 173.155 332.057 172.791C332.057 172.242 332.475 172.207 333.666 172.659C334.409 172.94 334.626 173.087 334.695 173.351C334.866 174.011 334.283 174.077 332.953 173.546H332.953ZM331.65 171.005C330.627 170.605 330.289 170.236 330.607 169.866C330.844 169.59 331.075 169.617 332.177 170.048C333.214 170.454 333.462 170.707 333.229 171.126C333.036 171.475 332.805 171.457 331.65 171.005V171.005ZM241.544 170.214C241.281 169.851 241.455 165.99 241.748 165.708C241.998 165.466 242.48 165.582 242.568 165.906C242.602 166.032 242.591 167.024 242.546 168.111C242.471 169.852 242.43 170.11 242.197 170.275C241.85 170.52 241.76 170.511 241.544 170.214L241.544 170.214ZM200.985 168.553C200.841 168.337 200.823 168.115 200.915 167.666C201.258 165.977 200.984 163.812 200.074 161.045C199.474 159.219 199.44 158.986 199.739 158.746C199.904 158.613 200.008 158.621 200.266 158.783C200.511 158.939 200.722 159.417 201.168 160.828C201.974 163.381 202.198 164.736 202.113 166.534C202.075 167.339 201.979 168.155 201.901 168.346C201.708 168.82 201.235 168.927 200.985 168.553L200.985 168.553ZM329.645 167.945C328.832 167.614 328.749 167.544 328.749 167.19C328.749 166.822 328.779 166.801 329.3 166.815C329.603 166.823 330.208 166.984 330.644 167.173C331.296 167.457 331.437 167.576 331.437 167.844C331.437 168.438 330.926 168.467 329.645 167.945V167.945ZM244.185 167.861C244.05 167.704 244.03 167.169 244.098 165.564C244.173 163.814 244.225 163.445 244.422 163.306C244.725 163.091 244.814 163.096 245.075 163.348C245.259 163.525 245.278 163.85 245.208 165.578C245.135 167.378 245.095 167.625 244.85 167.833C244.511 168.119 244.411 168.123 244.186 167.861L244.185 167.861ZM328.06 164.749C327.27 164.439 327.087 164.311 327.053 164.043C326.972 163.403 327.33 163.332 328.494 163.755C329.634 164.17 329.948 164.453 329.699 164.837C329.472 165.186 329.124 165.168 328.06 164.75L328.06 164.749ZM247.911 164.804C247.729 164.592 247.702 162.556 247.863 161.104C247.951 160.309 248.212 159.993 248.647 160.154C248.958 160.27 248.995 160.647 248.893 162.72C248.812 164.387 248.766 164.654 248.536 164.817C248.203 165.052 248.123 165.051 247.911 164.804L247.911 164.804ZM251.906 162.005C251.771 161.847 251.759 161.344 251.855 159.722C251.958 157.966 252.015 157.619 252.219 157.495C252.394 157.389 252.526 157.39 252.701 157.498C252.918 157.632 252.938 157.865 252.896 159.761C252.87 160.957 252.789 161.946 252.707 162.041C252.512 162.268 252.117 162.25 251.906 162.005L251.906 162.005ZM327.25 161.738C326.279 161.349 326.061 161.189 326.061 160.864C326.061 160.376 326.52 160.322 327.531 160.689C328.656 161.098 328.818 161.214 328.818 161.61C328.818 162.158 328.384 162.193 327.25 161.738L327.25 161.738ZM284.115 161.72C284.064 161.67 284.022 161.492 284.022 161.321C284.022 161.066 284.221 160.919 285.159 160.477C287.327 159.456 289.07 157.89 290.305 155.854C290.581 155.399 290.931 154.988 291.083 154.942C291.46 154.826 291.799 155.175 291.695 155.573C291.556 156.103 290.228 157.939 289.286 158.904C287.653 160.576 284.633 162.22 284.114 161.72L284.115 161.72ZM255.901 160.273C255.769 160.118 255.745 159.593 255.805 158.109C255.849 157.031 255.925 156.051 255.973 155.93C256.097 155.624 256.559 155.535 256.802 155.77C257.091 156.05 256.937 159.895 256.623 160.244C256.365 160.531 256.131 160.54 255.901 160.273L255.901 160.273ZM326.445 159.907C325.537 159.567 325.16 159.257 325.281 158.953C325.43 158.579 325.808 158.56 326.775 158.877C327.827 159.223 328.033 159.389 327.967 159.837C327.905 160.255 327.432 160.277 326.445 159.907V159.907ZM325.246 157.568C324.309 157.183 324.033 156.924 324.175 156.564C324.33 156.176 324.663 156.178 325.671 156.572C326.754 156.995 327.047 157.273 326.805 157.648C326.582 157.991 326.233 157.973 325.246 157.568L325.246 157.568ZM260.333 157.449C260.169 157.167 260.296 153.46 260.482 153.113C260.568 152.951 260.732 152.886 260.98 152.913L261.35 152.955L261.333 155.118C261.315 157.364 261.239 157.681 260.72 157.681C260.581 157.681 260.407 157.577 260.334 157.449L260.333 157.449ZM280.567 157.204C280.282 156.872 280.548 156.611 281.846 155.95C284.016 154.845 285.483 153.522 286.653 151.616C287.237 150.664 287.653 150.339 288.012 150.553C288.847 151.052 285.978 154.743 283.629 156.194C282.486 156.9 281.372 157.415 280.99 157.415C280.858 157.415 280.667 157.32 280.567 157.204L280.567 157.204ZM324.407 155.335C323.431 154.975 323.159 154.742 323.264 154.355C323.378 153.934 323.733 153.924 324.798 154.313C325.897 154.714 326.261 155.091 325.927 155.481C325.695 155.75 325.474 155.729 324.407 155.335V155.335ZM264.861 155.347C264.727 155.191 264.708 154.676 264.782 153.143C264.835 152.043 264.911 151.062 264.95 150.963C265.062 150.683 265.535 150.626 265.781 150.865C265.969 151.046 265.991 151.281 265.918 152.351C265.87 153.049 265.831 153.961 265.83 154.377C265.829 155.387 265.327 155.89 264.861 155.348L264.861 155.347ZM323.342 152.659C322.454 152.304 322.179 151.97 322.483 151.617C322.709 151.354 323.002 151.373 323.947 151.713C324.984 152.086 325.119 152.193 325.069 152.61C325.012 153.084 324.448 153.1 323.342 152.658L323.342 152.659ZM322.905 150.657C321.974 150.271 321.689 150.002 321.831 149.644C321.951 149.341 322.567 149.368 323.458 149.716C324.441 150.099 324.567 150.206 324.517 150.613C324.46 151.094 323.993 151.107 322.905 150.657L322.905 150.657ZM275.048 150.462C274.901 150.197 274.937 150.125 275.405 149.763C277.424 148.2 278.017 147.336 278.009 145.965C278.003 144.817 277.599 144.01 276.623 143.196C276.037 142.708 275.887 142.503 275.919 142.239C276.011 141.476 277.205 141.962 278.117 143.135C278.827 144.047 279.131 144.924 279.123 146.031C279.111 147.604 278.288 148.966 276.617 150.178C275.727 150.824 275.292 150.903 275.047 150.462L275.048 150.462ZM322.027 148.933C321.3 148.665 321.076 148.517 321.01 148.264C320.956 148.054 321.003 147.864 321.144 147.728C321.343 147.535 321.455 147.552 322.431 147.92C323.59 148.357 323.879 148.615 323.634 148.994C323.414 149.332 323.074 149.32 322.027 148.934L322.027 148.933ZM321.06 146.806C319.979 146.41 319.742 146.133 320.111 145.693L320.359 145.397L321.436 145.781C322.591 146.192 322.961 146.561 322.619 146.959C322.385 147.231 322.163 147.21 321.06 146.806L321.06 146.806ZM320.548 145.247C319.221 144.782 319.187 144.764 319.095 144.481C318.995 144.178 319.244 143.834 319.562 143.834C319.978 143.834 321.668 144.548 321.795 144.778C321.885 144.941 321.852 145.089 321.683 145.284L321.444 145.561L320.548 145.247L320.548 145.247ZM247.05 145.284C246.848 145.174 246.809 144.956 246.809 143.965C246.809 142.929 246.843 142.761 247.074 142.641C247.423 142.46 247.757 142.594 247.85 142.953C247.892 143.111 247.907 143.651 247.884 144.154C247.85 144.893 247.79 145.101 247.566 145.242C247.374 145.364 247.218 145.376 247.05 145.284L247.05 145.284ZM249.156 145.041C249.003 144.764 248.96 143.06 249.097 142.713C249.145 142.591 249.342 142.502 249.565 142.502C249.788 142.502 249.984 142.59 250.033 142.713C250.186 143.1 250.124 144.972 249.951 145.139C249.703 145.379 249.317 145.331 249.157 145.041L249.156 145.041ZM251.23 145.111C251.128 144.993 251.084 144.521 251.11 143.827C251.142 142.955 251.2 142.7 251.392 142.583C251.567 142.477 251.699 142.477 251.874 142.583C252.066 142.699 252.124 142.955 252.156 143.827C252.197 144.971 252.081 145.298 251.633 145.298C251.499 145.298 251.319 145.214 251.23 145.111L251.23 145.111ZM244.224 145.077C244.043 145.006 243.972 142.992 244.136 142.58C244.253 142.285 244.84 142.316 245.012 142.626C245.091 142.768 245.155 143.281 245.155 143.767C245.155 144.995 244.908 145.343 244.225 145.077L244.224 145.077ZM254.003 144.872C253.9 144.772 253.838 144.275 253.838 143.545C253.838 142.482 253.864 142.364 254.139 142.223C254.639 141.964 254.941 142.465 254.941 143.552C254.941 144.741 254.504 145.356 254.003 144.872V144.872ZM256.102 144.322C256.063 144.225 256.05 143.611 256.072 142.958C256.112 141.772 256.113 141.77 256.491 141.728C256.962 141.676 257.146 142.061 257.146 143.101C257.146 144.092 256.965 144.499 256.524 144.499C256.331 144.499 256.14 144.419 256.102 144.322L256.102 144.322ZM258.206 143.547C258.015 143.443 257.973 143.21 257.973 142.246C257.973 140.988 258.122 140.672 258.64 140.831C258.969 140.933 259.071 141.274 259.073 142.278C259.076 143.372 258.754 143.843 258.206 143.547H258.206ZM319.376 143.346C318.922 143.161 318.472 142.948 318.377 142.873C318.143 142.687 318.161 142.371 318.421 142.093C318.621 141.88 318.6 141.851 318.145 141.706C317.49 141.497 317.304 141.156 317.631 140.766L317.879 140.47L318.956 140.853C320.212 141.301 320.552 141.695 320.034 142.101L319.736 142.334L320.28 142.54C320.873 142.765 321.085 143.082 320.867 143.419C320.66 143.738 320.297 143.72 319.377 143.346L319.376 143.346ZM260.113 142.42C259.848 142.165 259.812 140.113 260.068 139.866C260.292 139.649 260.529 139.665 260.788 139.915C260.948 140.07 261.004 140.393 261.003 141.147C261.002 141.709 260.955 142.233 260.899 142.312C260.713 142.574 260.328 142.628 260.113 142.42L260.113 142.42ZM261.407 140.813C261.223 140.352 261.301 138.702 261.516 138.493C261.607 138.406 261.826 138.378 262.033 138.428L262.393 138.516L262.353 139.811L262.313 141.105L261.934 141.147C261.626 141.182 261.527 141.118 261.405 140.815L261.407 140.813ZM317.884 139.859C316.88 139.463 316.683 139.29 316.789 138.897C316.901 138.484 317.3 138.481 318.358 138.887C319.463 139.31 319.741 139.567 319.499 139.939C319.274 140.287 318.925 140.269 317.884 139.859V139.859ZM374.825 56.0024C374.519 55.9252 374.373 55.4661 374.579 55.2266C374.668 55.1228 375.092 54.9039 375.521 54.7394C376.572 54.3367 378.944 54.3194 380.091 54.7062C380.783 54.9394 380.849 54.9968 380.849 55.3612C380.849 55.7404 380.822 55.76 380.298 55.7485C379.995 55.7419 379.412 55.6673 379.004 55.5821C377.954 55.3639 376.964 55.3973 376.163 55.678C375.784 55.8111 375.381 55.9516 375.267 55.9907C375.153 56.0293 374.955 56.0346 374.826 56.0024L374.825 56.0024ZM374.234 53.0327C373.952 52.1746 375.689 51.0343 377.998 50.5616C379.297 50.2956 379.775 50.3126 379.951 50.6322C380.165 51.018 379.727 51.3773 378.903 51.4925C377.267 51.7211 376.004 52.2155 375.344 52.8864C374.879 53.3599 374.363 53.428 374.234 53.0333L374.234 53.0327ZM373.429 50.8121C373.05 50.446 374.048 48.9148 375.278 47.9754C376.336 47.1679 377.851 46.3506 378.201 46.3987C378.437 46.4307 378.506 46.5292 378.506 46.8341C378.506 47.1832 378.382 47.3007 377.403 47.8758C376.208 48.5781 375.021 49.6086 374.493 50.4015C374.178 50.8745 373.689 51.0632 373.429 50.812L373.429 50.8121ZM371.695 49.5337C371.438 48.88 371.914 47.1835 372.733 45.8336C373.455 44.643 375.5 42.6461 375.997 42.6461C376.128 42.6461 376.507 43.0568 376.507 43.1986C376.507 43.2718 376.011 43.8064 375.404 44.3853C373.771 45.9444 373.048 47.1283 372.792 48.6659C372.719 49.1042 372.587 49.5468 372.499 49.6493C372.254 49.9337 371.829 49.8724 371.695 49.5335L371.695 49.5337Z" fill="black"/>
<path d="M202.452 195.979C201.453 195.36 200.023 194.056 199.357 193.154C196.579 189.392 196.574 184.789 199.346 181.037C200.091 180.029 201.96 178.294 202.302 178.294C202.678 178.294 203.818 179.056 204.605 179.835C205.951 181.167 206.806 183.078 206.954 185.084L207.037 186.216L206.531 186.392C206.254 186.49 205.695 186.881 205.291 187.262C204.459 188.047 203.59 189.646 203.22 191.075C202.911 192.266 202.8 194.282 202.981 195.396C203.064 195.905 203.118 196.33 203.102 196.342C203.086 196.353 202.794 196.19 202.453 195.979L202.452 195.979ZM221.128 194.87C219.532 194.525 217.953 193.812 216.615 192.832C215.913 192.317 215.81 192.14 216.213 192.14C216.719 192.14 218.667 191.593 219.499 191.217C221.284 190.41 223.119 188.931 223.868 187.696C224.078 187.35 224.328 186.695 224.424 186.242C224.596 185.426 224.605 185.414 225.247 185.184C226.693 184.665 229.083 184.653 230.648 185.156C231.632 185.472 232.911 186.19 233.445 186.726L233.907 187.189L233.606 187.967C232.554 190.69 230.31 193.087 227.755 194.216C225.921 195.028 223.133 195.302 221.128 194.87L221.128 194.87ZM190.43 178.761C188.805 176.645 187.927 173.577 188.244 171.129C188.799 166.858 191.762 163.627 196.451 162.18C196.993 162.013 196.998 162.014 197.456 162.526C198.035 163.173 198.662 164.409 198.935 165.44C199.334 166.953 199.121 169.427 198.48 170.704C198.263 171.137 198.19 171.176 197.46 171.252C195.96 171.408 194.411 172.429 193.058 174.152C192.232 175.203 191.393 176.836 191.066 178.027C190.935 178.503 190.792 178.933 190.748 178.982C190.704 179.031 190.561 178.931 190.43 178.761L190.43 178.761ZM189.083 156.12C189.083 153.514 190.299 150.772 192.32 148.819C195.123 146.112 199.152 145.276 203.518 146.498C204.467 146.763 204.519 146.798 204.603 147.232C204.826 148.379 204.31 150.408 203.445 151.784C202.831 152.761 201.504 154.096 200.686 154.559L200.092 154.896L199.377 154.551C198.289 154.027 197.478 153.88 196.203 153.976C194.966 154.069 193.7 154.384 192.516 154.895C191.63 155.276 189.942 156.323 189.569 156.721C189.166 157.151 189.083 157.048 189.083 156.12L189.083 156.12ZM203.39 82.5626C199.906 82.0322 196.866 79.8274 195.157 76.5909C194.989 76.2742 194.879 75.9892 194.912 75.9577C194.945 75.9257 195.149 75.9657 195.367 76.0456C196.758 76.5565 200.139 76.5886 201.853 76.1068C203.53 75.6359 205.286 74.4597 205.56 73.6228C205.643 73.3694 205.721 73.3521 206.416 73.4311C208.348 73.6504 210.479 74.7099 211.803 76.109C212.492 76.837 213.341 78.2745 213.341 78.7122C213.341 79.1973 210.85 81.0317 209.281 81.7021C207.463 82.4787 205.104 82.8231 203.39 82.562L203.39 82.5626ZM184.761 68.5517C182.165 64.0095 183.175 58.5451 187.189 55.4074C188.531 54.3582 190.049 53.644 192.003 53.1421C192.92 52.9064 192.925 52.9067 193.194 53.19C193.65 53.6705 194.332 55.1267 194.536 56.0541C194.919 57.8021 194.713 59.6522 193.952 61.2903C193.597 62.0551 193.589 62.0617 193.007 62.0617C190.256 62.0617 186.828 65.1375 185.697 68.619C185.561 69.04 185.401 69.3845 185.343 69.3845C185.285 69.3845 185.023 69.0101 184.761 68.5524L184.761 68.5517ZM265.986 67.9157C262.972 67.5068 260.01 66.0624 258.541 64.2843C254.92 59.9022 256.599 53.7251 261.806 52.2744C262.561 52.0641 262.965 51.8625 263.343 51.5071C263.959 50.9285 265.37 50.2681 266.391 50.0811C268.595 49.6774 270.759 50.2207 271.886 51.4604C272.384 52.0077 272.884 53.2277 272.884 53.8934C272.884 54.3454 272.865 54.3655 272.505 54.2835C270.677 53.8671 269.21 54.1319 268.423 55.0203C266.762 56.8939 267.999 60.2668 270.891 61.7503C272.595 62.6244 274.73 62.8237 277.088 62.3286C283.366 61.0102 287.129 60.3978 291.78 59.9369C294.677 59.65 300.851 59.3541 302.518 59.4224L303.551 59.465L304.737 61.6191L305.922 63.7731L304.944 63.8463C304.405 63.8863 302.88 63.9529 301.553 63.9932C292.709 64.2636 283.534 65.3346 276.276 66.9438C275.13 67.1977 273.542 67.5216 272.746 67.6636C271.073 67.9621 267.351 68.1012 265.986 67.9161L265.986 67.9157ZM194.596 40.2689C193.322 38.6237 190.621 37.7127 187.498 37.8744C186.664 37.917 185.652 38.0486 185.248 38.1653C184.845 38.2825 184.454 38.3583 184.38 38.3344C184.17 38.2665 185.047 36.7373 185.863 35.7487C188.148 32.9783 191.332 31.5523 194.797 31.7473C195.558 31.79 196.553 31.9231 197.008 32.0428C198.054 32.3178 199.906 33.1854 200.762 33.8008C201.609 34.4105 202.728 35.4499 202.728 35.6275C202.728 35.9393 201.904 37.405 201.404 37.9844C200.005 39.6037 197.438 40.8915 195.61 40.8915C195.137 40.8915 195.024 40.8223 194.596 40.2689L194.596 40.2689ZM210.396 32.5299C210.074 32.454 209.95 32.3031 209.72 31.7049C209.511 31.1583 209.191 30.7343 208.461 30.0331C206.808 28.4451 204.4 27.5043 201.6 27.3522L200.128 27.2723L200.566 26.7523C201.242 25.952 203.024 24.6194 204.137 24.0822C205.832 23.2644 207.08 22.9904 209.068 22.9992C210.63 23.0061 210.911 23.0458 212.079 23.4298C214.722 24.2983 216.563 25.7033 218.184 28.0903C218.938 29.2001 218.943 29.1541 217.951 30.2207C217.203 31.0237 215.857 31.8299 214.582 32.2388C213.64 32.5406 211.171 32.7125 210.396 32.5302V32.5299Z" fill="#0F47AF"/>
<path d="M202.667 196.53C200.61 195.245 199.112 193.635 198.128 191.651C197.26 189.901 197.025 188.894 197.039 186.971C197.057 184.562 197.646 182.841 199.196 180.668C199.906 179.673 202.101 177.588 202.441 177.586C202.879 177.583 204.366 178.508 205.167 179.282C206.749 180.81 207.659 182.833 207.795 185.127L207.875 186.479L207.112 186.828C204.693 187.933 203.265 191.828 203.873 195.658L204.069 196.89L203.644 196.882C203.41 196.878 202.97 196.719 202.667 196.53L202.667 196.53ZM203.013 190.695C203.598 188.679 204.66 187.02 205.85 186.258C206.21 186.028 206.564 185.839 206.637 185.839C206.837 185.839 206.62 184.094 206.301 183.139C205.736 181.452 204.427 179.806 203.007 179L202.569 178.751L201.367 179.932C198.967 182.29 197.949 184.86 198.206 187.91C198.405 190.263 199.412 192.248 201.345 194.094L202.529 195.226L202.619 193.486C202.678 192.325 202.809 191.397 203.014 190.694L203.013 190.695ZM222.653 195.542C220.111 195.322 218.05 194.403 215.345 192.284L214.819 191.872L216.117 191.64C218.496 191.213 219.768 190.729 221.397 189.629C223.053 188.511 224.067 187.112 224.224 185.731L224.306 185L225.16 184.692C226.771 184.11 229.2 184.022 230.785 184.488C232.182 184.898 233.556 185.675 234.411 186.539L234.868 187L234.381 188.166C233.188 191.025 231.111 193.302 228.576 194.531C226.944 195.322 224.647 195.714 222.652 195.542L222.653 195.542ZM225.763 194.303C228.859 193.669 231.361 191.701 232.872 188.711C233.202 188.058 233.472 187.45 233.472 187.36C233.472 187.09 232.573 186.415 231.653 185.996C230.38 185.415 229.457 185.259 227.801 185.344C226.02 185.436 225.34 185.632 225.34 186.056C225.34 186.576 224.811 187.759 224.271 188.449C222.949 190.136 220.861 191.503 218.483 192.239L217.483 192.549L218.127 192.937C220.351 194.273 223.316 194.804 225.762 194.303L225.763 194.303ZM190.383 179.139C189.247 177.49 189.159 177.342 188.763 176.401C187.75 173.992 187.651 171.181 188.496 168.797C189.693 165.421 192.359 163.031 196.457 161.659L197.414 161.339L197.839 161.737C198.418 162.278 199.118 163.424 199.531 164.504C199.796 165.2 199.889 165.746 199.941 166.933C200.015 168.623 199.833 169.669 199.243 170.96L198.907 171.693L198.03 171.748C196.89 171.818 196.041 172.223 194.932 173.226C193.341 174.664 192.384 176.325 191.702 178.832C191.486 179.628 191.29 180.298 191.267 180.32C191.243 180.343 190.846 179.811 190.383 179.139L190.383 179.139ZM191.008 177.173C191.272 176.321 192.28 174.518 192.991 173.625C194.255 172.039 195.701 171.06 197.35 170.674L198.256 170.461L198.526 169.729C198.734 169.163 198.797 168.634 198.801 167.399C198.808 165.582 198.541 164.585 197.733 163.402C197.327 162.809 197.23 162.741 196.81 162.762C196.121 162.795 193.71 164.007 192.656 164.851C191.012 166.166 189.776 168.069 189.301 170.018C189.029 171.128 189.035 173.231 189.313 174.429C189.53 175.366 190.552 177.717 190.743 177.717C190.795 177.717 190.915 177.472 191.008 177.173L191.008 177.173ZM188.849 156.214C188.914 154.454 188.973 154.073 189.345 152.993C190.084 150.849 190.857 149.651 192.421 148.227C194.404 146.42 196.643 145.518 199.44 145.398C201.211 145.322 202.296 145.459 204.141 145.989L205.34 146.333L205.432 147.047C205.599 148.341 205.248 150.114 204.568 151.411C203.785 152.904 202.308 154.42 200.933 155.143L200.248 155.503L199.618 155.101C197.402 153.683 193.256 154.594 190.056 157.202C188.621 158.37 188.765 158.488 188.849 156.214V156.214ZM192.135 154.546C192.559 154.339 193.427 154.002 194.065 153.798C195.081 153.473 195.437 153.426 196.947 153.423C198.553 153.419 198.728 153.444 199.516 153.797C200.324 154.157 200.38 154.165 200.784 153.963C201.896 153.407 203.476 151.428 203.96 149.983C204.27 149.06 204.458 147.51 204.29 147.271C204.1 147.001 202.035 146.554 200.6 146.472C196.694 146.251 193.213 148.078 191.254 151.376C190.771 152.191 190.107 154.154 189.991 155.114L189.899 155.877L190.632 155.399C191.035 155.137 191.712 154.752 192.135 154.545L192.135 154.546ZM203.337 82.9905C202.057 82.7662 201.496 82.5871 200.324 82.0284C198.527 81.172 196.932 79.8117 195.75 78.1277C195.308 77.4985 194.006 75.0655 194.111 75.0655C194.144 75.0655 194.905 75.2485 195.801 75.4722C198.21 76.074 200.731 76.0232 202.631 75.3343C203.808 74.9076 204.675 74.2877 205.217 73.4865L205.699 72.773L206.648 72.8568C209.544 73.1123 212.44 74.9606 213.656 77.3291C214.499 78.9702 214.517 78.8777 213.14 80.0265C210.125 82.5422 206.695 83.5794 203.337 82.9907L203.337 82.9905ZM208.414 81.4992C209.788 81.034 211.39 80.1149 212.395 79.2147L213.088 78.5937L212.721 77.8897C211.725 75.9765 209.385 74.3718 207.085 74.0234L206.335 73.9102L205.916 74.4738C204.617 76.2205 201.039 77.3078 197.771 76.9488C196.991 76.8636 196.332 76.814 196.306 76.8397C196.223 76.9196 197.363 78.4368 197.96 79.0393C199.179 80.2708 201.14 81.375 202.847 81.791C203.382 81.9215 204.202 81.9699 205.424 81.9438C207.007 81.9106 207.355 81.8586 208.414 81.4999L208.414 81.4992ZM184.997 69.5067C183.572 67.1623 183.116 65.643 183.109 63.2158C183.103 60.8931 183.584 59.2631 184.813 57.4451C186.297 55.2491 188.568 53.6377 191.365 52.7968C193.304 52.214 193.409 52.2138 193.906 52.7937C195.777 54.9744 196.093 58.7987 194.637 61.618L194.122 62.6165L193.526 62.5726C192.04 62.4648 190.018 63.5431 188.61 65.1947C187.546 66.442 186.981 67.4449 186.393 69.126C186.096 69.9758 185.82 70.671 185.779 70.671C185.739 70.671 185.387 70.1468 184.997 69.506L184.997 69.5067ZM185.953 67.1768C186.884 65.2895 188.571 63.3826 190.185 62.3935C190.914 61.9463 192.359 61.4849 193.03 61.4849C193.594 61.4849 193.8 61.1623 194.198 59.6585C194.674 57.8598 194.46 55.9416 193.61 54.3939C193.179 53.6081 193.129 53.565 192.694 53.5985C192.054 53.6478 189.961 54.426 188.999 54.972C188.558 55.2222 187.69 55.9165 187.07 56.5149C186.153 57.4003 185.826 57.8342 185.312 58.8449C184.47 60.5007 184.224 61.4927 184.229 63.2157C184.232 64.7456 184.481 65.9473 185.076 67.3083C185.275 67.7652 185.447 68.1397 185.457 68.1405C185.468 68.1415 185.691 67.7076 185.953 67.1767L185.953 67.1768ZM265.918 68.3568C260.108 67.4371 256.357 63.8007 256.356 59.0884C256.356 58.466 256.45 57.5735 256.564 57.105C257.191 54.5374 259.361 52.3522 261.924 51.7072C262.444 51.5767 262.904 51.3458 263.253 51.0412C264.827 49.6671 267.736 49.0228 269.904 49.5682C272.205 50.1472 273.451 51.558 273.746 53.9196C273.819 54.5048 273.851 55.0107 273.817 55.044C273.782 55.0772 273.298 54.9828 272.74 54.8331C271.044 54.3791 269.948 54.5116 269.215 55.2593C268.345 56.1465 268.286 57.47 269.05 58.947C269.777 60.3517 271.474 61.531 273.295 61.8961C274.391 62.1159 276.561 61.9746 278.282 61.57C285.469 59.8837 294.772 58.8301 302.533 58.8234L304.126 58.8219L305.462 61.2449C306.197 62.5776 306.798 63.7995 306.798 63.9602C306.798 64.2329 306.717 64.2576 305.592 64.331C304.929 64.3735 303.27 64.4442 301.905 64.486C297.534 64.6206 292.116 65.031 287.846 65.551C283.857 66.0368 278.047 67.0386 275.497 67.6804C272.572 68.4166 268.231 68.7229 265.917 68.3565L265.918 68.3568ZM270.844 67.3384C272.382 67.1898 273.968 66.9278 275.213 66.6168C276.382 66.3249 279.732 65.6692 281.989 65.2908C287.974 64.2872 295.07 63.6045 301.63 63.4012C303.297 63.3493 304.791 63.272 304.95 63.2282C305.222 63.1537 305.193 63.0689 304.422 61.6847C303.973 60.8792 303.558 60.1719 303.499 60.1128C303.345 59.9585 298.269 59.985 295.689 60.1541C290.14 60.5169 284.704 61.2924 278.819 62.5609C276.113 63.1441 274.164 63.2495 272.736 62.8902C270.238 62.2618 268.307 60.6051 267.63 58.5108C266.984 56.5121 267.643 54.6668 269.308 53.811C269.688 53.6157 270.09 53.5631 271.202 53.5631C272.794 53.5631 272.741 53.623 272.178 52.4651C271.442 50.952 269.335 50.1734 267.019 50.5583C265.37 50.8324 263.962 51.6259 263.449 52.5712C262.924 53.5398 262.636 54.7741 262.644 56.0263C262.656 57.9249 263.239 59.1047 264.706 60.199C265.477 60.7743 265.64 61.166 265.242 61.485C264.925 61.7391 264.293 61.4251 263.376 60.5587C262.518 59.7476 261.865 58.6306 261.59 57.5036C261.368 56.5943 261.484 54.4708 261.802 53.5893C261.929 53.2375 262.002 52.9185 261.963 52.8806C261.772 52.6959 260.205 53.6164 259.414 54.3786C256.363 57.3156 256.97 62.5347 260.667 65.167C263.282 67.028 266.641 67.7448 270.844 67.3386L270.844 67.3384ZM194.755 41.0062C194.198 39.9505 192.904 39.125 191.02 38.6237C190.34 38.4426 189.676 38.3899 188.264 38.4045C186.652 38.4219 186.206 38.4778 184.933 38.8235L183.463 39.2231L184.076 38.0051C185.474 35.2263 187.17 33.4633 189.577 32.2865C191.383 31.4037 192.352 31.1944 194.604 31.2017C196.492 31.2077 196.675 31.2323 197.909 31.6421C199.885 32.2986 201.783 33.4333 203.122 34.759L203.714 35.3456L203.41 36.1296C202.297 39.0037 199.335 41.0719 195.813 41.4342L195.024 41.5154L194.755 41.0063L194.755 41.0062ZM197.085 40.1177C198.378 39.7858 199.76 39.039 200.652 38.1902C201.481 37.4024 202.319 36.1849 202.321 35.7661C202.323 35.4587 201.027 34.3723 199.838 33.6843C199.294 33.3694 198.281 32.9239 197.588 32.6945C196.446 32.3168 196.164 32.2766 194.604 32.2702C193.17 32.2642 192.708 32.3155 191.852 32.5739C189.866 33.174 188.157 34.2509 186.901 35.6935C186.272 36.4163 185.593 37.3844 185.67 37.4489C185.694 37.4689 186.055 37.4381 186.472 37.3797C190.009 36.8819 193.656 37.8598 195.245 39.7321C195.795 40.3804 195.942 40.4114 197.085 40.1181L197.085 40.1177ZM210.661 33.0473C210.51 33.0113 210.25 32.9541 210.085 32.9208C209.861 32.8742 209.732 32.6833 209.574 32.1604C209.06 30.4554 207.133 29.0116 204.252 28.1729C203.626 27.9905 202.719 27.8853 201.237 27.8228L199.118 27.7336L200.755 26.1304C201.984 24.9263 202.666 24.375 203.494 23.9158C209.017 20.854 215.34 22.4413 218.971 27.8003L219.809 29.0382L219.273 29.8011C218.4 31.0433 216.883 32.094 215.104 32.6879C214.321 32.9495 213.768 33.0306 212.522 33.0664C211.65 33.0917 210.813 33.0824 210.661 33.0478L210.661 33.0473ZM214.474 31.744C215.597 31.4015 216.687 30.8157 217.446 30.1457C218.541 29.1795 218.553 29.132 217.912 28.2201C215.742 25.133 212.716 23.4894 209.214 23.4952C206.805 23.4994 204.676 24.2533 202.677 25.8102L201.585 26.6614L202.815 26.8154C206.185 27.2372 209.243 28.9654 210.329 31.0623C210.556 31.5016 210.848 31.906 210.978 31.9608C211.338 32.1138 213.752 31.964 214.474 31.744H214.474Z" fill="black"/>
<path d="M0.547338 201.359L-0.0996094 399.877H602.169V201.359H0.547338V201.359Z" fill="#078930" stroke="black" stroke-width="0.0107579"/>
<path d="M-0.0996094 276.944L56.1811 228.102L116.99 280.62L179.74 228.102L241.843 281.145L302.652 228.102L363.461 281.67L425.564 227.577L487.02 281.145L548.476 228.102L602.169 275.368L601.522 368.325L548.476 319.483L486.373 372.526L424.917 319.483L363.461 372.526L303.299 319.483L241.196 373.577L178.446 319.483L117.637 372.526L56.1811 318.958L-0.0996094 368.85V276.944Z" fill="#F9F9F9" stroke="black" stroke-width="0.0107579"/>
</g>
<defs>
<clipPath id="clip0_1_11340">
<rect width="600" height="400" fill="white"/>
</clipPath>
</defs>
</svg>
