<svg width="600" height="400" viewBox="0 0 600 400" fill="none" xmlns="http://www.w3.org/2000/svg" xmlns:cgf="https://coding.garden/flags"><metadata id="cgf-metadata">

<cgf:flag>
  <cgf:name>Zoeterwoude</cgf:name>
  <cgf:route>nl/zh/zoeterwoude</cgf:route>
  <cgf:aspect-ratio>1.5</cgf:aspect-ratio>
</cgf:flag>

</metadata><g clip-path="url(#clip0_1_11396)">
<path d="M600 0H0V400H600V0Z" fill="#0039A6"/>
<path d="M305.236 334.765C313.984 327.404 317.163 317.448 314.436 305.949C311.447 293.344 311.458 293.326 319.444 298.195C330.175 304.738 345.616 304.147 354.274 296.862C360.048 292.004 361.111 289.551 361.111 281.085C361.111 272.577 359.925 269.874 353.278 263.227C346.021 255.97 344.652 255.47 334.673 256.429C328.642 257.009 320.935 259.576 317.163 262.262C313.457 264.901 310.079 267.06 309.657 267.06C309.234 267.06 308.889 259.232 308.889 249.664C308.889 234.206 308.145 231.068 302.222 221.508C292.921 206.497 289.84 206.263 293.771 220.865C297.069 233.114 296.394 250.376 292.32 257.988C290.173 262 289.352 262.119 282.763 259.378C268.405 253.403 251.449 254.297 244.343 261.403C240.014 265.732 238.889 269.139 238.889 277.909C238.889 287.2 239.821 289.693 244.744 293.565C251.449 298.84 269.416 299.95 274.327 295.393C276.788 293.11 277.026 293.406 275.663 297.06C264.695 326.477 284.729 352.021 305.236 334.765Z" fill="#FCCC00"/>
<path d="M290.069 315.084C288.567 309.719 287.687 299.969 288.114 293.417L288.889 281.505H272.889C263.669 281.505 255.791 280.407 254.299 278.914C252.326 276.942 254.932 276.616 265.221 277.549C273.644 278.313 281.229 277.741 285.356 276.032C290.832 273.764 293.857 273.912 302.823 276.891C308.788 278.872 318.092 281.445 323.501 282.609C332.569 284.561 332.21 284.647 318.889 283.71C310.945 283.151 302.27 282.08 299.613 281.329C295.278 280.104 294.621 281.034 293.219 290.379C292.36 296.107 292.293 306.204 293.07 312.816C293.848 319.428 294.105 324.838 293.642 324.838C293.179 324.838 291.571 320.449 290.069 315.084Z" fill="#0039A6"/>
<path d="M156.533 166.165C165.281 158.805 168.46 148.848 165.733 137.349C162.744 124.744 162.755 124.727 170.741 129.596C181.472 136.139 196.913 135.548 205.571 128.263C211.345 123.404 212.408 120.951 212.408 112.485C212.408 103.978 211.222 101.275 204.575 94.6274C197.318 87.3709 195.949 86.8706 185.97 87.8295C179.939 88.409 172.232 90.9764 168.46 93.6625C164.754 96.3013 161.376 98.4604 160.954 98.4604C160.531 98.4604 160.186 90.632 160.186 81.0639C160.186 65.6069 159.442 62.468 153.519 52.9084C144.218 37.8975 141.136 37.6631 145.068 52.2654C148.366 64.5145 147.691 81.7761 143.617 89.3885C141.47 93.4 140.649 93.5195 134.06 90.7782C119.701 84.8038 102.746 85.6978 95.6401 92.8038C91.3113 97.1326 90.1855 100.539 90.1855 109.309C90.1855 118.601 91.1177 121.093 96.0408 124.966C102.746 130.24 120.713 131.35 125.624 126.794C128.085 124.51 128.323 124.807 126.96 128.46C115.992 157.877 136.026 183.421 156.533 166.165Z" fill="#FCCC00"/>
<path d="M141.366 146.484C139.864 141.12 138.984 131.37 139.41 124.818L140.186 112.905H124.186C114.966 112.905 107.088 111.807 105.596 110.315C103.623 108.342 106.229 108.017 116.518 108.95C124.941 109.713 132.526 109.142 136.653 107.432C142.128 105.164 145.154 105.313 154.12 108.291C160.084 110.272 169.389 112.845 174.797 114.01C183.865 115.961 183.507 116.047 170.186 115.11C162.241 114.552 153.567 113.48 150.91 112.729C146.575 111.504 145.918 112.435 144.516 121.779C143.657 127.508 143.59 137.605 144.367 144.217C145.144 150.829 145.402 156.238 144.939 156.238C144.476 156.238 142.868 151.849 141.366 146.484Z" fill="#0039A6"/>
<path d="M455.531 166.165C464.279 158.805 467.458 148.848 464.731 137.349C461.742 124.744 461.753 124.727 469.739 129.596C480.47 136.139 495.911 135.548 504.569 128.263C510.343 123.404 511.406 120.951 511.406 112.485C511.406 103.978 510.22 101.275 503.573 94.6274C496.316 87.3709 494.947 86.8706 484.968 87.8295C478.937 88.409 471.23 90.9764 467.458 93.6625C463.752 96.3013 460.374 98.4604 459.952 98.4604C459.529 98.4604 459.184 90.632 459.184 81.0639C459.184 65.6069 458.44 62.468 452.517 52.9084C443.216 37.8975 440.134 37.6631 444.066 52.2654C447.364 64.5145 446.689 81.7761 442.615 89.3885C440.468 93.4 439.647 93.5195 433.058 90.7782C418.699 84.8038 401.744 85.6978 394.638 92.8038C390.309 97.1326 389.184 100.539 389.184 109.309C389.184 118.601 390.116 121.093 395.039 124.966C401.744 130.24 419.711 131.35 424.622 126.794C427.083 124.51 427.321 124.807 425.958 128.46C414.99 157.877 435.024 183.421 455.531 166.165Z" fill="#FCCC00"/>
<path d="M440.364 146.484C438.862 141.12 437.982 131.37 438.408 124.818L439.184 112.905H423.184C413.964 112.905 406.086 111.807 404.594 110.315C402.621 108.342 405.227 108.017 415.516 108.95C423.939 109.713 431.524 109.142 435.651 107.432C441.127 105.164 444.152 105.313 453.118 108.291C459.082 110.272 468.387 112.845 473.795 114.01C482.864 115.961 482.505 116.047 469.184 115.11C461.24 114.552 452.565 113.48 449.908 112.729C445.573 111.504 444.916 112.435 443.514 121.779C442.655 127.508 442.588 137.605 443.365 144.217C444.142 150.829 444.4 156.238 443.937 156.238C443.474 156.238 441.866 151.849 440.364 146.484Z" fill="#0039A6"/>
</g>
<defs>
<clipPath id="clip0_1_11396">
<rect width="600" height="400" fill="white"/>
</clipPath>
</defs>
</svg>
