<svg width="600" height="400" viewBox="0 0 600 400" fill="none" xmlns="http://www.w3.org/2000/svg" xmlns:cgf="https://coding.garden/flags"><metadata id="cgf-metadata">

<cgf:flag>
  <cgf:name>Zoetermeer</cgf:name>
  <cgf:route>nl/zh/zoetermeer</cgf:route>
  <cgf:aspect-ratio>1.5</cgf:aspect-ratio>
</cgf:flag>

</metadata><g clip-path="url(#clip0_1_11355)">
<path d="M-5.39072 -3.62451L-6.25195 405.425H606.092V-3.62451H-5.39072V-3.62451Z" fill="#0A70B8"/>
<path d="M605.97 269.426C541.006 274.009 509.2 327.435 496.993 377.826C473.619 223.22 257.393 239.239 306.981 406.452L605.97 405.513V269.426Z" fill="#FFC300"/>
<path d="M262.739 344.039C272.255 285.097 313.849 242.675 369.854 235.638C361.562 169.116 271.554 129.057 212.908 190.589C176.278 227.637 177.372 319.443 262.739 344.039Z" fill="#FFC300"/>
<path d="M410.062 233.857C441.904 239.191 482.287 262.011 497.659 293.585C517.58 261.668 547.681 243.789 584.267 234.853C562.815 132.441 430.16 135.284 410.062 233.857Z" fill="#FFC300"/>
<path d="M299.516 122.14C331.358 127.474 371.74 150.294 387.112 181.868C407.033 149.952 437.134 132.072 473.721 123.136C452.269 20.7239 319.614 23.5672 299.516 122.14Z" fill="#FFC300"/>
<path d="M606.902 47.9316L606.436 180.734C586.882 152.494 561.702 129.357 517.484 123.484C530.783 83.5675 550.637 49.5021 606.902 47.9316Z" fill="#FFC300"/>
<path d="M44.4238 42.8184V109.862C48.681 173.722 138.194 173.163 140.908 110.29L141.102 43.2468L44.4238 42.8184H44.4238Z" fill="white" stroke="#F7F7F7"/>
<path d="M45.2793 43.8525V108.973C49.4655 171.001 137.487 170.459 140.156 109.389L140.347 44.2686L45.2794 43.8525H45.2793Z" fill="#0A70B8"/>
<path d="M46.6192 45.422L46.7692 119.193C55.0245 160.986 114.431 168.824 134.284 131.714C136.302 127.943 137.668 123.854 138.857 119.193L138.707 45.1333L46.6191 45.422H46.6192H46.6192Z" fill="#FFC300"/>
<path d="M46.6191 45.2777L46.7691 119.338C47.6828 123.669 49.005 127.278 51.1185 131.609L68.2162 131.464V100.714L65.6665 91.7636L56.6678 87.577C49.0336 81.2773 56.3513 77.5002 60.5672 79.9256C61.5396 76.6333 65.2345 73.1561 67.9162 78.1932C70.5693 74.3677 77.3671 73.9954 76.6901 81.8024C87.7218 74.1515 85.4171 96.507 72.8656 92.1968L71.5158 100.859L72.1157 131.609L91.3131 131.464L91.0131 76.3165L89.5133 70.2531C84.3894 68.8762 79.5604 65.8374 77.515 61.5911C75.2771 57.9269 78.5248 50.0867 85.3139 56.3939C83.8669 50.5063 91.3692 49.625 92.5129 54.8059C96.021 49.4175 103.192 52.99 101.362 56.827C107.607 53.4711 113.805 56.8719 108.261 64.6228C105.113 67.6301 101.533 70.2532 95.8125 70.9749L94.7626 76.6052L94.9126 131.32H116.51L116.374 97.1051L115.31 93.496C110.268 91.7676 105.265 90.905 103.611 86.2777C99.9904 78.7193 106.206 79.4543 108.711 79.9256C108.834 73.6229 116.07 74.8173 117.41 79.0594C120.831 73.6754 127.125 74.9883 125.509 80.6474C133.803 75.5684 131.869 81.1229 130.458 86.1334C127.818 90.4587 124.741 93.3222 120.709 93.7848L119.782 97.2516L119.509 131.609L134.207 131.464C136.185 126.804 137.807 122.73 139.007 119.193L138.707 45.1333L46.6191 45.2777L46.6191 45.2777Z" fill="#0A70B8"/>
<path d="M49.4945 45.085H45.8047V100.251H49.4945V45.085Z" fill="#0A70B8"/>
<path d="M138.789 44.9023H70.8965V49.6517H138.789V44.9023Z" fill="#0A70B8"/>
<path d="M139.711 47.4595H132.885V98.2412H139.711V47.4595Z" fill="#0A70B8"/>
<path d="M134.465 131.432C136.886 127.148 138.013 122.59 139.119 118.306L128.748 124.183L134.182 131.41L134.465 131.432V131.432Z" fill="#0A70B8"/>
<path d="M46.1211 44.1938V109.42C50.2364 171.55 136.767 171.006 139.391 109.837L139.578 44.6106L46.1211 44.1938H46.1211Z" stroke="#F7F7F7"/>
</g>
<defs>
<clipPath id="clip0_1_11355">
<rect width="600" height="400" fill="white"/>
</clipPath>
</defs>
</svg>
