<svg width="600" height="400" viewBox="0 0 600 400" fill="none" xmlns="http://www.w3.org/2000/svg" xmlns:cgf="https://coding.garden/flags"><metadata id="cgf-metadata">

<cgf:flag>
  <cgf:name>Zwijndrecht</cgf:name>
  <cgf:route>nl/zh/zwijndrecht</cgf:route>
  <cgf:aspect-ratio>1.5</cgf:aspect-ratio>
</cgf:flag>

</metadata><g clip-path="url(#clip0_1_11415)">
<path d="M0.713867 -0.880764V400.147L602.305 399.848V-0.880859H0.713867V-0.880764Z" fill="#FFD300"/>
<path d="M-0.419922 128.347V264.6L602.26 264.498V128.347H-0.419922V128.347Z" fill="black"/>
<path d="M248.688 136.33L247.991 226.927C250.199 235.316 255.427 241.787 263.676 246.341C271.013 250.987 280.753 251.916 289.817 253.891L302.364 260.003L311.775 254.25L335.128 249.217L348.721 241.308L355.343 231.242L356.389 226.927V136.33H248.688V136.33Z" fill="#FFD300" stroke="black" stroke-width="0.0991419"/>
<path d="M334.58 135.908C333.564 135.629 334.34 136.013 334.34 136.013C334.061 135.913 333.775 135.912 333.489 135.82L330.864 135.787L330.488 135.577H274.15L273.617 135.886H270.47C269.74 136.227 267.368 136.415 266.687 135.886L265.742 135.787L265.598 135.577H247.893C247.671 135.577 247.494 135.761 247.494 135.983V225.662C247.494 230.766 250.175 236.242 255.049 241.059C259.957 245.925 266.275 249.42 273.349 251.033C284.164 253.49 298.259 256.892 301.606 260.816C301.783 261.015 302.223 261.058 302.403 260.809C306.1 255.862 321.699 253.126 330.823 251.033C339.164 249.113 344.218 245.925 349.13 241.059C353.996 236.242 356.677 230.766 356.677 225.662V135.983C356.677 135.761 356.504 135.577 356.283 135.577H338.724L338.545 135.844C338.217 136.338 338.335 135.819 338.338 135.803H337.634C337.074 136.244 335.787 136.247 334.764 135.975L334.58 135.908V135.908ZM355.433 136.846V225.662C355.433 234.928 345.196 246.63 330.127 249.96C316.13 253.049 305.814 255.11 302.103 259.329L301.862 259.283C296.3 254.497 287.53 253.183 273.525 249.922C260.792 246.952 248.743 235.594 248.743 225.662V136.846H355.433" fill="#231F20"/>
<path d="M276.417 214.852L268.977 224.679L268.893 225.873H273.909V234.414C272.526 239.465 268.382 239.891 266.636 235.976C269.275 234.378 267.784 232.73 266.72 232.394H264.128C261.298 232.647 261.56 234.077 261.286 234.782C261.542 236.171 262.312 237.047 264.296 236.71C264.938 238.059 264.387 239.335 267.639 240.843C269.275 241.482 271.03 241.329 272.822 240.935C275.894 238.529 276 236.89 276.501 235.149L276.417 214.852V214.852Z" fill="black" stroke="black" stroke-width="0.0159634"/>
<path d="M271.208 219.921L277.711 211.738H281.73V210.894H277.297L270.617 219.141L271.208 219.921Z" fill="black" stroke="black" stroke-width="0.0159634"/>
<path d="M278.184 212.907V214.401C277.595 214.478 277.451 214.799 277.297 215.115L277.356 216.089C277.557 216.427 277.833 216.705 278.42 216.739H280.725C281.226 216.683 281.648 216.37 281.717 216.025L281.73 214.92C281.439 214.426 281.069 214.278 280.666 214.271L280.725 212.907H278.184H278.184Z" fill="black" stroke="black" stroke-width="0.0159634"/>
<path d="M278.34 167.552V209.984H280.848V167.644L278.34 167.552V167.552Z" fill="black" stroke="black" stroke-width="0.0159634"/>
<path d="M278.089 163.511L278.006 149.458C278.767 147.295 279.925 145.566 282.018 144.866C283.663 144.376 285.307 144.751 286.951 144.958C288.045 145.935 289.166 146.902 288.957 148.356C290.273 148.627 292.676 148.841 292.134 151.203C292.765 153.033 290.861 155.151 289.208 154.602C286.337 154.72 285.331 150.896 287.118 150.009C286.807 149.183 287.096 148.356 285.78 147.53C285.031 147.212 284.242 147.028 283.272 147.438C281.634 147.919 281.352 149.295 280.765 150.469V163.419L278.089 163.511V163.511Z" fill="black" stroke="black" stroke-width="0.0159634"/>
<path d="M282.353 163.969H276.836L276.585 155.152L272.238 155.061L267.891 164.429L272.489 164.337L267.807 173.613L272.74 173.797L267.557 182.522L272.823 182.43L267.724 191.431H272.572L267.724 200.523L272.154 200.248L268.309 209.341H272.99L268.058 218.341L270.65 218.433L276.752 210.626V166.082L282.353 165.99V163.969V163.969Z" fill="black" stroke="black" stroke-width="0.0159634"/>
<path d="M301.561 214.434L294.121 224.261L294.037 225.455H299.053V233.996C297.669 239.047 293.525 239.473 291.78 235.558C294.419 233.96 292.927 232.312 291.863 231.976H289.272C286.442 232.229 286.703 233.659 286.43 234.364C286.686 235.753 287.456 236.629 289.439 236.293C290.081 237.641 289.531 238.917 292.783 240.426C294.418 241.064 296.174 240.911 297.966 240.517C301.038 238.111 301.144 236.472 301.644 234.731L301.561 214.434Z" fill="black" stroke="black" stroke-width="0.0159634"/>
<path d="M296.351 219.504L302.853 211.321H306.873V210.477H302.439L295.76 218.724L296.351 219.504Z" fill="black" stroke="black" stroke-width="0.0159634"/>
<path d="M303.326 212.489V213.983C302.738 214.06 302.593 214.381 302.439 214.697L302.499 215.671C302.699 216.009 302.975 216.287 303.563 216.321H305.868C306.368 216.265 306.791 215.952 306.859 215.607L306.873 214.503C306.581 214.008 306.211 213.86 305.809 213.853L305.868 212.489H303.326H303.326Z" fill="black" stroke="black" stroke-width="0.0159634"/>
<path d="M303.482 167.134V209.566H305.99V167.226L303.482 167.134Z" fill="black" stroke="black" stroke-width="0.0159634"/>
<path d="M303.232 163.093L303.148 149.04C303.91 146.877 305.067 145.148 307.161 144.448C308.805 143.958 310.449 144.333 312.093 144.54C313.188 145.517 314.308 146.484 314.1 147.938C315.416 148.209 317.819 148.423 317.276 150.785C317.908 152.615 316.004 154.733 314.35 154.184C311.48 154.303 310.474 150.478 312.26 149.591C311.95 148.765 312.239 147.938 310.923 147.112C310.174 146.794 309.385 146.61 308.415 147.02C306.777 147.501 306.495 148.877 305.907 150.051V163.001L303.232 163.093V163.093Z" fill="black" stroke="black" stroke-width="0.0159634"/>
<path d="M307.496 163.552H301.978L301.728 154.735L297.381 154.644L293.034 164.012L297.631 163.92L292.95 173.196L297.882 173.38L292.699 182.105L297.966 182.013L292.866 191.014H297.715L292.866 200.106L297.297 199.831L293.452 208.924H298.133L293.201 217.924L295.792 218.016L301.895 210.209V165.665L307.496 165.573V163.552V163.552Z" fill="black" stroke="black" stroke-width="0.0159634"/>
<path d="M326.639 214.802L319.199 224.629L319.115 225.823H324.131V234.365C322.747 239.415 318.603 239.841 316.858 235.926C319.497 234.328 318.005 232.68 316.942 232.344H314.35C311.52 232.597 311.782 234.027 311.508 234.732C311.764 236.121 312.534 236.997 314.517 236.661C315.16 238.01 314.609 239.286 317.861 240.794C319.497 241.432 321.252 241.279 323.044 240.886C326.116 238.48 326.222 236.841 326.722 235.099L326.639 214.802V214.802Z" fill="black" stroke="black" stroke-width="0.0159634"/>
<path d="M321.429 219.871L327.931 211.688H331.951V210.844H327.517L320.838 219.092L321.429 219.871Z" fill="black" stroke="black" stroke-width="0.0159634"/>
<path d="M328.404 212.857V214.351C327.816 214.428 327.672 214.75 327.518 215.066L327.577 216.04C327.777 216.377 328.053 216.655 328.641 216.689H330.946C331.446 216.633 331.869 216.32 331.937 215.975L331.951 214.871C331.66 214.376 331.289 214.228 330.887 214.221L330.946 212.857H328.404H328.404Z" fill="black" stroke="black" stroke-width="0.0159634"/>
<path d="M328.561 167.502V209.934H331.068V167.594L328.561 167.502Z" fill="black" stroke="black" stroke-width="0.0159634"/>
<path d="M328.31 163.461L328.227 149.409C328.988 147.245 330.145 145.516 332.239 144.816C333.883 144.326 335.527 144.701 337.171 144.908C338.266 145.885 339.386 146.852 339.178 148.306C340.494 148.577 342.897 148.791 342.354 151.154C342.986 152.983 341.082 155.101 339.428 154.552C336.558 154.671 335.552 150.846 337.339 149.96C337.028 149.133 337.317 148.306 336.001 147.48C335.252 147.162 334.463 146.978 333.493 147.388C331.855 147.87 331.573 149.245 330.985 150.419V163.369L328.31 163.461V163.461Z" fill="black" stroke="black" stroke-width="0.0159634"/>
<path d="M332.574 163.92H327.057L326.806 155.103L322.459 155.011L318.112 164.379L322.71 164.287L318.028 173.563L322.96 173.747L317.777 182.472L323.044 182.38L317.945 191.381H322.793L317.945 200.474L322.375 200.198L318.53 209.291H323.211L318.279 218.291L320.87 218.383L326.973 210.577V166.032L332.574 165.94V163.92V163.92Z" fill="black" stroke="black" stroke-width="0.0159634"/>
<path d="M262.936 136.596H348.479L348.289 135.746H262.746L262.936 136.596V136.596Z" fill="black" stroke="black" stroke-width="0.0422318"/>
</g>
<defs>
<clipPath id="clip0_1_11415">
<rect width="600" height="400" fill="white"/>
</clipPath>
</defs>
</svg>
